<?xml version="1.0" encoding="UTF-8" standalone="no"?><svg xmlns="http://www.w3.org/2000/svg" xmlns:xlink="http://www.w3.org/1999/xlink" contentScriptType="application/ecmascript" contentStyleType="text/css" height="542.7083px" preserveAspectRatio="none" style="width:970px;height:542px;background:#333333;" version="1.1" viewBox="0 0 970 542" width="970.8333px" zoomAndPan="magnify"><defs/><g><rect fill="#48494B" height="41.2028" rx="8.3333" ry="8.3333" style="stroke:#545454;stroke-width:1.0416666666666667;" width="580.2083" x="188.2813" y="2.0833"/><text fill="#C0C0C0" font-family="Open Sans,Avenir,Nunito,Arial,Helvetica,SansSerif" font-size="20.8333" lengthAdjust="spacing" textLength="557.2917" x="199.7396" y="30.5583">com.telenav.mesakit.map.geography.indexing.quadtree</text><polygon fill="#333333" points="170.8333,285.4736,388.5417,285.4736,395.8333,312.6953,398.9583,312.6953,398.9583,390.682,170.8333,390.682,170.8333,285.4736" style="stroke:#333333;stroke-width:2.0833333333333335;"/><line style="stroke:#333333;stroke-width:2.0833333333333335;" x1="170.8333" x2="395.8333" y1="312.6953" y2="312.6953"/><text fill="#C8AC00" font-family="Open Sans,Avenir,Nunito,Arial,Helvetica,SansSerif" font-size="12.5" font-weight="bold" lengthAdjust="spacing" textLength="205.2083" x="178.125" y="302.7669">QuadTreeSpatialIndex.Quadrant</text><rect codeLine="12" fill="#282828" height="48.055" id="QuadTreeSpatialIndex.Quadrant.BoundedLeafIterator" rx="8.3333" ry="8.3333" style="stroke:#5E5E5E;stroke-width:1.0416666666666667;" width="169.7917" x="190.1042" y="326.0986"/><rect fill="#1B1B1A" height="31.3883" rx="8.3333" ry="8.3333" style="stroke:#1B1B1A;stroke-width:1.0416666666666667;" width="169.7917" x="190.1042" y="326.0986"/><rect fill="#1B1B1A" height="8.3333" style="stroke:#1B1B1A;stroke-width:1.0416666666666667;" width="169.7917" x="190.1042" y="349.1536"/><rect codeLine="12" fill="none" height="48.055" id="QuadTreeSpatialIndex.Quadrant.BoundedLeafIterator" rx="8.3333" ry="8.3333" style="stroke:#5E5E5E;stroke-width:1.0416666666666667;" width="169.7917" x="190.1042" y="326.0986"/><ellipse cx="204.6875" cy="341.7928" fill="#0066CF" rx="10.4167" ry="10.4167" style="stroke:#0086EF;stroke-width:1.0416666666666667;"/><path d="M206.5979,346.2179 Q206.1707,346.4376 205.7007,346.5474 Q205.2307,346.6573 204.7119,346.6573 Q202.8687,346.6573 201.8982,345.4427 Q200.9277,344.2281 200.9277,341.9332 Q200.9277,339.6322 201.8982,338.4176 Q202.8687,337.203 204.7119,337.203 Q205.2307,337.203 205.7068,337.3128 Q206.1829,337.4227 206.5979,337.6424 L206.5979,339.6444 Q206.134,339.2171 205.6976,339.0188 Q205.2612,338.8204 204.7974,338.8204 Q203.8086,338.8204 203.3051,339.6047 Q202.8015,340.389 202.8015,341.9332 Q202.8015,343.4713 203.3051,344.2556 Q203.8086,345.0399 204.7974,345.0399 Q205.2612,345.0399 205.6976,344.8415 Q206.134,344.6431 206.5979,344.2159 Z " fill="#000000"/><text fill="#D8BC00" font-family="Open Sans,Avenir,Nunito,Arial,Helvetica,SansSerif" font-size="12.5" font-weight="bold" lengthAdjust="spacing" textLength="132.2917" x="221.3542" y="346.5169">BoundedLeafIterator</text><line style="stroke:#5E5E5E;stroke-width:1.0416666666666667;" x1="191.1458" x2="358.8542" y1="357.487" y2="357.487"/><line style="stroke:#5E5E5E;stroke-width:1.0416666666666667;" x1="191.1458" x2="358.8542" y1="365.8203" y2="365.8203"/><rect codeLine="7" fill="#282828" height="48.055" id="BaseIterator" rx="8.3333" ry="8.3333" style="stroke:#5E5E5E;stroke-width:1.0416666666666667;" width="115.625" x="120.3125" y="53.7028"/><rect fill="#1B1B1A" height="31.3883" rx="8.3333" ry="8.3333" style="stroke:#1B1B1A;stroke-width:1.0416666666666667;" width="115.625" x="120.3125" y="53.7028"/><rect fill="#1B1B1A" height="8.3333" style="stroke:#1B1B1A;stroke-width:1.0416666666666667;" width="115.625" x="120.3125" y="76.7578"/><rect codeLine="7" fill="none" height="48.055" id="BaseIterator" rx="8.3333" ry="8.3333" style="stroke:#5E5E5E;stroke-width:1.0416666666666667;" width="115.625" x="120.3125" y="53.7028"/><ellipse cx="134.8958" cy="69.397" fill="#C8AC00" rx="10.4167" ry="10.4167" style="stroke:#D8BC00;stroke-width:1.0416666666666667;"/><path d="M134.4889,66.099 L133.6405,69.8283 L135.3434,69.8283 Z M133.3903,64.4511 L135.5937,64.4511 L138.0534,73.5636 L136.2528,73.5636 L135.6913,71.3114 L133.2804,71.3114 L132.7311,73.5636 L130.9306,73.5636 Z " fill="#000000"/><text fill="#D8BC00" font-family="Open Sans,Avenir,Nunito,Arial,Helvetica,SansSerif" font-size="12.5" font-style="italic" font-weight="bold" lengthAdjust="spacing" textLength="78.125" x="151.5625" y="74.1211">BaseIterator</text><line style="stroke:#5E5E5E;stroke-width:1.0416666666666667;" x1="121.3542" x2="234.8958" y1="85.0911" y2="85.0911"/><line style="stroke:#5E5E5E;stroke-width:1.0416666666666667;" x1="121.3542" x2="234.8958" y1="93.4245" y2="93.4245"/><rect codeLine="9" fill="#282828" height="48.055" id="SerializedObject" rx="8.3333" ry="8.3333" style="stroke:#5E5E5E;stroke-width:1.0416666666666667;" width="141.6667" x="542.7083" y="53.7028"/><rect fill="#1B1B1A" height="31.3883" rx="8.3333" ry="8.3333" style="stroke:#1B1B1A;stroke-width:1.0416666666666667;" width="141.6667" x="542.7083" y="53.7028"/><rect fill="#1B1B1A" height="8.3333" style="stroke:#1B1B1A;stroke-width:1.0416666666666667;" width="141.6667" x="542.7083" y="76.7578"/><rect codeLine="9" fill="none" height="48.055" id="SerializedObject" rx="8.3333" ry="8.3333" style="stroke:#5E5E5E;stroke-width:1.0416666666666667;" width="141.6667" x="542.7083" y="53.7028"/><ellipse cx="557.2917" cy="69.397" fill="#008400" rx="10.4167" ry="10.4167" style="stroke:#239C23;stroke-width:1.0416666666666667;"/><path d="M554.6956,66.5588 L554.6956,64.9719 L560.1217,64.9719 L560.1217,66.5588 L558.3089,66.5588 L558.3089,72.4976 L560.1217,72.4976 L560.1217,74.0845 L554.6956,74.0845 L554.6956,72.4976 L556.5084,72.4976 L556.5084,66.5588 Z " fill="#000000"/><text fill="#D8BC00" font-family="Open Sans,Avenir,Nunito,Arial,Helvetica,SansSerif" font-size="12.5" font-style="italic" font-weight="bold" lengthAdjust="spacing" textLength="104.1667" x="573.9583" y="74.1211">SerializedObject</text><line style="stroke:#5E5E5E;stroke-width:1.0416666666666667;" x1="543.75" x2="683.3333" y1="85.0911" y2="85.0911"/><line style="stroke:#5E5E5E;stroke-width:1.0416666666666667;" x1="543.75" x2="683.3333" y1="93.4245" y2="93.4245"/><rect codeLine="17" fill="#282828" height="372.3063" id="QuadTreeSpatialIndex" rx="8.3333" ry="8.3333" style="stroke:#5E5E5E;stroke-width:1.0416666666666667;" width="394.7917" x="416.1458" y="164.1195"/><rect fill="#1B1B1A" height="31.3883" rx="8.3333" ry="8.3333" style="stroke:#1B1B1A;stroke-width:1.0416666666666667;" width="394.7917" x="416.1458" y="164.1195"/><rect fill="#1B1B1A" height="8.3333" style="stroke:#1B1B1A;stroke-width:1.0416666666666667;" width="394.7917" x="416.1458" y="187.1745"/><rect codeLine="17" fill="none" height="372.3063" id="QuadTreeSpatialIndex" rx="8.3333" ry="8.3333" style="stroke:#5E5E5E;stroke-width:1.0416666666666667;" width="394.7917" x="416.1458" y="164.1195"/><ellipse cx="504.1667" cy="179.8136" fill="#0066CF" rx="10.4167" ry="10.4167" style="stroke:#0086EF;stroke-width:1.0416666666666667;"/><path d="M506.0771,184.2387 Q505.6498,184.4584 505.1799,184.5683 Q504.7099,184.6781 504.1911,184.6781 Q502.3478,184.6781 501.3774,183.4635 Q500.4069,182.2489 500.4069,179.954 Q500.4069,177.653 501.3774,176.4384 Q502.3478,175.2238 504.1911,175.2238 Q504.7099,175.2238 505.186,175.3337 Q505.662,175.4435 506.0771,175.6632 L506.0771,177.6652 Q505.6132,177.238 505.1768,177.0396 Q504.7404,176.8412 504.2765,176.8412 Q503.2878,176.8412 502.7842,177.6255 Q502.2807,178.4098 502.2807,179.954 Q502.2807,181.4921 502.7842,182.2764 Q503.2878,183.0607 504.2765,183.0607 Q504.7404,183.0607 505.1768,182.8623 Q505.6132,182.664 506.0771,182.2367 Z " fill="#000000"/><text fill="#D8BC00" font-family="Open Sans,Avenir,Nunito,Arial,Helvetica,SansSerif" font-size="12.5" font-weight="bold" lengthAdjust="spacing" textLength="141.6667" x="527.0833" y="184.5378">QuadTreeSpatialIndex</text><rect fill="#333333" height="23.055" style="stroke:#A0A0A0;stroke-width:1.0416666666666667;stroke-dasharray:2.0,2.0;" width="60.4167" x="753.6458" y="160.9945"/><text fill="#A0A0A0" font-family="Open Sans,Avenir,Nunito,Arial,Helvetica,SansSerif" font-size="12.5" font-weight="bold" lengthAdjust="spacing" textLength="52.0833" x="757.8125" y="177.2461">Element</text><line style="stroke:#5E5E5E;stroke-width:1.5625;" x1="417.1875" x2="809.8958" y1="195.5078" y2="195.5078"/><ellipse cx="427.6042" cy="230.8777" fill="#84BE84" rx="3.125" ry="3.125" style="stroke:#038048;stroke-width:1.0416666666666667;"/><text fill="#D8BC00" font-family="Open Sans,Avenir,Nunito,Arial,Helvetica,SansSerif" font-size="11.4583" lengthAdjust="spacing" textLength="131.25" x="439.0625" y="237.7889">QuadTreeSpatialIndex()</text><ellipse cx="427.6042" cy="250.6226" fill="#84BE84" rx="3.125" ry="3.125" style="stroke:#038048;stroke-width:1.0416666666666667;"/><text fill="#D8BC00" font-family="Open Sans,Avenir,Nunito,Arial,Helvetica,SansSerif" font-size="11.4583" lengthAdjust="spacing" textLength="200" x="439.0625" y="257.5338">QuadTreeSpatialIndex(int, Distance)</text><line style="stroke:#5E5E5E;stroke-width:1.0416666666666667;" x1="417.1875" x2="569.7917" y1="213.7136" y2="213.7136"/><text fill="#D8BC00" font-family="Open Sans,Avenir,Nunito,Arial,Helvetica,SansSerif" font-size="11.4583" lengthAdjust="spacing" textLength="81.25" x="572.9167" y="217.5232">(constructors)</text><line style="stroke:#5E5E5E;stroke-width:1.0416666666666667;" x1="657.2917" x2="809.8958" y1="213.7136" y2="213.7136"/><line style="stroke:#5E5E5E;stroke-width:1.0416666666666667;" x1="417.1875" x2="809.8958" y1="267.2424" y2="267.2424"/><ellipse cx="427.6042" cy="278.7008" fill="#84BE84" rx="3.125" ry="3.125" style="stroke:#038048;stroke-width:1.0416666666666667;"/><text fill="#D8BC00" font-family="Open Sans,Avenir,Nunito,Arial,Helvetica,SansSerif" font-size="11.4583" lengthAdjust="spacing" textLength="108.3333" x="439.0625" y="285.612">Rectangle bounds()</text><ellipse cx="427.6042" cy="298.4456" fill="#84BE84" rx="3.125" ry="3.125" style="stroke:#038048;stroke-width:1.0416666666666667;"/><text fill="#D8BC00" font-family="Open Sans,Avenir,Nunito,Arial,Helvetica,SansSerif" font-size="11.4583" lengthAdjust="spacing" textLength="154.1667" x="439.0625" y="305.3569">void dump(PrintStream out)</text><ellipse cx="427.6042" cy="318.1905" fill="#84BE84" rx="3.125" ry="3.125" style="stroke:#038048;stroke-width:1.0416666666666667;"/><text fill="#D8BC00" font-family="Open Sans,Avenir,Nunito,Arial,Helvetica,SansSerif" font-size="11.4583" lengthAdjust="spacing" textLength="296.875" x="439.0625" y="325.1017">boolean replace(Element oldValue, Element newValue)</text><ellipse cx="427.6042" cy="361.8469" fill="#84BE84" rx="3.125" ry="3.125" style="stroke:#038048;stroke-width:1.0416666666666667;"/><text fill="#D8BC00" font-family="Open Sans,Avenir,Nunito,Arial,Helvetica,SansSerif" font-size="11.4583" lengthAdjust="spacing" textLength="137.5" x="439.0625" y="368.7581">void add(Element object)</text><ellipse cx="427.6042" cy="381.5918" fill="#84BE84" rx="3.125" ry="3.125" style="stroke:#038048;stroke-width:1.0416666666666667;"/><text fill="#D8BC00" font-family="Open Sans,Avenir,Nunito,Arial,Helvetica,SansSerif" font-size="11.4583" lengthAdjust="spacing" textLength="218.75" x="439.0625" y="388.503">void addAll(Iterable&lt;Element&gt; objects)</text><ellipse cx="427.6042" cy="401.3367" fill="#84BE84" rx="3.125" ry="3.125" style="stroke:#038048;stroke-width:1.0416666666666667;"/><text fill="#D8BC00" font-family="Open Sans,Avenir,Nunito,Arial,Helvetica,SansSerif" font-size="11.4583" lengthAdjust="spacing" textLength="62.5" x="439.0625" y="408.2479">void clear()</text><ellipse cx="427.6042" cy="421.0815" fill="#84BE84" rx="3.125" ry="3.125" style="stroke:#038048;stroke-width:1.0416666666666667;"/><text fill="#D8BC00" font-family="Open Sans,Avenir,Nunito,Arial,Helvetica,SansSerif" font-size="11.4583" lengthAdjust="spacing" textLength="78.125" x="439.0625" y="427.9928">Count count()</text><ellipse cx="427.6042" cy="440.8264" fill="#84BE84" rx="3.125" ry="3.125" style="stroke:#038048;stroke-width:1.0416666666666667;"/><text fill="#D8BC00" font-family="Open Sans,Avenir,Nunito,Arial,Helvetica,SansSerif" font-size="11.4583" lengthAdjust="spacing" textLength="362.5" x="439.0625" y="447.7376">Iterator&lt;Element&gt; inside(Rectangle bounds, Matcher&lt;Element&gt;)</text><ellipse cx="427.6042" cy="460.5713" fill="#84BE84" rx="3.125" ry="3.125" style="stroke:#038048;stroke-width:1.0416666666666667;"/><text fill="#D8BC00" font-family="Open Sans,Avenir,Nunito,Arial,Helvetica,SansSerif" font-size="11.4583" lengthAdjust="spacing" textLength="248.9583" x="439.0625" y="467.4825">Iterator&lt;Element&gt; inside(Rectangle bounds)</text><ellipse cx="427.6042" cy="480.3162" fill="#84BE84" rx="3.125" ry="3.125" style="stroke:#038048;stroke-width:1.0416666666666667;"/><text fill="#D8BC00" font-family="Open Sans,Avenir,Nunito,Arial,Helvetica,SansSerif" font-size="11.4583" lengthAdjust="spacing" textLength="158.3333" x="439.0625" y="487.2274">void remove(Element object)</text><ellipse cx="427.6042" cy="500.061" fill="#84BE84" rx="3.125" ry="3.125" style="stroke:#038048;stroke-width:1.0416666666666667;"/><text fill="#D8BC00" font-family="Open Sans,Avenir,Nunito,Arial,Helvetica,SansSerif" font-size="11.4583" lengthAdjust="spacing" textLength="305.2083" x="439.0625" y="506.9722">void removeAll(Rectangle bounds, Matcher&lt;Element&gt;)</text><ellipse cx="427.6042" cy="519.8059" fill="#84BE84" rx="3.125" ry="3.125" style="stroke:#038048;stroke-width:1.0416666666666667;"/><text fill="#D8BC00" font-family="Open Sans,Avenir,Nunito,Arial,Helvetica,SansSerif" font-size="11.4583" lengthAdjust="spacing" textLength="47.9167" x="439.0625" y="526.7171">int size()</text><line style="stroke:#5E5E5E;stroke-width:1.0416666666666667;" x1="417.1875" x2="579.1667" y1="344.6828" y2="344.6828"/><text fill="#D8BC00" font-family="Open Sans,Avenir,Nunito,Arial,Helvetica,SansSerif" font-size="11.4583" lengthAdjust="spacing" textLength="62.5" x="582.2917" y="348.4924">(collection)</text><line style="stroke:#5E5E5E;stroke-width:1.0416666666666667;" x1="647.9167" x2="809.8958" y1="344.6828" y2="344.6828"/><rect codeLine="38" fill="#282828" height="48.055" id="QuadTreeSpatialIndex.Quadrant" rx="8.3333" ry="8.3333" style="stroke:#5E5E5E;stroke-width:1.0416666666666667;" width="242.7083" x="721.3542" y="53.7028"/><rect fill="#1B1B1A" height="31.3883" rx="8.3333" ry="8.3333" style="stroke:#1B1B1A;stroke-width:1.0416666666666667;" width="242.7083" x="721.3542" y="53.7028"/><rect fill="#1B1B1A" height="8.3333" style="stroke:#1B1B1A;stroke-width:1.0416666666666667;" width="242.7083" x="721.3542" y="76.7578"/><rect codeLine="38" fill="none" height="48.055" id="QuadTreeSpatialIndex.Quadrant" rx="8.3333" ry="8.3333" style="stroke:#5E5E5E;stroke-width:1.0416666666666667;" width="242.7083" x="721.3542" y="53.7028"/><ellipse cx="735.9375" cy="69.397" fill="#0066CF" rx="10.4167" ry="10.4167" style="stroke:#0086EF;stroke-width:1.0416666666666667;"/><path d="M737.8479,73.822 Q737.4207,74.0417 736.9507,74.1516 Q736.4807,74.2615 735.9619,74.2615 Q734.1187,74.2615 733.1482,73.0469 Q732.1777,71.8323 732.1777,69.5374 Q732.1777,67.2363 733.1482,66.0217 Q734.1187,64.8071 735.9619,64.8071 Q736.4807,64.8071 736.9568,64.917 Q737.4329,65.0269 737.8479,65.2466 L737.8479,67.2485 Q737.384,66.8213 736.9476,66.6229 Q736.5112,66.4246 736.0474,66.4246 Q735.0586,66.4246 734.5551,67.2089 Q734.0515,67.9932 734.0515,69.5374 Q734.0515,71.0754 734.5551,71.8597 Q735.0586,72.644 736.0474,72.644 Q736.5112,72.644 736.9476,72.4457 Q737.384,72.2473 737.8479,71.8201 Z " fill="#000000"/><text fill="#D8BC00" font-family="Open Sans,Avenir,Nunito,Arial,Helvetica,SansSerif" font-size="12.5" font-weight="bold" lengthAdjust="spacing" textLength="205.2083" x="752.6042" y="74.1211">QuadTreeSpatialIndex.Quadrant</text><line style="stroke:#5E5E5E;stroke-width:1.0416666666666667;" x1="722.3958" x2="963.0208" y1="85.0911" y2="85.0911"/><line style="stroke:#5E5E5E;stroke-width:1.0416666666666667;" x1="722.3958" x2="963.0208" y1="93.4245" y2="93.4245"/><rect codeLine="43" fill="#282828" height="48.055" id="QuadTreeSpatialIndex.Quadrant.QuadrantIterator" rx="8.3333" ry="8.3333" style="stroke:#5E5E5E;stroke-width:1.0416666666666667;" width="145.8333" x="7.2917" y="326.0986"/><rect fill="#1B1B1A" height="31.3883" rx="8.3333" ry="8.3333" style="stroke:#1B1B1A;stroke-width:1.0416666666666667;" width="145.8333" x="7.2917" y="326.0986"/><rect fill="#1B1B1A" height="8.3333" style="stroke:#1B1B1A;stroke-width:1.0416666666666667;" width="145.8333" x="7.2917" y="349.1536"/><rect codeLine="43" fill="none" height="48.055" id="QuadTreeSpatialIndex.Quadrant.QuadrantIterator" rx="8.3333" ry="8.3333" style="stroke:#5E5E5E;stroke-width:1.0416666666666667;" width="145.8333" x="7.2917" y="326.0986"/><ellipse cx="21.875" cy="341.7928" fill="#0066CF" rx="10.4167" ry="10.4167" style="stroke:#0086EF;stroke-width:1.0416666666666667;"/><path d="M23.7854,346.2179 Q23.3582,346.4376 22.8882,346.5474 Q22.4182,346.6573 21.8994,346.6573 Q20.0562,346.6573 19.0857,345.4427 Q18.1152,344.2281 18.1152,341.9332 Q18.1152,339.6322 19.0857,338.4176 Q20.0562,337.203 21.8994,337.203 Q22.4182,337.203 22.8943,337.3128 Q23.3704,337.4227 23.7854,337.6424 L23.7854,339.6444 Q23.3215,339.2171 22.8851,339.0188 Q22.4487,338.8204 21.9849,338.8204 Q20.9961,338.8204 20.4926,339.6047 Q19.989,340.389 19.989,341.9332 Q19.989,343.4713 20.4926,344.2556 Q20.9961,345.0399 21.9849,345.0399 Q22.4487,345.0399 22.8851,344.8415 Q23.3215,344.6431 23.7854,344.2159 Z " fill="#000000"/><text fill="#D8BC00" font-family="Open Sans,Avenir,Nunito,Arial,Helvetica,SansSerif" font-size="12.5" font-weight="bold" lengthAdjust="spacing" textLength="108.3333" x="38.5417" y="346.5169">QuadrantIterator</text><line style="stroke:#5E5E5E;stroke-width:1.0416666666666667;" x1="8.3333" x2="152.0833" y1="357.487" y2="357.487"/><line style="stroke:#5E5E5E;stroke-width:1.0416666666666667;" x1="8.3333" x2="152.0833" y1="365.8203" y2="365.8203"/><path codeLine="11" d="M193.5104,121.6403 C214.2813,179.5882 250.5521,280.7861 266.7604,326.0257 " fill="none" id="BaseIterator-backto-QuadTreeSpatialIndex.Quadrant.BoundedLeafIterator" style="stroke:#545454;stroke-width:1.5625;"/><polygon fill="none" points="186.5521,123.8174,186.3854,101.7445,200.2813,118.9007,186.5521,123.8174" style="stroke:#545454;stroke-width:1.5625;"/><path codeLine="16" d="M613.5417,122.6924 C613.5417,134.9007 613.5417,148.9632 613.5417,163.984 " fill="none" id="SerializedObject-backto-QuadTreeSpatialIndex" style="stroke:#545454;stroke-width:1.5625;"/><polygon fill="none" points="606.25,122.5778,613.5417,101.7445,620.8333,122.5778,606.25,122.5778" style="stroke:#545454;stroke-width:1.5625;"/><path codeLine="42" d="M162.5729,121.6403 C141.5833,179.5882 104.9167,280.7861 88.5313,326.0257 " fill="none" id="BaseIterator-backto-QuadTreeSpatialIndex.Quadrant.QuadrantIterator" style="stroke:#545454;stroke-width:1.5625;"/><polygon fill="none" points="155.8229,118.859,169.7813,101.7445,169.5417,123.8174,155.8229,118.859" style="stroke:#545454;stroke-width:1.5625;"/></g></svg>
