<?xml version="1.0" encoding="UTF-8" standalone="no"?><svg xmlns="http://www.w3.org/2000/svg" xmlns:xlink="http://www.w3.org/1999/xlink" contentScriptType="application/ecmascript" contentStyleType="text/css" height="218.75px" preserveAspectRatio="none" style="width:1096px;height:218px;background:#333333;" version="1.1" viewBox="0 0 1096 218" width="1096.875px" zoomAndPan="magnify"><defs/><g><rect fill="#48494B" height="41.2028" rx="8.3333" ry="8.3333" style="stroke:#545454;stroke-width:1.0416666666666667;" width="551.0417" x="265.8854" y="2.0833"/><text fill="#C0C0C0" font-family="Open Sans,Avenir,Nunito,Arial,Helvetica,SansSerif" font-size="20.8333" lengthAdjust="spacing" textLength="528.125" x="277.3438" y="30.5583">com.telenav.mesakit.map.geography.internal.lexakai</text><rect codeLine="37" fill="#282828" height="48.055" id="UmlDiagramIdentifier" rx="8.3333" ry="8.3333" style="stroke:#5E5E5E;stroke-width:1.0416666666666667;" width="178.125" x="454.6875" y="53.7028"/><rect fill="#1B1B1A" height="31.3883" rx="8.3333" ry="8.3333" style="stroke:#1B1B1A;stroke-width:1.0416666666666667;" width="178.125" x="454.6875" y="53.7028"/><rect fill="#1B1B1A" height="8.3333" style="stroke:#1B1B1A;stroke-width:1.0416666666666667;" width="178.125" x="454.6875" y="76.7578"/><rect codeLine="37" fill="none" height="48.055" id="UmlDiagramIdentifier" rx="8.3333" ry="8.3333" style="stroke:#5E5E5E;stroke-width:1.0416666666666667;" width="178.125" x="454.6875" y="53.7028"/><ellipse cx="469.2708" cy="69.397" fill="#008400" rx="10.4167" ry="10.4167" style="stroke:#239C23;stroke-width:1.0416666666666667;"/><path d="M466.6748,66.5588 L466.6748,64.9719 L472.1008,64.9719 L472.1008,66.5588 L470.2881,66.5588 L470.2881,72.4976 L472.1008,72.4976 L472.1008,74.0845 L466.6748,74.0845 L466.6748,72.4976 L468.4875,72.4976 L468.4875,66.5588 Z " fill="#000000"/><text fill="#D8BC00" font-family="Open Sans,Avenir,Nunito,Arial,Helvetica,SansSerif" font-size="12.5" font-style="italic" font-weight="bold" lengthAdjust="spacing" textLength="140.625" x="485.9375" y="74.1211">UmlDiagramIdentifier</text><line style="stroke:#5E5E5E;stroke-width:1.0416666666666667;" x1="455.7292" x2="631.7708" y1="85.0911" y2="85.0911"/><line style="stroke:#5E5E5E;stroke-width:1.0416666666666667;" x1="455.7292" x2="631.7708" y1="93.4245" y2="93.4245"/><rect codeLine="9" fill="#282828" height="48.055" id="DiagramLocation" rx="8.3333" ry="8.3333" style="stroke:#5E5E5E;stroke-width:1.0416666666666667;" width="147.9167" x="7.2917" y="164.1195"/><rect fill="#1B1B1A" height="31.3883" rx="8.3333" ry="8.3333" style="stroke:#1B1B1A;stroke-width:1.0416666666666667;" width="147.9167" x="7.2917" y="164.1195"/><rect fill="#1B1B1A" height="8.3333" style="stroke:#1B1B1A;stroke-width:1.0416666666666667;" width="147.9167" x="7.2917" y="187.1745"/><rect codeLine="9" fill="none" height="48.055" id="DiagramLocation" rx="8.3333" ry="8.3333" style="stroke:#5E5E5E;stroke-width:1.0416666666666667;" width="147.9167" x="7.2917" y="164.1195"/><ellipse cx="21.875" cy="179.8136" fill="#008400" rx="10.4167" ry="10.4167" style="stroke:#239C23;stroke-width:1.0416666666666667;"/><path d="M19.279,176.9755 L19.279,175.3886 L24.705,175.3886 L24.705,176.9755 L22.8923,176.9755 L22.8923,182.9142 L24.705,182.9142 L24.705,184.5011 L19.279,184.5011 L19.279,182.9142 L21.0917,182.9142 L21.0917,176.9755 Z " fill="#000000"/><text fill="#D8BC00" font-family="Open Sans,Avenir,Nunito,Arial,Helvetica,SansSerif" font-size="12.5" font-style="italic" font-weight="bold" lengthAdjust="spacing" textLength="110.4167" x="38.5417" y="184.5378">DiagramLocation</text><line style="stroke:#5E5E5E;stroke-width:1.0416666666666667;" x1="8.3333" x2="154.1667" y1="195.5078" y2="195.5078"/><line style="stroke:#5E5E5E;stroke-width:1.0416666666666667;" x1="8.3333" x2="154.1667" y1="203.8411" y2="203.8411"/><rect codeLine="15" fill="#282828" height="48.055" id="DiagramPolyline" rx="8.3333" ry="8.3333" style="stroke:#5E5E5E;stroke-width:1.0416666666666667;" width="143.75" x="191.6667" y="164.1195"/><rect fill="#1B1B1A" height="31.3883" rx="8.3333" ry="8.3333" style="stroke:#1B1B1A;stroke-width:1.0416666666666667;" width="143.75" x="191.6667" y="164.1195"/><rect fill="#1B1B1A" height="8.3333" style="stroke:#1B1B1A;stroke-width:1.0416666666666667;" width="143.75" x="191.6667" y="187.1745"/><rect codeLine="15" fill="none" height="48.055" id="DiagramPolyline" rx="8.3333" ry="8.3333" style="stroke:#5E5E5E;stroke-width:1.0416666666666667;" width="143.75" x="191.6667" y="164.1195"/><ellipse cx="206.25" cy="179.8136" fill="#008400" rx="10.4167" ry="10.4167" style="stroke:#239C23;stroke-width:1.0416666666666667;"/><path d="M203.654,176.9755 L203.654,175.3886 L209.08,175.3886 L209.08,176.9755 L207.2673,176.9755 L207.2673,182.9142 L209.08,182.9142 L209.08,184.5011 L203.654,184.5011 L203.654,182.9142 L205.4667,182.9142 L205.4667,176.9755 Z " fill="#000000"/><text fill="#D8BC00" font-family="Open Sans,Avenir,Nunito,Arial,Helvetica,SansSerif" font-size="12.5" font-style="italic" font-weight="bold" lengthAdjust="spacing" textLength="106.25" x="222.9167" y="184.5378">DiagramPolyline</text><line style="stroke:#5E5E5E;stroke-width:1.0416666666666667;" x1="192.7083" x2="334.375" y1="195.5078" y2="195.5078"/><line style="stroke:#5E5E5E;stroke-width:1.0416666666666667;" x1="192.7083" x2="334.375" y1="203.8411" y2="203.8411"/><rect codeLine="21" fill="#282828" height="48.055" id="DiagramRectangle" rx="8.3333" ry="8.3333" style="stroke:#5E5E5E;stroke-width:1.0416666666666667;" width="155.2083" x="372.3958" y="164.1195"/><rect fill="#1B1B1A" height="31.3883" rx="8.3333" ry="8.3333" style="stroke:#1B1B1A;stroke-width:1.0416666666666667;" width="155.2083" x="372.3958" y="164.1195"/><rect fill="#1B1B1A" height="8.3333" style="stroke:#1B1B1A;stroke-width:1.0416666666666667;" width="155.2083" x="372.3958" y="187.1745"/><rect codeLine="21" fill="none" height="48.055" id="DiagramRectangle" rx="8.3333" ry="8.3333" style="stroke:#5E5E5E;stroke-width:1.0416666666666667;" width="155.2083" x="372.3958" y="164.1195"/><ellipse cx="386.9792" cy="179.8136" fill="#008400" rx="10.4167" ry="10.4167" style="stroke:#239C23;stroke-width:1.0416666666666667;"/><path d="M384.3831,176.9755 L384.3831,175.3886 L389.8092,175.3886 L389.8092,176.9755 L387.9964,176.9755 L387.9964,182.9142 L389.8092,182.9142 L389.8092,184.5011 L384.3831,184.5011 L384.3831,182.9142 L386.1959,182.9142 L386.1959,176.9755 Z " fill="#000000"/><text fill="#D8BC00" font-family="Open Sans,Avenir,Nunito,Arial,Helvetica,SansSerif" font-size="12.5" font-style="italic" font-weight="bold" lengthAdjust="spacing" textLength="117.7083" x="403.6458" y="184.5378">DiagramRectangle</text><line style="stroke:#5E5E5E;stroke-width:1.0416666666666667;" x1="373.4375" x2="526.5625" y1="195.5078" y2="195.5078"/><line style="stroke:#5E5E5E;stroke-width:1.0416666666666667;" x1="373.4375" x2="526.5625" y1="203.8411" y2="203.8411"/><rect codeLine="27" fill="#282828" height="48.055" id="DiagramSegment" rx="8.3333" ry="8.3333" style="stroke:#5E5E5E;stroke-width:1.0416666666666667;" width="148.9583" x="564.0625" y="164.1195"/><rect fill="#1B1B1A" height="31.3883" rx="8.3333" ry="8.3333" style="stroke:#1B1B1A;stroke-width:1.0416666666666667;" width="148.9583" x="564.0625" y="164.1195"/><rect fill="#1B1B1A" height="8.3333" style="stroke:#1B1B1A;stroke-width:1.0416666666666667;" width="148.9583" x="564.0625" y="187.1745"/><rect codeLine="27" fill="none" height="48.055" id="DiagramSegment" rx="8.3333" ry="8.3333" style="stroke:#5E5E5E;stroke-width:1.0416666666666667;" width="148.9583" x="564.0625" y="164.1195"/><ellipse cx="578.6458" cy="179.8136" fill="#008400" rx="10.4167" ry="10.4167" style="stroke:#239C23;stroke-width:1.0416666666666667;"/><path d="M576.0498,176.9755 L576.0498,175.3886 L581.4758,175.3886 L581.4758,176.9755 L579.6631,176.9755 L579.6631,182.9142 L581.4758,182.9142 L581.4758,184.5011 L576.0498,184.5011 L576.0498,182.9142 L577.8625,182.9142 L577.8625,176.9755 Z " fill="#000000"/><text fill="#D8BC00" font-family="Open Sans,Avenir,Nunito,Arial,Helvetica,SansSerif" font-size="12.5" font-style="italic" font-weight="bold" lengthAdjust="spacing" textLength="111.4583" x="595.3125" y="184.5378">DiagramSegment</text><line style="stroke:#5E5E5E;stroke-width:1.0416666666666667;" x1="565.1042" x2="711.9792" y1="195.5078" y2="195.5078"/><line style="stroke:#5E5E5E;stroke-width:1.0416666666666667;" x1="565.1042" x2="711.9792" y1="203.8411" y2="203.8411"/><rect codeLine="33" fill="#282828" height="48.055" id="DiagramShape" rx="8.3333" ry="8.3333" style="stroke:#5E5E5E;stroke-width:1.0416666666666667;" width="131.25" x="750" y="164.1195"/><rect fill="#1B1B1A" height="31.3883" rx="8.3333" ry="8.3333" style="stroke:#1B1B1A;stroke-width:1.0416666666666667;" width="131.25" x="750" y="164.1195"/><rect fill="#1B1B1A" height="8.3333" style="stroke:#1B1B1A;stroke-width:1.0416666666666667;" width="131.25" x="750" y="187.1745"/><rect codeLine="33" fill="none" height="48.055" id="DiagramShape" rx="8.3333" ry="8.3333" style="stroke:#5E5E5E;stroke-width:1.0416666666666667;" width="131.25" x="750" y="164.1195"/><ellipse cx="764.5833" cy="179.8136" fill="#008400" rx="10.4167" ry="10.4167" style="stroke:#239C23;stroke-width:1.0416666666666667;"/><path d="M761.9873,176.9755 L761.9873,175.3886 L767.4133,175.3886 L767.4133,176.9755 L765.6006,176.9755 L765.6006,182.9142 L767.4133,182.9142 L767.4133,184.5011 L761.9873,184.5011 L761.9873,182.9142 L763.8,182.9142 L763.8,176.9755 Z " fill="#000000"/><text fill="#D8BC00" font-family="Open Sans,Avenir,Nunito,Arial,Helvetica,SansSerif" font-size="12.5" font-style="italic" font-weight="bold" lengthAdjust="spacing" textLength="93.75" x="781.25" y="184.5378">DiagramShape</text><line style="stroke:#5E5E5E;stroke-width:1.0416666666666667;" x1="751.0417" x2="880.2083" y1="195.5078" y2="195.5078"/><line style="stroke:#5E5E5E;stroke-width:1.0416666666666667;" x1="751.0417" x2="880.2083" y1="203.8411" y2="203.8411"/><rect codeLine="39" fill="#282828" height="48.055" id="DiagramSpatialIndex" rx="8.3333" ry="8.3333" style="stroke:#5E5E5E;stroke-width:1.0416666666666667;" width="171.875" x="918.2292" y="164.1195"/><rect fill="#1B1B1A" height="31.3883" rx="8.3333" ry="8.3333" style="stroke:#1B1B1A;stroke-width:1.0416666666666667;" width="171.875" x="918.2292" y="164.1195"/><rect fill="#1B1B1A" height="8.3333" style="stroke:#1B1B1A;stroke-width:1.0416666666666667;" width="171.875" x="918.2292" y="187.1745"/><rect codeLine="39" fill="none" height="48.055" id="DiagramSpatialIndex" rx="8.3333" ry="8.3333" style="stroke:#5E5E5E;stroke-width:1.0416666666666667;" width="171.875" x="918.2292" y="164.1195"/><ellipse cx="932.8125" cy="179.8136" fill="#008400" rx="10.4167" ry="10.4167" style="stroke:#239C23;stroke-width:1.0416666666666667;"/><path d="M930.2165,176.9755 L930.2165,175.3886 L935.6425,175.3886 L935.6425,176.9755 L933.8298,176.9755 L933.8298,182.9142 L935.6425,182.9142 L935.6425,184.5011 L930.2165,184.5011 L930.2165,182.9142 L932.0292,182.9142 L932.0292,176.9755 Z " fill="#000000"/><text fill="#D8BC00" font-family="Open Sans,Avenir,Nunito,Arial,Helvetica,SansSerif" font-size="12.5" font-style="italic" font-weight="bold" lengthAdjust="spacing" textLength="134.375" x="949.4792" y="184.5378">DiagramSpatialIndex</text><line style="stroke:#5E5E5E;stroke-width:1.0416666666666667;" x1="919.2708" x2="1089.0625" y1="195.5078" y2="195.5078"/><line style="stroke:#5E5E5E;stroke-width:1.0416666666666667;" x1="919.2708" x2="1089.0625" y1="203.8411" y2="203.8411"/><path codeLine="8" d="M433.875,103.4528 C360.0104,120.2236 260.5104,143.0882 172.9167,164.1195 C167.1771,165.4945 161.2396,166.9424 155.2708,168.4111 " fill="none" id="UmlDiagramIdentifier-backto-DiagramLocation" style="stroke:#545454;stroke-width:1.5625;"/><polygon fill="none" points="432.5417,96.2757,454.4792,98.7757,435.7708,110.4945,432.5417,96.2757" style="stroke:#545454;stroke-width:1.5625;"/><path codeLine="14" d="M464.7708,109.234 C419.7292,126.6507 364.1875,148.1195 322.8854,164.0986 " fill="none" id="UmlDiagramIdentifier-backto-DiagramPolyline" style="stroke:#545454;stroke-width:1.5625;"/><polygon fill="none" points="462.2604,102.3903,484.3229,101.682,467.5208,115.9945,462.2604,102.3903" style="stroke:#545454;stroke-width:1.5625;"/><path codeLine="20" d="M510.0938,117.5986 C496.6042,133.182 481.5313,150.5986 469.8542,164.0986 " fill="none" id="UmlDiagramIdentifier-backto-DiagramRectangle" style="stroke:#545454;stroke-width:1.5625;"/><polygon fill="none" points="504.7188,112.6611,523.8646,101.682,515.75,122.2028,504.7188,112.6611" style="stroke:#545454;stroke-width:1.5625;"/><path codeLine="26" d="M577.7813,117.5986 C591.4167,133.182 606.6563,150.5986 618.4688,164.0986 " fill="none" id="UmlDiagramIdentifier-backto-DiagramSegment" style="stroke:#545454;stroke-width:1.5625;"/><polygon fill="none" points="572.0833,122.1611,563.8542,101.682,583.0625,112.557,572.0833,122.1611" style="stroke:#545454;stroke-width:1.5625;"/><path codeLine="32" d="M620.9688,109.4736 C664.5729,126.8486 718.1458,148.1924 758.0521,164.0986 " fill="none" id="UmlDiagramIdentifier-backto-DiagramShape" style="stroke:#545454;stroke-width:1.5625;"/><polygon fill="none" points="618.0625,116.1611,601.4063,101.682,623.4583,102.6195,618.0625,116.1611" style="stroke:#545454;stroke-width:1.5625;"/><path codeLine="38" d="M653.5729,104.5465 C734.6458,123.6195 843.4375,149.2132 918.2083,166.807 " fill="none" id="UmlDiagramIdentifier-backto-DiagramSpatialIndex" style="stroke:#545454;stroke-width:1.5625;"/><polygon fill="none" points="651.6771,111.5882,633.0729,99.7236,655.0208,97.3903,651.6771,111.5882" style="stroke:#545454;stroke-width:1.5625;"/></g></svg>
