<?xml version="1.0" encoding="UTF-8" standalone="no"?><svg xmlns="http://www.w3.org/2000/svg" xmlns:xlink="http://www.w3.org/1999/xlink" contentScriptType="application/ecmascript" contentStyleType="text/css" height="302.0833px" preserveAspectRatio="none" style="width:247px;height:302px;background:#333333;" version="1.1" viewBox="0 0 247 302" width="247.9167px" zoomAndPan="magnify"><defs/><g><rect fill="#48494B" height="41.2028" rx="8.3333" ry="8.3333" style="stroke:#545454;stroke-width:1.0416666666666667;" width="93.75" x="69.7917" y="2.0833"/><text fill="#C0C0C0" font-family="Open Sans,Avenir,Nunito,Arial,Helvetica,SansSerif" font-size="20.8333" lengthAdjust="spacing" textLength="70.8333" x="81.25" y="30.5583">Shapes</text><rect codeLine="16" fill="#282828" height="131.2012" id="Outline" rx="8.3333" ry="8.3333" style="stroke:#5E5E5E;stroke-width:1.0416666666666667;" width="233.3333" x="7.2917" y="53.7028"/><rect fill="#1B1B1A" height="31.3883" rx="8.3333" ry="8.3333" style="stroke:#1B1B1A;stroke-width:1.0416666666666667;" width="233.3333" x="7.2917" y="53.7028"/><rect fill="#1B1B1A" height="8.3333" style="stroke:#1B1B1A;stroke-width:1.0416666666666667;" width="233.3333" x="7.2917" y="76.7578"/><rect codeLine="16" fill="none" height="131.2012" id="Outline" rx="8.3333" ry="8.3333" style="stroke:#5E5E5E;stroke-width:1.0416666666666667;" width="233.3333" x="7.2917" y="53.7028"/><ellipse cx="92.7083" cy="69.397" fill="#008400" rx="10.4167" ry="10.4167" style="stroke:#239C23;stroke-width:1.0416666666666667;"/><path d="M90.1123,66.5588 L90.1123,64.9719 L95.5383,64.9719 L95.5383,66.5588 L93.7256,66.5588 L93.7256,72.4976 L95.5383,72.4976 L95.5383,74.0845 L90.1123,74.0845 L90.1123,72.4976 L91.925,72.4976 L91.925,66.5588 Z " fill="#000000"/><text fill="#D8BC00" font-family="Open Sans,Avenir,Nunito,Arial,Helvetica,SansSerif" font-size="12.5" font-style="italic" font-weight="bold" lengthAdjust="spacing" textLength="47.9167" x="115.625" y="74.1211">Outline</text><line style="stroke:#5E5E5E;stroke-width:1.5625;" x1="8.3333" x2="239.5833" y1="85.0911" y2="85.0911"/><line style="stroke:#5E5E5E;stroke-width:1.0416666666666667;" x1="8.3333" x2="239.5833" y1="93.4245" y2="93.4245"/><ellipse cx="18.75" cy="104.8828" fill="#84BE84" rx="3.125" ry="3.125" style="stroke:#038048;stroke-width:1.0416666666666667;"/><text fill="#D8BC00" font-family="Open Sans,Avenir,Nunito,Arial,Helvetica,SansSerif" font-size="11.4583" lengthAdjust="spacing" textLength="201.0417" x="30.2083" y="111.794">Containment containment(Location)</text><ellipse cx="18.75" cy="148.5392" fill="#84BE84" rx="3.125" ry="3.125" style="stroke:#038048;stroke-width:1.0416666666666667;"/><text fill="#D8BC00" font-family="Open Sans,Avenir,Nunito,Arial,Helvetica,SansSerif" font-size="11.4583" lengthAdjust="spacing" textLength="147.9167" x="30.2083" y="155.4504">boolean contains(Located)</text><ellipse cx="18.75" cy="168.2841" fill="#84BE84" rx="3.125" ry="3.125" style="stroke:#038048;stroke-width:1.0416666666666667;"/><text fill="#D8BC00" font-family="Open Sans,Avenir,Nunito,Arial,Helvetica,SansSerif" font-size="11.4583" lengthAdjust="spacing" textLength="152.0833" x="30.2083" y="175.1953">boolean contains(Location)</text><line style="stroke:#5E5E5E;stroke-width:1.0416666666666667;" x1="8.3333" x2="89.5833" y1="131.3751" y2="131.3751"/><text fill="#D8BC00" font-family="Open Sans,Avenir,Nunito,Arial,Helvetica,SansSerif" font-size="11.4583" lengthAdjust="spacing" textLength="62.5" x="92.7083" y="135.1847">(collection)</text><line style="stroke:#5E5E5E;stroke-width:1.0416666666666667;" x1="158.3333" x2="239.5833" y1="131.3751" y2="131.3751"/><rect codeLine="18" fill="#282828" height="48.055" id="Shape" rx="8.3333" ry="8.3333" style="stroke:#5E5E5E;stroke-width:1.0416666666666667;" width="76.0417" x="85.9375" y="247.4528"/><rect fill="#1B1B1A" height="31.3883" rx="8.3333" ry="8.3333" style="stroke:#1B1B1A;stroke-width:1.0416666666666667;" width="76.0417" x="85.9375" y="247.4528"/><rect fill="#1B1B1A" height="8.3333" style="stroke:#1B1B1A;stroke-width:1.0416666666666667;" width="76.0417" x="85.9375" y="270.5078"/><rect codeLine="18" fill="none" height="48.055" id="Shape" rx="8.3333" ry="8.3333" style="stroke:#5E5E5E;stroke-width:1.0416666666666667;" width="76.0417" x="85.9375" y="247.4528"/><ellipse cx="100.5208" cy="263.147" fill="#008400" rx="10.4167" ry="10.4167" style="stroke:#239C23;stroke-width:1.0416666666666667;"/><path d="M97.9248,260.3088 L97.9248,258.7219 L103.3508,258.7219 L103.3508,260.3088 L101.5381,260.3088 L101.5381,266.2476 L103.3508,266.2476 L103.3508,267.8345 L97.9248,267.8345 L97.9248,266.2476 L99.7375,266.2476 L99.7375,260.3088 Z " fill="#000000"/><text fill="#D8BC00" font-family="Open Sans,Avenir,Nunito,Arial,Helvetica,SansSerif" font-size="12.5" font-style="italic" font-weight="bold" lengthAdjust="spacing" textLength="38.5417" x="117.1875" y="267.8711">Shape</text><line style="stroke:#5E5E5E;stroke-width:1.0416666666666667;" x1="86.9792" x2="160.9375" y1="278.8411" y2="278.8411"/><line style="stroke:#5E5E5E;stroke-width:1.0416666666666667;" x1="86.9792" x2="160.9375" y1="287.1745" y2="287.1745"/><path codeLine="17" d="M123.9583,206.182 C123.9583,221.4007 123.9583,236.0257 123.9583,247.4528 " fill="none" id="Outline-backto-Shape" style="stroke:#545454;stroke-width:1.5625;"/><polygon fill="none" points="116.6667,206.1195,123.9583,185.2861,131.25,206.1195,116.6667,206.1195" style="stroke:#545454;stroke-width:1.5625;"/></g></svg>
