<?xml version="1.0" encoding="UTF-8" standalone="no"?><svg xmlns="http://www.w3.org/2000/svg" xmlns:xlink="http://www.w3.org/1999/xlink" contentScriptType="application/ecmascript" contentStyleType="text/css" height="969.7917px" preserveAspectRatio="none" style="width:1186px;height:969px;background:#333333;" version="1.1" viewBox="0 0 1186 969" width="1186.4583px" zoomAndPan="magnify"><defs/><g><rect fill="#48494B" height="41.2028" rx="8.3333" ry="8.3333" style="stroke:#545454;stroke-width:1.0416666666666667;" width="175" x="498.4375" y="2.0833"/><text fill="#C0C0C0" font-family="Open Sans,Avenir,Nunito,Arial,Helvetica,SansSerif" font-size="20.8333" lengthAdjust="spacing" textLength="152.0833" x="509.8958" y="30.5583">Spatial Indexes</text><rect codeLine="7" fill="#282828" height="48.055" id="SerializedObject" rx="8.3333" ry="8.3333" style="stroke:#5E5E5E;stroke-width:1.0416666666666667;" width="141.6667" x="133.8542" y="130.2653"/><rect fill="#1B1B1A" height="31.3883" rx="8.3333" ry="8.3333" style="stroke:#1B1B1A;stroke-width:1.0416666666666667;" width="141.6667" x="133.8542" y="130.2653"/><rect fill="#1B1B1A" height="8.3333" style="stroke:#1B1B1A;stroke-width:1.0416666666666667;" width="141.6667" x="133.8542" y="153.3203"/><rect codeLine="7" fill="none" height="48.055" id="SerializedObject" rx="8.3333" ry="8.3333" style="stroke:#5E5E5E;stroke-width:1.0416666666666667;" width="141.6667" x="133.8542" y="130.2653"/><ellipse cx="148.4375" cy="145.9595" fill="#008400" rx="10.4167" ry="10.4167" style="stroke:#239C23;stroke-width:1.0416666666666667;"/><path d="M145.8415,143.1213 L145.8415,141.5344 L151.2675,141.5344 L151.2675,143.1213 L149.4548,143.1213 L149.4548,149.0601 L151.2675,149.0601 L151.2675,150.647 L145.8415,150.647 L145.8415,149.0601 L147.6542,149.0601 L147.6542,143.1213 Z " fill="#000000"/><text fill="#D8BC00" font-family="Open Sans,Avenir,Nunito,Arial,Helvetica,SansSerif" font-size="12.5" font-style="italic" font-weight="bold" lengthAdjust="spacing" textLength="104.1667" x="165.1042" y="150.6836">SerializedObject</text><line style="stroke:#5E5E5E;stroke-width:1.0416666666666667;" x1="134.8958" x2="274.4792" y1="161.6536" y2="161.6536"/><line style="stroke:#5E5E5E;stroke-width:1.0416666666666667;" x1="134.8958" x2="274.4792" y1="169.987" y2="169.987"/><rect codeLine="8" fill="#282828" height="48.055" id="Bounded" rx="8.3333" ry="8.3333" style="stroke:#5E5E5E;stroke-width:1.0416666666666667;" width="94.7917" x="677.0833" y="130.2653"/><rect fill="#1B1B1A" height="31.3883" rx="8.3333" ry="8.3333" style="stroke:#1B1B1A;stroke-width:1.0416666666666667;" width="94.7917" x="677.0833" y="130.2653"/><rect fill="#1B1B1A" height="8.3333" style="stroke:#1B1B1A;stroke-width:1.0416666666666667;" width="94.7917" x="677.0833" y="153.3203"/><rect codeLine="8" fill="none" height="48.055" id="Bounded" rx="8.3333" ry="8.3333" style="stroke:#5E5E5E;stroke-width:1.0416666666666667;" width="94.7917" x="677.0833" y="130.2653"/><ellipse cx="691.6667" cy="145.9595" fill="#008400" rx="10.4167" ry="10.4167" style="stroke:#239C23;stroke-width:1.0416666666666667;"/><path d="M689.0706,143.1213 L689.0706,141.5344 L694.4967,141.5344 L694.4967,143.1213 L692.6839,143.1213 L692.6839,149.0601 L694.4967,149.0601 L694.4967,150.647 L689.0706,150.647 L689.0706,149.0601 L690.8834,149.0601 L690.8834,143.1213 Z " fill="#000000"/><text fill="#D8BC00" font-family="Open Sans,Avenir,Nunito,Arial,Helvetica,SansSerif" font-size="12.5" font-style="italic" font-weight="bold" lengthAdjust="spacing" textLength="57.2917" x="708.3333" y="150.6836">Bounded</text><line style="stroke:#5E5E5E;stroke-width:1.0416666666666667;" x1="678.125" x2="770.8333" y1="161.6536" y2="161.6536"/><line style="stroke:#5E5E5E;stroke-width:1.0416666666666667;" x1="678.125" x2="770.8333" y1="169.987" y2="169.987"/><rect codeLine="9" fill="#282828" height="48.055" id="Outline" rx="8.3333" ry="8.3333" style="stroke:#5E5E5E;stroke-width:1.0416666666666667;" width="85.4167" x="394.2708" y="130.2653"/><rect fill="#1B1B1A" height="31.3883" rx="8.3333" ry="8.3333" style="stroke:#1B1B1A;stroke-width:1.0416666666666667;" width="85.4167" x="394.2708" y="130.2653"/><rect fill="#1B1B1A" height="8.3333" style="stroke:#1B1B1A;stroke-width:1.0416666666666667;" width="85.4167" x="394.2708" y="153.3203"/><rect codeLine="9" fill="none" height="48.055" id="Outline" rx="8.3333" ry="8.3333" style="stroke:#5E5E5E;stroke-width:1.0416666666666667;" width="85.4167" x="394.2708" y="130.2653"/><ellipse cx="408.8542" cy="145.9595" fill="#008400" rx="10.4167" ry="10.4167" style="stroke:#239C23;stroke-width:1.0416666666666667;"/><path d="M406.2581,143.1213 L406.2581,141.5344 L411.6842,141.5344 L411.6842,143.1213 L409.8714,143.1213 L409.8714,149.0601 L411.6842,149.0601 L411.6842,150.647 L406.2581,150.647 L406.2581,149.0601 L408.0709,149.0601 L408.0709,143.1213 Z " fill="#000000"/><text fill="#D8BC00" font-family="Open Sans,Avenir,Nunito,Arial,Helvetica,SansSerif" font-size="12.5" font-style="italic" font-weight="bold" lengthAdjust="spacing" textLength="47.9167" x="425.5208" y="150.6836">Outline</text><line style="stroke:#5E5E5E;stroke-width:1.0416666666666667;" x1="395.3125" x2="478.6458" y1="161.6536" y2="161.6536"/><line style="stroke:#5E5E5E;stroke-width:1.0416666666666667;" x1="395.3125" x2="478.6458" y1="169.987" y2="169.987"/><rect codeLine="10" fill="#282828" height="48.055" id="Intersectable" rx="8.3333" ry="8.3333" style="stroke:#5E5E5E;stroke-width:1.0416666666666667;" width="120.8333" x="516.1458" y="130.2653"/><rect fill="#1B1B1A" height="31.3883" rx="8.3333" ry="8.3333" style="stroke:#1B1B1A;stroke-width:1.0416666666666667;" width="120.8333" x="516.1458" y="130.2653"/><rect fill="#1B1B1A" height="8.3333" style="stroke:#1B1B1A;stroke-width:1.0416666666666667;" width="120.8333" x="516.1458" y="153.3203"/><rect codeLine="10" fill="none" height="48.055" id="Intersectable" rx="8.3333" ry="8.3333" style="stroke:#5E5E5E;stroke-width:1.0416666666666667;" width="120.8333" x="516.1458" y="130.2653"/><ellipse cx="530.7292" cy="145.9595" fill="#008400" rx="10.4167" ry="10.4167" style="stroke:#239C23;stroke-width:1.0416666666666667;"/><path d="M528.1331,143.1213 L528.1331,141.5344 L533.5592,141.5344 L533.5592,143.1213 L531.7464,143.1213 L531.7464,149.0601 L533.5592,149.0601 L533.5592,150.647 L528.1331,150.647 L528.1331,149.0601 L529.9459,149.0601 L529.9459,143.1213 Z " fill="#000000"/><text fill="#D8BC00" font-family="Open Sans,Avenir,Nunito,Arial,Helvetica,SansSerif" font-size="12.5" font-style="italic" font-weight="bold" lengthAdjust="spacing" textLength="83.3333" x="547.3958" y="150.6836">Intersectable</text><line style="stroke:#5E5E5E;stroke-width:1.0416666666666667;" x1="517.1875" x2="635.9375" y1="161.6536" y2="161.6536"/><line style="stroke:#5E5E5E;stroke-width:1.0416666666666667;" x1="517.1875" x2="635.9375" y1="169.987" y2="169.987"/><rect codeLine="15" fill="#282828" height="150.946" id="PolygonSpatialIndex" rx="8.3333" ry="8.3333" style="stroke:#5E5E5E;stroke-width:1.0416666666666667;" width="270.8333" x="439.0625" y="501.0986"/><rect fill="#1B1B1A" height="31.3883" rx="8.3333" ry="8.3333" style="stroke:#1B1B1A;stroke-width:1.0416666666666667;" width="270.8333" x="439.0625" y="501.0986"/><rect fill="#1B1B1A" height="8.3333" style="stroke:#1B1B1A;stroke-width:1.0416666666666667;" width="270.8333" x="439.0625" y="524.1536"/><rect codeLine="15" fill="none" height="150.946" id="PolygonSpatialIndex" rx="8.3333" ry="8.3333" style="stroke:#5E5E5E;stroke-width:1.0416666666666667;" width="270.8333" x="439.0625" y="501.0986"/><ellipse cx="501.5625" cy="516.7928" fill="#0066CF" rx="10.4167" ry="10.4167" style="stroke:#0086EF;stroke-width:1.0416666666666667;"/><path d="M503.4729,521.2179 Q503.0457,521.4376 502.5757,521.5474 Q502.1057,521.6573 501.5869,521.6573 Q499.7437,521.6573 498.7732,520.4427 Q497.8027,519.2281 497.8027,516.9332 Q497.8027,514.6322 498.7732,513.4176 Q499.7437,512.203 501.5869,512.203 Q502.1057,512.203 502.5818,512.3128 Q503.0579,512.4227 503.4729,512.6424 L503.4729,514.6444 Q503.009,514.2171 502.5726,514.0188 Q502.1362,513.8204 501.6724,513.8204 Q500.6836,513.8204 500.1801,514.6047 Q499.6765,515.389 499.6765,516.9332 Q499.6765,518.4713 500.1801,519.2556 Q500.6836,520.0399 501.6724,520.0399 Q502.1362,520.0399 502.5726,519.8415 Q503.009,519.6431 503.4729,519.2159 Z " fill="#000000"/><text fill="#D8BC00" font-family="Open Sans,Avenir,Nunito,Arial,Helvetica,SansSerif" font-size="12.5" font-weight="bold" lengthAdjust="spacing" textLength="131.25" x="524.4792" y="521.5169">PolygonSpatialIndex</text><line style="stroke:#5E5E5E;stroke-width:1.5625;" x1="440.1042" x2="708.8542" y1="532.487" y2="532.487"/><polygon fill="#FFFF44" points="450.5208,562.6485,454.6875,566.8152,450.5208,570.9819,446.3542,566.8152" style="stroke:#B38D22;stroke-width:1.0416666666666667;"/><text fill="#D8BC00" font-family="Open Sans,Avenir,Nunito,Arial,Helvetica,SansSerif" font-size="11.4583" lengthAdjust="spacing" textLength="120.8333" x="461.9792" y="574.7681">PolygonSpatialIndex()</text><ellipse cx="450.5208" cy="587.6017" fill="#84BE84" rx="3.125" ry="3.125" style="stroke:#038048;stroke-width:1.0416666666666667;"/><text fill="#D8BC00" font-family="Open Sans,Avenir,Nunito,Arial,Helvetica,SansSerif" font-size="11.4583" lengthAdjust="spacing" textLength="165.625" x="461.9792" y="594.5129">PolygonSpatialIndex(Polygon)</text><line style="stroke:#5E5E5E;stroke-width:1.0416666666666667;" x1="440.1042" x2="530.7292" y1="550.6927" y2="550.6927"/><text fill="#D8BC00" font-family="Open Sans,Avenir,Nunito,Arial,Helvetica,SansSerif" font-size="11.4583" lengthAdjust="spacing" textLength="81.25" x="533.8542" y="554.5024">(constructors)</text><line style="stroke:#5E5E5E;stroke-width:1.0416666666666667;" x1="618.2292" x2="708.8542" y1="550.6927" y2="550.6927"/><line style="stroke:#5E5E5E;stroke-width:1.0416666666666667;" x1="440.1042" x2="708.8542" y1="604.2216" y2="604.2216"/><ellipse cx="450.5208" cy="615.6799" fill="#84BE84" rx="3.125" ry="3.125" style="stroke:#038048;stroke-width:1.0416666666666667;"/><text fill="#D8BC00" font-family="Open Sans,Avenir,Nunito,Arial,Helvetica,SansSerif" font-size="11.4583" lengthAdjust="spacing" textLength="238.5417" x="461.9792" y="622.5911">void debug(PolygonSpatialIndexDebugger)</text><ellipse cx="450.5208" cy="635.4248" fill="#84BE84" rx="3.125" ry="3.125" style="stroke:#038048;stroke-width:1.0416666666666667;"/><text fill="#D8BC00" font-family="Open Sans,Avenir,Nunito,Arial,Helvetica,SansSerif" font-size="11.4583" lengthAdjust="spacing" textLength="94.7917" x="461.9792" y="642.336">void visit(Visitor)</text><rect codeLine="26" fill="#282828" height="372.3063" id="QuadTreeSpatialIndex" rx="8.3333" ry="8.3333" style="stroke:#5E5E5E;stroke-width:1.0416666666666667;" width="394.7917" x="7.2917" y="390.682"/><rect fill="#1B1B1A" height="31.3883" rx="8.3333" ry="8.3333" style="stroke:#1B1B1A;stroke-width:1.0416666666666667;" width="394.7917" x="7.2917" y="390.682"/><rect fill="#1B1B1A" height="8.3333" style="stroke:#1B1B1A;stroke-width:1.0416666666666667;" width="394.7917" x="7.2917" y="413.737"/><rect codeLine="26" fill="none" height="372.3063" id="QuadTreeSpatialIndex" rx="8.3333" ry="8.3333" style="stroke:#5E5E5E;stroke-width:1.0416666666666667;" width="394.7917" x="7.2917" y="390.682"/><ellipse cx="95.3125" cy="406.3761" fill="#0066CF" rx="10.4167" ry="10.4167" style="stroke:#0086EF;stroke-width:1.0416666666666667;"/><path d="M97.2229,410.8012 Q96.7957,411.0209 96.3257,411.1308 Q95.8557,411.2406 95.3369,411.2406 Q93.4937,411.2406 92.5232,410.026 Q91.5527,408.8114 91.5527,406.5165 Q91.5527,404.2155 92.5232,403.0009 Q93.4937,401.7863 95.3369,401.7863 Q95.8557,401.7863 96.3318,401.8962 Q96.8079,402.006 97.2229,402.2257 L97.2229,404.2277 Q96.759,403.8005 96.3226,403.6021 Q95.8862,403.4037 95.4224,403.4037 Q94.4336,403.4037 93.9301,404.188 Q93.4265,404.9723 93.4265,406.5165 Q93.4265,408.0546 93.9301,408.8389 Q94.4336,409.6232 95.4224,409.6232 Q95.8862,409.6232 96.3226,409.4248 Q96.759,409.2265 97.2229,408.7992 Z " fill="#000000"/><text fill="#D8BC00" font-family="Open Sans,Avenir,Nunito,Arial,Helvetica,SansSerif" font-size="12.5" font-weight="bold" lengthAdjust="spacing" textLength="141.6667" x="118.2292" y="411.1003">QuadTreeSpatialIndex</text><rect fill="#333333" height="23.055" style="stroke:#A0A0A0;stroke-width:1.0416666666666667;stroke-dasharray:2.0,2.0;" width="60.4167" x="344.7917" y="387.557"/><text fill="#A0A0A0" font-family="Open Sans,Avenir,Nunito,Arial,Helvetica,SansSerif" font-size="12.5" font-weight="bold" lengthAdjust="spacing" textLength="52.0833" x="348.9583" y="403.8086">Element</text><line style="stroke:#5E5E5E;stroke-width:1.5625;" x1="8.3333" x2="401.0417" y1="422.0703" y2="422.0703"/><ellipse cx="18.75" cy="457.4402" fill="#84BE84" rx="3.125" ry="3.125" style="stroke:#038048;stroke-width:1.0416666666666667;"/><text fill="#D8BC00" font-family="Open Sans,Avenir,Nunito,Arial,Helvetica,SansSerif" font-size="11.4583" lengthAdjust="spacing" textLength="131.25" x="30.2083" y="464.3514">QuadTreeSpatialIndex()</text><ellipse cx="18.75" cy="477.1851" fill="#84BE84" rx="3.125" ry="3.125" style="stroke:#038048;stroke-width:1.0416666666666667;"/><text fill="#D8BC00" font-family="Open Sans,Avenir,Nunito,Arial,Helvetica,SansSerif" font-size="11.4583" lengthAdjust="spacing" textLength="200" x="30.2083" y="484.0963">QuadTreeSpatialIndex(int, Distance)</text><line style="stroke:#5E5E5E;stroke-width:1.0416666666666667;" x1="8.3333" x2="160.9375" y1="440.2761" y2="440.2761"/><text fill="#D8BC00" font-family="Open Sans,Avenir,Nunito,Arial,Helvetica,SansSerif" font-size="11.4583" lengthAdjust="spacing" textLength="81.25" x="164.0625" y="444.0857">(constructors)</text><line style="stroke:#5E5E5E;stroke-width:1.0416666666666667;" x1="248.4375" x2="401.0417" y1="440.2761" y2="440.2761"/><line style="stroke:#5E5E5E;stroke-width:1.0416666666666667;" x1="8.3333" x2="401.0417" y1="493.8049" y2="493.8049"/><ellipse cx="18.75" cy="505.2633" fill="#84BE84" rx="3.125" ry="3.125" style="stroke:#038048;stroke-width:1.0416666666666667;"/><text fill="#D8BC00" font-family="Open Sans,Avenir,Nunito,Arial,Helvetica,SansSerif" font-size="11.4583" lengthAdjust="spacing" textLength="108.3333" x="30.2083" y="512.1745">Rectangle bounds()</text><ellipse cx="18.75" cy="525.0081" fill="#84BE84" rx="3.125" ry="3.125" style="stroke:#038048;stroke-width:1.0416666666666667;"/><text fill="#D8BC00" font-family="Open Sans,Avenir,Nunito,Arial,Helvetica,SansSerif" font-size="11.4583" lengthAdjust="spacing" textLength="154.1667" x="30.2083" y="531.9194">void dump(PrintStream out)</text><ellipse cx="18.75" cy="544.753" fill="#84BE84" rx="3.125" ry="3.125" style="stroke:#038048;stroke-width:1.0416666666666667;"/><text fill="#D8BC00" font-family="Open Sans,Avenir,Nunito,Arial,Helvetica,SansSerif" font-size="11.4583" lengthAdjust="spacing" textLength="296.875" x="30.2083" y="551.6642">boolean replace(Element oldValue, Element newValue)</text><ellipse cx="18.75" cy="588.4094" fill="#84BE84" rx="3.125" ry="3.125" style="stroke:#038048;stroke-width:1.0416666666666667;"/><text fill="#D8BC00" font-family="Open Sans,Avenir,Nunito,Arial,Helvetica,SansSerif" font-size="11.4583" lengthAdjust="spacing" textLength="137.5" x="30.2083" y="595.3206">void add(Element object)</text><ellipse cx="18.75" cy="608.1543" fill="#84BE84" rx="3.125" ry="3.125" style="stroke:#038048;stroke-width:1.0416666666666667;"/><text fill="#D8BC00" font-family="Open Sans,Avenir,Nunito,Arial,Helvetica,SansSerif" font-size="11.4583" lengthAdjust="spacing" textLength="218.75" x="30.2083" y="615.0655">void addAll(Iterable&lt;Element&gt; objects)</text><ellipse cx="18.75" cy="627.8992" fill="#84BE84" rx="3.125" ry="3.125" style="stroke:#038048;stroke-width:1.0416666666666667;"/><text fill="#D8BC00" font-family="Open Sans,Avenir,Nunito,Arial,Helvetica,SansSerif" font-size="11.4583" lengthAdjust="spacing" textLength="62.5" x="30.2083" y="634.8104">void clear()</text><ellipse cx="18.75" cy="647.644" fill="#84BE84" rx="3.125" ry="3.125" style="stroke:#038048;stroke-width:1.0416666666666667;"/><text fill="#D8BC00" font-family="Open Sans,Avenir,Nunito,Arial,Helvetica,SansSerif" font-size="11.4583" lengthAdjust="spacing" textLength="78.125" x="30.2083" y="654.5553">Count count()</text><ellipse cx="18.75" cy="667.3889" fill="#84BE84" rx="3.125" ry="3.125" style="stroke:#038048;stroke-width:1.0416666666666667;"/><text fill="#D8BC00" font-family="Open Sans,Avenir,Nunito,Arial,Helvetica,SansSerif" font-size="11.4583" lengthAdjust="spacing" textLength="362.5" x="30.2083" y="674.3001">Iterator&lt;Element&gt; inside(Rectangle bounds, Matcher&lt;Element&gt;)</text><ellipse cx="18.75" cy="687.1338" fill="#84BE84" rx="3.125" ry="3.125" style="stroke:#038048;stroke-width:1.0416666666666667;"/><text fill="#D8BC00" font-family="Open Sans,Avenir,Nunito,Arial,Helvetica,SansSerif" font-size="11.4583" lengthAdjust="spacing" textLength="248.9583" x="30.2083" y="694.045">Iterator&lt;Element&gt; inside(Rectangle bounds)</text><ellipse cx="18.75" cy="706.8787" fill="#84BE84" rx="3.125" ry="3.125" style="stroke:#038048;stroke-width:1.0416666666666667;"/><text fill="#D8BC00" font-family="Open Sans,Avenir,Nunito,Arial,Helvetica,SansSerif" font-size="11.4583" lengthAdjust="spacing" textLength="158.3333" x="30.2083" y="713.7899">void remove(Element object)</text><ellipse cx="18.75" cy="726.6235" fill="#84BE84" rx="3.125" ry="3.125" style="stroke:#038048;stroke-width:1.0416666666666667;"/><text fill="#D8BC00" font-family="Open Sans,Avenir,Nunito,Arial,Helvetica,SansSerif" font-size="11.4583" lengthAdjust="spacing" textLength="305.2083" x="30.2083" y="733.5347">void removeAll(Rectangle bounds, Matcher&lt;Element&gt;)</text><ellipse cx="18.75" cy="746.3684" fill="#84BE84" rx="3.125" ry="3.125" style="stroke:#038048;stroke-width:1.0416666666666667;"/><text fill="#D8BC00" font-family="Open Sans,Avenir,Nunito,Arial,Helvetica,SansSerif" font-size="11.4583" lengthAdjust="spacing" textLength="47.9167" x="30.2083" y="753.2796">int size()</text><line style="stroke:#5E5E5E;stroke-width:1.0416666666666667;" x1="8.3333" x2="170.3125" y1="571.2453" y2="571.2453"/><text fill="#D8BC00" font-family="Open Sans,Avenir,Nunito,Arial,Helvetica,SansSerif" font-size="11.4583" lengthAdjust="spacing" textLength="62.5" x="173.4375" y="575.0549">(collection)</text><line style="stroke:#5E5E5E;stroke-width:1.0416666666666667;" x1="239.0625" x2="401.0417" y1="571.2453" y2="571.2453"/><rect codeLine="48" fill="#282828" height="194.6025" id="RTreeBulkLoader" rx="8.3333" ry="8.3333" style="stroke:#5E5E5E;stroke-width:1.0416666666666667;" width="296.875" x="812.5" y="56.8278"/><rect fill="#1B1B1A" height="31.3883" rx="8.3333" ry="8.3333" style="stroke:#1B1B1A;stroke-width:1.0416666666666667;" width="296.875" x="812.5" y="56.8278"/><rect fill="#1B1B1A" height="8.3333" style="stroke:#1B1B1A;stroke-width:1.0416666666666667;" width="296.875" x="812.5" y="79.8828"/><rect codeLine="48" fill="none" height="194.6025" id="RTreeBulkLoader" rx="8.3333" ry="8.3333" style="stroke:#5E5E5E;stroke-width:1.0416666666666667;" width="296.875" x="812.5" y="56.8278"/><ellipse cx="867.7083" cy="72.522" fill="#0066CF" rx="10.4167" ry="10.4167" style="stroke:#0086EF;stroke-width:1.0416666666666667;"/><path d="M869.6187,76.947 Q869.1915,77.1667 868.7215,77.2766 Q868.2515,77.3865 867.7327,77.3865 Q865.8895,77.3865 864.919,76.1719 Q863.9486,74.9573 863.9486,72.6624 Q863.9486,70.3613 864.919,69.1467 Q865.8895,67.9321 867.7327,67.9321 Q868.2515,67.9321 868.7276,68.042 Q869.2037,68.1519 869.6187,68.3716 L869.6187,70.3735 Q869.1549,69.9463 868.7185,69.7479 Q868.2821,69.5496 867.8182,69.5496 Q866.8294,69.5496 866.3259,70.3339 Q865.8223,71.1182 865.8223,72.6624 Q865.8223,74.2004 866.3259,74.9847 Q866.8294,75.769 867.8182,75.769 Q868.2821,75.769 868.7185,75.5707 Q869.1549,75.3723 869.6187,74.9451 Z " fill="#000000"/><text fill="#D8BC00" font-family="Open Sans,Avenir,Nunito,Arial,Helvetica,SansSerif" font-size="12.5" font-weight="bold" lengthAdjust="spacing" textLength="109.375" x="890.625" y="77.2461">RTreeBulkLoader</text><rect fill="#333333" height="23.055" style="stroke:#A0A0A0;stroke-width:1.0416666666666667;stroke-dasharray:2.0,2.0;" width="60.4167" x="1052.0833" y="53.7028"/><text fill="#A0A0A0" font-family="Open Sans,Avenir,Nunito,Arial,Helvetica,SansSerif" font-size="12.5" font-weight="bold" lengthAdjust="spacing" textLength="52.0833" x="1056.25" y="69.9544">Element</text><line style="stroke:#5E5E5E;stroke-width:1.5625;" x1="813.5417" x2="1108.3333" y1="88.2161" y2="88.2161"/><ellipse cx="823.9583" cy="123.586" fill="#84BE84" rx="3.125" ry="3.125" style="stroke:#038048;stroke-width:1.0416666666666667;"/><text fill="#D8BC00" font-family="Open Sans,Avenir,Nunito,Arial,Helvetica,SansSerif" font-size="11.4583" lengthAdjust="spacing" textLength="264.5833" x="835.4167" y="130.4972">RTreeBulkLoader(RTreeSpatialIndex&lt;Element&gt;)</text><line style="stroke:#5E5E5E;stroke-width:1.0416666666666667;" x1="813.5417" x2="917.1875" y1="106.4219" y2="106.4219"/><text fill="#D8BC00" font-family="Open Sans,Avenir,Nunito,Arial,Helvetica,SansSerif" font-size="11.4583" lengthAdjust="spacing" textLength="81.25" x="920.3125" y="110.2315">(constructors)</text><line style="stroke:#5E5E5E;stroke-width:1.0416666666666667;" x1="1004.6875" x2="1108.3333" y1="106.4219" y2="106.4219"/><line style="stroke:#5E5E5E;stroke-width:1.0416666666666667;" x1="813.5417" x2="1108.3333" y1="140.2059" y2="140.2059"/><ellipse cx="823.9583" cy="151.6642" fill="#84BE84" rx="3.125" ry="3.125" style="stroke:#038048;stroke-width:1.0416666666666667;"/><text fill="#D8BC00" font-family="Open Sans,Avenir,Nunito,Arial,Helvetica,SansSerif" font-size="11.4583" lengthAdjust="spacing" textLength="160.4167" x="835.4167" y="158.5754">double log(int base, int num)</text><polygon fill="#FFFF44" points="823.9583,166.2008,828.125,170.3674,823.9583,174.5341,819.7917,170.3674" style="stroke:#B38D22;stroke-width:1.0416666666666667;"/><text fill="#D8BC00" font-family="Open Sans,Avenir,Nunito,Arial,Helvetica,SansSerif" font-size="11.4583" lengthAdjust="spacing" textLength="246.875" x="835.4167" y="178.3203">int compareHorizontal(Element a, Element b)</text><polygon fill="#FFFF44" points="823.9583,185.9456,828.125,190.1123,823.9583,194.279,819.7917,190.1123" style="stroke:#B38D22;stroke-width:1.0416666666666667;"/><text fill="#D8BC00" font-family="Open Sans,Avenir,Nunito,Arial,Helvetica,SansSerif" font-size="11.4583" lengthAdjust="spacing" textLength="230.2083" x="835.4167" y="198.0652">int compareVertical(Element a, Element b)</text><ellipse cx="823.9583" cy="234.8104" fill="#84BE84" rx="3.125" ry="3.125" style="stroke:#038048;stroke-width:1.0416666666666667;"/><text fill="#D8BC00" font-family="Open Sans,Avenir,Nunito,Arial,Helvetica,SansSerif" font-size="11.4583" lengthAdjust="spacing" textLength="194.7917" x="835.4167" y="241.7216">void load(List&lt;Element&gt; elements)</text><line style="stroke:#5E5E5E;stroke-width:1.0416666666666667;" x1="813.5417" x2="941.1458" y1="217.6463" y2="217.6463"/><text fill="#D8BC00" font-family="Open Sans,Avenir,Nunito,Arial,Helvetica,SansSerif" font-size="11.4583" lengthAdjust="spacing" textLength="33.3333" x="944.2708" y="221.4559">(read)</text><line style="stroke:#5E5E5E;stroke-width:1.0416666666666667;" x1="980.7292" x2="1108.3333" y1="217.6463" y2="217.6463"/><rect codeLine="61" fill="#282828" height="479.364" id="RTreeSpatialIndex" rx="8.3333" ry="8.3333" style="stroke:#5E5E5E;stroke-width:1.0416666666666667;" width="428.125" x="746.875" y="337.0361"/><rect fill="#1B1B1A" height="31.3883" rx="8.3333" ry="8.3333" style="stroke:#1B1B1A;stroke-width:1.0416666666666667;" width="428.125" x="746.875" y="337.0361"/><rect fill="#1B1B1A" height="8.3333" style="stroke:#1B1B1A;stroke-width:1.0416666666666667;" width="428.125" x="746.875" y="360.0911"/><rect codeLine="61" fill="none" height="479.364" id="RTreeSpatialIndex" rx="8.3333" ry="8.3333" style="stroke:#5E5E5E;stroke-width:1.0416666666666667;" width="428.125" x="746.875" y="337.0361"/><ellipse cx="864.5833" cy="352.7303" fill="#0066CF" rx="10.4167" ry="10.4167" style="stroke:#0086EF;stroke-width:1.0416666666666667;"/><path d="M866.4937,357.1554 Q866.0665,357.3751 865.5965,357.4849 Q865.1265,357.5948 864.6077,357.5948 Q862.7645,357.5948 861.794,356.3802 Q860.8236,355.1656 860.8236,352.8707 Q860.8236,350.5697 861.794,349.3551 Q862.7645,348.1405 864.6077,348.1405 Q865.1265,348.1405 865.6026,348.2503 Q866.0787,348.3602 866.4937,348.5799 L866.4937,350.5819 Q866.0299,350.1546 865.5935,349.9563 Q865.1571,349.7579 864.6932,349.7579 Q863.7044,349.7579 863.2009,350.5422 Q862.6973,351.3265 862.6973,352.8707 Q862.6973,354.4088 863.2009,355.1931 Q863.7044,355.9774 864.6932,355.9774 Q865.1571,355.9774 865.5935,355.779 Q866.0299,355.5806 866.4937,355.1534 Z " fill="#000000"/><text fill="#D8BC00" font-family="Open Sans,Avenir,Nunito,Arial,Helvetica,SansSerif" font-size="12.5" font-weight="bold" lengthAdjust="spacing" textLength="115.625" x="887.5" y="357.4544">RTreeSpatialIndex</text><rect fill="#333333" height="23.055" style="stroke:#A0A0A0;stroke-width:1.0416666666666667;stroke-dasharray:2.0,2.0;" width="60.4167" x="1117.7083" y="333.9111"/><text fill="#A0A0A0" font-family="Open Sans,Avenir,Nunito,Arial,Helvetica,SansSerif" font-size="12.5" font-weight="bold" lengthAdjust="spacing" textLength="52.0833" x="1121.875" y="350.1628">Element</text><line style="stroke:#5E5E5E;stroke-width:1.5625;" x1="747.9167" x2="1173.9583" y1="368.4245" y2="368.4245"/><polygon fill="#FFFF44" points="758.3333,398.586,762.5,402.7527,758.3333,406.9194,754.1667,402.7527" style="stroke:#B38D22;stroke-width:1.0416666666666667;"/><text fill="#D8BC00" font-family="Open Sans,Avenir,Nunito,Arial,Helvetica,SansSerif" font-size="11.4583" lengthAdjust="spacing" textLength="108.3333" x="769.7917" y="410.7056">RTreeSpatialIndex()</text><ellipse cx="758.3333" cy="423.5392" fill="#84BE84" rx="3.125" ry="3.125" style="stroke:#038048;stroke-width:1.0416666666666667;"/><text fill="#D8BC00" font-family="Open Sans,Avenir,Nunito,Arial,Helvetica,SansSerif" font-size="11.4583" lengthAdjust="spacing" textLength="225" x="769.7917" y="430.4504">RTreeSpatialIndex(String, RTreeSettings)</text><line style="stroke:#5E5E5E;stroke-width:1.0416666666666667;" x1="747.9167" x2="917.1875" y1="386.6302" y2="386.6302"/><text fill="#D8BC00" font-family="Open Sans,Avenir,Nunito,Arial,Helvetica,SansSerif" font-size="11.4583" lengthAdjust="spacing" textLength="81.25" x="920.3125" y="390.4399">(constructors)</text><line style="stroke:#5E5E5E;stroke-width:1.0416666666666667;" x1="1004.6875" x2="1173.9583" y1="386.6302" y2="386.6302"/><line style="stroke:#5E5E5E;stroke-width:1.0416666666666667;" x1="747.9167" x2="1173.9583" y1="440.1591" y2="440.1591"/><ellipse cx="758.3333" cy="451.6174" fill="#84BE84" rx="3.125" ry="3.125" style="stroke:#038048;stroke-width:1.0416666666666667;"/><text fill="#D8BC00" font-family="Open Sans,Avenir,Nunito,Arial,Helvetica,SansSerif" font-size="11.4583" lengthAdjust="spacing" textLength="307.2917" x="769.7917" y="458.5286">void debugger(RTreeSpatialIndexDebugger&lt;Element&gt;)</text><ellipse cx="758.3333" cy="471.3623" fill="#84BE84" rx="3.125" ry="3.125" style="stroke:#038048;stroke-width:1.0416666666666667;"/><text fill="#D8BC00" font-family="Open Sans,Avenir,Nunito,Arial,Helvetica,SansSerif" font-size="11.4583" lengthAdjust="spacing" textLength="154.1667" x="769.7917" y="478.2735">void dump(PrintStream out)</text><ellipse cx="758.3333" cy="491.1072" fill="#84BE84" rx="3.125" ry="3.125" style="stroke:#038048;stroke-width:1.0416666666666667;"/><text fill="#D8BC00" font-family="Open Sans,Avenir,Nunito,Arial,Helvetica,SansSerif" font-size="11.4583" lengthAdjust="spacing" textLength="253.125" x="769.7917" y="498.0184">void dump(PrintStream out, DumpDetailLevel)</text><ellipse cx="758.3333" cy="510.8521" fill="#84BE84" rx="3.125" ry="3.125" style="stroke:#038048;stroke-width:1.0416666666666667;"/><text fill="#D8BC00" font-family="Open Sans,Avenir,Nunito,Arial,Helvetica,SansSerif" font-size="11.4583" lengthAdjust="spacing" textLength="178.125" x="769.7917" y="517.7633">void root(Node&lt;Element&gt; root)</text><ellipse cx="758.3333" cy="530.5969" fill="#84BE84" rx="3.125" ry="3.125" style="stroke:#038048;stroke-width:1.0416666666666667;"/><text fill="#D8BC00" font-family="Open Sans,Avenir,Nunito,Arial,Helvetica,SansSerif" font-size="11.4583" lengthAdjust="spacing" textLength="133.3333" x="769.7917" y="537.5081">RTreeSettings settings()</text><ellipse cx="758.3333" cy="550.3418" fill="#84BE84" rx="3.125" ry="3.125" style="stroke:#038048;stroke-width:1.0416666666666667;"/><text fill="#D8BC00" font-family="Open Sans,Avenir,Nunito,Arial,Helvetica,SansSerif" font-size="11.4583" lengthAdjust="spacing" textLength="111.4583" x="769.7917" y="557.253">Statistics statistics()</text><ellipse cx="758.3333" cy="570.0867" fill="#84BE84" rx="3.125" ry="3.125" style="stroke:#038048;stroke-width:1.0416666666666667;"/><text fill="#D8BC00" font-family="Open Sans,Avenir,Nunito,Arial,Helvetica,SansSerif" font-size="11.4583" lengthAdjust="spacing" textLength="125" x="769.7917" y="576.9979">boolean visualDebug()</text><ellipse cx="758.3333" cy="613.7431" fill="#84BE84" rx="3.125" ry="3.125" style="stroke:#038048;stroke-width:1.0416666666666667;"/><text fill="#D8BC00" font-family="Open Sans,Avenir,Nunito,Arial,Helvetica,SansSerif" font-size="11.4583" lengthAdjust="spacing" textLength="100" x="769.7917" y="620.6543">void add(Element)</text><ellipse cx="758.3333" cy="633.488" fill="#84BE84" rx="3.125" ry="3.125" style="stroke:#038048;stroke-width:1.0416666666666667;"/><text fill="#D8BC00" font-family="Open Sans,Avenir,Nunito,Arial,Helvetica,SansSerif" font-size="11.4583" lengthAdjust="spacing" textLength="128.125" x="769.7917" y="640.3992">Iterable&lt;Element&gt; all()</text><ellipse cx="758.3333" cy="653.2328" fill="#84BE84" rx="3.125" ry="3.125" style="stroke:#038048;stroke-width:1.0416666666666667;"/><text fill="#D8BC00" font-family="Open Sans,Avenir,Nunito,Arial,Helvetica,SansSerif" font-size="11.4583" lengthAdjust="spacing" textLength="78.125" x="769.7917" y="660.144">Count count()</text><ellipse cx="758.3333" cy="672.9777" fill="#84BE84" rx="3.125" ry="3.125" style="stroke:#038048;stroke-width:1.0416666666666667;"/><text fill="#D8BC00" font-family="Open Sans,Avenir,Nunito,Arial,Helvetica,SansSerif" font-size="11.4583" lengthAdjust="spacing" textLength="283.3333" x="769.7917" y="679.8889">RTreeSpatialIndexDebugger&lt;Element&gt; debugger()</text><ellipse cx="758.3333" cy="692.7226" fill="#84BE84" rx="3.125" ry="3.125" style="stroke:#038048;stroke-width:1.0416666666666667;"/><text fill="#D8BC00" font-family="Open Sans,Avenir,Nunito,Arial,Helvetica,SansSerif" font-size="11.4583" lengthAdjust="spacing" textLength="282.2917" x="769.7917" y="699.6338">Iterable&lt;Element&gt; intersecting(Rectangle bounds)</text><ellipse cx="758.3333" cy="712.4674" fill="#84BE84" rx="3.125" ry="3.125" style="stroke:#038048;stroke-width:1.0416666666666667;"/><text fill="#D8BC00" font-family="Open Sans,Avenir,Nunito,Arial,Helvetica,SansSerif" font-size="11.4583" lengthAdjust="spacing" textLength="395.8333" x="769.7917" y="719.3787">Iterable&lt;Element&gt; intersecting(Rectangle bounds, Matcher&lt;Element&gt;)</text><line style="stroke:#5E5E5E;stroke-width:1.0416666666666667;" x1="747.9167" x2="926.5625" y1="596.579" y2="596.579"/><text fill="#D8BC00" font-family="Open Sans,Avenir,Nunito,Arial,Helvetica,SansSerif" font-size="11.4583" lengthAdjust="spacing" textLength="62.5" x="929.6875" y="600.3886">(collection)</text><line style="stroke:#5E5E5E;stroke-width:1.0416666666666667;" x1="995.3125" x2="1173.9583" y1="596.579" y2="596.579"/><ellipse cx="758.3333" cy="756.1239" fill="#84BE84" rx="3.125" ry="3.125" style="stroke:#038048;stroke-width:1.0416666666666667;"/><text fill="#D8BC00" font-family="Open Sans,Avenir,Nunito,Arial,Helvetica,SansSerif" font-size="11.4583" lengthAdjust="spacing" textLength="314.5833" x="769.7917" y="763.0351">Leaf&lt;Element&gt; newLeaf(InteriorNode&lt;Element&gt; parent)</text><line style="stroke:#5E5E5E;stroke-width:1.0416666666666667;" x1="747.9167" x2="933.8542" y1="738.9598" y2="738.9598"/><text fill="#D8BC00" font-family="Open Sans,Avenir,Nunito,Arial,Helvetica,SansSerif" font-size="11.4583" lengthAdjust="spacing" textLength="47.9167" x="936.9792" y="742.7694">(factory)</text><line style="stroke:#5E5E5E;stroke-width:1.0416666666666667;" x1="988.0208" x2="1173.9583" y1="738.9598" y2="738.9598"/><ellipse cx="758.3333" cy="799.7803" fill="#84BE84" rx="3.125" ry="3.125" style="stroke:#038048;stroke-width:1.0416666666666667;"/><text fill="#D8BC00" font-family="Open Sans,Avenir,Nunito,Arial,Helvetica,SansSerif" font-size="11.4583" lengthAdjust="spacing" textLength="221.875" x="769.7917" y="806.6915">void bulkLoad(List&lt;Element&gt; elements)</text><line style="stroke:#5E5E5E;stroke-width:1.0416666666666667;" x1="747.9167" x2="941.1458" y1="782.6162" y2="782.6162"/><text fill="#D8BC00" font-family="Open Sans,Avenir,Nunito,Arial,Helvetica,SansSerif" font-size="11.4583" lengthAdjust="spacing" textLength="33.3333" x="944.2708" y="786.4258">(read)</text><line style="stroke:#5E5E5E;stroke-width:1.0416666666666667;" x1="980.7292" x2="1173.9583" y1="782.6162" y2="782.6162"/><rect codeLine="88" fill="#282828" height="83.3781" id="SegmentRTreeSpatialIndex" rx="8.3333" ry="8.3333" style="stroke:#5E5E5E;stroke-width:1.0416666666666667;" width="396.875" x="762.5" y="879.7445"/><rect fill="#1B1B1A" height="31.3883" rx="8.3333" ry="8.3333" style="stroke:#1B1B1A;stroke-width:1.0416666666666667;" width="396.875" x="762.5" y="879.7445"/><rect fill="#1B1B1A" height="8.3333" style="stroke:#1B1B1A;stroke-width:1.0416666666666667;" width="396.875" x="762.5" y="902.7995"/><rect codeLine="88" fill="none" height="83.3781" id="SegmentRTreeSpatialIndex" rx="8.3333" ry="8.3333" style="stroke:#5E5E5E;stroke-width:1.0416666666666667;" width="396.875" x="762.5" y="879.7445"/><ellipse cx="867.7083" cy="895.4386" fill="#0066CF" rx="10.4167" ry="10.4167" style="stroke:#0086EF;stroke-width:1.0416666666666667;"/><path d="M869.6187,899.8637 Q869.1915,900.0834 868.7215,900.1933 Q868.2515,900.3031 867.7327,900.3031 Q865.8895,900.3031 864.919,899.0885 Q863.9486,897.8739 863.9486,895.579 Q863.9486,893.278 864.919,892.0634 Q865.8895,890.8488 867.7327,890.8488 Q868.2515,890.8488 868.7276,890.9587 Q869.2037,891.0685 869.6187,891.2882 L869.6187,893.2902 Q869.1549,892.863 868.7185,892.6646 Q868.2821,892.4662 867.8182,892.4662 Q866.8294,892.4662 866.3259,893.2505 Q865.8223,894.0348 865.8223,895.579 Q865.8223,897.1171 866.3259,897.9014 Q866.8294,898.6857 867.8182,898.6857 Q868.2821,898.6857 868.7185,898.4873 Q869.1549,898.289 869.6187,897.8617 Z " fill="#000000"/><text fill="#D8BC00" font-family="Open Sans,Avenir,Nunito,Arial,Helvetica,SansSerif" font-size="12.5" font-weight="bold" lengthAdjust="spacing" textLength="171.875" x="890.625" y="900.1628">SegmentRTreeSpatialIndex</text><line style="stroke:#5E5E5E;stroke-width:1.5625;" x1="763.5417" x2="1158.3333" y1="911.1328" y2="911.1328"/><ellipse cx="773.9583" cy="946.5027" fill="#84BE84" rx="3.125" ry="3.125" style="stroke:#038048;stroke-width:1.0416666666666667;"/><text fill="#D8BC00" font-family="Open Sans,Avenir,Nunito,Arial,Helvetica,SansSerif" font-size="11.4583" lengthAdjust="spacing" textLength="364.5833" x="785.4167" y="953.4139">SegmentRTreeSpatialIndex(String, Maximum, Iterable&lt;Segment&gt;)</text><line style="stroke:#5E5E5E;stroke-width:1.0416666666666667;" x1="763.5417" x2="917.1875" y1="929.3386" y2="929.3386"/><text fill="#D8BC00" font-family="Open Sans,Avenir,Nunito,Arial,Helvetica,SansSerif" font-size="11.4583" lengthAdjust="spacing" textLength="81.25" x="920.3125" y="933.1482">(constructors)</text><line style="stroke:#5E5E5E;stroke-width:1.0416666666666667;" x1="1004.6875" x2="1158.3333" y1="929.3386" y2="929.3386"/><path codeLine="12" d="M576.3438,199.4632 C575.9896,271.0778 575.2813,413.2445 574.8542,500.807 " fill="none" id="Intersectable-backto-PolygonSpatialIndex" style="stroke:#545454;stroke-width:1.5625;"/><polygon fill="none" points="569.0521,199.2549,576.4479,178.4632,583.6354,199.3278,569.0521,199.2549" style="stroke:#545454;stroke-width:1.5625;"/><path codeLine="13" d="M709.0313,198.5361 C683.5938,269.8382 632.5521,412.859 601.1667,500.807 " fill="none" id="Bounded-backto-PolygonSpatialIndex" style="stroke:#545454;stroke-width:1.5625;"/><polygon fill="none" points="702.3333,195.6299,716.1979,178.4632,716.0625,200.5361,702.3333,195.6299" style="stroke:#545454;stroke-width:1.5625;"/><path codeLine="14" d="M451.1354,198.5361 C474.4583,269.8382 521.25,412.859 550.0208,500.807 " fill="none" id="Outline-backto-PolygonSpatialIndex" style="stroke:#545454;stroke-width:1.5625;"/><polygon fill="none" points="444.1146,200.5257,444.5625,178.4632,457.9792,195.9945,444.1146,200.5257" style="stroke:#545454;stroke-width:1.5625;"/><path codeLine="25" d="M204.6875,199.609 C204.6875,245.3799 204.6875,319.8695 204.6875,390.5153 " fill="none" id="SerializedObject-backto-QuadTreeSpatialIndex" style="stroke:#545454;stroke-width:1.5625;"/><polygon fill="none" points="197.3958,199.2965,204.6875,178.4632,211.9792,199.2965,197.3958,199.2965" style="stroke:#545454;stroke-width:1.5625;"/><path codeLine="47" d="M960.9375,251.6924 C960.9375,276.109 960.9375,303.4528 960.9375,331.6299 " fill="none" id="RTreeBulkLoader-to-RTreeSpatialIndex" style="stroke:#545454;stroke-width:1.5625;"/><polygon fill="#545454" points="960.9375,336.9007,965.1042,327.5257,960.9375,331.6924,956.7708,327.5257,960.9375,336.9007" style="stroke:#545454;stroke-width:1.5625;"/><text fill="#A0A0A0" font-family="Open Sans,Avenir,Nunito,Arial,Helvetica,SansSerif" font-size="12.5" font-weight="bold" lengthAdjust="spacing" textLength="35.4167" x="965.1042" y="299.1211">loads</text><path codeLine="60" d="M747.9375,196.9632 C767.1979,231.2028 796.1771,282.7132 826.6042,336.807 " fill="none" id="Bounded-backto-RTreeSpatialIndex" style="stroke:#545454;stroke-width:1.5625;"/><polygon fill="none" points="741.3854,200.1924,737.5313,178.4632,754.0938,193.0465,741.3854,200.1924" style="stroke:#545454;stroke-width:1.5625;"/><path codeLine="87" d="M960.9375,837.4736 C960.9375,853.0986 960.9375,867.3695 960.9375,879.5049 " fill="none" id="RTreeSpatialIndex-backto-SegmentRTreeSpatialIndex" style="stroke:#545454;stroke-width:1.5625;"/><polygon fill="none" points="953.6458,837.4528,960.9375,816.6195,968.2292,837.4528,953.6458,837.4528" style="stroke:#545454;stroke-width:1.5625;"/></g></svg>
