<?xml version="1.0" encoding="UTF-8" standalone="no"?><svg xmlns="http://www.w3.org/2000/svg" xmlns:xlink="http://www.w3.org/1999/xlink" contentScriptType="application/ecmascript" contentStyleType="text/css" height="333.3333px" preserveAspectRatio="none" style="width:289px;height:333px;background:#333333;" version="1.1" viewBox="0 0 289 333" width="289.5833px" zoomAndPan="magnify"><defs/><g><rect fill="#48494B" height="41.2028" rx="8.3333" ry="8.3333" style="stroke:#545454;stroke-width:1.0416666666666667;" width="277.0833" x="2.0833" y="2.0833"/><text fill="#C0C0C0" font-family="Open Sans,Avenir,Nunito,Arial,Helvetica,SansSerif" font-size="20.8333" lengthAdjust="spacing" textLength="254.1667" x="13.5417" y="30.5583">com.telenav.mesakit.core</text><rect fill="#282828" height="48.055" id="Project" rx="8.3333" ry="8.3333" style="stroke:#5E5E5E;stroke-width:1.0416666666666667;" width="81.25" x="107.2917" y="53.7028"/><rect fill="#1B1B1A" height="31.3883" rx="8.3333" ry="8.3333" style="stroke:#1B1B1A;stroke-width:1.0416666666666667;" width="81.25" x="107.2917" y="53.7028"/><rect fill="#1B1B1A" height="8.3333" style="stroke:#1B1B1A;stroke-width:1.0416666666666667;" width="81.25" x="107.2917" y="76.7578"/><rect fill="none" height="48.055" id="Project" rx="8.3333" ry="8.3333" style="stroke:#5E5E5E;stroke-width:1.0416666666666667;" width="81.25" x="107.2917" y="53.7028"/><ellipse cx="121.875" cy="69.397" fill="#0066CF" rx="10.4167" ry="10.4167" style="stroke:#0086EF;stroke-width:1.0416666666666667;"/><path d="M123.7854,73.822 Q123.3582,74.0417 122.8882,74.1516 Q122.4182,74.2615 121.8994,74.2615 Q120.0562,74.2615 119.0857,73.0469 Q118.1152,71.8323 118.1152,69.5374 Q118.1152,67.2363 119.0857,66.0217 Q120.0562,64.8071 121.8994,64.8071 Q122.4182,64.8071 122.8943,64.917 Q123.3704,65.0269 123.7854,65.2466 L123.7854,67.2485 Q123.3215,66.8213 122.8851,66.6229 Q122.4487,66.4246 121.9849,66.4246 Q120.9961,66.4246 120.4926,67.2089 Q119.989,67.9932 119.989,69.5374 Q119.989,71.0754 120.4926,71.8597 Q120.9961,72.644 121.9849,72.644 Q122.4487,72.644 122.8851,72.4457 Q123.3215,72.2473 123.7854,71.8201 Z " fill="#000000"/><text fill="#D8BC00" font-family="Open Sans,Avenir,Nunito,Arial,Helvetica,SansSerif" font-size="12.5" font-weight="bold" lengthAdjust="spacing" textLength="43.75" x="138.5417" y="74.1211">Project</text><line style="stroke:#5E5E5E;stroke-width:1.0416666666666667;" x1="108.3333" x2="187.5" y1="85.0911" y2="85.0911"/><line style="stroke:#5E5E5E;stroke-width:1.0416666666666667;" x1="108.3333" x2="187.5" y1="93.4245" y2="93.4245"/><rect codeLine="8" fill="#282828" height="162.3576" id="MesaKit" rx="8.3333" ry="8.3333" style="stroke:#5E5E5E;stroke-width:1.0416666666666667;" width="255.2083" x="20.3125" y="164.1195"/><rect fill="#1B1B1A" height="31.3883" rx="8.3333" ry="8.3333" style="stroke:#1B1B1A;stroke-width:1.0416666666666667;" width="255.2083" x="20.3125" y="164.1195"/><rect fill="#1B1B1A" height="8.3333" style="stroke:#1B1B1A;stroke-width:1.0416666666666667;" width="255.2083" x="20.3125" y="187.1745"/><rect codeLine="8" fill="none" height="162.3576" id="MesaKit" rx="8.3333" ry="8.3333" style="stroke:#5E5E5E;stroke-width:1.0416666666666667;" width="255.2083" x="20.3125" y="164.1195"/><ellipse cx="114.5833" cy="179.8136" fill="#0066CF" rx="10.4167" ry="10.4167" style="stroke:#0086EF;stroke-width:1.0416666666666667;"/><path d="M116.4937,184.2387 Q116.0665,184.4584 115.5965,184.5683 Q115.1265,184.6781 114.6077,184.6781 Q112.7645,184.6781 111.794,183.4635 Q110.8236,182.2489 110.8236,179.954 Q110.8236,177.653 111.794,176.4384 Q112.7645,175.2238 114.6077,175.2238 Q115.1265,175.2238 115.6026,175.3337 Q116.0787,175.4435 116.4937,175.6632 L116.4937,177.6652 Q116.0299,177.238 115.5935,177.0396 Q115.1571,176.8412 114.6932,176.8412 Q113.7044,176.8412 113.2009,177.6255 Q112.6973,178.4098 112.6973,179.954 Q112.6973,181.4921 113.2009,182.2764 Q113.7044,183.0607 114.6932,183.0607 Q115.1571,183.0607 115.5935,182.8623 Q116.0299,182.664 116.4937,182.2367 Z " fill="#000000"/><text fill="#D8BC00" font-family="Open Sans,Avenir,Nunito,Arial,Helvetica,SansSerif" font-size="12.5" font-weight="bold" lengthAdjust="spacing" textLength="52.0833" x="137.5" y="184.5378">MesaKit</text><line style="stroke:#5E5E5E;stroke-width:1.5625;" x1="21.3542" x2="274.4792" y1="195.5078" y2="195.5078"/><ellipse cx="31.7708" cy="230.8777" fill="#84BE84" rx="3.125" ry="3.125" style="stroke:#038048;stroke-width:1.0416666666666667;"/><text fill="#D8BC00" font-family="Open Sans,Avenir,Nunito,Arial,Helvetica,SansSerif" font-size="11.4583" lengthAdjust="spacing" textLength="222.9167" x="43.2292" y="237.7889">Folder mesakitAllVersionsCacheFolder()</text><ellipse cx="31.7708" cy="250.6226" fill="#84BE84" rx="3.125" ry="3.125" style="stroke:#038048;stroke-width:1.0416666666666667;"/><text fill="#D8BC00" font-family="Open Sans,Avenir,Nunito,Arial,Helvetica,SansSerif" font-size="11.4583" lengthAdjust="spacing" textLength="159.375" x="43.2292" y="257.5338">Folder mesakitCacheFolder()</text><ellipse cx="31.7708" cy="270.3674" fill="#84BE84" rx="3.125" ry="3.125" style="stroke:#038048;stroke-width:1.0416666666666667;"/><text fill="#D8BC00" font-family="Open Sans,Avenir,Nunito,Arial,Helvetica,SansSerif" font-size="11.4583" lengthAdjust="spacing" textLength="183.3333" x="43.2292" y="277.2786">Folder mesakitExtensionsHome()</text><ellipse cx="31.7708" cy="290.1123" fill="#84BE84" rx="3.125" ry="3.125" style="stroke:#038048;stroke-width:1.0416666666666667;"/><text fill="#D8BC00" font-family="Open Sans,Avenir,Nunito,Arial,Helvetica,SansSerif" font-size="11.4583" lengthAdjust="spacing" textLength="121.875" x="43.2292" y="297.0235">Folder mesakitHome()</text><ellipse cx="31.7708" cy="309.8572" fill="#84BE84" rx="3.125" ry="3.125" style="stroke:#038048;stroke-width:1.0416666666666667;"/><text fill="#D8BC00" font-family="Open Sans,Avenir,Nunito,Arial,Helvetica,SansSerif" font-size="11.4583" lengthAdjust="spacing" textLength="185.4167" x="43.2292" y="316.7684">Folder mesakitRootCacheFolder()</text><line style="stroke:#5E5E5E;stroke-width:1.0416666666666667;" x1="21.3542" x2="112.5" y1="213.7136" y2="213.7136"/><text fill="#D8BC00" font-family="Open Sans,Avenir,Nunito,Arial,Helvetica,SansSerif" font-size="11.4583" lengthAdjust="spacing" textLength="64.5833" x="115.625" y="217.5232">(filesystem)</text><line style="stroke:#5E5E5E;stroke-width:1.0416666666666667;" x1="183.3333" x2="274.4792" y1="213.7136" y2="213.7136"/><path codeLine="7" d="M147.9167,122.5778 C147.9167,135.3174 147.9167,149.6403 147.9167,163.8799 " fill="none" id="Project-backto-MesaKit" style="stroke:#545454;stroke-width:1.5625;"/><polygon fill="none" points="140.625,122.5674,147.9167,101.734,155.2083,122.5674,140.625,122.5674" style="stroke:#545454;stroke-width:1.5625;"/></g></svg>
