<?xml version="1.0" encoding="UTF-8" standalone="no"?><svg xmlns="http://www.w3.org/2000/svg" xmlns:xlink="http://www.w3.org/1999/xlink" contentScriptType="application/ecmascript" contentStyleType="text/css" height="640.625px" preserveAspectRatio="none" style="width:689px;height:640px;background:#333333;" version="1.1" viewBox="0 0 689 640" width="689.5833px" zoomAndPan="magnify"><defs/><g><rect fill="#48494B" height="41.2028" rx="8.3333" ry="8.3333" style="stroke:#545454;stroke-width:1.0416666666666667;" width="157.2917" x="259.1146" y="2.0833"/><text fill="#C0C0C0" font-family="Open Sans,Avenir,Nunito,Arial,Helvetica,SansSerif" font-size="20.8333" lengthAdjust="spacing" textLength="134.375" x="270.5729" y="30.5583">mesakit-core</text><rect fill="#1B1B1A" height="44.93" rx="8.3333" ry="8.3333" style="stroke:#5E5E5E;stroke-width:1.5625;" width="138.5417" x="7.2917" y="482.8695"/><polygon fill="#1B1B1A" points="128.125,488.0778,128.125,502.6611,140.625,502.6611,140.625,494.3278,134.375,488.0778,128.125,488.0778" style="stroke:#5E5E5E;stroke-width:1.5625;"/><line style="stroke:#5E5E5E;stroke-width:1.5625;" x1="134.375" x2="134.375" y1="488.0778" y2="494.3278"/><line style="stroke:#5E5E5E;stroke-width:1.5625;" x1="140.625" x2="134.375" y1="494.3278" y2="494.3278"/><text fill="#D8BC00" font-family="Open Sans,Avenir,Nunito,Arial,Helvetica,SansSerif" font-size="12.5" lengthAdjust="spacing" textLength="101.0417" x="20.8333" y="511.6211">cactus_metadata</text><rect fill="#1B1B1A" height="44.93" rx="8.3333" ry="8.3333" style="stroke:#5E5E5E;stroke-width:1.5625;" width="143.75" x="180.7292" y="268.2861"/><polygon fill="#1B1B1A" points="306.7708,273.4945,306.7708,288.0778,319.2708,288.0778,319.2708,279.7445,313.0208,273.4945,306.7708,273.4945" style="stroke:#5E5E5E;stroke-width:1.5625;"/><line style="stroke:#5E5E5E;stroke-width:1.5625;" x1="313.0208" x2="313.0208" y1="273.4945" y2="279.7445"/><line style="stroke:#5E5E5E;stroke-width:1.5625;" x1="319.2708" x2="313.0208" y1="279.7445" y2="279.7445"/><text fill="#D8BC00" font-family="Open Sans,Avenir,Nunito,Arial,Helvetica,SansSerif" font-size="12.5" lengthAdjust="spacing" textLength="106.25" x="194.2708" y="297.0378">kivakit_collections</text><rect fill="#1B1B1A" height="44.93" rx="8.3333" ry="8.3333" style="stroke:#5E5E5E;stroke-width:1.5625;" width="162.5" x="360.9375" y="268.2861"/><polygon fill="#1B1B1A" points="505.7292,273.4945,505.7292,288.0778,518.2292,288.0778,518.2292,279.7445,511.9792,273.4945,505.7292,273.4945" style="stroke:#5E5E5E;stroke-width:1.5625;"/><line style="stroke:#5E5E5E;stroke-width:1.5625;" x1="511.9792" x2="511.9792" y1="273.4945" y2="279.7445"/><line style="stroke:#5E5E5E;stroke-width:1.5625;" x1="518.2292" x2="511.9792" y1="279.7445" y2="279.7445"/><text fill="#D8BC00" font-family="Open Sans,Avenir,Nunito,Arial,Helvetica,SansSerif" font-size="12.5" lengthAdjust="spacing" textLength="125" x="374.4792" y="297.0378">kivakit_commandline</text><rect fill="#1B1B1A" height="44.93" rx="8.3333" ry="8.3333" style="stroke:#5E5E5E;stroke-width:1.5625;" width="145.8333" x="355.7292" y="375.5778"/><polygon fill="#1B1B1A" points="483.8542,380.7861,483.8542,395.3695,496.3542,395.3695,496.3542,387.0361,490.1042,380.7861,483.8542,380.7861" style="stroke:#5E5E5E;stroke-width:1.5625;"/><line style="stroke:#5E5E5E;stroke-width:1.5625;" x1="490.1042" x2="490.1042" y1="380.7861" y2="387.0361"/><line style="stroke:#5E5E5E;stroke-width:1.5625;" x1="496.3542" x2="490.1042" y1="387.0361" y2="387.0361"/><text fill="#D8BC00" font-family="Open Sans,Avenir,Nunito,Arial,Helvetica,SansSerif" font-size="12.5" lengthAdjust="spacing" textLength="108.3333" x="369.2708" y="404.3294">kivakit_conversion</text><rect fill="#1B1B1A" height="44.93" rx="8.3333" ry="8.3333" style="stroke:#5E5E5E;stroke-width:1.5625;" width="108.3333" x="198.4375" y="375.5778"/><polygon fill="#1B1B1A" points="289.0625,380.7861,289.0625,395.3695,301.5625,395.3695,301.5625,387.0361,295.3125,380.7861,289.0625,380.7861" style="stroke:#5E5E5E;stroke-width:1.5625;"/><line style="stroke:#5E5E5E;stroke-width:1.5625;" x1="295.3125" x2="295.3125" y1="380.7861" y2="387.0361"/><line style="stroke:#5E5E5E;stroke-width:1.5625;" x1="301.5625" x2="295.3125" y1="387.0361" y2="387.0361"/><text fill="#D8BC00" font-family="Open Sans,Avenir,Nunito,Arial,Helvetica,SansSerif" font-size="12.5" lengthAdjust="spacing" textLength="70.8333" x="211.9792" y="404.3294">kivakit_core</text><rect fill="#1B1B1A" height="44.93" rx="8.3333" ry="8.3333" style="stroke:#5E5E5E;stroke-width:1.5625;" width="140.625" x="182.2917" y="482.8695"/><polygon fill="#1B1B1A" points="305.2083,488.0778,305.2083,502.6611,317.7083,502.6611,317.7083,494.3278,311.4583,488.0778,305.2083,488.0778" style="stroke:#5E5E5E;stroke-width:1.5625;"/><line style="stroke:#5E5E5E;stroke-width:1.5625;" x1="311.4583" x2="311.4583" y1="488.0778" y2="494.3278"/><line style="stroke:#5E5E5E;stroke-width:1.5625;" x1="317.7083" x2="311.4583" y1="494.3278" y2="494.3278"/><text fill="#D8BC00" font-family="Open Sans,Avenir,Nunito,Arial,Helvetica,SansSerif" font-size="12.5" lengthAdjust="spacing" textLength="103.125" x="195.8333" y="511.6211">kivakit_interfaces</text><rect fill="#1B1B1A" height="44.93" rx="8.3333" ry="8.3333" style="stroke:#5E5E5E;stroke-width:1.5625;" width="120.8333" x="359.8958" y="482.8695"/><polygon fill="#1B1B1A" points="463.0208,488.0778,463.0208,502.6611,475.5208,502.6611,475.5208,494.3278,469.2708,488.0778,463.0208,488.0778" style="stroke:#5E5E5E;stroke-width:1.5625;"/><line style="stroke:#5E5E5E;stroke-width:1.5625;" x1="469.2708" x2="469.2708" y1="488.0778" y2="494.3278"/><line style="stroke:#5E5E5E;stroke-width:1.5625;" x1="475.5208" x2="469.2708" y1="494.3278" y2="494.3278"/><text fill="#D8BC00" font-family="Open Sans,Avenir,Nunito,Arial,Helvetica,SansSerif" font-size="12.5" lengthAdjust="spacing" textLength="83.3333" x="373.4375" y="511.6211">kivakit_mixins</text><rect fill="#1B1B1A" height="44.93" rx="8.3333" ry="8.3333" style="stroke:#5E5E5E;stroke-width:1.5625;" width="134.375" x="280.2083" y="160.9945"/><polygon fill="#1B1B1A" points="396.875,166.2028,396.875,180.7861,409.375,180.7861,409.375,172.4528,403.125,166.2028,396.875,166.2028" style="stroke:#5E5E5E;stroke-width:1.5625;"/><line style="stroke:#5E5E5E;stroke-width:1.5625;" x1="403.125" x2="403.125" y1="166.2028" y2="172.4528"/><line style="stroke:#5E5E5E;stroke-width:1.5625;" x1="409.375" x2="403.125" y1="172.4528" y2="172.4528"/><text fill="#D8BC00" font-family="Open Sans,Avenir,Nunito,Arial,Helvetica,SansSerif" font-size="12.5" lengthAdjust="spacing" textLength="96.875" x="293.75" y="189.7461">kivakit_resource</text><rect fill="#1B1B1A" height="44.93" rx="8.3333" ry="8.3333" style="stroke:#5E5E5E;stroke-width:1.5625;" width="139.5833" x="538.0208" y="375.5778"/><polygon fill="#1B1B1A" points="659.8958,380.7861,659.8958,395.3695,672.3958,395.3695,672.3958,387.0361,666.1458,380.7861,659.8958,380.7861" style="stroke:#5E5E5E;stroke-width:1.5625;"/><line style="stroke:#5E5E5E;stroke-width:1.5625;" x1="666.1458" x2="666.1458" y1="380.7861" y2="387.0361"/><line style="stroke:#5E5E5E;stroke-width:1.5625;" x1="672.3958" x2="666.1458" y1="387.0361" y2="387.0361"/><text fill="#D8BC00" font-family="Open Sans,Avenir,Nunito,Arial,Helvetica,SansSerif" font-size="12.5" lengthAdjust="spacing" textLength="102.0833" x="551.5625" y="404.3294">kivakit_validation</text><rect fill="#1B1B1A" height="44.93" rx="8.3333" ry="8.3333" style="stroke:#5E5E5E;stroke-width:1.5625;" width="155.2083" x="91.6667" y="590.1611"/><polygon fill="#1B1B1A" points="229.1667,595.3695,229.1667,609.9528,241.6667,609.9528,241.6667,601.6195,235.4167,595.3695,229.1667,595.3695" style="stroke:#5E5E5E;stroke-width:1.5625;"/><line style="stroke:#5E5E5E;stroke-width:1.5625;" x1="235.4167" x2="235.4167" y1="595.3695" y2="601.6195"/><line style="stroke:#5E5E5E;stroke-width:1.5625;" x1="241.6667" x2="235.4167" y1="601.6195" y2="601.6195"/><text fill="#D8BC00" font-family="Open Sans,Avenir,Nunito,Arial,Helvetica,SansSerif" font-size="12.5" lengthAdjust="spacing" textLength="117.7083" x="105.2083" y="618.9128">lexakai_annotations</text><rect fill="#1B1B1A" height="44.93" rx="8.3333" ry="8.3333" style="stroke:#5E5E5E;stroke-width:1.5625;" width="116.6667" x="289.0625" y="53.7028"/><polygon fill="#1B1B1A" points="388.0208,58.9111,388.0208,73.4945,400.5208,73.4945,400.5208,65.1611,394.2708,58.9111,388.0208,58.9111" style="stroke:#5E5E5E;stroke-width:1.5625;"/><line style="stroke:#5E5E5E;stroke-width:1.5625;" x1="394.2708" x2="394.2708" y1="58.9111" y2="65.1611"/><line style="stroke:#5E5E5E;stroke-width:1.5625;" x1="400.5208" x2="394.2708" y1="65.1611" y2="65.1611"/><text fill="#D8BC00" font-family="Open Sans,Avenir,Nunito,Arial,Helvetica,SansSerif" font-size="12.5" lengthAdjust="spacing" textLength="79.1667" x="302.6042" y="82.4544">mesakit_core</text><rect fill="#1B1B1A" height="44.93" rx="8.3333" ry="8.3333" style="stroke:#5E5E5E;stroke-width:1.5625;" width="106.25" x="283.8542" y="590.1611"/><polygon fill="#1B1B1A" points="372.3958,595.3695,372.3958,609.9528,384.8958,609.9528,384.8958,601.6195,378.6458,595.3695,372.3958,595.3695" style="stroke:#5E5E5E;stroke-width:1.5625;"/><line style="stroke:#5E5E5E;stroke-width:1.5625;" x1="378.6458" x2="378.6458" y1="595.3695" y2="601.6195"/><line style="stroke:#5E5E5E;stroke-width:1.5625;" x1="384.8958" x2="378.6458" y1="601.6195" y2="601.6195"/><text fill="#D8BC00" font-family="Open Sans,Avenir,Nunito,Arial,Helvetica,SansSerif" font-size="12.5" lengthAdjust="spacing" textLength="68.75" x="297.3958" y="618.9128">annotations</text><path d="M252.6042,313.5257 C252.6042,329.9945 252.6042,352.6924 252.6042,370.2445 " fill="none" id="kivakit_collections-to-kivakit_core" style="stroke:#545454;stroke-width:1.5625;"/><polygon fill="#545454" points="252.6042,375.5257,256.7708,366.1507,252.6042,370.3174,248.4375,366.1507,252.6042,375.5257" style="stroke:#545454;stroke-width:1.5625;"/><path d="M439.3854,313.5257 C437.2604,329.9945 434.3438,352.6924 432.0833,370.2445 " fill="none" id="kivakit_commandline-to-kivakit_conversion" style="stroke:#545454;stroke-width:1.5625;"/><polygon fill="#545454" points="431.4063,375.5257,436.744,366.7644,432.0761,370.3606,428.4799,365.6927,431.4063,375.5257" style="stroke:#545454;stroke-width:1.5625;"/><path d="M476.1042,313.2653 C503.2292,330.5049 541.2708,354.6611 569.5,372.5986 " fill="none" id="kivakit_commandline-to-kivakit_validation" style="stroke:#545454;stroke-width:1.5625;"/><polygon fill="#545454" points="573.9375,375.4215,568.2708,366.8694,569.5453,372.6224,563.7922,373.8969,573.9375,375.4215" style="stroke:#545454;stroke-width:1.5625;"/><path d="M216.5521,420.557 C187.7188,437.7965 147.2917,461.9528 117.2813,479.8903 " fill="none" id="kivakit_core-to-cactus_metadata" style="stroke:#545454;stroke-width:1.5625;"/><polygon fill="#545454" points="112.5625,482.7132,122.7483,481.4877,117.0352,480.0445,118.4784,474.3314,112.5625,482.7132" style="stroke:#545454;stroke-width:1.5625;"/><path d="M252.6042,420.8174 C252.6042,437.2861 252.6042,459.984 252.6042,477.5361 " fill="none" id="kivakit_core-to-kivakit_interfaces" style="stroke:#545454;stroke-width:1.5625;"/><polygon fill="#545454" points="252.6042,482.8174,256.7708,473.4424,252.6042,477.609,248.4375,473.4424,252.6042,482.8174" style="stroke:#545454;stroke-width:1.5625;"/><path d="M286.9479,420.557 C314.4167,437.7965 352.9375,461.9528 381.5208,479.8903 " fill="none" id="kivakit_core-to-kivakit_mixins" style="stroke:#545454;stroke-width:1.5625;"/><polygon fill="#545454" points="386.0104,482.7132,380.2894,474.1972,381.6005,479.9421,375.8556,481.2532,386.0104,482.7132" style="stroke:#545454;stroke-width:1.5625;"/><path d="M270.0833,528.109 C283.5208,544.859 302.125,568.057 316.3021,585.734 " fill="none" id="kivakit_interfaces-to-annotations" style="stroke:#545454;stroke-width:1.5625;"/><polygon fill="#545454" points="319.8125,590.109,317.1963,580.189,316.5534,586.0464,310.6961,585.4035,319.8125,590.109" style="stroke:#545454;stroke-width:1.5625;"/><path d="M235.3333,528.109 C222.0625,544.859 203.6875,568.057 189.6875,585.734 " fill="none" id="kivakit_interfaces-to-lexakai_annotations" style="stroke:#545454;stroke-width:1.5625;"/><polygon fill="#545454" points="186.2292,590.109,195.3075,585.3305,189.4555,586.0204,188.7656,580.1683,186.2292,590.109" style="stroke:#545454;stroke-width:1.5625;"/><path d="M327.75,206.234 C312.5313,223.1299 291.4063,246.5778 275.4271,264.307 " fill="none" id="kivakit_resource-to-kivakit_collections" style="stroke:#545454;stroke-width:1.5625;"/><polygon fill="#545454" points="271.8958,268.234,281.2644,264.053,275.38,264.3627,275.0703,258.4783,271.8958,268.234" style="stroke:#545454;stroke-width:1.5625;"/><path d="M367.0417,206.234 C382.2604,223.1299 403.3854,246.5778 419.3646,264.307 " fill="none" id="kivakit_resource-to-kivakit_commandline" style="stroke:#545454;stroke-width:1.5625;"/><polygon fill="#545454" points="422.8958,268.234,419.7213,258.4783,419.4116,264.3627,413.5272,264.053,422.8958,268.234" style="stroke:#545454;stroke-width:1.5625;"/><path d="M347.3958,98.9424 C347.3958,115.4111 347.3958,138.109 347.3958,155.6611 " fill="none" id="mesakit_core-to-kivakit_resource" style="stroke:#545454;stroke-width:1.5625;"/><polygon fill="#545454" points="347.3958,160.9424,351.5625,151.5674,347.3958,155.734,343.2292,151.5674,347.3958,160.9424" style="stroke:#545454;stroke-width:1.5625;"/></g></svg>
