<?xml version="1.0" encoding="UTF-8" standalone="no"?><svg xmlns="http://www.w3.org/2000/svg" xmlns:xlink="http://www.w3.org/1999/xlink" contentScriptType="application/ecmascript" contentStyleType="text/css" height="238.5417px" preserveAspectRatio="none" style="width:638px;height:238px;background:#333333;" version="1.1" viewBox="0 0 638 238" width="638.5417px" zoomAndPan="magnify"><defs/><g><rect fill="#48494B" height="41.2028" rx="8.3333" ry="8.3333" style="stroke:#545454;stroke-width:1.0416666666666667;" width="626.0417" x="2.0833" y="2.0833"/><text fill="#C0C0C0" font-family="Open Sans,Avenir,Nunito,Arial,Helvetica,SansSerif" font-size="20.8333" lengthAdjust="spacing" textLength="603.125" x="13.5417" y="30.5583">com.telenav.mesakit.tools.applications.graph.ways.extractor</text><rect fill="#282828" height="48.055" id="Application" rx="8.3333" ry="8.3333" style="stroke:#5E5E5E;stroke-width:1.0416666666666667;" width="111.4583" x="266.6667" y="53.7028"/><rect fill="#1B1B1A" height="31.3883" rx="8.3333" ry="8.3333" style="stroke:#1B1B1A;stroke-width:1.0416666666666667;" width="111.4583" x="266.6667" y="53.7028"/><rect fill="#1B1B1A" height="8.3333" style="stroke:#1B1B1A;stroke-width:1.0416666666666667;" width="111.4583" x="266.6667" y="76.7578"/><rect fill="none" height="48.055" id="Application" rx="8.3333" ry="8.3333" style="stroke:#5E5E5E;stroke-width:1.0416666666666667;" width="111.4583" x="266.6667" y="53.7028"/><ellipse cx="281.25" cy="69.397" fill="#0066CF" rx="10.4167" ry="10.4167" style="stroke:#0086EF;stroke-width:1.0416666666666667;"/><path d="M283.1604,73.822 Q282.7332,74.0417 282.2632,74.1516 Q281.7932,74.2615 281.2744,74.2615 Q279.4312,74.2615 278.4607,73.0469 Q277.4902,71.8323 277.4902,69.5374 Q277.4902,67.2363 278.4607,66.0217 Q279.4312,64.8071 281.2744,64.8071 Q281.7932,64.8071 282.2693,64.917 Q282.7454,65.0269 283.1604,65.2466 L283.1604,67.2485 Q282.6965,66.8213 282.2601,66.6229 Q281.8237,66.4246 281.3599,66.4246 Q280.3711,66.4246 279.8676,67.2089 Q279.364,67.9932 279.364,69.5374 Q279.364,71.0754 279.8676,71.8597 Q280.3711,72.644 281.3599,72.644 Q281.8237,72.644 282.2601,72.4457 Q282.6965,72.2473 283.1604,71.8201 Z " fill="#000000"/><text fill="#D8BC00" font-family="Open Sans,Avenir,Nunito,Arial,Helvetica,SansSerif" font-size="12.5" font-weight="bold" lengthAdjust="spacing" textLength="73.9583" x="297.9167" y="74.1211">Application</text><line style="stroke:#5E5E5E;stroke-width:1.0416666666666667;" x1="267.7083" x2="377.0833" y1="85.0911" y2="85.0911"/><line style="stroke:#5E5E5E;stroke-width:1.0416666666666667;" x1="267.7083" x2="377.0833" y1="93.4245" y2="93.4245"/><rect codeLine="8" fill="#282828" height="67.7999" id="DoubleDigitizedWaysExtractorApplication" rx="8.3333" ry="8.3333" style="stroke:#5E5E5E;stroke-width:1.0416666666666667;" width="308.3333" x="168.2292" y="164.1195"/><rect fill="#1B1B1A" height="31.3883" rx="8.3333" ry="8.3333" style="stroke:#1B1B1A;stroke-width:1.0416666666666667;" width="308.3333" x="168.2292" y="164.1195"/><rect fill="#1B1B1A" height="8.3333" style="stroke:#1B1B1A;stroke-width:1.0416666666666667;" width="308.3333" x="168.2292" y="187.1745"/><rect codeLine="8" fill="none" height="67.7999" id="DoubleDigitizedWaysExtractorApplication" rx="8.3333" ry="8.3333" style="stroke:#5E5E5E;stroke-width:1.0416666666666667;" width="308.3333" x="168.2292" y="164.1195"/><ellipse cx="182.8125" cy="179.8136" fill="#0066CF" rx="10.4167" ry="10.4167" style="stroke:#0086EF;stroke-width:1.0416666666666667;"/><path d="M184.7229,184.2387 Q184.2957,184.4584 183.8257,184.5683 Q183.3557,184.6781 182.8369,184.6781 Q180.9937,184.6781 180.0232,183.4635 Q179.0527,182.2489 179.0527,179.954 Q179.0527,177.653 180.0232,176.4384 Q180.9937,175.2238 182.8369,175.2238 Q183.3557,175.2238 183.8318,175.3337 Q184.3079,175.4435 184.7229,175.6632 L184.7229,177.6652 Q184.259,177.238 183.8226,177.0396 Q183.3862,176.8412 182.9224,176.8412 Q181.9336,176.8412 181.4301,177.6255 Q180.9265,178.4098 180.9265,179.954 Q180.9265,181.4921 181.4301,182.2764 Q181.9336,183.0607 182.9224,183.0607 Q183.3862,183.0607 183.8226,182.8623 Q184.259,182.664 184.7229,182.2367 Z " fill="#000000"/><text fill="#D8BC00" font-family="Open Sans,Avenir,Nunito,Arial,Helvetica,SansSerif" font-size="12.5" font-weight="bold" lengthAdjust="spacing" textLength="270.8333" x="199.4792" y="184.5378">DoubleDigitizedWaysExtractorApplication</text><line style="stroke:#5E5E5E;stroke-width:1.5625;" x1="169.2708" x2="475.5208" y1="195.5078" y2="195.5078"/><line style="stroke:#5E5E5E;stroke-width:1.0416666666666667;" x1="169.2708" x2="475.5208" y1="203.8411" y2="203.8411"/><ellipse cx="179.6875" cy="215.2995" fill="#84BE84" rx="3.125" ry="3.125" style="stroke:#038048;stroke-width:1.0416666666666667;"/><text fill="#D8BC00" font-family="Open Sans,Avenir,Nunito,Arial,Helvetica,SansSerif" font-size="11.4583" lengthAdjust="spacing" textLength="167.7083" x="191.1458" y="222.2107">void main(String[] arguments)</text><path codeLine="7" d="M322.3958,123.0674 C322.3958,136.6715 322.3958,151.3799 322.3958,164.0674 " fill="none" id="Application-backto-DoubleDigitizedWaysExtractorApplication" style="stroke:#545454;stroke-width:1.5625;"/><polygon fill="none" points="315.1042,122.609,322.3958,101.7757,329.6875,122.609,315.1042,122.609" style="stroke:#545454;stroke-width:1.5625;"/></g></svg>
