<?xml version="1.0" encoding="UTF-8" standalone="no"?><svg xmlns="http://www.w3.org/2000/svg" xmlns:xlink="http://www.w3.org/1999/xlink" contentScriptType="application/ecmascript" contentStyleType="text/css" height="254.1667px" preserveAspectRatio="none" style="width:444px;height:254px;background:#333333;" version="1.1" viewBox="0 0 444 254" width="444.7917px" zoomAndPan="magnify"><defs/><g><rect fill="#48494B" height="41.2028" rx="8.3333" ry="8.3333" style="stroke:#545454;stroke-width:1.0416666666666667;" width="432.2917" x="2.0833" y="2.0833"/><text fill="#C0C0C0" font-family="Open Sans,Avenir,Nunito,Arial,Helvetica,SansSerif" font-size="20.8333" lengthAdjust="spacing" textLength="409.375" x="13.5417" y="30.5583">com.telenav.mesakit.map.measurements</text><rect fill="#282828" height="48.055" id="KryoTypes" rx="8.3333" ry="8.3333" style="stroke:#5E5E5E;stroke-width:1.0416666666666667;" width="106.25" x="172.3958" y="53.7028"/><rect fill="#1B1B1A" height="31.3883" rx="8.3333" ry="8.3333" style="stroke:#1B1B1A;stroke-width:1.0416666666666667;" width="106.25" x="172.3958" y="53.7028"/><rect fill="#1B1B1A" height="8.3333" style="stroke:#1B1B1A;stroke-width:1.0416666666666667;" width="106.25" x="172.3958" y="76.7578"/><rect fill="none" height="48.055" id="KryoTypes" rx="8.3333" ry="8.3333" style="stroke:#5E5E5E;stroke-width:1.0416666666666667;" width="106.25" x="172.3958" y="53.7028"/><ellipse cx="186.9792" cy="69.397" fill="#0066CF" rx="10.4167" ry="10.4167" style="stroke:#0086EF;stroke-width:1.0416666666666667;"/><path d="M188.8896,73.822 Q188.4623,74.0417 187.9924,74.1516 Q187.5224,74.2615 187.0036,74.2615 Q185.1603,74.2615 184.1899,73.0469 Q183.2194,71.8323 183.2194,69.5374 Q183.2194,67.2363 184.1899,66.0217 Q185.1603,64.8071 187.0036,64.8071 Q187.5224,64.8071 187.9985,64.917 Q188.4745,65.0269 188.8896,65.2466 L188.8896,67.2485 Q188.4257,66.8213 187.9893,66.6229 Q187.5529,66.4246 187.089,66.4246 Q186.1003,66.4246 185.5967,67.2089 Q185.0932,67.9932 185.0932,69.5374 Q185.0932,71.0754 185.5967,71.8597 Q186.1003,72.644 187.089,72.644 Q187.5529,72.644 187.9893,72.4457 Q188.4257,72.2473 188.8896,71.8201 Z " fill="#000000"/><text fill="#D8BC00" font-family="Open Sans,Avenir,Nunito,Arial,Helvetica,SansSerif" font-size="12.5" font-weight="bold" lengthAdjust="spacing" textLength="68.75" x="203.6458" y="74.1211">KryoTypes</text><line style="stroke:#5E5E5E;stroke-width:1.0416666666666667;" x1="173.4375" x2="277.6042" y1="85.0911" y2="85.0911"/><line style="stroke:#5E5E5E;stroke-width:1.0416666666666667;" x1="173.4375" x2="277.6042" y1="93.4245" y2="93.4245"/><rect codeLine="8" fill="#282828" height="83.3781" id="MeasurementsKryoTypes" rx="8.3333" ry="8.3333" style="stroke:#5E5E5E;stroke-width:1.0416666666666667;" width="201.0417" x="125" y="164.1195"/><rect fill="#1B1B1A" height="31.3883" rx="8.3333" ry="8.3333" style="stroke:#1B1B1A;stroke-width:1.0416666666666667;" width="201.0417" x="125" y="164.1195"/><rect fill="#1B1B1A" height="8.3333" style="stroke:#1B1B1A;stroke-width:1.0416666666666667;" width="201.0417" x="125" y="187.1745"/><rect codeLine="8" fill="none" height="83.3781" id="MeasurementsKryoTypes" rx="8.3333" ry="8.3333" style="stroke:#5E5E5E;stroke-width:1.0416666666666667;" width="201.0417" x="125" y="164.1195"/><ellipse cx="139.5833" cy="179.8136" fill="#0066CF" rx="10.4167" ry="10.4167" style="stroke:#0086EF;stroke-width:1.0416666666666667;"/><path d="M141.4937,184.2387 Q141.0665,184.4584 140.5965,184.5683 Q140.1265,184.6781 139.6077,184.6781 Q137.7645,184.6781 136.794,183.4635 Q135.8236,182.2489 135.8236,179.954 Q135.8236,177.653 136.794,176.4384 Q137.7645,175.2238 139.6077,175.2238 Q140.1265,175.2238 140.6026,175.3337 Q141.0787,175.4435 141.4937,175.6632 L141.4937,177.6652 Q141.0299,177.238 140.5935,177.0396 Q140.1571,176.8412 139.6932,176.8412 Q138.7044,176.8412 138.2009,177.6255 Q137.6973,178.4098 137.6973,179.954 Q137.6973,181.4921 138.2009,182.2764 Q138.7044,183.0607 139.6932,183.0607 Q140.1571,183.0607 140.5935,182.8623 Q141.0299,182.664 141.4937,182.2367 Z " fill="#000000"/><text fill="#D8BC00" font-family="Open Sans,Avenir,Nunito,Arial,Helvetica,SansSerif" font-size="12.5" font-weight="bold" lengthAdjust="spacing" textLength="163.5417" x="156.25" y="184.5378">MeasurementsKryoTypes</text><line style="stroke:#5E5E5E;stroke-width:1.5625;" x1="126.0417" x2="325" y1="195.5078" y2="195.5078"/><ellipse cx="136.4583" cy="230.8777" fill="#84BE84" rx="3.125" ry="3.125" style="stroke:#038048;stroke-width:1.0416666666666667;"/><text fill="#D8BC00" font-family="Open Sans,Avenir,Nunito,Arial,Helvetica,SansSerif" font-size="11.4583" lengthAdjust="spacing" textLength="148.9583" x="147.9167" y="237.7889">MeasurementsKryoTypes()</text><line style="stroke:#5E5E5E;stroke-width:1.0416666666666667;" x1="126.0417" x2="181.7708" y1="213.7136" y2="213.7136"/><text fill="#D8BC00" font-family="Open Sans,Avenir,Nunito,Arial,Helvetica,SansSerif" font-size="11.4583" lengthAdjust="spacing" textLength="81.25" x="184.8958" y="217.5232">(constructors)</text><line style="stroke:#5E5E5E;stroke-width:1.0416666666666667;" x1="269.2708" x2="325" y1="213.7136" y2="213.7136"/><path codeLine="7" d="M225.5208,122.682 C225.5208,136.0778 225.5208,150.7445 225.5208,163.9215 " fill="none" id="KryoTypes-backto-MeasurementsKryoTypes" style="stroke:#545454;stroke-width:1.5625;"/><polygon fill="none" points="218.2292,122.6507,225.5208,101.8174,232.8125,122.6507,218.2292,122.6507" style="stroke:#545454;stroke-width:1.5625;"/></g></svg>
