<?xml version="1.0" encoding="UTF-8" standalone="no"?><svg xmlns="http://www.w3.org/2000/svg" xmlns:xlink="http://www.w3.org/1999/xlink" contentScriptType="application/ecmascript" contentStyleType="text/css" height="218.75px" preserveAspectRatio="none" style="width:605px;height:218px;background:#333333;" version="1.1" viewBox="0 0 605 218" width="605.2083px" zoomAndPan="magnify"><defs/><g><rect fill="#48494B" height="41.2028" rx="8.3333" ry="8.3333" style="stroke:#545454;stroke-width:1.0416666666666667;" width="592.7083" x="2.0833" y="2.0833"/><text fill="#C0C0C0" font-family="Open Sans,Avenir,Nunito,Arial,Helvetica,SansSerif" font-size="20.8333" lengthAdjust="spacing" textLength="569.7917" x="13.5417" y="30.5583">com.telenav.mesakit.map.measurements.internal.lexakai</text><rect codeLine="13" fill="#282828" height="48.055" id="UmlDiagramIdentifier" rx="8.3333" ry="8.3333" style="stroke:#5E5E5E;stroke-width:1.0416666666666667;" width="178.125" x="222.9167" y="53.7028"/><rect fill="#1B1B1A" height="31.3883" rx="8.3333" ry="8.3333" style="stroke:#1B1B1A;stroke-width:1.0416666666666667;" width="178.125" x="222.9167" y="53.7028"/><rect fill="#1B1B1A" height="8.3333" style="stroke:#1B1B1A;stroke-width:1.0416666666666667;" width="178.125" x="222.9167" y="76.7578"/><rect codeLine="13" fill="none" height="48.055" id="UmlDiagramIdentifier" rx="8.3333" ry="8.3333" style="stroke:#5E5E5E;stroke-width:1.0416666666666667;" width="178.125" x="222.9167" y="53.7028"/><ellipse cx="237.5" cy="69.397" fill="#008400" rx="10.4167" ry="10.4167" style="stroke:#239C23;stroke-width:1.0416666666666667;"/><path d="M234.904,66.5588 L234.904,64.9719 L240.33,64.9719 L240.33,66.5588 L238.5173,66.5588 L238.5173,72.4976 L240.33,72.4976 L240.33,74.0845 L234.904,74.0845 L234.904,72.4976 L236.7167,72.4976 L236.7167,66.5588 Z " fill="#000000"/><text fill="#D8BC00" font-family="Open Sans,Avenir,Nunito,Arial,Helvetica,SansSerif" font-size="12.5" font-style="italic" font-weight="bold" lengthAdjust="spacing" textLength="140.625" x="254.1667" y="74.1211">UmlDiagramIdentifier</text><line style="stroke:#5E5E5E;stroke-width:1.0416666666666667;" x1="223.9583" x2="400" y1="85.0911" y2="85.0911"/><line style="stroke:#5E5E5E;stroke-width:1.0416666666666667;" x1="223.9583" x2="400" y1="93.4245" y2="93.4245"/><rect codeLine="9" fill="#282828" height="48.055" id="DiagramMapMeasurementGeographic" rx="8.3333" ry="8.3333" style="stroke:#5E5E5E;stroke-width:1.0416666666666667;" width="280.2083" x="20.8333" y="164.1195"/><rect fill="#1B1B1A" height="31.3883" rx="8.3333" ry="8.3333" style="stroke:#1B1B1A;stroke-width:1.0416666666666667;" width="280.2083" x="20.8333" y="164.1195"/><rect fill="#1B1B1A" height="8.3333" style="stroke:#1B1B1A;stroke-width:1.0416666666666667;" width="280.2083" x="20.8333" y="187.1745"/><rect codeLine="9" fill="none" height="48.055" id="DiagramMapMeasurementGeographic" rx="8.3333" ry="8.3333" style="stroke:#5E5E5E;stroke-width:1.0416666666666667;" width="280.2083" x="20.8333" y="164.1195"/><ellipse cx="35.4167" cy="179.8136" fill="#008400" rx="10.4167" ry="10.4167" style="stroke:#239C23;stroke-width:1.0416666666666667;"/><path d="M32.8206,176.9755 L32.8206,175.3886 L38.2467,175.3886 L38.2467,176.9755 L36.4339,176.9755 L36.4339,182.9142 L38.2467,182.9142 L38.2467,184.5011 L32.8206,184.5011 L32.8206,182.9142 L34.6334,182.9142 L34.6334,176.9755 Z " fill="#000000"/><text fill="#D8BC00" font-family="Open Sans,Avenir,Nunito,Arial,Helvetica,SansSerif" font-size="12.5" font-style="italic" font-weight="bold" lengthAdjust="spacing" textLength="242.7083" x="52.0833" y="184.5378">DiagramMapMeasurementGeographic</text><line style="stroke:#5E5E5E;stroke-width:1.0416666666666667;" x1="21.875" x2="300" y1="195.5078" y2="195.5078"/><line style="stroke:#5E5E5E;stroke-width:1.0416666666666667;" x1="21.875" x2="300" y1="203.8411" y2="203.8411"/><rect codeLine="15" fill="#282828" height="48.055" id="DiagramMapMeasurementMotion" rx="8.3333" ry="8.3333" style="stroke:#5E5E5E;stroke-width:1.0416666666666667;" width="253.125" x="337.5" y="164.1195"/><rect fill="#1B1B1A" height="31.3883" rx="8.3333" ry="8.3333" style="stroke:#1B1B1A;stroke-width:1.0416666666666667;" width="253.125" x="337.5" y="164.1195"/><rect fill="#1B1B1A" height="8.3333" style="stroke:#1B1B1A;stroke-width:1.0416666666666667;" width="253.125" x="337.5" y="187.1745"/><rect codeLine="15" fill="none" height="48.055" id="DiagramMapMeasurementMotion" rx="8.3333" ry="8.3333" style="stroke:#5E5E5E;stroke-width:1.0416666666666667;" width="253.125" x="337.5" y="164.1195"/><ellipse cx="352.0833" cy="179.8136" fill="#008400" rx="10.4167" ry="10.4167" style="stroke:#239C23;stroke-width:1.0416666666666667;"/><path d="M349.4873,176.9755 L349.4873,175.3886 L354.9133,175.3886 L354.9133,176.9755 L353.1006,176.9755 L353.1006,182.9142 L354.9133,182.9142 L354.9133,184.5011 L349.4873,184.5011 L349.4873,182.9142 L351.3,182.9142 L351.3,176.9755 Z " fill="#000000"/><text fill="#D8BC00" font-family="Open Sans,Avenir,Nunito,Arial,Helvetica,SansSerif" font-size="12.5" font-style="italic" font-weight="bold" lengthAdjust="spacing" textLength="215.625" x="368.75" y="184.5378">DiagramMapMeasurementMotion</text><line style="stroke:#5E5E5E;stroke-width:1.0416666666666667;" x1="338.5417" x2="589.5833" y1="195.5078" y2="195.5078"/><line style="stroke:#5E5E5E;stroke-width:1.0416666666666667;" x1="338.5417" x2="589.5833" y1="203.8411" y2="203.8411"/><path codeLine="8" d="M262.9063,113.9007 C239.9375,130.3695 213.2396,149.5257 192.9271,164.0986 " fill="none" id="UmlDiagramIdentifier-backto-DiagramMapMeasurementGeographic" style="stroke:#545454;stroke-width:1.5625;"/><polygon fill="none" points="258.7708,107.8903,279.9479,101.682,267.2708,119.7445,258.7708,107.8903" style="stroke:#545454;stroke-width:1.5625;"/><path codeLine="14" d="M361.3958,113.9007 C384.5208,130.3695 411.3958,149.5257 431.8542,164.0986 " fill="none" id="UmlDiagramIdentifier-backto-DiagramMapMeasurementMotion" style="stroke:#545454;stroke-width:1.5625;"/><polygon fill="none" points="356.9688,119.7028,344.2292,101.682,365.4271,107.8278,356.9688,119.7028" style="stroke:#545454;stroke-width:1.5625;"/></g></svg>
