<?xml version="1.0" encoding="UTF-8" standalone="no"?><svg xmlns="http://www.w3.org/2000/svg" xmlns:xlink="http://www.w3.org/1999/xlink" contentScriptType="application/ecmascript" contentStyleType="text/css" height="147.9167px" preserveAspectRatio="none" style="width:505px;height:147px;background:#333333;" version="1.1" viewBox="0 0 505 147" width="505.2083px" zoomAndPan="magnify"><defs/><g><rect fill="#48494B" height="41.2028" rx="8.3333" ry="8.3333" style="stroke:#545454;stroke-width:1.0416666666666667;" width="492.7083" x="2.0833" y="2.0833"/><text fill="#C0C0C0" font-family="Open Sans,Avenir,Nunito,Arial,Helvetica,SansSerif" font-size="20.8333" lengthAdjust="spacing" textLength="469.7917" x="13.5417" y="30.5583">com.telenav.mesakit.tools.application.launcher</text><rect codeLine="7" fill="#282828" height="87.5448" id="ApplicationLauncher" rx="8.3333" ry="8.3333" style="stroke:#5E5E5E;stroke-width:1.0416666666666667;" width="200" x="148.9583" y="53.7028"/><rect fill="#1B1B1A" height="31.3883" rx="8.3333" ry="8.3333" style="stroke:#1B1B1A;stroke-width:1.0416666666666667;" width="200" x="148.9583" y="53.7028"/><rect fill="#1B1B1A" height="8.3333" style="stroke:#1B1B1A;stroke-width:1.0416666666666667;" width="200" x="148.9583" y="76.7578"/><rect codeLine="7" fill="none" height="87.5448" id="ApplicationLauncher" rx="8.3333" ry="8.3333" style="stroke:#5E5E5E;stroke-width:1.0416666666666667;" width="200" x="148.9583" y="53.7028"/><ellipse cx="177.1354" cy="69.397" fill="#0066CF" rx="10.4167" ry="10.4167" style="stroke:#0086EF;stroke-width:1.0416666666666667;"/><path d="M179.0458,73.822 Q178.6186,74.0417 178.1486,74.1516 Q177.6786,74.2615 177.1598,74.2615 Q175.3166,74.2615 174.3461,73.0469 Q173.3757,71.8323 173.3757,69.5374 Q173.3757,67.2363 174.3461,66.0217 Q175.3166,64.8071 177.1598,64.8071 Q177.6786,64.8071 178.1547,64.917 Q178.6308,65.0269 179.0458,65.2466 L179.0458,67.2485 Q178.5819,66.8213 178.1455,66.6229 Q177.7091,66.4246 177.2453,66.4246 Q176.2565,66.4246 175.753,67.2089 Q175.2494,67.9932 175.2494,69.5374 Q175.2494,71.0754 175.753,71.8597 Q176.2565,72.644 177.2453,72.644 Q177.7091,72.644 178.1455,72.4457 Q178.5819,72.2473 179.0458,71.8201 Z " fill="#000000"/><text fill="#D8BC00" font-family="Open Sans,Avenir,Nunito,Arial,Helvetica,SansSerif" font-size="12.5" font-weight="bold" lengthAdjust="spacing" textLength="132.2917" x="196.8229" y="74.1211">ApplicationLauncher</text><line style="stroke:#5E5E5E;stroke-width:1.5625;" x1="150" x2="347.9167" y1="85.0911" y2="85.0911"/><line style="stroke:#5E5E5E;stroke-width:1.0416666666666667;" x1="150" x2="347.9167" y1="93.4245" y2="93.4245"/><ellipse cx="160.4167" cy="104.8828" fill="#84BE84" rx="3.125" ry="3.125" style="stroke:#038048;stroke-width:1.0416666666666667;"/><text fill="#D8BC00" font-family="Open Sans,Avenir,Nunito,Arial,Helvetica,SansSerif" font-size="11.4583" lengthAdjust="spacing" textLength="167.7083" x="171.875" y="111.794">void main(String[] arguments)</text><polygon fill="#FFFF44" points="160.4167,119.4194,164.5833,123.586,160.4167,127.7527,156.25,123.586" style="stroke:#B38D22;stroke-width:1.0416666666666667;"/><text fill="#D8BC00" font-family="Open Sans,Avenir,Nunito,Arial,Helvetica,SansSerif" font-size="11.4583" lengthAdjust="spacing" textLength="117.7083" x="171.875" y="131.5389">void help(String tool)</text></g></svg>
