<?xml version="1.0" encoding="UTF-8" standalone="no"?><svg xmlns="http://www.w3.org/2000/svg" xmlns:xlink="http://www.w3.org/1999/xlink" contentScriptType="application/ecmascript" contentStyleType="text/css" height="297.9167px" preserveAspectRatio="none" style="width:721px;height:297px;background:#333333;" version="1.1" viewBox="0 0 721 297" width="721.875px" zoomAndPan="magnify"><defs/><g><rect fill="#48494B" height="41.2028" rx="8.3333" ry="8.3333" style="stroke:#545454;stroke-width:1.0416666666666667;" width="551.0417" x="78.125" y="2.0833"/><text fill="#C0C0C0" font-family="Open Sans,Avenir,Nunito,Arial,Helvetica,SansSerif" font-size="20.8333" lengthAdjust="spacing" textLength="528.125" x="89.5833" y="30.5583">com.telenav.mesakit.tools.applications.pbf.converter</text><rect codeLine="7" fill="#282828" height="48.055" id="BaseRepeater" rx="8.3333" ry="8.3333" style="stroke:#5E5E5E;stroke-width:1.0416666666666667;" width="123.9583" x="155.2083" y="53.7028"/><rect fill="#1B1B1A" height="31.3883" rx="8.3333" ry="8.3333" style="stroke:#1B1B1A;stroke-width:1.0416666666666667;" width="123.9583" x="155.2083" y="53.7028"/><rect fill="#1B1B1A" height="8.3333" style="stroke:#1B1B1A;stroke-width:1.0416666666666667;" width="123.9583" x="155.2083" y="76.7578"/><rect codeLine="7" fill="none" height="48.055" id="BaseRepeater" rx="8.3333" ry="8.3333" style="stroke:#5E5E5E;stroke-width:1.0416666666666667;" width="123.9583" x="155.2083" y="53.7028"/><ellipse cx="169.7917" cy="69.397" fill="#C8AC00" rx="10.4167" ry="10.4167" style="stroke:#D8BC00;stroke-width:1.0416666666666667;"/><path d="M169.3848,66.099 L168.5364,69.8283 L170.2393,69.8283 Z M168.2861,64.4511 L170.4895,64.4511 L172.9492,73.5636 L171.1487,73.5636 L170.5872,71.3114 L168.1763,71.3114 L167.627,73.5636 L165.8264,73.5636 Z " fill="#000000"/><text fill="#D8BC00" font-family="Open Sans,Avenir,Nunito,Arial,Helvetica,SansSerif" font-size="12.5" font-style="italic" font-weight="bold" lengthAdjust="spacing" textLength="86.4583" x="186.4583" y="74.1211">BaseRepeater</text><line style="stroke:#5E5E5E;stroke-width:1.0416666666666667;" x1="156.25" x2="278.125" y1="85.0911" y2="85.0911"/><line style="stroke:#5E5E5E;stroke-width:1.0416666666666667;" x1="156.25" x2="278.125" y1="93.4245" y2="93.4245"/><rect codeLine="10" fill="#282828" height="127.0345" id="Conversion" rx="8.3333" ry="8.3333" style="stroke:#5E5E5E;stroke-width:1.0416666666666667;" width="419.7917" x="7.2917" y="164.1195"/><rect fill="#1B1B1A" height="31.3883" rx="8.3333" ry="8.3333" style="stroke:#1B1B1A;stroke-width:1.0416666666666667;" width="419.7917" x="7.2917" y="164.1195"/><rect fill="#1B1B1A" height="8.3333" style="stroke:#1B1B1A;stroke-width:1.0416666666666667;" width="419.7917" x="7.2917" y="187.1745"/><rect codeLine="10" fill="none" height="127.0345" id="Conversion" rx="8.3333" ry="8.3333" style="stroke:#5E5E5E;stroke-width:1.0416666666666667;" width="419.7917" x="7.2917" y="164.1195"/><ellipse cx="172.9167" cy="179.8136" fill="#0066CF" rx="10.4167" ry="10.4167" style="stroke:#0086EF;stroke-width:1.0416666666666667;"/><path d="M174.8271,184.2387 Q174.3998,184.4584 173.9299,184.5683 Q173.4599,184.6781 172.9411,184.6781 Q171.0978,184.6781 170.1274,183.4635 Q169.1569,182.2489 169.1569,179.954 Q169.1569,177.653 170.1274,176.4384 Q171.0978,175.2238 172.9411,175.2238 Q173.4599,175.2238 173.936,175.3337 Q174.412,175.4435 174.8271,175.6632 L174.8271,177.6652 Q174.3632,177.238 173.9268,177.0396 Q173.4904,176.8412 173.0265,176.8412 Q172.0378,176.8412 171.5342,177.6255 Q171.0307,178.4098 171.0307,179.954 Q171.0307,181.4921 171.5342,182.2764 Q172.0378,183.0607 173.0265,183.0607 Q173.4904,183.0607 173.9268,182.8623 Q174.3632,182.664 174.8271,182.2367 Z " fill="#000000"/><text fill="#D8BC00" font-family="Open Sans,Avenir,Nunito,Arial,Helvetica,SansSerif" font-size="12.5" font-weight="bold" lengthAdjust="spacing" textLength="73.9583" x="195.8333" y="184.5378">Conversion</text><line style="stroke:#5E5E5E;stroke-width:1.5625;" x1="8.3333" x2="426.0417" y1="195.5078" y2="195.5078"/><ellipse cx="18.75" cy="230.8777" fill="#84BE84" rx="3.125" ry="3.125" style="stroke:#038048;stroke-width:1.0416666666666667;"/><text fill="#D8BC00" font-family="Open Sans,Avenir,Nunito,Arial,Helvetica,SansSerif" font-size="11.4583" lengthAdjust="spacing" textLength="387.5" x="30.2083" y="237.7889">Conversion(PbfToGraphConverterApplication, CommandLine, Folder)</text><line style="stroke:#5E5E5E;stroke-width:1.0416666666666667;" x1="8.3333" x2="173.4375" y1="213.7136" y2="213.7136"/><text fill="#D8BC00" font-family="Open Sans,Avenir,Nunito,Arial,Helvetica,SansSerif" font-size="11.4583" lengthAdjust="spacing" textLength="81.25" x="176.5625" y="217.5232">(constructors)</text><line style="stroke:#5E5E5E;stroke-width:1.0416666666666667;" x1="260.9375" x2="426.0417" y1="213.7136" y2="213.7136"/><ellipse cx="18.75" cy="274.5341" fill="#84BE84" rx="3.125" ry="3.125" style="stroke:#038048;stroke-width:1.0416666666666667;"/><text fill="#D8BC00" font-family="Open Sans,Avenir,Nunito,Arial,Helvetica,SansSerif" font-size="11.4583" lengthAdjust="spacing" textLength="123.9583" x="30.2083" y="281.4453">File convert(File input)</text><line style="stroke:#5E5E5E;stroke-width:1.0416666666666667;" x1="8.3333" x2="181.7708" y1="257.37" y2="257.37"/><text fill="#D8BC00" font-family="Open Sans,Avenir,Nunito,Arial,Helvetica,SansSerif" font-size="11.4583" lengthAdjust="spacing" textLength="64.5833" x="184.8958" y="261.1796">(filesystem)</text><line style="stroke:#5E5E5E;stroke-width:1.0416666666666667;" x1="252.6042" x2="426.0417" y1="257.37" y2="257.37"/><rect fill="#282828" height="48.055" id="Application" rx="8.3333" ry="8.3333" style="stroke:#5E5E5E;stroke-width:1.0416666666666667;" width="111.4583" x="533.3333" y="53.7028"/><rect fill="#1B1B1A" height="31.3883" rx="8.3333" ry="8.3333" style="stroke:#1B1B1A;stroke-width:1.0416666666666667;" width="111.4583" x="533.3333" y="53.7028"/><rect fill="#1B1B1A" height="8.3333" style="stroke:#1B1B1A;stroke-width:1.0416666666666667;" width="111.4583" x="533.3333" y="76.7578"/><rect fill="none" height="48.055" id="Application" rx="8.3333" ry="8.3333" style="stroke:#5E5E5E;stroke-width:1.0416666666666667;" width="111.4583" x="533.3333" y="53.7028"/><ellipse cx="547.9167" cy="69.397" fill="#0066CF" rx="10.4167" ry="10.4167" style="stroke:#0086EF;stroke-width:1.0416666666666667;"/><path d="M549.8271,73.822 Q549.3998,74.0417 548.9299,74.1516 Q548.4599,74.2615 547.9411,74.2615 Q546.0978,74.2615 545.1274,73.0469 Q544.1569,71.8323 544.1569,69.5374 Q544.1569,67.2363 545.1274,66.0217 Q546.0978,64.8071 547.9411,64.8071 Q548.4599,64.8071 548.936,64.917 Q549.412,65.0269 549.8271,65.2466 L549.8271,67.2485 Q549.3632,66.8213 548.9268,66.6229 Q548.4904,66.4246 548.0265,66.4246 Q547.0378,66.4246 546.5342,67.2089 Q546.0307,67.9932 546.0307,69.5374 Q546.0307,71.0754 546.5342,71.8597 Q547.0378,72.644 548.0265,72.644 Q548.4904,72.644 548.9268,72.4457 Q549.3632,72.2473 549.8271,71.8201 Z " fill="#000000"/><text fill="#D8BC00" font-family="Open Sans,Avenir,Nunito,Arial,Helvetica,SansSerif" font-size="12.5" font-weight="bold" lengthAdjust="spacing" textLength="73.9583" x="564.5833" y="74.1211">Application</text><line style="stroke:#5E5E5E;stroke-width:1.0416666666666667;" x1="534.375" x2="643.75" y1="85.0911" y2="85.0911"/><line style="stroke:#5E5E5E;stroke-width:1.0416666666666667;" x1="534.375" x2="643.75" y1="93.4245" y2="93.4245"/><rect codeLine="19" fill="#282828" height="67.7999" id="PbfToGraphConverterApplication" rx="8.3333" ry="8.3333" style="stroke:#5E5E5E;stroke-width:1.0416666666666667;" width="251.0417" x="463.5417" y="193.807"/><rect fill="#1B1B1A" height="31.3883" rx="8.3333" ry="8.3333" style="stroke:#1B1B1A;stroke-width:1.0416666666666667;" width="251.0417" x="463.5417" y="193.807"/><rect fill="#1B1B1A" height="8.3333" style="stroke:#1B1B1A;stroke-width:1.0416666666666667;" width="251.0417" x="463.5417" y="216.862"/><rect codeLine="19" fill="none" height="67.7999" id="PbfToGraphConverterApplication" rx="8.3333" ry="8.3333" style="stroke:#5E5E5E;stroke-width:1.0416666666666667;" width="251.0417" x="463.5417" y="193.807"/><ellipse cx="478.125" cy="209.5011" fill="#0066CF" rx="10.4167" ry="10.4167" style="stroke:#0086EF;stroke-width:1.0416666666666667;"/><path d="M480.0354,213.9262 Q479.6082,214.1459 479.1382,214.2558 Q478.6682,214.3656 478.1494,214.3656 Q476.3062,214.3656 475.3357,213.151 Q474.3652,211.9364 474.3652,209.6415 Q474.3652,207.3405 475.3357,206.1259 Q476.3062,204.9113 478.1494,204.9113 Q478.6682,204.9113 479.1443,205.0212 Q479.6204,205.131 480.0354,205.3507 L480.0354,207.3527 Q479.5715,206.9255 479.1351,206.7271 Q478.6987,206.5287 478.2349,206.5287 Q477.2461,206.5287 476.7426,207.313 Q476.239,208.0973 476.239,209.6415 Q476.239,211.1796 476.7426,211.9639 Q477.2461,212.7482 478.2349,212.7482 Q478.6987,212.7482 479.1351,212.5498 Q479.5715,212.3515 480.0354,211.9242 Z " fill="#000000"/><text fill="#D8BC00" font-family="Open Sans,Avenir,Nunito,Arial,Helvetica,SansSerif" font-size="12.5" font-weight="bold" lengthAdjust="spacing" textLength="213.5417" x="494.7917" y="214.2253">PbfToGraphConverterApplication</text><line style="stroke:#5E5E5E;stroke-width:1.5625;" x1="464.5833" x2="713.5417" y1="225.1953" y2="225.1953"/><line style="stroke:#5E5E5E;stroke-width:1.0416666666666667;" x1="464.5833" x2="713.5417" y1="233.5286" y2="233.5286"/><ellipse cx="475" cy="244.987" fill="#84BE84" rx="3.125" ry="3.125" style="stroke:#038048;stroke-width:1.0416666666666667;"/><text fill="#D8BC00" font-family="Open Sans,Avenir,Nunito,Arial,Helvetica,SansSerif" font-size="11.4583" lengthAdjust="spacing" textLength="167.7083" x="486.4583" y="251.8982">void main(String[] arguments)</text><path codeLine="9" d="M217.1875,123.057 C217.1875,135.9632 217.1875,150.307 217.1875,164.109 " fill="none" id="BaseRepeater-backto-Conversion" style="stroke:#545454;stroke-width:1.5625;"/><polygon fill="none" points="209.8958,122.6507,217.1875,101.8174,224.4792,122.6507,209.8958,122.6507" style="stroke:#545454;stroke-width:1.5625;"/><path codeLine="18" d="M589.0625,122.682 C589.0625,145.484 589.0625,172.859 589.0625,193.7965 " fill="none" id="Application-backto-PbfToGraphConverterApplication" style="stroke:#545454;stroke-width:1.5625;"/><polygon fill="none" points="581.7708,122.6507,589.0625,101.8174,596.3542,122.6507,581.7708,122.6507" style="stroke:#545454;stroke-width:1.5625;"/></g></svg>
