<?xml version="1.0" encoding="UTF-8" standalone="no"?><svg xmlns="http://www.w3.org/2000/svg" xmlns:xlink="http://www.w3.org/1999/xlink" contentScriptType="application/ecmascript" contentStyleType="text/css" height="218.75px" preserveAspectRatio="none" style="width:433px;height:218px;background:#333333;" version="1.1" viewBox="0 0 433 218" width="433.3333px" zoomAndPan="magnify"><defs/><g><rect fill="#48494B" height="41.2028" rx="8.3333" ry="8.3333" style="stroke:#545454;stroke-width:1.0416666666666667;" width="420.8333" x="2.0833" y="2.0833"/><text fill="#C0C0C0" font-family="Open Sans,Avenir,Nunito,Arial,Helvetica,SansSerif" font-size="20.8333" lengthAdjust="spacing" textLength="397.9167" x="13.5417" y="30.5583">com.telenav.mesakit.map.cutter.lexakai</text><rect codeLine="7" fill="#282828" height="48.055" id="UmlDiagramIdentifier" rx="8.3333" ry="8.3333" style="stroke:#5E5E5E;stroke-width:1.0416666666666667;" width="178.125" x="130.7292" y="53.7028"/><rect fill="#1B1B1A" height="31.3883" rx="8.3333" ry="8.3333" style="stroke:#1B1B1A;stroke-width:1.0416666666666667;" width="178.125" x="130.7292" y="53.7028"/><rect fill="#1B1B1A" height="8.3333" style="stroke:#1B1B1A;stroke-width:1.0416666666666667;" width="178.125" x="130.7292" y="76.7578"/><rect codeLine="7" fill="none" height="48.055" id="UmlDiagramIdentifier" rx="8.3333" ry="8.3333" style="stroke:#5E5E5E;stroke-width:1.0416666666666667;" width="178.125" x="130.7292" y="53.7028"/><ellipse cx="145.3125" cy="69.397" fill="#008400" rx="10.4167" ry="10.4167" style="stroke:#239C23;stroke-width:1.0416666666666667;"/><path d="M142.7165,66.5588 L142.7165,64.9719 L148.1425,64.9719 L148.1425,66.5588 L146.3298,66.5588 L146.3298,72.4976 L148.1425,72.4976 L148.1425,74.0845 L142.7165,74.0845 L142.7165,72.4976 L144.5292,72.4976 L144.5292,66.5588 Z " fill="#000000"/><text fill="#D8BC00" font-family="Open Sans,Avenir,Nunito,Arial,Helvetica,SansSerif" font-size="12.5" font-style="italic" font-weight="bold" lengthAdjust="spacing" textLength="140.625" x="161.9792" y="74.1211">UmlDiagramIdentifier</text><line style="stroke:#5E5E5E;stroke-width:1.0416666666666667;" x1="131.7708" x2="307.8125" y1="85.0911" y2="85.0911"/><line style="stroke:#5E5E5E;stroke-width:1.0416666666666667;" x1="131.7708" x2="307.8125" y1="93.4245" y2="93.4245"/><rect codeLine="10" fill="#282828" height="48.055" id="DiagramMapCutter" rx="8.3333" ry="8.3333" style="stroke:#5E5E5E;stroke-width:1.0416666666666667;" width="160.4167" x="139.5833" y="164.1195"/><rect fill="#1B1B1A" height="31.3883" rx="8.3333" ry="8.3333" style="stroke:#1B1B1A;stroke-width:1.0416666666666667;" width="160.4167" x="139.5833" y="164.1195"/><rect fill="#1B1B1A" height="8.3333" style="stroke:#1B1B1A;stroke-width:1.0416666666666667;" width="160.4167" x="139.5833" y="187.1745"/><rect codeLine="10" fill="none" height="48.055" id="DiagramMapCutter" rx="8.3333" ry="8.3333" style="stroke:#5E5E5E;stroke-width:1.0416666666666667;" width="160.4167" x="139.5833" y="164.1195"/><ellipse cx="154.1667" cy="179.8136" fill="#0066CF" rx="10.4167" ry="10.4167" style="stroke:#0086EF;stroke-width:1.0416666666666667;"/><path d="M156.0771,184.2387 Q155.6498,184.4584 155.1799,184.5683 Q154.7099,184.6781 154.1911,184.6781 Q152.3478,184.6781 151.3774,183.4635 Q150.4069,182.2489 150.4069,179.954 Q150.4069,177.653 151.3774,176.4384 Q152.3478,175.2238 154.1911,175.2238 Q154.7099,175.2238 155.186,175.3337 Q155.662,175.4435 156.0771,175.6632 L156.0771,177.6652 Q155.6132,177.238 155.1768,177.0396 Q154.7404,176.8412 154.2765,176.8412 Q153.2878,176.8412 152.7842,177.6255 Q152.2807,178.4098 152.2807,179.954 Q152.2807,181.4921 152.7842,182.2764 Q153.2878,183.0607 154.2765,183.0607 Q154.7404,183.0607 155.1768,182.8623 Q155.6132,182.664 156.0771,182.2367 Z " fill="#000000"/><text fill="#D8BC00" font-family="Open Sans,Avenir,Nunito,Arial,Helvetica,SansSerif" font-size="12.5" font-weight="bold" lengthAdjust="spacing" textLength="122.9167" x="170.8333" y="184.5378">DiagramMapCutter</text><line style="stroke:#5E5E5E;stroke-width:1.0416666666666667;" x1="140.625" x2="298.9583" y1="195.5078" y2="195.5078"/><line style="stroke:#5E5E5E;stroke-width:1.0416666666666667;" x1="140.625" x2="298.9583" y1="203.8411" y2="203.8411"/><path codeLine="9" d="M219.7917,122.6195 C219.7917,136.8382 219.7917,152.0361 219.7917,164.0986 " fill="none" id="UmlDiagramIdentifier-backto-DiagramMapCutter" style="stroke:#545454;stroke-width:1.5625;"/><polygon fill="none" points="212.5,122.5153,219.7917,101.682,227.0833,122.5153,212.5,122.5153" style="stroke:#545454;stroke-width:1.5625;"/></g></svg>
