<?xml version="1.0" encoding="UTF-8" standalone="no"?><svg xmlns="http://www.w3.org/2000/svg" xmlns:xlink="http://www.w3.org/1999/xlink" contentScriptType="application/ecmascript" contentStyleType="text/css" height="567.7083px" preserveAspectRatio="none" style="width:1493px;height:567px;background:#333333;" version="1.1" viewBox="0 0 1493 567" width="1493.75px" zoomAndPan="magnify"><defs/><g><rect fill="#48494B" height="41.2028" rx="8.3333" ry="8.3333" style="stroke:#545454;stroke-width:1.0416666666666667;" width="788.5417" x="345.3125" y="2.0833"/><text fill="#C0C0C0" font-family="Open Sans,Avenir,Nunito,Arial,Helvetica,SansSerif" font-size="20.8333" lengthAdjust="spacing" textLength="765.625" x="356.7708" y="30.5583">com.telenav.mesakit.tools.applications.pbf.graph.world.extractor.conversion</text><polygon fill="#333333" points="1210.4167,52.6611,1334.375,52.6611,1341.6667,79.8828,1476.0417,79.8828,1476.0417,412.0361,1210.4167,412.0361,1210.4167,52.6611" style="stroke:#333333;stroke-width:2.0833333333333335;"/><line style="stroke:#333333;stroke-width:2.0833333333333335;" x1="1210.4167" x2="1341.6667" y1="79.8828" y2="79.8828"/><text fill="#C8AC00" font-family="Open Sans,Avenir,Nunito,Arial,Helvetica,SansSerif" font-size="12.5" font-weight="bold" lengthAdjust="spacing" textLength="111.4583" x="1217.7083" y="69.9544">WorldConversion</text><rect codeLine="19" fill="#282828" height="284.9935" id="WorldConversion.Statistics" rx="8.3333" ry="8.3333" style="stroke:#5E5E5E;stroke-width:1.0416666666666667;" width="194.7917" x="1255.7292" y="101.6195"/><rect fill="#1B1B1A" height="31.3883" rx="8.3333" ry="8.3333" style="stroke:#1B1B1A;stroke-width:1.0416666666666667;" width="194.7917" x="1255.7292" y="101.6195"/><rect fill="#1B1B1A" height="8.3333" style="stroke:#1B1B1A;stroke-width:1.0416666666666667;" width="194.7917" x="1255.7292" y="124.6745"/><rect codeLine="19" fill="none" height="284.9935" id="WorldConversion.Statistics" rx="8.3333" ry="8.3333" style="stroke:#5E5E5E;stroke-width:1.0416666666666667;" width="194.7917" x="1255.7292" y="101.6195"/><ellipse cx="1316.1458" cy="117.3136" fill="#0066CF" rx="10.4167" ry="10.4167" style="stroke:#0086EF;stroke-width:1.0416666666666667;"/><path d="M1318.0562,121.7387 Q1317.629,121.9584 1317.159,122.0683 Q1316.689,122.1781 1316.1702,122.1781 Q1314.327,122.1781 1313.3565,120.9635 Q1312.3861,119.7489 1312.3861,117.454 Q1312.3861,115.153 1313.3565,113.9384 Q1314.327,112.7238 1316.1702,112.7238 Q1316.689,112.7238 1317.1651,112.8337 Q1317.6412,112.9435 1318.0562,113.1632 L1318.0562,115.1652 Q1317.5924,114.738 1317.156,114.5396 Q1316.7196,114.3412 1316.2557,114.3412 Q1315.2669,114.3412 1314.7634,115.1255 Q1314.2598,115.9098 1314.2598,117.454 Q1314.2598,118.9921 1314.7634,119.7764 Q1315.2669,120.5607 1316.2557,120.5607 Q1316.7196,120.5607 1317.156,120.3623 Q1317.5924,120.164 1318.0562,119.7367 Z " fill="#000000"/><text fill="#D8BC00" font-family="Open Sans,Avenir,Nunito,Arial,Helvetica,SansSerif" font-size="12.5" font-weight="bold" lengthAdjust="spacing" textLength="59.375" x="1339.0625" y="122.0378">Statistics</text><line style="stroke:#5E5E5E;stroke-width:1.5625;" x1="1256.7708" x2="1449.4792" y1="133.0078" y2="133.0078"/><ellipse cx="1267.1875" cy="168.3777" fill="#84BE84" rx="3.125" ry="3.125" style="stroke:#038048;stroke-width:1.0416666666666667;"/><text fill="#D8BC00" font-family="Open Sans,Avenir,Nunito,Arial,Helvetica,SansSerif" font-size="11.4583" lengthAdjust="spacing" textLength="102.0833" x="1278.6458" y="175.2889">Count attempted()</text><ellipse cx="1267.1875" cy="188.1226" fill="#84BE84" rx="3.125" ry="3.125" style="stroke:#038048;stroke-width:1.0416666666666667;"/><text fill="#D8BC00" font-family="Open Sans,Avenir,Nunito,Arial,Helvetica,SansSerif" font-size="11.4583" lengthAdjust="spacing" textLength="104.1667" x="1278.6458" y="195.0338">Count completed()</text><ellipse cx="1267.1875" cy="207.8674" fill="#84BE84" rx="3.125" ry="3.125" style="stroke:#038048;stroke-width:1.0416666666666667;"/><text fill="#D8BC00" font-family="Open Sans,Avenir,Nunito,Arial,Helvetica,SansSerif" font-size="11.4583" lengthAdjust="spacing" textLength="123.9583" x="1278.6458" y="214.7786">Count edgeRelations()</text><ellipse cx="1267.1875" cy="227.6123" fill="#84BE84" rx="3.125" ry="3.125" style="stroke:#038048;stroke-width:1.0416666666666667;"/><text fill="#D8BC00" font-family="Open Sans,Avenir,Nunito,Arial,Helvetica,SansSerif" font-size="11.4583" lengthAdjust="spacing" textLength="79.1667" x="1278.6458" y="234.5235">Count edges()</text><ellipse cx="1267.1875" cy="247.3572" fill="#84BE84" rx="3.125" ry="3.125" style="stroke:#038048;stroke-width:1.0416666666666667;"/><text fill="#D8BC00" font-family="Open Sans,Avenir,Nunito,Arial,Helvetica,SansSerif" font-size="11.4583" lengthAdjust="spacing" textLength="76.0417" x="1278.6458" y="254.2684">Count failed()</text><ellipse cx="1267.1875" cy="267.1021" fill="#84BE84" rx="3.125" ry="3.125" style="stroke:#038048;stroke-width:1.0416666666666667;"/><text fill="#D8BC00" font-family="Open Sans,Avenir,Nunito,Arial,Helvetica,SansSerif" font-size="11.4583" lengthAdjust="spacing" textLength="122.9167" x="1278.6458" y="274.0133">Count forwardEdges()</text><ellipse cx="1267.1875" cy="286.8469" fill="#84BE84" rx="3.125" ry="3.125" style="stroke:#038048;stroke-width:1.0416666666666667;"/><text fill="#D8BC00" font-family="Open Sans,Avenir,Nunito,Arial,Helvetica,SansSerif" font-size="11.4583" lengthAdjust="spacing" textLength="81.25" x="1278.6458" y="293.7581">Count places()</text><ellipse cx="1267.1875" cy="306.5918" fill="#84BE84" rx="3.125" ry="3.125" style="stroke:#038048;stroke-width:1.0416666666666667;"/><text fill="#D8BC00" font-family="Open Sans,Avenir,Nunito,Arial,Helvetica,SansSerif" font-size="11.4583" lengthAdjust="spacing" textLength="105.2083" x="1278.6458" y="313.503">Count succeeded()</text><ellipse cx="1267.1875" cy="326.3367" fill="#84BE84" rx="3.125" ry="3.125" style="stroke:#038048;stroke-width:1.0416666666666667;"/><text fill="#D8BC00" font-family="Open Sans,Avenir,Nunito,Arial,Helvetica,SansSerif" font-size="11.4583" lengthAdjust="spacing" textLength="93.75" x="1278.6458" y="333.2479">Count vertexes()</text><line style="stroke:#5E5E5E;stroke-width:1.0416666666666667;" x1="1256.7708" x2="1318.75" y1="151.2136" y2="151.2136"/><text fill="#D8BC00" font-family="Open Sans,Avenir,Nunito,Arial,Helvetica,SansSerif" font-size="11.4583" lengthAdjust="spacing" textLength="62.5" x="1321.875" y="155.0232">(collection)</text><line style="stroke:#5E5E5E;stroke-width:1.0416666666666667;" x1="1387.5" x2="1449.4792" y1="151.2136" y2="151.2136"/><ellipse cx="1267.1875" cy="369.9931" fill="#84BE84" rx="3.125" ry="3.125" style="stroke:#038048;stroke-width:1.0416666666666667;"/><text fill="#D8BC00" font-family="Open Sans,Avenir,Nunito,Arial,Helvetica,SansSerif" font-size="11.4583" lengthAdjust="spacing" textLength="162.5" x="1278.6458" y="376.9043">Metadata metadata(Metadata)</text><line style="stroke:#5E5E5E;stroke-width:1.0416666666666667;" x1="1256.7708" x2="1320.3125" y1="352.829" y2="352.829"/><text fill="#D8BC00" font-family="Open Sans,Avenir,Nunito,Arial,Helvetica,SansSerif" font-size="11.4583" lengthAdjust="spacing" textLength="59.375" x="1323.4375" y="356.6386">(metadata)</text><line style="stroke:#5E5E5E;stroke-width:1.0416666666666667;" x1="1385.9375" x2="1449.4792" y1="352.829" y2="352.829"/><rect codeLine="7" fill="#282828" height="48.055" id="BaseComponent" rx="8.3333" ry="8.3333" style="stroke:#5E5E5E;stroke-width:1.0416666666666667;" width="143.75" x="371.875" y="220.3695"/><rect fill="#1B1B1A" height="31.3883" rx="8.3333" ry="8.3333" style="stroke:#1B1B1A;stroke-width:1.0416666666666667;" width="143.75" x="371.875" y="220.3695"/><rect fill="#1B1B1A" height="8.3333" style="stroke:#1B1B1A;stroke-width:1.0416666666666667;" width="143.75" x="371.875" y="243.4245"/><rect codeLine="7" fill="none" height="48.055" id="BaseComponent" rx="8.3333" ry="8.3333" style="stroke:#5E5E5E;stroke-width:1.0416666666666667;" width="143.75" x="371.875" y="220.3695"/><ellipse cx="386.4583" cy="236.0636" fill="#C8AC00" rx="10.4167" ry="10.4167" style="stroke:#D8BC00;stroke-width:1.0416666666666667;"/><path d="M386.0514,232.7657 L385.203,236.495 L386.9059,236.495 Z M384.9528,231.1178 L387.1562,231.1178 L389.6159,240.2303 L387.8153,240.2303 L387.2538,237.9781 L384.8429,237.9781 L384.2936,240.2303 L382.4931,240.2303 Z " fill="#000000"/><text fill="#D8BC00" font-family="Open Sans,Avenir,Nunito,Arial,Helvetica,SansSerif" font-size="12.5" font-style="italic" font-weight="bold" lengthAdjust="spacing" textLength="106.25" x="403.125" y="240.7878">BaseComponent</text><line style="stroke:#5E5E5E;stroke-width:1.0416666666666667;" x1="372.9167" x2="514.5833" y1="251.7578" y2="251.7578"/><line style="stroke:#5E5E5E;stroke-width:1.0416666666666667;" x1="372.9167" x2="514.5833" y1="260.0911" y2="260.0911"/><rect codeLine="8" fill="#282828" height="48.055" id="BaseRepeater" rx="8.3333" ry="8.3333" style="stroke:#5E5E5E;stroke-width:1.0416666666666667;" width="123.9583" x="1057.8125" y="220.3695"/><rect fill="#1B1B1A" height="31.3883" rx="8.3333" ry="8.3333" style="stroke:#1B1B1A;stroke-width:1.0416666666666667;" width="123.9583" x="1057.8125" y="220.3695"/><rect fill="#1B1B1A" height="8.3333" style="stroke:#1B1B1A;stroke-width:1.0416666666666667;" width="123.9583" x="1057.8125" y="243.4245"/><rect codeLine="8" fill="none" height="48.055" id="BaseRepeater" rx="8.3333" ry="8.3333" style="stroke:#5E5E5E;stroke-width:1.0416666666666667;" width="123.9583" x="1057.8125" y="220.3695"/><ellipse cx="1072.3958" cy="236.0636" fill="#C8AC00" rx="10.4167" ry="10.4167" style="stroke:#D8BC00;stroke-width:1.0416666666666667;"/><path d="M1071.9889,232.7657 L1071.1405,236.495 L1072.8434,236.495 Z M1070.8903,231.1178 L1073.0937,231.1178 L1075.5534,240.2303 L1073.7528,240.2303 L1073.1913,237.9781 L1070.7804,237.9781 L1070.2311,240.2303 L1068.4306,240.2303 Z " fill="#000000"/><text fill="#D8BC00" font-family="Open Sans,Avenir,Nunito,Arial,Helvetica,SansSerif" font-size="12.5" font-style="italic" font-weight="bold" lengthAdjust="spacing" textLength="86.4583" x="1089.0625" y="240.7878">BaseRepeater</text><line style="stroke:#5E5E5E;stroke-width:1.0416666666666667;" x1="1058.8542" x2="1180.7292" y1="251.7578" y2="251.7578"/><line style="stroke:#5E5E5E;stroke-width:1.0416666666666667;" x1="1058.8542" x2="1180.7292" y1="260.0911" y2="260.0911"/><rect codeLine="11" fill="#282828" height="111.4563" id="Conversion" rx="8.3333" ry="8.3333" style="stroke:#5E5E5E;stroke-width:1.0416666666666667;" width="406.25" x="916.6667" y="449.5361"/><rect fill="#1B1B1A" height="31.3883" rx="8.3333" ry="8.3333" style="stroke:#1B1B1A;stroke-width:1.0416666666666667;" width="406.25" x="916.6667" y="449.5361"/><rect fill="#1B1B1A" height="8.3333" style="stroke:#1B1B1A;stroke-width:1.0416666666666667;" width="406.25" x="916.6667" y="472.5911"/><rect codeLine="11" fill="none" height="111.4563" id="Conversion" rx="8.3333" ry="8.3333" style="stroke:#5E5E5E;stroke-width:1.0416666666666667;" width="406.25" x="916.6667" y="449.5361"/><ellipse cx="1075.5208" cy="465.2303" fill="#0066CF" rx="10.4167" ry="10.4167" style="stroke:#0086EF;stroke-width:1.0416666666666667;"/><path d="M1077.4312,469.6554 Q1077.004,469.8751 1076.534,469.9849 Q1076.064,470.0948 1075.5452,470.0948 Q1073.702,470.0948 1072.7315,468.8802 Q1071.7611,467.6656 1071.7611,465.3707 Q1071.7611,463.0697 1072.7315,461.8551 Q1073.702,460.6405 1075.5452,460.6405 Q1076.064,460.6405 1076.5401,460.7503 Q1077.0162,460.8602 1077.4312,461.0799 L1077.4312,463.0819 Q1076.9674,462.6546 1076.531,462.4563 Q1076.0946,462.2579 1075.6307,462.2579 Q1074.6419,462.2579 1074.1384,463.0422 Q1073.6348,463.8265 1073.6348,465.3707 Q1073.6348,466.9088 1074.1384,467.6931 Q1074.6419,468.4774 1075.6307,468.4774 Q1076.0946,468.4774 1076.531,468.279 Q1076.9674,468.0806 1077.4312,467.6534 Z " fill="#000000"/><text fill="#D8BC00" font-family="Open Sans,Avenir,Nunito,Arial,Helvetica,SansSerif" font-size="12.5" font-weight="bold" lengthAdjust="spacing" textLength="73.9583" x="1098.4375" y="469.9544">Conversion</text><line style="stroke:#5E5E5E;stroke-width:1.5625;" x1="917.7083" x2="1321.875" y1="480.9245" y2="480.9245"/><ellipse cx="928.125" cy="516.2944" fill="#84BE84" rx="3.125" ry="3.125" style="stroke:#038048;stroke-width:1.0416666666666667;"/><text fill="#D8BC00" font-family="Open Sans,Avenir,Nunito,Arial,Helvetica,SansSerif" font-size="11.4583" lengthAdjust="spacing" textLength="373.9583" x="939.5833" y="523.2056">Conversion(PbfWorldGraphExtractorApplication, Folder, WorldCell)</text><line style="stroke:#5E5E5E;stroke-width:1.0416666666666667;" x1="917.7083" x2="1076.0417" y1="499.1302" y2="499.1302"/><text fill="#D8BC00" font-family="Open Sans,Avenir,Nunito,Arial,Helvetica,SansSerif" font-size="11.4583" lengthAdjust="spacing" textLength="81.25" x="1079.1667" y="502.9399">(constructors)</text><line style="stroke:#5E5E5E;stroke-width:1.0416666666666667;" x1="1163.5417" x2="1321.875" y1="499.1302" y2="499.1302"/><line style="stroke:#5E5E5E;stroke-width:1.0416666666666667;" x1="917.7083" x2="1321.875" y1="532.9142" y2="532.9142"/><ellipse cx="928.125" cy="544.3726" fill="#84BE84" rx="3.125" ry="3.125" style="stroke:#038048;stroke-width:1.0416666666666667;"/><text fill="#D8BC00" font-family="Open Sans,Avenir,Nunito,Arial,Helvetica,SansSerif" font-size="11.4583" lengthAdjust="spacing" textLength="195.8333" x="939.5833" y="551.2838">Graph convert(File input, Metadata)</text><rect codeLine="36" fill="#282828" height="83.3781" id="WorldConversion" rx="8.3333" ry="8.3333" style="stroke:#5E5E5E;stroke-width:1.0416666666666667;" width="872.9167" x="7.2917" y="463.5986"/><rect fill="#1B1B1A" height="31.3883" rx="8.3333" ry="8.3333" style="stroke:#1B1B1A;stroke-width:1.0416666666666667;" width="872.9167" x="7.2917" y="463.5986"/><rect fill="#1B1B1A" height="8.3333" style="stroke:#1B1B1A;stroke-width:1.0416666666666667;" width="872.9167" x="7.2917" y="486.6536"/><rect codeLine="36" fill="none" height="83.3781" id="WorldConversion" rx="8.3333" ry="8.3333" style="stroke:#5E5E5E;stroke-width:1.0416666666666667;" width="872.9167" x="7.2917" y="463.5986"/><ellipse cx="380.7292" cy="479.2928" fill="#0066CF" rx="10.4167" ry="10.4167" style="stroke:#0086EF;stroke-width:1.0416666666666667;"/><path d="M382.6396,483.7179 Q382.2123,483.9376 381.7424,484.0474 Q381.2724,484.1573 380.7536,484.1573 Q378.9103,484.1573 377.9399,482.9427 Q376.9694,481.7281 376.9694,479.4332 Q376.9694,477.1322 377.9399,475.9176 Q378.9103,474.703 380.7536,474.703 Q381.2724,474.703 381.7485,474.8128 Q382.2245,474.9227 382.6396,475.1424 L382.6396,477.1444 Q382.1757,476.7171 381.7393,476.5188 Q381.3029,476.3204 380.839,476.3204 Q379.8503,476.3204 379.3467,477.1047 Q378.8432,477.889 378.8432,479.4332 Q378.8432,480.9713 379.3467,481.7556 Q379.8503,482.5399 380.839,482.5399 Q381.3029,482.5399 381.7393,482.3415 Q382.1757,482.1431 382.6396,481.7159 Z " fill="#000000"/><text fill="#D8BC00" font-family="Open Sans,Avenir,Nunito,Arial,Helvetica,SansSerif" font-size="12.5" font-weight="bold" lengthAdjust="spacing" textLength="111.4583" x="403.6458" y="484.0169">WorldConversion</text><line style="stroke:#5E5E5E;stroke-width:1.5625;" x1="8.3333" x2="879.1667" y1="494.987" y2="494.987"/><ellipse cx="18.75" cy="530.3569" fill="#84BE84" rx="3.125" ry="3.125" style="stroke:#038048;stroke-width:1.0416666666666667;"/><text fill="#D8BC00" font-family="Open Sans,Avenir,Nunito,Arial,Helvetica,SansSerif" font-size="11.4583" lengthAdjust="spacing" textLength="840.625" x="30.2083" y="537.2681">Statistics convert(PbfWorldGraphExtractorApplication, WorldGrid, CommandLine, Metadata, WorldGraphRepositoryFolder outputFolder, Count threads)</text><line style="stroke:#5E5E5E;stroke-width:1.0416666666666667;" x1="8.3333" x2="374.4792" y1="513.1927" y2="513.1927"/><text fill="#D8BC00" font-family="Open Sans,Avenir,Nunito,Arial,Helvetica,SansSerif" font-size="11.4583" lengthAdjust="spacing" textLength="132.2917" x="377.6042" y="517.0024">(command line parsing)</text><line style="stroke:#5E5E5E;stroke-width:1.0416666666666667;" x1="513.0208" x2="879.1667" y1="513.1927" y2="513.1927"/><path codeLine="10" d="M1119.7917,289.2965 C1119.7917,333.484 1119.7917,401.7236 1119.7917,449.4215 " fill="none" id="BaseRepeater-backto-Conversion" style="stroke:#545454;stroke-width:1.5625;"/><polygon fill="none" points="1112.5,289.1715,1119.7917,268.3382,1127.0833,289.1715,1112.5,289.1715" style="stroke:#545454;stroke-width:1.5625;"/><path codeLine="35" d="M443.75,289.3278 C443.75,337.984 443.75,415.7757 443.75,463.2132 " fill="none" id="BaseComponent-backto-WorldConversion" style="stroke:#545454;stroke-width:1.5625;"/><polygon fill="none" points="436.4583,289.1715,443.75,268.3382,451.0417,289.1715,436.4583,289.1715" style="stroke:#545454;stroke-width:1.5625;"/></g></svg>
