<?xml version="1.0" encoding="UTF-8" standalone="no"?><svg xmlns="http://www.w3.org/2000/svg" xmlns:xlink="http://www.w3.org/1999/xlink" contentScriptType="application/ecmascript" contentStyleType="text/css" height="254.1667px" preserveAspectRatio="none" style="width:523px;height:254px;background:#333333;" version="1.1" viewBox="0 0 523 254" width="523.9583px" zoomAndPan="magnify"><defs/><g><rect fill="#48494B" height="41.2028" rx="8.3333" ry="8.3333" style="stroke:#545454;stroke-width:1.0416666666666667;" width="511.4583" x="2.0833" y="2.0833"/><text fill="#C0C0C0" font-family="Open Sans,Avenir,Nunito,Arial,Helvetica,SansSerif" font-size="20.8333" lengthAdjust="spacing" textLength="488.5417" x="13.5417" y="30.5583">com.telenav.mesakit.map.region.countries.states</text><rect fill="#282828" height="48.055" id="State" rx="8.3333" ry="8.3333" style="stroke:#5E5E5E;stroke-width:1.0416666666666667;" width="69.7917" x="223.6979" y="53.7028"/><rect fill="#1B1B1A" height="31.3883" rx="8.3333" ry="8.3333" style="stroke:#1B1B1A;stroke-width:1.0416666666666667;" width="69.7917" x="223.6979" y="53.7028"/><rect fill="#1B1B1A" height="8.3333" style="stroke:#1B1B1A;stroke-width:1.0416666666666667;" width="69.7917" x="223.6979" y="76.7578"/><rect fill="none" height="48.055" id="State" rx="8.3333" ry="8.3333" style="stroke:#5E5E5E;stroke-width:1.0416666666666667;" width="69.7917" x="223.6979" y="53.7028"/><ellipse cx="238.2813" cy="69.397" fill="#0066CF" rx="10.4167" ry="10.4167" style="stroke:#0086EF;stroke-width:1.0416666666666667;"/><path d="M240.1917,73.822 Q239.7644,74.0417 239.2944,74.1516 Q238.8245,74.2615 238.3057,74.2615 Q236.4624,74.2615 235.4919,73.0469 Q234.5215,71.8323 234.5215,69.5374 Q234.5215,67.2363 235.4919,66.0217 Q236.4624,64.8071 238.3057,64.8071 Q238.8245,64.8071 239.3005,64.917 Q239.7766,65.0269 240.1917,65.2466 L240.1917,67.2485 Q239.7278,66.8213 239.2914,66.6229 Q238.855,66.4246 238.3911,66.4246 Q237.4023,66.4246 236.8988,67.2089 Q236.3953,67.9932 236.3953,69.5374 Q236.3953,71.0754 236.8988,71.8597 Q237.4023,72.644 238.3911,72.644 Q238.855,72.644 239.2914,72.4457 Q239.7278,72.2473 240.1917,71.8201 Z " fill="#000000"/><text fill="#D8BC00" font-family="Open Sans,Avenir,Nunito,Arial,Helvetica,SansSerif" font-size="12.5" font-weight="bold" lengthAdjust="spacing" textLength="32.2917" x="254.9479" y="74.1211">State</text><line style="stroke:#5E5E5E;stroke-width:1.0416666666666667;" x1="224.7396" x2="292.4479" y1="85.0911" y2="85.0911"/><line style="stroke:#5E5E5E;stroke-width:1.0416666666666667;" x1="224.7396" x2="292.4479" y1="93.4245" y2="93.4245"/><rect codeLine="8" fill="#282828" height="83.3781" id="California" rx="8.3333" ry="8.3333" style="stroke:#5E5E5E;stroke-width:1.0416666666666667;" width="101.0417" x="72.6563" y="164.1195"/><rect fill="#1B1B1A" height="31.3883" rx="8.3333" ry="8.3333" style="stroke:#1B1B1A;stroke-width:1.0416666666666667;" width="101.0417" x="72.6563" y="164.1195"/><rect fill="#1B1B1A" height="8.3333" style="stroke:#1B1B1A;stroke-width:1.0416666666666667;" width="101.0417" x="72.6563" y="187.1745"/><rect codeLine="8" fill="none" height="83.3781" id="California" rx="8.3333" ry="8.3333" style="stroke:#5E5E5E;stroke-width:1.0416666666666667;" width="101.0417" x="72.6563" y="164.1195"/><ellipse cx="87.2396" cy="179.8136" fill="#0066CF" rx="10.4167" ry="10.4167" style="stroke:#0086EF;stroke-width:1.0416666666666667;"/><path d="M89.15,184.2387 Q88.7227,184.4584 88.2528,184.5683 Q87.7828,184.6781 87.264,184.6781 Q85.4207,184.6781 84.4503,183.4635 Q83.4798,182.2489 83.4798,179.954 Q83.4798,177.653 84.4503,176.4384 Q85.4207,175.2238 87.264,175.2238 Q87.7828,175.2238 88.2589,175.3337 Q88.7349,175.4435 89.15,175.6632 L89.15,177.6652 Q88.6861,177.238 88.2497,177.0396 Q87.8133,176.8412 87.3494,176.8412 Q86.3607,176.8412 85.8571,177.6255 Q85.3536,178.4098 85.3536,179.954 Q85.3536,181.4921 85.8571,182.2764 Q86.3607,183.0607 87.3494,183.0607 Q87.8133,183.0607 88.2497,182.8623 Q88.6861,182.664 89.15,182.2367 Z " fill="#000000"/><text fill="#D8BC00" font-family="Open Sans,Avenir,Nunito,Arial,Helvetica,SansSerif" font-size="12.5" font-weight="bold" lengthAdjust="spacing" textLength="63.5417" x="103.9063" y="184.5378">California</text><line style="stroke:#5E5E5E;stroke-width:1.5625;" x1="73.6979" x2="172.6563" y1="195.5078" y2="195.5078"/><ellipse cx="84.1146" cy="230.8777" fill="#84BE84" rx="3.125" ry="3.125" style="stroke:#038048;stroke-width:1.0416666666666667;"/><text fill="#D8BC00" font-family="Open Sans,Avenir,Nunito,Arial,Helvetica,SansSerif" font-size="11.4583" lengthAdjust="spacing" textLength="62.5" x="95.5729" y="237.7889">California()</text><line style="stroke:#5E5E5E;stroke-width:1.0416666666666667;" x1="73.6979" x2="79.4271" y1="213.7136" y2="213.7136"/><text fill="#D8BC00" font-family="Open Sans,Avenir,Nunito,Arial,Helvetica,SansSerif" font-size="11.4583" lengthAdjust="spacing" textLength="81.25" x="82.5521" y="217.5232">(constructors)</text><line style="stroke:#5E5E5E;stroke-width:1.0416666666666667;" x1="166.9271" x2="172.6563" y1="213.7136" y2="213.7136"/><rect codeLine="15" fill="#282828" height="83.3781" id="NewYork" rx="8.3333" ry="8.3333" style="stroke:#5E5E5E;stroke-width:1.0416666666666667;" width="95.8333" x="210.6771" y="164.1195"/><rect fill="#1B1B1A" height="31.3883" rx="8.3333" ry="8.3333" style="stroke:#1B1B1A;stroke-width:1.0416666666666667;" width="95.8333" x="210.6771" y="164.1195"/><rect fill="#1B1B1A" height="8.3333" style="stroke:#1B1B1A;stroke-width:1.0416666666666667;" width="95.8333" x="210.6771" y="187.1745"/><rect codeLine="15" fill="none" height="83.3781" id="NewYork" rx="8.3333" ry="8.3333" style="stroke:#5E5E5E;stroke-width:1.0416666666666667;" width="95.8333" x="210.6771" y="164.1195"/><ellipse cx="225.7292" cy="179.8136" fill="#0066CF" rx="10.4167" ry="10.4167" style="stroke:#0086EF;stroke-width:1.0416666666666667;"/><path d="M227.6396,184.2387 Q227.2123,184.4584 226.7424,184.5683 Q226.2724,184.6781 225.7536,184.6781 Q223.9103,184.6781 222.9399,183.4635 Q221.9694,182.2489 221.9694,179.954 Q221.9694,177.653 222.9399,176.4384 Q223.9103,175.2238 225.7536,175.2238 Q226.2724,175.2238 226.7485,175.3337 Q227.2245,175.4435 227.6396,175.6632 L227.6396,177.6652 Q227.1757,177.238 226.7393,177.0396 Q226.3029,176.8412 225.839,176.8412 Q224.8503,176.8412 224.3467,177.6255 Q223.8432,178.4098 223.8432,179.954 Q223.8432,181.4921 224.3467,182.2764 Q224.8503,183.0607 225.839,183.0607 Q226.3029,183.0607 226.7393,182.8623 Q227.1757,182.664 227.6396,182.2367 Z " fill="#000000"/><text fill="#D8BC00" font-family="Open Sans,Avenir,Nunito,Arial,Helvetica,SansSerif" font-size="12.5" font-weight="bold" lengthAdjust="spacing" textLength="57.2917" x="242.5" y="184.5378">NewYork</text><line style="stroke:#5E5E5E;stroke-width:1.5625;" x1="211.7188" x2="305.4688" y1="195.5078" y2="195.5078"/><ellipse cx="222.1354" cy="230.8777" fill="#84BE84" rx="3.125" ry="3.125" style="stroke:#038048;stroke-width:1.0416666666666667;"/><text fill="#D8BC00" font-family="Open Sans,Avenir,Nunito,Arial,Helvetica,SansSerif" font-size="11.4583" lengthAdjust="spacing" textLength="57.2917" x="233.5938" y="237.7889">NewYork()</text><line style="stroke:#5E5E5E;stroke-width:1.0416666666666667;" x1="211.7188" x2="214.8438" y1="213.7136" y2="213.7136"/><text fill="#D8BC00" font-family="Open Sans,Avenir,Nunito,Arial,Helvetica,SansSerif" font-size="11.4583" lengthAdjust="spacing" textLength="81.25" x="217.9688" y="217.5232">(constructors)</text><line style="stroke:#5E5E5E;stroke-width:1.0416666666666667;" x1="302.3438" x2="305.4688" y1="213.7136" y2="213.7136"/><rect codeLine="22" fill="#282828" height="83.3781" id="Washington" rx="8.3333" ry="8.3333" style="stroke:#5E5E5E;stroke-width:1.0416666666666667;" width="114.5833" x="342.9688" y="164.1195"/><rect fill="#1B1B1A" height="31.3883" rx="8.3333" ry="8.3333" style="stroke:#1B1B1A;stroke-width:1.0416666666666667;" width="114.5833" x="342.9688" y="164.1195"/><rect fill="#1B1B1A" height="8.3333" style="stroke:#1B1B1A;stroke-width:1.0416666666666667;" width="114.5833" x="342.9688" y="187.1745"/><rect codeLine="22" fill="none" height="83.3781" id="Washington" rx="8.3333" ry="8.3333" style="stroke:#5E5E5E;stroke-width:1.0416666666666667;" width="114.5833" x="342.9688" y="164.1195"/><ellipse cx="357.5521" cy="179.8136" fill="#0066CF" rx="10.4167" ry="10.4167" style="stroke:#0086EF;stroke-width:1.0416666666666667;"/><path d="M359.4625,184.2387 Q359.0352,184.4584 358.5653,184.5683 Q358.0953,184.6781 357.5765,184.6781 Q355.7332,184.6781 354.7628,183.4635 Q353.7923,182.2489 353.7923,179.954 Q353.7923,177.653 354.7628,176.4384 Q355.7332,175.2238 357.5765,175.2238 Q358.0953,175.2238 358.5714,175.3337 Q359.0474,175.4435 359.4625,175.6632 L359.4625,177.6652 Q358.9986,177.238 358.5622,177.0396 Q358.1258,176.8412 357.6619,176.8412 Q356.6732,176.8412 356.1696,177.6255 Q355.6661,178.4098 355.6661,179.954 Q355.6661,181.4921 356.1696,182.2764 Q356.6732,183.0607 357.6619,183.0607 Q358.1258,183.0607 358.5622,182.8623 Q358.9986,182.664 359.4625,182.2367 Z " fill="#000000"/><text fill="#D8BC00" font-family="Open Sans,Avenir,Nunito,Arial,Helvetica,SansSerif" font-size="12.5" font-weight="bold" lengthAdjust="spacing" textLength="77.0833" x="374.2188" y="184.5378">Washington</text><line style="stroke:#5E5E5E;stroke-width:1.5625;" x1="344.0104" x2="456.5104" y1="195.5078" y2="195.5078"/><ellipse cx="354.4271" cy="230.8777" fill="#84BE84" rx="3.125" ry="3.125" style="stroke:#038048;stroke-width:1.0416666666666667;"/><text fill="#D8BC00" font-family="Open Sans,Avenir,Nunito,Arial,Helvetica,SansSerif" font-size="11.4583" lengthAdjust="spacing" textLength="73.9583" x="365.8854" y="237.7889">Washington()</text><line style="stroke:#5E5E5E;stroke-width:1.0416666666666667;" x1="344.0104" x2="356.5104" y1="213.7136" y2="213.7136"/><text fill="#D8BC00" font-family="Open Sans,Avenir,Nunito,Arial,Helvetica,SansSerif" font-size="11.4583" lengthAdjust="spacing" textLength="81.25" x="359.6354" y="217.5232">(constructors)</text><line style="stroke:#5E5E5E;stroke-width:1.0416666666666667;" x1="444.0104" x2="456.5104" y1="213.7136" y2="213.7136"/><path codeLine="7" d="M218.0729,116.4215 C201.9896,131.3903 183.4375,148.6507 167.0417,163.9215 " fill="none" id="State-backto-California" style="stroke:#545454;stroke-width:1.5625;"/><polygon fill="none" points="213.5417,110.682,233.7604,101.8174,223.4792,121.3486,213.5417,110.682" style="stroke:#545454;stroke-width:1.5625;"/><path codeLine="14" d="M258.5938,122.682 C258.5938,136.0778 258.5938,150.7445 258.5938,163.9215 " fill="none" id="State-backto-NewYork" style="stroke:#545454;stroke-width:1.5625;"/><polygon fill="none" points="251.3021,122.6507,258.5938,101.8174,265.8854,122.6507,251.3021,122.6507" style="stroke:#545454;stroke-width:1.5625;"/><path codeLine="21" d="M300.1875,115.7132 C317.1979,130.8486 336.9479,148.4111 354.375,163.9215 " fill="none" id="State-backto-Washington" style="stroke:#545454;stroke-width:1.5625;"/><polygon fill="none" points="295.2917,121.1195,284.5729,101.8174,304.9896,110.2236,295.2917,121.1195" style="stroke:#545454;stroke-width:1.5625;"/></g></svg>
