<?xml version="1.0" encoding="UTF-8" standalone="no"?><svg xmlns="http://www.w3.org/2000/svg" xmlns:xlink="http://www.w3.org/1999/xlink" contentScriptType="application/ecmascript" contentStyleType="text/css" height="425px" preserveAspectRatio="none" style="width:426px;height:425px;background:#333333;" version="1.1" viewBox="0 0 426 425" width="426.0417px" zoomAndPan="magnify"><defs/><g><rect fill="#48494B" height="41.2028" rx="8.3333" ry="8.3333" style="stroke:#545454;stroke-width:1.0416666666666667;" width="413.5417" x="2.0833" y="2.0833"/><text fill="#C0C0C0" font-family="Open Sans,Avenir,Nunito,Arial,Helvetica,SansSerif" font-size="20.8333" lengthAdjust="spacing" textLength="390.625" x="13.5417" y="30.5583">com.telenav.mesakit.map.region.locale</text><rect codeLine="7" fill="#282828" height="150.946" id="HascCode" rx="8.3333" ry="8.3333" style="stroke:#5E5E5E;stroke-width:1.0416666666666667;" width="194.7917" x="14.0625" y="53.7028"/><rect fill="#1B1B1A" height="31.3883" rx="8.3333" ry="8.3333" style="stroke:#1B1B1A;stroke-width:1.0416666666666667;" width="194.7917" x="14.0625" y="53.7028"/><rect fill="#1B1B1A" height="8.3333" style="stroke:#1B1B1A;stroke-width:1.0416666666666667;" width="194.7917" x="14.0625" y="76.7578"/><rect codeLine="7" fill="none" height="150.946" id="HascCode" rx="8.3333" ry="8.3333" style="stroke:#5E5E5E;stroke-width:1.0416666666666667;" width="194.7917" x="14.0625" y="53.7028"/><ellipse cx="72.3958" cy="69.397" fill="#0066CF" rx="10.4167" ry="10.4167" style="stroke:#0086EF;stroke-width:1.0416666666666667;"/><path d="M74.3062,73.822 Q73.879,74.0417 73.409,74.1516 Q72.939,74.2615 72.4202,74.2615 Q70.577,74.2615 69.6065,73.0469 Q68.6361,71.8323 68.6361,69.5374 Q68.6361,67.2363 69.6065,66.0217 Q70.577,64.8071 72.4202,64.8071 Q72.939,64.8071 73.4151,64.917 Q73.8912,65.0269 74.3062,65.2466 L74.3062,67.2485 Q73.8424,66.8213 73.406,66.6229 Q72.9696,66.4246 72.5057,66.4246 Q71.5169,66.4246 71.0134,67.2089 Q70.5098,67.9932 70.5098,69.5374 Q70.5098,71.0754 71.0134,71.8597 Q71.5169,72.644 72.5057,72.644 Q72.9696,72.644 73.406,72.4457 Q73.8424,72.2473 74.3062,71.8201 Z " fill="#000000"/><text fill="#D8BC00" font-family="Open Sans,Avenir,Nunito,Arial,Helvetica,SansSerif" font-size="12.5" font-weight="bold" lengthAdjust="spacing" textLength="63.5417" x="95.3125" y="74.1211">HascCode</text><line style="stroke:#5E5E5E;stroke-width:1.5625;" x1="15.1042" x2="207.8125" y1="85.0911" y2="85.0911"/><line style="stroke:#5E5E5E;stroke-width:1.0416666666666667;" x1="15.1042" x2="207.8125" y1="93.4245" y2="93.4245"/><ellipse cx="25.5208" cy="104.8828" fill="#84BE84" rx="3.125" ry="3.125" style="stroke:#038048;stroke-width:1.0416666666666667;"/><text fill="#D8BC00" font-family="Open Sans,Avenir,Nunito,Arial,Helvetica,SansSerif" font-size="11.4583" lengthAdjust="spacing" textLength="71.875" x="36.9792" y="111.794">String code()</text><ellipse cx="25.5208" cy="124.6277" fill="#84BE84" rx="3.125" ry="3.125" style="stroke:#038048;stroke-width:1.0416666666666667;"/><text fill="#D8BC00" font-family="Open Sans,Avenir,Nunito,Arial,Helvetica,SansSerif" font-size="11.4583" lengthAdjust="spacing" textLength="101.0417" x="36.9792" y="131.5389">Country country()</text><ellipse cx="25.5208" cy="144.3726" fill="#84BE84" rx="3.125" ry="3.125" style="stroke:#038048;stroke-width:1.0416666666666667;"/><text fill="#D8BC00" font-family="Open Sans,Avenir,Nunito,Arial,Helvetica,SansSerif" font-size="11.4583" lengthAdjust="spacing" textLength="65.625" x="36.9792" y="151.2838">State state()</text><ellipse cx="25.5208" cy="188.029" fill="#84BE84" rx="3.125" ry="3.125" style="stroke:#038048;stroke-width:1.0416666666666667;"/><text fill="#D8BC00" font-family="Open Sans,Avenir,Nunito,Arial,Helvetica,SansSerif" font-size="11.4583" lengthAdjust="spacing" textLength="162.5" x="36.9792" y="194.9402">HascCode parse(String code)</text><line style="stroke:#5E5E5E;stroke-width:1.0416666666666667;" x1="15.1042" x2="82.8125" y1="170.8649" y2="170.8649"/><text fill="#D8BC00" font-family="Open Sans,Avenir,Nunito,Arial,Helvetica,SansSerif" font-size="11.4583" lengthAdjust="spacing" textLength="51.0417" x="85.9375" y="174.6745">(parsing)</text><line style="stroke:#5E5E5E;stroke-width:1.0416666666666667;" x1="140.1042" x2="207.8125" y1="170.8649" y2="170.8649"/><rect fill="#282828" height="48.055" id="Locale" rx="8.3333" ry="8.3333" style="stroke:#5E5E5E;stroke-width:1.0416666666666667;" width="78.125" x="245.3125" y="105.2653"/><rect fill="#1B1B1A" height="31.3883" rx="8.3333" ry="8.3333" style="stroke:#1B1B1A;stroke-width:1.0416666666666667;" width="78.125" x="245.3125" y="105.2653"/><rect fill="#1B1B1A" height="8.3333" style="stroke:#1B1B1A;stroke-width:1.0416666666666667;" width="78.125" x="245.3125" y="128.3203"/><rect fill="none" height="48.055" id="Locale" rx="8.3333" ry="8.3333" style="stroke:#5E5E5E;stroke-width:1.0416666666666667;" width="78.125" x="245.3125" y="105.2653"/><ellipse cx="259.8958" cy="120.9595" fill="#0066CF" rx="10.4167" ry="10.4167" style="stroke:#0086EF;stroke-width:1.0416666666666667;"/><path d="M261.8062,125.3845 Q261.379,125.6042 260.909,125.7141 Q260.439,125.824 259.9202,125.824 Q258.077,125.824 257.1065,124.6094 Q256.1361,123.3948 256.1361,121.0999 Q256.1361,118.7988 257.1065,117.5842 Q258.077,116.3696 259.9202,116.3696 Q260.439,116.3696 260.9151,116.4795 Q261.3912,116.5894 261.8062,116.8091 L261.8062,118.811 Q261.3424,118.3838 260.906,118.1854 Q260.4696,117.9871 260.0057,117.9871 Q259.0169,117.9871 258.5134,118.7714 Q258.0098,119.5557 258.0098,121.0999 Q258.0098,122.6379 258.5134,123.4222 Q259.0169,124.2065 260.0057,124.2065 Q260.4696,124.2065 260.906,124.0082 Q261.3424,123.8098 261.8062,123.3826 Z " fill="#000000"/><text fill="#D8BC00" font-family="Open Sans,Avenir,Nunito,Arial,Helvetica,SansSerif" font-size="12.5" font-weight="bold" lengthAdjust="spacing" textLength="40.625" x="276.5625" y="125.6836">Locale</text><line style="stroke:#5E5E5E;stroke-width:1.0416666666666667;" x1="246.3542" x2="322.3958" y1="136.6536" y2="136.6536"/><line style="stroke:#5E5E5E;stroke-width:1.0416666666666667;" x1="246.3542" x2="322.3958" y1="144.987" y2="144.987"/><rect codeLine="18" fill="#282828" height="150.946" id="MapLocale" rx="8.3333" ry="8.3333" style="stroke:#5E5E5E;stroke-width:1.0416666666666667;" width="267.7083" x="150.5208" y="267.2445"/><rect fill="#1B1B1A" height="31.3883" rx="8.3333" ry="8.3333" style="stroke:#1B1B1A;stroke-width:1.0416666666666667;" width="267.7083" x="150.5208" y="267.2445"/><rect fill="#1B1B1A" height="8.3333" style="stroke:#1B1B1A;stroke-width:1.0416666666666667;" width="267.7083" x="150.5208" y="290.2995"/><rect codeLine="18" fill="none" height="150.946" id="MapLocale" rx="8.3333" ry="8.3333" style="stroke:#5E5E5E;stroke-width:1.0416666666666667;" width="267.7083" x="150.5208" y="267.2445"/><ellipse cx="243.2292" cy="282.9386" fill="#0066CF" rx="10.4167" ry="10.4167" style="stroke:#0086EF;stroke-width:1.0416666666666667;"/><path d="M245.1396,287.3637 Q244.7123,287.5834 244.2424,287.6933 Q243.7724,287.8031 243.2536,287.8031 Q241.4103,287.8031 240.4399,286.5885 Q239.4694,285.3739 239.4694,283.079 Q239.4694,280.778 240.4399,279.5634 Q241.4103,278.3488 243.2536,278.3488 Q243.7724,278.3488 244.2485,278.4587 Q244.7245,278.5685 245.1396,278.7882 L245.1396,280.7902 Q244.6757,280.363 244.2393,280.1646 Q243.8029,279.9662 243.339,279.9662 Q242.3503,279.9662 241.8467,280.7505 Q241.3432,281.5348 241.3432,283.079 Q241.3432,284.6171 241.8467,285.4014 Q242.3503,286.1857 243.339,286.1857 Q243.8029,286.1857 244.2393,285.9873 Q244.6757,285.789 245.1396,285.3617 Z " fill="#000000"/><text fill="#D8BC00" font-family="Open Sans,Avenir,Nunito,Arial,Helvetica,SansSerif" font-size="12.5" font-weight="bold" lengthAdjust="spacing" textLength="67.7083" x="266.1458" y="287.6628">MapLocale</text><line style="stroke:#5E5E5E;stroke-width:1.5625;" x1="151.5625" x2="417.1875" y1="298.6328" y2="298.6328"/><ellipse cx="161.9792" cy="334.0027" fill="#84BE84" rx="3.125" ry="3.125" style="stroke:#038048;stroke-width:1.0416666666666667;"/><text fill="#D8BC00" font-family="Open Sans,Avenir,Nunito,Arial,Helvetica,SansSerif" font-size="11.4583" lengthAdjust="spacing" textLength="112.5" x="173.4375" y="340.9139">MapLocale(Country)</text><ellipse cx="161.9792" cy="353.7476" fill="#84BE84" rx="3.125" ry="3.125" style="stroke:#038048;stroke-width:1.0416666666666667;"/><text fill="#D8BC00" font-family="Open Sans,Avenir,Nunito,Arial,Helvetica,SansSerif" font-size="11.4583" lengthAdjust="spacing" textLength="235.4167" x="173.4375" y="360.6588">MapLocale(Region&lt;?&gt;, LanguageIsoCode)</text><line style="stroke:#5E5E5E;stroke-width:1.0416666666666667;" x1="151.5625" x2="240.625" y1="316.8386" y2="316.8386"/><text fill="#D8BC00" font-family="Open Sans,Avenir,Nunito,Arial,Helvetica,SansSerif" font-size="11.4583" lengthAdjust="spacing" textLength="81.25" x="243.75" y="320.6482">(constructors)</text><line style="stroke:#5E5E5E;stroke-width:1.0416666666666667;" x1="328.125" x2="417.1875" y1="316.8386" y2="316.8386"/><line style="stroke:#5E5E5E;stroke-width:1.0416666666666667;" x1="151.5625" x2="417.1875" y1="370.3674" y2="370.3674"/><ellipse cx="161.9792" cy="381.8258" fill="#84BE84" rx="3.125" ry="3.125" style="stroke:#038048;stroke-width:1.0416666666666667;"/><text fill="#D8BC00" font-family="Open Sans,Avenir,Nunito,Arial,Helvetica,SansSerif" font-size="11.4583" lengthAdjust="spacing" textLength="228.125" x="173.4375" y="388.737">T create(PackageReference, String suffix)</text><ellipse cx="161.9792" cy="401.5706" fill="#84BE84" rx="3.125" ry="3.125" style="stroke:#038048;stroke-width:1.0416666666666667;"/><text fill="#D8BC00" font-family="Open Sans,Avenir,Nunito,Arial,Helvetica,SansSerif" font-size="11.4583" lengthAdjust="spacing" textLength="110.4167" x="173.4375" y="408.4819">Region&lt;?&gt; region()</text><path codeLine="17" d="M284.375,174.4632 C284.375,201.2549 284.375,236.1403 284.375,267.1195 " fill="none" id="Locale-backto-MapLocale" style="stroke:#545454;stroke-width:1.5625;"/><polygon fill="none" points="277.0833,174.1299,284.375,153.2965,291.6667,174.1299,277.0833,174.1299" style="stroke:#545454;stroke-width:1.5625;"/></g></svg>
