<?xml version="1.0" encoding="UTF-8" standalone="no"?><svg xmlns="http://www.w3.org/2000/svg" xmlns:xlink="http://www.w3.org/1999/xlink" contentScriptType="application/ecmascript" contentStyleType="text/css" height="218.75px" preserveAspectRatio="none" style="width:521px;height:218px;background:#333333;" version="1.1" viewBox="0 0 521 218" width="521.875px" zoomAndPan="magnify"><defs/><g><rect fill="#48494B" height="41.2028" rx="8.3333" ry="8.3333" style="stroke:#545454;stroke-width:1.0416666666666667;" width="509.375" x="2.0833" y="2.0833"/><text fill="#C0C0C0" font-family="Open Sans,Avenir,Nunito,Arial,Helvetica,SansSerif" font-size="20.8333" lengthAdjust="spacing" textLength="486.4583" x="13.5417" y="30.5583">com.telenav.mesakit.map.region.internal.lexakai</text><rect codeLine="7" fill="#282828" height="48.055" id="UmlDiagramIdentifier" rx="8.3333" ry="8.3333" style="stroke:#5E5E5E;stroke-width:1.0416666666666667;" width="178.125" x="170.0521" y="53.7028"/><rect fill="#1B1B1A" height="31.3883" rx="8.3333" ry="8.3333" style="stroke:#1B1B1A;stroke-width:1.0416666666666667;" width="178.125" x="170.0521" y="53.7028"/><rect fill="#1B1B1A" height="8.3333" style="stroke:#1B1B1A;stroke-width:1.0416666666666667;" width="178.125" x="170.0521" y="76.7578"/><rect codeLine="7" fill="none" height="48.055" id="UmlDiagramIdentifier" rx="8.3333" ry="8.3333" style="stroke:#5E5E5E;stroke-width:1.0416666666666667;" width="178.125" x="170.0521" y="53.7028"/><ellipse cx="184.6354" cy="69.397" fill="#008400" rx="10.4167" ry="10.4167" style="stroke:#239C23;stroke-width:1.0416666666666667;"/><path d="M182.0394,66.5588 L182.0394,64.9719 L187.4654,64.9719 L187.4654,66.5588 L185.6527,66.5588 L185.6527,72.4976 L187.4654,72.4976 L187.4654,74.0845 L182.0394,74.0845 L182.0394,72.4976 L183.8521,72.4976 L183.8521,66.5588 Z " fill="#000000"/><text fill="#D8BC00" font-family="Open Sans,Avenir,Nunito,Arial,Helvetica,SansSerif" font-size="12.5" font-style="italic" font-weight="bold" lengthAdjust="spacing" textLength="140.625" x="201.3021" y="74.1211">UmlDiagramIdentifier</text><line style="stroke:#5E5E5E;stroke-width:1.0416666666666667;" x1="171.0938" x2="347.1354" y1="85.0911" y2="85.0911"/><line style="stroke:#5E5E5E;stroke-width:1.0416666666666667;" x1="171.0938" x2="347.1354" y1="93.4245" y2="93.4245"/><rect codeLine="10" fill="#282828" height="48.055" id="DiagramBorder" rx="8.3333" ry="8.3333" style="stroke:#5E5E5E;stroke-width:1.0416666666666667;" width="135.4167" x="18.4896" y="164.1195"/><rect fill="#1B1B1A" height="31.3883" rx="8.3333" ry="8.3333" style="stroke:#1B1B1A;stroke-width:1.0416666666666667;" width="135.4167" x="18.4896" y="164.1195"/><rect fill="#1B1B1A" height="8.3333" style="stroke:#1B1B1A;stroke-width:1.0416666666666667;" width="135.4167" x="18.4896" y="187.1745"/><rect codeLine="10" fill="none" height="48.055" id="DiagramBorder" rx="8.3333" ry="8.3333" style="stroke:#5E5E5E;stroke-width:1.0416666666666667;" width="135.4167" x="18.4896" y="164.1195"/><ellipse cx="33.0729" cy="179.8136" fill="#0066CF" rx="10.4167" ry="10.4167" style="stroke:#0086EF;stroke-width:1.0416666666666667;"/><path d="M34.9833,184.2387 Q34.5561,184.4584 34.0861,184.5683 Q33.6161,184.6781 33.0973,184.6781 Q31.2541,184.6781 30.2836,183.4635 Q29.3132,182.2489 29.3132,179.954 Q29.3132,177.653 30.2836,176.4384 Q31.2541,175.2238 33.0973,175.2238 Q33.6161,175.2238 34.0922,175.3337 Q34.5683,175.4435 34.9833,175.6632 L34.9833,177.6652 Q34.5194,177.238 34.083,177.0396 Q33.6466,176.8412 33.1828,176.8412 Q32.194,176.8412 31.6905,177.6255 Q31.1869,178.4098 31.1869,179.954 Q31.1869,181.4921 31.6905,182.2764 Q32.194,183.0607 33.1828,183.0607 Q33.6466,183.0607 34.083,182.8623 Q34.5194,182.664 34.9833,182.2367 Z " fill="#000000"/><text fill="#D8BC00" font-family="Open Sans,Avenir,Nunito,Arial,Helvetica,SansSerif" font-size="12.5" font-weight="bold" lengthAdjust="spacing" textLength="97.9167" x="49.7396" y="184.5378">DiagramBorder</text><line style="stroke:#5E5E5E;stroke-width:1.0416666666666667;" x1="19.5313" x2="152.8646" y1="195.5078" y2="195.5078"/><line style="stroke:#5E5E5E;stroke-width:1.0416666666666667;" x1="19.5313" x2="152.8646" y1="203.8411" y2="203.8411"/><rect codeLine="15" fill="#282828" height="48.055" id="DiagramRegion" rx="8.3333" ry="8.3333" style="stroke:#5E5E5E;stroke-width:1.0416666666666667;" width="137.5" x="190.3646" y="164.1195"/><rect fill="#1B1B1A" height="31.3883" rx="8.3333" ry="8.3333" style="stroke:#1B1B1A;stroke-width:1.0416666666666667;" width="137.5" x="190.3646" y="164.1195"/><rect fill="#1B1B1A" height="8.3333" style="stroke:#1B1B1A;stroke-width:1.0416666666666667;" width="137.5" x="190.3646" y="187.1745"/><rect codeLine="15" fill="none" height="48.055" id="DiagramRegion" rx="8.3333" ry="8.3333" style="stroke:#5E5E5E;stroke-width:1.0416666666666667;" width="137.5" x="190.3646" y="164.1195"/><ellipse cx="204.9479" cy="179.8136" fill="#0066CF" rx="10.4167" ry="10.4167" style="stroke:#0086EF;stroke-width:1.0416666666666667;"/><path d="M206.8583,184.2387 Q206.4311,184.4584 205.9611,184.5683 Q205.4911,184.6781 204.9723,184.6781 Q203.1291,184.6781 202.1586,183.4635 Q201.1882,182.2489 201.1882,179.954 Q201.1882,177.653 202.1586,176.4384 Q203.1291,175.2238 204.9723,175.2238 Q205.4911,175.2238 205.9672,175.3337 Q206.4433,175.4435 206.8583,175.6632 L206.8583,177.6652 Q206.3944,177.238 205.958,177.0396 Q205.5216,176.8412 205.0578,176.8412 Q204.069,176.8412 203.5655,177.6255 Q203.0619,178.4098 203.0619,179.954 Q203.0619,181.4921 203.5655,182.2764 Q204.069,183.0607 205.0578,183.0607 Q205.5216,183.0607 205.958,182.8623 Q206.3944,182.664 206.8583,182.2367 Z " fill="#000000"/><text fill="#D8BC00" font-family="Open Sans,Avenir,Nunito,Arial,Helvetica,SansSerif" font-size="12.5" font-weight="bold" lengthAdjust="spacing" textLength="100" x="221.6146" y="184.5378">DiagramRegion</text><line style="stroke:#5E5E5E;stroke-width:1.0416666666666667;" x1="191.4063" x2="326.8229" y1="195.5078" y2="195.5078"/><line style="stroke:#5E5E5E;stroke-width:1.0416666666666667;" x1="191.4063" x2="326.8229" y1="203.8411" y2="203.8411"/><rect codeLine="20" fill="#282828" height="48.055" id="DiagramRegions" rx="8.3333" ry="8.3333" style="stroke:#5E5E5E;stroke-width:1.0416666666666667;" width="144.7917" x="364.8438" y="164.1195"/><rect fill="#1B1B1A" height="31.3883" rx="8.3333" ry="8.3333" style="stroke:#1B1B1A;stroke-width:1.0416666666666667;" width="144.7917" x="364.8438" y="164.1195"/><rect fill="#1B1B1A" height="8.3333" style="stroke:#1B1B1A;stroke-width:1.0416666666666667;" width="144.7917" x="364.8438" y="187.1745"/><rect codeLine="20" fill="none" height="48.055" id="DiagramRegions" rx="8.3333" ry="8.3333" style="stroke:#5E5E5E;stroke-width:1.0416666666666667;" width="144.7917" x="364.8438" y="164.1195"/><ellipse cx="379.4271" cy="179.8136" fill="#0066CF" rx="10.4167" ry="10.4167" style="stroke:#0086EF;stroke-width:1.0416666666666667;"/><path d="M381.3375,184.2387 Q380.9102,184.4584 380.4403,184.5683 Q379.9703,184.6781 379.4515,184.6781 Q377.6082,184.6781 376.6378,183.4635 Q375.6673,182.2489 375.6673,179.954 Q375.6673,177.653 376.6378,176.4384 Q377.6082,175.2238 379.4515,175.2238 Q379.9703,175.2238 380.4464,175.3337 Q380.9224,175.4435 381.3375,175.6632 L381.3375,177.6652 Q380.8736,177.238 380.4372,177.0396 Q380.0008,176.8412 379.5369,176.8412 Q378.5482,176.8412 378.0446,177.6255 Q377.5411,178.4098 377.5411,179.954 Q377.5411,181.4921 378.0446,182.2764 Q378.5482,183.0607 379.5369,183.0607 Q380.0008,183.0607 380.4372,182.8623 Q380.8736,182.664 381.3375,182.2367 Z " fill="#000000"/><text fill="#D8BC00" font-family="Open Sans,Avenir,Nunito,Arial,Helvetica,SansSerif" font-size="12.5" font-weight="bold" lengthAdjust="spacing" textLength="107.2917" x="396.0938" y="184.5378">DiagramRegions</text><line style="stroke:#5E5E5E;stroke-width:1.0416666666666667;" x1="365.8854" x2="508.5938" y1="195.5078" y2="195.5078"/><line style="stroke:#5E5E5E;stroke-width:1.0416666666666667;" x1="365.8854" x2="508.5938" y1="203.8411" y2="203.8411"/><path codeLine="9" d="M204.4792,112.932 C177.8438,129.6195 146.5313,149.234 122.8125,164.0986 " fill="none" id="UmlDiagramIdentifier-backto-DiagramBorder" style="stroke:#545454;stroke-width:1.5625;"/><polygon fill="none" points="200.9167,106.557,222.4479,101.682,208.6563,118.9215,200.9167,106.557" style="stroke:#545454;stroke-width:1.5625;"/><path codeLine="14" d="M259.1146,122.6195 C259.1146,136.8382 259.1146,152.0361 259.1146,164.0986 " fill="none" id="UmlDiagramIdentifier-backto-DiagramRegion" style="stroke:#545454;stroke-width:1.5625;"/><polygon fill="none" points="251.8229,122.5153,259.1146,101.682,266.4063,122.5153,251.8229,122.5153" style="stroke:#545454;stroke-width:1.5625;"/><path codeLine="19" d="M315,112.6924 C342.5208,129.432 374.9688,149.1611 399.5208,164.0986 " fill="none" id="UmlDiagramIdentifier-backto-DiagramRegions" style="stroke:#545454;stroke-width:1.5625;"/><polygon fill="none" points="310.9063,118.734,296.8854,101.682,318.4792,106.2757,310.9063,118.734" style="stroke:#545454;stroke-width:1.5625;"/></g></svg>
