<?xml version="1.0" encoding="UTF-8" standalone="no"?><svg xmlns="http://www.w3.org/2000/svg" xmlns:xlink="http://www.w3.org/1999/xlink" contentScriptType="application/ecmascript" contentStyleType="text/css" height="254.1667px" preserveAspectRatio="none" style="width:582px;height:254px;background:#333333;" version="1.1" viewBox="0 0 582 254" width="582.2917px" zoomAndPan="magnify"><defs/><g><rect fill="#48494B" height="41.2028" rx="8.3333" ry="8.3333" style="stroke:#545454;stroke-width:1.0416666666666667;" width="569.7917" x="2.0833" y="2.0833"/><text fill="#C0C0C0" font-family="Open Sans,Avenir,Nunito,Arial,Helvetica,SansSerif" font-size="20.8333" lengthAdjust="spacing" textLength="546.875" x="13.5417" y="30.5583">com.telenav.mesakit.map.region.countries.states.cities</text><rect fill="#282828" height="48.055" id="City" rx="8.3333" ry="8.3333" style="stroke:#5E5E5E;stroke-width:1.0416666666666667;" width="63.5417" x="262.5" y="53.7028"/><rect fill="#1B1B1A" height="31.3883" rx="8.3333" ry="8.3333" style="stroke:#1B1B1A;stroke-width:1.0416666666666667;" width="63.5417" x="262.5" y="53.7028"/><rect fill="#1B1B1A" height="8.3333" style="stroke:#1B1B1A;stroke-width:1.0416666666666667;" width="63.5417" x="262.5" y="76.7578"/><rect fill="none" height="48.055" id="City" rx="8.3333" ry="8.3333" style="stroke:#5E5E5E;stroke-width:1.0416666666666667;" width="63.5417" x="262.5" y="53.7028"/><ellipse cx="277.0833" cy="69.397" fill="#0066CF" rx="10.4167" ry="10.4167" style="stroke:#0086EF;stroke-width:1.0416666666666667;"/><path d="M278.9937,73.822 Q278.5665,74.0417 278.0965,74.1516 Q277.6265,74.2615 277.1077,74.2615 Q275.2645,74.2615 274.294,73.0469 Q273.3236,71.8323 273.3236,69.5374 Q273.3236,67.2363 274.294,66.0217 Q275.2645,64.8071 277.1077,64.8071 Q277.6265,64.8071 278.1026,64.917 Q278.5787,65.0269 278.9937,65.2466 L278.9937,67.2485 Q278.5299,66.8213 278.0935,66.6229 Q277.6571,66.4246 277.1932,66.4246 Q276.2044,66.4246 275.7009,67.2089 Q275.1973,67.9932 275.1973,69.5374 Q275.1973,71.0754 275.7009,71.8597 Q276.2044,72.644 277.1932,72.644 Q277.6571,72.644 278.0935,72.4457 Q278.5299,72.2473 278.9937,71.8201 Z " fill="#000000"/><text fill="#D8BC00" font-family="Open Sans,Avenir,Nunito,Arial,Helvetica,SansSerif" font-size="12.5" font-weight="bold" lengthAdjust="spacing" textLength="26.0417" x="293.75" y="74.1211">City</text><line style="stroke:#5E5E5E;stroke-width:1.0416666666666667;" x1="263.5417" x2="325" y1="85.0911" y2="85.0911"/><line style="stroke:#5E5E5E;stroke-width:1.0416666666666667;" x1="263.5417" x2="325" y1="93.4245" y2="93.4245"/><rect codeLine="8" fill="#282828" height="83.3781" id="Seattle" rx="8.3333" ry="8.3333" style="stroke:#5E5E5E;stroke-width:1.0416666666666667;" width="95.8333" x="246.3542" y="164.1195"/><rect fill="#1B1B1A" height="31.3883" rx="8.3333" ry="8.3333" style="stroke:#1B1B1A;stroke-width:1.0416666666666667;" width="95.8333" x="246.3542" y="164.1195"/><rect fill="#1B1B1A" height="8.3333" style="stroke:#1B1B1A;stroke-width:1.0416666666666667;" width="95.8333" x="246.3542" y="187.1745"/><rect codeLine="8" fill="none" height="83.3781" id="Seattle" rx="8.3333" ry="8.3333" style="stroke:#5E5E5E;stroke-width:1.0416666666666667;" width="95.8333" x="246.3542" y="164.1195"/><ellipse cx="267.5" cy="179.8136" fill="#0066CF" rx="10.4167" ry="10.4167" style="stroke:#0086EF;stroke-width:1.0416666666666667;"/><path d="M269.4104,184.2387 Q268.9832,184.4584 268.5132,184.5683 Q268.0432,184.6781 267.5244,184.6781 Q265.6812,184.6781 264.7107,183.4635 Q263.7402,182.2489 263.7402,179.954 Q263.7402,177.653 264.7107,176.4384 Q265.6812,175.2238 267.5244,175.2238 Q268.0432,175.2238 268.5193,175.3337 Q268.9954,175.4435 269.4104,175.6632 L269.4104,177.6652 Q268.9465,177.238 268.5101,177.0396 Q268.0737,176.8412 267.6099,176.8412 Q266.6211,176.8412 266.1176,177.6255 Q265.614,178.4098 265.614,179.954 Q265.614,181.4921 266.1176,182.2764 Q266.6211,183.0607 267.6099,183.0607 Q268.0737,183.0607 268.5101,182.8623 Q268.9465,182.664 269.4104,182.2367 Z " fill="#000000"/><text fill="#D8BC00" font-family="Open Sans,Avenir,Nunito,Arial,Helvetica,SansSerif" font-size="12.5" font-weight="bold" lengthAdjust="spacing" textLength="43.75" x="285.625" y="184.5378">Seattle</text><line style="stroke:#5E5E5E;stroke-width:1.5625;" x1="247.3958" x2="341.1458" y1="195.5078" y2="195.5078"/><ellipse cx="257.8125" cy="230.8777" fill="#84BE84" rx="3.125" ry="3.125" style="stroke:#038048;stroke-width:1.0416666666666667;"/><text fill="#D8BC00" font-family="Open Sans,Avenir,Nunito,Arial,Helvetica,SansSerif" font-size="11.4583" lengthAdjust="spacing" textLength="44.7917" x="269.2708" y="237.7889">Seattle()</text><line style="stroke:#5E5E5E;stroke-width:1.0416666666666667;" x1="247.3958" x2="250.5208" y1="213.7136" y2="213.7136"/><text fill="#D8BC00" font-family="Open Sans,Avenir,Nunito,Arial,Helvetica,SansSerif" font-size="11.4583" lengthAdjust="spacing" textLength="81.25" x="253.6458" y="217.5232">(constructors)</text><line style="stroke:#5E5E5E;stroke-width:1.0416666666666667;" x1="338.0208" x2="341.1458" y1="213.7136" y2="213.7136"/><path codeLine="7" d="M294.2708,122.682 C294.2708,136.0778 294.2708,150.7445 294.2708,163.9215 " fill="none" id="City-backto-Seattle" style="stroke:#545454;stroke-width:1.5625;"/><polygon fill="none" points="286.9792,122.6507,294.2708,101.8174,301.5625,122.6507,286.9792,122.6507" style="stroke:#545454;stroke-width:1.5625;"/></g></svg>
