<?xml version="1.0" encoding="UTF-8" standalone="no"?><svg xmlns="http://www.w3.org/2000/svg" xmlns:xlink="http://www.w3.org/1999/xlink" contentScriptType="application/ecmascript" contentStyleType="text/css" height="1259.375px" preserveAspectRatio="none" style="width:1156px;height:1259px;background:#333333;" version="1.1" viewBox="0 0 1156 1259" width="1156.25px" zoomAndPan="magnify"><defs/><g><rect fill="#48494B" height="41.2028" rx="8.3333" ry="8.3333" style="stroke:#545454;stroke-width:1.0416666666666667;" width="220.8333" x="460.6771" y="2.0833"/><text fill="#C0C0C0" font-family="Open Sans,Avenir,Nunito,Arial,Helvetica,SansSerif" font-size="20.8333" lengthAdjust="spacing" textLength="197.9167" x="472.1354" y="30.5583">Geographic borders</text><rect codeLine="7" fill="#282828" height="48.055" id="BaseComponent" rx="8.3333" ry="8.3333" style="stroke:#5E5E5E;stroke-width:1.0416666666666667;" width="143.75" x="207.8125" y="53.7028"/><rect fill="#1B1B1A" height="31.3883" rx="8.3333" ry="8.3333" style="stroke:#1B1B1A;stroke-width:1.0416666666666667;" width="143.75" x="207.8125" y="53.7028"/><rect fill="#1B1B1A" height="8.3333" style="stroke:#1B1B1A;stroke-width:1.0416666666666667;" width="143.75" x="207.8125" y="76.7578"/><rect codeLine="7" fill="none" height="48.055" id="BaseComponent" rx="8.3333" ry="8.3333" style="stroke:#5E5E5E;stroke-width:1.0416666666666667;" width="143.75" x="207.8125" y="53.7028"/><ellipse cx="222.3958" cy="69.397" fill="#C8AC00" rx="10.4167" ry="10.4167" style="stroke:#D8BC00;stroke-width:1.0416666666666667;"/><path d="M221.9889,66.099 L221.1405,69.8283 L222.8434,69.8283 Z M220.8903,64.4511 L223.0937,64.4511 L225.5534,73.5636 L223.7528,73.5636 L223.1913,71.3114 L220.7804,71.3114 L220.2311,73.5636 L218.4306,73.5636 Z " fill="#000000"/><text fill="#D8BC00" font-family="Open Sans,Avenir,Nunito,Arial,Helvetica,SansSerif" font-size="12.5" font-style="italic" font-weight="bold" lengthAdjust="spacing" textLength="106.25" x="239.0625" y="74.1211">BaseComponent</text><line style="stroke:#5E5E5E;stroke-width:1.0416666666666667;" x1="208.8542" x2="350.5208" y1="85.0911" y2="85.0911"/><line style="stroke:#5E5E5E;stroke-width:1.0416666666666667;" x1="208.8542" x2="350.5208" y1="93.4245" y2="93.4245"/><rect codeLine="9" fill="#282828" height="48.055" id="Bounded" rx="8.3333" ry="8.3333" style="stroke:#5E5E5E;stroke-width:1.0416666666666667;" width="94.7917" x="704.1667" y="628.7028"/><rect fill="#1B1B1A" height="31.3883" rx="8.3333" ry="8.3333" style="stroke:#1B1B1A;stroke-width:1.0416666666666667;" width="94.7917" x="704.1667" y="628.7028"/><rect fill="#1B1B1A" height="8.3333" style="stroke:#1B1B1A;stroke-width:1.0416666666666667;" width="94.7917" x="704.1667" y="651.7578"/><rect codeLine="9" fill="none" height="48.055" id="Bounded" rx="8.3333" ry="8.3333" style="stroke:#5E5E5E;stroke-width:1.0416666666666667;" width="94.7917" x="704.1667" y="628.7028"/><ellipse cx="718.75" cy="644.397" fill="#008400" rx="10.4167" ry="10.4167" style="stroke:#239C23;stroke-width:1.0416666666666667;"/><path d="M716.154,641.5588 L716.154,639.9719 L721.58,639.9719 L721.58,641.5588 L719.7673,641.5588 L719.7673,647.4976 L721.58,647.4976 L721.58,649.0845 L716.154,649.0845 L716.154,647.4976 L717.9667,647.4976 L717.9667,641.5588 Z " fill="#000000"/><text fill="#D8BC00" font-family="Open Sans,Avenir,Nunito,Arial,Helvetica,SansSerif" font-size="12.5" font-style="italic" font-weight="bold" lengthAdjust="spacing" textLength="57.2917" x="735.4167" y="649.1211">Bounded</text><line style="stroke:#5E5E5E;stroke-width:1.0416666666666667;" x1="705.2083" x2="797.9167" y1="660.0911" y2="660.0911"/><line style="stroke:#5E5E5E;stroke-width:1.0416666666666667;" x1="705.2083" x2="797.9167" y1="668.4245" y2="668.4245"/><rect codeLine="10" fill="#282828" height="48.055" id="Intersectable" rx="8.3333" ry="8.3333" style="stroke:#5E5E5E;stroke-width:1.0416666666666667;" width="120.8333" x="835.9375" y="628.7028"/><rect fill="#1B1B1A" height="31.3883" rx="8.3333" ry="8.3333" style="stroke:#1B1B1A;stroke-width:1.0416666666666667;" width="120.8333" x="835.9375" y="628.7028"/><rect fill="#1B1B1A" height="8.3333" style="stroke:#1B1B1A;stroke-width:1.0416666666666667;" width="120.8333" x="835.9375" y="651.7578"/><rect codeLine="10" fill="none" height="48.055" id="Intersectable" rx="8.3333" ry="8.3333" style="stroke:#5E5E5E;stroke-width:1.0416666666666667;" width="120.8333" x="835.9375" y="628.7028"/><ellipse cx="850.5208" cy="644.397" fill="#008400" rx="10.4167" ry="10.4167" style="stroke:#239C23;stroke-width:1.0416666666666667;"/><path d="M847.9248,641.5588 L847.9248,639.9719 L853.3508,639.9719 L853.3508,641.5588 L851.5381,641.5588 L851.5381,647.4976 L853.3508,647.4976 L853.3508,649.0845 L847.9248,649.0845 L847.9248,647.4976 L849.7375,647.4976 L849.7375,641.5588 Z " fill="#000000"/><text fill="#D8BC00" font-family="Open Sans,Avenir,Nunito,Arial,Helvetica,SansSerif" font-size="12.5" font-style="italic" font-weight="bold" lengthAdjust="spacing" textLength="83.3333" x="867.1875" y="649.1211">Intersectable</text><line style="stroke:#5E5E5E;stroke-width:1.0416666666666667;" x1="836.9792" x2="955.7292" y1="660.0911" y2="660.0911"/><line style="stroke:#5E5E5E;stroke-width:1.0416666666666667;" x1="836.9792" x2="955.7292" y1="668.4245" y2="668.4245"/><rect codeLine="16" fill="#282828" height="277.7486" id="Border" rx="8.3333" ry="8.3333" style="stroke:#5E5E5E;stroke-width:1.0416666666666667;" width="189.5833" x="656.7708" y="800.5778"/><rect fill="#1B1B1A" height="31.3883" rx="8.3333" ry="8.3333" style="stroke:#1B1B1A;stroke-width:1.0416666666666667;" width="189.5833" x="656.7708" y="800.5778"/><rect fill="#1B1B1A" height="8.3333" style="stroke:#1B1B1A;stroke-width:1.0416666666666667;" width="189.5833" x="656.7708" y="823.6328"/><rect codeLine="16" fill="none" height="277.7486" id="Border" rx="8.3333" ry="8.3333" style="stroke:#5E5E5E;stroke-width:1.0416666666666667;" width="189.5833" x="656.7708" y="800.5778"/><ellipse cx="713.5417" cy="816.272" fill="#0066CF" rx="10.4167" ry="10.4167" style="stroke:#0086EF;stroke-width:1.0416666666666667;"/><path d="M715.4521,820.697 Q715.0248,820.9167 714.5549,821.0266 Q714.0849,821.1365 713.5661,821.1365 Q711.7228,821.1365 710.7524,819.9219 Q709.7819,818.7073 709.7819,816.4124 Q709.7819,814.1113 710.7524,812.8967 Q711.7228,811.6821 713.5661,811.6821 Q714.0849,811.6821 714.561,811.792 Q715.037,811.9019 715.4521,812.1216 L715.4521,814.1235 Q714.9882,813.6963 714.5518,813.4979 Q714.1154,813.2996 713.6515,813.2996 Q712.6628,813.2996 712.1592,814.0839 Q711.6557,814.8682 711.6557,816.4124 Q711.6557,817.9504 712.1592,818.7347 Q712.6628,819.519 713.6515,819.519 Q714.1154,819.519 714.5518,819.3207 Q714.9882,819.1223 715.4521,818.6951 Z " fill="#000000"/><text fill="#D8BC00" font-family="Open Sans,Avenir,Nunito,Arial,Helvetica,SansSerif" font-size="12.5" font-weight="bold" lengthAdjust="spacing" textLength="42.7083" x="736.4583" y="820.9961">Border</text><rect fill="#333333" height="23.055" style="stroke:#A0A0A0;stroke-width:1.0416666666666667;stroke-dasharray:2.0,2.0;" width="16.6667" x="832.8125" y="797.4528"/><text fill="#A0A0A0" font-family="Open Sans,Avenir,Nunito,Arial,Helvetica,SansSerif" font-size="12.5" font-weight="bold" lengthAdjust="spacing" textLength="8.3333" x="836.9792" y="813.7044">T</text><line style="stroke:#5E5E5E;stroke-width:1.5625;" x1="657.8125" x2="845.3125" y1="831.9661" y2="831.9661"/><ellipse cx="668.2292" cy="867.336" fill="#84BE84" rx="3.125" ry="3.125" style="stroke:#038048;stroke-width:1.0416666666666667;"/><text fill="#D8BC00" font-family="Open Sans,Avenir,Nunito,Arial,Helvetica,SansSerif" font-size="11.4583" lengthAdjust="spacing" textLength="104.1667" x="679.6875" y="874.2472">Border(T, Polygon)</text><line style="stroke:#5E5E5E;stroke-width:1.0416666666666667;" x1="657.8125" x2="707.8125" y1="850.1719" y2="850.1719"/><text fill="#D8BC00" font-family="Open Sans,Avenir,Nunito,Arial,Helvetica,SansSerif" font-size="11.4583" lengthAdjust="spacing" textLength="81.25" x="710.9375" y="853.9815">(constructors)</text><line style="stroke:#5E5E5E;stroke-width:1.0416666666666667;" x1="795.3125" x2="845.3125" y1="850.1719" y2="850.1719"/><line style="stroke:#5E5E5E;stroke-width:1.0416666666666667;" x1="657.8125" x2="845.3125" y1="883.9559" y2="883.9559"/><ellipse cx="668.2292" cy="895.4142" fill="#84BE84" rx="3.125" ry="3.125" style="stroke:#038048;stroke-width:1.0416666666666667;"/><text fill="#D8BC00" font-family="Open Sans,Avenir,Nunito,Arial,Helvetica,SansSerif" font-size="11.4583" lengthAdjust="spacing" textLength="133.3333" x="679.6875" y="902.3254">RegionIdentity identity()</text><ellipse cx="668.2292" cy="915.1591" fill="#84BE84" rx="3.125" ry="3.125" style="stroke:#038048;stroke-width:1.0416666666666667;"/><text fill="#D8BC00" font-family="Open Sans,Avenir,Nunito,Arial,Helvetica,SansSerif" font-size="11.4583" lengthAdjust="spacing" textLength="157.2917" x="679.6875" y="922.0703">void identity(RegionIdentity)</text><ellipse cx="668.2292" cy="934.904" fill="#84BE84" rx="3.125" ry="3.125" style="stroke:#038048;stroke-width:1.0416666666666667;"/><text fill="#D8BC00" font-family="Open Sans,Avenir,Nunito,Arial,Helvetica,SansSerif" font-size="11.4583" lengthAdjust="spacing" textLength="102.0833" x="679.6875" y="941.8152">Polygon polygon()</text><ellipse cx="668.2292" cy="954.6488" fill="#84BE84" rx="3.125" ry="3.125" style="stroke:#038048;stroke-width:1.0416666666666667;"/><text fill="#D8BC00" font-family="Open Sans,Avenir,Nunito,Arial,Helvetica,SansSerif" font-size="11.4583" lengthAdjust="spacing" textLength="55.2083" x="679.6875" y="961.5601">T region()</text><ellipse cx="668.2292" cy="974.3937" fill="#84BE84" rx="3.125" ry="3.125" style="stroke:#038048;stroke-width:1.0416666666666667;"/><text fill="#D8BC00" font-family="Open Sans,Avenir,Nunito,Arial,Helvetica,SansSerif" font-size="11.4583" lengthAdjust="spacing" textLength="118.75" x="679.6875" y="981.3049">void region(T region)</text><ellipse cx="668.2292" cy="1018.0501" fill="#84BE84" rx="3.125" ry="3.125" style="stroke:#038048;stroke-width:1.0416666666666667;"/><text fill="#D8BC00" font-family="Open Sans,Avenir,Nunito,Arial,Helvetica,SansSerif" font-size="11.4583" lengthAdjust="spacing" textLength="92.7083" x="679.6875" y="1024.9613">boolean isValid()</text><line style="stroke:#5E5E5E;stroke-width:1.0416666666666667;" x1="657.8125" x2="725" y1="1000.886" y2="1000.886"/><text fill="#D8BC00" font-family="Open Sans,Avenir,Nunito,Arial,Helvetica,SansSerif" font-size="11.4583" lengthAdjust="spacing" textLength="46.875" x="728.125" y="1004.6956">(checks)</text><line style="stroke:#5E5E5E;stroke-width:1.0416666666666667;" x1="778.125" x2="845.3125" y1="1000.886" y2="1000.886"/><ellipse cx="668.2292" cy="1061.7065" fill="#84BE84" rx="3.125" ry="3.125" style="stroke:#038048;stroke-width:1.0416666666666667;"/><text fill="#D8BC00" font-family="Open Sans,Avenir,Nunito,Arial,Helvetica,SansSerif" font-size="11.4583" lengthAdjust="spacing" textLength="152.0833" x="679.6875" y="1068.6178">boolean contains(Location)</text><line style="stroke:#5E5E5E;stroke-width:1.0416666666666667;" x1="657.8125" x2="717.1875" y1="1044.5424" y2="1044.5424"/><text fill="#D8BC00" font-family="Open Sans,Avenir,Nunito,Arial,Helvetica,SansSerif" font-size="11.4583" lengthAdjust="spacing" textLength="62.5" x="720.3125" y="1048.3521">(collection)</text><line style="stroke:#5E5E5E;stroke-width:1.0416666666666667;" x1="785.9375" x2="845.3125" y1="1044.5424" y2="1044.5424"/><rect fill="#282828" height="48.055" id="Polygon" rx="8.3333" ry="8.3333" style="stroke:#5E5E5E;stroke-width:1.0416666666666667;" width="89.5833" x="936.9792" y="1204.7445"/><rect fill="#1B1B1A" height="31.3883" rx="8.3333" ry="8.3333" style="stroke:#1B1B1A;stroke-width:1.0416666666666667;" width="89.5833" x="936.9792" y="1204.7445"/><rect fill="#1B1B1A" height="8.3333" style="stroke:#1B1B1A;stroke-width:1.0416666666666667;" width="89.5833" x="936.9792" y="1227.7995"/><rect fill="none" height="48.055" id="Polygon" rx="8.3333" ry="8.3333" style="stroke:#5E5E5E;stroke-width:1.0416666666666667;" width="89.5833" x="936.9792" y="1204.7445"/><ellipse cx="951.5625" cy="1220.4386" fill="#0066CF" rx="10.4167" ry="10.4167" style="stroke:#0086EF;stroke-width:1.0416666666666667;"/><path d="M953.4729,1224.8637 Q953.0457,1225.0834 952.5757,1225.1933 Q952.1057,1225.3031 951.5869,1225.3031 Q949.7437,1225.3031 948.7732,1224.0885 Q947.8027,1222.8739 947.8027,1220.579 Q947.8027,1218.278 948.7732,1217.0634 Q949.7437,1215.8488 951.5869,1215.8488 Q952.1057,1215.8488 952.5818,1215.9587 Q953.0579,1216.0685 953.4729,1216.2882 L953.4729,1218.2902 Q953.009,1217.863 952.5726,1217.6646 Q952.1362,1217.4662 951.6724,1217.4662 Q950.6836,1217.4662 950.1801,1218.2505 Q949.6765,1219.0348 949.6765,1220.579 Q949.6765,1222.1171 950.1801,1222.9014 Q950.6836,1223.6857 951.6724,1223.6857 Q952.1362,1223.6857 952.5726,1223.4873 Q953.009,1223.289 953.4729,1222.8617 Z " fill="#000000"/><text fill="#D8BC00" font-family="Open Sans,Avenir,Nunito,Arial,Helvetica,SansSerif" font-size="12.5" font-weight="bold" lengthAdjust="spacing" textLength="52.0833" x="968.2292" y="1225.1628">Polygon</text><line style="stroke:#5E5E5E;stroke-width:1.0416666666666667;" x1="938.0208" x2="1025.5208" y1="1236.1328" y2="1236.1328"/><line style="stroke:#5E5E5E;stroke-width:1.0416666666666667;" x1="938.0208" x2="1025.5208" y1="1244.4661" y2="1244.4661"/><rect fill="#282828" height="48.055" id="Rectangle" rx="8.3333" ry="8.3333" style="stroke:#5E5E5E;stroke-width:1.0416666666666667;" width="100" x="692.1875" y="1204.7445"/><rect fill="#1B1B1A" height="31.3883" rx="8.3333" ry="8.3333" style="stroke:#1B1B1A;stroke-width:1.0416666666666667;" width="100" x="692.1875" y="1204.7445"/><rect fill="#1B1B1A" height="8.3333" style="stroke:#1B1B1A;stroke-width:1.0416666666666667;" width="100" x="692.1875" y="1227.7995"/><rect fill="none" height="48.055" id="Rectangle" rx="8.3333" ry="8.3333" style="stroke:#5E5E5E;stroke-width:1.0416666666666667;" width="100" x="692.1875" y="1204.7445"/><ellipse cx="706.7708" cy="1220.4386" fill="#0066CF" rx="10.4167" ry="10.4167" style="stroke:#0086EF;stroke-width:1.0416666666666667;"/><path d="M708.6812,1224.8637 Q708.254,1225.0834 707.784,1225.1933 Q707.314,1225.3031 706.7952,1225.3031 Q704.952,1225.3031 703.9815,1224.0885 Q703.0111,1222.8739 703.0111,1220.579 Q703.0111,1218.278 703.9815,1217.0634 Q704.952,1215.8488 706.7952,1215.8488 Q707.314,1215.8488 707.7901,1215.9587 Q708.2662,1216.0685 708.6812,1216.2882 L708.6812,1218.2902 Q708.2174,1217.863 707.781,1217.6646 Q707.3446,1217.4662 706.8807,1217.4662 Q705.8919,1217.4662 705.3884,1218.2505 Q704.8848,1219.0348 704.8848,1220.579 Q704.8848,1222.1171 705.3884,1222.9014 Q705.8919,1223.6857 706.8807,1223.6857 Q707.3446,1223.6857 707.781,1223.4873 Q708.2174,1223.289 708.6812,1222.8617 Z " fill="#000000"/><text fill="#D8BC00" font-family="Open Sans,Avenir,Nunito,Arial,Helvetica,SansSerif" font-size="12.5" font-weight="bold" lengthAdjust="spacing" textLength="62.5" x="723.4375" y="1225.1628">Rectangle</text><line style="stroke:#5E5E5E;stroke-width:1.0416666666666667;" x1="693.2292" x2="791.1458" y1="1236.1328" y2="1236.1328"/><line style="stroke:#5E5E5E;stroke-width:1.0416666666666667;" x1="693.2292" x2="791.1458" y1="1244.4661" y2="1244.4661"/><rect codeLine="35" fill="#282828" height="360.8948" id="BorderCache" rx="8.3333" ry="8.3333" style="stroke:#5E5E5E;stroke-width:1.0416666666666667;" width="540.625" x="9.375" y="165.1611"/><rect fill="#1B1B1A" height="31.3883" rx="8.3333" ry="8.3333" style="stroke:#1B1B1A;stroke-width:1.0416666666666667;" width="540.625" x="9.375" y="165.1611"/><rect fill="#1B1B1A" height="8.3333" style="stroke:#1B1B1A;stroke-width:1.0416666666666667;" width="540.625" x="9.375" y="188.2161"/><rect codeLine="35" fill="none" height="360.8948" id="BorderCache" rx="8.3333" ry="8.3333" style="stroke:#5E5E5E;stroke-width:1.0416666666666667;" width="540.625" x="9.375" y="165.1611"/><ellipse cx="222.3958" cy="180.8553" fill="#C8AC00" rx="10.4167" ry="10.4167" style="stroke:#D8BC00;stroke-width:1.0416666666666667;"/><path d="M221.9889,177.5574 L221.1405,181.2866 L222.8434,181.2866 Z M220.8903,175.9094 L223.0937,175.9094 L225.5534,185.022 L223.7528,185.022 L223.1913,182.7698 L220.7804,182.7698 L220.2311,185.022 L218.4306,185.022 Z " fill="#000000"/><text fill="#D8BC00" font-family="Open Sans,Avenir,Nunito,Arial,Helvetica,SansSerif" font-size="12.5" font-style="italic" font-weight="bold" lengthAdjust="spacing" textLength="81.25" x="245.3125" y="185.5794">BorderCache</text><rect fill="#333333" height="23.055" style="stroke:#A0A0A0;stroke-width:1.0416666666666667;stroke-dasharray:2.0,2.0;" width="16.6667" x="536.4583" y="162.0361"/><text fill="#A0A0A0" font-family="Open Sans,Avenir,Nunito,Arial,Helvetica,SansSerif" font-size="12.5" font-weight="bold" lengthAdjust="spacing" textLength="8.3333" x="540.625" y="178.2878">T</text><line style="stroke:#5E5E5E;stroke-width:1.5625;" x1="10.4167" x2="548.9583" y1="196.5495" y2="196.5495"/><polygon fill="#FFFF44" points="20.8333,226.711,25,230.8777,20.8333,235.0444,16.6667,230.8777" style="stroke:#B38D22;stroke-width:1.0416666666666667;"/><text fill="#D8BC00" font-family="Open Sans,Avenir,Nunito,Arial,Helvetica,SansSerif" font-size="11.4583" lengthAdjust="spacing" textLength="151.0417" x="32.2917" y="238.8306">BorderCache(Settings&lt;T&gt;)</text><line style="stroke:#5E5E5E;stroke-width:1.0416666666666667;" x1="10.4167" x2="235.9375" y1="214.7552" y2="214.7552"/><text fill="#D8BC00" font-family="Open Sans,Avenir,Nunito,Arial,Helvetica,SansSerif" font-size="11.4583" lengthAdjust="spacing" textLength="81.25" x="239.0625" y="218.5649">(constructors)</text><line style="stroke:#5E5E5E;stroke-width:1.0416666666666667;" x1="323.4375" x2="548.9583" y1="214.7552" y2="214.7552"/><line style="stroke:#5E5E5E;stroke-width:1.0416666666666667;" x1="10.4167" x2="548.9583" y1="248.5392" y2="248.5392"/><ellipse cx="20.8333" cy="259.9976" fill="#84BE84" rx="3.125" ry="3.125" style="stroke:#038048;stroke-width:1.0416666666666667;"/><text fill="#D8BC00" font-family="Open Sans,Avenir,Nunito,Arial,Helvetica,SansSerif" font-size="11.4583" lengthAdjust="spacing" textLength="220.8333" x="32.2917" y="266.9088">Collection&lt;Polygon&gt; borders(T object)</text><ellipse cx="20.8333" cy="279.7424" fill="#84BE84" rx="3.125" ry="3.125" style="stroke:#038048;stroke-width:1.0416666666666667;"/><text fill="#D8BC00" font-family="Open Sans,Avenir,Nunito,Arial,Helvetica,SansSerif" font-size="11.4583" lengthAdjust="spacing" textLength="101.0417" x="32.2917" y="286.6536">T object(Location)</text><polygon fill="#FFFF44" points="20.8333,294.279,25,298.4456,20.8333,302.6123,16.6667,298.4456" style="stroke:#B38D22;stroke-width:1.0416666666666667;"/><text fill="#D8BC00" font-family="Open Sans,Avenir,Nunito,Arial,Helvetica,SansSerif" font-size="11.4583" lengthAdjust="spacing" textLength="508.3333" x="32.2917" y="306.3985">void assignMultiPolygonIdentity(PbfTagMap relationTags, Collection&lt;Border&lt;T&gt;&gt; objects)</text><polygon fill="#FFFF44" points="20.8333,314.0238,25,318.1905,20.8333,322.3572,16.6667,318.1905" style="stroke:#B38D22;stroke-width:1.0416666666666667;"/><text fill="#D8BC00" font-family="Open Sans,Avenir,Nunito,Arial,Helvetica,SansSerif" font-size="11.4583" lengthAdjust="spacing" textLength="237.5" x="32.2917" y="326.1434">RegionIdentity identityForRegion(T region)</text><polygon fill="#FFFF44" points="20.8333,333.7687,25,337.9354,20.8333,342.1021,16.6667,337.9354" style="stroke:#B38D22;stroke-width:1.0416666666666667;"/><text fill="#D8BC00" font-family="Open Sans,Avenir,Nunito,Arial,Helvetica,SansSerif" font-size="11.4583" lengthAdjust="spacing" textLength="195.8333" x="32.2917" y="345.8883">T regionForIdentity(RegionIdentity)</text><polygon fill="#FFFF44" points="20.8333,353.5136,25,357.6803,20.8333,361.8469,16.6667,357.6803" style="stroke:#B38D22;stroke-width:1.0416666666666667;"/><text fill="#D8BC00" font-family="Open Sans,Avenir,Nunito,Arial,Helvetica,SansSerif" font-size="11.4583" lengthAdjust="spacing" textLength="127.0833" x="32.2917" y="365.6331">Settings&lt;T&gt; settings()</text><polygon fill="#FFFF44" points="20.8333,397.17,25,401.3367,20.8333,405.5033,16.6667,401.3367" style="stroke:#B38D22;stroke-width:1.0416666666666667;"/><text fill="#D8BC00" font-family="Open Sans,Avenir,Nunito,Arial,Helvetica,SansSerif" font-size="11.4583" lengthAdjust="spacing" textLength="173.9583" x="32.2917" y="409.2896">BorderSpatialIndex&lt;T&gt; index()</text><line style="stroke:#5E5E5E;stroke-width:1.0416666666666667;" x1="10.4167" x2="245.3125" y1="385.2142" y2="385.2142"/><text fill="#D8BC00" font-family="Open Sans,Avenir,Nunito,Arial,Helvetica,SansSerif" font-size="11.4583" lengthAdjust="spacing" textLength="62.5" x="248.4375" y="389.0238">(collection)</text><line style="stroke:#5E5E5E;stroke-width:1.0416666666666667;" x1="314.0625" x2="548.9583" y1="385.2142" y2="385.2142"/><ellipse cx="20.8333" cy="446.0347" fill="#84BE84" rx="3.125" ry="3.125" style="stroke:#038048;stroke-width:1.0416666666666667;"/><text fill="#D8BC00" font-family="Open Sans,Avenir,Nunito,Arial,Helvetica,SansSerif" font-size="11.4583" lengthAdjust="spacing" textLength="75" x="32.2917" y="452.946">String name()</text><line style="stroke:#5E5E5E;stroke-width:1.0416666666666667;" x1="10.4167" x2="251.5625" y1="428.8706" y2="428.8706"/><text fill="#D8BC00" font-family="Open Sans,Avenir,Nunito,Arial,Helvetica,SansSerif" font-size="11.4583" lengthAdjust="spacing" textLength="50" x="254.6875" y="432.6803">(naming)</text><line style="stroke:#5E5E5E;stroke-width:1.0416666666666667;" x1="307.8125" x2="548.9583" y1="428.8706" y2="428.8706"/><ellipse cx="20.8333" cy="489.6912" fill="#84BE84" rx="3.125" ry="3.125" style="stroke:#038048;stroke-width:1.0416666666666667;"/><text fill="#D8BC00" font-family="Open Sans,Avenir,Nunito,Arial,Helvetica,SansSerif" font-size="11.4583" lengthAdjust="spacing" textLength="123.9583" x="32.2917" y="496.6024">boolean loadBorders()</text><ellipse cx="20.8333" cy="509.436" fill="#84BE84" rx="3.125" ry="3.125" style="stroke:#038048;stroke-width:1.0416666666666667;"/><text fill="#D8BC00" font-family="Open Sans,Avenir,Nunito,Arial,Helvetica,SansSerif" font-size="11.4583" lengthAdjust="spacing" textLength="184.375" x="32.2917" y="516.3472">BorderCache&lt;T&gt; loadIdentities()</text><line style="stroke:#5E5E5E;stroke-width:1.0416666666666667;" x1="10.4167" x2="259.8958" y1="472.5271" y2="472.5271"/><text fill="#D8BC00" font-family="Open Sans,Avenir,Nunito,Arial,Helvetica,SansSerif" font-size="11.4583" lengthAdjust="spacing" textLength="33.3333" x="263.0208" y="476.3367">(read)</text><line style="stroke:#5E5E5E;stroke-width:1.0416666666666667;" x1="299.4792" x2="548.9583" y1="472.5271" y2="472.5271"/><rect fill="#282828" height="48.055" id="Region" rx="8.3333" ry="8.3333" style="stroke:#5E5E5E;stroke-width:1.0416666666666667;" width="82.2917" x="238.5417" y="628.7028"/><rect fill="#1B1B1A" height="31.3883" rx="8.3333" ry="8.3333" style="stroke:#1B1B1A;stroke-width:1.0416666666666667;" width="82.2917" x="238.5417" y="628.7028"/><rect fill="#1B1B1A" height="8.3333" style="stroke:#1B1B1A;stroke-width:1.0416666666666667;" width="82.2917" x="238.5417" y="651.7578"/><rect fill="none" height="48.055" id="Region" rx="8.3333" ry="8.3333" style="stroke:#5E5E5E;stroke-width:1.0416666666666667;" width="82.2917" x="238.5417" y="628.7028"/><ellipse cx="253.125" cy="644.397" fill="#0066CF" rx="10.4167" ry="10.4167" style="stroke:#0086EF;stroke-width:1.0416666666666667;"/><path d="M255.0354,648.822 Q254.6082,649.0417 254.1382,649.1516 Q253.6682,649.2615 253.1494,649.2615 Q251.3062,649.2615 250.3357,648.0469 Q249.3652,646.8323 249.3652,644.5374 Q249.3652,642.2363 250.3357,641.0217 Q251.3062,639.8071 253.1494,639.8071 Q253.6682,639.8071 254.1443,639.917 Q254.6204,640.0269 255.0354,640.2466 L255.0354,642.2485 Q254.5715,641.8213 254.1351,641.6229 Q253.6987,641.4246 253.2349,641.4246 Q252.2461,641.4246 251.7426,642.2089 Q251.239,642.9932 251.239,644.5374 Q251.239,646.0754 251.7426,646.8597 Q252.2461,647.644 253.2349,647.644 Q253.6987,647.644 254.1351,647.4457 Q254.5715,647.2473 255.0354,646.8201 Z " fill="#000000"/><text fill="#D8BC00" font-family="Open Sans,Avenir,Nunito,Arial,Helvetica,SansSerif" font-size="12.5" font-weight="bold" lengthAdjust="spacing" textLength="44.7917" x="269.7917" y="649.1211">Region</text><line style="stroke:#5E5E5E;stroke-width:1.0416666666666667;" x1="239.5833" x2="319.7917" y1="660.0911" y2="660.0911"/><line style="stroke:#5E5E5E;stroke-width:1.0416666666666667;" x1="239.5833" x2="319.7917" y1="668.4245" y2="668.4245"/><rect codeLine="57" fill="#282828" height="83.3781" id="BorderSpatialIndex" rx="8.3333" ry="8.3333" style="stroke:#5E5E5E;stroke-width:1.0416666666666667;" width="262.5" x="404.6875" y="610.9945"/><rect fill="#1B1B1A" height="31.3883" rx="8.3333" ry="8.3333" style="stroke:#1B1B1A;stroke-width:1.0416666666666667;" width="262.5" x="404.6875" y="610.9945"/><rect fill="#1B1B1A" height="8.3333" style="stroke:#1B1B1A;stroke-width:1.0416666666666667;" width="262.5" x="404.6875" y="634.0495"/><rect codeLine="57" fill="none" height="83.3781" id="BorderSpatialIndex" rx="8.3333" ry="8.3333" style="stroke:#5E5E5E;stroke-width:1.0416666666666667;" width="262.5" x="404.6875" y="610.9945"/><ellipse cx="458.3333" cy="626.6886" fill="#0066CF" rx="10.4167" ry="10.4167" style="stroke:#0086EF;stroke-width:1.0416666666666667;"/><path d="M460.2437,631.1137 Q459.8165,631.3334 459.3465,631.4433 Q458.8765,631.5531 458.3577,631.5531 Q456.5145,631.5531 455.544,630.3385 Q454.5736,629.1239 454.5736,626.829 Q454.5736,624.528 455.544,623.3134 Q456.5145,622.0988 458.3577,622.0988 Q458.8765,622.0988 459.3526,622.2087 Q459.8287,622.3185 460.2437,622.5382 L460.2437,624.5402 Q459.7799,624.113 459.3435,623.9146 Q458.9071,623.7162 458.4432,623.7162 Q457.4544,623.7162 456.9509,624.5005 Q456.4473,625.2848 456.4473,626.829 Q456.4473,628.3671 456.9509,629.1514 Q457.4544,629.9357 458.4432,629.9357 Q458.9071,629.9357 459.3435,629.7373 Q459.7799,629.539 460.2437,629.1117 Z " fill="#000000"/><text fill="#D8BC00" font-family="Open Sans,Avenir,Nunito,Arial,Helvetica,SansSerif" font-size="12.5" font-weight="bold" lengthAdjust="spacing" textLength="121.875" x="481.25" y="631.4128">BorderSpatialIndex</text><rect fill="#333333" height="23.055" style="stroke:#A0A0A0;stroke-width:1.0416666666666667;stroke-dasharray:2.0,2.0;" width="16.6667" x="653.6458" y="607.8695"/><text fill="#A0A0A0" font-family="Open Sans,Avenir,Nunito,Arial,Helvetica,SansSerif" font-size="12.5" font-weight="bold" lengthAdjust="spacing" textLength="8.3333" x="657.8125" y="624.1211">T</text><line style="stroke:#5E5E5E;stroke-width:1.5625;" x1="405.7292" x2="666.1458" y1="642.3828" y2="642.3828"/><ellipse cx="416.1458" cy="677.7527" fill="#84BE84" rx="3.125" ry="3.125" style="stroke:#038048;stroke-width:1.0416666666666667;"/><text fill="#D8BC00" font-family="Open Sans,Avenir,Nunito,Arial,Helvetica,SansSerif" font-size="11.4583" lengthAdjust="spacing" textLength="230.2083" x="427.6042" y="684.6639">BorderSpatialIndex(String, RTreeSettings)</text><line style="stroke:#5E5E5E;stroke-width:1.0416666666666667;" x1="405.7292" x2="492.1875" y1="660.5886" y2="660.5886"/><text fill="#D8BC00" font-family="Open Sans,Avenir,Nunito,Arial,Helvetica,SansSerif" font-size="11.4583" lengthAdjust="spacing" textLength="81.25" x="495.3125" y="664.3982">(constructors)</text><line style="stroke:#5E5E5E;stroke-width:1.0416666666666667;" x1="579.6875" x2="666.1458" y1="660.5886" y2="660.5886"/><rect fill="#282828" height="48.055" id="RTreeSpatialIndex" rx="8.3333" ry="8.3333" style="stroke:#5E5E5E;stroke-width:1.0416666666666667;" width="153.125" x="586.4583" y="321.4111"/><rect fill="#1B1B1A" height="31.3883" rx="8.3333" ry="8.3333" style="stroke:#1B1B1A;stroke-width:1.0416666666666667;" width="153.125" x="586.4583" y="321.4111"/><rect fill="#1B1B1A" height="8.3333" style="stroke:#1B1B1A;stroke-width:1.0416666666666667;" width="153.125" x="586.4583" y="344.4661"/><rect fill="none" height="48.055" id="RTreeSpatialIndex" rx="8.3333" ry="8.3333" style="stroke:#5E5E5E;stroke-width:1.0416666666666667;" width="153.125" x="586.4583" y="321.4111"/><ellipse cx="601.0417" cy="337.1053" fill="#0066CF" rx="10.4167" ry="10.4167" style="stroke:#0086EF;stroke-width:1.0416666666666667;"/><path d="M602.9521,341.5304 Q602.5248,341.7501 602.0549,341.8599 Q601.5849,341.9698 601.0661,341.9698 Q599.2228,341.9698 598.2524,340.7552 Q597.2819,339.5406 597.2819,337.2457 Q597.2819,334.9447 598.2524,333.7301 Q599.2228,332.5155 601.0661,332.5155 Q601.5849,332.5155 602.061,332.6253 Q602.537,332.7352 602.9521,332.9549 L602.9521,334.9569 Q602.4882,334.5296 602.0518,334.3313 Q601.6154,334.1329 601.1515,334.1329 Q600.1628,334.1329 599.6592,334.9172 Q599.1557,335.7015 599.1557,337.2457 Q599.1557,338.7838 599.6592,339.5681 Q600.1628,340.3524 601.1515,340.3524 Q601.6154,340.3524 602.0518,340.154 Q602.4882,339.9556 602.9521,339.5284 Z " fill="#000000"/><text fill="#D8BC00" font-family="Open Sans,Avenir,Nunito,Arial,Helvetica,SansSerif" font-size="12.5" font-weight="bold" lengthAdjust="spacing" textLength="115.625" x="617.7083" y="341.8294">RTreeSpatialIndex</text><line style="stroke:#5E5E5E;stroke-width:1.0416666666666667;" x1="587.5" x2="738.5417" y1="352.7995" y2="352.7995"/><line style="stroke:#5E5E5E;stroke-width:1.0416666666666667;" x1="587.5" x2="738.5417" y1="361.1328" y2="361.1328"/><rect codeLine="64" fill="#282828" height="87.5448" id="Bordered" rx="8.3333" ry="8.3333" style="stroke:#5E5E5E;stroke-width:1.0416666666666667;" width="208.3333" x="941.1458" y="895.3695"/><rect fill="#1B1B1A" height="31.3883" rx="8.3333" ry="8.3333" style="stroke:#1B1B1A;stroke-width:1.0416666666666667;" width="208.3333" x="941.1458" y="895.3695"/><rect fill="#1B1B1A" height="8.3333" style="stroke:#1B1B1A;stroke-width:1.0416666666666667;" width="208.3333" x="941.1458" y="918.4245"/><rect codeLine="64" fill="none" height="87.5448" id="Bordered" rx="8.3333" ry="8.3333" style="stroke:#5E5E5E;stroke-width:1.0416666666666667;" width="208.3333" x="941.1458" y="895.3695"/><ellipse cx="1008.8542" cy="911.0636" fill="#008400" rx="10.4167" ry="10.4167" style="stroke:#239C23;stroke-width:1.0416666666666667;"/><path d="M1006.2581,908.2255 L1006.2581,906.6386 L1011.6842,906.6386 L1011.6842,908.2255 L1009.8714,908.2255 L1009.8714,914.1642 L1011.6842,914.1642 L1011.6842,915.7511 L1006.2581,915.7511 L1006.2581,914.1642 L1008.0709,914.1642 L1008.0709,908.2255 Z " fill="#000000"/><text fill="#D8BC00" font-family="Open Sans,Avenir,Nunito,Arial,Helvetica,SansSerif" font-size="12.5" font-style="italic" font-weight="bold" lengthAdjust="spacing" textLength="58.3333" x="1031.7708" y="915.7878">Bordered</text><line style="stroke:#5E5E5E;stroke-width:1.5625;" x1="942.1875" x2="1148.4375" y1="926.7578" y2="926.7578"/><line style="stroke:#5E5E5E;stroke-width:1.0416666666666667;" x1="942.1875" x2="1148.4375" y1="935.0911" y2="935.0911"/><ellipse cx="952.6042" cy="946.5495" fill="#84BE84" rx="3.125" ry="3.125" style="stroke:#038048;stroke-width:1.0416666666666667;"/><text fill="#D8BC00" font-family="Open Sans,Avenir,Nunito,Arial,Helvetica,SansSerif" font-size="11.4583" lengthAdjust="spacing" textLength="176.0417" x="964.0625" y="953.4607">Collection&lt;Polygon&gt; borders()</text><ellipse cx="952.6042" cy="966.2944" fill="#84BE84" rx="3.125" ry="3.125" style="stroke:#038048;stroke-width:1.0416666666666667;"/><text fill="#D8BC00" font-family="Open Sans,Avenir,Nunito,Arial,Helvetica,SansSerif" font-size="11.4583" lengthAdjust="spacing" textLength="133.3333" x="964.0625" y="973.2056">RegionIdentity identity()</text><path codeLine="12" d="M751.5625,697.8278 C751.5625,725.6507 751.5625,763.2445 751.5625,800.4215 " fill="none" id="Bounded-backto-Border" style="stroke:#545454;stroke-width:1.5625;"/><polygon fill="none" points="744.2708,697.807,751.5625,676.9736,758.8542,697.807,744.2708,697.807" style="stroke:#545454;stroke-width:1.5625;"/><path codeLine="13" d="M874.9375,695.7549 C860.6771,723.7653 841.0521,762.307 821.6563,800.4215 " fill="none" id="Intersectable-backto-Border" style="stroke:#545454;stroke-width:1.5625;"/><polygon fill="none" points="868.5521,692.234,884.5104,676.9736,881.5521,698.8486,868.5521,692.234" style="stroke:#545454;stroke-width:1.5625;"/><path codeLine="14" d="M854.7396,1082.4007 C873.0104,1106.2236 892.1875,1130.4111 910.9375,1152.6611 C926.1667,1170.7445 944.5313,1190.1195 958.7396,1204.6403 " fill="none" id="Border-backto-Polygon" style="stroke:#545454;stroke-width:1.5625;"/><polygon fill="#333333" points="846.4063,1071.4945,846.8822,1078.9909,853.9851,1081.4348,853.5091,1073.9384,846.4063,1071.4945" style="stroke:#545454;stroke-width:1.5625;"/><text fill="#A0A0A0" font-family="Open Sans,Avenir,Nunito,Arial,Helvetica,SansSerif" font-size="12.5" font-weight="bold" lengthAdjust="spacing" textLength="77.0833" x="915.1042" y="1145.9961">bounded by</text><path codeLine="15" d="M739.6979,1091.6195 C738.9583,1112.1299 738.6563,1132.9007 739.0625,1152.6611 C739.4271,1170.1195 740.2604,1189.8486 740.9792,1204.6924 " fill="none" id="Border-backto-Rectangle" style="stroke:#545454;stroke-width:1.5625;"/><polygon fill="#333333" points="740.2604,1077.8382,735.8433,1083.9138,739.7526,1090.3279,744.1697,1084.2523,740.2604,1077.8382" style="stroke:#545454;stroke-width:1.5625;"/><text fill="#A0A0A0" font-family="Open Sans,Avenir,Nunito,Arial,Helvetica,SansSerif" font-size="12.5" font-weight="bold" lengthAdjust="spacing" textLength="126.0417" x="743.2292" y="1145.9961">bounding rectangle</text><path codeLine="32" d="M279.6875,122.6611 C279.6875,135.2028 279.6875,149.7028 279.6875,165.1611 " fill="none" id="BaseComponent-backto-BorderCache" style="stroke:#545454;stroke-width:1.5625;"/><polygon fill="none" points="272.3958,122.6403,279.6875,101.807,286.9792,122.6403,272.3958,122.6403" style="stroke:#545454;stroke-width:1.5625;"/><path codeLine="33" d="M279.6875,525.7132 C279.6875,563.682 279.6875,599.359 279.6875,622.9736 " fill="none" id="BorderCache-to-Region" style="stroke:#545454;stroke-width:1.5625;"/><polygon fill="#545454" points="279.6875,628.4215,283.8542,619.0465,279.6875,623.2132,275.5208,619.0465,279.6875,628.4215" style="stroke:#545454;stroke-width:1.5625;"/><text fill="#A0A0A0" font-family="Open Sans,Avenir,Nunito,Arial,Helvetica,SansSerif" font-size="12.5" font-weight="bold" lengthAdjust="spacing" textLength="112.5" x="283.8542" y="573.0794">loads borders for</text><path codeLine="34" d="M438.9688,536.1299 C462.5208,564.182 484.5833,590.4528 501.6875,610.8278 " fill="none" id="BorderCache-backto-BorderSpatialIndex" style="stroke:#545454;stroke-width:1.5625;"/><polygon fill="#333333" points="430.2292,525.7132,431.0619,533.1785,438.2733,535.281,437.4405,527.8158,430.2292,525.7132" style="stroke:#545454;stroke-width:1.5625;"/><text fill="#A0A0A0" font-family="Open Sans,Avenir,Nunito,Arial,Helvetica,SansSerif" font-size="12.5" font-weight="bold" lengthAdjust="spacing" textLength="70.8333" x="478.6458" y="573.0794">indexed by</text><path codeLine="55" d="M657.5,390.5153 C650.0104,439.2028 633.5833,518.7757 600.5208,579.7445 C594.6042,590.6611 586.7083,601.2653 578.4792,610.8382 " fill="none" id="RTreeSpatialIndex-backto-BorderSpatialIndex" style="stroke:#545454;stroke-width:1.5625;"/><polygon fill="none" points="650.3229,389.2028,660.4479,369.5986,664.7604,391.2445,650.3229,389.2028" style="stroke:#545454;stroke-width:1.5625;"/><path codeLine="56" d="M566.8333,694.4424 C589.6354,724.5257 622.0313,767.2445 653.3333,808.5361 " fill="none" id="BorderSpatialIndex-to-Border" style="stroke:#545454;stroke-width:1.5625;"/><polygon fill="#545454" points="656.75,813.0361,654.3956,803.0507,653.5989,808.8892,647.7605,808.0925,656.75,813.0361" style="stroke:#545454;stroke-width:1.5625;"/><text fill="#A0A0A0" font-family="Open Sans,Avenir,Nunito,Arial,Helvetica,SansSerif" font-size="12.5" font-weight="bold" lengthAdjust="spacing" textLength="50" x="609.8958" y="741.8294">indexes</text><text fill="#A0A0A0" font-family="Open Sans,Avenir,Nunito,Arial,Helvetica,SansSerif" font-size="12.5" font-weight="bold" lengthAdjust="spacing" textLength="18.75" x="626.6589" y="796.9418">1+</text><path codeLine="63" d="M1038.4896,983.1924 C1031.3125,1026.3278 1019.0833,1094.5049 1004.6875,1152.6611 C1000.8125,1168.3174 995.6146,1185.5361 991.1563,1199.5361 " fill="none" id="Bordered-to-Polygon" style="stroke:#545454;stroke-width:1.5625;"/><polygon fill="#545454" points="989.5417,1204.5257,996.3765,1196.8748,991.135,1199.5671,988.4427,1194.3255,989.5417,1204.5257" style="stroke:#545454;stroke-width:1.5625;"/><text fill="#A0A0A0" font-family="Open Sans,Avenir,Nunito,Arial,Helvetica,SansSerif" font-size="12.5" font-weight="bold" lengthAdjust="spacing" textLength="77.0833" x="1014.0625" y="1145.9961">bounded by</text><text fill="#A0A0A0" font-family="Open Sans,Avenir,Nunito,Arial,Helvetica,SansSerif" font-size="12.5" font-weight="bold" lengthAdjust="spacing" textLength="8.3333" x="1024.9582" y="1006.4124">1</text><text fill="#A0A0A0" font-family="Open Sans,Avenir,Nunito,Arial,Helvetica,SansSerif" font-size="12.5" font-weight="bold" lengthAdjust="spacing" textLength="18.75" x="966.5139" y="1190.4701">1+</text></g></svg>
