<?xml version="1.0" encoding="UTF-8" standalone="no"?><svg xmlns="http://www.w3.org/2000/svg" xmlns:xlink="http://www.w3.org/1999/xlink" contentScriptType="application/ecmascript" contentStyleType="text/css" height="495.8333px" preserveAspectRatio="none" style="width:1239px;height:495px;background:#333333;" version="1.1" viewBox="0 0 1239 495" width="1239.5833px" zoomAndPan="magnify"><defs/><g><rect fill="#48494B" height="41.2028" rx="8.3333" ry="8.3333" style="stroke:#545454;stroke-width:1.0416666666666667;" width="471.875" x="376.8229" y="2.0833"/><text fill="#C0C0C0" font-family="Open Sans,Avenir,Nunito,Arial,Helvetica,SansSerif" font-size="20.8333" lengthAdjust="spacing" textLength="448.9583" x="388.2813" y="30.5583">com.telenav.mesakit.plugins.josm.library.tile</text><rect codeLine="7" fill="#282828" height="48.055" id="BaseComponent" rx="8.3333" ry="8.3333" style="stroke:#5E5E5E;stroke-width:1.0416666666666667;" width="143.75" x="678.6458" y="98.4945"/><rect fill="#1B1B1A" height="31.3883" rx="8.3333" ry="8.3333" style="stroke:#1B1B1A;stroke-width:1.0416666666666667;" width="143.75" x="678.6458" y="98.4945"/><rect fill="#1B1B1A" height="8.3333" style="stroke:#1B1B1A;stroke-width:1.0416666666666667;" width="143.75" x="678.6458" y="121.5495"/><rect codeLine="7" fill="none" height="48.055" id="BaseComponent" rx="8.3333" ry="8.3333" style="stroke:#5E5E5E;stroke-width:1.0416666666666667;" width="143.75" x="678.6458" y="98.4945"/><ellipse cx="693.2292" cy="114.1886" fill="#C8AC00" rx="10.4167" ry="10.4167" style="stroke:#D8BC00;stroke-width:1.0416666666666667;"/><path d="M692.8223,110.8907 L691.9739,114.62 L693.6768,114.62 Z M691.7236,109.2428 L693.927,109.2428 L696.3867,118.3553 L694.5862,118.3553 L694.0247,116.1031 L691.6138,116.1031 L691.0645,118.3553 L689.2639,118.3553 Z " fill="#000000"/><text fill="#D8BC00" font-family="Open Sans,Avenir,Nunito,Arial,Helvetica,SansSerif" font-size="12.5" font-style="italic" font-weight="bold" lengthAdjust="spacing" textLength="106.25" x="709.8958" y="118.9128">BaseComponent</text><line style="stroke:#5E5E5E;stroke-width:1.0416666666666667;" x1="679.6875" x2="821.3542" y1="129.8828" y2="129.8828"/><line style="stroke:#5E5E5E;stroke-width:1.0416666666666667;" x1="679.6875" x2="821.3542" y1="138.2161" y2="138.2161"/><rect codeLine="16" fill="#282828" height="131.2012" id="AbstractTileCache" rx="8.3333" ry="8.3333" style="stroke:#5E5E5E;stroke-width:1.0416666666666667;" width="247.9167" x="980.7292" y="56.8278"/><rect fill="#1B1B1A" height="31.3883" rx="8.3333" ry="8.3333" style="stroke:#1B1B1A;stroke-width:1.0416666666666667;" width="247.9167" x="980.7292" y="56.8278"/><rect fill="#1B1B1A" height="8.3333" style="stroke:#1B1B1A;stroke-width:1.0416666666666667;" width="247.9167" x="980.7292" y="79.8828"/><rect codeLine="16" fill="none" height="131.2012" id="AbstractTileCache" rx="8.3333" ry="8.3333" style="stroke:#5E5E5E;stroke-width:1.0416666666666667;" width="247.9167" x="980.7292" y="56.8278"/><ellipse cx="995.3125" cy="72.522" fill="#C8AC00" rx="10.4167" ry="10.4167" style="stroke:#D8BC00;stroke-width:1.0416666666666667;"/><path d="M994.9056,69.224 L994.0572,72.9533 L995.7601,72.9533 Z M993.807,67.5761 L996.0103,67.5761 L998.4701,76.6886 L996.6695,76.6886 L996.108,74.4364 L993.6971,74.4364 L993.1478,76.6886 L991.3472,76.6886 Z " fill="#000000"/><text fill="#D8BC00" font-family="Open Sans,Avenir,Nunito,Arial,Helvetica,SansSerif" font-size="12.5" font-style="italic" font-weight="bold" lengthAdjust="spacing" textLength="116.6667" x="1011.9792" y="77.2461">AbstractTileCache</text><rect fill="#333333" height="23.055" style="stroke:#A0A0A0;stroke-width:1.0416666666666667;stroke-dasharray:2.0,2.0;" width="91.6667" x="1140.1042" y="53.7028"/><text fill="#A0A0A0" font-family="Open Sans,Avenir,Nunito,Arial,Helvetica,SansSerif" font-size="12.5" font-weight="bold" lengthAdjust="spacing" textLength="83.3333" x="1144.2708" y="69.9544">Request, Tile</text><line style="stroke:#5E5E5E;stroke-width:1.5625;" x1="981.7708" x2="1227.6042" y1="88.2161" y2="88.2161"/><line style="stroke:#5E5E5E;stroke-width:1.0416666666666667;" x1="981.7708" x2="1227.6042" y1="96.5495" y2="96.5495"/><ellipse cx="992.1875" cy="108.0078" fill="#84BE84" rx="3.125" ry="3.125" style="stroke:#038048;stroke-width:1.0416666666666667;"/><text fill="#D8BC00" font-family="Open Sans,Avenir,Nunito,Arial,Helvetica,SansSerif" font-size="11.4583" lengthAdjust="spacing" textLength="93.75" x="1003.6458" y="114.919">Tile get(Request)</text><ellipse cx="992.1875" cy="151.6642" fill="#84BE84" rx="3.125" ry="3.125" style="stroke:#038048;stroke-width:1.0416666666666667;"/><text fill="#D8BC00" font-family="Open Sans,Avenir,Nunito,Arial,Helvetica,SansSerif" font-size="11.4583" lengthAdjust="spacing" textLength="125" x="1003.6458" y="158.5754">void put(Request, Tile)</text><ellipse cx="992.1875" cy="171.4091" fill="#84BE84" rx="3.125" ry="3.125" style="stroke:#038048;stroke-width:1.0416666666666667;"/><text fill="#D8BC00" font-family="Open Sans,Avenir,Nunito,Arial,Helvetica,SansSerif" font-size="11.4583" lengthAdjust="spacing" textLength="121.875" x="1003.6458" y="178.3203">void remove(Request)</text><line style="stroke:#5E5E5E;stroke-width:1.0416666666666667;" x1="981.7708" x2="1070.3125" y1="134.5001" y2="134.5001"/><text fill="#D8BC00" font-family="Open Sans,Avenir,Nunito,Arial,Helvetica,SansSerif" font-size="11.4583" lengthAdjust="spacing" textLength="62.5" x="1073.4375" y="138.3097">(collection)</text><line style="stroke:#5E5E5E;stroke-width:1.0416666666666667;" x1="1139.0625" x2="1227.6042" y1="134.5001" y2="134.5001"/><rect codeLine="10" fill="#282828" height="83.3781" id="AbstractTile" rx="8.3333" ry="8.3333" style="stroke:#5E5E5E;stroke-width:1.0416666666666667;" width="140.625" x="7.2917" y="80.7861"/><rect fill="#1B1B1A" height="31.3883" rx="8.3333" ry="8.3333" style="stroke:#1B1B1A;stroke-width:1.0416666666666667;" width="140.625" x="7.2917" y="80.7861"/><rect fill="#1B1B1A" height="8.3333" style="stroke:#1B1B1A;stroke-width:1.0416666666666667;" width="140.625" x="7.2917" y="103.8411"/><rect codeLine="10" fill="none" height="83.3781" id="AbstractTile" rx="8.3333" ry="8.3333" style="stroke:#5E5E5E;stroke-width:1.0416666666666667;" width="140.625" x="7.2917" y="80.7861"/><ellipse cx="33.125" cy="96.4803" fill="#C8AC00" rx="10.4167" ry="10.4167" style="stroke:#D8BC00;stroke-width:1.0416666666666667;"/><path d="M32.7181,93.1824 L31.8697,96.9116 L33.5726,96.9116 Z M31.6195,91.5344 L33.8228,91.5344 L36.2826,100.647 L34.482,100.647 L33.9205,98.3948 L31.5096,98.3948 L30.9603,100.647 L29.1597,100.647 Z " fill="#000000"/><text fill="#D8BC00" font-family="Open Sans,Avenir,Nunito,Arial,Helvetica,SansSerif" font-size="12.5" font-style="italic" font-weight="bold" lengthAdjust="spacing" textLength="78.125" x="52.2917" y="101.2044">AbstractTile</text><line style="stroke:#5E5E5E;stroke-width:1.5625;" x1="8.3333" x2="146.875" y1="112.1745" y2="112.1745"/><ellipse cx="18.75" cy="147.5444" fill="#84BE84" rx="3.125" ry="3.125" style="stroke:#038048;stroke-width:1.0416666666666667;"/><text fill="#D8BC00" font-family="Open Sans,Avenir,Nunito,Arial,Helvetica,SansSerif" font-size="11.4583" lengthAdjust="spacing" textLength="108.3333" x="30.2083" y="154.4556">boolean isExpired()</text><line style="stroke:#5E5E5E;stroke-width:1.0416666666666667;" x1="8.3333" x2="58.3333" y1="130.3802" y2="130.3802"/><text fill="#D8BC00" font-family="Open Sans,Avenir,Nunito,Arial,Helvetica,SansSerif" font-size="11.4583" lengthAdjust="spacing" textLength="32.2917" x="61.4583" y="134.1899">(time)</text><line style="stroke:#5E5E5E;stroke-width:1.0416666666666667;" x1="96.875" x2="146.875" y1="130.3802" y2="130.3802"/><rect codeLine="26" fill="#282828" height="238.2589" id="AbstractTileDownloader" rx="8.3333" ry="8.3333" style="stroke:#5E5E5E;stroke-width:1.0416666666666667;" width="401.0417" x="550" y="250.5778"/><rect fill="#1B1B1A" height="31.3883" rx="8.3333" ry="8.3333" style="stroke:#1B1B1A;stroke-width:1.0416666666666667;" width="401.0417" x="550" y="250.5778"/><rect fill="#1B1B1A" height="8.3333" style="stroke:#1B1B1A;stroke-width:1.0416666666666667;" width="401.0417" x="550" y="273.6328"/><rect codeLine="26" fill="none" height="238.2589" id="AbstractTileDownloader" rx="8.3333" ry="8.3333" style="stroke:#5E5E5E;stroke-width:1.0416666666666667;" width="401.0417" x="550" y="250.5778"/><ellipse cx="618.2292" cy="266.272" fill="#C8AC00" rx="10.4167" ry="10.4167" style="stroke:#D8BC00;stroke-width:1.0416666666666667;"/><path d="M617.8223,262.974 L616.9739,266.7033 L618.6768,266.7033 Z M616.7236,261.3261 L618.927,261.3261 L621.3867,270.4386 L619.5862,270.4386 L619.0247,268.1864 L616.6138,268.1864 L616.0645,270.4386 L614.2639,270.4386 Z " fill="#000000"/><text fill="#D8BC00" font-family="Open Sans,Avenir,Nunito,Arial,Helvetica,SansSerif" font-size="12.5" font-style="italic" font-weight="bold" lengthAdjust="spacing" textLength="156.25" x="641.1458" y="270.9961">AbstractTileDownloader</text><rect fill="#333333" height="23.055" style="stroke:#A0A0A0;stroke-width:1.0416666666666667;stroke-dasharray:2.0,2.0;" width="91.6667" x="862.5" y="247.4528"/><text fill="#A0A0A0" font-family="Open Sans,Avenir,Nunito,Arial,Helvetica,SansSerif" font-size="12.5" font-weight="bold" lengthAdjust="spacing" textLength="83.3333" x="866.6667" y="263.7044">Request, Tile</text><line style="stroke:#5E5E5E;stroke-width:1.5625;" x1="551.0417" x2="950" y1="281.9661" y2="281.9661"/><polygon fill="#FFFF44" points="561.4583,312.1277,565.625,316.2944,561.4583,320.461,557.2917,316.2944" style="stroke:#B38D22;stroke-width:1.0416666666666667;"/><text fill="#D8BC00" font-family="Open Sans,Avenir,Nunito,Arial,Helvetica,SansSerif" font-size="11.4583" lengthAdjust="spacing" textLength="334.375" x="572.9167" y="324.2472">AbstractTileDownloader(AbstractTileCache&lt;Request, Tile&gt;)</text><line style="stroke:#5E5E5E;stroke-width:1.0416666666666667;" x1="551.0417" x2="706.7708" y1="300.1719" y2="300.1719"/><text fill="#D8BC00" font-family="Open Sans,Avenir,Nunito,Arial,Helvetica,SansSerif" font-size="11.4583" lengthAdjust="spacing" textLength="81.25" x="709.8958" y="303.9815">(constructors)</text><line style="stroke:#5E5E5E;stroke-width:1.0416666666666667;" x1="794.2708" x2="950" y1="300.1719" y2="300.1719"/><line style="stroke:#5E5E5E;stroke-width:1.0416666666666667;" x1="551.0417" x2="950" y1="333.9559" y2="333.9559"/><ellipse cx="561.4583" cy="345.4142" fill="#84BE84" rx="3.125" ry="3.125" style="stroke:#038048;stroke-width:1.0416666666666667;"/><text fill="#D8BC00" font-family="Open Sans,Avenir,Nunito,Arial,Helvetica,SansSerif" font-size="11.4583" lengthAdjust="spacing" textLength="93.75" x="572.9167" y="352.3254">Tile get(Request)</text><ellipse cx="561.4583" cy="365.1591" fill="#84BE84" rx="3.125" ry="3.125" style="stroke:#038048;stroke-width:1.0416666666666667;"/><text fill="#D8BC00" font-family="Open Sans,Avenir,Nunito,Arial,Helvetica,SansSerif" font-size="11.4583" lengthAdjust="spacing" textLength="122.9167" x="572.9167" y="372.0703">void request(Request)</text><polygon fill="#FFFF44" points="561.4583,403.6072,565.625,407.7738,561.4583,411.9405,557.2917,407.7738" style="stroke:#B38D22;stroke-width:1.0416666666666667;"/><text fill="#D8BC00" font-family="Open Sans,Avenir,Nunito,Arial,Helvetica,SansSerif" font-size="11.4583" lengthAdjust="spacing" textLength="145.8333" x="572.9167" y="415.7267">Tile onDownload(Request)</text><line style="stroke:#5E5E5E;stroke-width:1.0416666666666667;" x1="551.0417" x2="696.3542" y1="391.6514" y2="391.6514"/><text fill="#D8BC00" font-family="Open Sans,Avenir,Nunito,Arial,Helvetica,SansSerif" font-size="11.4583" lengthAdjust="spacing" textLength="102.0833" x="699.4792" y="395.461">(extension points)</text><line style="stroke:#5E5E5E;stroke-width:1.0416666666666667;" x1="804.6875" x2="950" y1="391.6514" y2="391.6514"/><ellipse cx="561.4583" cy="452.4719" fill="#84BE84" rx="3.125" ry="3.125" style="stroke:#038048;stroke-width:1.0416666666666667;"/><text fill="#D8BC00" font-family="Open Sans,Avenir,Nunito,Arial,Helvetica,SansSerif" font-size="11.4583" lengthAdjust="spacing" textLength="368.75" x="572.9167" y="459.3831">void start(TileDownloadedListener&lt;? super Request,? super Tile&gt;)</text><ellipse cx="561.4583" cy="472.2168" fill="#84BE84" rx="3.125" ry="3.125" style="stroke:#038048;stroke-width:1.0416666666666667;"/><text fill="#D8BC00" font-family="Open Sans,Avenir,Nunito,Arial,Helvetica,SansSerif" font-size="11.4583" lengthAdjust="spacing" textLength="60.4167" x="572.9167" y="479.128">void stop()</text><line style="stroke:#5E5E5E;stroke-width:1.0416666666666667;" x1="551.0417" x2="720.8333" y1="435.3078" y2="435.3078"/><text fill="#D8BC00" font-family="Open Sans,Avenir,Nunito,Arial,Helvetica,SansSerif" font-size="11.4583" lengthAdjust="spacing" textLength="53.125" x="723.9583" y="439.1174">(lifecycle)</text><line style="stroke:#5E5E5E;stroke-width:1.0416666666666667;" x1="780.2083" x2="950" y1="435.3078" y2="435.3078"/><rect codeLine="40" fill="#282828" height="87.5448" id="AbstractTileRequest" rx="8.3333" ry="8.3333" style="stroke:#5E5E5E;stroke-width:1.0416666666666667;" width="213.5417" x="184.375" y="78.7028"/><rect fill="#1B1B1A" height="31.3883" rx="8.3333" ry="8.3333" style="stroke:#1B1B1A;stroke-width:1.0416666666666667;" width="213.5417" x="184.375" y="78.7028"/><rect fill="#1B1B1A" height="8.3333" style="stroke:#1B1B1A;stroke-width:1.0416666666666667;" width="213.5417" x="184.375" y="101.7578"/><rect codeLine="40" fill="none" height="87.5448" id="AbstractTileRequest" rx="8.3333" ry="8.3333" style="stroke:#5E5E5E;stroke-width:1.0416666666666667;" width="213.5417" x="184.375" y="78.7028"/><ellipse cx="219.5833" cy="94.397" fill="#C8AC00" rx="10.4167" ry="10.4167" style="stroke:#D8BC00;stroke-width:1.0416666666666667;"/><path d="M219.1764,91.099 L218.328,94.8283 L220.0309,94.8283 Z M218.0778,89.4511 L220.2812,89.4511 L222.7409,98.5636 L220.9403,98.5636 L220.3788,96.3114 L217.9679,96.3114 L217.4186,98.5636 L215.6181,98.5636 Z " fill="#000000"/><text fill="#D8BC00" font-family="Open Sans,Avenir,Nunito,Arial,Helvetica,SansSerif" font-size="12.5" font-style="italic" font-weight="bold" lengthAdjust="spacing" textLength="130.2083" x="240.8333" y="99.1211">AbstractTileRequest</text><line style="stroke:#5E5E5E;stroke-width:1.5625;" x1="185.4167" x2="396.875" y1="110.0911" y2="110.0911"/><line style="stroke:#5E5E5E;stroke-width:1.0416666666666667;" x1="185.4167" x2="396.875" y1="118.4245" y2="118.4245"/><ellipse cx="195.8333" cy="129.8828" fill="#84BE84" rx="3.125" ry="3.125" style="stroke:#038048;stroke-width:1.0416666666666667;"/><text fill="#D8BC00" font-family="Open Sans,Avenir,Nunito,Arial,Helvetica,SansSerif" font-size="11.4583" lengthAdjust="spacing" textLength="181.25" x="207.2917" y="136.794">void forceUpdate(boolean force)</text><ellipse cx="195.8333" cy="149.6277" fill="#84BE84" rx="3.125" ry="3.125" style="stroke:#038048;stroke-width:1.0416666666666667;"/><text fill="#D8BC00" font-family="Open Sans,Avenir,Nunito,Arial,Helvetica,SansSerif" font-size="11.4583" lengthAdjust="spacing" textLength="125" x="207.2917" y="156.5389">boolean forceUpdate()</text><rect codeLine="47" fill="#282828" height="107.2896" id="MapData" rx="8.3333" ry="8.3333" style="stroke:#5E5E5E;stroke-width:1.0416666666666667;" width="131.25" x="11.9792" y="316.2028"/><rect fill="#1B1B1A" height="31.3883" rx="8.3333" ry="8.3333" style="stroke:#1B1B1A;stroke-width:1.0416666666666667;" width="131.25" x="11.9792" y="316.2028"/><rect fill="#1B1B1A" height="8.3333" style="stroke:#1B1B1A;stroke-width:1.0416666666666667;" width="131.25" x="11.9792" y="339.2578"/><rect codeLine="47" fill="none" height="107.2896" id="MapData" rx="8.3333" ry="8.3333" style="stroke:#5E5E5E;stroke-width:1.0416666666666667;" width="131.25" x="11.9792" y="316.2028"/><ellipse cx="42.9688" cy="331.897" fill="#CF6300" rx="10.4167" ry="10.4167" style="stroke:#EF8300;stroke-width:1.0416666666666667;"/><path d="M46.0246,336.5845 L40.3483,336.5845 L40.3483,327.4719 L46.0246,327.4719 L46.0246,329.0588 L42.1488,329.0588 L42.1488,331.0242 L45.6584,331.0242 L45.6584,332.6111 L42.1488,332.6111 L42.1488,334.9976 L46.0246,334.9976 Z " fill="#000000"/><text fill="#D8BC00" font-family="Open Sans,Avenir,Nunito,Arial,Helvetica,SansSerif" font-size="12.5" font-weight="bold" lengthAdjust="spacing" textLength="57.2917" x="63.2813" y="336.6211">MapData</text><line style="stroke:#5E5E5E;stroke-width:1.0416666666666667;" x1="13.0208" x2="142.1875" y1="347.5911" y2="347.5911"/><text fill="#D8BC00" font-family="Open Sans,Avenir,Nunito,Arial,Helvetica,SansSerif" font-size="11.4583" lengthAdjust="spacing" textLength="76.0417" x="21.3542" y="365.9607">NT_NA_13Q2</text><text fill="#D8BC00" font-family="Open Sans,Avenir,Nunito,Arial,Helvetica,SansSerif" font-size="11.4583" lengthAdjust="spacing" textLength="25" x="21.3542" y="385.7056">OSM</text><text fill="#D8BC00" font-family="Open Sans,Avenir,Nunito,Arial,Helvetica,SansSerif" font-size="11.4583" lengthAdjust="spacing" textLength="112.5" x="21.3542" y="405.4504">TOMTOM_NA_13M9</text><line style="stroke:#5E5E5E;stroke-width:1.0416666666666667;" x1="13.0208" x2="142.1875" y1="415.1591" y2="415.1591"/><rect codeLine="55" fill="#282828" height="48.055" id="SlippyTileCache" rx="8.3333" ry="8.3333" style="stroke:#5E5E5E;stroke-width:1.0416666666666667;" width="233.3333" x="988.0208" y="345.8903"/><rect fill="#1B1B1A" height="31.3883" rx="8.3333" ry="8.3333" style="stroke:#1B1B1A;stroke-width:1.0416666666666667;" width="233.3333" x="988.0208" y="345.8903"/><rect fill="#1B1B1A" height="8.3333" style="stroke:#1B1B1A;stroke-width:1.0416666666666667;" width="233.3333" x="988.0208" y="368.9453"/><rect codeLine="55" fill="none" height="48.055" id="SlippyTileCache" rx="8.3333" ry="8.3333" style="stroke:#5E5E5E;stroke-width:1.0416666666666667;" width="233.3333" x="988.0208" y="345.8903"/><ellipse cx="1002.6042" cy="361.5845" fill="#0066CF" rx="10.4167" ry="10.4167" style="stroke:#0086EF;stroke-width:1.0416666666666667;"/><path d="M1004.5146,366.0095 Q1004.0873,366.2292 1003.6174,366.3391 Q1003.1474,366.449 1002.6286,366.449 Q1000.7853,366.449 999.8149,365.2344 Q998.8444,364.0198 998.8444,361.7249 Q998.8444,359.4238 999.8149,358.2092 Q1000.7853,356.9946 1002.6286,356.9946 Q1003.1474,356.9946 1003.6235,357.1045 Q1004.0995,357.2144 1004.5146,357.4341 L1004.5146,359.436 Q1004.0507,359.0088 1003.6143,358.8104 Q1003.1779,358.6121 1002.714,358.6121 Q1001.7253,358.6121 1001.2217,359.3964 Q1000.7182,360.1807 1000.7182,361.7249 Q1000.7182,363.2629 1001.2217,364.0472 Q1001.7253,364.8315 1002.714,364.8315 Q1003.1779,364.8315 1003.6143,364.6332 Q1004.0507,364.4348 1004.5146,364.0076 Z " fill="#000000"/><text fill="#D8BC00" font-family="Open Sans,Avenir,Nunito,Arial,Helvetica,SansSerif" font-size="12.5" font-weight="bold" lengthAdjust="spacing" textLength="102.0833" x="1019.2708" y="366.3086">SlippyTileCache</text><rect fill="#333333" height="23.055" style="stroke:#A0A0A0;stroke-width:1.0416666666666667;stroke-dasharray:2.0,2.0;" width="91.6667" x="1132.8125" y="342.7653"/><text fill="#A0A0A0" font-family="Open Sans,Avenir,Nunito,Arial,Helvetica,SansSerif" font-size="12.5" font-weight="bold" lengthAdjust="spacing" textLength="83.3333" x="1136.9792" y="359.0169">Request, Tile</text><line style="stroke:#5E5E5E;stroke-width:1.0416666666666667;" x1="989.0625" x2="1220.3125" y1="377.2786" y2="377.2786"/><line style="stroke:#5E5E5E;stroke-width:1.0416666666666667;" x1="989.0625" x2="1220.3125" y1="385.612" y2="385.612"/><rect codeLine="59" fill="#282828" height="67.7999" id="TileDownloadedListener" rx="8.3333" ry="8.3333" style="stroke:#5E5E5E;stroke-width:1.0416666666666667;" width="333.3333" x="179.6875" y="335.9945"/><rect fill="#1B1B1A" height="31.3883" rx="8.3333" ry="8.3333" style="stroke:#1B1B1A;stroke-width:1.0416666666666667;" width="333.3333" x="179.6875" y="335.9945"/><rect fill="#1B1B1A" height="8.3333" style="stroke:#1B1B1A;stroke-width:1.0416666666666667;" width="333.3333" x="179.6875" y="359.0495"/><rect codeLine="59" fill="none" height="67.7999" id="TileDownloadedListener" rx="8.3333" ry="8.3333" style="stroke:#5E5E5E;stroke-width:1.0416666666666667;" width="333.3333" x="179.6875" y="335.9945"/><ellipse cx="214.4271" cy="351.6886" fill="#008400" rx="10.4167" ry="10.4167" style="stroke:#239C23;stroke-width:1.0416666666666667;"/><path d="M211.8311,348.8505 L211.8311,347.2636 L217.2571,347.2636 L217.2571,348.8505 L215.4443,348.8505 L215.4443,354.7892 L217.2571,354.7892 L217.2571,356.3761 L211.8311,356.3761 L211.8311,354.7892 L213.6438,354.7892 L213.6438,348.8505 Z " fill="#000000"/><text fill="#D8BC00" font-family="Open Sans,Avenir,Nunito,Arial,Helvetica,SansSerif" font-size="12.5" font-style="italic" font-weight="bold" lengthAdjust="spacing" textLength="157.2917" x="235.5729" y="356.4128">TileDownloadedListener</text><rect fill="#333333" height="23.055" style="stroke:#A0A0A0;stroke-width:1.0416666666666667;stroke-dasharray:2.0,2.0;" width="91.6667" x="424.4792" y="332.8695"/><text fill="#A0A0A0" font-family="Open Sans,Avenir,Nunito,Arial,Helvetica,SansSerif" font-size="12.5" font-weight="bold" lengthAdjust="spacing" textLength="83.3333" x="428.6458" y="349.1211">Request, Tile</text><line style="stroke:#5E5E5E;stroke-width:1.5625;" x1="180.7292" x2="511.9792" y1="367.3828" y2="367.3828"/><line style="stroke:#5E5E5E;stroke-width:1.0416666666666667;" x1="180.7292" x2="511.9792" y1="375.7161" y2="375.7161"/><ellipse cx="191.1458" cy="387.1745" fill="#84BE84" rx="3.125" ry="3.125" style="stroke:#038048;stroke-width:1.0416666666666667;"/><text fill="#D8BC00" font-family="Open Sans,Avenir,Nunito,Arial,Helvetica,SansSerif" font-size="11.4583" lengthAdjust="spacing" textLength="301.0417" x="202.6042" y="394.0857">void onDownloaded(Request, Tile oldTile, Tile newTile)</text><path codeLine="25" d="M750.5208,167.484 C750.5208,190.8486 750.5208,220.807 750.5208,250.4215 " fill="none" id="BaseComponent-backto-AbstractTileDownloader" style="stroke:#545454;stroke-width:1.5625;"/><polygon fill="none" points="743.2292,167.4111,750.5208,146.5778,757.8125,167.4111,743.2292,167.4111" style="stroke:#545454;stroke-width:1.5625;"/><path codeLine="54" d="M1104.6875,209.1403 C1104.6875,257.682 1104.6875,314.7549 1104.6875,345.807 " fill="none" id="AbstractTileCache-backto-SlippyTileCache" style="stroke:#545454;stroke-width:1.5625;"/><polygon fill="none" points="1097.3958,209.0986,1104.6875,188.2653,1111.9792,209.0986,1097.3958,209.0986" style="stroke:#545454;stroke-width:1.5625;"/></g></svg>
