<?xml version="1.0" encoding="UTF-8" standalone="no"?><svg xmlns="http://www.w3.org/2000/svg" xmlns:xlink="http://www.w3.org/1999/xlink" contentScriptType="application/ecmascript" contentStyleType="text/css" height="254.1667px" preserveAspectRatio="none" style="width:510px;height:254px;background:#333333;" version="1.1" viewBox="0 0 510 254" width="510.4167px" zoomAndPan="magnify"><defs/><g><rect fill="#48494B" height="41.2028" rx="8.3333" ry="8.3333" style="stroke:#545454;stroke-width:1.0416666666666667;" width="497.9167" x="2.0833" y="2.0833"/><text fill="#C0C0C0" font-family="Open Sans,Avenir,Nunito,Arial,Helvetica,SansSerif" font-size="20.8333" lengthAdjust="spacing" textLength="475" x="13.5417" y="30.5583">com.telenav.mesakit.navigation.routing.limiters</text><rect codeLine="7" fill="#282828" height="48.055" id="RoutingLimiter" rx="8.3333" ry="8.3333" style="stroke:#5E5E5E;stroke-width:1.0416666666666667;" width="134.375" x="191.4063" y="53.7028"/><rect fill="#1B1B1A" height="31.3883" rx="8.3333" ry="8.3333" style="stroke:#1B1B1A;stroke-width:1.0416666666666667;" width="134.375" x="191.4063" y="53.7028"/><rect fill="#1B1B1A" height="8.3333" style="stroke:#1B1B1A;stroke-width:1.0416666666666667;" width="134.375" x="191.4063" y="76.7578"/><rect codeLine="7" fill="none" height="48.055" id="RoutingLimiter" rx="8.3333" ry="8.3333" style="stroke:#5E5E5E;stroke-width:1.0416666666666667;" width="134.375" x="191.4063" y="53.7028"/><ellipse cx="205.9896" cy="69.397" fill="#008400" rx="10.4167" ry="10.4167" style="stroke:#239C23;stroke-width:1.0416666666666667;"/><path d="M203.3936,66.5588 L203.3936,64.9719 L208.8196,64.9719 L208.8196,66.5588 L207.0068,66.5588 L207.0068,72.4976 L208.8196,72.4976 L208.8196,74.0845 L203.3936,74.0845 L203.3936,72.4976 L205.2063,72.4976 L205.2063,66.5588 Z " fill="#000000"/><text fill="#D8BC00" font-family="Open Sans,Avenir,Nunito,Arial,Helvetica,SansSerif" font-size="12.5" font-style="italic" font-weight="bold" lengthAdjust="spacing" textLength="96.875" x="222.6563" y="74.1211">RoutingLimiter</text><line style="stroke:#5E5E5E;stroke-width:1.0416666666666667;" x1="192.4479" x2="324.7396" y1="85.0911" y2="85.0911"/><line style="stroke:#5E5E5E;stroke-width:1.0416666666666667;" x1="192.4479" x2="324.7396" y1="93.4245" y2="93.4245"/><rect codeLine="10" fill="#282828" height="83.3781" id="CpuTimeRoutingLimiter" rx="8.3333" ry="8.3333" style="stroke:#5E5E5E;stroke-width:1.0416666666666667;" width="221.875" x="19.5313" y="164.1195"/><rect fill="#1B1B1A" height="31.3883" rx="8.3333" ry="8.3333" style="stroke:#1B1B1A;stroke-width:1.0416666666666667;" width="221.875" x="19.5313" y="164.1195"/><rect fill="#1B1B1A" height="8.3333" style="stroke:#1B1B1A;stroke-width:1.0416666666666667;" width="221.875" x="19.5313" y="187.1745"/><rect codeLine="10" fill="none" height="83.3781" id="CpuTimeRoutingLimiter" rx="8.3333" ry="8.3333" style="stroke:#5E5E5E;stroke-width:1.0416666666666667;" width="221.875" x="19.5313" y="164.1195"/><ellipse cx="47.2396" cy="179.8136" fill="#0066CF" rx="10.4167" ry="10.4167" style="stroke:#0086EF;stroke-width:1.0416666666666667;"/><path d="M49.15,184.2387 Q48.7227,184.4584 48.2528,184.5683 Q47.7828,184.6781 47.264,184.6781 Q45.4207,184.6781 44.4503,183.4635 Q43.4798,182.2489 43.4798,179.954 Q43.4798,177.653 44.4503,176.4384 Q45.4207,175.2238 47.264,175.2238 Q47.7828,175.2238 48.2589,175.3337 Q48.7349,175.4435 49.15,175.6632 L49.15,177.6652 Q48.6861,177.238 48.2497,177.0396 Q47.8133,176.8412 47.3494,176.8412 Q46.3607,176.8412 45.8571,177.6255 Q45.3536,178.4098 45.3536,179.954 Q45.3536,181.4921 45.8571,182.2764 Q46.3607,183.0607 47.3494,183.0607 Q47.8133,183.0607 48.2497,182.8623 Q48.6861,182.664 49.15,182.2367 Z " fill="#000000"/><text fill="#D8BC00" font-family="Open Sans,Avenir,Nunito,Arial,Helvetica,SansSerif" font-size="12.5" font-weight="bold" lengthAdjust="spacing" textLength="155.2083" x="66.8229" y="184.5378">CpuTimeRoutingLimiter</text><line style="stroke:#5E5E5E;stroke-width:1.5625;" x1="20.5729" x2="240.3646" y1="195.5078" y2="195.5078"/><ellipse cx="30.9896" cy="230.8777" fill="#84BE84" rx="3.125" ry="3.125" style="stroke:#038048;stroke-width:1.0416666666666667;"/><text fill="#D8BC00" font-family="Open Sans,Avenir,Nunito,Arial,Helvetica,SansSerif" font-size="11.4583" lengthAdjust="spacing" textLength="189.5833" x="42.4479" y="237.7889">CpuTimeRoutingLimiter(Duration)</text><line style="stroke:#5E5E5E;stroke-width:1.0416666666666667;" x1="20.5729" x2="86.7188" y1="213.7136" y2="213.7136"/><text fill="#D8BC00" font-family="Open Sans,Avenir,Nunito,Arial,Helvetica,SansSerif" font-size="11.4583" lengthAdjust="spacing" textLength="81.25" x="89.8438" y="217.5232">(constructors)</text><line style="stroke:#5E5E5E;stroke-width:1.0416666666666667;" x1="174.2188" x2="240.3646" y1="213.7136" y2="213.7136"/><rect codeLine="17" fill="#282828" height="83.3781" id="DistanceRoutingLimiter" rx="8.3333" ry="8.3333" style="stroke:#5E5E5E;stroke-width:1.0416666666666667;" width="218.75" x="278.3854" y="164.1195"/><rect fill="#1B1B1A" height="31.3883" rx="8.3333" ry="8.3333" style="stroke:#1B1B1A;stroke-width:1.0416666666666667;" width="218.75" x="278.3854" y="164.1195"/><rect fill="#1B1B1A" height="8.3333" style="stroke:#1B1B1A;stroke-width:1.0416666666666667;" width="218.75" x="278.3854" y="187.1745"/><rect codeLine="17" fill="none" height="83.3781" id="DistanceRoutingLimiter" rx="8.3333" ry="8.3333" style="stroke:#5E5E5E;stroke-width:1.0416666666666667;" width="218.75" x="278.3854" y="164.1195"/><ellipse cx="305.625" cy="179.8136" fill="#0066CF" rx="10.4167" ry="10.4167" style="stroke:#0086EF;stroke-width:1.0416666666666667;"/><path d="M307.5354,184.2387 Q307.1082,184.4584 306.6382,184.5683 Q306.1682,184.6781 305.6494,184.6781 Q303.8062,184.6781 302.8357,183.4635 Q301.8652,182.2489 301.8652,179.954 Q301.8652,177.653 302.8357,176.4384 Q303.8062,175.2238 305.6494,175.2238 Q306.1682,175.2238 306.6443,175.3337 Q307.1204,175.4435 307.5354,175.6632 L307.5354,177.6652 Q307.0715,177.238 306.6351,177.0396 Q306.1987,176.8412 305.7349,176.8412 Q304.7461,176.8412 304.2426,177.6255 Q303.739,178.4098 303.739,179.954 Q303.739,181.4921 304.2426,182.2764 Q304.7461,183.0607 305.7349,183.0607 Q306.1987,183.0607 306.6351,182.8623 Q307.0715,182.664 307.5354,182.2367 Z " fill="#000000"/><text fill="#D8BC00" font-family="Open Sans,Avenir,Nunito,Arial,Helvetica,SansSerif" font-size="12.5" font-weight="bold" lengthAdjust="spacing" textLength="153.125" x="325.1042" y="184.5378">DistanceRoutingLimiter</text><line style="stroke:#5E5E5E;stroke-width:1.5625;" x1="279.4271" x2="496.0938" y1="195.5078" y2="195.5078"/><ellipse cx="289.8438" cy="230.8777" fill="#84BE84" rx="3.125" ry="3.125" style="stroke:#038048;stroke-width:1.0416666666666667;"/><text fill="#D8BC00" font-family="Open Sans,Avenir,Nunito,Arial,Helvetica,SansSerif" font-size="11.4583" lengthAdjust="spacing" textLength="186.4583" x="301.3021" y="237.7889">DistanceRoutingLimiter(Distance)</text><line style="stroke:#5E5E5E;stroke-width:1.0416666666666667;" x1="279.4271" x2="344.0104" y1="213.7136" y2="213.7136"/><text fill="#D8BC00" font-family="Open Sans,Avenir,Nunito,Arial,Helvetica,SansSerif" font-size="11.4583" lengthAdjust="spacing" textLength="81.25" x="347.1354" y="217.5232">(constructors)</text><line style="stroke:#5E5E5E;stroke-width:1.0416666666666667;" x1="431.5104" x2="496.0938" y1="213.7136" y2="213.7136"/><path codeLine="9" d="M219.7708,116.8903 C204.6667,131.7549 187.3229,148.8174 171.9688,163.9215 " fill="none" id="RoutingLimiter-backto-CpuTimeRoutingLimiter" style="stroke:#545454;stroke-width:1.5625;"/><polygon fill="none" points="215.125,111.234,235.0938,101.8174,225.3542,121.6299,215.125,111.234" style="stroke:#545454;stroke-width:1.5625;"/><path codeLine="16" d="M297.25,116.4215 C312.5938,131.3903 330.2813,148.6507 345.9271,163.9215 " fill="none" id="RoutingLimiter-backto-DistanceRoutingLimiter" style="stroke:#545454;stroke-width:1.5625;"/><polygon fill="none" points="292.1042,121.5882,282.2813,101.8174,302.2917,111.1507,292.1042,121.5882" style="stroke:#545454;stroke-width:1.5625;"/></g></svg>
