<?xml version="1.0" encoding="UTF-8" standalone="no"?><svg xmlns="http://www.w3.org/2000/svg" xmlns:xlink="http://www.w3.org/1999/xlink" contentScriptType="application/ecmascript" contentStyleType="text/css" height="218.75px" preserveAspectRatio="none" style="width:538px;height:218px;background:#333333;" version="1.1" viewBox="0 0 538 218" width="538.5417px" zoomAndPan="magnify"><defs/><g><rect fill="#48494B" height="41.2028" rx="8.3333" ry="8.3333" style="stroke:#545454;stroke-width:1.0416666666666667;" width="526.0417" x="2.0833" y="2.0833"/><text fill="#C0C0C0" font-family="Open Sans,Avenir,Nunito,Arial,Helvetica,SansSerif" font-size="20.8333" lengthAdjust="spacing" textLength="503.125" x="13.5417" y="30.5583">com.telenav.mesakit.navigation.routing.promoters</text><rect codeLine="7" fill="#282828" height="48.055" id="LevelPromoter" rx="8.3333" ry="8.3333" style="stroke:#5E5E5E;stroke-width:1.0416666666666667;" width="130.2083" x="207.2917" y="53.7028"/><rect fill="#1B1B1A" height="31.3883" rx="8.3333" ry="8.3333" style="stroke:#1B1B1A;stroke-width:1.0416666666666667;" width="130.2083" x="207.2917" y="53.7028"/><rect fill="#1B1B1A" height="8.3333" style="stroke:#1B1B1A;stroke-width:1.0416666666666667;" width="130.2083" x="207.2917" y="76.7578"/><rect codeLine="7" fill="none" height="48.055" id="LevelPromoter" rx="8.3333" ry="8.3333" style="stroke:#5E5E5E;stroke-width:1.0416666666666667;" width="130.2083" x="207.2917" y="53.7028"/><ellipse cx="221.875" cy="69.397" fill="#008400" rx="10.4167" ry="10.4167" style="stroke:#239C23;stroke-width:1.0416666666666667;"/><path d="M219.279,66.5588 L219.279,64.9719 L224.705,64.9719 L224.705,66.5588 L222.8923,66.5588 L222.8923,72.4976 L224.705,72.4976 L224.705,74.0845 L219.279,74.0845 L219.279,72.4976 L221.0917,72.4976 L221.0917,66.5588 Z " fill="#000000"/><text fill="#D8BC00" font-family="Open Sans,Avenir,Nunito,Arial,Helvetica,SansSerif" font-size="12.5" font-style="italic" font-weight="bold" lengthAdjust="spacing" textLength="92.7083" x="238.5417" y="74.1211">LevelPromoter</text><line style="stroke:#5E5E5E;stroke-width:1.0416666666666667;" x1="208.3333" x2="336.4583" y1="85.0911" y2="85.0911"/><line style="stroke:#5E5E5E;stroke-width:1.0416666666666667;" x1="208.3333" x2="336.4583" y1="93.4245" y2="93.4245"/><rect codeLine="10" fill="#282828" height="48.055" id="FunctionalClassCounterLevelPromoter" rx="8.3333" ry="8.3333" style="stroke:#5E5E5E;stroke-width:1.0416666666666667;" width="285.4167" x="129.6875" y="164.1195"/><rect fill="#1B1B1A" height="31.3883" rx="8.3333" ry="8.3333" style="stroke:#1B1B1A;stroke-width:1.0416666666666667;" width="285.4167" x="129.6875" y="164.1195"/><rect fill="#1B1B1A" height="8.3333" style="stroke:#1B1B1A;stroke-width:1.0416666666666667;" width="285.4167" x="129.6875" y="187.1745"/><rect codeLine="10" fill="none" height="48.055" id="FunctionalClassCounterLevelPromoter" rx="8.3333" ry="8.3333" style="stroke:#5E5E5E;stroke-width:1.0416666666666667;" width="285.4167" x="129.6875" y="164.1195"/><ellipse cx="144.2708" cy="179.8136" fill="#0066CF" rx="10.4167" ry="10.4167" style="stroke:#0086EF;stroke-width:1.0416666666666667;"/><path d="M146.1812,184.2387 Q145.754,184.4584 145.284,184.5683 Q144.814,184.6781 144.2952,184.6781 Q142.452,184.6781 141.4815,183.4635 Q140.5111,182.2489 140.5111,179.954 Q140.5111,177.653 141.4815,176.4384 Q142.452,175.2238 144.2952,175.2238 Q144.814,175.2238 145.2901,175.3337 Q145.7662,175.4435 146.1812,175.6632 L146.1812,177.6652 Q145.7174,177.238 145.281,177.0396 Q144.8446,176.8412 144.3807,176.8412 Q143.3919,176.8412 142.8884,177.6255 Q142.3848,178.4098 142.3848,179.954 Q142.3848,181.4921 142.8884,182.2764 Q143.3919,183.0607 144.3807,183.0607 Q144.8446,183.0607 145.281,182.8623 Q145.7174,182.664 146.1812,182.2367 Z " fill="#000000"/><text fill="#D8BC00" font-family="Open Sans,Avenir,Nunito,Arial,Helvetica,SansSerif" font-size="12.5" font-weight="bold" lengthAdjust="spacing" textLength="247.9167" x="160.9375" y="184.5378">FunctionalClassCounterLevelPromoter</text><line style="stroke:#5E5E5E;stroke-width:1.0416666666666667;" x1="130.7292" x2="414.0625" y1="195.5078" y2="195.5078"/><line style="stroke:#5E5E5E;stroke-width:1.0416666666666667;" x1="130.7292" x2="414.0625" y1="203.8411" y2="203.8411"/><path codeLine="9" d="M272.3958,122.6195 C272.3958,136.8382 272.3958,152.0361 272.3958,164.0986 " fill="none" id="LevelPromoter-backto-FunctionalClassCounterLevelPromoter" style="stroke:#545454;stroke-width:1.5625;"/><polygon fill="none" points="265.1042,122.5153,272.3958,101.682,279.6875,122.5153,265.1042,122.5153" style="stroke:#545454;stroke-width:1.5625;"/></g></svg>
