<?xml version="1.0" encoding="UTF-8" standalone="no"?><svg xmlns="http://www.w3.org/2000/svg" xmlns:xlink="http://www.w3.org/1999/xlink" contentScriptType="application/ecmascript" contentStyleType="text/css" height="218.75px" preserveAspectRatio="none" style="width:505px;height:218px;background:#333333;" version="1.1" viewBox="0 0 505 218" width="505.2083px" zoomAndPan="magnify"><defs/><g><rect fill="#48494B" height="41.2028" rx="8.3333" ry="8.3333" style="stroke:#545454;stroke-width:1.0416666666666667;" width="427.0833" x="32.0313" y="2.0833"/><text fill="#C0C0C0" font-family="Open Sans,Avenir,Nunito,Arial,Helvetica,SansSerif" font-size="20.8333" lengthAdjust="spacing" textLength="404.1667" x="43.4896" y="30.5583">com.telenav.mesakit.map.region.lexakai</text><rect codeLine="7" fill="#282828" height="48.055" id="UmlDiagramIdentifier" rx="8.3333" ry="8.3333" style="stroke:#5E5E5E;stroke-width:1.0416666666666667;" width="178.125" x="158.8542" y="53.7028"/><rect fill="#1B1B1A" height="31.3883" rx="8.3333" ry="8.3333" style="stroke:#1B1B1A;stroke-width:1.0416666666666667;" width="178.125" x="158.8542" y="53.7028"/><rect fill="#1B1B1A" height="8.3333" style="stroke:#1B1B1A;stroke-width:1.0416666666666667;" width="178.125" x="158.8542" y="76.7578"/><rect codeLine="7" fill="none" height="48.055" id="UmlDiagramIdentifier" rx="8.3333" ry="8.3333" style="stroke:#5E5E5E;stroke-width:1.0416666666666667;" width="178.125" x="158.8542" y="53.7028"/><ellipse cx="173.4375" cy="69.397" fill="#008400" rx="10.4167" ry="10.4167" style="stroke:#239C23;stroke-width:1.0416666666666667;"/><path d="M170.8415,66.5588 L170.8415,64.9719 L176.2675,64.9719 L176.2675,66.5588 L174.4548,66.5588 L174.4548,72.4976 L176.2675,72.4976 L176.2675,74.0845 L170.8415,74.0845 L170.8415,72.4976 L172.6542,72.4976 L172.6542,66.5588 Z " fill="#000000"/><text fill="#D8BC00" font-family="Open Sans,Avenir,Nunito,Arial,Helvetica,SansSerif" font-size="12.5" font-style="italic" font-weight="bold" lengthAdjust="spacing" textLength="140.625" x="190.1042" y="74.1211">UmlDiagramIdentifier</text><line style="stroke:#5E5E5E;stroke-width:1.0416666666666667;" x1="159.8958" x2="335.9375" y1="85.0911" y2="85.0911"/><line style="stroke:#5E5E5E;stroke-width:1.0416666666666667;" x1="159.8958" x2="335.9375" y1="93.4245" y2="93.4245"/><rect codeLine="10" fill="#282828" height="48.055" id="DiagramBorder" rx="8.3333" ry="8.3333" style="stroke:#5E5E5E;stroke-width:1.0416666666666667;" width="135.4167" x="7.2917" y="164.1195"/><rect fill="#1B1B1A" height="31.3883" rx="8.3333" ry="8.3333" style="stroke:#1B1B1A;stroke-width:1.0416666666666667;" width="135.4167" x="7.2917" y="164.1195"/><rect fill="#1B1B1A" height="8.3333" style="stroke:#1B1B1A;stroke-width:1.0416666666666667;" width="135.4167" x="7.2917" y="187.1745"/><rect codeLine="10" fill="none" height="48.055" id="DiagramBorder" rx="8.3333" ry="8.3333" style="stroke:#5E5E5E;stroke-width:1.0416666666666667;" width="135.4167" x="7.2917" y="164.1195"/><ellipse cx="21.875" cy="179.8136" fill="#0066CF" rx="10.4167" ry="10.4167" style="stroke:#0086EF;stroke-width:1.0416666666666667;"/><path d="M23.7854,184.2387 Q23.3582,184.4584 22.8882,184.5683 Q22.4182,184.6781 21.8994,184.6781 Q20.0562,184.6781 19.0857,183.4635 Q18.1152,182.2489 18.1152,179.954 Q18.1152,177.653 19.0857,176.4384 Q20.0562,175.2238 21.8994,175.2238 Q22.4182,175.2238 22.8943,175.3337 Q23.3704,175.4435 23.7854,175.6632 L23.7854,177.6652 Q23.3215,177.238 22.8851,177.0396 Q22.4487,176.8412 21.9849,176.8412 Q20.9961,176.8412 20.4926,177.6255 Q19.989,178.4098 19.989,179.954 Q19.989,181.4921 20.4926,182.2764 Q20.9961,183.0607 21.9849,183.0607 Q22.4487,183.0607 22.8851,182.8623 Q23.3215,182.664 23.7854,182.2367 Z " fill="#000000"/><text fill="#D8BC00" font-family="Open Sans,Avenir,Nunito,Arial,Helvetica,SansSerif" font-size="12.5" font-weight="bold" lengthAdjust="spacing" textLength="97.9167" x="38.5417" y="184.5378">DiagramBorder</text><line style="stroke:#5E5E5E;stroke-width:1.0416666666666667;" x1="8.3333" x2="141.6667" y1="195.5078" y2="195.5078"/><line style="stroke:#5E5E5E;stroke-width:1.0416666666666667;" x1="8.3333" x2="141.6667" y1="203.8411" y2="203.8411"/><rect codeLine="15" fill="#282828" height="48.055" id="DiagramRegion" rx="8.3333" ry="8.3333" style="stroke:#5E5E5E;stroke-width:1.0416666666666667;" width="137.5" x="179.1667" y="164.1195"/><rect fill="#1B1B1A" height="31.3883" rx="8.3333" ry="8.3333" style="stroke:#1B1B1A;stroke-width:1.0416666666666667;" width="137.5" x="179.1667" y="164.1195"/><rect fill="#1B1B1A" height="8.3333" style="stroke:#1B1B1A;stroke-width:1.0416666666666667;" width="137.5" x="179.1667" y="187.1745"/><rect codeLine="15" fill="none" height="48.055" id="DiagramRegion" rx="8.3333" ry="8.3333" style="stroke:#5E5E5E;stroke-width:1.0416666666666667;" width="137.5" x="179.1667" y="164.1195"/><ellipse cx="193.75" cy="179.8136" fill="#0066CF" rx="10.4167" ry="10.4167" style="stroke:#0086EF;stroke-width:1.0416666666666667;"/><path d="M195.6604,184.2387 Q195.2332,184.4584 194.7632,184.5683 Q194.2932,184.6781 193.7744,184.6781 Q191.9312,184.6781 190.9607,183.4635 Q189.9902,182.2489 189.9902,179.954 Q189.9902,177.653 190.9607,176.4384 Q191.9312,175.2238 193.7744,175.2238 Q194.2932,175.2238 194.7693,175.3337 Q195.2454,175.4435 195.6604,175.6632 L195.6604,177.6652 Q195.1965,177.238 194.7601,177.0396 Q194.3237,176.8412 193.8599,176.8412 Q192.8711,176.8412 192.3676,177.6255 Q191.864,178.4098 191.864,179.954 Q191.864,181.4921 192.3676,182.2764 Q192.8711,183.0607 193.8599,183.0607 Q194.3237,183.0607 194.7601,182.8623 Q195.1965,182.664 195.6604,182.2367 Z " fill="#000000"/><text fill="#D8BC00" font-family="Open Sans,Avenir,Nunito,Arial,Helvetica,SansSerif" font-size="12.5" font-weight="bold" lengthAdjust="spacing" textLength="100" x="210.4167" y="184.5378">DiagramRegion</text><line style="stroke:#5E5E5E;stroke-width:1.0416666666666667;" x1="180.2083" x2="315.625" y1="195.5078" y2="195.5078"/><line style="stroke:#5E5E5E;stroke-width:1.0416666666666667;" x1="180.2083" x2="315.625" y1="203.8411" y2="203.8411"/><rect codeLine="20" fill="#282828" height="48.055" id="DiagramRegions" rx="8.3333" ry="8.3333" style="stroke:#5E5E5E;stroke-width:1.0416666666666667;" width="144.7917" x="353.6458" y="164.1195"/><rect fill="#1B1B1A" height="31.3883" rx="8.3333" ry="8.3333" style="stroke:#1B1B1A;stroke-width:1.0416666666666667;" width="144.7917" x="353.6458" y="164.1195"/><rect fill="#1B1B1A" height="8.3333" style="stroke:#1B1B1A;stroke-width:1.0416666666666667;" width="144.7917" x="353.6458" y="187.1745"/><rect codeLine="20" fill="none" height="48.055" id="DiagramRegions" rx="8.3333" ry="8.3333" style="stroke:#5E5E5E;stroke-width:1.0416666666666667;" width="144.7917" x="353.6458" y="164.1195"/><ellipse cx="368.2292" cy="179.8136" fill="#0066CF" rx="10.4167" ry="10.4167" style="stroke:#0086EF;stroke-width:1.0416666666666667;"/><path d="M370.1396,184.2387 Q369.7123,184.4584 369.2424,184.5683 Q368.7724,184.6781 368.2536,184.6781 Q366.4103,184.6781 365.4399,183.4635 Q364.4694,182.2489 364.4694,179.954 Q364.4694,177.653 365.4399,176.4384 Q366.4103,175.2238 368.2536,175.2238 Q368.7724,175.2238 369.2485,175.3337 Q369.7245,175.4435 370.1396,175.6632 L370.1396,177.6652 Q369.6757,177.238 369.2393,177.0396 Q368.8029,176.8412 368.339,176.8412 Q367.3503,176.8412 366.8467,177.6255 Q366.3432,178.4098 366.3432,179.954 Q366.3432,181.4921 366.8467,182.2764 Q367.3503,183.0607 368.339,183.0607 Q368.8029,183.0607 369.2393,182.8623 Q369.6757,182.664 370.1396,182.2367 Z " fill="#000000"/><text fill="#D8BC00" font-family="Open Sans,Avenir,Nunito,Arial,Helvetica,SansSerif" font-size="12.5" font-weight="bold" lengthAdjust="spacing" textLength="107.2917" x="384.8958" y="184.5378">DiagramRegions</text><line style="stroke:#5E5E5E;stroke-width:1.0416666666666667;" x1="354.6875" x2="497.3958" y1="195.5078" y2="195.5078"/><line style="stroke:#5E5E5E;stroke-width:1.0416666666666667;" x1="354.6875" x2="497.3958" y1="203.8411" y2="203.8411"/><path codeLine="9" d="M193.2813,112.932 C166.6458,129.6195 135.3333,149.234 111.6146,164.0986 " fill="none" id="UmlDiagramIdentifier-backto-DiagramBorder" style="stroke:#545454;stroke-width:1.5625;"/><polygon fill="none" points="189.7188,106.557,211.25,101.682,197.4583,118.9215,189.7188,106.557" style="stroke:#545454;stroke-width:1.5625;"/><path codeLine="14" d="M247.9167,122.6195 C247.9167,136.8382 247.9167,152.0361 247.9167,164.0986 " fill="none" id="UmlDiagramIdentifier-backto-DiagramRegion" style="stroke:#545454;stroke-width:1.5625;"/><polygon fill="none" points="240.625,122.5153,247.9167,101.682,255.2083,122.5153,240.625,122.5153" style="stroke:#545454;stroke-width:1.5625;"/><path codeLine="19" d="M303.8021,112.6924 C331.3229,129.432 363.7708,149.1611 388.3229,164.0986 " fill="none" id="UmlDiagramIdentifier-backto-DiagramRegions" style="stroke:#545454;stroke-width:1.5625;"/><polygon fill="none" points="299.7083,118.734,285.6875,101.682,307.2813,106.2757,299.7083,118.734" style="stroke:#545454;stroke-width:1.5625;"/></g></svg>
