<?xml version="1.0" encoding="UTF-8" standalone="no"?><svg xmlns="http://www.w3.org/2000/svg" xmlns:xlink="http://www.w3.org/1999/xlink" contentScriptType="application/ecmascript" contentStyleType="text/css" height="218.75px" preserveAspectRatio="none" style="width:472px;height:218px;background:#333333;" version="1.1" viewBox="0 0 472 218" width="472.9167px" zoomAndPan="magnify"><defs/><g><rect fill="#48494B" height="41.2028" rx="8.3333" ry="8.3333" style="stroke:#545454;stroke-width:1.0416666666666667;" width="460.4167" x="2.0833" y="2.0833"/><text fill="#C0C0C0" font-family="Open Sans,Avenir,Nunito,Arial,Helvetica,SansSerif" font-size="20.8333" lengthAdjust="spacing" textLength="437.5" x="13.5417" y="30.5583">com.telenav.mesakit.map.ui.desktop.theme</text><rect codeLine="7" fill="#282828" height="48.055" id="MapColors" rx="8.3333" ry="8.3333" style="stroke:#5E5E5E;stroke-width:1.0416666666666667;" width="107.2917" x="110.9375" y="53.7028"/><rect fill="#1B1B1A" height="31.3883" rx="8.3333" ry="8.3333" style="stroke:#1B1B1A;stroke-width:1.0416666666666667;" width="107.2917" x="110.9375" y="53.7028"/><rect fill="#1B1B1A" height="8.3333" style="stroke:#1B1B1A;stroke-width:1.0416666666666667;" width="107.2917" x="110.9375" y="76.7578"/><rect codeLine="7" fill="none" height="48.055" id="MapColors" rx="8.3333" ry="8.3333" style="stroke:#5E5E5E;stroke-width:1.0416666666666667;" width="107.2917" x="110.9375" y="53.7028"/><ellipse cx="125.5208" cy="69.397" fill="#0066CF" rx="10.4167" ry="10.4167" style="stroke:#0086EF;stroke-width:1.0416666666666667;"/><path d="M127.4312,73.822 Q127.004,74.0417 126.534,74.1516 Q126.064,74.2615 125.5452,74.2615 Q123.702,74.2615 122.7315,73.0469 Q121.7611,71.8323 121.7611,69.5374 Q121.7611,67.2363 122.7315,66.0217 Q123.702,64.8071 125.5452,64.8071 Q126.064,64.8071 126.5401,64.917 Q127.0162,65.0269 127.4312,65.2466 L127.4312,67.2485 Q126.9674,66.8213 126.531,66.6229 Q126.0946,66.4246 125.6307,66.4246 Q124.6419,66.4246 124.1384,67.2089 Q123.6348,67.9932 123.6348,69.5374 Q123.6348,71.0754 124.1384,71.8597 Q124.6419,72.644 125.6307,72.644 Q126.0946,72.644 126.531,72.4457 Q126.9674,72.2473 127.4312,71.8201 Z " fill="#000000"/><text fill="#D8BC00" font-family="Open Sans,Avenir,Nunito,Arial,Helvetica,SansSerif" font-size="12.5" font-weight="bold" lengthAdjust="spacing" textLength="69.7917" x="142.1875" y="74.1211">MapColors</text><line style="stroke:#5E5E5E;stroke-width:1.0416666666666667;" x1="111.9792" x2="217.1875" y1="85.0911" y2="85.0911"/><line style="stroke:#5E5E5E;stroke-width:1.0416666666666667;" x1="111.9792" x2="217.1875" y1="93.4245" y2="93.4245"/><rect codeLine="11" fill="#282828" height="48.055" id="MapStrokes" rx="8.3333" ry="8.3333" style="stroke:#5E5E5E;stroke-width:1.0416666666666667;" width="113.5417" x="254.6875" y="53.7028"/><rect fill="#1B1B1A" height="31.3883" rx="8.3333" ry="8.3333" style="stroke:#1B1B1A;stroke-width:1.0416666666666667;" width="113.5417" x="254.6875" y="53.7028"/><rect fill="#1B1B1A" height="8.3333" style="stroke:#1B1B1A;stroke-width:1.0416666666666667;" width="113.5417" x="254.6875" y="76.7578"/><rect codeLine="11" fill="none" height="48.055" id="MapStrokes" rx="8.3333" ry="8.3333" style="stroke:#5E5E5E;stroke-width:1.0416666666666667;" width="113.5417" x="254.6875" y="53.7028"/><ellipse cx="269.2708" cy="69.397" fill="#0066CF" rx="10.4167" ry="10.4167" style="stroke:#0086EF;stroke-width:1.0416666666666667;"/><path d="M271.1812,73.822 Q270.754,74.0417 270.284,74.1516 Q269.814,74.2615 269.2952,74.2615 Q267.452,74.2615 266.4815,73.0469 Q265.5111,71.8323 265.5111,69.5374 Q265.5111,67.2363 266.4815,66.0217 Q267.452,64.8071 269.2952,64.8071 Q269.814,64.8071 270.2901,64.917 Q270.7662,65.0269 271.1812,65.2466 L271.1812,67.2485 Q270.7174,66.8213 270.281,66.6229 Q269.8446,66.4246 269.3807,66.4246 Q268.3919,66.4246 267.8884,67.2089 Q267.3848,67.9932 267.3848,69.5374 Q267.3848,71.0754 267.8884,71.8597 Q268.3919,72.644 269.3807,72.644 Q269.8446,72.644 270.281,72.4457 Q270.7174,72.2473 271.1812,71.8201 Z " fill="#000000"/><text fill="#D8BC00" font-family="Open Sans,Avenir,Nunito,Arial,Helvetica,SansSerif" font-size="12.5" font-weight="bold" lengthAdjust="spacing" textLength="76.0417" x="285.9375" y="74.1211">MapStrokes</text><line style="stroke:#5E5E5E;stroke-width:1.0416666666666667;" x1="255.7292" x2="367.1875" y1="85.0911" y2="85.0911"/><line style="stroke:#5E5E5E;stroke-width:1.0416666666666667;" x1="255.7292" x2="367.1875" y1="93.4245" y2="93.4245"/><rect codeLine="15" fill="#282828" height="48.055" id="MapStyles" rx="8.3333" ry="8.3333" style="stroke:#5E5E5E;stroke-width:1.0416666666666667;" width="103.125" x="113.0208" y="164.1195"/><rect fill="#1B1B1A" height="31.3883" rx="8.3333" ry="8.3333" style="stroke:#1B1B1A;stroke-width:1.0416666666666667;" width="103.125" x="113.0208" y="164.1195"/><rect fill="#1B1B1A" height="8.3333" style="stroke:#1B1B1A;stroke-width:1.0416666666666667;" width="103.125" x="113.0208" y="187.1745"/><rect codeLine="15" fill="none" height="48.055" id="MapStyles" rx="8.3333" ry="8.3333" style="stroke:#5E5E5E;stroke-width:1.0416666666666667;" width="103.125" x="113.0208" y="164.1195"/><ellipse cx="127.6042" cy="179.8136" fill="#0066CF" rx="10.4167" ry="10.4167" style="stroke:#0086EF;stroke-width:1.0416666666666667;"/><path d="M129.5146,184.2387 Q129.0873,184.4584 128.6174,184.5683 Q128.1474,184.6781 127.6286,184.6781 Q125.7853,184.6781 124.8149,183.4635 Q123.8444,182.2489 123.8444,179.954 Q123.8444,177.653 124.8149,176.4384 Q125.7853,175.2238 127.6286,175.2238 Q128.1474,175.2238 128.6235,175.3337 Q129.0995,175.4435 129.5146,175.6632 L129.5146,177.6652 Q129.0507,177.238 128.6143,177.0396 Q128.1779,176.8412 127.714,176.8412 Q126.7253,176.8412 126.2217,177.6255 Q125.7182,178.4098 125.7182,179.954 Q125.7182,181.4921 126.2217,182.2764 Q126.7253,183.0607 127.714,183.0607 Q128.1779,183.0607 128.6143,182.8623 Q129.0507,182.664 129.5146,182.2367 Z " fill="#000000"/><text fill="#D8BC00" font-family="Open Sans,Avenir,Nunito,Arial,Helvetica,SansSerif" font-size="12.5" font-weight="bold" lengthAdjust="spacing" textLength="65.625" x="144.2708" y="184.5378">MapStyles</text><line style="stroke:#5E5E5E;stroke-width:1.0416666666666667;" x1="114.0625" x2="215.1042" y1="195.5078" y2="195.5078"/><line style="stroke:#5E5E5E;stroke-width:1.0416666666666667;" x1="114.0625" x2="215.1042" y1="203.8411" y2="203.8411"/></g></svg>
