<?xml version="1.0" encoding="UTF-8" standalone="no"?><svg xmlns="http://www.w3.org/2000/svg" xmlns:xlink="http://www.w3.org/1999/xlink" contentScriptType="application/ecmascript" contentStyleType="text/css" height="610.4167px" preserveAspectRatio="none" style="width:521px;height:610px;background:#333333;" version="1.1" viewBox="0 0 521 610" width="521.875px" zoomAndPan="magnify"><defs/><g><rect fill="#48494B" height="41.2028" rx="8.3333" ry="8.3333" style="stroke:#545454;stroke-width:1.0416666666666667;" width="461.4583" x="22.9167" y="2.0833"/><text fill="#C0C0C0" font-family="Open Sans,Avenir,Nunito,Arial,Helvetica,SansSerif" font-size="20.8333" lengthAdjust="spacing" textLength="438.5417" x="34.375" y="30.5583">com.telenav.mesakit.map.ui.desktop.viewer</text><rect codeLine="7" fill="#282828" height="83.3781" id="DrawableIdentifier" rx="8.3333" ry="8.3333" style="stroke:#5E5E5E;stroke-width:1.0416666666666667;" width="178.125" x="7.2917" y="55.7861"/><rect fill="#1B1B1A" height="31.3883" rx="8.3333" ry="8.3333" style="stroke:#1B1B1A;stroke-width:1.0416666666666667;" width="178.125" x="7.2917" y="55.7861"/><rect fill="#1B1B1A" height="8.3333" style="stroke:#1B1B1A;stroke-width:1.0416666666666667;" width="178.125" x="7.2917" y="78.8411"/><rect codeLine="7" fill="none" height="83.3781" id="DrawableIdentifier" rx="8.3333" ry="8.3333" style="stroke:#5E5E5E;stroke-width:1.0416666666666667;" width="178.125" x="7.2917" y="55.7861"/><ellipse cx="31.25" cy="71.4803" fill="#0066CF" rx="10.4167" ry="10.4167" style="stroke:#0086EF;stroke-width:1.0416666666666667;"/><path d="M33.1604,75.9054 Q32.7332,76.1251 32.2632,76.2349 Q31.7932,76.3448 31.2744,76.3448 Q29.4312,76.3448 28.4607,75.1302 Q27.4902,73.9156 27.4902,71.6207 Q27.4902,69.3197 28.4607,68.1051 Q29.4312,66.8905 31.2744,66.8905 Q31.7932,66.8905 32.2693,67.0003 Q32.7454,67.1102 33.1604,67.3299 L33.1604,69.3319 Q32.6965,68.9046 32.2601,68.7063 Q31.8237,68.5079 31.3599,68.5079 Q30.3711,68.5079 29.8676,69.2922 Q29.364,70.0765 29.364,71.6207 Q29.364,73.1588 29.8676,73.9431 Q30.3711,74.7274 31.3599,74.7274 Q31.8237,74.7274 32.2601,74.529 Q32.6965,74.3306 33.1604,73.9034 Z " fill="#000000"/><text fill="#D8BC00" font-family="Open Sans,Avenir,Nunito,Arial,Helvetica,SansSerif" font-size="12.5" font-weight="bold" lengthAdjust="spacing" textLength="119.7917" x="50" y="76.2044">DrawableIdentifier</text><line style="stroke:#5E5E5E;stroke-width:1.5625;" x1="8.3333" x2="184.375" y1="87.1745" y2="87.1745"/><ellipse cx="18.75" cy="122.5444" fill="#84BE84" rx="3.125" ry="3.125" style="stroke:#038048;stroke-width:1.0416666666666667;"/><text fill="#D8BC00" font-family="Open Sans,Avenir,Nunito,Arial,Helvetica,SansSerif" font-size="11.4583" lengthAdjust="spacing" textLength="145.8333" x="30.2083" y="129.4556">DrawableIdentifier(Object)</text><line style="stroke:#5E5E5E;stroke-width:1.0416666666666667;" x1="8.3333" x2="52.6042" y1="105.3802" y2="105.3802"/><text fill="#D8BC00" font-family="Open Sans,Avenir,Nunito,Arial,Helvetica,SansSerif" font-size="11.4583" lengthAdjust="spacing" textLength="81.25" x="55.7292" y="109.1899">(constructors)</text><line style="stroke:#5E5E5E;stroke-width:1.0416666666666667;" x1="140.1042" x2="184.375" y1="105.3802" y2="105.3802"/><rect codeLine="26" fill="#282828" height="210.1807" id="View" rx="8.3333" ry="8.3333" style="stroke:#5E5E5E;stroke-width:1.0416666666666667;" width="369.7917" x="78.125" y="203.7028"/><rect fill="#1B1B1A" height="31.3883" rx="8.3333" ry="8.3333" style="stroke:#1B1B1A;stroke-width:1.0416666666666667;" width="369.7917" x="78.125" y="203.7028"/><rect fill="#1B1B1A" height="8.3333" style="stroke:#1B1B1A;stroke-width:1.0416666666666667;" width="369.7917" x="78.125" y="226.7578"/><rect codeLine="26" fill="none" height="210.1807" id="View" rx="8.3333" ry="8.3333" style="stroke:#5E5E5E;stroke-width:1.0416666666666667;" width="369.7917" x="78.125" y="203.7028"/><ellipse cx="240.625" cy="219.397" fill="#008400" rx="10.4167" ry="10.4167" style="stroke:#239C23;stroke-width:1.0416666666666667;"/><path d="M238.029,216.5588 L238.029,214.9719 L243.455,214.9719 L243.455,216.5588 L241.6423,216.5588 L241.6423,222.4976 L243.455,222.4976 L243.455,224.0845 L238.029,224.0845 L238.029,222.4976 L239.8417,222.4976 L239.8417,216.5588 Z " fill="#000000"/><text fill="#D8BC00" font-family="Open Sans,Avenir,Nunito,Arial,Helvetica,SansSerif" font-size="12.5" font-style="italic" font-weight="bold" lengthAdjust="spacing" textLength="30.2083" x="263.5417" y="224.1211">View</text><line style="stroke:#5E5E5E;stroke-width:1.5625;" x1="79.1667" x2="446.875" y1="235.0911" y2="235.0911"/><line style="stroke:#5E5E5E;stroke-width:1.0416666666666667;" x1="79.1667" x2="446.875" y1="243.4245" y2="243.4245"/><ellipse cx="89.5833" cy="254.8828" fill="#84BE84" rx="3.125" ry="3.125" style="stroke:#038048;stroke-width:1.0416666666666667;"/><text fill="#D8BC00" font-family="Open Sans,Avenir,Nunito,Arial,Helvetica,SansSerif" font-size="11.4583" lengthAdjust="spacing" textLength="202.0833" x="101.0417" y="261.794">void pullToFront(DrawableIdentifier)</text><ellipse cx="89.5833" cy="274.6277" fill="#84BE84" rx="3.125" ry="3.125" style="stroke:#038048;stroke-width:1.0416666666666667;"/><text fill="#D8BC00" font-family="Open Sans,Avenir,Nunito,Arial,Helvetica,SansSerif" font-size="11.4583" lengthAdjust="spacing" textLength="292.7083" x="101.0417" y="281.5389">void update(DrawableIdentifier, MapDrawable object)</text><ellipse cx="89.5833" cy="318.2841" fill="#84BE84" rx="3.125" ry="3.125" style="stroke:#038048;stroke-width:1.0416666666666667;"/><text fill="#D8BC00" font-family="Open Sans,Avenir,Nunito,Arial,Helvetica,SansSerif" font-size="11.4583" lengthAdjust="spacing" textLength="130.2083" x="101.0417" y="325.1953">void add(MapDrawable)</text><ellipse cx="89.5833" cy="338.029" fill="#84BE84" rx="3.125" ry="3.125" style="stroke:#038048;stroke-width:1.0416666666666667;"/><text fill="#D8BC00" font-family="Open Sans,Avenir,Nunito,Arial,Helvetica,SansSerif" font-size="11.4583" lengthAdjust="spacing" textLength="62.5" x="101.0417" y="344.9402">void clear()</text><ellipse cx="89.5833" cy="357.7738" fill="#84BE84" rx="3.125" ry="3.125" style="stroke:#038048;stroke-width:1.0416666666666667;"/><text fill="#D8BC00" font-family="Open Sans,Avenir,Nunito,Arial,Helvetica,SansSerif" font-size="11.4583" lengthAdjust="spacing" textLength="337.5" x="101.0417" y="364.6851">void map(Function&lt;MapDrawable,MapDrawable&gt; consumer)</text><ellipse cx="89.5833" cy="377.5187" fill="#84BE84" rx="3.125" ry="3.125" style="stroke:#038048;stroke-width:1.0416666666666667;"/><text fill="#D8BC00" font-family="Open Sans,Avenir,Nunito,Arial,Helvetica,SansSerif" font-size="11.4583" lengthAdjust="spacing" textLength="204.1667" x="101.0417" y="384.4299">void pushToBack(DrawableIdentifier)</text><ellipse cx="89.5833" cy="397.2636" fill="#84BE84" rx="3.125" ry="3.125" style="stroke:#038048;stroke-width:1.0416666666666667;"/><text fill="#D8BC00" font-family="Open Sans,Avenir,Nunito,Arial,Helvetica,SansSerif" font-size="11.4583" lengthAdjust="spacing" textLength="178.125" x="101.0417" y="404.1748">void remove(DrawableIdentifier)</text><line style="stroke:#5E5E5E;stroke-width:1.0416666666666667;" x1="79.1667" x2="228.6458" y1="301.12" y2="301.12"/><text fill="#D8BC00" font-family="Open Sans,Avenir,Nunito,Arial,Helvetica,SansSerif" font-size="11.4583" lengthAdjust="spacing" textLength="62.5" x="231.7708" y="304.9296">(collection)</text><line style="stroke:#5E5E5E;stroke-width:1.0416666666666667;" x1="297.3958" x2="446.875" y1="301.12" y2="301.12"/><rect codeLine="15" fill="#282828" height="127.0345" id="InteractiveView" rx="8.3333" ry="8.3333" style="stroke:#5E5E5E;stroke-width:1.0416666666666667;" width="248.9583" x="138.5417" y="476.6195"/><rect fill="#1B1B1A" height="31.3883" rx="8.3333" ry="8.3333" style="stroke:#1B1B1A;stroke-width:1.0416666666666667;" width="248.9583" x="138.5417" y="476.6195"/><rect fill="#1B1B1A" height="8.3333" style="stroke:#1B1B1A;stroke-width:1.0416666666666667;" width="248.9583" x="138.5417" y="499.6745"/><rect codeLine="15" fill="none" height="127.0345" id="InteractiveView" rx="8.3333" ry="8.3333" style="stroke:#5E5E5E;stroke-width:1.0416666666666667;" width="248.9583" x="138.5417" y="476.6195"/><ellipse cx="206.7708" cy="492.3136" fill="#008400" rx="10.4167" ry="10.4167" style="stroke:#239C23;stroke-width:1.0416666666666667;"/><path d="M204.1748,489.4755 L204.1748,487.8886 L209.6008,487.8886 L209.6008,489.4755 L207.7881,489.4755 L207.7881,495.4142 L209.6008,495.4142 L209.6008,497.0011 L204.1748,497.0011 L204.1748,495.4142 L205.9875,495.4142 L205.9875,489.4755 Z " fill="#000000"/><text fill="#D8BC00" font-family="Open Sans,Avenir,Nunito,Arial,Helvetica,SansSerif" font-size="12.5" font-style="italic" font-weight="bold" lengthAdjust="spacing" textLength="97.9167" x="229.6875" y="497.0378">InteractiveView</text><line style="stroke:#5E5E5E;stroke-width:1.5625;" x1="139.5833" x2="386.4583" y1="508.0078" y2="508.0078"/><line style="stroke:#5E5E5E;stroke-width:1.0416666666666667;" x1="139.5833" x2="386.4583" y1="516.3411" y2="516.3411"/><ellipse cx="150" cy="527.7995" fill="#84BE84" rx="3.125" ry="3.125" style="stroke:#038048;stroke-width:1.0416666666666667;"/><text fill="#D8BC00" font-family="Open Sans,Avenir,Nunito,Arial,Helvetica,SansSerif" font-size="11.4583" lengthAdjust="spacing" textLength="120.8333" x="161.4583" y="534.7107">void frameComplete()</text><ellipse cx="150" cy="547.5444" fill="#84BE84" rx="3.125" ry="3.125" style="stroke:#038048;stroke-width:1.0416666666666667;"/><text fill="#D8BC00" font-family="Open Sans,Avenir,Nunito,Arial,Helvetica,SansSerif" font-size="11.4583" lengthAdjust="spacing" textLength="182.2917" x="161.4583" y="554.4556">void frameSpeed(Duration delay)</text><ellipse cx="150" cy="567.2892" fill="#84BE84" rx="3.125" ry="3.125" style="stroke:#038048;stroke-width:1.0416666666666667;"/><text fill="#D8BC00" font-family="Open Sans,Avenir,Nunito,Arial,Helvetica,SansSerif" font-size="11.4583" lengthAdjust="spacing" textLength="181.25" x="161.4583" y="574.2004">void zoomTo(Rectangle bounds)</text><ellipse cx="150" cy="587.0341" fill="#84BE84" rx="3.125" ry="3.125" style="stroke:#038048;stroke-width:1.0416666666666667;"/><text fill="#D8BC00" font-family="Open Sans,Avenir,Nunito,Arial,Helvetica,SansSerif" font-size="11.4583" lengthAdjust="spacing" textLength="216.6667" x="161.4583" y="593.9453">void zoomToContents(Percent margin)</text><rect codeLine="24" fill="#282828" height="48.055" id="Named" rx="8.3333" ry="8.3333" style="stroke:#5E5E5E;stroke-width:1.0416666666666667;" width="82.2917" x="221.875" y="73.4945"/><rect fill="#1B1B1A" height="31.3883" rx="8.3333" ry="8.3333" style="stroke:#1B1B1A;stroke-width:1.0416666666666667;" width="82.2917" x="221.875" y="73.4945"/><rect fill="#1B1B1A" height="8.3333" style="stroke:#1B1B1A;stroke-width:1.0416666666666667;" width="82.2917" x="221.875" y="96.5495"/><rect codeLine="24" fill="none" height="48.055" id="Named" rx="8.3333" ry="8.3333" style="stroke:#5E5E5E;stroke-width:1.0416666666666667;" width="82.2917" x="221.875" y="73.4945"/><ellipse cx="236.4583" cy="89.1886" fill="#008400" rx="10.4167" ry="10.4167" style="stroke:#239C23;stroke-width:1.0416666666666667;"/><path d="M233.8623,86.3505 L233.8623,84.7636 L239.2883,84.7636 L239.2883,86.3505 L237.4756,86.3505 L237.4756,92.2892 L239.2883,92.2892 L239.2883,93.8761 L233.8623,93.8761 L233.8623,92.2892 L235.675,92.2892 L235.675,86.3505 Z " fill="#000000"/><text fill="#D8BC00" font-family="Open Sans,Avenir,Nunito,Arial,Helvetica,SansSerif" font-size="12.5" font-style="italic" font-weight="bold" lengthAdjust="spacing" textLength="44.7917" x="253.125" y="93.9128">Named</text><line style="stroke:#5E5E5E;stroke-width:1.0416666666666667;" x1="222.9167" x2="303.125" y1="104.8828" y2="104.8828"/><line style="stroke:#5E5E5E;stroke-width:1.0416666666666667;" x1="222.9167" x2="303.125" y1="113.2161" y2="113.2161"/><rect codeLine="39" fill="#282828" height="87.5448" id="Viewer" rx="8.3333" ry="8.3333" style="stroke:#5E5E5E;stroke-width:1.0416666666666667;" width="173.9583" x="340.625" y="53.7028"/><rect fill="#1B1B1A" height="31.3883" rx="8.3333" ry="8.3333" style="stroke:#1B1B1A;stroke-width:1.0416666666666667;" width="173.9583" x="340.625" y="53.7028"/><rect fill="#1B1B1A" height="8.3333" style="stroke:#1B1B1A;stroke-width:1.0416666666666667;" width="173.9583" x="340.625" y="76.7578"/><rect codeLine="39" fill="none" height="87.5448" id="Viewer" rx="8.3333" ry="8.3333" style="stroke:#5E5E5E;stroke-width:1.0416666666666667;" width="173.9583" x="340.625" y="53.7028"/><ellipse cx="398.9583" cy="69.397" fill="#008400" rx="10.4167" ry="10.4167" style="stroke:#239C23;stroke-width:1.0416666666666667;"/><path d="M396.3623,66.5588 L396.3623,64.9719 L401.7883,64.9719 L401.7883,66.5588 L399.9756,66.5588 L399.9756,72.4976 L401.7883,72.4976 L401.7883,74.0845 L396.3623,74.0845 L396.3623,72.4976 L398.175,72.4976 L398.175,66.5588 Z " fill="#000000"/><text fill="#D8BC00" font-family="Open Sans,Avenir,Nunito,Arial,Helvetica,SansSerif" font-size="12.5" font-style="italic" font-weight="bold" lengthAdjust="spacing" textLength="42.7083" x="421.875" y="74.1211">Viewer</text><line style="stroke:#5E5E5E;stroke-width:1.5625;" x1="341.6667" x2="513.5417" y1="85.0911" y2="85.0911"/><line style="stroke:#5E5E5E;stroke-width:1.0416666666666667;" x1="341.6667" x2="513.5417" y1="93.4245" y2="93.4245"/><ellipse cx="352.0833" cy="104.8828" fill="#84BE84" rx="3.125" ry="3.125" style="stroke:#038048;stroke-width:1.0416666666666667;"/><text fill="#D8BC00" font-family="Open Sans,Avenir,Nunito,Arial,Helvetica,SansSerif" font-size="11.4583" lengthAdjust="spacing" textLength="117.7083" x="363.5417" y="111.794">View view(String title)</text><ellipse cx="352.0833" cy="124.6277" fill="#84BE84" rx="3.125" ry="3.125" style="stroke:#038048;stroke-width:1.0416666666666667;"/><text fill="#D8BC00" font-family="Open Sans,Avenir,Nunito,Arial,Helvetica,SansSerif" font-size="11.4583" lengthAdjust="spacing" textLength="141.6667" x="363.5417" y="131.5389">Collection&lt;View&gt; views()</text><path codeLine="14" d="M263.0208,435.1403 C263.0208,449.4424 263.0208,463.5153 263.0208,476.4632 " fill="none" id="View-backto-InteractiveView" style="stroke:#545454;stroke-width:1.5625;"/><polygon fill="none" points="255.7292,434.9736,263.0208,414.1403,270.3125,434.9736,255.7292,434.9736" style="stroke:#545454;stroke-width:1.5625;"/><path codeLine="25" d="M263.0208,142.5465 C263.0208,160.484 263.0208,182.0465 263.0208,203.5882 " fill="none" id="Named-backto-View" style="stroke:#545454;stroke-width:1.5625;"/><polygon fill="none" points="255.7292,142.5361,263.0208,121.7028,270.3125,142.5361,255.7292,142.5361" style="stroke:#545454;stroke-width:1.5625;"/></g></svg>
