<?xml version="1.0" encoding="UTF-8" standalone="no"?><svg xmlns="http://www.w3.org/2000/svg" xmlns:xlink="http://www.w3.org/1999/xlink" contentScriptType="application/ecmascript" contentStyleType="text/css" height="855.2083px" preserveAspectRatio="none" style="width:1760px;height:855px;background:#333333;" version="1.1" viewBox="0 0 1760 855" width="1760.4167px" zoomAndPan="magnify"><defs/><g><rect fill="#48494B" height="41.2028" rx="8.3333" ry="8.3333" style="stroke:#545454;stroke-width:1.0416666666666667;" width="268.75" x="738.5417" y="2.0833"/><text fill="#C0C0C0" font-family="Open Sans,Avenir,Nunito,Arial,Helvetica,SansSerif" font-size="20.8333" lengthAdjust="spacing" textLength="245.8333" x="750" y="30.5583">mesakit-map-examples</text><!--MD5=[4f079977920bf52107586fb847a1e92c]
entity kryo--><rect fill="#1B1B1A" height="44.93" rx="8.3333" ry="8.3333" style="stroke:#5E5E5E;stroke-width:1.5625;" width="63.5417" x="1342.1875" y="590.1611"/><polygon fill="#1B1B1A" points="1388.0208,595.3695,1388.0208,609.9528,1400.5208,609.9528,1400.5208,601.6195,1394.2708,595.3695,1388.0208,595.3695" style="stroke:#5E5E5E;stroke-width:1.5625;"/><line style="stroke:#5E5E5E;stroke-width:1.5625;" x1="1394.2708" x2="1394.2708" y1="595.3695" y2="601.6195"/><line style="stroke:#5E5E5E;stroke-width:1.5625;" x1="1400.5208" x2="1394.2708" y1="601.6195" y2="601.6195"/><text fill="#D8BC00" font-family="Open Sans,Avenir,Nunito,Arial,Helvetica,SansSerif" font-size="12.5" lengthAdjust="spacing" textLength="26.0417" x="1355.7292" y="618.9128">kryo</text><!--MD5=[745ab22dbfa32e29a2660b9e5bc2262a]
entity minlog--><rect fill="#1B1B1A" height="44.93" rx="8.3333" ry="8.3333" style="stroke:#5E5E5E;stroke-width:1.5625;" width="77.0833" x="1210.4167" y="697.4528"/><polygon fill="#1B1B1A" points="1269.7917,702.6611,1269.7917,717.2445,1282.2917,717.2445,1282.2917,708.9111,1276.0417,702.6611,1269.7917,702.6611" style="stroke:#5E5E5E;stroke-width:1.5625;"/><line style="stroke:#5E5E5E;stroke-width:1.5625;" x1="1276.0417" x2="1276.0417" y1="702.6611" y2="708.9111"/><line style="stroke:#5E5E5E;stroke-width:1.5625;" x1="1282.2917" x2="1276.0417" y1="708.9111" y2="708.9111"/><text fill="#D8BC00" font-family="Open Sans,Avenir,Nunito,Arial,Helvetica,SansSerif" font-size="12.5" lengthAdjust="spacing" textLength="39.5833" x="1223.9583" y="726.2044">minlog</text><!--MD5=[5d0bc62e6e2e5a8467f655d5e580826c]
entity reflectasm--><rect fill="#1B1B1A" height="44.93" rx="8.3333" ry="8.3333" style="stroke:#5E5E5E;stroke-width:1.5625;" width="100" x="1323.9583" y="697.4528"/><polygon fill="#1B1B1A" points="1406.25,702.6611,1406.25,717.2445,1418.75,717.2445,1418.75,708.9111,1412.5,702.6611,1406.25,702.6611" style="stroke:#5E5E5E;stroke-width:1.5625;"/><line style="stroke:#5E5E5E;stroke-width:1.5625;" x1="1412.5" x2="1412.5" y1="702.6611" y2="708.9111"/><line style="stroke:#5E5E5E;stroke-width:1.5625;" x1="1418.75" x2="1412.5" y1="708.9111" y2="708.9111"/><text fill="#D8BC00" font-family="Open Sans,Avenir,Nunito,Arial,Helvetica,SansSerif" font-size="12.5" lengthAdjust="spacing" textLength="62.5" x="1337.5" y="726.2044">reflectasm</text><!--MD5=[07375bd6ced801b2ef86c9d3f68eec61]
entity jackson_annotations--><rect fill="#1B1B1A" height="44.93" rx="8.3333" ry="8.3333" style="stroke:#5E5E5E;stroke-width:1.5625;" width="158.3333" x="7.2917" y="482.8695"/><polygon fill="#1B1B1A" points="147.9167,488.0778,147.9167,502.6611,160.4167,502.6611,160.4167,494.3278,154.1667,488.0778,147.9167,488.0778" style="stroke:#5E5E5E;stroke-width:1.5625;"/><line style="stroke:#5E5E5E;stroke-width:1.5625;" x1="154.1667" x2="154.1667" y1="488.0778" y2="494.3278"/><line style="stroke:#5E5E5E;stroke-width:1.5625;" x1="160.4167" x2="154.1667" y1="494.3278" y2="494.3278"/><text fill="#D8BC00" font-family="Open Sans,Avenir,Nunito,Arial,Helvetica,SansSerif" font-size="12.5" lengthAdjust="spacing" textLength="120.8333" x="20.8333" y="511.6211">jackson_annotations</text><!--MD5=[53e810a96c27d4bd25e6a3839aaba16b]
entity gson--><rect fill="#1B1B1A" height="44.93" rx="8.3333" ry="8.3333" style="stroke:#5E5E5E;stroke-width:1.5625;" width="65.625" x="1179.6875" y="590.1611"/><polygon fill="#1B1B1A" points="1227.6042,595.3695,1227.6042,609.9528,1240.1042,609.9528,1240.1042,601.6195,1233.8542,595.3695,1227.6042,595.3695" style="stroke:#5E5E5E;stroke-width:1.5625;"/><line style="stroke:#5E5E5E;stroke-width:1.5625;" x1="1233.8542" x2="1233.8542" y1="595.3695" y2="601.6195"/><line style="stroke:#5E5E5E;stroke-width:1.5625;" x1="1240.1042" x2="1233.8542" y1="601.6195" y2="601.6195"/><text fill="#D8BC00" font-family="Open Sans,Avenir,Nunito,Arial,Helvetica,SansSerif" font-size="12.5" lengthAdjust="spacing" textLength="28.125" x="1193.2292" y="618.9128">gson</text><!--MD5=[4aa4ddcf3dc6d6219283db0a9fd05165]
entity cactus_build_metadata--><rect fill="#1B1B1A" height="44.93" rx="8.3333" ry="8.3333" style="stroke:#5E5E5E;stroke-width:1.5625;" width="175" x="202.0833" y="482.8695"/><polygon fill="#1B1B1A" points="359.375,488.0778,359.375,502.6611,371.875,502.6611,371.875,494.3278,365.625,488.0778,359.375,488.0778" style="stroke:#5E5E5E;stroke-width:1.5625;"/><line style="stroke:#5E5E5E;stroke-width:1.5625;" x1="365.625" x2="365.625" y1="488.0778" y2="494.3278"/><line style="stroke:#5E5E5E;stroke-width:1.5625;" x1="371.875" x2="365.625" y1="494.3278" y2="494.3278"/><text fill="#D8BC00" font-family="Open Sans,Avenir,Nunito,Arial,Helvetica,SansSerif" font-size="12.5" lengthAdjust="spacing" textLength="137.5" x="215.625" y="511.6211">cactus_build_metadata</text><!--MD5=[45672d575b1ce7dfe271c63a1d4308c0]
entity kivakit_application--><rect fill="#1B1B1A" height="44.93" rx="8.3333" ry="8.3333" style="stroke:#5E5E5E;stroke-width:1.5625;" width="147.9167" x="1028.125" y="160.9945"/><polygon fill="#1B1B1A" points="1158.3333,166.2028,1158.3333,180.7861,1170.8333,180.7861,1170.8333,172.4528,1164.5833,166.2028,1158.3333,166.2028" style="stroke:#5E5E5E;stroke-width:1.5625;"/><line style="stroke:#5E5E5E;stroke-width:1.5625;" x1="1164.5833" x2="1164.5833" y1="166.2028" y2="172.4528"/><line style="stroke:#5E5E5E;stroke-width:1.5625;" x1="1170.8333" x2="1164.5833" y1="172.4528" y2="172.4528"/><text fill="#D8BC00" font-family="Open Sans,Avenir,Nunito,Arial,Helvetica,SansSerif" font-size="12.5" lengthAdjust="spacing" textLength="110.4167" x="1041.6667" y="189.7461">kivakit_application</text><!--MD5=[4facc4376e4b6bfc182ce14f42a813f9]
entity kivakit_collections--><rect fill="#1B1B1A" height="44.93" rx="8.3333" ry="8.3333" style="stroke:#5E5E5E;stroke-width:1.5625;" width="143.75" x="1305.2083" y="375.5778"/><polygon fill="#1B1B1A" points="1431.25,380.7861,1431.25,395.3695,1443.75,395.3695,1443.75,387.0361,1437.5,380.7861,1431.25,380.7861" style="stroke:#5E5E5E;stroke-width:1.5625;"/><line style="stroke:#5E5E5E;stroke-width:1.5625;" x1="1437.5" x2="1437.5" y1="380.7861" y2="387.0361"/><line style="stroke:#5E5E5E;stroke-width:1.5625;" x1="1443.75" x2="1437.5" y1="387.0361" y2="387.0361"/><text fill="#D8BC00" font-family="Open Sans,Avenir,Nunito,Arial,Helvetica,SansSerif" font-size="12.5" lengthAdjust="spacing" textLength="106.25" x="1318.75" y="404.3294">kivakit_collections</text><!--MD5=[b7af8d5b7902cf06664f76dfe0f9e426]
entity kivakit_commandline--><rect fill="#1B1B1A" height="44.93" rx="8.3333" ry="8.3333" style="stroke:#5E5E5E;stroke-width:1.5625;" width="162.5" x="760.4167" y="268.2861"/><polygon fill="#1B1B1A" points="905.2083,273.4945,905.2083,288.0778,917.7083,288.0778,917.7083,279.7445,911.4583,273.4945,905.2083,273.4945" style="stroke:#5E5E5E;stroke-width:1.5625;"/><line style="stroke:#5E5E5E;stroke-width:1.5625;" x1="911.4583" x2="911.4583" y1="273.4945" y2="279.7445"/><line style="stroke:#5E5E5E;stroke-width:1.5625;" x1="917.7083" x2="911.4583" y1="279.7445" y2="279.7445"/><text fill="#D8BC00" font-family="Open Sans,Avenir,Nunito,Arial,Helvetica,SansSerif" font-size="12.5" lengthAdjust="spacing" textLength="125" x="773.9583" y="297.0378">kivakit_commandline</text><!--MD5=[76998a0b8e8a034fd4dce74d4f636366]
entity kivakit_component--><rect fill="#1B1B1A" height="44.93" rx="8.3333" ry="8.3333" style="stroke:#5E5E5E;stroke-width:1.5625;" width="148.9583" x="1027.6042" y="268.2861"/><polygon fill="#1B1B1A" points="1158.8542,273.4945,1158.8542,288.0778,1171.3542,288.0778,1171.3542,279.7445,1165.1042,273.4945,1158.8542,273.4945" style="stroke:#5E5E5E;stroke-width:1.5625;"/><line style="stroke:#5E5E5E;stroke-width:1.5625;" x1="1165.1042" x2="1165.1042" y1="273.4945" y2="279.7445"/><line style="stroke:#5E5E5E;stroke-width:1.5625;" x1="1171.3542" x2="1165.1042" y1="279.7445" y2="279.7445"/><text fill="#D8BC00" font-family="Open Sans,Avenir,Nunito,Arial,Helvetica,SansSerif" font-size="12.5" lengthAdjust="spacing" textLength="111.4583" x="1041.1458" y="297.0378">kivakit_component</text><!--MD5=[c68e98f234d4ac85d03ca04aa775ddf3]
entity kivakit_configuration--><rect fill="#1B1B1A" height="44.93" rx="8.3333" ry="8.3333" style="stroke:#5E5E5E;stroke-width:1.5625;" width="159.375" x="1022.3958" y="375.5778"/><polygon fill="#1B1B1A" points="1164.0625,380.7861,1164.0625,395.3695,1176.5625,395.3695,1176.5625,387.0361,1170.3125,380.7861,1164.0625,380.7861" style="stroke:#5E5E5E;stroke-width:1.5625;"/><line style="stroke:#5E5E5E;stroke-width:1.5625;" x1="1170.3125" x2="1170.3125" y1="380.7861" y2="387.0361"/><line style="stroke:#5E5E5E;stroke-width:1.5625;" x1="1176.5625" x2="1170.3125" y1="387.0361" y2="387.0361"/><text fill="#D8BC00" font-family="Open Sans,Avenir,Nunito,Arial,Helvetica,SansSerif" font-size="12.5" lengthAdjust="spacing" textLength="121.875" x="1035.9375" y="404.3294">kivakit_configuration</text><!--MD5=[17eeaa61da6b3f8cb25de5876b62ec23]
entity kivakit_kernel--><rect fill="#1B1B1A" height="44.93" rx="8.3333" ry="8.3333" style="stroke:#5E5E5E;stroke-width:1.5625;" width="119.7917" x="529.6875" y="375.5778"/><polygon fill="#1B1B1A" points="631.7708,380.7861,631.7708,395.3695,644.2708,395.3695,644.2708,387.0361,638.0208,380.7861,631.7708,380.7861" style="stroke:#5E5E5E;stroke-width:1.5625;"/><line style="stroke:#5E5E5E;stroke-width:1.5625;" x1="638.0208" x2="638.0208" y1="380.7861" y2="387.0361"/><line style="stroke:#5E5E5E;stroke-width:1.5625;" x1="644.2708" x2="638.0208" y1="387.0361" y2="387.0361"/><text fill="#D8BC00" font-family="Open Sans,Avenir,Nunito,Arial,Helvetica,SansSerif" font-size="12.5" lengthAdjust="spacing" textLength="82.2917" x="543.2292" y="404.3294">kivakit_kernel</text><!--MD5=[777f537393e16daa648c56fbfeea7987]
entity kivakit_math--><rect fill="#1B1B1A" height="44.93" rx="8.3333" ry="8.3333" style="stroke:#5E5E5E;stroke-width:1.5625;" width="112.5" x="1361.4583" y="268.2861"/><polygon fill="#1B1B1A" points="1456.25,273.4945,1456.25,288.0778,1468.75,288.0778,1468.75,279.7445,1462.5,273.4945,1456.25,273.4945" style="stroke:#5E5E5E;stroke-width:1.5625;"/><line style="stroke:#5E5E5E;stroke-width:1.5625;" x1="1462.5" x2="1462.5" y1="273.4945" y2="279.7445"/><line style="stroke:#5E5E5E;stroke-width:1.5625;" x1="1468.75" x2="1462.5" y1="279.7445" y2="279.7445"/><text fill="#D8BC00" font-family="Open Sans,Avenir,Nunito,Arial,Helvetica,SansSerif" font-size="12.5" lengthAdjust="spacing" textLength="75" x="1375" y="297.0378">kivakit_math</text><!--MD5=[789122fdd47ca161e4432768ac68a470]
entity kivakit_resource--><rect fill="#1B1B1A" height="44.93" rx="8.3333" ry="8.3333" style="stroke:#5E5E5E;stroke-width:1.5625;" width="134.375" x="948.4375" y="482.8695"/><polygon fill="#1B1B1A" points="1065.1042,488.0778,1065.1042,502.6611,1077.6042,502.6611,1077.6042,494.3278,1071.3542,488.0778,1065.1042,488.0778" style="stroke:#5E5E5E;stroke-width:1.5625;"/><line style="stroke:#5E5E5E;stroke-width:1.5625;" x1="1071.3542" x2="1071.3542" y1="488.0778" y2="494.3278"/><line style="stroke:#5E5E5E;stroke-width:1.5625;" x1="1077.6042" x2="1071.3542" y1="494.3278" y2="494.3278"/><text fill="#D8BC00" font-family="Open Sans,Avenir,Nunito,Arial,Helvetica,SansSerif" font-size="12.5" lengthAdjust="spacing" textLength="96.875" x="961.9792" y="511.6211">kivakit_resource</text><!--MD5=[90c7e8c0eae90f7cdcf1e82754bc9c37]
entity kivakit_serialization_core--><rect fill="#1B1B1A" height="44.93" rx="8.3333" ry="8.3333" style="stroke:#5E5E5E;stroke-width:1.5625;" width="186.4583" x="922.3958" y="590.1611"/><polygon fill="#1B1B1A" points="1091.1458,595.3695,1091.1458,609.9528,1103.6458,609.9528,1103.6458,601.6195,1097.3958,595.3695,1091.1458,595.3695" style="stroke:#5E5E5E;stroke-width:1.5625;"/><line style="stroke:#5E5E5E;stroke-width:1.5625;" x1="1097.3958" x2="1097.3958" y1="595.3695" y2="601.6195"/><line style="stroke:#5E5E5E;stroke-width:1.5625;" x1="1103.6458" x2="1097.3958" y1="601.6195" y2="601.6195"/><text fill="#D8BC00" font-family="Open Sans,Avenir,Nunito,Arial,Helvetica,SansSerif" font-size="12.5" lengthAdjust="spacing" textLength="148.9583" x="935.9375" y="618.9128">kivakit_serialization_core</text><!--MD5=[71ec73b64d97786e160c020912518960]
entity kivakit_serialization_json--><rect fill="#1B1B1A" height="44.93" rx="8.3333" ry="8.3333" style="stroke:#5E5E5E;stroke-width:1.5625;" width="185.4167" x="1119.7917" y="482.8695"/><polygon fill="#1B1B1A" points="1287.5,488.0778,1287.5,502.6611,1300,502.6611,1300,494.3278,1293.75,488.0778,1287.5,488.0778" style="stroke:#5E5E5E;stroke-width:1.5625;"/><line style="stroke:#5E5E5E;stroke-width:1.5625;" x1="1293.75" x2="1293.75" y1="488.0778" y2="494.3278"/><line style="stroke:#5E5E5E;stroke-width:1.5625;" x1="1300" x2="1293.75" y1="494.3278" y2="494.3278"/><text fill="#D8BC00" font-family="Open Sans,Avenir,Nunito,Arial,Helvetica,SansSerif" font-size="12.5" lengthAdjust="spacing" textLength="147.9167" x="1133.3333" y="511.6211">kivakit_serialization_json</text><!--MD5=[7bf535908c90dd3c1fbc894d9b1c5a2e]
entity kivakit_serialization_kryo--><rect fill="#1B1B1A" height="44.93" rx="8.3333" ry="8.3333" style="stroke:#5E5E5E;stroke-width:1.5625;" width="186.4583" x="1342.1875" y="482.8695"/><polygon fill="#1B1B1A" points="1510.9375,488.0778,1510.9375,502.6611,1523.4375,502.6611,1523.4375,494.3278,1517.1875,488.0778,1510.9375,488.0778" style="stroke:#5E5E5E;stroke-width:1.5625;"/><line style="stroke:#5E5E5E;stroke-width:1.5625;" x1="1517.1875" x2="1517.1875" y1="488.0778" y2="494.3278"/><line style="stroke:#5E5E5E;stroke-width:1.5625;" x1="1523.4375" x2="1517.1875" y1="494.3278" y2="494.3278"/><text fill="#D8BC00" font-family="Open Sans,Avenir,Nunito,Arial,Helvetica,SansSerif" font-size="12.5" lengthAdjust="spacing" textLength="148.9583" x="1355.7292" y="511.6211">kivakit_serialization_kryo</text><!--MD5=[11024e5ca6382b1a0f630f967447af59]
entity kivakit_test--><rect fill="#1B1B1A" height="44.93" rx="8.3333" ry="8.3333" style="stroke:#5E5E5E;stroke-width:1.5625;" width="104.1667" x="1591.6667" y="268.2861"/><polygon fill="#1B1B1A" points="1678.125,273.4945,1678.125,288.0778,1690.625,288.0778,1690.625,279.7445,1684.375,273.4945,1678.125,273.4945" style="stroke:#5E5E5E;stroke-width:1.5625;"/><line style="stroke:#5E5E5E;stroke-width:1.5625;" x1="1684.375" x2="1684.375" y1="273.4945" y2="279.7445"/><line style="stroke:#5E5E5E;stroke-width:1.5625;" x1="1690.625" x2="1684.375" y1="279.7445" y2="279.7445"/><text fill="#D8BC00" font-family="Open Sans,Avenir,Nunito,Arial,Helvetica,SansSerif" font-size="12.5" lengthAdjust="spacing" textLength="66.6667" x="1605.2083" y="297.0378">kivakit_test</text><!--MD5=[7b0fec798d1f32628676dfdf75f1f662]
entity lexakai_annotations--><rect fill="#1B1B1A" height="44.93" rx="8.3333" ry="8.3333" style="stroke:#5E5E5E;stroke-width:1.5625;" width="155.2083" x="414.0625" y="482.8695"/><polygon fill="#1B1B1A" points="551.5625,488.0778,551.5625,502.6611,564.0625,502.6611,564.0625,494.3278,557.8125,488.0778,551.5625,488.0778" style="stroke:#5E5E5E;stroke-width:1.5625;"/><line style="stroke:#5E5E5E;stroke-width:1.5625;" x1="557.8125" x2="557.8125" y1="488.0778" y2="494.3278"/><line style="stroke:#5E5E5E;stroke-width:1.5625;" x1="564.0625" x2="557.8125" y1="494.3278" y2="494.3278"/><text fill="#D8BC00" font-family="Open Sans,Avenir,Nunito,Arial,Helvetica,SansSerif" font-size="12.5" lengthAdjust="spacing" textLength="117.7083" x="427.6042" y="511.6211">lexakai_annotations</text><!--MD5=[48022decdd9046edc2ee7eda9b6748e4]
entity mesakit_map_examples--><rect fill="#1B1B1A" height="44.93" rx="8.3333" ry="8.3333" style="stroke:#5E5E5E;stroke-width:1.5625;" width="182.2917" x="1163.0208" y="53.7028"/><polygon fill="#1B1B1A" points="1327.6042,58.9111,1327.6042,73.4945,1340.1042,73.4945,1340.1042,65.1611,1333.8542,58.9111,1327.6042,58.9111" style="stroke:#5E5E5E;stroke-width:1.5625;"/><line style="stroke:#5E5E5E;stroke-width:1.5625;" x1="1333.8542" x2="1333.8542" y1="58.9111" y2="65.1611"/><line style="stroke:#5E5E5E;stroke-width:1.5625;" x1="1340.1042" x2="1333.8542" y1="65.1611" y2="65.1611"/><text fill="#D8BC00" font-family="Open Sans,Avenir,Nunito,Arial,Helvetica,SansSerif" font-size="12.5" lengthAdjust="spacing" textLength="144.7917" x="1176.5625" y="82.4544">mesakit_map_examples</text><!--MD5=[c13f614f4eab1fb0a15a900fd22c77de]
entity mesakit_map_measurements--><rect fill="#1B1B1A" height="44.93" rx="8.3333" ry="8.3333" style="stroke:#5E5E5E;stroke-width:1.5625;" width="212.5" x="1311.4583" y="160.9945"/><polygon fill="#1B1B1A" points="1506.25,166.2028,1506.25,180.7861,1518.75,180.7861,1518.75,172.4528,1512.5,166.2028,1506.25,166.2028" style="stroke:#5E5E5E;stroke-width:1.5625;"/><line style="stroke:#5E5E5E;stroke-width:1.5625;" x1="1512.5" x2="1512.5" y1="166.2028" y2="172.4528"/><line style="stroke:#5E5E5E;stroke-width:1.5625;" x1="1518.75" x2="1512.5" y1="172.4528" y2="172.4528"/><text fill="#D8BC00" font-family="Open Sans,Avenir,Nunito,Arial,Helvetica,SansSerif" font-size="12.5" lengthAdjust="spacing" textLength="175" x="1325" y="189.7461">mesakit_map_measurements</text><!--MD5=[b9ccc173c089e3d2abf77c8581e74aca]
entity kryo_serializers--><rect fill="#1B1B1A" height="44.93" rx="8.3333" ry="8.3333" style="stroke:#5E5E5E;stroke-width:1.5625;" width="131.25" x="1442.7083" y="590.1611"/><polygon fill="#1B1B1A" points="1556.25,595.3695,1556.25,609.9528,1568.75,609.9528,1568.75,601.6195,1562.5,595.3695,1556.25,595.3695" style="stroke:#5E5E5E;stroke-width:1.5625;"/><line style="stroke:#5E5E5E;stroke-width:1.5625;" x1="1562.5" x2="1562.5" y1="595.3695" y2="601.6195"/><line style="stroke:#5E5E5E;stroke-width:1.5625;" x1="1568.75" x2="1562.5" y1="601.6195" y2="601.6195"/><text fill="#D8BC00" font-family="Open Sans,Avenir,Nunito,Arial,Helvetica,SansSerif" font-size="12.5" lengthAdjust="spacing" textLength="93.75" x="1456.25" y="618.9128">kryo_serializers</text><!--MD5=[23cc7f88cfa1ae4b54fca2963c42906f]
entity swagger_annotations--><rect fill="#1B1B1A" height="44.93" rx="8.3333" ry="8.3333" style="stroke:#5E5E5E;stroke-width:1.5625;" width="162.5" x="606.25" y="482.8695"/><polygon fill="#1B1B1A" points="751.0417,488.0778,751.0417,502.6611,763.5417,502.6611,763.5417,494.3278,757.2917,488.0778,751.0417,488.0778" style="stroke:#5E5E5E;stroke-width:1.5625;"/><line style="stroke:#5E5E5E;stroke-width:1.5625;" x1="757.2917" x2="757.2917" y1="488.0778" y2="494.3278"/><line style="stroke:#5E5E5E;stroke-width:1.5625;" x1="763.5417" x2="757.2917" y1="494.3278" y2="494.3278"/><text fill="#D8BC00" font-family="Open Sans,Avenir,Nunito,Arial,Helvetica,SansSerif" font-size="12.5" lengthAdjust="spacing" textLength="125" x="619.7917" y="511.6211">swagger_annotations</text><!--MD5=[ce55b294004802c137560c2930be5b75]
entity junit--><rect fill="#1B1B1A" height="44.93" rx="8.3333" ry="8.3333" style="stroke:#5E5E5E;stroke-width:1.5625;" width="63.5417" x="1653.6458" y="375.5778"/><polygon fill="#1B1B1A" points="1699.4792,380.7861,1699.4792,395.3695,1711.9792,395.3695,1711.9792,387.0361,1705.7292,380.7861,1699.4792,380.7861" style="stroke:#5E5E5E;stroke-width:1.5625;"/><line style="stroke:#5E5E5E;stroke-width:1.5625;" x1="1705.7292" x2="1705.7292" y1="380.7861" y2="387.0361"/><line style="stroke:#5E5E5E;stroke-width:1.5625;" x1="1711.9792" x2="1705.7292" y1="387.0361" y2="387.0361"/><text fill="#D8BC00" font-family="Open Sans,Avenir,Nunito,Arial,Helvetica,SansSerif" font-size="12.5" lengthAdjust="spacing" textLength="26.0417" x="1667.1875" y="404.3294">junit</text><!--MD5=[374397457fd87171900b6bd6464bbf1c]
entity commons_math--><rect fill="#1B1B1A" height="44.93" rx="8.3333" ry="8.3333" style="stroke:#5E5E5E;stroke-width:1.5625;" width="131.25" x="1485.4167" y="375.5778"/><polygon fill="#1B1B1A" points="1598.9583,380.7861,1598.9583,395.3695,1611.4583,395.3695,1611.4583,387.0361,1605.2083,380.7861,1598.9583,380.7861" style="stroke:#5E5E5E;stroke-width:1.5625;"/><line style="stroke:#5E5E5E;stroke-width:1.5625;" x1="1605.2083" x2="1605.2083" y1="380.7861" y2="387.0361"/><line style="stroke:#5E5E5E;stroke-width:1.5625;" x1="1611.4583" x2="1605.2083" y1="387.0361" y2="387.0361"/><text fill="#D8BC00" font-family="Open Sans,Avenir,Nunito,Arial,Helvetica,SansSerif" font-size="12.5" lengthAdjust="spacing" textLength="93.75" x="1498.9583" y="404.3294">commons_math</text><!--MD5=[7f157d37bc1fd6ac970bb67ffdbc66a3]
entity hamcrest_core--><rect fill="#1B1B1A" height="44.93" rx="8.3333" ry="8.3333" style="stroke:#5E5E5E;stroke-width:1.5625;" width="125" x="1622.9167" y="482.8695"/><polygon fill="#1B1B1A" points="1730.2083,488.0778,1730.2083,502.6611,1742.7083,502.6611,1742.7083,494.3278,1736.4583,488.0778,1730.2083,488.0778" style="stroke:#5E5E5E;stroke-width:1.5625;"/><line style="stroke:#5E5E5E;stroke-width:1.5625;" x1="1736.4583" x2="1736.4583" y1="488.0778" y2="494.3278"/><line style="stroke:#5E5E5E;stroke-width:1.5625;" x1="1742.7083" x2="1736.4583" y1="494.3278" y2="494.3278"/><text fill="#D8BC00" font-family="Open Sans,Avenir,Nunito,Arial,Helvetica,SansSerif" font-size="12.5" lengthAdjust="spacing" textLength="87.5" x="1636.4583" y="511.6211">hamcrest_core</text><!--MD5=[b728e17b4e4da6aa8cb97e9b2766c5e6]
entity annotations--><rect fill="#1B1B1A" height="44.93" rx="8.3333" ry="8.3333" style="stroke:#5E5E5E;stroke-width:1.5625;" width="106.25" x="805.2083" y="482.8695"/><polygon fill="#1B1B1A" points="893.75,488.0778,893.75,502.6611,906.25,502.6611,906.25,494.3278,900,488.0778,893.75,488.0778" style="stroke:#5E5E5E;stroke-width:1.5625;"/><line style="stroke:#5E5E5E;stroke-width:1.5625;" x1="900" x2="900" y1="488.0778" y2="494.3278"/><line style="stroke:#5E5E5E;stroke-width:1.5625;" x1="906.25" x2="900" y1="494.3278" y2="494.3278"/><text fill="#D8BC00" font-family="Open Sans,Avenir,Nunito,Arial,Helvetica,SansSerif" font-size="12.5" lengthAdjust="spacing" textLength="68.75" x="818.75" y="511.6211">annotations</text><!--MD5=[b3c862d1486667ad9c7edef6529b2202]
entity objenesis--><rect fill="#1B1B1A" height="44.93" rx="8.3333" ry="8.3333" style="stroke:#5E5E5E;stroke-width:1.5625;" width="94.7917" x="1460.9375" y="697.4528"/><polygon fill="#1B1B1A" points="1538.0208,702.6611,1538.0208,717.2445,1550.5208,717.2445,1550.5208,708.9111,1544.2708,702.6611,1538.0208,702.6611" style="stroke:#5E5E5E;stroke-width:1.5625;"/><line style="stroke:#5E5E5E;stroke-width:1.5625;" x1="1544.2708" x2="1544.2708" y1="702.6611" y2="708.9111"/><line style="stroke:#5E5E5E;stroke-width:1.5625;" x1="1550.5208" x2="1544.2708" y1="708.9111" y2="708.9111"/><text fill="#D8BC00" font-family="Open Sans,Avenir,Nunito,Arial,Helvetica,SansSerif" font-size="12.5" lengthAdjust="spacing" textLength="57.2917" x="1474.4792" y="726.2044">objenesis</text><!--MD5=[92e2ad58d19962135e7ff93f22958550]
entity asm--><rect fill="#1B1B1A" height="44.93" rx="8.3333" ry="8.3333" style="stroke:#5E5E5E;stroke-width:1.5625;" width="62.5" x="1342.7083" y="804.7445"/><polygon fill="#1B1B1A" points="1387.5,809.9528,1387.5,824.5361,1400,824.5361,1400,816.2028,1393.75,809.9528,1387.5,809.9528" style="stroke:#5E5E5E;stroke-width:1.5625;"/><line style="stroke:#5E5E5E;stroke-width:1.5625;" x1="1393.75" x2="1393.75" y1="809.9528" y2="816.2028"/><line style="stroke:#5E5E5E;stroke-width:1.5625;" x1="1400" x2="1393.75" y1="816.2028" y2="816.2028"/><text fill="#D8BC00" font-family="Open Sans,Avenir,Nunito,Arial,Helvetica,SansSerif" font-size="12.5" lengthAdjust="spacing" textLength="25" x="1356.25" y="833.4961">asm</text><!--MD5=[d68e7c4b3ca5f037bcb6997a0b4ed16b]
link junit to hamcrest_core--><path d="M1685.4167,420.8174 C1685.4167,437.2861 1685.4167,459.984 1685.4167,477.5361 " fill="none" id="junit-to-hamcrest_core" style="stroke:#545454;stroke-width:1.5625;"/><polygon fill="#545454" points="1685.4167,482.8174,1689.5833,473.4424,1685.4167,477.609,1681.25,473.4424,1685.4167,482.8174" style="stroke:#545454;stroke-width:1.5625;"/><!--MD5=[b7f0c0096a22b33f9684f71ae8902e20]
link kivakit_application to kivakit_commandline--><path d="M1049.0729,205.8486 C1005.6771,223.3799 944.3958,248.1403 899.6979,266.1924 " fill="none" id="kivakit_application-to-kivakit_commandline" style="stroke:#545454;stroke-width:1.5625;"/><polygon fill="#545454" points="894.6042,268.2549,904.8571,268.6146,899.4348,266.3077,901.7417,260.8855,894.6042,268.2549" style="stroke:#545454;stroke-width:1.5625;"/><!--MD5=[d4c1a9613b655e0c99a052219726d524]
link kivakit_application to kivakit_component--><path d="M1102.0833,206.234 C1102.0833,222.7028 1102.0833,245.4007 1102.0833,262.9528 " fill="none" id="kivakit_application-to-kivakit_component" style="stroke:#545454;stroke-width:1.5625;"/><polygon fill="#545454" points="1102.0833,268.234,1106.25,258.859,1102.0833,263.0257,1097.9167,258.859,1102.0833,268.234" style="stroke:#545454;stroke-width:1.5625;"/><!--MD5=[dac09380e252b6a73b9cbaef097b7dbb]
link kivakit_collections to kivakit_serialization_kryo--><path d="M1389.1667,420.8174 C1398.3854,437.432 1411.1042,460.3695 1420.875,477.9945 " fill="none" id="kivakit_collections-to-kivakit_serialization_kryo" style="stroke:#545454;stroke-width:1.5625;"/><polygon fill="#545454" points="1423.5417,482.8174,1422.6311,472.5986,1421.0123,478.2645,1415.3464,476.6457,1423.5417,482.8174" style="stroke:#545454;stroke-width:1.5625;"/><!--MD5=[ad08ab7f315d351dcdfee1c003ccf5cf]
link kivakit_commandline to kivakit_kernel--><path d="M790.3542,313.1403 C748.3542,330.6715 689.0208,355.432 645.7604,373.484 " fill="none" id="kivakit_commandline-to-kivakit_kernel" style="stroke:#545454;stroke-width:1.5625;"/><polygon fill="#545454" points="640.8333,375.5465,651.0894,375.8027,645.6441,373.5507,647.8961,368.1055,640.8333,375.5465" style="stroke:#545454;stroke-width:1.5625;"/><!--MD5=[77938f52ad4d369c3de7a0ffd0792d37]
link kivakit_component to kivakit_configuration--><path d="M1102.0833,313.5257 C1102.0833,329.9945 1102.0833,352.6924 1102.0833,370.2445 " fill="none" id="kivakit_component-to-kivakit_configuration" style="stroke:#545454;stroke-width:1.5625;"/><polygon fill="#545454" points="1102.0833,375.5257,1106.25,366.1507,1102.0833,370.3174,1097.9167,366.1507,1102.0833,375.5257" style="stroke:#545454;stroke-width:1.5625;"/><!--MD5=[3b28c85aebf84fa8aaa5822a1e458ff1]
link kivakit_configuration to kivakit_resource--><path d="M1084.1667,420.8174 C1070.3958,437.5674 1051.3333,460.7653 1036.8125,478.4424 " fill="none" id="kivakit_configuration-to-kivakit_resource" style="stroke:#545454;stroke-width:1.5625;"/><polygon fill="#545454" points="1033.2188,482.8174,1042.383,478.2055,1036.5193,478.7883,1035.9365,472.9247,1033.2188,482.8174" style="stroke:#545454;stroke-width:1.5625;"/><!--MD5=[6772e573a6368f3fb74915fe1e8d5213]
link kivakit_configuration to kivakit_serialization_json--><path d="M1124.6979,420.557 C1142.4063,437.4424 1167.1042,460.9632 1185.7917,478.7757 " fill="none" id="kivakit_configuration-to-kivakit_serialization_json" style="stroke:#545454;stroke-width:1.5625;"/><polygon fill="#545454" points="1189.9167,482.7132,1186.0024,473.2301,1186.1455,479.1209,1180.2547,479.264,1189.9167,482.7132" style="stroke:#545454;stroke-width:1.5625;"/><!--MD5=[a2f7c49e80f0067c62cb523636c9f00e]
link kivakit_kernel to annotations--><path d="M644.2917,420.432 C689.6042,438.1715 753.8333,463.3174 800.0938,481.4215 " fill="none" id="kivakit_kernel-to-annotations" style="stroke:#545454;stroke-width:1.5625;"/><polygon fill="#545454" points="805.0729,483.3695,797.8499,476.0839,800.2198,481.4789,794.8249,483.8488,805.0729,483.3695" style="stroke:#545454;stroke-width:1.5625;"/><!--MD5=[4bb5cdf1dd69a57413676b3f513d3923]
link kivakit_kernel to cactus_build_metadata--><path d="M529.5938,420.057 C479.2396,437.7132 407.4063,462.9007 355.4583,481.1195 " fill="none" id="kivakit_kernel-to-cactus_build_metadata" style="stroke:#545454;stroke-width:1.5625;"/><polygon fill="#545454" points="350.5,482.859,360.724,483.7086,355.4182,481.1451,357.9817,475.8394,350.5,482.859" style="stroke:#545454;stroke-width:1.5625;"/><!--MD5=[ce1de3a0fcf0456409f45c00bcbf6819]
link kivakit_kernel to jackson_annotations--><path d="M529.6458,411.1299 C450.3438,427.2028 306.2292,456.6403 183.3333,482.8695 C179.3021,483.7236 175.1875,484.609 171.0313,485.5153 " fill="none" id="kivakit_kernel-to-jackson_annotations" style="stroke:#545454;stroke-width:1.5625;"/><polygon fill="#545454" points="165.7396,486.6611,175.7837,488.7509,170.8301,485.5597,174.0214,480.6061,165.7396,486.6611" style="stroke:#545454;stroke-width:1.5625;"/><!--MD5=[049e1cbc60d7a94f708d5cd284874347]
link kivakit_kernel to lexakai_annotations--><path d="M569.2917,420.8174 C553.5625,437.7132 531.75,461.1611 515.2396,478.8903 " fill="none" id="kivakit_kernel-to-lexakai_annotations" style="stroke:#545454;stroke-width:1.5625;"/><polygon fill="#545454" points="511.5938,482.8174,521.0371,478.808,515.148,479.0103,514.9458,473.1212,511.5938,482.8174" style="stroke:#545454;stroke-width:1.5625;"/><!--MD5=[ceaa58f2fdab01bf1e0ddaf38b77f8a7]
link kivakit_kernel to swagger_annotations--><path d="M609.875,420.8174 C625.6042,437.7132 647.4167,461.1611 663.9271,478.8903 " fill="none" id="kivakit_kernel-to-swagger_annotations" style="stroke:#545454;stroke-width:1.5625;"/><polygon fill="#545454" points="667.5729,482.8174,664.2209,473.1212,664.0186,479.0103,658.1296,478.808,667.5729,482.8174" style="stroke:#545454;stroke-width:1.5625;"/><!--MD5=[3a8da46707b3267a7def2c5b13e3afea]
link kivakit_math to commons_math--><path d="M1445.0104,313.2653 C1466.6771,330.359 1496.9688,354.2653 1519.6354,372.1507 " fill="none" id="kivakit_math-to-commons_math" style="stroke:#545454;stroke-width:1.5625;"/><polygon fill="#545454" points="1523.7708,375.4215,1518.9923,366.3432,1519.6821,372.1952,1513.8301,372.8851,1523.7708,375.4215" style="stroke:#545454;stroke-width:1.5625;"/><!--MD5=[9fff58aa26e81695b957df3c4dae3e38]
link kivakit_math to kivakit_collections--><path d="M1409.2917,313.5257 C1402.9271,329.9945 1394.1667,352.6924 1387.3854,370.2445 " fill="none" id="kivakit_math-to-kivakit_collections" style="stroke:#545454;stroke-width:1.5625;"/><polygon fill="#545454" points="1385.3542,375.5257,1392.6204,368.2833,1387.2318,370.6676,1384.8475,365.279,1385.3542,375.5257" style="stroke:#545454;stroke-width:1.5625;"/><!--MD5=[5b04580b86b31fc18c828f7ddaf27421]
link kivakit_resource to kivakit_serialization_core--><path d="M1015.625,528.109 C1015.625,544.5778 1015.625,567.2757 1015.625,584.8278 " fill="none" id="kivakit_resource-to-kivakit_serialization_core" style="stroke:#545454;stroke-width:1.5625;"/><polygon fill="#545454" points="1015.625,590.109,1019.7917,580.734,1015.625,584.9007,1011.4583,580.734,1015.625,590.109" style="stroke:#545454;stroke-width:1.5625;"/><!--MD5=[d2bf964ad93828bbd6db58c445a24c18]
link kivakit_serialization_json to gson--><path d="M1212.5,528.109 C1212.5,544.5778 1212.5,567.2757 1212.5,584.8278 " fill="none" id="kivakit_serialization_json-to-gson" style="stroke:#545454;stroke-width:1.5625;"/><polygon fill="#545454" points="1212.5,590.109,1216.6667,580.734,1212.5,584.9007,1208.3333,580.734,1212.5,590.109" style="stroke:#545454;stroke-width:1.5625;"/><!--MD5=[40faeed4b9f18330bf0f83fa88774571]
link kivakit_serialization_kryo to kryo--><path d="M1422.6875,528.109 C1412.9792,544.7236 1399.5729,567.6611 1389.2813,585.2861 " fill="none" id="kivakit_serialization_kryo-to-kryo" style="stroke:#545454;stroke-width:1.5625;"/><polygon fill="#545454" points="1386.4688,590.109,1394.7891,584.1072,1389.0912,585.6091,1387.5893,579.9112,1386.4688,590.109" style="stroke:#545454;stroke-width:1.5625;"/><!--MD5=[03df8de183ef6689edc51eb2e13fe23e]
link kivakit_serialization_kryo to kryo_serializers--><path d="M1450.5208,528.109 C1462.1354,544.859 1478.2188,568.057 1490.4688,585.734 " fill="none" id="kivakit_serialization_kryo-to-kryo_serializers" style="stroke:#545454;stroke-width:1.5625;"/><polygon fill="#545454" points="1493.4896,590.109,1491.5717,580.0307,1490.5218,585.8289,1484.7236,584.7791,1493.4896,590.109" style="stroke:#545454;stroke-width:1.5625;"/><!--MD5=[c8bc8a078b8e6451f81861bceeae487c]
link kivakit_test to junit--><path d="M1652.3854,313.5257 C1658.9063,329.9945 1667.8958,352.6924 1674.8542,370.2445 " fill="none" id="kivakit_test-to-junit" style="stroke:#545454;stroke-width:1.5625;"/><polygon fill="#545454" points="1676.9375,375.5257,1677.3624,365.2753,1675.0211,370.6828,1669.6136,368.3415,1676.9375,375.5257" style="stroke:#545454;stroke-width:1.5625;"/><!--MD5=[8c32f0e7b0abeba01afd276f5a66ee84]
link kryo to minlog--><path d="M1348.3646,635.1403 C1328.1354,652.1611 1299.8854,675.9424 1278.6667,693.807 " fill="none" id="kryo-to-minlog" style="stroke:#545454;stroke-width:1.5625;"/><polygon fill="#545454" points="1274.5208,697.2965,1284.3748,694.4415,1278.5036,693.9403,1279.0048,688.0691,1274.5208,697.2965" style="stroke:#545454;stroke-width:1.5625;"/><!--MD5=[e75c16e47fcf6c43b15d3c25536a9ed0]
link kryo to objenesis--><path d="M1401.4792,635.1403 C1423.3021,652.234 1453.8438,676.1403 1476.6771,694.0257 " fill="none" id="kryo-to-objenesis" style="stroke:#545454;stroke-width:1.5625;"/><polygon fill="#545454" points="1480.8542,697.2965,1476.0393,688.2374,1476.7526,694.0866,1470.9034,694.7999,1480.8542,697.2965" style="stroke:#545454;stroke-width:1.5625;"/><!--MD5=[e061beb27669383d030ce0c5c656b006]
link kryo to reflectasm--><path d="M1373.9583,635.4007 C1373.9583,651.8695 1373.9583,674.5674 1373.9583,692.1195 " fill="none" id="kryo-to-reflectasm" style="stroke:#545454;stroke-width:1.5625;"/><polygon fill="#545454" points="1373.9583,697.4007,1378.125,688.0257,1373.9583,692.1924,1369.7917,688.0257,1373.9583,697.4007" style="stroke:#545454;stroke-width:1.5625;"/><!--MD5=[02048f5ca4c564e1e36af0c7a7237651]
link mesakit_map_examples to kivakit_application--><path d="M1223.0208,98.682 C1198.2188,115.8486 1163.4688,139.8799 1137.5833,157.7861 " fill="none" id="mesakit_map_examples-to-kivakit_application" style="stroke:#545454;stroke-width:1.5625;"/><polygon fill="#545454" points="1133.1875,160.8382,1143.2645,158.9131,1137.4655,157.8674,1138.5112,152.0684,1133.1875,160.8382" style="stroke:#545454;stroke-width:1.5625;"/><!--MD5=[e5ab34fc93633c9b1b97dd98cb161c25]
link mesakit_map_examples to mesakit_map_measurements--><path d="M1287.6563,98.682 C1314.4479,115.9215 1352,140.0778 1379.875,158.0153 " fill="none" id="mesakit_map_examples-to-mesakit_map_measurements" style="stroke:#545454;stroke-width:1.5625;"/><polygon fill="#545454" points="1384.2604,160.8382,1378.6275,152.2637,1379.8793,158.0218,1374.1212,159.2735,1384.2604,160.8382" style="stroke:#545454;stroke-width:1.5625;"/><!--MD5=[611a2331137209e1b5ed7f383d0b5efc]
link mesakit_map_measurements to kivakit_math--><path d="M1417.7083,206.234 C1417.7083,222.7028 1417.7083,245.4007 1417.7083,262.9528 " fill="none" id="mesakit_map_measurements-to-kivakit_math" style="stroke:#545454;stroke-width:1.5625;"/><polygon fill="#545454" points="1417.7083,268.234,1421.875,258.859,1417.7083,263.0257,1413.5417,258.859,1417.7083,268.234" style="stroke:#545454;stroke-width:1.5625;"/><!--MD5=[35db2d8caa0f456eb864c6a07a6d0938]
link mesakit_map_measurements to kivakit_test--><path d="M1463.7188,205.8486 C1501.1563,223.2757 1553.9375,247.8382 1592.6667,265.8695 " fill="none" id="mesakit_map_measurements-to-kivakit_test" style="stroke:#545454;stroke-width:1.5625;"/><polygon fill="#545454" points="1597.8021,268.2549,1591.0499,260.5309,1593.0771,266.0638,1587.5442,268.0909,1597.8021,268.2549" style="stroke:#545454;stroke-width:1.5625;"/><!--MD5=[338783537f3f9263e4097f5ff0c514d3]
link reflectasm to asm--><path d="M1373.9583,742.6924 C1373.9583,759.1611 1373.9583,781.859 1373.9583,799.4111 " fill="none" id="reflectasm-to-asm" style="stroke:#545454;stroke-width:1.5625;"/><polygon fill="#545454" points="1373.9583,804.6924,1378.125,795.3174,1373.9583,799.484,1369.7917,795.3174,1373.9583,804.6924" style="stroke:#545454;stroke-width:1.5625;"/><!--MD5=[5e3c53a03311a0c8fc896e309f898cf0]
@startuml

    !include lexakai.theme
    
    title "mesakit-map-examples"
    
    artifact kryo
    artifact minlog
    artifact reflectasm
    artifact jackson_annotations
    artifact gson
    artifact cactus_build_metadata
    artifact kivakit_application
    artifact kivakit_collections
    artifact kivakit_commandline
    artifact kivakit_component
    artifact kivakit_configuration
    artifact kivakit_kernel
    artifact kivakit_math
    artifact kivakit_resource
    artifact kivakit_serialization_core
    artifact kivakit_serialization_json
    artifact kivakit_serialization_kryo
    artifact kivakit_test
    artifact lexakai_annotations
    artifact mesakit_map_examples
    artifact mesakit_map_measurements
    artifact kryo_serializers
    artifact swagger_annotations
    artifact junit
    artifact commons_math
    artifact hamcrest_core
    artifact annotations
    artifact objenesis
    artifact asm
    junit - -> hamcrest_core
    kivakit_application - -> kivakit_commandline
    kivakit_application - -> kivakit_component
    kivakit_collections - -> kivakit_serialization_kryo
    kivakit_commandline - -> kivakit_kernel
    kivakit_component - -> kivakit_configuration
    kivakit_configuration - -> kivakit_resource
    kivakit_configuration - -> kivakit_serialization_json
    kivakit_kernel - -> annotations
    kivakit_kernel - -> cactus_build_metadata
    kivakit_kernel - -> jackson_annotations
    kivakit_kernel - -> lexakai_annotations
    kivakit_kernel - -> swagger_annotations
    kivakit_math - -> commons_math
    kivakit_math - -> kivakit_collections
    kivakit_resource - -> kivakit_serialization_core
    kivakit_serialization_json - -> gson
    kivakit_serialization_kryo - -> kryo
    kivakit_serialization_kryo - -> kryo_serializers
    kivakit_test - -> junit
    kryo - -> minlog
    kryo - -> objenesis
    kryo - -> reflectasm
    mesakit_map_examples - -> kivakit_application
    mesakit_map_examples - -> mesakit_map_measurements
    mesakit_map_measurements - -> kivakit_math
    mesakit_map_measurements - -> kivakit_test
    reflectasm - -> asm
    
@enduml

@startuml









skinparam backgroundColor #333333






skinparam  {
    defaultFontName   "Open Sans,Avenir,Nunito,Arial,Helvetica,SansSerif"
    defaultFontSize   12
    defaultTextAlignment left
    shadowing false
    RoundCorner 10
    TitleFontSize 18
}

skinparam defaultFontName       "Open Sans,Avenir,Nunito,Arial,Helvetica,SansSerif"
skinparam defaultFontSize       12
skinparam dpi                   100
skinparam shadowing             false
skinparam roundcorner           16
skinparam ParticipantPadding    40
skinparam BoxPadding            40
skinparam Padding               3
skinparam ArrowColor            #545454
skinparam stereotype {
    CBackgroundColor #0066cf
    CBorderColor #0086ef
    ABackgroundColor #C8Ac00
    ABorderColor #D8Bc00
    IBackgroundColor #008400
    IBorderColor #239c23
    EBackgroundColor #cf6300
    EBorderColor #ef8300
    NBackgroundColor #3380b9
    NBorderColor #004d86
}
skinparam title {
	FontColor	                 #c0c0c0
 	BorderColor                  #545454
	FontSize	    	         20
	BorderRoundCorner            16
	BorderThickness 	         1
	BackgroundColor              #48494b
}


skinparam legend {
	BackgroundColor #303030
	BorderColor #404040
	FontColor #a0a0a0
}

	skinparam swimlane {
	BorderColor #5e5e5e
	BorderThickness 2
	TitleBackgroundColor  #6d6d6d-#484848
	TitleFontColor #303030
}

skinparam activity {
		FontColor #C8Ac00
	BorderColor #333333
	BackgroundColor #333333-#333333
	BarColor #00FF00
	StartColor #0060a8
	EndColor #0060a8
	DiamondBackgroundColor #6d6d6d-#3a3a3a
  	DiamondBorderColor #3a3a3a
  	DiamondFontColor #fefefe
}


skinparam participant {
		FontColor #C8Ac00
	BorderColor #333333
	BackgroundColor #333333-#333333
	ParticipantBorderThickness 2
}


skinparam actor {
		FontColor #C8Ac00
	BorderColor #333333
	BackgroundColor #333333-#333333
}


skinparam arrow {
	Thickness 1.5
	Color #545454
	FontColor #a0a0a0
    FontStyle bold
    MessageAlignment center
}



skinparam sequence {
	BorderColor #303030
	TitleFontColor #303030
	BackgroundColor #333333
	StartColor #303030
	EndColor #303030
	BoxBackgroundColor #333333
	BoxBorderColor #484848
	BoxFontColor #484848
	LifeLineBorderColor #484848
	LifeLineBorderThickness 2
	LifeLineBackgroundColor #3a3a3a
	GroupBorderColor #484848
	GroupFontColor #484848
	GroupHeaderFontColor #0060a8
	GroupBackgroundColor #484848
	GroupHeaderBackgroundColor #333333
	DividerBackgroundColor #484848
    DividerBorderColor #484848
    DividerBorderThickness 2
    DividerFontColor #D8Bc00
	ReferenceBackgroundColor #333333
	ReferenceBorderColor #484848
	ReferenceFontColor #fefefe
	ReferenceHeaderBackgroundColor #484848
}


skinparam partition {
	BorderColor #303030
	FontColor #333333
	BackgroundColor #333333
}


skinparam collections {
		FontColor #C8Ac00
	BorderColor #333333
	BackgroundColor #333333-#333333
}


skinparam control {
		FontColor #C8Ac00
	BorderColor #333333
	BackgroundColor #333333-#333333
}


skinparam entity {
		FontColor #C8Ac00
	BorderColor #333333
	BackgroundColor #333333-#333333
}


skinparam boundary {
		FontColor #C8Ac00
	BorderColor #333333
	BackgroundColor #333333-#333333
}


skinparam agent {
	BackgroundColor #ff8000
	BorderColor #ff9933
	FontColor #484848
}


skinparam note {
	BorderThickness 1
	BackgroundColor #1b1b1a
	BorderColor #5e5e5e
	FontSize 11
	FontColor #a0a0a0
}


skinparam artifact {
	BorderThickness 10
	BorderColor #5e5e5e
	BackgroundColor #1b1b1a
	FontColor #D8Bc00
}


skinparam component {
		FontColor #C8Ac00
	BorderColor #333333
	BackgroundColor #333333-#333333
}


skinparam interface {
	BackgroundColor  #008400
	BorderColor  #007F00
	FontColor #484848
}


skinparam storage {
	BackgroundColor #ff8000
  	BorderColor #cc6600
	FontColor #222222
}


skinparam node {
	BackgroundColor #333333
	BorderColor #333333
	FontColor #C8Ac00
}


skinparam cloud {
	BackgroundColor #484848-black
	BorderColor #484848
	FontColor #D8Bc00
}


skinparam database {
		FontColor #C8Ac00
	BorderColor #333333
	BackgroundColor #333333-#333333
	BackgroundColor  #333333
}


skinparam class {
		FontColor #C8Ac00
	BorderColor #333333
	BackgroundColor #333333-#333333
	HeaderBackgroundColor #1b1b1a
    BackgroundColor #282828
    BorderColor #5e5e5e
 	StereotypeFontColor #a0a0a0
    StereotypeFontStyle bold
	BorderThickness 1
	AttributeFontColor #D8Bc00
	AttributeFontSize 11
    FontColor #D8Bc00
    FontStyle bold
}


skinparam object {
		FontColor #C8Ac00
	BorderColor #333333
	BackgroundColor #333333-#333333
	StereotypeFontColor #484848
	BorderThickness 1
	AttributeFontColor #fefefe
	AttributeFontSize 11
}


skinparam usecase {
		FontColor #C8Ac00
	BorderColor #333333
	BackgroundColor #333333-#333333
	BorderThickness 2
	StereotypeFontColor #303030
}


skinparam rectangle {
		FontColor #C8Ac00
	BorderColor #333333
	BackgroundColor #333333-#333333
	BackgroundColor #333333
	BorderThickness 2
	StereotypeFontColor #303030
}


skinparam package {
		FontColor #C8Ac00
	BorderColor #333333
	BackgroundColor #333333-#333333
	BackgroundColor #333333
	BorderThickness 2
}


skinparam folder {
	BackgroundColor #6d6d6d
  	BorderColor #ff8000
	FontColor #ff8000
	BorderThickness 2
}


skinparam frame {
	BackgroundColor #6d6d6d
  	BorderColor #0060a8
	FontColor #0060a8
	BorderThickness 2
}


skinparam state {
		FontColor #C8Ac00
	BorderColor #333333
	BackgroundColor #333333-#333333
	StartColor #0060a8
	EndColor #0060a8
	AttributeFontColor #fefefe
	AttributeFontSize 11
}


skinparam queue {
		FontColor #C8Ac00
	BorderColor #333333
	BackgroundColor #333333-#333333
}


skinparam card {
	BackgroundColor #0060a8
	BorderColor #004d86
	FontColor $INFO_TEXT
}


skinparam file {
	BackgroundColor #6d6d6d-#484848
	BorderColor #0060a8
	FontColor #fefefe
}


skinparam stack {
		FontColor #C8Ac00
	BorderColor #333333
	BackgroundColor #333333-#333333
}

    
    title "mesakit-map-examples"
    
    artifact kryo
    artifact minlog
    artifact reflectasm
    artifact jackson_annotations
    artifact gson
    artifact cactus_build_metadata
    artifact kivakit_application
    artifact kivakit_collections
    artifact kivakit_commandline
    artifact kivakit_component
    artifact kivakit_configuration
    artifact kivakit_kernel
    artifact kivakit_math
    artifact kivakit_resource
    artifact kivakit_serialization_core
    artifact kivakit_serialization_json
    artifact kivakit_serialization_kryo
    artifact kivakit_test
    artifact lexakai_annotations
    artifact mesakit_map_examples
    artifact mesakit_map_measurements
    artifact kryo_serializers
    artifact swagger_annotations
    artifact junit
    artifact commons_math
    artifact hamcrest_core
    artifact annotations
    artifact objenesis
    artifact asm
    junit - -> hamcrest_core
    kivakit_application - -> kivakit_commandline
    kivakit_application - -> kivakit_component
    kivakit_collections - -> kivakit_serialization_kryo
    kivakit_commandline - -> kivakit_kernel
    kivakit_component - -> kivakit_configuration
    kivakit_configuration - -> kivakit_resource
    kivakit_configuration - -> kivakit_serialization_json
    kivakit_kernel - -> annotations
    kivakit_kernel - -> cactus_build_metadata
    kivakit_kernel - -> jackson_annotations
    kivakit_kernel - -> lexakai_annotations
    kivakit_kernel - -> swagger_annotations
    kivakit_math - -> commons_math
    kivakit_math - -> kivakit_collections
    kivakit_resource - -> kivakit_serialization_core
    kivakit_serialization_json - -> gson
    kivakit_serialization_kryo - -> kryo
    kivakit_serialization_kryo - -> kryo_serializers
    kivakit_test - -> junit
    kryo - -> minlog
    kryo - -> objenesis
    kryo - -> reflectasm
    mesakit_map_examples - -> kivakit_application
    mesakit_map_examples - -> mesakit_map_measurements
    mesakit_map_measurements - -> kivakit_math
    mesakit_map_measurements - -> kivakit_test
    reflectasm - -> asm
    
@enduml

PlantUML version 1.2021.01(Tue Feb 02 00:55:08 MST 2021)
(GPL source distribution)
Java Runtime: OpenJDK Runtime Environment
JVM: OpenJDK 64-Bit Server VM
Default Encoding: UTF-8
Language: en
Country: US
--></g></svg>