<?xml version="1.0" encoding="UTF-8" standalone="no"?><svg xmlns="http://www.w3.org/2000/svg" xmlns:xlink="http://www.w3.org/1999/xlink" contentScriptType="application/ecmascript" contentStyleType="text/css" height="345.8333px" preserveAspectRatio="none" style="width:563px;height:345px;background:#333333;" version="1.1" viewBox="0 0 563 345" width="563.5417px" zoomAndPan="magnify"><defs/><g><rect fill="#48494B" height="41.2028" rx="8.3333" ry="8.3333" style="stroke:#545454;stroke-width:1.0416666666666667;" width="525" x="11.9792" y="2.0833"/><text fill="#C0C0C0" font-family="Open Sans,Avenir,Nunito,Arial,Helvetica,SansSerif" font-size="20.8333" lengthAdjust="spacing" textLength="502.0833" x="23.4375" y="30.5583">com.telenav.mesakit.map.road.name.standardizer</text><rect codeLine="20" fill="#282828" height="174.8576" id="RoadNameStandardizer" rx="8.3333" ry="8.3333" style="stroke:#5E5E5E;stroke-width:1.0416666666666667;" width="286.4583" x="7.2917" y="53.7028"/><rect fill="#1B1B1A" height="31.3883" rx="8.3333" ry="8.3333" style="stroke:#1B1B1A;stroke-width:1.0416666666666667;" width="286.4583" x="7.2917" y="53.7028"/><rect fill="#1B1B1A" height="8.3333" style="stroke:#1B1B1A;stroke-width:1.0416666666666667;" width="286.4583" x="7.2917" y="76.7578"/><rect codeLine="20" fill="none" height="174.8576" id="RoadNameStandardizer" rx="8.3333" ry="8.3333" style="stroke:#5E5E5E;stroke-width:1.0416666666666667;" width="286.4583" x="7.2917" y="53.7028"/><ellipse cx="68.2292" cy="69.397" fill="#008400" rx="10.4167" ry="10.4167" style="stroke:#239C23;stroke-width:1.0416666666666667;"/><path d="M65.6331,66.5588 L65.6331,64.9719 L71.0592,64.9719 L71.0592,66.5588 L69.2464,66.5588 L69.2464,72.4976 L71.0592,72.4976 L71.0592,74.0845 L65.6331,74.0845 L65.6331,72.4976 L67.4459,72.4976 L67.4459,66.5588 Z " fill="#000000"/><text fill="#D8BC00" font-family="Open Sans,Avenir,Nunito,Arial,Helvetica,SansSerif" font-size="12.5" font-style="italic" font-weight="bold" lengthAdjust="spacing" textLength="150" x="91.1458" y="74.1211">RoadNameStandardizer</text><line style="stroke:#5E5E5E;stroke-width:1.5625;" x1="8.3333" x2="292.7083" y1="85.0911" y2="85.0911"/><line style="stroke:#5E5E5E;stroke-width:1.0416666666666667;" x1="8.3333" x2="292.7083" y1="93.4245" y2="93.4245"/><ellipse cx="18.75" cy="104.8828" fill="#84BE84" rx="3.125" ry="3.125" style="stroke:#038048;stroke-width:1.0416666666666667;"/><text fill="#D8BC00" font-family="Open Sans,Avenir,Nunito,Arial,Helvetica,SansSerif" font-size="11.4583" lengthAdjust="spacing" textLength="96.875" x="30.2083" y="111.794">void mode(Mode)</text><ellipse cx="18.75" cy="148.5392" fill="#84BE84" rx="3.125" ry="3.125" style="stroke:#038048;stroke-width:1.0416666666666667;"/><text fill="#D8BC00" font-family="Open Sans,Avenir,Nunito,Arial,Helvetica,SansSerif" font-size="11.4583" lengthAdjust="spacing" textLength="254.1667" x="30.2083" y="155.4504">RoadNameStandardizer get(MapLocale, Mode)</text><ellipse cx="18.75" cy="168.2841" fill="#84BE84" rx="3.125" ry="3.125" style="stroke:#038048;stroke-width:1.0416666666666667;"/><text fill="#D8BC00" font-family="Open Sans,Avenir,Nunito,Arial,Helvetica,SansSerif" font-size="11.4583" lengthAdjust="spacing" textLength="233.3333" x="30.2083" y="175.1953">ParsedRoadName standardize(RoadName)</text><line style="stroke:#5E5E5E;stroke-width:1.0416666666666667;" x1="8.3333" x2="122.3958" y1="131.3751" y2="131.3751"/><text fill="#D8BC00" font-family="Open Sans,Avenir,Nunito,Arial,Helvetica,SansSerif" font-size="11.4583" lengthAdjust="spacing" textLength="50" x="125.5208" y="135.1847">(naming)</text><line style="stroke:#5E5E5E;stroke-width:1.0416666666666667;" x1="178.6458" x2="292.7083" y1="131.3751" y2="131.3751"/><ellipse cx="18.75" cy="211.9405" fill="#84BE84" rx="3.125" ry="3.125" style="stroke:#038048;stroke-width:1.0416666666666667;"/><text fill="#D8BC00" font-family="Open Sans,Avenir,Nunito,Arial,Helvetica,SansSerif" font-size="11.4583" lengthAdjust="spacing" textLength="231.25" x="30.2083" y="218.8517">void loadInBackground(MapLocale, Mode)</text><line style="stroke:#5E5E5E;stroke-width:1.0416666666666667;" x1="8.3333" x2="130.7292" y1="194.7764" y2="194.7764"/><text fill="#D8BC00" font-family="Open Sans,Avenir,Nunito,Arial,Helvetica,SansSerif" font-size="11.4583" lengthAdjust="spacing" textLength="33.3333" x="133.8542" y="198.586">(read)</text><line style="stroke:#5E5E5E;stroke-width:1.0416666666666667;" x1="170.3125" x2="292.7083" y1="194.7764" y2="194.7764"/><rect codeLine="10" fill="#282828" height="48.055" id="BaseRoadNameStandardizer" rx="8.3333" ry="8.3333" style="stroke:#5E5E5E;stroke-width:1.0416666666666667;" width="217.7083" x="41.6667" y="291.2028"/><rect fill="#1B1B1A" height="31.3883" rx="8.3333" ry="8.3333" style="stroke:#1B1B1A;stroke-width:1.0416666666666667;" width="217.7083" x="41.6667" y="291.2028"/><rect fill="#1B1B1A" height="8.3333" style="stroke:#1B1B1A;stroke-width:1.0416666666666667;" width="217.7083" x="41.6667" y="314.2578"/><rect codeLine="10" fill="none" height="48.055" id="BaseRoadNameStandardizer" rx="8.3333" ry="8.3333" style="stroke:#5E5E5E;stroke-width:1.0416666666666667;" width="217.7083" x="41.6667" y="291.2028"/><ellipse cx="56.25" cy="306.897" fill="#C8AC00" rx="10.4167" ry="10.4167" style="stroke:#D8BC00;stroke-width:1.0416666666666667;"/><path d="M55.8431,303.599 L54.9947,307.3283 L56.6976,307.3283 Z M54.7445,301.9511 L56.9478,301.9511 L59.4076,311.0636 L57.607,311.0636 L57.0455,308.8114 L54.6346,308.8114 L54.0853,311.0636 L52.2847,311.0636 Z " fill="#000000"/><text fill="#D8BC00" font-family="Open Sans,Avenir,Nunito,Arial,Helvetica,SansSerif" font-size="12.5" font-style="italic" font-weight="bold" lengthAdjust="spacing" textLength="180.2083" x="72.9167" y="311.6211">BaseRoadNameStandardizer</text><line style="stroke:#5E5E5E;stroke-width:1.0416666666666667;" x1="42.7083" x2="258.3333" y1="322.5911" y2="322.5911"/><line style="stroke:#5E5E5E;stroke-width:1.0416666666666667;" x1="42.7083" x2="258.3333" y1="330.9245" y2="330.9245"/><rect codeLine="14" fill="#282828" height="87.5448" id="RoadNameStandardizer.Mode" rx="8.3333" ry="8.3333" style="stroke:#5E5E5E;stroke-width:1.0416666666666667;" width="226.0417" x="330.2083" y="97.4528"/><rect fill="#1B1B1A" height="31.3883" rx="8.3333" ry="8.3333" style="stroke:#1B1B1A;stroke-width:1.0416666666666667;" width="226.0417" x="330.2083" y="97.4528"/><rect fill="#1B1B1A" height="8.3333" style="stroke:#1B1B1A;stroke-width:1.0416666666666667;" width="226.0417" x="330.2083" y="120.5078"/><rect codeLine="14" fill="none" height="87.5448" id="RoadNameStandardizer.Mode" rx="8.3333" ry="8.3333" style="stroke:#5E5E5E;stroke-width:1.0416666666666667;" width="226.0417" x="330.2083" y="97.4528"/><ellipse cx="344.7917" cy="113.147" fill="#CF6300" rx="10.4167" ry="10.4167" style="stroke:#EF8300;stroke-width:1.0416666666666667;"/><path d="M347.8475,117.8345 L342.1712,117.8345 L342.1712,108.7219 L347.8475,108.7219 L347.8475,110.3088 L343.9718,110.3088 L343.9718,112.2742 L347.4813,112.2742 L347.4813,113.8611 L343.9718,113.8611 L343.9718,116.2476 L347.8475,116.2476 Z " fill="#000000"/><text fill="#D8BC00" font-family="Open Sans,Avenir,Nunito,Arial,Helvetica,SansSerif" font-size="12.5" font-weight="bold" lengthAdjust="spacing" textLength="188.5417" x="361.4583" y="117.8711">RoadNameStandardizer.Mode</text><line style="stroke:#5E5E5E;stroke-width:1.0416666666666667;" x1="331.25" x2="555.2083" y1="128.8411" y2="128.8411"/><text fill="#D8BC00" font-family="Open Sans,Avenir,Nunito,Arial,Helvetica,SansSerif" font-size="11.4583" lengthAdjust="spacing" textLength="163.5417" x="339.5833" y="147.2107">MESAKIT_STANDARDIZATION</text><text fill="#D8BC00" font-family="Open Sans,Avenir,Nunito,Arial,Helvetica,SansSerif" font-size="11.4583" lengthAdjust="spacing" textLength="133.3333" x="339.5833" y="166.9556">NO_STANDARDIZATION</text><line style="stroke:#5E5E5E;stroke-width:1.0416666666666667;" x1="331.25" x2="555.2083" y1="176.6642" y2="176.6642"/><path codeLine="9" d="M150.5208,250.3486 C150.5208,265.5674 150.5208,279.7861 150.5208,290.9111 " fill="none" id="RoadNameStandardizer-backto-BaseRoadNameStandardizer" style="stroke:#545454;stroke-width:1.5625;"/><polygon fill="none" points="143.2292,250.0257,150.5208,229.1924,157.8125,250.0257,143.2292,250.0257" style="stroke:#545454;stroke-width:1.5625;"/></g></svg>
