<?xml version="1.0" encoding="UTF-8" standalone="no"?><svg xmlns="http://www.w3.org/2000/svg" xmlns:xlink="http://www.w3.org/1999/xlink" contentScriptType="application/ecmascript" contentStyleType="text/css" height="400px" preserveAspectRatio="none" style="width:690px;height:400px;background:#333333;" version="1.1" viewBox="0 0 690 400" width="690.625px" zoomAndPan="magnify"><defs/><g><rect fill="#48494B" height="41.2028" rx="8.3333" ry="8.3333" style="stroke:#545454;stroke-width:1.0416666666666667;" width="678.125" x="2.0833" y="2.0833"/><text fill="#C0C0C0" font-family="Open Sans,Avenir,Nunito,Arial,Helvetica,SansSerif" font-size="20.8333" lengthAdjust="spacing" textLength="655.2083" x="13.5417" y="30.5583">com.telenav.mesakit.map.road.name.standardizer.locales.english</text><rect codeLine="7" fill="#282828" height="48.055" id="BaseRoadNameStandardizer" rx="8.3333" ry="8.3333" style="stroke:#5E5E5E;stroke-width:1.0416666666666667;" width="217.7083" x="230.9896" y="53.7028"/><rect fill="#1B1B1A" height="31.3883" rx="8.3333" ry="8.3333" style="stroke:#1B1B1A;stroke-width:1.0416666666666667;" width="217.7083" x="230.9896" y="53.7028"/><rect fill="#1B1B1A" height="8.3333" style="stroke:#1B1B1A;stroke-width:1.0416666666666667;" width="217.7083" x="230.9896" y="76.7578"/><rect codeLine="7" fill="none" height="48.055" id="BaseRoadNameStandardizer" rx="8.3333" ry="8.3333" style="stroke:#5E5E5E;stroke-width:1.0416666666666667;" width="217.7083" x="230.9896" y="53.7028"/><ellipse cx="245.5729" cy="69.397" fill="#C8AC00" rx="10.4167" ry="10.4167" style="stroke:#D8BC00;stroke-width:1.0416666666666667;"/><path d="M245.166,66.099 L244.3176,69.8283 L246.0205,69.8283 Z M244.0674,64.4511 L246.2708,64.4511 L248.7305,73.5636 L246.9299,73.5636 L246.3684,71.3114 L243.9575,71.3114 L243.4082,73.5636 L241.6077,73.5636 Z " fill="#000000"/><text fill="#D8BC00" font-family="Open Sans,Avenir,Nunito,Arial,Helvetica,SansSerif" font-size="12.5" font-style="italic" font-weight="bold" lengthAdjust="spacing" textLength="180.2083" x="262.2396" y="74.1211">BaseRoadNameStandardizer</text><line style="stroke:#5E5E5E;stroke-width:1.0416666666666667;" x1="232.0313" x2="447.6563" y1="85.0911" y2="85.0911"/><line style="stroke:#5E5E5E;stroke-width:1.0416666666666667;" x1="232.0313" x2="447.6563" y1="93.4245" y2="93.4245"/><rect codeLine="17" fill="#282828" height="83.3781" id="EnglishRoadNameStandardizer" rx="8.3333" ry="8.3333" style="stroke:#5E5E5E;stroke-width:1.0416666666666667;" width="269.7917" x="204.9479" y="164.1195"/><rect fill="#1B1B1A" height="31.3883" rx="8.3333" ry="8.3333" style="stroke:#1B1B1A;stroke-width:1.0416666666666667;" width="269.7917" x="204.9479" y="164.1195"/><rect fill="#1B1B1A" height="8.3333" style="stroke:#1B1B1A;stroke-width:1.0416666666666667;" width="269.7917" x="204.9479" y="187.1745"/><rect codeLine="17" fill="none" height="83.3781" id="EnglishRoadNameStandardizer" rx="8.3333" ry="8.3333" style="stroke:#5E5E5E;stroke-width:1.0416666666666667;" width="269.7917" x="204.9479" y="164.1195"/><ellipse cx="235" cy="179.8136" fill="#0066CF" rx="10.4167" ry="10.4167" style="stroke:#0086EF;stroke-width:1.0416666666666667;"/><path d="M236.9104,184.2387 Q236.4832,184.4584 236.0132,184.5683 Q235.5432,184.6781 235.0244,184.6781 Q233.1812,184.6781 232.2107,183.4635 Q231.2402,182.2489 231.2402,179.954 Q231.2402,177.653 232.2107,176.4384 Q233.1812,175.2238 235.0244,175.2238 Q235.5432,175.2238 236.0193,175.3337 Q236.4954,175.4435 236.9104,175.6632 L236.9104,177.6652 Q236.4465,177.238 236.0101,177.0396 Q235.5737,176.8412 235.1099,176.8412 Q234.1211,176.8412 233.6176,177.6255 Q233.114,178.4098 233.114,179.954 Q233.114,181.4921 233.6176,182.2764 Q234.1211,183.0607 235.1099,183.0607 Q235.5737,183.0607 236.0101,182.8623 Q236.4465,182.664 236.9104,182.2367 Z " fill="#000000"/><text fill="#D8BC00" font-family="Open Sans,Avenir,Nunito,Arial,Helvetica,SansSerif" font-size="12.5" font-weight="bold" lengthAdjust="spacing" textLength="197.9167" x="255.1042" y="184.5378">EnglishRoadNameStandardizer</text><line style="stroke:#5E5E5E;stroke-width:1.5625;" x1="205.9896" x2="473.6979" y1="195.5078" y2="195.5078"/><ellipse cx="216.4063" cy="230.8777" fill="#84BE84" rx="3.125" ry="3.125" style="stroke:#038048;stroke-width:1.0416666666666667;"/><text fill="#D8BC00" font-family="Open Sans,Avenir,Nunito,Arial,Helvetica,SansSerif" font-size="11.4583" lengthAdjust="spacing" textLength="237.5" x="227.8646" y="237.7889">EnglishRoadNameStandardizer(MapLocale)</text><line style="stroke:#5E5E5E;stroke-width:1.0416666666666667;" x1="205.9896" x2="296.0938" y1="213.7136" y2="213.7136"/><text fill="#D8BC00" font-family="Open Sans,Avenir,Nunito,Arial,Helvetica,SansSerif" font-size="11.4583" lengthAdjust="spacing" textLength="81.25" x="299.2188" y="217.5232">(constructors)</text><line style="stroke:#5E5E5E;stroke-width:1.0416666666666667;" x1="383.5938" x2="473.6979" y1="213.7136" y2="213.7136"/><rect codeLine="10" fill="#282828" height="83.3781" id="EnglishCanadaRoadNameStandardizer" rx="8.3333" ry="8.3333" style="stroke:#5E5E5E;stroke-width:1.0416666666666667;" width="283.3333" x="29.4271" y="309.9528"/><rect fill="#1B1B1A" height="31.3883" rx="8.3333" ry="8.3333" style="stroke:#1B1B1A;stroke-width:1.0416666666666667;" width="283.3333" x="29.4271" y="309.9528"/><rect fill="#1B1B1A" height="8.3333" style="stroke:#1B1B1A;stroke-width:1.0416666666666667;" width="283.3333" x="29.4271" y="333.0078"/><rect codeLine="10" fill="none" height="83.3781" id="EnglishCanadaRoadNameStandardizer" rx="8.3333" ry="8.3333" style="stroke:#5E5E5E;stroke-width:1.0416666666666667;" width="283.3333" x="29.4271" y="309.9528"/><ellipse cx="44.0104" cy="325.647" fill="#0066CF" rx="10.4167" ry="10.4167" style="stroke:#0086EF;stroke-width:1.0416666666666667;"/><path d="M45.9208,330.072 Q45.4936,330.2917 45.0236,330.4016 Q44.5536,330.5115 44.0348,330.5115 Q42.1916,330.5115 41.2211,329.2969 Q40.2507,328.0823 40.2507,325.7874 Q40.2507,323.4863 41.2211,322.2717 Q42.1916,321.0571 44.0348,321.0571 Q44.5536,321.0571 45.0297,321.167 Q45.5058,321.2769 45.9208,321.4966 L45.9208,323.4985 Q45.4569,323.0713 45.0205,322.8729 Q44.5841,322.6746 44.1203,322.6746 Q43.1315,322.6746 42.628,323.4589 Q42.1244,324.2432 42.1244,325.7874 Q42.1244,327.3254 42.628,328.1097 Q43.1315,328.894 44.1203,328.894 Q44.5841,328.894 45.0205,328.6957 Q45.4569,328.4973 45.9208,328.0701 Z " fill="#000000"/><text fill="#D8BC00" font-family="Open Sans,Avenir,Nunito,Arial,Helvetica,SansSerif" font-size="12.5" font-weight="bold" lengthAdjust="spacing" textLength="245.8333" x="60.6771" y="330.3711">EnglishCanadaRoadNameStandardizer</text><line style="stroke:#5E5E5E;stroke-width:1.5625;" x1="30.4688" x2="311.7188" y1="341.3411" y2="341.3411"/><ellipse cx="40.8854" cy="376.711" fill="#84BE84" rx="3.125" ry="3.125" style="stroke:#038048;stroke-width:1.0416666666666667;"/><text fill="#D8BC00" font-family="Open Sans,Avenir,Nunito,Arial,Helvetica,SansSerif" font-size="11.4583" lengthAdjust="spacing" textLength="220.8333" x="52.3438" y="383.6222">EnglishCanadaRoadNameStandardizer()</text><line style="stroke:#5E5E5E;stroke-width:1.0416666666666667;" x1="30.4688" x2="127.3438" y1="359.5469" y2="359.5469"/><text fill="#D8BC00" font-family="Open Sans,Avenir,Nunito,Arial,Helvetica,SansSerif" font-size="11.4583" lengthAdjust="spacing" textLength="81.25" x="130.4688" y="363.3565">(constructors)</text><line style="stroke:#5E5E5E;stroke-width:1.0416666666666667;" x1="214.8438" x2="311.7188" y1="359.5469" y2="359.5469"/><rect codeLine="24" fill="#282828" height="83.3781" id="EnglishUnitedStatesRoadNameStandardizer" rx="8.3333" ry="8.3333" style="stroke:#5E5E5E;stroke-width:1.0416666666666667;" width="317.7083" x="349.7396" y="309.9528"/><rect fill="#1B1B1A" height="31.3883" rx="8.3333" ry="8.3333" style="stroke:#1B1B1A;stroke-width:1.0416666666666667;" width="317.7083" x="349.7396" y="309.9528"/><rect fill="#1B1B1A" height="8.3333" style="stroke:#1B1B1A;stroke-width:1.0416666666666667;" width="317.7083" x="349.7396" y="333.0078"/><rect codeLine="24" fill="none" height="83.3781" id="EnglishUnitedStatesRoadNameStandardizer" rx="8.3333" ry="8.3333" style="stroke:#5E5E5E;stroke-width:1.0416666666666667;" width="317.7083" x="349.7396" y="309.9528"/><ellipse cx="364.3229" cy="325.647" fill="#0066CF" rx="10.4167" ry="10.4167" style="stroke:#0086EF;stroke-width:1.0416666666666667;"/><path d="M366.2333,330.072 Q365.8061,330.2917 365.3361,330.4016 Q364.8661,330.5115 364.3473,330.5115 Q362.5041,330.5115 361.5336,329.2969 Q360.5632,328.0823 360.5632,325.7874 Q360.5632,323.4863 361.5336,322.2717 Q362.5041,321.0571 364.3473,321.0571 Q364.8661,321.0571 365.3422,321.167 Q365.8183,321.2769 366.2333,321.4966 L366.2333,323.4985 Q365.7694,323.0713 365.333,322.8729 Q364.8966,322.6746 364.4328,322.6746 Q363.444,322.6746 362.9405,323.4589 Q362.4369,324.2432 362.4369,325.7874 Q362.4369,327.3254 362.9405,328.1097 Q363.444,328.894 364.4328,328.894 Q364.8966,328.894 365.333,328.6957 Q365.7694,328.4973 366.2333,328.0701 Z " fill="#000000"/><text fill="#D8BC00" font-family="Open Sans,Avenir,Nunito,Arial,Helvetica,SansSerif" font-size="12.5" font-weight="bold" lengthAdjust="spacing" textLength="280.2083" x="380.9896" y="330.3711">EnglishUnitedStatesRoadNameStandardizer</text><line style="stroke:#5E5E5E;stroke-width:1.5625;" x1="350.7813" x2="666.4063" y1="341.3411" y2="341.3411"/><ellipse cx="361.1979" cy="376.711" fill="#84BE84" rx="3.125" ry="3.125" style="stroke:#038048;stroke-width:1.0416666666666667;"/><text fill="#D8BC00" font-family="Open Sans,Avenir,Nunito,Arial,Helvetica,SansSerif" font-size="11.4583" lengthAdjust="spacing" textLength="248.9583" x="372.6563" y="383.6222">EnglishUnitedStatesRoadNameStandardizer()</text><line style="stroke:#5E5E5E;stroke-width:1.0416666666666667;" x1="350.7813" x2="464.8438" y1="359.5469" y2="359.5469"/><text fill="#D8BC00" font-family="Open Sans,Avenir,Nunito,Arial,Helvetica,SansSerif" font-size="11.4583" lengthAdjust="spacing" textLength="81.25" x="467.9688" y="363.3565">(constructors)</text><line style="stroke:#5E5E5E;stroke-width:1.0416666666666667;" x1="552.3438" x2="666.4063" y1="359.5469" y2="359.5469"/><path codeLine="9" d="M275.7917,261.3903 C256.8854,277.4945 236.5208,294.8486 218.8229,309.9111 " fill="none" id="EnglishRoadNameStandardizer-backto-EnglishCanadaRoadNameStandardizer" style="stroke:#545454;stroke-width:1.5625;"/><polygon fill="none" points="271.3542,255.5986,291.9375,247.6403,280.8125,266.6924,271.3542,255.5986" style="stroke:#545454;stroke-width:1.5625;"/><path codeLine="16" d="M339.8438,122.682 C339.8438,136.0778 339.8438,150.7445 339.8438,163.9215 " fill="none" id="BaseRoadNameStandardizer-backto-EnglishRoadNameStandardizer" style="stroke:#545454;stroke-width:1.5625;"/><polygon fill="none" points="332.5521,122.6507,339.8438,101.8174,347.1354,122.6507,332.5521,122.6507" style="stroke:#545454;stroke-width:1.5625;"/><path codeLine="23" d="M403.8958,261.3903 C422.8021,277.4945 443.1667,294.8486 460.8646,309.9111 " fill="none" id="EnglishRoadNameStandardizer-backto-EnglishUnitedStatesRoadNameStandardizer" style="stroke:#545454;stroke-width:1.5625;"/><polygon fill="none" points="398.875,266.6924,387.75,247.6403,408.3333,255.5986,398.875,266.6924" style="stroke:#545454;stroke-width:1.5625;"/></g></svg>
