<?xml version="1.0" encoding="UTF-8" standalone="no"?><svg xmlns="http://www.w3.org/2000/svg" xmlns:xlink="http://www.w3.org/1999/xlink" contentScriptType="application/ecmascript" contentStyleType="text/css" height="326.0417px" preserveAspectRatio="none" style="width:687px;height:326px;background:#333333;" version="1.1" viewBox="0 0 687 326" width="687.5px" zoomAndPan="magnify"><defs/><g><rect fill="#48494B" height="41.2028" rx="8.3333" ry="8.3333" style="stroke:#545454;stroke-width:1.0416666666666667;" width="675" x="2.0833" y="2.0833"/><text fill="#C0C0C0" font-family="Open Sans,Avenir,Nunito,Arial,Helvetica,SansSerif" font-size="20.8333" lengthAdjust="spacing" textLength="652.0833" x="13.5417" y="30.5583">com.telenav.mesakit.tools.applications.pbf.graph.world.extractor</text><polygon fill="#333333" points="323.6979,52.6611,564.3229,52.6611,571.6146,79.8828,574.7396,79.8828,574.7396,214.1195,323.6979,214.1195,323.6979,52.6611" style="stroke:#333333;stroke-width:2.0833333333333335;"/><line style="stroke:#333333;stroke-width:2.0833333333333335;" x1="323.6979" x2="571.6146" y1="79.8828" y2="79.8828"/><text fill="#C8AC00" font-family="Open Sans,Avenir,Nunito,Arial,Helvetica,SansSerif" font-size="12.5" font-weight="bold" lengthAdjust="spacing" textLength="228.125" x="330.9896" y="69.9544">PbfWorldGraphExtractorApplication</text><rect codeLine="7" fill="#282828" height="87.5448" id="PbfWorldGraphExtractorApplication.Mode" rx="8.3333" ry="8.3333" style="stroke:#5E5E5E;stroke-width:1.0416666666666667;" width="72.9167" x="449.7396" y="101.6195"/><rect fill="#1B1B1A" height="31.3883" rx="8.3333" ry="8.3333" style="stroke:#1B1B1A;stroke-width:1.0416666666666667;" width="72.9167" x="449.7396" y="101.6195"/><rect fill="#1B1B1A" height="8.3333" style="stroke:#1B1B1A;stroke-width:1.0416666666666667;" width="72.9167" x="449.7396" y="124.6745"/><rect codeLine="7" fill="none" height="87.5448" id="PbfWorldGraphExtractorApplication.Mode" rx="8.3333" ry="8.3333" style="stroke:#5E5E5E;stroke-width:1.0416666666666667;" width="72.9167" x="449.7396" y="101.6195"/><ellipse cx="464.3229" cy="117.3136" fill="#CF6300" rx="10.4167" ry="10.4167" style="stroke:#EF8300;stroke-width:1.0416666666666667;"/><path d="M467.3787,122.0011 L461.7025,122.0011 L461.7025,112.8886 L467.3787,112.8886 L467.3787,114.4755 L463.503,114.4755 L463.503,116.4408 L467.0125,116.4408 L467.0125,118.0278 L463.503,118.0278 L463.503,120.4142 L467.3787,120.4142 Z " fill="#000000"/><text fill="#D8BC00" font-family="Open Sans,Avenir,Nunito,Arial,Helvetica,SansSerif" font-size="12.5" font-weight="bold" lengthAdjust="spacing" textLength="35.4167" x="480.9896" y="122.0378">Mode</text><line style="stroke:#5E5E5E;stroke-width:1.0416666666666667;" x1="450.7813" x2="521.6146" y1="133.0078" y2="133.0078"/><text fill="#D8BC00" font-family="Open Sans,Avenir,Nunito,Arial,Helvetica,SansSerif" font-size="11.4583" lengthAdjust="spacing" textLength="54.1667" x="459.1146" y="151.3774">CONVERT</text><text fill="#D8BC00" font-family="Open Sans,Avenir,Nunito,Arial,Helvetica,SansSerif" font-size="11.4583" lengthAdjust="spacing" textLength="52.0833" x="459.1146" y="171.1222">EXTRACT</text><line style="stroke:#5E5E5E;stroke-width:1.0416666666666667;" x1="450.7813" x2="521.6146" y1="180.8309" y2="180.8309"/><rect fill="#282828" height="48.055" id="Application" rx="8.3333" ry="8.3333" style="stroke:#5E5E5E;stroke-width:1.0416666666666667;" width="111.4583" x="185.6771" y="121.4111"/><rect fill="#1B1B1A" height="31.3883" rx="8.3333" ry="8.3333" style="stroke:#1B1B1A;stroke-width:1.0416666666666667;" width="111.4583" x="185.6771" y="121.4111"/><rect fill="#1B1B1A" height="8.3333" style="stroke:#1B1B1A;stroke-width:1.0416666666666667;" width="111.4583" x="185.6771" y="144.4661"/><rect fill="none" height="48.055" id="Application" rx="8.3333" ry="8.3333" style="stroke:#5E5E5E;stroke-width:1.0416666666666667;" width="111.4583" x="185.6771" y="121.4111"/><ellipse cx="200.2604" cy="137.1053" fill="#0066CF" rx="10.4167" ry="10.4167" style="stroke:#0086EF;stroke-width:1.0416666666666667;"/><path d="M202.1708,141.5304 Q201.7436,141.7501 201.2736,141.8599 Q200.8036,141.9698 200.2848,141.9698 Q198.4416,141.9698 197.4711,140.7552 Q196.5007,139.5406 196.5007,137.2457 Q196.5007,134.9447 197.4711,133.7301 Q198.4416,132.5155 200.2848,132.5155 Q200.8036,132.5155 201.2797,132.6253 Q201.7558,132.7352 202.1708,132.9549 L202.1708,134.9569 Q201.7069,134.5296 201.2705,134.3313 Q200.8341,134.1329 200.3703,134.1329 Q199.3815,134.1329 198.878,134.9172 Q198.3744,135.7015 198.3744,137.2457 Q198.3744,138.7838 198.878,139.5681 Q199.3815,140.3524 200.3703,140.3524 Q200.8341,140.3524 201.2705,140.154 Q201.7069,139.9556 202.1708,139.5284 Z " fill="#000000"/><text fill="#D8BC00" font-family="Open Sans,Avenir,Nunito,Arial,Helvetica,SansSerif" font-size="12.5" font-weight="bold" lengthAdjust="spacing" textLength="73.9583" x="216.9271" y="141.8294">Application</text><line style="stroke:#5E5E5E;stroke-width:1.0416666666666667;" x1="186.7188" x2="296.0938" y1="152.7995" y2="152.7995"/><line style="stroke:#5E5E5E;stroke-width:1.0416666666666667;" x1="186.7188" x2="296.0938" y1="161.1328" y2="161.1328"/><rect codeLine="14" fill="#282828" height="67.7999" id="PbfWorldGraphExtractorApplication" rx="8.3333" ry="8.3333" style="stroke:#5E5E5E;stroke-width:1.0416666666666667;" width="265.625" x="108.5938" y="251.6195"/><rect fill="#1B1B1A" height="31.3883" rx="8.3333" ry="8.3333" style="stroke:#1B1B1A;stroke-width:1.0416666666666667;" width="265.625" x="108.5938" y="251.6195"/><rect fill="#1B1B1A" height="8.3333" style="stroke:#1B1B1A;stroke-width:1.0416666666666667;" width="265.625" x="108.5938" y="274.6745"/><rect codeLine="14" fill="none" height="67.7999" id="PbfWorldGraphExtractorApplication" rx="8.3333" ry="8.3333" style="stroke:#5E5E5E;stroke-width:1.0416666666666667;" width="265.625" x="108.5938" y="251.6195"/><ellipse cx="123.1771" cy="267.3136" fill="#0066CF" rx="10.4167" ry="10.4167" style="stroke:#0086EF;stroke-width:1.0416666666666667;"/><path d="M125.0875,271.7387 Q124.6602,271.9584 124.1903,272.0683 Q123.7203,272.1781 123.2015,272.1781 Q121.3582,272.1781 120.3878,270.9635 Q119.4173,269.7489 119.4173,267.454 Q119.4173,265.153 120.3878,263.9384 Q121.3582,262.7238 123.2015,262.7238 Q123.7203,262.7238 124.1964,262.8337 Q124.6724,262.9435 125.0875,263.1632 L125.0875,265.1652 Q124.6236,264.738 124.1872,264.5396 Q123.7508,264.3412 123.2869,264.3412 Q122.2982,264.3412 121.7946,265.1255 Q121.2911,265.9098 121.2911,267.454 Q121.2911,268.9921 121.7946,269.7764 Q122.2982,270.5607 123.2869,270.5607 Q123.7508,270.5607 124.1872,270.3623 Q124.6236,270.164 125.0875,269.7367 Z " fill="#000000"/><text fill="#D8BC00" font-family="Open Sans,Avenir,Nunito,Arial,Helvetica,SansSerif" font-size="12.5" font-weight="bold" lengthAdjust="spacing" textLength="228.125" x="139.8438" y="272.0378">PbfWorldGraphExtractorApplication</text><line style="stroke:#5E5E5E;stroke-width:1.5625;" x1="109.6354" x2="373.1771" y1="283.0078" y2="283.0078"/><line style="stroke:#5E5E5E;stroke-width:1.0416666666666667;" x1="109.6354" x2="373.1771" y1="291.3411" y2="291.3411"/><ellipse cx="120.0521" cy="302.7995" fill="#84BE84" rx="3.125" ry="3.125" style="stroke:#038048;stroke-width:1.0416666666666667;"/><text fill="#D8BC00" font-family="Open Sans,Avenir,Nunito,Arial,Helvetica,SansSerif" font-size="11.4583" lengthAdjust="spacing" textLength="167.7083" x="131.5104" y="309.7107">void main(String[] arguments)</text><path codeLine="13" d="M241.4063,190.4424 C241.4063,210.2132 241.4063,233.1611 241.4063,251.4215 " fill="none" id="Application-backto-PbfWorldGraphExtractorApplication" style="stroke:#545454;stroke-width:1.5625;"/><polygon fill="none" points="234.1146,190.3486,241.4063,169.5153,248.6979,190.3486,234.1146,190.3486" style="stroke:#545454;stroke-width:1.5625;"/></g></svg>
