<?xml version="1.0" encoding="UTF-8" standalone="no"?><svg xmlns="http://www.w3.org/2000/svg" xmlns:xlink="http://www.w3.org/1999/xlink" contentScriptType="application/ecmascript" contentStyleType="text/css" height="472.9167px" preserveAspectRatio="none" style="width:1539px;height:472px;background:#333333;" version="1.1" viewBox="0 0 1539 472" width="1539.5833px" zoomAndPan="magnify"><defs/><g><rect fill="#48494B" height="41.2028" rx="8.3333" ry="8.3333" style="stroke:#545454;stroke-width:1.0416666666666667;" width="671.875" x="426.8229" y="2.0833"/><text fill="#C0C0C0" font-family="Open Sans,Avenir,Nunito,Arial,Helvetica,SansSerif" font-size="20.8333" lengthAdjust="spacing" textLength="648.9583" x="438.2813" y="30.5583">com.telenav.mesakit.plugins.josm.graph.view.graphics.renderers</text><!--MD5=[4945c737fad898a5ce312252f730d528]
class Renderer--><rect codeLine="59" fill="#282828" height="218.514" id="Renderer" rx="8.3333" ry="8.3333" style="stroke:#5E5E5E;stroke-width:1.0416666666666667;" width="298.9583" x="961.9792" y="53.7028"/><rect fill="#1B1B1A" height="31.3883" rx="8.3333" ry="8.3333" style="stroke:#1B1B1A;stroke-width:1.0416666666666667;" width="298.9583" x="961.9792" y="53.7028"/><rect fill="#1B1B1A" height="8.3333" style="stroke:#1B1B1A;stroke-width:1.0416666666666667;" width="298.9583" x="961.9792" y="76.7578"/><rect codeLine="59" fill="none" height="218.514" id="Renderer" rx="8.3333" ry="8.3333" style="stroke:#5E5E5E;stroke-width:1.0416666666666667;" width="298.9583" x="961.9792" y="53.7028"/><ellipse cx="1075.5208" cy="69.397" fill="#C8AC00" rx="10.4167" ry="10.4167" style="stroke:#D8BC00;stroke-width:1.0416666666666667;"/><path d="M1075.1139,66.099 L1074.2655,69.8283 L1075.9684,69.8283 Z M1074.0153,64.4511 L1076.2187,64.4511 L1078.6784,73.5636 L1076.8778,73.5636 L1076.3163,71.3114 L1073.9054,71.3114 L1073.3561,73.5636 L1071.5556,73.5636 Z " fill="#000000"/><text fill="#D8BC00" font-family="Open Sans,Avenir,Nunito,Arial,Helvetica,SansSerif" font-size="12.5" font-style="italic" font-weight="bold" lengthAdjust="spacing" textLength="57.2917" x="1098.4375" y="74.1211">Renderer</text><line style="stroke:#5E5E5E;stroke-width:1.5625;" x1="963.0208" x2="1259.8958" y1="85.0911" y2="85.0911"/><polygon fill="#FFFF44" points="973.4375,115.2527,977.6042,119.4194,973.4375,123.586,969.2708,119.4194" style="stroke:#B38D22;stroke-width:1.0416666666666667;"/><text fill="#D8BC00" font-family="Open Sans,Avenir,Nunito,Arial,Helvetica,SansSerif" font-size="11.4583" lengthAdjust="spacing" textLength="187.5" x="984.8958" y="127.3722">Renderer(MapCanvas, ViewModel)</text><line style="stroke:#5E5E5E;stroke-width:1.0416666666666667;" x1="963.0208" x2="1067.7083" y1="103.2969" y2="103.2969"/><text fill="#D8BC00" font-family="Open Sans,Avenir,Nunito,Arial,Helvetica,SansSerif" font-size="11.4583" lengthAdjust="spacing" textLength="81.25" x="1070.8333" y="107.1065">(constructors)</text><line style="stroke:#5E5E5E;stroke-width:1.0416666666666667;" x1="1155.2083" x2="1259.8958" y1="103.2969" y2="103.2969"/><line style="stroke:#5E5E5E;stroke-width:1.0416666666666667;" x1="963.0208" x2="1259.8958" y1="137.0809" y2="137.0809"/><polygon fill="#FFFF44" points="973.4375,143.3309,977.6042,147.4976,973.4375,151.6642,969.2708,147.4976" style="stroke:#B38D22;stroke-width:1.0416666666666667;"/><text fill="#D8BC00" font-family="Open Sans,Avenir,Nunito,Arial,Helvetica,SansSerif" font-size="11.4583" lengthAdjust="spacing" textLength="266.6667" x="984.8958" y="155.4504">void callout(Location, MapDot, Style, String text)</text><polygon fill="#FFFF44" points="973.4375,163.0758,977.6042,167.2424,973.4375,171.4091,969.2708,167.2424" style="stroke:#B38D22;stroke-width:1.0416666666666667;"/><text fill="#D8BC00" font-family="Open Sans,Avenir,Nunito,Arial,Helvetica,SansSerif" font-size="11.4583" lengthAdjust="spacing" textLength="104.1667" x="984.8958" y="175.1953">ViewModel model()</text><polygon fill="#FFFF44" points="973.4375,206.7322,977.6042,210.8988,973.4375,215.0655,969.2708,210.8988" style="stroke:#B38D22;stroke-width:1.0416666666666667;"/><text fill="#D8BC00" font-family="Open Sans,Avenir,Nunito,Arial,Helvetica,SansSerif" font-size="11.4583" lengthAdjust="spacing" textLength="129.1667" x="984.8958" y="218.8517">boolean isVisible(Edge)</text><line style="stroke:#5E5E5E;stroke-width:1.0416666666666667;" x1="963.0208" x2="1084.8958" y1="194.7764" y2="194.7764"/><text fill="#D8BC00" font-family="Open Sans,Avenir,Nunito,Arial,Helvetica,SansSerif" font-size="11.4583" lengthAdjust="spacing" textLength="46.875" x="1088.0208" y="198.586">(checks)</text><line style="stroke:#5E5E5E;stroke-width:1.0416666666666667;" x1="1138.0208" x2="1259.8958" y1="194.7764" y2="194.7764"/><polygon fill="#FFFF44" points="973.4375,250.3886,977.6042,254.5553,973.4375,258.7219,969.2708,254.5553" style="stroke:#B38D22;stroke-width:1.0416666666666667;"/><text fill="#D8BC00" font-family="Open Sans,Avenir,Nunito,Arial,Helvetica,SansSerif" font-size="11.4583" lengthAdjust="spacing" textLength="113.5417" x="984.8958" y="262.5081">MapCanvas canvas()</text><line style="stroke:#5E5E5E;stroke-width:1.0416666666666667;" x1="963.0208" x2="1077.0833" y1="238.4328" y2="238.4328"/><text fill="#D8BC00" font-family="Open Sans,Avenir,Nunito,Arial,Helvetica,SansSerif" font-size="11.4583" lengthAdjust="spacing" textLength="62.5" x="1080.2083" y="242.2424">(collection)</text><line style="stroke:#5E5E5E;stroke-width:1.0416666666666667;" x1="1145.8333" x2="1259.8958" y1="238.4328" y2="238.4328"/><!--MD5=[05a53f18e2d2b478cd5e04e28017ccf5]
class DebugAnnotationRenderer--><rect codeLine="7" fill="#282828" height="111.4563" id="DebugAnnotationRenderer" rx="8.3333" ry="8.3333" style="stroke:#5E5E5E;stroke-width:1.0416666666666667;" width="318.75" x="617.7083" y="344.8486"/><rect fill="#1B1B1A" height="31.3883" rx="8.3333" ry="8.3333" style="stroke:#1B1B1A;stroke-width:1.0416666666666667;" width="318.75" x="617.7083" y="344.8486"/><rect fill="#1B1B1A" height="8.3333" style="stroke:#1B1B1A;stroke-width:1.0416666666666667;" width="318.75" x="617.7083" y="367.9036"/><rect codeLine="7" fill="none" height="111.4563" id="DebugAnnotationRenderer" rx="8.3333" ry="8.3333" style="stroke:#5E5E5E;stroke-width:1.0416666666666667;" width="318.75" x="617.7083" y="344.8486"/><ellipse cx="683.3333" cy="360.5428" fill="#0066CF" rx="10.4167" ry="10.4167" style="stroke:#0086EF;stroke-width:1.0416666666666667;"/><path d="M685.2437,364.9679 Q684.8165,365.1876 684.3465,365.2974 Q683.8765,365.4073 683.3577,365.4073 Q681.5145,365.4073 680.544,364.1927 Q679.5736,362.9781 679.5736,360.6832 Q679.5736,358.3822 680.544,357.1676 Q681.5145,355.953 683.3577,355.953 Q683.8765,355.953 684.3526,356.0628 Q684.8287,356.1727 685.2437,356.3924 L685.2437,358.3944 Q684.7799,357.9671 684.3435,357.7688 Q683.9071,357.5704 683.4432,357.5704 Q682.4544,357.5704 681.9509,358.3547 Q681.4473,359.139 681.4473,360.6832 Q681.4473,362.2213 681.9509,363.0056 Q682.4544,363.7899 683.4432,363.7899 Q683.9071,363.7899 684.3435,363.5915 Q684.7799,363.3931 685.2437,362.9659 Z " fill="#000000"/><text fill="#D8BC00" font-family="Open Sans,Avenir,Nunito,Arial,Helvetica,SansSerif" font-size="12.5" font-weight="bold" lengthAdjust="spacing" textLength="172.9167" x="706.25" y="365.2669">DebugAnnotationRenderer</text><line style="stroke:#5E5E5E;stroke-width:1.5625;" x1="618.75" x2="935.4167" y1="376.237" y2="376.237"/><ellipse cx="629.1667" cy="411.6069" fill="#84BE84" rx="3.125" ry="3.125" style="stroke:#038048;stroke-width:1.0416666666666667;"/><text fill="#D8BC00" font-family="Open Sans,Avenir,Nunito,Arial,Helvetica,SansSerif" font-size="11.4583" lengthAdjust="spacing" textLength="286.4583" x="640.625" y="418.5181">DebugAnnotationRenderer(MapCanvas, ViewModel)</text><line style="stroke:#5E5E5E;stroke-width:1.0416666666666667;" x1="618.75" x2="733.3333" y1="394.4427" y2="394.4427"/><text fill="#D8BC00" font-family="Open Sans,Avenir,Nunito,Arial,Helvetica,SansSerif" font-size="11.4583" lengthAdjust="spacing" textLength="81.25" x="736.4583" y="398.2524">(constructors)</text><line style="stroke:#5E5E5E;stroke-width:1.0416666666666667;" x1="820.8333" x2="935.4167" y1="394.4427" y2="394.4427"/><line style="stroke:#5E5E5E;stroke-width:1.0416666666666667;" x1="618.75" x2="935.4167" y1="428.2267" y2="428.2267"/><ellipse cx="629.1667" cy="439.6851" fill="#84BE84" rx="3.125" ry="3.125" style="stroke:#038048;stroke-width:1.0416666666666667;"/><text fill="#D8BC00" font-family="Open Sans,Avenir,Nunito,Arial,Helvetica,SansSerif" font-size="11.4583" lengthAdjust="spacing" textLength="131.25" x="640.625" y="446.5963">void drawAnnotations()</text><!--MD5=[1e01929a7d40ef2155bf5640b7b8b956]
class EdgeLabelRenderer--><rect codeLine="16" fill="#282828" height="111.4563" id="EdgeLabelRenderer" rx="8.3333" ry="8.3333" style="stroke:#5E5E5E;stroke-width:1.0416666666666667;" width="276.0417" x="973.4375" y="344.8486"/><rect fill="#1B1B1A" height="31.3883" rx="8.3333" ry="8.3333" style="stroke:#1B1B1A;stroke-width:1.0416666666666667;" width="276.0417" x="973.4375" y="344.8486"/><rect fill="#1B1B1A" height="8.3333" style="stroke:#1B1B1A;stroke-width:1.0416666666666667;" width="276.0417" x="973.4375" y="367.9036"/><rect codeLine="16" fill="none" height="111.4563" id="EdgeLabelRenderer" rx="8.3333" ry="8.3333" style="stroke:#5E5E5E;stroke-width:1.0416666666666667;" width="276.0417" x="973.4375" y="344.8486"/><ellipse cx="1042.7083" cy="360.5428" fill="#0066CF" rx="10.4167" ry="10.4167" style="stroke:#0086EF;stroke-width:1.0416666666666667;"/><path d="M1044.6187,364.9679 Q1044.1915,365.1876 1043.7215,365.2974 Q1043.2515,365.4073 1042.7327,365.4073 Q1040.8895,365.4073 1039.919,364.1927 Q1038.9486,362.9781 1038.9486,360.6832 Q1038.9486,358.3822 1039.919,357.1676 Q1040.8895,355.953 1042.7327,355.953 Q1043.2515,355.953 1043.7276,356.0628 Q1044.2037,356.1727 1044.6187,356.3924 L1044.6187,358.3944 Q1044.1549,357.9671 1043.7185,357.7688 Q1043.2821,357.5704 1042.8182,357.5704 Q1041.8294,357.5704 1041.3259,358.3547 Q1040.8223,359.139 1040.8223,360.6832 Q1040.8223,362.2213 1041.3259,363.0056 Q1041.8294,363.7899 1042.8182,363.7899 Q1043.2821,363.7899 1043.7185,363.5915 Q1044.1549,363.3931 1044.6187,362.9659 Z " fill="#000000"/><text fill="#D8BC00" font-family="Open Sans,Avenir,Nunito,Arial,Helvetica,SansSerif" font-size="12.5" font-weight="bold" lengthAdjust="spacing" textLength="122.9167" x="1065.625" y="365.2669">EdgeLabelRenderer</text><line style="stroke:#5E5E5E;stroke-width:1.5625;" x1="974.4792" x2="1248.4375" y1="376.237" y2="376.237"/><ellipse cx="984.8958" cy="411.6069" fill="#84BE84" rx="3.125" ry="3.125" style="stroke:#038048;stroke-width:1.0416666666666667;"/><text fill="#D8BC00" font-family="Open Sans,Avenir,Nunito,Arial,Helvetica,SansSerif" font-size="11.4583" lengthAdjust="spacing" textLength="243.75" x="996.3542" y="418.5181">EdgeLabelRenderer(MapCanvas, ViewModel)</text><line style="stroke:#5E5E5E;stroke-width:1.0416666666666667;" x1="974.4792" x2="1067.7083" y1="394.4427" y2="394.4427"/><text fill="#D8BC00" font-family="Open Sans,Avenir,Nunito,Arial,Helvetica,SansSerif" font-size="11.4583" lengthAdjust="spacing" textLength="81.25" x="1070.8333" y="398.2524">(constructors)</text><line style="stroke:#5E5E5E;stroke-width:1.0416666666666667;" x1="1155.2083" x2="1248.4375" y1="394.4427" y2="394.4427"/><line style="stroke:#5E5E5E;stroke-width:1.0416666666666667;" x1="974.4792" x2="1248.4375" y1="428.2267" y2="428.2267"/><ellipse cx="984.8958" cy="439.6851" fill="#84BE84" rx="3.125" ry="3.125" style="stroke:#038048;stroke-width:1.0416666666666667;"/><text fill="#D8BC00" font-family="Open Sans,Avenir,Nunito,Arial,Helvetica,SansSerif" font-size="11.4583" lengthAdjust="spacing" textLength="142.7083" x="996.3542" y="446.5963">void draw(Selection.Type)</text><!--MD5=[b3eaf5c3a54d42564706449daa2defb6]
class EdgeRenderer--><rect codeLine="25" fill="#282828" height="111.4563" id="EdgeRenderer" rx="8.3333" ry="8.3333" style="stroke:#5E5E5E;stroke-width:1.0416666666666667;" width="246.875" x="1285.9375" y="344.8486"/><rect fill="#1B1B1A" height="31.3883" rx="8.3333" ry="8.3333" style="stroke:#1B1B1A;stroke-width:1.0416666666666667;" width="246.875" x="1285.9375" y="344.8486"/><rect fill="#1B1B1A" height="8.3333" style="stroke:#1B1B1A;stroke-width:1.0416666666666667;" width="246.875" x="1285.9375" y="367.9036"/><rect codeLine="25" fill="none" height="111.4563" id="EdgeRenderer" rx="8.3333" ry="8.3333" style="stroke:#5E5E5E;stroke-width:1.0416666666666667;" width="246.875" x="1285.9375" y="344.8486"/><ellipse cx="1357.8125" cy="360.5428" fill="#0066CF" rx="10.4167" ry="10.4167" style="stroke:#0086EF;stroke-width:1.0416666666666667;"/><path d="M1359.7229,364.9679 Q1359.2957,365.1876 1358.8257,365.2974 Q1358.3557,365.4073 1357.8369,365.4073 Q1355.9937,365.4073 1355.0232,364.1927 Q1354.0527,362.9781 1354.0527,360.6832 Q1354.0527,358.3822 1355.0232,357.1676 Q1355.9937,355.953 1357.8369,355.953 Q1358.3557,355.953 1358.8318,356.0628 Q1359.3079,356.1727 1359.7229,356.3924 L1359.7229,358.3944 Q1359.259,357.9671 1358.8226,357.7688 Q1358.3862,357.5704 1357.9224,357.5704 Q1356.9336,357.5704 1356.4301,358.3547 Q1355.9265,359.139 1355.9265,360.6832 Q1355.9265,362.2213 1356.4301,363.0056 Q1356.9336,363.7899 1357.9224,363.7899 Q1358.3862,363.7899 1358.8226,363.5915 Q1359.259,363.3931 1359.7229,362.9659 Z " fill="#000000"/><text fill="#D8BC00" font-family="Open Sans,Avenir,Nunito,Arial,Helvetica,SansSerif" font-size="12.5" font-weight="bold" lengthAdjust="spacing" textLength="88.5417" x="1380.7292" y="365.2669">EdgeRenderer</text><line style="stroke:#5E5E5E;stroke-width:1.5625;" x1="1286.9792" x2="1531.7708" y1="376.237" y2="376.237"/><ellipse cx="1297.3958" cy="411.6069" fill="#84BE84" rx="3.125" ry="3.125" style="stroke:#038048;stroke-width:1.0416666666666667;"/><text fill="#D8BC00" font-family="Open Sans,Avenir,Nunito,Arial,Helvetica,SansSerif" font-size="11.4583" lengthAdjust="spacing" textLength="214.5833" x="1308.8542" y="418.5181">EdgeRenderer(MapCanvas, ViewModel)</text><line style="stroke:#5E5E5E;stroke-width:1.0416666666666667;" x1="1286.9792" x2="1365.625" y1="394.4427" y2="394.4427"/><text fill="#D8BC00" font-family="Open Sans,Avenir,Nunito,Arial,Helvetica,SansSerif" font-size="11.4583" lengthAdjust="spacing" textLength="81.25" x="1368.75" y="398.2524">(constructors)</text><line style="stroke:#5E5E5E;stroke-width:1.0416666666666667;" x1="1453.125" x2="1531.7708" y1="394.4427" y2="394.4427"/><line style="stroke:#5E5E5E;stroke-width:1.0416666666666667;" x1="1286.9792" x2="1531.7708" y1="428.2267" y2="428.2267"/><ellipse cx="1297.3958" cy="439.6851" fill="#84BE84" rx="3.125" ry="3.125" style="stroke:#038048;stroke-width:1.0416666666666667;"/><text fill="#D8BC00" font-family="Open Sans,Avenir,Nunito,Arial,Helvetica,SansSerif" font-size="11.4583" lengthAdjust="spacing" textLength="142.7083" x="1308.8542" y="446.5963">void draw(Selection.Type)</text><!--MD5=[841fb92b3e08b8b7772313aeefcbe856]
class PlaceRenderer--><rect codeLine="33" fill="#282828" height="111.4563" id="PlaceRenderer" rx="8.3333" ry="8.3333" style="stroke:#5E5E5E;stroke-width:1.0416666666666667;" width="247.9167" x="23.9583" y="107.3486"/><rect fill="#1B1B1A" height="31.3883" rx="8.3333" ry="8.3333" style="stroke:#1B1B1A;stroke-width:1.0416666666666667;" width="247.9167" x="23.9583" y="107.3486"/><rect fill="#1B1B1A" height="8.3333" style="stroke:#1B1B1A;stroke-width:1.0416666666666667;" width="247.9167" x="23.9583" y="130.4036"/><rect codeLine="33" fill="none" height="111.4563" id="PlaceRenderer" rx="8.3333" ry="8.3333" style="stroke:#5E5E5E;stroke-width:1.0416666666666667;" width="247.9167" x="23.9583" y="107.3486"/><ellipse cx="95.8333" cy="123.0428" fill="#0066CF" rx="10.4167" ry="10.4167" style="stroke:#0086EF;stroke-width:1.0416666666666667;"/><path d="M97.7437,127.4679 Q97.3165,127.6876 96.8465,127.7974 Q96.3765,127.9073 95.8577,127.9073 Q94.0145,127.9073 93.044,126.6927 Q92.0736,125.4781 92.0736,123.1832 Q92.0736,120.8822 93.044,119.6676 Q94.0145,118.453 95.8577,118.453 Q96.3765,118.453 96.8526,118.5628 Q97.3287,118.6727 97.7437,118.8924 L97.7437,120.8944 Q97.2799,120.4671 96.8435,120.2688 Q96.4071,120.0704 95.9432,120.0704 Q94.9544,120.0704 94.4509,120.8547 Q93.9473,121.639 93.9473,123.1832 Q93.9473,124.7213 94.4509,125.5056 Q94.9544,126.2899 95.9432,126.2899 Q96.4071,126.2899 96.8435,126.0915 Q97.2799,125.8931 97.7437,125.4659 Z " fill="#000000"/><text fill="#D8BC00" font-family="Open Sans,Avenir,Nunito,Arial,Helvetica,SansSerif" font-size="12.5" font-weight="bold" lengthAdjust="spacing" textLength="89.5833" x="118.75" y="127.7669">PlaceRenderer</text><line style="stroke:#5E5E5E;stroke-width:1.5625;" x1="25" x2="270.8333" y1="138.737" y2="138.737"/><ellipse cx="35.4167" cy="174.1069" fill="#84BE84" rx="3.125" ry="3.125" style="stroke:#038048;stroke-width:1.0416666666666667;"/><text fill="#D8BC00" font-family="Open Sans,Avenir,Nunito,Arial,Helvetica,SansSerif" font-size="11.4583" lengthAdjust="spacing" textLength="215.625" x="46.875" y="181.0181">PlaceRenderer(MapCanvas, ViewModel)</text><line style="stroke:#5E5E5E;stroke-width:1.0416666666666667;" x1="25" x2="104.1667" y1="156.9427" y2="156.9427"/><text fill="#D8BC00" font-family="Open Sans,Avenir,Nunito,Arial,Helvetica,SansSerif" font-size="11.4583" lengthAdjust="spacing" textLength="81.25" x="107.2917" y="160.7524">(constructors)</text><line style="stroke:#5E5E5E;stroke-width:1.0416666666666667;" x1="191.6667" x2="270.8333" y1="156.9427" y2="156.9427"/><line style="stroke:#5E5E5E;stroke-width:1.0416666666666667;" x1="25" x2="270.8333" y1="190.7267" y2="190.7267"/><ellipse cx="35.4167" cy="202.1851" fill="#84BE84" rx="3.125" ry="3.125" style="stroke:#038048;stroke-width:1.0416666666666667;"/><text fill="#D8BC00" font-family="Open Sans,Avenir,Nunito,Arial,Helvetica,SansSerif" font-size="11.4583" lengthAdjust="spacing" textLength="142.7083" x="46.875" y="209.0963">void draw(Selection.Type)</text><!--MD5=[954be5c1ad374f688d8c9aea782cc41c]
class PolylineRenderer--><rect codeLine="41" fill="#282828" height="150.946" id="PolylineRenderer" rx="8.3333" ry="8.3333" style="stroke:#5E5E5E;stroke-width:1.0416666666666667;" width="262.5" x="308.3333" y="87.557"/><rect fill="#1B1B1A" height="31.3883" rx="8.3333" ry="8.3333" style="stroke:#1B1B1A;stroke-width:1.0416666666666667;" width="262.5" x="308.3333" y="87.557"/><rect fill="#1B1B1A" height="8.3333" style="stroke:#1B1B1A;stroke-width:1.0416666666666667;" width="262.5" x="308.3333" y="110.612"/><rect codeLine="41" fill="none" height="150.946" id="PolylineRenderer" rx="8.3333" ry="8.3333" style="stroke:#5E5E5E;stroke-width:1.0416666666666667;" width="262.5" x="308.3333" y="87.557"/><ellipse cx="378.125" cy="103.2511" fill="#0066CF" rx="10.4167" ry="10.4167" style="stroke:#0086EF;stroke-width:1.0416666666666667;"/><path d="M380.0354,107.6762 Q379.6082,107.8959 379.1382,108.0058 Q378.6682,108.1156 378.1494,108.1156 Q376.3062,108.1156 375.3357,106.901 Q374.3652,105.6864 374.3652,103.3915 Q374.3652,101.0905 375.3357,99.8759 Q376.3062,98.6613 378.1494,98.6613 Q378.6682,98.6613 379.1443,98.7712 Q379.6204,98.881 380.0354,99.1007 L380.0354,101.1027 Q379.5715,100.6755 379.1351,100.4771 Q378.6987,100.2787 378.2349,100.2787 Q377.2461,100.2787 376.7426,101.063 Q376.239,101.8473 376.239,103.3915 Q376.239,104.9296 376.7426,105.7139 Q377.2461,106.4982 378.2349,106.4982 Q378.6987,106.4982 379.1351,106.2998 Q379.5715,106.1015 380.0354,105.6742 Z " fill="#000000"/><text fill="#D8BC00" font-family="Open Sans,Avenir,Nunito,Arial,Helvetica,SansSerif" font-size="12.5" font-weight="bold" lengthAdjust="spacing" textLength="108.3333" x="401.0417" y="107.9753">PolylineRenderer</text><line style="stroke:#5E5E5E;stroke-width:1.5625;" x1="309.375" x2="569.7917" y1="118.9453" y2="118.9453"/><ellipse cx="319.7917" cy="154.3152" fill="#84BE84" rx="3.125" ry="3.125" style="stroke:#038048;stroke-width:1.0416666666666667;"/><text fill="#D8BC00" font-family="Open Sans,Avenir,Nunito,Arial,Helvetica,SansSerif" font-size="11.4583" lengthAdjust="spacing" textLength="230.2083" x="331.25" y="161.2264">PolylineRenderer(MapCanvas, ViewModel)</text><line style="stroke:#5E5E5E;stroke-width:1.0416666666666667;" x1="309.375" x2="395.8333" y1="137.1511" y2="137.1511"/><text fill="#D8BC00" font-family="Open Sans,Avenir,Nunito,Arial,Helvetica,SansSerif" font-size="11.4583" lengthAdjust="spacing" textLength="81.25" x="398.9583" y="140.9607">(constructors)</text><line style="stroke:#5E5E5E;stroke-width:1.0416666666666667;" x1="483.3333" x2="569.7917" y1="137.1511" y2="137.1511"/><line style="stroke:#5E5E5E;stroke-width:1.0416666666666667;" x1="309.375" x2="569.7917" y1="170.9351" y2="170.9351"/><ellipse cx="319.7917" cy="182.3934" fill="#84BE84" rx="3.125" ry="3.125" style="stroke:#038048;stroke-width:1.0416666666666667;"/><text fill="#D8BC00" font-family="Open Sans,Avenir,Nunito,Arial,Helvetica,SansSerif" font-size="11.4583" lengthAdjust="spacing" textLength="105.2083" x="331.25" y="189.3046">void draw(Polyline)</text><ellipse cx="319.7917" cy="202.1383" fill="#84BE84" rx="3.125" ry="3.125" style="stroke:#038048;stroke-width:1.0416666666666667;"/><text fill="#D8BC00" font-family="Open Sans,Avenir,Nunito,Arial,Helvetica,SansSerif" font-size="11.4583" lengthAdjust="spacing" textLength="137.5" x="331.25" y="209.0495">void draw(Polyline, Style)</text><ellipse cx="319.7917" cy="221.8831" fill="#84BE84" rx="3.125" ry="3.125" style="stroke:#038048;stroke-width:1.0416666666666667;"/><text fill="#D8BC00" font-family="Open Sans,Avenir,Nunito,Arial,Helvetica,SansSerif" font-size="11.4583" lengthAdjust="spacing" textLength="157.2917" x="331.25" y="228.7944">void drawSelectedPolylines()</text><!--MD5=[d3f317cb37967c5a1e6b7d5507ebfde2]
class RelationRenderer--><rect codeLine="51" fill="#282828" height="111.4563" id="RelationRenderer" rx="8.3333" ry="8.3333" style="stroke:#5E5E5E;stroke-width:1.0416666666666667;" width="264.5833" x="607.2917" y="107.3486"/><rect fill="#1B1B1A" height="31.3883" rx="8.3333" ry="8.3333" style="stroke:#1B1B1A;stroke-width:1.0416666666666667;" width="264.5833" x="607.2917" y="107.3486"/><rect fill="#1B1B1A" height="8.3333" style="stroke:#1B1B1A;stroke-width:1.0416666666666667;" width="264.5833" x="607.2917" y="130.4036"/><rect codeLine="51" fill="none" height="111.4563" id="RelationRenderer" rx="8.3333" ry="8.3333" style="stroke:#5E5E5E;stroke-width:1.0416666666666667;" width="264.5833" x="607.2917" y="107.3486"/><ellipse cx="677.0833" cy="123.0428" fill="#0066CF" rx="10.4167" ry="10.4167" style="stroke:#0086EF;stroke-width:1.0416666666666667;"/><path d="M678.9937,127.4679 Q678.5665,127.6876 678.0965,127.7974 Q677.6265,127.9073 677.1077,127.9073 Q675.2645,127.9073 674.294,126.6927 Q673.3236,125.4781 673.3236,123.1832 Q673.3236,120.8822 674.294,119.6676 Q675.2645,118.453 677.1077,118.453 Q677.6265,118.453 678.1026,118.5628 Q678.5787,118.6727 678.9937,118.8924 L678.9937,120.8944 Q678.5299,120.4671 678.0935,120.2688 Q677.6571,120.0704 677.1932,120.0704 Q676.2044,120.0704 675.7009,120.8547 Q675.1973,121.639 675.1973,123.1832 Q675.1973,124.7213 675.7009,125.5056 Q676.2044,126.2899 677.1932,126.2899 Q677.6571,126.2899 678.0935,126.0915 Q678.5299,125.8931 678.9937,125.4659 Z " fill="#000000"/><text fill="#D8BC00" font-family="Open Sans,Avenir,Nunito,Arial,Helvetica,SansSerif" font-size="12.5" font-weight="bold" lengthAdjust="spacing" textLength="110.4167" x="700" y="127.7669">RelationRenderer</text><line style="stroke:#5E5E5E;stroke-width:1.5625;" x1="608.3333" x2="870.8333" y1="138.737" y2="138.737"/><ellipse cx="618.75" cy="174.1069" fill="#84BE84" rx="3.125" ry="3.125" style="stroke:#038048;stroke-width:1.0416666666666667;"/><text fill="#D8BC00" font-family="Open Sans,Avenir,Nunito,Arial,Helvetica,SansSerif" font-size="11.4583" lengthAdjust="spacing" textLength="232.2917" x="630.2083" y="181.0181">RelationRenderer(MapCanvas, ViewModel)</text><line style="stroke:#5E5E5E;stroke-width:1.0416666666666667;" x1="608.3333" x2="695.8333" y1="156.9427" y2="156.9427"/><text fill="#D8BC00" font-family="Open Sans,Avenir,Nunito,Arial,Helvetica,SansSerif" font-size="11.4583" lengthAdjust="spacing" textLength="81.25" x="698.9583" y="160.7524">(constructors)</text><line style="stroke:#5E5E5E;stroke-width:1.0416666666666667;" x1="783.3333" x2="870.8333" y1="156.9427" y2="156.9427"/><line style="stroke:#5E5E5E;stroke-width:1.0416666666666667;" x1="608.3333" x2="870.8333" y1="190.7267" y2="190.7267"/><ellipse cx="618.75" cy="202.1851" fill="#84BE84" rx="3.125" ry="3.125" style="stroke:#038048;stroke-width:1.0416666666666667;"/><text fill="#D8BC00" font-family="Open Sans,Avenir,Nunito,Arial,Helvetica,SansSerif" font-size="11.4583" lengthAdjust="spacing" textLength="142.7083" x="630.2083" y="209.0963">void draw(Selection.Type)</text><!--MD5=[cadd81774200dc82db389a9d8e7851ea]
class ShapePointRenderer--><rect codeLine="72" fill="#282828" height="111.4563" id="ShapePointRenderer" rx="8.3333" ry="8.3333" style="stroke:#5E5E5E;stroke-width:1.0416666666666667;" width="281.25" x="7.2917" y="344.8486"/><rect fill="#1B1B1A" height="31.3883" rx="8.3333" ry="8.3333" style="stroke:#1B1B1A;stroke-width:1.0416666666666667;" width="281.25" x="7.2917" y="344.8486"/><rect fill="#1B1B1A" height="8.3333" style="stroke:#1B1B1A;stroke-width:1.0416666666666667;" width="281.25" x="7.2917" y="367.9036"/><rect codeLine="72" fill="none" height="111.4563" id="ShapePointRenderer" rx="8.3333" ry="8.3333" style="stroke:#5E5E5E;stroke-width:1.0416666666666667;" width="281.25" x="7.2917" y="344.8486"/><ellipse cx="76.0417" cy="360.5428" fill="#0066CF" rx="10.4167" ry="10.4167" style="stroke:#0086EF;stroke-width:1.0416666666666667;"/><path d="M77.9521,364.9679 Q77.5248,365.1876 77.0549,365.2974 Q76.5849,365.4073 76.0661,365.4073 Q74.2228,365.4073 73.2524,364.1927 Q72.2819,362.9781 72.2819,360.6832 Q72.2819,358.3822 73.2524,357.1676 Q74.2228,355.953 76.0661,355.953 Q76.5849,355.953 77.061,356.0628 Q77.537,356.1727 77.9521,356.3924 L77.9521,358.3944 Q77.4882,357.9671 77.0518,357.7688 Q76.6154,357.5704 76.1515,357.5704 Q75.1628,357.5704 74.6592,358.3547 Q74.1557,359.139 74.1557,360.6832 Q74.1557,362.2213 74.6592,363.0056 Q75.1628,363.7899 76.1515,363.7899 Q76.6154,363.7899 77.0518,363.5915 Q77.4882,363.3931 77.9521,362.9659 Z " fill="#000000"/><text fill="#D8BC00" font-family="Open Sans,Avenir,Nunito,Arial,Helvetica,SansSerif" font-size="12.5" font-weight="bold" lengthAdjust="spacing" textLength="129.1667" x="98.9583" y="365.2669">ShapePointRenderer</text><line style="stroke:#5E5E5E;stroke-width:1.5625;" x1="8.3333" x2="287.5" y1="376.237" y2="376.237"/><ellipse cx="18.75" cy="411.6069" fill="#84BE84" rx="3.125" ry="3.125" style="stroke:#038048;stroke-width:1.0416666666666667;"/><text fill="#D8BC00" font-family="Open Sans,Avenir,Nunito,Arial,Helvetica,SansSerif" font-size="11.4583" lengthAdjust="spacing" textLength="248.9583" x="30.2083" y="418.5181">ShapePointRenderer(MapCanvas, ViewModel)</text><line style="stroke:#5E5E5E;stroke-width:1.0416666666666667;" x1="8.3333" x2="104.1667" y1="394.4427" y2="394.4427"/><text fill="#D8BC00" font-family="Open Sans,Avenir,Nunito,Arial,Helvetica,SansSerif" font-size="11.4583" lengthAdjust="spacing" textLength="81.25" x="107.2917" y="398.2524">(constructors)</text><line style="stroke:#5E5E5E;stroke-width:1.0416666666666667;" x1="191.6667" x2="287.5" y1="394.4427" y2="394.4427"/><line style="stroke:#5E5E5E;stroke-width:1.0416666666666667;" x1="8.3333" x2="287.5" y1="428.2267" y2="428.2267"/><ellipse cx="18.75" cy="439.6851" fill="#84BE84" rx="3.125" ry="3.125" style="stroke:#038048;stroke-width:1.0416666666666667;"/><text fill="#D8BC00" font-family="Open Sans,Avenir,Nunito,Arial,Helvetica,SansSerif" font-size="11.4583" lengthAdjust="spacing" textLength="89.5833" x="30.2083" y="446.5963">void draw(Edge)</text><!--MD5=[e830c944296cc48d4024ac9bfcfc4c50]
class VertexRenderer--><rect codeLine="80" fill="#282828" height="131.2012" id="VertexRenderer" rx="8.3333" ry="8.3333" style="stroke:#5E5E5E;stroke-width:1.0416666666666667;" width="256.25" x="325" y="334.9528"/><rect fill="#1B1B1A" height="31.3883" rx="8.3333" ry="8.3333" style="stroke:#1B1B1A;stroke-width:1.0416666666666667;" width="256.25" x="325" y="334.9528"/><rect fill="#1B1B1A" height="8.3333" style="stroke:#1B1B1A;stroke-width:1.0416666666666667;" width="256.25" x="325" y="358.0078"/><rect codeLine="80" fill="none" height="131.2012" id="VertexRenderer" rx="8.3333" ry="8.3333" style="stroke:#5E5E5E;stroke-width:1.0416666666666667;" width="256.25" x="325" y="334.9528"/><ellipse cx="396.875" cy="350.647" fill="#0066CF" rx="10.4167" ry="10.4167" style="stroke:#0086EF;stroke-width:1.0416666666666667;"/><path d="M398.7854,355.072 Q398.3582,355.2917 397.8882,355.4016 Q397.4182,355.5115 396.8994,355.5115 Q395.0562,355.5115 394.0857,354.2969 Q393.1152,353.0823 393.1152,350.7874 Q393.1152,348.4863 394.0857,347.2717 Q395.0562,346.0571 396.8994,346.0571 Q397.4182,346.0571 397.8943,346.167 Q398.3704,346.2769 398.7854,346.4966 L398.7854,348.4985 Q398.3215,348.0713 397.8851,347.8729 Q397.4487,347.6746 396.9849,347.6746 Q395.9961,347.6746 395.4926,348.4589 Q394.989,349.2432 394.989,350.7874 Q394.989,352.3254 395.4926,353.1097 Q395.9961,353.894 396.9849,353.894 Q397.4487,353.894 397.8851,353.6957 Q398.3215,353.4973 398.7854,353.0701 Z " fill="#000000"/><text fill="#D8BC00" font-family="Open Sans,Avenir,Nunito,Arial,Helvetica,SansSerif" font-size="12.5" font-weight="bold" lengthAdjust="spacing" textLength="97.9167" x="419.7917" y="355.3711">VertexRenderer</text><line style="stroke:#5E5E5E;stroke-width:1.5625;" x1="326.0417" x2="580.2083" y1="366.3411" y2="366.3411"/><ellipse cx="336.4583" cy="401.711" fill="#84BE84" rx="3.125" ry="3.125" style="stroke:#038048;stroke-width:1.0416666666666667;"/><text fill="#D8BC00" font-family="Open Sans,Avenir,Nunito,Arial,Helvetica,SansSerif" font-size="11.4583" lengthAdjust="spacing" textLength="223.9583" x="347.9167" y="408.6222">VertexRenderer(MapCanvas, ViewModel)</text><line style="stroke:#5E5E5E;stroke-width:1.0416666666666667;" x1="326.0417" x2="409.375" y1="384.5469" y2="384.5469"/><text fill="#D8BC00" font-family="Open Sans,Avenir,Nunito,Arial,Helvetica,SansSerif" font-size="11.4583" lengthAdjust="spacing" textLength="81.25" x="412.5" y="388.3565">(constructors)</text><line style="stroke:#5E5E5E;stroke-width:1.0416666666666667;" x1="496.875" x2="580.2083" y1="384.5469" y2="384.5469"/><line style="stroke:#5E5E5E;stroke-width:1.0416666666666667;" x1="326.0417" x2="580.2083" y1="418.3309" y2="418.3309"/><ellipse cx="336.4583" cy="429.7892" fill="#84BE84" rx="3.125" ry="3.125" style="stroke:#038048;stroke-width:1.0416666666666667;"/><text fill="#D8BC00" font-family="Open Sans,Avenir,Nunito,Arial,Helvetica,SansSerif" font-size="11.4583" lengthAdjust="spacing" textLength="142.7083" x="347.9167" y="436.7004">void draw(Selection.Type)</text><ellipse cx="336.4583" cy="449.5341" fill="#84BE84" rx="3.125" ry="3.125" style="stroke:#038048;stroke-width:1.0416666666666667;"/><text fill="#D8BC00" font-family="Open Sans,Avenir,Nunito,Arial,Helvetica,SansSerif" font-size="11.4583" lengthAdjust="spacing" textLength="138.5417" x="347.9167" y="456.4453">void draw(Edge selected)</text><!--MD5=[10aa858f06928642a760092afa3c5824]
reverse link Renderer to DebugAnnotationRenderer--><path codeLine="6" d="M944.5417,281.6403 C913.2813,303.6507 882.0104,325.6611 855.0938,344.609 " fill="none" id="Renderer-backto-DebugAnnotationRenderer" style="stroke:#545454;stroke-width:1.5625;"/><polygon fill="none" points="940.6458,275.4632,961.875,269.432,949.0417,287.3903,940.6458,275.4632" style="stroke:#545454;stroke-width:1.5625;"/><!--MD5=[4d3d41803e19c43341e387123a0d341b]
reverse link Renderer to EdgeLabelRenderer--><path codeLine="15" d="M1111.4583,293.6299 C1111.4583,311.557 1111.4583,329.109 1111.4583,344.609 " fill="none" id="Renderer-backto-EdgeLabelRenderer" style="stroke:#545454;stroke-width:1.5625;"/><polygon fill="none" points="1104.1667,293.359,1111.4583,272.5257,1118.75,293.359,1104.1667,293.359" style="stroke:#545454;stroke-width:1.5625;"/><!--MD5=[de82786eba12d755657b5e8b5931a5bf]
reverse link Renderer to EdgeRenderer--><path codeLine="24" d="M1265.3542,285.7236 C1291.4688,306.359 1317.375,326.8382 1339.875,344.609 " fill="none" id="Renderer-backto-EdgeRenderer" style="stroke:#545454;stroke-width:1.5625;"/><polygon fill="none" points="1260.4688,291.1611,1248.6458,272.5257,1269.5104,279.7236,1260.4688,291.1611" style="stroke:#545454;stroke-width:1.5625;"/><!--MD5=[b5a6e71365f2c1da1545f0b7e7f8334a]
link PlaceRenderer to PolylineRenderer--><!--MD5=[e6b55f238bb915c7bcc4383b407d61b6]
link PolylineRenderer to RelationRenderer--><!--MD5=[ee4f61e5aa2d7a06fee3682b74bffadb]
link PlaceRenderer to ShapePointRenderer--><!--MD5=[224b24778d357f0557834111d3872c72]
link ShapePointRenderer to VertexRenderer--><!--MD5=[9cbb3f307f06ab24653dc27f7847652b]
@startuml

    !include lexakai.theme
    
    title "com.telenav.mesakit.plugins.josm.graph.view.graphics.renderers"
    
    Renderer <|- - DebugAnnotationRenderer
    class DebugAnnotationRenderer
    {
        - -(constructors)- -
        +DebugAnnotationRenderer(MapCanvas, ViewModel)
        - -
        +void drawAnnotations()
    }
    
    Renderer <|- - EdgeLabelRenderer
    class EdgeLabelRenderer
    {
        - -(constructors)- -
        +EdgeLabelRenderer(MapCanvas, ViewModel)
        - -
        +void draw(Selection.Type)
    }
    
    Renderer <|- - EdgeRenderer
    class EdgeRenderer
    {
        - -(constructors)- -
        +EdgeRenderer(MapCanvas, ViewModel)
        - -
        +void draw(Selection.Type)
    }
    
    class PlaceRenderer
    {
        - -(constructors)- -
        +PlaceRenderer(MapCanvas, ViewModel)
        - -
        +void draw(Selection.Type)
    }
    
    class PolylineRenderer
    {
        - -(constructors)- -
        +PolylineRenderer(MapCanvas, ViewModel)
        - -
        +void draw(Polyline)
        +void draw(Polyline, Style)
        +void drawSelectedPolylines()
    }
    
    class RelationRenderer
    {
        - -(constructors)- -
        +RelationRenderer(MapCanvas, ViewModel)
        - -
        +void draw(Selection.Type)
    }
    
    abstract class Renderer
    {
        - -(constructors)- -
        #Renderer(MapCanvas, ViewModel)
        - -
        #void callout(Location, MapDot, Style, String text)
        #ViewModel model()
        - -(checks)- -
        #boolean isVisible(Edge)
        - -(collection)- -
        #MapCanvas canvas()
    }
    
    class ShapePointRenderer
    {
        - -(constructors)- -
        +ShapePointRenderer(MapCanvas, ViewModel)
        - -
        +void draw(Edge)
    }
    
    class VertexRenderer
    {
        - -(constructors)- -
        +VertexRenderer(MapCanvas, ViewModel)
        - -
        +void draw(Selection.Type)
        +void draw(Edge selected)
    }
    
@enduml

@startuml









skinparam backgroundColor #333333






skinparam  {
    defaultFontName   "Open Sans,Avenir,Nunito,Arial,Helvetica,SansSerif"
    defaultFontSize   12
    defaultTextAlignment left
    shadowing false
    RoundCorner 10
    TitleFontSize 18
}

skinparam defaultFontName       "Open Sans,Avenir,Nunito,Arial,Helvetica,SansSerif"
skinparam defaultFontSize       12
skinparam dpi                   100
skinparam shadowing             false
skinparam roundcorner           16
skinparam ParticipantPadding    40
skinparam BoxPadding            40
skinparam Padding               3
skinparam ArrowColor            #545454
skinparam stereotype {
    CBackgroundColor #0066cf
    CBorderColor #0086ef
    ABackgroundColor #C8Ac00
    ABorderColor #D8Bc00
    IBackgroundColor #008400
    IBorderColor #239c23
    EBackgroundColor #cf6300
    EBorderColor #ef8300
    NBackgroundColor #3380b9
    NBorderColor #004d86
}
skinparam title {
	FontColor	                 #c0c0c0
 	BorderColor                  #545454
	FontSize	    	         20
	BorderRoundCorner            16
	BorderThickness 	         1
	BackgroundColor              #48494b
}


skinparam legend {
	BackgroundColor #303030
	BorderColor #404040
	FontColor #a0a0a0
}

	skinparam swimlane {
	BorderColor #5e5e5e
	BorderThickness 2
	TitleBackgroundColor  #6d6d6d-#484848
	TitleFontColor #303030
}

skinparam activity {
		FontColor #C8Ac00
	BorderColor #333333
	BackgroundColor #333333-#333333
	BarColor #00FF00
	StartColor #0060a8
	EndColor #0060a8
	DiamondBackgroundColor #6d6d6d-#3a3a3a
  	DiamondBorderColor #3a3a3a
  	DiamondFontColor #fefefe
}


skinparam participant {
		FontColor #C8Ac00
	BorderColor #333333
	BackgroundColor #333333-#333333
	ParticipantBorderThickness 2
}


skinparam actor {
		FontColor #C8Ac00
	BorderColor #333333
	BackgroundColor #333333-#333333
}


skinparam arrow {
	Thickness 1.5
	Color #545454
	FontColor #a0a0a0
    FontStyle bold
    MessageAlignment center
}



skinparam sequence {
	BorderColor #303030
	TitleFontColor #303030
	BackgroundColor #333333
	StartColor #303030
	EndColor #303030
	BoxBackgroundColor #333333
	BoxBorderColor #484848
	BoxFontColor #484848
	LifeLineBorderColor #484848
	LifeLineBorderThickness 2
	LifeLineBackgroundColor #3a3a3a
	GroupBorderColor #484848
	GroupFontColor #484848
	GroupHeaderFontColor #0060a8
	GroupBackgroundColor #484848
	GroupHeaderBackgroundColor #333333
	DividerBackgroundColor #484848
    DividerBorderColor #484848
    DividerBorderThickness 2
    DividerFontColor #D8Bc00
	ReferenceBackgroundColor #333333
	ReferenceBorderColor #484848
	ReferenceFontColor #fefefe
	ReferenceHeaderBackgroundColor #484848
}


skinparam partition {
	BorderColor #303030
	FontColor #333333
	BackgroundColor #333333
}


skinparam collections {
		FontColor #C8Ac00
	BorderColor #333333
	BackgroundColor #333333-#333333
}


skinparam control {
		FontColor #C8Ac00
	BorderColor #333333
	BackgroundColor #333333-#333333
}


skinparam entity {
		FontColor #C8Ac00
	BorderColor #333333
	BackgroundColor #333333-#333333
}


skinparam boundary {
		FontColor #C8Ac00
	BorderColor #333333
	BackgroundColor #333333-#333333
}


skinparam agent {
	BackgroundColor #ff8000
	BorderColor #ff9933
	FontColor #484848
}


skinparam note {
	BorderThickness 1
	BackgroundColor #1b1b1a
	BorderColor #5e5e5e
	FontSize 11
	FontColor #a0a0a0
}


skinparam artifact {
	BorderThickness 10
	BorderColor #5e5e5e
	BackgroundColor #1b1b1a
	FontColor #D8Bc00
}


skinparam component {
		FontColor #C8Ac00
	BorderColor #333333
	BackgroundColor #333333-#333333
}


skinparam interface {
	BackgroundColor  #008400
	BorderColor  #007F00
	FontColor #484848
}


skinparam storage {
	BackgroundColor #ff8000
  	BorderColor #cc6600
	FontColor #222222
}


skinparam node {
	BackgroundColor #333333
	BorderColor #333333
	FontColor #C8Ac00
}


skinparam cloud {
	BackgroundColor #484848-black
	BorderColor #484848
	FontColor #D8Bc00
}


skinparam database {
		FontColor #C8Ac00
	BorderColor #333333
	BackgroundColor #333333-#333333
	BackgroundColor  #333333
}


skinparam class {
		FontColor #C8Ac00
	BorderColor #333333
	BackgroundColor #333333-#333333
	HeaderBackgroundColor #1b1b1a
    BackgroundColor #282828
    BorderColor #5e5e5e
 	StereotypeFontColor #a0a0a0
    StereotypeFontStyle bold
	BorderThickness 1
	AttributeFontColor #D8Bc00
	AttributeFontSize 11
    FontColor #D8Bc00
    FontStyle bold
}


skinparam object {
		FontColor #C8Ac00
	BorderColor #333333
	BackgroundColor #333333-#333333
	StereotypeFontColor #484848
	BorderThickness 1
	AttributeFontColor #fefefe
	AttributeFontSize 11
}


skinparam usecase {
		FontColor #C8Ac00
	BorderColor #333333
	BackgroundColor #333333-#333333
	BorderThickness 2
	StereotypeFontColor #303030
}


skinparam rectangle {
		FontColor #C8Ac00
	BorderColor #333333
	BackgroundColor #333333-#333333
	BackgroundColor #333333
	BorderThickness 2
	StereotypeFontColor #303030
}


skinparam package {
		FontColor #C8Ac00
	BorderColor #333333
	BackgroundColor #333333-#333333
	BackgroundColor #333333
	BorderThickness 2
}


skinparam folder {
	BackgroundColor #6d6d6d
  	BorderColor #ff8000
	FontColor #ff8000
	BorderThickness 2
}


skinparam frame {
	BackgroundColor #6d6d6d
  	BorderColor #0060a8
	FontColor #0060a8
	BorderThickness 2
}


skinparam state {
		FontColor #C8Ac00
	BorderColor #333333
	BackgroundColor #333333-#333333
	StartColor #0060a8
	EndColor #0060a8
	AttributeFontColor #fefefe
	AttributeFontSize 11
}


skinparam queue {
		FontColor #C8Ac00
	BorderColor #333333
	BackgroundColor #333333-#333333
}


skinparam card {
	BackgroundColor #0060a8
	BorderColor #004d86
	FontColor $INFO_TEXT
}


skinparam file {
	BackgroundColor #6d6d6d-#484848
	BorderColor #0060a8
	FontColor #fefefe
}


skinparam stack {
		FontColor #C8Ac00
	BorderColor #333333
	BackgroundColor #333333-#333333
}

    
    title "com.telenav.mesakit.plugins.josm.graph.view.graphics.renderers"
    
    Renderer <|- - DebugAnnotationRenderer
    class DebugAnnotationRenderer
    {
        - -(constructors)- -
        +DebugAnnotationRenderer(MapCanvas, ViewModel)
        - -
        +void drawAnnotations()
    }
    
    Renderer <|- - EdgeLabelRenderer
    class EdgeLabelRenderer
    {
        - -(constructors)- -
        +EdgeLabelRenderer(MapCanvas, ViewModel)
        - -
        +void draw(Selection.Type)
    }
    
    Renderer <|- - EdgeRenderer
    class EdgeRenderer
    {
        - -(constructors)- -
        +EdgeRenderer(MapCanvas, ViewModel)
        - -
        +void draw(Selection.Type)
    }
    
    class PlaceRenderer
    {
        - -(constructors)- -
        +PlaceRenderer(MapCanvas, ViewModel)
        - -
        +void draw(Selection.Type)
    }
    
    class PolylineRenderer
    {
        - -(constructors)- -
        +PolylineRenderer(MapCanvas, ViewModel)
        - -
        +void draw(Polyline)
        +void draw(Polyline, Style)
        +void drawSelectedPolylines()
    }
    
    class RelationRenderer
    {
        - -(constructors)- -
        +RelationRenderer(MapCanvas, ViewModel)
        - -
        +void draw(Selection.Type)
    }
    
    abstract class Renderer
    {
        - -(constructors)- -
        #Renderer(MapCanvas, ViewModel)
        - -
        #void callout(Location, MapDot, Style, String text)
        #ViewModel model()
        - -(checks)- -
        #boolean isVisible(Edge)
        - -(collection)- -
        #MapCanvas canvas()
    }
    
    class ShapePointRenderer
    {
        - -(constructors)- -
        +ShapePointRenderer(MapCanvas, ViewModel)
        - -
        +void draw(Edge)
    }
    
    class VertexRenderer
    {
        - -(constructors)- -
        +VertexRenderer(MapCanvas, ViewModel)
        - -
        +void draw(Selection.Type)
        +void draw(Edge selected)
    }
    
@enduml

PlantUML version 1.2021.01(Tue Feb 02 00:55:08 MST 2021)
(GPL source distribution)
Java Runtime: OpenJDK Runtime Environment
JVM: OpenJDK 64-Bit Server VM
Default Encoding: UTF-8
Language: en
Country: US
--></g></svg>