<?xml version="1.0" encoding="UTF-8" standalone="no"?><svg xmlns="http://www.w3.org/2000/svg" xmlns:xlink="http://www.w3.org/1999/xlink" contentScriptType="application/ecmascript" contentStyleType="text/css" height="755.2083px" preserveAspectRatio="none" style="width:690px;height:755px;background:#333333;" version="1.1" viewBox="0 0 690 755" width="690.625px" zoomAndPan="magnify"><defs/><g><rect fill="#48494B" height="41.2028" rx="8.3333" ry="8.3333" style="stroke:#545454;stroke-width:1.0416666666666667;" width="423.9583" x="126.0417" y="2.0833"/><text fill="#C0C0C0" font-family="Open Sans,Avenir,Nunito,Arial,Helvetica,SansSerif" font-size="20.8333" lengthAdjust="spacing" textLength="401.0417" x="137.5" y="30.5583">com.telenav.mesakit.graph.world.virtual</text><rect codeLine="7" fill="#282828" height="48.055" id="BaseRepeater" rx="8.3333" ry="8.3333" style="stroke:#5E5E5E;stroke-width:1.0416666666666667;" width="123.9583" x="438.5417" y="53.7028"/><rect fill="#1B1B1A" height="31.3883" rx="8.3333" ry="8.3333" style="stroke:#1B1B1A;stroke-width:1.0416666666666667;" width="123.9583" x="438.5417" y="53.7028"/><rect fill="#1B1B1A" height="8.3333" style="stroke:#1B1B1A;stroke-width:1.0416666666666667;" width="123.9583" x="438.5417" y="76.7578"/><rect codeLine="7" fill="none" height="48.055" id="BaseRepeater" rx="8.3333" ry="8.3333" style="stroke:#5E5E5E;stroke-width:1.0416666666666667;" width="123.9583" x="438.5417" y="53.7028"/><ellipse cx="453.125" cy="69.397" fill="#C8AC00" rx="10.4167" ry="10.4167" style="stroke:#D8BC00;stroke-width:1.0416666666666667;"/><path d="M452.7181,66.099 L451.8697,69.8283 L453.5726,69.8283 Z M451.6195,64.4511 L453.8228,64.4511 L456.2826,73.5636 L454.482,73.5636 L453.9205,71.3114 L451.5096,71.3114 L450.9603,73.5636 L449.1597,73.5636 Z " fill="#000000"/><text fill="#D8BC00" font-family="Open Sans,Avenir,Nunito,Arial,Helvetica,SansSerif" font-size="12.5" font-style="italic" font-weight="bold" lengthAdjust="spacing" textLength="86.4583" x="469.7917" y="74.1211">BaseRepeater</text><line style="stroke:#5E5E5E;stroke-width:1.0416666666666667;" x1="439.5833" x2="561.4583" y1="85.0911" y2="85.0911"/><line style="stroke:#5E5E5E;stroke-width:1.0416666666666667;" x1="439.5833" x2="561.4583" y1="93.4245" y2="93.4245"/><rect codeLine="12" fill="#282828" height="198.7691" id="VirtualReference" rx="8.3333" ry="8.3333" style="stroke:#5E5E5E;stroke-width:1.0416666666666667;" width="292.7083" x="155.7292" y="396.4111"/><rect fill="#1B1B1A" height="31.3883" rx="8.3333" ry="8.3333" style="stroke:#1B1B1A;stroke-width:1.0416666666666667;" width="292.7083" x="155.7292" y="396.4111"/><rect fill="#1B1B1A" height="8.3333" style="stroke:#1B1B1A;stroke-width:1.0416666666666667;" width="292.7083" x="155.7292" y="419.4661"/><rect codeLine="12" fill="none" height="198.7691" id="VirtualReference" rx="8.3333" ry="8.3333" style="stroke:#5E5E5E;stroke-width:1.0416666666666667;" width="292.7083" x="155.7292" y="396.4111"/><ellipse cx="232.8125" cy="412.1053" fill="#C8AC00" rx="10.4167" ry="10.4167" style="stroke:#D8BC00;stroke-width:1.0416666666666667;"/><path d="M232.4056,408.8074 L231.5572,412.5366 L233.2601,412.5366 Z M231.307,407.1594 L233.5103,407.1594 L235.9701,416.272 L234.1695,416.272 L233.608,414.0198 L231.1971,414.0198 L230.6478,416.272 L228.8472,416.272 Z " fill="#000000"/><text fill="#D8BC00" font-family="Open Sans,Avenir,Nunito,Arial,Helvetica,SansSerif" font-size="12.5" font-style="italic" font-weight="bold" lengthAdjust="spacing" textLength="105.2083" x="255.7292" y="416.8294">VirtualReference</text><rect fill="#333333" height="23.055" style="stroke:#A0A0A0;stroke-width:1.0416666666666667;stroke-dasharray:2.0,2.0;" width="16.6667" x="434.8958" y="393.2861"/><text fill="#A0A0A0" font-family="Open Sans,Avenir,Nunito,Arial,Helvetica,SansSerif" font-size="12.5" font-weight="bold" lengthAdjust="spacing" textLength="8.3333" x="439.0625" y="409.5378">T</text><line style="stroke:#5E5E5E;stroke-width:1.5625;" x1="156.7708" x2="447.3958" y1="427.7995" y2="427.7995"/><polygon fill="#FFFF44" points="167.1875,457.961,171.3542,462.1277,167.1875,466.2944,163.0208,462.1277" style="stroke:#B38D22;stroke-width:1.0416666666666667;"/><text fill="#D8BC00" font-family="Open Sans,Avenir,Nunito,Arial,Helvetica,SansSerif" font-size="11.4583" lengthAdjust="spacing" textLength="260.4167" x="178.6458" y="470.0806">VirtualReference(VirtualReferenceTracker&lt;T&gt;)</text><line style="stroke:#5E5E5E;stroke-width:1.0416666666666667;" x1="156.7708" x2="258.3333" y1="446.0052" y2="446.0052"/><text fill="#D8BC00" font-family="Open Sans,Avenir,Nunito,Arial,Helvetica,SansSerif" font-size="11.4583" lengthAdjust="spacing" textLength="81.25" x="261.4583" y="449.8149">(constructors)</text><line style="stroke:#5E5E5E;stroke-width:1.0416666666666667;" x1="345.8333" x2="447.3958" y1="446.0052" y2="446.0052"/><line style="stroke:#5E5E5E;stroke-width:1.0416666666666667;" x1="156.7708" x2="447.3958" y1="479.7892" y2="479.7892"/><ellipse cx="167.1875" cy="491.2476" fill="#84BE84" rx="3.125" ry="3.125" style="stroke:#038048;stroke-width:1.0416666666666667;"/><text fill="#D8BC00" font-family="Open Sans,Avenir,Nunito,Arial,Helvetica,SansSerif" font-size="11.4583" lengthAdjust="spacing" textLength="36.4583" x="178.6458" y="498.1588">T get()</text><polygon fill="#FFFF44" points="167.1875,529.6956,171.3542,533.8623,167.1875,538.029,163.0208,533.8623" style="stroke:#B38D22;stroke-width:1.0416666666666667;"/><text fill="#D8BC00" font-family="Open Sans,Avenir,Nunito,Arial,Helvetica,SansSerif" font-size="11.4583" lengthAdjust="spacing" textLength="60.4167" x="178.6458" y="541.8152">T onLoad()</text><line style="stroke:#5E5E5E;stroke-width:1.0416666666666667;" x1="156.7708" x2="247.9167" y1="517.7399" y2="517.7399"/><text fill="#D8BC00" font-family="Open Sans,Avenir,Nunito,Arial,Helvetica,SansSerif" font-size="11.4583" lengthAdjust="spacing" textLength="102.0833" x="251.0417" y="521.5495">(extension points)</text><line style="stroke:#5E5E5E;stroke-width:1.0416666666666667;" x1="356.25" x2="447.3958" y1="517.7399" y2="517.7399"/><polygon fill="#FFFF44" points="167.1875,573.3521,171.3542,577.5187,167.1875,581.6854,163.0208,577.5187" style="stroke:#B38D22;stroke-width:1.0416666666666667;"/><text fill="#D8BC00" font-family="Open Sans,Avenir,Nunito,Arial,Helvetica,SansSerif" font-size="11.4583" lengthAdjust="spacing" textLength="75" x="178.6458" y="585.4716">String name()</text><line style="stroke:#5E5E5E;stroke-width:1.0416666666666667;" x1="156.7708" x2="273.9583" y1="561.3963" y2="561.3963"/><text fill="#D8BC00" font-family="Open Sans,Avenir,Nunito,Arial,Helvetica,SansSerif" font-size="11.4583" lengthAdjust="spacing" textLength="50" x="277.0833" y="565.2059">(naming)</text><line style="stroke:#5E5E5E;stroke-width:1.0416666666666667;" x1="330.2083" x2="447.3958" y1="561.3963" y2="561.3963"/><rect fill="#282828" height="48.055" id="HardReferencedValue" rx="8.3333" ry="8.3333" style="stroke:#5E5E5E;stroke-width:1.0416666666666667;" width="173.9583" x="7.2917" y="700.5778"/><rect fill="#1B1B1A" height="31.3883" rx="8.3333" ry="8.3333" style="stroke:#1B1B1A;stroke-width:1.0416666666666667;" width="173.9583" x="7.2917" y="700.5778"/><rect fill="#1B1B1A" height="8.3333" style="stroke:#1B1B1A;stroke-width:1.0416666666666667;" width="173.9583" x="7.2917" y="723.6328"/><rect fill="none" height="48.055" id="HardReferencedValue" rx="8.3333" ry="8.3333" style="stroke:#5E5E5E;stroke-width:1.0416666666666667;" width="173.9583" x="7.2917" y="700.5778"/><ellipse cx="21.875" cy="716.272" fill="#0066CF" rx="10.4167" ry="10.4167" style="stroke:#0086EF;stroke-width:1.0416666666666667;"/><path d="M23.7854,720.697 Q23.3582,720.9167 22.8882,721.0266 Q22.4182,721.1365 21.8994,721.1365 Q20.0562,721.1365 19.0857,719.9219 Q18.1152,718.7073 18.1152,716.4124 Q18.1152,714.1113 19.0857,712.8967 Q20.0562,711.6821 21.8994,711.6821 Q22.4182,711.6821 22.8943,711.792 Q23.3704,711.9019 23.7854,712.1216 L23.7854,714.1235 Q23.3215,713.6963 22.8851,713.4979 Q22.4487,713.2996 21.9849,713.2996 Q20.9961,713.2996 20.4926,714.0839 Q19.989,714.8682 19.989,716.4124 Q19.989,717.9504 20.4926,718.7347 Q20.9961,719.519 21.9849,719.519 Q22.4487,719.519 22.8851,719.3207 Q23.3215,719.1223 23.7854,718.6951 Z " fill="#000000"/><text fill="#D8BC00" font-family="Open Sans,Avenir,Nunito,Arial,Helvetica,SansSerif" font-size="12.5" font-weight="bold" lengthAdjust="spacing" textLength="136.4583" x="38.5417" y="720.9961">HardReferencedValue</text><line style="stroke:#5E5E5E;stroke-width:1.0416666666666667;" x1="8.3333" x2="180.2083" y1="731.9661" y2="731.9661"/><line style="stroke:#5E5E5E;stroke-width:1.0416666666666667;" x1="8.3333" x2="180.2083" y1="740.2995" y2="740.2995"/><rect fill="#282828" height="48.055" id="SoftReferencedValue" rx="8.3333" ry="8.3333" style="stroke:#5E5E5E;stroke-width:1.0416666666666667;" width="169.7917" x="217.7083" y="700.5778"/><rect fill="#1B1B1A" height="31.3883" rx="8.3333" ry="8.3333" style="stroke:#1B1B1A;stroke-width:1.0416666666666667;" width="169.7917" x="217.7083" y="700.5778"/><rect fill="#1B1B1A" height="8.3333" style="stroke:#1B1B1A;stroke-width:1.0416666666666667;" width="169.7917" x="217.7083" y="723.6328"/><rect fill="none" height="48.055" id="SoftReferencedValue" rx="8.3333" ry="8.3333" style="stroke:#5E5E5E;stroke-width:1.0416666666666667;" width="169.7917" x="217.7083" y="700.5778"/><ellipse cx="232.2917" cy="716.272" fill="#0066CF" rx="10.4167" ry="10.4167" style="stroke:#0086EF;stroke-width:1.0416666666666667;"/><path d="M234.2021,720.697 Q233.7748,720.9167 233.3049,721.0266 Q232.8349,721.1365 232.3161,721.1365 Q230.4728,721.1365 229.5024,719.9219 Q228.5319,718.7073 228.5319,716.4124 Q228.5319,714.1113 229.5024,712.8967 Q230.4728,711.6821 232.3161,711.6821 Q232.8349,711.6821 233.311,711.792 Q233.787,711.9019 234.2021,712.1216 L234.2021,714.1235 Q233.7382,713.6963 233.3018,713.4979 Q232.8654,713.2996 232.4015,713.2996 Q231.4128,713.2996 230.9092,714.0839 Q230.4057,714.8682 230.4057,716.4124 Q230.4057,717.9504 230.9092,718.7347 Q231.4128,719.519 232.4015,719.519 Q232.8654,719.519 233.3018,719.3207 Q233.7382,719.1223 234.2021,718.6951 Z " fill="#000000"/><text fill="#D8BC00" font-family="Open Sans,Avenir,Nunito,Arial,Helvetica,SansSerif" font-size="12.5" font-weight="bold" lengthAdjust="spacing" textLength="132.2917" x="248.9583" y="720.9961">SoftReferencedValue</text><line style="stroke:#5E5E5E;stroke-width:1.0416666666666667;" x1="218.75" x2="386.4583" y1="731.9661" y2="731.9661"/><line style="stroke:#5E5E5E;stroke-width:1.0416666666666667;" x1="218.75" x2="386.4583" y1="740.2995" y2="740.2995"/><rect fill="#282828" height="48.055" id="WeakReferencedValue" rx="8.3333" ry="8.3333" style="stroke:#5E5E5E;stroke-width:1.0416666666666667;" width="178.125" x="423.9583" y="700.5778"/><rect fill="#1B1B1A" height="31.3883" rx="8.3333" ry="8.3333" style="stroke:#1B1B1A;stroke-width:1.0416666666666667;" width="178.125" x="423.9583" y="700.5778"/><rect fill="#1B1B1A" height="8.3333" style="stroke:#1B1B1A;stroke-width:1.0416666666666667;" width="178.125" x="423.9583" y="723.6328"/><rect fill="none" height="48.055" id="WeakReferencedValue" rx="8.3333" ry="8.3333" style="stroke:#5E5E5E;stroke-width:1.0416666666666667;" width="178.125" x="423.9583" y="700.5778"/><ellipse cx="438.5417" cy="716.272" fill="#0066CF" rx="10.4167" ry="10.4167" style="stroke:#0086EF;stroke-width:1.0416666666666667;"/><path d="M440.4521,720.697 Q440.0248,720.9167 439.5549,721.0266 Q439.0849,721.1365 438.5661,721.1365 Q436.7228,721.1365 435.7524,719.9219 Q434.7819,718.7073 434.7819,716.4124 Q434.7819,714.1113 435.7524,712.8967 Q436.7228,711.6821 438.5661,711.6821 Q439.0849,711.6821 439.561,711.792 Q440.037,711.9019 440.4521,712.1216 L440.4521,714.1235 Q439.9882,713.6963 439.5518,713.4979 Q439.1154,713.2996 438.6515,713.2996 Q437.6628,713.2996 437.1592,714.0839 Q436.6557,714.8682 436.6557,716.4124 Q436.6557,717.9504 437.1592,718.7347 Q437.6628,719.519 438.6515,719.519 Q439.1154,719.519 439.5518,719.3207 Q439.9882,719.1223 440.4521,718.6951 Z " fill="#000000"/><text fill="#D8BC00" font-family="Open Sans,Avenir,Nunito,Arial,Helvetica,SansSerif" font-size="12.5" font-weight="bold" lengthAdjust="spacing" textLength="140.625" x="455.2083" y="720.9961">WeakReferencedValue</text><line style="stroke:#5E5E5E;stroke-width:1.0416666666666667;" x1="425" x2="601.0417" y1="731.9661" y2="731.9661"/><line style="stroke:#5E5E5E;stroke-width:1.0416666666666667;" x1="425" x2="601.0417" y1="740.2995" y2="740.2995"/><rect codeLine="27" fill="#282828" height="83.3781" id="VirtualReferenceTracker" rx="8.3333" ry="8.3333" style="stroke:#5E5E5E;stroke-width:1.0416666666666667;" width="329.1667" x="335.9375" y="185.9945"/><rect fill="#1B1B1A" height="31.3883" rx="8.3333" ry="8.3333" style="stroke:#1B1B1A;stroke-width:1.0416666666666667;" width="329.1667" x="335.9375" y="185.9945"/><rect fill="#1B1B1A" height="8.3333" style="stroke:#1B1B1A;stroke-width:1.0416666666666667;" width="329.1667" x="335.9375" y="209.0495"/><rect codeLine="27" fill="none" height="83.3781" id="VirtualReferenceTracker" rx="8.3333" ry="8.3333" style="stroke:#5E5E5E;stroke-width:1.0416666666666667;" width="329.1667" x="335.9375" y="185.9945"/><ellipse cx="407.2917" cy="201.6886" fill="#0066CF" rx="10.4167" ry="10.4167" style="stroke:#0086EF;stroke-width:1.0416666666666667;"/><path d="M409.2021,206.1137 Q408.7748,206.3334 408.3049,206.4433 Q407.8349,206.5531 407.3161,206.5531 Q405.4728,206.5531 404.5024,205.3385 Q403.5319,204.1239 403.5319,201.829 Q403.5319,199.528 404.5024,198.3134 Q405.4728,197.0988 407.3161,197.0988 Q407.8349,197.0988 408.311,197.2087 Q408.787,197.3185 409.2021,197.5382 L409.2021,199.5402 Q408.7382,199.113 408.3018,198.9146 Q407.8654,198.7162 407.4015,198.7162 Q406.4128,198.7162 405.9092,199.5005 Q405.4057,200.2848 405.4057,201.829 Q405.4057,203.3671 405.9092,204.1514 Q406.4128,204.9357 407.4015,204.9357 Q407.8654,204.9357 408.3018,204.7373 Q408.7382,204.539 409.2021,204.1117 Z " fill="#000000"/><text fill="#D8BC00" font-family="Open Sans,Avenir,Nunito,Arial,Helvetica,SansSerif" font-size="12.5" font-weight="bold" lengthAdjust="spacing" textLength="153.125" x="430.2083" y="206.4128">VirtualReferenceTracker</text><rect fill="#333333" height="23.055" style="stroke:#A0A0A0;stroke-width:1.0416666666666667;stroke-dasharray:2.0,2.0;" width="16.6667" x="651.5625" y="182.8695"/><text fill="#A0A0A0" font-family="Open Sans,Avenir,Nunito,Arial,Helvetica,SansSerif" font-size="12.5" font-weight="bold" lengthAdjust="spacing" textLength="8.3333" x="655.7292" y="199.1211">T</text><line style="stroke:#5E5E5E;stroke-width:1.5625;" x1="336.9792" x2="664.0625" y1="217.3828" y2="217.3828"/><ellipse cx="347.3958" cy="252.7527" fill="#84BE84" rx="3.125" ry="3.125" style="stroke:#038048;stroke-width:1.0416666666666667;"/><text fill="#D8BC00" font-family="Open Sans,Avenir,Nunito,Arial,Helvetica,SansSerif" font-size="11.4583" lengthAdjust="spacing" textLength="296.875" x="358.8542" y="259.6639">VirtualReferenceTracker(Bytes, VirtualReferenceType)</text><line style="stroke:#5E5E5E;stroke-width:1.0416666666666667;" x1="336.9792" x2="456.7708" y1="235.5886" y2="235.5886"/><text fill="#D8BC00" font-family="Open Sans,Avenir,Nunito,Arial,Helvetica,SansSerif" font-size="11.4583" lengthAdjust="spacing" textLength="81.25" x="459.8958" y="239.3982">(constructors)</text><line style="stroke:#5E5E5E;stroke-width:1.0416666666666667;" x1="544.2708" x2="664.0625" y1="235.5886" y2="235.5886"/><rect codeLine="33" fill="#282828" height="107.2896" id="VirtualReferenceType" rx="8.3333" ry="8.3333" style="stroke:#5E5E5E;stroke-width:1.0416666666666667;" width="173.9583" x="509.375" y="441.7236"/><rect fill="#1B1B1A" height="31.3883" rx="8.3333" ry="8.3333" style="stroke:#1B1B1A;stroke-width:1.0416666666666667;" width="173.9583" x="509.375" y="441.7236"/><rect fill="#1B1B1A" height="8.3333" style="stroke:#1B1B1A;stroke-width:1.0416666666666667;" width="173.9583" x="509.375" y="464.7786"/><rect codeLine="33" fill="none" height="107.2896" id="VirtualReferenceType" rx="8.3333" ry="8.3333" style="stroke:#5E5E5E;stroke-width:1.0416666666666667;" width="173.9583" x="509.375" y="441.7236"/><ellipse cx="523.9583" cy="457.4178" fill="#CF6300" rx="10.4167" ry="10.4167" style="stroke:#EF8300;stroke-width:1.0416666666666667;"/><path d="M527.0142,462.1053 L521.3379,462.1053 L521.3379,452.9928 L527.0142,452.9928 L527.0142,454.5797 L523.1384,454.5797 L523.1384,456.545 L526.6479,456.545 L526.6479,458.1319 L523.1384,458.1319 L523.1384,460.5184 L527.0142,460.5184 Z " fill="#000000"/><text fill="#D8BC00" font-family="Open Sans,Avenir,Nunito,Arial,Helvetica,SansSerif" font-size="12.5" font-weight="bold" lengthAdjust="spacing" textLength="136.4583" x="540.625" y="462.1419">VirtualReferenceType</text><line style="stroke:#5E5E5E;stroke-width:1.0416666666666667;" x1="510.4167" x2="682.2917" y1="473.112" y2="473.112"/><text fill="#D8BC00" font-family="Open Sans,Avenir,Nunito,Arial,Helvetica,SansSerif" font-size="11.4583" lengthAdjust="spacing" textLength="32.2917" x="518.75" y="491.4815">NONE</text><text fill="#D8BC00" font-family="Open Sans,Avenir,Nunito,Arial,Helvetica,SansSerif" font-size="11.4583" lengthAdjust="spacing" textLength="29.1667" x="518.75" y="511.2264">SOFT</text><text fill="#D8BC00" font-family="Open Sans,Avenir,Nunito,Arial,Helvetica,SansSerif" font-size="11.4583" lengthAdjust="spacing" textLength="31.25" x="518.75" y="530.9713">WEAK</text><line style="stroke:#5E5E5E;stroke-width:1.0416666666666667;" x1="510.4167" x2="682.2917" y1="540.6799" y2="540.6799"/><path codeLine="9" d="M212.7396,594.359 C178.6667,631.5049 142.5,670.9215 119.2292,696.2965 " fill="none" id="VirtualReference-to-HardReferencedValue" style="stroke:#545454;stroke-width:1.5625;"/><polygon fill="#545454" points="115.6042,700.2445,125.0149,696.1591,119.1276,696.4088,118.8778,690.5216,115.6042,700.2445" style="stroke:#545454;stroke-width:1.5625;"/><text fill="#A0A0A0" font-family="Open Sans,Avenir,Nunito,Arial,Helvetica,SansSerif" font-size="12.5" font-weight="bold" lengthAdjust="spacing" textLength="107.2917" x="166.1458" y="662.6628">can take form of</text><path codeLine="10" d="M302.6042,594.359 C302.6042,630.9007 302.6042,669.6299 302.6042,695.0257 " fill="none" id="VirtualReference-to-SoftReferencedValue" style="stroke:#545454;stroke-width:1.5625;"/><polygon fill="#545454" points="302.6042,700.2445,306.7708,690.8695,302.6042,695.0361,298.4375,690.8695,302.6042,700.2445" style="stroke:#545454;stroke-width:1.5625;"/><text fill="#A0A0A0" font-family="Open Sans,Avenir,Nunito,Arial,Helvetica,SansSerif" font-size="12.5" font-weight="bold" lengthAdjust="spacing" textLength="107.2917" x="306.7708" y="662.6628">can take form of</text><path codeLine="11" d="M393.3646,594.359 C427.7813,631.5049 464.3125,670.9215 487.8125,696.2965 " fill="none" id="VirtualReference-to-WeakReferencedValue" style="stroke:#545454;stroke-width:1.5625;"/><polygon fill="#545454" points="491.4792,700.2445,488.1474,690.5413,487.9329,696.43,482.0442,696.2154,491.4792,700.2445" style="stroke:#545454;stroke-width:1.5625;"/><text fill="#A0A0A0" font-family="Open Sans,Avenir,Nunito,Arial,Helvetica,SansSerif" font-size="12.5" font-weight="bold" lengthAdjust="spacing" textLength="107.2917" x="466.1458" y="662.6628">can take form of</text><path codeLine="24" d="M500.5208,122.8486 C500.5208,142.807 500.5208,166.2549 500.5208,185.807 " fill="none" id="BaseRepeater-backto-VirtualReferenceTracker" style="stroke:#545454;stroke-width:1.5625;"/><polygon fill="none" points="493.2292,122.6507,500.5208,101.8174,507.8125,122.6507,493.2292,122.6507" style="stroke:#545454;stroke-width:1.5625;"/><path codeLine="25" d="M406.2292,277.3903 C388.625,289.8382 371.7396,304.557 358.8542,321.4111 C342.1667,343.2236 330.3333,370.182 321.9688,396.2757 " fill="none" id="VirtualReferenceTracker-backto-VirtualReference" style="stroke:#545454;stroke-width:1.5625;"/><polygon fill="#333333" points="417.8646,269.5361,410.3531,269.5796,407.5043,276.53,415.0157,276.4865,417.8646,269.5361" style="stroke:#545454;stroke-width:1.5625;"/><text fill="#A0A0A0" font-family="Open Sans,Avenir,Nunito,Arial,Helvetica,SansSerif" font-size="12.5" font-weight="bold" lengthAdjust="spacing" textLength="158.3333" x="363.0208" y="337.6628">loads, weakens, hardens</text><text fill="#A0A0A0" font-family="Open Sans,Avenir,Nunito,Arial,Helvetica,SansSerif" font-size="12.5" font-weight="bold" lengthAdjust="spacing" textLength="8.3333" x="392.633" y="292.7604">1</text><text fill="#A0A0A0" font-family="Open Sans,Avenir,Nunito,Arial,Helvetica,SansSerif" font-size="12.5" font-weight="bold" lengthAdjust="spacing" textLength="6.25" x="313.6377" y="382.2406">*</text><path codeLine="26" d="M519.7917,282.1195 C536.5104,328.4424 560.5625,395.1299 577.2292,441.3278 " fill="none" id="VirtualReferenceTracker-backto-VirtualReferenceType" style="stroke:#545454;stroke-width:1.5625;"/><polygon fill="#333333" points="515.1771,269.3382,513.38,276.6317,519.4213,281.0956,521.2183,273.8022,515.1771,269.3382" style="stroke:#545454;stroke-width:1.5625;"/></g></svg>
