<?xml version="1.0" encoding="UTF-8" standalone="no"?><svg xmlns="http://www.w3.org/2000/svg" xmlns:xlink="http://www.w3.org/1999/xlink" contentScriptType="application/ecmascript" contentStyleType="text/css" height="238.5417px" preserveAspectRatio="none" style="width:496px;height:238px;background:#333333;" version="1.1" viewBox="0 0 496 238" width="496.875px" zoomAndPan="magnify"><defs/><g><rect fill="#48494B" height="41.2028" rx="8.3333" ry="8.3333" style="stroke:#545454;stroke-width:1.0416666666666667;" width="484.375" x="2.0833" y="2.0833"/><text fill="#C0C0C0" font-family="Open Sans,Avenir,Nunito,Arial,Helvetica,SansSerif" font-size="20.8333" lengthAdjust="spacing" textLength="461.4583" x="13.5417" y="30.5583">com.telenav.mesakit.graph.specifications.osm</text><rect fill="#282828" height="48.055" id="CommonDataSpecification" rx="8.3333" ry="8.3333" style="stroke:#5E5E5E;stroke-width:1.0416666666666667;" width="209.375" x="146.875" y="53.7028"/><rect fill="#1B1B1A" height="31.3883" rx="8.3333" ry="8.3333" style="stroke:#1B1B1A;stroke-width:1.0416666666666667;" width="209.375" x="146.875" y="53.7028"/><rect fill="#1B1B1A" height="8.3333" style="stroke:#1B1B1A;stroke-width:1.0416666666666667;" width="209.375" x="146.875" y="76.7578"/><rect fill="none" height="48.055" id="CommonDataSpecification" rx="8.3333" ry="8.3333" style="stroke:#5E5E5E;stroke-width:1.0416666666666667;" width="209.375" x="146.875" y="53.7028"/><ellipse cx="161.4583" cy="69.397" fill="#0066CF" rx="10.4167" ry="10.4167" style="stroke:#0086EF;stroke-width:1.0416666666666667;"/><path d="M163.3687,73.822 Q162.9415,74.0417 162.4715,74.1516 Q162.0015,74.2615 161.4827,74.2615 Q159.6395,74.2615 158.669,73.0469 Q157.6986,71.8323 157.6986,69.5374 Q157.6986,67.2363 158.669,66.0217 Q159.6395,64.8071 161.4827,64.8071 Q162.0015,64.8071 162.4776,64.917 Q162.9537,65.0269 163.3687,65.2466 L163.3687,67.2485 Q162.9049,66.8213 162.4685,66.6229 Q162.0321,66.4246 161.5682,66.4246 Q160.5794,66.4246 160.0759,67.2089 Q159.5723,67.9932 159.5723,69.5374 Q159.5723,71.0754 160.0759,71.8597 Q160.5794,72.644 161.5682,72.644 Q162.0321,72.644 162.4685,72.4457 Q162.9049,72.2473 163.3687,71.8201 Z " fill="#000000"/><text fill="#D8BC00" font-family="Open Sans,Avenir,Nunito,Arial,Helvetica,SansSerif" font-size="12.5" font-weight="bold" lengthAdjust="spacing" textLength="171.875" x="178.125" y="74.1211">CommonDataSpecification</text><line style="stroke:#5E5E5E;stroke-width:1.0416666666666667;" x1="147.9167" x2="355.2083" y1="85.0911" y2="85.0911"/><line style="stroke:#5E5E5E;stroke-width:1.0416666666666667;" x1="147.9167" x2="355.2083" y1="93.4245" y2="93.4245"/><rect codeLine="8" fill="#282828" height="67.7999" id="OsmDataSpecification" rx="8.3333" ry="8.3333" style="stroke:#5E5E5E;stroke-width:1.0416666666666667;" width="183.3333" x="159.8958" y="164.1195"/><rect fill="#1B1B1A" height="31.3883" rx="8.3333" ry="8.3333" style="stroke:#1B1B1A;stroke-width:1.0416666666666667;" width="183.3333" x="159.8958" y="164.1195"/><rect fill="#1B1B1A" height="8.3333" style="stroke:#1B1B1A;stroke-width:1.0416666666666667;" width="183.3333" x="159.8958" y="187.1745"/><rect codeLine="8" fill="none" height="67.7999" id="OsmDataSpecification" rx="8.3333" ry="8.3333" style="stroke:#5E5E5E;stroke-width:1.0416666666666667;" width="183.3333" x="159.8958" y="164.1195"/><ellipse cx="175.8854" cy="179.8136" fill="#0066CF" rx="10.4167" ry="10.4167" style="stroke:#0086EF;stroke-width:1.0416666666666667;"/><path d="M177.7958,184.2387 Q177.3686,184.4584 176.8986,184.5683 Q176.4286,184.6781 175.9098,184.6781 Q174.0666,184.6781 173.0961,183.4635 Q172.1257,182.2489 172.1257,179.954 Q172.1257,177.653 173.0961,176.4384 Q174.0666,175.2238 175.9098,175.2238 Q176.4286,175.2238 176.9047,175.3337 Q177.3808,175.4435 177.7958,175.6632 L177.7958,177.6652 Q177.3319,177.238 176.8955,177.0396 Q176.4591,176.8412 175.9953,176.8412 Q175.0065,176.8412 174.503,177.6255 Q173.9994,178.4098 173.9994,179.954 Q173.9994,181.4921 174.503,182.2764 Q175.0065,183.0607 175.9953,183.0607 Q176.4591,183.0607 176.8955,182.8623 Q177.3319,182.664 177.7958,182.2367 Z " fill="#000000"/><text fill="#D8BC00" font-family="Open Sans,Avenir,Nunito,Arial,Helvetica,SansSerif" font-size="12.5" font-weight="bold" lengthAdjust="spacing" textLength="142.7083" x="192.8646" y="184.5378">OsmDataSpecification</text><line style="stroke:#5E5E5E;stroke-width:1.5625;" x1="160.9375" x2="342.1875" y1="195.5078" y2="195.5078"/><line style="stroke:#5E5E5E;stroke-width:1.0416666666666667;" x1="160.9375" x2="342.1875" y1="203.8411" y2="203.8411"/><ellipse cx="171.3542" cy="215.2995" fill="#84BE84" rx="3.125" ry="3.125" style="stroke:#038048;stroke-width:1.0416666666666667;"/><text fill="#D8BC00" font-family="Open Sans,Avenir,Nunito,Arial,Helvetica,SansSerif" font-size="11.4583" lengthAdjust="spacing" textLength="151.0417" x="182.8125" y="222.2107">OsmDataSpecification get()</text><path codeLine="7" d="M251.5625,123.0674 C251.5625,136.6715 251.5625,151.3799 251.5625,164.0674 " fill="none" id="CommonDataSpecification-backto-OsmDataSpecification" style="stroke:#545454;stroke-width:1.5625;"/><polygon fill="none" points="244.2708,122.609,251.5625,101.7757,258.8542,122.609,244.2708,122.609" style="stroke:#545454;stroke-width:1.5625;"/></g></svg>
