<?xml version="1.0" encoding="UTF-8" standalone="no"?><svg xmlns="http://www.w3.org/2000/svg" xmlns:xlink="http://www.w3.org/1999/xlink" contentScriptType="application/ecmascript" contentStyleType="text/css" height="317.7083px" preserveAspectRatio="none" style="width:468px;height:317px;background:#333333;" version="1.1" viewBox="0 0 468 317" width="468.75px" zoomAndPan="magnify"><defs/><g><rect fill="#48494B" height="41.2028" rx="8.3333" ry="8.3333" style="stroke:#545454;stroke-width:1.0416666666666667;" width="456.25" x="2.0833" y="2.0833"/><text fill="#C0C0C0" font-family="Open Sans,Avenir,Nunito,Arial,Helvetica,SansSerif" font-size="20.8333" lengthAdjust="spacing" textLength="433.3333" x="13.5417" y="30.5583">com.telenav.mesakit.graph.ui.viewer.theme</text><rect fill="#282828" height="48.055" id="KivaKitDarculaTheme" rx="8.3333" ry="8.3333" style="stroke:#5E5E5E;stroke-width:1.0416666666666667;" width="177.0833" x="148.9583" y="53.7028"/><rect fill="#1B1B1A" height="31.3883" rx="8.3333" ry="8.3333" style="stroke:#1B1B1A;stroke-width:1.0416666666666667;" width="177.0833" x="148.9583" y="53.7028"/><rect fill="#1B1B1A" height="8.3333" style="stroke:#1B1B1A;stroke-width:1.0416666666666667;" width="177.0833" x="148.9583" y="76.7578"/><rect fill="none" height="48.055" id="KivaKitDarculaTheme" rx="8.3333" ry="8.3333" style="stroke:#5E5E5E;stroke-width:1.0416666666666667;" width="177.0833" x="148.9583" y="53.7028"/><ellipse cx="163.5417" cy="69.397" fill="#0066CF" rx="10.4167" ry="10.4167" style="stroke:#0086EF;stroke-width:1.0416666666666667;"/><path d="M165.4521,73.822 Q165.0248,74.0417 164.5549,74.1516 Q164.0849,74.2615 163.5661,74.2615 Q161.7228,74.2615 160.7524,73.0469 Q159.7819,71.8323 159.7819,69.5374 Q159.7819,67.2363 160.7524,66.0217 Q161.7228,64.8071 163.5661,64.8071 Q164.0849,64.8071 164.561,64.917 Q165.037,65.0269 165.4521,65.2466 L165.4521,67.2485 Q164.9882,66.8213 164.5518,66.6229 Q164.1154,66.4246 163.6515,66.4246 Q162.6628,66.4246 162.1592,67.2089 Q161.6557,67.9932 161.6557,69.5374 Q161.6557,71.0754 162.1592,71.8597 Q162.6628,72.644 163.6515,72.644 Q164.1154,72.644 164.5518,72.4457 Q164.9882,72.2473 165.4521,71.8201 Z " fill="#000000"/><text fill="#D8BC00" font-family="Open Sans,Avenir,Nunito,Arial,Helvetica,SansSerif" font-size="12.5" font-weight="bold" lengthAdjust="spacing" textLength="139.5833" x="180.2083" y="74.1211">KivaKitDarculaTheme</text><line style="stroke:#5E5E5E;stroke-width:1.0416666666666667;" x1="150" x2="325" y1="85.0911" y2="85.0911"/><line style="stroke:#5E5E5E;stroke-width:1.0416666666666667;" x1="150" x2="325" y1="93.4245" y2="93.4245"/><rect codeLine="8" fill="#282828" height="146.7794" id="GraphDebugViewerTheme" rx="8.3333" ry="8.3333" style="stroke:#5E5E5E;stroke-width:1.0416666666666667;" width="205.2083" x="134.8958" y="164.1195"/><rect fill="#1B1B1A" height="31.3883" rx="8.3333" ry="8.3333" style="stroke:#1B1B1A;stroke-width:1.0416666666666667;" width="205.2083" x="134.8958" y="164.1195"/><rect fill="#1B1B1A" height="8.3333" style="stroke:#1B1B1A;stroke-width:1.0416666666666667;" width="205.2083" x="134.8958" y="187.1745"/><rect codeLine="8" fill="none" height="146.7794" id="GraphDebugViewerTheme" rx="8.3333" ry="8.3333" style="stroke:#5E5E5E;stroke-width:1.0416666666666667;" width="205.2083" x="134.8958" y="164.1195"/><ellipse cx="149.4792" cy="179.8136" fill="#0066CF" rx="10.4167" ry="10.4167" style="stroke:#0086EF;stroke-width:1.0416666666666667;"/><path d="M151.3896,184.2387 Q150.9623,184.4584 150.4924,184.5683 Q150.0224,184.6781 149.5036,184.6781 Q147.6603,184.6781 146.6899,183.4635 Q145.7194,182.2489 145.7194,179.954 Q145.7194,177.653 146.6899,176.4384 Q147.6603,175.2238 149.5036,175.2238 Q150.0224,175.2238 150.4985,175.3337 Q150.9745,175.4435 151.3896,175.6632 L151.3896,177.6652 Q150.9257,177.238 150.4893,177.0396 Q150.0529,176.8412 149.589,176.8412 Q148.6003,176.8412 148.0967,177.6255 Q147.5932,178.4098 147.5932,179.954 Q147.5932,181.4921 148.0967,182.2764 Q148.6003,183.0607 149.589,183.0607 Q150.0529,183.0607 150.4893,182.8623 Q150.9257,182.664 151.3896,182.2367 Z " fill="#000000"/><text fill="#D8BC00" font-family="Open Sans,Avenir,Nunito,Arial,Helvetica,SansSerif" font-size="12.5" font-weight="bold" lengthAdjust="spacing" textLength="167.7083" x="166.1458" y="184.5378">GraphDebugViewerTheme</text><line style="stroke:#5E5E5E;stroke-width:1.5625;" x1="135.9375" x2="339.0625" y1="195.5078" y2="195.5078"/><line style="stroke:#5E5E5E;stroke-width:1.0416666666666667;" x1="135.9375" x2="339.0625" y1="203.8411" y2="203.8411"/><ellipse cx="146.3542" cy="215.2995" fill="#84BE84" rx="3.125" ry="3.125" style="stroke:#038048;stroke-width:1.0416666666666667;"/><text fill="#D8BC00" font-family="Open Sans,Avenir,Nunito,Arial,Helvetica,SansSerif" font-size="11.4583" lengthAdjust="spacing" textLength="119.7917" x="157.8125" y="222.2107">Style styleCandidate()</text><ellipse cx="146.3542" cy="235.0444" fill="#84BE84" rx="3.125" ry="3.125" style="stroke:#038048;stroke-width:1.0416666666666667;"/><text fill="#D8BC00" font-family="Open Sans,Avenir,Nunito,Arial,Helvetica,SansSerif" font-size="11.4583" lengthAdjust="spacing" textLength="107.2917" x="157.8125" y="241.9556">Style styleCurrent()</text><ellipse cx="146.3542" cy="254.7892" fill="#84BE84" rx="3.125" ry="3.125" style="stroke:#038048;stroke-width:1.0416666666666667;"/><text fill="#D8BC00" font-family="Open Sans,Avenir,Nunito,Arial,Helvetica,SansSerif" font-size="11.4583" lengthAdjust="spacing" textLength="90.625" x="157.8125" y="261.7004">Style styleEdge()</text><ellipse cx="146.3542" cy="274.5341" fill="#84BE84" rx="3.125" ry="3.125" style="stroke:#038048;stroke-width:1.0416666666666667;"/><text fill="#D8BC00" font-family="Open Sans,Avenir,Nunito,Arial,Helvetica,SansSerif" font-size="11.4583" lengthAdjust="spacing" textLength="114.5833" x="157.8125" y="281.4453">Style styleHighlight()</text><ellipse cx="146.3542" cy="294.279" fill="#84BE84" rx="3.125" ry="3.125" style="stroke:#038048;stroke-width:1.0416666666666667;"/><text fill="#D8BC00" font-family="Open Sans,Avenir,Nunito,Arial,Helvetica,SansSerif" font-size="11.4583" lengthAdjust="spacing" textLength="95.8333" x="157.8125" y="301.1902">Style styleRoute()</text><path codeLine="7" d="M237.5,122.6611 C237.5,135.4736 237.5,149.8278 237.5,163.9111 " fill="none" id="KivaKitDarculaTheme-backto-GraphDebugViewerTheme" style="stroke:#545454;stroke-width:1.5625;"/><polygon fill="none" points="230.2083,122.484,237.5,101.6507,244.7917,122.484,230.2083,122.484" style="stroke:#545454;stroke-width:1.5625;"/></g></svg>
