<?xml version="1.0" encoding="UTF-8" standalone="no"?><svg xmlns="http://www.w3.org/2000/svg" xmlns:xlink="http://www.w3.org/1999/xlink" contentScriptType="application/ecmascript" contentStyleType="text/css" height="218.75px" preserveAspectRatio="none" style="width:1236px;height:218px;background:#333333;" version="1.1" viewBox="0 0 1236 218" width="1236.4583px" zoomAndPan="magnify"><defs/><g><rect fill="#48494B" height="41.2028" rx="8.3333" ry="8.3333" style="stroke:#545454;stroke-width:1.0416666666666667;" width="678.125" x="271.875" y="2.0833"/><text fill="#C0C0C0" font-family="Open Sans,Avenir,Nunito,Arial,Helvetica,SansSerif" font-size="20.8333" lengthAdjust="spacing" textLength="655.2083" x="283.3333" y="30.5583">com.telenav.mesakit.graph.analytics.classification.classifiers.road</text><rect codeLine="7" fill="#282828" height="48.055" id="EdgeClassifier" rx="8.3333" ry="8.3333" style="stroke:#5E5E5E;stroke-width:1.0416666666666667;" width="130.2083" x="530.2083" y="53.7028"/><rect fill="#1B1B1A" height="31.3883" rx="8.3333" ry="8.3333" style="stroke:#1B1B1A;stroke-width:1.0416666666666667;" width="130.2083" x="530.2083" y="53.7028"/><rect fill="#1B1B1A" height="8.3333" style="stroke:#1B1B1A;stroke-width:1.0416666666666667;" width="130.2083" x="530.2083" y="76.7578"/><rect codeLine="7" fill="none" height="48.055" id="EdgeClassifier" rx="8.3333" ry="8.3333" style="stroke:#5E5E5E;stroke-width:1.0416666666666667;" width="130.2083" x="530.2083" y="53.7028"/><ellipse cx="544.7917" cy="69.397" fill="#008400" rx="10.4167" ry="10.4167" style="stroke:#239C23;stroke-width:1.0416666666666667;"/><path d="M542.1956,66.5588 L542.1956,64.9719 L547.6217,64.9719 L547.6217,66.5588 L545.8089,66.5588 L545.8089,72.4976 L547.6217,72.4976 L547.6217,74.0845 L542.1956,74.0845 L542.1956,72.4976 L544.0084,72.4976 L544.0084,66.5588 Z " fill="#000000"/><text fill="#D8BC00" font-family="Open Sans,Avenir,Nunito,Arial,Helvetica,SansSerif" font-size="12.5" font-style="italic" font-weight="bold" lengthAdjust="spacing" textLength="92.7083" x="561.4583" y="74.1211">EdgeClassifier</text><line style="stroke:#5E5E5E;stroke-width:1.0416666666666667;" x1="531.25" x2="659.375" y1="85.0911" y2="85.0911"/><line style="stroke:#5E5E5E;stroke-width:1.0416666666666667;" x1="531.25" x2="659.375" y1="93.4245" y2="93.4245"/><rect codeLine="10" fill="#282828" height="48.055" id="OneWayClassifier" rx="8.3333" ry="8.3333" style="stroke:#5E5E5E;stroke-width:1.0416666666666667;" width="151.0417" x="7.2917" y="164.1195"/><rect fill="#1B1B1A" height="31.3883" rx="8.3333" ry="8.3333" style="stroke:#1B1B1A;stroke-width:1.0416666666666667;" width="151.0417" x="7.2917" y="164.1195"/><rect fill="#1B1B1A" height="8.3333" style="stroke:#1B1B1A;stroke-width:1.0416666666666667;" width="151.0417" x="7.2917" y="187.1745"/><rect codeLine="10" fill="none" height="48.055" id="OneWayClassifier" rx="8.3333" ry="8.3333" style="stroke:#5E5E5E;stroke-width:1.0416666666666667;" width="151.0417" x="7.2917" y="164.1195"/><ellipse cx="21.875" cy="179.8136" fill="#0066CF" rx="10.4167" ry="10.4167" style="stroke:#0086EF;stroke-width:1.0416666666666667;"/><path d="M23.7854,184.2387 Q23.3582,184.4584 22.8882,184.5683 Q22.4182,184.6781 21.8994,184.6781 Q20.0562,184.6781 19.0857,183.4635 Q18.1152,182.2489 18.1152,179.954 Q18.1152,177.653 19.0857,176.4384 Q20.0562,175.2238 21.8994,175.2238 Q22.4182,175.2238 22.8943,175.3337 Q23.3704,175.4435 23.7854,175.6632 L23.7854,177.6652 Q23.3215,177.238 22.8851,177.0396 Q22.4487,176.8412 21.9849,176.8412 Q20.9961,176.8412 20.4926,177.6255 Q19.989,178.4098 19.989,179.954 Q19.989,181.4921 20.4926,182.2764 Q20.9961,183.0607 21.9849,183.0607 Q22.4487,183.0607 22.8851,182.8623 Q23.3215,182.664 23.7854,182.2367 Z " fill="#000000"/><text fill="#D8BC00" font-family="Open Sans,Avenir,Nunito,Arial,Helvetica,SansSerif" font-size="12.5" font-weight="bold" lengthAdjust="spacing" textLength="113.5417" x="38.5417" y="184.5378">OneWayClassifier</text><line style="stroke:#5E5E5E;stroke-width:1.0416666666666667;" x1="8.3333" x2="157.2917" y1="195.5078" y2="195.5078"/><line style="stroke:#5E5E5E;stroke-width:1.0416666666666667;" x1="8.3333" x2="157.2917" y1="203.8411" y2="203.8411"/><rect codeLine="15" fill="#282828" height="48.055" id="RoadLanesClassifier" rx="8.3333" ry="8.3333" style="stroke:#5E5E5E;stroke-width:1.0416666666666667;" width="168.75" x="195.3125" y="164.1195"/><rect fill="#1B1B1A" height="31.3883" rx="8.3333" ry="8.3333" style="stroke:#1B1B1A;stroke-width:1.0416666666666667;" width="168.75" x="195.3125" y="164.1195"/><rect fill="#1B1B1A" height="8.3333" style="stroke:#1B1B1A;stroke-width:1.0416666666666667;" width="168.75" x="195.3125" y="187.1745"/><rect codeLine="15" fill="none" height="48.055" id="RoadLanesClassifier" rx="8.3333" ry="8.3333" style="stroke:#5E5E5E;stroke-width:1.0416666666666667;" width="168.75" x="195.3125" y="164.1195"/><ellipse cx="209.8958" cy="179.8136" fill="#0066CF" rx="10.4167" ry="10.4167" style="stroke:#0086EF;stroke-width:1.0416666666666667;"/><path d="M211.8062,184.2387 Q211.379,184.4584 210.909,184.5683 Q210.439,184.6781 209.9202,184.6781 Q208.077,184.6781 207.1065,183.4635 Q206.1361,182.2489 206.1361,179.954 Q206.1361,177.653 207.1065,176.4384 Q208.077,175.2238 209.9202,175.2238 Q210.439,175.2238 210.9151,175.3337 Q211.3912,175.4435 211.8062,175.6632 L211.8062,177.6652 Q211.3424,177.238 210.906,177.0396 Q210.4696,176.8412 210.0057,176.8412 Q209.0169,176.8412 208.5134,177.6255 Q208.0098,178.4098 208.0098,179.954 Q208.0098,181.4921 208.5134,182.2764 Q209.0169,183.0607 210.0057,183.0607 Q210.4696,183.0607 210.906,182.8623 Q211.3424,182.664 211.8062,182.2367 Z " fill="#000000"/><text fill="#D8BC00" font-family="Open Sans,Avenir,Nunito,Arial,Helvetica,SansSerif" font-size="12.5" font-weight="bold" lengthAdjust="spacing" textLength="131.25" x="226.5625" y="184.5378">RoadLanesClassifier</text><line style="stroke:#5E5E5E;stroke-width:1.0416666666666667;" x1="196.3542" x2="363.0208" y1="195.5078" y2="195.5078"/><line style="stroke:#5E5E5E;stroke-width:1.0416666666666667;" x1="196.3542" x2="363.0208" y1="203.8411" y2="203.8411"/><rect codeLine="20" fill="#282828" height="48.055" id="RoadNameClassifier" rx="8.3333" ry="8.3333" style="stroke:#5E5E5E;stroke-width:1.0416666666666667;" width="167.7083" x="401.0417" y="164.1195"/><rect fill="#1B1B1A" height="31.3883" rx="8.3333" ry="8.3333" style="stroke:#1B1B1A;stroke-width:1.0416666666666667;" width="167.7083" x="401.0417" y="164.1195"/><rect fill="#1B1B1A" height="8.3333" style="stroke:#1B1B1A;stroke-width:1.0416666666666667;" width="167.7083" x="401.0417" y="187.1745"/><rect codeLine="20" fill="none" height="48.055" id="RoadNameClassifier" rx="8.3333" ry="8.3333" style="stroke:#5E5E5E;stroke-width:1.0416666666666667;" width="167.7083" x="401.0417" y="164.1195"/><ellipse cx="415.625" cy="179.8136" fill="#0066CF" rx="10.4167" ry="10.4167" style="stroke:#0086EF;stroke-width:1.0416666666666667;"/><path d="M417.5354,184.2387 Q417.1082,184.4584 416.6382,184.5683 Q416.1682,184.6781 415.6494,184.6781 Q413.8062,184.6781 412.8357,183.4635 Q411.8652,182.2489 411.8652,179.954 Q411.8652,177.653 412.8357,176.4384 Q413.8062,175.2238 415.6494,175.2238 Q416.1682,175.2238 416.6443,175.3337 Q417.1204,175.4435 417.5354,175.6632 L417.5354,177.6652 Q417.0715,177.238 416.6351,177.0396 Q416.1987,176.8412 415.7349,176.8412 Q414.7461,176.8412 414.2426,177.6255 Q413.739,178.4098 413.739,179.954 Q413.739,181.4921 414.2426,182.2764 Q414.7461,183.0607 415.7349,183.0607 Q416.1987,183.0607 416.6351,182.8623 Q417.0715,182.664 417.5354,182.2367 Z " fill="#000000"/><text fill="#D8BC00" font-family="Open Sans,Avenir,Nunito,Arial,Helvetica,SansSerif" font-size="12.5" font-weight="bold" lengthAdjust="spacing" textLength="130.2083" x="432.2917" y="184.5378">RoadNameClassifier</text><line style="stroke:#5E5E5E;stroke-width:1.0416666666666667;" x1="402.0833" x2="567.7083" y1="195.5078" y2="195.5078"/><line style="stroke:#5E5E5E;stroke-width:1.0416666666666667;" x1="402.0833" x2="567.7083" y1="203.8411" y2="203.8411"/><rect codeLine="25" fill="#282828" height="48.055" id="RoadSpeedLimitClassifier" rx="8.3333" ry="8.3333" style="stroke:#5E5E5E;stroke-width:1.0416666666666667;" width="203.125" x="605.2083" y="164.1195"/><rect fill="#1B1B1A" height="31.3883" rx="8.3333" ry="8.3333" style="stroke:#1B1B1A;stroke-width:1.0416666666666667;" width="203.125" x="605.2083" y="164.1195"/><rect fill="#1B1B1A" height="8.3333" style="stroke:#1B1B1A;stroke-width:1.0416666666666667;" width="203.125" x="605.2083" y="187.1745"/><rect codeLine="25" fill="none" height="48.055" id="RoadSpeedLimitClassifier" rx="8.3333" ry="8.3333" style="stroke:#5E5E5E;stroke-width:1.0416666666666667;" width="203.125" x="605.2083" y="164.1195"/><ellipse cx="619.7917" cy="179.8136" fill="#0066CF" rx="10.4167" ry="10.4167" style="stroke:#0086EF;stroke-width:1.0416666666666667;"/><path d="M621.7021,184.2387 Q621.2748,184.4584 620.8049,184.5683 Q620.3349,184.6781 619.8161,184.6781 Q617.9728,184.6781 617.0024,183.4635 Q616.0319,182.2489 616.0319,179.954 Q616.0319,177.653 617.0024,176.4384 Q617.9728,175.2238 619.8161,175.2238 Q620.3349,175.2238 620.811,175.3337 Q621.287,175.4435 621.7021,175.6632 L621.7021,177.6652 Q621.2382,177.238 620.8018,177.0396 Q620.3654,176.8412 619.9015,176.8412 Q618.9128,176.8412 618.4092,177.6255 Q617.9057,178.4098 617.9057,179.954 Q617.9057,181.4921 618.4092,182.2764 Q618.9128,183.0607 619.9015,183.0607 Q620.3654,183.0607 620.8018,182.8623 Q621.2382,182.664 621.7021,182.2367 Z " fill="#000000"/><text fill="#D8BC00" font-family="Open Sans,Avenir,Nunito,Arial,Helvetica,SansSerif" font-size="12.5" font-weight="bold" lengthAdjust="spacing" textLength="165.625" x="636.4583" y="184.5378">RoadSpeedLimitClassifier</text><line style="stroke:#5E5E5E;stroke-width:1.0416666666666667;" x1="606.25" x2="807.2917" y1="195.5078" y2="195.5078"/><line style="stroke:#5E5E5E;stroke-width:1.0416666666666667;" x1="606.25" x2="807.2917" y1="203.8411" y2="203.8411"/><rect codeLine="30" fill="#282828" height="48.055" id="RoadSurfaceClassifier" rx="8.3333" ry="8.3333" style="stroke:#5E5E5E;stroke-width:1.0416666666666667;" width="178.125" x="844.7917" y="164.1195"/><rect fill="#1B1B1A" height="31.3883" rx="8.3333" ry="8.3333" style="stroke:#1B1B1A;stroke-width:1.0416666666666667;" width="178.125" x="844.7917" y="164.1195"/><rect fill="#1B1B1A" height="8.3333" style="stroke:#1B1B1A;stroke-width:1.0416666666666667;" width="178.125" x="844.7917" y="187.1745"/><rect codeLine="30" fill="none" height="48.055" id="RoadSurfaceClassifier" rx="8.3333" ry="8.3333" style="stroke:#5E5E5E;stroke-width:1.0416666666666667;" width="178.125" x="844.7917" y="164.1195"/><ellipse cx="859.375" cy="179.8136" fill="#0066CF" rx="10.4167" ry="10.4167" style="stroke:#0086EF;stroke-width:1.0416666666666667;"/><path d="M861.2854,184.2387 Q860.8582,184.4584 860.3882,184.5683 Q859.9182,184.6781 859.3994,184.6781 Q857.5562,184.6781 856.5857,183.4635 Q855.6152,182.2489 855.6152,179.954 Q855.6152,177.653 856.5857,176.4384 Q857.5562,175.2238 859.3994,175.2238 Q859.9182,175.2238 860.3943,175.3337 Q860.8704,175.4435 861.2854,175.6632 L861.2854,177.6652 Q860.8215,177.238 860.3851,177.0396 Q859.9487,176.8412 859.4849,176.8412 Q858.4961,176.8412 857.9926,177.6255 Q857.489,178.4098 857.489,179.954 Q857.489,181.4921 857.9926,182.2764 Q858.4961,183.0607 859.4849,183.0607 Q859.9487,183.0607 860.3851,182.8623 Q860.8215,182.664 861.2854,182.2367 Z " fill="#000000"/><text fill="#D8BC00" font-family="Open Sans,Avenir,Nunito,Arial,Helvetica,SansSerif" font-size="12.5" font-weight="bold" lengthAdjust="spacing" textLength="140.625" x="876.0417" y="184.5378">RoadSurfaceClassifier</text><line style="stroke:#5E5E5E;stroke-width:1.0416666666666667;" x1="845.8333" x2="1021.875" y1="195.5078" y2="195.5078"/><line style="stroke:#5E5E5E;stroke-width:1.0416666666666667;" x1="845.8333" x2="1021.875" y1="203.8411" y2="203.8411"/><rect codeLine="35" fill="#282828" height="48.055" id="ServiceWayClassifier" rx="8.3333" ry="8.3333" style="stroke:#5E5E5E;stroke-width:1.0416666666666667;" width="169.7917" x="1059.375" y="164.1195"/><rect fill="#1B1B1A" height="31.3883" rx="8.3333" ry="8.3333" style="stroke:#1B1B1A;stroke-width:1.0416666666666667;" width="169.7917" x="1059.375" y="164.1195"/><rect fill="#1B1B1A" height="8.3333" style="stroke:#1B1B1A;stroke-width:1.0416666666666667;" width="169.7917" x="1059.375" y="187.1745"/><rect codeLine="35" fill="none" height="48.055" id="ServiceWayClassifier" rx="8.3333" ry="8.3333" style="stroke:#5E5E5E;stroke-width:1.0416666666666667;" width="169.7917" x="1059.375" y="164.1195"/><ellipse cx="1073.9583" cy="179.8136" fill="#0066CF" rx="10.4167" ry="10.4167" style="stroke:#0086EF;stroke-width:1.0416666666666667;"/><path d="M1075.8687,184.2387 Q1075.4415,184.4584 1074.9715,184.5683 Q1074.5015,184.6781 1073.9827,184.6781 Q1072.1395,184.6781 1071.169,183.4635 Q1070.1986,182.2489 1070.1986,179.954 Q1070.1986,177.653 1071.169,176.4384 Q1072.1395,175.2238 1073.9827,175.2238 Q1074.5015,175.2238 1074.9776,175.3337 Q1075.4537,175.4435 1075.8687,175.6632 L1075.8687,177.6652 Q1075.4049,177.238 1074.9685,177.0396 Q1074.5321,176.8412 1074.0682,176.8412 Q1073.0794,176.8412 1072.5759,177.6255 Q1072.0723,178.4098 1072.0723,179.954 Q1072.0723,181.4921 1072.5759,182.2764 Q1073.0794,183.0607 1074.0682,183.0607 Q1074.5321,183.0607 1074.9685,182.8623 Q1075.4049,182.664 1075.8687,182.2367 Z " fill="#000000"/><text fill="#D8BC00" font-family="Open Sans,Avenir,Nunito,Arial,Helvetica,SansSerif" font-size="12.5" font-weight="bold" lengthAdjust="spacing" textLength="132.2917" x="1090.625" y="184.5378">ServiceWayClassifier</text><line style="stroke:#5E5E5E;stroke-width:1.0416666666666667;" x1="1060.4167" x2="1228.125" y1="195.5078" y2="195.5078"/><line style="stroke:#5E5E5E;stroke-width:1.0416666666666667;" x1="1060.4167" x2="1228.125" y1="203.8411" y2="203.8411"/><path codeLine="9" d="M509.3958,95.2236 C424.6042,111.7653 291.3646,138.3903 176.5625,164.1195 C170.6771,165.4424 164.5938,166.8382 158.4792,168.2757 " fill="none" id="EdgeClassifier-backto-OneWayClassifier" style="stroke:#545454;stroke-width:1.5625;"/><polygon fill="none" points="508.0208,88.057,529.8646,91.2445,510.8125,102.3799,508.0208,88.057" style="stroke:#545454;stroke-width:1.5625;"/><path codeLine="14" d="M509.8854,108.0257 C458.5729,125.6403 394.2396,147.7132 346.6354,164.057 " fill="none" id="EdgeClassifier-backto-RoadLanesClassifier" style="stroke:#545454;stroke-width:1.5625;"/><polygon fill="none" points="507.8438,101.0153,529.9167,101.1507,512.5729,114.807,507.8438,101.0153" style="stroke:#545454;stroke-width:1.5625;"/><path codeLine="19" d="M556.6875,116.5986 C540.5417,132.432 522.3229,150.3174 508.2813,164.0986 " fill="none" id="EdgeClassifier-backto-RoadNameClassifier" style="stroke:#545454;stroke-width:1.5625;"/><polygon fill="none" points="551.9167,111.0674,571.8958,101.682,562.1354,121.4736,551.9167,111.0674" style="stroke:#545454;stroke-width:1.5625;"/><path codeLine="24" d="M634.3021,116.5986 C650.5938,132.432 668.9896,150.3174 683.1667,164.0986 " fill="none" id="EdgeClassifier-backto-RoadSpeedLimitClassifier" style="stroke:#545454;stroke-width:1.5625;"/><polygon fill="none" points="628.8021,121.432,618.9479,101.682,638.9688,110.9736,628.8021,121.432" style="stroke:#545454;stroke-width:1.5625;"/><path codeLine="29" d="M680.7813,106.057 C736.75,123.9632 809.0625,147.0986 862.0417,164.057 " fill="none" id="EdgeClassifier-backto-RoadSurfaceClassifier" style="stroke:#545454;stroke-width:1.5625;"/><polygon fill="none" points="678.2083,112.8799,660.5833,99.5882,682.6563,98.9945,678.2083,112.8799" style="stroke:#545454;stroke-width:1.5625;"/><path codeLine="34" d="M681.2917,94.4007 C771.1875,110.9945 916.2917,138.2965 1041.1458,164.1195 C1047.0729,165.3486 1053.1875,166.6403 1059.3333,167.9528 " fill="none" id="EdgeClassifier-backto-ServiceWayClassifier" style="stroke:#545454;stroke-width:1.5625;"/><polygon fill="none" points="679.9479,101.5674,660.7813,90.6195,682.5833,87.2236,679.9479,101.5674" style="stroke:#545454;stroke-width:1.5625;"/></g></svg>
