<?xml version="1.0" encoding="UTF-8" standalone="no"?><svg xmlns="http://www.w3.org/2000/svg" xmlns:xlink="http://www.w3.org/1999/xlink" contentScriptType="application/ecmascript" contentStyleType="text/css" height="409.375px" preserveAspectRatio="none" style="width:814px;height:409px;background:#333333;" version="1.1" viewBox="0 0 814 409" width="814.5833px" zoomAndPan="magnify"><defs/><g><rect fill="#48494B" height="41.2028" rx="8.3333" ry="8.3333" style="stroke:#545454;stroke-width:1.0416666666666667;" width="792.7083" x="3.9063" y="2.0833"/><text fill="#C0C0C0" font-family="Open Sans,Avenir,Nunito,Arial,Helvetica,SansSerif" font-size="20.8333" lengthAdjust="spacing" textLength="769.7917" x="15.3646" y="30.5583">com.telenav.mesakit.graph.specifications.common.edge.store.stores.polyline</text><rect codeLine="7" fill="#282828" height="48.055" id="Named" rx="8.3333" ry="8.3333" style="stroke:#5E5E5E;stroke-width:1.0416666666666667;" width="82.2917" x="7.2917" y="53.7028"/><rect fill="#1B1B1A" height="31.3883" rx="8.3333" ry="8.3333" style="stroke:#1B1B1A;stroke-width:1.0416666666666667;" width="82.2917" x="7.2917" y="53.7028"/><rect fill="#1B1B1A" height="8.3333" style="stroke:#1B1B1A;stroke-width:1.0416666666666667;" width="82.2917" x="7.2917" y="76.7578"/><rect codeLine="7" fill="none" height="48.055" id="Named" rx="8.3333" ry="8.3333" style="stroke:#5E5E5E;stroke-width:1.0416666666666667;" width="82.2917" x="7.2917" y="53.7028"/><ellipse cx="21.875" cy="69.397" fill="#008400" rx="10.4167" ry="10.4167" style="stroke:#239C23;stroke-width:1.0416666666666667;"/><path d="M19.279,66.5588 L19.279,64.9719 L24.705,64.9719 L24.705,66.5588 L22.8923,66.5588 L22.8923,72.4976 L24.705,72.4976 L24.705,74.0845 L19.279,74.0845 L19.279,72.4976 L21.0917,72.4976 L21.0917,66.5588 Z " fill="#000000"/><text fill="#D8BC00" font-family="Open Sans,Avenir,Nunito,Arial,Helvetica,SansSerif" font-size="12.5" font-style="italic" font-weight="bold" lengthAdjust="spacing" textLength="44.7917" x="38.5417" y="74.1211">Named</text><line style="stroke:#5E5E5E;stroke-width:1.0416666666666667;" x1="8.3333" x2="88.5417" y1="85.0911" y2="85.0911"/><line style="stroke:#5E5E5E;stroke-width:1.0416666666666667;" x1="8.3333" x2="88.5417" y1="93.4245" y2="93.4245"/><rect codeLine="8" fill="#282828" height="48.055" id="Initializable" rx="8.3333" ry="8.3333" style="stroke:#5E5E5E;stroke-width:1.0416666666666667;" width="113.5417" x="355.2083" y="53.7028"/><rect fill="#1B1B1A" height="31.3883" rx="8.3333" ry="8.3333" style="stroke:#1B1B1A;stroke-width:1.0416666666666667;" width="113.5417" x="355.2083" y="53.7028"/><rect fill="#1B1B1A" height="8.3333" style="stroke:#1B1B1A;stroke-width:1.0416666666666667;" width="113.5417" x="355.2083" y="76.7578"/><rect codeLine="8" fill="none" height="48.055" id="Initializable" rx="8.3333" ry="8.3333" style="stroke:#5E5E5E;stroke-width:1.0416666666666667;" width="113.5417" x="355.2083" y="53.7028"/><ellipse cx="369.7917" cy="69.397" fill="#008400" rx="10.4167" ry="10.4167" style="stroke:#239C23;stroke-width:1.0416666666666667;"/><path d="M367.1956,66.5588 L367.1956,64.9719 L372.6217,64.9719 L372.6217,66.5588 L370.8089,66.5588 L370.8089,72.4976 L372.6217,72.4976 L372.6217,74.0845 L367.1956,74.0845 L367.1956,72.4976 L369.0084,72.4976 L369.0084,66.5588 Z " fill="#000000"/><text fill="#D8BC00" font-family="Open Sans,Avenir,Nunito,Arial,Helvetica,SansSerif" font-size="12.5" font-style="italic" font-weight="bold" lengthAdjust="spacing" textLength="76.0417" x="386.4583" y="74.1211">Initializable</text><line style="stroke:#5E5E5E;stroke-width:1.0416666666666667;" x1="356.25" x2="467.7083" y1="85.0911" y2="85.0911"/><line style="stroke:#5E5E5E;stroke-width:1.0416666666666667;" x1="356.25" x2="467.7083" y1="93.4245" y2="93.4245"/><rect codeLine="9" fill="#282828" height="48.055" id="NamedObject" rx="8.3333" ry="8.3333" style="stroke:#5E5E5E;stroke-width:1.0416666666666667;" width="123.9583" x="505.2083" y="53.7028"/><rect fill="#1B1B1A" height="31.3883" rx="8.3333" ry="8.3333" style="stroke:#1B1B1A;stroke-width:1.0416666666666667;" width="123.9583" x="505.2083" y="53.7028"/><rect fill="#1B1B1A" height="8.3333" style="stroke:#1B1B1A;stroke-width:1.0416666666666667;" width="123.9583" x="505.2083" y="76.7578"/><rect codeLine="9" fill="none" height="48.055" id="NamedObject" rx="8.3333" ry="8.3333" style="stroke:#5E5E5E;stroke-width:1.0416666666666667;" width="123.9583" x="505.2083" y="53.7028"/><ellipse cx="519.7917" cy="69.397" fill="#008400" rx="10.4167" ry="10.4167" style="stroke:#239C23;stroke-width:1.0416666666666667;"/><path d="M517.1956,66.5588 L517.1956,64.9719 L522.6217,64.9719 L522.6217,66.5588 L520.8089,66.5588 L520.8089,72.4976 L522.6217,72.4976 L522.6217,74.0845 L517.1956,74.0845 L517.1956,72.4976 L519.0084,72.4976 L519.0084,66.5588 Z " fill="#000000"/><text fill="#D8BC00" font-family="Open Sans,Avenir,Nunito,Arial,Helvetica,SansSerif" font-size="12.5" font-style="italic" font-weight="bold" lengthAdjust="spacing" textLength="86.4583" x="536.4583" y="74.1211">NamedObject</text><line style="stroke:#5E5E5E;stroke-width:1.0416666666666667;" x1="506.25" x2="628.125" y1="85.0911" y2="85.0911"/><line style="stroke:#5E5E5E;stroke-width:1.0416666666666667;" x1="506.25" x2="628.125" y1="93.4245" y2="93.4245"/><rect codeLine="10" fill="#282828" height="48.055" id="CompressibleCollection" rx="8.3333" ry="8.3333" style="stroke:#5E5E5E;stroke-width:1.0416666666666667;" width="192.7083" x="126.0417" y="53.7028"/><rect fill="#1B1B1A" height="31.3883" rx="8.3333" ry="8.3333" style="stroke:#1B1B1A;stroke-width:1.0416666666666667;" width="192.7083" x="126.0417" y="53.7028"/><rect fill="#1B1B1A" height="8.3333" style="stroke:#1B1B1A;stroke-width:1.0416666666666667;" width="192.7083" x="126.0417" y="76.7578"/><rect codeLine="10" fill="none" height="48.055" id="CompressibleCollection" rx="8.3333" ry="8.3333" style="stroke:#5E5E5E;stroke-width:1.0416666666666667;" width="192.7083" x="126.0417" y="53.7028"/><ellipse cx="140.625" cy="69.397" fill="#008400" rx="10.4167" ry="10.4167" style="stroke:#239C23;stroke-width:1.0416666666666667;"/><path d="M138.029,66.5588 L138.029,64.9719 L143.455,64.9719 L143.455,66.5588 L141.6423,66.5588 L141.6423,72.4976 L143.455,72.4976 L143.455,74.0845 L138.029,74.0845 L138.029,72.4976 L139.8417,72.4976 L139.8417,66.5588 Z " fill="#000000"/><text fill="#D8BC00" font-family="Open Sans,Avenir,Nunito,Arial,Helvetica,SansSerif" font-size="12.5" font-style="italic" font-weight="bold" lengthAdjust="spacing" textLength="155.2083" x="157.2917" y="74.1211">CompressibleCollection</text><line style="stroke:#5E5E5E;stroke-width:1.0416666666666667;" x1="127.0833" x2="317.7083" y1="85.0911" y2="85.0911"/><line style="stroke:#5E5E5E;stroke-width:1.0416666666666667;" x1="127.0833" x2="317.7083" y1="93.4245" y2="93.4245"/><rect codeLine="11" fill="#282828" height="48.055" id="KryoSerializable" rx="8.3333" ry="8.3333" style="stroke:#5E5E5E;stroke-width:1.0416666666666667;" width="141.6667" x="666.1458" y="53.7028"/><rect fill="#1B1B1A" height="31.3883" rx="8.3333" ry="8.3333" style="stroke:#1B1B1A;stroke-width:1.0416666666666667;" width="141.6667" x="666.1458" y="53.7028"/><rect fill="#1B1B1A" height="8.3333" style="stroke:#1B1B1A;stroke-width:1.0416666666666667;" width="141.6667" x="666.1458" y="76.7578"/><rect codeLine="11" fill="none" height="48.055" id="KryoSerializable" rx="8.3333" ry="8.3333" style="stroke:#5E5E5E;stroke-width:1.0416666666666667;" width="141.6667" x="666.1458" y="53.7028"/><ellipse cx="680.7292" cy="69.397" fill="#008400" rx="10.4167" ry="10.4167" style="stroke:#239C23;stroke-width:1.0416666666666667;"/><path d="M678.1331,66.5588 L678.1331,64.9719 L683.5592,64.9719 L683.5592,66.5588 L681.7464,66.5588 L681.7464,72.4976 L683.5592,72.4976 L683.5592,74.0845 L678.1331,74.0845 L678.1331,72.4976 L679.9459,72.4976 L679.9459,66.5588 Z " fill="#000000"/><text fill="#D8BC00" font-family="Open Sans,Avenir,Nunito,Arial,Helvetica,SansSerif" font-size="12.5" font-style="italic" font-weight="bold" lengthAdjust="spacing" textLength="104.1667" x="697.3958" y="74.1211">KryoSerializable</text><line style="stroke:#5E5E5E;stroke-width:1.0416666666666667;" x1="667.1875" x2="806.7708" y1="85.0911" y2="85.0911"/><line style="stroke:#5E5E5E;stroke-width:1.0416666666666667;" x1="667.1875" x2="806.7708" y1="93.4245" y2="93.4245"/><rect codeLine="15" fill="#282828" height="238.2589" id="PolylineStore" rx="8.3333" ry="8.3333" style="stroke:#5E5E5E;stroke-width:1.0416666666666667;" width="198.9583" x="40.625" y="164.1195"/><rect fill="#1B1B1A" height="31.3883" rx="8.3333" ry="8.3333" style="stroke:#1B1B1A;stroke-width:1.0416666666666667;" width="198.9583" x="40.625" y="164.1195"/><rect fill="#1B1B1A" height="8.3333" style="stroke:#1B1B1A;stroke-width:1.0416666666666667;" width="198.9583" x="40.625" y="187.1745"/><rect codeLine="15" fill="none" height="238.2589" id="PolylineStore" rx="8.3333" ry="8.3333" style="stroke:#5E5E5E;stroke-width:1.0416666666666667;" width="198.9583" x="40.625" y="164.1195"/><ellipse cx="90.625" cy="179.8136" fill="#0066CF" rx="10.4167" ry="10.4167" style="stroke:#0086EF;stroke-width:1.0416666666666667;"/><path d="M92.5354,184.2387 Q92.1082,184.4584 91.6382,184.5683 Q91.1682,184.6781 90.6494,184.6781 Q88.8062,184.6781 87.8357,183.4635 Q86.8652,182.2489 86.8652,179.954 Q86.8652,177.653 87.8357,176.4384 Q88.8062,175.2238 90.6494,175.2238 Q91.1682,175.2238 91.6443,175.3337 Q92.1204,175.4435 92.5354,175.6632 L92.5354,177.6652 Q92.0715,177.238 91.6351,177.0396 Q91.1987,176.8412 90.7349,176.8412 Q89.7461,176.8412 89.2426,177.6255 Q88.739,178.4098 88.739,179.954 Q88.739,181.4921 89.2426,182.2764 Q89.7461,183.0607 90.7349,183.0607 Q91.1987,183.0607 91.6351,182.8623 Q92.0715,182.664 92.5354,182.2367 Z " fill="#000000"/><text fill="#D8BC00" font-family="Open Sans,Avenir,Nunito,Arial,Helvetica,SansSerif" font-size="12.5" font-weight="bold" lengthAdjust="spacing" textLength="84.375" x="113.5417" y="184.5378">PolylineStore</text><line style="stroke:#5E5E5E;stroke-width:1.5625;" x1="41.6667" x2="238.5417" y1="195.5078" y2="195.5078"/><polygon fill="#FFFF44" points="52.0833,225.6694,56.25,229.836,52.0833,234.0027,47.9167,229.836" style="stroke:#B38D22;stroke-width:1.0416666666666667;"/><text fill="#D8BC00" font-family="Open Sans,Avenir,Nunito,Arial,Helvetica,SansSerif" font-size="11.4583" lengthAdjust="spacing" textLength="80.2083" x="63.5417" y="237.7889">PolylineStore()</text><ellipse cx="52.0833" cy="250.6226" fill="#84BE84" rx="3.125" ry="3.125" style="stroke:#038048;stroke-width:1.0416666666666667;"/><text fill="#D8BC00" font-family="Open Sans,Avenir,Nunito,Arial,Helvetica,SansSerif" font-size="11.4583" lengthAdjust="spacing" textLength="166.6667" x="63.5417" y="257.5338">PolylineStore(String, Estimate)</text><line style="stroke:#5E5E5E;stroke-width:1.0416666666666667;" x1="41.6667" x2="96.3542" y1="213.7136" y2="213.7136"/><text fill="#D8BC00" font-family="Open Sans,Avenir,Nunito,Arial,Helvetica,SansSerif" font-size="11.4583" lengthAdjust="spacing" textLength="81.25" x="99.4792" y="217.5232">(constructors)</text><line style="stroke:#5E5E5E;stroke-width:1.0416666666666667;" x1="183.8542" x2="238.5417" y1="213.7136" y2="213.7136"/><line style="stroke:#5E5E5E;stroke-width:1.0416666666666667;" x1="41.6667" x2="238.5417" y1="267.2424" y2="267.2424"/><ellipse cx="52.0833" cy="278.7008" fill="#84BE84" rx="3.125" ry="3.125" style="stroke:#038048;stroke-width:1.0416666666666667;"/><text fill="#D8BC00" font-family="Open Sans,Avenir,Nunito,Arial,Helvetica,SansSerif" font-size="11.4583" lengthAdjust="spacing" textLength="120.8333" x="63.5417" y="285.612">Polyline get(int index)</text><ellipse cx="52.0833" cy="322.3572" fill="#84BE84" rx="3.125" ry="3.125" style="stroke:#038048;stroke-width:1.0416666666666667;"/><text fill="#D8BC00" font-family="Open Sans,Avenir,Nunito,Arial,Helvetica,SansSerif" font-size="11.4583" lengthAdjust="spacing" textLength="136.4583" x="63.5417" y="329.2684">boolean isNull(int index)</text><line style="stroke:#5E5E5E;stroke-width:1.0416666666666667;" x1="41.6667" x2="113.5417" y1="305.1931" y2="305.1931"/><text fill="#D8BC00" font-family="Open Sans,Avenir,Nunito,Arial,Helvetica,SansSerif" font-size="11.4583" lengthAdjust="spacing" textLength="46.875" x="116.6667" y="309.0027">(checks)</text><line style="stroke:#5E5E5E;stroke-width:1.0416666666666667;" x1="166.6667" x2="238.5417" y1="305.1931" y2="305.1931"/><ellipse cx="52.0833" cy="366.0136" fill="#84BE84" rx="3.125" ry="3.125" style="stroke:#038048;stroke-width:1.0416666666666667;"/><text fill="#D8BC00" font-family="Open Sans,Avenir,Nunito,Arial,Helvetica,SansSerif" font-size="11.4583" lengthAdjust="spacing" textLength="160.4167" x="63.5417" y="372.9248">int add(CompressedPolyline)</text><ellipse cx="52.0833" cy="385.7585" fill="#84BE84" rx="3.125" ry="3.125" style="stroke:#038048;stroke-width:1.0416666666666667;"/><text fill="#D8BC00" font-family="Open Sans,Avenir,Nunito,Arial,Helvetica,SansSerif" font-size="11.4583" lengthAdjust="spacing" textLength="47.9167" x="63.5417" y="392.6697">int size()</text><line style="stroke:#5E5E5E;stroke-width:1.0416666666666667;" x1="41.6667" x2="105.7292" y1="348.8495" y2="348.8495"/><text fill="#D8BC00" font-family="Open Sans,Avenir,Nunito,Arial,Helvetica,SansSerif" font-size="11.4583" lengthAdjust="spacing" textLength="62.5" x="108.8542" y="352.6591">(collection)</text><line style="stroke:#5E5E5E;stroke-width:1.0416666666666667;" x1="174.4792" x2="238.5417" y1="348.8495" y2="348.8495"/><rect codeLine="33" fill="#282828" height="234.0922" id="SplitPolylineStore" rx="8.3333" ry="8.3333" style="stroke:#5E5E5E;stroke-width:1.0416666666666667;" width="396.875" x="290.625" y="166.2028"/><rect fill="#1B1B1A" height="31.3883" rx="8.3333" ry="8.3333" style="stroke:#1B1B1A;stroke-width:1.0416666666666667;" width="396.875" x="290.625" y="166.2028"/><rect fill="#1B1B1A" height="8.3333" style="stroke:#1B1B1A;stroke-width:1.0416666666666667;" width="396.875" x="290.625" y="189.2578"/><rect codeLine="33" fill="none" height="234.0922" id="SplitPolylineStore" rx="8.3333" ry="8.3333" style="stroke:#5E5E5E;stroke-width:1.0416666666666667;" width="396.875" x="290.625" y="166.2028"/><ellipse cx="425" cy="181.897" fill="#0066CF" rx="10.4167" ry="10.4167" style="stroke:#0086EF;stroke-width:1.0416666666666667;"/><path d="M426.9104,186.322 Q426.4832,186.5417 426.0132,186.6516 Q425.5432,186.7615 425.0244,186.7615 Q423.1812,186.7615 422.2107,185.5469 Q421.2402,184.3323 421.2402,182.0374 Q421.2402,179.7363 422.2107,178.5217 Q423.1812,177.3071 425.0244,177.3071 Q425.5432,177.3071 426.0193,177.417 Q426.4954,177.5269 426.9104,177.7466 L426.9104,179.7485 Q426.4465,179.3213 426.0101,179.1229 Q425.5737,178.9246 425.1099,178.9246 Q424.1211,178.9246 423.6176,179.7089 Q423.114,180.4932 423.114,182.0374 Q423.114,183.5754 423.6176,184.3597 Q424.1211,185.144 425.1099,185.144 Q425.5737,185.144 426.0101,184.9457 Q426.4465,184.7473 426.9104,184.3201 Z " fill="#000000"/><text fill="#D8BC00" font-family="Open Sans,Avenir,Nunito,Arial,Helvetica,SansSerif" font-size="12.5" font-weight="bold" lengthAdjust="spacing" textLength="113.5417" x="447.9167" y="186.6211">SplitPolylineStore</text><line style="stroke:#5E5E5E;stroke-width:1.5625;" x1="291.6667" x2="686.4583" y1="197.5911" y2="197.5911"/><polygon fill="#FFFF44" points="302.0833,227.7527,306.25,231.9194,302.0833,236.086,297.9167,231.9194" style="stroke:#B38D22;stroke-width:1.0416666666666667;"/><text fill="#D8BC00" font-family="Open Sans,Avenir,Nunito,Arial,Helvetica,SansSerif" font-size="11.4583" lengthAdjust="spacing" textLength="104.1667" x="313.5417" y="239.8722">SplitPolylineStore()</text><ellipse cx="302.0833" cy="252.7059" fill="#84BE84" rx="3.125" ry="3.125" style="stroke:#038048;stroke-width:1.0416666666666667;"/><text fill="#D8BC00" font-family="Open Sans,Avenir,Nunito,Arial,Helvetica,SansSerif" font-size="11.4583" lengthAdjust="spacing" textLength="364.5833" x="313.5417" y="259.6171">SplitPolylineStore(String, Maximum, Maximum, Estimate, Estimate)</text><line style="stroke:#5E5E5E;stroke-width:1.0416666666666667;" x1="291.6667" x2="445.3125" y1="215.7969" y2="215.7969"/><text fill="#D8BC00" font-family="Open Sans,Avenir,Nunito,Arial,Helvetica,SansSerif" font-size="11.4583" lengthAdjust="spacing" textLength="81.25" x="448.4375" y="219.6065">(constructors)</text><line style="stroke:#5E5E5E;stroke-width:1.0416666666666667;" x1="532.8125" x2="686.4583" y1="215.7969" y2="215.7969"/><line style="stroke:#5E5E5E;stroke-width:1.0416666666666667;" x1="291.6667" x2="686.4583" y1="269.3258" y2="269.3258"/><ellipse cx="302.0833" cy="280.7841" fill="#84BE84" rx="3.125" ry="3.125" style="stroke:#038048;stroke-width:1.0416666666666667;"/><text fill="#D8BC00" font-family="Open Sans,Avenir,Nunito,Arial,Helvetica,SansSerif" font-size="11.4583" lengthAdjust="spacing" textLength="120.8333" x="313.5417" y="287.6953">Polyline get(int index)</text><ellipse cx="302.0833" cy="300.529" fill="#84BE84" rx="3.125" ry="3.125" style="stroke:#038048;stroke-width:1.0416666666666667;"/><text fill="#D8BC00" font-family="Open Sans,Avenir,Nunito,Arial,Helvetica,SansSerif" font-size="11.4583" lengthAdjust="spacing" textLength="116.6667" x="313.5417" y="307.4402">Polyline get(Indexed)</text><ellipse cx="302.0833" cy="320.2738" fill="#84BE84" rx="3.125" ry="3.125" style="stroke:#038048;stroke-width:1.0416666666666667;"/><text fill="#D8BC00" font-family="Open Sans,Avenir,Nunito,Arial,Helvetica,SansSerif" font-size="11.4583" lengthAdjust="spacing" textLength="145.8333" x="313.5417" y="327.1851">void set(Indexed, Polyline)</text><ellipse cx="302.0833" cy="340.0187" fill="#84BE84" rx="3.125" ry="3.125" style="stroke:#038048;stroke-width:1.0416666666666667;"/><text fill="#D8BC00" font-family="Open Sans,Avenir,Nunito,Arial,Helvetica,SansSerif" font-size="11.4583" lengthAdjust="spacing" textLength="216.6667" x="313.5417" y="346.9299">void set(Indexed, CompressedPolyline)</text><ellipse cx="302.0833" cy="383.6751" fill="#84BE84" rx="3.125" ry="3.125" style="stroke:#038048;stroke-width:1.0416666666666667;"/><text fill="#D8BC00" font-family="Open Sans,Avenir,Nunito,Arial,Helvetica,SansSerif" font-size="11.4583" lengthAdjust="spacing" textLength="47.9167" x="313.5417" y="390.5863">int size()</text><line style="stroke:#5E5E5E;stroke-width:1.0416666666666667;" x1="291.6667" x2="454.6875" y1="366.511" y2="366.511"/><text fill="#D8BC00" font-family="Open Sans,Avenir,Nunito,Arial,Helvetica,SansSerif" font-size="11.4583" lengthAdjust="spacing" textLength="62.5" x="457.8125" y="370.3206">(collection)</text><line style="stroke:#5E5E5E;stroke-width:1.0416666666666667;" x1="523.4375" x2="686.4583" y1="366.511" y2="366.511"/><path codeLine="13" d="M67.3333,120.6715 C73.1458,133.5882 79.8438,148.484 86.7917,163.9007 " fill="none" id="Named-backto-PolylineStore" style="stroke:#545454;stroke-width:1.5625;"/><polygon fill="none" points="60.6771,123.6611,58.7708,101.6715,73.9792,117.6715,60.6771,123.6611" style="stroke:#545454;stroke-width:1.5625;"/><path codeLine="14" d="M205.25,121.1403 C200.0729,133.9424 194.125,148.6715 187.9688,163.9007 " fill="none" id="CompressibleCollection-backto-PolylineStore" style="stroke:#545454;stroke-width:1.5625;"/><polygon fill="none" points="198.5521,118.2549,213.1146,101.6715,212.0729,123.7132,198.5521,118.2549" style="stroke:#545454;stroke-width:1.5625;"/><path codeLine="29" d="M692.8542,114.9528 C674.9688,129.6403 653.2292,147.4945 630.6979,166.0049 " fill="none" id="KryoSerializable-backto-SplitPolylineStore" style="stroke:#545454;stroke-width:1.5625;"/><polygon fill="none" points="688.2917,109.2549,709.0208,101.6715,697.5521,120.5257,688.2917,109.2549" style="stroke:#545454;stroke-width:1.5625;"/><path codeLine="30" d="M550.875,121.2236 C545.7708,134.5257 539.875,149.9007 533.7813,165.7653 " fill="none" id="NamedObject-backto-SplitPolylineStore" style="stroke:#545454;stroke-width:1.5625;"/><polygon fill="none" points="544.1042,118.5049,558.375,101.6715,557.7188,123.734,544.1042,118.5049" style="stroke:#545454;stroke-width:1.5625;"/><path codeLine="31" d="M428.0729,121.2236 C433.1146,134.5257 438.9271,149.9007 444.9375,165.7653 " fill="none" id="Initializable-backto-SplitPolylineStore" style="stroke:#545454;stroke-width:1.5625;"/><polygon fill="none" points="421.2292,123.734,420.6667,101.6715,434.8646,118.5674,421.2292,123.734" style="stroke:#545454;stroke-width:1.5625;"/><path codeLine="32" d="M269.2604,114.4945 C288.6146,129.2653 312.2292,147.307 336.7083,166.0049 " fill="none" id="CompressibleCollection-backto-SplitPolylineStore" style="stroke:#545454;stroke-width:1.5625;"/><polygon fill="none" points="264.6042,120.109,252.4688,101.6715,273.4479,108.5153,264.6042,120.109" style="stroke:#545454;stroke-width:1.5625;"/></g></svg>
