<?xml version="1.0" encoding="UTF-8" standalone="no"?><svg xmlns="http://www.w3.org/2000/svg" xmlns:xlink="http://www.w3.org/1999/xlink" contentScriptType="application/ecmascript" contentStyleType="text/css" height="409.375px" preserveAspectRatio="none" style="width:657px;height:409px;background:#333333;" version="1.1" viewBox="0 0 657 409" width="657.2917px" zoomAndPan="magnify"><defs/><g><rect fill="#48494B" height="41.2028" rx="8.3333" ry="8.3333" style="stroke:#545454;stroke-width:1.0416666666666667;" width="644.7917" x="2.0833" y="2.0833"/><text fill="#C0C0C0" font-family="Open Sans,Avenir,Nunito,Arial,Helvetica,SansSerif" font-size="20.8333" lengthAdjust="spacing" textLength="621.875" x="13.5417" y="30.5583">com.telenav.mesakit.graph.specifications.common.place.store</text><rect fill="#282828" height="48.055" id="ArchivedGraphElementStore" rx="8.3333" ry="8.3333" style="stroke:#5E5E5E;stroke-width:1.0416666666666667;" width="217.7083" x="222.9167" y="53.7028"/><rect fill="#1B1B1A" height="31.3883" rx="8.3333" ry="8.3333" style="stroke:#1B1B1A;stroke-width:1.0416666666666667;" width="217.7083" x="222.9167" y="53.7028"/><rect fill="#1B1B1A" height="8.3333" style="stroke:#1B1B1A;stroke-width:1.0416666666666667;" width="217.7083" x="222.9167" y="76.7578"/><rect fill="none" height="48.055" id="ArchivedGraphElementStore" rx="8.3333" ry="8.3333" style="stroke:#5E5E5E;stroke-width:1.0416666666666667;" width="217.7083" x="222.9167" y="53.7028"/><ellipse cx="237.5" cy="69.397" fill="#0066CF" rx="10.4167" ry="10.4167" style="stroke:#0086EF;stroke-width:1.0416666666666667;"/><path d="M239.4104,73.822 Q238.9832,74.0417 238.5132,74.1516 Q238.0432,74.2615 237.5244,74.2615 Q235.6812,74.2615 234.7107,73.0469 Q233.7402,71.8323 233.7402,69.5374 Q233.7402,67.2363 234.7107,66.0217 Q235.6812,64.8071 237.5244,64.8071 Q238.0432,64.8071 238.5193,64.917 Q238.9954,65.0269 239.4104,65.2466 L239.4104,67.2485 Q238.9465,66.8213 238.5101,66.6229 Q238.0737,66.4246 237.6099,66.4246 Q236.6211,66.4246 236.1176,67.2089 Q235.614,67.9932 235.614,69.5374 Q235.614,71.0754 236.1176,71.8597 Q236.6211,72.644 237.6099,72.644 Q238.0737,72.644 238.5101,72.4457 Q238.9465,72.2473 239.4104,71.8201 Z " fill="#000000"/><text fill="#D8BC00" font-family="Open Sans,Avenir,Nunito,Arial,Helvetica,SansSerif" font-size="12.5" font-weight="bold" lengthAdjust="spacing" textLength="180.2083" x="254.1667" y="74.1211">ArchivedGraphElementStore</text><line style="stroke:#5E5E5E;stroke-width:1.0416666666666667;" x1="223.9583" x2="439.5833" y1="85.0911" y2="85.0911"/><line style="stroke:#5E5E5E;stroke-width:1.0416666666666667;" x1="223.9583" x2="439.5833" y1="93.4245" y2="93.4245"/><rect codeLine="8" fill="#282828" height="238.2589" id="PlaceStore" rx="8.3333" ry="8.3333" style="stroke:#5E5E5E;stroke-width:1.0416666666666667;" width="281.25" x="191.1458" y="164.1195"/><rect fill="#1B1B1A" height="31.3883" rx="8.3333" ry="8.3333" style="stroke:#1B1B1A;stroke-width:1.0416666666666667;" width="281.25" x="191.1458" y="164.1195"/><rect fill="#1B1B1A" height="8.3333" style="stroke:#1B1B1A;stroke-width:1.0416666666666667;" width="281.25" x="191.1458" y="187.1745"/><rect codeLine="8" fill="none" height="238.2589" id="PlaceStore" rx="8.3333" ry="8.3333" style="stroke:#5E5E5E;stroke-width:1.0416666666666667;" width="281.25" x="191.1458" y="164.1195"/><ellipse cx="291.6667" cy="179.8136" fill="#0066CF" rx="10.4167" ry="10.4167" style="stroke:#0086EF;stroke-width:1.0416666666666667;"/><path d="M293.5771,184.2387 Q293.1498,184.4584 292.6799,184.5683 Q292.2099,184.6781 291.6911,184.6781 Q289.8478,184.6781 288.8774,183.4635 Q287.9069,182.2489 287.9069,179.954 Q287.9069,177.653 288.8774,176.4384 Q289.8478,175.2238 291.6911,175.2238 Q292.2099,175.2238 292.686,175.3337 Q293.162,175.4435 293.5771,175.6632 L293.5771,177.6652 Q293.1132,177.238 292.6768,177.0396 Q292.2404,176.8412 291.7765,176.8412 Q290.7878,176.8412 290.2842,177.6255 Q289.7807,178.4098 289.7807,179.954 Q289.7807,181.4921 290.2842,182.2764 Q290.7878,183.0607 291.7765,183.0607 Q292.2404,183.0607 292.6768,182.8623 Q293.1132,182.664 293.5771,182.2367 Z " fill="#000000"/><text fill="#D8BC00" font-family="Open Sans,Avenir,Nunito,Arial,Helvetica,SansSerif" font-size="12.5" font-weight="bold" lengthAdjust="spacing" textLength="65.625" x="314.5833" y="184.5378">PlaceStore</text><line style="stroke:#5E5E5E;stroke-width:1.5625;" x1="192.1875" x2="471.3542" y1="195.5078" y2="195.5078"/><ellipse cx="202.6042" cy="230.8777" fill="#84BE84" rx="3.125" ry="3.125" style="stroke:#038048;stroke-width:1.0416666666666667;"/><text fill="#D8BC00" font-family="Open Sans,Avenir,Nunito,Arial,Helvetica,SansSerif" font-size="11.4583" lengthAdjust="spacing" textLength="100" x="214.0625" y="237.7889">PlaceStore(Graph)</text><line style="stroke:#5E5E5E;stroke-width:1.0416666666666667;" x1="192.1875" x2="288.0208" y1="213.7136" y2="213.7136"/><text fill="#D8BC00" font-family="Open Sans,Avenir,Nunito,Arial,Helvetica,SansSerif" font-size="11.4583" lengthAdjust="spacing" textLength="81.25" x="291.1458" y="217.5232">(constructors)</text><line style="stroke:#5E5E5E;stroke-width:1.0416666666666667;" x1="375.5208" x2="471.3542" y1="213.7136" y2="213.7136"/><line style="stroke:#5E5E5E;stroke-width:1.0416666666666667;" x1="192.1875" x2="471.3542" y1="247.4976" y2="247.4976"/><ellipse cx="202.6042" cy="258.9559" fill="#84BE84" rx="3.125" ry="3.125" style="stroke:#038048;stroke-width:1.0416666666666667;"/><text fill="#D8BC00" font-family="Open Sans,Avenir,Nunito,Arial,Helvetica,SansSerif" font-size="11.4583" lengthAdjust="spacing" textLength="178.125" x="214.0625" y="265.8671">Location retrieveLocation(Place)</text><ellipse cx="202.6042" cy="278.7008" fill="#84BE84" rx="3.125" ry="3.125" style="stroke:#038048;stroke-width:1.0416666666666667;"/><text fill="#D8BC00" font-family="Open Sans,Avenir,Nunito,Arial,Helvetica,SansSerif" font-size="11.4583" lengthAdjust="spacing" textLength="167.7083" x="214.0625" y="285.612">Place.Type retrieveType(Place)</text><ellipse cx="202.6042" cy="322.3572" fill="#84BE84" rx="3.125" ry="3.125" style="stroke:#038048;stroke-width:1.0416666666666667;"/><text fill="#D8BC00" font-family="Open Sans,Avenir,Nunito,Arial,Helvetica,SansSerif" font-size="11.4583" lengthAdjust="spacing" textLength="176.0417" x="214.0625" y="329.2684">Count retrievePopulation(Place)</text><ellipse cx="202.6042" cy="342.1021" fill="#84BE84" rx="3.125" ry="3.125" style="stroke:#038048;stroke-width:1.0416666666666667;"/><text fill="#D8BC00" font-family="Open Sans,Avenir,Nunito,Arial,Helvetica,SansSerif" font-size="11.4583" lengthAdjust="spacing" textLength="248.9583" x="214.0625" y="349.0133">QuadTreeSpatialIndex&lt;Place&gt; spatialIndex()</text><line style="stroke:#5E5E5E;stroke-width:1.0416666666666667;" x1="192.1875" x2="297.3958" y1="305.1931" y2="305.1931"/><text fill="#D8BC00" font-family="Open Sans,Avenir,Nunito,Arial,Helvetica,SansSerif" font-size="11.4583" lengthAdjust="spacing" textLength="62.5" x="300.5208" y="309.0027">(collection)</text><line style="stroke:#5E5E5E;stroke-width:1.0416666666666667;" x1="366.1458" x2="471.3542" y1="305.1931" y2="305.1931"/><ellipse cx="202.6042" cy="385.7585" fill="#84BE84" rx="3.125" ry="3.125" style="stroke:#038048;stroke-width:1.0416666666666667;"/><text fill="#D8BC00" font-family="Open Sans,Avenir,Nunito,Arial,Helvetica,SansSerif" font-size="11.4583" lengthAdjust="spacing" textLength="146.875" x="214.0625" y="392.6697">String retrieveName(Place)</text><line style="stroke:#5E5E5E;stroke-width:1.0416666666666667;" x1="192.1875" x2="303.6458" y1="368.5944" y2="368.5944"/><text fill="#D8BC00" font-family="Open Sans,Avenir,Nunito,Arial,Helvetica,SansSerif" font-size="11.4583" lengthAdjust="spacing" textLength="50" x="306.7708" y="372.404">(naming)</text><line style="stroke:#5E5E5E;stroke-width:1.0416666666666667;" x1="359.8958" x2="471.3542" y1="368.5944" y2="368.5944"/><path codeLine="7" d="M331.7708,122.557 C331.7708,135.0257 331.7708,149.2236 331.7708,163.9007 " fill="none" id="ArchivedGraphElementStore-backto-PlaceStore" style="stroke:#545454;stroke-width:1.5625;"/><polygon fill="none" points="324.4792,122.5049,331.7708,101.6715,339.0625,122.5049,324.4792,122.5049" style="stroke:#545454;stroke-width:1.5625;"/></g></svg>
