<?xml version="1.0" encoding="UTF-8" standalone="no"?><svg xmlns="http://www.w3.org/2000/svg" xmlns:xlink="http://www.w3.org/1999/xlink" contentScriptType="application/ecmascript" contentStyleType="text/css" height="238.5417px" preserveAspectRatio="none" style="width:550px;height:238px;background:#333333;" version="1.1" viewBox="0 0 550 238" width="550px" zoomAndPan="magnify"><defs/><g><rect fill="#48494B" height="41.2028" rx="8.3333" ry="8.3333" style="stroke:#545454;stroke-width:1.0416666666666667;" width="537.5" x="2.0833" y="2.0833"/><text fill="#C0C0C0" font-family="Open Sans,Avenir,Nunito,Arial,Helvetica,SansSerif" font-size="20.8333" lengthAdjust="spacing" textLength="514.5833" x="13.5417" y="30.5583">com.telenav.mesakit.tools.applications.pbf.dumper</text><rect fill="#282828" height="48.055" id="Application" rx="8.3333" ry="8.3333" style="stroke:#5E5E5E;stroke-width:1.0416666666666667;" width="111.4583" x="222.3958" y="53.7028"/><rect fill="#1B1B1A" height="31.3883" rx="8.3333" ry="8.3333" style="stroke:#1B1B1A;stroke-width:1.0416666666666667;" width="111.4583" x="222.3958" y="53.7028"/><rect fill="#1B1B1A" height="8.3333" style="stroke:#1B1B1A;stroke-width:1.0416666666666667;" width="111.4583" x="222.3958" y="76.7578"/><rect fill="none" height="48.055" id="Application" rx="8.3333" ry="8.3333" style="stroke:#5E5E5E;stroke-width:1.0416666666666667;" width="111.4583" x="222.3958" y="53.7028"/><ellipse cx="236.9792" cy="69.397" fill="#0066CF" rx="10.4167" ry="10.4167" style="stroke:#0086EF;stroke-width:1.0416666666666667;"/><path d="M238.8896,73.822 Q238.4623,74.0417 237.9924,74.1516 Q237.5224,74.2615 237.0036,74.2615 Q235.1603,74.2615 234.1899,73.0469 Q233.2194,71.8323 233.2194,69.5374 Q233.2194,67.2363 234.1899,66.0217 Q235.1603,64.8071 237.0036,64.8071 Q237.5224,64.8071 237.9985,64.917 Q238.4745,65.0269 238.8896,65.2466 L238.8896,67.2485 Q238.4257,66.8213 237.9893,66.6229 Q237.5529,66.4246 237.089,66.4246 Q236.1003,66.4246 235.5967,67.2089 Q235.0932,67.9932 235.0932,69.5374 Q235.0932,71.0754 235.5967,71.8597 Q236.1003,72.644 237.089,72.644 Q237.5529,72.644 237.9893,72.4457 Q238.4257,72.2473 238.8896,71.8201 Z " fill="#000000"/><text fill="#D8BC00" font-family="Open Sans,Avenir,Nunito,Arial,Helvetica,SansSerif" font-size="12.5" font-weight="bold" lengthAdjust="spacing" textLength="73.9583" x="253.6458" y="74.1211">Application</text><line style="stroke:#5E5E5E;stroke-width:1.0416666666666667;" x1="223.4375" x2="332.8125" y1="85.0911" y2="85.0911"/><line style="stroke:#5E5E5E;stroke-width:1.0416666666666667;" x1="223.4375" x2="332.8125" y1="93.4245" y2="93.4245"/><rect codeLine="8" fill="#282828" height="67.7999" id="PbfDumperApplication" rx="8.3333" ry="8.3333" style="stroke:#5E5E5E;stroke-width:1.0416666666666667;" width="200" x="178.125" y="164.1195"/><rect fill="#1B1B1A" height="31.3883" rx="8.3333" ry="8.3333" style="stroke:#1B1B1A;stroke-width:1.0416666666666667;" width="200" x="178.125" y="164.1195"/><rect fill="#1B1B1A" height="8.3333" style="stroke:#1B1B1A;stroke-width:1.0416666666666667;" width="200" x="178.125" y="187.1745"/><rect codeLine="8" fill="none" height="67.7999" id="PbfDumperApplication" rx="8.3333" ry="8.3333" style="stroke:#5E5E5E;stroke-width:1.0416666666666667;" width="200" x="178.125" y="164.1195"/><ellipse cx="199.7396" cy="179.8136" fill="#0066CF" rx="10.4167" ry="10.4167" style="stroke:#0086EF;stroke-width:1.0416666666666667;"/><path d="M201.65,184.2387 Q201.2227,184.4584 200.7528,184.5683 Q200.2828,184.6781 199.764,184.6781 Q197.9207,184.6781 196.9503,183.4635 Q195.9798,182.2489 195.9798,179.954 Q195.9798,177.653 196.9503,176.4384 Q197.9207,175.2238 199.764,175.2238 Q200.2828,175.2238 200.7589,175.3337 Q201.2349,175.4435 201.65,175.6632 L201.65,177.6652 Q201.1861,177.238 200.7497,177.0396 Q200.3133,176.8412 199.8494,176.8412 Q198.8607,176.8412 198.3571,177.6255 Q197.8536,178.4098 197.8536,179.954 Q197.8536,181.4921 198.3571,182.2764 Q198.8607,183.0607 199.8494,183.0607 Q200.3133,183.0607 200.7497,182.8623 Q201.1861,182.664 201.65,182.2367 Z " fill="#000000"/><text fill="#D8BC00" font-family="Open Sans,Avenir,Nunito,Arial,Helvetica,SansSerif" font-size="12.5" font-weight="bold" lengthAdjust="spacing" textLength="146.875" x="217.9688" y="184.5378">PbfDumperApplication</text><line style="stroke:#5E5E5E;stroke-width:1.5625;" x1="179.1667" x2="377.0833" y1="195.5078" y2="195.5078"/><line style="stroke:#5E5E5E;stroke-width:1.0416666666666667;" x1="179.1667" x2="377.0833" y1="203.8411" y2="203.8411"/><ellipse cx="189.5833" cy="215.2995" fill="#84BE84" rx="3.125" ry="3.125" style="stroke:#038048;stroke-width:1.0416666666666667;"/><text fill="#D8BC00" font-family="Open Sans,Avenir,Nunito,Arial,Helvetica,SansSerif" font-size="11.4583" lengthAdjust="spacing" textLength="167.7083" x="201.0417" y="222.2107">void main(String[] arguments)</text><path codeLine="7" d="M278.125,123.0674 C278.125,136.6715 278.125,151.3799 278.125,164.0674 " fill="none" id="Application-backto-PbfDumperApplication" style="stroke:#545454;stroke-width:1.5625;"/><polygon fill="none" points="270.8333,122.609,278.125,101.7757,285.4167,122.609,270.8333,122.609" style="stroke:#545454;stroke-width:1.5625;"/></g></svg>
