<?xml version="1.0" encoding="UTF-8" standalone="no"?><svg xmlns="http://www.w3.org/2000/svg" xmlns:xlink="http://www.w3.org/1999/xlink" contentScriptType="application/ecmascript" contentStyleType="text/css" height="282.2917px" preserveAspectRatio="none" style="width:587px;height:282px;background:#333333;" version="1.1" viewBox="0 0 587 282" width="587.5px" zoomAndPan="magnify"><defs/><g><rect fill="#48494B" height="41.2028" rx="8.3333" ry="8.3333" style="stroke:#545454;stroke-width:1.0416666666666667;" width="575" x="2.0833" y="2.0833"/><text fill="#C0C0C0" font-family="Open Sans,Avenir,Nunito,Arial,Helvetica,SansSerif" font-size="20.8333" lengthAdjust="spacing" textLength="552.0833" x="13.5417" y="30.5583">com.telenav.mesakit.tools.applications.graph.converter</text><rect fill="#282828" height="48.055" id="Application" rx="8.3333" ry="8.3333" style="stroke:#5E5E5E;stroke-width:1.0416666666666667;" width="111.4583" x="241.1458" y="53.7028"/><rect fill="#1B1B1A" height="31.3883" rx="8.3333" ry="8.3333" style="stroke:#1B1B1A;stroke-width:1.0416666666666667;" width="111.4583" x="241.1458" y="53.7028"/><rect fill="#1B1B1A" height="8.3333" style="stroke:#1B1B1A;stroke-width:1.0416666666666667;" width="111.4583" x="241.1458" y="76.7578"/><rect fill="none" height="48.055" id="Application" rx="8.3333" ry="8.3333" style="stroke:#5E5E5E;stroke-width:1.0416666666666667;" width="111.4583" x="241.1458" y="53.7028"/><ellipse cx="255.7292" cy="69.397" fill="#0066CF" rx="10.4167" ry="10.4167" style="stroke:#0086EF;stroke-width:1.0416666666666667;"/><path d="M257.6396,73.822 Q257.2123,74.0417 256.7424,74.1516 Q256.2724,74.2615 255.7536,74.2615 Q253.9103,74.2615 252.9399,73.0469 Q251.9694,71.8323 251.9694,69.5374 Q251.9694,67.2363 252.9399,66.0217 Q253.9103,64.8071 255.7536,64.8071 Q256.2724,64.8071 256.7485,64.917 Q257.2245,65.0269 257.6396,65.2466 L257.6396,67.2485 Q257.1757,66.8213 256.7393,66.6229 Q256.3029,66.4246 255.839,66.4246 Q254.8503,66.4246 254.3467,67.2089 Q253.8432,67.9932 253.8432,69.5374 Q253.8432,71.0754 254.3467,71.8597 Q254.8503,72.644 255.839,72.644 Q256.3029,72.644 256.7393,72.4457 Q257.1757,72.2473 257.6396,71.8201 Z " fill="#000000"/><text fill="#D8BC00" font-family="Open Sans,Avenir,Nunito,Arial,Helvetica,SansSerif" font-size="12.5" font-weight="bold" lengthAdjust="spacing" textLength="73.9583" x="272.3958" y="74.1211">Application</text><line style="stroke:#5E5E5E;stroke-width:1.0416666666666667;" x1="242.1875" x2="351.5625" y1="85.0911" y2="85.0911"/><line style="stroke:#5E5E5E;stroke-width:1.0416666666666667;" x1="242.1875" x2="351.5625" y1="93.4245" y2="93.4245"/><rect codeLine="8" fill="#282828" height="111.4563" id="GraphToPbfConverterApplication" rx="8.3333" ry="8.3333" style="stroke:#5E5E5E;stroke-width:1.0416666666666667;" width="251.0417" x="171.3542" y="164.1195"/><rect fill="#1B1B1A" height="31.3883" rx="8.3333" ry="8.3333" style="stroke:#1B1B1A;stroke-width:1.0416666666666667;" width="251.0417" x="171.3542" y="164.1195"/><rect fill="#1B1B1A" height="8.3333" style="stroke:#1B1B1A;stroke-width:1.0416666666666667;" width="251.0417" x="171.3542" y="187.1745"/><rect codeLine="8" fill="none" height="111.4563" id="GraphToPbfConverterApplication" rx="8.3333" ry="8.3333" style="stroke:#5E5E5E;stroke-width:1.0416666666666667;" width="251.0417" x="171.3542" y="164.1195"/><ellipse cx="185.9375" cy="179.8136" fill="#0066CF" rx="10.4167" ry="10.4167" style="stroke:#0086EF;stroke-width:1.0416666666666667;"/><path d="M187.8479,184.2387 Q187.4207,184.4584 186.9507,184.5683 Q186.4807,184.6781 185.9619,184.6781 Q184.1187,184.6781 183.1482,183.4635 Q182.1777,182.2489 182.1777,179.954 Q182.1777,177.653 183.1482,176.4384 Q184.1187,175.2238 185.9619,175.2238 Q186.4807,175.2238 186.9568,175.3337 Q187.4329,175.4435 187.8479,175.6632 L187.8479,177.6652 Q187.384,177.238 186.9476,177.0396 Q186.5112,176.8412 186.0474,176.8412 Q185.0586,176.8412 184.5551,177.6255 Q184.0515,178.4098 184.0515,179.954 Q184.0515,181.4921 184.5551,182.2764 Q185.0586,183.0607 186.0474,183.0607 Q186.5112,183.0607 186.9476,182.8623 Q187.384,182.664 187.8479,182.2367 Z " fill="#000000"/><text fill="#D8BC00" font-family="Open Sans,Avenir,Nunito,Arial,Helvetica,SansSerif" font-size="12.5" font-weight="bold" lengthAdjust="spacing" textLength="213.5417" x="202.6042" y="184.5378">GraphToPbfConverterApplication</text><line style="stroke:#5E5E5E;stroke-width:1.5625;" x1="172.3958" x2="421.3542" y1="195.5078" y2="195.5078"/><ellipse cx="182.8125" cy="230.8777" fill="#84BE84" rx="3.125" ry="3.125" style="stroke:#038048;stroke-width:1.0416666666666667;"/><text fill="#D8BC00" font-family="Open Sans,Avenir,Nunito,Arial,Helvetica,SansSerif" font-size="11.4583" lengthAdjust="spacing" textLength="194.7917" x="194.2708" y="237.7889">GraphToPbfConverterApplication()</text><line style="stroke:#5E5E5E;stroke-width:1.0416666666666667;" x1="172.3958" x2="253.125" y1="213.7136" y2="213.7136"/><text fill="#D8BC00" font-family="Open Sans,Avenir,Nunito,Arial,Helvetica,SansSerif" font-size="11.4583" lengthAdjust="spacing" textLength="81.25" x="256.25" y="217.5232">(constructors)</text><line style="stroke:#5E5E5E;stroke-width:1.0416666666666667;" x1="340.625" x2="421.3542" y1="213.7136" y2="213.7136"/><line style="stroke:#5E5E5E;stroke-width:1.0416666666666667;" x1="172.3958" x2="421.3542" y1="247.4976" y2="247.4976"/><ellipse cx="182.8125" cy="258.9559" fill="#84BE84" rx="3.125" ry="3.125" style="stroke:#038048;stroke-width:1.0416666666666667;"/><text fill="#D8BC00" font-family="Open Sans,Avenir,Nunito,Arial,Helvetica,SansSerif" font-size="11.4583" lengthAdjust="spacing" textLength="167.7083" x="194.2708" y="265.8671">void main(String[] arguments)</text><path codeLine="7" d="M296.875,122.7028 C296.875,135.7549 296.875,150.2028 296.875,163.859 " fill="none" id="Application-backto-GraphToPbfConverterApplication" style="stroke:#545454;stroke-width:1.5625;"/><polygon fill="none" points="289.5833,122.6715,296.875,101.8382,304.1667,122.6715,289.5833,122.6715" style="stroke:#545454;stroke-width:1.5625;"/></g></svg>
