<?xml version="1.0" encoding="UTF-8" standalone="no"?><svg xmlns="http://www.w3.org/2000/svg" xmlns:xlink="http://www.w3.org/1999/xlink" contentScriptType="application/ecmascript" contentStyleType="text/css" height="218.75px" preserveAspectRatio="none" style="width:416px;height:218px;background:#333333;" version="1.1" viewBox="0 0 416 218" width="416.6667px" zoomAndPan="magnify"><defs/><g><rect fill="#48494B" height="41.2028" rx="8.3333" ry="8.3333" style="stroke:#545454;stroke-width:1.0416666666666667;" width="404.1667" x="2.0833" y="2.0833"/><text fill="#C0C0C0" font-family="Open Sans,Avenir,Nunito,Arial,Helvetica,SansSerif" font-size="20.8333" lengthAdjust="spacing" textLength="381.25" x="13.5417" y="30.5583">com.telenav.mesakit.serialization.json</text><rect fill="#282828" height="48.055" id="Project" rx="8.3333" ry="8.3333" style="stroke:#5E5E5E;stroke-width:1.0416666666666667;" width="81.25" x="170.8333" y="53.7028"/><rect fill="#1B1B1A" height="31.3883" rx="8.3333" ry="8.3333" style="stroke:#1B1B1A;stroke-width:1.0416666666666667;" width="81.25" x="170.8333" y="53.7028"/><rect fill="#1B1B1A" height="8.3333" style="stroke:#1B1B1A;stroke-width:1.0416666666666667;" width="81.25" x="170.8333" y="76.7578"/><rect fill="none" height="48.055" id="Project" rx="8.3333" ry="8.3333" style="stroke:#5E5E5E;stroke-width:1.0416666666666667;" width="81.25" x="170.8333" y="53.7028"/><ellipse cx="185.4167" cy="69.397" fill="#0066CF" rx="10.4167" ry="10.4167" style="stroke:#0086EF;stroke-width:1.0416666666666667;"/><path d="M187.3271,73.822 Q186.8998,74.0417 186.4299,74.1516 Q185.9599,74.2615 185.4411,74.2615 Q183.5978,74.2615 182.6274,73.0469 Q181.6569,71.8323 181.6569,69.5374 Q181.6569,67.2363 182.6274,66.0217 Q183.5978,64.8071 185.4411,64.8071 Q185.9599,64.8071 186.436,64.917 Q186.912,65.0269 187.3271,65.2466 L187.3271,67.2485 Q186.8632,66.8213 186.4268,66.6229 Q185.9904,66.4246 185.5265,66.4246 Q184.5378,66.4246 184.0342,67.2089 Q183.5307,67.9932 183.5307,69.5374 Q183.5307,71.0754 184.0342,71.8597 Q184.5378,72.644 185.5265,72.644 Q185.9904,72.644 186.4268,72.4457 Q186.8632,72.2473 187.3271,71.8201 Z " fill="#000000"/><text fill="#D8BC00" font-family="Open Sans,Avenir,Nunito,Arial,Helvetica,SansSerif" font-size="12.5" font-weight="bold" lengthAdjust="spacing" textLength="43.75" x="202.0833" y="74.1211">Project</text><line style="stroke:#5E5E5E;stroke-width:1.0416666666666667;" x1="171.875" x2="251.0417" y1="85.0911" y2="85.0911"/><line style="stroke:#5E5E5E;stroke-width:1.0416666666666667;" x1="171.875" x2="251.0417" y1="93.4245" y2="93.4245"/><rect codeLine="8" fill="#282828" height="48.055" id="MesaKitGsonProject" rx="8.3333" ry="8.3333" style="stroke:#5E5E5E;stroke-width:1.0416666666666667;" width="166.6667" x="128.125" y="164.1195"/><rect fill="#1B1B1A" height="31.3883" rx="8.3333" ry="8.3333" style="stroke:#1B1B1A;stroke-width:1.0416666666666667;" width="166.6667" x="128.125" y="164.1195"/><rect fill="#1B1B1A" height="8.3333" style="stroke:#1B1B1A;stroke-width:1.0416666666666667;" width="166.6667" x="128.125" y="187.1745"/><rect codeLine="8" fill="none" height="48.055" id="MesaKitGsonProject" rx="8.3333" ry="8.3333" style="stroke:#5E5E5E;stroke-width:1.0416666666666667;" width="166.6667" x="128.125" y="164.1195"/><ellipse cx="142.7083" cy="179.8136" fill="#0066CF" rx="10.4167" ry="10.4167" style="stroke:#0086EF;stroke-width:1.0416666666666667;"/><path d="M144.6187,184.2387 Q144.1915,184.4584 143.7215,184.5683 Q143.2515,184.6781 142.7327,184.6781 Q140.8895,184.6781 139.919,183.4635 Q138.9486,182.2489 138.9486,179.954 Q138.9486,177.653 139.919,176.4384 Q140.8895,175.2238 142.7327,175.2238 Q143.2515,175.2238 143.7276,175.3337 Q144.2037,175.4435 144.6187,175.6632 L144.6187,177.6652 Q144.1549,177.238 143.7185,177.0396 Q143.2821,176.8412 142.8182,176.8412 Q141.8294,176.8412 141.3259,177.6255 Q140.8223,178.4098 140.8223,179.954 Q140.8223,181.4921 141.3259,182.2764 Q141.8294,183.0607 142.8182,183.0607 Q143.2821,183.0607 143.7185,182.8623 Q144.1549,182.664 144.6187,182.2367 Z " fill="#000000"/><text fill="#D8BC00" font-family="Open Sans,Avenir,Nunito,Arial,Helvetica,SansSerif" font-size="12.5" font-weight="bold" lengthAdjust="spacing" textLength="129.1667" x="159.375" y="184.5378">MesaKitGsonProject</text><line style="stroke:#5E5E5E;stroke-width:1.0416666666666667;" x1="129.1667" x2="293.75" y1="195.5078" y2="195.5078"/><line style="stroke:#5E5E5E;stroke-width:1.0416666666666667;" x1="129.1667" x2="293.75" y1="203.8411" y2="203.8411"/><path codeLine="7" d="M211.4583,122.6195 C211.4583,136.8382 211.4583,152.0361 211.4583,164.0986 " fill="none" id="Project-backto-MesaKitGsonProject" style="stroke:#545454;stroke-width:1.5625;"/><polygon fill="none" points="204.1667,122.5153,211.4583,101.682,218.75,122.5153,204.1667,122.5153" style="stroke:#545454;stroke-width:1.5625;"/></g></svg>
