<?xml version="1.0" encoding="UTF-8" standalone="no"?><svg xmlns="http://www.w3.org/2000/svg" xmlns:xlink="http://www.w3.org/1999/xlink" contentScriptType="application/ecmascript" contentStyleType="text/css" height="254.1667px" preserveAspectRatio="none" style="width:673px;height:254px;background:#333333;" version="1.1" viewBox="0 0 673 254" width="673.9583px" zoomAndPan="magnify"><defs/><g><rect fill="#48494B" height="41.2028" rx="8.3333" ry="8.3333" style="stroke:#545454;stroke-width:1.0416666666666667;" width="661.4583" x="2.0833" y="2.0833"/><text fill="#C0C0C0" font-family="Open Sans,Avenir,Nunito,Arial,Helvetica,SansSerif" font-size="20.8333" lengthAdjust="spacing" textLength="638.5417" x="13.5417" y="30.5583">com.telenav.mesakit.map.data.formats.pbf.processing.filters.all</text><!--MD5=[7641309704a2ba86945d63525f0a850a]
class RelationFilter--><rect fill="#282828" height="48.055" id="RelationFilter" rx="8.3333" ry="8.3333" style="stroke:#5E5E5E;stroke-width:1.0416666666666667;" width="123.9583" x="198.9583" y="53.7028"/><rect fill="#1B1B1A" height="31.3883" rx="8.3333" ry="8.3333" style="stroke:#1B1B1A;stroke-width:1.0416666666666667;" width="123.9583" x="198.9583" y="53.7028"/><rect fill="#1B1B1A" height="8.3333" style="stroke:#1B1B1A;stroke-width:1.0416666666666667;" width="123.9583" x="198.9583" y="76.7578"/><rect fill="none" height="48.055" id="RelationFilter" rx="8.3333" ry="8.3333" style="stroke:#5E5E5E;stroke-width:1.0416666666666667;" width="123.9583" x="198.9583" y="53.7028"/><ellipse cx="213.5417" cy="69.397" fill="#0066CF" rx="10.4167" ry="10.4167" style="stroke:#0086EF;stroke-width:1.0416666666666667;"/><path d="M215.4521,73.822 Q215.0248,74.0417 214.5549,74.1516 Q214.0849,74.2615 213.5661,74.2615 Q211.7228,74.2615 210.7524,73.0469 Q209.7819,71.8323 209.7819,69.5374 Q209.7819,67.2363 210.7524,66.0217 Q211.7228,64.8071 213.5661,64.8071 Q214.0849,64.8071 214.561,64.917 Q215.037,65.0269 215.4521,65.2466 L215.4521,67.2485 Q214.9882,66.8213 214.5518,66.6229 Q214.1154,66.4246 213.6515,66.4246 Q212.6628,66.4246 212.1592,67.2089 Q211.6557,67.9932 211.6557,69.5374 Q211.6557,71.0754 212.1592,71.8597 Q212.6628,72.644 213.6515,72.644 Q214.1154,72.644 214.5518,72.4457 Q214.9882,72.2473 215.4521,71.8201 Z " fill="#000000"/><text fill="#D8BC00" font-family="Open Sans,Avenir,Nunito,Arial,Helvetica,SansSerif" font-size="12.5" font-weight="bold" lengthAdjust="spacing" textLength="86.4583" x="230.2083" y="74.1211">RelationFilter</text><line style="stroke:#5E5E5E;stroke-width:1.0416666666666667;" x1="200" x2="321.875" y1="85.0911" y2="85.0911"/><line style="stroke:#5E5E5E;stroke-width:1.0416666666666667;" x1="200" x2="321.875" y1="93.4245" y2="93.4245"/><!--MD5=[8beb7aad4a997af9d94e3de7f2987e64]
class AllRelationsFilter--><rect codeLine="8" fill="#282828" height="83.3781" id="AllRelationsFilter" rx="8.3333" ry="8.3333" style="stroke:#5E5E5E;stroke-width:1.0416666666666667;" width="148.9583" x="186.4583" y="164.1195"/><rect fill="#1B1B1A" height="31.3883" rx="8.3333" ry="8.3333" style="stroke:#1B1B1A;stroke-width:1.0416666666666667;" width="148.9583" x="186.4583" y="164.1195"/><rect fill="#1B1B1A" height="8.3333" style="stroke:#1B1B1A;stroke-width:1.0416666666666667;" width="148.9583" x="186.4583" y="187.1745"/><rect codeLine="8" fill="none" height="83.3781" id="AllRelationsFilter" rx="8.3333" ry="8.3333" style="stroke:#5E5E5E;stroke-width:1.0416666666666667;" width="148.9583" x="186.4583" y="164.1195"/><ellipse cx="201.0417" cy="179.8136" fill="#0066CF" rx="10.4167" ry="10.4167" style="stroke:#0086EF;stroke-width:1.0416666666666667;"/><path d="M202.9521,184.2387 Q202.5248,184.4584 202.0549,184.5683 Q201.5849,184.6781 201.0661,184.6781 Q199.2228,184.6781 198.2524,183.4635 Q197.2819,182.2489 197.2819,179.954 Q197.2819,177.653 198.2524,176.4384 Q199.2228,175.2238 201.0661,175.2238 Q201.5849,175.2238 202.061,175.3337 Q202.537,175.4435 202.9521,175.6632 L202.9521,177.6652 Q202.4882,177.238 202.0518,177.0396 Q201.6154,176.8412 201.1515,176.8412 Q200.1628,176.8412 199.6592,177.6255 Q199.1557,178.4098 199.1557,179.954 Q199.1557,181.4921 199.6592,182.2764 Q200.1628,183.0607 201.1515,183.0607 Q201.6154,183.0607 202.0518,182.8623 Q202.4882,182.664 202.9521,182.2367 Z " fill="#000000"/><text fill="#D8BC00" font-family="Open Sans,Avenir,Nunito,Arial,Helvetica,SansSerif" font-size="12.5" font-weight="bold" lengthAdjust="spacing" textLength="111.4583" x="217.7083" y="184.5378">AllRelationsFilter</text><line style="stroke:#5E5E5E;stroke-width:1.5625;" x1="187.5" x2="334.375" y1="195.5078" y2="195.5078"/><ellipse cx="197.9167" cy="230.8777" fill="#84BE84" rx="3.125" ry="3.125" style="stroke:#038048;stroke-width:1.0416666666666667;"/><text fill="#D8BC00" font-family="Open Sans,Avenir,Nunito,Arial,Helvetica,SansSerif" font-size="11.4583" lengthAdjust="spacing" textLength="102.0833" x="209.375" y="237.7889">AllRelationsFilter()</text><line style="stroke:#5E5E5E;stroke-width:1.0416666666666667;" x1="187.5" x2="217.1875" y1="213.7136" y2="213.7136"/><text fill="#D8BC00" font-family="Open Sans,Avenir,Nunito,Arial,Helvetica,SansSerif" font-size="11.4583" lengthAdjust="spacing" textLength="81.25" x="220.3125" y="217.5232">(constructors)</text><line style="stroke:#5E5E5E;stroke-width:1.0416666666666667;" x1="304.6875" x2="334.375" y1="213.7136" y2="213.7136"/><!--MD5=[296971189912b7d7a3ae0a5bad58974f]
class WayFilter--><rect fill="#282828" height="48.055" id="WayFilter" rx="8.3333" ry="8.3333" style="stroke:#5E5E5E;stroke-width:1.0416666666666667;" width="96.875" x="384.375" y="53.7028"/><rect fill="#1B1B1A" height="31.3883" rx="8.3333" ry="8.3333" style="stroke:#1B1B1A;stroke-width:1.0416666666666667;" width="96.875" x="384.375" y="53.7028"/><rect fill="#1B1B1A" height="8.3333" style="stroke:#1B1B1A;stroke-width:1.0416666666666667;" width="96.875" x="384.375" y="76.7578"/><rect fill="none" height="48.055" id="WayFilter" rx="8.3333" ry="8.3333" style="stroke:#5E5E5E;stroke-width:1.0416666666666667;" width="96.875" x="384.375" y="53.7028"/><ellipse cx="398.9583" cy="69.397" fill="#0066CF" rx="10.4167" ry="10.4167" style="stroke:#0086EF;stroke-width:1.0416666666666667;"/><path d="M400.8687,73.822 Q400.4415,74.0417 399.9715,74.1516 Q399.5015,74.2615 398.9827,74.2615 Q397.1395,74.2615 396.169,73.0469 Q395.1986,71.8323 395.1986,69.5374 Q395.1986,67.2363 396.169,66.0217 Q397.1395,64.8071 398.9827,64.8071 Q399.5015,64.8071 399.9776,64.917 Q400.4537,65.0269 400.8687,65.2466 L400.8687,67.2485 Q400.4049,66.8213 399.9685,66.6229 Q399.5321,66.4246 399.0682,66.4246 Q398.0794,66.4246 397.5759,67.2089 Q397.0723,67.9932 397.0723,69.5374 Q397.0723,71.0754 397.5759,71.8597 Q398.0794,72.644 399.0682,72.644 Q399.5321,72.644 399.9685,72.4457 Q400.4049,72.2473 400.8687,71.8201 Z " fill="#000000"/><text fill="#D8BC00" font-family="Open Sans,Avenir,Nunito,Arial,Helvetica,SansSerif" font-size="12.5" font-weight="bold" lengthAdjust="spacing" textLength="59.375" x="415.625" y="74.1211">WayFilter</text><line style="stroke:#5E5E5E;stroke-width:1.0416666666666667;" x1="385.4167" x2="480.2083" y1="85.0911" y2="85.0911"/><line style="stroke:#5E5E5E;stroke-width:1.0416666666666667;" x1="385.4167" x2="480.2083" y1="93.4245" y2="93.4245"/><!--MD5=[6d6878300d5a82e08c22ccf72642d53d]
class AllWaysFilter--><rect codeLine="15" fill="#282828" height="83.3781" id="AllWaysFilter" rx="8.3333" ry="8.3333" style="stroke:#5E5E5E;stroke-width:1.0416666666666667;" width="121.875" x="371.875" y="164.1195"/><rect fill="#1B1B1A" height="31.3883" rx="8.3333" ry="8.3333" style="stroke:#1B1B1A;stroke-width:1.0416666666666667;" width="121.875" x="371.875" y="164.1195"/><rect fill="#1B1B1A" height="8.3333" style="stroke:#1B1B1A;stroke-width:1.0416666666666667;" width="121.875" x="371.875" y="187.1745"/><rect codeLine="15" fill="none" height="83.3781" id="AllWaysFilter" rx="8.3333" ry="8.3333" style="stroke:#5E5E5E;stroke-width:1.0416666666666667;" width="121.875" x="371.875" y="164.1195"/><ellipse cx="386.4583" cy="179.8136" fill="#0066CF" rx="10.4167" ry="10.4167" style="stroke:#0086EF;stroke-width:1.0416666666666667;"/><path d="M388.3687,184.2387 Q387.9415,184.4584 387.4715,184.5683 Q387.0015,184.6781 386.4827,184.6781 Q384.6395,184.6781 383.669,183.4635 Q382.6986,182.2489 382.6986,179.954 Q382.6986,177.653 383.669,176.4384 Q384.6395,175.2238 386.4827,175.2238 Q387.0015,175.2238 387.4776,175.3337 Q387.9537,175.4435 388.3687,175.6632 L388.3687,177.6652 Q387.9049,177.238 387.4685,177.0396 Q387.0321,176.8412 386.5682,176.8412 Q385.5794,176.8412 385.0759,177.6255 Q384.5723,178.4098 384.5723,179.954 Q384.5723,181.4921 385.0759,182.2764 Q385.5794,183.0607 386.5682,183.0607 Q387.0321,183.0607 387.4685,182.8623 Q387.9049,182.664 388.3687,182.2367 Z " fill="#000000"/><text fill="#D8BC00" font-family="Open Sans,Avenir,Nunito,Arial,Helvetica,SansSerif" font-size="12.5" font-weight="bold" lengthAdjust="spacing" textLength="84.375" x="403.125" y="184.5378">AllWaysFilter</text><line style="stroke:#5E5E5E;stroke-width:1.5625;" x1="372.9167" x2="492.7083" y1="195.5078" y2="195.5078"/><ellipse cx="383.3333" cy="230.8777" fill="#84BE84" rx="3.125" ry="3.125" style="stroke:#038048;stroke-width:1.0416666666666667;"/><text fill="#D8BC00" font-family="Open Sans,Avenir,Nunito,Arial,Helvetica,SansSerif" font-size="11.4583" lengthAdjust="spacing" textLength="79.1667" x="394.7917" y="237.7889">AllWaysFilter()</text><line style="stroke:#5E5E5E;stroke-width:1.0416666666666667;" x1="372.9167" x2="389.0625" y1="213.7136" y2="213.7136"/><text fill="#D8BC00" font-family="Open Sans,Avenir,Nunito,Arial,Helvetica,SansSerif" font-size="11.4583" lengthAdjust="spacing" textLength="81.25" x="392.1875" y="217.5232">(constructors)</text><line style="stroke:#5E5E5E;stroke-width:1.0416666666666667;" x1="476.5625" x2="492.7083" y1="213.7136" y2="213.7136"/><!--MD5=[6777c8123c0f4af4b621dc1d1adbb7f2]
reverse link RelationFilter to AllRelationsFilter--><path codeLine="7" d="M260.9375,122.682 C260.9375,136.0778 260.9375,150.7445 260.9375,163.9215 " fill="none" id="RelationFilter-backto-AllRelationsFilter" style="stroke:#545454;stroke-width:1.5625;"/><polygon fill="none" points="253.6458,122.6507,260.9375,101.8174,268.2292,122.6507,253.6458,122.6507" style="stroke:#545454;stroke-width:1.5625;"/><!--MD5=[c65d9427bab230bb0b73ed8aaccdc7dc]
reverse link WayFilter to AllWaysFilter--><path codeLine="14" d="M432.8125,122.682 C432.8125,136.0778 432.8125,150.7445 432.8125,163.9215 " fill="none" id="WayFilter-backto-AllWaysFilter" style="stroke:#545454;stroke-width:1.5625;"/><polygon fill="none" points="425.5208,122.6507,432.8125,101.8174,440.1042,122.6507,425.5208,122.6507" style="stroke:#545454;stroke-width:1.5625;"/><!--MD5=[86d73e82736a75a6108c6fff4cfab937]
@startuml

    !include lexakai.theme
    
    title "com.telenav.mesakit.map.data.formats.pbf.processing.filters.all"
    
    RelationFilter <|- - AllRelationsFilter
    class AllRelationsFilter
    {
        - -(constructors)- -
        +AllRelationsFilter()
    }
    
    WayFilter <|- - AllWaysFilter
    class AllWaysFilter
    {
        - -(constructors)- -
        +AllWaysFilter()
    }
    
@enduml

@startuml









skinparam backgroundColor #333333






skinparam  {
    defaultFontName   "Open Sans,Avenir,Nunito,Arial,Helvetica,SansSerif"
    defaultFontSize   12
    defaultTextAlignment left
    shadowing false
    RoundCorner 10
    TitleFontSize 18
}

skinparam defaultFontName       "Open Sans,Avenir,Nunito,Arial,Helvetica,SansSerif"
skinparam defaultFontSize       12
skinparam dpi                   100
skinparam shadowing             false
skinparam roundcorner           16
skinparam ParticipantPadding    40
skinparam BoxPadding            40
skinparam Padding               3
skinparam ArrowColor            #545454
skinparam stereotype {
    CBackgroundColor #0066cf
    CBorderColor #0086ef
    ABackgroundColor #C8Ac00
    ABorderColor #D8Bc00
    IBackgroundColor #008400
    IBorderColor #239c23
    EBackgroundColor #cf6300
    EBorderColor #ef8300
    NBackgroundColor #3380b9
    NBorderColor #004d86
}
skinparam title {
	FontColor	                 #c0c0c0
 	BorderColor                  #545454
	FontSize	    	         20
	BorderRoundCorner            16
	BorderThickness 	         1
	BackgroundColor              #48494b
}


skinparam legend {
	BackgroundColor #303030
	BorderColor #404040
	FontColor #a0a0a0
}

	skinparam swimlane {
	BorderColor #5e5e5e
	BorderThickness 2
	TitleBackgroundColor  #6d6d6d-#484848
	TitleFontColor #303030
}

skinparam activity {
		FontColor #C8Ac00
	BorderColor #333333
	BackgroundColor #333333-#333333
	BarColor #00FF00
	StartColor #0060a8
	EndColor #0060a8
	DiamondBackgroundColor #6d6d6d-#3a3a3a
  	DiamondBorderColor #3a3a3a
  	DiamondFontColor #fefefe
}


skinparam participant {
		FontColor #C8Ac00
	BorderColor #333333
	BackgroundColor #333333-#333333
	ParticipantBorderThickness 2
}


skinparam actor {
		FontColor #C8Ac00
	BorderColor #333333
	BackgroundColor #333333-#333333
}


skinparam arrow {
	Thickness 1.5
	Color #545454
	FontColor #a0a0a0
    FontStyle bold
    MessageAlignment center
}



skinparam sequence {
	BorderColor #303030
	TitleFontColor #303030
	BackgroundColor #333333
	StartColor #303030
	EndColor #303030
	BoxBackgroundColor #333333
	BoxBorderColor #484848
	BoxFontColor #484848
	LifeLineBorderColor #484848
	LifeLineBorderThickness 2
	LifeLineBackgroundColor #3a3a3a
	GroupBorderColor #484848
	GroupFontColor #484848
	GroupHeaderFontColor #0060a8
	GroupBackgroundColor #484848
	GroupHeaderBackgroundColor #333333
	DividerBackgroundColor #484848
    DividerBorderColor #484848
    DividerBorderThickness 2
    DividerFontColor #D8Bc00
	ReferenceBackgroundColor #333333
	ReferenceBorderColor #484848
	ReferenceFontColor #fefefe
	ReferenceHeaderBackgroundColor #484848
}


skinparam partition {
	BorderColor #303030
	FontColor #333333
	BackgroundColor #333333
}


skinparam collections {
		FontColor #C8Ac00
	BorderColor #333333
	BackgroundColor #333333-#333333
}


skinparam control {
		FontColor #C8Ac00
	BorderColor #333333
	BackgroundColor #333333-#333333
}


skinparam entity {
		FontColor #C8Ac00
	BorderColor #333333
	BackgroundColor #333333-#333333
}


skinparam boundary {
		FontColor #C8Ac00
	BorderColor #333333
	BackgroundColor #333333-#333333
}


skinparam agent {
	BackgroundColor #ff8000
	BorderColor #ff9933
	FontColor #484848
}


skinparam note {
	BorderThickness 1
	BackgroundColor #1b1b1a
	BorderColor #5e5e5e
	FontSize 11
	FontColor #a0a0a0
}


skinparam artifact {
	BorderThickness 10
	BorderColor #5e5e5e
	BackgroundColor #1b1b1a
	FontColor #D8Bc00
}


skinparam component {
		FontColor #C8Ac00
	BorderColor #333333
	BackgroundColor #333333-#333333
}


skinparam interface {
	BackgroundColor  #008400
	BorderColor  #007F00
	FontColor #484848
}


skinparam storage {
	BackgroundColor #ff8000
  	BorderColor #cc6600
	FontColor #222222
}


skinparam node {
	BackgroundColor #333333
	BorderColor #333333
	FontColor #C8Ac00
}


skinparam cloud {
	BackgroundColor #484848-black
	BorderColor #484848
	FontColor #D8Bc00
}


skinparam database {
		FontColor #C8Ac00
	BorderColor #333333
	BackgroundColor #333333-#333333
	BackgroundColor  #333333
}


skinparam class {
		FontColor #C8Ac00
	BorderColor #333333
	BackgroundColor #333333-#333333
	HeaderBackgroundColor #1b1b1a
    BackgroundColor #282828
    BorderColor #5e5e5e
 	StereotypeFontColor #a0a0a0
    StereotypeFontStyle bold
	BorderThickness 1
	AttributeFontColor #D8Bc00
	AttributeFontSize 11
    FontColor #D8Bc00
    FontStyle bold
}


skinparam object {
		FontColor #C8Ac00
	BorderColor #333333
	BackgroundColor #333333-#333333
	StereotypeFontColor #484848
	BorderThickness 1
	AttributeFontColor #fefefe
	AttributeFontSize 11
}


skinparam usecase {
		FontColor #C8Ac00
	BorderColor #333333
	BackgroundColor #333333-#333333
	BorderThickness 2
	StereotypeFontColor #303030
}


skinparam rectangle {
		FontColor #C8Ac00
	BorderColor #333333
	BackgroundColor #333333-#333333
	BackgroundColor #333333
	BorderThickness 2
	StereotypeFontColor #303030
}


skinparam package {
		FontColor #C8Ac00
	BorderColor #333333
	BackgroundColor #333333-#333333
	BackgroundColor #333333
	BorderThickness 2
}


skinparam folder {
	BackgroundColor #6d6d6d
  	BorderColor #ff8000
	FontColor #ff8000
	BorderThickness 2
}


skinparam frame {
	BackgroundColor #6d6d6d
  	BorderColor #0060a8
	FontColor #0060a8
	BorderThickness 2
}


skinparam state {
		FontColor #C8Ac00
	BorderColor #333333
	BackgroundColor #333333-#333333
	StartColor #0060a8
	EndColor #0060a8
	AttributeFontColor #fefefe
	AttributeFontSize 11
}


skinparam queue {
		FontColor #C8Ac00
	BorderColor #333333
	BackgroundColor #333333-#333333
}


skinparam card {
	BackgroundColor #0060a8
	BorderColor #004d86
	FontColor $INFO_TEXT
}


skinparam file {
	BackgroundColor #6d6d6d-#484848
	BorderColor #0060a8
	FontColor #fefefe
}


skinparam stack {
		FontColor #C8Ac00
	BorderColor #333333
	BackgroundColor #333333-#333333
}

    
    title "com.telenav.mesakit.map.data.formats.pbf.processing.filters.all"
    
    RelationFilter <|- - AllRelationsFilter
    class AllRelationsFilter
    {
        - -(constructors)- -
        +AllRelationsFilter()
    }
    
    WayFilter <|- - AllWaysFilter
    class AllWaysFilter
    {
        - -(constructors)- -
        +AllWaysFilter()
    }
    
@enduml

PlantUML version 1.2021.01(Tue Feb 02 02:55:08 EST 2021)
(GPL source distribution)
Java Runtime: OpenJDK Runtime Environment
JVM: OpenJDK 64-Bit Server VM
Default Encoding: UTF-8
Language: en
Country: US
--></g></svg>