<?xml version="1.0" encoding="UTF-8" standalone="no"?><svg xmlns="http://www.w3.org/2000/svg" xmlns:xlink="http://www.w3.org/1999/xlink" contentScriptType="application/ecmascript" contentStyleType="text/css" height="533.3333px" preserveAspectRatio="none" style="width:2157px;height:533px;background:#333333;" version="1.1" viewBox="0 0 2157 533" width="2157.2917px" zoomAndPan="magnify"><defs/><g><rect fill="#48494B" height="41.2028" rx="8.3333" ry="8.3333" style="stroke:#545454;stroke-width:1.0416666666666667;" width="318.75" x="912.2396" y="2.0833"/><text fill="#C0C0C0" font-family="Open Sans,Avenir,Nunito,Arial,Helvetica,SansSerif" font-size="20.8333" lengthAdjust="spacing" textLength="295.8333" x="923.6979" y="30.5583">mesakit-map-measurements</text><!--MD5=[4f079977920bf52107586fb847a1e92c]
entity kryo--><rect fill="#1B1B1A" height="44.93" rx="8.3333" ry="8.3333" style="stroke:#5E5E5E;stroke-width:1.5625;" width="63.5417" x="858.8542" y="268.2861"/><polygon fill="#1B1B1A" points="904.6875,273.4945,904.6875,288.0778,917.1875,288.0778,917.1875,279.7445,910.9375,273.4945,904.6875,273.4945" style="stroke:#5E5E5E;stroke-width:1.5625;"/><line style="stroke:#5E5E5E;stroke-width:1.5625;" x1="910.9375" x2="910.9375" y1="273.4945" y2="279.7445"/><line style="stroke:#5E5E5E;stroke-width:1.5625;" x1="917.1875" x2="910.9375" y1="279.7445" y2="279.7445"/><text fill="#D8BC00" font-family="Open Sans,Avenir,Nunito,Arial,Helvetica,SansSerif" font-size="12.5" lengthAdjust="spacing" textLength="26.0417" x="872.3958" y="297.0378">kryo</text><!--MD5=[745ab22dbfa32e29a2660b9e5bc2262a]
entity minlog--><rect fill="#1B1B1A" height="44.93" rx="8.3333" ry="8.3333" style="stroke:#5E5E5E;stroke-width:1.5625;" width="77.0833" x="727.0833" y="375.5778"/><polygon fill="#1B1B1A" points="786.4583,380.7861,786.4583,395.3695,798.9583,395.3695,798.9583,387.0361,792.7083,380.7861,786.4583,380.7861" style="stroke:#5E5E5E;stroke-width:1.5625;"/><line style="stroke:#5E5E5E;stroke-width:1.5625;" x1="792.7083" x2="792.7083" y1="380.7861" y2="387.0361"/><line style="stroke:#5E5E5E;stroke-width:1.5625;" x1="798.9583" x2="792.7083" y1="387.0361" y2="387.0361"/><text fill="#D8BC00" font-family="Open Sans,Avenir,Nunito,Arial,Helvetica,SansSerif" font-size="12.5" lengthAdjust="spacing" textLength="39.5833" x="740.625" y="404.3294">minlog</text><!--MD5=[5d0bc62e6e2e5a8467f655d5e580826c]
entity reflectasm--><rect fill="#1B1B1A" height="44.93" rx="8.3333" ry="8.3333" style="stroke:#5E5E5E;stroke-width:1.5625;" width="100" x="840.625" y="375.5778"/><polygon fill="#1B1B1A" points="922.9167,380.7861,922.9167,395.3695,935.4167,395.3695,935.4167,387.0361,929.1667,380.7861,922.9167,380.7861" style="stroke:#5E5E5E;stroke-width:1.5625;"/><line style="stroke:#5E5E5E;stroke-width:1.5625;" x1="929.1667" x2="929.1667" y1="380.7861" y2="387.0361"/><line style="stroke:#5E5E5E;stroke-width:1.5625;" x1="935.4167" x2="929.1667" y1="387.0361" y2="387.0361"/><text fill="#D8BC00" font-family="Open Sans,Avenir,Nunito,Arial,Helvetica,SansSerif" font-size="12.5" lengthAdjust="spacing" textLength="62.5" x="854.1667" y="404.3294">reflectasm</text><!--MD5=[f60c93b31809bbe75a7d4f457c50057b]
entity cactus_metadata--><rect fill="#1B1B1A" height="44.93" rx="8.3333" ry="8.3333" style="stroke:#5E5E5E;stroke-width:1.5625;" width="138.5417" x="178.6458" y="375.5778"/><polygon fill="#1B1B1A" points="299.4792,380.7861,299.4792,395.3695,311.9792,395.3695,311.9792,387.0361,305.7292,380.7861,299.4792,380.7861" style="stroke:#5E5E5E;stroke-width:1.5625;"/><line style="stroke:#5E5E5E;stroke-width:1.5625;" x1="305.7292" x2="305.7292" y1="380.7861" y2="387.0361"/><line style="stroke:#5E5E5E;stroke-width:1.5625;" x1="311.9792" x2="305.7292" y1="387.0361" y2="387.0361"/><text fill="#D8BC00" font-family="Open Sans,Avenir,Nunito,Arial,Helvetica,SansSerif" font-size="12.5" lengthAdjust="spacing" textLength="101.0417" x="192.1875" y="404.3294">cactus_metadata</text><!--MD5=[4facc4376e4b6bfc182ce14f42a813f9]
entity kivakit_collections--><rect fill="#1B1B1A" height="44.93" rx="8.3333" ry="8.3333" style="stroke:#5E5E5E;stroke-width:1.5625;" width="143.75" x="7.2917" y="268.2861"/><polygon fill="#1B1B1A" points="133.3333,273.4945,133.3333,288.0778,145.8333,288.0778,145.8333,279.7445,139.5833,273.4945,133.3333,273.4945" style="stroke:#5E5E5E;stroke-width:1.5625;"/><line style="stroke:#5E5E5E;stroke-width:1.5625;" x1="139.5833" x2="139.5833" y1="273.4945" y2="279.7445"/><line style="stroke:#5E5E5E;stroke-width:1.5625;" x1="145.8333" x2="139.5833" y1="279.7445" y2="279.7445"/><text fill="#D8BC00" font-family="Open Sans,Avenir,Nunito,Arial,Helvetica,SansSerif" font-size="12.5" lengthAdjust="spacing" textLength="106.25" x="20.8333" y="297.0378">kivakit_collections</text><!--MD5=[b7af8d5b7902cf06664f76dfe0f9e426]
entity kivakit_commandline--><rect fill="#1B1B1A" height="44.93" rx="8.3333" ry="8.3333" style="stroke:#5E5E5E;stroke-width:1.5625;" width="162.5" x="342.7083" y="160.9945"/><polygon fill="#1B1B1A" points="487.5,166.2028,487.5,180.7861,500,180.7861,500,172.4528,493.75,166.2028,487.5,166.2028" style="stroke:#5E5E5E;stroke-width:1.5625;"/><line style="stroke:#5E5E5E;stroke-width:1.5625;" x1="493.75" x2="493.75" y1="166.2028" y2="172.4528"/><line style="stroke:#5E5E5E;stroke-width:1.5625;" x1="500" x2="493.75" y1="172.4528" y2="172.4528"/><text fill="#D8BC00" font-family="Open Sans,Avenir,Nunito,Arial,Helvetica,SansSerif" font-size="12.5" lengthAdjust="spacing" textLength="125" x="356.25" y="189.7461">kivakit_commandline</text><!--MD5=[dafc80021cd29aae9231cf20b1d6436c]
entity kivakit_conversion--><rect fill="#1B1B1A" height="44.93" rx="8.3333" ry="8.3333" style="stroke:#5E5E5E;stroke-width:1.5625;" width="145.8333" x="187.5" y="268.2861"/><polygon fill="#1B1B1A" points="315.625,273.4945,315.625,288.0778,328.125,288.0778,328.125,279.7445,321.875,273.4945,315.625,273.4945" style="stroke:#5E5E5E;stroke-width:1.5625;"/><line style="stroke:#5E5E5E;stroke-width:1.5625;" x1="321.875" x2="321.875" y1="273.4945" y2="279.7445"/><line style="stroke:#5E5E5E;stroke-width:1.5625;" x1="328.125" x2="321.875" y1="279.7445" y2="279.7445"/><text fill="#D8BC00" font-family="Open Sans,Avenir,Nunito,Arial,Helvetica,SansSerif" font-size="12.5" lengthAdjust="spacing" textLength="108.3333" x="201.0417" y="297.0378">kivakit_conversion</text><!--MD5=[ae4286fb09ce878b5ed12f89a26eee54]
entity kivakit_core--><rect fill="#1B1B1A" height="44.93" rx="8.3333" ry="8.3333" style="stroke:#5E5E5E;stroke-width:1.5625;" width="108.3333" x="369.7917" y="268.2861"/><polygon fill="#1B1B1A" points="460.4167,273.4945,460.4167,288.0778,472.9167,288.0778,472.9167,279.7445,466.6667,273.4945,460.4167,273.4945" style="stroke:#5E5E5E;stroke-width:1.5625;"/><line style="stroke:#5E5E5E;stroke-width:1.5625;" x1="466.6667" x2="466.6667" y1="273.4945" y2="279.7445"/><line style="stroke:#5E5E5E;stroke-width:1.5625;" x1="472.9167" x2="466.6667" y1="279.7445" y2="279.7445"/><text fill="#D8BC00" font-family="Open Sans,Avenir,Nunito,Arial,Helvetica,SansSerif" font-size="12.5" lengthAdjust="spacing" textLength="70.8333" x="383.3333" y="297.0378">kivakit_core</text><!--MD5=[b582392a7118229602de187c1b0722c2]
entity kivakit_interfaces--><rect fill="#1B1B1A" height="44.93" rx="8.3333" ry="8.3333" style="stroke:#5E5E5E;stroke-width:1.5625;" width="140.625" x="353.6458" y="375.5778"/><polygon fill="#1B1B1A" points="476.5625,380.7861,476.5625,395.3695,489.0625,395.3695,489.0625,387.0361,482.8125,380.7861,476.5625,380.7861" style="stroke:#5E5E5E;stroke-width:1.5625;"/><line style="stroke:#5E5E5E;stroke-width:1.5625;" x1="482.8125" x2="482.8125" y1="380.7861" y2="387.0361"/><line style="stroke:#5E5E5E;stroke-width:1.5625;" x1="489.0625" x2="482.8125" y1="387.0361" y2="387.0361"/><text fill="#D8BC00" font-family="Open Sans,Avenir,Nunito,Arial,Helvetica,SansSerif" font-size="12.5" lengthAdjust="spacing" textLength="103.125" x="367.1875" y="404.3294">kivakit_interfaces</text><!--MD5=[155c7293f864675051139bd0dee90fee]
entity kivakit_internal_testing--><rect fill="#1B1B1A" height="44.93" rx="8.3333" ry="8.3333" style="stroke:#5E5E5E;stroke-width:1.5625;" width="172.9167" x="1780.2083" y="268.2861"/><polygon fill="#1B1B1A" points="1935.4167,273.4945,1935.4167,288.0778,1947.9167,288.0778,1947.9167,279.7445,1941.6667,273.4945,1935.4167,273.4945" style="stroke:#5E5E5E;stroke-width:1.5625;"/><line style="stroke:#5E5E5E;stroke-width:1.5625;" x1="1941.6667" x2="1941.6667" y1="273.4945" y2="279.7445"/><line style="stroke:#5E5E5E;stroke-width:1.5625;" x1="1947.9167" x2="1941.6667" y1="279.7445" y2="279.7445"/><text fill="#D8BC00" font-family="Open Sans,Avenir,Nunito,Arial,Helvetica,SansSerif" font-size="12.5" lengthAdjust="spacing" textLength="135.4167" x="1793.75" y="297.0378">kivakit_internal_testing</text><!--MD5=[777f537393e16daa648c56fbfeea7987]
entity kivakit_math--><rect fill="#1B1B1A" height="44.93" rx="8.3333" ry="8.3333" style="stroke:#5E5E5E;stroke-width:1.5625;" width="112.5" x="701.0417" y="160.9945"/><polygon fill="#1B1B1A" points="795.8333,166.2028,795.8333,180.7861,808.3333,180.7861,808.3333,172.4528,802.0833,166.2028,795.8333,166.2028" style="stroke:#5E5E5E;stroke-width:1.5625;"/><line style="stroke:#5E5E5E;stroke-width:1.5625;" x1="802.0833" x2="802.0833" y1="166.2028" y2="172.4528"/><line style="stroke:#5E5E5E;stroke-width:1.5625;" x1="808.3333" x2="802.0833" y1="172.4528" y2="172.4528"/><text fill="#D8BC00" font-family="Open Sans,Avenir,Nunito,Arial,Helvetica,SansSerif" font-size="12.5" lengthAdjust="spacing" textLength="75" x="714.5833" y="189.7461">kivakit_math</text><!--MD5=[f41257055ff6c31a77f8312d5e694f18]
entity kivakit_mixins--><rect fill="#1B1B1A" height="44.93" rx="8.3333" ry="8.3333" style="stroke:#5E5E5E;stroke-width:1.5625;" width="120.8333" x="531.25" y="375.5778"/><polygon fill="#1B1B1A" points="634.375,380.7861,634.375,395.3695,646.875,395.3695,646.875,387.0361,640.625,380.7861,634.375,380.7861" style="stroke:#5E5E5E;stroke-width:1.5625;"/><line style="stroke:#5E5E5E;stroke-width:1.5625;" x1="640.625" x2="640.625" y1="380.7861" y2="387.0361"/><line style="stroke:#5E5E5E;stroke-width:1.5625;" x1="646.875" x2="640.625" y1="387.0361" y2="387.0361"/><text fill="#D8BC00" font-family="Open Sans,Avenir,Nunito,Arial,Helvetica,SansSerif" font-size="12.5" lengthAdjust="spacing" textLength="83.3333" x="544.7917" y="404.3294">kivakit_mixins</text><!--MD5=[789122fdd47ca161e4432768ac68a470]
entity kivakit_resource--><rect fill="#1B1B1A" height="44.93" rx="8.3333" ry="8.3333" style="stroke:#5E5E5E;stroke-width:1.5625;" width="134.375" x="958.8542" y="268.2861"/><polygon fill="#1B1B1A" points="1075.5208,273.4945,1075.5208,288.0778,1088.0208,288.0778,1088.0208,279.7445,1081.7708,273.4945,1075.5208,273.4945" style="stroke:#5E5E5E;stroke-width:1.5625;"/><line style="stroke:#5E5E5E;stroke-width:1.5625;" x1="1081.7708" x2="1081.7708" y1="273.4945" y2="279.7445"/><line style="stroke:#5E5E5E;stroke-width:1.5625;" x1="1088.0208" x2="1081.7708" y1="279.7445" y2="279.7445"/><text fill="#D8BC00" font-family="Open Sans,Avenir,Nunito,Arial,Helvetica,SansSerif" font-size="12.5" lengthAdjust="spacing" textLength="96.875" x="972.3958" y="297.0378">kivakit_resource</text><!--MD5=[90c7e8c0eae90f7cdcf1e82754bc9c37]
entity kivakit_serialization_core--><rect fill="#1B1B1A" height="44.93" rx="8.3333" ry="8.3333" style="stroke:#5E5E5E;stroke-width:1.5625;" width="186.4583" x="1129.6875" y="268.2861"/><polygon fill="#1B1B1A" points="1298.4375,273.4945,1298.4375,288.0778,1310.9375,288.0778,1310.9375,279.7445,1304.6875,273.4945,1298.4375,273.4945" style="stroke:#5E5E5E;stroke-width:1.5625;"/><line style="stroke:#5E5E5E;stroke-width:1.5625;" x1="1304.6875" x2="1304.6875" y1="273.4945" y2="279.7445"/><line style="stroke:#5E5E5E;stroke-width:1.5625;" x1="1310.9375" x2="1304.6875" y1="279.7445" y2="279.7445"/><text fill="#D8BC00" font-family="Open Sans,Avenir,Nunito,Arial,Helvetica,SansSerif" font-size="12.5" lengthAdjust="spacing" textLength="148.9583" x="1143.2292" y="297.0378">kivakit_serialization_core</text><!--MD5=[d8561a10eaf46cfca0a780c55c779e3c]
entity kivakit_serialization_kryo_testing--><rect fill="#1B1B1A" height="44.93" rx="8.3333" ry="8.3333" style="stroke:#5E5E5E;stroke-width:1.5625;" width="232.2917" x="852.6042" y="160.9945"/><polygon fill="#1B1B1A" points="1067.1875,166.2028,1067.1875,180.7861,1079.6875,180.7861,1079.6875,172.4528,1073.4375,166.2028,1067.1875,166.2028" style="stroke:#5E5E5E;stroke-width:1.5625;"/><line style="stroke:#5E5E5E;stroke-width:1.5625;" x1="1073.4375" x2="1073.4375" y1="166.2028" y2="172.4528"/><line style="stroke:#5E5E5E;stroke-width:1.5625;" x1="1079.6875" x2="1073.4375" y1="172.4528" y2="172.4528"/><text fill="#D8BC00" font-family="Open Sans,Avenir,Nunito,Arial,Helvetica,SansSerif" font-size="12.5" lengthAdjust="spacing" textLength="194.7917" x="866.1458" y="189.7461">kivakit_serialization_kryo_testing</text><!--MD5=[7bf535908c90dd3c1fbc894d9b1c5a2e]
entity kivakit_serialization_kryo--><rect fill="#1B1B1A" height="44.93" rx="8.3333" ry="8.3333" style="stroke:#5E5E5E;stroke-width:1.5625;" width="186.4583" x="1124.4792" y="160.9945"/><polygon fill="#1B1B1A" points="1293.2292,166.2028,1293.2292,180.7861,1305.7292,180.7861,1305.7292,172.4528,1299.4792,166.2028,1293.2292,166.2028" style="stroke:#5E5E5E;stroke-width:1.5625;"/><line style="stroke:#5E5E5E;stroke-width:1.5625;" x1="1299.4792" x2="1299.4792" y1="166.2028" y2="172.4528"/><line style="stroke:#5E5E5E;stroke-width:1.5625;" x1="1305.7292" x2="1299.4792" y1="172.4528" y2="172.4528"/><text fill="#D8BC00" font-family="Open Sans,Avenir,Nunito,Arial,Helvetica,SansSerif" font-size="12.5" lengthAdjust="spacing" textLength="148.9583" x="1138.0208" y="189.7461">kivakit_serialization_kryo</text><!--MD5=[89af034859c241291c45f10ab75c9d6f]
entity kivakit_serialization_properties--><rect fill="#1B1B1A" height="44.93" rx="8.3333" ry="8.3333" style="stroke:#5E5E5E;stroke-width:1.5625;" width="222.9167" x="1353.125" y="268.2861"/><polygon fill="#1B1B1A" points="1558.3333,273.4945,1558.3333,288.0778,1570.8333,288.0778,1570.8333,279.7445,1564.5833,273.4945,1558.3333,273.4945" style="stroke:#5E5E5E;stroke-width:1.5625;"/><line style="stroke:#5E5E5E;stroke-width:1.5625;" x1="1564.5833" x2="1564.5833" y1="273.4945" y2="279.7445"/><line style="stroke:#5E5E5E;stroke-width:1.5625;" x1="1570.8333" x2="1564.5833" y1="279.7445" y2="279.7445"/><text fill="#D8BC00" font-family="Open Sans,Avenir,Nunito,Arial,Helvetica,SansSerif" font-size="12.5" lengthAdjust="spacing" textLength="185.4167" x="1366.6667" y="297.0378">kivakit_serialization_properties</text><!--MD5=[093cb7b544ec48262295604d6acff019]
entity kivakit_testing--><rect fill="#1B1B1A" height="44.93" rx="8.3333" ry="8.3333" style="stroke:#5E5E5E;stroke-width:1.5625;" width="121.875" x="1805.7292" y="160.9945"/><polygon fill="#1B1B1A" points="1909.8958,166.2028,1909.8958,180.7861,1922.3958,180.7861,1922.3958,172.4528,1916.1458,166.2028,1909.8958,166.2028" style="stroke:#5E5E5E;stroke-width:1.5625;"/><line style="stroke:#5E5E5E;stroke-width:1.5625;" x1="1916.1458" x2="1916.1458" y1="166.2028" y2="172.4528"/><line style="stroke:#5E5E5E;stroke-width:1.5625;" x1="1922.3958" x2="1916.1458" y1="172.4528" y2="172.4528"/><text fill="#D8BC00" font-family="Open Sans,Avenir,Nunito,Arial,Helvetica,SansSerif" font-size="12.5" lengthAdjust="spacing" textLength="84.375" x="1819.2708" y="189.7461">kivakit_testing</text><!--MD5=[80d2a7f8a38f99556dcaa88e0cbe286e]
entity kivakit_validation--><rect fill="#1B1B1A" height="44.93" rx="8.3333" ry="8.3333" style="stroke:#5E5E5E;stroke-width:1.5625;" width="139.5833" x="514.5833" y="268.2861"/><polygon fill="#1B1B1A" points="636.4583,273.4945,636.4583,288.0778,648.9583,288.0778,648.9583,279.7445,642.7083,273.4945,636.4583,273.4945" style="stroke:#5E5E5E;stroke-width:1.5625;"/><line style="stroke:#5E5E5E;stroke-width:1.5625;" x1="642.7083" x2="642.7083" y1="273.4945" y2="279.7445"/><line style="stroke:#5E5E5E;stroke-width:1.5625;" x1="648.9583" x2="642.7083" y1="279.7445" y2="279.7445"/><text fill="#D8BC00" font-family="Open Sans,Avenir,Nunito,Arial,Helvetica,SansSerif" font-size="12.5" lengthAdjust="spacing" textLength="102.0833" x="528.125" y="297.0378">kivakit_validation</text><!--MD5=[7b0fec798d1f32628676dfdf75f1f662]
entity lexakai_annotations--><rect fill="#1B1B1A" height="44.93" rx="8.3333" ry="8.3333" style="stroke:#5E5E5E;stroke-width:1.5625;" width="155.2083" x="1990.1042" y="268.2861"/><polygon fill="#1B1B1A" points="2127.6042,273.4945,2127.6042,288.0778,2140.1042,288.0778,2140.1042,279.7445,2133.8542,273.4945,2127.6042,273.4945" style="stroke:#5E5E5E;stroke-width:1.5625;"/><line style="stroke:#5E5E5E;stroke-width:1.5625;" x1="2133.8542" x2="2133.8542" y1="273.4945" y2="279.7445"/><line style="stroke:#5E5E5E;stroke-width:1.5625;" x1="2140.1042" x2="2133.8542" y1="279.7445" y2="279.7445"/><text fill="#D8BC00" font-family="Open Sans,Avenir,Nunito,Arial,Helvetica,SansSerif" font-size="12.5" lengthAdjust="spacing" textLength="117.7083" x="2003.6458" y="297.0378">lexakai_annotations</text><!--MD5=[c13f614f4eab1fb0a15a900fd22c77de]
entity mesakit_map_measurements--><rect fill="#1B1B1A" height="44.93" rx="8.3333" ry="8.3333" style="stroke:#5E5E5E;stroke-width:1.5625;" width="212.5" x="862.5" y="53.7028"/><polygon fill="#1B1B1A" points="1057.2917,58.9111,1057.2917,73.4945,1069.7917,73.4945,1069.7917,65.1611,1063.5417,58.9111,1057.2917,58.9111" style="stroke:#5E5E5E;stroke-width:1.5625;"/><line style="stroke:#5E5E5E;stroke-width:1.5625;" x1="1063.5417" x2="1063.5417" y1="58.9111" y2="65.1611"/><line style="stroke:#5E5E5E;stroke-width:1.5625;" x1="1069.7917" x2="1063.5417" y1="65.1611" y2="65.1611"/><text fill="#D8BC00" font-family="Open Sans,Avenir,Nunito,Arial,Helvetica,SansSerif" font-size="12.5" lengthAdjust="spacing" textLength="175" x="876.0417" y="82.4544">mesakit_map_measurements</text><!--MD5=[b9ccc173c089e3d2abf77c8581e74aca]
entity kryo_serializers--><rect fill="#1B1B1A" height="44.93" rx="8.3333" ry="8.3333" style="stroke:#5E5E5E;stroke-width:1.5625;" width="131.25" x="1612.5" y="268.2861"/><polygon fill="#1B1B1A" points="1726.0417,273.4945,1726.0417,288.0778,1738.5417,288.0778,1738.5417,279.7445,1732.2917,273.4945,1726.0417,273.4945" style="stroke:#5E5E5E;stroke-width:1.5625;"/><line style="stroke:#5E5E5E;stroke-width:1.5625;" x1="1732.2917" x2="1732.2917" y1="273.4945" y2="279.7445"/><line style="stroke:#5E5E5E;stroke-width:1.5625;" x1="1738.5417" x2="1732.2917" y1="279.7445" y2="279.7445"/><text fill="#D8BC00" font-family="Open Sans,Avenir,Nunito,Arial,Helvetica,SansSerif" font-size="12.5" lengthAdjust="spacing" textLength="93.75" x="1626.0417" y="297.0378">kryo_serializers</text><!--MD5=[ce55b294004802c137560c2930be5b75]
entity junit--><rect fill="#1B1B1A" height="44.93" rx="8.3333" ry="8.3333" style="stroke:#5E5E5E;stroke-width:1.5625;" width="63.5417" x="1773.4375" y="375.5778"/><polygon fill="#1B1B1A" points="1819.2708,380.7861,1819.2708,395.3695,1831.7708,395.3695,1831.7708,387.0361,1825.5208,380.7861,1819.2708,380.7861" style="stroke:#5E5E5E;stroke-width:1.5625;"/><line style="stroke:#5E5E5E;stroke-width:1.5625;" x1="1825.5208" x2="1825.5208" y1="380.7861" y2="387.0361"/><line style="stroke:#5E5E5E;stroke-width:1.5625;" x1="1831.7708" x2="1825.5208" y1="387.0361" y2="387.0361"/><text fill="#D8BC00" font-family="Open Sans,Avenir,Nunito,Arial,Helvetica,SansSerif" font-size="12.5" lengthAdjust="spacing" textLength="26.0417" x="1786.9792" y="404.3294">junit</text><!--MD5=[374397457fd87171900b6bd6464bbf1c]
entity commons_math--><rect fill="#1B1B1A" height="44.93" rx="8.3333" ry="8.3333" style="stroke:#5E5E5E;stroke-width:1.5625;" width="131.25" x="690.625" y="268.2861"/><polygon fill="#1B1B1A" points="804.1667,273.4945,804.1667,288.0778,816.6667,288.0778,816.6667,279.7445,810.4167,273.4945,804.1667,273.4945" style="stroke:#5E5E5E;stroke-width:1.5625;"/><line style="stroke:#5E5E5E;stroke-width:1.5625;" x1="810.4167" x2="810.4167" y1="273.4945" y2="279.7445"/><line style="stroke:#5E5E5E;stroke-width:1.5625;" x1="816.6667" x2="810.4167" y1="279.7445" y2="279.7445"/><text fill="#D8BC00" font-family="Open Sans,Avenir,Nunito,Arial,Helvetica,SansSerif" font-size="12.5" lengthAdjust="spacing" textLength="93.75" x="704.1667" y="297.0378">commons_math</text><!--MD5=[7f157d37bc1fd6ac970bb67ffdbc66a3]
entity hamcrest_core--><rect fill="#1B1B1A" height="44.93" rx="8.3333" ry="8.3333" style="stroke:#5E5E5E;stroke-width:1.5625;" width="125" x="1742.7083" y="482.8695"/><polygon fill="#1B1B1A" points="1850,488.0778,1850,502.6611,1862.5,502.6611,1862.5,494.3278,1856.25,488.0778,1850,488.0778" style="stroke:#5E5E5E;stroke-width:1.5625;"/><line style="stroke:#5E5E5E;stroke-width:1.5625;" x1="1856.25" x2="1856.25" y1="488.0778" y2="494.3278"/><line style="stroke:#5E5E5E;stroke-width:1.5625;" x1="1862.5" x2="1856.25" y1="494.3278" y2="494.3278"/><text fill="#D8BC00" font-family="Open Sans,Avenir,Nunito,Arial,Helvetica,SansSerif" font-size="12.5" lengthAdjust="spacing" textLength="87.5" x="1756.25" y="511.6211">hamcrest_core</text><!--MD5=[b728e17b4e4da6aa8cb97e9b2766c5e6]
entity annotations--><rect fill="#1B1B1A" height="44.93" rx="8.3333" ry="8.3333" style="stroke:#5E5E5E;stroke-width:1.5625;" width="106.25" x="1873.9583" y="375.5778"/><polygon fill="#1B1B1A" points="1962.5,380.7861,1962.5,395.3695,1975,395.3695,1975,387.0361,1968.75,380.7861,1962.5,380.7861" style="stroke:#5E5E5E;stroke-width:1.5625;"/><line style="stroke:#5E5E5E;stroke-width:1.5625;" x1="1968.75" x2="1968.75" y1="380.7861" y2="387.0361"/><line style="stroke:#5E5E5E;stroke-width:1.5625;" x1="1975" x2="1968.75" y1="387.0361" y2="387.0361"/><text fill="#D8BC00" font-family="Open Sans,Avenir,Nunito,Arial,Helvetica,SansSerif" font-size="12.5" lengthAdjust="spacing" textLength="68.75" x="1887.5" y="404.3294">annotations</text><!--MD5=[b3c862d1486667ad9c7edef6529b2202]
entity objenesis--><rect fill="#1B1B1A" height="44.93" rx="8.3333" ry="8.3333" style="stroke:#5E5E5E;stroke-width:1.5625;" width="94.7917" x="977.6042" y="375.5778"/><polygon fill="#1B1B1A" points="1054.6875,380.7861,1054.6875,395.3695,1067.1875,395.3695,1067.1875,387.0361,1060.9375,380.7861,1054.6875,380.7861" style="stroke:#5E5E5E;stroke-width:1.5625;"/><line style="stroke:#5E5E5E;stroke-width:1.5625;" x1="1060.9375" x2="1060.9375" y1="380.7861" y2="387.0361"/><line style="stroke:#5E5E5E;stroke-width:1.5625;" x1="1067.1875" x2="1060.9375" y1="387.0361" y2="387.0361"/><text fill="#D8BC00" font-family="Open Sans,Avenir,Nunito,Arial,Helvetica,SansSerif" font-size="12.5" lengthAdjust="spacing" textLength="57.2917" x="991.1458" y="404.3294">objenesis</text><!--MD5=[92e2ad58d19962135e7ff93f22958550]
entity asm--><rect fill="#1B1B1A" height="44.93" rx="8.3333" ry="8.3333" style="stroke:#5E5E5E;stroke-width:1.5625;" width="62.5" x="859.375" y="482.8695"/><polygon fill="#1B1B1A" points="904.1667,488.0778,904.1667,502.6611,916.6667,502.6611,916.6667,494.3278,910.4167,488.0778,904.1667,488.0778" style="stroke:#5E5E5E;stroke-width:1.5625;"/><line style="stroke:#5E5E5E;stroke-width:1.5625;" x1="910.4167" x2="910.4167" y1="488.0778" y2="494.3278"/><line style="stroke:#5E5E5E;stroke-width:1.5625;" x1="916.6667" x2="910.4167" y1="494.3278" y2="494.3278"/><text fill="#D8BC00" font-family="Open Sans,Avenir,Nunito,Arial,Helvetica,SansSerif" font-size="12.5" lengthAdjust="spacing" textLength="25" x="872.9167" y="511.6211">asm</text><!--MD5=[d68e7c4b3ca5f037bcb6997a0b4ed16b]
link junit to hamcrest_core--><path d="M1805.2083,420.8174 C1805.2083,437.2861 1805.2083,459.984 1805.2083,477.5361 " fill="none" id="junit-to-hamcrest_core" style="stroke:#545454;stroke-width:1.5625;"/><polygon fill="#545454" points="1805.2083,482.8174,1809.375,473.4424,1805.2083,477.609,1801.0417,473.4424,1805.2083,482.8174" style="stroke:#545454;stroke-width:1.5625;"/><!--MD5=[9286c1a5f216d35026583190a4d72b78]
link kivakit_commandline to kivakit_collections--><path d="M353.7708,205.8486 C295.8542,223.5153 213.8646,248.5361 154.5625,266.6299 " fill="none" id="kivakit_commandline-to-kivakit_collections" style="stroke:#545454;stroke-width:1.5625;"/><polygon fill="#545454" points="149.2604,268.2549,159.4436,269.5017,154.2416,266.7337,157.0097,261.5317,149.2604,268.2549" style="stroke:#545454;stroke-width:1.5625;"/><!--MD5=[0ec4f870a8b9f530040c9be27d791a01]
link kivakit_commandline to kivakit_conversion--><path d="M390.4688,205.9736 C363.6771,223.2132 326.125,247.3695 298.25,265.307 " fill="none" id="kivakit_commandline-to-kivakit_conversion" style="stroke:#545454;stroke-width:1.5625;"/><polygon fill="#545454" points="293.8646,268.1299,304.0038,266.5652,298.2457,265.3134,299.4975,259.5554,293.8646,268.1299" style="stroke:#545454;stroke-width:1.5625;"/><!--MD5=[943c04cd0fe752834cf06c59f408a839]
link kivakit_commandline to kivakit_core--><path d="M423.9583,206.234 C423.9583,222.7028 423.9583,245.4007 423.9583,262.9528 " fill="none" id="kivakit_commandline-to-kivakit_core" style="stroke:#545454;stroke-width:1.5625;"/><polygon fill="#545454" points="423.9583,268.234,428.125,258.859,423.9583,263.0257,419.7917,258.859,423.9583,268.234" style="stroke:#545454;stroke-width:1.5625;"/><!--MD5=[233173b8414f4008c96b85f34b766932]
link kivakit_commandline to kivakit_validation--><path d="M456.8125,205.9736 C482.9792,223.1403 519.625,247.1715 546.9271,265.0778 " fill="none" id="kivakit_commandline-to-kivakit_validation" style="stroke:#545454;stroke-width:1.5625;"/><polygon fill="#545454" points="551.5729,268.1299,546.0152,259.5064,547.2166,265.2752,541.4478,266.4766,551.5729,268.1299" style="stroke:#545454;stroke-width:1.5625;"/><!--MD5=[eefa6814e5d84b0e7105ffce153734d1]
link kivakit_core to cactus_metadata--><path d="M387.9063,313.2653 C359.0729,330.5049 318.6458,354.6611 288.6354,372.5986 " fill="none" id="kivakit_core-to-cactus_metadata" style="stroke:#545454;stroke-width:1.5625;"/><polygon fill="#545454" points="283.9167,375.4215,294.1024,374.196,288.3893,372.7529,289.8325,367.0398,283.9167,375.4215" style="stroke:#545454;stroke-width:1.5625;"/><!--MD5=[50e8d2e340cfb1a2dae3d5796adb8458]
link kivakit_core to kivakit_interfaces--><path d="M423.9583,313.5257 C423.9583,329.9945 423.9583,352.6924 423.9583,370.2445 " fill="none" id="kivakit_core-to-kivakit_interfaces" style="stroke:#545454;stroke-width:1.5625;"/><polygon fill="#545454" points="423.9583,375.5257,428.125,366.1507,423.9583,370.3174,419.7917,366.1507,423.9583,375.5257" style="stroke:#545454;stroke-width:1.5625;"/><!--MD5=[cc9720141deba8e1bd3912e4e0759165]
link kivakit_core to kivakit_mixins--><path d="M458.3021,313.2653 C485.7708,330.5049 524.2917,354.6611 552.875,372.5986 " fill="none" id="kivakit_core-to-kivakit_mixins" style="stroke:#545454;stroke-width:1.5625;"/><polygon fill="#545454" points="557.3646,375.4215,551.6436,366.9056,552.9546,372.6504,547.2098,373.9615,557.3646,375.4215" style="stroke:#545454;stroke-width:1.5625;"/><!--MD5=[4b82e2a0b2f04a403edf9234c3d60217]
link kivakit_internal_testing to annotations--><path d="M1879.1875,313.5257 C1888.7292,330.1403 1901.9063,353.0778 1912.0208,370.7028 " fill="none" id="kivakit_internal_testing-to-annotations" style="stroke:#545454;stroke-width:1.5625;"/><polygon fill="#545454" points="1914.7917,375.5257,1913.7363,365.3209,1912.198,371.0091,1906.5098,369.4708,1914.7917,375.5257" style="stroke:#545454;stroke-width:1.5625;"/><!--MD5=[5b546c273a7ef3c2ac177c7373ad10f4]
link kivakit_internal_testing to junit--><path d="M1853.9375,313.5257 C1844.2292,330.1403 1830.8229,353.0778 1820.5313,370.7028 " fill="none" id="kivakit_internal_testing-to-junit" style="stroke:#545454;stroke-width:1.5625;"/><polygon fill="#545454" points="1817.7188,375.5257,1826.0391,369.5238,1820.3412,371.0258,1818.8393,365.3279,1817.7188,375.5257" style="stroke:#545454;stroke-width:1.5625;"/><!--MD5=[3a8da46707b3267a7def2c5b13e3afea]
link kivakit_math to commons_math--><path d="M757.0729,206.234 C756.9167,222.7028 756.6875,245.4007 756.5104,262.9528 " fill="none" id="kivakit_math-to-commons_math" style="stroke:#545454;stroke-width:1.5625;"/><polygon fill="#545454" points="756.4583,268.234,760.7052,258.8951,756.503,263.0259,752.3722,258.8237,756.4583,268.234" style="stroke:#545454;stroke-width:1.5625;"/><!--MD5=[ae0d7908e369146a7fac8f92a656c43f]
link kivakit_serialization_kryo to kivakit_resource--><path d="M1178.4583,205.9736 C1146.9375,223.2757 1102.6771,247.5674 1069.9792,265.5257 " fill="none" id="kivakit_serialization_kryo-to-kivakit_resource" style="stroke:#545454;stroke-width:1.5625;"/><polygon fill="#545454" points="1065.2396,268.1299,1075.4628,267.2705,1069.8051,265.6233,1071.4523,259.9657,1065.2396,268.1299" style="stroke:#545454;stroke-width:1.5625;"/><!--MD5=[bd8ffdf9ed53e7a9e4d2b803aca0e58d]
link kivakit_serialization_kryo to kivakit_serialization_core--><path d="M1218.7917,206.234 C1219.6042,222.7028 1220.7292,245.4007 1221.5938,262.9528 " fill="none" id="kivakit_serialization_kryo-to-kivakit_serialization_core" style="stroke:#545454;stroke-width:1.5625;"/><polygon fill="#545454" points="1221.8542,268.234,1225.5324,258.6569,1221.5859,263.0326,1217.2101,259.0861,1221.8542,268.234" style="stroke:#545454;stroke-width:1.5625;"/><!--MD5=[1fd0e173316f765bede25fa1a86051ca]
link kivakit_serialization_kryo to kivakit_serialization_properties--><path d="M1267.9688,205.8486 C1309.0104,223.3382 1366.9583,248.0361 1409.3125,266.0882 " fill="none" id="kivakit_serialization_kryo-to-kivakit_serialization_properties" style="stroke:#545454;stroke-width:1.5625;"/><polygon fill="#545454" points="1414.3958,268.2549,1407.4004,260.7505,1409.6032,266.2158,1404.1379,268.4186,1414.3958,268.2549" style="stroke:#545454;stroke-width:1.5625;"/><!--MD5=[40faeed4b9f18330bf0f83fa88774571]
link kivakit_serialization_kryo to kryo--><path d="M1138.7292,205.8382 C1082.875,221.5778 1006.5208,244.3278 940.625,268.2861 C936.2604,269.8695 931.7292,271.6403 927.25,273.4528 " fill="none" id="kivakit_serialization_kryo-to-kryo" style="stroke:#545454;stroke-width:1.5625;"/><polygon fill="#545454" points="922.4271,275.4424,932.6824,275.7257,927.2431,273.4593,929.5095,268.02,922.4271,275.4424" style="stroke:#545454;stroke-width:1.5625;"/><!--MD5=[03df8de183ef6689edc51eb2e13fe23e]
link kivakit_serialization_kryo to kryo_serializers--><path d="M1310.9896,204.4632 C1387.1875,221.0049 1497.6042,245.4007 1593.75,268.2861 C1598.0833,269.3174 1602.5313,270.3903 1607.0208,271.4945 " fill="none" id="kivakit_serialization_kryo-to-kryo_serializers" style="stroke:#545454;stroke-width:1.5625;"/><polygon fill="#545454" points="1612.3021,272.7861,1604.1827,266.515,1607.2423,271.551,1602.2064,274.6106,1612.3021,272.7861" style="stroke:#545454;stroke-width:1.5625;"/><!--MD5=[3d312d8b1cc36eed503155bb7da7af54]
link kivakit_testing to kivakit_internal_testing--><path d="M1866.6667,206.234 C1866.6667,222.7028 1866.6667,245.4007 1866.6667,262.9528 " fill="none" id="kivakit_testing-to-kivakit_internal_testing" style="stroke:#545454;stroke-width:1.5625;"/><polygon fill="#545454" points="1866.6667,268.234,1870.8333,258.859,1866.6667,263.0257,1862.5,258.859,1866.6667,268.234" style="stroke:#545454;stroke-width:1.5625;"/><!--MD5=[c6853ac292364894b6592ed62b55b579]
link kivakit_testing to lexakai_annotations--><path d="M1907.8333,205.9736 C1940.9063,223.2757 1987.3229,247.5674 2021.625,265.5257 " fill="none" id="kivakit_testing-to-lexakai_annotations" style="stroke:#545454;stroke-width:1.5625;"/><polygon fill="#545454" points="2026.5938,268.1299,2020.2147,260.095,2021.9777,265.7176,2016.3551,267.4807,2026.5938,268.1299" style="stroke:#545454;stroke-width:1.5625;"/><!--MD5=[8c32f0e7b0abeba01afd276f5a66ee84]
link kryo to minlog--><path d="M865.0313,313.2653 C844.8021,330.2861 816.5521,354.0674 795.3333,371.932 " fill="none" id="kryo-to-minlog" style="stroke:#545454;stroke-width:1.5625;"/><polygon fill="#545454" points="791.1875,375.4215,801.0415,372.5665,795.1703,372.0653,795.6715,366.1941,791.1875,375.4215" style="stroke:#545454;stroke-width:1.5625;"/><!--MD5=[e75c16e47fcf6c43b15d3c25536a9ed0]
link kryo to objenesis--><path d="M918.1458,313.2653 C939.9688,330.359 970.5104,354.2653 993.3438,372.1507 " fill="none" id="kryo-to-objenesis" style="stroke:#545454;stroke-width:1.5625;"/><polygon fill="#545454" points="997.5208,375.4215,992.7059,366.3624,993.4192,372.2116,987.57,372.9249,997.5208,375.4215" style="stroke:#545454;stroke-width:1.5625;"/><!--MD5=[e061beb27669383d030ce0c5c656b006]
link kryo to reflectasm--><path d="M890.625,313.5257 C890.625,329.9945 890.625,352.6924 890.625,370.2445 " fill="none" id="kryo-to-reflectasm" style="stroke:#545454;stroke-width:1.5625;"/><polygon fill="#545454" points="890.625,375.5257,894.7917,366.1507,890.625,370.3174,886.4583,366.1507,890.625,375.5257" style="stroke:#545454;stroke-width:1.5625;"/><!--MD5=[06be619025488a8fc6e367cd26977cb4]
link mesakit_map_measurements to kivakit_commandline--><path d="M862.4167,97.6715 C759.8438,117.484 606.4792,147.0986 510.9688,165.5465 " fill="none" id="mesakit_map_measurements-to-kivakit_commandline" style="stroke:#545454;stroke-width:1.5625;"/><polygon fill="#545454" points="505.6146,166.5778,515.608,168.898,510.7291,165.5937,514.0334,160.7148,505.6146,166.5778" style="stroke:#545454;stroke-width:1.5625;"/><!--MD5=[611a2331137209e1b5ed7f383d0b5efc]
link mesakit_map_measurements to kivakit_math--><path d="M925.4479,98.682 C890.5208,116.057 841.4479,140.484 805.3229,158.4528 " fill="none" id="mesakit_map_measurements-to-kivakit_math" style="stroke:#545454;stroke-width:1.5625;"/><polygon fill="#545454" points="800.5313,160.8382,810.7805,160.3855,805.1927,158.5149,807.0632,152.9272,800.5313,160.8382" style="stroke:#545454;stroke-width:1.5625;"/><!--MD5=[f8c69e1966a81e8cbfa34bc1609a1575]
link mesakit_map_measurements to kivakit_serialization_kryo--><path d="M1019.4271,98.557 C1060.8229,116.0465 1119.2604,140.7445 1161.9688,158.7965 " fill="none" id="mesakit_map_measurements-to-kivakit_serialization_kryo" style="stroke:#545454;stroke-width:1.5625;"/><polygon fill="#545454" points="1167.0938,160.9632,1160.0786,153.4772,1162.2958,158.9368,1156.8363,161.1539,1167.0938,160.9632" style="stroke:#545454;stroke-width:1.5625;"/><!--MD5=[fce9b854693181580ada684d6fbe6249]
link mesakit_map_measurements to kivakit_serialization_kryo_testing--><path d="M968.75,98.9424 C968.75,115.4111 968.75,138.109 968.75,155.6611 " fill="none" id="mesakit_map_measurements-to-kivakit_serialization_kryo_testing" style="stroke:#545454;stroke-width:1.5625;"/><polygon fill="#545454" points="968.75,160.9424,972.9167,151.5674,968.75,155.734,964.5833,151.5674,968.75,160.9424" style="stroke:#545454;stroke-width:1.5625;"/><!--MD5=[8737aeca74bcd8cc1c0f9d048432f6ab]
link mesakit_map_measurements to kivakit_testing--><path d="M1075.2813,89.6195 C1262.7083,111.5882 1646.1771,156.5153 1800.3229,174.5778 " fill="none" id="mesakit_map_measurements-to-kivakit_testing" style="stroke:#545454;stroke-width:1.5625;"/><polygon fill="#545454" points="1805.7083,175.2028,1796.8853,169.9678,1800.5358,174.5934,1795.9102,178.2439,1805.7083,175.2028" style="stroke:#545454;stroke-width:1.5625;"/><!--MD5=[338783537f3f9263e4097f5ff0c514d3]
link reflectasm to asm--><path d="M890.625,420.8174 C890.625,437.2861 890.625,459.984 890.625,477.5361 " fill="none" id="reflectasm-to-asm" style="stroke:#545454;stroke-width:1.5625;"/><polygon fill="#545454" points="890.625,482.8174,894.7917,473.4424,890.625,477.609,886.4583,473.4424,890.625,482.8174" style="stroke:#545454;stroke-width:1.5625;"/><!--MD5=[1e939207fdb915122c9e9d523380d4d9]
@startuml

    !include lexakai.theme
    
    title "mesakit-map-measurements"
    
    artifact kryo
    artifact minlog
    artifact reflectasm
    artifact cactus_metadata
    artifact kivakit_collections
    artifact kivakit_commandline
    artifact kivakit_conversion
    artifact kivakit_core
    artifact kivakit_interfaces
    artifact kivakit_internal_testing
    artifact kivakit_math
    artifact kivakit_mixins
    artifact kivakit_resource
    artifact kivakit_serialization_core
    artifact kivakit_serialization_kryo_testing
    artifact kivakit_serialization_kryo
    artifact kivakit_serialization_properties
    artifact kivakit_testing
    artifact kivakit_validation
    artifact lexakai_annotations
    artifact mesakit_map_measurements
    artifact kryo_serializers
    artifact junit
    artifact commons_math
    artifact hamcrest_core
    artifact annotations
    artifact objenesis
    artifact asm
    junit - -> hamcrest_core
    kivakit_commandline - -> kivakit_collections
    kivakit_commandline - -> kivakit_conversion
    kivakit_commandline - -> kivakit_core
    kivakit_commandline - -> kivakit_validation
    kivakit_core - -> cactus_metadata
    kivakit_core - -> kivakit_interfaces
    kivakit_core - -> kivakit_mixins
    kivakit_internal_testing - -> annotations
    kivakit_internal_testing - -> junit
    kivakit_math - -> commons_math
    kivakit_serialization_kryo - -> kivakit_resource
    kivakit_serialization_kryo - -> kivakit_serialization_core
    kivakit_serialization_kryo - -> kivakit_serialization_properties
    kivakit_serialization_kryo - -> kryo
    kivakit_serialization_kryo - -> kryo_serializers
    kivakit_testing - -> kivakit_internal_testing
    kivakit_testing - -> lexakai_annotations
    kryo - -> minlog
    kryo - -> objenesis
    kryo - -> reflectasm
    mesakit_map_measurements - -> kivakit_commandline
    mesakit_map_measurements - -> kivakit_math
    mesakit_map_measurements - -> kivakit_serialization_kryo
    mesakit_map_measurements - -> kivakit_serialization_kryo_testing
    mesakit_map_measurements - -> kivakit_testing
    reflectasm - -> asm
    
@enduml

@startuml









skinparam backgroundColor #333333






skinparam  {
    defaultFontName   "Open Sans,Avenir,Nunito,Arial,Helvetica,SansSerif"
    defaultFontSize   12
    defaultTextAlignment left
    shadowing false
    RoundCorner 10
    TitleFontSize 18
}

skinparam defaultFontName       "Open Sans,Avenir,Nunito,Arial,Helvetica,SansSerif"
skinparam defaultFontSize       12
skinparam dpi                   100
skinparam shadowing             false
skinparam roundcorner           16
skinparam ParticipantPadding    40
skinparam BoxPadding            40
skinparam Padding               3
skinparam ArrowColor            #545454
skinparam stereotype {
    CBackgroundColor #0066cf
    CBorderColor #0086ef
    ABackgroundColor #C8Ac00
    ABorderColor #D8Bc00
    IBackgroundColor #008400
    IBorderColor #239c23
    EBackgroundColor #cf6300
    EBorderColor #ef8300
    NBackgroundColor #3380b9
    NBorderColor #004d86
}
skinparam title {
	FontColor	                 #c0c0c0
 	BorderColor                  #545454
	FontSize	    	         20
	BorderRoundCorner            16
	BorderThickness 	         1
	BackgroundColor              #48494b
}


skinparam legend {
	BackgroundColor #303030
	BorderColor #404040
	FontColor #a0a0a0
}

	skinparam swimlane {
	BorderColor #5e5e5e
	BorderThickness 2
	TitleBackgroundColor  #6d6d6d-#484848
	TitleFontColor #303030
}

skinparam activity {
		FontColor #C8Ac00
	BorderColor #333333
	BackgroundColor #333333-#333333
	BarColor #00FF00
	StartColor #0060a8
	EndColor #0060a8
	DiamondBackgroundColor #6d6d6d-#3a3a3a
  	DiamondBorderColor #3a3a3a
  	DiamondFontColor #fefefe
}


skinparam participant {
		FontColor #C8Ac00
	BorderColor #333333
	BackgroundColor #333333-#333333
	ParticipantBorderThickness 2
}


skinparam actor {
		FontColor #C8Ac00
	BorderColor #333333
	BackgroundColor #333333-#333333
}


skinparam arrow {
	Thickness 1.5
	Color #545454
	FontColor #a0a0a0
    FontStyle bold
    MessageAlignment center
}



skinparam sequence {
	BorderColor #303030
	TitleFontColor #303030
	BackgroundColor #333333
	StartColor #303030
	EndColor #303030
	BoxBackgroundColor #333333
	BoxBorderColor #484848
	BoxFontColor #484848
	LifeLineBorderColor #484848
	LifeLineBorderThickness 2
	LifeLineBackgroundColor #3a3a3a
	GroupBorderColor #484848
	GroupFontColor #484848
	GroupHeaderFontColor #0060a8
	GroupBackgroundColor #484848
	GroupHeaderBackgroundColor #333333
	DividerBackgroundColor #484848
    DividerBorderColor #484848
    DividerBorderThickness 2
    DividerFontColor #D8Bc00
	ReferenceBackgroundColor #333333
	ReferenceBorderColor #484848
	ReferenceFontColor #fefefe
	ReferenceHeaderBackgroundColor #484848
}


skinparam partition {
	BorderColor #303030
	FontColor #333333
	BackgroundColor #333333
}


skinparam collections {
		FontColor #C8Ac00
	BorderColor #333333
	BackgroundColor #333333-#333333
}


skinparam control {
		FontColor #C8Ac00
	BorderColor #333333
	BackgroundColor #333333-#333333
}


skinparam entity {
		FontColor #C8Ac00
	BorderColor #333333
	BackgroundColor #333333-#333333
}


skinparam boundary {
		FontColor #C8Ac00
	BorderColor #333333
	BackgroundColor #333333-#333333
}


skinparam agent {
	BackgroundColor #ff8000
	BorderColor #ff9933
	FontColor #484848
}


skinparam note {
	BorderThickness 1
	BackgroundColor #1b1b1a
	BorderColor #5e5e5e
	FontSize 11
	FontColor #a0a0a0
}


skinparam artifact {
	BorderThickness 10
	BorderColor #5e5e5e
	BackgroundColor #1b1b1a
	FontColor #D8Bc00
}


skinparam component {
		FontColor #C8Ac00
	BorderColor #333333
	BackgroundColor #333333-#333333
}


skinparam interface {
	BackgroundColor  #008400
	BorderColor  #007F00
	FontColor #484848
}


skinparam storage {
	BackgroundColor #ff8000
  	BorderColor #cc6600
	FontColor #222222
}


skinparam node {
	BackgroundColor #333333
	BorderColor #333333
	FontColor #C8Ac00
}


skinparam cloud {
	BackgroundColor #484848-black
	BorderColor #484848
	FontColor #D8Bc00
}


skinparam database {
		FontColor #C8Ac00
	BorderColor #333333
	BackgroundColor #333333-#333333
	BackgroundColor  #333333
}


skinparam class {
		FontColor #C8Ac00
	BorderColor #333333
	BackgroundColor #333333-#333333
	HeaderBackgroundColor #1b1b1a
    BackgroundColor #282828
    BorderColor #5e5e5e
 	StereotypeFontColor #a0a0a0
    StereotypeFontStyle bold
	BorderThickness 1
	AttributeFontColor #D8Bc00
	AttributeFontSize 11
    FontColor #D8Bc00
    FontStyle bold
}


skinparam object {
		FontColor #C8Ac00
	BorderColor #333333
	BackgroundColor #333333-#333333
	StereotypeFontColor #484848
	BorderThickness 1
	AttributeFontColor #fefefe
	AttributeFontSize 11
}


skinparam usecase {
		FontColor #C8Ac00
	BorderColor #333333
	BackgroundColor #333333-#333333
	BorderThickness 2
	StereotypeFontColor #303030
}


skinparam rectangle {
		FontColor #C8Ac00
	BorderColor #333333
	BackgroundColor #333333-#333333
	BackgroundColor #333333
	BorderThickness 2
	StereotypeFontColor #303030
}


skinparam package {
		FontColor #C8Ac00
	BorderColor #333333
	BackgroundColor #333333-#333333
	BackgroundColor #333333
	BorderThickness 2
}


skinparam folder {
	BackgroundColor #6d6d6d
  	BorderColor #ff8000
	FontColor #ff8000
	BorderThickness 2
}


skinparam frame {
	BackgroundColor #6d6d6d
  	BorderColor #0060a8
	FontColor #0060a8
	BorderThickness 2
}


skinparam state {
		FontColor #C8Ac00
	BorderColor #333333
	BackgroundColor #333333-#333333
	StartColor #0060a8
	EndColor #0060a8
	AttributeFontColor #fefefe
	AttributeFontSize 11
}


skinparam queue {
		FontColor #C8Ac00
	BorderColor #333333
	BackgroundColor #333333-#333333
}


skinparam card {
	BackgroundColor #0060a8
	BorderColor #004d86
	FontColor $INFO_TEXT
}


skinparam file {
	BackgroundColor #6d6d6d-#484848
	BorderColor #0060a8
	FontColor #fefefe
}


skinparam stack {
		FontColor #C8Ac00
	BorderColor #333333
	BackgroundColor #333333-#333333
}

    
    title "mesakit-map-measurements"
    
    artifact kryo
    artifact minlog
    artifact reflectasm
    artifact cactus_metadata
    artifact kivakit_collections
    artifact kivakit_commandline
    artifact kivakit_conversion
    artifact kivakit_core
    artifact kivakit_interfaces
    artifact kivakit_internal_testing
    artifact kivakit_math
    artifact kivakit_mixins
    artifact kivakit_resource
    artifact kivakit_serialization_core
    artifact kivakit_serialization_kryo_testing
    artifact kivakit_serialization_kryo
    artifact kivakit_serialization_properties
    artifact kivakit_testing
    artifact kivakit_validation
    artifact lexakai_annotations
    artifact mesakit_map_measurements
    artifact kryo_serializers
    artifact junit
    artifact commons_math
    artifact hamcrest_core
    artifact annotations
    artifact objenesis
    artifact asm
    junit - -> hamcrest_core
    kivakit_commandline - -> kivakit_collections
    kivakit_commandline - -> kivakit_conversion
    kivakit_commandline - -> kivakit_core
    kivakit_commandline - -> kivakit_validation
    kivakit_core - -> cactus_metadata
    kivakit_core - -> kivakit_interfaces
    kivakit_core - -> kivakit_mixins
    kivakit_internal_testing - -> annotations
    kivakit_internal_testing - -> junit
    kivakit_math - -> commons_math
    kivakit_serialization_kryo - -> kivakit_resource
    kivakit_serialization_kryo - -> kivakit_serialization_core
    kivakit_serialization_kryo - -> kivakit_serialization_properties
    kivakit_serialization_kryo - -> kryo
    kivakit_serialization_kryo - -> kryo_serializers
    kivakit_testing - -> kivakit_internal_testing
    kivakit_testing - -> lexakai_annotations
    kryo - -> minlog
    kryo - -> objenesis
    kryo - -> reflectasm
    mesakit_map_measurements - -> kivakit_commandline
    mesakit_map_measurements - -> kivakit_math
    mesakit_map_measurements - -> kivakit_serialization_kryo
    mesakit_map_measurements - -> kivakit_serialization_kryo_testing
    mesakit_map_measurements - -> kivakit_testing
    reflectasm - -> asm
    
@enduml

PlantUML version 1.2021.01(Tue Feb 02 02:55:08 EST 2021)
(GPL source distribution)
Java Runtime: OpenJDK Runtime Environment
JVM: OpenJDK 64-Bit Server VM
Default Encoding: UTF-8
Language: en
Country: US
--></g></svg>