<?xml version="1.0" encoding="UTF-8" standalone="no"?><svg xmlns="http://www.w3.org/2000/svg" xmlns:xlink="http://www.w3.org/1999/xlink" contentScriptType="application/ecmascript" contentStyleType="text/css" height="664.5833px" preserveAspectRatio="none" style="width:592px;height:664px;background:#333333;" version="1.1" viewBox="0 0 592 664" width="592.7083px" zoomAndPan="magnify"><defs/><g><rect fill="#48494B" height="41.2028" rx="8.3333" ry="8.3333" style="stroke:#545454;stroke-width:1.0416666666666667;" width="373.9583" x="102.3438" y="2.0833"/><text fill="#C0C0C0" font-family="Open Sans,Avenir,Nunito,Arial,Helvetica,SansSerif" font-size="20.8333" lengthAdjust="spacing" textLength="351.0417" x="113.8021" y="30.5583">com.telenav.mesakit.map.overpass</text><!--MD5=[784d533083758286c885e86b9fe3090e]
class BaseComponent--><rect codeLine="7" fill="#282828" height="48.055" id="BaseComponent" rx="8.3333" ry="8.3333" style="stroke:#5E5E5E;stroke-width:1.0416666666666667;" width="143.75" x="32.8125" y="214.6403"/><rect fill="#1B1B1A" height="31.3883" rx="8.3333" ry="8.3333" style="stroke:#1B1B1A;stroke-width:1.0416666666666667;" width="143.75" x="32.8125" y="214.6403"/><rect fill="#1B1B1A" height="8.3333" style="stroke:#1B1B1A;stroke-width:1.0416666666666667;" width="143.75" x="32.8125" y="237.6953"/><rect codeLine="7" fill="none" height="48.055" id="BaseComponent" rx="8.3333" ry="8.3333" style="stroke:#5E5E5E;stroke-width:1.0416666666666667;" width="143.75" x="32.8125" y="214.6403"/><ellipse cx="47.3958" cy="230.3345" fill="#C8AC00" rx="10.4167" ry="10.4167" style="stroke:#D8BC00;stroke-width:1.0416666666666667;"/><path d="M46.9889,227.0365 L46.1405,230.7658 L47.8434,230.7658 Z M45.8903,225.3886 L48.0937,225.3886 L50.5534,234.5011 L48.7528,234.5011 L48.1913,232.2489 L45.7804,232.2489 L45.2311,234.5011 L43.4306,234.5011 Z " fill="#000000"/><text fill="#D8BC00" font-family="Open Sans,Avenir,Nunito,Arial,Helvetica,SansSerif" font-size="12.5" font-style="italic" font-weight="bold" lengthAdjust="spacing" textLength="106.25" x="64.0625" y="235.0586">BaseComponent</text><line style="stroke:#5E5E5E;stroke-width:1.0416666666666667;" x1="33.8542" x2="175.5208" y1="246.0286" y2="246.0286"/><line style="stroke:#5E5E5E;stroke-width:1.0416666666666667;" x1="33.8542" x2="175.5208" y1="254.362" y2="254.362"/><!--MD5=[762aa3d0df6a9d47bd8e105afbd066b5]
class BaseRepeater--><rect codeLine="8" fill="#282828" height="48.055" id="BaseRepeater" rx="8.3333" ry="8.3333" style="stroke:#5E5E5E;stroke-width:1.0416666666666667;" width="123.9583" x="294.7917" y="53.7028"/><rect fill="#1B1B1A" height="31.3883" rx="8.3333" ry="8.3333" style="stroke:#1B1B1A;stroke-width:1.0416666666666667;" width="123.9583" x="294.7917" y="53.7028"/><rect fill="#1B1B1A" height="8.3333" style="stroke:#1B1B1A;stroke-width:1.0416666666666667;" width="123.9583" x="294.7917" y="76.7578"/><rect codeLine="8" fill="none" height="48.055" id="BaseRepeater" rx="8.3333" ry="8.3333" style="stroke:#5E5E5E;stroke-width:1.0416666666666667;" width="123.9583" x="294.7917" y="53.7028"/><ellipse cx="309.375" cy="69.397" fill="#C8AC00" rx="10.4167" ry="10.4167" style="stroke:#D8BC00;stroke-width:1.0416666666666667;"/><path d="M308.9681,66.099 L308.1197,69.8283 L309.8226,69.8283 Z M307.8695,64.4511 L310.0728,64.4511 L312.5326,73.5636 L310.732,73.5636 L310.1705,71.3114 L307.7596,71.3114 L307.2103,73.5636 L305.4097,73.5636 Z " fill="#000000"/><text fill="#D8BC00" font-family="Open Sans,Avenir,Nunito,Arial,Helvetica,SansSerif" font-size="12.5" font-style="italic" font-weight="bold" lengthAdjust="spacing" textLength="86.4583" x="326.0417" y="74.1211">BaseRepeater</text><line style="stroke:#5E5E5E;stroke-width:1.0416666666666667;" x1="295.8333" x2="417.7083" y1="85.0911" y2="85.0911"/><line style="stroke:#5E5E5E;stroke-width:1.0416666666666667;" x1="295.8333" x2="417.7083" y1="93.4245" y2="93.4245"/><!--MD5=[96fa6dd777b565a8f2e28c57d8998f3c]
class OverpassDataDownloader--><rect codeLine="14" fill="#282828" height="146.7794" id="OverpassDataDownloader" rx="8.3333" ry="8.3333" style="stroke:#5E5E5E;stroke-width:1.0416666666666667;" width="287.5" x="213.0208" y="165.1611"/><rect fill="#1B1B1A" height="31.3883" rx="8.3333" ry="8.3333" style="stroke:#1B1B1A;stroke-width:1.0416666666666667;" width="287.5" x="213.0208" y="165.1611"/><rect fill="#1B1B1A" height="8.3333" style="stroke:#1B1B1A;stroke-width:1.0416666666666667;" width="287.5" x="213.0208" y="188.2161"/><rect codeLine="14" fill="none" height="146.7794" id="OverpassDataDownloader" rx="8.3333" ry="8.3333" style="stroke:#5E5E5E;stroke-width:1.0416666666666667;" width="287.5" x="213.0208" y="165.1611"/><ellipse cx="265.1042" cy="180.8553" fill="#0066CF" rx="10.4167" ry="10.4167" style="stroke:#0086EF;stroke-width:1.0416666666666667;"/><path d="M267.0146,185.2804 Q266.5873,185.5001 266.1174,185.6099 Q265.6474,185.7198 265.1286,185.7198 Q263.2853,185.7198 262.3149,184.5052 Q261.3444,183.2906 261.3444,180.9957 Q261.3444,178.6947 262.3149,177.4801 Q263.2853,176.2655 265.1286,176.2655 Q265.6474,176.2655 266.1235,176.3753 Q266.5995,176.4852 267.0146,176.7049 L267.0146,178.7069 Q266.5507,178.2796 266.1143,178.0813 Q265.6779,177.8829 265.214,177.8829 Q264.2253,177.8829 263.7217,178.6672 Q263.2182,179.4515 263.2182,180.9957 Q263.2182,182.5338 263.7217,183.3181 Q264.2253,184.1024 265.214,184.1024 Q265.6779,184.1024 266.1143,183.904 Q266.5507,183.7056 267.0146,183.2784 Z " fill="#000000"/><text fill="#D8BC00" font-family="Open Sans,Avenir,Nunito,Arial,Helvetica,SansSerif" font-size="12.5" font-weight="bold" lengthAdjust="spacing" textLength="168.75" x="288.0208" y="185.5794">OverpassDataDownloader</text><line style="stroke:#5E5E5E;stroke-width:1.5625;" x1="214.0625" x2="499.4792" y1="196.5495" y2="196.5495"/><ellipse cx="224.4792" cy="231.9194" fill="#84BE84" rx="3.125" ry="3.125" style="stroke:#038048;stroke-width:1.0416666666666667;"/><text fill="#D8BC00" font-family="Open Sans,Avenir,Nunito,Arial,Helvetica,SansSerif" font-size="11.4583" lengthAdjust="spacing" textLength="188.5417" x="235.9375" y="238.8306">OverpassDataDownloader(Folder)</text><line style="stroke:#5E5E5E;stroke-width:1.0416666666666667;" x1="214.0625" x2="313.0208" y1="214.7552" y2="214.7552"/><text fill="#D8BC00" font-family="Open Sans,Avenir,Nunito,Arial,Helvetica,SansSerif" font-size="11.4583" lengthAdjust="spacing" textLength="81.25" x="316.1458" y="218.5649">(constructors)</text><line style="stroke:#5E5E5E;stroke-width:1.0416666666666667;" x1="400.5208" x2="499.4792" y1="214.7552" y2="214.7552"/><ellipse cx="224.4792" cy="275.5758" fill="#84BE84" rx="3.125" ry="3.125" style="stroke:#038048;stroke-width:1.0416666666666667;"/><text fill="#D8BC00" font-family="Open Sans,Avenir,Nunito,Arial,Helvetica,SansSerif" font-size="11.4583" lengthAdjust="spacing" textLength="255.2083" x="235.9375" y="282.487">File osm(String descriptor, Rectangle bounds)</text><ellipse cx="224.4792" cy="295.3206" fill="#84BE84" rx="3.125" ry="3.125" style="stroke:#038048;stroke-width:1.0416666666666667;"/><text fill="#D8BC00" font-family="Open Sans,Avenir,Nunito,Arial,Helvetica,SansSerif" font-size="11.4583" lengthAdjust="spacing" textLength="248.9583" x="235.9375" y="302.2319">File pbf(String baseName, Rectangle bounds)</text><line style="stroke:#5E5E5E;stroke-width:1.0416666666666667;" x1="214.0625" x2="321.3542" y1="258.4117" y2="258.4117"/><text fill="#D8BC00" font-family="Open Sans,Avenir,Nunito,Arial,Helvetica,SansSerif" font-size="11.4583" lengthAdjust="spacing" textLength="64.5833" x="324.4792" y="262.2213">(filesystem)</text><line style="stroke:#5E5E5E;stroke-width:1.0416666666666667;" x1="392.1875" x2="499.4792" y1="258.4117" y2="258.4117"/><!--MD5=[a6e03791e001d3ab04cfa45eed53df94]
class OsmToPbfConverter--><rect fill="#282828" height="48.055" id="OsmToPbfConverter" rx="8.3333" ry="8.3333" style="stroke:#5E5E5E;stroke-width:1.0416666666666667;" width="168.75" x="270.3125" y="437.0361"/><rect fill="#1B1B1A" height="31.3883" rx="8.3333" ry="8.3333" style="stroke:#1B1B1A;stroke-width:1.0416666666666667;" width="168.75" x="270.3125" y="437.0361"/><rect fill="#1B1B1A" height="8.3333" style="stroke:#1B1B1A;stroke-width:1.0416666666666667;" width="168.75" x="270.3125" y="460.0911"/><rect fill="none" height="48.055" id="OsmToPbfConverter" rx="8.3333" ry="8.3333" style="stroke:#5E5E5E;stroke-width:1.0416666666666667;" width="168.75" x="270.3125" y="437.0361"/><ellipse cx="284.8958" cy="452.7303" fill="#0066CF" rx="10.4167" ry="10.4167" style="stroke:#0086EF;stroke-width:1.0416666666666667;"/><path d="M286.8062,457.1554 Q286.379,457.3751 285.909,457.4849 Q285.439,457.5948 284.9202,457.5948 Q283.077,457.5948 282.1065,456.3802 Q281.1361,455.1656 281.1361,452.8707 Q281.1361,450.5697 282.1065,449.3551 Q283.077,448.1405 284.9202,448.1405 Q285.439,448.1405 285.9151,448.2503 Q286.3912,448.3602 286.8062,448.5799 L286.8062,450.5819 Q286.3424,450.1546 285.906,449.9563 Q285.4696,449.7579 285.0057,449.7579 Q284.0169,449.7579 283.5134,450.5422 Q283.0098,451.3265 283.0098,452.8707 Q283.0098,454.4088 283.5134,455.1931 Q284.0169,455.9774 285.0057,455.9774 Q285.4696,455.9774 285.906,455.779 Q286.3424,455.5806 286.8062,455.1534 Z " fill="#000000"/><text fill="#D8BC00" font-family="Open Sans,Avenir,Nunito,Arial,Helvetica,SansSerif" font-size="12.5" font-weight="bold" lengthAdjust="spacing" textLength="131.25" x="301.5625" y="457.4544">OsmToPbfConverter</text><line style="stroke:#5E5E5E;stroke-width:1.0416666666666667;" x1="271.3542" x2="438.0208" y1="468.4245" y2="468.4245"/><line style="stroke:#5E5E5E;stroke-width:1.0416666666666667;" x1="271.3542" x2="438.0208" y1="476.7578" y2="476.7578"/><!--MD5=[bd8dd72c740f0b6f80045c4c0d2213b7]
class OverpassOsmResource--><rect codeLine="25" fill="#282828" height="127.0345" id="OverpassOsmResource" rx="8.3333" ry="8.3333" style="stroke:#5E5E5E;stroke-width:1.0416666666666667;" width="226.0417" x="7.2917" y="397.4528"/><rect fill="#1B1B1A" height="31.3883" rx="8.3333" ry="8.3333" style="stroke:#1B1B1A;stroke-width:1.0416666666666667;" width="226.0417" x="7.2917" y="397.4528"/><rect fill="#1B1B1A" height="8.3333" style="stroke:#1B1B1A;stroke-width:1.0416666666666667;" width="226.0417" x="7.2917" y="420.5078"/><rect codeLine="25" fill="none" height="127.0345" id="OverpassOsmResource" rx="8.3333" ry="8.3333" style="stroke:#5E5E5E;stroke-width:1.0416666666666667;" width="226.0417" x="7.2917" y="397.4528"/><ellipse cx="39.6875" cy="413.147" fill="#0066CF" rx="10.4167" ry="10.4167" style="stroke:#0086EF;stroke-width:1.0416666666666667;"/><path d="M41.5979,417.572 Q41.1707,417.7917 40.7007,417.9016 Q40.2307,418.0115 39.7119,418.0115 Q37.8687,418.0115 36.8982,416.7969 Q35.9277,415.5823 35.9277,413.2874 Q35.9277,410.9863 36.8982,409.7717 Q37.8687,408.5571 39.7119,408.5571 Q40.2307,408.5571 40.7068,408.667 Q41.1829,408.7769 41.5979,408.9966 L41.5979,410.9985 Q41.134,410.5713 40.6976,410.3729 Q40.2612,410.1746 39.7974,410.1746 Q38.8086,410.1746 38.3051,410.9589 Q37.8015,411.7432 37.8015,413.2874 Q37.8015,414.8254 38.3051,415.6097 Q38.8086,416.394 39.7974,416.394 Q40.2612,416.394 40.6976,416.1957 Q41.134,415.9973 41.5979,415.5701 Z " fill="#000000"/><text fill="#D8BC00" font-family="Open Sans,Avenir,Nunito,Arial,Helvetica,SansSerif" font-size="12.5" font-weight="bold" lengthAdjust="spacing" textLength="148.9583" x="60.3125" y="417.8711">OverpassOsmResource</text><line style="stroke:#5E5E5E;stroke-width:1.5625;" x1="8.3333" x2="232.2917" y1="428.8411" y2="428.8411"/><ellipse cx="18.75" cy="464.211" fill="#84BE84" rx="3.125" ry="3.125" style="stroke:#038048;stroke-width:1.0416666666666667;"/><text fill="#D8BC00" font-family="Open Sans,Avenir,Nunito,Arial,Helvetica,SansSerif" font-size="11.4583" lengthAdjust="spacing" textLength="193.75" x="30.2083" y="471.1222">OverpassOsmResource(Rectangle)</text><line style="stroke:#5E5E5E;stroke-width:1.0416666666666667;" x1="8.3333" x2="76.5625" y1="447.0469" y2="447.0469"/><text fill="#D8BC00" font-family="Open Sans,Avenir,Nunito,Arial,Helvetica,SansSerif" font-size="11.4583" lengthAdjust="spacing" textLength="81.25" x="79.6875" y="450.8565">(constructors)</text><line style="stroke:#5E5E5E;stroke-width:1.0416666666666667;" x1="164.0625" x2="232.2917" y1="447.0469" y2="447.0469"/><ellipse cx="18.75" cy="507.8674" fill="#84BE84" rx="3.125" ry="3.125" style="stroke:#038048;stroke-width:1.0416666666666667;"/><text fill="#D8BC00" font-family="Open Sans,Avenir,Nunito,Arial,Helvetica,SansSerif" font-size="11.4583" lengthAdjust="spacing" textLength="186.4583" x="30.2083" y="514.7786">void safeCopyTo(File destination)</text><line style="stroke:#5E5E5E;stroke-width:1.0416666666666667;" x1="8.3333" x2="84.8958" y1="490.7033" y2="490.7033"/><text fill="#D8BC00" font-family="Open Sans,Avenir,Nunito,Arial,Helvetica,SansSerif" font-size="11.4583" lengthAdjust="spacing" textLength="64.5833" x="88.0208" y="494.5129">(filesystem)</text><line style="stroke:#5E5E5E;stroke-width:1.0416666666666667;" x1="155.7292" x2="232.2917" y1="490.7033" y2="490.7033"/><!--MD5=[d1dcc9c41ef051a777528f9336a950e3]
class Folder--><rect fill="#282828" height="48.055" id="Folder" rx="8.3333" ry="8.3333" style="stroke:#5E5E5E;stroke-width:1.0416666666666667;" width="78.125" x="277.0833" y="609.9528"/><rect fill="#1B1B1A" height="31.3883" rx="8.3333" ry="8.3333" style="stroke:#1B1B1A;stroke-width:1.0416666666666667;" width="78.125" x="277.0833" y="609.9528"/><rect fill="#1B1B1A" height="8.3333" style="stroke:#1B1B1A;stroke-width:1.0416666666666667;" width="78.125" x="277.0833" y="633.0078"/><rect fill="none" height="48.055" id="Folder" rx="8.3333" ry="8.3333" style="stroke:#5E5E5E;stroke-width:1.0416666666666667;" width="78.125" x="277.0833" y="609.9528"/><ellipse cx="291.6667" cy="625.647" fill="#0066CF" rx="10.4167" ry="10.4167" style="stroke:#0086EF;stroke-width:1.0416666666666667;"/><path d="M293.5771,630.072 Q293.1498,630.2917 292.6799,630.4016 Q292.2099,630.5115 291.6911,630.5115 Q289.8478,630.5115 288.8774,629.2969 Q287.9069,628.0823 287.9069,625.7874 Q287.9069,623.4863 288.8774,622.2717 Q289.8478,621.0571 291.6911,621.0571 Q292.2099,621.0571 292.686,621.167 Q293.162,621.2769 293.5771,621.4966 L293.5771,623.4985 Q293.1132,623.0713 292.6768,622.8729 Q292.2404,622.6746 291.7765,622.6746 Q290.7878,622.6746 290.2842,623.4589 Q289.7807,624.2432 289.7807,625.7874 Q289.7807,627.3254 290.2842,628.1097 Q290.7878,628.894 291.7765,628.894 Q292.2404,628.894 292.6768,628.6957 Q293.1132,628.4973 293.5771,628.0701 Z " fill="#000000"/><text fill="#D8BC00" font-family="Open Sans,Avenir,Nunito,Arial,Helvetica,SansSerif" font-size="12.5" font-weight="bold" lengthAdjust="spacing" textLength="40.625" x="308.3333" y="630.3711">Folder</text><line style="stroke:#5E5E5E;stroke-width:1.0416666666666667;" x1="278.125" x2="354.1667" y1="641.3411" y2="641.3411"/><line style="stroke:#5E5E5E;stroke-width:1.0416666666666667;" x1="278.125" x2="354.1667" y1="649.6745" y2="649.6745"/><!--MD5=[4605f201512db6eb7a7e8cdcaebd2f1f]
reverse link BaseRepeater to OverpassDataDownloader--><path codeLine="10" d="M356.7708,123.0674 C356.7708,136.0361 356.7708,150.5778 356.7708,164.8174 " fill="none" id="BaseRepeater-backto-OverpassDataDownloader" style="stroke:#545454;stroke-width:1.5625;"/><polygon fill="none" points="349.4792,122.6299,356.7708,101.7965,364.0625,122.6299,349.4792,122.6299" style="stroke:#545454;stroke-width:1.5625;"/><!--MD5=[746960e65895855b8676357ca0fdd7cb]
link OverpassDataDownloader to OsmToPbfConverter--><path codeLine="11" d="M356.0833,312.0882 C355.6979,352.7028 355.2396,401.0882 354.9583,431.1715 " fill="none" id="OverpassDataDownloader-to-OsmToPbfConverter" style="stroke:#545454;stroke-width:1.5625;"/><polygon fill="#545454" points="354.9063,436.5778,359.1531,427.2389,354.9509,431.3697,350.8201,427.1674,354.9063,436.5778" style="stroke:#545454;stroke-width:1.5625;"/><text fill="#A0A0A0" font-family="Open Sans,Avenir,Nunito,Arial,Helvetica,SansSerif" font-size="12.5" font-weight="bold" lengthAdjust="spacing" textLength="119.7917" x="359.8958" y="359.5378">converts data with</text><!--MD5=[d0497d39f440bd4d744037c74b8a6491]
link OverpassDataDownloader to OverpassOsmResource--><path codeLine="12" d="M238.75,312.2861 C226.0104,322.057 213.6771,332.4632 202.6042,343.2861 C187.5729,357.984 173.4688,375.7445 161.3333,392.932 " fill="none" id="OverpassDataDownloader-to-OverpassOsmResource" style="stroke:#545454;stroke-width:1.5625;"/><polygon fill="#545454" points="158.2813,397.2861,167.0722,391.9973,161.269,393.02,160.2463,387.2169,158.2813,397.2861" style="stroke:#545454;stroke-width:1.5625;"/><text fill="#A0A0A0" font-family="Open Sans,Avenir,Nunito,Arial,Helvetica,SansSerif" font-size="12.5" font-weight="bold" lengthAdjust="spacing" textLength="135.4167" x="206.7708" y="359.5378">downloads data with</text><!--MD5=[3c26438dbc605289fb425a16747b2b0f]
reverse link OverpassDataDownloader to Folder--><path codeLine="13" d="M476.3958,322.682 C481.25,329.1924 485.5417,336.057 489.0625,343.2861 C493.5208,352.4424 490.0521,356.0674 489.0625,366.2028 C482.0833,437.5882 495.6979,463.6299 457.8125,524.5361 C433.0417,564.3695 387.9688,594.9945 355.3125,613.359 " fill="none" id="OverpassDataDownloader-backto-Folder" style="stroke:#545454;stroke-width:1.5625;"/><polygon fill="#333333" points="467.7083,312.0674,468.4424,319.543,475.6253,321.7406,474.8912,314.265,467.7083,312.0674" style="stroke:#545454;stroke-width:1.5625;"/><text fill="#A0A0A0" font-family="Open Sans,Avenir,Nunito,Arial,Helvetica,SansSerif" font-size="12.5" font-weight="bold" lengthAdjust="spacing" textLength="91.6667" x="490.1042" y="465.7878">caches data in</text><!--MD5=[ed899662291d3fd24f9006dc9f5e3ed4]
reverse link BaseComponent to OverpassOsmResource--><path codeLine="23" d="M107.8333,284.0257 C110.1354,316.484 113.2917,360.9736 115.8542,397.0986 " fill="none" id="BaseComponent-backto-OverpassOsmResource" style="stroke:#545454;stroke-width:1.5625;"/><polygon fill="none" points="100.5313,284.0986,106.3333,262.7965,115.0729,283.0674,100.5313,284.0986" style="stroke:#545454;stroke-width:1.5625;"/><!--MD5=[4c56013a89f23f8a7862ec7ab51f3832]
link OverpassOsmResource to Folder--><path codeLine="24" d="M192.125,524.682 C224.3125,552.7653 260.5729,584.3903 285.5313,606.1611 " fill="none" id="OverpassOsmResource-to-Folder" style="stroke:#545454;stroke-width:1.5625;"/><polygon fill="#545454" points="289.75,609.8382,285.4359,600.5302,285.8294,606.4096,279.95,606.8031,289.75,609.8382" style="stroke:#545454;stroke-width:1.5625;"/><text fill="#A0A0A0" font-family="Open Sans,Avenir,Nunito,Arial,Helvetica,SansSerif" font-size="12.5" font-weight="bold" lengthAdjust="spacing" textLength="91.6667" x="256.7708" y="572.0378">copies data to</text><!--MD5=[6c3b81e1309989d87795e46649950e79]
@startuml

    !include lexakai.theme
    
    title "com.telenav.mesakit.map.overpass"
    
    abstract BaseComponent
    abstract BaseRepeater
    
    BaseRepeater <|- - OverpassDataDownloader
    OverpassDataDownloader - -> OsmToPbfConverter : "converts data with"
    OverpassDataDownloader - -> OverpassOsmResource : "downloads data with"
    OverpassDataDownloader o- - Folder : "caches data in"
    class OverpassDataDownloader
    {
        - -(constructors)- -
        +OverpassDataDownloader(Folder)
        - -(filesystem)- -
        +File osm(String descriptor, Rectangle bounds)
        +File pbf(String baseName, Rectangle bounds)
    }
    
    BaseComponent <|- - OverpassOsmResource
    OverpassOsmResource - -> Folder : "copies data to"
    class OverpassOsmResource
    {
        - -(constructors)- -
        +OverpassOsmResource(Rectangle)
        - -(filesystem)- -
        +void safeCopyTo(File destination)
    }
    
@enduml

@startuml









skinparam backgroundColor #333333






skinparam  {
    defaultFontName   "Open Sans,Avenir,Nunito,Arial,Helvetica,SansSerif"
    defaultFontSize   12
    defaultTextAlignment left
    shadowing false
    RoundCorner 10
    TitleFontSize 18
}

skinparam defaultFontName       "Open Sans,Avenir,Nunito,Arial,Helvetica,SansSerif"
skinparam defaultFontSize       12
skinparam dpi                   100
skinparam shadowing             false
skinparam roundcorner           16
skinparam ParticipantPadding    40
skinparam BoxPadding            40
skinparam Padding               3
skinparam ArrowColor            #545454
skinparam stereotype {
    CBackgroundColor #0066cf
    CBorderColor #0086ef
    ABackgroundColor #C8Ac00
    ABorderColor #D8Bc00
    IBackgroundColor #008400
    IBorderColor #239c23
    EBackgroundColor #cf6300
    EBorderColor #ef8300
    NBackgroundColor #3380b9
    NBorderColor #004d86
}
skinparam title {
	FontColor	                 #c0c0c0
 	BorderColor                  #545454
	FontSize	    	         20
	BorderRoundCorner            16
	BorderThickness 	         1
	BackgroundColor              #48494b
}


skinparam legend {
	BackgroundColor #303030
	BorderColor #404040
	FontColor #a0a0a0
}

	skinparam swimlane {
	BorderColor #5e5e5e
	BorderThickness 2
	TitleBackgroundColor  #6d6d6d-#484848
	TitleFontColor #303030
}

skinparam activity {
		FontColor #C8Ac00
	BorderColor #333333
	BackgroundColor #333333-#333333
	BarColor #00FF00
	StartColor #0060a8
	EndColor #0060a8
	DiamondBackgroundColor #6d6d6d-#3a3a3a
  	DiamondBorderColor #3a3a3a
  	DiamondFontColor #fefefe
}


skinparam participant {
		FontColor #C8Ac00
	BorderColor #333333
	BackgroundColor #333333-#333333
	ParticipantBorderThickness 2
}


skinparam actor {
		FontColor #C8Ac00
	BorderColor #333333
	BackgroundColor #333333-#333333
}


skinparam arrow {
	Thickness 1.5
	Color #545454
	FontColor #a0a0a0
    FontStyle bold
    MessageAlignment center
}



skinparam sequence {
	BorderColor #303030
	TitleFontColor #303030
	BackgroundColor #333333
	StartColor #303030
	EndColor #303030
	BoxBackgroundColor #333333
	BoxBorderColor #484848
	BoxFontColor #484848
	LifeLineBorderColor #484848
	LifeLineBorderThickness 2
	LifeLineBackgroundColor #3a3a3a
	GroupBorderColor #484848
	GroupFontColor #484848
	GroupHeaderFontColor #0060a8
	GroupBackgroundColor #484848
	GroupHeaderBackgroundColor #333333
	DividerBackgroundColor #484848
    DividerBorderColor #484848
    DividerBorderThickness 2
    DividerFontColor #D8Bc00
	ReferenceBackgroundColor #333333
	ReferenceBorderColor #484848
	ReferenceFontColor #fefefe
	ReferenceHeaderBackgroundColor #484848
}


skinparam partition {
	BorderColor #303030
	FontColor #333333
	BackgroundColor #333333
}


skinparam collections {
		FontColor #C8Ac00
	BorderColor #333333
	BackgroundColor #333333-#333333
}


skinparam control {
		FontColor #C8Ac00
	BorderColor #333333
	BackgroundColor #333333-#333333
}


skinparam entity {
		FontColor #C8Ac00
	BorderColor #333333
	BackgroundColor #333333-#333333
}


skinparam boundary {
		FontColor #C8Ac00
	BorderColor #333333
	BackgroundColor #333333-#333333
}


skinparam agent {
	BackgroundColor #ff8000
	BorderColor #ff9933
	FontColor #484848
}


skinparam note {
	BorderThickness 1
	BackgroundColor #1b1b1a
	BorderColor #5e5e5e
	FontSize 11
	FontColor #a0a0a0
}


skinparam artifact {
	BorderThickness 10
	BorderColor #5e5e5e
	BackgroundColor #1b1b1a
	FontColor #D8Bc00
}


skinparam component {
		FontColor #C8Ac00
	BorderColor #333333
	BackgroundColor #333333-#333333
}


skinparam interface {
	BackgroundColor  #008400
	BorderColor  #007F00
	FontColor #484848
}


skinparam storage {
	BackgroundColor #ff8000
  	BorderColor #cc6600
	FontColor #222222
}


skinparam node {
	BackgroundColor #333333
	BorderColor #333333
	FontColor #C8Ac00
}


skinparam cloud {
	BackgroundColor #484848-black
	BorderColor #484848
	FontColor #D8Bc00
}


skinparam database {
		FontColor #C8Ac00
	BorderColor #333333
	BackgroundColor #333333-#333333
	BackgroundColor  #333333
}


skinparam class {
		FontColor #C8Ac00
	BorderColor #333333
	BackgroundColor #333333-#333333
	HeaderBackgroundColor #1b1b1a
    BackgroundColor #282828
    BorderColor #5e5e5e
 	StereotypeFontColor #a0a0a0
    StereotypeFontStyle bold
	BorderThickness 1
	AttributeFontColor #D8Bc00
	AttributeFontSize 11
    FontColor #D8Bc00
    FontStyle bold
}


skinparam object {
		FontColor #C8Ac00
	BorderColor #333333
	BackgroundColor #333333-#333333
	StereotypeFontColor #484848
	BorderThickness 1
	AttributeFontColor #fefefe
	AttributeFontSize 11
}


skinparam usecase {
		FontColor #C8Ac00
	BorderColor #333333
	BackgroundColor #333333-#333333
	BorderThickness 2
	StereotypeFontColor #303030
}


skinparam rectangle {
		FontColor #C8Ac00
	BorderColor #333333
	BackgroundColor #333333-#333333
	BackgroundColor #333333
	BorderThickness 2
	StereotypeFontColor #303030
}


skinparam package {
		FontColor #C8Ac00
	BorderColor #333333
	BackgroundColor #333333-#333333
	BackgroundColor #333333
	BorderThickness 2
}


skinparam folder {
	BackgroundColor #6d6d6d
  	BorderColor #ff8000
	FontColor #ff8000
	BorderThickness 2
}


skinparam frame {
	BackgroundColor #6d6d6d
  	BorderColor #0060a8
	FontColor #0060a8
	BorderThickness 2
}


skinparam state {
		FontColor #C8Ac00
	BorderColor #333333
	BackgroundColor #333333-#333333
	StartColor #0060a8
	EndColor #0060a8
	AttributeFontColor #fefefe
	AttributeFontSize 11
}


skinparam queue {
		FontColor #C8Ac00
	BorderColor #333333
	BackgroundColor #333333-#333333
}


skinparam card {
	BackgroundColor #0060a8
	BorderColor #004d86
	FontColor $INFO_TEXT
}


skinparam file {
	BackgroundColor #6d6d6d-#484848
	BorderColor #0060a8
	FontColor #fefefe
}


skinparam stack {
		FontColor #C8Ac00
	BorderColor #333333
	BackgroundColor #333333-#333333
}

    
    title "com.telenav.mesakit.map.overpass"
    
    abstract BaseComponent
    abstract BaseRepeater
    
    BaseRepeater <|- - OverpassDataDownloader
    OverpassDataDownloader - -> OsmToPbfConverter : "converts data with"
    OverpassDataDownloader - -> OverpassOsmResource : "downloads data with"
    OverpassDataDownloader o- - Folder : "caches data in"
    class OverpassDataDownloader
    {
        - -(constructors)- -
        +OverpassDataDownloader(Folder)
        - -(filesystem)- -
        +File osm(String descriptor, Rectangle bounds)
        +File pbf(String baseName, Rectangle bounds)
    }
    
    BaseComponent <|- - OverpassOsmResource
    OverpassOsmResource - -> Folder : "copies data to"
    class OverpassOsmResource
    {
        - -(constructors)- -
        +OverpassOsmResource(Rectangle)
        - -(filesystem)- -
        +void safeCopyTo(File destination)
    }
    
@enduml

PlantUML version 1.2021.01(Tue Feb 02 02:55:08 EST 2021)
(GPL source distribution)
Java Runtime: OpenJDK Runtime Environment
JVM: OpenJDK 64-Bit Server VM
Default Encoding: UTF-8
Language: en
Country: US
--></g></svg>