<?xml version="1.0" encoding="UTF-8" standalone="no"?><svg xmlns="http://www.w3.org/2000/svg" xmlns:xlink="http://www.w3.org/1999/xlink" contentScriptType="application/ecmascript" contentStyleType="text/css" height="238.5417px" preserveAspectRatio="none" style="width:564px;height:238px;background:#333333;" version="1.1" viewBox="0 0 564 238" width="564.5833px" zoomAndPan="magnify"><defs/><g><rect fill="#48494B" height="41.2028" rx="8.3333" ry="8.3333" style="stroke:#545454;stroke-width:1.0416666666666667;" width="552.0833" x="2.0833" y="2.0833"/><text fill="#C0C0C0" font-family="Open Sans,Avenir,Nunito,Arial,Helvetica,SansSerif" font-size="20.8333" lengthAdjust="spacing" textLength="529.1667" x="13.5417" y="30.5583">com.telenav.mesakit.tools.applications.pbf.metadata</text><rect fill="#282828" height="48.055" id="Application" rx="8.3333" ry="8.3333" style="stroke:#5E5E5E;stroke-width:1.0416666666666667;" width="111.4583" x="229.6875" y="53.7028"/><rect fill="#1B1B1A" height="31.3883" rx="8.3333" ry="8.3333" style="stroke:#1B1B1A;stroke-width:1.0416666666666667;" width="111.4583" x="229.6875" y="53.7028"/><rect fill="#1B1B1A" height="8.3333" style="stroke:#1B1B1A;stroke-width:1.0416666666666667;" width="111.4583" x="229.6875" y="76.7578"/><rect fill="none" height="48.055" id="Application" rx="8.3333" ry="8.3333" style="stroke:#5E5E5E;stroke-width:1.0416666666666667;" width="111.4583" x="229.6875" y="53.7028"/><ellipse cx="244.2708" cy="69.397" fill="#0066CF" rx="10.4167" ry="10.4167" style="stroke:#0086EF;stroke-width:1.0416666666666667;"/><path d="M246.1812,73.822 Q245.754,74.0417 245.284,74.1516 Q244.814,74.2615 244.2952,74.2615 Q242.452,74.2615 241.4815,73.0469 Q240.5111,71.8323 240.5111,69.5374 Q240.5111,67.2363 241.4815,66.0217 Q242.452,64.8071 244.2952,64.8071 Q244.814,64.8071 245.2901,64.917 Q245.7662,65.0269 246.1812,65.2466 L246.1812,67.2485 Q245.7174,66.8213 245.281,66.6229 Q244.8446,66.4246 244.3807,66.4246 Q243.3919,66.4246 242.8884,67.2089 Q242.3848,67.9932 242.3848,69.5374 Q242.3848,71.0754 242.8884,71.8597 Q243.3919,72.644 244.3807,72.644 Q244.8446,72.644 245.281,72.4457 Q245.7174,72.2473 246.1812,71.8201 Z " fill="#000000"/><text fill="#D8BC00" font-family="Open Sans,Avenir,Nunito,Arial,Helvetica,SansSerif" font-size="12.5" font-weight="bold" lengthAdjust="spacing" textLength="73.9583" x="260.9375" y="74.1211">Application</text><line style="stroke:#5E5E5E;stroke-width:1.0416666666666667;" x1="230.7292" x2="340.1042" y1="85.0911" y2="85.0911"/><line style="stroke:#5E5E5E;stroke-width:1.0416666666666667;" x1="230.7292" x2="340.1042" y1="93.4245" y2="93.4245"/><rect codeLine="8" fill="#282828" height="67.7999" id="PbfMetadataApplication" rx="8.3333" ry="8.3333" style="stroke:#5E5E5E;stroke-width:1.0416666666666667;" width="200" x="185.4167" y="164.1195"/><rect fill="#1B1B1A" height="31.3883" rx="8.3333" ry="8.3333" style="stroke:#1B1B1A;stroke-width:1.0416666666666667;" width="200" x="185.4167" y="164.1195"/><rect fill="#1B1B1A" height="8.3333" style="stroke:#1B1B1A;stroke-width:1.0416666666666667;" width="200" x="185.4167" y="187.1745"/><rect codeLine="8" fill="none" height="67.7999" id="PbfMetadataApplication" rx="8.3333" ry="8.3333" style="stroke:#5E5E5E;stroke-width:1.0416666666666667;" width="200" x="185.4167" y="164.1195"/><ellipse cx="203.75" cy="179.8136" fill="#0066CF" rx="10.4167" ry="10.4167" style="stroke:#0086EF;stroke-width:1.0416666666666667;"/><path d="M205.6604,184.2387 Q205.2332,184.4584 204.7632,184.5683 Q204.2932,184.6781 203.7744,184.6781 Q201.9312,184.6781 200.9607,183.4635 Q199.9902,182.2489 199.9902,179.954 Q199.9902,177.653 200.9607,176.4384 Q201.9312,175.2238 203.7744,175.2238 Q204.2932,175.2238 204.7693,175.3337 Q205.2454,175.4435 205.6604,175.6632 L205.6604,177.6652 Q205.1965,177.238 204.7601,177.0396 Q204.3237,176.8412 203.8599,176.8412 Q202.8711,176.8412 202.3676,177.6255 Q201.864,178.4098 201.864,179.954 Q201.864,181.4921 202.3676,182.2764 Q202.8711,183.0607 203.8599,183.0607 Q204.3237,183.0607 204.7601,182.8623 Q205.1965,182.664 205.6604,182.2367 Z " fill="#000000"/><text fill="#D8BC00" font-family="Open Sans,Avenir,Nunito,Arial,Helvetica,SansSerif" font-size="12.5" font-weight="bold" lengthAdjust="spacing" textLength="154.1667" x="221.25" y="184.5378">PbfMetadataApplication</text><line style="stroke:#5E5E5E;stroke-width:1.5625;" x1="186.4583" x2="384.375" y1="195.5078" y2="195.5078"/><line style="stroke:#5E5E5E;stroke-width:1.0416666666666667;" x1="186.4583" x2="384.375" y1="203.8411" y2="203.8411"/><ellipse cx="196.875" cy="215.2995" fill="#84BE84" rx="3.125" ry="3.125" style="stroke:#038048;stroke-width:1.0416666666666667;"/><text fill="#D8BC00" font-family="Open Sans,Avenir,Nunito,Arial,Helvetica,SansSerif" font-size="11.4583" lengthAdjust="spacing" textLength="167.7083" x="208.3333" y="222.2107">void main(String[] arguments)</text><path codeLine="7" d="M285.4167,123.0674 C285.4167,136.6715 285.4167,151.3799 285.4167,164.0674 " fill="none" id="Application-backto-PbfMetadataApplication" style="stroke:#545454;stroke-width:1.5625;"/><polygon fill="none" points="278.125,122.609,285.4167,101.7757,292.7083,122.609,278.125,122.609" style="stroke:#545454;stroke-width:1.5625;"/></g></svg>
