<?xml version="1.0" encoding="UTF-8" standalone="no"?><svg xmlns="http://www.w3.org/2000/svg" xmlns:xlink="http://www.w3.org/1999/xlink" contentScriptType="application/ecmascript" contentStyleType="text/css" height="254.1667px" preserveAspectRatio="none" style="width:595px;height:254px;background:#333333;" version="1.1" viewBox="0 0 595 254" width="595.8333px" zoomAndPan="magnify"><defs/><g><rect fill="#48494B" height="41.2028" rx="8.3333" ry="8.3333" style="stroke:#545454;stroke-width:1.0416666666666667;" width="583.3333" x="2.0833" y="2.0833"/><text fill="#C0C0C0" font-family="Open Sans,Avenir,Nunito,Arial,Helvetica,SansSerif" font-size="20.8333" lengthAdjust="spacing" textLength="560.4167" x="13.5417" y="30.5583">com.telenav.mesakit.tools.applications.codec.roadname</text><rect codeLine="7" fill="#282828" height="48.055" id="BaseComponent" rx="8.3333" ry="8.3333" style="stroke:#5E5E5E;stroke-width:1.0416666666666667;" width="143.75" x="229.1667" y="53.7028"/><rect fill="#1B1B1A" height="31.3883" rx="8.3333" ry="8.3333" style="stroke:#1B1B1A;stroke-width:1.0416666666666667;" width="143.75" x="229.1667" y="53.7028"/><rect fill="#1B1B1A" height="8.3333" style="stroke:#1B1B1A;stroke-width:1.0416666666666667;" width="143.75" x="229.1667" y="76.7578"/><rect codeLine="7" fill="none" height="48.055" id="BaseComponent" rx="8.3333" ry="8.3333" style="stroke:#5E5E5E;stroke-width:1.0416666666666667;" width="143.75" x="229.1667" y="53.7028"/><ellipse cx="243.75" cy="69.397" fill="#C8AC00" rx="10.4167" ry="10.4167" style="stroke:#D8BC00;stroke-width:1.0416666666666667;"/><path d="M243.3431,66.099 L242.4947,69.8283 L244.1976,69.8283 Z M242.2445,64.4511 L244.4478,64.4511 L246.9076,73.5636 L245.107,73.5636 L244.5455,71.3114 L242.1346,71.3114 L241.5853,73.5636 L239.7847,73.5636 Z " fill="#000000"/><text fill="#D8BC00" font-family="Open Sans,Avenir,Nunito,Arial,Helvetica,SansSerif" font-size="12.5" font-style="italic" font-weight="bold" lengthAdjust="spacing" textLength="106.25" x="260.4167" y="74.1211">BaseComponent</text><line style="stroke:#5E5E5E;stroke-width:1.0416666666666667;" x1="230.2083" x2="371.875" y1="85.0911" y2="85.0911"/><line style="stroke:#5E5E5E;stroke-width:1.0416666666666667;" x1="230.2083" x2="371.875" y1="93.4245" y2="93.4245"/><rect codeLine="10" fill="#282828" height="83.3781" id="RoadNameCodecGenerator" rx="8.3333" ry="8.3333" style="stroke:#5E5E5E;stroke-width:1.0416666666666667;" width="209.375" x="196.3542" y="164.1195"/><rect fill="#1B1B1A" height="31.3883" rx="8.3333" ry="8.3333" style="stroke:#1B1B1A;stroke-width:1.0416666666666667;" width="209.375" x="196.3542" y="164.1195"/><rect fill="#1B1B1A" height="8.3333" style="stroke:#1B1B1A;stroke-width:1.0416666666666667;" width="209.375" x="196.3542" y="187.1745"/><rect codeLine="10" fill="none" height="83.3781" id="RoadNameCodecGenerator" rx="8.3333" ry="8.3333" style="stroke:#5E5E5E;stroke-width:1.0416666666666667;" width="209.375" x="196.3542" y="164.1195"/><ellipse cx="210.9375" cy="179.8136" fill="#0066CF" rx="10.4167" ry="10.4167" style="stroke:#0086EF;stroke-width:1.0416666666666667;"/><path d="M212.8479,184.2387 Q212.4207,184.4584 211.9507,184.5683 Q211.4807,184.6781 210.9619,184.6781 Q209.1187,184.6781 208.1482,183.4635 Q207.1777,182.2489 207.1777,179.954 Q207.1777,177.653 208.1482,176.4384 Q209.1187,175.2238 210.9619,175.2238 Q211.4807,175.2238 211.9568,175.3337 Q212.4329,175.4435 212.8479,175.6632 L212.8479,177.6652 Q212.384,177.238 211.9476,177.0396 Q211.5112,176.8412 211.0474,176.8412 Q210.0586,176.8412 209.5551,177.6255 Q209.0515,178.4098 209.0515,179.954 Q209.0515,181.4921 209.5551,182.2764 Q210.0586,183.0607 211.0474,183.0607 Q211.5112,183.0607 211.9476,182.8623 Q212.384,182.664 212.8479,182.2367 Z " fill="#000000"/><text fill="#D8BC00" font-family="Open Sans,Avenir,Nunito,Arial,Helvetica,SansSerif" font-size="12.5" font-weight="bold" lengthAdjust="spacing" textLength="171.875" x="227.6042" y="184.5378">RoadNameCodecGenerator</text><line style="stroke:#5E5E5E;stroke-width:1.5625;" x1="197.3958" x2="404.6875" y1="195.5078" y2="195.5078"/><ellipse cx="207.8125" cy="230.8777" fill="#84BE84" rx="3.125" ry="3.125" style="stroke:#038048;stroke-width:1.0416666666666667;"/><text fill="#D8BC00" font-family="Open Sans,Avenir,Nunito,Arial,Helvetica,SansSerif" font-size="11.4583" lengthAdjust="spacing" textLength="135.4167" x="219.2708" y="237.7889">void run(CommandLine)</text><line style="stroke:#5E5E5E;stroke-width:1.0416666666666667;" x1="197.3958" x2="231.7708" y1="213.7136" y2="213.7136"/><text fill="#D8BC00" font-family="Open Sans,Avenir,Nunito,Arial,Helvetica,SansSerif" font-size="11.4583" lengthAdjust="spacing" textLength="132.2917" x="234.8958" y="217.5232">(command line parsing)</text><line style="stroke:#5E5E5E;stroke-width:1.0416666666666667;" x1="370.3125" x2="404.6875" y1="213.7136" y2="213.7136"/><path codeLine="9" d="M301.0417,122.682 C301.0417,136.0778 301.0417,150.7445 301.0417,163.9215 " fill="none" id="BaseComponent-backto-RoadNameCodecGenerator" style="stroke:#545454;stroke-width:1.5625;"/><polygon fill="none" points="293.75,122.6507,301.0417,101.8174,308.3333,122.6507,293.75,122.6507" style="stroke:#545454;stroke-width:1.5625;"/></g></svg>
