<?xml version="1.0" encoding="UTF-8" standalone="no"?><svg xmlns="http://www.w3.org/2000/svg" xmlns:xlink="http://www.w3.org/1999/xlink" contentScriptType="application/ecmascript" contentStyleType="text/css" height="361.4583px" preserveAspectRatio="none" style="width:578px;height:361px;background:#333333;" version="1.1" viewBox="0 0 578 361" width="578.125px" zoomAndPan="magnify"><defs/><g><rect fill="#48494B" height="41.2028" rx="8.3333" ry="8.3333" style="stroke:#545454;stroke-width:1.0416666666666667;" width="565.625" x="2.0833" y="2.0833"/><text fill="#C0C0C0" font-family="Open Sans,Avenir,Nunito,Arial,Helvetica,SansSerif" font-size="20.8333" lengthAdjust="spacing" textLength="542.7083" x="13.5417" y="30.5583">com.telenav.mesakit.tools.applications.graph.analyzer</text><rect fill="#282828" height="48.055" id="Application" rx="8.3333" ry="8.3333" style="stroke:#5E5E5E;stroke-width:1.0416666666666667;" width="111.4583" x="117.7083" y="93.2861"/><rect fill="#1B1B1A" height="31.3883" rx="8.3333" ry="8.3333" style="stroke:#1B1B1A;stroke-width:1.0416666666666667;" width="111.4583" x="117.7083" y="93.2861"/><rect fill="#1B1B1A" height="8.3333" style="stroke:#1B1B1A;stroke-width:1.0416666666666667;" width="111.4583" x="117.7083" y="116.3411"/><rect fill="none" height="48.055" id="Application" rx="8.3333" ry="8.3333" style="stroke:#5E5E5E;stroke-width:1.0416666666666667;" width="111.4583" x="117.7083" y="93.2861"/><ellipse cx="132.2917" cy="108.9803" fill="#0066CF" rx="10.4167" ry="10.4167" style="stroke:#0086EF;stroke-width:1.0416666666666667;"/><path d="M134.2021,113.4054 Q133.7748,113.6251 133.3049,113.7349 Q132.8349,113.8448 132.3161,113.8448 Q130.4728,113.8448 129.5024,112.6302 Q128.5319,111.4156 128.5319,109.1207 Q128.5319,106.8197 129.5024,105.6051 Q130.4728,104.3905 132.3161,104.3905 Q132.8349,104.3905 133.311,104.5003 Q133.787,104.6102 134.2021,104.8299 L134.2021,106.8319 Q133.7382,106.4046 133.3018,106.2063 Q132.8654,106.0079 132.4015,106.0079 Q131.4128,106.0079 130.9092,106.7922 Q130.4057,107.5765 130.4057,109.1207 Q130.4057,110.6588 130.9092,111.4431 Q131.4128,112.2274 132.4015,112.2274 Q132.8654,112.2274 133.3018,112.029 Q133.7382,111.8306 134.2021,111.4034 Z " fill="#000000"/><text fill="#D8BC00" font-family="Open Sans,Avenir,Nunito,Arial,Helvetica,SansSerif" font-size="12.5" font-weight="bold" lengthAdjust="spacing" textLength="73.9583" x="148.9583" y="113.7044">Application</text><line style="stroke:#5E5E5E;stroke-width:1.0416666666666667;" x1="118.75" x2="228.125" y1="124.6745" y2="124.6745"/><line style="stroke:#5E5E5E;stroke-width:1.0416666666666667;" x1="118.75" x2="228.125" y1="133.0078" y2="133.0078"/><rect codeLine="8" fill="#282828" height="111.4563" id="GraphAnalyzerApplication" rx="8.3333" ry="8.3333" style="stroke:#5E5E5E;stroke-width:1.0416666666666667;" width="206.25" x="70.3125" y="243.2861"/><rect fill="#1B1B1A" height="31.3883" rx="8.3333" ry="8.3333" style="stroke:#1B1B1A;stroke-width:1.0416666666666667;" width="206.25" x="70.3125" y="243.2861"/><rect fill="#1B1B1A" height="8.3333" style="stroke:#1B1B1A;stroke-width:1.0416666666666667;" width="206.25" x="70.3125" y="266.3411"/><rect codeLine="8" fill="none" height="111.4563" id="GraphAnalyzerApplication" rx="8.3333" ry="8.3333" style="stroke:#5E5E5E;stroke-width:1.0416666666666667;" width="206.25" x="70.3125" y="243.2861"/><ellipse cx="84.8958" cy="258.9803" fill="#0066CF" rx="10.4167" ry="10.4167" style="stroke:#0086EF;stroke-width:1.0416666666666667;"/><path d="M86.8062,263.4054 Q86.379,263.6251 85.909,263.7349 Q85.439,263.8448 84.9202,263.8448 Q83.077,263.8448 82.1065,262.6302 Q81.1361,261.4156 81.1361,259.1207 Q81.1361,256.8197 82.1065,255.6051 Q83.077,254.3905 84.9202,254.3905 Q85.439,254.3905 85.9151,254.5003 Q86.3912,254.6102 86.8062,254.8299 L86.8062,256.8319 Q86.3424,256.4046 85.906,256.2063 Q85.4696,256.0079 85.0057,256.0079 Q84.0169,256.0079 83.5134,256.7922 Q83.0098,257.5765 83.0098,259.1207 Q83.0098,260.6588 83.5134,261.4431 Q84.0169,262.2274 85.0057,262.2274 Q85.4696,262.2274 85.906,262.029 Q86.3424,261.8306 86.8062,261.4034 Z " fill="#000000"/><text fill="#D8BC00" font-family="Open Sans,Avenir,Nunito,Arial,Helvetica,SansSerif" font-size="12.5" font-weight="bold" lengthAdjust="spacing" textLength="168.75" x="101.5625" y="263.7044">GraphAnalyzerApplication</text><line style="stroke:#5E5E5E;stroke-width:1.5625;" x1="71.3542" x2="275.5208" y1="274.6745" y2="274.6745"/><polygon fill="#FFFF44" points="81.7708,304.836,85.9375,309.0027,81.7708,313.1694,77.6042,309.0027" style="stroke:#B38D22;stroke-width:1.0416666666666667;"/><text fill="#D8BC00" font-family="Open Sans,Avenir,Nunito,Arial,Helvetica,SansSerif" font-size="11.4583" lengthAdjust="spacing" textLength="155.2083" x="93.2292" y="316.9556">GraphAnalyzerApplication()</text><line style="stroke:#5E5E5E;stroke-width:1.0416666666666667;" x1="71.3542" x2="129.6875" y1="292.8802" y2="292.8802"/><text fill="#D8BC00" font-family="Open Sans,Avenir,Nunito,Arial,Helvetica,SansSerif" font-size="11.4583" lengthAdjust="spacing" textLength="81.25" x="132.8125" y="296.6899">(constructors)</text><line style="stroke:#5E5E5E;stroke-width:1.0416666666666667;" x1="217.1875" x2="275.5208" y1="292.8802" y2="292.8802"/><line style="stroke:#5E5E5E;stroke-width:1.0416666666666667;" x1="71.3542" x2="275.5208" y1="326.6642" y2="326.6642"/><ellipse cx="81.7708" cy="338.1226" fill="#84BE84" rx="3.125" ry="3.125" style="stroke:#038048;stroke-width:1.0416666666666667;"/><text fill="#D8BC00" font-family="Open Sans,Avenir,Nunito,Arial,Helvetica,SansSerif" font-size="11.4583" lengthAdjust="spacing" textLength="167.7083" x="93.2292" y="345.0338">void main(String[] arguments)</text><rect codeLine="16" fill="#282828" height="127.0345" id="GraphAnalyzerApplication.Result" rx="8.3333" ry="8.3333" style="stroke:#5E5E5E;stroke-width:1.0416666666666667;" width="250" x="266.1458" y="53.7028"/><rect fill="#1B1B1A" height="31.3883" rx="8.3333" ry="8.3333" style="stroke:#1B1B1A;stroke-width:1.0416666666666667;" width="250" x="266.1458" y="53.7028"/><rect fill="#1B1B1A" height="8.3333" style="stroke:#1B1B1A;stroke-width:1.0416666666666667;" width="250" x="266.1458" y="76.7578"/><rect codeLine="16" fill="none" height="127.0345" id="GraphAnalyzerApplication.Result" rx="8.3333" ry="8.3333" style="stroke:#5E5E5E;stroke-width:1.0416666666666667;" width="250" x="266.1458" y="53.7028"/><ellipse cx="280.7292" cy="69.397" fill="#0066CF" rx="10.4167" ry="10.4167" style="stroke:#0086EF;stroke-width:1.0416666666666667;"/><path d="M282.6396,73.822 Q282.2123,74.0417 281.7424,74.1516 Q281.2724,74.2615 280.7536,74.2615 Q278.9103,74.2615 277.9399,73.0469 Q276.9694,71.8323 276.9694,69.5374 Q276.9694,67.2363 277.9399,66.0217 Q278.9103,64.8071 280.7536,64.8071 Q281.2724,64.8071 281.7485,64.917 Q282.2245,65.0269 282.6396,65.2466 L282.6396,67.2485 Q282.1757,66.8213 281.7393,66.6229 Q281.3029,66.4246 280.839,66.4246 Q279.8503,66.4246 279.3467,67.2089 Q278.8432,67.9932 278.8432,69.5374 Q278.8432,71.0754 279.3467,71.8597 Q279.8503,72.644 280.839,72.644 Q281.3029,72.644 281.7393,72.4457 Q282.1757,72.2473 282.6396,71.8201 Z " fill="#000000"/><text fill="#D8BC00" font-family="Open Sans,Avenir,Nunito,Arial,Helvetica,SansSerif" font-size="12.5" font-weight="bold" lengthAdjust="spacing" textLength="212.5" x="297.3958" y="74.1211">GraphAnalyzerApplication.Result</text><line style="stroke:#5E5E5E;stroke-width:1.5625;" x1="267.1875" x2="515.1042" y1="85.0911" y2="85.0911"/><ellipse cx="277.6042" cy="120.461" fill="#84BE84" rx="3.125" ry="3.125" style="stroke:#038048;stroke-width:1.0416666666666667;"/><text fill="#D8BC00" font-family="Open Sans,Avenir,Nunito,Arial,Helvetica,SansSerif" font-size="11.4583" lengthAdjust="spacing" textLength="186.4583" x="289.0625" y="127.3722">void add(String key, Object value)</text><line style="stroke:#5E5E5E;stroke-width:1.0416666666666667;" x1="267.1875" x2="356.7708" y1="103.2969" y2="103.2969"/><text fill="#D8BC00" font-family="Open Sans,Avenir,Nunito,Arial,Helvetica,SansSerif" font-size="11.4583" lengthAdjust="spacing" textLength="62.5" x="359.8958" y="107.1065">(collection)</text><line style="stroke:#5E5E5E;stroke-width:1.0416666666666667;" x1="425.5208" x2="515.1042" y1="103.2969" y2="103.2969"/><ellipse cx="277.6042" cy="164.1174" fill="#84BE84" rx="3.125" ry="3.125" style="stroke:#038048;stroke-width:1.0416666666666667;"/><text fill="#D8BC00" font-family="Open Sans,Avenir,Nunito,Arial,Helvetica,SansSerif" font-size="11.4583" lengthAdjust="spacing" textLength="121.875" x="289.0625" y="171.0286">void write(PrintWriter)</text><line style="stroke:#5E5E5E;stroke-width:1.0416666666666667;" x1="267.1875" x2="370.3125" y1="146.9533" y2="146.9533"/><text fill="#D8BC00" font-family="Open Sans,Avenir,Nunito,Arial,Helvetica,SansSerif" font-size="11.4583" lengthAdjust="spacing" textLength="35.4167" x="373.4375" y="150.7629">(write)</text><line style="stroke:#5E5E5E;stroke-width:1.0416666666666667;" x1="411.9792" x2="515.1042" y1="146.9533" y2="146.9533"/><path codeLine="7" d="M173.4375,162.5674 C173.4375,186.9424 173.4375,217.4007 173.4375,243.2549 " fill="none" id="Application-backto-GraphAnalyzerApplication" style="stroke:#545454;stroke-width:1.5625;"/><polygon fill="none" points="166.1458,162.2445,173.4375,141.4111,180.7292,162.2445,166.1458,162.2445" style="stroke:#545454;stroke-width:1.5625;"/></g></svg>
