<?xml version="1.0" encoding="UTF-8" standalone="no"?><svg xmlns="http://www.w3.org/2000/svg" xmlns:xlink="http://www.w3.org/1999/xlink" contentScriptType="application/ecmascript" contentStyleType="text/css" height="254.1667px" preserveAspectRatio="none" style="width:573px;height:254px;background:#333333;" version="1.1" viewBox="0 0 573 254" width="573.9583px" zoomAndPan="magnify"><defs/><g><rect fill="#48494B" height="41.2028" rx="8.3333" ry="8.3333" style="stroke:#545454;stroke-width:1.0416666666666667;" width="561.4583" x="2.0833" y="2.0833"/><text fill="#C0C0C0" font-family="Open Sans,Avenir,Nunito,Arial,Helvetica,SansSerif" font-size="20.8333" lengthAdjust="spacing" textLength="538.5417" x="13.5417" y="30.5583">com.telenav.mesakit.tools.applications.codec.polyline</text><rect codeLine="7" fill="#282828" height="48.055" id="BaseComponent" rx="8.3333" ry="8.3333" style="stroke:#5E5E5E;stroke-width:1.0416666666666667;" width="143.75" x="218.2292" y="53.7028"/><rect fill="#1B1B1A" height="31.3883" rx="8.3333" ry="8.3333" style="stroke:#1B1B1A;stroke-width:1.0416666666666667;" width="143.75" x="218.2292" y="53.7028"/><rect fill="#1B1B1A" height="8.3333" style="stroke:#1B1B1A;stroke-width:1.0416666666666667;" width="143.75" x="218.2292" y="76.7578"/><rect codeLine="7" fill="none" height="48.055" id="BaseComponent" rx="8.3333" ry="8.3333" style="stroke:#5E5E5E;stroke-width:1.0416666666666667;" width="143.75" x="218.2292" y="53.7028"/><ellipse cx="232.8125" cy="69.397" fill="#C8AC00" rx="10.4167" ry="10.4167" style="stroke:#D8BC00;stroke-width:1.0416666666666667;"/><path d="M232.4056,66.099 L231.5572,69.8283 L233.2601,69.8283 Z M231.307,64.4511 L233.5103,64.4511 L235.9701,73.5636 L234.1695,73.5636 L233.608,71.3114 L231.1971,71.3114 L230.6478,73.5636 L228.8472,73.5636 Z " fill="#000000"/><text fill="#D8BC00" font-family="Open Sans,Avenir,Nunito,Arial,Helvetica,SansSerif" font-size="12.5" font-style="italic" font-weight="bold" lengthAdjust="spacing" textLength="106.25" x="249.4792" y="74.1211">BaseComponent</text><line style="stroke:#5E5E5E;stroke-width:1.0416666666666667;" x1="219.2708" x2="360.9375" y1="85.0911" y2="85.0911"/><line style="stroke:#5E5E5E;stroke-width:1.0416666666666667;" x1="219.2708" x2="360.9375" y1="93.4245" y2="93.4245"/><rect codeLine="10" fill="#282828" height="83.3781" id="HuffmanCodecGenerator" rx="8.3333" ry="8.3333" style="stroke:#5E5E5E;stroke-width:1.0416666666666667;" width="196.875" x="191.6667" y="164.1195"/><rect fill="#1B1B1A" height="31.3883" rx="8.3333" ry="8.3333" style="stroke:#1B1B1A;stroke-width:1.0416666666666667;" width="196.875" x="191.6667" y="164.1195"/><rect fill="#1B1B1A" height="8.3333" style="stroke:#1B1B1A;stroke-width:1.0416666666666667;" width="196.875" x="191.6667" y="187.1745"/><rect codeLine="10" fill="none" height="83.3781" id="HuffmanCodecGenerator" rx="8.3333" ry="8.3333" style="stroke:#5E5E5E;stroke-width:1.0416666666666667;" width="196.875" x="191.6667" y="164.1195"/><ellipse cx="206.25" cy="179.8136" fill="#0066CF" rx="10.4167" ry="10.4167" style="stroke:#0086EF;stroke-width:1.0416666666666667;"/><path d="M208.1604,184.2387 Q207.7332,184.4584 207.2632,184.5683 Q206.7932,184.6781 206.2744,184.6781 Q204.4312,184.6781 203.4607,183.4635 Q202.4902,182.2489 202.4902,179.954 Q202.4902,177.653 203.4607,176.4384 Q204.4312,175.2238 206.2744,175.2238 Q206.7932,175.2238 207.2693,175.3337 Q207.7454,175.4435 208.1604,175.6632 L208.1604,177.6652 Q207.6965,177.238 207.2601,177.0396 Q206.8237,176.8412 206.3599,176.8412 Q205.3711,176.8412 204.8676,177.6255 Q204.364,178.4098 204.364,179.954 Q204.364,181.4921 204.8676,182.2764 Q205.3711,183.0607 206.3599,183.0607 Q206.8237,183.0607 207.2601,182.8623 Q207.6965,182.664 208.1604,182.2367 Z " fill="#000000"/><text fill="#D8BC00" font-family="Open Sans,Avenir,Nunito,Arial,Helvetica,SansSerif" font-size="12.5" font-weight="bold" lengthAdjust="spacing" textLength="159.375" x="222.9167" y="184.5378">HuffmanCodecGenerator</text><line style="stroke:#5E5E5E;stroke-width:1.5625;" x1="192.7083" x2="387.5" y1="195.5078" y2="195.5078"/><ellipse cx="203.125" cy="230.8777" fill="#84BE84" rx="3.125" ry="3.125" style="stroke:#038048;stroke-width:1.0416666666666667;"/><text fill="#D8BC00" font-family="Open Sans,Avenir,Nunito,Arial,Helvetica,SansSerif" font-size="11.4583" lengthAdjust="spacing" textLength="135.4167" x="214.5833" y="237.7889">void run(CommandLine)</text><line style="stroke:#5E5E5E;stroke-width:1.0416666666666667;" x1="192.7083" x2="220.8333" y1="213.7136" y2="213.7136"/><text fill="#D8BC00" font-family="Open Sans,Avenir,Nunito,Arial,Helvetica,SansSerif" font-size="11.4583" lengthAdjust="spacing" textLength="132.2917" x="223.9583" y="217.5232">(command line parsing)</text><line style="stroke:#5E5E5E;stroke-width:1.0416666666666667;" x1="359.375" x2="387.5" y1="213.7136" y2="213.7136"/><path codeLine="9" d="M290.1042,122.682 C290.1042,136.0778 290.1042,150.7445 290.1042,163.9215 " fill="none" id="BaseComponent-backto-HuffmanCodecGenerator" style="stroke:#545454;stroke-width:1.5625;"/><polygon fill="none" points="282.8125,122.6507,290.1042,101.8174,297.3958,122.6507,282.8125,122.6507" style="stroke:#545454;stroke-width:1.5625;"/></g></svg>
