<?xml version="1.0" encoding="UTF-8" standalone="no"?><svg xmlns="http://www.w3.org/2000/svg" xmlns:xlink="http://www.w3.org/1999/xlink" contentScriptType="application/ecmascript" contentStyleType="text/css" height="341.6667px" preserveAspectRatio="none" style="width:488px;height:341px;background:#333333;" version="1.1" viewBox="0 0 488 341" width="488.5417px" zoomAndPan="magnify"><defs/><g><rect fill="#48494B" height="41.2028" rx="8.3333" ry="8.3333" style="stroke:#545454;stroke-width:1.0416666666666667;" width="476.0417" x="2.0833" y="2.0833"/><text fill="#C0C0C0" font-family="Open Sans,Avenir,Nunito,Arial,Helvetica,SansSerif" font-size="20.8333" lengthAdjust="spacing" textLength="453.125" x="13.5417" y="30.5583">com.telenav.mesakit.tools.applications.codec</text><rect fill="#282828" height="48.055" id="Application" rx="8.3333" ry="8.3333" style="stroke:#5E5E5E;stroke-width:1.0416666666666667;" width="111.4583" x="75.7813" y="83.3903"/><rect fill="#1B1B1A" height="31.3883" rx="8.3333" ry="8.3333" style="stroke:#1B1B1A;stroke-width:1.0416666666666667;" width="111.4583" x="75.7813" y="83.3903"/><rect fill="#1B1B1A" height="8.3333" style="stroke:#1B1B1A;stroke-width:1.0416666666666667;" width="111.4583" x="75.7813" y="106.4453"/><rect fill="none" height="48.055" id="Application" rx="8.3333" ry="8.3333" style="stroke:#5E5E5E;stroke-width:1.0416666666666667;" width="111.4583" x="75.7813" y="83.3903"/><ellipse cx="90.3646" cy="99.0845" fill="#0066CF" rx="10.4167" ry="10.4167" style="stroke:#0086EF;stroke-width:1.0416666666666667;"/><path d="M92.275,103.5095 Q91.8477,103.7292 91.3778,103.8391 Q90.9078,103.949 90.389,103.949 Q88.5457,103.949 87.5753,102.7344 Q86.6048,101.5198 86.6048,99.2249 Q86.6048,96.9238 87.5753,95.7092 Q88.5457,94.4946 90.389,94.4946 Q90.9078,94.4946 91.3839,94.6045 Q91.8599,94.7144 92.275,94.9341 L92.275,96.936 Q91.8111,96.5088 91.3747,96.3104 Q90.9383,96.1121 90.4744,96.1121 Q89.4857,96.1121 88.9821,96.8964 Q88.4786,97.6807 88.4786,99.2249 Q88.4786,100.7629 88.9821,101.5472 Q89.4857,102.3315 90.4744,102.3315 Q90.9383,102.3315 91.3747,102.1332 Q91.8111,101.9348 92.275,101.5076 Z " fill="#000000"/><text fill="#D8BC00" font-family="Open Sans,Avenir,Nunito,Arial,Helvetica,SansSerif" font-size="12.5" font-weight="bold" lengthAdjust="spacing" textLength="73.9583" x="107.0313" y="103.8086">Application</text><line style="stroke:#5E5E5E;stroke-width:1.0416666666666667;" x1="76.8229" x2="186.1979" y1="114.7786" y2="114.7786"/><line style="stroke:#5E5E5E;stroke-width:1.0416666666666667;" x1="76.8229" x2="186.1979" y1="123.112" y2="123.112"/><rect codeLine="8" fill="#282828" height="111.4563" id="CodecGeneratorApplication" rx="8.3333" ry="8.3333" style="stroke:#5E5E5E;stroke-width:1.0416666666666667;" width="214.5833" x="24.2188" y="223.4945"/><rect fill="#1B1B1A" height="31.3883" rx="8.3333" ry="8.3333" style="stroke:#1B1B1A;stroke-width:1.0416666666666667;" width="214.5833" x="24.2188" y="223.4945"/><rect fill="#1B1B1A" height="8.3333" style="stroke:#1B1B1A;stroke-width:1.0416666666666667;" width="214.5833" x="24.2188" y="246.5495"/><rect codeLine="8" fill="none" height="111.4563" id="CodecGeneratorApplication" rx="8.3333" ry="8.3333" style="stroke:#5E5E5E;stroke-width:1.0416666666666667;" width="214.5833" x="24.2188" y="223.4945"/><ellipse cx="38.8021" cy="239.1886" fill="#0066CF" rx="10.4167" ry="10.4167" style="stroke:#0086EF;stroke-width:1.0416666666666667;"/><path d="M40.7125,243.6137 Q40.2852,243.8334 39.8153,243.9433 Q39.3453,244.0531 38.8265,244.0531 Q36.9832,244.0531 36.0128,242.8385 Q35.0423,241.6239 35.0423,239.329 Q35.0423,237.028 36.0128,235.8134 Q36.9832,234.5988 38.8265,234.5988 Q39.3453,234.5988 39.8214,234.7087 Q40.2974,234.8185 40.7125,235.0382 L40.7125,237.0402 Q40.2486,236.613 39.8122,236.4146 Q39.3758,236.2162 38.9119,236.2162 Q37.9232,236.2162 37.4196,237.0005 Q36.9161,237.7848 36.9161,239.329 Q36.9161,240.8671 37.4196,241.6514 Q37.9232,242.4357 38.9119,242.4357 Q39.3758,242.4357 39.8122,242.2373 Q40.2486,242.039 40.7125,241.6117 Z " fill="#000000"/><text fill="#D8BC00" font-family="Open Sans,Avenir,Nunito,Arial,Helvetica,SansSerif" font-size="12.5" font-weight="bold" lengthAdjust="spacing" textLength="177.0833" x="55.4688" y="243.9128">CodecGeneratorApplication</text><line style="stroke:#5E5E5E;stroke-width:1.5625;" x1="25.2604" x2="237.7604" y1="254.8828" y2="254.8828"/><polygon fill="#FFFF44" points="35.6771,285.0444,39.8438,289.211,35.6771,293.3777,31.5104,289.211" style="stroke:#B38D22;stroke-width:1.0416666666666667;"/><text fill="#D8BC00" font-family="Open Sans,Avenir,Nunito,Arial,Helvetica,SansSerif" font-size="11.4583" lengthAdjust="spacing" textLength="163.5417" x="47.1354" y="297.1639">CodecGeneratorApplication()</text><line style="stroke:#5E5E5E;stroke-width:1.0416666666666667;" x1="25.2604" x2="87.7604" y1="273.0886" y2="273.0886"/><text fill="#D8BC00" font-family="Open Sans,Avenir,Nunito,Arial,Helvetica,SansSerif" font-size="11.4583" lengthAdjust="spacing" textLength="81.25" x="90.8854" y="276.8982">(constructors)</text><line style="stroke:#5E5E5E;stroke-width:1.0416666666666667;" x1="175.2604" x2="237.7604" y1="273.0886" y2="273.0886"/><line style="stroke:#5E5E5E;stroke-width:1.0416666666666667;" x1="25.2604" x2="237.7604" y1="306.8726" y2="306.8726"/><ellipse cx="35.6771" cy="318.3309" fill="#84BE84" rx="3.125" ry="3.125" style="stroke:#038048;stroke-width:1.0416666666666667;"/><text fill="#D8BC00" font-family="Open Sans,Avenir,Nunito,Arial,Helvetica,SansSerif" font-size="11.4583" lengthAdjust="spacing" textLength="167.7083" x="47.1354" y="325.2421">void main(String[] arguments)</text><rect codeLine="16" fill="#282828" height="107.2896" id="CodecGeneratorApplication.Type" rx="8.3333" ry="8.3333" style="stroke:#5E5E5E;stroke-width:1.0416666666666667;" width="248.9583" x="223.6979" y="53.7028"/><rect fill="#1B1B1A" height="31.3883" rx="8.3333" ry="8.3333" style="stroke:#1B1B1A;stroke-width:1.0416666666666667;" width="248.9583" x="223.6979" y="53.7028"/><rect fill="#1B1B1A" height="8.3333" style="stroke:#1B1B1A;stroke-width:1.0416666666666667;" width="248.9583" x="223.6979" y="76.7578"/><rect codeLine="16" fill="none" height="107.2896" id="CodecGeneratorApplication.Type" rx="8.3333" ry="8.3333" style="stroke:#5E5E5E;stroke-width:1.0416666666666667;" width="248.9583" x="223.6979" y="53.7028"/><ellipse cx="238.2813" cy="69.397" fill="#CF6300" rx="10.4167" ry="10.4167" style="stroke:#EF8300;stroke-width:1.0416666666666667;"/><path d="M241.3371,74.0845 L235.6608,74.0845 L235.6608,64.9719 L241.3371,64.9719 L241.3371,66.5588 L237.4613,66.5588 L237.4613,68.5242 L240.9709,68.5242 L240.9709,70.1111 L237.4613,70.1111 L237.4613,72.4976 L241.3371,72.4976 Z " fill="#000000"/><text fill="#D8BC00" font-family="Open Sans,Avenir,Nunito,Arial,Helvetica,SansSerif" font-size="12.5" font-weight="bold" lengthAdjust="spacing" textLength="211.4583" x="254.9479" y="74.1211">CodecGeneratorApplication.Type</text><line style="stroke:#5E5E5E;stroke-width:1.0416666666666667;" x1="224.7396" x2="471.6146" y1="85.0911" y2="85.0911"/><text fill="#D8BC00" font-family="Open Sans,Avenir,Nunito,Arial,Helvetica,SansSerif" font-size="11.4583" lengthAdjust="spacing" textLength="53.125" x="233.0729" y="103.4607">POLYLINE</text><text fill="#D8BC00" font-family="Open Sans,Avenir,Nunito,Arial,Helvetica,SansSerif" font-size="11.4583" lengthAdjust="spacing" textLength="71.875" x="233.0729" y="123.2056">ROAD_NAME</text><text fill="#D8BC00" font-family="Open Sans,Avenir,Nunito,Arial,Helvetica,SansSerif" font-size="11.4583" lengthAdjust="spacing" textLength="23.9583" x="233.0729" y="142.9504">TAG</text><line style="stroke:#5E5E5E;stroke-width:1.0416666666666667;" x1="224.7396" x2="471.6146" y1="152.6591" y2="152.6591"/><path codeLine="7" d="M131.5104,152.5674 C131.5104,174.2236 131.5104,200.5153 131.5104,223.432 " fill="none" id="Application-backto-CodecGeneratorApplication" style="stroke:#545454;stroke-width:1.5625;"/><polygon fill="none" points="124.2188,152.4736,131.5104,131.6403,138.8021,152.4736,124.2188,152.4736" style="stroke:#545454;stroke-width:1.5625;"/></g></svg>
