<?xml version="1.0" encoding="UTF-8" standalone="no"?><svg xmlns="http://www.w3.org/2000/svg" xmlns:xlink="http://www.w3.org/1999/xlink" contentScriptType="application/ecmascript" contentStyleType="text/css" height="519.7917px" preserveAspectRatio="none" style="width:1738px;height:519px;background:#333333;" version="1.1" viewBox="0 0 1738 519" width="1738.5417px" zoomAndPan="magnify"><defs/><g><rect fill="#48494B" height="41.2028" rx="8.3333" ry="8.3333" style="stroke:#545454;stroke-width:1.0416666666666667;" width="631.25" x="546.6146" y="2.0833"/><text fill="#C0C0C0" font-family="Open Sans,Avenir,Nunito,Arial,Helvetica,SansSerif" font-size="20.8333" lengthAdjust="spacing" textLength="608.3333" x="558.0729" y="30.5583">com.telenav.mesakit.map.data.formats.pbf.processing.filters</text><!--MD5=[6423c3f1e37843656d23cab5419cddf1]
cluster WayFilter--><polygon fill="#333333" points="1256.7708,265.682,1328.6458,265.682,1335.9375,292.9036,1468.2292,292.9036,1468.2292,422.9736,1256.7708,422.9736,1256.7708,265.682" style="stroke:#333333;stroke-width:2.0833333333333335;"/><line style="stroke:#333333;stroke-width:2.0833333333333335;" x1="1256.7708" x2="1335.9375" y1="292.9036" y2="292.9036"/><text fill="#C8AC00" font-family="Open Sans,Avenir,Nunito,Arial,Helvetica,SansSerif" font-size="12.5" font-weight="bold" lengthAdjust="spacing" textLength="59.375" x="1264.0625" y="282.9753">WayFilter</text><!--MD5=[e64c9c85728e360d5256b54460f007bf]
cluster RelationFilter--><polygon fill="#333333" points="1509.8958,265.682,1608.8542,265.682,1616.1458,292.9036,1721.3542,292.9036,1721.3542,422.9736,1509.8958,422.9736,1509.8958,265.682" style="stroke:#333333;stroke-width:2.0833333333333335;"/><line style="stroke:#333333;stroke-width:2.0833333333333335;" x1="1509.8958" x2="1616.1458" y1="292.9036" y2="292.9036"/><text fill="#C8AC00" font-family="Open Sans,Avenir,Nunito,Arial,Helvetica,SansSerif" font-size="12.5" font-weight="bold" lengthAdjust="spacing" textLength="86.4583" x="1517.1875" y="282.9753">RelationFilter</text><!--MD5=[21b314638a99ae827b6584821d38e8c6]
class WayFilter.Converter--><rect codeLine="11" fill="#282828" height="83.3781" id="WayFilter.Converter" rx="8.3333" ry="8.3333" style="stroke:#5E5E5E;stroke-width:1.0416666666666667;" width="141.6667" x="1301.5625" y="314.6403"/><rect fill="#1B1B1A" height="31.3883" rx="8.3333" ry="8.3333" style="stroke:#1B1B1A;stroke-width:1.0416666666666667;" width="141.6667" x="1301.5625" y="314.6403"/><rect fill="#1B1B1A" height="8.3333" style="stroke:#1B1B1A;stroke-width:1.0416666666666667;" width="141.6667" x="1301.5625" y="337.6953"/><rect codeLine="11" fill="none" height="83.3781" id="WayFilter.Converter" rx="8.3333" ry="8.3333" style="stroke:#5E5E5E;stroke-width:1.0416666666666667;" width="141.6667" x="1301.5625" y="314.6403"/><ellipse cx="1334.4271" cy="330.3345" fill="#0066CF" rx="10.4167" ry="10.4167" style="stroke:#0086EF;stroke-width:1.0416666666666667;"/><path d="M1336.3375,334.7595 Q1335.9102,334.9792 1335.4403,335.0891 Q1334.9703,335.199 1334.4515,335.199 Q1332.6082,335.199 1331.6378,333.9844 Q1330.6673,332.7698 1330.6673,330.4749 Q1330.6673,328.1738 1331.6378,326.9592 Q1332.6082,325.7446 1334.4515,325.7446 Q1334.9703,325.7446 1335.4464,325.8545 Q1335.9224,325.9644 1336.3375,326.1841 L1336.3375,328.186 Q1335.8736,327.7588 1335.4372,327.5604 Q1335.0008,327.3621 1334.5369,327.3621 Q1333.5482,327.3621 1333.0446,328.1464 Q1332.5411,328.9307 1332.5411,330.4749 Q1332.5411,332.0129 1333.0446,332.7972 Q1333.5482,333.5815 1334.5369,333.5815 Q1335.0008,333.5815 1335.4372,333.3832 Q1335.8736,333.1848 1336.3375,332.7576 Z " fill="#000000"/><text fill="#D8BC00" font-family="Open Sans,Avenir,Nunito,Arial,Helvetica,SansSerif" font-size="12.5" font-weight="bold" lengthAdjust="spacing" textLength="63.5417" x="1355.1563" y="335.0586">Converter</text><line style="stroke:#5E5E5E;stroke-width:1.5625;" x1="1302.6042" x2="1442.1875" y1="346.0286" y2="346.0286"/><ellipse cx="1313.0208" cy="381.3985" fill="#84BE84" rx="3.125" ry="3.125" style="stroke:#038048;stroke-width:1.0416666666666667;"/><text fill="#D8BC00" font-family="Open Sans,Avenir,Nunito,Arial,Helvetica,SansSerif" font-size="11.4583" lengthAdjust="spacing" textLength="109.375" x="1324.4792" y="388.3097">Converter(Listener)</text><line style="stroke:#5E5E5E;stroke-width:1.0416666666666667;" x1="1302.6042" x2="1328.6458" y1="364.2344" y2="364.2344"/><text fill="#D8BC00" font-family="Open Sans,Avenir,Nunito,Arial,Helvetica,SansSerif" font-size="11.4583" lengthAdjust="spacing" textLength="81.25" x="1331.7708" y="368.044">(constructors)</text><line style="stroke:#5E5E5E;stroke-width:1.0416666666666667;" x1="1416.1458" x2="1442.1875" y1="364.2344" y2="364.2344"/><!--MD5=[93c7dd6bde709a0cfbe316a644875032]
class RelationFilter.Converter--><rect codeLine="18" fill="#282828" height="83.3781" id="RelationFilter.Converter" rx="8.3333" ry="8.3333" style="stroke:#5E5E5E;stroke-width:1.0416666666666667;" width="141.6667" x="1554.6875" y="314.6403"/><rect fill="#1B1B1A" height="31.3883" rx="8.3333" ry="8.3333" style="stroke:#1B1B1A;stroke-width:1.0416666666666667;" width="141.6667" x="1554.6875" y="314.6403"/><rect fill="#1B1B1A" height="8.3333" style="stroke:#1B1B1A;stroke-width:1.0416666666666667;" width="141.6667" x="1554.6875" y="337.6953"/><rect codeLine="18" fill="none" height="83.3781" id="RelationFilter.Converter" rx="8.3333" ry="8.3333" style="stroke:#5E5E5E;stroke-width:1.0416666666666667;" width="141.6667" x="1554.6875" y="314.6403"/><ellipse cx="1587.5521" cy="330.3345" fill="#0066CF" rx="10.4167" ry="10.4167" style="stroke:#0086EF;stroke-width:1.0416666666666667;"/><path d="M1589.4625,334.7595 Q1589.0352,334.9792 1588.5653,335.0891 Q1588.0953,335.199 1587.5765,335.199 Q1585.7332,335.199 1584.7628,333.9844 Q1583.7923,332.7698 1583.7923,330.4749 Q1583.7923,328.1738 1584.7628,326.9592 Q1585.7332,325.7446 1587.5765,325.7446 Q1588.0953,325.7446 1588.5714,325.8545 Q1589.0474,325.9644 1589.4625,326.1841 L1589.4625,328.186 Q1588.9986,327.7588 1588.5622,327.5604 Q1588.1258,327.3621 1587.6619,327.3621 Q1586.6732,327.3621 1586.1696,328.1464 Q1585.6661,328.9307 1585.6661,330.4749 Q1585.6661,332.0129 1586.1696,332.7972 Q1586.6732,333.5815 1587.6619,333.5815 Q1588.1258,333.5815 1588.5622,333.3832 Q1588.9986,333.1848 1589.4625,332.7576 Z " fill="#000000"/><text fill="#D8BC00" font-family="Open Sans,Avenir,Nunito,Arial,Helvetica,SansSerif" font-size="12.5" font-weight="bold" lengthAdjust="spacing" textLength="63.5417" x="1608.2813" y="335.0586">Converter</text><line style="stroke:#5E5E5E;stroke-width:1.5625;" x1="1555.7292" x2="1695.3125" y1="346.0286" y2="346.0286"/><ellipse cx="1566.1458" cy="381.3985" fill="#84BE84" rx="3.125" ry="3.125" style="stroke:#038048;stroke-width:1.0416666666666667;"/><text fill="#D8BC00" font-family="Open Sans,Avenir,Nunito,Arial,Helvetica,SansSerif" font-size="11.4583" lengthAdjust="spacing" textLength="109.375" x="1577.6042" y="388.3097">Converter(Listener)</text><line style="stroke:#5E5E5E;stroke-width:1.0416666666666667;" x1="1555.7292" x2="1581.7708" y1="364.2344" y2="364.2344"/><text fill="#D8BC00" font-family="Open Sans,Avenir,Nunito,Arial,Helvetica,SansSerif" font-size="11.4583" lengthAdjust="spacing" textLength="81.25" x="1584.8958" y="368.044">(constructors)</text><line style="stroke:#5E5E5E;stroke-width:1.0416666666666667;" x1="1669.2708" x2="1695.3125" y1="364.2344" y2="364.2344"/><!--MD5=[9aa687ed59f428548907e723dba1087a]
class BaseStringConverter--><rect codeLine="6" fill="#282828" height="48.055" id="BaseStringConverter" rx="8.3333" ry="8.3333" style="stroke:#5E5E5E;stroke-width:1.0416666666666667;" width="169.7917" x="1413.5417" y="71.4111"/><rect fill="#1B1B1A" height="31.3883" rx="8.3333" ry="8.3333" style="stroke:#1B1B1A;stroke-width:1.0416666666666667;" width="169.7917" x="1413.5417" y="71.4111"/><rect fill="#1B1B1A" height="8.3333" style="stroke:#1B1B1A;stroke-width:1.0416666666666667;" width="169.7917" x="1413.5417" y="94.4661"/><rect codeLine="6" fill="none" height="48.055" id="BaseStringConverter" rx="8.3333" ry="8.3333" style="stroke:#5E5E5E;stroke-width:1.0416666666666667;" width="169.7917" x="1413.5417" y="71.4111"/><ellipse cx="1428.125" cy="87.1053" fill="#C8AC00" rx="10.4167" ry="10.4167" style="stroke:#D8BC00;stroke-width:1.0416666666666667;"/><path d="M1427.7181,83.8074 L1426.8697,87.5366 L1428.5726,87.5366 Z M1426.6195,82.1594 L1428.8228,82.1594 L1431.2826,91.272 L1429.482,91.272 L1428.9205,89.0198 L1426.5096,89.0198 L1425.9603,91.272 L1424.1597,91.272 Z " fill="#000000"/><text fill="#D8BC00" font-family="Open Sans,Avenir,Nunito,Arial,Helvetica,SansSerif" font-size="12.5" font-style="italic" font-weight="bold" lengthAdjust="spacing" textLength="132.2917" x="1444.7917" y="91.8294">BaseStringConverter</text><line style="stroke:#5E5E5E;stroke-width:1.0416666666666667;" x1="1414.5833" x2="1582.2917" y1="102.7995" y2="102.7995"/><line style="stroke:#5E5E5E;stroke-width:1.0416666666666667;" x1="1414.5833" x2="1582.2917" y1="111.1328" y2="111.1328"/><!--MD5=[bddb511951cf0a1d6a79f67b0c2ed87d]
class Filter--><rect codeLine="8" fill="#282828" height="48.055" id="Filter" rx="8.3333" ry="8.3333" style="stroke:#5E5E5E;stroke-width:1.0416666666666667;" width="70.8333" x="657.8125" y="71.4111"/><rect fill="#1B1B1A" height="31.3883" rx="8.3333" ry="8.3333" style="stroke:#1B1B1A;stroke-width:1.0416666666666667;" width="70.8333" x="657.8125" y="71.4111"/><rect fill="#1B1B1A" height="8.3333" style="stroke:#1B1B1A;stroke-width:1.0416666666666667;" width="70.8333" x="657.8125" y="94.4661"/><rect codeLine="8" fill="none" height="48.055" id="Filter" rx="8.3333" ry="8.3333" style="stroke:#5E5E5E;stroke-width:1.0416666666666667;" width="70.8333" x="657.8125" y="71.4111"/><ellipse cx="672.3958" cy="87.1053" fill="#008400" rx="10.4167" ry="10.4167" style="stroke:#239C23;stroke-width:1.0416666666666667;"/><path d="M669.7998,84.2672 L669.7998,82.6803 L675.2258,82.6803 L675.2258,84.2672 L673.4131,84.2672 L673.4131,90.2059 L675.2258,90.2059 L675.2258,91.7928 L669.7998,91.7928 L669.7998,90.2059 L671.6125,90.2059 L671.6125,84.2672 Z " fill="#000000"/><text fill="#D8BC00" font-family="Open Sans,Avenir,Nunito,Arial,Helvetica,SansSerif" font-size="12.5" font-style="italic" font-weight="bold" lengthAdjust="spacing" textLength="33.3333" x="689.0625" y="91.8294">Filter</text><line style="stroke:#5E5E5E;stroke-width:1.0416666666666667;" x1="658.8542" x2="727.6042" y1="102.7995" y2="102.7995"/><line style="stroke:#5E5E5E;stroke-width:1.0416666666666667;" x1="658.8542" x2="727.6042" y1="111.1328" y2="111.1328"/><!--MD5=[561ebc70b2072dd0a14c2cc7141612e4]
class PbfFilters--><rect codeLine="24" fill="#282828" height="83.3781" id="PbfFilters" rx="8.3333" ry="8.3333" style="stroke:#5E5E5E;stroke-width:1.0416666666666667;" width="106.25" x="389.0625" y="53.7028"/><rect fill="#1B1B1A" height="31.3883" rx="8.3333" ry="8.3333" style="stroke:#1B1B1A;stroke-width:1.0416666666666667;" width="106.25" x="389.0625" y="53.7028"/><rect fill="#1B1B1A" height="8.3333" style="stroke:#1B1B1A;stroke-width:1.0416666666666667;" width="106.25" x="389.0625" y="76.7578"/><rect codeLine="24" fill="none" height="83.3781" id="PbfFilters" rx="8.3333" ry="8.3333" style="stroke:#5E5E5E;stroke-width:1.0416666666666667;" width="106.25" x="389.0625" y="53.7028"/><ellipse cx="406.9271" cy="69.397" fill="#0066CF" rx="10.4167" ry="10.4167" style="stroke:#0086EF;stroke-width:1.0416666666666667;"/><path d="M408.8375,73.822 Q408.4102,74.0417 407.9403,74.1516 Q407.4703,74.2615 406.9515,74.2615 Q405.1082,74.2615 404.1378,73.0469 Q403.1673,71.8323 403.1673,69.5374 Q403.1673,67.2363 404.1378,66.0217 Q405.1082,64.8071 406.9515,64.8071 Q407.4703,64.8071 407.9464,64.917 Q408.4224,65.0269 408.8375,65.2466 L408.8375,67.2485 Q408.3736,66.8213 407.9372,66.6229 Q407.5008,66.4246 407.0369,66.4246 Q406.0482,66.4246 405.5446,67.2089 Q405.0411,67.9932 405.0411,69.5374 Q405.0411,71.0754 405.5446,71.8597 Q406.0482,72.644 407.0369,72.644 Q407.5008,72.644 407.9372,72.4457 Q408.3736,72.2473 408.8375,71.8201 Z " fill="#000000"/><text fill="#D8BC00" font-family="Open Sans,Avenir,Nunito,Arial,Helvetica,SansSerif" font-size="12.5" font-weight="bold" lengthAdjust="spacing" textLength="61.4583" x="424.3229" y="74.1211">PbfFilters</text><line style="stroke:#5E5E5E;stroke-width:1.5625;" x1="390.1042" x2="494.2708" y1="85.0911" y2="85.0911"/><ellipse cx="400.5208" cy="120.461" fill="#84BE84" rx="3.125" ry="3.125" style="stroke:#038048;stroke-width:1.0416666666666667;"/><text fill="#D8BC00" font-family="Open Sans,Avenir,Nunito,Arial,Helvetica,SansSerif" font-size="11.4583" lengthAdjust="spacing" textLength="73.9583" x="411.9792" y="127.3722">void loadAll()</text><line style="stroke:#5E5E5E;stroke-width:1.0416666666666667;" x1="390.1042" x2="422.3958" y1="103.2969" y2="103.2969"/><text fill="#D8BC00" font-family="Open Sans,Avenir,Nunito,Arial,Helvetica,SansSerif" font-size="11.4583" lengthAdjust="spacing" textLength="33.3333" x="425.5208" y="107.1065">(read)</text><line style="stroke:#5E5E5E;stroke-width:1.0416666666666667;" x1="461.9792" x2="494.2708" y1="103.2969" y2="103.2969"/><!--MD5=[7641309704a2ba86945d63525f0a850a]
class RelationFilter--><rect codeLine="31" fill="#282828" height="273.5819" id="RelationFilter" rx="8.3333" ry="8.3333" style="stroke:#5E5E5E;stroke-width:1.0416666666666667;" width="613.5417" x="9.375" y="219.3278"/><rect fill="#1B1B1A" height="31.3883" rx="8.3333" ry="8.3333" style="stroke:#1B1B1A;stroke-width:1.0416666666666667;" width="613.5417" x="9.375" y="219.3278"/><rect fill="#1B1B1A" height="8.3333" style="stroke:#1B1B1A;stroke-width:1.0416666666666667;" width="613.5417" x="9.375" y="242.3828"/><rect codeLine="31" fill="none" height="273.5819" id="RelationFilter" rx="8.3333" ry="8.3333" style="stroke:#5E5E5E;stroke-width:1.0416666666666667;" width="613.5417" x="9.375" y="219.3278"/><ellipse cx="265.625" cy="235.022" fill="#0066CF" rx="10.4167" ry="10.4167" style="stroke:#0086EF;stroke-width:1.0416666666666667;"/><path d="M267.5354,239.447 Q267.1082,239.6667 266.6382,239.7766 Q266.1682,239.8865 265.6494,239.8865 Q263.8062,239.8865 262.8357,238.6719 Q261.8652,237.4573 261.8652,235.1624 Q261.8652,232.8613 262.8357,231.6467 Q263.8062,230.4321 265.6494,230.4321 Q266.1682,230.4321 266.6443,230.542 Q267.1204,230.6519 267.5354,230.8716 L267.5354,232.8735 Q267.0715,232.4463 266.6351,232.2479 Q266.1987,232.0496 265.7349,232.0496 Q264.7461,232.0496 264.2426,232.8339 Q263.739,233.6182 263.739,235.1624 Q263.739,236.7004 264.2426,237.4847 Q264.7461,238.269 265.7349,238.269 Q266.1987,238.269 266.6351,238.0707 Q267.0715,237.8723 267.5354,237.4451 Z " fill="#000000"/><text fill="#D8BC00" font-family="Open Sans,Avenir,Nunito,Arial,Helvetica,SansSerif" font-size="12.5" font-weight="bold" lengthAdjust="spacing" textLength="86.4583" x="288.5417" y="239.7461">RelationFilter</text><line style="stroke:#5E5E5E;stroke-width:1.5625;" x1="10.4167" x2="621.875" y1="250.7161" y2="250.7161"/><ellipse cx="20.8333" cy="286.086" fill="#84BE84" rx="3.125" ry="3.125" style="stroke:#038048;stroke-width:1.0416666666666667;"/><text fill="#D8BC00" font-family="Open Sans,Avenir,Nunito,Arial,Helvetica,SansSerif" font-size="11.4583" lengthAdjust="spacing" textLength="154.1667" x="32.2917" y="292.9972">RelationFilter(String, String)</text><line style="stroke:#5E5E5E;stroke-width:1.0416666666666667;" x1="10.4167" x2="272.3958" y1="268.9219" y2="268.9219"/><text fill="#D8BC00" font-family="Open Sans,Avenir,Nunito,Arial,Helvetica,SansSerif" font-size="11.4583" lengthAdjust="spacing" textLength="81.25" x="275.5208" y="272.7315">(constructors)</text><line style="stroke:#5E5E5E;stroke-width:1.0416666666666667;" x1="359.8958" x2="621.875" y1="268.9219" y2="268.9219"/><line style="stroke:#5E5E5E;stroke-width:1.0416666666666667;" x1="10.4167" x2="621.875" y1="302.7059" y2="302.7059"/><ellipse cx="20.8333" cy="314.1642" fill="#84BE84" rx="3.125" ry="3.125" style="stroke:#038048;stroke-width:1.0416666666666667;"/><text fill="#D8BC00" font-family="Open Sans,Avenir,Nunito,Arial,Helvetica,SansSerif" font-size="11.4583" lengthAdjust="spacing" textLength="108.3333" x="32.2917" y="321.0754">String description()</text><ellipse cx="20.8333" cy="357.8206" fill="#84BE84" rx="3.125" ry="3.125" style="stroke:#038048;stroke-width:1.0416666666666667;"/><text fill="#D8BC00" font-family="Open Sans,Avenir,Nunito,Arial,Helvetica,SansSerif" font-size="11.4583" lengthAdjust="spacing" textLength="139.5833" x="32.2917" y="364.7319">void exclude(String type)</text><ellipse cx="20.8333" cy="377.5655" fill="#84BE84" rx="3.125" ry="3.125" style="stroke:#038048;stroke-width:1.0416666666666667;"/><text fill="#D8BC00" font-family="Open Sans,Avenir,Nunito,Arial,Helvetica,SansSerif" font-size="11.4583" lengthAdjust="spacing" textLength="198.9583" x="32.2917" y="384.4767">RelationFilter forName(String name)</text><ellipse cx="20.8333" cy="397.3104" fill="#84BE84" rx="3.125" ry="3.125" style="stroke:#038048;stroke-width:1.0416666666666667;"/><text fill="#D8BC00" font-family="Open Sans,Avenir,Nunito,Arial,Helvetica,SansSerif" font-size="11.4583" lengthAdjust="spacing" textLength="136.4583" x="32.2917" y="404.2216">void include(String type)</text><ellipse cx="20.8333" cy="417.0553" fill="#84BE84" rx="3.125" ry="3.125" style="stroke:#038048;stroke-width:1.0416666666666667;"/><text fill="#D8BC00" font-family="Open Sans,Avenir,Nunito,Arial,Helvetica,SansSerif" font-size="11.4583" lengthAdjust="spacing" textLength="402.0833" x="32.2917" y="423.9665">SwitchParser.Builder&lt;RelationFilter&gt; relationFilterSwitchParser(Listener)</text><ellipse cx="20.8333" cy="436.8001" fill="#84BE84" rx="3.125" ry="3.125" style="stroke:#038048;stroke-width:1.0416666666666667;"/><text fill="#D8BC00" font-family="Open Sans,Avenir,Nunito,Arial,Helvetica,SansSerif" font-size="11.4583" lengthAdjust="spacing" textLength="581.25" x="32.2917" y="443.7113">SwitchParser.Builder&lt;RelationFilter&gt; relationFilterSwitchParser(Listener, String name, String description)</text><polygon fill="#FFFF44" points="20.8333,451.3367,25,455.5033,20.8333,459.67,16.6667,455.5033" style="stroke:#B38D22;stroke-width:1.0416666666666667;"/><text fill="#D8BC00" font-family="Open Sans,Avenir,Nunito,Arial,Helvetica,SansSerif" font-size="11.4583" lengthAdjust="spacing" textLength="179.1667" x="32.2917" y="463.4562">boolean isExcluded(PbfRelation)</text><polygon fill="#FFFF44" points="20.8333,471.0815,25,475.2482,20.8333,479.4149,16.6667,475.2482" style="stroke:#B38D22;stroke-width:1.0416666666666667;"/><text fill="#D8BC00" font-family="Open Sans,Avenir,Nunito,Arial,Helvetica,SansSerif" font-size="11.4583" lengthAdjust="spacing" textLength="176.0417" x="32.2917" y="483.2011">boolean isIncluded(PbfRelation)</text><line style="stroke:#5E5E5E;stroke-width:1.0416666666666667;" x1="10.4167" x2="286.9792" y1="340.6565" y2="340.6565"/><text fill="#D8BC00" font-family="Open Sans,Avenir,Nunito,Arial,Helvetica,SansSerif" font-size="11.4583" lengthAdjust="spacing" textLength="52.0833" x="290.1042" y="344.4661">(filtering)</text><line style="stroke:#5E5E5E;stroke-width:1.0416666666666667;" x1="345.3125" x2="621.875" y1="340.6565" y2="340.6565"/><!--MD5=[296971189912b7d7a3ae0a5bad58974f]
class WayFilter--><rect codeLine="48" fill="#282828" height="313.0717" id="WayFilter" rx="8.3333" ry="8.3333" style="stroke:#5E5E5E;stroke-width:1.0416666666666667;" width="568.75" x="659.8958" y="199.5361"/><rect fill="#1B1B1A" height="31.3883" rx="8.3333" ry="8.3333" style="stroke:#1B1B1A;stroke-width:1.0416666666666667;" width="568.75" x="659.8958" y="199.5361"/><rect fill="#1B1B1A" height="8.3333" style="stroke:#1B1B1A;stroke-width:1.0416666666666667;" width="568.75" x="659.8958" y="222.5911"/><rect codeLine="48" fill="none" height="313.0717" id="WayFilter" rx="8.3333" ry="8.3333" style="stroke:#5E5E5E;stroke-width:1.0416666666666667;" width="568.75" x="659.8958" y="199.5361"/><ellipse cx="907.2917" cy="215.2303" fill="#0066CF" rx="10.4167" ry="10.4167" style="stroke:#0086EF;stroke-width:1.0416666666666667;"/><path d="M909.2021,219.6554 Q908.7748,219.8751 908.3049,219.9849 Q907.8349,220.0948 907.3161,220.0948 Q905.4728,220.0948 904.5024,218.8802 Q903.5319,217.6656 903.5319,215.3707 Q903.5319,213.0697 904.5024,211.8551 Q905.4728,210.6405 907.3161,210.6405 Q907.8349,210.6405 908.311,210.7503 Q908.787,210.8602 909.2021,211.0799 L909.2021,213.0819 Q908.7382,212.6546 908.3018,212.4563 Q907.8654,212.2579 907.4015,212.2579 Q906.4128,212.2579 905.9092,213.0422 Q905.4057,213.8265 905.4057,215.3707 Q905.4057,216.9088 905.9092,217.6931 Q906.4128,218.4774 907.4015,218.4774 Q907.8654,218.4774 908.3018,218.279 Q908.7382,218.0806 909.2021,217.6534 Z " fill="#000000"/><text fill="#D8BC00" font-family="Open Sans,Avenir,Nunito,Arial,Helvetica,SansSerif" font-size="12.5" font-weight="bold" lengthAdjust="spacing" textLength="59.375" x="930.2083" y="219.9544">WayFilter</text><line style="stroke:#5E5E5E;stroke-width:1.5625;" x1="660.9375" x2="1227.6042" y1="230.9245" y2="230.9245"/><ellipse cx="671.3542" cy="266.2944" fill="#84BE84" rx="3.125" ry="3.125" style="stroke:#038048;stroke-width:1.0416666666666667;"/><text fill="#D8BC00" font-family="Open Sans,Avenir,Nunito,Arial,Helvetica,SansSerif" font-size="11.4583" lengthAdjust="spacing" textLength="131.25" x="682.8125" y="273.2056">WayFilter(String, String)</text><line style="stroke:#5E5E5E;stroke-width:1.0416666666666667;" x1="660.9375" x2="900.5208" y1="249.1302" y2="249.1302"/><text fill="#D8BC00" font-family="Open Sans,Avenir,Nunito,Arial,Helvetica,SansSerif" font-size="11.4583" lengthAdjust="spacing" textLength="81.25" x="903.6458" y="252.9399">(constructors)</text><line style="stroke:#5E5E5E;stroke-width:1.0416666666666667;" x1="988.0208" x2="1227.6042" y1="249.1302" y2="249.1302"/><line style="stroke:#5E5E5E;stroke-width:1.0416666666666667;" x1="660.9375" x2="1227.6042" y1="282.9142" y2="282.9142"/><ellipse cx="671.3542" cy="294.3726" fill="#84BE84" rx="3.125" ry="3.125" style="stroke:#038048;stroke-width:1.0416666666666667;"/><text fill="#D8BC00" font-family="Open Sans,Avenir,Nunito,Arial,Helvetica,SansSerif" font-size="11.4583" lengthAdjust="spacing" textLength="108.3333" x="682.8125" y="301.2838">String description()</text><ellipse cx="671.3542" cy="338.029" fill="#84BE84" rx="3.125" ry="3.125" style="stroke:#038048;stroke-width:1.0416666666666667;"/><text fill="#D8BC00" font-family="Open Sans,Avenir,Nunito,Arial,Helvetica,SansSerif" font-size="11.4583" lengthAdjust="spacing" textLength="161.4583" x="682.8125" y="344.9402">void exclude(String highway)</text><ellipse cx="671.3542" cy="357.7738" fill="#84BE84" rx="3.125" ry="3.125" style="stroke:#038048;stroke-width:1.0416666666666667;"/><text fill="#D8BC00" font-family="Open Sans,Avenir,Nunito,Arial,Helvetica,SansSerif" font-size="11.4583" lengthAdjust="spacing" textLength="230.2083" x="682.8125" y="364.6851">WayFilter exclude(String name, Resource)</text><ellipse cx="671.3542" cy="377.5187" fill="#84BE84" rx="3.125" ry="3.125" style="stroke:#038048;stroke-width:1.0416666666666667;"/><text fill="#D8BC00" font-family="Open Sans,Avenir,Nunito,Arial,Helvetica,SansSerif" font-size="11.4583" lengthAdjust="spacing" textLength="176.0417" x="682.8125" y="384.4299">WayFilter forName(String name)</text><ellipse cx="671.3542" cy="397.2636" fill="#84BE84" rx="3.125" ry="3.125" style="stroke:#038048;stroke-width:1.0416666666666667;"/><text fill="#D8BC00" font-family="Open Sans,Avenir,Nunito,Arial,Helvetica,SansSerif" font-size="11.4583" lengthAdjust="spacing" textLength="158.3333" x="682.8125" y="404.1748">void include(String highway)</text><ellipse cx="671.3542" cy="417.0085" fill="#84BE84" rx="3.125" ry="3.125" style="stroke:#038048;stroke-width:1.0416666666666667;"/><text fill="#D8BC00" font-family="Open Sans,Avenir,Nunito,Arial,Helvetica,SansSerif" font-size="11.4583" lengthAdjust="spacing" textLength="227.0833" x="682.8125" y="423.9197">WayFilter include(String name, Resource)</text><ellipse cx="671.3542" cy="436.7533" fill="#84BE84" rx="3.125" ry="3.125" style="stroke:#038048;stroke-width:1.0416666666666667;"/><text fill="#D8BC00" font-family="Open Sans,Avenir,Nunito,Arial,Helvetica,SansSerif" font-size="11.4583" lengthAdjust="spacing" textLength="536.4583" x="682.8125" y="443.6646">SwitchParser.Builder&lt;WayFilter&gt; wayFilterSwitchParser(Listener, String name, String description)</text><ellipse cx="671.3542" cy="456.4982" fill="#84BE84" rx="3.125" ry="3.125" style="stroke:#038048;stroke-width:1.0416666666666667;"/><text fill="#D8BC00" font-family="Open Sans,Avenir,Nunito,Arial,Helvetica,SansSerif" font-size="11.4583" lengthAdjust="spacing" textLength="357.2917" x="682.8125" y="463.4094">SwitchParser.Builder&lt;WayFilter&gt; wayFilterSwitchParser(Listener)</text><polygon fill="#FFFF44" points="671.3542,471.0347,675.5208,475.2014,671.3542,479.3681,667.1875,475.2014" style="stroke:#B38D22;stroke-width:1.0416666666666667;"/><text fill="#D8BC00" font-family="Open Sans,Avenir,Nunito,Arial,Helvetica,SansSerif" font-size="11.4583" lengthAdjust="spacing" textLength="156.25" x="682.8125" y="483.1543">boolean isExcluded(PbfWay)</text><polygon fill="#FFFF44" points="671.3542,490.7796,675.5208,494.9463,671.3542,499.113,667.1875,494.9463" style="stroke:#B38D22;stroke-width:1.0416666666666667;"/><text fill="#D8BC00" font-family="Open Sans,Avenir,Nunito,Arial,Helvetica,SansSerif" font-size="11.4583" lengthAdjust="spacing" textLength="153.125" x="682.8125" y="502.8992">boolean isIncluded(PbfWay)</text><line style="stroke:#5E5E5E;stroke-width:1.0416666666666667;" x1="660.9375" x2="915.1042" y1="320.8649" y2="320.8649"/><text fill="#D8BC00" font-family="Open Sans,Avenir,Nunito,Arial,Helvetica,SansSerif" font-size="11.4583" lengthAdjust="spacing" textLength="52.0833" x="918.2292" y="324.6745">(filtering)</text><line style="stroke:#5E5E5E;stroke-width:1.0416666666666667;" x1="973.4375" x2="1227.6042" y1="320.8649" y2="320.8649"/><!--MD5=[c5e944213a916c628c2bd882b48237bb]
reverse link BaseStringConverter to WayFilter.Converter--><path codeLine="10" d="M1477.9896,138.4007 C1454.375,186.9007 1415.7813,266.1715 1392.3646,314.2549 " fill="none" id="BaseStringConverter-backto-WayFilter.Converter" style="stroke:#545454;stroke-width:1.5625;"/><polygon fill="none" points="1471.5729,134.9215,1487.25,119.3799,1484.6875,141.307,1471.5729,134.9215" style="stroke:#545454;stroke-width:1.5625;"/><!--MD5=[677ab24af6555f3e6f297a7bd94af3be]
reverse link BaseStringConverter to RelationFilter.Converter--><path codeLine="17" d="M1519.8125,138.2861 C1529.3021,156.9945 1540.5521,179.3278 1550.5208,199.5361 C1569.7083,238.4215 1591.125,283.0257 1606.1458,314.5049 " fill="none" id="BaseStringConverter-backto-RelationFilter.Converter" style="stroke:#545454;stroke-width:1.5625;"/><polygon fill="none" points="1513.3021,141.5674,1510.3542,119.6924,1526.3021,134.9528,1513.3021,141.5674" style="stroke:#545454;stroke-width:1.5625;"/><!--MD5=[73da9da996070630eb6b6fd449d7c510]
reverse link Filter to RelationFilter--><path codeLine="30" d="M642.4375,131.2757 C608.7188,154.432 562.0417,186.4632 514.5417,219.0778 " fill="none" id="Filter-backto-RelationFilter" style="stroke:#545454;stroke-width:1.5625;"/><polygon fill="none" points="638.4583,125.1611,659.7604,119.3799,646.7188,137.182,638.4583,125.1611" style="stroke:#545454;stroke-width:1.5625;"/><!--MD5=[c7d9157f88d96bc441895237d54429f6]
reverse link Filter to WayFilter--><path codeLine="47" d="M730.1354,134.4736 C747.6042,152.484 769.75,175.3174 793.1354,199.4215 " fill="none" id="Filter-backto-WayFilter" style="stroke:#545454;stroke-width:1.5625;"/><polygon fill="none" points="724.7813,139.4111,715.5104,119.3799,735.25,129.2653,724.7813,139.4111" style="stroke:#545454;stroke-width:1.5625;"/><!--MD5=[fcd21813acf84b65176eb1a040e62a07]
link PbfFilters to RelationFilter--><!--MD5=[200ca501ab8f1387838b38ac23ac9ec8]
link PbfFilters to WayFilter--><!--MD5=[cf31ffed649a7c3639d556cc70f7fc5a]
@startuml

    !include lexakai.theme
    
    title "com.telenav.mesakit.map.data.formats.pbf.processing.filters"
    
    abstract BaseStringConverter
    
    interface Filter
    
    BaseStringConverter <|- - WayFilter.Converter
    class WayFilter.Converter
    {
        - -(constructors)- -
        +Converter(Listener)
    }
    
    BaseStringConverter <|- - RelationFilter.Converter
    class RelationFilter.Converter
    {
        - -(constructors)- -
        +Converter(Listener)
    }
    
    class PbfFilters
    {
        - -(read)- -
        +void loadAll()
    }
    
    Filter <|- - RelationFilter
    class RelationFilter
    {
        - -(constructors)- -
        +RelationFilter(String, String)
        - -
        +String description()
        - -(filtering)- -
        +void exclude(String type)
        +RelationFilter forName(String name)
        +void include(String type)
        +SwitchParser.Builder<RelationFilter> relationFilterSwitchParser(Listener)
        +SwitchParser.Builder<RelationFilter> relationFilterSwitchParser(Listener, String name, String description)
        #boolean isExcluded(PbfRelation)
        #boolean isIncluded(PbfRelation)
    }
    
    Filter <|- - WayFilter
    class WayFilter
    {
        - -(constructors)- -
        +WayFilter(String, String)
        - -
        +String description()
        - -(filtering)- -
        +void exclude(String highway)
        +WayFilter exclude(String name, Resource)
        +WayFilter forName(String name)
        +void include(String highway)
        +WayFilter include(String name, Resource)
        +SwitchParser.Builder<WayFilter> wayFilterSwitchParser(Listener, String name, String description)
        +SwitchParser.Builder<WayFilter> wayFilterSwitchParser(Listener)
        #boolean isExcluded(PbfWay)
        #boolean isIncluded(PbfWay)
    }
    
@enduml

@startuml









skinparam backgroundColor #333333






skinparam  {
    defaultFontName   "Open Sans,Avenir,Nunito,Arial,Helvetica,SansSerif"
    defaultFontSize   12
    defaultTextAlignment left
    shadowing false
    RoundCorner 10
    TitleFontSize 18
}

skinparam defaultFontName       "Open Sans,Avenir,Nunito,Arial,Helvetica,SansSerif"
skinparam defaultFontSize       12
skinparam dpi                   100
skinparam shadowing             false
skinparam roundcorner           16
skinparam ParticipantPadding    40
skinparam BoxPadding            40
skinparam Padding               3
skinparam ArrowColor            #545454
skinparam stereotype {
    CBackgroundColor #0066cf
    CBorderColor #0086ef
    ABackgroundColor #C8Ac00
    ABorderColor #D8Bc00
    IBackgroundColor #008400
    IBorderColor #239c23
    EBackgroundColor #cf6300
    EBorderColor #ef8300
    NBackgroundColor #3380b9
    NBorderColor #004d86
}
skinparam title {
	FontColor	                 #c0c0c0
 	BorderColor                  #545454
	FontSize	    	         20
	BorderRoundCorner            16
	BorderThickness 	         1
	BackgroundColor              #48494b
}


skinparam legend {
	BackgroundColor #303030
	BorderColor #404040
	FontColor #a0a0a0
}

	skinparam swimlane {
	BorderColor #5e5e5e
	BorderThickness 2
	TitleBackgroundColor  #6d6d6d-#484848
	TitleFontColor #303030
}

skinparam activity {
		FontColor #C8Ac00
	BorderColor #333333
	BackgroundColor #333333-#333333
	BarColor #00FF00
	StartColor #0060a8
	EndColor #0060a8
	DiamondBackgroundColor #6d6d6d-#3a3a3a
  	DiamondBorderColor #3a3a3a
  	DiamondFontColor #fefefe
}


skinparam participant {
		FontColor #C8Ac00
	BorderColor #333333
	BackgroundColor #333333-#333333
	ParticipantBorderThickness 2
}


skinparam actor {
		FontColor #C8Ac00
	BorderColor #333333
	BackgroundColor #333333-#333333
}


skinparam arrow {
	Thickness 1.5
	Color #545454
	FontColor #a0a0a0
    FontStyle bold
    MessageAlignment center
}



skinparam sequence {
	BorderColor #303030
	TitleFontColor #303030
	BackgroundColor #333333
	StartColor #303030
	EndColor #303030
	BoxBackgroundColor #333333
	BoxBorderColor #484848
	BoxFontColor #484848
	LifeLineBorderColor #484848
	LifeLineBorderThickness 2
	LifeLineBackgroundColor #3a3a3a
	GroupBorderColor #484848
	GroupFontColor #484848
	GroupHeaderFontColor #0060a8
	GroupBackgroundColor #484848
	GroupHeaderBackgroundColor #333333
	DividerBackgroundColor #484848
    DividerBorderColor #484848
    DividerBorderThickness 2
    DividerFontColor #D8Bc00
	ReferenceBackgroundColor #333333
	ReferenceBorderColor #484848
	ReferenceFontColor #fefefe
	ReferenceHeaderBackgroundColor #484848
}


skinparam partition {
	BorderColor #303030
	FontColor #333333
	BackgroundColor #333333
}


skinparam collections {
		FontColor #C8Ac00
	BorderColor #333333
	BackgroundColor #333333-#333333
}


skinparam control {
		FontColor #C8Ac00
	BorderColor #333333
	BackgroundColor #333333-#333333
}


skinparam entity {
		FontColor #C8Ac00
	BorderColor #333333
	BackgroundColor #333333-#333333
}


skinparam boundary {
		FontColor #C8Ac00
	BorderColor #333333
	BackgroundColor #333333-#333333
}


skinparam agent {
	BackgroundColor #ff8000
	BorderColor #ff9933
	FontColor #484848
}


skinparam note {
	BorderThickness 1
	BackgroundColor #1b1b1a
	BorderColor #5e5e5e
	FontSize 11
	FontColor #a0a0a0
}


skinparam artifact {
	BorderThickness 10
	BorderColor #5e5e5e
	BackgroundColor #1b1b1a
	FontColor #D8Bc00
}


skinparam component {
		FontColor #C8Ac00
	BorderColor #333333
	BackgroundColor #333333-#333333
}


skinparam interface {
	BackgroundColor  #008400
	BorderColor  #007F00
	FontColor #484848
}


skinparam storage {
	BackgroundColor #ff8000
  	BorderColor #cc6600
	FontColor #222222
}


skinparam node {
	BackgroundColor #333333
	BorderColor #333333
	FontColor #C8Ac00
}


skinparam cloud {
	BackgroundColor #484848-black
	BorderColor #484848
	FontColor #D8Bc00
}


skinparam database {
		FontColor #C8Ac00
	BorderColor #333333
	BackgroundColor #333333-#333333
	BackgroundColor  #333333
}


skinparam class {
		FontColor #C8Ac00
	BorderColor #333333
	BackgroundColor #333333-#333333
	HeaderBackgroundColor #1b1b1a
    BackgroundColor #282828
    BorderColor #5e5e5e
 	StereotypeFontColor #a0a0a0
    StereotypeFontStyle bold
	BorderThickness 1
	AttributeFontColor #D8Bc00
	AttributeFontSize 11
    FontColor #D8Bc00
    FontStyle bold
}


skinparam object {
		FontColor #C8Ac00
	BorderColor #333333
	BackgroundColor #333333-#333333
	StereotypeFontColor #484848
	BorderThickness 1
	AttributeFontColor #fefefe
	AttributeFontSize 11
}


skinparam usecase {
		FontColor #C8Ac00
	BorderColor #333333
	BackgroundColor #333333-#333333
	BorderThickness 2
	StereotypeFontColor #303030
}


skinparam rectangle {
		FontColor #C8Ac00
	BorderColor #333333
	BackgroundColor #333333-#333333
	BackgroundColor #333333
	BorderThickness 2
	StereotypeFontColor #303030
}


skinparam package {
		FontColor #C8Ac00
	BorderColor #333333
	BackgroundColor #333333-#333333
	BackgroundColor #333333
	BorderThickness 2
}


skinparam folder {
	BackgroundColor #6d6d6d
  	BorderColor #ff8000
	FontColor #ff8000
	BorderThickness 2
}


skinparam frame {
	BackgroundColor #6d6d6d
  	BorderColor #0060a8
	FontColor #0060a8
	BorderThickness 2
}


skinparam state {
		FontColor #C8Ac00
	BorderColor #333333
	BackgroundColor #333333-#333333
	StartColor #0060a8
	EndColor #0060a8
	AttributeFontColor #fefefe
	AttributeFontSize 11
}


skinparam queue {
		FontColor #C8Ac00
	BorderColor #333333
	BackgroundColor #333333-#333333
}


skinparam card {
	BackgroundColor #0060a8
	BorderColor #004d86
	FontColor $INFO_TEXT
}


skinparam file {
	BackgroundColor #6d6d6d-#484848
	BorderColor #0060a8
	FontColor #fefefe
}


skinparam stack {
		FontColor #C8Ac00
	BorderColor #333333
	BackgroundColor #333333-#333333
}

    
    title "com.telenav.mesakit.map.data.formats.pbf.processing.filters"
    
    abstract BaseStringConverter
    
    interface Filter
    
    BaseStringConverter <|- - WayFilter.Converter
    class WayFilter.Converter
    {
        - -(constructors)- -
        +Converter(Listener)
    }
    
    BaseStringConverter <|- - RelationFilter.Converter
    class RelationFilter.Converter
    {
        - -(constructors)- -
        +Converter(Listener)
    }
    
    class PbfFilters
    {
        - -(read)- -
        +void loadAll()
    }
    
    Filter <|- - RelationFilter
    class RelationFilter
    {
        - -(constructors)- -
        +RelationFilter(String, String)
        - -
        +String description()
        - -(filtering)- -
        +void exclude(String type)
        +RelationFilter forName(String name)
        +void include(String type)
        +SwitchParser.Builder<RelationFilter> relationFilterSwitchParser(Listener)
        +SwitchParser.Builder<RelationFilter> relationFilterSwitchParser(Listener, String name, String description)
        #boolean isExcluded(PbfRelation)
        #boolean isIncluded(PbfRelation)
    }
    
    Filter <|- - WayFilter
    class WayFilter
    {
        - -(constructors)- -
        +WayFilter(String, String)
        - -
        +String description()
        - -(filtering)- -
        +void exclude(String highway)
        +WayFilter exclude(String name, Resource)
        +WayFilter forName(String name)
        +void include(String highway)
        +WayFilter include(String name, Resource)
        +SwitchParser.Builder<WayFilter> wayFilterSwitchParser(Listener, String name, String description)
        +SwitchParser.Builder<WayFilter> wayFilterSwitchParser(Listener)
        #boolean isExcluded(PbfWay)
        #boolean isIncluded(PbfWay)
    }
    
@enduml

PlantUML version 1.2021.01(Tue Feb 02 00:55:08 MST 2021)
(GPL source distribution)
Java Runtime: OpenJDK Runtime Environment
JVM: OpenJDK 64-Bit Server VM
Default Encoding: UTF-8
Language: en
Country: US
--></g></svg>