<?xml version="1.0" encoding="UTF-8" standalone="no"?><svg xmlns="http://www.w3.org/2000/svg" xmlns:xlink="http://www.w3.org/1999/xlink" contentScriptType="application/ecmascript" contentStyleType="text/css" height="254.1667px" preserveAspectRatio="none" style="width:664px;height:254px;background:#333333;" version="1.1" viewBox="0 0 664 254" width="664.5833px" zoomAndPan="magnify"><defs/><g><rect fill="#48494B" height="41.2028" rx="8.3333" ry="8.3333" style="stroke:#545454;stroke-width:1.0416666666666667;" width="652.0833" x="2.0833" y="2.0833"/><text fill="#C0C0C0" font-family="Open Sans,Avenir,Nunito,Arial,Helvetica,SansSerif" font-size="20.8333" lengthAdjust="spacing" textLength="629.1667" x="13.5417" y="30.5583">com.telenav.mesakit.graph.query.program.expressions.closure</text><rect codeLine="7" fill="#282828" height="48.055" id="BooleanExpression" rx="8.3333" ry="8.3333" style="stroke:#5E5E5E;stroke-width:1.0416666666666667;" width="160.4167" x="201.5625" y="53.7028"/><rect fill="#1B1B1A" height="31.3883" rx="8.3333" ry="8.3333" style="stroke:#1B1B1A;stroke-width:1.0416666666666667;" width="160.4167" x="201.5625" y="53.7028"/><rect fill="#1B1B1A" height="8.3333" style="stroke:#1B1B1A;stroke-width:1.0416666666666667;" width="160.4167" x="201.5625" y="76.7578"/><rect codeLine="7" fill="none" height="48.055" id="BooleanExpression" rx="8.3333" ry="8.3333" style="stroke:#5E5E5E;stroke-width:1.0416666666666667;" width="160.4167" x="201.5625" y="53.7028"/><ellipse cx="216.1458" cy="69.397" fill="#008400" rx="10.4167" ry="10.4167" style="stroke:#239C23;stroke-width:1.0416666666666667;"/><path d="M213.5498,66.5588 L213.5498,64.9719 L218.9758,64.9719 L218.9758,66.5588 L217.1631,66.5588 L217.1631,72.4976 L218.9758,72.4976 L218.9758,74.0845 L213.5498,74.0845 L213.5498,72.4976 L215.3625,72.4976 L215.3625,66.5588 Z " fill="#000000"/><text fill="#D8BC00" font-family="Open Sans,Avenir,Nunito,Arial,Helvetica,SansSerif" font-size="12.5" font-style="italic" font-weight="bold" lengthAdjust="spacing" textLength="122.9167" x="232.8125" y="74.1211">BooleanExpression</text><line style="stroke:#5E5E5E;stroke-width:1.0416666666666667;" x1="202.6042" x2="360.9375" y1="85.0911" y2="85.0911"/><line style="stroke:#5E5E5E;stroke-width:1.0416666666666667;" x1="202.6042" x2="360.9375" y1="93.4245" y2="93.4245"/><rect fill="#282828" height="48.055" id="Node" rx="8.3333" ry="8.3333" style="stroke:#5E5E5E;stroke-width:1.0416666666666667;" width="70.8333" x="398.4375" y="53.7028"/><rect fill="#1B1B1A" height="31.3883" rx="8.3333" ry="8.3333" style="stroke:#1B1B1A;stroke-width:1.0416666666666667;" width="70.8333" x="398.4375" y="53.7028"/><rect fill="#1B1B1A" height="8.3333" style="stroke:#1B1B1A;stroke-width:1.0416666666666667;" width="70.8333" x="398.4375" y="76.7578"/><rect fill="none" height="48.055" id="Node" rx="8.3333" ry="8.3333" style="stroke:#5E5E5E;stroke-width:1.0416666666666667;" width="70.8333" x="398.4375" y="53.7028"/><ellipse cx="413.0208" cy="69.397" fill="#0066CF" rx="10.4167" ry="10.4167" style="stroke:#0086EF;stroke-width:1.0416666666666667;"/><path d="M414.9312,73.822 Q414.504,74.0417 414.034,74.1516 Q413.564,74.2615 413.0452,74.2615 Q411.202,74.2615 410.2315,73.0469 Q409.2611,71.8323 409.2611,69.5374 Q409.2611,67.2363 410.2315,66.0217 Q411.202,64.8071 413.0452,64.8071 Q413.564,64.8071 414.0401,64.917 Q414.5162,65.0269 414.9312,65.2466 L414.9312,67.2485 Q414.4674,66.8213 414.031,66.6229 Q413.5946,66.4246 413.1307,66.4246 Q412.1419,66.4246 411.6384,67.2089 Q411.1348,67.9932 411.1348,69.5374 Q411.1348,71.0754 411.6384,71.8597 Q412.1419,72.644 413.1307,72.644 Q413.5946,72.644 414.031,72.4457 Q414.4674,72.2473 414.9312,71.8201 Z " fill="#000000"/><text fill="#D8BC00" font-family="Open Sans,Avenir,Nunito,Arial,Helvetica,SansSerif" font-size="12.5" font-weight="bold" lengthAdjust="spacing" textLength="33.3333" x="429.6875" y="74.1211">Node</text><line style="stroke:#5E5E5E;stroke-width:1.0416666666666667;" x1="399.4792" x2="468.2292" y1="85.0911" y2="85.0911"/><line style="stroke:#5E5E5E;stroke-width:1.0416666666666667;" x1="399.4792" x2="468.2292" y1="93.4245" y2="93.4245"/><rect codeLine="11" fill="#282828" height="83.3781" id="OneOrMore" rx="8.3333" ry="8.3333" style="stroke:#5E5E5E;stroke-width:1.0416666666666667;" width="212.5" x="251.5625" y="164.1195"/><rect fill="#1B1B1A" height="31.3883" rx="8.3333" ry="8.3333" style="stroke:#1B1B1A;stroke-width:1.0416666666666667;" width="212.5" x="251.5625" y="164.1195"/><rect fill="#1B1B1A" height="8.3333" style="stroke:#1B1B1A;stroke-width:1.0416666666666667;" width="212.5" x="251.5625" y="187.1745"/><rect codeLine="11" fill="none" height="83.3781" id="OneOrMore" rx="8.3333" ry="8.3333" style="stroke:#5E5E5E;stroke-width:1.0416666666666667;" width="212.5" x="251.5625" y="164.1195"/><ellipse cx="313.5417" cy="179.8136" fill="#0066CF" rx="10.4167" ry="10.4167" style="stroke:#0086EF;stroke-width:1.0416666666666667;"/><path d="M315.4521,184.2387 Q315.0248,184.4584 314.5549,184.5683 Q314.0849,184.6781 313.5661,184.6781 Q311.7228,184.6781 310.7524,183.4635 Q309.7819,182.2489 309.7819,179.954 Q309.7819,177.653 310.7524,176.4384 Q311.7228,175.2238 313.5661,175.2238 Q314.0849,175.2238 314.561,175.3337 Q315.037,175.4435 315.4521,175.6632 L315.4521,177.6652 Q314.9882,177.238 314.5518,177.0396 Q314.1154,176.8412 313.6515,176.8412 Q312.6628,176.8412 312.1592,177.6255 Q311.6557,178.4098 311.6557,179.954 Q311.6557,181.4921 312.1592,182.2764 Q312.6628,183.0607 313.6515,183.0607 Q314.1154,183.0607 314.5518,182.8623 Q314.9882,182.664 315.4521,182.2367 Z " fill="#000000"/><text fill="#D8BC00" font-family="Open Sans,Avenir,Nunito,Arial,Helvetica,SansSerif" font-size="12.5" font-weight="bold" lengthAdjust="spacing" textLength="73.9583" x="336.4583" y="184.5378">OneOrMore</text><line style="stroke:#5E5E5E;stroke-width:1.5625;" x1="252.6042" x2="463.0208" y1="195.5078" y2="195.5078"/><ellipse cx="263.0208" cy="230.8777" fill="#84BE84" rx="3.125" ry="3.125" style="stroke:#038048;stroke-width:1.0416666666666667;"/><text fill="#D8BC00" font-family="Open Sans,Avenir,Nunito,Arial,Helvetica,SansSerif" font-size="11.4583" lengthAdjust="spacing" textLength="180.2083" x="274.4792" y="237.7889">OneOrMore(BooleanExpression)</text><line style="stroke:#5E5E5E;stroke-width:1.0416666666666667;" x1="252.6042" x2="314.0625" y1="213.7136" y2="213.7136"/><text fill="#D8BC00" font-family="Open Sans,Avenir,Nunito,Arial,Helvetica,SansSerif" font-size="11.4583" lengthAdjust="spacing" textLength="81.25" x="317.1875" y="217.5232">(constructors)</text><line style="stroke:#5E5E5E;stroke-width:1.0416666666666667;" x1="401.5625" x2="463.0208" y1="213.7136" y2="213.7136"/><path codeLine="9" d="M409.0833,119.7653 C400.5417,133.9215 390.9792,149.7757 382.4375,163.9215 " fill="none" id="Node-backto-OneOrMore" style="stroke:#545454;stroke-width:1.5625;"/><polygon fill="none" points="402.9063,115.8903,419.9063,101.8174,415.3854,123.4215,402.9063,115.8903" style="stroke:#545454;stroke-width:1.5625;"/><path codeLine="10" d="M306.5417,119.7653 C315.0833,133.9215 324.6458,149.7757 333.1875,163.9215 " fill="none" id="BooleanExpression-backto-OneOrMore" style="stroke:#545454;stroke-width:1.5625;"/><polygon fill="none" points="300.2396,123.4215,295.7188,101.8174,312.7188,115.8903,300.2396,123.4215" style="stroke:#545454;stroke-width:1.5625;"/></g></svg>
