<?xml version="1.0" encoding="UTF-8" standalone="no"?><svg xmlns="http://www.w3.org/2000/svg" xmlns:xlink="http://www.w3.org/1999/xlink" contentScriptType="application/ecmascript" contentStyleType="text/css" height="254.1667px" preserveAspectRatio="none" style="width:576px;height:254px;background:#333333;" version="1.1" viewBox="0 0 576 254" width="576.0417px" zoomAndPan="magnify"><defs/><g><rect fill="#48494B" height="41.2028" rx="8.3333" ry="8.3333" style="stroke:#545454;stroke-width:1.0416666666666667;" width="563.5417" x="2.0833" y="2.0833"/><text fill="#C0C0C0" font-family="Open Sans,Avenir,Nunito,Arial,Helvetica,SansSerif" font-size="20.8333" lengthAdjust="spacing" textLength="540.625" x="13.5417" y="30.5583">com.telenav.mesakit.graph.query.program.statements</text><rect codeLine="7" fill="#282828" height="48.055" id="Statement" rx="8.3333" ry="8.3333" style="stroke:#5E5E5E;stroke-width:1.0416666666666667;" width="103.125" x="185.6771" y="53.7028"/><rect fill="#1B1B1A" height="31.3883" rx="8.3333" ry="8.3333" style="stroke:#1B1B1A;stroke-width:1.0416666666666667;" width="103.125" x="185.6771" y="53.7028"/><rect fill="#1B1B1A" height="8.3333" style="stroke:#1B1B1A;stroke-width:1.0416666666666667;" width="103.125" x="185.6771" y="76.7578"/><rect codeLine="7" fill="none" height="48.055" id="Statement" rx="8.3333" ry="8.3333" style="stroke:#5E5E5E;stroke-width:1.0416666666666667;" width="103.125" x="185.6771" y="53.7028"/><ellipse cx="200.2604" cy="69.397" fill="#008400" rx="10.4167" ry="10.4167" style="stroke:#239C23;stroke-width:1.0416666666666667;"/><path d="M197.6644,66.5588 L197.6644,64.9719 L203.0904,64.9719 L203.0904,66.5588 L201.2777,66.5588 L201.2777,72.4976 L203.0904,72.4976 L203.0904,74.0845 L197.6644,74.0845 L197.6644,72.4976 L199.4771,72.4976 L199.4771,66.5588 Z " fill="#000000"/><text fill="#D8BC00" font-family="Open Sans,Avenir,Nunito,Arial,Helvetica,SansSerif" font-size="12.5" font-style="italic" font-weight="bold" lengthAdjust="spacing" textLength="65.625" x="216.9271" y="74.1211">Statement</text><line style="stroke:#5E5E5E;stroke-width:1.0416666666666667;" x1="186.7188" x2="287.7604" y1="85.0911" y2="85.0911"/><line style="stroke:#5E5E5E;stroke-width:1.0416666666666667;" x1="186.7188" x2="287.7604" y1="93.4245" y2="93.4245"/><rect fill="#282828" height="48.055" id="Node" rx="8.3333" ry="8.3333" style="stroke:#5E5E5E;stroke-width:1.0416666666666667;" width="70.8333" x="325.7813" y="53.7028"/><rect fill="#1B1B1A" height="31.3883" rx="8.3333" ry="8.3333" style="stroke:#1B1B1A;stroke-width:1.0416666666666667;" width="70.8333" x="325.7813" y="53.7028"/><rect fill="#1B1B1A" height="8.3333" style="stroke:#1B1B1A;stroke-width:1.0416666666666667;" width="70.8333" x="325.7813" y="76.7578"/><rect fill="none" height="48.055" id="Node" rx="8.3333" ry="8.3333" style="stroke:#5E5E5E;stroke-width:1.0416666666666667;" width="70.8333" x="325.7813" y="53.7028"/><ellipse cx="340.3646" cy="69.397" fill="#0066CF" rx="10.4167" ry="10.4167" style="stroke:#0086EF;stroke-width:1.0416666666666667;"/><path d="M342.275,73.822 Q341.8477,74.0417 341.3778,74.1516 Q340.9078,74.2615 340.389,74.2615 Q338.5457,74.2615 337.5753,73.0469 Q336.6048,71.8323 336.6048,69.5374 Q336.6048,67.2363 337.5753,66.0217 Q338.5457,64.8071 340.389,64.8071 Q340.9078,64.8071 341.3839,64.917 Q341.8599,65.0269 342.275,65.2466 L342.275,67.2485 Q341.8111,66.8213 341.3747,66.6229 Q340.9383,66.4246 340.4744,66.4246 Q339.4857,66.4246 338.9821,67.2089 Q338.4786,67.9932 338.4786,69.5374 Q338.4786,71.0754 338.9821,71.8597 Q339.4857,72.644 340.4744,72.644 Q340.9383,72.644 341.3747,72.4457 Q341.8111,72.2473 342.275,71.8201 Z " fill="#000000"/><text fill="#D8BC00" font-family="Open Sans,Avenir,Nunito,Arial,Helvetica,SansSerif" font-size="12.5" font-weight="bold" lengthAdjust="spacing" textLength="33.3333" x="357.0313" y="74.1211">Node</text><line style="stroke:#5E5E5E;stroke-width:1.0416666666666667;" x1="326.8229" x2="395.5729" y1="85.0911" y2="85.0911"/><line style="stroke:#5E5E5E;stroke-width:1.0416666666666667;" x1="326.8229" x2="395.5729" y1="93.4245" y2="93.4245"/><rect codeLine="11" fill="#282828" height="83.3781" id="Select" rx="8.3333" ry="8.3333" style="stroke:#5E5E5E;stroke-width:1.0416666666666667;" width="179.1667" x="209.1146" y="164.1195"/><rect fill="#1B1B1A" height="31.3883" rx="8.3333" ry="8.3333" style="stroke:#1B1B1A;stroke-width:1.0416666666666667;" width="179.1667" x="209.1146" y="164.1195"/><rect fill="#1B1B1A" height="8.3333" style="stroke:#1B1B1A;stroke-width:1.0416666666666667;" width="179.1667" x="209.1146" y="187.1745"/><rect codeLine="11" fill="none" height="83.3781" id="Select" rx="8.3333" ry="8.3333" style="stroke:#5E5E5E;stroke-width:1.0416666666666667;" width="179.1667" x="209.1146" y="164.1195"/><ellipse cx="272.6563" cy="179.8136" fill="#0066CF" rx="10.4167" ry="10.4167" style="stroke:#0086EF;stroke-width:1.0416666666666667;"/><path d="M274.5667,184.2387 Q274.1394,184.4584 273.6694,184.5683 Q273.1995,184.6781 272.6807,184.6781 Q270.8374,184.6781 269.8669,183.4635 Q268.8965,182.2489 268.8965,179.954 Q268.8965,177.653 269.8669,176.4384 Q270.8374,175.2238 272.6807,175.2238 Q273.1995,175.2238 273.6755,175.3337 Q274.1516,175.4435 274.5667,175.6632 L274.5667,177.6652 Q274.1028,177.238 273.6664,177.0396 Q273.23,176.8412 272.7661,176.8412 Q271.7773,176.8412 271.2738,177.6255 Q270.7703,178.4098 270.7703,179.954 Q270.7703,181.4921 271.2738,182.2764 Q271.7773,183.0607 272.7661,183.0607 Q273.23,183.0607 273.6664,182.8623 Q274.1028,182.664 274.5667,182.2367 Z " fill="#000000"/><text fill="#D8BC00" font-family="Open Sans,Avenir,Nunito,Arial,Helvetica,SansSerif" font-size="12.5" font-weight="bold" lengthAdjust="spacing" textLength="37.5" x="295.5729" y="184.5378">Select</text><line style="stroke:#5E5E5E;stroke-width:1.5625;" x1="210.1563" x2="387.2396" y1="195.5078" y2="195.5078"/><ellipse cx="220.5729" cy="230.8777" fill="#84BE84" rx="3.125" ry="3.125" style="stroke:#038048;stroke-width:1.0416666666666667;"/><text fill="#D8BC00" font-family="Open Sans,Avenir,Nunito,Arial,Helvetica,SansSerif" font-size="11.4583" lengthAdjust="spacing" textLength="146.875" x="232.0313" y="237.7889">Select(BooleanExpression)</text><line style="stroke:#5E5E5E;stroke-width:1.0416666666666667;" x1="210.1563" x2="254.9479" y1="213.7136" y2="213.7136"/><text fill="#D8BC00" font-family="Open Sans,Avenir,Nunito,Arial,Helvetica,SansSerif" font-size="11.4583" lengthAdjust="spacing" textLength="81.25" x="258.0729" y="217.5232">(constructors)</text><line style="stroke:#5E5E5E;stroke-width:1.0416666666666667;" x1="342.4479" x2="387.2396" y1="213.7136" y2="213.7136"/><path codeLine="9" d="M340.3542,120.734 C333.4583,134.6403 325.7917,150.0986 318.9375,163.9215 " fill="none" id="Node-backto-Select" style="stroke:#545454;stroke-width:1.5625;"/><polygon fill="none" points="333.9479,117.2445,349.7396,101.8174,347.0104,123.7236,333.9479,117.2445" style="stroke:#545454;stroke-width:1.5625;"/><path codeLine="10" d="M257.7292,120.734 C264.5208,134.6403 272.0521,150.0986 278.7917,163.9215 " fill="none" id="Statement-backto-Select" style="stroke:#545454;stroke-width:1.5625;"/><polygon fill="none" points="251.0938,123.7445,248.5104,101.8174,264.1979,117.3486,251.0938,123.7445" style="stroke:#545454;stroke-width:1.5625;"/></g></svg>
