<?xml version="1.0" encoding="UTF-8" standalone="no"?><svg xmlns="http://www.w3.org/2000/svg" xmlns:xlink="http://www.w3.org/1999/xlink" contentScriptType="application/ecmascript" contentStyleType="text/css" height="218.75px" preserveAspectRatio="none" style="width:505px;height:218px;background:#333333;" version="1.1" viewBox="0 0 505 218" width="505.2083px" zoomAndPan="magnify"><defs/><g><rect fill="#48494B" height="41.2028" rx="8.3333" ry="8.3333" style="stroke:#545454;stroke-width:1.0416666666666667;" width="427.0833" x="32.0313" y="2.0833"/><text fill="#C0C0C0" font-family="Open Sans,Avenir,Nunito,Arial,Helvetica,SansSerif" font-size="20.8333" lengthAdjust="spacing" textLength="404.1667" x="43.4896" y="30.5583">com.telenav.mesakit.map.region.lexakai</text><!--MD5=[d0a12be03067cdc29bc4127bc14fabc5]
class UmlDiagramIdentifier--><rect codeLine="6" fill="#282828" height="48.055" id="UmlDiagramIdentifier" rx="8.3333" ry="8.3333" style="stroke:#5E5E5E;stroke-width:1.0416666666666667;" width="178.125" x="158.8542" y="53.7028"/><rect fill="#1B1B1A" height="31.3883" rx="8.3333" ry="8.3333" style="stroke:#1B1B1A;stroke-width:1.0416666666666667;" width="178.125" x="158.8542" y="53.7028"/><rect fill="#1B1B1A" height="8.3333" style="stroke:#1B1B1A;stroke-width:1.0416666666666667;" width="178.125" x="158.8542" y="76.7578"/><rect codeLine="6" fill="none" height="48.055" id="UmlDiagramIdentifier" rx="8.3333" ry="8.3333" style="stroke:#5E5E5E;stroke-width:1.0416666666666667;" width="178.125" x="158.8542" y="53.7028"/><ellipse cx="173.4375" cy="69.397" fill="#008400" rx="10.4167" ry="10.4167" style="stroke:#239C23;stroke-width:1.0416666666666667;"/><path d="M170.8415,66.5588 L170.8415,64.9719 L176.2675,64.9719 L176.2675,66.5588 L174.4548,66.5588 L174.4548,72.4976 L176.2675,72.4976 L176.2675,74.0845 L170.8415,74.0845 L170.8415,72.4976 L172.6542,72.4976 L172.6542,66.5588 Z " fill="#000000"/><text fill="#D8BC00" font-family="Open Sans,Avenir,Nunito,Arial,Helvetica,SansSerif" font-size="12.5" font-style="italic" font-weight="bold" lengthAdjust="spacing" textLength="140.625" x="190.1042" y="74.1211">UmlDiagramIdentifier</text><line style="stroke:#5E5E5E;stroke-width:1.0416666666666667;" x1="159.8958" x2="335.9375" y1="85.0911" y2="85.0911"/><line style="stroke:#5E5E5E;stroke-width:1.0416666666666667;" x1="159.8958" x2="335.9375" y1="93.4245" y2="93.4245"/><!--MD5=[7ae20f31a2a39818ab5ba4498104b302]
class DiagramBorder--><rect codeLine="9" fill="#282828" height="48.055" id="DiagramBorder" rx="8.3333" ry="8.3333" style="stroke:#5E5E5E;stroke-width:1.0416666666666667;" width="135.4167" x="7.2917" y="164.1195"/><rect fill="#1B1B1A" height="31.3883" rx="8.3333" ry="8.3333" style="stroke:#1B1B1A;stroke-width:1.0416666666666667;" width="135.4167" x="7.2917" y="164.1195"/><rect fill="#1B1B1A" height="8.3333" style="stroke:#1B1B1A;stroke-width:1.0416666666666667;" width="135.4167" x="7.2917" y="187.1745"/><rect codeLine="9" fill="none" height="48.055" id="DiagramBorder" rx="8.3333" ry="8.3333" style="stroke:#5E5E5E;stroke-width:1.0416666666666667;" width="135.4167" x="7.2917" y="164.1195"/><ellipse cx="21.875" cy="179.8136" fill="#0066CF" rx="10.4167" ry="10.4167" style="stroke:#0086EF;stroke-width:1.0416666666666667;"/><path d="M23.7854,184.2387 Q23.3582,184.4584 22.8882,184.5683 Q22.4182,184.6781 21.8994,184.6781 Q20.0562,184.6781 19.0857,183.4635 Q18.1152,182.2489 18.1152,179.954 Q18.1152,177.653 19.0857,176.4384 Q20.0562,175.2238 21.8994,175.2238 Q22.4182,175.2238 22.8943,175.3337 Q23.3704,175.4435 23.7854,175.6632 L23.7854,177.6652 Q23.3215,177.238 22.8851,177.0396 Q22.4487,176.8412 21.9849,176.8412 Q20.9961,176.8412 20.4926,177.6255 Q19.989,178.4098 19.989,179.954 Q19.989,181.4921 20.4926,182.2764 Q20.9961,183.0607 21.9849,183.0607 Q22.4487,183.0607 22.8851,182.8623 Q23.3215,182.664 23.7854,182.2367 Z " fill="#000000"/><text fill="#D8BC00" font-family="Open Sans,Avenir,Nunito,Arial,Helvetica,SansSerif" font-size="12.5" font-weight="bold" lengthAdjust="spacing" textLength="97.9167" x="38.5417" y="184.5378">DiagramBorder</text><line style="stroke:#5E5E5E;stroke-width:1.0416666666666667;" x1="8.3333" x2="141.6667" y1="195.5078" y2="195.5078"/><line style="stroke:#5E5E5E;stroke-width:1.0416666666666667;" x1="8.3333" x2="141.6667" y1="203.8411" y2="203.8411"/><!--MD5=[095a2c93fe70bafccaab23ed5b26981c]
class DiagramRegion--><rect codeLine="14" fill="#282828" height="48.055" id="DiagramRegion" rx="8.3333" ry="8.3333" style="stroke:#5E5E5E;stroke-width:1.0416666666666667;" width="137.5" x="179.1667" y="164.1195"/><rect fill="#1B1B1A" height="31.3883" rx="8.3333" ry="8.3333" style="stroke:#1B1B1A;stroke-width:1.0416666666666667;" width="137.5" x="179.1667" y="164.1195"/><rect fill="#1B1B1A" height="8.3333" style="stroke:#1B1B1A;stroke-width:1.0416666666666667;" width="137.5" x="179.1667" y="187.1745"/><rect codeLine="14" fill="none" height="48.055" id="DiagramRegion" rx="8.3333" ry="8.3333" style="stroke:#5E5E5E;stroke-width:1.0416666666666667;" width="137.5" x="179.1667" y="164.1195"/><ellipse cx="193.75" cy="179.8136" fill="#0066CF" rx="10.4167" ry="10.4167" style="stroke:#0086EF;stroke-width:1.0416666666666667;"/><path d="M195.6604,184.2387 Q195.2332,184.4584 194.7632,184.5683 Q194.2932,184.6781 193.7744,184.6781 Q191.9312,184.6781 190.9607,183.4635 Q189.9902,182.2489 189.9902,179.954 Q189.9902,177.653 190.9607,176.4384 Q191.9312,175.2238 193.7744,175.2238 Q194.2932,175.2238 194.7693,175.3337 Q195.2454,175.4435 195.6604,175.6632 L195.6604,177.6652 Q195.1965,177.238 194.7601,177.0396 Q194.3237,176.8412 193.8599,176.8412 Q192.8711,176.8412 192.3676,177.6255 Q191.864,178.4098 191.864,179.954 Q191.864,181.4921 192.3676,182.2764 Q192.8711,183.0607 193.8599,183.0607 Q194.3237,183.0607 194.7601,182.8623 Q195.1965,182.664 195.6604,182.2367 Z " fill="#000000"/><text fill="#D8BC00" font-family="Open Sans,Avenir,Nunito,Arial,Helvetica,SansSerif" font-size="12.5" font-weight="bold" lengthAdjust="spacing" textLength="100" x="210.4167" y="184.5378">DiagramRegion</text><line style="stroke:#5E5E5E;stroke-width:1.0416666666666667;" x1="180.2083" x2="315.625" y1="195.5078" y2="195.5078"/><line style="stroke:#5E5E5E;stroke-width:1.0416666666666667;" x1="180.2083" x2="315.625" y1="203.8411" y2="203.8411"/><!--MD5=[59b3066ba0be5a9d9171d3d17083d685]
class DiagramRegions--><rect codeLine="19" fill="#282828" height="48.055" id="DiagramRegions" rx="8.3333" ry="8.3333" style="stroke:#5E5E5E;stroke-width:1.0416666666666667;" width="144.7917" x="353.6458" y="164.1195"/><rect fill="#1B1B1A" height="31.3883" rx="8.3333" ry="8.3333" style="stroke:#1B1B1A;stroke-width:1.0416666666666667;" width="144.7917" x="353.6458" y="164.1195"/><rect fill="#1B1B1A" height="8.3333" style="stroke:#1B1B1A;stroke-width:1.0416666666666667;" width="144.7917" x="353.6458" y="187.1745"/><rect codeLine="19" fill="none" height="48.055" id="DiagramRegions" rx="8.3333" ry="8.3333" style="stroke:#5E5E5E;stroke-width:1.0416666666666667;" width="144.7917" x="353.6458" y="164.1195"/><ellipse cx="368.2292" cy="179.8136" fill="#0066CF" rx="10.4167" ry="10.4167" style="stroke:#0086EF;stroke-width:1.0416666666666667;"/><path d="M370.1396,184.2387 Q369.7123,184.4584 369.2424,184.5683 Q368.7724,184.6781 368.2536,184.6781 Q366.4103,184.6781 365.4399,183.4635 Q364.4694,182.2489 364.4694,179.954 Q364.4694,177.653 365.4399,176.4384 Q366.4103,175.2238 368.2536,175.2238 Q368.7724,175.2238 369.2485,175.3337 Q369.7245,175.4435 370.1396,175.6632 L370.1396,177.6652 Q369.6757,177.238 369.2393,177.0396 Q368.8029,176.8412 368.339,176.8412 Q367.3503,176.8412 366.8467,177.6255 Q366.3432,178.4098 366.3432,179.954 Q366.3432,181.4921 366.8467,182.2764 Q367.3503,183.0607 368.339,183.0607 Q368.8029,183.0607 369.2393,182.8623 Q369.6757,182.664 370.1396,182.2367 Z " fill="#000000"/><text fill="#D8BC00" font-family="Open Sans,Avenir,Nunito,Arial,Helvetica,SansSerif" font-size="12.5" font-weight="bold" lengthAdjust="spacing" textLength="107.2917" x="384.8958" y="184.5378">DiagramRegions</text><line style="stroke:#5E5E5E;stroke-width:1.0416666666666667;" x1="354.6875" x2="497.3958" y1="195.5078" y2="195.5078"/><line style="stroke:#5E5E5E;stroke-width:1.0416666666666667;" x1="354.6875" x2="497.3958" y1="203.8411" y2="203.8411"/><!--MD5=[feb0ce0b2a17a16dd1804fb7f0ed1e47]
reverse link UmlDiagramIdentifier to DiagramBorder--><path codeLine="8" d="M193.2813,112.932 C166.6458,129.6195 135.3333,149.234 111.6146,164.0986 " fill="none" id="UmlDiagramIdentifier-backto-DiagramBorder" style="stroke:#545454;stroke-width:1.5625;"/><polygon fill="none" points="189.7188,106.557,211.25,101.682,197.4583,118.9215,189.7188,106.557" style="stroke:#545454;stroke-width:1.5625;"/><!--MD5=[6fce6a2604a535e027b4f92ab0e92f49]
reverse link UmlDiagramIdentifier to DiagramRegion--><path codeLine="13" d="M247.9167,122.6195 C247.9167,136.8382 247.9167,152.0361 247.9167,164.0986 " fill="none" id="UmlDiagramIdentifier-backto-DiagramRegion" style="stroke:#545454;stroke-width:1.5625;"/><polygon fill="none" points="240.625,122.5153,247.9167,101.682,255.2083,122.5153,240.625,122.5153" style="stroke:#545454;stroke-width:1.5625;"/><!--MD5=[3f2611cd6b1445e24372966003330981]
reverse link UmlDiagramIdentifier to DiagramRegions--><path codeLine="18" d="M303.8021,112.6924 C331.3229,129.432 363.7708,149.1611 388.3229,164.0986 " fill="none" id="UmlDiagramIdentifier-backto-DiagramRegions" style="stroke:#545454;stroke-width:1.5625;"/><polygon fill="none" points="299.7083,118.734,285.6875,101.682,307.2813,106.2757,299.7083,118.734" style="stroke:#545454;stroke-width:1.5625;"/><!--MD5=[d3399e5fac0c2b132ecd5b516ec1bde9]
@startuml

    !include lexakai.theme
    
    title "com.telenav.mesakit.map.region.lexakai"
    
    interface UmlDiagramIdentifier
    
    UmlDiagramIdentifier <|- - DiagramBorder
    class DiagramBorder
    {
    }
    
    UmlDiagramIdentifier <|- - DiagramRegion
    class DiagramRegion
    {
    }
    
    UmlDiagramIdentifier <|- - DiagramRegions
    class DiagramRegions
    {
    }
    
@enduml

@startuml









skinparam backgroundColor #333333






skinparam  {
    defaultFontName   "Open Sans,Avenir,Nunito,Arial,Helvetica,SansSerif"
    defaultFontSize   12
    defaultTextAlignment left
    shadowing false
    RoundCorner 10
    TitleFontSize 18
}

skinparam defaultFontName       "Open Sans,Avenir,Nunito,Arial,Helvetica,SansSerif"
skinparam defaultFontSize       12
skinparam dpi                   100
skinparam shadowing             false
skinparam roundcorner           16
skinparam ParticipantPadding    40
skinparam BoxPadding            40
skinparam Padding               3
skinparam ArrowColor            #545454
skinparam stereotype {
    CBackgroundColor #0066cf
    CBorderColor #0086ef
    ABackgroundColor #C8Ac00
    ABorderColor #D8Bc00
    IBackgroundColor #008400
    IBorderColor #239c23
    EBackgroundColor #cf6300
    EBorderColor #ef8300
    NBackgroundColor #3380b9
    NBorderColor #004d86
}
skinparam title {
	FontColor	                 #c0c0c0
 	BorderColor                  #545454
	FontSize	    	         20
	BorderRoundCorner            16
	BorderThickness 	         1
	BackgroundColor              #48494b
}


skinparam legend {
	BackgroundColor #303030
	BorderColor #404040
	FontColor #a0a0a0
}

	skinparam swimlane {
	BorderColor #5e5e5e
	BorderThickness 2
	TitleBackgroundColor  #6d6d6d-#484848
	TitleFontColor #303030
}

skinparam activity {
		FontColor #C8Ac00
	BorderColor #333333
	BackgroundColor #333333-#333333
	BarColor #00FF00
	StartColor #0060a8
	EndColor #0060a8
	DiamondBackgroundColor #6d6d6d-#3a3a3a
  	DiamondBorderColor #3a3a3a
  	DiamondFontColor #fefefe
}


skinparam participant {
		FontColor #C8Ac00
	BorderColor #333333
	BackgroundColor #333333-#333333
	ParticipantBorderThickness 2
}


skinparam actor {
		FontColor #C8Ac00
	BorderColor #333333
	BackgroundColor #333333-#333333
}


skinparam arrow {
	Thickness 1.5
	Color #545454
	FontColor #a0a0a0
    FontStyle bold
    MessageAlignment center
}



skinparam sequence {
	BorderColor #303030
	TitleFontColor #303030
	BackgroundColor #333333
	StartColor #303030
	EndColor #303030
	BoxBackgroundColor #333333
	BoxBorderColor #484848
	BoxFontColor #484848
	LifeLineBorderColor #484848
	LifeLineBorderThickness 2
	LifeLineBackgroundColor #3a3a3a
	GroupBorderColor #484848
	GroupFontColor #484848
	GroupHeaderFontColor #0060a8
	GroupBackgroundColor #484848
	GroupHeaderBackgroundColor #333333
	DividerBackgroundColor #484848
    DividerBorderColor #484848
    DividerBorderThickness 2
    DividerFontColor #D8Bc00
	ReferenceBackgroundColor #333333
	ReferenceBorderColor #484848
	ReferenceFontColor #fefefe
	ReferenceHeaderBackgroundColor #484848
}


skinparam partition {
	BorderColor #303030
	FontColor #333333
	BackgroundColor #333333
}


skinparam collections {
		FontColor #C8Ac00
	BorderColor #333333
	BackgroundColor #333333-#333333
}


skinparam control {
		FontColor #C8Ac00
	BorderColor #333333
	BackgroundColor #333333-#333333
}


skinparam entity {
		FontColor #C8Ac00
	BorderColor #333333
	BackgroundColor #333333-#333333
}


skinparam boundary {
		FontColor #C8Ac00
	BorderColor #333333
	BackgroundColor #333333-#333333
}


skinparam agent {
	BackgroundColor #ff8000
	BorderColor #ff9933
	FontColor #484848
}


skinparam note {
	BorderThickness 1
	BackgroundColor #1b1b1a
	BorderColor #5e5e5e
	FontSize 11
	FontColor #a0a0a0
}


skinparam artifact {
	BorderThickness 10
	BorderColor #5e5e5e
	BackgroundColor #1b1b1a
	FontColor #D8Bc00
}


skinparam component {
		FontColor #C8Ac00
	BorderColor #333333
	BackgroundColor #333333-#333333
}


skinparam interface {
	BackgroundColor  #008400
	BorderColor  #007F00
	FontColor #484848
}


skinparam storage {
	BackgroundColor #ff8000
  	BorderColor #cc6600
	FontColor #222222
}


skinparam node {
	BackgroundColor #333333
	BorderColor #333333
	FontColor #C8Ac00
}


skinparam cloud {
	BackgroundColor #484848-black
	BorderColor #484848
	FontColor #D8Bc00
}


skinparam database {
		FontColor #C8Ac00
	BorderColor #333333
	BackgroundColor #333333-#333333
	BackgroundColor  #333333
}


skinparam class {
		FontColor #C8Ac00
	BorderColor #333333
	BackgroundColor #333333-#333333
	HeaderBackgroundColor #1b1b1a
    BackgroundColor #282828
    BorderColor #5e5e5e
 	StereotypeFontColor #a0a0a0
    StereotypeFontStyle bold
	BorderThickness 1
	AttributeFontColor #D8Bc00
	AttributeFontSize 11
    FontColor #D8Bc00
    FontStyle bold
}


skinparam object {
		FontColor #C8Ac00
	BorderColor #333333
	BackgroundColor #333333-#333333
	StereotypeFontColor #484848
	BorderThickness 1
	AttributeFontColor #fefefe
	AttributeFontSize 11
}


skinparam usecase {
		FontColor #C8Ac00
	BorderColor #333333
	BackgroundColor #333333-#333333
	BorderThickness 2
	StereotypeFontColor #303030
}


skinparam rectangle {
		FontColor #C8Ac00
	BorderColor #333333
	BackgroundColor #333333-#333333
	BackgroundColor #333333
	BorderThickness 2
	StereotypeFontColor #303030
}


skinparam package {
		FontColor #C8Ac00
	BorderColor #333333
	BackgroundColor #333333-#333333
	BackgroundColor #333333
	BorderThickness 2
}


skinparam folder {
	BackgroundColor #6d6d6d
  	BorderColor #ff8000
	FontColor #ff8000
	BorderThickness 2
}


skinparam frame {
	BackgroundColor #6d6d6d
  	BorderColor #0060a8
	FontColor #0060a8
	BorderThickness 2
}


skinparam state {
		FontColor #C8Ac00
	BorderColor #333333
	BackgroundColor #333333-#333333
	StartColor #0060a8
	EndColor #0060a8
	AttributeFontColor #fefefe
	AttributeFontSize 11
}


skinparam queue {
		FontColor #C8Ac00
	BorderColor #333333
	BackgroundColor #333333-#333333
}


skinparam card {
	BackgroundColor #0060a8
	BorderColor #004d86
	FontColor $INFO_TEXT
}


skinparam file {
	BackgroundColor #6d6d6d-#484848
	BorderColor #0060a8
	FontColor #fefefe
}


skinparam stack {
		FontColor #C8Ac00
	BorderColor #333333
	BackgroundColor #333333-#333333
}

    
    title "com.telenav.mesakit.map.region.lexakai"
    
    interface UmlDiagramIdentifier
    
    UmlDiagramIdentifier <|- - DiagramBorder
    class DiagramBorder
    {
    }
    
    UmlDiagramIdentifier <|- - DiagramRegion
    class DiagramRegion
    {
    }
    
    UmlDiagramIdentifier <|- - DiagramRegions
    class DiagramRegions
    {
    }
    
@enduml

PlantUML version 1.2021.01(Tue Feb 02 00:55:08 MST 2021)
(GPL source distribution)
Java Runtime: OpenJDK Runtime Environment
JVM: OpenJDK 64-Bit Server VM
Default Encoding: UTF-8
Language: en
Country: US
--></g></svg>