<?xml version="1.0" encoding="UTF-8" standalone="no"?><svg xmlns="http://www.w3.org/2000/svg" xmlns:xlink="http://www.w3.org/1999/xlink" contentScriptType="application/ecmascript" contentStyleType="text/css" height="254.1667px" preserveAspectRatio="none" style="width:523px;height:254px;background:#333333;" version="1.1" viewBox="0 0 523 254" width="523.9583px" zoomAndPan="magnify"><defs/><g><rect fill="#48494B" height="41.2028" rx="8.3333" ry="8.3333" style="stroke:#545454;stroke-width:1.0416666666666667;" width="511.4583" x="2.0833" y="2.0833"/><text fill="#C0C0C0" font-family="Open Sans,Avenir,Nunito,Arial,Helvetica,SansSerif" font-size="20.8333" lengthAdjust="spacing" textLength="488.5417" x="13.5417" y="30.5583">com.telenav.mesakit.map.region.countries.states</text><!--MD5=[60d6b92408f98aed8df94d5c6e04aa63]
class State--><rect fill="#282828" height="48.055" id="State" rx="8.3333" ry="8.3333" style="stroke:#5E5E5E;stroke-width:1.0416666666666667;" width="69.7917" x="223.6979" y="53.7028"/><rect fill="#1B1B1A" height="31.3883" rx="8.3333" ry="8.3333" style="stroke:#1B1B1A;stroke-width:1.0416666666666667;" width="69.7917" x="223.6979" y="53.7028"/><rect fill="#1B1B1A" height="8.3333" style="stroke:#1B1B1A;stroke-width:1.0416666666666667;" width="69.7917" x="223.6979" y="76.7578"/><rect fill="none" height="48.055" id="State" rx="8.3333" ry="8.3333" style="stroke:#5E5E5E;stroke-width:1.0416666666666667;" width="69.7917" x="223.6979" y="53.7028"/><ellipse cx="238.2813" cy="69.397" fill="#0066CF" rx="10.4167" ry="10.4167" style="stroke:#0086EF;stroke-width:1.0416666666666667;"/><path d="M240.1917,73.822 Q239.7644,74.0417 239.2944,74.1516 Q238.8245,74.2615 238.3057,74.2615 Q236.4624,74.2615 235.4919,73.0469 Q234.5215,71.8323 234.5215,69.5374 Q234.5215,67.2363 235.4919,66.0217 Q236.4624,64.8071 238.3057,64.8071 Q238.8245,64.8071 239.3005,64.917 Q239.7766,65.0269 240.1917,65.2466 L240.1917,67.2485 Q239.7278,66.8213 239.2914,66.6229 Q238.855,66.4246 238.3911,66.4246 Q237.4023,66.4246 236.8988,67.2089 Q236.3953,67.9932 236.3953,69.5374 Q236.3953,71.0754 236.8988,71.8597 Q237.4023,72.644 238.3911,72.644 Q238.855,72.644 239.2914,72.4457 Q239.7278,72.2473 240.1917,71.8201 Z " fill="#000000"/><text fill="#D8BC00" font-family="Open Sans,Avenir,Nunito,Arial,Helvetica,SansSerif" font-size="12.5" font-weight="bold" lengthAdjust="spacing" textLength="32.2917" x="254.9479" y="74.1211">State</text><line style="stroke:#5E5E5E;stroke-width:1.0416666666666667;" x1="224.7396" x2="292.4479" y1="85.0911" y2="85.0911"/><line style="stroke:#5E5E5E;stroke-width:1.0416666666666667;" x1="224.7396" x2="292.4479" y1="93.4245" y2="93.4245"/><!--MD5=[547799a2e48e088b3384758c8ac574e9]
class California--><rect codeLine="7" fill="#282828" height="83.3781" id="California" rx="8.3333" ry="8.3333" style="stroke:#5E5E5E;stroke-width:1.0416666666666667;" width="101.0417" x="72.6563" y="164.1195"/><rect fill="#1B1B1A" height="31.3883" rx="8.3333" ry="8.3333" style="stroke:#1B1B1A;stroke-width:1.0416666666666667;" width="101.0417" x="72.6563" y="164.1195"/><rect fill="#1B1B1A" height="8.3333" style="stroke:#1B1B1A;stroke-width:1.0416666666666667;" width="101.0417" x="72.6563" y="187.1745"/><rect codeLine="7" fill="none" height="83.3781" id="California" rx="8.3333" ry="8.3333" style="stroke:#5E5E5E;stroke-width:1.0416666666666667;" width="101.0417" x="72.6563" y="164.1195"/><ellipse cx="87.2396" cy="179.8136" fill="#0066CF" rx="10.4167" ry="10.4167" style="stroke:#0086EF;stroke-width:1.0416666666666667;"/><path d="M89.15,184.2387 Q88.7227,184.4584 88.2528,184.5683 Q87.7828,184.6781 87.264,184.6781 Q85.4207,184.6781 84.4503,183.4635 Q83.4798,182.2489 83.4798,179.954 Q83.4798,177.653 84.4503,176.4384 Q85.4207,175.2238 87.264,175.2238 Q87.7828,175.2238 88.2589,175.3337 Q88.7349,175.4435 89.15,175.6632 L89.15,177.6652 Q88.6861,177.238 88.2497,177.0396 Q87.8133,176.8412 87.3494,176.8412 Q86.3607,176.8412 85.8571,177.6255 Q85.3536,178.4098 85.3536,179.954 Q85.3536,181.4921 85.8571,182.2764 Q86.3607,183.0607 87.3494,183.0607 Q87.8133,183.0607 88.2497,182.8623 Q88.6861,182.664 89.15,182.2367 Z " fill="#000000"/><text fill="#D8BC00" font-family="Open Sans,Avenir,Nunito,Arial,Helvetica,SansSerif" font-size="12.5" font-weight="bold" lengthAdjust="spacing" textLength="63.5417" x="103.9063" y="184.5378">California</text><line style="stroke:#5E5E5E;stroke-width:1.5625;" x1="73.6979" x2="172.6563" y1="195.5078" y2="195.5078"/><ellipse cx="84.1146" cy="230.8777" fill="#84BE84" rx="3.125" ry="3.125" style="stroke:#038048;stroke-width:1.0416666666666667;"/><text fill="#D8BC00" font-family="Open Sans,Avenir,Nunito,Arial,Helvetica,SansSerif" font-size="11.4583" lengthAdjust="spacing" textLength="62.5" x="95.5729" y="237.7889">California()</text><line style="stroke:#5E5E5E;stroke-width:1.0416666666666667;" x1="73.6979" x2="79.4271" y1="213.7136" y2="213.7136"/><text fill="#D8BC00" font-family="Open Sans,Avenir,Nunito,Arial,Helvetica,SansSerif" font-size="11.4583" lengthAdjust="spacing" textLength="81.25" x="82.5521" y="217.5232">(constructors)</text><line style="stroke:#5E5E5E;stroke-width:1.0416666666666667;" x1="166.9271" x2="172.6563" y1="213.7136" y2="213.7136"/><!--MD5=[c4108afdb167b6f550f746a3d25c4d94]
class NewYork--><rect codeLine="14" fill="#282828" height="83.3781" id="NewYork" rx="8.3333" ry="8.3333" style="stroke:#5E5E5E;stroke-width:1.0416666666666667;" width="95.8333" x="210.6771" y="164.1195"/><rect fill="#1B1B1A" height="31.3883" rx="8.3333" ry="8.3333" style="stroke:#1B1B1A;stroke-width:1.0416666666666667;" width="95.8333" x="210.6771" y="164.1195"/><rect fill="#1B1B1A" height="8.3333" style="stroke:#1B1B1A;stroke-width:1.0416666666666667;" width="95.8333" x="210.6771" y="187.1745"/><rect codeLine="14" fill="none" height="83.3781" id="NewYork" rx="8.3333" ry="8.3333" style="stroke:#5E5E5E;stroke-width:1.0416666666666667;" width="95.8333" x="210.6771" y="164.1195"/><ellipse cx="225.7292" cy="179.8136" fill="#0066CF" rx="10.4167" ry="10.4167" style="stroke:#0086EF;stroke-width:1.0416666666666667;"/><path d="M227.6396,184.2387 Q227.2123,184.4584 226.7424,184.5683 Q226.2724,184.6781 225.7536,184.6781 Q223.9103,184.6781 222.9399,183.4635 Q221.9694,182.2489 221.9694,179.954 Q221.9694,177.653 222.9399,176.4384 Q223.9103,175.2238 225.7536,175.2238 Q226.2724,175.2238 226.7485,175.3337 Q227.2245,175.4435 227.6396,175.6632 L227.6396,177.6652 Q227.1757,177.238 226.7393,177.0396 Q226.3029,176.8412 225.839,176.8412 Q224.8503,176.8412 224.3467,177.6255 Q223.8432,178.4098 223.8432,179.954 Q223.8432,181.4921 224.3467,182.2764 Q224.8503,183.0607 225.839,183.0607 Q226.3029,183.0607 226.7393,182.8623 Q227.1757,182.664 227.6396,182.2367 Z " fill="#000000"/><text fill="#D8BC00" font-family="Open Sans,Avenir,Nunito,Arial,Helvetica,SansSerif" font-size="12.5" font-weight="bold" lengthAdjust="spacing" textLength="57.2917" x="242.5" y="184.5378">NewYork</text><line style="stroke:#5E5E5E;stroke-width:1.5625;" x1="211.7188" x2="305.4688" y1="195.5078" y2="195.5078"/><ellipse cx="222.1354" cy="230.8777" fill="#84BE84" rx="3.125" ry="3.125" style="stroke:#038048;stroke-width:1.0416666666666667;"/><text fill="#D8BC00" font-family="Open Sans,Avenir,Nunito,Arial,Helvetica,SansSerif" font-size="11.4583" lengthAdjust="spacing" textLength="57.2917" x="233.5938" y="237.7889">NewYork()</text><line style="stroke:#5E5E5E;stroke-width:1.0416666666666667;" x1="211.7188" x2="214.8438" y1="213.7136" y2="213.7136"/><text fill="#D8BC00" font-family="Open Sans,Avenir,Nunito,Arial,Helvetica,SansSerif" font-size="11.4583" lengthAdjust="spacing" textLength="81.25" x="217.9688" y="217.5232">(constructors)</text><line style="stroke:#5E5E5E;stroke-width:1.0416666666666667;" x1="302.3438" x2="305.4688" y1="213.7136" y2="213.7136"/><!--MD5=[261cc97a665fc967fc9e1795d0b69fd1]
class Washington--><rect codeLine="21" fill="#282828" height="83.3781" id="Washington" rx="8.3333" ry="8.3333" style="stroke:#5E5E5E;stroke-width:1.0416666666666667;" width="114.5833" x="342.9688" y="164.1195"/><rect fill="#1B1B1A" height="31.3883" rx="8.3333" ry="8.3333" style="stroke:#1B1B1A;stroke-width:1.0416666666666667;" width="114.5833" x="342.9688" y="164.1195"/><rect fill="#1B1B1A" height="8.3333" style="stroke:#1B1B1A;stroke-width:1.0416666666666667;" width="114.5833" x="342.9688" y="187.1745"/><rect codeLine="21" fill="none" height="83.3781" id="Washington" rx="8.3333" ry="8.3333" style="stroke:#5E5E5E;stroke-width:1.0416666666666667;" width="114.5833" x="342.9688" y="164.1195"/><ellipse cx="357.5521" cy="179.8136" fill="#0066CF" rx="10.4167" ry="10.4167" style="stroke:#0086EF;stroke-width:1.0416666666666667;"/><path d="M359.4625,184.2387 Q359.0352,184.4584 358.5653,184.5683 Q358.0953,184.6781 357.5765,184.6781 Q355.7332,184.6781 354.7628,183.4635 Q353.7923,182.2489 353.7923,179.954 Q353.7923,177.653 354.7628,176.4384 Q355.7332,175.2238 357.5765,175.2238 Q358.0953,175.2238 358.5714,175.3337 Q359.0474,175.4435 359.4625,175.6632 L359.4625,177.6652 Q358.9986,177.238 358.5622,177.0396 Q358.1258,176.8412 357.6619,176.8412 Q356.6732,176.8412 356.1696,177.6255 Q355.6661,178.4098 355.6661,179.954 Q355.6661,181.4921 356.1696,182.2764 Q356.6732,183.0607 357.6619,183.0607 Q358.1258,183.0607 358.5622,182.8623 Q358.9986,182.664 359.4625,182.2367 Z " fill="#000000"/><text fill="#D8BC00" font-family="Open Sans,Avenir,Nunito,Arial,Helvetica,SansSerif" font-size="12.5" font-weight="bold" lengthAdjust="spacing" textLength="77.0833" x="374.2188" y="184.5378">Washington</text><line style="stroke:#5E5E5E;stroke-width:1.5625;" x1="344.0104" x2="456.5104" y1="195.5078" y2="195.5078"/><ellipse cx="354.4271" cy="230.8777" fill="#84BE84" rx="3.125" ry="3.125" style="stroke:#038048;stroke-width:1.0416666666666667;"/><text fill="#D8BC00" font-family="Open Sans,Avenir,Nunito,Arial,Helvetica,SansSerif" font-size="11.4583" lengthAdjust="spacing" textLength="73.9583" x="365.8854" y="237.7889">Washington()</text><line style="stroke:#5E5E5E;stroke-width:1.0416666666666667;" x1="344.0104" x2="356.5104" y1="213.7136" y2="213.7136"/><text fill="#D8BC00" font-family="Open Sans,Avenir,Nunito,Arial,Helvetica,SansSerif" font-size="11.4583" lengthAdjust="spacing" textLength="81.25" x="359.6354" y="217.5232">(constructors)</text><line style="stroke:#5E5E5E;stroke-width:1.0416666666666667;" x1="444.0104" x2="456.5104" y1="213.7136" y2="213.7136"/><!--MD5=[d138d1bac007977bcadad1fc23340d32]
reverse link State to California--><path codeLine="6" d="M218.0729,116.4215 C201.9896,131.3903 183.4375,148.6507 167.0417,163.9215 " fill="none" id="State-backto-California" style="stroke:#545454;stroke-width:1.5625;"/><polygon fill="none" points="213.5417,110.682,233.7604,101.8174,223.4792,121.3486,213.5417,110.682" style="stroke:#545454;stroke-width:1.5625;"/><!--MD5=[7e6efc3e845e28ef75d0c37a7a8d9e92]
reverse link State to NewYork--><path codeLine="13" d="M258.5938,122.682 C258.5938,136.0778 258.5938,150.7445 258.5938,163.9215 " fill="none" id="State-backto-NewYork" style="stroke:#545454;stroke-width:1.5625;"/><polygon fill="none" points="251.3021,122.6507,258.5938,101.8174,265.8854,122.6507,251.3021,122.6507" style="stroke:#545454;stroke-width:1.5625;"/><!--MD5=[62c437f582c0a763216332e372754d73]
reverse link State to Washington--><path codeLine="20" d="M300.1875,115.7132 C317.1979,130.8486 336.9479,148.4111 354.375,163.9215 " fill="none" id="State-backto-Washington" style="stroke:#545454;stroke-width:1.5625;"/><polygon fill="none" points="295.2917,121.1195,284.5729,101.8174,304.9896,110.2236,295.2917,121.1195" style="stroke:#545454;stroke-width:1.5625;"/><!--MD5=[e1da5eaf153c05d398124f6e9851e6de]
@startuml

    !include lexakai.theme
    
    title "com.telenav.mesakit.map.region.countries.states"
    
    State <|- - California
    class California
    {
        - -(constructors)- -
        +California()
    }
    
    State <|- - NewYork
    class NewYork
    {
        - -(constructors)- -
        +NewYork()
    }
    
    State <|- - Washington
    class Washington
    {
        - -(constructors)- -
        +Washington()
    }
    
@enduml

@startuml









skinparam backgroundColor #333333






skinparam  {
    defaultFontName   "Open Sans,Avenir,Nunito,Arial,Helvetica,SansSerif"
    defaultFontSize   12
    defaultTextAlignment left
    shadowing false
    RoundCorner 10
    TitleFontSize 18
}

skinparam defaultFontName       "Open Sans,Avenir,Nunito,Arial,Helvetica,SansSerif"
skinparam defaultFontSize       12
skinparam dpi                   100
skinparam shadowing             false
skinparam roundcorner           16
skinparam ParticipantPadding    40
skinparam BoxPadding            40
skinparam Padding               3
skinparam ArrowColor            #545454
skinparam stereotype {
    CBackgroundColor #0066cf
    CBorderColor #0086ef
    ABackgroundColor #C8Ac00
    ABorderColor #D8Bc00
    IBackgroundColor #008400
    IBorderColor #239c23
    EBackgroundColor #cf6300
    EBorderColor #ef8300
    NBackgroundColor #3380b9
    NBorderColor #004d86
}
skinparam title {
	FontColor	                 #c0c0c0
 	BorderColor                  #545454
	FontSize	    	         20
	BorderRoundCorner            16
	BorderThickness 	         1
	BackgroundColor              #48494b
}


skinparam legend {
	BackgroundColor #303030
	BorderColor #404040
	FontColor #a0a0a0
}

	skinparam swimlane {
	BorderColor #5e5e5e
	BorderThickness 2
	TitleBackgroundColor  #6d6d6d-#484848
	TitleFontColor #303030
}

skinparam activity {
		FontColor #C8Ac00
	BorderColor #333333
	BackgroundColor #333333-#333333
	BarColor #00FF00
	StartColor #0060a8
	EndColor #0060a8
	DiamondBackgroundColor #6d6d6d-#3a3a3a
  	DiamondBorderColor #3a3a3a
  	DiamondFontColor #fefefe
}


skinparam participant {
		FontColor #C8Ac00
	BorderColor #333333
	BackgroundColor #333333-#333333
	ParticipantBorderThickness 2
}


skinparam actor {
		FontColor #C8Ac00
	BorderColor #333333
	BackgroundColor #333333-#333333
}


skinparam arrow {
	Thickness 1.5
	Color #545454
	FontColor #a0a0a0
    FontStyle bold
    MessageAlignment center
}



skinparam sequence {
	BorderColor #303030
	TitleFontColor #303030
	BackgroundColor #333333
	StartColor #303030
	EndColor #303030
	BoxBackgroundColor #333333
	BoxBorderColor #484848
	BoxFontColor #484848
	LifeLineBorderColor #484848
	LifeLineBorderThickness 2
	LifeLineBackgroundColor #3a3a3a
	GroupBorderColor #484848
	GroupFontColor #484848
	GroupHeaderFontColor #0060a8
	GroupBackgroundColor #484848
	GroupHeaderBackgroundColor #333333
	DividerBackgroundColor #484848
    DividerBorderColor #484848
    DividerBorderThickness 2
    DividerFontColor #D8Bc00
	ReferenceBackgroundColor #333333
	ReferenceBorderColor #484848
	ReferenceFontColor #fefefe
	ReferenceHeaderBackgroundColor #484848
}


skinparam partition {
	BorderColor #303030
	FontColor #333333
	BackgroundColor #333333
}


skinparam collections {
		FontColor #C8Ac00
	BorderColor #333333
	BackgroundColor #333333-#333333
}


skinparam control {
		FontColor #C8Ac00
	BorderColor #333333
	BackgroundColor #333333-#333333
}


skinparam entity {
		FontColor #C8Ac00
	BorderColor #333333
	BackgroundColor #333333-#333333
}


skinparam boundary {
		FontColor #C8Ac00
	BorderColor #333333
	BackgroundColor #333333-#333333
}


skinparam agent {
	BackgroundColor #ff8000
	BorderColor #ff9933
	FontColor #484848
}


skinparam note {
	BorderThickness 1
	BackgroundColor #1b1b1a
	BorderColor #5e5e5e
	FontSize 11
	FontColor #a0a0a0
}


skinparam artifact {
	BorderThickness 10
	BorderColor #5e5e5e
	BackgroundColor #1b1b1a
	FontColor #D8Bc00
}


skinparam component {
		FontColor #C8Ac00
	BorderColor #333333
	BackgroundColor #333333-#333333
}


skinparam interface {
	BackgroundColor  #008400
	BorderColor  #007F00
	FontColor #484848
}


skinparam storage {
	BackgroundColor #ff8000
  	BorderColor #cc6600
	FontColor #222222
}


skinparam node {
	BackgroundColor #333333
	BorderColor #333333
	FontColor #C8Ac00
}


skinparam cloud {
	BackgroundColor #484848-black
	BorderColor #484848
	FontColor #D8Bc00
}


skinparam database {
		FontColor #C8Ac00
	BorderColor #333333
	BackgroundColor #333333-#333333
	BackgroundColor  #333333
}


skinparam class {
		FontColor #C8Ac00
	BorderColor #333333
	BackgroundColor #333333-#333333
	HeaderBackgroundColor #1b1b1a
    BackgroundColor #282828
    BorderColor #5e5e5e
 	StereotypeFontColor #a0a0a0
    StereotypeFontStyle bold
	BorderThickness 1
	AttributeFontColor #D8Bc00
	AttributeFontSize 11
    FontColor #D8Bc00
    FontStyle bold
}


skinparam object {
		FontColor #C8Ac00
	BorderColor #333333
	BackgroundColor #333333-#333333
	StereotypeFontColor #484848
	BorderThickness 1
	AttributeFontColor #fefefe
	AttributeFontSize 11
}


skinparam usecase {
		FontColor #C8Ac00
	BorderColor #333333
	BackgroundColor #333333-#333333
	BorderThickness 2
	StereotypeFontColor #303030
}


skinparam rectangle {
		FontColor #C8Ac00
	BorderColor #333333
	BackgroundColor #333333-#333333
	BackgroundColor #333333
	BorderThickness 2
	StereotypeFontColor #303030
}


skinparam package {
		FontColor #C8Ac00
	BorderColor #333333
	BackgroundColor #333333-#333333
	BackgroundColor #333333
	BorderThickness 2
}


skinparam folder {
	BackgroundColor #6d6d6d
  	BorderColor #ff8000
	FontColor #ff8000
	BorderThickness 2
}


skinparam frame {
	BackgroundColor #6d6d6d
  	BorderColor #0060a8
	FontColor #0060a8
	BorderThickness 2
}


skinparam state {
		FontColor #C8Ac00
	BorderColor #333333
	BackgroundColor #333333-#333333
	StartColor #0060a8
	EndColor #0060a8
	AttributeFontColor #fefefe
	AttributeFontSize 11
}


skinparam queue {
		FontColor #C8Ac00
	BorderColor #333333
	BackgroundColor #333333-#333333
}


skinparam card {
	BackgroundColor #0060a8
	BorderColor #004d86
	FontColor $INFO_TEXT
}


skinparam file {
	BackgroundColor #6d6d6d-#484848
	BorderColor #0060a8
	FontColor #fefefe
}


skinparam stack {
		FontColor #C8Ac00
	BorderColor #333333
	BackgroundColor #333333-#333333
}

    
    title "com.telenav.mesakit.map.region.countries.states"
    
    State <|- - California
    class California
    {
        - -(constructors)- -
        +California()
    }
    
    State <|- - NewYork
    class NewYork
    {
        - -(constructors)- -
        +NewYork()
    }
    
    State <|- - Washington
    class Washington
    {
        - -(constructors)- -
        +Washington()
    }
    
@enduml

PlantUML version 1.2021.01(Tue Feb 02 00:55:08 MST 2021)
(GPL source distribution)
Java Runtime: OpenJDK Runtime Environment
JVM: OpenJDK 64-Bit Server VM
Default Encoding: UTF-8
Language: en
Country: US
--></g></svg>