<?xml version="1.0" encoding="UTF-8" standalone="no"?><svg xmlns="http://www.w3.org/2000/svg" xmlns:xlink="http://www.w3.org/1999/xlink" contentScriptType="application/ecmascript" contentStyleType="text/css" height="543.75px" preserveAspectRatio="none" style="width:2046px;height:543px;background:#333333;" version="1.1" viewBox="0 0 2046 543" width="2046.875px" zoomAndPan="magnify"><defs/><g><rect fill="#48494B" height="41.2028" rx="8.3333" ry="8.3333" style="stroke:#545454;stroke-width:1.0416666666666667;" width="443.75" x="794.5313" y="2.0833"/><text fill="#C0C0C0" font-family="Open Sans,Avenir,Nunito,Arial,Helvetica,SansSerif" font-size="20.8333" lengthAdjust="spacing" textLength="420.8333" x="805.9896" y="30.5583">com.telenav.mesakit.map.utilities.geojson</text><rect codeLine="7" fill="#282828" height="48.055" id="Serializable" rx="8.3333" ry="8.3333" style="stroke:#5E5E5E;stroke-width:1.0416666666666667;" width="111.4583" x="296.875" y="63.5986"/><rect fill="#1B1B1A" height="31.3883" rx="8.3333" ry="8.3333" style="stroke:#1B1B1A;stroke-width:1.0416666666666667;" width="111.4583" x="296.875" y="63.5986"/><rect fill="#1B1B1A" height="8.3333" style="stroke:#1B1B1A;stroke-width:1.0416666666666667;" width="111.4583" x="296.875" y="86.6536"/><rect codeLine="7" fill="none" height="48.055" id="Serializable" rx="8.3333" ry="8.3333" style="stroke:#5E5E5E;stroke-width:1.0416666666666667;" width="111.4583" x="296.875" y="63.5986"/><ellipse cx="311.4583" cy="79.2928" fill="#008400" rx="10.4167" ry="10.4167" style="stroke:#239C23;stroke-width:1.0416666666666667;"/><path d="M308.8623,76.4547 L308.8623,74.8678 L314.2883,74.8678 L314.2883,76.4547 L312.4756,76.4547 L312.4756,82.3934 L314.2883,82.3934 L314.2883,83.9803 L308.8623,83.9803 L308.8623,82.3934 L310.675,82.3934 L310.675,76.4547 Z " fill="#000000"/><text fill="#D8BC00" font-family="Open Sans,Avenir,Nunito,Arial,Helvetica,SansSerif" font-size="12.5" font-style="italic" font-weight="bold" lengthAdjust="spacing" textLength="73.9583" x="328.125" y="84.0169">Serializable</text><line style="stroke:#5E5E5E;stroke-width:1.0416666666666667;" x1="297.9167" x2="407.2917" y1="94.987" y2="94.987"/><line style="stroke:#5E5E5E;stroke-width:1.0416666666666667;" x1="297.9167" x2="407.2917" y1="103.3203" y2="103.3203"/><rect codeLine="8" fill="#282828" height="48.055" id="Iterable" rx="8.3333" ry="8.3333" style="stroke:#5E5E5E;stroke-width:1.0416666666666667;" width="86.4583" x="548.9583" y="63.5986"/><rect fill="#1B1B1A" height="31.3883" rx="8.3333" ry="8.3333" style="stroke:#1B1B1A;stroke-width:1.0416666666666667;" width="86.4583" x="548.9583" y="63.5986"/><rect fill="#1B1B1A" height="8.3333" style="stroke:#1B1B1A;stroke-width:1.0416666666666667;" width="86.4583" x="548.9583" y="86.6536"/><rect codeLine="8" fill="none" height="48.055" id="Iterable" rx="8.3333" ry="8.3333" style="stroke:#5E5E5E;stroke-width:1.0416666666666667;" width="86.4583" x="548.9583" y="63.5986"/><ellipse cx="563.5417" cy="79.2928" fill="#008400" rx="10.4167" ry="10.4167" style="stroke:#239C23;stroke-width:1.0416666666666667;"/><path d="M560.9456,76.4547 L560.9456,74.8678 L566.3717,74.8678 L566.3717,76.4547 L564.5589,76.4547 L564.5589,82.3934 L566.3717,82.3934 L566.3717,83.9803 L560.9456,83.9803 L560.9456,82.3934 L562.7584,82.3934 L562.7584,76.4547 Z " fill="#000000"/><text fill="#D8BC00" font-family="Open Sans,Avenir,Nunito,Arial,Helvetica,SansSerif" font-size="12.5" font-style="italic" font-weight="bold" lengthAdjust="spacing" textLength="48.9583" x="580.2083" y="84.0169">Iterable</text><line style="stroke:#5E5E5E;stroke-width:1.0416666666666667;" x1="550" x2="634.375" y1="94.987" y2="94.987"/><line style="stroke:#5E5E5E;stroke-width:1.0416666666666667;" x1="550" x2="634.375" y1="103.3203" y2="103.3203"/><rect codeLine="9" fill="#282828" height="48.055" id="Bounded" rx="8.3333" ry="8.3333" style="stroke:#5E5E5E;stroke-width:1.0416666666666667;" width="94.7917" x="7.2917" y="63.5986"/><rect fill="#1B1B1A" height="31.3883" rx="8.3333" ry="8.3333" style="stroke:#1B1B1A;stroke-width:1.0416666666666667;" width="94.7917" x="7.2917" y="63.5986"/><rect fill="#1B1B1A" height="8.3333" style="stroke:#1B1B1A;stroke-width:1.0416666666666667;" width="94.7917" x="7.2917" y="86.6536"/><rect codeLine="9" fill="none" height="48.055" id="Bounded" rx="8.3333" ry="8.3333" style="stroke:#5E5E5E;stroke-width:1.0416666666666667;" width="94.7917" x="7.2917" y="63.5986"/><ellipse cx="21.875" cy="79.2928" fill="#008400" rx="10.4167" ry="10.4167" style="stroke:#239C23;stroke-width:1.0416666666666667;"/><path d="M19.279,76.4547 L19.279,74.8678 L24.705,74.8678 L24.705,76.4547 L22.8923,76.4547 L22.8923,82.3934 L24.705,82.3934 L24.705,83.9803 L19.279,83.9803 L19.279,82.3934 L21.0917,82.3934 L21.0917,76.4547 Z " fill="#000000"/><text fill="#D8BC00" font-family="Open Sans,Avenir,Nunito,Arial,Helvetica,SansSerif" font-size="12.5" font-style="italic" font-weight="bold" lengthAdjust="spacing" textLength="57.2917" x="38.5417" y="84.0169">Bounded</text><line style="stroke:#5E5E5E;stroke-width:1.0416666666666667;" x1="8.3333" x2="101.0417" y1="94.987" y2="94.987"/><line style="stroke:#5E5E5E;stroke-width:1.0416666666666667;" x1="8.3333" x2="101.0417" y1="103.3203" y2="103.3203"/><rect codeLine="10" fill="#282828" height="48.055" id="Intersectable" rx="8.3333" ry="8.3333" style="stroke:#5E5E5E;stroke-width:1.0416666666666667;" width="120.8333" x="139.0625" y="63.5986"/><rect fill="#1B1B1A" height="31.3883" rx="8.3333" ry="8.3333" style="stroke:#1B1B1A;stroke-width:1.0416666666666667;" width="120.8333" x="139.0625" y="63.5986"/><rect fill="#1B1B1A" height="8.3333" style="stroke:#1B1B1A;stroke-width:1.0416666666666667;" width="120.8333" x="139.0625" y="86.6536"/><rect codeLine="10" fill="none" height="48.055" id="Intersectable" rx="8.3333" ry="8.3333" style="stroke:#5E5E5E;stroke-width:1.0416666666666667;" width="120.8333" x="139.0625" y="63.5986"/><ellipse cx="153.6458" cy="79.2928" fill="#008400" rx="10.4167" ry="10.4167" style="stroke:#239C23;stroke-width:1.0416666666666667;"/><path d="M151.0498,76.4547 L151.0498,74.8678 L156.4758,74.8678 L156.4758,76.4547 L154.6631,76.4547 L154.6631,82.3934 L156.4758,82.3934 L156.4758,83.9803 L151.0498,83.9803 L151.0498,82.3934 L152.8625,82.3934 L152.8625,76.4547 Z " fill="#000000"/><text fill="#D8BC00" font-family="Open Sans,Avenir,Nunito,Arial,Helvetica,SansSerif" font-size="12.5" font-style="italic" font-weight="bold" lengthAdjust="spacing" textLength="83.3333" x="170.3125" y="84.0169">Intersectable</text><line style="stroke:#5E5E5E;stroke-width:1.0416666666666667;" x1="140.1042" x2="258.8542" y1="94.987" y2="94.987"/><line style="stroke:#5E5E5E;stroke-width:1.0416666666666667;" x1="140.1042" x2="258.8542" y1="103.3203" y2="103.3203"/><rect codeLine="11" fill="#282828" height="48.055" id="JsonSerializer" rx="8.3333" ry="8.3333" style="stroke:#5E5E5E;stroke-width:1.0416666666666667;" width="126.0417" x="1733.3333" y="63.5986"/><rect fill="#1B1B1A" height="31.3883" rx="8.3333" ry="8.3333" style="stroke:#1B1B1A;stroke-width:1.0416666666666667;" width="126.0417" x="1733.3333" y="63.5986"/><rect fill="#1B1B1A" height="8.3333" style="stroke:#1B1B1A;stroke-width:1.0416666666666667;" width="126.0417" x="1733.3333" y="86.6536"/><rect codeLine="11" fill="none" height="48.055" id="JsonSerializer" rx="8.3333" ry="8.3333" style="stroke:#5E5E5E;stroke-width:1.0416666666666667;" width="126.0417" x="1733.3333" y="63.5986"/><ellipse cx="1747.9167" cy="79.2928" fill="#008400" rx="10.4167" ry="10.4167" style="stroke:#239C23;stroke-width:1.0416666666666667;"/><path d="M1745.3206,76.4547 L1745.3206,74.8678 L1750.7467,74.8678 L1750.7467,76.4547 L1748.9339,76.4547 L1748.9339,82.3934 L1750.7467,82.3934 L1750.7467,83.9803 L1745.3206,83.9803 L1745.3206,82.3934 L1747.1334,82.3934 L1747.1334,76.4547 Z " fill="#000000"/><text fill="#D8BC00" font-family="Open Sans,Avenir,Nunito,Arial,Helvetica,SansSerif" font-size="12.5" font-style="italic" font-weight="bold" lengthAdjust="spacing" textLength="88.5417" x="1764.5833" y="84.0169">JsonSerializer</text><line style="stroke:#5E5E5E;stroke-width:1.0416666666666667;" x1="1734.375" x2="1858.3333" y1="94.987" y2="94.987"/><line style="stroke:#5E5E5E;stroke-width:1.0416666666666667;" x1="1734.375" x2="1858.3333" y1="103.3203" y2="103.3203"/><rect codeLine="12" fill="#282828" height="48.055" id="JsonDeserializer" rx="8.3333" ry="8.3333" style="stroke:#5E5E5E;stroke-width:1.0416666666666667;" width="143.75" x="1896.3542" y="63.5986"/><rect fill="#1B1B1A" height="31.3883" rx="8.3333" ry="8.3333" style="stroke:#1B1B1A;stroke-width:1.0416666666666667;" width="143.75" x="1896.3542" y="63.5986"/><rect fill="#1B1B1A" height="8.3333" style="stroke:#1B1B1A;stroke-width:1.0416666666666667;" width="143.75" x="1896.3542" y="86.6536"/><rect codeLine="12" fill="none" height="48.055" id="JsonDeserializer" rx="8.3333" ry="8.3333" style="stroke:#5E5E5E;stroke-width:1.0416666666666667;" width="143.75" x="1896.3542" y="63.5986"/><ellipse cx="1910.9375" cy="79.2928" fill="#008400" rx="10.4167" ry="10.4167" style="stroke:#239C23;stroke-width:1.0416666666666667;"/><path d="M1908.3415,76.4547 L1908.3415,74.8678 L1913.7675,74.8678 L1913.7675,76.4547 L1911.9548,76.4547 L1911.9548,82.3934 L1913.7675,82.3934 L1913.7675,83.9803 L1908.3415,83.9803 L1908.3415,82.3934 L1910.1542,82.3934 L1910.1542,76.4547 Z " fill="#000000"/><text fill="#D8BC00" font-family="Open Sans,Avenir,Nunito,Arial,Helvetica,SansSerif" font-size="12.5" font-style="italic" font-weight="bold" lengthAdjust="spacing" textLength="106.25" x="1927.6042" y="84.0169">JsonDeserializer</text><line style="stroke:#5E5E5E;stroke-width:1.0416666666666667;" x1="1897.3958" x2="2039.0625" y1="94.987" y2="94.987"/><line style="stroke:#5E5E5E;stroke-width:1.0416666666666667;" x1="1897.3958" x2="2039.0625" y1="103.3203" y2="103.3203"/><rect codeLine="15" fill="#282828" height="352.5614" id="GeoJsonDocument" rx="8.3333" ry="8.3333" style="stroke:#5E5E5E;stroke-width:1.0416666666666667;" width="466.6667" x="358.8542" y="183.9111"/><rect fill="#1B1B1A" height="31.3883" rx="8.3333" ry="8.3333" style="stroke:#1B1B1A;stroke-width:1.0416666666666667;" width="466.6667" x="358.8542" y="183.9111"/><rect fill="#1B1B1A" height="8.3333" style="stroke:#1B1B1A;stroke-width:1.0416666666666667;" width="466.6667" x="358.8542" y="206.9661"/><rect codeLine="15" fill="none" height="352.5614" id="GeoJsonDocument" rx="8.3333" ry="8.3333" style="stroke:#5E5E5E;stroke-width:1.0416666666666667;" width="466.6667" x="358.8542" y="183.9111"/><ellipse cx="524.4792" cy="199.6053" fill="#0066CF" rx="10.4167" ry="10.4167" style="stroke:#0086EF;stroke-width:1.0416666666666667;"/><path d="M526.3896,204.0304 Q525.9623,204.2501 525.4924,204.3599 Q525.0224,204.4698 524.5036,204.4698 Q522.6603,204.4698 521.6899,203.2552 Q520.7194,202.0406 520.7194,199.7457 Q520.7194,197.4447 521.6899,196.2301 Q522.6603,195.0155 524.5036,195.0155 Q525.0224,195.0155 525.4985,195.1253 Q525.9745,195.2352 526.3896,195.4549 L526.3896,197.4569 Q525.9257,197.0296 525.4893,196.8313 Q525.0529,196.6329 524.589,196.6329 Q523.6003,196.6329 523.0967,197.4172 Q522.5932,198.2015 522.5932,199.7457 Q522.5932,201.2838 523.0967,202.0681 Q523.6003,202.8524 524.589,202.8524 Q525.0529,202.8524 525.4893,202.654 Q525.9257,202.4556 526.3896,202.0284 Z " fill="#000000"/><text fill="#D8BC00" font-family="Open Sans,Avenir,Nunito,Arial,Helvetica,SansSerif" font-size="12.5" font-weight="bold" lengthAdjust="spacing" textLength="120.8333" x="547.3958" y="204.3294">GeoJsonDocument</text><line style="stroke:#5E5E5E;stroke-width:1.5625;" x1="359.8958" x2="824.4792" y1="215.2995" y2="215.2995"/><line style="stroke:#5E5E5E;stroke-width:1.0416666666666667;" x1="359.8958" x2="824.4792" y1="223.6328" y2="223.6328"/><ellipse cx="370.3125" cy="235.0911" fill="#84BE84" rx="3.125" ry="3.125" style="stroke:#038048;stroke-width:1.0416666666666667;"/><text fill="#D8BC00" font-family="Open Sans,Avenir,Nunito,Arial,Helvetica,SansSerif" font-size="11.4583" lengthAdjust="spacing" textLength="108.3333" x="381.7708" y="242.0024">Rectangle bounds()</text><ellipse cx="370.3125" cy="254.836" fill="#84BE84" rx="3.125" ry="3.125" style="stroke:#038048;stroke-width:1.0416666666666667;"/><text fill="#D8BC00" font-family="Open Sans,Avenir,Nunito,Arial,Helvetica,SansSerif" font-size="11.4583" lengthAdjust="spacing" textLength="215.625" x="381.7708" y="261.7472">GeoJsonDocument forJson(String json)</text><ellipse cx="370.3125" cy="274.5809" fill="#84BE84" rx="3.125" ry="3.125" style="stroke:#038048;stroke-width:1.0416666666666667;"/><text fill="#D8BC00" font-family="Open Sans,Avenir,Nunito,Arial,Helvetica,SansSerif" font-size="11.4583" lengthAdjust="spacing" textLength="165.625" x="381.7708" y="281.4921">GeoJsonFeature get(int index)</text><ellipse cx="370.3125" cy="294.3258" fill="#84BE84" rx="3.125" ry="3.125" style="stroke:#038048;stroke-width:1.0416666666666667;"/><text fill="#D8BC00" font-family="Open Sans,Avenir,Nunito,Arial,Helvetica,SansSerif" font-size="11.4583" lengthAdjust="spacing" textLength="132.2917" x="381.7708" y="301.237">void main(String[] args)</text><ellipse cx="370.3125" cy="337.9822" fill="#84BE84" rx="3.125" ry="3.125" style="stroke:#038048;stroke-width:1.0416666666666667;"/><text fill="#D8BC00" font-family="Open Sans,Avenir,Nunito,Arial,Helvetica,SansSerif" font-size="11.4583" lengthAdjust="spacing" textLength="143.75" x="381.7708" y="344.8934">void add(GeoJsonFeature)</text><ellipse cx="370.3125" cy="357.7271" fill="#84BE84" rx="3.125" ry="3.125" style="stroke:#038048;stroke-width:1.0416666666666667;"/><text fill="#D8BC00" font-family="Open Sans,Avenir,Nunito,Arial,Helvetica,SansSerif" font-size="11.4583" lengthAdjust="spacing" textLength="78.125" x="381.7708" y="364.6383">Count count()</text><ellipse cx="370.3125" cy="377.4719" fill="#84BE84" rx="3.125" ry="3.125" style="stroke:#038048;stroke-width:1.0416666666666667;"/><text fill="#D8BC00" font-family="Open Sans,Avenir,Nunito,Arial,Helvetica,SansSerif" font-size="11.4583" lengthAdjust="spacing" textLength="183.3333" x="381.7708" y="384.3831">List&lt;GeoJsonFeature&gt; features()</text><ellipse cx="370.3125" cy="397.2168" fill="#84BE84" rx="3.125" ry="3.125" style="stroke:#038048;stroke-width:1.0416666666666667;"/><text fill="#D8BC00" font-family="Open Sans,Avenir,Nunito,Arial,Helvetica,SansSerif" font-size="11.4583" lengthAdjust="spacing" textLength="198.9583" x="381.7708" y="404.128">GeoJsonFeature[] featuresAsArray()</text><ellipse cx="370.3125" cy="416.9617" fill="#84BE84" rx="3.125" ry="3.125" style="stroke:#038048;stroke-width:1.0416666666666667;"/><text fill="#D8BC00" font-family="Open Sans,Avenir,Nunito,Arial,Helvetica,SansSerif" font-size="11.4583" lengthAdjust="spacing" textLength="184.375" x="381.7708" y="423.8729">Map&lt;String,Object&gt; properties()</text><ellipse cx="370.3125" cy="436.7065" fill="#84BE84" rx="3.125" ry="3.125" style="stroke:#038048;stroke-width:1.0416666666666667;"/><text fill="#D8BC00" font-family="Open Sans,Avenir,Nunito,Arial,Helvetica,SansSerif" font-size="11.4583" lengthAdjust="spacing" textLength="300" x="381.7708" y="443.6178">Map&lt;String,String&gt; propertiesAsStringToStringMap()</text><ellipse cx="370.3125" cy="456.4514" fill="#84BE84" rx="3.125" ry="3.125" style="stroke:#038048;stroke-width:1.0416666666666667;"/><text fill="#D8BC00" font-family="Open Sans,Avenir,Nunito,Arial,Helvetica,SansSerif" font-size="11.4583" lengthAdjust="spacing" textLength="47.9167" x="381.7708" y="463.3626">int size()</text><ellipse cx="370.3125" cy="476.1963" fill="#84BE84" rx="3.125" ry="3.125" style="stroke:#038048;stroke-width:1.0416666666666667;"/><text fill="#D8BC00" font-family="Open Sans,Avenir,Nunito,Arial,Helvetica,SansSerif" font-size="11.4583" lengthAdjust="spacing" textLength="434.375" x="381.7708" y="483.1075">void sortFeatures(Comparator&lt;? super GeoJsonFeature&gt; featureComparator)</text><line style="stroke:#5E5E5E;stroke-width:1.0416666666666667;" x1="359.8958" x2="557.8125" y1="320.8181" y2="320.8181"/><text fill="#D8BC00" font-family="Open Sans,Avenir,Nunito,Arial,Helvetica,SansSerif" font-size="11.4583" lengthAdjust="spacing" textLength="62.5" x="560.9375" y="324.6277">(collection)</text><line style="stroke:#5E5E5E;stroke-width:1.0416666666666667;" x1="626.5625" x2="824.4792" y1="320.8181" y2="320.8181"/><ellipse cx="370.3125" cy="519.8527" fill="#84BE84" rx="3.125" ry="3.125" style="stroke:#038048;stroke-width:1.0416666666666667;"/><text fill="#D8BC00" font-family="Open Sans,Avenir,Nunito,Arial,Helvetica,SansSerif" font-size="11.4583" lengthAdjust="spacing" textLength="157.2917" x="381.7708" y="526.7639">void save(WritableResource)</text><line style="stroke:#5E5E5E;stroke-width:1.0416666666666667;" x1="359.8958" x2="571.3542" y1="502.6886" y2="502.6886"/><text fill="#D8BC00" font-family="Open Sans,Avenir,Nunito,Arial,Helvetica,SansSerif" font-size="11.4583" lengthAdjust="spacing" textLength="35.4167" x="574.4792" y="506.4982">(write)</text><line style="stroke:#5E5E5E;stroke-width:1.0416666666666667;" x1="613.0208" x2="824.4792" y1="502.6886" y2="502.6886"/><rect codeLine="39" fill="#282828" height="253.8371" id="GeoJsonFeature" rx="8.3333" ry="8.3333" style="stroke:#5E5E5E;stroke-width:1.0416666666666667;" width="244.7917" x="77.0833" y="232.8695"/><rect fill="#1B1B1A" height="31.3883" rx="8.3333" ry="8.3333" style="stroke:#1B1B1A;stroke-width:1.0416666666666667;" width="244.7917" x="77.0833" y="232.8695"/><rect fill="#1B1B1A" height="8.3333" style="stroke:#1B1B1A;stroke-width:1.0416666666666667;" width="244.7917" x="77.0833" y="255.9245"/><rect codeLine="39" fill="none" height="253.8371" id="GeoJsonFeature" rx="8.3333" ry="8.3333" style="stroke:#5E5E5E;stroke-width:1.0416666666666667;" width="244.7917" x="77.0833" y="232.8695"/><ellipse cx="141.1458" cy="248.5636" fill="#0066CF" rx="10.4167" ry="10.4167" style="stroke:#0086EF;stroke-width:1.0416666666666667;"/><path d="M143.0562,252.9887 Q142.629,253.2084 142.159,253.3183 Q141.689,253.4281 141.1702,253.4281 Q139.327,253.4281 138.3565,252.2135 Q137.3861,250.9989 137.3861,248.704 Q137.3861,246.403 138.3565,245.1884 Q139.327,243.9738 141.1702,243.9738 Q141.689,243.9738 142.1651,244.0837 Q142.6412,244.1935 143.0562,244.4132 L143.0562,246.4152 Q142.5924,245.988 142.156,245.7896 Q141.7196,245.5912 141.2557,245.5912 Q140.2669,245.5912 139.7634,246.3755 Q139.2598,247.1598 139.2598,248.704 Q139.2598,250.2421 139.7634,251.0264 Q140.2669,251.8107 141.2557,251.8107 Q141.7196,251.8107 142.156,251.6123 Q142.5924,251.414 143.0562,250.9867 Z " fill="#000000"/><text fill="#D8BC00" font-family="Open Sans,Avenir,Nunito,Arial,Helvetica,SansSerif" font-size="12.5" font-weight="bold" lengthAdjust="spacing" textLength="102.0833" x="164.0625" y="253.2878">GeoJsonFeature</text><line style="stroke:#5E5E5E;stroke-width:1.5625;" x1="78.125" x2="320.8333" y1="264.2578" y2="264.2578"/><ellipse cx="88.5417" cy="299.6277" fill="#84BE84" rx="3.125" ry="3.125" style="stroke:#038048;stroke-width:1.0416666666666667;"/><text fill="#D8BC00" font-family="Open Sans,Avenir,Nunito,Arial,Helvetica,SansSerif" font-size="11.4583" lengthAdjust="spacing" textLength="95.8333" x="100" y="306.5389">GeoJsonFeature()</text><ellipse cx="88.5417" cy="319.3726" fill="#84BE84" rx="3.125" ry="3.125" style="stroke:#038048;stroke-width:1.0416666666666667;"/><text fill="#D8BC00" font-family="Open Sans,Avenir,Nunito,Arial,Helvetica,SansSerif" font-size="11.4583" lengthAdjust="spacing" textLength="129.1667" x="100" y="326.2838">GeoJsonFeature(String)</text><line style="stroke:#5E5E5E;stroke-width:1.0416666666666667;" x1="78.125" x2="155.7292" y1="282.4636" y2="282.4636"/><text fill="#D8BC00" font-family="Open Sans,Avenir,Nunito,Arial,Helvetica,SansSerif" font-size="11.4583" lengthAdjust="spacing" textLength="81.25" x="158.8542" y="286.2732">(constructors)</text><line style="stroke:#5E5E5E;stroke-width:1.0416666666666667;" x1="243.2292" x2="320.8333" y1="282.4636" y2="282.4636"/><line style="stroke:#5E5E5E;stroke-width:1.0416666666666667;" x1="78.125" x2="320.8333" y1="335.9924" y2="335.9924"/><ellipse cx="88.5417" cy="347.4508" fill="#84BE84" rx="3.125" ry="3.125" style="stroke:#038048;stroke-width:1.0416666666666667;"/><text fill="#D8BC00" font-family="Open Sans,Avenir,Nunito,Arial,Helvetica,SansSerif" font-size="11.4583" lengthAdjust="spacing" textLength="113.5417" x="100" y="354.362">void title(String title)</text><ellipse cx="88.5417" cy="367.1956" fill="#84BE84" rx="3.125" ry="3.125" style="stroke:#038048;stroke-width:1.0416666666666667;"/><text fill="#D8BC00" font-family="Open Sans,Avenir,Nunito,Arial,Helvetica,SansSerif" font-size="11.4583" lengthAdjust="spacing" textLength="65.625" x="100" y="374.1069">String title()</text><ellipse cx="88.5417" cy="410.8521" fill="#84BE84" rx="3.125" ry="3.125" style="stroke:#038048;stroke-width:1.0416666666666667;"/><text fill="#D8BC00" font-family="Open Sans,Avenir,Nunito,Arial,Helvetica,SansSerif" font-size="11.4583" lengthAdjust="spacing" textLength="156.25" x="100" y="417.7633">void add(GeoJsonGeometry)</text><ellipse cx="88.5417" cy="430.5969" fill="#84BE84" rx="3.125" ry="3.125" style="stroke:#038048;stroke-width:1.0416666666666667;"/><text fill="#D8BC00" font-family="Open Sans,Avenir,Nunito,Arial,Helvetica,SansSerif" font-size="11.4583" lengthAdjust="spacing" textLength="212.5" x="100" y="437.5081">List&lt;GeoJsonGeometry&gt; geometries()</text><ellipse cx="88.5417" cy="450.3418" fill="#84BE84" rx="3.125" ry="3.125" style="stroke:#038048;stroke-width:1.0416666666666667;"/><text fill="#D8BC00" font-family="Open Sans,Avenir,Nunito,Arial,Helvetica,SansSerif" font-size="11.4583" lengthAdjust="spacing" textLength="184.375" x="100" y="457.253">Map&lt;String,Object&gt; properties()</text><ellipse cx="88.5417" cy="470.0867" fill="#84BE84" rx="3.125" ry="3.125" style="stroke:#038048;stroke-width:1.0416666666666667;"/><text fill="#D8BC00" font-family="Open Sans,Avenir,Nunito,Arial,Helvetica,SansSerif" font-size="11.4583" lengthAdjust="spacing" textLength="184.375" x="100" y="476.9979">void put(String key, Object value)</text><line style="stroke:#5E5E5E;stroke-width:1.0416666666666667;" x1="78.125" x2="165.1042" y1="393.6879" y2="393.6879"/><text fill="#D8BC00" font-family="Open Sans,Avenir,Nunito,Arial,Helvetica,SansSerif" font-size="11.4583" lengthAdjust="spacing" textLength="62.5" x="168.2292" y="397.4976">(collection)</text><line style="stroke:#5E5E5E;stroke-width:1.0416666666666667;" x1="233.8542" x2="320.8333" y1="393.6879" y2="393.6879"/><rect codeLine="54" fill="#282828" height="67.7999" id="GeoJsonGeometry" rx="8.3333" ry="8.3333" style="stroke:#5E5E5E;stroke-width:1.0416666666666667;" width="154.1667" x="1251.5625" y="53.7028"/><rect fill="#1B1B1A" height="31.3883" rx="8.3333" ry="8.3333" style="stroke:#1B1B1A;stroke-width:1.0416666666666667;" width="154.1667" x="1251.5625" y="53.7028"/><rect fill="#1B1B1A" height="8.3333" style="stroke:#1B1B1A;stroke-width:1.0416666666666667;" width="154.1667" x="1251.5625" y="76.7578"/><rect codeLine="54" fill="none" height="67.7999" id="GeoJsonGeometry" rx="8.3333" ry="8.3333" style="stroke:#5E5E5E;stroke-width:1.0416666666666667;" width="154.1667" x="1251.5625" y="53.7028"/><ellipse cx="1266.1458" cy="69.397" fill="#C8AC00" rx="10.4167" ry="10.4167" style="stroke:#D8BC00;stroke-width:1.0416666666666667;"/><path d="M1265.7389,66.099 L1264.8905,69.8283 L1266.5934,69.8283 Z M1264.6403,64.4511 L1266.8437,64.4511 L1269.3034,73.5636 L1267.5028,73.5636 L1266.9413,71.3114 L1264.5304,71.3114 L1263.9811,73.5636 L1262.1806,73.5636 Z " fill="#000000"/><text fill="#D8BC00" font-family="Open Sans,Avenir,Nunito,Arial,Helvetica,SansSerif" font-size="12.5" font-style="italic" font-weight="bold" lengthAdjust="spacing" textLength="116.6667" x="1282.8125" y="74.1211">GeoJsonGeometry</text><line style="stroke:#5E5E5E;stroke-width:1.5625;" x1="1252.6042" x2="1404.6875" y1="85.0911" y2="85.0911"/><line style="stroke:#5E5E5E;stroke-width:1.0416666666666667;" x1="1252.6042" x2="1404.6875" y1="93.4245" y2="93.4245"/><ellipse cx="1263.0208" cy="104.8828" fill="#84BE84" rx="3.125" ry="3.125" style="stroke:#038048;stroke-width:1.0416666666666667;"/><text fill="#D8BC00" font-family="Open Sans,Avenir,Nunito,Arial,Helvetica,SansSerif" font-size="11.4583" lengthAdjust="spacing" textLength="108.3333" x="1274.4792" y="111.794">Rectangle bounds()</text><rect codeLine="62" fill="#282828" height="103.123" id="GeoJsonGeometryCollection" rx="8.3333" ry="8.3333" style="stroke:#5E5E5E;stroke-width:1.0416666666666667;" width="244.7917" x="862.5" y="308.3903"/><rect fill="#1B1B1A" height="31.3883" rx="8.3333" ry="8.3333" style="stroke:#1B1B1A;stroke-width:1.0416666666666667;" width="244.7917" x="862.5" y="308.3903"/><rect fill="#1B1B1A" height="8.3333" style="stroke:#1B1B1A;stroke-width:1.0416666666666667;" width="244.7917" x="862.5" y="331.4453"/><rect codeLine="62" fill="none" height="103.123" id="GeoJsonGeometryCollection" rx="8.3333" ry="8.3333" style="stroke:#5E5E5E;stroke-width:1.0416666666666667;" width="244.7917" x="862.5" y="308.3903"/><ellipse cx="888.3333" cy="324.0845" fill="#0066CF" rx="10.4167" ry="10.4167" style="stroke:#0086EF;stroke-width:1.0416666666666667;"/><path d="M890.2437,328.5095 Q889.8165,328.7292 889.3465,328.8391 Q888.8765,328.949 888.3577,328.949 Q886.5145,328.949 885.544,327.7344 Q884.5736,326.5198 884.5736,324.2249 Q884.5736,321.9238 885.544,320.7092 Q886.5145,319.4946 888.3577,319.4946 Q888.8765,319.4946 889.3526,319.6045 Q889.8287,319.7144 890.2437,319.9341 L890.2437,321.936 Q889.7799,321.5088 889.3435,321.3104 Q888.9071,321.1121 888.4432,321.1121 Q887.4544,321.1121 886.9509,321.8964 Q886.4473,322.6807 886.4473,324.2249 Q886.4473,325.7629 886.9509,326.5472 Q887.4544,327.3315 888.4432,327.3315 Q888.9071,327.3315 889.3435,327.1332 Q889.7799,326.9348 890.2437,326.5076 Z " fill="#000000"/><text fill="#D8BC00" font-family="Open Sans,Avenir,Nunito,Arial,Helvetica,SansSerif" font-size="12.5" font-weight="bold" lengthAdjust="spacing" textLength="182.2917" x="907.5" y="328.8086">GeoJsonGeometryCollection</text><line style="stroke:#5E5E5E;stroke-width:1.5625;" x1="863.5417" x2="1106.25" y1="339.7786" y2="339.7786"/><ellipse cx="873.9583" cy="375.1485" fill="#84BE84" rx="3.125" ry="3.125" style="stroke:#038048;stroke-width:1.0416666666666667;"/><text fill="#D8BC00" font-family="Open Sans,Avenir,Nunito,Arial,Helvetica,SansSerif" font-size="11.4583" lengthAdjust="spacing" textLength="156.25" x="885.4167" y="382.0597">void add(GeoJsonGeometry)</text><ellipse cx="873.9583" cy="394.8934" fill="#84BE84" rx="3.125" ry="3.125" style="stroke:#038048;stroke-width:1.0416666666666667;"/><text fill="#D8BC00" font-family="Open Sans,Avenir,Nunito,Arial,Helvetica,SansSerif" font-size="11.4583" lengthAdjust="spacing" textLength="212.5" x="885.4167" y="401.8046">List&lt;GeoJsonGeometry&gt; geometries()</text><line style="stroke:#5E5E5E;stroke-width:1.0416666666666667;" x1="863.5417" x2="950.5208" y1="357.9844" y2="357.9844"/><text fill="#D8BC00" font-family="Open Sans,Avenir,Nunito,Arial,Helvetica,SansSerif" font-size="11.4583" lengthAdjust="spacing" textLength="62.5" x="953.6458" y="361.794">(collection)</text><line style="stroke:#5E5E5E;stroke-width:1.0416666666666667;" x1="1019.2708" x2="1106.25" y1="357.9844" y2="357.9844"/><rect codeLine="71" fill="#282828" height="48.055" id="GeoJsonGeometryTypeAdapter" rx="8.3333" ry="8.3333" style="stroke:#5E5E5E;stroke-width:1.0416666666666667;" width="236.4583" x="1764.5833" y="335.9945"/><rect fill="#1B1B1A" height="31.3883" rx="8.3333" ry="8.3333" style="stroke:#1B1B1A;stroke-width:1.0416666666666667;" width="236.4583" x="1764.5833" y="335.9945"/><rect fill="#1B1B1A" height="8.3333" style="stroke:#1B1B1A;stroke-width:1.0416666666666667;" width="236.4583" x="1764.5833" y="359.0495"/><rect codeLine="71" fill="none" height="48.055" id="GeoJsonGeometryTypeAdapter" rx="8.3333" ry="8.3333" style="stroke:#5E5E5E;stroke-width:1.0416666666666667;" width="236.4583" x="1764.5833" y="335.9945"/><ellipse cx="1779.1667" cy="351.6886" fill="#0066CF" rx="10.4167" ry="10.4167" style="stroke:#0086EF;stroke-width:1.0416666666666667;"/><path d="M1781.0771,356.1137 Q1780.6498,356.3334 1780.1799,356.4433 Q1779.7099,356.5531 1779.1911,356.5531 Q1777.3478,356.5531 1776.3774,355.3385 Q1775.4069,354.1239 1775.4069,351.829 Q1775.4069,349.528 1776.3774,348.3134 Q1777.3478,347.0988 1779.1911,347.0988 Q1779.7099,347.0988 1780.186,347.2087 Q1780.662,347.3185 1781.0771,347.5382 L1781.0771,349.5402 Q1780.6132,349.113 1780.1768,348.9146 Q1779.7404,348.7162 1779.2765,348.7162 Q1778.2878,348.7162 1777.7842,349.5005 Q1777.2807,350.2848 1777.2807,351.829 Q1777.2807,353.3671 1777.7842,354.1514 Q1778.2878,354.9357 1779.2765,354.9357 Q1779.7404,354.9357 1780.1768,354.7373 Q1780.6132,354.539 1781.0771,354.1117 Z " fill="#000000"/><text fill="#D8BC00" font-family="Open Sans,Avenir,Nunito,Arial,Helvetica,SansSerif" font-size="12.5" font-weight="bold" lengthAdjust="spacing" textLength="198.9583" x="1795.8333" y="356.4128">GeoJsonGeometryTypeAdapter</text><line style="stroke:#5E5E5E;stroke-width:1.0416666666666667;" x1="1765.625" x2="2000" y1="367.3828" y2="367.3828"/><line style="stroke:#5E5E5E;stroke-width:1.0416666666666667;" x1="1765.625" x2="2000" y1="375.7161" y2="375.7161"/><rect codeLine="76" fill="#282828" height="155.1127" id="GeoJsonPoint" rx="8.3333" ry="8.3333" style="stroke:#5E5E5E;stroke-width:1.0416666666666667;" width="162.5" x="1144.2708" y="282.3486"/><rect fill="#1B1B1A" height="31.3883" rx="8.3333" ry="8.3333" style="stroke:#1B1B1A;stroke-width:1.0416666666666667;" width="162.5" x="1144.2708" y="282.3486"/><rect fill="#1B1B1A" height="8.3333" style="stroke:#1B1B1A;stroke-width:1.0416666666666667;" width="162.5" x="1144.2708" y="305.4036"/><rect codeLine="76" fill="none" height="155.1127" id="GeoJsonPoint" rx="8.3333" ry="8.3333" style="stroke:#5E5E5E;stroke-width:1.0416666666666667;" width="162.5" x="1144.2708" y="282.3486"/><ellipse cx="1175.7292" cy="298.0428" fill="#0066CF" rx="10.4167" ry="10.4167" style="stroke:#0086EF;stroke-width:1.0416666666666667;"/><path d="M1177.6396,302.4679 Q1177.2123,302.6876 1176.7424,302.7974 Q1176.2724,302.9073 1175.7536,302.9073 Q1173.9103,302.9073 1172.9399,301.6927 Q1171.9694,300.4781 1171.9694,298.1832 Q1171.9694,295.8822 1172.9399,294.6676 Q1173.9103,293.453 1175.7536,293.453 Q1176.2724,293.453 1176.7485,293.5628 Q1177.2245,293.6727 1177.6396,293.8924 L1177.6396,295.8944 Q1177.1757,295.4671 1176.7393,295.2688 Q1176.3029,295.0704 1175.839,295.0704 Q1174.8503,295.0704 1174.3467,295.8547 Q1173.8432,296.639 1173.8432,298.1832 Q1173.8432,299.7213 1174.3467,300.5056 Q1174.8503,301.2899 1175.839,301.2899 Q1176.3029,301.2899 1176.7393,301.0915 Q1177.1757,300.8931 1177.6396,300.4659 Z " fill="#000000"/><text fill="#D8BC00" font-family="Open Sans,Avenir,Nunito,Arial,Helvetica,SansSerif" font-size="12.5" font-weight="bold" lengthAdjust="spacing" textLength="87.5" x="1196.1458" y="302.7669">GeoJsonPoint</text><line style="stroke:#5E5E5E;stroke-width:1.5625;" x1="1145.3125" x2="1305.7292" y1="313.737" y2="313.737"/><ellipse cx="1155.7292" cy="349.1069" fill="#84BE84" rx="3.125" ry="3.125" style="stroke:#038048;stroke-width:1.0416666666666667;"/><text fill="#D8BC00" font-family="Open Sans,Avenir,Nunito,Arial,Helvetica,SansSerif" font-size="11.4583" lengthAdjust="spacing" textLength="130.2083" x="1167.1875" y="356.0181">GeoJsonPoint(Location)</text><line style="stroke:#5E5E5E;stroke-width:1.0416666666666667;" x1="1145.3125" x2="1181.7708" y1="331.9427" y2="331.9427"/><text fill="#D8BC00" font-family="Open Sans,Avenir,Nunito,Arial,Helvetica,SansSerif" font-size="11.4583" lengthAdjust="spacing" textLength="81.25" x="1184.8958" y="335.7524">(constructors)</text><line style="stroke:#5E5E5E;stroke-width:1.0416666666666667;" x1="1269.2708" x2="1305.7292" y1="331.9427" y2="331.9427"/><line style="stroke:#5E5E5E;stroke-width:1.0416666666666667;" x1="1145.3125" x2="1305.7292" y1="365.7267" y2="365.7267"/><ellipse cx="1155.7292" cy="377.1851" fill="#84BE84" rx="3.125" ry="3.125" style="stroke:#038048;stroke-width:1.0416666666666667;"/><text fill="#D8BC00" font-family="Open Sans,Avenir,Nunito,Arial,Helvetica,SansSerif" font-size="11.4583" lengthAdjust="spacing" textLength="104.1667" x="1167.1875" y="384.0963">Location location()</text><polygon fill="#FFFF44" points="1155.7292,415.6331,1159.8958,419.7998,1155.7292,423.9665,1151.5625,419.7998" style="stroke:#B38D22;stroke-width:1.0416666666666667;"/><text fill="#D8BC00" font-family="Open Sans,Avenir,Nunito,Arial,Helvetica,SansSerif" font-size="11.4583" lengthAdjust="spacing" textLength="104.1667" x="1167.1875" y="427.7527">void add(Location)</text><line style="stroke:#5E5E5E;stroke-width:1.0416666666666667;" x1="1145.3125" x2="1191.1458" y1="403.6774" y2="403.6774"/><text fill="#D8BC00" font-family="Open Sans,Avenir,Nunito,Arial,Helvetica,SansSerif" font-size="11.4583" lengthAdjust="spacing" textLength="62.5" x="1194.2708" y="407.487">(collection)</text><line style="stroke:#5E5E5E;stroke-width:1.0416666666666667;" x1="1259.8958" x2="1305.7292" y1="403.6774" y2="403.6774"/><rect codeLine="87" fill="#282828" height="155.1127" id="GeoJsonPolygon" rx="8.3333" ry="8.3333" style="stroke:#5E5E5E;stroke-width:1.0416666666666667;" width="176.0417" x="1343.75" y="282.3486"/><rect fill="#1B1B1A" height="31.3883" rx="8.3333" ry="8.3333" style="stroke:#1B1B1A;stroke-width:1.0416666666666667;" width="176.0417" x="1343.75" y="282.3486"/><rect fill="#1B1B1A" height="8.3333" style="stroke:#1B1B1A;stroke-width:1.0416666666666667;" width="176.0417" x="1343.75" y="305.4036"/><rect codeLine="87" fill="none" height="155.1127" id="GeoJsonPolygon" rx="8.3333" ry="8.3333" style="stroke:#5E5E5E;stroke-width:1.0416666666666667;" width="176.0417" x="1343.75" y="282.3486"/><ellipse cx="1372.8646" cy="298.0428" fill="#0066CF" rx="10.4167" ry="10.4167" style="stroke:#0086EF;stroke-width:1.0416666666666667;"/><path d="M1374.775,302.4679 Q1374.3477,302.6876 1373.8778,302.7974 Q1373.4078,302.9073 1372.889,302.9073 Q1371.0457,302.9073 1370.0753,301.6927 Q1369.1048,300.4781 1369.1048,298.1832 Q1369.1048,295.8822 1370.0753,294.6676 Q1371.0457,293.453 1372.889,293.453 Q1373.4078,293.453 1373.8839,293.5628 Q1374.3599,293.6727 1374.775,293.8924 L1374.775,295.8944 Q1374.3111,295.4671 1373.8747,295.2688 Q1373.4383,295.0704 1372.9744,295.0704 Q1371.9857,295.0704 1371.4821,295.8547 Q1370.9786,296.639 1370.9786,298.1832 Q1370.9786,299.7213 1371.4821,300.5056 Q1371.9857,301.2899 1372.9744,301.2899 Q1373.4383,301.2899 1373.8747,301.0915 Q1374.3111,300.8931 1374.775,300.4659 Z " fill="#000000"/><text fill="#D8BC00" font-family="Open Sans,Avenir,Nunito,Arial,Helvetica,SansSerif" font-size="12.5" font-weight="bold" lengthAdjust="spacing" textLength="106.25" x="1392.7604" y="302.7669">GeoJsonPolygon</text><line style="stroke:#5E5E5E;stroke-width:1.5625;" x1="1344.7917" x2="1518.75" y1="313.737" y2="313.737"/><ellipse cx="1355.2083" cy="349.1069" fill="#84BE84" rx="3.125" ry="3.125" style="stroke:#038048;stroke-width:1.0416666666666667;"/><text fill="#D8BC00" font-family="Open Sans,Avenir,Nunito,Arial,Helvetica,SansSerif" font-size="11.4583" lengthAdjust="spacing" textLength="143.75" x="1366.6667" y="356.0181">GeoJsonPolygon(Polygon)</text><line style="stroke:#5E5E5E;stroke-width:1.0416666666666667;" x1="1344.7917" x2="1388.0208" y1="331.9427" y2="331.9427"/><text fill="#D8BC00" font-family="Open Sans,Avenir,Nunito,Arial,Helvetica,SansSerif" font-size="11.4583" lengthAdjust="spacing" textLength="81.25" x="1391.1458" y="335.7524">(constructors)</text><line style="stroke:#5E5E5E;stroke-width:1.0416666666666667;" x1="1475.5208" x2="1518.75" y1="331.9427" y2="331.9427"/><line style="stroke:#5E5E5E;stroke-width:1.0416666666666667;" x1="1344.7917" x2="1518.75" y1="365.7267" y2="365.7267"/><ellipse cx="1355.2083" cy="377.1851" fill="#84BE84" rx="3.125" ry="3.125" style="stroke:#038048;stroke-width:1.0416666666666667;"/><text fill="#D8BC00" font-family="Open Sans,Avenir,Nunito,Arial,Helvetica,SansSerif" font-size="11.4583" lengthAdjust="spacing" textLength="97.9167" x="1366.6667" y="384.0963">Polyline polyline()</text><polygon fill="#FFFF44" points="1355.2083,415.6331,1359.375,419.7998,1355.2083,423.9665,1351.0417,419.7998" style="stroke:#B38D22;stroke-width:1.0416666666666667;"/><text fill="#D8BC00" font-family="Open Sans,Avenir,Nunito,Arial,Helvetica,SansSerif" font-size="11.4583" lengthAdjust="spacing" textLength="104.1667" x="1366.6667" y="427.7527">void add(Location)</text><line style="stroke:#5E5E5E;stroke-width:1.0416666666666667;" x1="1344.7917" x2="1397.3958" y1="403.6774" y2="403.6774"/><text fill="#D8BC00" font-family="Open Sans,Avenir,Nunito,Arial,Helvetica,SansSerif" font-size="11.4583" lengthAdjust="spacing" textLength="62.5" x="1400.5208" y="407.487">(collection)</text><line style="stroke:#5E5E5E;stroke-width:1.0416666666666667;" x1="1466.1458" x2="1518.75" y1="403.6774" y2="403.6774"/><rect codeLine="98" fill="#282828" height="155.1127" id="GeoJsonPolyline" rx="8.3333" ry="8.3333" style="stroke:#5E5E5E;stroke-width:1.0416666666666667;" width="171.875" x="1556.25" y="282.3486"/><rect fill="#1B1B1A" height="31.3883" rx="8.3333" ry="8.3333" style="stroke:#1B1B1A;stroke-width:1.0416666666666667;" width="171.875" x="1556.25" y="282.3486"/><rect fill="#1B1B1A" height="8.3333" style="stroke:#1B1B1A;stroke-width:1.0416666666666667;" width="171.875" x="1556.25" y="305.4036"/><rect codeLine="98" fill="none" height="155.1127" id="GeoJsonPolyline" rx="8.3333" ry="8.3333" style="stroke:#5E5E5E;stroke-width:1.0416666666666667;" width="171.875" x="1556.25" y="282.3486"/><ellipse cx="1583.9583" cy="298.0428" fill="#0066CF" rx="10.4167" ry="10.4167" style="stroke:#0086EF;stroke-width:1.0416666666666667;"/><path d="M1585.8687,302.4679 Q1585.4415,302.6876 1584.9715,302.7974 Q1584.5015,302.9073 1583.9827,302.9073 Q1582.1395,302.9073 1581.169,301.6927 Q1580.1986,300.4781 1580.1986,298.1832 Q1580.1986,295.8822 1581.169,294.6676 Q1582.1395,293.453 1583.9827,293.453 Q1584.5015,293.453 1584.9776,293.5628 Q1585.4537,293.6727 1585.8687,293.8924 L1585.8687,295.8944 Q1585.4049,295.4671 1584.9685,295.2688 Q1584.5321,295.0704 1584.0682,295.0704 Q1583.0794,295.0704 1582.5759,295.8547 Q1582.0723,296.639 1582.0723,298.1832 Q1582.0723,299.7213 1582.5759,300.5056 Q1583.0794,301.2899 1584.0682,301.2899 Q1584.5321,301.2899 1584.9685,301.0915 Q1585.4049,300.8931 1585.8687,300.4659 Z " fill="#000000"/><text fill="#D8BC00" font-family="Open Sans,Avenir,Nunito,Arial,Helvetica,SansSerif" font-size="12.5" font-weight="bold" lengthAdjust="spacing" textLength="105.2083" x="1603.5417" y="302.7669">GeoJsonPolyline</text><line style="stroke:#5E5E5E;stroke-width:1.5625;" x1="1557.2917" x2="1727.0833" y1="313.737" y2="313.737"/><ellipse cx="1567.7083" cy="349.1069" fill="#84BE84" rx="3.125" ry="3.125" style="stroke:#038048;stroke-width:1.0416666666666667;"/><text fill="#D8BC00" font-family="Open Sans,Avenir,Nunito,Arial,Helvetica,SansSerif" font-size="11.4583" lengthAdjust="spacing" textLength="139.5833" x="1579.1667" y="356.0181">GeoJsonPolyline(Polyline)</text><line style="stroke:#5E5E5E;stroke-width:1.0416666666666667;" x1="1557.2917" x2="1598.4375" y1="331.9427" y2="331.9427"/><text fill="#D8BC00" font-family="Open Sans,Avenir,Nunito,Arial,Helvetica,SansSerif" font-size="11.4583" lengthAdjust="spacing" textLength="81.25" x="1601.5625" y="335.7524">(constructors)</text><line style="stroke:#5E5E5E;stroke-width:1.0416666666666667;" x1="1685.9375" x2="1727.0833" y1="331.9427" y2="331.9427"/><line style="stroke:#5E5E5E;stroke-width:1.0416666666666667;" x1="1557.2917" x2="1727.0833" y1="365.7267" y2="365.7267"/><ellipse cx="1567.7083" cy="377.1851" fill="#84BE84" rx="3.125" ry="3.125" style="stroke:#038048;stroke-width:1.0416666666666667;"/><text fill="#D8BC00" font-family="Open Sans,Avenir,Nunito,Arial,Helvetica,SansSerif" font-size="11.4583" lengthAdjust="spacing" textLength="97.9167" x="1579.1667" y="384.0963">Polyline polyline()</text><polygon fill="#FFFF44" points="1567.7083,415.6331,1571.875,419.7998,1567.7083,423.9665,1563.5417,419.7998" style="stroke:#B38D22;stroke-width:1.0416666666666667;"/><text fill="#D8BC00" font-family="Open Sans,Avenir,Nunito,Arial,Helvetica,SansSerif" font-size="11.4583" lengthAdjust="spacing" textLength="104.1667" x="1579.1667" y="427.7527">void add(Location)</text><line style="stroke:#5E5E5E;stroke-width:1.0416666666666667;" x1="1557.2917" x2="1607.8125" y1="403.6774" y2="403.6774"/><text fill="#D8BC00" font-family="Open Sans,Avenir,Nunito,Arial,Helvetica,SansSerif" font-size="11.4583" lengthAdjust="spacing" textLength="62.5" x="1610.9375" y="407.487">(collection)</text><line style="stroke:#5E5E5E;stroke-width:1.0416666666666667;" x1="1676.5625" x2="1727.0833" y1="403.6774" y2="403.6774"/><path codeLine="14" d="M592.1875,132.4945 C592.1875,147.359 592.1875,164.984 592.1875,183.7445 " fill="none" id="Iterable-backto-GeoJsonDocument" style="stroke:#545454;stroke-width:1.5625;"/><polygon fill="none" points="584.8958,132.4736,592.1875,111.6403,599.4792,132.4736,584.8958,132.4736" style="stroke:#545454;stroke-width:1.5625;"/><path codeLine="35" d="M528.2083,102.7132 C474.3333,116.8382 397.1458,142.5257 340.1042,183.9111 C321.0208,197.7549 303.1042,214.8382 286.8646,232.8382 " fill="none" id="Iterable-backto-GeoJsonFeature" style="stroke:#545454;stroke-width:1.5625;"/><polygon fill="none" points="526.7083,95.5778,548.6875,97.609,530.2396,109.7236,526.7083,95.5778" style="stroke:#545454;stroke-width:1.5625;"/><path codeLine="36" d="M76.9583,130.182 C91.75,157.7861 112.0104,195.6195 131.8021,232.5674 " fill="none" id="Bounded-backto-GeoJsonFeature" style="stroke:#545454;stroke-width:1.5625;"/><polygon fill="none" points="70.4375,133.4528,67.0313,111.6403,83.3021,126.5674,70.4375,133.4528" style="stroke:#545454;stroke-width:1.5625;"/><path codeLine="37" d="M199.4792,132.6299 C199.4792,159.9945 199.4792,196.7028 199.4792,232.5674 " fill="none" id="Intersectable-backto-GeoJsonFeature" style="stroke:#545454;stroke-width:1.5625;"/><polygon fill="none" points="192.1875,132.4736,199.4792,111.6403,206.7708,132.4736,192.1875,132.4736" style="stroke:#545454;stroke-width:1.5625;"/><path codeLine="38" d="M329.2813,129.7757 C313.625,157.4111 292.0833,195.432 271.0521,232.5674 " fill="none" id="Serializable-backto-GeoJsonFeature" style="stroke:#545454;stroke-width:1.5625;"/><polygon fill="none" points="322.9375,126.182,339.5521,111.6403,335.625,133.3695,322.9375,126.182" style="stroke:#545454;stroke-width:1.5625;"/><path codeLine="60" d="M1231.875,123.307 C1196.375,138.7028 1157.1667,159.0257 1125.5208,183.9111 C1081.25,218.7236 1042.1458,269.9945 1016.4896,308.0465 " fill="none" id="GeoJsonGeometry-backto-GeoJsonGeometryCollection" style="stroke:#545454;stroke-width:1.5625;"/><polygon fill="none" points="1229.1146,116.557,1251.1458,115.2653,1234.7292,130.0153,1229.1146,116.557" style="stroke:#545454;stroke-width:1.5625;"/><path codeLine="61" d="M655.8646,102.8174 C709.4896,117.0153 786.3438,142.734 843.2292,183.9111 C889.4583,217.3799 929.0313,269.5882 954.5104,308.2861 " fill="none" id="Iterable-backto-GeoJsonGeometryCollection" style="stroke:#545454;stroke-width:1.5625;"/><polygon fill="none" points="653.8958,109.8486,635.4792,97.682,657.4583,95.7028,653.8958,109.8486" style="stroke:#545454;stroke-width:1.5625;"/><path codeLine="69" d="M1810.0833,131.5361 C1828.625,189.484 1860.9896,290.682 1875.4583,335.9215 " fill="none" id="JsonSerializer-backto-GeoJsonGeometryTypeAdapter" style="stroke:#545454;stroke-width:1.5625;"/><polygon fill="none" points="1803.125,133.7132,1803.7292,111.6403,1817.0208,129.2653,1803.125,133.7132" style="stroke:#545454;stroke-width:1.5625;"/><path codeLine="70" d="M1954.6667,131.5361 C1936.3542,189.484 1904.375,290.682 1890.0729,335.9215 " fill="none" id="JsonDeserializer-backto-GeoJsonGeometryTypeAdapter" style="stroke:#545454;stroke-width:1.5625;"/><polygon fill="none" points="1947.7188,129.3174,1960.9479,111.6403,1961.625,133.7028,1947.7188,129.3174" style="stroke:#545454;stroke-width:1.5625;"/><path codeLine="75" d="M1308.5938,141.1507 C1293.2917,181.2653 1271.9792,237.1299 1254.7708,282.234 " fill="none" id="GeoJsonGeometry-backto-GeoJsonPoint" style="stroke:#545454;stroke-width:1.5625;"/><polygon fill="none" points="1301.8646,138.3382,1316.1042,121.4736,1315.4896,143.5361,1301.8646,138.3382" style="stroke:#545454;stroke-width:1.5625;"/><path codeLine="86" d="M1348.6979,141.1507 C1364,181.2653 1385.3125,237.1299 1402.5208,282.234 " fill="none" id="GeoJsonGeometry-backto-GeoJsonPolygon" style="stroke:#545454;stroke-width:1.5625;"/><polygon fill="none" points="1341.8021,143.5361,1341.1875,121.4736,1355.4271,138.3382,1341.8021,143.5361" style="stroke:#545454;stroke-width:1.5625;"/><path codeLine="97" d="M1425.3021,118.4111 C1463.4896,133.609 1505.8542,155.0882 1538.0208,183.9111 C1568.0417,210.807 1591.9792,248.4528 1609.3021,281.9424 " fill="none" id="GeoJsonGeometry-backto-GeoJsonPolyline" style="stroke:#545454;stroke-width:1.5625;"/><polygon fill="none" points="1422.6875,125.2236,1405.7813,111.0361,1427.8438,111.5778,1422.6875,125.2236" style="stroke:#545454;stroke-width:1.5625;"/></g></svg>
