<?xml version="1.0" encoding="UTF-8" standalone="no"?><svg xmlns="http://www.w3.org/2000/svg" xmlns:xlink="http://www.w3.org/1999/xlink" contentScriptType="application/ecmascript" contentStyleType="text/css" height="321.875px" preserveAspectRatio="none" style="width:1406px;height:321px;background:#333333;" version="1.1" viewBox="0 0 1406 321" width="1406.25px" zoomAndPan="magnify"><defs/><g><rect fill="#48494B" height="41.2028" rx="8.3333" ry="8.3333" style="stroke:#545454;stroke-width:1.0416666666666667;" width="510.4167" x="440.8854" y="2.0833"/><text fill="#C0C0C0" font-family="Open Sans,Avenir,Nunito,Arial,Helvetica,SansSerif" font-size="20.8333" lengthAdjust="spacing" textLength="487.5" x="452.3438" y="30.5583">com.telenav.mesakit.map.road.model.converters</text><rect codeLine="7" fill="#282828" height="48.055" id="BaseStringConverter" rx="8.3333" ry="8.3333" style="stroke:#5E5E5E;stroke-width:1.0416666666666667;" width="169.7917" x="605.7292" y="73.4945"/><rect fill="#1B1B1A" height="31.3883" rx="8.3333" ry="8.3333" style="stroke:#1B1B1A;stroke-width:1.0416666666666667;" width="169.7917" x="605.7292" y="73.4945"/><rect fill="#1B1B1A" height="8.3333" style="stroke:#1B1B1A;stroke-width:1.0416666666666667;" width="169.7917" x="605.7292" y="96.5495"/><rect codeLine="7" fill="none" height="48.055" id="BaseStringConverter" rx="8.3333" ry="8.3333" style="stroke:#5E5E5E;stroke-width:1.0416666666666667;" width="169.7917" x="605.7292" y="73.4945"/><ellipse cx="620.3125" cy="89.1886" fill="#C8AC00" rx="10.4167" ry="10.4167" style="stroke:#D8BC00;stroke-width:1.0416666666666667;"/><path d="M619.9056,85.8907 L619.0572,89.62 L620.7601,89.62 Z M618.807,84.2428 L621.0103,84.2428 L623.4701,93.3553 L621.6695,93.3553 L621.108,91.1031 L618.6971,91.1031 L618.1478,93.3553 L616.3472,93.3553 Z " fill="#000000"/><text fill="#D8BC00" font-family="Open Sans,Avenir,Nunito,Arial,Helvetica,SansSerif" font-size="12.5" font-style="italic" font-weight="bold" lengthAdjust="spacing" textLength="132.2917" x="636.9792" y="93.9128">BaseStringConverter</text><line style="stroke:#5E5E5E;stroke-width:1.0416666666666667;" x1="606.7708" x2="774.4792" y1="104.8828" y2="104.8828"/><line style="stroke:#5E5E5E;stroke-width:1.0416666666666667;" x1="606.7708" x2="774.4792" y1="113.2161" y2="113.2161"/><rect codeLine="10" fill="#282828" height="83.3781" id="DeCartaRoadTypeConverter" rx="8.3333" ry="8.3333" style="stroke:#5E5E5E;stroke-width:1.0416666666666667;" width="241.6667" x="7.2917" y="217.7653"/><rect fill="#1B1B1A" height="31.3883" rx="8.3333" ry="8.3333" style="stroke:#1B1B1A;stroke-width:1.0416666666666667;" width="241.6667" x="7.2917" y="217.7653"/><rect fill="#1B1B1A" height="8.3333" style="stroke:#1B1B1A;stroke-width:1.0416666666666667;" width="241.6667" x="7.2917" y="240.8203"/><rect codeLine="10" fill="none" height="83.3781" id="DeCartaRoadTypeConverter" rx="8.3333" ry="8.3333" style="stroke:#5E5E5E;stroke-width:1.0416666666666667;" width="241.6667" x="7.2917" y="217.7653"/><ellipse cx="33.125" cy="233.4595" fill="#0066CF" rx="10.4167" ry="10.4167" style="stroke:#0086EF;stroke-width:1.0416666666666667;"/><path d="M35.0354,237.8845 Q34.6082,238.1042 34.1382,238.2141 Q33.6682,238.324 33.1494,238.324 Q31.3062,238.324 30.3357,237.1094 Q29.3652,235.8948 29.3652,233.5999 Q29.3652,231.2988 30.3357,230.0842 Q31.3062,228.8696 33.1494,228.8696 Q33.6682,228.8696 34.1443,228.9795 Q34.6204,229.0894 35.0354,229.3091 L35.0354,231.311 Q34.5715,230.8838 34.1351,230.6854 Q33.6987,230.4871 33.2349,230.4871 Q32.2461,230.4871 31.7426,231.2714 Q31.239,232.0557 31.239,233.5999 Q31.239,235.1379 31.7426,235.9222 Q32.2461,236.7065 33.2349,236.7065 Q33.6987,236.7065 34.1351,236.5082 Q34.5715,236.3098 35.0354,235.8826 Z " fill="#000000"/><text fill="#D8BC00" font-family="Open Sans,Avenir,Nunito,Arial,Helvetica,SansSerif" font-size="12.5" font-weight="bold" lengthAdjust="spacing" textLength="179.1667" x="52.2917" y="238.1836">DeCartaRoadTypeConverter</text><line style="stroke:#5E5E5E;stroke-width:1.5625;" x1="8.3333" x2="247.9167" y1="249.1536" y2="249.1536"/><ellipse cx="18.75" cy="284.5235" fill="#84BE84" rx="3.125" ry="3.125" style="stroke:#038048;stroke-width:1.0416666666666667;"/><text fill="#D8BC00" font-family="Open Sans,Avenir,Nunito,Arial,Helvetica,SansSerif" font-size="11.4583" lengthAdjust="spacing" textLength="209.375" x="30.2083" y="291.4347">DeCartaRoadTypeConverter(Listener)</text><line style="stroke:#5E5E5E;stroke-width:1.0416666666666667;" x1="8.3333" x2="84.375" y1="267.3594" y2="267.3594"/><text fill="#D8BC00" font-family="Open Sans,Avenir,Nunito,Arial,Helvetica,SansSerif" font-size="11.4583" lengthAdjust="spacing" textLength="81.25" x="87.5" y="271.169">(constructors)</text><line style="stroke:#5E5E5E;stroke-width:1.0416666666666667;" x1="171.875" x2="247.9167" y1="267.3594" y2="267.3594"/><rect codeLine="17" fill="#282828" height="83.3781" id="DirectionOfTrafficFlowConverter" rx="8.3333" ry="8.3333" style="stroke:#5E5E5E;stroke-width:1.0416666666666667;" width="267.7083" x="285.9375" y="217.7653"/><rect fill="#1B1B1A" height="31.3883" rx="8.3333" ry="8.3333" style="stroke:#1B1B1A;stroke-width:1.0416666666666667;" width="267.7083" x="285.9375" y="217.7653"/><rect fill="#1B1B1A" height="8.3333" style="stroke:#1B1B1A;stroke-width:1.0416666666666667;" width="267.7083" x="285.9375" y="240.8203"/><rect codeLine="17" fill="none" height="83.3781" id="DirectionOfTrafficFlowConverter" rx="8.3333" ry="8.3333" style="stroke:#5E5E5E;stroke-width:1.0416666666666667;" width="267.7083" x="285.9375" y="217.7653"/><ellipse cx="309.4271" cy="233.4595" fill="#0066CF" rx="10.4167" ry="10.4167" style="stroke:#0086EF;stroke-width:1.0416666666666667;"/><path d="M311.3375,237.8845 Q310.9102,238.1042 310.4403,238.2141 Q309.9703,238.324 309.4515,238.324 Q307.6082,238.324 306.6378,237.1094 Q305.6673,235.8948 305.6673,233.5999 Q305.6673,231.2988 306.6378,230.0842 Q307.6082,228.8696 309.4515,228.8696 Q309.9703,228.8696 310.4464,228.9795 Q310.9224,229.0894 311.3375,229.3091 L311.3375,231.311 Q310.8736,230.8838 310.4372,230.6854 Q310.0008,230.4871 309.5369,230.4871 Q308.5482,230.4871 308.0446,231.2714 Q307.5411,232.0557 307.5411,233.5999 Q307.5411,235.1379 308.0446,235.9222 Q308.5482,236.7065 309.5369,236.7065 Q310.0008,236.7065 310.4372,236.5082 Q310.8736,236.3098 311.3375,235.8826 Z " fill="#000000"/><text fill="#D8BC00" font-family="Open Sans,Avenir,Nunito,Arial,Helvetica,SansSerif" font-size="12.5" font-weight="bold" lengthAdjust="spacing" textLength="210.4167" x="328.0729" y="238.1836">DirectionOfTrafficFlowConverter</text><line style="stroke:#5E5E5E;stroke-width:1.5625;" x1="286.9792" x2="552.6042" y1="249.1536" y2="249.1536"/><ellipse cx="297.3958" cy="284.5235" fill="#84BE84" rx="3.125" ry="3.125" style="stroke:#038048;stroke-width:1.0416666666666667;"/><text fill="#D8BC00" font-family="Open Sans,Avenir,Nunito,Arial,Helvetica,SansSerif" font-size="11.4583" lengthAdjust="spacing" textLength="235.4167" x="308.8542" y="291.4347">DirectionOfTrafficFlowConverter(Listener)</text><line style="stroke:#5E5E5E;stroke-width:1.0416666666666667;" x1="286.9792" x2="376.0417" y1="267.3594" y2="267.3594"/><text fill="#D8BC00" font-family="Open Sans,Avenir,Nunito,Arial,Helvetica,SansSerif" font-size="11.4583" lengthAdjust="spacing" textLength="81.25" x="379.1667" y="271.169">(constructors)</text><line style="stroke:#5E5E5E;stroke-width:1.0416666666666667;" x1="463.5417" x2="552.6042" y1="267.3594" y2="267.3594"/><rect codeLine="24" fill="#282828" height="83.3781" id="RoadNameConverter" rx="8.3333" ry="8.3333" style="stroke:#5E5E5E;stroke-width:1.0416666666666667;" width="201.0417" x="590.1042" y="217.7653"/><rect fill="#1B1B1A" height="31.3883" rx="8.3333" ry="8.3333" style="stroke:#1B1B1A;stroke-width:1.0416666666666667;" width="201.0417" x="590.1042" y="217.7653"/><rect fill="#1B1B1A" height="8.3333" style="stroke:#1B1B1A;stroke-width:1.0416666666666667;" width="201.0417" x="590.1042" y="240.8203"/><rect codeLine="24" fill="none" height="83.3781" id="RoadNameConverter" rx="8.3333" ry="8.3333" style="stroke:#5E5E5E;stroke-width:1.0416666666666667;" width="201.0417" x="590.1042" y="217.7653"/><ellipse cx="618.75" cy="233.4595" fill="#0066CF" rx="10.4167" ry="10.4167" style="stroke:#0086EF;stroke-width:1.0416666666666667;"/><path d="M620.6604,237.8845 Q620.2332,238.1042 619.7632,238.2141 Q619.2932,238.324 618.7744,238.324 Q616.9312,238.324 615.9607,237.1094 Q614.9902,235.8948 614.9902,233.5999 Q614.9902,231.2988 615.9607,230.0842 Q616.9312,228.8696 618.7744,228.8696 Q619.2932,228.8696 619.7693,228.9795 Q620.2454,229.0894 620.6604,229.3091 L620.6604,231.311 Q620.1965,230.8838 619.7601,230.6854 Q619.3237,230.4871 618.8599,230.4871 Q617.8711,230.4871 617.3676,231.2714 Q616.864,232.0557 616.864,233.5999 Q616.864,235.1379 617.3676,235.9222 Q617.8711,236.7065 618.8599,236.7065 Q619.3237,236.7065 619.7601,236.5082 Q620.1965,236.3098 620.6604,235.8826 Z " fill="#000000"/><text fill="#D8BC00" font-family="Open Sans,Avenir,Nunito,Arial,Helvetica,SansSerif" font-size="12.5" font-weight="bold" lengthAdjust="spacing" textLength="132.2917" x="638.5417" y="238.1836">RoadNameConverter</text><line style="stroke:#5E5E5E;stroke-width:1.5625;" x1="591.1458" x2="790.1042" y1="249.1536" y2="249.1536"/><ellipse cx="601.5625" cy="284.5235" fill="#84BE84" rx="3.125" ry="3.125" style="stroke:#038048;stroke-width:1.0416666666666667;"/><text fill="#D8BC00" font-family="Open Sans,Avenir,Nunito,Arial,Helvetica,SansSerif" font-size="11.4583" lengthAdjust="spacing" textLength="168.75" x="613.0208" y="291.4347">RoadNameConverter(Listener)</text><line style="stroke:#5E5E5E;stroke-width:1.0416666666666667;" x1="591.1458" x2="646.875" y1="267.3594" y2="267.3594"/><text fill="#D8BC00" font-family="Open Sans,Avenir,Nunito,Arial,Helvetica,SansSerif" font-size="11.4583" lengthAdjust="spacing" textLength="81.25" x="650" y="271.169">(constructors)</text><line style="stroke:#5E5E5E;stroke-width:1.0416666666666667;" x1="734.375" x2="790.1042" y1="267.3594" y2="267.3594"/><rect codeLine="31" fill="#282828" height="111.4563" id="RoadShapeConverter" rx="8.3333" ry="8.3333" style="stroke:#5E5E5E;stroke-width:1.0416666666666667;" width="223.9583" x="827.6042" y="203.7028"/><rect fill="#1B1B1A" height="31.3883" rx="8.3333" ry="8.3333" style="stroke:#1B1B1A;stroke-width:1.0416666666666667;" width="223.9583" x="827.6042" y="203.7028"/><rect fill="#1B1B1A" height="8.3333" style="stroke:#1B1B1A;stroke-width:1.0416666666666667;" width="223.9583" x="827.6042" y="226.7578"/><rect codeLine="31" fill="none" height="111.4563" id="RoadShapeConverter" rx="8.3333" ry="8.3333" style="stroke:#5E5E5E;stroke-width:1.0416666666666667;" width="223.9583" x="827.6042" y="203.7028"/><ellipse cx="865.625" cy="219.397" fill="#0066CF" rx="10.4167" ry="10.4167" style="stroke:#0086EF;stroke-width:1.0416666666666667;"/><path d="M867.5354,223.822 Q867.1082,224.0417 866.6382,224.1516 Q866.1682,224.2615 865.6494,224.2615 Q863.8062,224.2615 862.8357,223.0469 Q861.8652,221.8323 861.8652,219.5374 Q861.8652,217.2363 862.8357,216.0217 Q863.8062,214.8071 865.6494,214.8071 Q866.1682,214.8071 866.6443,214.917 Q867.1204,215.0269 867.5354,215.2466 L867.5354,217.2485 Q867.0715,216.8213 866.6351,216.6229 Q866.1987,216.4246 865.7349,216.4246 Q864.7461,216.4246 864.2426,217.2089 Q863.739,217.9932 863.739,219.5374 Q863.739,221.0754 864.2426,221.8597 Q864.7461,222.644 865.7349,222.644 Q866.1987,222.644 866.6351,222.4457 Q867.0715,222.2473 867.5354,221.8201 Z " fill="#000000"/><text fill="#D8BC00" font-family="Open Sans,Avenir,Nunito,Arial,Helvetica,SansSerif" font-size="12.5" font-weight="bold" lengthAdjust="spacing" textLength="134.375" x="887.5" y="224.1211">RoadShapeConverter</text><line style="stroke:#5E5E5E;stroke-width:1.5625;" x1="828.6458" x2="1050.5208" y1="235.0911" y2="235.0911"/><ellipse cx="839.0625" cy="270.461" fill="#84BE84" rx="3.125" ry="3.125" style="stroke:#038048;stroke-width:1.0416666666666667;"/><text fill="#D8BC00" font-family="Open Sans,Avenir,Nunito,Arial,Helvetica,SansSerif" font-size="11.4583" lengthAdjust="spacing" textLength="191.6667" x="850.5208" y="277.3722">RoadShapeConverter(Listener, int)</text><line style="stroke:#5E5E5E;stroke-width:1.0416666666666667;" x1="828.6458" x2="895.8333" y1="253.2969" y2="253.2969"/><text fill="#D8BC00" font-family="Open Sans,Avenir,Nunito,Arial,Helvetica,SansSerif" font-size="11.4583" lengthAdjust="spacing" textLength="81.25" x="898.9583" y="257.1065">(constructors)</text><line style="stroke:#5E5E5E;stroke-width:1.0416666666666667;" x1="983.3333" x2="1050.5208" y1="253.2969" y2="253.2969"/><line style="stroke:#5E5E5E;stroke-width:1.0416666666666667;" x1="828.6458" x2="1050.5208" y1="287.0809" y2="287.0809"/><ellipse cx="839.0625" cy="298.5392" fill="#84BE84" rx="3.125" ry="3.125" style="stroke:#038048;stroke-width:1.0416666666666667;"/><text fill="#D8BC00" font-family="Open Sans,Avenir,Nunito,Arial,Helvetica,SansSerif" font-size="11.4583" lengthAdjust="spacing" textLength="86.4583" x="850.5208" y="305.4504">void type(Type)</text><rect codeLine="40" fill="#282828" height="83.3781" id="TrafficDeCartaRoadTypeStringConverter" rx="8.3333" ry="8.3333" style="stroke:#5E5E5E;stroke-width:1.0416666666666667;" width="311.4583" x="1088.0208" y="217.7653"/><rect fill="#1B1B1A" height="31.3883" rx="8.3333" ry="8.3333" style="stroke:#1B1B1A;stroke-width:1.0416666666666667;" width="311.4583" x="1088.0208" y="217.7653"/><rect fill="#1B1B1A" height="8.3333" style="stroke:#1B1B1A;stroke-width:1.0416666666666667;" width="311.4583" x="1088.0208" y="240.8203"/><rect codeLine="40" fill="none" height="83.3781" id="TrafficDeCartaRoadTypeStringConverter" rx="8.3333" ry="8.3333" style="stroke:#5E5E5E;stroke-width:1.0416666666666667;" width="311.4583" x="1088.0208" y="217.7653"/><ellipse cx="1109.1667" cy="233.4595" fill="#0066CF" rx="10.4167" ry="10.4167" style="stroke:#0086EF;stroke-width:1.0416666666666667;"/><path d="M1111.0771,237.8845 Q1110.6498,238.1042 1110.1799,238.2141 Q1109.7099,238.324 1109.1911,238.324 Q1107.3478,238.324 1106.3774,237.1094 Q1105.4069,235.8948 1105.4069,233.5999 Q1105.4069,231.2988 1106.3774,230.0842 Q1107.3478,228.8696 1109.1911,228.8696 Q1109.7099,228.8696 1110.186,228.9795 Q1110.662,229.0894 1111.0771,229.3091 L1111.0771,231.311 Q1110.6132,230.8838 1110.1768,230.6854 Q1109.7404,230.4871 1109.2765,230.4871 Q1108.2878,230.4871 1107.7842,231.2714 Q1107.2807,232.0557 1107.2807,233.5999 Q1107.2807,235.1379 1107.7842,235.9222 Q1108.2878,236.7065 1109.2765,236.7065 Q1109.7404,236.7065 1110.1768,236.5082 Q1110.6132,236.3098 1111.0771,235.8826 Z " fill="#000000"/><text fill="#D8BC00" font-family="Open Sans,Avenir,Nunito,Arial,Helvetica,SansSerif" font-size="12.5" font-weight="bold" lengthAdjust="spacing" textLength="259.375" x="1127.2917" y="238.1836">TrafficDeCartaRoadTypeStringConverter</text><line style="stroke:#5E5E5E;stroke-width:1.5625;" x1="1089.0625" x2="1398.4375" y1="249.1536" y2="249.1536"/><ellipse cx="1099.4792" cy="284.5235" fill="#84BE84" rx="3.125" ry="3.125" style="stroke:#038048;stroke-width:1.0416666666666667;"/><text fill="#D8BC00" font-family="Open Sans,Avenir,Nunito,Arial,Helvetica,SansSerif" font-size="11.4583" lengthAdjust="spacing" textLength="279.1667" x="1110.9375" y="291.4347">TrafficDeCartaRoadTypeStringConverter(Listener)</text><line style="stroke:#5E5E5E;stroke-width:1.0416666666666667;" x1="1089.0625" x2="1200" y1="267.3594" y2="267.3594"/><text fill="#D8BC00" font-family="Open Sans,Avenir,Nunito,Arial,Helvetica,SansSerif" font-size="11.4583" lengthAdjust="spacing" textLength="81.25" x="1203.125" y="271.169">(constructors)</text><line style="stroke:#5E5E5E;stroke-width:1.0416666666666667;" x1="1287.5" x2="1398.4375" y1="267.3594" y2="267.3594"/><rect codeLine="46" fill="#282828" height="87.5448" id="RoadShapeConverter.Type" rx="8.3333" ry="8.3333" style="stroke:#5E5E5E;stroke-width:1.0416666666666667;" width="206.25" x="812.5" y="53.7028"/><rect fill="#1B1B1A" height="31.3883" rx="8.3333" ry="8.3333" style="stroke:#1B1B1A;stroke-width:1.0416666666666667;" width="206.25" x="812.5" y="53.7028"/><rect fill="#1B1B1A" height="8.3333" style="stroke:#1B1B1A;stroke-width:1.0416666666666667;" width="206.25" x="812.5" y="76.7578"/><rect codeLine="46" fill="none" height="87.5448" id="RoadShapeConverter.Type" rx="8.3333" ry="8.3333" style="stroke:#5E5E5E;stroke-width:1.0416666666666667;" width="206.25" x="812.5" y="53.7028"/><ellipse cx="827.0833" cy="69.397" fill="#CF6300" rx="10.4167" ry="10.4167" style="stroke:#EF8300;stroke-width:1.0416666666666667;"/><path d="M830.1392,74.0845 L824.4629,74.0845 L824.4629,64.9719 L830.1392,64.9719 L830.1392,66.5588 L826.2634,66.5588 L826.2634,68.5242 L829.7729,68.5242 L829.7729,70.1111 L826.2634,70.1111 L826.2634,72.4976 L830.1392,72.4976 Z " fill="#000000"/><text fill="#D8BC00" font-family="Open Sans,Avenir,Nunito,Arial,Helvetica,SansSerif" font-size="12.5" font-weight="bold" lengthAdjust="spacing" textLength="168.75" x="843.75" y="74.1211">RoadShapeConverter.Type</text><line style="stroke:#5E5E5E;stroke-width:1.0416666666666667;" x1="813.5417" x2="1017.7083" y1="85.0911" y2="85.0911"/><text fill="#D8BC00" font-family="Open Sans,Avenir,Nunito,Arial,Helvetica,SansSerif" font-size="11.4583" lengthAdjust="spacing" textLength="48.9583" x="821.875" y="103.4607">DEGREES</text><text fill="#D8BC00" font-family="Open Sans,Avenir,Nunito,Arial,Helvetica,SansSerif" font-size="11.4583" lengthAdjust="spacing" textLength="25" x="821.875" y="123.2056">DM5</text><line style="stroke:#5E5E5E;stroke-width:1.0416666666666667;" x1="813.5417" x2="1017.7083" y1="132.9142" y2="132.9142"/><path codeLine="9" d="M584.9583,120.7861 C498.7604,139.9215 374.2604,169.734 267.7083,203.7028 C254.5625,207.8903 240.8854,212.6924 227.4479,217.6715 " fill="none" id="BaseStringConverter-backto-DeCartaRoadTypeConverter" style="stroke:#545454;stroke-width:1.5625;"/><polygon fill="none" points="583.5521,113.6299,605.4688,116.2757,586.6875,127.8695,583.5521,113.6299" style="stroke:#545454;stroke-width:1.5625;"/><path codeLine="16" d="M633.3229,132.3278 C591.1042,157.2549 533.5,191.2653 488.75,217.6715 " fill="none" id="BaseStringConverter-backto-DirectionOfTrafficFlowConverter" style="stroke:#545454;stroke-width:1.5625;"/><polygon fill="none" points="629.8854,125.8903,651.5313,121.5778,637.3021,138.4424,629.8854,125.8903" style="stroke:#545454;stroke-width:1.5625;"/><path codeLine="23" d="M690.625,142.6299 C690.625,166.0153 690.625,194.557 690.625,217.4528 " fill="none" id="BaseStringConverter-backto-RoadNameConverter" style="stroke:#545454;stroke-width:1.5625;"/><polygon fill="none" points="683.3333,142.5778,690.625,121.7445,697.9167,142.5778,683.3333,142.5778" style="stroke:#545454;stroke-width:1.5625;"/><path codeLine="30" d="M744.2292,132.9215 C776.2813,153.5049 817.7188,180.1195 854.1875,203.5465 " fill="none" id="BaseStringConverter-backto-RoadShapeConverter" style="stroke:#545454;stroke-width:1.5625;"/><polygon fill="none" points="740.1458,138.9632,726.5625,121.5778,748.0313,126.6924,740.1458,138.9632" style="stroke:#545454;stroke-width:1.5625;"/><path codeLine="39" d="M761.3542,129.3174 C772.4375,133.6195 783.8438,137.7445 794.7917,141.2028 C914.3021,178.9945 948.7917,170.9945 1069.7917,203.7028 C1085.6875,207.9945 1102.2917,212.807 1118.6875,217.7445 " fill="none" id="BaseStringConverter-backto-TrafficDeCartaRoadTypeStringConverter" style="stroke:#545454;stroke-width:1.5625;"/><polygon fill="none" points="758.5313,136.0465,741.9271,121.5049,763.9792,122.5153,758.5313,136.0465" style="stroke:#545454;stroke-width:1.5625;"/></g></svg>
