<?xml version="1.0" encoding="UTF-8" standalone="no"?><svg xmlns="http://www.w3.org/2000/svg" xmlns:xlink="http://www.w3.org/1999/xlink" contentScriptType="application/ecmascript" contentStyleType="text/css" height="535.4167px" preserveAspectRatio="none" style="width:503px;height:535px;background:#333333;" version="1.1" viewBox="0 0 503 535" width="503.125px" zoomAndPan="magnify"><defs/><g><rect fill="#48494B" height="41.2028" rx="8.3333" ry="8.3333" style="stroke:#545454;stroke-width:1.0416666666666667;" width="490.625" x="2.0833" y="2.0833"/><text fill="#C0C0C0" font-family="Open Sans,Avenir,Nunito,Arial,Helvetica,SansSerif" font-size="20.8333" lengthAdjust="spacing" textLength="467.7083" x="13.5417" y="30.5583">org.nocrala.tools.gis.data.esri.shapefile.header</text><rect codeLine="7" fill="#282828" height="475.1973" id="ShapeFileHeader" rx="8.3333" ry="8.3333" style="stroke:#5E5E5E;stroke-width:1.0416666666666667;" width="327.0833" x="84.375" y="53.7028"/><rect fill="#1B1B1A" height="31.3883" rx="8.3333" ry="8.3333" style="stroke:#1B1B1A;stroke-width:1.0416666666666667;" width="327.0833" x="84.375" y="53.7028"/><rect fill="#1B1B1A" height="8.3333" style="stroke:#1B1B1A;stroke-width:1.0416666666666667;" width="327.0833" x="84.375" y="76.7578"/><rect codeLine="7" fill="none" height="475.1973" id="ShapeFileHeader" rx="8.3333" ry="8.3333" style="stroke:#5E5E5E;stroke-width:1.0416666666666667;" width="327.0833" x="84.375" y="53.7028"/><ellipse cx="187.5" cy="69.397" fill="#0066CF" rx="10.4167" ry="10.4167" style="stroke:#0086EF;stroke-width:1.0416666666666667;"/><path d="M189.4104,73.822 Q188.9832,74.0417 188.5132,74.1516 Q188.0432,74.2615 187.5244,74.2615 Q185.6812,74.2615 184.7107,73.0469 Q183.7402,71.8323 183.7402,69.5374 Q183.7402,67.2363 184.7107,66.0217 Q185.6812,64.8071 187.5244,64.8071 Q188.0432,64.8071 188.5193,64.917 Q188.9954,65.0269 189.4104,65.2466 L189.4104,67.2485 Q188.9465,66.8213 188.5101,66.6229 Q188.0737,66.4246 187.6099,66.4246 Q186.6211,66.4246 186.1176,67.2089 Q185.614,67.9932 185.614,69.5374 Q185.614,71.0754 186.1176,71.8597 Q186.6211,72.644 187.6099,72.644 Q188.0737,72.644 188.5101,72.4457 Q188.9465,72.2473 189.4104,71.8201 Z " fill="#000000"/><text fill="#D8BC00" font-family="Open Sans,Avenir,Nunito,Arial,Helvetica,SansSerif" font-size="12.5" font-weight="bold" lengthAdjust="spacing" textLength="106.25" x="210.4167" y="74.1211">ShapeFileHeader</text><line style="stroke:#5E5E5E;stroke-width:1.5625;" x1="85.4167" x2="410.4167" y1="85.0911" y2="85.0911"/><ellipse cx="95.8333" cy="120.461" fill="#84BE84" rx="3.125" ry="3.125" style="stroke:#038048;stroke-width:1.0416666666666667;"/><text fill="#D8BC00" font-family="Open Sans,Avenir,Nunito,Arial,Helvetica,SansSerif" font-size="11.4583" lengthAdjust="spacing" textLength="294.7917" x="107.2917" y="127.3722">ShapeFileHeader(InputStream, ValidationPreferences)</text><line style="stroke:#5E5E5E;stroke-width:1.0416666666666667;" x1="85.4167" x2="204.1667" y1="103.2969" y2="103.2969"/><text fill="#D8BC00" font-family="Open Sans,Avenir,Nunito,Arial,Helvetica,SansSerif" font-size="11.4583" lengthAdjust="spacing" textLength="81.25" x="207.2917" y="107.1065">(constructors)</text><line style="stroke:#5E5E5E;stroke-width:1.0416666666666667;" x1="291.6667" x2="410.4167" y1="103.2969" y2="103.2969"/><line style="stroke:#5E5E5E;stroke-width:1.0416666666666667;" x1="85.4167" x2="410.4167" y1="137.0809" y2="137.0809"/><ellipse cx="95.8333" cy="148.5392" fill="#84BE84" rx="3.125" ry="3.125" style="stroke:#038048;stroke-width:1.0416666666666667;"/><text fill="#D8BC00" font-family="Open Sans,Avenir,Nunito,Arial,Helvetica,SansSerif" font-size="11.4583" lengthAdjust="spacing" textLength="120.8333" x="107.2917" y="155.4504">double getBoxMaxM()</text><ellipse cx="95.8333" cy="168.2841" fill="#84BE84" rx="3.125" ry="3.125" style="stroke:#038048;stroke-width:1.0416666666666667;"/><text fill="#D8BC00" font-family="Open Sans,Avenir,Nunito,Arial,Helvetica,SansSerif" font-size="11.4583" lengthAdjust="spacing" textLength="118.75" x="107.2917" y="175.1953">double getBoxMaxX()</text><ellipse cx="95.8333" cy="188.029" fill="#84BE84" rx="3.125" ry="3.125" style="stroke:#038048;stroke-width:1.0416666666666667;"/><text fill="#D8BC00" font-family="Open Sans,Avenir,Nunito,Arial,Helvetica,SansSerif" font-size="11.4583" lengthAdjust="spacing" textLength="118.75" x="107.2917" y="194.9402">double getBoxMaxY()</text><ellipse cx="95.8333" cy="207.7738" fill="#84BE84" rx="3.125" ry="3.125" style="stroke:#038048;stroke-width:1.0416666666666667;"/><text fill="#D8BC00" font-family="Open Sans,Avenir,Nunito,Arial,Helvetica,SansSerif" font-size="11.4583" lengthAdjust="spacing" textLength="118.75" x="107.2917" y="214.6851">double getBoxMaxZ()</text><ellipse cx="95.8333" cy="227.5187" fill="#84BE84" rx="3.125" ry="3.125" style="stroke:#038048;stroke-width:1.0416666666666667;"/><text fill="#D8BC00" font-family="Open Sans,Avenir,Nunito,Arial,Helvetica,SansSerif" font-size="11.4583" lengthAdjust="spacing" textLength="117.7083" x="107.2917" y="234.4299">double getBoxMinM()</text><ellipse cx="95.8333" cy="247.2636" fill="#84BE84" rx="3.125" ry="3.125" style="stroke:#038048;stroke-width:1.0416666666666667;"/><text fill="#D8BC00" font-family="Open Sans,Avenir,Nunito,Arial,Helvetica,SansSerif" font-size="11.4583" lengthAdjust="spacing" textLength="115.625" x="107.2917" y="254.1748">double getBoxMinX()</text><ellipse cx="95.8333" cy="267.0085" fill="#84BE84" rx="3.125" ry="3.125" style="stroke:#038048;stroke-width:1.0416666666666667;"/><text fill="#D8BC00" font-family="Open Sans,Avenir,Nunito,Arial,Helvetica,SansSerif" font-size="11.4583" lengthAdjust="spacing" textLength="115.625" x="107.2917" y="273.9197">double getBoxMinY()</text><ellipse cx="95.8333" cy="286.7533" fill="#84BE84" rx="3.125" ry="3.125" style="stroke:#038048;stroke-width:1.0416666666666667;"/><text fill="#D8BC00" font-family="Open Sans,Avenir,Nunito,Arial,Helvetica,SansSerif" font-size="11.4583" lengthAdjust="spacing" textLength="115.625" x="107.2917" y="293.6646">double getBoxMinZ()</text><ellipse cx="95.8333" cy="306.4982" fill="#84BE84" rx="3.125" ry="3.125" style="stroke:#038048;stroke-width:1.0416666666666667;"/><text fill="#D8BC00" font-family="Open Sans,Avenir,Nunito,Arial,Helvetica,SansSerif" font-size="11.4583" lengthAdjust="spacing" textLength="150" x="107.2917" y="313.4094">ShapeType getShapeType()</text><ellipse cx="95.8333" cy="326.2431" fill="#84BE84" rx="3.125" ry="3.125" style="stroke:#038048;stroke-width:1.0416666666666667;"/><text fill="#D8BC00" font-family="Open Sans,Avenir,Nunito,Arial,Helvetica,SansSerif" font-size="11.4583" lengthAdjust="spacing" textLength="93.75" x="107.2917" y="333.1543">int getUnused0()</text><ellipse cx="95.8333" cy="345.988" fill="#84BE84" rx="3.125" ry="3.125" style="stroke:#038048;stroke-width:1.0416666666666667;"/><text fill="#D8BC00" font-family="Open Sans,Avenir,Nunito,Arial,Helvetica,SansSerif" font-size="11.4583" lengthAdjust="spacing" textLength="93.75" x="107.2917" y="352.8992">int getUnused1()</text><ellipse cx="95.8333" cy="365.7328" fill="#84BE84" rx="3.125" ry="3.125" style="stroke:#038048;stroke-width:1.0416666666666667;"/><text fill="#D8BC00" font-family="Open Sans,Avenir,Nunito,Arial,Helvetica,SansSerif" font-size="11.4583" lengthAdjust="spacing" textLength="93.75" x="107.2917" y="372.644">int getUnused2()</text><ellipse cx="95.8333" cy="385.4777" fill="#84BE84" rx="3.125" ry="3.125" style="stroke:#038048;stroke-width:1.0416666666666667;"/><text fill="#D8BC00" font-family="Open Sans,Avenir,Nunito,Arial,Helvetica,SansSerif" font-size="11.4583" lengthAdjust="spacing" textLength="93.75" x="107.2917" y="392.3889">int getUnused3()</text><ellipse cx="95.8333" cy="405.2226" fill="#84BE84" rx="3.125" ry="3.125" style="stroke:#038048;stroke-width:1.0416666666666667;"/><text fill="#D8BC00" font-family="Open Sans,Avenir,Nunito,Arial,Helvetica,SansSerif" font-size="11.4583" lengthAdjust="spacing" textLength="93.75" x="107.2917" y="412.1338">int getUnused4()</text><ellipse cx="95.8333" cy="448.879" fill="#84BE84" rx="3.125" ry="3.125" style="stroke:#038048;stroke-width:1.0416666666666667;"/><text fill="#D8BC00" font-family="Open Sans,Avenir,Nunito,Arial,Helvetica,SansSerif" font-size="11.4583" lengthAdjust="spacing" textLength="91.6667" x="107.2917" y="455.7902">int getFileCode()</text><ellipse cx="95.8333" cy="468.6239" fill="#84BE84" rx="3.125" ry="3.125" style="stroke:#038048;stroke-width:1.0416666666666667;"/><text fill="#D8BC00" font-family="Open Sans,Avenir,Nunito,Arial,Helvetica,SansSerif" font-size="11.4583" lengthAdjust="spacing" textLength="101.0417" x="107.2917" y="475.5351">int getFileLength()</text><line style="stroke:#5E5E5E;stroke-width:1.0416666666666667;" x1="85.4167" x2="212.5" y1="431.7149" y2="431.7149"/><text fill="#D8BC00" font-family="Open Sans,Avenir,Nunito,Arial,Helvetica,SansSerif" font-size="11.4583" lengthAdjust="spacing" textLength="64.5833" x="215.625" y="435.5245">(filesystem)</text><line style="stroke:#5E5E5E;stroke-width:1.0416666666666667;" x1="283.3333" x2="410.4167" y1="431.7149" y2="431.7149"/><ellipse cx="95.8333" cy="512.2803" fill="#84BE84" rx="3.125" ry="3.125" style="stroke:#038048;stroke-width:1.0416666666666667;"/><text fill="#D8BC00" font-family="Open Sans,Avenir,Nunito,Arial,Helvetica,SansSerif" font-size="11.4583" lengthAdjust="spacing" textLength="86.4583" x="107.2917" y="519.1915">int getVersion()</text><line style="stroke:#5E5E5E;stroke-width:1.0416666666666667;" x1="85.4167" x2="219.7917" y1="495.1162" y2="495.1162"/><text fill="#D8BC00" font-family="Open Sans,Avenir,Nunito,Arial,Helvetica,SansSerif" font-size="11.4583" lengthAdjust="spacing" textLength="50" x="222.9167" y="498.9258">(identity)</text><line style="stroke:#5E5E5E;stroke-width:1.0416666666666667;" x1="276.0417" x2="410.4167" y1="495.1162" y2="495.1162"/></g></svg>
