<?xml version="1.0" encoding="UTF-8" standalone="no"?><svg xmlns="http://www.w3.org/2000/svg" xmlns:xlink="http://www.w3.org/1999/xlink" contentScriptType="application/ecmascript" contentStyleType="text/css" height="673.9583px" preserveAspectRatio="none" style="width:1683px;height:673px;background:#333333;" version="1.1" viewBox="0 0 1683 673" width="1683.3333px" zoomAndPan="magnify"><defs/><g><rect fill="#48494B" height="41.2028" rx="8.3333" ry="8.3333" style="stroke:#545454;stroke-width:1.0416666666666667;" width="715.625" x="476.8229" y="2.0833"/><text fill="#C0C0C0" font-family="Open Sans,Avenir,Nunito,Arial,Helvetica,SansSerif" font-size="20.8333" lengthAdjust="spacing" textLength="692.7083" x="488.2813" y="30.5583">com.telenav.mesakit.graph.specifications.osm.graph.loader.sectioner</text><!--MD5=[5c2feca326cb2f6db51aea7213399752]
class BaseGraphLoader--><rect codeLine="7" fill="#282828" height="48.055" id="BaseGraphLoader" rx="8.3333" ry="8.3333" style="stroke:#5E5E5E;stroke-width:1.0416666666666667;" width="150" x="759.375" y="227.6611"/><rect fill="#1B1B1A" height="31.3883" rx="8.3333" ry="8.3333" style="stroke:#1B1B1A;stroke-width:1.0416666666666667;" width="150" x="759.375" y="227.6611"/><rect fill="#1B1B1A" height="8.3333" style="stroke:#1B1B1A;stroke-width:1.0416666666666667;" width="150" x="759.375" y="250.7161"/><rect codeLine="7" fill="none" height="48.055" id="BaseGraphLoader" rx="8.3333" ry="8.3333" style="stroke:#5E5E5E;stroke-width:1.0416666666666667;" width="150" x="759.375" y="227.6611"/><ellipse cx="773.9583" cy="243.3553" fill="#C8AC00" rx="10.4167" ry="10.4167" style="stroke:#D8BC00;stroke-width:1.0416666666666667;"/><path d="M773.5514,240.0574 L772.703,243.7866 L774.4059,243.7866 Z M772.4528,238.4094 L774.6562,238.4094 L777.1159,247.522 L775.3153,247.522 L774.7538,245.2698 L772.3429,245.2698 L771.7936,247.522 L769.9931,247.522 Z " fill="#000000"/><text fill="#D8BC00" font-family="Open Sans,Avenir,Nunito,Arial,Helvetica,SansSerif" font-size="12.5" font-style="italic" font-weight="bold" lengthAdjust="spacing" textLength="112.5" x="790.625" y="248.0794">BaseGraphLoader</text><line style="stroke:#5E5E5E;stroke-width:1.0416666666666667;" x1="760.4167" x2="908.3333" y1="259.0495" y2="259.0495"/><line style="stroke:#5E5E5E;stroke-width:1.0416666666666667;" x1="760.4167" x2="908.3333" y1="267.3828" y2="267.3828"/><!--MD5=[762aa3d0df6a9d47bd8e105afbd066b5]
class BaseRepeater--><rect codeLine="8" fill="#282828" height="48.055" id="BaseRepeater" rx="8.3333" ry="8.3333" style="stroke:#5E5E5E;stroke-width:1.0416666666666667;" width="123.9583" x="1200.5208" y="227.6611"/><rect fill="#1B1B1A" height="31.3883" rx="8.3333" ry="8.3333" style="stroke:#1B1B1A;stroke-width:1.0416666666666667;" width="123.9583" x="1200.5208" y="227.6611"/><rect fill="#1B1B1A" height="8.3333" style="stroke:#1B1B1A;stroke-width:1.0416666666666667;" width="123.9583" x="1200.5208" y="250.7161"/><rect codeLine="8" fill="none" height="48.055" id="BaseRepeater" rx="8.3333" ry="8.3333" style="stroke:#5E5E5E;stroke-width:1.0416666666666667;" width="123.9583" x="1200.5208" y="227.6611"/><ellipse cx="1215.1042" cy="243.3553" fill="#C8AC00" rx="10.4167" ry="10.4167" style="stroke:#D8BC00;stroke-width:1.0416666666666667;"/><path d="M1214.6973,240.0574 L1213.8489,243.7866 L1215.5518,243.7866 Z M1213.5986,238.4094 L1215.802,238.4094 L1218.2617,247.522 L1216.4612,247.522 L1215.8997,245.2698 L1213.4888,245.2698 L1212.9395,247.522 L1211.1389,247.522 Z " fill="#000000"/><text fill="#D8BC00" font-family="Open Sans,Avenir,Nunito,Arial,Helvetica,SansSerif" font-size="12.5" font-style="italic" font-weight="bold" lengthAdjust="spacing" textLength="86.4583" x="1231.7708" y="248.0794">BaseRepeater</text><line style="stroke:#5E5E5E;stroke-width:1.0416666666666667;" x1="1201.5625" x2="1323.4375" y1="259.0495" y2="259.0495"/><line style="stroke:#5E5E5E;stroke-width:1.0416666666666667;" x1="1201.5625" x2="1323.4375" y1="267.3828" y2="267.3828"/><!--MD5=[9c88a5d2a0462c2594383a75929f1f88]
class EdgeNodeMap--><rect codeLine="10" fill="#282828" height="146.7794" id="EdgeNodeMap" rx="8.3333" ry="8.3333" style="stroke:#5E5E5E;stroke-width:1.0416666666666667;" width="347.9167" x="7.2917" y="178.182"/><rect fill="#1B1B1A" height="31.3883" rx="8.3333" ry="8.3333" style="stroke:#1B1B1A;stroke-width:1.0416666666666667;" width="347.9167" x="7.2917" y="178.182"/><rect fill="#1B1B1A" height="8.3333" style="stroke:#1B1B1A;stroke-width:1.0416666666666667;" width="347.9167" x="7.2917" y="201.237"/><rect codeLine="10" fill="none" height="146.7794" id="EdgeNodeMap" rx="8.3333" ry="8.3333" style="stroke:#5E5E5E;stroke-width:1.0416666666666667;" width="347.9167" x="7.2917" y="178.182"/><ellipse cx="128.125" cy="193.8761" fill="#0066CF" rx="10.4167" ry="10.4167" style="stroke:#0086EF;stroke-width:1.0416666666666667;"/><path d="M130.0354,198.3012 Q129.6082,198.5209 129.1382,198.6308 Q128.6682,198.7406 128.1494,198.7406 Q126.3062,198.7406 125.3357,197.526 Q124.3652,196.3114 124.3652,194.0165 Q124.3652,191.7155 125.3357,190.5009 Q126.3062,189.2863 128.1494,189.2863 Q128.6682,189.2863 129.1443,189.3962 Q129.6204,189.506 130.0354,189.7257 L130.0354,191.7277 Q129.5715,191.3005 129.1351,191.1021 Q128.6987,190.9037 128.2349,190.9037 Q127.2461,190.9037 126.7426,191.688 Q126.239,192.4723 126.239,194.0165 Q126.239,195.5546 126.7426,196.3389 Q127.2461,197.1232 128.2349,197.1232 Q128.6987,197.1232 129.1351,196.9248 Q129.5715,196.7265 130.0354,196.2992 Z " fill="#000000"/><text fill="#D8BC00" font-family="Open Sans,Avenir,Nunito,Arial,Helvetica,SansSerif" font-size="12.5" font-weight="bold" lengthAdjust="spacing" textLength="91.6667" x="151.0417" y="198.6003">EdgeNodeMap</text><line style="stroke:#5E5E5E;stroke-width:1.5625;" x1="8.3333" x2="354.1667" y1="209.5703" y2="209.5703"/><ellipse cx="18.75" cy="244.9402" fill="#84BE84" rx="3.125" ry="3.125" style="stroke:#038048;stroke-width:1.0416666666666667;"/><text fill="#D8BC00" font-family="Open Sans,Avenir,Nunito,Arial,Helvetica,SansSerif" font-size="11.4583" lengthAdjust="spacing" textLength="120.8333" x="30.2083" y="251.8514">EdgeNodeMap(String)</text><line style="stroke:#5E5E5E;stroke-width:1.0416666666666667;" x1="8.3333" x2="137.5" y1="227.7761" y2="227.7761"/><text fill="#D8BC00" font-family="Open Sans,Avenir,Nunito,Arial,Helvetica,SansSerif" font-size="11.4583" lengthAdjust="spacing" textLength="81.25" x="140.625" y="231.5857">(constructors)</text><line style="stroke:#5E5E5E;stroke-width:1.0416666666666667;" x1="225" x2="354.1667" y1="227.7761" y2="227.7761"/><ellipse cx="18.75" cy="288.5966" fill="#84BE84" rx="3.125" ry="3.125" style="stroke:#038048;stroke-width:1.0416666666666667;"/><text fill="#D8BC00" font-family="Open Sans,Avenir,Nunito,Arial,Helvetica,SansSerif" font-size="11.4583" lengthAdjust="spacing" textLength="246.875" x="30.2083" y="295.5078">List&lt;MapNodeIdentifier&gt; get(EdgeIdentifier)</text><ellipse cx="18.75" cy="308.3415" fill="#84BE84" rx="3.125" ry="3.125" style="stroke:#038048;stroke-width:1.0416666666666667;"/><text fill="#D8BC00" font-family="Open Sans,Avenir,Nunito,Arial,Helvetica,SansSerif" font-size="11.4583" lengthAdjust="spacing" textLength="315.625" x="30.2083" y="315.2527">void put(EdgeIdentifier, List&lt;MapNodeIdentifier&gt; nodes)</text><line style="stroke:#5E5E5E;stroke-width:1.0416666666666667;" x1="8.3333" x2="146.875" y1="271.4325" y2="271.4325"/><text fill="#D8BC00" font-family="Open Sans,Avenir,Nunito,Arial,Helvetica,SansSerif" font-size="11.4583" lengthAdjust="spacing" textLength="62.5" x="150" y="275.2421">(collection)</text><line style="stroke:#5E5E5E;stroke-width:1.0416666666666667;" x1="215.625" x2="354.1667" y1="271.4325" y2="271.4325"/><!--MD5=[15226ea316bc4e8f6e07bde2cf9d8538]
class EdgeSection--><rect codeLine="19" fill="#282828" height="396.2179" id="EdgeSection" rx="8.3333" ry="8.3333" style="stroke:#5E5E5E;stroke-width:1.0416666666666667;" width="331.25" x="391.6667" y="53.7028"/><rect fill="#1B1B1A" height="31.3883" rx="8.3333" ry="8.3333" style="stroke:#1B1B1A;stroke-width:1.0416666666666667;" width="331.25" x="391.6667" y="53.7028"/><rect fill="#1B1B1A" height="8.3333" style="stroke:#1B1B1A;stroke-width:1.0416666666666667;" width="331.25" x="391.6667" y="76.7578"/><rect codeLine="19" fill="none" height="396.2179" id="EdgeSection" rx="8.3333" ry="8.3333" style="stroke:#5E5E5E;stroke-width:1.0416666666666667;" width="331.25" x="391.6667" y="53.7028"/><ellipse cx="510.9375" cy="69.397" fill="#0066CF" rx="10.4167" ry="10.4167" style="stroke:#0086EF;stroke-width:1.0416666666666667;"/><path d="M512.8479,73.822 Q512.4207,74.0417 511.9507,74.1516 Q511.4807,74.2615 510.9619,74.2615 Q509.1187,74.2615 508.1482,73.0469 Q507.1777,71.8323 507.1777,69.5374 Q507.1777,67.2363 508.1482,66.0217 Q509.1187,64.8071 510.9619,64.8071 Q511.4807,64.8071 511.9568,64.917 Q512.4329,65.0269 512.8479,65.2466 L512.8479,67.2485 Q512.384,66.8213 511.9476,66.6229 Q511.5112,66.4246 511.0474,66.4246 Q510.0586,66.4246 509.5551,67.2089 Q509.0515,67.9932 509.0515,69.5374 Q509.0515,71.0754 509.5551,71.8597 Q510.0586,72.644 511.0474,72.644 Q511.5112,72.644 511.9476,72.4457 Q512.384,72.2473 512.8479,71.8201 Z " fill="#000000"/><text fill="#D8BC00" font-family="Open Sans,Avenir,Nunito,Arial,Helvetica,SansSerif" font-size="12.5" font-weight="bold" lengthAdjust="spacing" textLength="78.125" x="533.8542" y="74.1211">EdgeSection</text><line style="stroke:#5E5E5E;stroke-width:1.5625;" x1="392.7083" x2="721.875" y1="85.0911" y2="85.0911"/><ellipse cx="403.125" cy="120.461" fill="#84BE84" rx="3.125" ry="3.125" style="stroke:#038048;stroke-width:1.0416666666666667;"/><text fill="#D8BC00" font-family="Open Sans,Avenir,Nunito,Arial,Helvetica,SansSerif" font-size="11.4583" lengthAdjust="spacing" textLength="298.9583" x="414.5833" y="127.3722">EdgeSection(Edge, List&lt;MapNodeIdentifier&gt;, Polyline)</text><line style="stroke:#5E5E5E;stroke-width:1.0416666666666667;" x1="392.7083" x2="513.5417" y1="103.2969" y2="103.2969"/><text fill="#D8BC00" font-family="Open Sans,Avenir,Nunito,Arial,Helvetica,SansSerif" font-size="11.4583" lengthAdjust="spacing" textLength="81.25" x="516.6667" y="107.1065">(constructors)</text><line style="stroke:#5E5E5E;stroke-width:1.0416666666666667;" x1="601.0417" x2="721.875" y1="103.2969" y2="103.2969"/><line style="stroke:#5E5E5E;stroke-width:1.0416666666666667;" x1="392.7083" x2="721.875" y1="137.0809" y2="137.0809"/><ellipse cx="403.125" cy="148.5392" fill="#84BE84" rx="3.125" ry="3.125" style="stroke:#038048;stroke-width:1.0416666666666667;"/><text fill="#D8BC00" font-family="Open Sans,Avenir,Nunito,Arial,Helvetica,SansSerif" font-size="11.4583" lengthAdjust="spacing" textLength="213.5417" x="414.5833" y="155.4504">HeavyWeightEdge edge(EdgeIdentifier)</text><ellipse cx="403.125" cy="168.2841" fill="#84BE84" rx="3.125" ry="3.125" style="stroke:#038048;stroke-width:1.0416666666666667;"/><text fill="#D8BC00" font-family="Open Sans,Avenir,Nunito,Arial,Helvetica,SansSerif" font-size="11.4583" lengthAdjust="spacing" textLength="65.625" x="414.5833" y="175.1953">Edge edge()</text><ellipse cx="403.125" cy="188.029" fill="#84BE84" rx="3.125" ry="3.125" style="stroke:#038048;stroke-width:1.0416666666666667;"/><text fill="#D8BC00" font-family="Open Sans,Avenir,Nunito,Arial,Helvetica,SansSerif" font-size="11.4583" lengthAdjust="spacing" textLength="94.7917" x="414.5833" y="194.9402">Distance length()</text><ellipse cx="403.125" cy="207.7738" fill="#84BE84" rx="3.125" ry="3.125" style="stroke:#038048;stroke-width:1.0416666666666667;"/><text fill="#D8BC00" font-family="Open Sans,Avenir,Nunito,Arial,Helvetica,SansSerif" font-size="11.4583" lengthAdjust="spacing" textLength="203.125" x="414.5833" y="214.6851">EdgeSection section(PolylineSection)</text><ellipse cx="403.125" cy="227.5187" fill="#84BE84" rx="3.125" ry="3.125" style="stroke:#038048;stroke-width:1.0416666666666667;"/><text fill="#D8BC00" font-family="Open Sans,Avenir,Nunito,Arial,Helvetica,SansSerif" font-size="11.4583" lengthAdjust="spacing" textLength="87.5" x="414.5833" y="234.4299">Polyline shape()</text><ellipse cx="403.125" cy="271.1751" fill="#84BE84" rx="3.125" ry="3.125" style="stroke:#038048;stroke-width:1.0416666666666667;"/><text fill="#D8BC00" font-family="Open Sans,Avenir,Nunito,Arial,Helvetica,SansSerif" font-size="11.4583" lengthAdjust="spacing" textLength="132.2917" x="414.5833" y="278.0863">EdgeSectionList bisect()</text><ellipse cx="403.125" cy="290.92" fill="#84BE84" rx="3.125" ry="3.125" style="stroke:#038048;stroke-width:1.0416666666666667;"/><text fill="#D8BC00" font-family="Open Sans,Avenir,Nunito,Arial,Helvetica,SansSerif" font-size="11.4583" lengthAdjust="spacing" textLength="140.625" x="414.5833" y="297.8312">MapNodeIdentifier from()</text><ellipse cx="403.125" cy="310.6649" fill="#84BE84" rx="3.125" ry="3.125" style="stroke:#038048;stroke-width:1.0416666666666667;"/><text fill="#D8BC00" font-family="Open Sans,Avenir,Nunito,Arial,Helvetica,SansSerif" font-size="11.4583" lengthAdjust="spacing" textLength="186.4583" x="414.5833" y="317.5761">List&lt;MapNodeIdentifier&gt; nodes()</text><ellipse cx="403.125" cy="330.4097" fill="#84BE84" rx="3.125" ry="3.125" style="stroke:#038048;stroke-width:1.0416666666666667;"/><text fill="#D8BC00" font-family="Open Sans,Avenir,Nunito,Arial,Helvetica,SansSerif" font-size="11.4583" lengthAdjust="spacing" textLength="234.375" x="414.5833" y="337.321">EdgeSectionList section(PolylineSectioner)</text><ellipse cx="403.125" cy="350.1546" fill="#84BE84" rx="3.125" ry="3.125" style="stroke:#038048;stroke-width:1.0416666666666667;"/><text fill="#D8BC00" font-family="Open Sans,Avenir,Nunito,Arial,Helvetica,SansSerif" font-size="11.4583" lengthAdjust="spacing" textLength="47.9167" x="414.5833" y="357.0658">int size()</text><ellipse cx="403.125" cy="369.8995" fill="#84BE84" rx="3.125" ry="3.125" style="stroke:#038048;stroke-width:1.0416666666666667;"/><text fill="#D8BC00" font-family="Open Sans,Avenir,Nunito,Arial,Helvetica,SansSerif" font-size="11.4583" lengthAdjust="spacing" textLength="125" x="414.5833" y="376.8107">MapNodeIdentifier to()</text><ellipse cx="403.125" cy="389.6444" fill="#84BE84" rx="3.125" ry="3.125" style="stroke:#038048;stroke-width:1.0416666666666667;"/><text fill="#D8BC00" font-family="Open Sans,Avenir,Nunito,Arial,Helvetica,SansSerif" font-size="11.4583" lengthAdjust="spacing" textLength="134.375" x="414.5833" y="396.5556">EdgeSectionList trisect()</text><line style="stroke:#5E5E5E;stroke-width:1.0416666666666667;" x1="392.7083" x2="522.9167" y1="254.011" y2="254.011"/><text fill="#D8BC00" font-family="Open Sans,Avenir,Nunito,Arial,Helvetica,SansSerif" font-size="11.4583" lengthAdjust="spacing" textLength="62.5" x="526.0417" y="257.8206">(collection)</text><line style="stroke:#5E5E5E;stroke-width:1.0416666666666667;" x1="591.6667" x2="721.875" y1="254.011" y2="254.011"/><ellipse cx="403.125" cy="433.3008" fill="#84BE84" rx="3.125" ry="3.125" style="stroke:#038048;stroke-width:1.0416666666666667;"/><text fill="#D8BC00" font-family="Open Sans,Avenir,Nunito,Arial,Helvetica,SansSerif" font-size="11.4583" lengthAdjust="spacing" textLength="119.7917" x="414.5833" y="440.212">Segment asSegment()</text><line style="stroke:#5E5E5E;stroke-width:1.0416666666666667;" x1="392.7083" x2="518.75" y1="416.1367" y2="416.1367"/><text fill="#D8BC00" font-family="Open Sans,Avenir,Nunito,Arial,Helvetica,SansSerif" font-size="11.4583" lengthAdjust="spacing" textLength="70.8333" x="521.875" y="419.9463">(conversion)</text><line style="stroke:#5E5E5E;stroke-width:1.0416666666666667;" x1="595.8333" x2="721.875" y1="416.1367" y2="416.1367"/><!--MD5=[ab8871ed637f40707b866ba6597734bc]
class ArrayList--><rect fill="#282828" height="48.055" id="ArrayList" rx="8.3333" ry="8.3333" style="stroke:#5E5E5E;stroke-width:1.0416666666666667;" width="95.8333" x="1557.2917" y="227.6611"/><rect fill="#1B1B1A" height="31.3883" rx="8.3333" ry="8.3333" style="stroke:#1B1B1A;stroke-width:1.0416666666666667;" width="95.8333" x="1557.2917" y="227.6611"/><rect fill="#1B1B1A" height="8.3333" style="stroke:#1B1B1A;stroke-width:1.0416666666666667;" width="95.8333" x="1557.2917" y="250.7161"/><rect fill="none" height="48.055" id="ArrayList" rx="8.3333" ry="8.3333" style="stroke:#5E5E5E;stroke-width:1.0416666666666667;" width="95.8333" x="1557.2917" y="227.6611"/><ellipse cx="1571.875" cy="243.3553" fill="#0066CF" rx="10.4167" ry="10.4167" style="stroke:#0086EF;stroke-width:1.0416666666666667;"/><path d="M1573.7854,247.7804 Q1573.3582,248.0001 1572.8882,248.1099 Q1572.4182,248.2198 1571.8994,248.2198 Q1570.0562,248.2198 1569.0857,247.0052 Q1568.1152,245.7906 1568.1152,243.4957 Q1568.1152,241.1947 1569.0857,239.9801 Q1570.0562,238.7655 1571.8994,238.7655 Q1572.4182,238.7655 1572.8943,238.8753 Q1573.3704,238.9852 1573.7854,239.2049 L1573.7854,241.2069 Q1573.3215,240.7796 1572.8851,240.5813 Q1572.4487,240.3829 1571.9849,240.3829 Q1570.9961,240.3829 1570.4926,241.1672 Q1569.989,241.9515 1569.989,243.4957 Q1569.989,245.0338 1570.4926,245.8181 Q1570.9961,246.6024 1571.9849,246.6024 Q1572.4487,246.6024 1572.8851,246.404 Q1573.3215,246.2056 1573.7854,245.7784 Z " fill="#000000"/><text fill="#D8BC00" font-family="Open Sans,Avenir,Nunito,Arial,Helvetica,SansSerif" font-size="12.5" font-weight="bold" lengthAdjust="spacing" textLength="58.3333" x="1588.5417" y="248.0794">ArrayList</text><line style="stroke:#5E5E5E;stroke-width:1.0416666666666667;" x1="1558.3333" x2="1652.0833" y1="259.0495" y2="259.0495"/><line style="stroke:#5E5E5E;stroke-width:1.0416666666666667;" x1="1558.3333" x2="1652.0833" y1="267.3828" y2="267.3828"/><!--MD5=[6bdcb9ea881631c884d7c89035e2572f]
class EdgeSectionList--><rect codeLine="42" fill="#282828" height="83.3781" id="EdgeSectionList" rx="8.3333" ry="8.3333" style="stroke:#5E5E5E;stroke-width:1.0416666666666667;" width="142.7083" x="1533.8542" y="547.9736"/><rect fill="#1B1B1A" height="31.3883" rx="8.3333" ry="8.3333" style="stroke:#1B1B1A;stroke-width:1.0416666666666667;" width="142.7083" x="1533.8542" y="547.9736"/><rect fill="#1B1B1A" height="8.3333" style="stroke:#1B1B1A;stroke-width:1.0416666666666667;" width="142.7083" x="1533.8542" y="571.0286"/><rect codeLine="42" fill="none" height="83.3781" id="EdgeSectionList" rx="8.3333" ry="8.3333" style="stroke:#5E5E5E;stroke-width:1.0416666666666667;" width="142.7083" x="1533.8542" y="547.9736"/><ellipse cx="1549.8438" cy="563.6678" fill="#0066CF" rx="10.4167" ry="10.4167" style="stroke:#0086EF;stroke-width:1.0416666666666667;"/><path d="M1551.7542,568.0929 Q1551.3269,568.3126 1550.8569,568.4224 Q1550.387,568.5323 1549.8682,568.5323 Q1548.0249,568.5323 1547.0544,567.3177 Q1546.084,566.1031 1546.084,563.8082 Q1546.084,561.5072 1547.0544,560.2926 Q1548.0249,559.078 1549.8682,559.078 Q1550.387,559.078 1550.863,559.1878 Q1551.3391,559.2977 1551.7542,559.5174 L1551.7542,561.5194 Q1551.2903,561.0921 1550.8539,560.8938 Q1550.4175,560.6954 1549.9536,560.6954 Q1548.9648,560.6954 1548.4613,561.4797 Q1547.9578,562.264 1547.9578,563.8082 Q1547.9578,565.3463 1548.4613,566.1306 Q1548.9648,566.9149 1549.9536,566.9149 Q1550.4175,566.9149 1550.8539,566.7165 Q1551.2903,566.5181 1551.7542,566.0909 Z " fill="#000000"/><text fill="#D8BC00" font-family="Open Sans,Avenir,Nunito,Arial,Helvetica,SansSerif" font-size="12.5" font-weight="bold" lengthAdjust="spacing" textLength="102.0833" x="1566.8229" y="568.3919">EdgeSectionList</text><line style="stroke:#5E5E5E;stroke-width:1.5625;" x1="1534.8958" x2="1675.5208" y1="579.362" y2="579.362"/><ellipse cx="1545.3125" cy="614.7319" fill="#84BE84" rx="3.125" ry="3.125" style="stroke:#038048;stroke-width:1.0416666666666667;"/><text fill="#D8BC00" font-family="Open Sans,Avenir,Nunito,Arial,Helvetica,SansSerif" font-size="11.4583" lengthAdjust="spacing" textLength="110.4167" x="1556.7708" y="621.6431">List&lt;Edge&gt; edges()</text><line style="stroke:#5E5E5E;stroke-width:1.0416666666666667;" x1="1534.8958" x2="1570.8333" y1="597.5677" y2="597.5677"/><text fill="#D8BC00" font-family="Open Sans,Avenir,Nunito,Arial,Helvetica,SansSerif" font-size="11.4583" lengthAdjust="spacing" textLength="62.5" x="1573.9583" y="601.3774">(collection)</text><line style="stroke:#5E5E5E;stroke-width:1.0416666666666667;" x1="1639.5833" x2="1675.5208" y1="597.5677" y2="597.5677"/><!--MD5=[87841563261a559585204783bd23deef]
class EdgeSectioner--><rect codeLine="49" fill="#282828" height="155.1127" id="EdgeSectioner" rx="8.3333" ry="8.3333" style="stroke:#5E5E5E;stroke-width:1.0416666666666667;" width="468.75" x="1028.125" y="512.0361"/><rect fill="#1B1B1A" height="31.3883" rx="8.3333" ry="8.3333" style="stroke:#1B1B1A;stroke-width:1.0416666666666667;" width="468.75" x="1028.125" y="512.0361"/><rect fill="#1B1B1A" height="8.3333" style="stroke:#1B1B1A;stroke-width:1.0416666666666667;" width="468.75" x="1028.125" y="535.0911"/><rect codeLine="49" fill="none" height="155.1127" id="EdgeSectioner" rx="8.3333" ry="8.3333" style="stroke:#5E5E5E;stroke-width:1.0416666666666667;" width="468.75" x="1028.125" y="512.0361"/><ellipse cx="1209.8958" cy="527.7303" fill="#0066CF" rx="10.4167" ry="10.4167" style="stroke:#0086EF;stroke-width:1.0416666666666667;"/><path d="M1211.8062,532.1554 Q1211.379,532.3751 1210.909,532.4849 Q1210.439,532.5948 1209.9202,532.5948 Q1208.077,532.5948 1207.1065,531.3802 Q1206.1361,530.1656 1206.1361,527.8707 Q1206.1361,525.5697 1207.1065,524.3551 Q1208.077,523.1405 1209.9202,523.1405 Q1210.439,523.1405 1210.9151,523.2503 Q1211.3912,523.3602 1211.8062,523.5799 L1211.8062,525.5819 Q1211.3424,525.1546 1210.906,524.9563 Q1210.4696,524.7579 1210.0057,524.7579 Q1209.0169,524.7579 1208.5134,525.5422 Q1208.0098,526.3265 1208.0098,527.8707 Q1208.0098,529.4088 1208.5134,530.1931 Q1209.0169,530.9774 1210.0057,530.9774 Q1210.4696,530.9774 1210.906,530.779 Q1211.3424,530.5806 1211.8062,530.1534 Z " fill="#000000"/><text fill="#D8BC00" font-family="Open Sans,Avenir,Nunito,Arial,Helvetica,SansSerif" font-size="12.5" font-weight="bold" lengthAdjust="spacing" textLength="90.625" x="1232.8125" y="532.4544">EdgeSectioner</text><line style="stroke:#5E5E5E;stroke-width:1.5625;" x1="1029.1667" x2="1495.8333" y1="543.4245" y2="543.4245"/><ellipse cx="1039.5833" cy="578.7944" fill="#84BE84" rx="3.125" ry="3.125" style="stroke:#038048;stroke-width:1.0416666666666667;"/><text fill="#D8BC00" font-family="Open Sans,Avenir,Nunito,Arial,Helvetica,SansSerif" font-size="11.4583" lengthAdjust="spacing" textLength="357.2917" x="1051.0417" y="585.7056">EdgeSectioner(Graph, PbfDataAnalysis, EdgeNodeMap, Distance)</text><line style="stroke:#5E5E5E;stroke-width:1.0416666666666667;" x1="1029.1667" x2="1218.75" y1="561.6302" y2="561.6302"/><text fill="#D8BC00" font-family="Open Sans,Avenir,Nunito,Arial,Helvetica,SansSerif" font-size="11.4583" lengthAdjust="spacing" textLength="81.25" x="1221.875" y="565.4399">(constructors)</text><line style="stroke:#5E5E5E;stroke-width:1.0416666666666667;" x1="1306.25" x2="1495.8333" y1="561.6302" y2="561.6302"/><line style="stroke:#5E5E5E;stroke-width:1.0416666666666667;" x1="1029.1667" x2="1495.8333" y1="595.4142" y2="595.4142"/><ellipse cx="1039.5833" cy="606.8726" fill="#84BE84" rx="3.125" ry="3.125" style="stroke:#038048;stroke-width:1.0416666666666667;"/><text fill="#D8BC00" font-family="Open Sans,Avenir,Nunito,Arial,Helvetica,SansSerif" font-size="11.4583" lengthAdjust="spacing" textLength="436.4583" x="1051.0417" y="613.7838">void debugger(EdgeSectionerDebugger, Set&lt;PbfWayIdentifier&gt; waysToDebug)</text><ellipse cx="1039.5833" cy="650.529" fill="#84BE84" rx="3.125" ry="3.125" style="stroke:#038048;stroke-width:1.0416666666666667;"/><text fill="#D8BC00" font-family="Open Sans,Avenir,Nunito,Arial,Helvetica,SansSerif" font-size="11.4583" lengthAdjust="spacing" textLength="144.7917" x="1051.0417" y="657.4402">List&lt;Edge&gt; section(Edge)</text><line style="stroke:#5E5E5E;stroke-width:1.0416666666666667;" x1="1029.1667" x2="1228.125" y1="633.3649" y2="633.3649"/><text fill="#D8BC00" font-family="Open Sans,Avenir,Nunito,Arial,Helvetica,SansSerif" font-size="11.4583" lengthAdjust="spacing" textLength="62.5" x="1231.25" y="637.1745">(collection)</text><line style="stroke:#5E5E5E;stroke-width:1.0416666666666667;" x1="1296.875" x2="1495.8333" y1="633.3649" y2="633.3649"/><!--MD5=[49d90ae7f2714082f2dd048b985a41f1]
class EdgeSectionerDebugger--><rect codeLine="59" fill="#282828" height="131.2012" id="EdgeSectionerDebugger" rx="8.3333" ry="8.3333" style="stroke:#5E5E5E;stroke-width:1.0416666666666667;" width="191.6667" x="85.4167" y="524.0153"/><rect fill="#1B1B1A" height="31.3883" rx="8.3333" ry="8.3333" style="stroke:#1B1B1A;stroke-width:1.0416666666666667;" width="191.6667" x="85.4167" y="524.0153"/><rect fill="#1B1B1A" height="8.3333" style="stroke:#1B1B1A;stroke-width:1.0416666666666667;" width="191.6667" x="85.4167" y="547.0703"/><rect codeLine="59" fill="none" height="131.2012" id="EdgeSectionerDebugger" rx="8.3333" ry="8.3333" style="stroke:#5E5E5E;stroke-width:1.0416666666666667;" width="191.6667" x="85.4167" y="524.0153"/><ellipse cx="100" cy="539.7095" fill="#008400" rx="10.4167" ry="10.4167" style="stroke:#239C23;stroke-width:1.0416666666666667;"/><path d="M97.404,536.8713 L97.404,535.2844 L102.83,535.2844 L102.83,536.8713 L101.0173,536.8713 L101.0173,542.8101 L102.83,542.8101 L102.83,544.397 L97.404,544.397 L97.404,542.8101 L99.2167,542.8101 L99.2167,536.8713 Z " fill="#000000"/><text fill="#D8BC00" font-family="Open Sans,Avenir,Nunito,Arial,Helvetica,SansSerif" font-size="12.5" font-style="italic" font-weight="bold" lengthAdjust="spacing" textLength="154.1667" x="116.6667" y="544.4336">EdgeSectionerDebugger</text><line style="stroke:#5E5E5E;stroke-width:1.5625;" x1="86.4583" x2="276.0417" y1="555.4036" y2="555.4036"/><line style="stroke:#5E5E5E;stroke-width:1.0416666666666667;" x1="86.4583" x2="276.0417" y1="563.737" y2="563.737"/><ellipse cx="96.875" cy="575.1953" fill="#84BE84" rx="3.125" ry="3.125" style="stroke:#038048;stroke-width:1.0416666666666667;"/><text fill="#D8BC00" font-family="Open Sans,Avenir,Nunito,Arial,Helvetica,SansSerif" font-size="11.4583" lengthAdjust="spacing" textLength="141.6667" x="108.3333" y="582.1065">void update(EdgeSection)</text><ellipse cx="96.875" cy="618.8517" fill="#84BE84" rx="3.125" ry="3.125" style="stroke:#038048;stroke-width:1.0416666666666667;"/><text fill="#D8BC00" font-family="Open Sans,Avenir,Nunito,Arial,Helvetica,SansSerif" font-size="11.4583" lengthAdjust="spacing" textLength="61.4583" x="108.3333" y="625.7629">void start()</text><ellipse cx="96.875" cy="638.5966" fill="#84BE84" rx="3.125" ry="3.125" style="stroke:#038048;stroke-width:1.0416666666666667;"/><text fill="#D8BC00" font-family="Open Sans,Avenir,Nunito,Arial,Helvetica,SansSerif" font-size="11.4583" lengthAdjust="spacing" textLength="60.4167" x="108.3333" y="645.5078">void stop()</text><line style="stroke:#5E5E5E;stroke-width:1.0416666666666667;" x1="86.4583" x2="151.5625" y1="601.6876" y2="601.6876"/><text fill="#D8BC00" font-family="Open Sans,Avenir,Nunito,Arial,Helvetica,SansSerif" font-size="11.4583" lengthAdjust="spacing" textLength="53.125" x="154.6875" y="605.4972">(lifecycle)</text><line style="stroke:#5E5E5E;stroke-width:1.0416666666666667;" x1="210.9375" x2="276.0417" y1="601.6876" y2="601.6876"/><!--MD5=[f8f3454720360897fc5ade5f38899656]
class WaySectioningGraphLoader--><rect codeLine="69" fill="#282828" height="83.3781" id="WaySectioningGraphLoader" rx="8.3333" ry="8.3333" style="stroke:#5E5E5E;stroke-width:1.0416666666666667;" width="313.5417" x="677.6042" y="547.9736"/><rect fill="#1B1B1A" height="31.3883" rx="8.3333" ry="8.3333" style="stroke:#1B1B1A;stroke-width:1.0416666666666667;" width="313.5417" x="677.6042" y="547.9736"/><rect fill="#1B1B1A" height="8.3333" style="stroke:#1B1B1A;stroke-width:1.0416666666666667;" width="313.5417" x="677.6042" y="571.0286"/><rect codeLine="69" fill="none" height="83.3781" id="WaySectioningGraphLoader" rx="8.3333" ry="8.3333" style="stroke:#5E5E5E;stroke-width:1.0416666666666667;" width="313.5417" x="677.6042" y="547.9736"/><ellipse cx="739.0625" cy="563.6678" fill="#0066CF" rx="10.4167" ry="10.4167" style="stroke:#0086EF;stroke-width:1.0416666666666667;"/><path d="M740.9729,568.0929 Q740.5457,568.3126 740.0757,568.4224 Q739.6057,568.5323 739.0869,568.5323 Q737.2437,568.5323 736.2732,567.3177 Q735.3027,566.1031 735.3027,563.8082 Q735.3027,561.5072 736.2732,560.2926 Q737.2437,559.078 739.0869,559.078 Q739.6057,559.078 740.0818,559.1878 Q740.5579,559.2977 740.9729,559.5174 L740.9729,561.5194 Q740.509,561.0921 740.0726,560.8938 Q739.6362,560.6954 739.1724,560.6954 Q738.1836,560.6954 737.6801,561.4797 Q737.1765,562.264 737.1765,563.8082 Q737.1765,565.3463 737.6801,566.1306 Q738.1836,566.9149 739.1724,566.9149 Q739.6362,566.9149 740.0726,566.7165 Q740.509,566.5181 740.9729,566.0909 Z " fill="#000000"/><text fill="#D8BC00" font-family="Open Sans,Avenir,Nunito,Arial,Helvetica,SansSerif" font-size="12.5" font-weight="bold" lengthAdjust="spacing" textLength="176.0417" x="761.9792" y="568.3919">WaySectioningGraphLoader</text><line style="stroke:#5E5E5E;stroke-width:1.5625;" x1="678.6458" x2="990.1042" y1="579.362" y2="579.362"/><ellipse cx="689.0625" cy="614.7319" fill="#84BE84" rx="3.125" ry="3.125" style="stroke:#038048;stroke-width:1.0416666666666667;"/><text fill="#D8BC00" font-family="Open Sans,Avenir,Nunito,Arial,Helvetica,SansSerif" font-size="11.4583" lengthAdjust="spacing" textLength="281.25" x="700.5208" y="621.6431">WaySectioningGraphLoader(Graph, EdgeSectioner)</text><line style="stroke:#5E5E5E;stroke-width:1.0416666666666667;" x1="678.6458" x2="790.625" y1="597.5677" y2="597.5677"/><text fill="#D8BC00" font-family="Open Sans,Avenir,Nunito,Arial,Helvetica,SansSerif" font-size="11.4583" lengthAdjust="spacing" textLength="81.25" x="793.75" y="601.3774">(constructors)</text><line style="stroke:#5E5E5E;stroke-width:1.0416666666666667;" x1="878.125" x2="990.1042" y1="597.5677" y2="597.5677"/><!--MD5=[4d94d3cbf02dd3ec5fb7415eebda04ca]
reverse link ArrayList to EdgeSectionList--><path codeLine="41" d="M1605.2083,296.7445 C1605.2083,362.2549 1605.2083,484.3903 1605.2083,547.8903 " fill="none" id="ArrayList-backto-EdgeSectionList" style="stroke:#545454;stroke-width:1.5625;"/><polygon fill="none" points="1597.9167,296.5882,1605.2083,275.7549,1612.5,296.5882,1597.9167,296.5882" style="stroke:#545454;stroke-width:1.5625;"/><!--MD5=[ebbe8ae0d3c248878bb58df5d1b1f5fc]
reverse link BaseRepeater to EdgeSectioner--><path codeLine="48" d="M1262.5,296.8799 C1262.5,351.484 1262.5,445.2757 1262.5,511.7549 " fill="none" id="BaseRepeater-backto-EdgeSectioner" style="stroke:#545454;stroke-width:1.5625;"/><polygon fill="none" points="1255.2083,296.5882,1262.5,275.7549,1269.7917,296.5882,1255.2083,296.5882" style="stroke:#545454;stroke-width:1.5625;"/><!--MD5=[0b4c5c64e6e256a423243bb295fccb09]
reverse link BaseGraphLoader to WaySectioningGraphLoader--><path codeLine="68" d="M834.375,296.7445 C834.375,362.2549 834.375,484.3903 834.375,547.8903 " fill="none" id="BaseGraphLoader-backto-WaySectioningGraphLoader" style="stroke:#545454;stroke-width:1.5625;"/><polygon fill="none" points="827.0833,296.5882,834.375,275.7549,841.6667,296.5882,827.0833,296.5882" style="stroke:#545454;stroke-width:1.5625;"/><!--MD5=[e15b13ac4099f1d3107850caf2aaae16]
link EdgeNodeMap to EdgeSection--><!--MD5=[2c2145c146b7631a10354498d37a5188]
link EdgeNodeMap to EdgeSectionerDebugger--><!--MD5=[04d36e6849fee14421ee2c4439ab11ea]
@startuml

    !include lexakai.theme
    
    title "com.telenav.mesakit.graph.specifications.osm.graph.loader.sectioner"
    
    abstract BaseGraphLoader
    abstract BaseRepeater
    
    class EdgeNodeMap
    {
        - -(constructors)- -
        +EdgeNodeMap(String)
        - -(collection)- -
        +List<MapNodeIdentifier> get(EdgeIdentifier)
        +void put(EdgeIdentifier, List<MapNodeIdentifier> nodes)
    }
    
    class EdgeSection
    {
        - -(constructors)- -
        +EdgeSection(Edge, List<MapNodeIdentifier>, Polyline)
        - -
        +HeavyWeightEdge edge(EdgeIdentifier)
        +Edge edge()
        +Distance length()
        +EdgeSection section(PolylineSection)
        +Polyline shape()
        - -(collection)- -
        +EdgeSectionList bisect()
        +MapNodeIdentifier from()
        +List<MapNodeIdentifier> nodes()
        +EdgeSectionList section(PolylineSectioner)
        +int size()
        +MapNodeIdentifier to()
        +EdgeSectionList trisect()
        - -(conversion)- -
        +Segment asSegment()
    }
    
    ArrayList <|- - EdgeSectionList
    class EdgeSectionList
    {
        - -(collection)- -
        +List<Edge> edges()
    }
    
    BaseRepeater <|- - EdgeSectioner
    class EdgeSectioner
    {
        - -(constructors)- -
        +EdgeSectioner(Graph, PbfDataAnalysis, EdgeNodeMap, Distance)
        - -
        +void debugger(EdgeSectionerDebugger, Set<PbfWayIdentifier> waysToDebug)
        - -(collection)- -
        +List<Edge> section(Edge)
    }
    
    interface EdgeSectionerDebugger
    {
        - -
        +void update(EdgeSection)
        - -(lifecycle)- -
        +void start()
        +void stop()
    }
    
    BaseGraphLoader <|- - WaySectioningGraphLoader
    class WaySectioningGraphLoader
    {
        - -(constructors)- -
        +WaySectioningGraphLoader(Graph, EdgeSectioner)
    }
    
@enduml

@startuml









skinparam backgroundColor #333333






skinparam  {
    defaultFontName   "Open Sans,Avenir,Nunito,Arial,Helvetica,SansSerif"
    defaultFontSize   12
    defaultTextAlignment left
    shadowing false
    RoundCorner 10
    TitleFontSize 18
}

skinparam defaultFontName       "Open Sans,Avenir,Nunito,Arial,Helvetica,SansSerif"
skinparam defaultFontSize       12
skinparam dpi                   100
skinparam shadowing             false
skinparam roundcorner           16
skinparam ParticipantPadding    40
skinparam BoxPadding            40
skinparam Padding               3
skinparam ArrowColor            #545454
skinparam stereotype {
    CBackgroundColor #0066cf
    CBorderColor #0086ef
    ABackgroundColor #C8Ac00
    ABorderColor #D8Bc00
    IBackgroundColor #008400
    IBorderColor #239c23
    EBackgroundColor #cf6300
    EBorderColor #ef8300
    NBackgroundColor #3380b9
    NBorderColor #004d86
}
skinparam title {
	FontColor	                 #c0c0c0
 	BorderColor                  #545454
	FontSize	    	         20
	BorderRoundCorner            16
	BorderThickness 	         1
	BackgroundColor              #48494b
}


skinparam legend {
	BackgroundColor #303030
	BorderColor #404040
	FontColor #a0a0a0
}

	skinparam swimlane {
	BorderColor #5e5e5e
	BorderThickness 2
	TitleBackgroundColor  #6d6d6d-#484848
	TitleFontColor #303030
}

skinparam activity {
		FontColor #C8Ac00
	BorderColor #333333
	BackgroundColor #333333-#333333
	BarColor #00FF00
	StartColor #0060a8
	EndColor #0060a8
	DiamondBackgroundColor #6d6d6d-#3a3a3a
  	DiamondBorderColor #3a3a3a
  	DiamondFontColor #fefefe
}


skinparam participant {
		FontColor #C8Ac00
	BorderColor #333333
	BackgroundColor #333333-#333333
	ParticipantBorderThickness 2
}


skinparam actor {
		FontColor #C8Ac00
	BorderColor #333333
	BackgroundColor #333333-#333333
}


skinparam arrow {
	Thickness 1.5
	Color #545454
	FontColor #a0a0a0
    FontStyle bold
    MessageAlignment center
}



skinparam sequence {
	BorderColor #303030
	TitleFontColor #303030
	BackgroundColor #333333
	StartColor #303030
	EndColor #303030
	BoxBackgroundColor #333333
	BoxBorderColor #484848
	BoxFontColor #484848
	LifeLineBorderColor #484848
	LifeLineBorderThickness 2
	LifeLineBackgroundColor #3a3a3a
	GroupBorderColor #484848
	GroupFontColor #484848
	GroupHeaderFontColor #0060a8
	GroupBackgroundColor #484848
	GroupHeaderBackgroundColor #333333
	DividerBackgroundColor #484848
    DividerBorderColor #484848
    DividerBorderThickness 2
    DividerFontColor #D8Bc00
	ReferenceBackgroundColor #333333
	ReferenceBorderColor #484848
	ReferenceFontColor #fefefe
	ReferenceHeaderBackgroundColor #484848
}


skinparam partition {
	BorderColor #303030
	FontColor #333333
	BackgroundColor #333333
}


skinparam collections {
		FontColor #C8Ac00
	BorderColor #333333
	BackgroundColor #333333-#333333
}


skinparam control {
		FontColor #C8Ac00
	BorderColor #333333
	BackgroundColor #333333-#333333
}


skinparam entity {
		FontColor #C8Ac00
	BorderColor #333333
	BackgroundColor #333333-#333333
}


skinparam boundary {
		FontColor #C8Ac00
	BorderColor #333333
	BackgroundColor #333333-#333333
}


skinparam agent {
	BackgroundColor #ff8000
	BorderColor #ff9933
	FontColor #484848
}


skinparam note {
	BorderThickness 1
	BackgroundColor #1b1b1a
	BorderColor #5e5e5e
	FontSize 11
	FontColor #a0a0a0
}


skinparam artifact {
	BorderThickness 10
	BorderColor #5e5e5e
	BackgroundColor #1b1b1a
	FontColor #D8Bc00
}


skinparam component {
		FontColor #C8Ac00
	BorderColor #333333
	BackgroundColor #333333-#333333
}


skinparam interface {
	BackgroundColor  #008400
	BorderColor  #007F00
	FontColor #484848
}


skinparam storage {
	BackgroundColor #ff8000
  	BorderColor #cc6600
	FontColor #222222
}


skinparam node {
	BackgroundColor #333333
	BorderColor #333333
	FontColor #C8Ac00
}


skinparam cloud {
	BackgroundColor #484848-black
	BorderColor #484848
	FontColor #D8Bc00
}


skinparam database {
		FontColor #C8Ac00
	BorderColor #333333
	BackgroundColor #333333-#333333
	BackgroundColor  #333333
}


skinparam class {
		FontColor #C8Ac00
	BorderColor #333333
	BackgroundColor #333333-#333333
	HeaderBackgroundColor #1b1b1a
    BackgroundColor #282828
    BorderColor #5e5e5e
 	StereotypeFontColor #a0a0a0
    StereotypeFontStyle bold
	BorderThickness 1
	AttributeFontColor #D8Bc00
	AttributeFontSize 11
    FontColor #D8Bc00
    FontStyle bold
}


skinparam object {
		FontColor #C8Ac00
	BorderColor #333333
	BackgroundColor #333333-#333333
	StereotypeFontColor #484848
	BorderThickness 1
	AttributeFontColor #fefefe
	AttributeFontSize 11
}


skinparam usecase {
		FontColor #C8Ac00
	BorderColor #333333
	BackgroundColor #333333-#333333
	BorderThickness 2
	StereotypeFontColor #303030
}


skinparam rectangle {
		FontColor #C8Ac00
	BorderColor #333333
	BackgroundColor #333333-#333333
	BackgroundColor #333333
	BorderThickness 2
	StereotypeFontColor #303030
}


skinparam package {
		FontColor #C8Ac00
	BorderColor #333333
	BackgroundColor #333333-#333333
	BackgroundColor #333333
	BorderThickness 2
}


skinparam folder {
	BackgroundColor #6d6d6d
  	BorderColor #ff8000
	FontColor #ff8000
	BorderThickness 2
}


skinparam frame {
	BackgroundColor #6d6d6d
  	BorderColor #0060a8
	FontColor #0060a8
	BorderThickness 2
}


skinparam state {
		FontColor #C8Ac00
	BorderColor #333333
	BackgroundColor #333333-#333333
	StartColor #0060a8
	EndColor #0060a8
	AttributeFontColor #fefefe
	AttributeFontSize 11
}


skinparam queue {
		FontColor #C8Ac00
	BorderColor #333333
	BackgroundColor #333333-#333333
}


skinparam card {
	BackgroundColor #0060a8
	BorderColor #004d86
	FontColor $INFO_TEXT
}


skinparam file {
	BackgroundColor #6d6d6d-#484848
	BorderColor #0060a8
	FontColor #fefefe
}


skinparam stack {
		FontColor #C8Ac00
	BorderColor #333333
	BackgroundColor #333333-#333333
}

    
    title "com.telenav.mesakit.graph.specifications.osm.graph.loader.sectioner"
    
    abstract BaseGraphLoader
    abstract BaseRepeater
    
    class EdgeNodeMap
    {
        - -(constructors)- -
        +EdgeNodeMap(String)
        - -(collection)- -
        +List<MapNodeIdentifier> get(EdgeIdentifier)
        +void put(EdgeIdentifier, List<MapNodeIdentifier> nodes)
    }
    
    class EdgeSection
    {
        - -(constructors)- -
        +EdgeSection(Edge, List<MapNodeIdentifier>, Polyline)
        - -
        +HeavyWeightEdge edge(EdgeIdentifier)
        +Edge edge()
        +Distance length()
        +EdgeSection section(PolylineSection)
        +Polyline shape()
        - -(collection)- -
        +EdgeSectionList bisect()
        +MapNodeIdentifier from()
        +List<MapNodeIdentifier> nodes()
        +EdgeSectionList section(PolylineSectioner)
        +int size()
        +MapNodeIdentifier to()
        +EdgeSectionList trisect()
        - -(conversion)- -
        +Segment asSegment()
    }
    
    ArrayList <|- - EdgeSectionList
    class EdgeSectionList
    {
        - -(collection)- -
        +List<Edge> edges()
    }
    
    BaseRepeater <|- - EdgeSectioner
    class EdgeSectioner
    {
        - -(constructors)- -
        +EdgeSectioner(Graph, PbfDataAnalysis, EdgeNodeMap, Distance)
        - -
        +void debugger(EdgeSectionerDebugger, Set<PbfWayIdentifier> waysToDebug)
        - -(collection)- -
        +List<Edge> section(Edge)
    }
    
    interface EdgeSectionerDebugger
    {
        - -
        +void update(EdgeSection)
        - -(lifecycle)- -
        +void start()
        +void stop()
    }
    
    BaseGraphLoader <|- - WaySectioningGraphLoader
    class WaySectioningGraphLoader
    {
        - -(constructors)- -
        +WaySectioningGraphLoader(Graph, EdgeSectioner)
    }
    
@enduml

PlantUML version 1.2021.01(Tue Feb 02 02:55:08 EST 2021)
(GPL source distribution)
Java Runtime: OpenJDK Runtime Environment
JVM: OpenJDK 64-Bit Server VM
Default Encoding: UTF-8
Language: en
Country: US
--></g></svg>