<?xml version="1.0" encoding="UTF-8" standalone="no"?><svg xmlns="http://www.w3.org/2000/svg" xmlns:xlink="http://www.w3.org/1999/xlink" contentScriptType="application/ecmascript" contentStyleType="text/css" height="662.5px" preserveAspectRatio="none" style="width:935px;height:662px;background:#333333;" version="1.1" viewBox="0 0 935 662" width="935.4167px" zoomAndPan="magnify"><defs/><g><rect fill="#48494B" height="41.2028" rx="8.3333" ry="8.3333" style="stroke:#545454;stroke-width:1.0416666666666667;" width="490.625" x="215.1042" y="2.0833"/><text fill="#C0C0C0" font-family="Open Sans,Avenir,Nunito,Arial,Helvetica,SansSerif" font-size="20.8333" lengthAdjust="spacing" textLength="467.7083" x="226.5625" y="30.5583">com.telenav.mesakit.graph.matching.snapping</text><!--MD5=[7975f145cb815d4e263503673eb71485]
class PolylineSnap--><rect fill="#282828" height="48.055" id="PolylineSnap" rx="8.3333" ry="8.3333" style="stroke:#5E5E5E;stroke-width:1.0416666666666667;" width="119.7917" x="736.4583" y="139.1195"/><rect fill="#1B1B1A" height="31.3883" rx="8.3333" ry="8.3333" style="stroke:#1B1B1A;stroke-width:1.0416666666666667;" width="119.7917" x="736.4583" y="139.1195"/><rect fill="#1B1B1A" height="8.3333" style="stroke:#1B1B1A;stroke-width:1.0416666666666667;" width="119.7917" x="736.4583" y="162.1745"/><rect fill="none" height="48.055" id="PolylineSnap" rx="8.3333" ry="8.3333" style="stroke:#5E5E5E;stroke-width:1.0416666666666667;" width="119.7917" x="736.4583" y="139.1195"/><ellipse cx="751.0417" cy="154.8136" fill="#0066CF" rx="10.4167" ry="10.4167" style="stroke:#0086EF;stroke-width:1.0416666666666667;"/><path d="M752.9521,159.2387 Q752.5248,159.4584 752.0549,159.5683 Q751.5849,159.6781 751.0661,159.6781 Q749.2228,159.6781 748.2524,158.4635 Q747.2819,157.2489 747.2819,154.954 Q747.2819,152.653 748.2524,151.4384 Q749.2228,150.2238 751.0661,150.2238 Q751.5849,150.2238 752.061,150.3337 Q752.537,150.4435 752.9521,150.6632 L752.9521,152.6652 Q752.4882,152.238 752.0518,152.0396 Q751.6154,151.8412 751.1515,151.8412 Q750.1628,151.8412 749.6592,152.6255 Q749.1557,153.4098 749.1557,154.954 Q749.1557,156.4921 749.6592,157.2764 Q750.1628,158.0607 751.1515,158.0607 Q751.6154,158.0607 752.0518,157.8623 Q752.4882,157.664 752.9521,157.2367 Z " fill="#000000"/><text fill="#D8BC00" font-family="Open Sans,Avenir,Nunito,Arial,Helvetica,SansSerif" font-size="12.5" font-weight="bold" lengthAdjust="spacing" textLength="82.2917" x="767.7083" y="159.5378">PolylineSnap</text><line style="stroke:#5E5E5E;stroke-width:1.0416666666666667;" x1="737.5" x2="855.2083" y1="170.5078" y2="170.5078"/><line style="stroke:#5E5E5E;stroke-width:1.0416666666666667;" x1="737.5" x2="855.2083" y1="178.8411" y2="178.8411"/><!--MD5=[a8200adf0292df9fd683acc44edd34f6]
class EdgeSnap--><rect codeLine="8" fill="#282828" height="111.4563" id="EdgeSnap" rx="8.3333" ry="8.3333" style="stroke:#5E5E5E;stroke-width:1.0416666666666667;" width="197.9167" x="697.3958" y="334.9528"/><rect fill="#1B1B1A" height="31.3883" rx="8.3333" ry="8.3333" style="stroke:#1B1B1A;stroke-width:1.0416666666666667;" width="197.9167" x="697.3958" y="334.9528"/><rect fill="#1B1B1A" height="8.3333" style="stroke:#1B1B1A;stroke-width:1.0416666666666667;" width="197.9167" x="697.3958" y="358.0078"/><rect codeLine="8" fill="none" height="111.4563" id="EdgeSnap" rx="8.3333" ry="8.3333" style="stroke:#5E5E5E;stroke-width:1.0416666666666667;" width="197.9167" x="697.3958" y="334.9528"/><ellipse cx="757.8125" cy="350.647" fill="#0066CF" rx="10.4167" ry="10.4167" style="stroke:#0086EF;stroke-width:1.0416666666666667;"/><path d="M759.7229,355.072 Q759.2957,355.2917 758.8257,355.4016 Q758.3557,355.5115 757.8369,355.5115 Q755.9937,355.5115 755.0232,354.2969 Q754.0527,353.0823 754.0527,350.7874 Q754.0527,348.4863 755.0232,347.2717 Q755.9937,346.0571 757.8369,346.0571 Q758.3557,346.0571 758.8318,346.167 Q759.3079,346.2769 759.7229,346.4966 L759.7229,348.4985 Q759.259,348.0713 758.8226,347.8729 Q758.3862,347.6746 757.9224,347.6746 Q756.9336,347.6746 756.4301,348.4589 Q755.9265,349.2432 755.9265,350.7874 Q755.9265,352.3254 756.4301,353.1097 Q756.9336,353.894 757.9224,353.894 Q758.3862,353.894 758.8226,353.6957 Q759.259,353.4973 759.7229,353.0701 Z " fill="#000000"/><text fill="#D8BC00" font-family="Open Sans,Avenir,Nunito,Arial,Helvetica,SansSerif" font-size="12.5" font-weight="bold" lengthAdjust="spacing" textLength="62.5" x="780.7292" y="355.3711">EdgeSnap</text><line style="stroke:#5E5E5E;stroke-width:1.5625;" x1="698.4375" x2="894.2708" y1="366.3411" y2="366.3411"/><ellipse cx="708.8542" cy="401.711" fill="#84BE84" rx="3.125" ry="3.125" style="stroke:#038048;stroke-width:1.0416666666666667;"/><text fill="#D8BC00" font-family="Open Sans,Avenir,Nunito,Arial,Helvetica,SansSerif" font-size="11.4583" lengthAdjust="spacing" textLength="165.625" x="720.3125" y="408.6222">EdgeSnap(Edge, PolylineSnap)</text><line style="stroke:#5E5E5E;stroke-width:1.0416666666666667;" x1="698.4375" x2="752.6042" y1="384.5469" y2="384.5469"/><text fill="#D8BC00" font-family="Open Sans,Avenir,Nunito,Arial,Helvetica,SansSerif" font-size="11.4583" lengthAdjust="spacing" textLength="81.25" x="755.7292" y="388.3565">(constructors)</text><line style="stroke:#5E5E5E;stroke-width:1.0416666666666667;" x1="840.1042" x2="894.2708" y1="384.5469" y2="384.5469"/><line style="stroke:#5E5E5E;stroke-width:1.0416666666666667;" x1="698.4375" x2="894.2708" y1="418.3309" y2="418.3309"/><ellipse cx="708.8542" cy="429.7892" fill="#84BE84" rx="3.125" ry="3.125" style="stroke:#038048;stroke-width:1.0416666666666667;"/><text fill="#D8BC00" font-family="Open Sans,Avenir,Nunito,Arial,Helvetica,SansSerif" font-size="11.4583" lengthAdjust="spacing" textLength="65.625" x="720.3125" y="436.7004">Edge edge()</text><!--MD5=[a979d8a4b72014e8545a84f801dc18c1]
class EdgeSnapper--><rect codeLine="16" fill="#282828" height="67.7999" id="EdgeSnapper" rx="8.3333" ry="8.3333" style="stroke:#5E5E5E;stroke-width:1.0416666666666667;" width="213.5417" x="92.7083" y="129.2236"/><rect fill="#1B1B1A" height="31.3883" rx="8.3333" ry="8.3333" style="stroke:#1B1B1A;stroke-width:1.0416666666666667;" width="213.5417" x="92.7083" y="129.2236"/><rect fill="#1B1B1A" height="8.3333" style="stroke:#1B1B1A;stroke-width:1.0416666666666667;" width="213.5417" x="92.7083" y="152.2786"/><rect codeLine="16" fill="none" height="67.7999" id="EdgeSnapper" rx="8.3333" ry="8.3333" style="stroke:#5E5E5E;stroke-width:1.0416666666666667;" width="213.5417" x="92.7083" y="129.2236"/><ellipse cx="150.5208" cy="144.9178" fill="#0066CF" rx="10.4167" ry="10.4167" style="stroke:#0086EF;stroke-width:1.0416666666666667;"/><path d="M152.4312,149.3429 Q152.004,149.5626 151.534,149.6724 Q151.064,149.7823 150.5452,149.7823 Q148.702,149.7823 147.7315,148.5677 Q146.7611,147.3531 146.7611,145.0582 Q146.7611,142.7572 147.7315,141.5426 Q148.702,140.328 150.5452,140.328 Q151.064,140.328 151.5401,140.4378 Q152.0162,140.5477 152.4312,140.7674 L152.4312,142.7694 Q151.9674,142.3421 151.531,142.1438 Q151.0946,141.9454 150.6307,141.9454 Q149.6419,141.9454 149.1384,142.7297 Q148.6348,143.514 148.6348,145.0582 Q148.6348,146.5963 149.1384,147.3806 Q149.6419,148.1649 150.6307,148.1649 Q151.0946,148.1649 151.531,147.9665 Q151.9674,147.7681 152.4312,147.3409 Z " fill="#000000"/><text fill="#D8BC00" font-family="Open Sans,Avenir,Nunito,Arial,Helvetica,SansSerif" font-size="12.5" font-weight="bold" lengthAdjust="spacing" textLength="83.3333" x="173.4375" y="149.6419">EdgeSnapper</text><line style="stroke:#5E5E5E;stroke-width:1.5625;" x1="93.75" x2="305.2083" y1="160.612" y2="160.612"/><line style="stroke:#5E5E5E;stroke-width:1.0416666666666667;" x1="93.75" x2="305.2083" y1="168.9453" y2="168.9453"/><ellipse cx="104.1667" cy="180.4036" fill="#84BE84" rx="3.125" ry="3.125" style="stroke:#038048;stroke-width:1.0416666666666667;"/><text fill="#D8BC00" font-family="Open Sans,Avenir,Nunito,Arial,Helvetica,SansSerif" font-size="11.4583" lengthAdjust="spacing" textLength="181.25" x="115.625" y="187.3149">PolylineSnap snap(Edge, T point)</text><!--MD5=[8578e6791018b276cca9bd0f7da3cdf0]
class GraphSnap--><rect codeLine="22" fill="#282828" height="218.514" id="GraphSnap" rx="8.3333" ry="8.3333" style="stroke:#5E5E5E;stroke-width:1.0416666666666667;" width="356.25" x="343.2292" y="53.7028"/><rect fill="#1B1B1A" height="31.3883" rx="8.3333" ry="8.3333" style="stroke:#1B1B1A;stroke-width:1.0416666666666667;" width="356.25" x="343.2292" y="53.7028"/><rect fill="#1B1B1A" height="8.3333" style="stroke:#1B1B1A;stroke-width:1.0416666666666667;" width="356.25" x="343.2292" y="76.7578"/><rect codeLine="22" fill="none" height="218.514" id="GraphSnap" rx="8.3333" ry="8.3333" style="stroke:#5E5E5E;stroke-width:1.0416666666666667;" width="356.25" x="343.2292" y="53.7028"/><ellipse cx="479.1667" cy="69.397" fill="#0066CF" rx="10.4167" ry="10.4167" style="stroke:#0086EF;stroke-width:1.0416666666666667;"/><path d="M481.0771,73.822 Q480.6498,74.0417 480.1799,74.1516 Q479.7099,74.2615 479.1911,74.2615 Q477.3478,74.2615 476.3774,73.0469 Q475.4069,71.8323 475.4069,69.5374 Q475.4069,67.2363 476.3774,66.0217 Q477.3478,64.8071 479.1911,64.8071 Q479.7099,64.8071 480.186,64.917 Q480.662,65.0269 481.0771,65.2466 L481.0771,67.2485 Q480.6132,66.8213 480.1768,66.6229 Q479.7404,66.4246 479.2765,66.4246 Q478.2878,66.4246 477.7842,67.2089 Q477.2807,67.9932 477.2807,69.5374 Q477.2807,71.0754 477.7842,71.8597 Q478.2878,72.644 479.2765,72.644 Q479.7404,72.644 480.1768,72.4457 Q480.6132,72.2473 481.0771,71.8201 Z " fill="#000000"/><text fill="#D8BC00" font-family="Open Sans,Avenir,Nunito,Arial,Helvetica,SansSerif" font-size="12.5" font-weight="bold" lengthAdjust="spacing" textLength="69.7917" x="502.0833" y="74.1211">GraphSnap</text><line style="stroke:#5E5E5E;stroke-width:1.5625;" x1="344.2708" x2="698.4375" y1="85.0911" y2="85.0911"/><ellipse cx="354.6875" cy="120.461" fill="#84BE84" rx="3.125" ry="3.125" style="stroke:#038048;stroke-width:1.0416666666666667;"/><text fill="#D8BC00" font-family="Open Sans,Avenir,Nunito,Arial,Helvetica,SansSerif" font-size="11.4583" lengthAdjust="spacing" textLength="323.9583" x="366.1458" y="127.3722">GraphSnap(Edge, PolylineSnap, Map&lt;Edge, PolylineSnap&gt;)</text><line style="stroke:#5E5E5E;stroke-width:1.0416666666666667;" x1="344.2708" x2="477.6042" y1="103.2969" y2="103.2969"/><text fill="#D8BC00" font-family="Open Sans,Avenir,Nunito,Arial,Helvetica,SansSerif" font-size="11.4583" lengthAdjust="spacing" textLength="81.25" x="480.7292" y="107.1065">(constructors)</text><line style="stroke:#5E5E5E;stroke-width:1.0416666666666667;" x1="565.1042" x2="698.4375" y1="103.2969" y2="103.2969"/><line style="stroke:#5E5E5E;stroke-width:1.0416666666666667;" x1="344.2708" x2="698.4375" y1="137.0809" y2="137.0809"/><ellipse cx="354.6875" cy="148.5392" fill="#84BE84" rx="3.125" ry="3.125" style="stroke:#038048;stroke-width:1.0416666666666667;"/><text fill="#D8BC00" font-family="Open Sans,Avenir,Nunito,Arial,Helvetica,SansSerif" font-size="11.4583" lengthAdjust="spacing" textLength="105.2083" x="366.1458" y="155.4504">Edge closestEdge()</text><ellipse cx="354.6875" cy="168.2841" fill="#84BE84" rx="3.125" ry="3.125" style="stroke:#038048;stroke-width:1.0416666666666667;"/><text fill="#D8BC00" font-family="Open Sans,Avenir,Nunito,Arial,Helvetica,SansSerif" font-size="11.4583" lengthAdjust="spacing" textLength="152.0833" x="366.1458" y="175.1953">PolylineSnap polylineSnap()</text><ellipse cx="354.6875" cy="211.9405" fill="#84BE84" rx="3.125" ry="3.125" style="stroke:#038048;stroke-width:1.0416666666666667;"/><text fill="#D8BC00" font-family="Open Sans,Avenir,Nunito,Arial,Helvetica,SansSerif" font-size="11.4583" lengthAdjust="spacing" textLength="130.2083" x="366.1458" y="218.8517">boolean isAmbiguous()</text><line style="stroke:#5E5E5E;stroke-width:1.0416666666666667;" x1="344.2708" x2="494.7917" y1="194.7764" y2="194.7764"/><text fill="#D8BC00" font-family="Open Sans,Avenir,Nunito,Arial,Helvetica,SansSerif" font-size="11.4583" lengthAdjust="spacing" textLength="46.875" x="497.9167" y="198.586">(checks)</text><line style="stroke:#5E5E5E;stroke-width:1.0416666666666667;" x1="547.9167" x2="698.4375" y1="194.7764" y2="194.7764"/><ellipse cx="354.6875" cy="255.5969" fill="#84BE84" rx="3.125" ry="3.125" style="stroke:#038048;stroke-width:1.0416666666666667;"/><text fill="#D8BC00" font-family="Open Sans,Avenir,Nunito,Arial,Helvetica,SansSerif" font-size="11.4583" lengthAdjust="spacing" textLength="213.5417" x="366.1458" y="262.5081">Map&lt;Edge,PolylineSnap&gt; candidates()</text><line style="stroke:#5E5E5E;stroke-width:1.0416666666666667;" x1="344.2708" x2="486.9792" y1="238.4328" y2="238.4328"/><text fill="#D8BC00" font-family="Open Sans,Avenir,Nunito,Arial,Helvetica,SansSerif" font-size="11.4583" lengthAdjust="spacing" textLength="62.5" x="490.1042" y="242.2424">(collection)</text><line style="stroke:#5E5E5E;stroke-width:1.0416666666666667;" x1="555.7292" x2="698.4375" y1="238.4328" y2="238.4328"/><!--MD5=[a9e3935bc63674077a648ebab4cf3b0f]
class GraphSnapper--><rect codeLine="35" fill="#282828" height="111.4563" id="GraphSnapper" rx="8.3333" ry="8.3333" style="stroke:#5E5E5E;stroke-width:1.0416666666666667;" width="384.375" x="7.2917" y="334.9528"/><rect fill="#1B1B1A" height="31.3883" rx="8.3333" ry="8.3333" style="stroke:#1B1B1A;stroke-width:1.0416666666666667;" width="384.375" x="7.2917" y="334.9528"/><rect fill="#1B1B1A" height="8.3333" style="stroke:#1B1B1A;stroke-width:1.0416666666666667;" width="384.375" x="7.2917" y="358.0078"/><rect codeLine="35" fill="none" height="111.4563" id="GraphSnapper" rx="8.3333" ry="8.3333" style="stroke:#5E5E5E;stroke-width:1.0416666666666667;" width="384.375" x="7.2917" y="334.9528"/><ellipse cx="146.875" cy="350.647" fill="#0066CF" rx="10.4167" ry="10.4167" style="stroke:#0086EF;stroke-width:1.0416666666666667;"/><path d="M148.7854,355.072 Q148.3582,355.2917 147.8882,355.4016 Q147.4182,355.5115 146.8994,355.5115 Q145.0562,355.5115 144.0857,354.2969 Q143.1152,353.0823 143.1152,350.7874 Q143.1152,348.4863 144.0857,347.2717 Q145.0562,346.0571 146.8994,346.0571 Q147.4182,346.0571 147.8943,346.167 Q148.3704,346.2769 148.7854,346.4966 L148.7854,348.4985 Q148.3215,348.0713 147.8851,347.8729 Q147.4487,347.6746 146.9849,347.6746 Q145.9961,347.6746 145.4926,348.4589 Q144.989,349.2432 144.989,350.7874 Q144.989,352.3254 145.4926,353.1097 Q145.9961,353.894 146.9849,353.894 Q147.4487,353.894 147.8851,353.6957 Q148.3215,353.4973 148.7854,353.0701 Z " fill="#000000"/><text fill="#D8BC00" font-family="Open Sans,Avenir,Nunito,Arial,Helvetica,SansSerif" font-size="12.5" font-weight="bold" lengthAdjust="spacing" textLength="90.625" x="169.7917" y="355.3711">GraphSnapper</text><line style="stroke:#5E5E5E;stroke-width:1.5625;" x1="8.3333" x2="390.625" y1="366.3411" y2="366.3411"/><ellipse cx="18.75" cy="401.711" fill="#84BE84" rx="3.125" ry="3.125" style="stroke:#038048;stroke-width:1.0416666666666667;"/><text fill="#D8BC00" font-family="Open Sans,Avenir,Nunito,Arial,Helvetica,SansSerif" font-size="11.4583" lengthAdjust="spacing" textLength="352.0833" x="30.2083" y="408.6222">GraphSnapper(Graph, Distance, Heading, Edge.TransportMode)</text><line style="stroke:#5E5E5E;stroke-width:1.0416666666666667;" x1="8.3333" x2="155.7292" y1="384.5469" y2="384.5469"/><text fill="#D8BC00" font-family="Open Sans,Avenir,Nunito,Arial,Helvetica,SansSerif" font-size="11.4583" lengthAdjust="spacing" textLength="81.25" x="158.8542" y="388.3565">(constructors)</text><line style="stroke:#5E5E5E;stroke-width:1.0416666666666667;" x1="243.2292" x2="390.625" y1="384.5469" y2="384.5469"/><line style="stroke:#5E5E5E;stroke-width:1.0416666666666667;" x1="8.3333" x2="390.625" y1="418.3309" y2="418.3309"/><ellipse cx="18.75" cy="429.7892" fill="#84BE84" rx="3.125" ry="3.125" style="stroke:#038048;stroke-width:1.0416666666666667;"/><text fill="#D8BC00" font-family="Open Sans,Avenir,Nunito,Arial,Helvetica,SansSerif" font-size="11.4583" lengthAdjust="spacing" textLength="200" x="30.2083" y="436.7004">GraphSnap snap(Location, Heading)</text><!--MD5=[e44d25c1eba12ca1a15a731a64980e35]
class IndexedEdgeSnap--><rect codeLine="44" fill="#282828" height="146.7794" id="IndexedEdgeSnap" rx="8.3333" ry="8.3333" style="stroke:#5E5E5E;stroke-width:1.0416666666666667;" width="263.5417" x="664.5833" y="508.9111"/><rect fill="#1B1B1A" height="31.3883" rx="8.3333" ry="8.3333" style="stroke:#1B1B1A;stroke-width:1.0416666666666667;" width="263.5417" x="664.5833" y="508.9111"/><rect fill="#1B1B1A" height="8.3333" style="stroke:#1B1B1A;stroke-width:1.0416666666666667;" width="263.5417" x="664.5833" y="531.9661"/><rect codeLine="44" fill="none" height="146.7794" id="IndexedEdgeSnap" rx="8.3333" ry="8.3333" style="stroke:#5E5E5E;stroke-width:1.0416666666666667;" width="263.5417" x="664.5833" y="508.9111"/><ellipse cx="732.2917" cy="524.6053" fill="#0066CF" rx="10.4167" ry="10.4167" style="stroke:#0086EF;stroke-width:1.0416666666666667;"/><path d="M734.2021,529.0304 Q733.7748,529.2501 733.3049,529.3599 Q732.8349,529.4698 732.3161,529.4698 Q730.4728,529.4698 729.5024,528.2552 Q728.5319,527.0406 728.5319,524.7457 Q728.5319,522.4447 729.5024,521.2301 Q730.4728,520.0155 732.3161,520.0155 Q732.8349,520.0155 733.311,520.1253 Q733.787,520.2352 734.2021,520.4549 L734.2021,522.4569 Q733.7382,522.0296 733.3018,521.8313 Q732.8654,521.6329 732.4015,521.6329 Q731.4128,521.6329 730.9092,522.4172 Q730.4057,523.2015 730.4057,524.7457 Q730.4057,526.2838 730.9092,527.0681 Q731.4128,527.8524 732.4015,527.8524 Q732.8654,527.8524 733.3018,527.654 Q733.7382,527.4556 734.2021,527.0284 Z " fill="#000000"/><text fill="#D8BC00" font-family="Open Sans,Avenir,Nunito,Arial,Helvetica,SansSerif" font-size="12.5" font-weight="bold" lengthAdjust="spacing" textLength="113.5417" x="755.2083" y="529.3294">IndexedEdgeSnap</text><line style="stroke:#5E5E5E;stroke-width:1.5625;" x1="665.625" x2="927.0833" y1="540.2995" y2="540.2995"/><ellipse cx="676.0417" cy="575.6694" fill="#84BE84" rx="3.125" ry="3.125" style="stroke:#038048;stroke-width:1.0416666666666667;"/><text fill="#D8BC00" font-family="Open Sans,Avenir,Nunito,Arial,Helvetica,SansSerif" font-size="11.4583" lengthAdjust="spacing" textLength="231.25" x="687.5" y="582.5806">IndexedEdgeSnap(Edge, PolylineSnap, int)</text><ellipse cx="676.0417" cy="595.4142" fill="#84BE84" rx="3.125" ry="3.125" style="stroke:#038048;stroke-width:1.0416666666666667;"/><text fill="#D8BC00" font-family="Open Sans,Avenir,Nunito,Arial,Helvetica,SansSerif" font-size="11.4583" lengthAdjust="spacing" textLength="182.2917" x="687.5" y="602.3254">IndexedEdgeSnap(EdgeSnap, int)</text><line style="stroke:#5E5E5E;stroke-width:1.0416666666666667;" x1="665.625" x2="752.6042" y1="558.5052" y2="558.5052"/><text fill="#D8BC00" font-family="Open Sans,Avenir,Nunito,Arial,Helvetica,SansSerif" font-size="11.4583" lengthAdjust="spacing" textLength="81.25" x="755.7292" y="562.3149">(constructors)</text><line style="stroke:#5E5E5E;stroke-width:1.0416666666666667;" x1="840.1042" x2="927.0833" y1="558.5052" y2="558.5052"/><ellipse cx="676.0417" cy="639.0706" fill="#84BE84" rx="3.125" ry="3.125" style="stroke:#038048;stroke-width:1.0416666666666667;"/><text fill="#D8BC00" font-family="Open Sans,Avenir,Nunito,Arial,Helvetica,SansSerif" font-size="11.4583" lengthAdjust="spacing" textLength="57.2917" x="687.5" y="645.9819">int index()</text><line style="stroke:#5E5E5E;stroke-width:1.0416666666666667;" x1="665.625" x2="761.9792" y1="621.9065" y2="621.9065"/><text fill="#D8BC00" font-family="Open Sans,Avenir,Nunito,Arial,Helvetica,SansSerif" font-size="11.4583" lengthAdjust="spacing" textLength="62.5" x="765.1042" y="625.7161">(collection)</text><line style="stroke:#5E5E5E;stroke-width:1.0416666666666667;" x1="830.7292" x2="927.0833" y1="621.9065" y2="621.9065"/><!--MD5=[db60eb2f7913e06d9edb35b6a60674fe]
reverse link PolylineSnap to EdgeSnap--><path codeLine="7" d="M796.3542,208.6924 C796.3542,244.7965 796.3542,295.8278 796.3542,334.4945 " fill="none" id="PolylineSnap-backto-EdgeSnap" style="stroke:#545454;stroke-width:1.5625;"/><polygon fill="none" points="789.0625,208.234,796.3542,187.4007,803.6458,208.234,789.0625,208.234" style="stroke:#545454;stroke-width:1.5625;"/><!--MD5=[a9ab3a0631c3d670afa87716875cfc32]
reverse link EdgeSnap to IndexedEdgeSnap--><path codeLine="43" d="M796.3542,467.7965 C796.3542,481.2549 796.3542,495.234 796.3542,508.5986 " fill="none" id="EdgeSnap-backto-IndexedEdgeSnap" style="stroke:#545454;stroke-width:1.5625;"/><polygon fill="none" points="789.0625,467.3903,796.3542,446.557,803.6458,467.3903,789.0625,467.3903" style="stroke:#545454;stroke-width:1.5625;"/><!--MD5=[90f997076c2ceb745eb7f65a8105ff8f]
link EdgeSnapper to GraphSnap--><!--MD5=[56cac920cd254ac3c26d6140db987d25]
link EdgeSnapper to GraphSnapper--><!--MD5=[45bd700fc290ac4d75d433945a6a9d8b]
@startuml

    !include lexakai.theme
    
    title "com.telenav.mesakit.graph.matching.snapping"
    
    PolylineSnap <|- - EdgeSnap
    class EdgeSnap
    {
        - -(constructors)- -
        +EdgeSnap(Edge, PolylineSnap)
        - -
        +Edge edge()
    }
    
    class EdgeSnapper
    {
        - -
        +PolylineSnap snap(Edge, T point)
    }
    
    class GraphSnap
    {
        - -(constructors)- -
        +GraphSnap(Edge, PolylineSnap, Map<Edge, PolylineSnap>)
        - -
        +Edge closestEdge()
        +PolylineSnap polylineSnap()
        - -(checks)- -
        +boolean isAmbiguous()
        - -(collection)- -
        +Map<Edge,PolylineSnap> candidates()
    }
    
    class GraphSnapper
    {
        - -(constructors)- -
        +GraphSnapper(Graph, Distance, Heading, Edge.TransportMode)
        - -
        +GraphSnap snap(Location, Heading)
    }
    
    EdgeSnap <|- - IndexedEdgeSnap
    class IndexedEdgeSnap
    {
        - -(constructors)- -
        +IndexedEdgeSnap(Edge, PolylineSnap, int)
        +IndexedEdgeSnap(EdgeSnap, int)
        - -(collection)- -
        +int index()
    }
    
@enduml

@startuml









skinparam backgroundColor #333333






skinparam  {
    defaultFontName   "Open Sans,Avenir,Nunito,Arial,Helvetica,SansSerif"
    defaultFontSize   12
    defaultTextAlignment left
    shadowing false
    RoundCorner 10
    TitleFontSize 18
}

skinparam defaultFontName       "Open Sans,Avenir,Nunito,Arial,Helvetica,SansSerif"
skinparam defaultFontSize       12
skinparam dpi                   100
skinparam shadowing             false
skinparam roundcorner           16
skinparam ParticipantPadding    40
skinparam BoxPadding            40
skinparam Padding               3
skinparam ArrowColor            #545454
skinparam stereotype {
    CBackgroundColor #0066cf
    CBorderColor #0086ef
    ABackgroundColor #C8Ac00
    ABorderColor #D8Bc00
    IBackgroundColor #008400
    IBorderColor #239c23
    EBackgroundColor #cf6300
    EBorderColor #ef8300
    NBackgroundColor #3380b9
    NBorderColor #004d86
}
skinparam title {
	FontColor	                 #c0c0c0
 	BorderColor                  #545454
	FontSize	    	         20
	BorderRoundCorner            16
	BorderThickness 	         1
	BackgroundColor              #48494b
}


skinparam legend {
	BackgroundColor #303030
	BorderColor #404040
	FontColor #a0a0a0
}

	skinparam swimlane {
	BorderColor #5e5e5e
	BorderThickness 2
	TitleBackgroundColor  #6d6d6d-#484848
	TitleFontColor #303030
}

skinparam activity {
		FontColor #C8Ac00
	BorderColor #333333
	BackgroundColor #333333-#333333
	BarColor #00FF00
	StartColor #0060a8
	EndColor #0060a8
	DiamondBackgroundColor #6d6d6d-#3a3a3a
  	DiamondBorderColor #3a3a3a
  	DiamondFontColor #fefefe
}


skinparam participant {
		FontColor #C8Ac00
	BorderColor #333333
	BackgroundColor #333333-#333333
	ParticipantBorderThickness 2
}


skinparam actor {
		FontColor #C8Ac00
	BorderColor #333333
	BackgroundColor #333333-#333333
}


skinparam arrow {
	Thickness 1.5
	Color #545454
	FontColor #a0a0a0
    FontStyle bold
    MessageAlignment center
}



skinparam sequence {
	BorderColor #303030
	TitleFontColor #303030
	BackgroundColor #333333
	StartColor #303030
	EndColor #303030
	BoxBackgroundColor #333333
	BoxBorderColor #484848
	BoxFontColor #484848
	LifeLineBorderColor #484848
	LifeLineBorderThickness 2
	LifeLineBackgroundColor #3a3a3a
	GroupBorderColor #484848
	GroupFontColor #484848
	GroupHeaderFontColor #0060a8
	GroupBackgroundColor #484848
	GroupHeaderBackgroundColor #333333
	DividerBackgroundColor #484848
    DividerBorderColor #484848
    DividerBorderThickness 2
    DividerFontColor #D8Bc00
	ReferenceBackgroundColor #333333
	ReferenceBorderColor #484848
	ReferenceFontColor #fefefe
	ReferenceHeaderBackgroundColor #484848
}


skinparam partition {
	BorderColor #303030
	FontColor #333333
	BackgroundColor #333333
}


skinparam collections {
		FontColor #C8Ac00
	BorderColor #333333
	BackgroundColor #333333-#333333
}


skinparam control {
		FontColor #C8Ac00
	BorderColor #333333
	BackgroundColor #333333-#333333
}


skinparam entity {
		FontColor #C8Ac00
	BorderColor #333333
	BackgroundColor #333333-#333333
}


skinparam boundary {
		FontColor #C8Ac00
	BorderColor #333333
	BackgroundColor #333333-#333333
}


skinparam agent {
	BackgroundColor #ff8000
	BorderColor #ff9933
	FontColor #484848
}


skinparam note {
	BorderThickness 1
	BackgroundColor #1b1b1a
	BorderColor #5e5e5e
	FontSize 11
	FontColor #a0a0a0
}


skinparam artifact {
	BorderThickness 10
	BorderColor #5e5e5e
	BackgroundColor #1b1b1a
	FontColor #D8Bc00
}


skinparam component {
		FontColor #C8Ac00
	BorderColor #333333
	BackgroundColor #333333-#333333
}


skinparam interface {
	BackgroundColor  #008400
	BorderColor  #007F00
	FontColor #484848
}


skinparam storage {
	BackgroundColor #ff8000
  	BorderColor #cc6600
	FontColor #222222
}


skinparam node {
	BackgroundColor #333333
	BorderColor #333333
	FontColor #C8Ac00
}


skinparam cloud {
	BackgroundColor #484848-black
	BorderColor #484848
	FontColor #D8Bc00
}


skinparam database {
		FontColor #C8Ac00
	BorderColor #333333
	BackgroundColor #333333-#333333
	BackgroundColor  #333333
}


skinparam class {
		FontColor #C8Ac00
	BorderColor #333333
	BackgroundColor #333333-#333333
	HeaderBackgroundColor #1b1b1a
    BackgroundColor #282828
    BorderColor #5e5e5e
 	StereotypeFontColor #a0a0a0
    StereotypeFontStyle bold
	BorderThickness 1
	AttributeFontColor #D8Bc00
	AttributeFontSize 11
    FontColor #D8Bc00
    FontStyle bold
}


skinparam object {
		FontColor #C8Ac00
	BorderColor #333333
	BackgroundColor #333333-#333333
	StereotypeFontColor #484848
	BorderThickness 1
	AttributeFontColor #fefefe
	AttributeFontSize 11
}


skinparam usecase {
		FontColor #C8Ac00
	BorderColor #333333
	BackgroundColor #333333-#333333
	BorderThickness 2
	StereotypeFontColor #303030
}


skinparam rectangle {
		FontColor #C8Ac00
	BorderColor #333333
	BackgroundColor #333333-#333333
	BackgroundColor #333333
	BorderThickness 2
	StereotypeFontColor #303030
}


skinparam package {
		FontColor #C8Ac00
	BorderColor #333333
	BackgroundColor #333333-#333333
	BackgroundColor #333333
	BorderThickness 2
}


skinparam folder {
	BackgroundColor #6d6d6d
  	BorderColor #ff8000
	FontColor #ff8000
	BorderThickness 2
}


skinparam frame {
	BackgroundColor #6d6d6d
  	BorderColor #0060a8
	FontColor #0060a8
	BorderThickness 2
}


skinparam state {
		FontColor #C8Ac00
	BorderColor #333333
	BackgroundColor #333333-#333333
	StartColor #0060a8
	EndColor #0060a8
	AttributeFontColor #fefefe
	AttributeFontSize 11
}


skinparam queue {
		FontColor #C8Ac00
	BorderColor #333333
	BackgroundColor #333333-#333333
}


skinparam card {
	BackgroundColor #0060a8
	BorderColor #004d86
	FontColor $INFO_TEXT
}


skinparam file {
	BackgroundColor #6d6d6d-#484848
	BorderColor #0060a8
	FontColor #fefefe
}


skinparam stack {
		FontColor #C8Ac00
	BorderColor #333333
	BackgroundColor #333333-#333333
}

    
    title "com.telenav.mesakit.graph.matching.snapping"
    
    PolylineSnap <|- - EdgeSnap
    class EdgeSnap
    {
        - -(constructors)- -
        +EdgeSnap(Edge, PolylineSnap)
        - -
        +Edge edge()
    }
    
    class EdgeSnapper
    {
        - -
        +PolylineSnap snap(Edge, T point)
    }
    
    class GraphSnap
    {
        - -(constructors)- -
        +GraphSnap(Edge, PolylineSnap, Map<Edge, PolylineSnap>)
        - -
        +Edge closestEdge()
        +PolylineSnap polylineSnap()
        - -(checks)- -
        +boolean isAmbiguous()
        - -(collection)- -
        +Map<Edge,PolylineSnap> candidates()
    }
    
    class GraphSnapper
    {
        - -(constructors)- -
        +GraphSnapper(Graph, Distance, Heading, Edge.TransportMode)
        - -
        +GraphSnap snap(Location, Heading)
    }
    
    EdgeSnap <|- - IndexedEdgeSnap
    class IndexedEdgeSnap
    {
        - -(constructors)- -
        +IndexedEdgeSnap(Edge, PolylineSnap, int)
        +IndexedEdgeSnap(EdgeSnap, int)
        - -(collection)- -
        +int index()
    }
    
@enduml

PlantUML version 1.2021.01(Tue Feb 02 02:55:08 EST 2021)
(GPL source distribution)
Java Runtime: OpenJDK Runtime Environment
JVM: OpenJDK 64-Bit Server VM
Default Encoding: UTF-8
Language: en
Country: US
--></g></svg>