<?xml version="1.0" encoding="UTF-8" standalone="no"?><svg xmlns="http://www.w3.org/2000/svg" xmlns:xlink="http://www.w3.org/1999/xlink" contentScriptType="application/ecmascript" contentStyleType="text/css" height="385.4167px" preserveAspectRatio="none" style="width:1536px;height:385px;background:#333333;" version="1.1" viewBox="0 0 1536 385" width="1536.4583px" zoomAndPan="magnify"><defs/><g><rect fill="#48494B" height="41.2028" rx="8.3333" ry="8.3333" style="stroke:#545454;stroke-width:1.0416666666666667;" width="703.125" x="409.375" y="2.0833"/><text fill="#C0C0C0" font-family="Open Sans,Avenir,Nunito,Arial,Helvetica,SansSerif" font-size="20.8333" lengthAdjust="spacing" textLength="680.2083" x="420.8333" y="30.5583">com.telenav.mesakit.graph.specifications.common.edge.store.index</text><!--MD5=[762aa3d0df6a9d47bd8e105afbd066b5]
class BaseRepeater--><rect codeLine="7" fill="#282828" height="48.055" id="BaseRepeater" rx="8.3333" ry="8.3333" style="stroke:#5E5E5E;stroke-width:1.0416666666666667;" width="123.9583" x="88.0208" y="53.7028"/><rect fill="#1B1B1A" height="31.3883" rx="8.3333" ry="8.3333" style="stroke:#1B1B1A;stroke-width:1.0416666666666667;" width="123.9583" x="88.0208" y="53.7028"/><rect fill="#1B1B1A" height="8.3333" style="stroke:#1B1B1A;stroke-width:1.0416666666666667;" width="123.9583" x="88.0208" y="76.7578"/><rect codeLine="7" fill="none" height="48.055" id="BaseRepeater" rx="8.3333" ry="8.3333" style="stroke:#5E5E5E;stroke-width:1.0416666666666667;" width="123.9583" x="88.0208" y="53.7028"/><ellipse cx="102.6042" cy="69.397" fill="#C8AC00" rx="10.4167" ry="10.4167" style="stroke:#D8BC00;stroke-width:1.0416666666666667;"/><path d="M102.1973,66.099 L101.3489,69.8283 L103.0518,69.8283 Z M101.0986,64.4511 L103.302,64.4511 L105.7617,73.5636 L103.9612,73.5636 L103.3997,71.3114 L100.9888,71.3114 L100.4395,73.5636 L98.6389,73.5636 Z " fill="#000000"/><text fill="#D8BC00" font-family="Open Sans,Avenir,Nunito,Arial,Helvetica,SansSerif" font-size="12.5" font-style="italic" font-weight="bold" lengthAdjust="spacing" textLength="86.4583" x="119.2708" y="74.1211">BaseRepeater</text><line style="stroke:#5E5E5E;stroke-width:1.0416666666666667;" x1="89.0625" x2="210.9375" y1="85.0911" y2="85.0911"/><line style="stroke:#5E5E5E;stroke-width:1.0416666666666667;" x1="89.0625" x2="210.9375" y1="93.4245" y2="93.4245"/><!--MD5=[5cc06ecdd9480702b567e3f11ad511a4]
class NamedObject--><rect codeLine="9" fill="#282828" height="48.055" id="NamedObject" rx="8.3333" ry="8.3333" style="stroke:#5E5E5E;stroke-width:1.0416666666666667;" width="123.9583" x="594.2708" y="53.7028"/><rect fill="#1B1B1A" height="31.3883" rx="8.3333" ry="8.3333" style="stroke:#1B1B1A;stroke-width:1.0416666666666667;" width="123.9583" x="594.2708" y="53.7028"/><rect fill="#1B1B1A" height="8.3333" style="stroke:#1B1B1A;stroke-width:1.0416666666666667;" width="123.9583" x="594.2708" y="76.7578"/><rect codeLine="9" fill="none" height="48.055" id="NamedObject" rx="8.3333" ry="8.3333" style="stroke:#5E5E5E;stroke-width:1.0416666666666667;" width="123.9583" x="594.2708" y="53.7028"/><ellipse cx="608.8542" cy="69.397" fill="#008400" rx="10.4167" ry="10.4167" style="stroke:#239C23;stroke-width:1.0416666666666667;"/><path d="M606.2581,66.5588 L606.2581,64.9719 L611.6842,64.9719 L611.6842,66.5588 L609.8714,66.5588 L609.8714,72.4976 L611.6842,72.4976 L611.6842,74.0845 L606.2581,74.0845 L606.2581,72.4976 L608.0709,72.4976 L608.0709,66.5588 Z " fill="#000000"/><text fill="#D8BC00" font-family="Open Sans,Avenir,Nunito,Arial,Helvetica,SansSerif" font-size="12.5" font-style="italic" font-weight="bold" lengthAdjust="spacing" textLength="86.4583" x="625.5208" y="74.1211">NamedObject</text><line style="stroke:#5E5E5E;stroke-width:1.0416666666666667;" x1="595.3125" x2="717.1875" y1="85.0911" y2="85.0911"/><line style="stroke:#5E5E5E;stroke-width:1.0416666666666667;" x1="595.3125" x2="717.1875" y1="93.4245" y2="93.4245"/><!--MD5=[093b953be813e764de2c1810942591fd]
class CompressibleCollection--><rect codeLine="10" fill="#282828" height="48.055" id="CompressibleCollection" rx="8.3333" ry="8.3333" style="stroke:#5E5E5E;stroke-width:1.0416666666666667;" width="192.7083" x="770.3125" y="53.7028"/><rect fill="#1B1B1A" height="31.3883" rx="8.3333" ry="8.3333" style="stroke:#1B1B1A;stroke-width:1.0416666666666667;" width="192.7083" x="770.3125" y="53.7028"/><rect fill="#1B1B1A" height="8.3333" style="stroke:#1B1B1A;stroke-width:1.0416666666666667;" width="192.7083" x="770.3125" y="76.7578"/><rect codeLine="10" fill="none" height="48.055" id="CompressibleCollection" rx="8.3333" ry="8.3333" style="stroke:#5E5E5E;stroke-width:1.0416666666666667;" width="192.7083" x="770.3125" y="53.7028"/><ellipse cx="784.8958" cy="69.397" fill="#008400" rx="10.4167" ry="10.4167" style="stroke:#239C23;stroke-width:1.0416666666666667;"/><path d="M782.2998,66.5588 L782.2998,64.9719 L787.7258,64.9719 L787.7258,66.5588 L785.9131,66.5588 L785.9131,72.4976 L787.7258,72.4976 L787.7258,74.0845 L782.2998,74.0845 L782.2998,72.4976 L784.1125,72.4976 L784.1125,66.5588 Z " fill="#000000"/><text fill="#D8BC00" font-family="Open Sans,Avenir,Nunito,Arial,Helvetica,SansSerif" font-size="12.5" font-style="italic" font-weight="bold" lengthAdjust="spacing" textLength="155.2083" x="801.5625" y="74.1211">CompressibleCollection</text><line style="stroke:#5E5E5E;stroke-width:1.0416666666666667;" x1="771.3542" x2="961.9792" y1="85.0911" y2="85.0911"/><line style="stroke:#5E5E5E;stroke-width:1.0416666666666667;" x1="771.3542" x2="961.9792" y1="93.4245" y2="93.4245"/><!--MD5=[7bf64e2856b5b716eeaa609c8bad3197]
class CompressedEdgeBulkSpatialIndexer--><rect codeLine="14" fill="#282828" height="174.8576" id="CompressedEdgeBulkSpatialIndexer" rx="8.3333" ry="8.3333" style="stroke:#5E5E5E;stroke-width:1.0416666666666667;" width="285.4167" x="7.2917" y="183.9111"/><rect fill="#1B1B1A" height="31.3883" rx="8.3333" ry="8.3333" style="stroke:#1B1B1A;stroke-width:1.0416666666666667;" width="285.4167" x="7.2917" y="183.9111"/><rect fill="#1B1B1A" height="8.3333" style="stroke:#1B1B1A;stroke-width:1.0416666666666667;" width="285.4167" x="7.2917" y="206.9661"/><rect codeLine="14" fill="none" height="174.8576" id="CompressedEdgeBulkSpatialIndexer" rx="8.3333" ry="8.3333" style="stroke:#5E5E5E;stroke-width:1.0416666666666667;" width="285.4167" x="7.2917" y="183.9111"/><ellipse cx="28.4375" cy="199.6053" fill="#0066CF" rx="10.4167" ry="10.4167" style="stroke:#0086EF;stroke-width:1.0416666666666667;"/><path d="M30.3479,204.0304 Q29.9207,204.2501 29.4507,204.3599 Q28.9807,204.4698 28.4619,204.4698 Q26.6187,204.4698 25.6482,203.2552 Q24.6777,202.0406 24.6777,199.7457 Q24.6777,197.4447 25.6482,196.2301 Q26.6187,195.0155 28.4619,195.0155 Q28.9807,195.0155 29.4568,195.1253 Q29.9329,195.2352 30.3479,195.4549 L30.3479,197.4569 Q29.884,197.0296 29.4476,196.8313 Q29.0112,196.6329 28.5474,196.6329 Q27.5586,196.6329 27.0551,197.4172 Q26.5515,198.2015 26.5515,199.7457 Q26.5515,201.2838 27.0551,202.0681 Q27.5586,202.8524 28.5474,202.8524 Q29.0112,202.8524 29.4476,202.654 Q29.884,202.4556 30.3479,202.0284 Z " fill="#000000"/><text fill="#D8BC00" font-family="Open Sans,Avenir,Nunito,Arial,Helvetica,SansSerif" font-size="12.5" font-weight="bold" lengthAdjust="spacing" textLength="233.3333" x="46.5625" y="204.3294">CompressedEdgeBulkSpatialIndexer</text><line style="stroke:#5E5E5E;stroke-width:1.5625;" x1="8.3333" x2="291.6667" y1="215.2995" y2="215.2995"/><ellipse cx="18.75" cy="250.6694" fill="#84BE84" rx="3.125" ry="3.125" style="stroke:#038048;stroke-width:1.0416666666666667;"/><text fill="#D8BC00" font-family="Open Sans,Avenir,Nunito,Arial,Helvetica,SansSerif" font-size="11.4583" lengthAdjust="spacing" textLength="253.125" x="30.2083" y="257.5806">CompressedEdgeBulkSpatialIndexer(Listener)</text><line style="stroke:#5E5E5E;stroke-width:1.0416666666666667;" x1="8.3333" x2="106.25" y1="233.5052" y2="233.5052"/><text fill="#D8BC00" font-family="Open Sans,Avenir,Nunito,Arial,Helvetica,SansSerif" font-size="11.4583" lengthAdjust="spacing" textLength="81.25" x="109.375" y="237.3149">(constructors)</text><line style="stroke:#5E5E5E;stroke-width:1.0416666666666667;" x1="193.75" x2="291.6667" y1="233.5052" y2="233.5052"/><line style="stroke:#5E5E5E;stroke-width:1.0416666666666667;" x1="8.3333" x2="291.6667" y1="267.2892" y2="267.2892"/><ellipse cx="18.75" cy="278.7476" fill="#84BE84" rx="3.125" ry="3.125" style="stroke:#038048;stroke-width:1.0416666666666667;"/><text fill="#D8BC00" font-family="Open Sans,Avenir,Nunito,Arial,Helvetica,SansSerif" font-size="11.4583" lengthAdjust="spacing" textLength="213.5417" x="30.2083" y="285.6588">int compareHorizontal(Edge a, Edge b)</text><ellipse cx="18.75" cy="298.4924" fill="#84BE84" rx="3.125" ry="3.125" style="stroke:#038048;stroke-width:1.0416666666666667;"/><text fill="#D8BC00" font-family="Open Sans,Avenir,Nunito,Arial,Helvetica,SansSerif" font-size="11.4583" lengthAdjust="spacing" textLength="196.875" x="30.2083" y="305.4036">int compareVertical(Edge a, Edge b)</text><ellipse cx="18.75" cy="342.1488" fill="#84BE84" rx="3.125" ry="3.125" style="stroke:#038048;stroke-width:1.0416666666666667;"/><text fill="#D8BC00" font-family="Open Sans,Avenir,Nunito,Arial,Helvetica,SansSerif" font-size="11.4583" lengthAdjust="spacing" textLength="242.7083" x="30.2083" y="349.0601">CompressedEdgeSpatialIndex index(Graph)</text><line style="stroke:#5E5E5E;stroke-width:1.0416666666666667;" x1="8.3333" x2="115.625" y1="324.9847" y2="324.9847"/><text fill="#D8BC00" font-family="Open Sans,Avenir,Nunito,Arial,Helvetica,SansSerif" font-size="11.4583" lengthAdjust="spacing" textLength="62.5" x="118.75" y="328.7944">(collection)</text><line style="stroke:#5E5E5E;stroke-width:1.0416666666666667;" x1="184.375" x2="291.6667" y1="324.9847" y2="324.9847"/><!--MD5=[295f67524e811f6b3cc3b383e4d5b352]
class CompressedEdgeListStore--><rect codeLine="27" fill="#282828" height="214.3473" id="CompressedEdgeListStore" rx="8.3333" ry="8.3333" style="stroke:#5E5E5E;stroke-width:1.0416666666666667;" width="261.4583" x="684.8958" y="164.1195"/><rect fill="#1B1B1A" height="31.3883" rx="8.3333" ry="8.3333" style="stroke:#1B1B1A;stroke-width:1.0416666666666667;" width="261.4583" x="684.8958" y="164.1195"/><rect fill="#1B1B1A" height="8.3333" style="stroke:#1B1B1A;stroke-width:1.0416666666666667;" width="261.4583" x="684.8958" y="187.1745"/><rect codeLine="27" fill="none" height="214.3473" id="CompressedEdgeListStore" rx="8.3333" ry="8.3333" style="stroke:#5E5E5E;stroke-width:1.0416666666666667;" width="261.4583" x="684.8958" y="164.1195"/><ellipse cx="723.8542" cy="179.8136" fill="#0066CF" rx="10.4167" ry="10.4167" style="stroke:#0086EF;stroke-width:1.0416666666666667;"/><path d="M725.7646,184.2387 Q725.3373,184.4584 724.8674,184.5683 Q724.3974,184.6781 723.8786,184.6781 Q722.0353,184.6781 721.0649,183.4635 Q720.0944,182.2489 720.0944,179.954 Q720.0944,177.653 721.0649,176.4384 Q722.0353,175.2238 723.8786,175.2238 Q724.3974,175.2238 724.8735,175.3337 Q725.3495,175.4435 725.7646,175.6632 L725.7646,177.6652 Q725.3007,177.238 724.8643,177.0396 Q724.4279,176.8412 723.964,176.8412 Q722.9753,176.8412 722.4717,177.6255 Q721.9682,178.4098 721.9682,179.954 Q721.9682,181.4921 722.4717,182.2764 Q722.9753,183.0607 723.964,183.0607 Q724.4279,183.0607 724.8643,182.8623 Q725.3007,182.664 725.7646,182.2367 Z " fill="#000000"/><text fill="#D8BC00" font-family="Open Sans,Avenir,Nunito,Arial,Helvetica,SansSerif" font-size="12.5" font-weight="bold" lengthAdjust="spacing" textLength="169.7917" x="745.9375" y="184.5378">CompressedEdgeListStore</text><line style="stroke:#5E5E5E;stroke-width:1.5625;" x1="685.9375" x2="945.3125" y1="195.5078" y2="195.5078"/><polygon fill="#FFFF44" points="696.3542,225.6694,700.5208,229.836,696.3542,234.0027,692.1875,229.836" style="stroke:#B38D22;stroke-width:1.0416666666666667;"/><text fill="#D8BC00" font-family="Open Sans,Avenir,Nunito,Arial,Helvetica,SansSerif" font-size="11.4583" lengthAdjust="spacing" textLength="155.2083" x="707.8125" y="237.7889">CompressedEdgeListStore()</text><ellipse cx="696.3542" cy="250.6226" fill="#84BE84" rx="3.125" ry="3.125" style="stroke:#038048;stroke-width:1.0416666666666667;"/><text fill="#D8BC00" font-family="Open Sans,Avenir,Nunito,Arial,Helvetica,SansSerif" font-size="11.4583" lengthAdjust="spacing" textLength="229.1667" x="707.8125" y="257.5338">CompressedEdgeListStore(String, Graph)</text><line style="stroke:#5E5E5E;stroke-width:1.0416666666666667;" x1="685.9375" x2="771.875" y1="213.7136" y2="213.7136"/><text fill="#D8BC00" font-family="Open Sans,Avenir,Nunito,Arial,Helvetica,SansSerif" font-size="11.4583" lengthAdjust="spacing" textLength="81.25" x="775" y="217.5232">(constructors)</text><line style="stroke:#5E5E5E;stroke-width:1.0416666666666667;" x1="859.375" x2="945.3125" y1="213.7136" y2="213.7136"/><line style="stroke:#5E5E5E;stroke-width:1.0416666666666667;" x1="685.9375" x2="945.3125" y1="267.2424" y2="267.2424"/><ellipse cx="696.3542" cy="278.7008" fill="#84BE84" rx="3.125" ry="3.125" style="stroke:#038048;stroke-width:1.0416666666666667;"/><text fill="#D8BC00" font-family="Open Sans,Avenir,Nunito,Arial,Helvetica,SansSerif" font-size="11.4583" lengthAdjust="spacing" textLength="103.125" x="707.8125" y="285.612">void graph(Graph)</text><ellipse cx="696.3542" cy="322.3572" fill="#84BE84" rx="3.125" ry="3.125" style="stroke:#038048;stroke-width:1.0416666666666667;"/><text fill="#D8BC00" font-family="Open Sans,Avenir,Nunito,Arial,Helvetica,SansSerif" font-size="11.4583" lengthAdjust="spacing" textLength="148.9583" x="707.8125" y="329.2684">int add(List&lt;Edge&gt; edges)</text><ellipse cx="696.3542" cy="342.1021" fill="#84BE84" rx="3.125" ry="3.125" style="stroke:#038048;stroke-width:1.0416666666666667;"/><text fill="#D8BC00" font-family="Open Sans,Avenir,Nunito,Arial,Helvetica,SansSerif" font-size="11.4583" lengthAdjust="spacing" textLength="129.1667" x="707.8125" y="349.0133">List&lt;Edge&gt; get(int list)</text><ellipse cx="696.3542" cy="361.8469" fill="#84BE84" rx="3.125" ry="3.125" style="stroke:#038048;stroke-width:1.0416666666666667;"/><text fill="#D8BC00" font-family="Open Sans,Avenir,Nunito,Arial,Helvetica,SansSerif" font-size="11.4583" lengthAdjust="spacing" textLength="82.2917" x="707.8125" y="368.7581">int size(int list)</text><line style="stroke:#5E5E5E;stroke-width:1.0416666666666667;" x1="685.9375" x2="781.25" y1="305.1931" y2="305.1931"/><text fill="#D8BC00" font-family="Open Sans,Avenir,Nunito,Arial,Helvetica,SansSerif" font-size="11.4583" lengthAdjust="spacing" textLength="62.5" x="784.375" y="309.0027">(collection)</text><line style="stroke:#5E5E5E;stroke-width:1.0416666666666667;" x1="850" x2="945.3125" y1="305.1931" y2="305.1931"/><!--MD5=[15f6998b248c0726664b9d827148f7fc]
class RTreeSpatialIndex--><rect fill="#282828" height="48.055" id="RTreeSpatialIndex" rx="8.3333" ry="8.3333" style="stroke:#5E5E5E;stroke-width:1.0416666666666667;" width="153.125" x="1088.0208" y="53.7028"/><rect fill="#1B1B1A" height="31.3883" rx="8.3333" ry="8.3333" style="stroke:#1B1B1A;stroke-width:1.0416666666666667;" width="153.125" x="1088.0208" y="53.7028"/><rect fill="#1B1B1A" height="8.3333" style="stroke:#1B1B1A;stroke-width:1.0416666666666667;" width="153.125" x="1088.0208" y="76.7578"/><rect fill="none" height="48.055" id="RTreeSpatialIndex" rx="8.3333" ry="8.3333" style="stroke:#5E5E5E;stroke-width:1.0416666666666667;" width="153.125" x="1088.0208" y="53.7028"/><ellipse cx="1102.6042" cy="69.397" fill="#0066CF" rx="10.4167" ry="10.4167" style="stroke:#0086EF;stroke-width:1.0416666666666667;"/><path d="M1104.5146,73.822 Q1104.0873,74.0417 1103.6174,74.1516 Q1103.1474,74.2615 1102.6286,74.2615 Q1100.7853,74.2615 1099.8149,73.0469 Q1098.8444,71.8323 1098.8444,69.5374 Q1098.8444,67.2363 1099.8149,66.0217 Q1100.7853,64.8071 1102.6286,64.8071 Q1103.1474,64.8071 1103.6235,64.917 Q1104.0995,65.0269 1104.5146,65.2466 L1104.5146,67.2485 Q1104.0507,66.8213 1103.6143,66.6229 Q1103.1779,66.4246 1102.714,66.4246 Q1101.7253,66.4246 1101.2217,67.2089 Q1100.7182,67.9932 1100.7182,69.5374 Q1100.7182,71.0754 1101.2217,71.8597 Q1101.7253,72.644 1102.714,72.644 Q1103.1779,72.644 1103.6143,72.4457 Q1104.0507,72.2473 1104.5146,71.8201 Z " fill="#000000"/><text fill="#D8BC00" font-family="Open Sans,Avenir,Nunito,Arial,Helvetica,SansSerif" font-size="12.5" font-weight="bold" lengthAdjust="spacing" textLength="115.625" x="1119.2708" y="74.1211">RTreeSpatialIndex</text><line style="stroke:#5E5E5E;stroke-width:1.0416666666666667;" x1="1089.0625" x2="1240.1042" y1="85.0911" y2="85.0911"/><line style="stroke:#5E5E5E;stroke-width:1.0416666666666667;" x1="1089.0625" x2="1240.1042" y1="93.4245" y2="93.4245"/><!--MD5=[8017a85ddddba597050beedd2fd1f16a]
class CompressedEdgeSpatialIndex--><rect codeLine="42" fill="#282828" height="131.2012" id="CompressedEdgeSpatialIndex" rx="8.3333" ry="8.3333" style="stroke:#5E5E5E;stroke-width:1.0416666666666667;" width="363.5417" x="982.8125" y="205.7861"/><rect fill="#1B1B1A" height="31.3883" rx="8.3333" ry="8.3333" style="stroke:#1B1B1A;stroke-width:1.0416666666666667;" width="363.5417" x="982.8125" y="205.7861"/><rect fill="#1B1B1A" height="8.3333" style="stroke:#1B1B1A;stroke-width:1.0416666666666667;" width="363.5417" x="982.8125" y="228.8411"/><rect codeLine="42" fill="none" height="131.2012" id="CompressedEdgeSpatialIndex" rx="8.3333" ry="8.3333" style="stroke:#5E5E5E;stroke-width:1.0416666666666667;" width="363.5417" x="982.8125" y="205.7861"/><ellipse cx="1061.4583" cy="221.4803" fill="#0066CF" rx="10.4167" ry="10.4167" style="stroke:#0086EF;stroke-width:1.0416666666666667;"/><path d="M1063.3687,225.9054 Q1062.9415,226.1251 1062.4715,226.2349 Q1062.0015,226.3448 1061.4827,226.3448 Q1059.6395,226.3448 1058.669,225.1302 Q1057.6986,223.9156 1057.6986,221.6207 Q1057.6986,219.3197 1058.669,218.1051 Q1059.6395,216.8905 1061.4827,216.8905 Q1062.0015,216.8905 1062.4776,217.0003 Q1062.9537,217.1102 1063.3687,217.3299 L1063.3687,219.3319 Q1062.9049,218.9046 1062.4685,218.7063 Q1062.0321,218.5079 1061.5682,218.5079 Q1060.5794,218.5079 1060.0759,219.2922 Q1059.5723,220.0765 1059.5723,221.6207 Q1059.5723,223.1588 1060.0759,223.9431 Q1060.5794,224.7274 1061.5682,224.7274 Q1062.0321,224.7274 1062.4685,224.529 Q1062.9049,224.3306 1063.3687,223.9034 Z " fill="#000000"/><text fill="#D8BC00" font-family="Open Sans,Avenir,Nunito,Arial,Helvetica,SansSerif" font-size="12.5" font-weight="bold" lengthAdjust="spacing" textLength="191.6667" x="1084.375" y="226.2044">CompressedEdgeSpatialIndex</text><line style="stroke:#5E5E5E;stroke-width:1.5625;" x1="983.8542" x2="1345.3125" y1="237.1745" y2="237.1745"/><polygon fill="#FFFF44" points="994.2708,267.336,998.4375,271.5027,994.2708,275.6694,990.1042,271.5027" style="stroke:#B38D22;stroke-width:1.0416666666666667;"/><text fill="#D8BC00" font-family="Open Sans,Avenir,Nunito,Arial,Helvetica,SansSerif" font-size="11.4583" lengthAdjust="spacing" textLength="173.9583" x="1005.7292" y="279.4556">CompressedEdgeSpatialIndex()</text><ellipse cx="994.2708" cy="292.2892" fill="#84BE84" rx="3.125" ry="3.125" style="stroke:#038048;stroke-width:1.0416666666666667;"/><text fill="#D8BC00" font-family="Open Sans,Avenir,Nunito,Arial,Helvetica,SansSerif" font-size="11.4583" lengthAdjust="spacing" textLength="331.25" x="1005.7292" y="299.2004">CompressedEdgeSpatialIndex(String, Graph, RTreeSettings)</text><line style="stroke:#5E5E5E;stroke-width:1.0416666666666667;" x1="983.8542" x2="1120.8333" y1="255.3802" y2="255.3802"/><text fill="#D8BC00" font-family="Open Sans,Avenir,Nunito,Arial,Helvetica,SansSerif" font-size="11.4583" lengthAdjust="spacing" textLength="81.25" x="1123.9583" y="259.1899">(constructors)</text><line style="stroke:#5E5E5E;stroke-width:1.0416666666666667;" x1="1208.3333" x2="1345.3125" y1="255.3802" y2="255.3802"/><line style="stroke:#5E5E5E;stroke-width:1.0416666666666667;" x1="983.8542" x2="1345.3125" y1="308.9091" y2="308.9091"/><ellipse cx="994.2708" cy="320.3674" fill="#84BE84" rx="3.125" ry="3.125" style="stroke:#038048;stroke-width:1.0416666666666667;"/><text fill="#D8BC00" font-family="Open Sans,Avenir,Nunito,Arial,Helvetica,SansSerif" font-size="11.4583" lengthAdjust="spacing" textLength="103.125" x="1005.7292" y="327.2786">void graph(Graph)</text><!--MD5=[66b793461075db5cbf24955c1ced378e]
class RTreeSpatialIndexKryoSerializer--><rect fill="#282828" height="48.055" id="RTreeSpatialIndexKryoSerializer" rx="8.3333" ry="8.3333" style="stroke:#5E5E5E;stroke-width:1.0416666666666667;" width="242.7083" x="315.1042" y="53.7028"/><rect fill="#1B1B1A" height="31.3883" rx="8.3333" ry="8.3333" style="stroke:#1B1B1A;stroke-width:1.0416666666666667;" width="242.7083" x="315.1042" y="53.7028"/><rect fill="#1B1B1A" height="8.3333" style="stroke:#1B1B1A;stroke-width:1.0416666666666667;" width="242.7083" x="315.1042" y="76.7578"/><rect fill="none" height="48.055" id="RTreeSpatialIndexKryoSerializer" rx="8.3333" ry="8.3333" style="stroke:#5E5E5E;stroke-width:1.0416666666666667;" width="242.7083" x="315.1042" y="53.7028"/><ellipse cx="329.6875" cy="69.397" fill="#0066CF" rx="10.4167" ry="10.4167" style="stroke:#0086EF;stroke-width:1.0416666666666667;"/><path d="M331.5979,73.822 Q331.1707,74.0417 330.7007,74.1516 Q330.2307,74.2615 329.7119,74.2615 Q327.8687,74.2615 326.8982,73.0469 Q325.9277,71.8323 325.9277,69.5374 Q325.9277,67.2363 326.8982,66.0217 Q327.8687,64.8071 329.7119,64.8071 Q330.2307,64.8071 330.7068,64.917 Q331.1829,65.0269 331.5979,65.2466 L331.5979,67.2485 Q331.134,66.8213 330.6976,66.6229 Q330.2612,66.4246 329.7974,66.4246 Q328.8086,66.4246 328.3051,67.2089 Q327.8015,67.9932 327.8015,69.5374 Q327.8015,71.0754 328.3051,71.8597 Q328.8086,72.644 329.7974,72.644 Q330.2612,72.644 330.6976,72.4457 Q331.134,72.2473 331.5979,71.8201 Z " fill="#000000"/><text fill="#D8BC00" font-family="Open Sans,Avenir,Nunito,Arial,Helvetica,SansSerif" font-size="12.5" font-weight="bold" lengthAdjust="spacing" textLength="205.2083" x="346.3542" y="74.1211">RTreeSpatialIndexKryoSerializer</text><line style="stroke:#5E5E5E;stroke-width:1.0416666666666667;" x1="316.1458" x2="556.7708" y1="85.0911" y2="85.0911"/><line style="stroke:#5E5E5E;stroke-width:1.0416666666666667;" x1="316.1458" x2="556.7708" y1="93.4245" y2="93.4245"/><!--MD5=[1b13760276759d34b05d45d0243fd80b]
class CompressedEdgeSpatialIndexKryoSerializer--><rect codeLine="53" fill="#282828" height="83.3781" id="CompressedEdgeSpatialIndexKryoSerializer" rx="8.3333" ry="8.3333" style="stroke:#5E5E5E;stroke-width:1.0416666666666667;" width="318.75" x="329.1667" y="229.7445"/><rect fill="#1B1B1A" height="31.3883" rx="8.3333" ry="8.3333" style="stroke:#1B1B1A;stroke-width:1.0416666666666667;" width="318.75" x="329.1667" y="229.7445"/><rect fill="#1B1B1A" height="8.3333" style="stroke:#1B1B1A;stroke-width:1.0416666666666667;" width="318.75" x="329.1667" y="252.7995"/><rect codeLine="53" fill="none" height="83.3781" id="CompressedEdgeSpatialIndexKryoSerializer" rx="8.3333" ry="8.3333" style="stroke:#5E5E5E;stroke-width:1.0416666666666667;" width="318.75" x="329.1667" y="229.7445"/><ellipse cx="343.75" cy="245.4386" fill="#0066CF" rx="10.4167" ry="10.4167" style="stroke:#0086EF;stroke-width:1.0416666666666667;"/><path d="M345.6604,249.8637 Q345.2332,250.0834 344.7632,250.1933 Q344.2932,250.3031 343.7744,250.3031 Q341.9312,250.3031 340.9607,249.0885 Q339.9902,247.8739 339.9902,245.579 Q339.9902,243.278 340.9607,242.0634 Q341.9312,240.8488 343.7744,240.8488 Q344.2932,240.8488 344.7693,240.9587 Q345.2454,241.0685 345.6604,241.2882 L345.6604,243.2902 Q345.1965,242.863 344.7601,242.6646 Q344.3237,242.4662 343.8599,242.4662 Q342.8711,242.4662 342.3676,243.2505 Q341.864,244.0348 341.864,245.579 Q341.864,247.1171 342.3676,247.9014 Q342.8711,248.6857 343.8599,248.6857 Q344.3237,248.6857 344.7601,248.4873 Q345.1965,248.289 345.6604,247.8617 Z " fill="#000000"/><text fill="#D8BC00" font-family="Open Sans,Avenir,Nunito,Arial,Helvetica,SansSerif" font-size="12.5" font-weight="bold" lengthAdjust="spacing" textLength="281.25" x="360.4167" y="250.1628">CompressedEdgeSpatialIndexKryoSerializer</text><line style="stroke:#5E5E5E;stroke-width:1.5625;" x1="330.2083" x2="646.875" y1="261.1328" y2="261.1328"/><ellipse cx="340.625" cy="296.5027" fill="#84BE84" rx="3.125" ry="3.125" style="stroke:#038048;stroke-width:1.0416666666666667;"/><text fill="#D8BC00" font-family="Open Sans,Avenir,Nunito,Arial,Helvetica,SansSerif" font-size="11.4583" lengthAdjust="spacing" textLength="285.4167" x="352.0833" y="303.4139">CompressedEdgeSpatialIndexKryoSerializer(Graph)</text><line style="stroke:#5E5E5E;stroke-width:1.0416666666666667;" x1="330.2083" x2="444.7917" y1="279.3386" y2="279.3386"/><text fill="#D8BC00" font-family="Open Sans,Avenir,Nunito,Arial,Helvetica,SansSerif" font-size="11.4583" lengthAdjust="spacing" textLength="81.25" x="447.9167" y="283.1482">(constructors)</text><line style="stroke:#5E5E5E;stroke-width:1.0416666666666667;" x1="532.2917" x2="646.875" y1="279.3386" y2="279.3386"/><!--MD5=[3670a9b67b8a752f6e42da25dea7e2da]
class Leaf--><rect fill="#282828" height="48.055" id="Leaf" rx="8.3333" ry="8.3333" style="stroke:#5E5E5E;stroke-width:1.0416666666666667;" width="64.5833" x="1423.9583" y="53.7028"/><rect fill="#1B1B1A" height="31.3883" rx="8.3333" ry="8.3333" style="stroke:#1B1B1A;stroke-width:1.0416666666666667;" width="64.5833" x="1423.9583" y="53.7028"/><rect fill="#1B1B1A" height="8.3333" style="stroke:#1B1B1A;stroke-width:1.0416666666666667;" width="64.5833" x="1423.9583" y="76.7578"/><rect fill="none" height="48.055" id="Leaf" rx="8.3333" ry="8.3333" style="stroke:#5E5E5E;stroke-width:1.0416666666666667;" width="64.5833" x="1423.9583" y="53.7028"/><ellipse cx="1438.5417" cy="69.397" fill="#0066CF" rx="10.4167" ry="10.4167" style="stroke:#0086EF;stroke-width:1.0416666666666667;"/><path d="M1440.4521,73.822 Q1440.0248,74.0417 1439.5549,74.1516 Q1439.0849,74.2615 1438.5661,74.2615 Q1436.7228,74.2615 1435.7524,73.0469 Q1434.7819,71.8323 1434.7819,69.5374 Q1434.7819,67.2363 1435.7524,66.0217 Q1436.7228,64.8071 1438.5661,64.8071 Q1439.0849,64.8071 1439.561,64.917 Q1440.037,65.0269 1440.4521,65.2466 L1440.4521,67.2485 Q1439.9882,66.8213 1439.5518,66.6229 Q1439.1154,66.4246 1438.6515,66.4246 Q1437.6628,66.4246 1437.1592,67.2089 Q1436.6557,67.9932 1436.6557,69.5374 Q1436.6557,71.0754 1437.1592,71.8597 Q1437.6628,72.644 1438.6515,72.644 Q1439.1154,72.644 1439.5518,72.4457 Q1439.9882,72.2473 1440.4521,71.8201 Z " fill="#000000"/><text fill="#D8BC00" font-family="Open Sans,Avenir,Nunito,Arial,Helvetica,SansSerif" font-size="12.5" font-weight="bold" lengthAdjust="spacing" textLength="27.0833" x="1455.2083" y="74.1211">Leaf</text><line style="stroke:#5E5E5E;stroke-width:1.0416666666666667;" x1="1425" x2="1487.5" y1="85.0911" y2="85.0911"/><line style="stroke:#5E5E5E;stroke-width:1.0416666666666667;" x1="1425" x2="1487.5" y1="93.4245" y2="93.4245"/><!--MD5=[cfb21ad4c6cb58ba041a8eb9ea85c132]
class CompressedLeaf--><rect codeLine="60" fill="#282828" height="48.055" id="CompressedLeaf" rx="8.3333" ry="8.3333" style="stroke:#5E5E5E;stroke-width:1.0416666666666667;" width="145.8333" x="1383.3333" y="247.4528"/><rect fill="#1B1B1A" height="31.3883" rx="8.3333" ry="8.3333" style="stroke:#1B1B1A;stroke-width:1.0416666666666667;" width="145.8333" x="1383.3333" y="247.4528"/><rect fill="#1B1B1A" height="8.3333" style="stroke:#1B1B1A;stroke-width:1.0416666666666667;" width="145.8333" x="1383.3333" y="270.5078"/><rect codeLine="60" fill="none" height="48.055" id="CompressedLeaf" rx="8.3333" ry="8.3333" style="stroke:#5E5E5E;stroke-width:1.0416666666666667;" width="145.8333" x="1383.3333" y="247.4528"/><ellipse cx="1397.9167" cy="263.147" fill="#0066CF" rx="10.4167" ry="10.4167" style="stroke:#0086EF;stroke-width:1.0416666666666667;"/><path d="M1399.8271,267.572 Q1399.3998,267.7917 1398.9299,267.9016 Q1398.4599,268.0115 1397.9411,268.0115 Q1396.0978,268.0115 1395.1274,266.7969 Q1394.1569,265.5823 1394.1569,263.2874 Q1394.1569,260.9863 1395.1274,259.7717 Q1396.0978,258.5571 1397.9411,258.5571 Q1398.4599,258.5571 1398.936,258.667 Q1399.412,258.7769 1399.8271,258.9966 L1399.8271,260.9985 Q1399.3632,260.5713 1398.9268,260.3729 Q1398.4904,260.1746 1398.0265,260.1746 Q1397.0378,260.1746 1396.5342,260.9589 Q1396.0307,261.7432 1396.0307,263.2874 Q1396.0307,264.8254 1396.5342,265.6097 Q1397.0378,266.394 1398.0265,266.394 Q1398.4904,266.394 1398.9268,266.1957 Q1399.3632,265.9973 1399.8271,265.5701 Z " fill="#000000"/><text fill="#D8BC00" font-family="Open Sans,Avenir,Nunito,Arial,Helvetica,SansSerif" font-size="12.5" font-weight="bold" lengthAdjust="spacing" textLength="108.3333" x="1414.5833" y="267.8711">CompressedLeaf</text><line style="stroke:#5E5E5E;stroke-width:1.0416666666666667;" x1="1384.375" x2="1528.125" y1="278.8411" y2="278.8411"/><line style="stroke:#5E5E5E;stroke-width:1.0416666666666667;" x1="1384.375" x2="1528.125" y1="287.1745" y2="287.1745"/><!--MD5=[138407275c231445f8d9c69d8173b517]
reverse link BaseRepeater to CompressedEdgeBulkSpatialIndexer--><path codeLine="12" d="M150,122.932 C150,141.0465 150,162.6715 150,183.7028 " fill="none" id="BaseRepeater-backto-CompressedEdgeBulkSpatialIndexer" style="stroke:#545454;stroke-width:1.5625;"/><polygon fill="none" points="142.7083,122.6507,150,101.8174,157.2917,122.6507,142.7083,122.6507" style="stroke:#545454;stroke-width:1.5625;"/><!--MD5=[1f5faaf47be30893f3a819eb767acc38]
reverse link NamedObject to CompressedEdgeBulkSpatialIndexer--><path codeLine="13" d="M573.8854,101.859 C454.6563,130.6715 415.9792,118.484 310.4167,164.1195 C297.3854,169.7549 284.2604,176.4424 271.4271,183.6924 " fill="none" id="NamedObject-backto-CompressedEdgeBulkSpatialIndexer" style="stroke:#545454;stroke-width:1.5625;"/><polygon fill="none" points="572.1667,94.7757,594.1458,96.7549,575.7292,108.9111,572.1667,94.7757" style="stroke:#545454;stroke-width:1.5625;"/><!--MD5=[f0203177e845a5842f7430b074cfaf1a]
reverse link CompressibleCollection to CompressedEdgeListStore--><path codeLine="25" d="M855.0521,122.3278 C851.6875,134.932 847.875,149.2653 843.9688,163.9424 " fill="none" id="CompressibleCollection-backto-CompressedEdgeListStore" style="stroke:#545454;stroke-width:1.5625;"/><polygon fill="none" points="848.1042,120.0778,860.5104,101.8174,862.1979,123.8278,848.1042,120.0778" style="stroke:#545454;stroke-width:1.5625;"/><!--MD5=[33774c5c88aa067d24c48d7dfc486d55]
reverse link NamedObject to CompressedEdgeListStore--><path codeLine="26" d="M689.0521,118.1507 C700.3333,131.7132 713.5521,147.6195 727.125,163.9424 " fill="none" id="NamedObject-backto-CompressedEdgeListStore" style="stroke:#545454;stroke-width:1.5625;"/><polygon fill="none" points="683.1875,122.5049,675.4792,101.8174,694.3958,113.182,683.1875,122.5049" style="stroke:#545454;stroke-width:1.5625;"/><!--MD5=[36fd831a7b48ed988ee074190cbe46e9]
reverse link RTreeSpatialIndex to CompressedEdgeSpatialIndex--><path codeLine="40" d="M1164.5833,122.6611 C1164.5833,147.234 1164.5833,178.3174 1164.5833,205.6299 " fill="none" id="RTreeSpatialIndex-backto-CompressedEdgeSpatialIndex" style="stroke:#545454;stroke-width:1.5625;"/><polygon fill="none" points="1157.2917,122.6507,1164.5833,101.8174,1171.875,122.6507,1157.2917,122.6507" style="stroke:#545454;stroke-width:1.5625;"/><!--MD5=[3639c8d8d07089868f58056e5ef4a9ed]
reverse link CompressibleCollection to CompressedEdgeSpatialIndex--><path codeLine="41" d="M920,113.0153 C959.9583,138.7236 1015.8229,174.6611 1064.0729,205.7028 " fill="none" id="CompressibleCollection-backto-CompressedEdgeSpatialIndex" style="stroke:#545454;stroke-width:1.5625;"/><polygon fill="none" points="915.8854,119.0361,902.3021,101.6299,923.7708,106.7757,915.8854,119.0361" style="stroke:#545454;stroke-width:1.5625;"/><!--MD5=[78412e986913c8b3a87f1d33812a9d88]
reverse link RTreeSpatialIndexKryoSerializer to CompressedEdgeSpatialIndexKryoSerializer--><path codeLine="51" d="M448.2188,121.984 C456.9583,154.1507 468.8125,197.7653 477.4063,229.3799 " fill="none" id="RTreeSpatialIndexKryoSerializer-backto-CompressedEdgeSpatialIndexKryoSerializer" style="stroke:#545454;stroke-width:1.5625;"/><polygon fill="none" points="441.1667,123.8382,442.7396,101.8174,455.2396,120.0153,441.1667,123.8382" style="stroke:#545454;stroke-width:1.5625;"/><!--MD5=[59ddd2f50458538c696efe015f2d344c]
reverse link NamedObject to CompressedEdgeSpatialIndexKryoSerializer--><path codeLine="52" d="M621.9792,117.8695 C593.5521,150.359 553.2604,196.4007 524.4063,229.3799 " fill="none" id="NamedObject-backto-CompressedEdgeSpatialIndexKryoSerializer" style="stroke:#545454;stroke-width:1.5625;"/><polygon fill="none" points="616.8125,112.7028,636.0208,101.8174,627.7917,122.307,616.8125,112.7028" style="stroke:#545454;stroke-width:1.5625;"/><!--MD5=[586c590eb69613daadba3f722f2d7042]
reverse link Leaf to CompressedLeaf--><path codeLine="59" d="M1456.25,122.7236 C1456.25,161.484 1456.25,216.4007 1456.25,247.1715 " fill="none" id="Leaf-backto-CompressedLeaf" style="stroke:#545454;stroke-width:1.5625;"/><polygon fill="none" points="1448.9583,122.6507,1456.25,101.8174,1463.5417,122.6507,1448.9583,122.6507" style="stroke:#545454;stroke-width:1.5625;"/><!--MD5=[81641e49b260c83b71c81d488b0ddd9d]
@startuml

    !include lexakai.theme
    
    title "com.telenav.mesakit.graph.specifications.common.edge.store.index"
    
    abstract BaseRepeater
    
    interface NamedObject
    interface CompressibleCollection
    
    BaseRepeater <|- - CompressedEdgeBulkSpatialIndexer
    NamedObject <|- - CompressedEdgeBulkSpatialIndexer
    class CompressedEdgeBulkSpatialIndexer
    {
        - -(constructors)- -
        +CompressedEdgeBulkSpatialIndexer(Listener)
        - -
        +int compareHorizontal(Edge a, Edge b)
        +int compareVertical(Edge a, Edge b)
        - -(collection)- -
        +CompressedEdgeSpatialIndex index(Graph)
    }
    
    CompressibleCollection <|- - CompressedEdgeListStore
    NamedObject <|- - CompressedEdgeListStore
    class CompressedEdgeListStore
    {
        - -(constructors)- -
        #CompressedEdgeListStore()
        +CompressedEdgeListStore(String, Graph)
        - -
        +void graph(Graph)
        - -(collection)- -
        +int add(List<Edge> edges)
        +List<Edge> get(int list)
        +int size(int list)
    }
    
    RTreeSpatialIndex <|- - CompressedEdgeSpatialIndex
    CompressibleCollection <|- - CompressedEdgeSpatialIndex
    class CompressedEdgeSpatialIndex
    {
        - -(constructors)- -
        #CompressedEdgeSpatialIndex()
        +CompressedEdgeSpatialIndex(String, Graph, RTreeSettings)
        - -
        +void graph(Graph)
    }
    
    RTreeSpatialIndexKryoSerializer <|- - CompressedEdgeSpatialIndexKryoSerializer
    NamedObject <|- - CompressedEdgeSpatialIndexKryoSerializer
    class CompressedEdgeSpatialIndexKryoSerializer
    {
        - -(constructors)- -
        +CompressedEdgeSpatialIndexKryoSerializer(Graph)
    }
    
    Leaf <|- - CompressedLeaf
    class CompressedLeaf
    {
    }
    
@enduml

@startuml









skinparam backgroundColor #333333






skinparam  {
    defaultFontName   "Open Sans,Avenir,Nunito,Arial,Helvetica,SansSerif"
    defaultFontSize   12
    defaultTextAlignment left
    shadowing false
    RoundCorner 10
    TitleFontSize 18
}

skinparam defaultFontName       "Open Sans,Avenir,Nunito,Arial,Helvetica,SansSerif"
skinparam defaultFontSize       12
skinparam dpi                   100
skinparam shadowing             false
skinparam roundcorner           16
skinparam ParticipantPadding    40
skinparam BoxPadding            40
skinparam Padding               3
skinparam ArrowColor            #545454
skinparam stereotype {
    CBackgroundColor #0066cf
    CBorderColor #0086ef
    ABackgroundColor #C8Ac00
    ABorderColor #D8Bc00
    IBackgroundColor #008400
    IBorderColor #239c23
    EBackgroundColor #cf6300
    EBorderColor #ef8300
    NBackgroundColor #3380b9
    NBorderColor #004d86
}
skinparam title {
	FontColor	                 #c0c0c0
 	BorderColor                  #545454
	FontSize	    	         20
	BorderRoundCorner            16
	BorderThickness 	         1
	BackgroundColor              #48494b
}


skinparam legend {
	BackgroundColor #303030
	BorderColor #404040
	FontColor #a0a0a0
}

	skinparam swimlane {
	BorderColor #5e5e5e
	BorderThickness 2
	TitleBackgroundColor  #6d6d6d-#484848
	TitleFontColor #303030
}

skinparam activity {
		FontColor #C8Ac00
	BorderColor #333333
	BackgroundColor #333333-#333333
	BarColor #00FF00
	StartColor #0060a8
	EndColor #0060a8
	DiamondBackgroundColor #6d6d6d-#3a3a3a
  	DiamondBorderColor #3a3a3a
  	DiamondFontColor #fefefe
}


skinparam participant {
		FontColor #C8Ac00
	BorderColor #333333
	BackgroundColor #333333-#333333
	ParticipantBorderThickness 2
}


skinparam actor {
		FontColor #C8Ac00
	BorderColor #333333
	BackgroundColor #333333-#333333
}


skinparam arrow {
	Thickness 1.5
	Color #545454
	FontColor #a0a0a0
    FontStyle bold
    MessageAlignment center
}



skinparam sequence {
	BorderColor #303030
	TitleFontColor #303030
	BackgroundColor #333333
	StartColor #303030
	EndColor #303030
	BoxBackgroundColor #333333
	BoxBorderColor #484848
	BoxFontColor #484848
	LifeLineBorderColor #484848
	LifeLineBorderThickness 2
	LifeLineBackgroundColor #3a3a3a
	GroupBorderColor #484848
	GroupFontColor #484848
	GroupHeaderFontColor #0060a8
	GroupBackgroundColor #484848
	GroupHeaderBackgroundColor #333333
	DividerBackgroundColor #484848
    DividerBorderColor #484848
    DividerBorderThickness 2
    DividerFontColor #D8Bc00
	ReferenceBackgroundColor #333333
	ReferenceBorderColor #484848
	ReferenceFontColor #fefefe
	ReferenceHeaderBackgroundColor #484848
}


skinparam partition {
	BorderColor #303030
	FontColor #333333
	BackgroundColor #333333
}


skinparam collections {
		FontColor #C8Ac00
	BorderColor #333333
	BackgroundColor #333333-#333333
}


skinparam control {
		FontColor #C8Ac00
	BorderColor #333333
	BackgroundColor #333333-#333333
}


skinparam entity {
		FontColor #C8Ac00
	BorderColor #333333
	BackgroundColor #333333-#333333
}


skinparam boundary {
		FontColor #C8Ac00
	BorderColor #333333
	BackgroundColor #333333-#333333
}


skinparam agent {
	BackgroundColor #ff8000
	BorderColor #ff9933
	FontColor #484848
}


skinparam note {
	BorderThickness 1
	BackgroundColor #1b1b1a
	BorderColor #5e5e5e
	FontSize 11
	FontColor #a0a0a0
}


skinparam artifact {
	BorderThickness 10
	BorderColor #5e5e5e
	BackgroundColor #1b1b1a
	FontColor #D8Bc00
}


skinparam component {
		FontColor #C8Ac00
	BorderColor #333333
	BackgroundColor #333333-#333333
}


skinparam interface {
	BackgroundColor  #008400
	BorderColor  #007F00
	FontColor #484848
}


skinparam storage {
	BackgroundColor #ff8000
  	BorderColor #cc6600
	FontColor #222222
}


skinparam node {
	BackgroundColor #333333
	BorderColor #333333
	FontColor #C8Ac00
}


skinparam cloud {
	BackgroundColor #484848-black
	BorderColor #484848
	FontColor #D8Bc00
}


skinparam database {
		FontColor #C8Ac00
	BorderColor #333333
	BackgroundColor #333333-#333333
	BackgroundColor  #333333
}


skinparam class {
		FontColor #C8Ac00
	BorderColor #333333
	BackgroundColor #333333-#333333
	HeaderBackgroundColor #1b1b1a
    BackgroundColor #282828
    BorderColor #5e5e5e
 	StereotypeFontColor #a0a0a0
    StereotypeFontStyle bold
	BorderThickness 1
	AttributeFontColor #D8Bc00
	AttributeFontSize 11
    FontColor #D8Bc00
    FontStyle bold
}


skinparam object {
		FontColor #C8Ac00
	BorderColor #333333
	BackgroundColor #333333-#333333
	StereotypeFontColor #484848
	BorderThickness 1
	AttributeFontColor #fefefe
	AttributeFontSize 11
}


skinparam usecase {
		FontColor #C8Ac00
	BorderColor #333333
	BackgroundColor #333333-#333333
	BorderThickness 2
	StereotypeFontColor #303030
}


skinparam rectangle {
		FontColor #C8Ac00
	BorderColor #333333
	BackgroundColor #333333-#333333
	BackgroundColor #333333
	BorderThickness 2
	StereotypeFontColor #303030
}


skinparam package {
		FontColor #C8Ac00
	BorderColor #333333
	BackgroundColor #333333-#333333
	BackgroundColor #333333
	BorderThickness 2
}


skinparam folder {
	BackgroundColor #6d6d6d
  	BorderColor #ff8000
	FontColor #ff8000
	BorderThickness 2
}


skinparam frame {
	BackgroundColor #6d6d6d
  	BorderColor #0060a8
	FontColor #0060a8
	BorderThickness 2
}


skinparam state {
		FontColor #C8Ac00
	BorderColor #333333
	BackgroundColor #333333-#333333
	StartColor #0060a8
	EndColor #0060a8
	AttributeFontColor #fefefe
	AttributeFontSize 11
}


skinparam queue {
		FontColor #C8Ac00
	BorderColor #333333
	BackgroundColor #333333-#333333
}


skinparam card {
	BackgroundColor #0060a8
	BorderColor #004d86
	FontColor $INFO_TEXT
}


skinparam file {
	BackgroundColor #6d6d6d-#484848
	BorderColor #0060a8
	FontColor #fefefe
}


skinparam stack {
		FontColor #C8Ac00
	BorderColor #333333
	BackgroundColor #333333-#333333
}

    
    title "com.telenav.mesakit.graph.specifications.common.edge.store.index"
    
    abstract BaseRepeater
    
    interface NamedObject
    interface CompressibleCollection
    
    BaseRepeater <|- - CompressedEdgeBulkSpatialIndexer
    NamedObject <|- - CompressedEdgeBulkSpatialIndexer
    class CompressedEdgeBulkSpatialIndexer
    {
        - -(constructors)- -
        +CompressedEdgeBulkSpatialIndexer(Listener)
        - -
        +int compareHorizontal(Edge a, Edge b)
        +int compareVertical(Edge a, Edge b)
        - -(collection)- -
        +CompressedEdgeSpatialIndex index(Graph)
    }
    
    CompressibleCollection <|- - CompressedEdgeListStore
    NamedObject <|- - CompressedEdgeListStore
    class CompressedEdgeListStore
    {
        - -(constructors)- -
        #CompressedEdgeListStore()
        +CompressedEdgeListStore(String, Graph)
        - -
        +void graph(Graph)
        - -(collection)- -
        +int add(List<Edge> edges)
        +List<Edge> get(int list)
        +int size(int list)
    }
    
    RTreeSpatialIndex <|- - CompressedEdgeSpatialIndex
    CompressibleCollection <|- - CompressedEdgeSpatialIndex
    class CompressedEdgeSpatialIndex
    {
        - -(constructors)- -
        #CompressedEdgeSpatialIndex()
        +CompressedEdgeSpatialIndex(String, Graph, RTreeSettings)
        - -
        +void graph(Graph)
    }
    
    RTreeSpatialIndexKryoSerializer <|- - CompressedEdgeSpatialIndexKryoSerializer
    NamedObject <|- - CompressedEdgeSpatialIndexKryoSerializer
    class CompressedEdgeSpatialIndexKryoSerializer
    {
        - -(constructors)- -
        +CompressedEdgeSpatialIndexKryoSerializer(Graph)
    }
    
    Leaf <|- - CompressedLeaf
    class CompressedLeaf
    {
    }
    
@enduml

PlantUML version 1.2021.01(Tue Feb 02 02:55:08 EST 2021)
(GPL source distribution)
Java Runtime: OpenJDK Runtime Environment
JVM: OpenJDK 64-Bit Server VM
Default Encoding: UTF-8
Language: en
Country: US
--></g></svg>