<?xml version="1.0" encoding="UTF-8" standalone="no"?><svg xmlns="http://www.w3.org/2000/svg" xmlns:xlink="http://www.w3.org/1999/xlink" contentScriptType="application/ecmascript" contentStyleType="text/css" height="807.2917px" preserveAspectRatio="none" style="width:932px;height:807px;background:#333333;" version="1.1" viewBox="0 0 932 807" width="932.2917px" zoomAndPan="magnify"><defs/><g><rect fill="#48494B" height="41.2028" rx="8.3333" ry="8.3333" style="stroke:#545454;stroke-width:1.0416666666666667;" width="387.5" x="265.3646" y="2.0833"/><text fill="#C0C0C0" font-family="Open Sans,Avenir,Nunito,Arial,Helvetica,SansSerif" font-size="20.8333" lengthAdjust="spacing" textLength="364.5833" x="276.8229" y="30.5583">com.telenav.mesakit.graph.ui.viewer</text><!--MD5=[4a747cbb122da51f34f0f35000842754]
class DrawablePolyline--><rect codeLine="24" fill="#282828" height="83.3781" id="DrawablePolyline" rx="8.3333" ry="8.3333" style="stroke:#5E5E5E;stroke-width:1.0416666666666667;" width="248.9583" x="120.8333" y="357.8695"/><rect fill="#1B1B1A" height="31.3883" rx="8.3333" ry="8.3333" style="stroke:#1B1B1A;stroke-width:1.0416666666666667;" width="248.9583" x="120.8333" y="357.8695"/><rect fill="#1B1B1A" height="8.3333" style="stroke:#1B1B1A;stroke-width:1.0416666666666667;" width="248.9583" x="120.8333" y="380.9245"/><rect codeLine="24" fill="none" height="83.3781" id="DrawablePolyline" rx="8.3333" ry="8.3333" style="stroke:#5E5E5E;stroke-width:1.0416666666666667;" width="248.9583" x="120.8333" y="357.8695"/><ellipse cx="182.2917" cy="373.5636" fill="#0066CF" rx="10.4167" ry="10.4167" style="stroke:#0086EF;stroke-width:1.0416666666666667;"/><path d="M184.2021,377.9887 Q183.7748,378.2084 183.3049,378.3183 Q182.8349,378.4281 182.3161,378.4281 Q180.4728,378.4281 179.5024,377.2135 Q178.5319,375.9989 178.5319,373.704 Q178.5319,371.403 179.5024,370.1884 Q180.4728,368.9738 182.3161,368.9738 Q182.8349,368.9738 183.311,369.0837 Q183.787,369.1935 184.2021,369.4132 L184.2021,371.4152 Q183.7382,370.988 183.3018,370.7896 Q182.8654,370.5912 182.4015,370.5912 Q181.4128,370.5912 180.9092,371.3755 Q180.4057,372.1598 180.4057,373.704 Q180.4057,375.2421 180.9092,376.0264 Q181.4128,376.8107 182.4015,376.8107 Q182.8654,376.8107 183.3018,376.6123 Q183.7382,376.414 184.2021,375.9867 Z " fill="#000000"/><text fill="#D8BC00" font-family="Open Sans,Avenir,Nunito,Arial,Helvetica,SansSerif" font-size="12.5" font-weight="bold" lengthAdjust="spacing" textLength="111.4583" x="205.2083" y="378.2878">DrawablePolyline</text><line style="stroke:#5E5E5E;stroke-width:1.5625;" x1="121.875" x2="368.75" y1="389.2578" y2="389.2578"/><ellipse cx="132.2917" cy="424.6277" fill="#84BE84" rx="3.125" ry="3.125" style="stroke:#038048;stroke-width:1.0416666666666667;"/><text fill="#D8BC00" font-family="Open Sans,Avenir,Nunito,Arial,Helvetica,SansSerif" font-size="11.4583" lengthAdjust="spacing" textLength="216.6667" x="143.75" y="431.5389">DrawablePolyline(Polyline, Style, String)</text><line style="stroke:#5E5E5E;stroke-width:1.0416666666666667;" x1="121.875" x2="201.5625" y1="407.4636" y2="407.4636"/><text fill="#D8BC00" font-family="Open Sans,Avenir,Nunito,Arial,Helvetica,SansSerif" font-size="11.4583" lengthAdjust="spacing" textLength="81.25" x="204.6875" y="411.2732">(constructors)</text><line style="stroke:#5E5E5E;stroke-width:1.0416666666666667;" x1="289.0625" x2="368.75" y1="407.4636" y2="407.4636"/><!--MD5=[624c4e968bb552efcd442638972f86e0]
class DrawableEdge--><rect codeLine="8" fill="#282828" height="103.123" id="DrawableEdge" rx="8.3333" ry="8.3333" style="stroke:#5E5E5E;stroke-width:1.0416666666666667;" width="217.7083" x="7.2917" y="697.4528"/><rect fill="#1B1B1A" height="31.3883" rx="8.3333" ry="8.3333" style="stroke:#1B1B1A;stroke-width:1.0416666666666667;" width="217.7083" x="7.2917" y="697.4528"/><rect fill="#1B1B1A" height="8.3333" style="stroke:#1B1B1A;stroke-width:1.0416666666666667;" width="217.7083" x="7.2917" y="720.5078"/><rect codeLine="8" fill="none" height="103.123" id="DrawableEdge" rx="8.3333" ry="8.3333" style="stroke:#5E5E5E;stroke-width:1.0416666666666667;" width="217.7083" x="7.2917" y="697.4528"/><ellipse cx="63.0208" cy="713.147" fill="#0066CF" rx="10.4167" ry="10.4167" style="stroke:#0086EF;stroke-width:1.0416666666666667;"/><path d="M64.9312,717.572 Q64.504,717.7917 64.034,717.9016 Q63.564,718.0115 63.0452,718.0115 Q61.202,718.0115 60.2315,716.7969 Q59.2611,715.5823 59.2611,713.2874 Q59.2611,710.9863 60.2315,709.7717 Q61.202,708.5571 63.0452,708.5571 Q63.564,708.5571 64.0401,708.667 Q64.5162,708.7769 64.9312,708.9966 L64.9312,710.9985 Q64.4674,710.5713 64.031,710.3729 Q63.5946,710.1746 63.1307,710.1746 Q62.1419,710.1746 61.6384,710.9589 Q61.1348,711.7432 61.1348,713.2874 Q61.1348,714.8254 61.6384,715.6097 Q62.1419,716.394 63.1307,716.394 Q63.5946,716.394 64.031,716.1957 Q64.4674,715.9973 64.9312,715.5701 Z " fill="#000000"/><text fill="#D8BC00" font-family="Open Sans,Avenir,Nunito,Arial,Helvetica,SansSerif" font-size="12.5" font-weight="bold" lengthAdjust="spacing" textLength="91.6667" x="85.9375" y="717.8711">DrawableEdge</text><line style="stroke:#5E5E5E;stroke-width:1.5625;" x1="8.3333" x2="223.9583" y1="728.8411" y2="728.8411"/><ellipse cx="18.75" cy="764.211" fill="#84BE84" rx="3.125" ry="3.125" style="stroke:#038048;stroke-width:1.0416666666666667;"/><text fill="#D8BC00" font-family="Open Sans,Avenir,Nunito,Arial,Helvetica,SansSerif" font-size="11.4583" lengthAdjust="spacing" textLength="145.8333" x="30.2083" y="771.1222">DrawableEdge(Edge, Style)</text><ellipse cx="18.75" cy="783.9559" fill="#84BE84" rx="3.125" ry="3.125" style="stroke:#038048;stroke-width:1.0416666666666667;"/><text fill="#D8BC00" font-family="Open Sans,Avenir,Nunito,Arial,Helvetica,SansSerif" font-size="11.4583" lengthAdjust="spacing" textLength="185.4167" x="30.2083" y="790.8671">DrawableEdge(Edge, Style, String)</text><line style="stroke:#5E5E5E;stroke-width:1.0416666666666667;" x1="8.3333" x2="72.3958" y1="747.0469" y2="747.0469"/><text fill="#D8BC00" font-family="Open Sans,Avenir,Nunito,Arial,Helvetica,SansSerif" font-size="11.4583" lengthAdjust="spacing" textLength="81.25" x="75.5208" y="750.8565">(constructors)</text><line style="stroke:#5E5E5E;stroke-width:1.0416666666666667;" x1="159.8958" x2="223.9583" y1="747.0469" y2="747.0469"/><!--MD5=[d7ec20d73f8d3e72695a0bc6ea7cb2e3]
class MapDot--><rect fill="#282828" height="48.055" id="MapDot" rx="8.3333" ry="8.3333" style="stroke:#5E5E5E;stroke-width:1.0416666666666667;" width="88.5417" x="491.6667" y="53.7028"/><rect fill="#1B1B1A" height="31.3883" rx="8.3333" ry="8.3333" style="stroke:#1B1B1A;stroke-width:1.0416666666666667;" width="88.5417" x="491.6667" y="53.7028"/><rect fill="#1B1B1A" height="8.3333" style="stroke:#1B1B1A;stroke-width:1.0416666666666667;" width="88.5417" x="491.6667" y="76.7578"/><rect fill="none" height="48.055" id="MapDot" rx="8.3333" ry="8.3333" style="stroke:#5E5E5E;stroke-width:1.0416666666666667;" width="88.5417" x="491.6667" y="53.7028"/><ellipse cx="506.25" cy="69.397" fill="#0066CF" rx="10.4167" ry="10.4167" style="stroke:#0086EF;stroke-width:1.0416666666666667;"/><path d="M508.1604,73.822 Q507.7332,74.0417 507.2632,74.1516 Q506.7932,74.2615 506.2744,74.2615 Q504.4312,74.2615 503.4607,73.0469 Q502.4902,71.8323 502.4902,69.5374 Q502.4902,67.2363 503.4607,66.0217 Q504.4312,64.8071 506.2744,64.8071 Q506.7932,64.8071 507.2693,64.917 Q507.7454,65.0269 508.1604,65.2466 L508.1604,67.2485 Q507.6965,66.8213 507.2601,66.6229 Q506.8237,66.4246 506.3599,66.4246 Q505.3711,66.4246 504.8676,67.2089 Q504.364,67.9932 504.364,69.5374 Q504.364,71.0754 504.8676,71.8597 Q505.3711,72.644 506.3599,72.644 Q506.8237,72.644 507.2601,72.4457 Q507.6965,72.2473 508.1604,71.8201 Z " fill="#000000"/><text fill="#D8BC00" font-family="Open Sans,Avenir,Nunito,Arial,Helvetica,SansSerif" font-size="12.5" font-weight="bold" lengthAdjust="spacing" textLength="51.0417" x="522.9167" y="74.1211">MapDot</text><line style="stroke:#5E5E5E;stroke-width:1.0416666666666667;" x1="492.7083" x2="579.1667" y1="85.0911" y2="85.0911"/><line style="stroke:#5E5E5E;stroke-width:1.0416666666666667;" x1="492.7083" x2="579.1667" y1="93.4245" y2="93.4245"/><!--MD5=[3980c8006480b19b39ceeb42c4250eeb]
class DrawableLocation--><rect codeLine="16" fill="#282828" height="103.123" id="DrawableLocation" rx="8.3333" ry="8.3333" style="stroke:#5E5E5E;stroke-width:1.0416666666666667;" width="259.375" x="406.25" y="347.9736"/><rect fill="#1B1B1A" height="31.3883" rx="8.3333" ry="8.3333" style="stroke:#1B1B1A;stroke-width:1.0416666666666667;" width="259.375" x="406.25" y="347.9736"/><rect fill="#1B1B1A" height="8.3333" style="stroke:#1B1B1A;stroke-width:1.0416666666666667;" width="259.375" x="406.25" y="371.0286"/><rect codeLine="16" fill="none" height="103.123" id="DrawableLocation" rx="8.3333" ry="8.3333" style="stroke:#5E5E5E;stroke-width:1.0416666666666667;" width="259.375" x="406.25" y="347.9736"/><ellipse cx="470.8333" cy="363.6678" fill="#0066CF" rx="10.4167" ry="10.4167" style="stroke:#0086EF;stroke-width:1.0416666666666667;"/><path d="M472.7437,368.0929 Q472.3165,368.3126 471.8465,368.4224 Q471.3765,368.5323 470.8577,368.5323 Q469.0145,368.5323 468.044,367.3177 Q467.0736,366.1031 467.0736,363.8082 Q467.0736,361.5072 468.044,360.2926 Q469.0145,359.078 470.8577,359.078 Q471.3765,359.078 471.8526,359.1878 Q472.3287,359.2977 472.7437,359.5174 L472.7437,361.5194 Q472.2799,361.0921 471.8435,360.8938 Q471.4071,360.6954 470.9432,360.6954 Q469.9544,360.6954 469.4509,361.4797 Q468.9473,362.264 468.9473,363.8082 Q468.9473,365.3463 469.4509,366.1306 Q469.9544,366.9149 470.9432,366.9149 Q471.4071,366.9149 471.8435,366.7165 Q472.2799,366.5181 472.7437,366.0909 Z " fill="#000000"/><text fill="#D8BC00" font-family="Open Sans,Avenir,Nunito,Arial,Helvetica,SansSerif" font-size="12.5" font-weight="bold" lengthAdjust="spacing" textLength="115.625" x="493.75" y="368.3919">DrawableLocation</text><line style="stroke:#5E5E5E;stroke-width:1.5625;" x1="407.2917" x2="664.5833" y1="379.362" y2="379.362"/><ellipse cx="417.7083" cy="414.7319" fill="#84BE84" rx="3.125" ry="3.125" style="stroke:#038048;stroke-width:1.0416666666666667;"/><text fill="#D8BC00" font-family="Open Sans,Avenir,Nunito,Arial,Helvetica,SansSerif" font-size="11.4583" lengthAdjust="spacing" textLength="187.5" x="429.1667" y="421.6431">DrawableLocation(Location, Style)</text><ellipse cx="417.7083" cy="434.4767" fill="#84BE84" rx="3.125" ry="3.125" style="stroke:#038048;stroke-width:1.0416666666666667;"/><text fill="#D8BC00" font-family="Open Sans,Avenir,Nunito,Arial,Helvetica,SansSerif" font-size="11.4583" lengthAdjust="spacing" textLength="227.0833" x="429.1667" y="441.3879">DrawableLocation(Location, Style, String)</text><line style="stroke:#5E5E5E;stroke-width:1.0416666666666667;" x1="407.2917" x2="492.1875" y1="397.5677" y2="397.5677"/><text fill="#D8BC00" font-family="Open Sans,Avenir,Nunito,Arial,Helvetica,SansSerif" font-size="11.4583" lengthAdjust="spacing" textLength="81.25" x="495.3125" y="401.3774">(constructors)</text><line style="stroke:#5E5E5E;stroke-width:1.0416666666666667;" x1="579.6875" x2="664.5833" y1="397.5677" y2="397.5677"/><!--MD5=[33240d87819904c63d88e41be10f4bd6]
class MapPolyline--><rect fill="#282828" height="48.055" id="MapPolyline" rx="8.3333" ry="8.3333" style="stroke:#5E5E5E;stroke-width:1.0416666666666667;" width="115.625" x="187.5" y="53.7028"/><rect fill="#1B1B1A" height="31.3883" rx="8.3333" ry="8.3333" style="stroke:#1B1B1A;stroke-width:1.0416666666666667;" width="115.625" x="187.5" y="53.7028"/><rect fill="#1B1B1A" height="8.3333" style="stroke:#1B1B1A;stroke-width:1.0416666666666667;" width="115.625" x="187.5" y="76.7578"/><rect fill="none" height="48.055" id="MapPolyline" rx="8.3333" ry="8.3333" style="stroke:#5E5E5E;stroke-width:1.0416666666666667;" width="115.625" x="187.5" y="53.7028"/><ellipse cx="202.0833" cy="69.397" fill="#0066CF" rx="10.4167" ry="10.4167" style="stroke:#0086EF;stroke-width:1.0416666666666667;"/><path d="M203.9937,73.822 Q203.5665,74.0417 203.0965,74.1516 Q202.6265,74.2615 202.1077,74.2615 Q200.2645,74.2615 199.294,73.0469 Q198.3236,71.8323 198.3236,69.5374 Q198.3236,67.2363 199.294,66.0217 Q200.2645,64.8071 202.1077,64.8071 Q202.6265,64.8071 203.1026,64.917 Q203.5787,65.0269 203.9937,65.2466 L203.9937,67.2485 Q203.5299,66.8213 203.0935,66.6229 Q202.6571,66.4246 202.1932,66.4246 Q201.2044,66.4246 200.7009,67.2089 Q200.1973,67.9932 200.1973,69.5374 Q200.1973,71.0754 200.7009,71.8597 Q201.2044,72.644 202.1932,72.644 Q202.6571,72.644 203.0935,72.4457 Q203.5299,72.2473 203.9937,71.8201 Z " fill="#000000"/><text fill="#D8BC00" font-family="Open Sans,Avenir,Nunito,Arial,Helvetica,SansSerif" font-size="12.5" font-weight="bold" lengthAdjust="spacing" textLength="78.125" x="218.75" y="74.1211">MapPolyline</text><line style="stroke:#5E5E5E;stroke-width:1.0416666666666667;" x1="188.5417" x2="302.0833" y1="85.0911" y2="85.0911"/><line style="stroke:#5E5E5E;stroke-width:1.0416666666666667;" x1="188.5417" x2="302.0833" y1="93.4245" y2="93.4245"/><!--MD5=[59e90e2d4119aa7e0ab880fdf9bd8321]
class DrawableRoute--><rect codeLine="31" fill="#282828" height="103.123" id="DrawableRoute" rx="8.3333" ry="8.3333" style="stroke:#5E5E5E;stroke-width:1.0416666666666667;" width="228.125" x="261.4583" y="697.4528"/><rect fill="#1B1B1A" height="31.3883" rx="8.3333" ry="8.3333" style="stroke:#1B1B1A;stroke-width:1.0416666666666667;" width="228.125" x="261.4583" y="697.4528"/><rect fill="#1B1B1A" height="8.3333" style="stroke:#1B1B1A;stroke-width:1.0416666666666667;" width="228.125" x="261.4583" y="720.5078"/><rect codeLine="31" fill="none" height="103.123" id="DrawableRoute" rx="8.3333" ry="8.3333" style="stroke:#5E5E5E;stroke-width:1.0416666666666667;" width="228.125" x="261.4583" y="697.4528"/><ellipse cx="319.2708" cy="713.147" fill="#0066CF" rx="10.4167" ry="10.4167" style="stroke:#0086EF;stroke-width:1.0416666666666667;"/><path d="M321.1812,717.572 Q320.754,717.7917 320.284,717.9016 Q319.814,718.0115 319.2952,718.0115 Q317.452,718.0115 316.4815,716.7969 Q315.5111,715.5823 315.5111,713.2874 Q315.5111,710.9863 316.4815,709.7717 Q317.452,708.5571 319.2952,708.5571 Q319.814,708.5571 320.2901,708.667 Q320.7662,708.7769 321.1812,708.9966 L321.1812,710.9985 Q320.7174,710.5713 320.281,710.3729 Q319.8446,710.1746 319.3807,710.1746 Q318.3919,710.1746 317.8884,710.9589 Q317.3848,711.7432 317.3848,713.2874 Q317.3848,714.8254 317.8884,715.6097 Q318.3919,716.394 319.3807,716.394 Q319.8446,716.394 320.281,716.1957 Q320.7174,715.9973 321.1812,715.5701 Z " fill="#000000"/><text fill="#D8BC00" font-family="Open Sans,Avenir,Nunito,Arial,Helvetica,SansSerif" font-size="12.5" font-weight="bold" lengthAdjust="spacing" textLength="97.9167" x="342.1875" y="717.8711">DrawableRoute</text><line style="stroke:#5E5E5E;stroke-width:1.5625;" x1="262.5" x2="488.5417" y1="728.8411" y2="728.8411"/><ellipse cx="272.9167" cy="764.211" fill="#84BE84" rx="3.125" ry="3.125" style="stroke:#038048;stroke-width:1.0416666666666667;"/><text fill="#D8BC00" font-family="Open Sans,Avenir,Nunito,Arial,Helvetica,SansSerif" font-size="11.4583" lengthAdjust="spacing" textLength="156.25" x="284.375" y="771.1222">DrawableRoute(Route, Style)</text><ellipse cx="272.9167" cy="783.9559" fill="#84BE84" rx="3.125" ry="3.125" style="stroke:#038048;stroke-width:1.0416666666666667;"/><text fill="#D8BC00" font-family="Open Sans,Avenir,Nunito,Arial,Helvetica,SansSerif" font-size="11.4583" lengthAdjust="spacing" textLength="195.8333" x="284.375" y="790.8671">DrawableRoute(Route, Style, String)</text><line style="stroke:#5E5E5E;stroke-width:1.0416666666666667;" x1="262.5" x2="331.7708" y1="747.0469" y2="747.0469"/><text fill="#D8BC00" font-family="Open Sans,Avenir,Nunito,Arial,Helvetica,SansSerif" font-size="11.4583" lengthAdjust="spacing" textLength="81.25" x="334.8958" y="750.8565">(constructors)</text><line style="stroke:#5E5E5E;stroke-width:1.0416666666666667;" x1="419.2708" x2="488.5417" y1="747.0469" y2="747.0469"/><!--MD5=[4d857a20b46f03b129d59360f3197b04]
class DebugViewer--><rect fill="#282828" height="48.055" id="DebugViewer" rx="8.3333" ry="8.3333" style="stroke:#5E5E5E;stroke-width:1.0416666666666667;" width="122.9167" x="752.6042" y="53.7028"/><rect fill="#1B1B1A" height="31.3883" rx="8.3333" ry="8.3333" style="stroke:#1B1B1A;stroke-width:1.0416666666666667;" width="122.9167" x="752.6042" y="53.7028"/><rect fill="#1B1B1A" height="8.3333" style="stroke:#1B1B1A;stroke-width:1.0416666666666667;" width="122.9167" x="752.6042" y="76.7578"/><rect fill="none" height="48.055" id="DebugViewer" rx="8.3333" ry="8.3333" style="stroke:#5E5E5E;stroke-width:1.0416666666666667;" width="122.9167" x="752.6042" y="53.7028"/><ellipse cx="767.1875" cy="69.397" fill="#0066CF" rx="10.4167" ry="10.4167" style="stroke:#0086EF;stroke-width:1.0416666666666667;"/><path d="M769.0979,73.822 Q768.6707,74.0417 768.2007,74.1516 Q767.7307,74.2615 767.2119,74.2615 Q765.3687,74.2615 764.3982,73.0469 Q763.4277,71.8323 763.4277,69.5374 Q763.4277,67.2363 764.3982,66.0217 Q765.3687,64.8071 767.2119,64.8071 Q767.7307,64.8071 768.2068,64.917 Q768.6829,65.0269 769.0979,65.2466 L769.0979,67.2485 Q768.634,66.8213 768.1976,66.6229 Q767.7612,66.4246 767.2974,66.4246 Q766.3086,66.4246 765.8051,67.2089 Q765.3015,67.9932 765.3015,69.5374 Q765.3015,71.0754 765.8051,71.8597 Q766.3086,72.644 767.2974,72.644 Q767.7612,72.644 768.1976,72.4457 Q768.634,72.2473 769.0979,71.8201 Z " fill="#000000"/><text fill="#D8BC00" font-family="Open Sans,Avenir,Nunito,Arial,Helvetica,SansSerif" font-size="12.5" font-weight="bold" lengthAdjust="spacing" textLength="85.4167" x="783.8542" y="74.1211">DebugViewer</text><line style="stroke:#5E5E5E;stroke-width:1.0416666666666667;" x1="753.6458" x2="874.4792" y1="85.0911" y2="85.0911"/><line style="stroke:#5E5E5E;stroke-width:1.0416666666666667;" x1="753.6458" x2="874.4792" y1="93.4245" y2="93.4245"/><!--MD5=[27adc257125e5ab18b92525a52ba78d8]
class GraphDebugViewer--><rect codeLine="39" fill="#282828" height="471.0307" id="GraphDebugViewer" rx="8.3333" ry="8.3333" style="stroke:#5E5E5E;stroke-width:1.0416666666666667;" width="222.9167" x="702.6042" y="164.1195"/><rect fill="#1B1B1A" height="31.3883" rx="8.3333" ry="8.3333" style="stroke:#1B1B1A;stroke-width:1.0416666666666667;" width="222.9167" x="702.6042" y="164.1195"/><rect fill="#1B1B1A" height="8.3333" style="stroke:#1B1B1A;stroke-width:1.0416666666666667;" width="222.9167" x="702.6042" y="187.1745"/><rect codeLine="39" fill="none" height="471.0307" id="GraphDebugViewer" rx="8.3333" ry="8.3333" style="stroke:#5E5E5E;stroke-width:1.0416666666666667;" width="222.9167" x="702.6042" y="164.1195"/><ellipse cx="744.8438" cy="179.8136" fill="#0066CF" rx="10.4167" ry="10.4167" style="stroke:#0086EF;stroke-width:1.0416666666666667;"/><path d="M746.7542,184.2387 Q746.3269,184.4584 745.8569,184.5683 Q745.387,184.6781 744.8682,184.6781 Q743.0249,184.6781 742.0544,183.4635 Q741.084,182.2489 741.084,179.954 Q741.084,177.653 742.0544,176.4384 Q743.0249,175.2238 744.8682,175.2238 Q745.387,175.2238 745.863,175.3337 Q746.3391,175.4435 746.7542,175.6632 L746.7542,177.6652 Q746.2903,177.238 745.8539,177.0396 Q745.4175,176.8412 744.9536,176.8412 Q743.9648,176.8412 743.4613,177.6255 Q742.9578,178.4098 742.9578,179.954 Q742.9578,181.4921 743.4613,182.2764 Q743.9648,183.0607 744.9536,183.0607 Q745.4175,183.0607 745.8539,182.8623 Q746.2903,182.664 746.7542,182.2367 Z " fill="#000000"/><text fill="#D8BC00" font-family="Open Sans,Avenir,Nunito,Arial,Helvetica,SansSerif" font-size="12.5" font-weight="bold" lengthAdjust="spacing" textLength="123.9583" x="767.6563" y="184.5378">GraphDebugViewer</text><line style="stroke:#5E5E5E;stroke-width:1.5625;" x1="703.6458" x2="924.4792" y1="195.5078" y2="195.5078"/><ellipse cx="714.0625" cy="230.8777" fill="#84BE84" rx="3.125" ry="3.125" style="stroke:#038048;stroke-width:1.0416666666666667;"/><text fill="#D8BC00" font-family="Open Sans,Avenir,Nunito,Arial,Helvetica,SansSerif" font-size="11.4583" lengthAdjust="spacing" textLength="115.625" x="725.5208" y="237.7889">GraphDebugViewer()</text><line style="stroke:#5E5E5E;stroke-width:1.0416666666666667;" x1="703.6458" x2="770.3125" y1="213.7136" y2="213.7136"/><text fill="#D8BC00" font-family="Open Sans,Avenir,Nunito,Arial,Helvetica,SansSerif" font-size="11.4583" lengthAdjust="spacing" textLength="81.25" x="773.4375" y="217.5232">(constructors)</text><line style="stroke:#5E5E5E;stroke-width:1.0416666666666667;" x1="857.8125" x2="924.4792" y1="213.7136" y2="213.7136"/><line style="stroke:#5E5E5E;stroke-width:1.0416666666666667;" x1="703.6458" x2="924.4792" y1="247.4976" y2="247.4976"/><ellipse cx="714.0625" cy="258.9559" fill="#84BE84" rx="3.125" ry="3.125" style="stroke:#038048;stroke-width:1.0416666666666667;"/><text fill="#D8BC00" font-family="Open Sans,Avenir,Nunito,Arial,Helvetica,SansSerif" font-size="11.4583" lengthAdjust="spacing" textLength="190.625" x="725.5208" y="265.8671">void candidate(Route, String label)</text><ellipse cx="714.0625" cy="278.7008" fill="#84BE84" rx="3.125" ry="3.125" style="stroke:#038048;stroke-width:1.0416666666666667;"/><text fill="#D8BC00" font-family="Open Sans,Avenir,Nunito,Arial,Helvetica,SansSerif" font-size="11.4583" lengthAdjust="spacing" textLength="185.4167" x="725.5208" y="285.612">void candidate(Edge, String label)</text><ellipse cx="714.0625" cy="298.4456" fill="#84BE84" rx="3.125" ry="3.125" style="stroke:#038048;stroke-width:1.0416666666666667;"/><text fill="#D8BC00" font-family="Open Sans,Avenir,Nunito,Arial,Helvetica,SansSerif" font-size="11.4583" lengthAdjust="spacing" textLength="116.6667" x="725.5208" y="305.3569">void candidate(Edge)</text><ellipse cx="714.0625" cy="318.1905" fill="#84BE84" rx="3.125" ry="3.125" style="stroke:#038048;stroke-width:1.0416666666666667;"/><text fill="#D8BC00" font-family="Open Sans,Avenir,Nunito,Arial,Helvetica,SansSerif" font-size="11.4583" lengthAdjust="spacing" textLength="121.875" x="725.5208" y="325.1017">void candidate(Route)</text><ellipse cx="714.0625" cy="337.9354" fill="#84BE84" rx="3.125" ry="3.125" style="stroke:#038048;stroke-width:1.0416666666666667;"/><text fill="#D8BC00" font-family="Open Sans,Avenir,Nunito,Arial,Helvetica,SansSerif" font-size="11.4583" lengthAdjust="spacing" textLength="178.125" x="725.5208" y="344.8466">void current(Route, String label)</text><ellipse cx="714.0625" cy="357.6803" fill="#84BE84" rx="3.125" ry="3.125" style="stroke:#038048;stroke-width:1.0416666666666667;"/><text fill="#D8BC00" font-family="Open Sans,Avenir,Nunito,Arial,Helvetica,SansSerif" font-size="11.4583" lengthAdjust="spacing" textLength="104.1667" x="725.5208" y="364.5915">void current(Edge)</text><ellipse cx="714.0625" cy="377.4251" fill="#84BE84" rx="3.125" ry="3.125" style="stroke:#038048;stroke-width:1.0416666666666667;"/><text fill="#D8BC00" font-family="Open Sans,Avenir,Nunito,Arial,Helvetica,SansSerif" font-size="11.4583" lengthAdjust="spacing" textLength="109.375" x="725.5208" y="384.3363">void current(Route)</text><ellipse cx="714.0625" cy="397.17" fill="#84BE84" rx="3.125" ry="3.125" style="stroke:#038048;stroke-width:1.0416666666666667;"/><text fill="#D8BC00" font-family="Open Sans,Avenir,Nunito,Arial,Helvetica,SansSerif" font-size="11.4583" lengthAdjust="spacing" textLength="172.9167" x="725.5208" y="404.0812">void current(Edge, String label)</text><ellipse cx="714.0625" cy="416.9149" fill="#84BE84" rx="3.125" ry="3.125" style="stroke:#038048;stroke-width:1.0416666666666667;"/><text fill="#D8BC00" font-family="Open Sans,Avenir,Nunito,Arial,Helvetica,SansSerif" font-size="11.4583" lengthAdjust="spacing" textLength="158.3333" x="725.5208" y="423.8261">void edge(Edge, String label)</text><ellipse cx="714.0625" cy="436.6597" fill="#84BE84" rx="3.125" ry="3.125" style="stroke:#038048;stroke-width:1.0416666666666667;"/><text fill="#D8BC00" font-family="Open Sans,Avenir,Nunito,Arial,Helvetica,SansSerif" font-size="11.4583" lengthAdjust="spacing" textLength="181.25" x="725.5208" y="443.571">void highlight(Edge, String label)</text><ellipse cx="714.0625" cy="456.4046" fill="#84BE84" rx="3.125" ry="3.125" style="stroke:#038048;stroke-width:1.0416666666666667;"/><text fill="#D8BC00" font-family="Open Sans,Avenir,Nunito,Arial,Helvetica,SansSerif" font-size="11.4583" lengthAdjust="spacing" textLength="186.4583" x="725.5208" y="463.3158">void highlight(Route, String label)</text><ellipse cx="714.0625" cy="476.1495" fill="#84BE84" rx="3.125" ry="3.125" style="stroke:#038048;stroke-width:1.0416666666666667;"/><text fill="#D8BC00" font-family="Open Sans,Avenir,Nunito,Arial,Helvetica,SansSerif" font-size="11.4583" lengthAdjust="spacing" textLength="166.6667" x="725.5208" y="483.0607">void route(Route, String label)</text><ellipse cx="714.0625" cy="519.8059" fill="#84BE84" rx="3.125" ry="3.125" style="stroke:#038048;stroke-width:1.0416666666666667;"/><text fill="#D8BC00" font-family="Open Sans,Avenir,Nunito,Arial,Helvetica,SansSerif" font-size="11.4583" lengthAdjust="spacing" textLength="145.8333" x="725.5208" y="526.7171">void clearCandidateEdge()</text><ellipse cx="714.0625" cy="539.5508" fill="#84BE84" rx="3.125" ry="3.125" style="stroke:#038048;stroke-width:1.0416666666666667;"/><text fill="#D8BC00" font-family="Open Sans,Avenir,Nunito,Arial,Helvetica,SansSerif" font-size="11.4583" lengthAdjust="spacing" textLength="151.0417" x="725.5208" y="546.462">void clearCandidateRoute()</text><ellipse cx="714.0625" cy="559.2957" fill="#84BE84" rx="3.125" ry="3.125" style="stroke:#038048;stroke-width:1.0416666666666667;"/><text fill="#D8BC00" font-family="Open Sans,Avenir,Nunito,Arial,Helvetica,SansSerif" font-size="11.4583" lengthAdjust="spacing" textLength="133.3333" x="725.5208" y="566.2069">void clearCurrentEdge()</text><ellipse cx="714.0625" cy="579.0405" fill="#84BE84" rx="3.125" ry="3.125" style="stroke:#038048;stroke-width:1.0416666666666667;"/><text fill="#D8BC00" font-family="Open Sans,Avenir,Nunito,Arial,Helvetica,SansSerif" font-size="11.4583" lengthAdjust="spacing" textLength="138.5417" x="725.5208" y="585.9517">void clearCurrentRoute()</text><ellipse cx="714.0625" cy="598.7854" fill="#84BE84" rx="3.125" ry="3.125" style="stroke:#038048;stroke-width:1.0416666666666667;"/><text fill="#D8BC00" font-family="Open Sans,Avenir,Nunito,Arial,Helvetica,SansSerif" font-size="11.4583" lengthAdjust="spacing" textLength="140.625" x="725.5208" y="605.6966">void clearHighlightEdge()</text><ellipse cx="714.0625" cy="618.5303" fill="#84BE84" rx="3.125" ry="3.125" style="stroke:#038048;stroke-width:1.0416666666666667;"/><text fill="#D8BC00" font-family="Open Sans,Avenir,Nunito,Arial,Helvetica,SansSerif" font-size="11.4583" lengthAdjust="spacing" textLength="145.8333" x="725.5208" y="625.4415">void clearHighlightRoute()</text><line style="stroke:#5E5E5E;stroke-width:1.0416666666666667;" x1="703.6458" x2="779.6875" y1="502.6418" y2="502.6418"/><text fill="#D8BC00" font-family="Open Sans,Avenir,Nunito,Arial,Helvetica,SansSerif" font-size="11.4583" lengthAdjust="spacing" textLength="62.5" x="782.8125" y="506.4514">(collection)</text><line style="stroke:#5E5E5E;stroke-width:1.0416666666666667;" x1="848.4375" x2="924.4792" y1="502.6418" y2="502.6418"/><!--MD5=[8b5ca8022b005bfd0eb66d1499cf0cec]
reverse link DrawablePolyline to DrawableEdge--><path codeLine="7" d="M222.7396,461.2861 C197.8333,528.2653 158.2188,634.8278 134.9375,697.432 " fill="none" id="DrawablePolyline-backto-DrawableEdge" style="stroke:#545454;stroke-width:1.5625;"/><polygon fill="none" points="216.0208,458.432,230.1146,441.4528,229.6875,463.5153,216.0208,458.432" style="stroke:#545454;stroke-width:1.5625;"/><!--MD5=[b618f9ca6322611f0d1800940e4d6a13]
reverse link MapDot to DrawableLocation--><path codeLine="15" d="M535.9375,122.9007 C535.9375,181.7757 535.9375,285.6924 535.9375,347.7132 " fill="none" id="MapDot-backto-DrawableLocation" style="stroke:#545454;stroke-width:1.5625;"/><polygon fill="none" points="528.6458,122.5361,535.9375,101.7028,543.2292,122.5361,528.6458,122.5361" style="stroke:#545454;stroke-width:1.5625;"/><!--MD5=[b52e158984bd36fb20c3352ef3a533a9]
reverse link MapPolyline to DrawablePolyline--><path codeLine="23" d="M245.3125,122.8382 C245.3125,184.9736 245.3125,297.359 245.3125,357.6507 " fill="none" id="MapPolyline-backto-DrawablePolyline" style="stroke:#545454;stroke-width:1.5625;"/><polygon fill="none" points="238.0208,122.5361,245.3125,101.7028,252.6042,122.5361,238.0208,122.5361" style="stroke:#545454;stroke-width:1.5625;"/><!--MD5=[a1a069d1fd167850d41036837d9696f9]
reverse link DrawablePolyline to DrawableRoute--><path codeLine="30" d="M268.0625,461.2861 C293.1667,528.2653 333.1146,634.8278 356.5833,697.432 " fill="none" id="DrawablePolyline-backto-DrawableRoute" style="stroke:#545454;stroke-width:1.5625;"/><polygon fill="none" points="261.1146,463.5153,260.6354,441.4528,274.7708,458.4007,261.1146,463.5153" style="stroke:#545454;stroke-width:1.5625;"/><!--MD5=[d74e9961e587dab8fe1c632a5370578e]
reverse link DebugViewer to GraphDebugViewer--><path codeLine="38" d="M814.0625,122.9215 C814.0625,134.9632 814.0625,148.8799 814.0625,163.932 " fill="none" id="DebugViewer-backto-GraphDebugViewer" style="stroke:#545454;stroke-width:1.5625;"/><polygon fill="none" points="806.7708,122.5361,814.0625,101.7028,821.3542,122.5361,806.7708,122.5361" style="stroke:#545454;stroke-width:1.5625;"/><!--MD5=[caaa36ca93d7642916d8020778071280]
@startuml

    !include lexakai.theme
    
    title "com.telenav.mesakit.graph.ui.viewer"
    
    DrawablePolyline <|- - DrawableEdge
    class DrawableEdge
    {
        - -(constructors)- -
        +DrawableEdge(Edge, Style)
        +DrawableEdge(Edge, Style, String)
    }
    
    MapDot <|- - DrawableLocation
    class DrawableLocation
    {
        - -(constructors)- -
        +DrawableLocation(Location, Style)
        +DrawableLocation(Location, Style, String)
    }
    
    MapPolyline <|- - DrawablePolyline
    class DrawablePolyline
    {
        - -(constructors)- -
        +DrawablePolyline(Polyline, Style, String)
    }
    
    DrawablePolyline <|- - DrawableRoute
    class DrawableRoute
    {
        - -(constructors)- -
        +DrawableRoute(Route, Style)
        +DrawableRoute(Route, Style, String)
    }
    
    DebugViewer <|- - GraphDebugViewer
    class GraphDebugViewer
    {
        - -(constructors)- -
        +GraphDebugViewer()
        - -
        +void candidate(Route, String label)
        +void candidate(Edge, String label)
        +void candidate(Edge)
        +void candidate(Route)
        +void current(Route, String label)
        +void current(Edge)
        +void current(Route)
        +void current(Edge, String label)
        +void edge(Edge, String label)
        +void highlight(Edge, String label)
        +void highlight(Route, String label)
        +void route(Route, String label)
        - -(collection)- -
        +void clearCandidateEdge()
        +void clearCandidateRoute()
        +void clearCurrentEdge()
        +void clearCurrentRoute()
        +void clearHighlightEdge()
        +void clearHighlightRoute()
    }
    
@enduml

@startuml









skinparam backgroundColor #333333






skinparam  {
    defaultFontName   "Open Sans,Avenir,Nunito,Arial,Helvetica,SansSerif"
    defaultFontSize   12
    defaultTextAlignment left
    shadowing false
    RoundCorner 10
    TitleFontSize 18
}

skinparam defaultFontName       "Open Sans,Avenir,Nunito,Arial,Helvetica,SansSerif"
skinparam defaultFontSize       12
skinparam dpi                   100
skinparam shadowing             false
skinparam roundcorner           16
skinparam ParticipantPadding    40
skinparam BoxPadding            40
skinparam Padding               3
skinparam ArrowColor            #545454
skinparam stereotype {
    CBackgroundColor #0066cf
    CBorderColor #0086ef
    ABackgroundColor #C8Ac00
    ABorderColor #D8Bc00
    IBackgroundColor #008400
    IBorderColor #239c23
    EBackgroundColor #cf6300
    EBorderColor #ef8300
    NBackgroundColor #3380b9
    NBorderColor #004d86
}
skinparam title {
	FontColor	                 #c0c0c0
 	BorderColor                  #545454
	FontSize	    	         20
	BorderRoundCorner            16
	BorderThickness 	         1
	BackgroundColor              #48494b
}


skinparam legend {
	BackgroundColor #303030
	BorderColor #404040
	FontColor #a0a0a0
}

	skinparam swimlane {
	BorderColor #5e5e5e
	BorderThickness 2
	TitleBackgroundColor  #6d6d6d-#484848
	TitleFontColor #303030
}

skinparam activity {
		FontColor #C8Ac00
	BorderColor #333333
	BackgroundColor #333333-#333333
	BarColor #00FF00
	StartColor #0060a8
	EndColor #0060a8
	DiamondBackgroundColor #6d6d6d-#3a3a3a
  	DiamondBorderColor #3a3a3a
  	DiamondFontColor #fefefe
}


skinparam participant {
		FontColor #C8Ac00
	BorderColor #333333
	BackgroundColor #333333-#333333
	ParticipantBorderThickness 2
}


skinparam actor {
		FontColor #C8Ac00
	BorderColor #333333
	BackgroundColor #333333-#333333
}


skinparam arrow {
	Thickness 1.5
	Color #545454
	FontColor #a0a0a0
    FontStyle bold
    MessageAlignment center
}



skinparam sequence {
	BorderColor #303030
	TitleFontColor #303030
	BackgroundColor #333333
	StartColor #303030
	EndColor #303030
	BoxBackgroundColor #333333
	BoxBorderColor #484848
	BoxFontColor #484848
	LifeLineBorderColor #484848
	LifeLineBorderThickness 2
	LifeLineBackgroundColor #3a3a3a
	GroupBorderColor #484848
	GroupFontColor #484848
	GroupHeaderFontColor #0060a8
	GroupBackgroundColor #484848
	GroupHeaderBackgroundColor #333333
	DividerBackgroundColor #484848
    DividerBorderColor #484848
    DividerBorderThickness 2
    DividerFontColor #D8Bc00
	ReferenceBackgroundColor #333333
	ReferenceBorderColor #484848
	ReferenceFontColor #fefefe
	ReferenceHeaderBackgroundColor #484848
}


skinparam partition {
	BorderColor #303030
	FontColor #333333
	BackgroundColor #333333
}


skinparam collections {
		FontColor #C8Ac00
	BorderColor #333333
	BackgroundColor #333333-#333333
}


skinparam control {
		FontColor #C8Ac00
	BorderColor #333333
	BackgroundColor #333333-#333333
}


skinparam entity {
		FontColor #C8Ac00
	BorderColor #333333
	BackgroundColor #333333-#333333
}


skinparam boundary {
		FontColor #C8Ac00
	BorderColor #333333
	BackgroundColor #333333-#333333
}


skinparam agent {
	BackgroundColor #ff8000
	BorderColor #ff9933
	FontColor #484848
}


skinparam note {
	BorderThickness 1
	BackgroundColor #1b1b1a
	BorderColor #5e5e5e
	FontSize 11
	FontColor #a0a0a0
}


skinparam artifact {
	BorderThickness 10
	BorderColor #5e5e5e
	BackgroundColor #1b1b1a
	FontColor #D8Bc00
}


skinparam component {
		FontColor #C8Ac00
	BorderColor #333333
	BackgroundColor #333333-#333333
}


skinparam interface {
	BackgroundColor  #008400
	BorderColor  #007F00
	FontColor #484848
}


skinparam storage {
	BackgroundColor #ff8000
  	BorderColor #cc6600
	FontColor #222222
}


skinparam node {
	BackgroundColor #333333
	BorderColor #333333
	FontColor #C8Ac00
}


skinparam cloud {
	BackgroundColor #484848-black
	BorderColor #484848
	FontColor #D8Bc00
}


skinparam database {
		FontColor #C8Ac00
	BorderColor #333333
	BackgroundColor #333333-#333333
	BackgroundColor  #333333
}


skinparam class {
		FontColor #C8Ac00
	BorderColor #333333
	BackgroundColor #333333-#333333
	HeaderBackgroundColor #1b1b1a
    BackgroundColor #282828
    BorderColor #5e5e5e
 	StereotypeFontColor #a0a0a0
    StereotypeFontStyle bold
	BorderThickness 1
	AttributeFontColor #D8Bc00
	AttributeFontSize 11
    FontColor #D8Bc00
    FontStyle bold
}


skinparam object {
		FontColor #C8Ac00
	BorderColor #333333
	BackgroundColor #333333-#333333
	StereotypeFontColor #484848
	BorderThickness 1
	AttributeFontColor #fefefe
	AttributeFontSize 11
}


skinparam usecase {
		FontColor #C8Ac00
	BorderColor #333333
	BackgroundColor #333333-#333333
	BorderThickness 2
	StereotypeFontColor #303030
}


skinparam rectangle {
		FontColor #C8Ac00
	BorderColor #333333
	BackgroundColor #333333-#333333
	BackgroundColor #333333
	BorderThickness 2
	StereotypeFontColor #303030
}


skinparam package {
		FontColor #C8Ac00
	BorderColor #333333
	BackgroundColor #333333-#333333
	BackgroundColor #333333
	BorderThickness 2
}


skinparam folder {
	BackgroundColor #6d6d6d
  	BorderColor #ff8000
	FontColor #ff8000
	BorderThickness 2
}


skinparam frame {
	BackgroundColor #6d6d6d
  	BorderColor #0060a8
	FontColor #0060a8
	BorderThickness 2
}


skinparam state {
		FontColor #C8Ac00
	BorderColor #333333
	BackgroundColor #333333-#333333
	StartColor #0060a8
	EndColor #0060a8
	AttributeFontColor #fefefe
	AttributeFontSize 11
}


skinparam queue {
		FontColor #C8Ac00
	BorderColor #333333
	BackgroundColor #333333-#333333
}


skinparam card {
	BackgroundColor #0060a8
	BorderColor #004d86
	FontColor $INFO_TEXT
}


skinparam file {
	BackgroundColor #6d6d6d-#484848
	BorderColor #0060a8
	FontColor #fefefe
}


skinparam stack {
		FontColor #C8Ac00
	BorderColor #333333
	BackgroundColor #333333-#333333
}

    
    title "com.telenav.mesakit.graph.ui.viewer"
    
    DrawablePolyline <|- - DrawableEdge
    class DrawableEdge
    {
        - -(constructors)- -
        +DrawableEdge(Edge, Style)
        +DrawableEdge(Edge, Style, String)
    }
    
    MapDot <|- - DrawableLocation
    class DrawableLocation
    {
        - -(constructors)- -
        +DrawableLocation(Location, Style)
        +DrawableLocation(Location, Style, String)
    }
    
    MapPolyline <|- - DrawablePolyline
    class DrawablePolyline
    {
        - -(constructors)- -
        +DrawablePolyline(Polyline, Style, String)
    }
    
    DrawablePolyline <|- - DrawableRoute
    class DrawableRoute
    {
        - -(constructors)- -
        +DrawableRoute(Route, Style)
        +DrawableRoute(Route, Style, String)
    }
    
    DebugViewer <|- - GraphDebugViewer
    class GraphDebugViewer
    {
        - -(constructors)- -
        +GraphDebugViewer()
        - -
        +void candidate(Route, String label)
        +void candidate(Edge, String label)
        +void candidate(Edge)
        +void candidate(Route)
        +void current(Route, String label)
        +void current(Edge)
        +void current(Route)
        +void current(Edge, String label)
        +void edge(Edge, String label)
        +void highlight(Edge, String label)
        +void highlight(Route, String label)
        +void route(Route, String label)
        - -(collection)- -
        +void clearCandidateEdge()
        +void clearCandidateRoute()
        +void clearCurrentEdge()
        +void clearCurrentRoute()
        +void clearHighlightEdge()
        +void clearHighlightRoute()
    }
    
@enduml

PlantUML version 1.2021.01(Tue Feb 02 02:55:08 EST 2021)
(GPL source distribution)
Java Runtime: OpenJDK Runtime Environment
JVM: OpenJDK 64-Bit Server VM
Default Encoding: UTF-8
Language: en
Country: US
--></g></svg>