<?xml version="1.0" encoding="UTF-8" standalone="no"?><svg xmlns="http://www.w3.org/2000/svg" xmlns:xlink="http://www.w3.org/1999/xlink" contentScriptType="application/ecmascript" contentStyleType="text/css" height="412.5px" preserveAspectRatio="none" style="width:690px;height:412px;background:#333333;" version="1.1" viewBox="0 0 690 412" width="690.625px" zoomAndPan="magnify"><defs/><g><rect fill="#48494B" height="41.2028" rx="8.3333" ry="8.3333" style="stroke:#545454;stroke-width:1.0416666666666667;" width="342.7083" x="166.6667" y="2.0833"/><text fill="#C0C0C0" font-family="Open Sans,Avenir,Nunito,Arial,Helvetica,SansSerif" font-size="20.8333" lengthAdjust="spacing" textLength="319.7917" x="178.125" y="30.5583">com.telenav.mesakit.map.cutter</text><!--MD5=[cf10e9aa00a725350261dad3f1642ccf]
class Cut--><rect codeLine="6" fill="#282828" height="111.4563" id="Cut" rx="8.3333" ry="8.3333" style="stroke:#5E5E5E;stroke-width:1.0416666666666667;" width="152.0833" x="9.375" y="294.3278"/><rect fill="#1B1B1A" height="31.3883" rx="8.3333" ry="8.3333" style="stroke:#1B1B1A;stroke-width:1.0416666666666667;" width="152.0833" x="9.375" y="294.3278"/><rect fill="#1B1B1A" height="8.3333" style="stroke:#1B1B1A;stroke-width:1.0416666666666667;" width="152.0833" x="9.375" y="317.3828"/><rect codeLine="6" fill="none" height="111.4563" id="Cut" rx="8.3333" ry="8.3333" style="stroke:#5E5E5E;stroke-width:1.0416666666666667;" width="152.0833" x="9.375" y="294.3278"/><ellipse cx="66.6667" cy="310.022" fill="#C8AC00" rx="10.4167" ry="10.4167" style="stroke:#D8BC00;stroke-width:1.0416666666666667;"/><path d="M66.2598,306.724 L65.4114,310.4533 L67.1143,310.4533 Z M65.1611,305.0761 L67.3645,305.0761 L69.8242,314.1886 L68.0237,314.1886 L67.4622,311.9364 L65.0513,311.9364 L64.502,314.1886 L62.7014,314.1886 Z " fill="#000000"/><text fill="#D8BC00" font-family="Open Sans,Avenir,Nunito,Arial,Helvetica,SansSerif" font-size="12.5" font-style="italic" font-weight="bold" lengthAdjust="spacing" textLength="22.9167" x="89.5833" y="314.7461">Cut</text><line style="stroke:#5E5E5E;stroke-width:1.5625;" x1="10.4167" x2="160.4167" y1="325.7161" y2="325.7161"/><polygon fill="#FFFF44" points="20.8333,355.8777,25,360.0444,20.8333,364.211,16.6667,360.0444" style="stroke:#B38D22;stroke-width:1.0416666666666667;"/><text fill="#D8BC00" font-family="Open Sans,Avenir,Nunito,Arial,Helvetica,SansSerif" font-size="11.4583" lengthAdjust="spacing" textLength="119.7917" x="32.2917" y="367.9972">Cut(PbfRegionCutter)</text><line style="stroke:#5E5E5E;stroke-width:1.0416666666666667;" x1="10.4167" x2="41.6667" y1="343.9219" y2="343.9219"/><text fill="#D8BC00" font-family="Open Sans,Avenir,Nunito,Arial,Helvetica,SansSerif" font-size="11.4583" lengthAdjust="spacing" textLength="81.25" x="44.7917" y="347.7315">(constructors)</text><line style="stroke:#5E5E5E;stroke-width:1.0416666666666667;" x1="129.1667" x2="160.4167" y1="343.9219" y2="343.9219"/><line style="stroke:#5E5E5E;stroke-width:1.0416666666666667;" x1="10.4167" x2="160.4167" y1="377.7059" y2="377.7059"/><ellipse cx="20.8333" cy="389.1642" fill="#84BE84" rx="3.125" ry="3.125" style="stroke:#038048;stroke-width:1.0416666666666667;"/><text fill="#D8BC00" font-family="Open Sans,Avenir,Nunito,Arial,Helvetica,SansSerif" font-size="11.4583" lengthAdjust="spacing" textLength="116.6667" x="32.2917" y="396.0754">Set&lt;Resource&gt; cut()</text><!--MD5=[1cee8177a5616688f1e826bf6962052a]
class PbfRegionCutter--><rect codeLine="17" fill="#282828" height="155.1127" id="PbfRegionCutter" rx="8.3333" ry="8.3333" style="stroke:#5E5E5E;stroke-width:1.0416666666666667;" width="368.75" x="62.5" y="53.7028"/><rect fill="#1B1B1A" height="31.3883" rx="8.3333" ry="8.3333" style="stroke:#1B1B1A;stroke-width:1.0416666666666667;" width="368.75" x="62.5" y="53.7028"/><rect fill="#1B1B1A" height="8.3333" style="stroke:#1B1B1A;stroke-width:1.0416666666666667;" width="368.75" x="62.5" y="76.7578"/><rect codeLine="17" fill="none" height="155.1127" id="PbfRegionCutter" rx="8.3333" ry="8.3333" style="stroke:#5E5E5E;stroke-width:1.0416666666666667;" width="368.75" x="62.5" y="53.7028"/><ellipse cx="186.4583" cy="69.397" fill="#0066CF" rx="10.4167" ry="10.4167" style="stroke:#0086EF;stroke-width:1.0416666666666667;"/><path d="M188.3687,73.822 Q187.9415,74.0417 187.4715,74.1516 Q187.0015,74.2615 186.4827,74.2615 Q184.6395,74.2615 183.669,73.0469 Q182.6986,71.8323 182.6986,69.5374 Q182.6986,67.2363 183.669,66.0217 Q184.6395,64.8071 186.4827,64.8071 Q187.0015,64.8071 187.4776,64.917 Q187.9537,65.0269 188.3687,65.2466 L188.3687,67.2485 Q187.9049,66.8213 187.4685,66.6229 Q187.0321,66.4246 186.5682,66.4246 Q185.5794,66.4246 185.0759,67.2089 Q184.5723,67.9932 184.5723,69.5374 Q184.5723,71.0754 185.0759,71.8597 Q185.5794,72.644 186.5682,72.644 Q187.0321,72.644 187.4685,72.4457 Q187.9049,72.2473 188.3687,71.8201 Z " fill="#000000"/><text fill="#D8BC00" font-family="Open Sans,Avenir,Nunito,Arial,Helvetica,SansSerif" font-size="12.5" font-weight="bold" lengthAdjust="spacing" textLength="106.25" x="209.375" y="74.1211">PbfRegionCutter</text><line style="stroke:#5E5E5E;stroke-width:1.5625;" x1="63.5417" x2="430.2083" y1="85.0911" y2="85.0911"/><ellipse cx="73.9583" cy="120.461" fill="#84BE84" rx="3.125" ry="3.125" style="stroke:#038048;stroke-width:1.0416666666666667;"/><text fill="#D8BC00" font-family="Open Sans,Avenir,Nunito,Arial,Helvetica,SansSerif" font-size="11.4583" lengthAdjust="spacing" textLength="336.4583" x="85.4167" y="127.3722">PbfRegionCutter(Source&lt;PbfDataSource&gt;, Folder, WayFilter)</text><line style="stroke:#5E5E5E;stroke-width:1.0416666666666667;" x1="63.5417" x2="203.125" y1="103.2969" y2="103.2969"/><text fill="#D8BC00" font-family="Open Sans,Avenir,Nunito,Arial,Helvetica,SansSerif" font-size="11.4583" lengthAdjust="spacing" textLength="81.25" x="206.25" y="107.1065">(constructors)</text><line style="stroke:#5E5E5E;stroke-width:1.0416666666666667;" x1="290.625" x2="430.2083" y1="103.2969" y2="103.2969"/><line style="stroke:#5E5E5E;stroke-width:1.0416666666666667;" x1="63.5417" x2="430.2083" y1="137.0809" y2="137.0809"/><ellipse cx="73.9583" cy="148.5392" fill="#84BE84" rx="3.125" ry="3.125" style="stroke:#038048;stroke-width:1.0416666666666667;"/><text fill="#D8BC00" font-family="Open Sans,Avenir,Nunito,Arial,Helvetica,SansSerif" font-size="11.4583" lengthAdjust="spacing" textLength="287.5" x="85.4167" y="155.4504">void regionsToExtract(RegionSet regionsToExtract)</text><ellipse cx="73.9583" cy="192.1956" fill="#84BE84" rx="3.125" ry="3.125" style="stroke:#038048;stroke-width:1.0416666666666667;"/><text fill="#D8BC00" font-family="Open Sans,Avenir,Nunito,Arial,Helvetica,SansSerif" font-size="11.4583" lengthAdjust="spacing" textLength="101.0417" x="85.4167" y="199.1069">ResourceList cut()</text><line style="stroke:#5E5E5E;stroke-width:1.0416666666666667;" x1="63.5417" x2="223.9583" y1="175.0315" y2="175.0315"/><text fill="#D8BC00" font-family="Open Sans,Avenir,Nunito,Arial,Helvetica,SansSerif" font-size="11.4583" lengthAdjust="spacing" textLength="39.5833" x="227.0833" y="178.8411">cutting</text><line style="stroke:#5E5E5E;stroke-width:1.0416666666666667;" x1="269.7917" x2="430.2083" y1="175.0315" y2="175.0315"/><!--MD5=[296971189912b7d7a3ae0a5bad58974f]
class WayFilter--><rect fill="#282828" height="48.055" id="WayFilter" rx="8.3333" ry="8.3333" style="stroke:#5E5E5E;stroke-width:1.0416666666666667;" width="96.875" x="198.4375" y="326.0986"/><rect fill="#1B1B1A" height="31.3883" rx="8.3333" ry="8.3333" style="stroke:#1B1B1A;stroke-width:1.0416666666666667;" width="96.875" x="198.4375" y="326.0986"/><rect fill="#1B1B1A" height="8.3333" style="stroke:#1B1B1A;stroke-width:1.0416666666666667;" width="96.875" x="198.4375" y="349.1536"/><rect fill="none" height="48.055" id="WayFilter" rx="8.3333" ry="8.3333" style="stroke:#5E5E5E;stroke-width:1.0416666666666667;" width="96.875" x="198.4375" y="326.0986"/><ellipse cx="213.0208" cy="341.7928" fill="#0066CF" rx="10.4167" ry="10.4167" style="stroke:#0086EF;stroke-width:1.0416666666666667;"/><path d="M214.9312,346.2179 Q214.504,346.4376 214.034,346.5474 Q213.564,346.6573 213.0452,346.6573 Q211.202,346.6573 210.2315,345.4427 Q209.2611,344.2281 209.2611,341.9332 Q209.2611,339.6322 210.2315,338.4176 Q211.202,337.203 213.0452,337.203 Q213.564,337.203 214.0401,337.3128 Q214.5162,337.4227 214.9312,337.6424 L214.9312,339.6444 Q214.4674,339.2171 214.031,339.0188 Q213.5946,338.8204 213.1307,338.8204 Q212.1419,338.8204 211.6384,339.6047 Q211.1348,340.389 211.1348,341.9332 Q211.1348,343.4713 211.6384,344.2556 Q212.1419,345.0399 213.1307,345.0399 Q213.5946,345.0399 214.031,344.8415 Q214.4674,344.6431 214.9312,344.2159 Z " fill="#000000"/><text fill="#D8BC00" font-family="Open Sans,Avenir,Nunito,Arial,Helvetica,SansSerif" font-size="12.5" font-weight="bold" lengthAdjust="spacing" textLength="59.375" x="229.6875" y="346.5169">WayFilter</text><line style="stroke:#5E5E5E;stroke-width:1.0416666666666667;" x1="199.4792" x2="294.2708" y1="357.487" y2="357.487"/><line style="stroke:#5E5E5E;stroke-width:1.0416666666666667;" x1="199.4792" x2="294.2708" y1="365.8203" y2="365.8203"/><!--MD5=[681af56545bb84ce04ffd484059583b1]
class RegionSet--><rect fill="#282828" height="48.055" id="RegionSet" rx="8.3333" ry="8.3333" style="stroke:#5E5E5E;stroke-width:1.0416666666666667;" width="102.0833" x="353.125" y="326.0986"/><rect fill="#1B1B1A" height="31.3883" rx="8.3333" ry="8.3333" style="stroke:#1B1B1A;stroke-width:1.0416666666666667;" width="102.0833" x="353.125" y="326.0986"/><rect fill="#1B1B1A" height="8.3333" style="stroke:#1B1B1A;stroke-width:1.0416666666666667;" width="102.0833" x="353.125" y="349.1536"/><rect fill="none" height="48.055" id="RegionSet" rx="8.3333" ry="8.3333" style="stroke:#5E5E5E;stroke-width:1.0416666666666667;" width="102.0833" x="353.125" y="326.0986"/><ellipse cx="367.7083" cy="341.7928" fill="#0066CF" rx="10.4167" ry="10.4167" style="stroke:#0086EF;stroke-width:1.0416666666666667;"/><path d="M369.6187,346.2179 Q369.1915,346.4376 368.7215,346.5474 Q368.2515,346.6573 367.7327,346.6573 Q365.8895,346.6573 364.919,345.4427 Q363.9486,344.2281 363.9486,341.9332 Q363.9486,339.6322 364.919,338.4176 Q365.8895,337.203 367.7327,337.203 Q368.2515,337.203 368.7276,337.3128 Q369.2037,337.4227 369.6187,337.6424 L369.6187,339.6444 Q369.1549,339.2171 368.7185,339.0188 Q368.2821,338.8204 367.8182,338.8204 Q366.8294,338.8204 366.3259,339.6047 Q365.8223,340.389 365.8223,341.9332 Q365.8223,343.4713 366.3259,344.2556 Q366.8294,345.0399 367.8182,345.0399 Q368.2821,345.0399 368.7185,344.8415 Q369.1549,344.6431 369.6187,344.2159 Z " fill="#000000"/><text fill="#D8BC00" font-family="Open Sans,Avenir,Nunito,Arial,Helvetica,SansSerif" font-size="12.5" font-weight="bold" lengthAdjust="spacing" textLength="64.5833" x="384.375" y="346.5169">RegionSet</text><line style="stroke:#5E5E5E;stroke-width:1.0416666666666667;" x1="354.1667" x2="454.1667" y1="357.487" y2="357.487"/><line style="stroke:#5E5E5E;stroke-width:1.0416666666666667;" x1="354.1667" x2="454.1667" y1="365.8203" y2="365.8203"/><!--MD5=[79d378210367c0c6ec62ef762ddfbd1b]
class Project--><rect fill="#282828" height="48.055" id="Project" rx="8.3333" ry="8.3333" style="stroke:#5E5E5E;stroke-width:1.0416666666666667;" width="81.25" x="546.875" y="107.3486"/><rect fill="#1B1B1A" height="31.3883" rx="8.3333" ry="8.3333" style="stroke:#1B1B1A;stroke-width:1.0416666666666667;" width="81.25" x="546.875" y="107.3486"/><rect fill="#1B1B1A" height="8.3333" style="stroke:#1B1B1A;stroke-width:1.0416666666666667;" width="81.25" x="546.875" y="130.4036"/><rect fill="none" height="48.055" id="Project" rx="8.3333" ry="8.3333" style="stroke:#5E5E5E;stroke-width:1.0416666666666667;" width="81.25" x="546.875" y="107.3486"/><ellipse cx="561.4583" cy="123.0428" fill="#0066CF" rx="10.4167" ry="10.4167" style="stroke:#0086EF;stroke-width:1.0416666666666667;"/><path d="M563.3687,127.4679 Q562.9415,127.6876 562.4715,127.7974 Q562.0015,127.9073 561.4827,127.9073 Q559.6395,127.9073 558.669,126.6927 Q557.6986,125.4781 557.6986,123.1832 Q557.6986,120.8822 558.669,119.6676 Q559.6395,118.453 561.4827,118.453 Q562.0015,118.453 562.4776,118.5628 Q562.9537,118.6727 563.3687,118.8924 L563.3687,120.8944 Q562.9049,120.4671 562.4685,120.2688 Q562.0321,120.0704 561.5682,120.0704 Q560.5794,120.0704 560.0759,120.8547 Q559.5723,121.639 559.5723,123.1832 Q559.5723,124.7213 560.0759,125.5056 Q560.5794,126.2899 561.5682,126.2899 Q562.0321,126.2899 562.4685,126.0915 Q562.9049,125.8931 563.3687,125.4659 Z " fill="#000000"/><text fill="#D8BC00" font-family="Open Sans,Avenir,Nunito,Arial,Helvetica,SansSerif" font-size="12.5" font-weight="bold" lengthAdjust="spacing" textLength="43.75" x="578.125" y="127.7669">Project</text><line style="stroke:#5E5E5E;stroke-width:1.0416666666666667;" x1="547.9167" x2="627.0833" y1="138.737" y2="138.737"/><line style="stroke:#5E5E5E;stroke-width:1.0416666666666667;" x1="547.9167" x2="627.0833" y1="147.0703" y2="147.0703"/><!--MD5=[5a7e928e4b19bab99120b29bdcc76a1d]
class PbfRegionCutterProject--><rect codeLine="28" fill="#282828" height="111.4563" id="PbfRegionCutterProject" rx="8.3333" ry="8.3333" style="stroke:#5E5E5E;stroke-width:1.0416666666666667;" width="191.6667" x="491.6667" y="294.3278"/><rect fill="#1B1B1A" height="31.3883" rx="8.3333" ry="8.3333" style="stroke:#1B1B1A;stroke-width:1.0416666666666667;" width="191.6667" x="491.6667" y="294.3278"/><rect fill="#1B1B1A" height="8.3333" style="stroke:#1B1B1A;stroke-width:1.0416666666666667;" width="191.6667" x="491.6667" y="317.3828"/><rect codeLine="28" fill="none" height="111.4563" id="PbfRegionCutterProject" rx="8.3333" ry="8.3333" style="stroke:#5E5E5E;stroke-width:1.0416666666666667;" width="191.6667" x="491.6667" y="294.3278"/><ellipse cx="508.125" cy="310.022" fill="#0066CF" rx="10.4167" ry="10.4167" style="stroke:#0086EF;stroke-width:1.0416666666666667;"/><path d="M510.0354,314.447 Q509.6082,314.6667 509.1382,314.7766 Q508.6682,314.8865 508.1494,314.8865 Q506.3062,314.8865 505.3357,313.6719 Q504.3652,312.4573 504.3652,310.1624 Q504.3652,307.8613 505.3357,306.6467 Q506.3062,305.4321 508.1494,305.4321 Q508.6682,305.4321 509.1443,305.542 Q509.6204,305.6519 510.0354,305.8716 L510.0354,307.8735 Q509.5715,307.4463 509.1351,307.2479 Q508.6987,307.0496 508.2349,307.0496 Q507.2461,307.0496 506.7426,307.8339 Q506.239,308.6182 506.239,310.1624 Q506.239,311.7004 506.7426,312.4847 Q507.2461,313.269 508.2349,313.269 Q508.6987,313.269 509.1351,313.0707 Q509.5715,312.8723 510.0354,312.4451 Z " fill="#000000"/><text fill="#D8BC00" font-family="Open Sans,Avenir,Nunito,Arial,Helvetica,SansSerif" font-size="12.5" font-weight="bold" lengthAdjust="spacing" textLength="150" x="525.2083" y="314.7461">PbfRegionCutterProject</text><line style="stroke:#5E5E5E;stroke-width:1.5625;" x1="492.7083" x2="682.2917" y1="325.7161" y2="325.7161"/><polygon fill="#FFFF44" points="503.125,355.8777,507.2917,360.0444,503.125,364.211,498.9583,360.0444" style="stroke:#B38D22;stroke-width:1.0416666666666667;"/><text fill="#D8BC00" font-family="Open Sans,Avenir,Nunito,Arial,Helvetica,SansSerif" font-size="11.4583" lengthAdjust="spacing" textLength="138.5417" x="514.5833" y="367.9972">PbfRegionCutterProject()</text><line style="stroke:#5E5E5E;stroke-width:1.0416666666666667;" x1="492.7083" x2="543.75" y1="343.9219" y2="343.9219"/><text fill="#D8BC00" font-family="Open Sans,Avenir,Nunito,Arial,Helvetica,SansSerif" font-size="11.4583" lengthAdjust="spacing" textLength="81.25" x="546.875" y="347.7315">(constructors)</text><line style="stroke:#5E5E5E;stroke-width:1.0416666666666667;" x1="631.25" x2="682.2917" y1="343.9219" y2="343.9219"/><line style="stroke:#5E5E5E;stroke-width:1.0416666666666667;" x1="492.7083" x2="682.2917" y1="377.7059" y2="377.7059"/><ellipse cx="503.125" cy="389.1642" fill="#84BE84" rx="3.125" ry="3.125" style="stroke:#038048;stroke-width:1.0416666666666667;"/><text fill="#D8BC00" font-family="Open Sans,Avenir,Nunito,Arial,Helvetica,SansSerif" font-size="11.4583" lengthAdjust="spacing" textLength="159.375" x="514.5833" y="396.0754">PbfRegionCutterProject get()</text><!--MD5=[1359c53c39c062161047836abc7d42b1]
link PbfRegionCutter to Cut--><path codeLine="14" d="M189.7188,209.0465 C169.9167,235.6299 148.0313,264.9945 129.4375,289.932 " fill="none" id="PbfRegionCutter-to-Cut" style="stroke:#545454;stroke-width:1.5625;"/><polygon fill="#545454" points="126.25,294.2236,135.1883,289.1879,129.3583,290.0445,128.5017,284.2146,126.25,294.2236" style="stroke:#545454;stroke-width:1.5625;"/><text fill="#A0A0A0" font-family="Open Sans,Avenir,Nunito,Arial,Helvetica,SansSerif" font-size="12.5" font-weight="bold" lengthAdjust="spacing" textLength="59.375" x="170.8333" y="256.4128">cuts with</text><!--MD5=[d3b40e5d3becc9cf88030f101efe2fbf]
reverse link PbfRegionCutter to WayFilter--><path codeLine="15" d="M243.7188,222.9632 C243.5417,236.4111 243.5104,250.109 243.75,263.0778 C244.1354,284.4215 245.0625,308.734 245.8125,326.0465 " fill="none" id="PbfRegionCutter-backto-WayFilter" style="stroke:#545454;stroke-width:1.5625;"/><polygon fill="#333333" points="243.9583,209.0778,239.6824,215.2536,243.7386,221.5759,248.0145,215.4001,243.9583,209.0778" style="stroke:#545454;stroke-width:1.5625;"/><text fill="#A0A0A0" font-family="Open Sans,Avenir,Nunito,Arial,Helvetica,SansSerif" font-size="12.5" font-weight="bold" lengthAdjust="spacing" textLength="107.2917" x="247.9167" y="256.4128">filters ways with</text><!--MD5=[28b36ad06d0f294c7edf078c8add2664]
reverse link PbfRegionCutter to RegionSet--><path codeLine="16" d="M347.875,219.4528 C353.5104,226.1715 358.8021,233.0986 363.5417,240.1611 C381.5208,266.9632 392.8958,302.7861 398.8958,325.8799 " fill="none" id="PbfRegionCutter-backto-RegionSet" style="stroke:#545454;stroke-width:1.5625;"/><polygon fill="#333333" points="338.75,209.0674,339.7453,216.5127,347.0007,218.4576,346.0054,211.0122,338.75,209.0674" style="stroke:#545454;stroke-width:1.5625;"/><text fill="#A0A0A0" font-family="Open Sans,Avenir,Nunito,Arial,Helvetica,SansSerif" font-size="12.5" font-weight="bold" lengthAdjust="spacing" textLength="114.5833" x="381.25" y="256.4128">regions to extract</text><!--MD5=[cafced3c698b7909c651c19470820fd9]
reverse link Project to PbfRegionCutterProject--><path codeLine="27" d="M587.5,176.7028 C587.5,210.734 587.5,257.8799 587.5,294.2653 " fill="none" id="Project-backto-PbfRegionCutterProject" style="stroke:#545454;stroke-width:1.5625;"/><polygon fill="none" points="580.2083,176.3695,587.5,155.5361,594.7917,176.3695,580.2083,176.3695" style="stroke:#545454;stroke-width:1.5625;"/><!--MD5=[5e94304fffc296db383715f7e252abb7]
@startuml

    !include lexakai.theme
    
    title "com.telenav.mesakit.map.cutter"
    
    abstract class Cut
    {
        - -(constructors)- -
        #Cut(PbfRegionCutter)
        - -
        +Set<Resource> cut()
    }
    
    PbfRegionCutter - -> Cut : "cuts with"
    PbfRegionCutter o- - WayFilter : "filters ways with"
    PbfRegionCutter o- - RegionSet : "regions to extract"
    class PbfRegionCutter
    {
        - -(constructors)- -
        +PbfRegionCutter(Source<PbfDataSource>, Folder, WayFilter)
        - -
        +void regionsToExtract(RegionSet regionsToExtract)
        - -cutting- -
        +ResourceList cut()
    }
    
    Project <|- - PbfRegionCutterProject
    class PbfRegionCutterProject
    {
        - -(constructors)- -
        #PbfRegionCutterProject()
        - -
        +PbfRegionCutterProject get()
    }
    
@enduml

@startuml









skinparam backgroundColor #333333






skinparam  {
    defaultFontName   "Open Sans,Avenir,Nunito,Arial,Helvetica,SansSerif"
    defaultFontSize   12
    defaultTextAlignment left
    shadowing false
    RoundCorner 10
    TitleFontSize 18
}

skinparam defaultFontName       "Open Sans,Avenir,Nunito,Arial,Helvetica,SansSerif"
skinparam defaultFontSize       12
skinparam dpi                   100
skinparam shadowing             false
skinparam roundcorner           16
skinparam ParticipantPadding    40
skinparam BoxPadding            40
skinparam Padding               3
skinparam ArrowColor            #545454
skinparam stereotype {
    CBackgroundColor #0066cf
    CBorderColor #0086ef
    ABackgroundColor #C8Ac00
    ABorderColor #D8Bc00
    IBackgroundColor #008400
    IBorderColor #239c23
    EBackgroundColor #cf6300
    EBorderColor #ef8300
    NBackgroundColor #3380b9
    NBorderColor #004d86
}
skinparam title {
	FontColor	                 #c0c0c0
 	BorderColor                  #545454
	FontSize	    	         20
	BorderRoundCorner            16
	BorderThickness 	         1
	BackgroundColor              #48494b
}


skinparam legend {
	BackgroundColor #303030
	BorderColor #404040
	FontColor #a0a0a0
}

	skinparam swimlane {
	BorderColor #5e5e5e
	BorderThickness 2
	TitleBackgroundColor  #6d6d6d-#484848
	TitleFontColor #303030
}

skinparam activity {
		FontColor #C8Ac00
	BorderColor #333333
	BackgroundColor #333333-#333333
	BarColor #00FF00
	StartColor #0060a8
	EndColor #0060a8
	DiamondBackgroundColor #6d6d6d-#3a3a3a
  	DiamondBorderColor #3a3a3a
  	DiamondFontColor #fefefe
}


skinparam participant {
		FontColor #C8Ac00
	BorderColor #333333
	BackgroundColor #333333-#333333
	ParticipantBorderThickness 2
}


skinparam actor {
		FontColor #C8Ac00
	BorderColor #333333
	BackgroundColor #333333-#333333
}


skinparam arrow {
	Thickness 1.5
	Color #545454
	FontColor #a0a0a0
    FontStyle bold
    MessageAlignment center
}



skinparam sequence {
	BorderColor #303030
	TitleFontColor #303030
	BackgroundColor #333333
	StartColor #303030
	EndColor #303030
	BoxBackgroundColor #333333
	BoxBorderColor #484848
	BoxFontColor #484848
	LifeLineBorderColor #484848
	LifeLineBorderThickness 2
	LifeLineBackgroundColor #3a3a3a
	GroupBorderColor #484848
	GroupFontColor #484848
	GroupHeaderFontColor #0060a8
	GroupBackgroundColor #484848
	GroupHeaderBackgroundColor #333333
	DividerBackgroundColor #484848
    DividerBorderColor #484848
    DividerBorderThickness 2
    DividerFontColor #D8Bc00
	ReferenceBackgroundColor #333333
	ReferenceBorderColor #484848
	ReferenceFontColor #fefefe
	ReferenceHeaderBackgroundColor #484848
}


skinparam partition {
	BorderColor #303030
	FontColor #333333
	BackgroundColor #333333
}


skinparam collections {
		FontColor #C8Ac00
	BorderColor #333333
	BackgroundColor #333333-#333333
}


skinparam control {
		FontColor #C8Ac00
	BorderColor #333333
	BackgroundColor #333333-#333333
}


skinparam entity {
		FontColor #C8Ac00
	BorderColor #333333
	BackgroundColor #333333-#333333
}


skinparam boundary {
		FontColor #C8Ac00
	BorderColor #333333
	BackgroundColor #333333-#333333
}


skinparam agent {
	BackgroundColor #ff8000
	BorderColor #ff9933
	FontColor #484848
}


skinparam note {
	BorderThickness 1
	BackgroundColor #1b1b1a
	BorderColor #5e5e5e
	FontSize 11
	FontColor #a0a0a0
}


skinparam artifact {
	BorderThickness 10
	BorderColor #5e5e5e
	BackgroundColor #1b1b1a
	FontColor #D8Bc00
}


skinparam component {
		FontColor #C8Ac00
	BorderColor #333333
	BackgroundColor #333333-#333333
}


skinparam interface {
	BackgroundColor  #008400
	BorderColor  #007F00
	FontColor #484848
}


skinparam storage {
	BackgroundColor #ff8000
  	BorderColor #cc6600
	FontColor #222222
}


skinparam node {
	BackgroundColor #333333
	BorderColor #333333
	FontColor #C8Ac00
}


skinparam cloud {
	BackgroundColor #484848-black
	BorderColor #484848
	FontColor #D8Bc00
}


skinparam database {
		FontColor #C8Ac00
	BorderColor #333333
	BackgroundColor #333333-#333333
	BackgroundColor  #333333
}


skinparam class {
		FontColor #C8Ac00
	BorderColor #333333
	BackgroundColor #333333-#333333
	HeaderBackgroundColor #1b1b1a
    BackgroundColor #282828
    BorderColor #5e5e5e
 	StereotypeFontColor #a0a0a0
    StereotypeFontStyle bold
	BorderThickness 1
	AttributeFontColor #D8Bc00
	AttributeFontSize 11
    FontColor #D8Bc00
    FontStyle bold
}


skinparam object {
		FontColor #C8Ac00
	BorderColor #333333
	BackgroundColor #333333-#333333
	StereotypeFontColor #484848
	BorderThickness 1
	AttributeFontColor #fefefe
	AttributeFontSize 11
}


skinparam usecase {
		FontColor #C8Ac00
	BorderColor #333333
	BackgroundColor #333333-#333333
	BorderThickness 2
	StereotypeFontColor #303030
}


skinparam rectangle {
		FontColor #C8Ac00
	BorderColor #333333
	BackgroundColor #333333-#333333
	BackgroundColor #333333
	BorderThickness 2
	StereotypeFontColor #303030
}


skinparam package {
		FontColor #C8Ac00
	BorderColor #333333
	BackgroundColor #333333-#333333
	BackgroundColor #333333
	BorderThickness 2
}


skinparam folder {
	BackgroundColor #6d6d6d
  	BorderColor #ff8000
	FontColor #ff8000
	BorderThickness 2
}


skinparam frame {
	BackgroundColor #6d6d6d
  	BorderColor #0060a8
	FontColor #0060a8
	BorderThickness 2
}


skinparam state {
		FontColor #C8Ac00
	BorderColor #333333
	BackgroundColor #333333-#333333
	StartColor #0060a8
	EndColor #0060a8
	AttributeFontColor #fefefe
	AttributeFontSize 11
}


skinparam queue {
		FontColor #C8Ac00
	BorderColor #333333
	BackgroundColor #333333-#333333
}


skinparam card {
	BackgroundColor #0060a8
	BorderColor #004d86
	FontColor $INFO_TEXT
}


skinparam file {
	BackgroundColor #6d6d6d-#484848
	BorderColor #0060a8
	FontColor #fefefe
}


skinparam stack {
		FontColor #C8Ac00
	BorderColor #333333
	BackgroundColor #333333-#333333
}

    
    title "com.telenav.mesakit.map.cutter"
    
    abstract class Cut
    {
        - -(constructors)- -
        #Cut(PbfRegionCutter)
        - -
        +Set<Resource> cut()
    }
    
    PbfRegionCutter - -> Cut : "cuts with"
    PbfRegionCutter o- - WayFilter : "filters ways with"
    PbfRegionCutter o- - RegionSet : "regions to extract"
    class PbfRegionCutter
    {
        - -(constructors)- -
        +PbfRegionCutter(Source<PbfDataSource>, Folder, WayFilter)
        - -
        +void regionsToExtract(RegionSet regionsToExtract)
        - -cutting- -
        +ResourceList cut()
    }
    
    Project <|- - PbfRegionCutterProject
    class PbfRegionCutterProject
    {
        - -(constructors)- -
        #PbfRegionCutterProject()
        - -
        +PbfRegionCutterProject get()
    }
    
@enduml

PlantUML version 1.2021.01(Tue Feb 02 00:55:08 MST 2021)
(GPL source distribution)
Java Runtime: OpenJDK Runtime Environment
JVM: OpenJDK 64-Bit Server VM
Default Encoding: UTF-8
Language: en
Country: US
--></g></svg>