<?xml version="1.0" encoding="UTF-8" standalone="no"?><svg xmlns="http://www.w3.org/2000/svg" xmlns:xlink="http://www.w3.org/1999/xlink" contentScriptType="application/ecmascript" contentStyleType="text/css" height="781.25px" preserveAspectRatio="none" style="width:990px;height:781px;background:#333333;" version="1.1" viewBox="0 0 990 781" width="990.625px" zoomAndPan="magnify"><defs/><g><rect fill="#48494B" height="41.2028" rx="8.3333" ry="8.3333" style="stroke:#545454;stroke-width:1.0416666666666667;" width="406.25" x="285.1563" y="2.0833"/><text fill="#C0C0C0" font-family="Open Sans,Avenir,Nunito,Arial,Helvetica,SansSerif" font-size="20.8333" lengthAdjust="spacing" textLength="383.3333" x="296.6146" y="30.5583">com.telenav.mesakit.map.utilities.grid</text><rect codeLine="7" fill="#282828" height="48.055" id="Stringable" rx="8.3333" ry="8.3333" style="stroke:#5E5E5E;stroke-width:1.0416666666666667;" width="103.125" x="56.25" y="227.6611"/><rect fill="#1B1B1A" height="31.3883" rx="8.3333" ry="8.3333" style="stroke:#1B1B1A;stroke-width:1.0416666666666667;" width="103.125" x="56.25" y="227.6611"/><rect fill="#1B1B1A" height="8.3333" style="stroke:#1B1B1A;stroke-width:1.0416666666666667;" width="103.125" x="56.25" y="250.7161"/><rect codeLine="7" fill="none" height="48.055" id="Stringable" rx="8.3333" ry="8.3333" style="stroke:#5E5E5E;stroke-width:1.0416666666666667;" width="103.125" x="56.25" y="227.6611"/><ellipse cx="70.8333" cy="243.3553" fill="#008400" rx="10.4167" ry="10.4167" style="stroke:#239C23;stroke-width:1.0416666666666667;"/><path d="M68.2373,240.5172 L68.2373,238.9303 L73.6633,238.9303 L73.6633,240.5172 L71.8506,240.5172 L71.8506,246.4559 L73.6633,246.4559 L73.6633,248.0428 L68.2373,248.0428 L68.2373,246.4559 L70.05,246.4559 L70.05,240.5172 Z " fill="#000000"/><text fill="#D8BC00" font-family="Open Sans,Avenir,Nunito,Arial,Helvetica,SansSerif" font-size="12.5" font-style="italic" font-weight="bold" lengthAdjust="spacing" textLength="65.625" x="87.5" y="248.0794">Stringable</text><line style="stroke:#5E5E5E;stroke-width:1.0416666666666667;" x1="57.2917" x2="158.3333" y1="259.0495" y2="259.0495"/><line style="stroke:#5E5E5E;stroke-width:1.0416666666666667;" x1="57.2917" x2="158.3333" y1="267.3828" y2="267.3828"/><rect codeLine="9" fill="#282828" height="396.2179" id="Grid" rx="8.3333" ry="8.3333" style="stroke:#5E5E5E;stroke-width:1.0416666666666667;" width="386.4583" x="195.8333" y="53.7028"/><rect fill="#1B1B1A" height="31.3883" rx="8.3333" ry="8.3333" style="stroke:#1B1B1A;stroke-width:1.0416666666666667;" width="386.4583" x="195.8333" y="53.7028"/><rect fill="#1B1B1A" height="8.3333" style="stroke:#1B1B1A;stroke-width:1.0416666666666667;" width="386.4583" x="195.8333" y="76.7578"/><rect codeLine="9" fill="none" height="396.2179" id="Grid" rx="8.3333" ry="8.3333" style="stroke:#5E5E5E;stroke-width:1.0416666666666667;" width="386.4583" x="195.8333" y="53.7028"/><ellipse cx="368.2292" cy="69.397" fill="#0066CF" rx="10.4167" ry="10.4167" style="stroke:#0086EF;stroke-width:1.0416666666666667;"/><path d="M370.1396,73.822 Q369.7123,74.0417 369.2424,74.1516 Q368.7724,74.2615 368.2536,74.2615 Q366.4103,74.2615 365.4399,73.0469 Q364.4694,71.8323 364.4694,69.5374 Q364.4694,67.2363 365.4399,66.0217 Q366.4103,64.8071 368.2536,64.8071 Q368.7724,64.8071 369.2485,64.917 Q369.7245,65.0269 370.1396,65.2466 L370.1396,67.2485 Q369.6757,66.8213 369.2393,66.6229 Q368.8029,66.4246 368.339,66.4246 Q367.3503,66.4246 366.8467,67.2089 Q366.3432,67.9932 366.3432,69.5374 Q366.3432,71.0754 366.8467,71.8597 Q367.3503,72.644 368.339,72.644 Q368.8029,72.644 369.2393,72.4457 Q369.6757,72.2473 370.1396,71.8201 Z " fill="#000000"/><text fill="#D8BC00" font-family="Open Sans,Avenir,Nunito,Arial,Helvetica,SansSerif" font-size="12.5" font-weight="bold" lengthAdjust="spacing" textLength="27.0833" x="391.1458" y="74.1211">Grid</text><line style="stroke:#5E5E5E;stroke-width:1.5625;" x1="196.875" x2="581.25" y1="85.0911" y2="85.0911"/><ellipse cx="207.2917" cy="120.461" fill="#84BE84" rx="3.125" ry="3.125" style="stroke:#038048;stroke-width:1.0416666666666667;"/><text fill="#D8BC00" font-family="Open Sans,Avenir,Nunito,Arial,Helvetica,SansSerif" font-size="11.4583" lengthAdjust="spacing" textLength="115.625" x="218.75" y="127.3722">Grid(Angle, Latitude)</text><ellipse cx="207.2917" cy="140.2059" fill="#84BE84" rx="3.125" ry="3.125" style="stroke:#038048;stroke-width:1.0416666666666667;"/><text fill="#D8BC00" font-family="Open Sans,Avenir,Nunito,Arial,Helvetica,SansSerif" font-size="11.4583" lengthAdjust="spacing" textLength="131.25" x="218.75" y="147.1171">Grid(Distance, Latitude)</text><line style="stroke:#5E5E5E;stroke-width:1.0416666666666667;" x1="196.875" x2="345.3125" y1="103.2969" y2="103.2969"/><text fill="#D8BC00" font-family="Open Sans,Avenir,Nunito,Arial,Helvetica,SansSerif" font-size="11.4583" lengthAdjust="spacing" textLength="81.25" x="348.4375" y="107.1065">(constructors)</text><line style="stroke:#5E5E5E;stroke-width:1.0416666666666667;" x1="432.8125" x2="581.25" y1="103.2969" y2="103.2969"/><line style="stroke:#5E5E5E;stroke-width:1.0416666666666667;" x1="196.875" x2="581.25" y1="156.8258" y2="156.8258"/><ellipse cx="207.2917" cy="168.2841" fill="#84BE84" rx="3.125" ry="3.125" style="stroke:#038048;stroke-width:1.0416666666666667;"/><text fill="#D8BC00" font-family="Open Sans,Avenir,Nunito,Arial,Helvetica,SansSerif" font-size="11.4583" lengthAdjust="spacing" textLength="122.9167" x="218.75" y="175.1953">GridCell cell(Location)</text><ellipse cx="207.2917" cy="211.9405" fill="#84BE84" rx="3.125" ry="3.125" style="stroke:#038048;stroke-width:1.0416666666666667;"/><text fill="#D8BC00" font-family="Open Sans,Avenir,Nunito,Arial,Helvetica,SansSerif" font-size="11.4583" lengthAdjust="spacing" textLength="172.9167" x="218.75" y="218.8517">Distance approximateCellSize()</text><ellipse cx="207.2917" cy="231.6854" fill="#84BE84" rx="3.125" ry="3.125" style="stroke:#038048;stroke-width:1.0416666666666667;"/><text fill="#D8BC00" font-family="Open Sans,Avenir,Nunito,Arial,Helvetica,SansSerif" font-size="11.4583" lengthAdjust="spacing" textLength="98.9583" x="218.75" y="238.5966">Count cellCount()</text><ellipse cx="207.2917" cy="251.4303" fill="#84BE84" rx="3.125" ry="3.125" style="stroke:#038048;stroke-width:1.0416666666666667;"/><text fill="#D8BC00" font-family="Open Sans,Avenir,Nunito,Arial,Helvetica,SansSerif" font-size="11.4583" lengthAdjust="spacing" textLength="354.1667" x="218.75" y="258.3415">List&lt;GridCellIdentifier&gt; cellIdentifiersWithin(Rectangle bounds)</text><ellipse cx="207.2917" cy="271.1751" fill="#84BE84" rx="3.125" ry="3.125" style="stroke:#038048;stroke-width:1.0416666666666667;"/><text fill="#D8BC00" font-family="Open Sans,Avenir,Nunito,Arial,Helvetica,SansSerif" font-size="11.4583" lengthAdjust="spacing" textLength="73.9583" x="218.75" y="278.0863">Size cellSize()</text><ellipse cx="207.2917" cy="290.92" fill="#84BE84" rx="3.125" ry="3.125" style="stroke:#038048;stroke-width:1.0416666666666667;"/><text fill="#D8BC00" font-family="Open Sans,Avenir,Nunito,Arial,Helvetica,SansSerif" font-size="11.4583" lengthAdjust="spacing" textLength="119.7917" x="218.75" y="297.8312">List&lt;GridCell&gt; cells()</text><ellipse cx="207.2917" cy="310.6649" fill="#84BE84" rx="3.125" ry="3.125" style="stroke:#038048;stroke-width:1.0416666666666667;"/><text fill="#D8BC00" font-family="Open Sans,Avenir,Nunito,Arial,Helvetica,SansSerif" font-size="11.4583" lengthAdjust="spacing" textLength="286.4583" x="218.75" y="317.5761">List&lt;GridCell&gt; cellsIntersecting(Rectangle bounds)</text><ellipse cx="207.2917" cy="330.4097" fill="#84BE84" rx="3.125" ry="3.125" style="stroke:#038048;stroke-width:1.0416666666666667;"/><text fill="#D8BC00" font-family="Open Sans,Avenir,Nunito,Arial,Helvetica,SansSerif" font-size="11.4583" lengthAdjust="spacing" textLength="201.0417" x="218.75" y="337.321">List&lt;GridCellIdentifier&gt; identifiers()</text><ellipse cx="207.2917" cy="350.1546" fill="#84BE84" rx="3.125" ry="3.125" style="stroke:#038048;stroke-width:1.0416666666666667;"/><text fill="#D8BC00" font-family="Open Sans,Avenir,Nunito,Arial,Helvetica,SansSerif" font-size="11.4583" lengthAdjust="spacing" textLength="142.7083" x="218.75" y="357.0658">Count latitudeCellCount()</text><ellipse cx="207.2917" cy="369.8995" fill="#84BE84" rx="3.125" ry="3.125" style="stroke:#038048;stroke-width:1.0416666666666667;"/><text fill="#D8BC00" font-family="Open Sans,Avenir,Nunito,Arial,Helvetica,SansSerif" font-size="11.4583" lengthAdjust="spacing" textLength="154.1667" x="218.75" y="376.8107">Count longitudeCellCount()</text><line style="stroke:#5E5E5E;stroke-width:1.0416666666666667;" x1="196.875" x2="354.6875" y1="194.7764" y2="194.7764"/><text fill="#D8BC00" font-family="Open Sans,Avenir,Nunito,Arial,Helvetica,SansSerif" font-size="11.4583" lengthAdjust="spacing" textLength="62.5" x="357.8125" y="198.586">(collection)</text><line style="stroke:#5E5E5E;stroke-width:1.0416666666666667;" x1="423.4375" x2="581.25" y1="194.7764" y2="194.7764"/><ellipse cx="207.2917" cy="413.5559" fill="#84BE84" rx="3.125" ry="3.125" style="stroke:#038048;stroke-width:1.0416666666666667;"/><text fill="#D8BC00" font-family="Open Sans,Avenir,Nunito,Arial,Helvetica,SansSerif" font-size="11.4583" lengthAdjust="spacing" textLength="238.5417" x="218.75" y="420.4671">GridCell cellForIdentifier(GridCellIdentifier)</text><ellipse cx="207.2917" cy="433.3008" fill="#84BE84" rx="3.125" ry="3.125" style="stroke:#038048;stroke-width:1.0416666666666667;"/><text fill="#D8BC00" font-family="Open Sans,Avenir,Nunito,Arial,Helvetica,SansSerif" font-size="11.4583" lengthAdjust="spacing" textLength="270.8333" x="218.75" y="440.212">GridCellIdentifier identifierForLocation(Location)</text><line style="stroke:#5E5E5E;stroke-width:1.0416666666666667;" x1="196.875" x2="360.9375" y1="396.3918" y2="396.3918"/><text fill="#D8BC00" font-family="Open Sans,Avenir,Nunito,Arial,Helvetica,SansSerif" font-size="11.4583" lengthAdjust="spacing" textLength="50" x="364.0625" y="400.2014">(identity)</text><line style="stroke:#5E5E5E;stroke-width:1.0416666666666667;" x1="417.1875" x2="581.25" y1="396.3918" y2="396.3918"/><rect fill="#282828" height="48.055" id="Rectangle" rx="8.3333" ry="8.3333" style="stroke:#5E5E5E;stroke-width:1.0416666666666667;" width="100" x="619.2708" y="227.6611"/><rect fill="#1B1B1A" height="31.3883" rx="8.3333" ry="8.3333" style="stroke:#1B1B1A;stroke-width:1.0416666666666667;" width="100" x="619.2708" y="227.6611"/><rect fill="#1B1B1A" height="8.3333" style="stroke:#1B1B1A;stroke-width:1.0416666666666667;" width="100" x="619.2708" y="250.7161"/><rect fill="none" height="48.055" id="Rectangle" rx="8.3333" ry="8.3333" style="stroke:#5E5E5E;stroke-width:1.0416666666666667;" width="100" x="619.2708" y="227.6611"/><ellipse cx="633.8542" cy="243.3553" fill="#0066CF" rx="10.4167" ry="10.4167" style="stroke:#0086EF;stroke-width:1.0416666666666667;"/><path d="M635.7646,247.7804 Q635.3373,248.0001 634.8674,248.1099 Q634.3974,248.2198 633.8786,248.2198 Q632.0353,248.2198 631.0649,247.0052 Q630.0944,245.7906 630.0944,243.4957 Q630.0944,241.1947 631.0649,239.9801 Q632.0353,238.7655 633.8786,238.7655 Q634.3974,238.7655 634.8735,238.8753 Q635.3495,238.9852 635.7646,239.2049 L635.7646,241.2069 Q635.3007,240.7796 634.8643,240.5813 Q634.4279,240.3829 633.964,240.3829 Q632.9753,240.3829 632.4717,241.1672 Q631.9682,241.9515 631.9682,243.4957 Q631.9682,245.0338 632.4717,245.8181 Q632.9753,246.6024 633.964,246.6024 Q634.4279,246.6024 634.8643,246.404 Q635.3007,246.2056 635.7646,245.7784 Z " fill="#000000"/><text fill="#D8BC00" font-family="Open Sans,Avenir,Nunito,Arial,Helvetica,SansSerif" font-size="12.5" font-weight="bold" lengthAdjust="spacing" textLength="62.5" x="650.5208" y="248.0794">Rectangle</text><line style="stroke:#5E5E5E;stroke-width:1.0416666666666667;" x1="620.3125" x2="718.2292" y1="259.0495" y2="259.0495"/><line style="stroke:#5E5E5E;stroke-width:1.0416666666666667;" x1="620.3125" x2="718.2292" y1="267.3828" y2="267.3828"/><rect codeLine="32" fill="#282828" height="262.1704" id="GridCell" rx="8.3333" ry="8.3333" style="stroke:#5E5E5E;stroke-width:1.0416666666666667;" width="288.5417" x="525" y="512.0361"/><rect fill="#1B1B1A" height="31.3883" rx="8.3333" ry="8.3333" style="stroke:#1B1B1A;stroke-width:1.0416666666666667;" width="288.5417" x="525" y="512.0361"/><rect fill="#1B1B1A" height="8.3333" style="stroke:#1B1B1A;stroke-width:1.0416666666666667;" width="288.5417" x="525" y="535.0911"/><rect codeLine="32" fill="none" height="262.1704" id="GridCell" rx="8.3333" ry="8.3333" style="stroke:#5E5E5E;stroke-width:1.0416666666666667;" width="288.5417" x="525" y="512.0361"/><ellipse cx="635.9375" cy="527.7303" fill="#0066CF" rx="10.4167" ry="10.4167" style="stroke:#0086EF;stroke-width:1.0416666666666667;"/><path d="M637.8479,532.1554 Q637.4207,532.3751 636.9507,532.4849 Q636.4807,532.5948 635.9619,532.5948 Q634.1187,532.5948 633.1482,531.3802 Q632.1777,530.1656 632.1777,527.8707 Q632.1777,525.5697 633.1482,524.3551 Q634.1187,523.1405 635.9619,523.1405 Q636.4807,523.1405 636.9568,523.2503 Q637.4329,523.3602 637.8479,523.5799 L637.8479,525.5819 Q637.384,525.1546 636.9476,524.9563 Q636.5112,524.7579 636.0474,524.7579 Q635.0586,524.7579 634.5551,525.5422 Q634.0515,526.3265 634.0515,527.8707 Q634.0515,529.4088 634.5551,530.1931 Q635.0586,530.9774 636.0474,530.9774 Q636.5112,530.9774 636.9476,530.779 Q637.384,530.5806 637.8479,530.1534 Z " fill="#000000"/><text fill="#D8BC00" font-family="Open Sans,Avenir,Nunito,Arial,Helvetica,SansSerif" font-size="12.5" font-weight="bold" lengthAdjust="spacing" textLength="52.0833" x="658.8542" y="532.4544">GridCell</text><line style="stroke:#5E5E5E;stroke-width:1.5625;" x1="526.0417" x2="812.5" y1="543.4245" y2="543.4245"/><ellipse cx="536.4583" cy="578.7944" fill="#84BE84" rx="3.125" ry="3.125" style="stroke:#038048;stroke-width:1.0416666666666667;"/><text fill="#D8BC00" font-family="Open Sans,Avenir,Nunito,Arial,Helvetica,SansSerif" font-size="11.4583" lengthAdjust="spacing" textLength="256.25" x="547.9167" y="585.7056">GridCell(GridCellIdentifier, Location, Location)</text><ellipse cx="536.4583" cy="598.5392" fill="#84BE84" rx="3.125" ry="3.125" style="stroke:#038048;stroke-width:1.0416666666666667;"/><text fill="#D8BC00" font-family="Open Sans,Avenir,Nunito,Arial,Helvetica,SansSerif" font-size="11.4583" lengthAdjust="spacing" textLength="208.3333" x="547.9167" y="605.4504">GridCell(GridCellIdentifier, Rectangle)</text><line style="stroke:#5E5E5E;stroke-width:1.0416666666666667;" x1="526.0417" x2="625.5208" y1="561.6302" y2="561.6302"/><text fill="#D8BC00" font-family="Open Sans,Avenir,Nunito,Arial,Helvetica,SansSerif" font-size="11.4583" lengthAdjust="spacing" textLength="81.25" x="628.6458" y="565.4399">(constructors)</text><line style="stroke:#5E5E5E;stroke-width:1.0416666666666667;" x1="713.0208" x2="812.5" y1="561.6302" y2="561.6302"/><line style="stroke:#5E5E5E;stroke-width:1.0416666666666667;" x1="526.0417" x2="812.5" y1="615.1591" y2="615.1591"/><ellipse cx="536.4583" cy="626.6174" fill="#84BE84" rx="3.125" ry="3.125" style="stroke:#038048;stroke-width:1.0416666666666667;"/><text fill="#D8BC00" font-family="Open Sans,Avenir,Nunito,Arial,Helvetica,SansSerif" font-size="11.4583" lengthAdjust="spacing" textLength="158.3333" x="547.9167" y="633.5286">String pureRectangleString()</text><ellipse cx="536.4583" cy="670.2738" fill="#84BE84" rx="3.125" ry="3.125" style="stroke:#038048;stroke-width:1.0416666666666667;"/><text fill="#D8BC00" font-family="Open Sans,Avenir,Nunito,Arial,Helvetica,SansSerif" font-size="11.4583" lengthAdjust="spacing" textLength="143.75" x="547.9167" y="677.1851">String toRectangleString()</text><line style="stroke:#5E5E5E;stroke-width:1.0416666666666667;" x1="526.0417" x2="630.7292" y1="653.1097" y2="653.1097"/><text fill="#D8BC00" font-family="Open Sans,Avenir,Nunito,Arial,Helvetica,SansSerif" font-size="11.4583" lengthAdjust="spacing" textLength="70.8333" x="633.8542" y="656.9194">(conversion)</text><line style="stroke:#5E5E5E;stroke-width:1.0416666666666667;" x1="707.8125" x2="812.5" y1="653.1097" y2="653.1097"/><ellipse cx="536.4583" cy="713.9303" fill="#84BE84" rx="3.125" ry="3.125" style="stroke:#038048;stroke-width:1.0416666666666667;"/><text fill="#D8BC00" font-family="Open Sans,Avenir,Nunito,Arial,Helvetica,SansSerif" font-size="11.4583" lengthAdjust="spacing" textLength="156.25" x="547.9167" y="720.8415">GridCellIdentifier identifier()</text><line style="stroke:#5E5E5E;stroke-width:1.0416666666666667;" x1="526.0417" x2="641.1458" y1="696.7662" y2="696.7662"/><text fill="#D8BC00" font-family="Open Sans,Avenir,Nunito,Arial,Helvetica,SansSerif" font-size="11.4583" lengthAdjust="spacing" textLength="50" x="644.2708" y="700.5758">(identity)</text><line style="stroke:#5E5E5E;stroke-width:1.0416666666666667;" x1="697.3958" x2="812.5" y1="696.7662" y2="696.7662"/><ellipse cx="536.4583" cy="757.5867" fill="#84BE84" rx="3.125" ry="3.125" style="stroke:#038048;stroke-width:1.0416666666666667;"/><text fill="#D8BC00" font-family="Open Sans,Avenir,Nunito,Arial,Helvetica,SansSerif" font-size="11.4583" lengthAdjust="spacing" textLength="75" x="547.9167" y="764.4979">String name()</text><line style="stroke:#5E5E5E;stroke-width:1.0416666666666667;" x1="526.0417" x2="641.1458" y1="740.4226" y2="740.4226"/><text fill="#D8BC00" font-family="Open Sans,Avenir,Nunito,Arial,Helvetica,SansSerif" font-size="11.4583" lengthAdjust="spacing" textLength="50" x="644.2708" y="744.2322">(naming)</text><line style="stroke:#5E5E5E;stroke-width:1.0416666666666667;" x1="697.3958" x2="812.5" y1="740.4226" y2="740.4226"/><rect codeLine="48" fill="#282828" height="229.9255" id="GridCellIdentifier" rx="8.3333" ry="8.3333" style="stroke:#5E5E5E;stroke-width:1.0416666666666667;" width="201.0417" x="7.2917" y="528.182"/><rect fill="#1B1B1A" height="31.3883" rx="8.3333" ry="8.3333" style="stroke:#1B1B1A;stroke-width:1.0416666666666667;" width="201.0417" x="7.2917" y="528.182"/><rect fill="#1B1B1A" height="8.3333" style="stroke:#1B1B1A;stroke-width:1.0416666666666667;" width="201.0417" x="7.2917" y="551.237"/><rect codeLine="48" fill="none" height="229.9255" id="GridCellIdentifier" rx="8.3333" ry="8.3333" style="stroke:#5E5E5E;stroke-width:1.0416666666666667;" width="201.0417" x="7.2917" y="528.182"/><ellipse cx="45.3125" cy="543.8761" fill="#0066CF" rx="10.4167" ry="10.4167" style="stroke:#0086EF;stroke-width:1.0416666666666667;"/><path d="M47.2229,548.3012 Q46.7957,548.5209 46.3257,548.6308 Q45.8557,548.7406 45.3369,548.7406 Q43.4937,548.7406 42.5232,547.526 Q41.5527,546.3114 41.5527,544.0165 Q41.5527,541.7155 42.5232,540.5009 Q43.4937,539.2863 45.3369,539.2863 Q45.8557,539.2863 46.3318,539.3962 Q46.8079,539.506 47.2229,539.7257 L47.2229,541.7277 Q46.759,541.3005 46.3226,541.1021 Q45.8862,540.9037 45.4224,540.9037 Q44.4336,540.9037 43.9301,541.688 Q43.4265,542.4723 43.4265,544.0165 Q43.4265,545.5546 43.9301,546.3389 Q44.4336,547.1232 45.4224,547.1232 Q45.8862,547.1232 46.3226,546.9248 Q46.759,546.7265 47.2229,546.2992 Z " fill="#000000"/><text fill="#D8BC00" font-family="Open Sans,Avenir,Nunito,Arial,Helvetica,SansSerif" font-size="12.5" font-weight="bold" lengthAdjust="spacing" textLength="111.4583" x="67.1875" y="548.6003">GridCellIdentifier</text><line style="stroke:#5E5E5E;stroke-width:1.5625;" x1="8.3333" x2="207.2917" y1="559.5703" y2="559.5703"/><ellipse cx="18.75" cy="594.9402" fill="#84BE84" rx="3.125" ry="3.125" style="stroke:#038048;stroke-width:1.0416666666666667;"/><text fill="#D8BC00" font-family="Open Sans,Avenir,Nunito,Arial,Helvetica,SansSerif" font-size="11.4583" lengthAdjust="spacing" textLength="103.125" x="30.2083" y="601.8514">GridCellIdentifier()</text><ellipse cx="18.75" cy="614.6851" fill="#84BE84" rx="3.125" ry="3.125" style="stroke:#038048;stroke-width:1.0416666666666667;"/><text fill="#D8BC00" font-family="Open Sans,Avenir,Nunito,Arial,Helvetica,SansSerif" font-size="11.4583" lengthAdjust="spacing" textLength="147.9167" x="30.2083" y="621.5963">GridCellIdentifier(Grid, int)</text><ellipse cx="18.75" cy="634.4299" fill="#84BE84" rx="3.125" ry="3.125" style="stroke:#038048;stroke-width:1.0416666666666667;"/><text fill="#D8BC00" font-family="Open Sans,Avenir,Nunito,Arial,Helvetica,SansSerif" font-size="11.4583" lengthAdjust="spacing" textLength="168.75" x="30.2083" y="641.3411">GridCellIdentifier(Grid, int, int)</text><line style="stroke:#5E5E5E;stroke-width:1.0416666666666667;" x1="8.3333" x2="64.0625" y1="577.7761" y2="577.7761"/><text fill="#D8BC00" font-family="Open Sans,Avenir,Nunito,Arial,Helvetica,SansSerif" font-size="11.4583" lengthAdjust="spacing" textLength="81.25" x="67.1875" y="581.5857">(constructors)</text><line style="stroke:#5E5E5E;stroke-width:1.0416666666666667;" x1="151.5625" x2="207.2917" y1="577.7761" y2="577.7761"/><ellipse cx="18.75" cy="678.0863" fill="#84BE84" rx="3.125" ry="3.125" style="stroke:#038048;stroke-width:1.0416666666666667;"/><text fill="#D8BC00" font-family="Open Sans,Avenir,Nunito,Arial,Helvetica,SansSerif" font-size="11.4583" lengthAdjust="spacing" textLength="98.9583" x="30.2083" y="684.9976">int latitudeIndex()</text><ellipse cx="18.75" cy="697.8312" fill="#84BE84" rx="3.125" ry="3.125" style="stroke:#038048;stroke-width:1.0416666666666667;"/><text fill="#D8BC00" font-family="Open Sans,Avenir,Nunito,Arial,Helvetica,SansSerif" font-size="11.4583" lengthAdjust="spacing" textLength="110.4167" x="30.2083" y="704.7424">int longitudeIndex()</text><line style="stroke:#5E5E5E;stroke-width:1.0416666666666667;" x1="8.3333" x2="73.4375" y1="660.9222" y2="660.9222"/><text fill="#D8BC00" font-family="Open Sans,Avenir,Nunito,Arial,Helvetica,SansSerif" font-size="11.4583" lengthAdjust="spacing" textLength="62.5" x="76.5625" y="664.7319">(collection)</text><line style="stroke:#5E5E5E;stroke-width:1.0416666666666667;" x1="142.1875" x2="207.2917" y1="660.9222" y2="660.9222"/><ellipse cx="18.75" cy="741.4876" fill="#84BE84" rx="3.125" ry="3.125" style="stroke:#038048;stroke-width:1.0416666666666667;"/><text fill="#D8BC00" font-family="Open Sans,Avenir,Nunito,Arial,Helvetica,SansSerif" font-size="11.4583" lengthAdjust="spacing" textLength="76.0417" x="30.2083" y="748.3988">int identifier()</text><line style="stroke:#5E5E5E;stroke-width:1.0416666666666667;" x1="8.3333" x2="79.6875" y1="724.3235" y2="724.3235"/><text fill="#D8BC00" font-family="Open Sans,Avenir,Nunito,Arial,Helvetica,SansSerif" font-size="11.4583" lengthAdjust="spacing" textLength="50" x="82.8125" y="728.1331">(identity)</text><line style="stroke:#5E5E5E;stroke-width:1.0416666666666667;" x1="135.9375" x2="207.2917" y1="724.3235" y2="724.3235"/><rect fill="#282828" height="48.055" id="KryoTypes" rx="8.3333" ry="8.3333" style="stroke:#5E5E5E;stroke-width:1.0416666666666667;" width="106.25" x="864.0625" y="227.6611"/><rect fill="#1B1B1A" height="31.3883" rx="8.3333" ry="8.3333" style="stroke:#1B1B1A;stroke-width:1.0416666666666667;" width="106.25" x="864.0625" y="227.6611"/><rect fill="#1B1B1A" height="8.3333" style="stroke:#1B1B1A;stroke-width:1.0416666666666667;" width="106.25" x="864.0625" y="250.7161"/><rect fill="none" height="48.055" id="KryoTypes" rx="8.3333" ry="8.3333" style="stroke:#5E5E5E;stroke-width:1.0416666666666667;" width="106.25" x="864.0625" y="227.6611"/><ellipse cx="878.6458" cy="243.3553" fill="#0066CF" rx="10.4167" ry="10.4167" style="stroke:#0086EF;stroke-width:1.0416666666666667;"/><path d="M880.5562,247.7804 Q880.129,248.0001 879.659,248.1099 Q879.189,248.2198 878.6702,248.2198 Q876.827,248.2198 875.8565,247.0052 Q874.8861,245.7906 874.8861,243.4957 Q874.8861,241.1947 875.8565,239.9801 Q876.827,238.7655 878.6702,238.7655 Q879.189,238.7655 879.6651,238.8753 Q880.1412,238.9852 880.5562,239.2049 L880.5562,241.2069 Q880.0924,240.7796 879.656,240.5813 Q879.2196,240.3829 878.7557,240.3829 Q877.7669,240.3829 877.2634,241.1672 Q876.7598,241.9515 876.7598,243.4957 Q876.7598,245.0338 877.2634,245.8181 Q877.7669,246.6024 878.7557,246.6024 Q879.2196,246.6024 879.656,246.404 Q880.0924,246.2056 880.5562,245.7784 Z " fill="#000000"/><text fill="#D8BC00" font-family="Open Sans,Avenir,Nunito,Arial,Helvetica,SansSerif" font-size="12.5" font-weight="bold" lengthAdjust="spacing" textLength="68.75" x="895.3125" y="248.0794">KryoTypes</text><line style="stroke:#5E5E5E;stroke-width:1.0416666666666667;" x1="865.1042" x2="969.2708" y1="259.0495" y2="259.0495"/><line style="stroke:#5E5E5E;stroke-width:1.0416666666666667;" x1="865.1042" x2="969.2708" y1="267.3828" y2="267.3828"/><rect codeLine="62" fill="#282828" height="83.3781" id="GridKryoTypes" rx="8.3333" ry="8.3333" style="stroke:#5E5E5E;stroke-width:1.0416666666666667;" width="133.3333" x="850.5208" y="601.6195"/><rect fill="#1B1B1A" height="31.3883" rx="8.3333" ry="8.3333" style="stroke:#1B1B1A;stroke-width:1.0416666666666667;" width="133.3333" x="850.5208" y="601.6195"/><rect fill="#1B1B1A" height="8.3333" style="stroke:#1B1B1A;stroke-width:1.0416666666666667;" width="133.3333" x="850.5208" y="624.6745"/><rect codeLine="62" fill="none" height="83.3781" id="GridKryoTypes" rx="8.3333" ry="8.3333" style="stroke:#5E5E5E;stroke-width:1.0416666666666667;" width="133.3333" x="850.5208" y="601.6195"/><ellipse cx="865.1042" cy="617.3136" fill="#0066CF" rx="10.4167" ry="10.4167" style="stroke:#0086EF;stroke-width:1.0416666666666667;"/><path d="M867.0146,621.7387 Q866.5873,621.9584 866.1174,622.0683 Q865.6474,622.1781 865.1286,622.1781 Q863.2853,622.1781 862.3149,620.9635 Q861.3444,619.7489 861.3444,617.454 Q861.3444,615.153 862.3149,613.9384 Q863.2853,612.7238 865.1286,612.7238 Q865.6474,612.7238 866.1235,612.8337 Q866.5995,612.9435 867.0146,613.1632 L867.0146,615.1652 Q866.5507,614.738 866.1143,614.5396 Q865.6779,614.3412 865.214,614.3412 Q864.2253,614.3412 863.7217,615.1255 Q863.2182,615.9098 863.2182,617.454 Q863.2182,618.9921 863.7217,619.7764 Q864.2253,620.5607 865.214,620.5607 Q865.6779,620.5607 866.1143,620.3623 Q866.5507,620.164 867.0146,619.7367 Z " fill="#000000"/><text fill="#D8BC00" font-family="Open Sans,Avenir,Nunito,Arial,Helvetica,SansSerif" font-size="12.5" font-weight="bold" lengthAdjust="spacing" textLength="95.8333" x="881.7708" y="622.0378">GridKryoTypes</text><line style="stroke:#5E5E5E;stroke-width:1.5625;" x1="851.5625" x2="982.8125" y1="633.0078" y2="633.0078"/><ellipse cx="861.9792" cy="668.3777" fill="#84BE84" rx="3.125" ry="3.125" style="stroke:#038048;stroke-width:1.0416666666666667;"/><text fill="#D8BC00" font-family="Open Sans,Avenir,Nunito,Arial,Helvetica,SansSerif" font-size="11.4583" lengthAdjust="spacing" textLength="91.6667" x="873.4375" y="675.2889">GridKryoTypes()</text><line style="stroke:#5E5E5E;stroke-width:1.0416666666666667;" x1="851.5625" x2="873.4375" y1="651.2136" y2="651.2136"/><text fill="#D8BC00" font-family="Open Sans,Avenir,Nunito,Arial,Helvetica,SansSerif" font-size="11.4583" lengthAdjust="spacing" textLength="81.25" x="876.5625" y="655.0232">(constructors)</text><line style="stroke:#5E5E5E;stroke-width:1.0416666666666667;" x1="960.9375" x2="982.8125" y1="651.2136" y2="651.2136"/><path codeLine="31" d="M669.2708,296.9736 C669.2708,348.8903 669.2708,437.2653 669.2708,511.609 " fill="none" id="Rectangle-backto-GridCell" style="stroke:#545454;stroke-width:1.5625;"/><polygon fill="none" points="661.9792,296.7028,669.2708,275.8695,676.5625,296.7028,661.9792,296.7028" style="stroke:#545454;stroke-width:1.5625;"/><path codeLine="47" d="M107.8125,297.0153 C107.8125,352.807 107.8125,450.6611 107.8125,527.9736 " fill="none" id="Stringable-backto-GridCellIdentifier" style="stroke:#545454;stroke-width:1.5625;"/><polygon fill="none" points="100.5208,296.7028,107.8125,275.8695,115.1042,296.7028,100.5208,296.7028" style="stroke:#545454;stroke-width:1.5625;"/><path codeLine="61" d="M917.1875,296.7861 C917.1875,372.932 917.1875,527.8903 917.1875,601.5674 " fill="none" id="KryoTypes-backto-GridKryoTypes" style="stroke:#545454;stroke-width:1.5625;"/><polygon fill="none" points="909.8958,296.7028,917.1875,275.8695,924.4792,296.7028,909.8958,296.7028" style="stroke:#545454;stroke-width:1.5625;"/></g></svg>
