<?xml version="1.0" encoding="UTF-8" standalone="no"?><svg xmlns="http://www.w3.org/2000/svg" xmlns:xlink="http://www.w3.org/1999/xlink" contentScriptType="application/ecmascript" contentStyleType="text/css" height="640.625px" preserveAspectRatio="none" style="width:2227px;height:640px;background:#333333;" version="1.1" viewBox="0 0 2227 640" width="2227.0833px" zoomAndPan="magnify"><defs/><g><rect fill="#48494B" height="41.2028" rx="8.3333" ry="8.3333" style="stroke:#545454;stroke-width:1.0416666666666667;" width="298.9583" x="957.0313" y="2.0833"/><text fill="#C0C0C0" font-family="Open Sans,Avenir,Nunito,Arial,Helvetica,SansSerif" font-size="20.8333" lengthAdjust="spacing" textLength="276.0417" x="968.4896" y="30.5583">mesakit-map-utilities-grid</text><rect fill="#1B1B1A" height="44.93" rx="8.3333" ry="8.3333" style="stroke:#5E5E5E;stroke-width:1.5625;" width="63.5417" x="1501.0417" y="375.5778"/><polygon fill="#1B1B1A" points="1546.875,380.7861,1546.875,395.3695,1559.375,395.3695,1559.375,387.0361,1553.125,380.7861,1546.875,380.7861" style="stroke:#5E5E5E;stroke-width:1.5625;"/><line style="stroke:#5E5E5E;stroke-width:1.5625;" x1="1553.125" x2="1553.125" y1="380.7861" y2="387.0361"/><line style="stroke:#5E5E5E;stroke-width:1.5625;" x1="1559.375" x2="1553.125" y1="387.0361" y2="387.0361"/><text fill="#D8BC00" font-family="Open Sans,Avenir,Nunito,Arial,Helvetica,SansSerif" font-size="12.5" lengthAdjust="spacing" textLength="26.0417" x="1514.5833" y="404.3294">kryo</text><rect fill="#1B1B1A" height="44.93" rx="8.3333" ry="8.3333" style="stroke:#5E5E5E;stroke-width:1.5625;" width="77.0833" x="1489.0625" y="482.8695"/><polygon fill="#1B1B1A" points="1548.4375,488.0778,1548.4375,502.6611,1560.9375,502.6611,1560.9375,494.3278,1554.6875,488.0778,1548.4375,488.0778" style="stroke:#5E5E5E;stroke-width:1.5625;"/><line style="stroke:#5E5E5E;stroke-width:1.5625;" x1="1554.6875" x2="1554.6875" y1="488.0778" y2="494.3278"/><line style="stroke:#5E5E5E;stroke-width:1.5625;" x1="1560.9375" x2="1554.6875" y1="494.3278" y2="494.3278"/><text fill="#D8BC00" font-family="Open Sans,Avenir,Nunito,Arial,Helvetica,SansSerif" font-size="12.5" lengthAdjust="spacing" textLength="39.5833" x="1502.6042" y="511.6211">minlog</text><rect fill="#1B1B1A" height="44.93" rx="8.3333" ry="8.3333" style="stroke:#5E5E5E;stroke-width:1.5625;" width="100" x="1602.6042" y="482.8695"/><polygon fill="#1B1B1A" points="1684.8958,488.0778,1684.8958,502.6611,1697.3958,502.6611,1697.3958,494.3278,1691.1458,488.0778,1684.8958,488.0778" style="stroke:#5E5E5E;stroke-width:1.5625;"/><line style="stroke:#5E5E5E;stroke-width:1.5625;" x1="1691.1458" x2="1691.1458" y1="488.0778" y2="494.3278"/><line style="stroke:#5E5E5E;stroke-width:1.5625;" x1="1697.3958" x2="1691.1458" y1="494.3278" y2="494.3278"/><text fill="#D8BC00" font-family="Open Sans,Avenir,Nunito,Arial,Helvetica,SansSerif" font-size="12.5" lengthAdjust="spacing" textLength="62.5" x="1616.1458" y="511.6211">reflectasm</text><rect fill="#1B1B1A" height="44.93" rx="8.3333" ry="8.3333" style="stroke:#5E5E5E;stroke-width:1.5625;" width="65.625" x="7.2917" y="375.5778"/><polygon fill="#1B1B1A" points="55.2083,380.7861,55.2083,395.3695,67.7083,395.3695,67.7083,387.0361,61.4583,380.7861,55.2083,380.7861" style="stroke:#5E5E5E;stroke-width:1.5625;"/><line style="stroke:#5E5E5E;stroke-width:1.5625;" x1="61.4583" x2="61.4583" y1="380.7861" y2="387.0361"/><line style="stroke:#5E5E5E;stroke-width:1.5625;" x1="67.7083" x2="61.4583" y1="387.0361" y2="387.0361"/><text fill="#D8BC00" font-family="Open Sans,Avenir,Nunito,Arial,Helvetica,SansSerif" font-size="12.5" lengthAdjust="spacing" textLength="28.125" x="20.8333" y="404.3294">gson</text><rect fill="#1B1B1A" height="44.93" rx="8.3333" ry="8.3333" style="stroke:#5E5E5E;stroke-width:1.5625;" width="170.8333" x="203.6458" y="268.2861"/><polygon fill="#1B1B1A" points="356.7708,273.4945,356.7708,288.0778,369.2708,288.0778,369.2708,279.7445,363.0208,273.4945,356.7708,273.4945" style="stroke:#5E5E5E;stroke-width:1.5625;"/><line style="stroke:#5E5E5E;stroke-width:1.5625;" x1="363.0208" x2="363.0208" y1="273.4945" y2="279.7445"/><line style="stroke:#5E5E5E;stroke-width:1.5625;" x1="369.2708" x2="363.0208" y1="279.7445" y2="279.7445"/><text fill="#D8BC00" font-family="Open Sans,Avenir,Nunito,Arial,Helvetica,SansSerif" font-size="12.5" lengthAdjust="spacing" textLength="133.3333" x="217.1875" y="297.0378">google_maps_services</text><rect fill="#1B1B1A" height="44.93" rx="8.3333" ry="8.3333" style="stroke:#5E5E5E;stroke-width:1.5625;" width="76.0417" x="109.375" y="375.5778"/><polygon fill="#1B1B1A" points="167.7083,380.7861,167.7083,395.3695,180.2083,395.3695,180.2083,387.0361,173.9583,380.7861,167.7083,380.7861" style="stroke:#5E5E5E;stroke-width:1.5625;"/><line style="stroke:#5E5E5E;stroke-width:1.5625;" x1="173.9583" x2="173.9583" y1="380.7861" y2="387.0361"/><line style="stroke:#5E5E5E;stroke-width:1.5625;" x1="180.2083" x2="173.9583" y1="387.0361" y2="387.0361"/><text fill="#D8BC00" font-family="Open Sans,Avenir,Nunito,Arial,Helvetica,SansSerif" font-size="12.5" lengthAdjust="spacing" textLength="38.5417" x="122.9167" y="404.3294">okhttp</text><rect fill="#1B1B1A" height="44.93" rx="8.3333" ry="8.3333" style="stroke:#5E5E5E;stroke-width:1.5625;" width="62.5" x="116.1458" y="482.8695"/><polygon fill="#1B1B1A" points="160.9375,488.0778,160.9375,502.6611,173.4375,502.6611,173.4375,494.3278,167.1875,488.0778,160.9375,488.0778" style="stroke:#5E5E5E;stroke-width:1.5625;"/><line style="stroke:#5E5E5E;stroke-width:1.5625;" x1="167.1875" x2="167.1875" y1="488.0778" y2="494.3278"/><line style="stroke:#5E5E5E;stroke-width:1.5625;" x1="173.4375" x2="167.1875" y1="494.3278" y2="494.3278"/><text fill="#D8BC00" font-family="Open Sans,Avenir,Nunito,Arial,Helvetica,SansSerif" font-size="12.5" lengthAdjust="spacing" textLength="25" x="129.6875" y="511.6211">okio</text><rect fill="#1B1B1A" height="44.93" rx="8.3333" ry="8.3333" style="stroke:#5E5E5E;stroke-width:1.5625;" width="138.5417" x="375" y="482.8695"/><polygon fill="#1B1B1A" points="495.8333,488.0778,495.8333,502.6611,508.3333,502.6611,508.3333,494.3278,502.0833,488.0778,495.8333,488.0778" style="stroke:#5E5E5E;stroke-width:1.5625;"/><line style="stroke:#5E5E5E;stroke-width:1.5625;" x1="502.0833" x2="502.0833" y1="488.0778" y2="494.3278"/><line style="stroke:#5E5E5E;stroke-width:1.5625;" x1="508.3333" x2="502.0833" y1="494.3278" y2="494.3278"/><text fill="#D8BC00" font-family="Open Sans,Avenir,Nunito,Arial,Helvetica,SansSerif" font-size="12.5" lengthAdjust="spacing" textLength="101.0417" x="388.5417" y="511.6211">cactus_metadata</text><rect fill="#1B1B1A" height="44.93" rx="8.3333" ry="8.3333" style="stroke:#5E5E5E;stroke-width:1.5625;" width="143.75" x="548.4375" y="268.2861"/><polygon fill="#1B1B1A" points="674.4792,273.4945,674.4792,288.0778,686.9792,288.0778,686.9792,279.7445,680.7292,273.4945,674.4792,273.4945" style="stroke:#5E5E5E;stroke-width:1.5625;"/><line style="stroke:#5E5E5E;stroke-width:1.5625;" x1="680.7292" x2="680.7292" y1="273.4945" y2="279.7445"/><line style="stroke:#5E5E5E;stroke-width:1.5625;" x1="686.9792" x2="680.7292" y1="279.7445" y2="279.7445"/><text fill="#D8BC00" font-family="Open Sans,Avenir,Nunito,Arial,Helvetica,SansSerif" font-size="12.5" lengthAdjust="spacing" textLength="106.25" x="561.9792" y="297.0378">kivakit_collections</text><rect fill="#1B1B1A" height="44.93" rx="8.3333" ry="8.3333" style="stroke:#5E5E5E;stroke-width:1.5625;" width="162.5" x="1301.5625" y="375.5778"/><polygon fill="#1B1B1A" points="1446.3542,380.7861,1446.3542,395.3695,1458.8542,395.3695,1458.8542,387.0361,1452.6042,380.7861,1446.3542,380.7861" style="stroke:#5E5E5E;stroke-width:1.5625;"/><line style="stroke:#5E5E5E;stroke-width:1.5625;" x1="1452.6042" x2="1452.6042" y1="380.7861" y2="387.0361"/><line style="stroke:#5E5E5E;stroke-width:1.5625;" x1="1458.8542" x2="1452.6042" y1="387.0361" y2="387.0361"/><text fill="#D8BC00" font-family="Open Sans,Avenir,Nunito,Arial,Helvetica,SansSerif" font-size="12.5" lengthAdjust="spacing" textLength="125" x="1315.1042" y="404.3294">kivakit_commandline</text><rect fill="#1B1B1A" height="44.93" rx="8.3333" ry="8.3333" style="stroke:#5E5E5E;stroke-width:1.5625;" width="148.9583" x="729.1667" y="268.2861"/><polygon fill="#1B1B1A" points="860.4167,273.4945,860.4167,288.0778,872.9167,288.0778,872.9167,279.7445,866.6667,273.4945,860.4167,273.4945" style="stroke:#5E5E5E;stroke-width:1.5625;"/><line style="stroke:#5E5E5E;stroke-width:1.5625;" x1="866.6667" x2="866.6667" y1="273.4945" y2="279.7445"/><line style="stroke:#5E5E5E;stroke-width:1.5625;" x1="872.9167" x2="866.6667" y1="279.7445" y2="279.7445"/><text fill="#D8BC00" font-family="Open Sans,Avenir,Nunito,Arial,Helvetica,SansSerif" font-size="12.5" lengthAdjust="spacing" textLength="111.4583" x="742.7083" y="297.0378">kivakit_component</text><rect fill="#1B1B1A" height="44.93" rx="8.3333" ry="8.3333" style="stroke:#5E5E5E;stroke-width:1.5625;" width="145.8333" x="1130.7292" y="482.8695"/><polygon fill="#1B1B1A" points="1258.8542,488.0778,1258.8542,502.6611,1271.3542,502.6611,1271.3542,494.3278,1265.1042,488.0778,1258.8542,488.0778" style="stroke:#5E5E5E;stroke-width:1.5625;"/><line style="stroke:#5E5E5E;stroke-width:1.5625;" x1="1265.1042" x2="1265.1042" y1="488.0778" y2="494.3278"/><line style="stroke:#5E5E5E;stroke-width:1.5625;" x1="1271.3542" x2="1265.1042" y1="494.3278" y2="494.3278"/><text fill="#D8BC00" font-family="Open Sans,Avenir,Nunito,Arial,Helvetica,SansSerif" font-size="12.5" lengthAdjust="spacing" textLength="108.3333" x="1144.2708" y="511.6211">kivakit_conversion</text><rect fill="#1B1B1A" height="44.93" rx="8.3333" ry="8.3333" style="stroke:#5E5E5E;stroke-width:1.5625;" width="108.3333" x="566.1458" y="375.5778"/><polygon fill="#1B1B1A" points="656.7708,380.7861,656.7708,395.3695,669.2708,395.3695,669.2708,387.0361,663.0208,380.7861,656.7708,380.7861" style="stroke:#5E5E5E;stroke-width:1.5625;"/><line style="stroke:#5E5E5E;stroke-width:1.5625;" x1="663.0208" x2="663.0208" y1="380.7861" y2="387.0361"/><line style="stroke:#5E5E5E;stroke-width:1.5625;" x1="669.2708" x2="663.0208" y1="387.0361" y2="387.0361"/><text fill="#D8BC00" font-family="Open Sans,Avenir,Nunito,Arial,Helvetica,SansSerif" font-size="12.5" lengthAdjust="spacing" textLength="70.8333" x="579.6875" y="404.3294">kivakit_core</text><rect fill="#1B1B1A" height="44.93" rx="8.3333" ry="8.3333" style="stroke:#5E5E5E;stroke-width:1.5625;" width="191.6667" x="915.1042" y="268.2861"/><polygon fill="#1B1B1A" points="1089.0625,273.4945,1089.0625,288.0778,1101.5625,288.0778,1101.5625,279.7445,1095.3125,273.4945,1089.0625,273.4945" style="stroke:#5E5E5E;stroke-width:1.5625;"/><line style="stroke:#5E5E5E;stroke-width:1.5625;" x1="1095.3125" x2="1095.3125" y1="273.4945" y2="279.7445"/><line style="stroke:#5E5E5E;stroke-width:1.5625;" x1="1101.5625" x2="1095.3125" y1="279.7445" y2="279.7445"/><text fill="#D8BC00" font-family="Open Sans,Avenir,Nunito,Arial,Helvetica,SansSerif" font-size="12.5" lengthAdjust="spacing" textLength="154.1667" x="928.6458" y="297.0378">kivakit_data_compression</text><rect fill="#1B1B1A" height="44.93" rx="8.3333" ry="8.3333" style="stroke:#5E5E5E;stroke-width:1.5625;" width="140.625" x="550" y="482.8695"/><polygon fill="#1B1B1A" points="672.9167,488.0778,672.9167,502.6611,685.4167,502.6611,685.4167,494.3278,679.1667,488.0778,672.9167,488.0778" style="stroke:#5E5E5E;stroke-width:1.5625;"/><line style="stroke:#5E5E5E;stroke-width:1.5625;" x1="679.1667" x2="679.1667" y1="488.0778" y2="494.3278"/><line style="stroke:#5E5E5E;stroke-width:1.5625;" x1="685.4167" x2="679.1667" y1="494.3278" y2="494.3278"/><text fill="#D8BC00" font-family="Open Sans,Avenir,Nunito,Arial,Helvetica,SansSerif" font-size="12.5" lengthAdjust="spacing" textLength="103.125" x="563.5417" y="511.6211">kivakit_interfaces</text><rect fill="#1B1B1A" height="44.93" rx="8.3333" ry="8.3333" style="stroke:#5E5E5E;stroke-width:1.5625;" width="112.5" x="1143.2292" y="268.2861"/><polygon fill="#1B1B1A" points="1238.0208,273.4945,1238.0208,288.0778,1250.5208,288.0778,1250.5208,279.7445,1244.2708,273.4945,1238.0208,273.4945" style="stroke:#5E5E5E;stroke-width:1.5625;"/><line style="stroke:#5E5E5E;stroke-width:1.5625;" x1="1244.2708" x2="1244.2708" y1="273.4945" y2="279.7445"/><line style="stroke:#5E5E5E;stroke-width:1.5625;" x1="1250.5208" x2="1244.2708" y1="279.7445" y2="279.7445"/><text fill="#D8BC00" font-family="Open Sans,Avenir,Nunito,Arial,Helvetica,SansSerif" font-size="12.5" lengthAdjust="spacing" textLength="75" x="1156.7708" y="297.0378">kivakit_math</text><rect fill="#1B1B1A" height="44.93" rx="8.3333" ry="8.3333" style="stroke:#5E5E5E;stroke-width:1.5625;" width="120.8333" x="727.6042" y="482.8695"/><polygon fill="#1B1B1A" points="830.7292,488.0778,830.7292,502.6611,843.2292,502.6611,843.2292,494.3278,836.9792,488.0778,830.7292,488.0778" style="stroke:#5E5E5E;stroke-width:1.5625;"/><line style="stroke:#5E5E5E;stroke-width:1.5625;" x1="836.9792" x2="836.9792" y1="488.0778" y2="494.3278"/><line style="stroke:#5E5E5E;stroke-width:1.5625;" x1="843.2292" x2="836.9792" y1="494.3278" y2="494.3278"/><text fill="#D8BC00" font-family="Open Sans,Avenir,Nunito,Arial,Helvetica,SansSerif" font-size="12.5" lengthAdjust="spacing" textLength="83.3333" x="741.1458" y="511.6211">kivakit_mixins</text><rect fill="#1B1B1A" height="44.93" rx="8.3333" ry="8.3333" style="stroke:#5E5E5E;stroke-width:1.5625;" width="202.0833" x="895.3125" y="375.5778"/><polygon fill="#1B1B1A" points="1079.6875,380.7861,1079.6875,395.3695,1092.1875,395.3695,1092.1875,387.0361,1085.9375,380.7861,1079.6875,380.7861" style="stroke:#5E5E5E;stroke-width:1.5625;"/><line style="stroke:#5E5E5E;stroke-width:1.5625;" x1="1085.9375" x2="1085.9375" y1="380.7861" y2="387.0361"/><line style="stroke:#5E5E5E;stroke-width:1.5625;" x1="1092.1875" x2="1085.9375" y1="387.0361" y2="387.0361"/><text fill="#D8BC00" font-family="Open Sans,Avenir,Nunito,Arial,Helvetica,SansSerif" font-size="12.5" lengthAdjust="spacing" textLength="164.5833" x="908.8542" y="404.3294">kivakit_primitive_collections</text><rect fill="#1B1B1A" height="44.93" rx="8.3333" ry="8.3333" style="stroke:#5E5E5E;stroke-width:1.5625;" width="134.375" x="1304.1667" y="268.2861"/><polygon fill="#1B1B1A" points="1420.8333,273.4945,1420.8333,288.0778,1433.3333,288.0778,1433.3333,279.7445,1427.0833,273.4945,1420.8333,273.4945" style="stroke:#5E5E5E;stroke-width:1.5625;"/><line style="stroke:#5E5E5E;stroke-width:1.5625;" x1="1427.0833" x2="1427.0833" y1="273.4945" y2="279.7445"/><line style="stroke:#5E5E5E;stroke-width:1.5625;" x1="1433.3333" x2="1427.0833" y1="279.7445" y2="279.7445"/><text fill="#D8BC00" font-family="Open Sans,Avenir,Nunito,Arial,Helvetica,SansSerif" font-size="12.5" lengthAdjust="spacing" textLength="96.875" x="1317.7083" y="297.0378">kivakit_resource</text><rect fill="#1B1B1A" height="44.93" rx="8.3333" ry="8.3333" style="stroke:#5E5E5E;stroke-width:1.5625;" width="186.4583" x="1601.0417" y="375.5778"/><polygon fill="#1B1B1A" points="1769.7917,380.7861,1769.7917,395.3695,1782.2917,395.3695,1782.2917,387.0361,1776.0417,380.7861,1769.7917,380.7861" style="stroke:#5E5E5E;stroke-width:1.5625;"/><line style="stroke:#5E5E5E;stroke-width:1.5625;" x1="1776.0417" x2="1776.0417" y1="380.7861" y2="387.0361"/><line style="stroke:#5E5E5E;stroke-width:1.5625;" x1="1782.2917" x2="1776.0417" y1="387.0361" y2="387.0361"/><text fill="#D8BC00" font-family="Open Sans,Avenir,Nunito,Arial,Helvetica,SansSerif" font-size="12.5" lengthAdjust="spacing" textLength="148.9583" x="1614.5833" y="404.3294">kivakit_serialization_core</text><rect fill="#1B1B1A" height="44.93" rx="8.3333" ry="8.3333" style="stroke:#5E5E5E;stroke-width:1.5625;" width="188.5417" x="885.4167" y="482.8695"/><polygon fill="#1B1B1A" points="1056.25,488.0778,1056.25,502.6611,1068.75,502.6611,1068.75,494.3278,1062.5,488.0778,1056.25,488.0778" style="stroke:#5E5E5E;stroke-width:1.5625;"/><line style="stroke:#5E5E5E;stroke-width:1.5625;" x1="1062.5" x2="1062.5" y1="488.0778" y2="494.3278"/><line style="stroke:#5E5E5E;stroke-width:1.5625;" x1="1068.75" x2="1062.5" y1="494.3278" y2="494.3278"/><text fill="#D8BC00" font-family="Open Sans,Avenir,Nunito,Arial,Helvetica,SansSerif" font-size="12.5" lengthAdjust="spacing" textLength="151.0417" x="898.9583" y="511.6211">kivakit_serialization_gson</text><rect fill="#1B1B1A" height="44.93" rx="8.3333" ry="8.3333" style="stroke:#5E5E5E;stroke-width:1.5625;" width="186.4583" x="1537.5" y="268.2861"/><polygon fill="#1B1B1A" points="1706.25,273.4945,1706.25,288.0778,1718.75,288.0778,1718.75,279.7445,1712.5,273.4945,1706.25,273.4945" style="stroke:#5E5E5E;stroke-width:1.5625;"/><line style="stroke:#5E5E5E;stroke-width:1.5625;" x1="1712.5" x2="1712.5" y1="273.4945" y2="279.7445"/><line style="stroke:#5E5E5E;stroke-width:1.5625;" x1="1718.75" x2="1712.5" y1="279.7445" y2="279.7445"/><text fill="#D8BC00" font-family="Open Sans,Avenir,Nunito,Arial,Helvetica,SansSerif" font-size="12.5" lengthAdjust="spacing" textLength="148.9583" x="1551.0417" y="297.0378">kivakit_serialization_kryo</text><rect fill="#1B1B1A" height="44.93" rx="8.3333" ry="8.3333" style="stroke:#5E5E5E;stroke-width:1.5625;" width="222.9167" x="1824.4792" y="375.5778"/><polygon fill="#1B1B1A" points="2029.6875,380.7861,2029.6875,395.3695,2042.1875,395.3695,2042.1875,387.0361,2035.9375,380.7861,2029.6875,380.7861" style="stroke:#5E5E5E;stroke-width:1.5625;"/><line style="stroke:#5E5E5E;stroke-width:1.5625;" x1="2035.9375" x2="2035.9375" y1="380.7861" y2="387.0361"/><line style="stroke:#5E5E5E;stroke-width:1.5625;" x1="2042.1875" x2="2035.9375" y1="387.0361" y2="387.0361"/><text fill="#D8BC00" font-family="Open Sans,Avenir,Nunito,Arial,Helvetica,SansSerif" font-size="12.5" lengthAdjust="spacing" textLength="185.4167" x="1838.0208" y="404.3294">kivakit_serialization_properties</text><rect fill="#1B1B1A" height="44.93" rx="8.3333" ry="8.3333" style="stroke:#5E5E5E;stroke-width:1.5625;" width="128.125" x="730.2083" y="375.5778"/><polygon fill="#1B1B1A" points="840.625,380.7861,840.625,395.3695,853.125,395.3695,853.125,387.0361,846.875,380.7861,840.625,380.7861" style="stroke:#5E5E5E;stroke-width:1.5625;"/><line style="stroke:#5E5E5E;stroke-width:1.5625;" x1="846.875" x2="846.875" y1="380.7861" y2="387.0361"/><line style="stroke:#5E5E5E;stroke-width:1.5625;" x1="853.125" x2="846.875" y1="387.0361" y2="387.0361"/><text fill="#D8BC00" font-family="Open Sans,Avenir,Nunito,Arial,Helvetica,SansSerif" font-size="12.5" lengthAdjust="spacing" textLength="90.625" x="743.75" y="404.3294">kivakit_settings</text><rect fill="#1B1B1A" height="44.93" rx="8.3333" ry="8.3333" style="stroke:#5E5E5E;stroke-width:1.5625;" width="139.5833" x="1313.0208" y="482.8695"/><polygon fill="#1B1B1A" points="1434.8958,488.0778,1434.8958,502.6611,1447.3958,502.6611,1447.3958,494.3278,1441.1458,488.0778,1434.8958,488.0778" style="stroke:#5E5E5E;stroke-width:1.5625;"/><line style="stroke:#5E5E5E;stroke-width:1.5625;" x1="1441.1458" x2="1441.1458" y1="488.0778" y2="494.3278"/><line style="stroke:#5E5E5E;stroke-width:1.5625;" x1="1447.3958" x2="1441.1458" y1="494.3278" y2="494.3278"/><text fill="#D8BC00" font-family="Open Sans,Avenir,Nunito,Arial,Helvetica,SansSerif" font-size="12.5" lengthAdjust="spacing" textLength="102.0833" x="1326.5625" y="511.6211">kivakit_validation</text><rect fill="#1B1B1A" height="44.93" rx="8.3333" ry="8.3333" style="stroke:#5E5E5E;stroke-width:1.5625;" width="155.2083" x="458.3333" y="590.1611"/><polygon fill="#1B1B1A" points="595.8333,595.3695,595.8333,609.9528,608.3333,609.9528,608.3333,601.6195,602.0833,595.3695,595.8333,595.3695" style="stroke:#5E5E5E;stroke-width:1.5625;"/><line style="stroke:#5E5E5E;stroke-width:1.5625;" x1="602.0833" x2="602.0833" y1="595.3695" y2="601.6195"/><line style="stroke:#5E5E5E;stroke-width:1.5625;" x1="608.3333" x2="602.0833" y1="601.6195" y2="601.6195"/><text fill="#D8BC00" font-family="Open Sans,Avenir,Nunito,Arial,Helvetica,SansSerif" font-size="12.5" lengthAdjust="spacing" textLength="117.7083" x="471.875" y="618.9128">lexakai_annotations</text><rect fill="#1B1B1A" height="44.93" rx="8.3333" ry="8.3333" style="stroke:#5E5E5E;stroke-width:1.5625;" width="187.5" x="1010.9375" y="160.9945"/><polygon fill="#1B1B1A" points="1180.7292,166.2028,1180.7292,180.7861,1193.2292,180.7861,1193.2292,172.4528,1186.9792,166.2028,1180.7292,166.2028" style="stroke:#5E5E5E;stroke-width:1.5625;"/><line style="stroke:#5E5E5E;stroke-width:1.5625;" x1="1186.9792" x2="1186.9792" y1="166.2028" y2="172.4528"/><line style="stroke:#5E5E5E;stroke-width:1.5625;" x1="1193.2292" x2="1186.9792" y1="172.4528" y2="172.4528"/><text fill="#D8BC00" font-family="Open Sans,Avenir,Nunito,Arial,Helvetica,SansSerif" font-size="12.5" lengthAdjust="spacing" textLength="150" x="1024.4792" y="189.7461">mesakit_map_geography</text><rect fill="#1B1B1A" height="44.93" rx="8.3333" ry="8.3333" style="stroke:#5E5E5E;stroke-width:1.5625;" width="212.5" x="1760.9375" y="268.2861"/><polygon fill="#1B1B1A" points="1955.7292,273.4945,1955.7292,288.0778,1968.2292,288.0778,1968.2292,279.7445,1961.9792,273.4945,1955.7292,273.4945" style="stroke:#5E5E5E;stroke-width:1.5625;"/><line style="stroke:#5E5E5E;stroke-width:1.5625;" x1="1961.9792" x2="1961.9792" y1="273.4945" y2="279.7445"/><line style="stroke:#5E5E5E;stroke-width:1.5625;" x1="1968.2292" x2="1961.9792" y1="279.7445" y2="279.7445"/><text fill="#D8BC00" font-family="Open Sans,Avenir,Nunito,Arial,Helvetica,SansSerif" font-size="12.5" lengthAdjust="spacing" textLength="175" x="1774.4792" y="297.0378">mesakit_map_measurements</text><rect fill="#1B1B1A" height="44.93" rx="8.3333" ry="8.3333" style="stroke:#5E5E5E;stroke-width:1.5625;" width="195.8333" x="1006.7708" y="53.7028"/><polygon fill="#1B1B1A" points="1184.8958,58.9111,1184.8958,73.4945,1197.3958,73.4945,1197.3958,65.1611,1191.1458,58.9111,1184.8958,58.9111" style="stroke:#5E5E5E;stroke-width:1.5625;"/><line style="stroke:#5E5E5E;stroke-width:1.5625;" x1="1191.1458" x2="1191.1458" y1="58.9111" y2="65.1611"/><line style="stroke:#5E5E5E;stroke-width:1.5625;" x1="1197.3958" x2="1191.1458" y1="65.1611" y2="65.1611"/><text fill="#D8BC00" font-family="Open Sans,Avenir,Nunito,Arial,Helvetica,SansSerif" font-size="12.5" lengthAdjust="spacing" textLength="158.3333" x="1020.3125" y="82.4544">mesakit_map_utilities_grid</text><rect fill="#1B1B1A" height="44.93" rx="8.3333" ry="8.3333" style="stroke:#5E5E5E;stroke-width:1.5625;" width="131.25" x="2083.8542" y="375.5778"/><polygon fill="#1B1B1A" points="2197.3958,380.7861,2197.3958,395.3695,2209.8958,395.3695,2209.8958,387.0361,2203.6458,380.7861,2197.3958,380.7861" style="stroke:#5E5E5E;stroke-width:1.5625;"/><line style="stroke:#5E5E5E;stroke-width:1.5625;" x1="2203.6458" x2="2203.6458" y1="380.7861" y2="387.0361"/><line style="stroke:#5E5E5E;stroke-width:1.5625;" x1="2209.8958" x2="2203.6458" y1="387.0361" y2="387.0361"/><text fill="#D8BC00" font-family="Open Sans,Avenir,Nunito,Arial,Helvetica,SansSerif" font-size="12.5" lengthAdjust="spacing" textLength="93.75" x="2097.3958" y="404.3294">kryo_serializers</text><rect fill="#1B1B1A" height="44.93" rx="8.3333" ry="8.3333" style="stroke:#5E5E5E;stroke-width:1.5625;" width="114.5833" x="223.4375" y="482.8695"/><polygon fill="#1B1B1A" points="320.3125,488.0778,320.3125,502.6611,332.8125,502.6611,332.8125,494.3278,326.5625,488.0778,320.3125,488.0778" style="stroke:#5E5E5E;stroke-width:1.5625;"/><line style="stroke:#5E5E5E;stroke-width:1.5625;" x1="326.5625" x2="326.5625" y1="488.0778" y2="494.3278"/><line style="stroke:#5E5E5E;stroke-width:1.5625;" x1="332.8125" x2="326.5625" y1="494.3278" y2="494.3278"/><text fill="#D8BC00" font-family="Open Sans,Avenir,Nunito,Arial,Helvetica,SansSerif" font-size="12.5" lengthAdjust="spacing" textLength="77.0833" x="236.9792" y="511.6211">grpc_context</text><rect fill="#1B1B1A" height="44.93" rx="8.3333" ry="8.3333" style="stroke:#5E5E5E;stroke-width:1.5625;" width="133.3333" x="222.3958" y="375.5778"/><polygon fill="#1B1B1A" points="338.0208,380.7861,338.0208,395.3695,350.5208,395.3695,350.5208,387.0361,344.2708,380.7861,338.0208,380.7861" style="stroke:#5E5E5E;stroke-width:1.5625;"/><line style="stroke:#5E5E5E;stroke-width:1.5625;" x1="344.2708" x2="344.2708" y1="380.7861" y2="387.0361"/><line style="stroke:#5E5E5E;stroke-width:1.5625;" x1="350.5208" x2="344.2708" y1="387.0361" y2="387.0361"/><text fill="#D8BC00" font-family="Open Sans,Avenir,Nunito,Arial,Helvetica,SansSerif" font-size="12.5" lengthAdjust="spacing" textLength="95.8333" x="235.9375" y="404.3294">opencensus_api</text><rect fill="#1B1B1A" height="44.93" rx="8.3333" ry="8.3333" style="stroke:#5E5E5E;stroke-width:1.5625;" width="131.25" x="1133.8542" y="375.5778"/><polygon fill="#1B1B1A" points="1247.3958,380.7861,1247.3958,395.3695,1259.8958,395.3695,1259.8958,387.0361,1253.6458,380.7861,1247.3958,380.7861" style="stroke:#5E5E5E;stroke-width:1.5625;"/><line style="stroke:#5E5E5E;stroke-width:1.5625;" x1="1253.6458" x2="1253.6458" y1="380.7861" y2="387.0361"/><line style="stroke:#5E5E5E;stroke-width:1.5625;" x1="1259.8958" x2="1253.6458" y1="387.0361" y2="387.0361"/><text fill="#D8BC00" font-family="Open Sans,Avenir,Nunito,Arial,Helvetica,SansSerif" font-size="12.5" lengthAdjust="spacing" textLength="93.75" x="1147.3958" y="404.3294">commons_math</text><rect fill="#1B1B1A" height="44.93" rx="8.3333" ry="8.3333" style="stroke:#5E5E5E;stroke-width:1.5625;" width="166.6667" x="64.0625" y="590.1611"/><polygon fill="#1B1B1A" points="213.0208,595.3695,213.0208,609.9528,225.5208,609.9528,225.5208,601.6195,219.2708,595.3695,213.0208,595.3695" style="stroke:#5E5E5E;stroke-width:1.5625;"/><line style="stroke:#5E5E5E;stroke-width:1.5625;" x1="219.2708" x2="219.2708" y1="595.3695" y2="601.6195"/><line style="stroke:#5E5E5E;stroke-width:1.5625;" x1="225.5208" x2="219.2708" y1="601.6195" y2="601.6195"/><text fill="#D8BC00" font-family="Open Sans,Avenir,Nunito,Arial,Helvetica,SansSerif" font-size="12.5" lengthAdjust="spacing" textLength="129.1667" x="77.6042" y="618.9128">kotlin_stdlib_common</text><rect fill="#1B1B1A" height="44.93" rx="8.3333" ry="8.3333" style="stroke:#5E5E5E;stroke-width:1.5625;" width="106.25" x="650.5208" y="590.1611"/><polygon fill="#1B1B1A" points="739.0625,595.3695,739.0625,609.9528,751.5625,609.9528,751.5625,601.6195,745.3125,595.3695,739.0625,595.3695" style="stroke:#5E5E5E;stroke-width:1.5625;"/><line style="stroke:#5E5E5E;stroke-width:1.5625;" x1="745.3125" x2="745.3125" y1="595.3695" y2="601.6195"/><line style="stroke:#5E5E5E;stroke-width:1.5625;" x1="751.5625" x2="745.3125" y1="601.6195" y2="601.6195"/><text fill="#D8BC00" font-family="Open Sans,Avenir,Nunito,Arial,Helvetica,SansSerif" font-size="12.5" lengthAdjust="spacing" textLength="68.75" x="664.0625" y="618.9128">annotations</text><rect fill="#1B1B1A" height="44.93" rx="8.3333" ry="8.3333" style="stroke:#5E5E5E;stroke-width:1.5625;" width="94.7917" x="1739.5833" y="482.8695"/><polygon fill="#1B1B1A" points="1816.6667,488.0778,1816.6667,502.6611,1829.1667,502.6611,1829.1667,494.3278,1822.9167,488.0778,1816.6667,488.0778" style="stroke:#5E5E5E;stroke-width:1.5625;"/><line style="stroke:#5E5E5E;stroke-width:1.5625;" x1="1822.9167" x2="1822.9167" y1="488.0778" y2="494.3278"/><line style="stroke:#5E5E5E;stroke-width:1.5625;" x1="1829.1667" x2="1822.9167" y1="494.3278" y2="494.3278"/><text fill="#D8BC00" font-family="Open Sans,Avenir,Nunito,Arial,Helvetica,SansSerif" font-size="12.5" lengthAdjust="spacing" textLength="57.2917" x="1753.125" y="511.6211">objenesis</text><rect fill="#1B1B1A" height="44.93" rx="8.3333" ry="8.3333" style="stroke:#5E5E5E;stroke-width:1.5625;" width="62.5" x="1621.3542" y="590.1611"/><polygon fill="#1B1B1A" points="1666.1458,595.3695,1666.1458,609.9528,1678.6458,609.9528,1678.6458,601.6195,1672.3958,595.3695,1666.1458,595.3695" style="stroke:#5E5E5E;stroke-width:1.5625;"/><line style="stroke:#5E5E5E;stroke-width:1.5625;" x1="1672.3958" x2="1672.3958" y1="595.3695" y2="601.6195"/><line style="stroke:#5E5E5E;stroke-width:1.5625;" x1="1678.6458" x2="1672.3958" y1="601.6195" y2="601.6195"/><text fill="#D8BC00" font-family="Open Sans,Avenir,Nunito,Arial,Helvetica,SansSerif" font-size="12.5" lengthAdjust="spacing" textLength="25" x="1634.8958" y="618.9128">asm</text><rect fill="#1B1B1A" height="44.93" rx="8.3333" ry="8.3333" style="stroke:#5E5E5E;stroke-width:1.5625;" width="88.5417" x="392.7083" y="375.5778"/><polygon fill="#1B1B1A" points="463.5417,380.7861,463.5417,395.3695,476.0417,395.3695,476.0417,387.0361,469.7917,380.7861,463.5417,380.7861" style="stroke:#5E5E5E;stroke-width:1.5625;"/><line style="stroke:#5E5E5E;stroke-width:1.5625;" x1="469.7917" x2="469.7917" y1="380.7861" y2="387.0361"/><line style="stroke:#5E5E5E;stroke-width:1.5625;" x1="476.0417" x2="469.7917" y1="387.0361" y2="387.0361"/><text fill="#D8BC00" font-family="Open Sans,Avenir,Nunito,Arial,Helvetica,SansSerif" font-size="12.5" lengthAdjust="spacing" textLength="51.0417" x="406.25" y="404.3294">slf4j_api</text><path d="M238.3854,313.1403 C190.875,333.2132 120.9375,362.7757 78.0729,380.8903 " fill="none" id="google_maps_services-to-gson" style="stroke:#545454;stroke-width:1.5625;"/><polygon fill="#545454" points="73.2396,382.932,83.4975,383.0957,78.0322,380.8929,80.235,375.4276,73.2396,382.932" style="stroke:#545454;stroke-width:1.5625;"/><path d="M260.0521,313.2653 C237.0417,330.359 204.8438,354.2653 180.7604,372.1507 " fill="none" id="google_maps_services-to-okhttp" style="stroke:#545454;stroke-width:1.5625;"/><polygon fill="#545454" points="176.3646,375.4215,186.3737,373.1699,180.5437,372.3132,181.4004,366.4833,176.3646,375.4215" style="stroke:#545454;stroke-width:1.5625;"/><path d="M289.0625,313.5257 C289.0625,329.9945 289.0625,352.6924 289.0625,370.2445 " fill="none" id="google_maps_services-to-opencensus_api" style="stroke:#545454;stroke-width:1.5625;"/><polygon fill="#545454" points="289.0625,375.5257,293.2292,366.1507,289.0625,370.3174,284.8958,366.1507,289.0625,375.5257" style="stroke:#545454;stroke-width:1.5625;"/><path d="M319.3542,313.2653 C343.4792,330.432 377.2708,354.4632 402.4479,372.3695 " fill="none" id="google_maps_services-to-slf4j_api" style="stroke:#545454;stroke-width:1.5625;"/><polygon fill="#545454" points="406.7292,375.4215,401.5105,366.5888,402.487,372.3999,396.6759,373.3764,406.7292,375.4215" style="stroke:#545454;stroke-width:1.5625;"/><path d="M620.3125,313.5257 C620.3125,329.9945 620.3125,352.6924 620.3125,370.2445 " fill="none" id="kivakit_collections-to-kivakit_core" style="stroke:#545454;stroke-width:1.5625;"/><polygon fill="#545454" points="620.3125,375.5257,624.4792,366.1507,620.3125,370.3174,616.1458,366.1507,620.3125,375.5257" style="stroke:#545454;stroke-width:1.5625;"/><path d="M1346.125,420.557 C1316.7708,437.7965 1275.625,461.9528 1245.0938,479.8903 " fill="none" id="kivakit_commandline-to-kivakit_conversion" style="stroke:#545454;stroke-width:1.5625;"/><polygon fill="#545454" points="1240.2813,482.7132,1250.4763,481.5675,1244.7747,480.0796,1246.2626,474.378,1240.2813,482.7132" style="stroke:#545454;stroke-width:1.5625;"/><path d="M1382.8125,420.8174 C1382.8125,437.2861 1382.8125,459.984 1382.8125,477.5361 " fill="none" id="kivakit_commandline-to-kivakit_validation" style="stroke:#545454;stroke-width:1.5625;"/><polygon fill="#545454" points="1382.8125,482.8174,1386.9792,473.4424,1382.8125,477.609,1378.6458,473.4424,1382.8125,482.8174" style="stroke:#545454;stroke-width:1.5625;"/><path d="M801.7083,313.5257 C800.2396,329.9945 798.2083,352.6924 796.6458,370.2445 " fill="none" id="kivakit_component-to-kivakit_settings" style="stroke:#545454;stroke-width:1.5625;"/><polygon fill="#545454" points="796.1771,375.5257,801.1569,366.5561,796.6379,370.3378,792.8562,365.8188,796.1771,375.5257" style="stroke:#545454;stroke-width:1.5625;"/><path d="M584.2604,420.557 C555.4271,437.7965 515,461.9528 484.9896,479.8903 " fill="none" id="kivakit_core-to-cactus_metadata" style="stroke:#545454;stroke-width:1.5625;"/><polygon fill="#545454" points="480.2708,482.7132,490.4566,481.4877,484.7435,480.0445,486.1867,474.3314,480.2708,482.7132" style="stroke:#545454;stroke-width:1.5625;"/><path d="M620.3125,420.8174 C620.3125,437.2861 620.3125,459.984 620.3125,477.5361 " fill="none" id="kivakit_core-to-kivakit_interfaces" style="stroke:#545454;stroke-width:1.5625;"/><polygon fill="#545454" points="620.3125,482.8174,624.4792,473.4424,620.3125,477.609,616.1458,473.4424,620.3125,482.8174" style="stroke:#545454;stroke-width:1.5625;"/><path d="M654.6563,420.557 C682.125,437.7965 720.6458,461.9528 749.2292,479.8903 " fill="none" id="kivakit_core-to-kivakit_mixins" style="stroke:#545454;stroke-width:1.5625;"/><polygon fill="#545454" points="753.7188,482.7132,747.9977,474.1972,749.3088,479.9421,743.5639,481.2532,753.7188,482.7132" style="stroke:#545454;stroke-width:1.5625;"/><path d="M1007.9167,313.5257 C1005.6354,329.9945 1002.4896,352.6924 1000.0521,370.2445 " fill="none" id="kivakit_data_compression-to-kivakit_primitive_collections" style="stroke:#545454;stroke-width:1.5625;"/><polygon fill="#545454" points="999.3229,375.5257,1004.7349,366.8101,1000.0366,370.3665,996.4801,365.6682,999.3229,375.5257" style="stroke:#545454;stroke-width:1.5625;"/><path d="M637.5833,528.109 C650.8542,544.859 669.2292,568.057 683.2292,585.734 " fill="none" id="kivakit_interfaces-to-annotations" style="stroke:#545454;stroke-width:1.5625;"/><polygon fill="#545454" points="686.6875,590.109,684.151,580.1683,683.4612,586.0204,677.6091,585.3305,686.6875,590.109" style="stroke:#545454;stroke-width:1.5625;"/><path d="M602.8333,528.109 C589.3958,544.859 570.7917,568.057 556.6146,585.734 " fill="none" id="kivakit_interfaces-to-lexakai_annotations" style="stroke:#545454;stroke-width:1.5625;"/><polygon fill="#545454" points="553.1042,590.109,562.2206,585.4035,556.3632,586.0464,555.7203,580.189,553.1042,590.109" style="stroke:#545454;stroke-width:1.5625;"/><path d="M1199.4792,313.5257 C1199.4792,329.9945 1199.4792,352.6924 1199.4792,370.2445 " fill="none" id="kivakit_math-to-commons_math" style="stroke:#545454;stroke-width:1.5625;"/><polygon fill="#545454" points="1199.4792,375.5257,1203.6458,366.1507,1199.4792,370.3174,1195.3125,366.1507,1199.4792,375.5257" style="stroke:#545454;stroke-width:1.5625;"/><path d="M1373.7292,313.5257 C1375.5208,329.9945 1377.9896,352.6924 1379.9063,370.2445 " fill="none" id="kivakit_resource-to-kivakit_commandline" style="stroke:#545454;stroke-width:1.5625;"/><polygon fill="#545454" points="1380.4792,375.5257,1383.6313,365.7627,1379.9285,370.3466,1375.3447,366.6438,1380.4792,375.5257" style="stroke:#545454;stroke-width:1.5625;"/><path d="M1643.8958,313.5257 C1653.9271,330.1403 1667.7917,353.0778 1678.4271,370.7028 " fill="none" id="kivakit_serialization_kryo-to-kivakit_serialization_core" style="stroke:#545454;stroke-width:1.5625;"/><polygon fill="#545454" points="1681.3438,375.5257,1680.0683,365.3461,1678.6532,371.0662,1672.9331,369.651,1681.3438,375.5257" style="stroke:#545454;stroke-width:1.5625;"/><path d="M1692.8646,313.1403 C1744.0208,330.7757 1816.4167,355.734 1868.875,373.8174 " fill="none" id="kivakit_serialization_kryo-to-kivakit_serialization_properties" style="stroke:#545454;stroke-width:1.5625;"/><polygon fill="#545454" points="1873.8958,375.5465,1866.3887,368.5541,1868.9714,373.8505,1863.675,376.4332,1873.8958,375.5465" style="stroke:#545454;stroke-width:1.5625;"/><path d="M1610.4375,313.5257 C1594.7083,330.4215 1572.8958,353.8695 1556.3854,371.5986 " fill="none" id="kivakit_serialization_kryo-to-kryo" style="stroke:#545454;stroke-width:1.5625;"/><polygon fill="#545454" points="1552.7396,375.5257,1562.1829,371.5164,1556.2939,371.7186,1556.0916,365.8295,1552.7396,375.5257" style="stroke:#545454;stroke-width:1.5625;"/><path d="M1724.0417,309.5986 C1846.6458,333.0986 2048.4896,371.8799 2065.1042,375.5778 C2069.4479,376.5465 2073.9167,377.5778 2078.4063,378.6403 " fill="none" id="kivakit_serialization_kryo-to-kryo_serializers" style="stroke:#545454;stroke-width:1.5625;"/><polygon fill="#545454" points="2083.6979,379.9007,2075.5438,373.6748,2078.6314,378.6937,2073.6125,381.7813,2083.6979,379.9007" style="stroke:#545454;stroke-width:1.5625;"/><path d="M832.2396,420.557 C862.7396,437.859 905.5417,462.1507 937.1875,480.109 " fill="none" id="kivakit_settings-to-kivakit_serialization_gson" style="stroke:#545454;stroke-width:1.5625;"/><polygon fill="#545454" points="941.7708,482.7132,935.6631,474.4702,937.2378,480.1485,931.5595,481.7231,941.7708,482.7132" style="stroke:#545454;stroke-width:1.5625;"/><path d="M1531.7292,420.8174 C1530.9167,437.2861 1529.7917,459.984 1528.9271,477.5361 " fill="none" id="kryo-to-minlog" style="stroke:#545454;stroke-width:1.5625;"/><polygon fill="#545454" points="1528.6667,482.8174,1533.3107,473.6694,1528.9349,477.616,1524.9884,473.2402,1528.6667,482.8174" style="stroke:#545454;stroke-width:1.5625;"/><path d="M1564.7917,412.7549 C1570.7708,415.2965 1576.9792,417.9215 1582.8125,420.3695 C1634.2708,441.9215 1693.2292,466.0778 1734.5104,482.9111 " fill="none" id="kryo-to-objenesis" style="stroke:#545454;stroke-width:1.5625;"/><polygon fill="#545454" points="1739.4583,484.9215,1732.3483,477.5257,1734.6349,482.9565,1729.2041,485.2431,1739.4583,484.9215" style="stroke:#545454;stroke-width:1.5625;"/><path d="M1557.3438,420.557 C1576.7188,437.5778 1603.8021,461.359 1624.1354,479.2236 " fill="none" id="kryo-to-reflectasm" style="stroke:#545454;stroke-width:1.5625;"/><polygon fill="#545454" points="1628.1042,482.7132,1623.81,473.3959,1624.191,479.2761,1618.3107,479.657,1628.1042,482.7132" style="stroke:#545454;stroke-width:1.5625;"/><path d="M1010.7292,196.557 C852.7917,216.9215 536.125,257.7757 380.1458,277.8903 " fill="none" id="mesakit_map_geography-to-google_maps_services" style="stroke:#545454;stroke-width:1.5625;"/><polygon fill="#545454" points="374.6667,278.5986,384.4903,281.5564,379.8339,277.9453,383.445,273.2889,374.6667,278.5986" style="stroke:#545454;stroke-width:1.5625;"/><path d="M1010.6875,203.859 C930.8333,220.4945 813.2396,245.3486 710.9375,268.2861 C706.625,269.2549 702.2083,270.2549 697.75,271.2757 " fill="none" id="mesakit_map_geography-to-kivakit_collections" style="stroke:#545454;stroke-width:1.5625;"/><polygon fill="#545454" points="692.5,272.484,702.5735,274.4273,697.5739,271.3086,700.6927,266.309,692.5,272.484" style="stroke:#545454;stroke-width:1.5625;"/><path d="M1043.4063,205.8486 C992.9375,223.484 921.5417,248.4424 869.7917,266.5257 " fill="none" id="mesakit_map_geography-to-kivakit_component" style="stroke:#545454;stroke-width:1.5625;"/><polygon fill="#545454" points="864.8438,268.2549,875.07,269.0768,869.7574,266.5277,872.3065,261.215,864.8438,268.2549" style="stroke:#545454;stroke-width:1.5625;"/><path d="M1085.2604,206.234 C1070.2083,223.1299 1049.3125,246.5778 1033.5104,264.307 " fill="none" id="mesakit_map_geography-to-kivakit_data_compression" style="stroke:#545454;stroke-width:1.5625;"/><polygon fill="#545454" points="1030.0208,268.234,1039.3725,264.0152,1033.4894,264.3487,1033.1559,258.4656,1030.0208,268.234" style="stroke:#545454;stroke-width:1.5625;"/><path d="M1124.3333,206.234 C1139.5521,223.1299 1160.6771,246.5778 1176.6563,264.307 " fill="none" id="mesakit_map_geography-to-kivakit_math" style="stroke:#545454;stroke-width:1.5625;"/><polygon fill="#545454" points="1180.1875,268.234,1177.013,258.4783,1176.7033,264.3627,1170.8189,264.053,1180.1875,268.234" style="stroke:#545454;stroke-width:1.5625;"/><path d="M1158.9688,205.8486 C1203.4896,223.4111 1266.4167,248.234 1312.2083,266.307 " fill="none" id="mesakit_map_geography-to-kivakit_resource" style="stroke:#545454;stroke-width:1.5625;"/><polygon fill="#545454" points="1317.1458,268.2549,1309.9498,260.9426,1312.2998,266.3463,1306.8961,268.6962,1317.1458,268.2549" style="stroke:#545454;stroke-width:1.5625;"/><path d="M1198.7292,203.2445 C1292.7083,222.0361 1436.5833,250.807 1532.1354,269.9215 " fill="none" id="mesakit_map_geography-to-kivakit_serialization_kryo" style="stroke:#545454;stroke-width:1.5625;"/><polygon fill="#545454" points="1537.5,270.9945,1529.1309,265.0607,1532.394,269.9673,1527.4874,273.2304,1537.5,270.9945" style="stroke:#545454;stroke-width:1.5625;"/><path d="M1198.5521,195.6299 C1323.0208,210.7549 1549.4375,239.1611 1742.1875,268.2861 C1746.5729,268.9528 1751.0313,269.6403 1755.5417,270.3486 " fill="none" id="mesakit_map_geography-to-mesakit_map_measurements" style="stroke:#545454;stroke-width:1.5625;"/><polygon fill="#545454" points="1760.8542,271.1924,1752.252,265.6017,1755.7108,270.3724,1750.9401,273.8312,1760.8542,271.1924" style="stroke:#545454;stroke-width:1.5625;"/><path d="M1104.6875,98.9424 C1104.6875,115.4111 1104.6875,138.109 1104.6875,155.6611 " fill="none" id="mesakit_map_utilities_grid-to-mesakit_map_geography" style="stroke:#545454;stroke-width:1.5625;"/><polygon fill="#545454" points="1104.6875,160.9424,1108.8542,151.5674,1104.6875,155.734,1100.5208,151.5674,1104.6875,160.9424" style="stroke:#545454;stroke-width:1.5625;"/><path d="M147.3958,420.8174 C147.3958,437.2861 147.3958,459.984 147.3958,477.5361 " fill="none" id="okhttp-to-okio" style="stroke:#545454;stroke-width:1.5625;"/><polygon fill="#545454" points="147.3958,482.8174,151.5625,473.4424,147.3958,477.609,143.2292,473.4424,147.3958,482.8174" style="stroke:#545454;stroke-width:1.5625;"/><path d="M147.3958,528.109 C147.3958,544.5778 147.3958,567.2757 147.3958,584.8278 " fill="none" id="okio-to-kotlin_stdlib_common" style="stroke:#545454;stroke-width:1.5625;"/><polygon fill="#545454" points="147.3958,590.109,151.5625,580.734,147.3958,584.9007,143.2292,580.734,147.3958,590.109" style="stroke:#545454;stroke-width:1.5625;"/><path d="M287.3333,420.8174 C286.0313,437.2861 284.2292,459.984 282.8438,477.5361 " fill="none" id="opencensus_api-to-grpc_context" style="stroke:#545454;stroke-width:1.5625;"/><polygon fill="#545454" points="282.4271,482.8174,287.3301,473.8056,282.8436,477.6257,279.0235,473.1392,282.4271,482.8174" style="stroke:#545454;stroke-width:1.5625;"/><path d="M1652.6042,528.109 C1652.6042,544.5778 1652.6042,567.2757 1652.6042,584.8278 " fill="none" id="reflectasm-to-asm" style="stroke:#545454;stroke-width:1.5625;"/><polygon fill="#545454" points="1652.6042,590.109,1656.7708,580.734,1652.6042,584.9007,1648.4375,580.734,1652.6042,590.109" style="stroke:#545454;stroke-width:1.5625;"/></g></svg>
