<?xml version="1.0" encoding="UTF-8" standalone="no"?><svg xmlns="http://www.w3.org/2000/svg" xmlns:xlink="http://www.w3.org/1999/xlink" contentScriptType="application/ecmascript" contentStyleType="text/css" height="321.875px" preserveAspectRatio="none" style="width:773px;height:321px;background:#333333;" version="1.1" viewBox="0 0 773 321" width="773.9583px" zoomAndPan="magnify"><defs/><g><rect fill="#48494B" height="41.2028" rx="8.3333" ry="8.3333" style="stroke:#545454;stroke-width:1.0416666666666667;" width="425" x="167.4479" y="2.0833"/><text fill="#C0C0C0" font-family="Open Sans,Avenir,Nunito,Arial,Helvetica,SansSerif" font-size="20.8333" lengthAdjust="spacing" textLength="402.0833" x="178.9063" y="30.5583">com.telenav.mesakit.map.region.project</text><!--MD5=[8f4c4d4bd91b5260621fbf036ff30dd9]
cluster RegionLimits--><polygon fill="#333333" points="514.0625,52.6611,611.9792,52.6611,619.2708,79.8828,756.7708,79.8828,756.7708,157.8695,514.0625,157.8695,514.0625,52.6611" style="stroke:#333333;stroke-width:2.0833333333333335;"/><line style="stroke:#333333;stroke-width:2.0833333333333335;" x1="514.0625" x2="619.2708" y1="79.8828" y2="79.8828"/><text fill="#C8AC00" font-family="Open Sans,Avenir,Nunito,Arial,Helvetica,SansSerif" font-size="12.5" font-weight="bold" lengthAdjust="spacing" textLength="85.4167" x="521.3542" y="69.9544">RegionLimits</text><!--MD5=[81fdda4f204df2730a16a3317541a9b9]
class RegionLimits.Estimated--><rect codeLine="6" fill="#282828" height="48.055" id="RegionLimits.Estimated" rx="8.3333" ry="8.3333" style="stroke:#5E5E5E;stroke-width:1.0416666666666667;" width="102.0833" x="638.0208" y="93.2861"/><rect fill="#1B1B1A" height="31.3883" rx="8.3333" ry="8.3333" style="stroke:#1B1B1A;stroke-width:1.0416666666666667;" width="102.0833" x="638.0208" y="93.2861"/><rect fill="#1B1B1A" height="8.3333" style="stroke:#1B1B1A;stroke-width:1.0416666666666667;" width="102.0833" x="638.0208" y="116.3411"/><rect codeLine="6" fill="none" height="48.055" id="RegionLimits.Estimated" rx="8.3333" ry="8.3333" style="stroke:#5E5E5E;stroke-width:1.0416666666666667;" width="102.0833" x="638.0208" y="93.2861"/><ellipse cx="652.6042" cy="108.9803" fill="#0066CF" rx="10.4167" ry="10.4167" style="stroke:#0086EF;stroke-width:1.0416666666666667;"/><path d="M654.5146,113.4054 Q654.0873,113.6251 653.6174,113.7349 Q653.1474,113.8448 652.6286,113.8448 Q650.7853,113.8448 649.8149,112.6302 Q648.8444,111.4156 648.8444,109.1207 Q648.8444,106.8197 649.8149,105.6051 Q650.7853,104.3905 652.6286,104.3905 Q653.1474,104.3905 653.6235,104.5003 Q654.0995,104.6102 654.5146,104.8299 L654.5146,106.8319 Q654.0507,106.4046 653.6143,106.2063 Q653.1779,106.0079 652.714,106.0079 Q651.7253,106.0079 651.2217,106.7922 Q650.7182,107.5765 650.7182,109.1207 Q650.7182,110.6588 651.2217,111.4431 Q651.7253,112.2274 652.714,112.2274 Q653.1779,112.2274 653.6143,112.029 Q654.0507,111.8306 654.5146,111.4034 Z " fill="#000000"/><text fill="#D8BC00" font-family="Open Sans,Avenir,Nunito,Arial,Helvetica,SansSerif" font-size="12.5" font-weight="bold" lengthAdjust="spacing" textLength="64.5833" x="669.2708" y="113.7044">Estimated</text><line style="stroke:#5E5E5E;stroke-width:1.0416666666666667;" x1="639.0625" x2="739.0625" y1="124.6745" y2="124.6745"/><line style="stroke:#5E5E5E;stroke-width:1.0416666666666667;" x1="639.0625" x2="739.0625" y1="133.0078" y2="133.0078"/><!--MD5=[d65d7913d2429337d85c995253004636]
class RegionLimits.Limit--><rect codeLine="10" fill="#282828" height="48.055" id="RegionLimits.Limit" rx="8.3333" ry="8.3333" style="stroke:#5E5E5E;stroke-width:1.0416666666666667;" width="70.8333" x="530.7292" y="93.2861"/><rect fill="#1B1B1A" height="31.3883" rx="8.3333" ry="8.3333" style="stroke:#1B1B1A;stroke-width:1.0416666666666667;" width="70.8333" x="530.7292" y="93.2861"/><rect fill="#1B1B1A" height="8.3333" style="stroke:#1B1B1A;stroke-width:1.0416666666666667;" width="70.8333" x="530.7292" y="116.3411"/><rect codeLine="10" fill="none" height="48.055" id="RegionLimits.Limit" rx="8.3333" ry="8.3333" style="stroke:#5E5E5E;stroke-width:1.0416666666666667;" width="70.8333" x="530.7292" y="93.2861"/><ellipse cx="545.3125" cy="108.9803" fill="#0066CF" rx="10.4167" ry="10.4167" style="stroke:#0086EF;stroke-width:1.0416666666666667;"/><path d="M547.2229,113.4054 Q546.7957,113.6251 546.3257,113.7349 Q545.8557,113.8448 545.3369,113.8448 Q543.4937,113.8448 542.5232,112.6302 Q541.5527,111.4156 541.5527,109.1207 Q541.5527,106.8197 542.5232,105.6051 Q543.4937,104.3905 545.3369,104.3905 Q545.8557,104.3905 546.3318,104.5003 Q546.8079,104.6102 547.2229,104.8299 L547.2229,106.8319 Q546.759,106.4046 546.3226,106.2063 Q545.8862,106.0079 545.4224,106.0079 Q544.4336,106.0079 543.9301,106.7922 Q543.4265,107.5765 543.4265,109.1207 Q543.4265,110.6588 543.9301,111.4431 Q544.4336,112.2274 545.4224,112.2274 Q545.8862,112.2274 546.3226,112.029 Q546.759,111.8306 547.2229,111.4034 Z " fill="#000000"/><text fill="#D8BC00" font-family="Open Sans,Avenir,Nunito,Arial,Helvetica,SansSerif" font-size="12.5" font-weight="bold" lengthAdjust="spacing" textLength="33.3333" x="561.9792" y="113.7044">Limit</text><line style="stroke:#5E5E5E;stroke-width:1.0416666666666667;" x1="531.7708" x2="600.5208" y1="124.6745" y2="124.6745"/><line style="stroke:#5E5E5E;stroke-width:1.0416666666666667;" x1="531.7708" x2="600.5208" y1="133.0078" y2="133.0078"/><!--MD5=[d776228a55af1f9e7dd99d395538019c]
class KryoTypes--><rect fill="#282828" height="48.055" id="KryoTypes" rx="8.3333" ry="8.3333" style="stroke:#5E5E5E;stroke-width:1.0416666666666667;" width="106.25" x="29.6875" y="93.2861"/><rect fill="#1B1B1A" height="31.3883" rx="8.3333" ry="8.3333" style="stroke:#1B1B1A;stroke-width:1.0416666666666667;" width="106.25" x="29.6875" y="93.2861"/><rect fill="#1B1B1A" height="8.3333" style="stroke:#1B1B1A;stroke-width:1.0416666666666667;" width="106.25" x="29.6875" y="116.3411"/><rect fill="none" height="48.055" id="KryoTypes" rx="8.3333" ry="8.3333" style="stroke:#5E5E5E;stroke-width:1.0416666666666667;" width="106.25" x="29.6875" y="93.2861"/><ellipse cx="44.2708" cy="108.9803" fill="#0066CF" rx="10.4167" ry="10.4167" style="stroke:#0086EF;stroke-width:1.0416666666666667;"/><path d="M46.1812,113.4054 Q45.754,113.6251 45.284,113.7349 Q44.814,113.8448 44.2952,113.8448 Q42.452,113.8448 41.4815,112.6302 Q40.5111,111.4156 40.5111,109.1207 Q40.5111,106.8197 41.4815,105.6051 Q42.452,104.3905 44.2952,104.3905 Q44.814,104.3905 45.2901,104.5003 Q45.7662,104.6102 46.1812,104.8299 L46.1812,106.8319 Q45.7174,106.4046 45.281,106.2063 Q44.8446,106.0079 44.3807,106.0079 Q43.3919,106.0079 42.8884,106.7922 Q42.3848,107.5765 42.3848,109.1207 Q42.3848,110.6588 42.8884,111.4431 Q43.3919,112.2274 44.3807,112.2274 Q44.8446,112.2274 45.281,112.029 Q45.7174,111.8306 46.1812,111.4034 Z " fill="#000000"/><text fill="#D8BC00" font-family="Open Sans,Avenir,Nunito,Arial,Helvetica,SansSerif" font-size="12.5" font-weight="bold" lengthAdjust="spacing" textLength="68.75" x="60.9375" y="113.7044">KryoTypes</text><line style="stroke:#5E5E5E;stroke-width:1.0416666666666667;" x1="30.7292" x2="134.8958" y1="124.6745" y2="124.6745"/><line style="stroke:#5E5E5E;stroke-width:1.0416666666666667;" x1="30.7292" x2="134.8958" y1="133.0078" y2="133.0078"/><!--MD5=[9be864924b33255af6fb1c1e2d7bb4d3]
class RegionKryoTypes--><rect codeLine="15" fill="#282828" height="83.3781" id="RegionKryoTypes" rx="8.3333" ry="8.3333" style="stroke:#5E5E5E;stroke-width:1.0416666666666667;" width="151.0417" x="7.2917" y="217.7653"/><rect fill="#1B1B1A" height="31.3883" rx="8.3333" ry="8.3333" style="stroke:#1B1B1A;stroke-width:1.0416666666666667;" width="151.0417" x="7.2917" y="217.7653"/><rect fill="#1B1B1A" height="8.3333" style="stroke:#1B1B1A;stroke-width:1.0416666666666667;" width="151.0417" x="7.2917" y="240.8203"/><rect codeLine="15" fill="none" height="83.3781" id="RegionKryoTypes" rx="8.3333" ry="8.3333" style="stroke:#5E5E5E;stroke-width:1.0416666666666667;" width="151.0417" x="7.2917" y="217.7653"/><ellipse cx="21.875" cy="233.4595" fill="#0066CF" rx="10.4167" ry="10.4167" style="stroke:#0086EF;stroke-width:1.0416666666666667;"/><path d="M23.7854,237.8845 Q23.3582,238.1042 22.8882,238.2141 Q22.4182,238.324 21.8994,238.324 Q20.0562,238.324 19.0857,237.1094 Q18.1152,235.8948 18.1152,233.5999 Q18.1152,231.2988 19.0857,230.0842 Q20.0562,228.8696 21.8994,228.8696 Q22.4182,228.8696 22.8943,228.9795 Q23.3704,229.0894 23.7854,229.3091 L23.7854,231.311 Q23.3215,230.8838 22.8851,230.6854 Q22.4487,230.4871 21.9849,230.4871 Q20.9961,230.4871 20.4926,231.2714 Q19.989,232.0557 19.989,233.5999 Q19.989,235.1379 20.4926,235.9222 Q20.9961,236.7065 21.9849,236.7065 Q22.4487,236.7065 22.8851,236.5082 Q23.3215,236.3098 23.7854,235.8826 Z " fill="#000000"/><text fill="#D8BC00" font-family="Open Sans,Avenir,Nunito,Arial,Helvetica,SansSerif" font-size="12.5" font-weight="bold" lengthAdjust="spacing" textLength="113.5417" x="38.5417" y="238.1836">RegionKryoTypes</text><line style="stroke:#5E5E5E;stroke-width:1.5625;" x1="8.3333" x2="157.2917" y1="249.1536" y2="249.1536"/><ellipse cx="18.75" cy="284.5235" fill="#84BE84" rx="3.125" ry="3.125" style="stroke:#038048;stroke-width:1.0416666666666667;"/><text fill="#D8BC00" font-family="Open Sans,Avenir,Nunito,Arial,Helvetica,SansSerif" font-size="11.4583" lengthAdjust="spacing" textLength="106.25" x="30.2083" y="291.4347">RegionKryoTypes()</text><line style="stroke:#5E5E5E;stroke-width:1.0416666666666667;" x1="8.3333" x2="39.0625" y1="267.3594" y2="267.3594"/><text fill="#D8BC00" font-family="Open Sans,Avenir,Nunito,Arial,Helvetica,SansSerif" font-size="11.4583" lengthAdjust="spacing" textLength="81.25" x="42.1875" y="271.169">(constructors)</text><line style="stroke:#5E5E5E;stroke-width:1.0416666666666667;" x1="126.5625" x2="157.2917" y1="267.3594" y2="267.3594"/><!--MD5=[f18b1e6253c94d1e1654bfec6ff542e3]
class RegionLimits--><rect codeLine="21" fill="#282828" height="48.055" id="RegionLimits" rx="8.3333" ry="8.3333" style="stroke:#5E5E5E;stroke-width:1.0416666666666667;" width="122.9167" x="172.3958" y="93.2861"/><rect fill="#1B1B1A" height="31.3883" rx="8.3333" ry="8.3333" style="stroke:#1B1B1A;stroke-width:1.0416666666666667;" width="122.9167" x="172.3958" y="93.2861"/><rect fill="#1B1B1A" height="8.3333" style="stroke:#1B1B1A;stroke-width:1.0416666666666667;" width="122.9167" x="172.3958" y="116.3411"/><rect codeLine="21" fill="none" height="48.055" id="RegionLimits" rx="8.3333" ry="8.3333" style="stroke:#5E5E5E;stroke-width:1.0416666666666667;" width="122.9167" x="172.3958" y="93.2861"/><ellipse cx="186.9792" cy="108.9803" fill="#0066CF" rx="10.4167" ry="10.4167" style="stroke:#0086EF;stroke-width:1.0416666666666667;"/><path d="M188.8896,113.4054 Q188.4623,113.6251 187.9924,113.7349 Q187.5224,113.8448 187.0036,113.8448 Q185.1603,113.8448 184.1899,112.6302 Q183.2194,111.4156 183.2194,109.1207 Q183.2194,106.8197 184.1899,105.6051 Q185.1603,104.3905 187.0036,104.3905 Q187.5224,104.3905 187.9985,104.5003 Q188.4745,104.6102 188.8896,104.8299 L188.8896,106.8319 Q188.4257,106.4046 187.9893,106.2063 Q187.5529,106.0079 187.089,106.0079 Q186.1003,106.0079 185.5967,106.7922 Q185.0932,107.5765 185.0932,109.1207 Q185.0932,110.6588 185.5967,111.4431 Q186.1003,112.2274 187.089,112.2274 Q187.5529,112.2274 187.9893,112.029 Q188.4257,111.8306 188.8896,111.4034 Z " fill="#000000"/><text fill="#D8BC00" font-family="Open Sans,Avenir,Nunito,Arial,Helvetica,SansSerif" font-size="12.5" font-weight="bold" lengthAdjust="spacing" textLength="85.4167" x="203.6458" y="113.7044">RegionLimits</text><line style="stroke:#5E5E5E;stroke-width:1.0416666666666667;" x1="173.4375" x2="294.2708" y1="124.6745" y2="124.6745"/><line style="stroke:#5E5E5E;stroke-width:1.0416666666666667;" x1="173.4375" x2="294.2708" y1="133.0078" y2="133.0078"/><!--MD5=[a31209886c13a28d4a79698c5bb6c309]
class GeographyUnitTest--><rect fill="#282828" height="48.055" id="GeographyUnitTest" rx="8.3333" ry="8.3333" style="stroke:#5E5E5E;stroke-width:1.0416666666666667;" width="162.5" x="331.7708" y="93.2861"/><rect fill="#1B1B1A" height="31.3883" rx="8.3333" ry="8.3333" style="stroke:#1B1B1A;stroke-width:1.0416666666666667;" width="162.5" x="331.7708" y="93.2861"/><rect fill="#1B1B1A" height="8.3333" style="stroke:#1B1B1A;stroke-width:1.0416666666666667;" width="162.5" x="331.7708" y="116.3411"/><rect fill="none" height="48.055" id="GeographyUnitTest" rx="8.3333" ry="8.3333" style="stroke:#5E5E5E;stroke-width:1.0416666666666667;" width="162.5" x="331.7708" y="93.2861"/><ellipse cx="346.3542" cy="108.9803" fill="#0066CF" rx="10.4167" ry="10.4167" style="stroke:#0086EF;stroke-width:1.0416666666666667;"/><path d="M348.2646,113.4054 Q347.8373,113.6251 347.3674,113.7349 Q346.8974,113.8448 346.3786,113.8448 Q344.5353,113.8448 343.5649,112.6302 Q342.5944,111.4156 342.5944,109.1207 Q342.5944,106.8197 343.5649,105.6051 Q344.5353,104.3905 346.3786,104.3905 Q346.8974,104.3905 347.3735,104.5003 Q347.8495,104.6102 348.2646,104.8299 L348.2646,106.8319 Q347.8007,106.4046 347.3643,106.2063 Q346.9279,106.0079 346.464,106.0079 Q345.4753,106.0079 344.9717,106.7922 Q344.4682,107.5765 344.4682,109.1207 Q344.4682,110.6588 344.9717,111.4431 Q345.4753,112.2274 346.464,112.2274 Q346.9279,112.2274 347.3643,112.029 Q347.8007,111.8306 348.2646,111.4034 Z " fill="#000000"/><text fill="#D8BC00" font-family="Open Sans,Avenir,Nunito,Arial,Helvetica,SansSerif" font-size="12.5" font-weight="bold" lengthAdjust="spacing" textLength="125" x="363.0208" y="113.7044">GeographyUnitTest</text><line style="stroke:#5E5E5E;stroke-width:1.0416666666666667;" x1="332.8125" x2="493.2292" y1="124.6745" y2="124.6745"/><line style="stroke:#5E5E5E;stroke-width:1.0416666666666667;" x1="332.8125" x2="493.2292" y1="133.0078" y2="133.0078"/><!--MD5=[4ce07067e118064f57184adfe97ff807]
class RegionUnitTest--><rect codeLine="26" fill="#282828" height="111.4563" id="RegionUnitTest" rx="8.3333" ry="8.3333" style="stroke:#5E5E5E;stroke-width:1.0416666666666667;" width="171.875" x="327.0833" y="203.7028"/><rect fill="#1B1B1A" height="31.3883" rx="8.3333" ry="8.3333" style="stroke:#1B1B1A;stroke-width:1.0416666666666667;" width="171.875" x="327.0833" y="203.7028"/><rect fill="#1B1B1A" height="8.3333" style="stroke:#1B1B1A;stroke-width:1.0416666666666667;" width="171.875" x="327.0833" y="226.7578"/><rect codeLine="26" fill="none" height="111.4563" id="RegionUnitTest" rx="8.3333" ry="8.3333" style="stroke:#5E5E5E;stroke-width:1.0416666666666667;" width="171.875" x="327.0833" y="203.7028"/><ellipse cx="357.1354" cy="219.397" fill="#0066CF" rx="10.4167" ry="10.4167" style="stroke:#0086EF;stroke-width:1.0416666666666667;"/><path d="M359.0458,223.822 Q358.6186,224.0417 358.1486,224.1516 Q357.6786,224.2615 357.1598,224.2615 Q355.3166,224.2615 354.3461,223.0469 Q353.3757,221.8323 353.3757,219.5374 Q353.3757,217.2363 354.3461,216.0217 Q355.3166,214.8071 357.1598,214.8071 Q357.6786,214.8071 358.1547,214.917 Q358.6308,215.0269 359.0458,215.2466 L359.0458,217.2485 Q358.5819,216.8213 358.1455,216.6229 Q357.7091,216.4246 357.2453,216.4246 Q356.2565,216.4246 355.753,217.2089 Q355.2494,217.9932 355.2494,219.5374 Q355.2494,221.0754 355.753,221.8597 Q356.2565,222.644 357.2453,222.644 Q357.7091,222.644 358.1455,222.4457 Q358.5819,222.2473 359.0458,221.8201 Z " fill="#000000"/><text fill="#D8BC00" font-family="Open Sans,Avenir,Nunito,Arial,Helvetica,SansSerif" font-size="12.5" font-weight="bold" lengthAdjust="spacing" textLength="100" x="377.2396" y="224.1211">RegionUnitTest</text><line style="stroke:#5E5E5E;stroke-width:1.5625;" x1="328.125" x2="497.9167" y1="235.0911" y2="235.0911"/><ellipse cx="338.5417" cy="270.461" fill="#84BE84" rx="3.125" ry="3.125" style="stroke:#038048;stroke-width:1.0416666666666667;"/><text fill="#D8BC00" font-family="Open Sans,Avenir,Nunito,Arial,Helvetica,SansSerif" font-size="11.4583" lengthAdjust="spacing" textLength="93.75" x="350" y="277.3722">RegionUnitTest()</text><line style="stroke:#5E5E5E;stroke-width:1.0416666666666667;" x1="328.125" x2="369.2708" y1="253.2969" y2="253.2969"/><text fill="#D8BC00" font-family="Open Sans,Avenir,Nunito,Arial,Helvetica,SansSerif" font-size="11.4583" lengthAdjust="spacing" textLength="81.25" x="372.3958" y="257.1065">(constructors)</text><line style="stroke:#5E5E5E;stroke-width:1.0416666666666667;" x1="456.7708" x2="497.9167" y1="253.2969" y2="253.2969"/><line style="stroke:#5E5E5E;stroke-width:1.0416666666666667;" x1="328.125" x2="497.9167" y1="287.0809" y2="287.0809"/><polygon fill="#FFFF44" points="338.5417,293.3309,342.7083,297.4976,338.5417,301.6642,334.375,297.4976" style="stroke:#B38D22;stroke-width:1.0416666666666667;"/><text fill="#D8BC00" font-family="Open Sans,Avenir,Nunito,Arial,Helvetica,SansSerif" font-size="11.4583" lengthAdjust="spacing" textLength="139.5833" x="350" y="305.4504">RegionCode code(String)</text><!--MD5=[27ef574643fb9f78d439c9380cdfb02d]
reverse link KryoTypes to RegionKryoTypes--><path codeLine="14" d="M82.8125,162.3799 C82.8125,180.057 82.8125,200.3174 82.8125,217.6507 " fill="none" id="KryoTypes-backto-RegionKryoTypes" style="stroke:#545454;stroke-width:1.5625;"/><polygon fill="none" points="75.5208,162.2549,82.8125,141.4215,90.1042,162.2549,75.5208,162.2549" style="stroke:#545454;stroke-width:1.5625;"/><!--MD5=[f3d27423c4ffb6603ed2edc6535ee466]
reverse link GeographyUnitTest to RegionUnitTest--><path codeLine="25" d="M413.0208,162.2861 C413.0208,175.3382 413.0208,189.7861 413.0208,203.4424 " fill="none" id="GeographyUnitTest-backto-RegionUnitTest" style="stroke:#545454;stroke-width:1.5625;"/><polygon fill="none" points="405.7292,162.2549,413.0208,141.4215,420.3125,162.2549,405.7292,162.2549" style="stroke:#545454;stroke-width:1.5625;"/><!--MD5=[941375926565bd2c5d8aa7a9f30862e5]
@startuml

    !include lexakai.theme
    
    title "com.telenav.mesakit.map.region.project"
    
    class RegionLimits.Estimated
    {
    }
    
    class RegionLimits.Limit
    {
    }
    
    KryoTypes <|- - RegionKryoTypes
    class RegionKryoTypes
    {
        - -(constructors)- -
        +RegionKryoTypes()
    }
    
    class RegionLimits
    {
    }
    
    GeographyUnitTest <|- - RegionUnitTest
    class RegionUnitTest
    {
        - -(constructors)- -
        +RegionUnitTest()
        - -
        #RegionCode code(String)
    }
    
@enduml

@startuml









skinparam backgroundColor #333333






skinparam  {
    defaultFontName   "Open Sans,Avenir,Nunito,Arial,Helvetica,SansSerif"
    defaultFontSize   12
    defaultTextAlignment left
    shadowing false
    RoundCorner 10
    TitleFontSize 18
}

skinparam defaultFontName       "Open Sans,Avenir,Nunito,Arial,Helvetica,SansSerif"
skinparam defaultFontSize       12
skinparam dpi                   100
skinparam shadowing             false
skinparam roundcorner           16
skinparam ParticipantPadding    40
skinparam BoxPadding            40
skinparam Padding               3
skinparam ArrowColor            #545454
skinparam stereotype {
    CBackgroundColor #0066cf
    CBorderColor #0086ef
    ABackgroundColor #C8Ac00
    ABorderColor #D8Bc00
    IBackgroundColor #008400
    IBorderColor #239c23
    EBackgroundColor #cf6300
    EBorderColor #ef8300
    NBackgroundColor #3380b9
    NBorderColor #004d86
}
skinparam title {
	FontColor	                 #c0c0c0
 	BorderColor                  #545454
	FontSize	    	         20
	BorderRoundCorner            16
	BorderThickness 	         1
	BackgroundColor              #48494b
}


skinparam legend {
	BackgroundColor #303030
	BorderColor #404040
	FontColor #a0a0a0
}

	skinparam swimlane {
	BorderColor #5e5e5e
	BorderThickness 2
	TitleBackgroundColor  #6d6d6d-#484848
	TitleFontColor #303030
}

skinparam activity {
		FontColor #C8Ac00
	BorderColor #333333
	BackgroundColor #333333-#333333
	BarColor #00FF00
	StartColor #0060a8
	EndColor #0060a8
	DiamondBackgroundColor #6d6d6d-#3a3a3a
  	DiamondBorderColor #3a3a3a
  	DiamondFontColor #fefefe
}


skinparam participant {
		FontColor #C8Ac00
	BorderColor #333333
	BackgroundColor #333333-#333333
	ParticipantBorderThickness 2
}


skinparam actor {
		FontColor #C8Ac00
	BorderColor #333333
	BackgroundColor #333333-#333333
}


skinparam arrow {
	Thickness 1.5
	Color #545454
	FontColor #a0a0a0
    FontStyle bold
    MessageAlignment center
}



skinparam sequence {
	BorderColor #303030
	TitleFontColor #303030
	BackgroundColor #333333
	StartColor #303030
	EndColor #303030
	BoxBackgroundColor #333333
	BoxBorderColor #484848
	BoxFontColor #484848
	LifeLineBorderColor #484848
	LifeLineBorderThickness 2
	LifeLineBackgroundColor #3a3a3a
	GroupBorderColor #484848
	GroupFontColor #484848
	GroupHeaderFontColor #0060a8
	GroupBackgroundColor #484848
	GroupHeaderBackgroundColor #333333
	DividerBackgroundColor #484848
    DividerBorderColor #484848
    DividerBorderThickness 2
    DividerFontColor #D8Bc00
	ReferenceBackgroundColor #333333
	ReferenceBorderColor #484848
	ReferenceFontColor #fefefe
	ReferenceHeaderBackgroundColor #484848
}


skinparam partition {
	BorderColor #303030
	FontColor #333333
	BackgroundColor #333333
}


skinparam collections {
		FontColor #C8Ac00
	BorderColor #333333
	BackgroundColor #333333-#333333
}


skinparam control {
		FontColor #C8Ac00
	BorderColor #333333
	BackgroundColor #333333-#333333
}


skinparam entity {
		FontColor #C8Ac00
	BorderColor #333333
	BackgroundColor #333333-#333333
}


skinparam boundary {
		FontColor #C8Ac00
	BorderColor #333333
	BackgroundColor #333333-#333333
}


skinparam agent {
	BackgroundColor #ff8000
	BorderColor #ff9933
	FontColor #484848
}


skinparam note {
	BorderThickness 1
	BackgroundColor #1b1b1a
	BorderColor #5e5e5e
	FontSize 11
	FontColor #a0a0a0
}


skinparam artifact {
	BorderThickness 10
	BorderColor #5e5e5e
	BackgroundColor #1b1b1a
	FontColor #D8Bc00
}


skinparam component {
		FontColor #C8Ac00
	BorderColor #333333
	BackgroundColor #333333-#333333
}


skinparam interface {
	BackgroundColor  #008400
	BorderColor  #007F00
	FontColor #484848
}


skinparam storage {
	BackgroundColor #ff8000
  	BorderColor #cc6600
	FontColor #222222
}


skinparam node {
	BackgroundColor #333333
	BorderColor #333333
	FontColor #C8Ac00
}


skinparam cloud {
	BackgroundColor #484848-black
	BorderColor #484848
	FontColor #D8Bc00
}


skinparam database {
		FontColor #C8Ac00
	BorderColor #333333
	BackgroundColor #333333-#333333
	BackgroundColor  #333333
}


skinparam class {
		FontColor #C8Ac00
	BorderColor #333333
	BackgroundColor #333333-#333333
	HeaderBackgroundColor #1b1b1a
    BackgroundColor #282828
    BorderColor #5e5e5e
 	StereotypeFontColor #a0a0a0
    StereotypeFontStyle bold
	BorderThickness 1
	AttributeFontColor #D8Bc00
	AttributeFontSize 11
    FontColor #D8Bc00
    FontStyle bold
}


skinparam object {
		FontColor #C8Ac00
	BorderColor #333333
	BackgroundColor #333333-#333333
	StereotypeFontColor #484848
	BorderThickness 1
	AttributeFontColor #fefefe
	AttributeFontSize 11
}


skinparam usecase {
		FontColor #C8Ac00
	BorderColor #333333
	BackgroundColor #333333-#333333
	BorderThickness 2
	StereotypeFontColor #303030
}


skinparam rectangle {
		FontColor #C8Ac00
	BorderColor #333333
	BackgroundColor #333333-#333333
	BackgroundColor #333333
	BorderThickness 2
	StereotypeFontColor #303030
}


skinparam package {
		FontColor #C8Ac00
	BorderColor #333333
	BackgroundColor #333333-#333333
	BackgroundColor #333333
	BorderThickness 2
}


skinparam folder {
	BackgroundColor #6d6d6d
  	BorderColor #ff8000
	FontColor #ff8000
	BorderThickness 2
}


skinparam frame {
	BackgroundColor #6d6d6d
  	BorderColor #0060a8
	FontColor #0060a8
	BorderThickness 2
}


skinparam state {
		FontColor #C8Ac00
	BorderColor #333333
	BackgroundColor #333333-#333333
	StartColor #0060a8
	EndColor #0060a8
	AttributeFontColor #fefefe
	AttributeFontSize 11
}


skinparam queue {
		FontColor #C8Ac00
	BorderColor #333333
	BackgroundColor #333333-#333333
}


skinparam card {
	BackgroundColor #0060a8
	BorderColor #004d86
	FontColor $INFO_TEXT
}


skinparam file {
	BackgroundColor #6d6d6d-#484848
	BorderColor #0060a8
	FontColor #fefefe
}


skinparam stack {
		FontColor #C8Ac00
	BorderColor #333333
	BackgroundColor #333333-#333333
}

    
    title "com.telenav.mesakit.map.region.project"
    
    class RegionLimits.Estimated
    {
    }
    
    class RegionLimits.Limit
    {
    }
    
    KryoTypes <|- - RegionKryoTypes
    class RegionKryoTypes
    {
        - -(constructors)- -
        +RegionKryoTypes()
    }
    
    class RegionLimits
    {
    }
    
    GeographyUnitTest <|- - RegionUnitTest
    class RegionUnitTest
    {
        - -(constructors)- -
        +RegionUnitTest()
        - -
        #RegionCode code(String)
    }
    
@enduml

PlantUML version 1.2021.01(Tue Feb 02 00:55:08 MST 2021)
(GPL source distribution)
Java Runtime: OpenJDK Runtime Environment
JVM: OpenJDK 64-Bit Server VM
Default Encoding: UTF-8
Language: en
Country: US
--></g></svg>