<?xml version="1.0" encoding="UTF-8" standalone="no"?><svg xmlns="http://www.w3.org/2000/svg" xmlns:xlink="http://www.w3.org/1999/xlink" contentScriptType="application/ecmascript" contentStyleType="text/css" height="254.1667px" preserveAspectRatio="none" style="width:459px;height:254px;background:#333333;" version="1.1" viewBox="0 0 459 254" width="459.375px" zoomAndPan="magnify"><defs/><g><rect fill="#48494B" height="41.2028" rx="8.3333" ry="8.3333" style="stroke:#545454;stroke-width:1.0416666666666667;" width="446.875" x="2.0833" y="2.0833"/><text fill="#C0C0C0" font-family="Open Sans,Avenir,Nunito,Arial,Helvetica,SansSerif" font-size="20.8333" lengthAdjust="spacing" textLength="423.9583" x="13.5417" y="30.5583">com.telenav.mesakit.map.region.countries</text><!--MD5=[deb4e1f6eb1e3c1256fdb830f96abfbb]
class Country--><rect fill="#282828" height="48.055" id="Country" rx="8.3333" ry="8.3333" style="stroke:#5E5E5E;stroke-width:1.0416666666666667;" width="89.5833" x="175.7813" y="53.7028"/><rect fill="#1B1B1A" height="31.3883" rx="8.3333" ry="8.3333" style="stroke:#1B1B1A;stroke-width:1.0416666666666667;" width="89.5833" x="175.7813" y="53.7028"/><rect fill="#1B1B1A" height="8.3333" style="stroke:#1B1B1A;stroke-width:1.0416666666666667;" width="89.5833" x="175.7813" y="76.7578"/><rect fill="none" height="48.055" id="Country" rx="8.3333" ry="8.3333" style="stroke:#5E5E5E;stroke-width:1.0416666666666667;" width="89.5833" x="175.7813" y="53.7028"/><ellipse cx="190.3646" cy="69.397" fill="#0066CF" rx="10.4167" ry="10.4167" style="stroke:#0086EF;stroke-width:1.0416666666666667;"/><path d="M192.275,73.822 Q191.8477,74.0417 191.3778,74.1516 Q190.9078,74.2615 190.389,74.2615 Q188.5457,74.2615 187.5753,73.0469 Q186.6048,71.8323 186.6048,69.5374 Q186.6048,67.2363 187.5753,66.0217 Q188.5457,64.8071 190.389,64.8071 Q190.9078,64.8071 191.3839,64.917 Q191.8599,65.0269 192.275,65.2466 L192.275,67.2485 Q191.8111,66.8213 191.3747,66.6229 Q190.9383,66.4246 190.4744,66.4246 Q189.4857,66.4246 188.9821,67.2089 Q188.4786,67.9932 188.4786,69.5374 Q188.4786,71.0754 188.9821,71.8597 Q189.4857,72.644 190.4744,72.644 Q190.9383,72.644 191.3747,72.4457 Q191.8111,72.2473 192.275,71.8201 Z " fill="#000000"/><text fill="#D8BC00" font-family="Open Sans,Avenir,Nunito,Arial,Helvetica,SansSerif" font-size="12.5" font-weight="bold" lengthAdjust="spacing" textLength="52.0833" x="207.0313" y="74.1211">Country</text><line style="stroke:#5E5E5E;stroke-width:1.0416666666666667;" x1="176.8229" x2="264.3229" y1="85.0911" y2="85.0911"/><line style="stroke:#5E5E5E;stroke-width:1.0416666666666667;" x1="176.8229" x2="264.3229" y1="93.4245" y2="93.4245"/><!--MD5=[52cdef54135e96312d4db8e610dbcf1e]
class Canada--><rect codeLine="7" fill="#282828" height="83.3781" id="Canada" rx="8.3333" ry="8.3333" style="stroke:#5E5E5E;stroke-width:1.0416666666666667;" width="95.8333" x="40.3646" y="164.1195"/><rect fill="#1B1B1A" height="31.3883" rx="8.3333" ry="8.3333" style="stroke:#1B1B1A;stroke-width:1.0416666666666667;" width="95.8333" x="40.3646" y="164.1195"/><rect fill="#1B1B1A" height="8.3333" style="stroke:#1B1B1A;stroke-width:1.0416666666666667;" width="95.8333" x="40.3646" y="187.1745"/><rect codeLine="7" fill="none" height="83.3781" id="Canada" rx="8.3333" ry="8.3333" style="stroke:#5E5E5E;stroke-width:1.0416666666666667;" width="95.8333" x="40.3646" y="164.1195"/><ellipse cx="59.6354" cy="179.8136" fill="#0066CF" rx="10.4167" ry="10.4167" style="stroke:#0086EF;stroke-width:1.0416666666666667;"/><path d="M61.5458,184.2387 Q61.1186,184.4584 60.6486,184.5683 Q60.1786,184.6781 59.6598,184.6781 Q57.8166,184.6781 56.8461,183.4635 Q55.8757,182.2489 55.8757,179.954 Q55.8757,177.653 56.8461,176.4384 Q57.8166,175.2238 59.6598,175.2238 Q60.1786,175.2238 60.6547,175.3337 Q61.1308,175.4435 61.5458,175.6632 L61.5458,177.6652 Q61.0819,177.238 60.6455,177.0396 Q60.2091,176.8412 59.7453,176.8412 Q58.7565,176.8412 58.253,177.6255 Q57.7494,178.4098 57.7494,179.954 Q57.7494,181.4921 58.253,182.2764 Q58.7565,183.0607 59.7453,183.0607 Q60.2091,183.0607 60.6455,182.8623 Q61.0819,182.664 61.5458,182.2367 Z " fill="#000000"/><text fill="#D8BC00" font-family="Open Sans,Avenir,Nunito,Arial,Helvetica,SansSerif" font-size="12.5" font-weight="bold" lengthAdjust="spacing" textLength="47.9167" x="77.3438" y="184.5378">Canada</text><line style="stroke:#5E5E5E;stroke-width:1.5625;" x1="41.4063" x2="135.1563" y1="195.5078" y2="195.5078"/><ellipse cx="51.8229" cy="230.8777" fill="#84BE84" rx="3.125" ry="3.125" style="stroke:#038048;stroke-width:1.0416666666666667;"/><text fill="#D8BC00" font-family="Open Sans,Avenir,Nunito,Arial,Helvetica,SansSerif" font-size="11.4583" lengthAdjust="spacing" textLength="50" x="63.2813" y="237.7889">Canada()</text><line style="stroke:#5E5E5E;stroke-width:1.0416666666666667;" x1="41.4063" x2="44.5313" y1="213.7136" y2="213.7136"/><text fill="#D8BC00" font-family="Open Sans,Avenir,Nunito,Arial,Helvetica,SansSerif" font-size="11.4583" lengthAdjust="spacing" textLength="81.25" x="47.6563" y="217.5232">(constructors)</text><line style="stroke:#5E5E5E;stroke-width:1.0416666666666667;" x1="132.0313" x2="135.1563" y1="213.7136" y2="213.7136"/><!--MD5=[4b66af38fbc7b63a5c8be8aece0930bb]
class Mexico--><rect codeLine="14" fill="#282828" height="83.3781" id="Mexico" rx="8.3333" ry="8.3333" style="stroke:#5E5E5E;stroke-width:1.0416666666666667;" width="95.8333" x="172.6563" y="164.1195"/><rect fill="#1B1B1A" height="31.3883" rx="8.3333" ry="8.3333" style="stroke:#1B1B1A;stroke-width:1.0416666666666667;" width="95.8333" x="172.6563" y="164.1195"/><rect fill="#1B1B1A" height="8.3333" style="stroke:#1B1B1A;stroke-width:1.0416666666666667;" width="95.8333" x="172.6563" y="187.1745"/><rect codeLine="14" fill="none" height="83.3781" id="Mexico" rx="8.3333" ry="8.3333" style="stroke:#5E5E5E;stroke-width:1.0416666666666667;" width="95.8333" x="172.6563" y="164.1195"/><ellipse cx="193.3333" cy="179.8136" fill="#0066CF" rx="10.4167" ry="10.4167" style="stroke:#0086EF;stroke-width:1.0416666666666667;"/><path d="M195.2437,184.2387 Q194.8165,184.4584 194.3465,184.5683 Q193.8765,184.6781 193.3577,184.6781 Q191.5145,184.6781 190.544,183.4635 Q189.5736,182.2489 189.5736,179.954 Q189.5736,177.653 190.544,176.4384 Q191.5145,175.2238 193.3577,175.2238 Q193.8765,175.2238 194.3526,175.3337 Q194.8287,175.4435 195.2437,175.6632 L195.2437,177.6652 Q194.7799,177.238 194.3435,177.0396 Q193.9071,176.8412 193.4432,176.8412 Q192.4544,176.8412 191.9509,177.6255 Q191.4473,178.4098 191.4473,179.954 Q191.4473,181.4921 191.9509,182.2764 Q192.4544,183.0607 193.4432,183.0607 Q193.9071,183.0607 194.3435,182.8623 Q194.7799,182.664 195.2437,182.2367 Z " fill="#000000"/><text fill="#D8BC00" font-family="Open Sans,Avenir,Nunito,Arial,Helvetica,SansSerif" font-size="12.5" font-weight="bold" lengthAdjust="spacing" textLength="44.7917" x="211.3542" y="184.5378">Mexico</text><line style="stroke:#5E5E5E;stroke-width:1.5625;" x1="173.6979" x2="267.4479" y1="195.5078" y2="195.5078"/><ellipse cx="184.1146" cy="230.8777" fill="#84BE84" rx="3.125" ry="3.125" style="stroke:#038048;stroke-width:1.0416666666666667;"/><text fill="#D8BC00" font-family="Open Sans,Avenir,Nunito,Arial,Helvetica,SansSerif" font-size="11.4583" lengthAdjust="spacing" textLength="47.9167" x="195.5729" y="237.7889">Mexico()</text><line style="stroke:#5E5E5E;stroke-width:1.0416666666666667;" x1="173.6979" x2="176.8229" y1="213.7136" y2="213.7136"/><text fill="#D8BC00" font-family="Open Sans,Avenir,Nunito,Arial,Helvetica,SansSerif" font-size="11.4583" lengthAdjust="spacing" textLength="81.25" x="179.9479" y="217.5232">(constructors)</text><line style="stroke:#5E5E5E;stroke-width:1.0416666666666667;" x1="264.3229" x2="267.4479" y1="213.7136" y2="213.7136"/><!--MD5=[0c1f069b7b10bf574a238558f7a2c2bc]
class UnitedStates--><rect codeLine="21" fill="#282828" height="83.3781" id="UnitedStates" rx="8.3333" ry="8.3333" style="stroke:#5E5E5E;stroke-width:1.0416666666666667;" width="119.7917" x="305.4688" y="164.1195"/><rect fill="#1B1B1A" height="31.3883" rx="8.3333" ry="8.3333" style="stroke:#1B1B1A;stroke-width:1.0416666666666667;" width="119.7917" x="305.4688" y="164.1195"/><rect fill="#1B1B1A" height="8.3333" style="stroke:#1B1B1A;stroke-width:1.0416666666666667;" width="119.7917" x="305.4688" y="187.1745"/><rect codeLine="21" fill="none" height="83.3781" id="UnitedStates" rx="8.3333" ry="8.3333" style="stroke:#5E5E5E;stroke-width:1.0416666666666667;" width="119.7917" x="305.4688" y="164.1195"/><ellipse cx="320.0521" cy="179.8136" fill="#0066CF" rx="10.4167" ry="10.4167" style="stroke:#0086EF;stroke-width:1.0416666666666667;"/><path d="M321.9625,184.2387 Q321.5352,184.4584 321.0653,184.5683 Q320.5953,184.6781 320.0765,184.6781 Q318.2332,184.6781 317.2628,183.4635 Q316.2923,182.2489 316.2923,179.954 Q316.2923,177.653 317.2628,176.4384 Q318.2332,175.2238 320.0765,175.2238 Q320.5953,175.2238 321.0714,175.3337 Q321.5474,175.4435 321.9625,175.6632 L321.9625,177.6652 Q321.4986,177.238 321.0622,177.0396 Q320.6258,176.8412 320.1619,176.8412 Q319.1732,176.8412 318.6696,177.6255 Q318.1661,178.4098 318.1661,179.954 Q318.1661,181.4921 318.6696,182.2764 Q319.1732,183.0607 320.1619,183.0607 Q320.6258,183.0607 321.0622,182.8623 Q321.4986,182.664 321.9625,182.2367 Z " fill="#000000"/><text fill="#D8BC00" font-family="Open Sans,Avenir,Nunito,Arial,Helvetica,SansSerif" font-size="12.5" font-weight="bold" lengthAdjust="spacing" textLength="82.2917" x="336.7188" y="184.5378">UnitedStates</text><line style="stroke:#5E5E5E;stroke-width:1.5625;" x1="306.5104" x2="424.2188" y1="195.5078" y2="195.5078"/><ellipse cx="316.9271" cy="230.8777" fill="#84BE84" rx="3.125" ry="3.125" style="stroke:#038048;stroke-width:1.0416666666666667;"/><text fill="#D8BC00" font-family="Open Sans,Avenir,Nunito,Arial,Helvetica,SansSerif" font-size="11.4583" lengthAdjust="spacing" textLength="78.125" x="328.3854" y="237.7889">UnitedStates()</text><line style="stroke:#5E5E5E;stroke-width:1.0416666666666667;" x1="306.5104" x2="321.6146" y1="213.7136" y2="213.7136"/><text fill="#D8BC00" font-family="Open Sans,Avenir,Nunito,Arial,Helvetica,SansSerif" font-size="11.4583" lengthAdjust="spacing" textLength="81.25" x="324.7396" y="217.5232">(constructors)</text><line style="stroke:#5E5E5E;stroke-width:1.0416666666666667;" x1="409.1146" x2="424.2188" y1="213.7136" y2="213.7136"/><!--MD5=[807addf6be2296bdb053c7e67aad762a]
reverse link Country to Canada--><path codeLine="6" d="M180.9896,116.4215 C165.2708,131.3903 147.1563,148.6507 131.125,163.9215 " fill="none" id="Country-backto-Canada" style="stroke:#545454;stroke-width:1.5625;"/><polygon fill="none" points="176.1979,110.9111,196.3125,101.8174,186.25,121.4736,176.1979,110.9111" style="stroke:#545454;stroke-width:1.5625;"/><!--MD5=[55759bad902d2ae66fed6660333a0144]
reverse link Country to Mexico--><path codeLine="13" d="M220.5729,122.682 C220.5729,136.0778 220.5729,150.7445 220.5729,163.9215 " fill="none" id="Country-backto-Mexico" style="stroke:#545454;stroke-width:1.5625;"/><polygon fill="none" points="213.2813,122.6507,220.5729,101.8174,227.8646,122.6507,213.2813,122.6507" style="stroke:#545454;stroke-width:1.5625;"/><!--MD5=[68ec7ca6675cd61500b37fc5a35aa16b]
reverse link Country to UnitedStates--><path codeLine="20" d="M263.0833,115.7132 C280.4792,130.8486 300.6563,148.4111 318.4688,163.9215 " fill="none" id="Country-backto-UnitedStates" style="stroke:#545454;stroke-width:1.5625;"/><polygon fill="none" points="258.0521,120.9945,247.125,101.8174,267.6354,110.0049,258.0521,120.9945" style="stroke:#545454;stroke-width:1.5625;"/><!--MD5=[a9d2e1740ee70ef048dfefddaae03e8f]
@startuml

    !include lexakai.theme
    
    title "com.telenav.mesakit.map.region.countries"
    
    Country <|- - Canada
    class Canada
    {
        - -(constructors)- -
        +Canada()
    }
    
    Country <|- - Mexico
    class Mexico
    {
        - -(constructors)- -
        +Mexico()
    }
    
    Country <|- - UnitedStates
    class UnitedStates
    {
        - -(constructors)- -
        +UnitedStates()
    }
    
@enduml

@startuml









skinparam backgroundColor #333333






skinparam  {
    defaultFontName   "Open Sans,Avenir,Nunito,Arial,Helvetica,SansSerif"
    defaultFontSize   12
    defaultTextAlignment left
    shadowing false
    RoundCorner 10
    TitleFontSize 18
}

skinparam defaultFontName       "Open Sans,Avenir,Nunito,Arial,Helvetica,SansSerif"
skinparam defaultFontSize       12
skinparam dpi                   100
skinparam shadowing             false
skinparam roundcorner           16
skinparam ParticipantPadding    40
skinparam BoxPadding            40
skinparam Padding               3
skinparam ArrowColor            #545454
skinparam stereotype {
    CBackgroundColor #0066cf
    CBorderColor #0086ef
    ABackgroundColor #C8Ac00
    ABorderColor #D8Bc00
    IBackgroundColor #008400
    IBorderColor #239c23
    EBackgroundColor #cf6300
    EBorderColor #ef8300
    NBackgroundColor #3380b9
    NBorderColor #004d86
}
skinparam title {
	FontColor	                 #c0c0c0
 	BorderColor                  #545454
	FontSize	    	         20
	BorderRoundCorner            16
	BorderThickness 	         1
	BackgroundColor              #48494b
}


skinparam legend {
	BackgroundColor #303030
	BorderColor #404040
	FontColor #a0a0a0
}

	skinparam swimlane {
	BorderColor #5e5e5e
	BorderThickness 2
	TitleBackgroundColor  #6d6d6d-#484848
	TitleFontColor #303030
}

skinparam activity {
		FontColor #C8Ac00
	BorderColor #333333
	BackgroundColor #333333-#333333
	BarColor #00FF00
	StartColor #0060a8
	EndColor #0060a8
	DiamondBackgroundColor #6d6d6d-#3a3a3a
  	DiamondBorderColor #3a3a3a
  	DiamondFontColor #fefefe
}


skinparam participant {
		FontColor #C8Ac00
	BorderColor #333333
	BackgroundColor #333333-#333333
	ParticipantBorderThickness 2
}


skinparam actor {
		FontColor #C8Ac00
	BorderColor #333333
	BackgroundColor #333333-#333333
}


skinparam arrow {
	Thickness 1.5
	Color #545454
	FontColor #a0a0a0
    FontStyle bold
    MessageAlignment center
}



skinparam sequence {
	BorderColor #303030
	TitleFontColor #303030
	BackgroundColor #333333
	StartColor #303030
	EndColor #303030
	BoxBackgroundColor #333333
	BoxBorderColor #484848
	BoxFontColor #484848
	LifeLineBorderColor #484848
	LifeLineBorderThickness 2
	LifeLineBackgroundColor #3a3a3a
	GroupBorderColor #484848
	GroupFontColor #484848
	GroupHeaderFontColor #0060a8
	GroupBackgroundColor #484848
	GroupHeaderBackgroundColor #333333
	DividerBackgroundColor #484848
    DividerBorderColor #484848
    DividerBorderThickness 2
    DividerFontColor #D8Bc00
	ReferenceBackgroundColor #333333
	ReferenceBorderColor #484848
	ReferenceFontColor #fefefe
	ReferenceHeaderBackgroundColor #484848
}


skinparam partition {
	BorderColor #303030
	FontColor #333333
	BackgroundColor #333333
}


skinparam collections {
		FontColor #C8Ac00
	BorderColor #333333
	BackgroundColor #333333-#333333
}


skinparam control {
		FontColor #C8Ac00
	BorderColor #333333
	BackgroundColor #333333-#333333
}


skinparam entity {
		FontColor #C8Ac00
	BorderColor #333333
	BackgroundColor #333333-#333333
}


skinparam boundary {
		FontColor #C8Ac00
	BorderColor #333333
	BackgroundColor #333333-#333333
}


skinparam agent {
	BackgroundColor #ff8000
	BorderColor #ff9933
	FontColor #484848
}


skinparam note {
	BorderThickness 1
	BackgroundColor #1b1b1a
	BorderColor #5e5e5e
	FontSize 11
	FontColor #a0a0a0
}


skinparam artifact {
	BorderThickness 10
	BorderColor #5e5e5e
	BackgroundColor #1b1b1a
	FontColor #D8Bc00
}


skinparam component {
		FontColor #C8Ac00
	BorderColor #333333
	BackgroundColor #333333-#333333
}


skinparam interface {
	BackgroundColor  #008400
	BorderColor  #007F00
	FontColor #484848
}


skinparam storage {
	BackgroundColor #ff8000
  	BorderColor #cc6600
	FontColor #222222
}


skinparam node {
	BackgroundColor #333333
	BorderColor #333333
	FontColor #C8Ac00
}


skinparam cloud {
	BackgroundColor #484848-black
	BorderColor #484848
	FontColor #D8Bc00
}


skinparam database {
		FontColor #C8Ac00
	BorderColor #333333
	BackgroundColor #333333-#333333
	BackgroundColor  #333333
}


skinparam class {
		FontColor #C8Ac00
	BorderColor #333333
	BackgroundColor #333333-#333333
	HeaderBackgroundColor #1b1b1a
    BackgroundColor #282828
    BorderColor #5e5e5e
 	StereotypeFontColor #a0a0a0
    StereotypeFontStyle bold
	BorderThickness 1
	AttributeFontColor #D8Bc00
	AttributeFontSize 11
    FontColor #D8Bc00
    FontStyle bold
}


skinparam object {
		FontColor #C8Ac00
	BorderColor #333333
	BackgroundColor #333333-#333333
	StereotypeFontColor #484848
	BorderThickness 1
	AttributeFontColor #fefefe
	AttributeFontSize 11
}


skinparam usecase {
		FontColor #C8Ac00
	BorderColor #333333
	BackgroundColor #333333-#333333
	BorderThickness 2
	StereotypeFontColor #303030
}


skinparam rectangle {
		FontColor #C8Ac00
	BorderColor #333333
	BackgroundColor #333333-#333333
	BackgroundColor #333333
	BorderThickness 2
	StereotypeFontColor #303030
}


skinparam package {
		FontColor #C8Ac00
	BorderColor #333333
	BackgroundColor #333333-#333333
	BackgroundColor #333333
	BorderThickness 2
}


skinparam folder {
	BackgroundColor #6d6d6d
  	BorderColor #ff8000
	FontColor #ff8000
	BorderThickness 2
}


skinparam frame {
	BackgroundColor #6d6d6d
  	BorderColor #0060a8
	FontColor #0060a8
	BorderThickness 2
}


skinparam state {
		FontColor #C8Ac00
	BorderColor #333333
	BackgroundColor #333333-#333333
	StartColor #0060a8
	EndColor #0060a8
	AttributeFontColor #fefefe
	AttributeFontSize 11
}


skinparam queue {
		FontColor #C8Ac00
	BorderColor #333333
	BackgroundColor #333333-#333333
}


skinparam card {
	BackgroundColor #0060a8
	BorderColor #004d86
	FontColor $INFO_TEXT
}


skinparam file {
	BackgroundColor #6d6d6d-#484848
	BorderColor #0060a8
	FontColor #fefefe
}


skinparam stack {
		FontColor #C8Ac00
	BorderColor #333333
	BackgroundColor #333333-#333333
}

    
    title "com.telenav.mesakit.map.region.countries"
    
    Country <|- - Canada
    class Canada
    {
        - -(constructors)- -
        +Canada()
    }
    
    Country <|- - Mexico
    class Mexico
    {
        - -(constructors)- -
        +Mexico()
    }
    
    Country <|- - UnitedStates
    class UnitedStates
    {
        - -(constructors)- -
        +UnitedStates()
    }
    
@enduml

PlantUML version 1.2021.01(Tue Feb 02 00:55:08 MST 2021)
(GPL source distribution)
Java Runtime: OpenJDK Runtime Environment
JVM: OpenJDK 64-Bit Server VM
Default Encoding: UTF-8
Language: en
Country: US
--></g></svg>