<?xml version="1.0" encoding="UTF-8" standalone="no"?><svg xmlns="http://www.w3.org/2000/svg" xmlns:xlink="http://www.w3.org/1999/xlink" contentScriptType="application/ecmascript" contentStyleType="text/css" height="664.5833px" preserveAspectRatio="none" style="width:651px;height:664px;background:#333333;" version="1.1" viewBox="0 0 651 664" width="651.0417px" zoomAndPan="magnify"><defs/><g><rect fill="#48494B" height="41.2028" rx="8.3333" ry="8.3333" style="stroke:#545454;stroke-width:1.0416666666666667;" width="167.7083" x="234.375" y="2.0833"/><text fill="#C0C0C0" font-family="Open Sans,Avenir,Nunito,Arial,Helvetica,SansSerif" font-size="20.8333" lengthAdjust="spacing" textLength="144.7917" x="245.8333" y="30.5583">OSM Overpass</text><!--MD5=[784d533083758286c885e86b9fe3090e]
class BaseComponent--><rect codeLine="6" fill="#282828" height="48.055" id="BaseComponent" rx="8.3333" ry="8.3333" style="stroke:#5E5E5E;stroke-width:1.0416666666666667;" width="143.75" x="7.2917" y="214.6403"/><rect fill="#1B1B1A" height="31.3883" rx="8.3333" ry="8.3333" style="stroke:#1B1B1A;stroke-width:1.0416666666666667;" width="143.75" x="7.2917" y="214.6403"/><rect fill="#1B1B1A" height="8.3333" style="stroke:#1B1B1A;stroke-width:1.0416666666666667;" width="143.75" x="7.2917" y="237.6953"/><rect codeLine="6" fill="none" height="48.055" id="BaseComponent" rx="8.3333" ry="8.3333" style="stroke:#5E5E5E;stroke-width:1.0416666666666667;" width="143.75" x="7.2917" y="214.6403"/><ellipse cx="21.875" cy="230.3345" fill="#C8AC00" rx="10.4167" ry="10.4167" style="stroke:#D8BC00;stroke-width:1.0416666666666667;"/><path d="M21.4681,227.0365 L20.6197,230.7658 L22.3226,230.7658 Z M20.3695,225.3886 L22.5728,225.3886 L25.0326,234.5011 L23.232,234.5011 L22.6705,232.2489 L20.2596,232.2489 L19.7103,234.5011 L17.9097,234.5011 Z " fill="#000000"/><text fill="#D8BC00" font-family="Open Sans,Avenir,Nunito,Arial,Helvetica,SansSerif" font-size="12.5" font-style="italic" font-weight="bold" lengthAdjust="spacing" textLength="106.25" x="38.5417" y="235.0586">BaseComponent</text><line style="stroke:#5E5E5E;stroke-width:1.0416666666666667;" x1="8.3333" x2="150" y1="246.0286" y2="246.0286"/><line style="stroke:#5E5E5E;stroke-width:1.0416666666666667;" x1="8.3333" x2="150" y1="254.362" y2="254.362"/><!--MD5=[762aa3d0df6a9d47bd8e105afbd066b5]
class BaseRepeater--><rect codeLine="7" fill="#282828" height="48.055" id="BaseRepeater" rx="8.3333" ry="8.3333" style="stroke:#5E5E5E;stroke-width:1.0416666666666667;" width="123.9583" x="375.5208" y="53.7028"/><rect fill="#1B1B1A" height="31.3883" rx="8.3333" ry="8.3333" style="stroke:#1B1B1A;stroke-width:1.0416666666666667;" width="123.9583" x="375.5208" y="53.7028"/><rect fill="#1B1B1A" height="8.3333" style="stroke:#1B1B1A;stroke-width:1.0416666666666667;" width="123.9583" x="375.5208" y="76.7578"/><rect codeLine="7" fill="none" height="48.055" id="BaseRepeater" rx="8.3333" ry="8.3333" style="stroke:#5E5E5E;stroke-width:1.0416666666666667;" width="123.9583" x="375.5208" y="53.7028"/><ellipse cx="390.1042" cy="69.397" fill="#C8AC00" rx="10.4167" ry="10.4167" style="stroke:#D8BC00;stroke-width:1.0416666666666667;"/><path d="M389.6973,66.099 L388.8489,69.8283 L390.5518,69.8283 Z M388.5986,64.4511 L390.802,64.4511 L393.2617,73.5636 L391.4612,73.5636 L390.8997,71.3114 L388.4888,71.3114 L387.9395,73.5636 L386.1389,73.5636 Z " fill="#000000"/><text fill="#D8BC00" font-family="Open Sans,Avenir,Nunito,Arial,Helvetica,SansSerif" font-size="12.5" font-style="italic" font-weight="bold" lengthAdjust="spacing" textLength="86.4583" x="406.7708" y="74.1211">BaseRepeater</text><line style="stroke:#5E5E5E;stroke-width:1.0416666666666667;" x1="376.5625" x2="498.4375" y1="85.0911" y2="85.0911"/><line style="stroke:#5E5E5E;stroke-width:1.0416666666666667;" x1="376.5625" x2="498.4375" y1="93.4245" y2="93.4245"/><!--MD5=[a6e03791e001d3ab04cfa45eed53df94]
class OsmToPbfConverter--><rect codeLine="10" fill="#282828" height="111.4563" id="OsmToPbfConverter" rx="8.3333" ry="8.3333" style="stroke:#5E5E5E;stroke-width:1.0416666666666667;" width="200" x="443.75" y="405.2653"/><rect fill="#1B1B1A" height="31.3883" rx="8.3333" ry="8.3333" style="stroke:#1B1B1A;stroke-width:1.0416666666666667;" width="200" x="443.75" y="405.2653"/><rect fill="#1B1B1A" height="8.3333" style="stroke:#1B1B1A;stroke-width:1.0416666666666667;" width="200" x="443.75" y="428.3203"/><rect codeLine="10" fill="none" height="111.4563" id="OsmToPbfConverter" rx="8.3333" ry="8.3333" style="stroke:#5E5E5E;stroke-width:1.0416666666666667;" width="200" x="443.75" y="405.2653"/><ellipse cx="472.3958" cy="420.9595" fill="#0066CF" rx="10.4167" ry="10.4167" style="stroke:#0086EF;stroke-width:1.0416666666666667;"/><path d="M474.3062,425.3845 Q473.879,425.6042 473.409,425.7141 Q472.939,425.824 472.4202,425.824 Q470.577,425.824 469.6065,424.6094 Q468.6361,423.3948 468.6361,421.0999 Q468.6361,418.7988 469.6065,417.5842 Q470.577,416.3696 472.4202,416.3696 Q472.939,416.3696 473.4151,416.4795 Q473.8912,416.5894 474.3062,416.8091 L474.3062,418.811 Q473.8424,418.3838 473.406,418.1854 Q472.9696,417.9871 472.5057,417.9871 Q471.5169,417.9871 471.0134,418.7714 Q470.5098,419.5557 470.5098,421.0999 Q470.5098,422.6379 471.0134,423.4222 Q471.5169,424.2065 472.5057,424.2065 Q472.9696,424.2065 473.406,424.0082 Q473.8424,423.8098 474.3062,423.3826 Z " fill="#000000"/><text fill="#D8BC00" font-family="Open Sans,Avenir,Nunito,Arial,Helvetica,SansSerif" font-size="12.5" font-weight="bold" lengthAdjust="spacing" textLength="131.25" x="492.1875" y="425.6836">OsmToPbfConverter</text><line style="stroke:#5E5E5E;stroke-width:1.5625;" x1="444.7917" x2="642.7083" y1="436.6536" y2="436.6536"/><ellipse cx="455.2083" cy="472.0235" fill="#84BE84" rx="3.125" ry="3.125" style="stroke:#038048;stroke-width:1.0416666666666667;"/><text fill="#D8BC00" font-family="Open Sans,Avenir,Nunito,Arial,Helvetica,SansSerif" font-size="11.4583" lengthAdjust="spacing" textLength="167.7083" x="466.6667" y="478.9347">OsmToPbfConverter(Listener)</text><line style="stroke:#5E5E5E;stroke-width:1.0416666666666667;" x1="444.7917" x2="500" y1="454.8594" y2="454.8594"/><text fill="#D8BC00" font-family="Open Sans,Avenir,Nunito,Arial,Helvetica,SansSerif" font-size="11.4583" lengthAdjust="spacing" textLength="81.25" x="503.125" y="458.669">(constructors)</text><line style="stroke:#5E5E5E;stroke-width:1.0416666666666667;" x1="587.5" x2="642.7083" y1="454.8594" y2="454.8594"/><line style="stroke:#5E5E5E;stroke-width:1.0416666666666667;" x1="444.7917" x2="642.7083" y1="488.6434" y2="488.6434"/><ellipse cx="455.2083" cy="500.1017" fill="#84BE84" rx="3.125" ry="3.125" style="stroke:#038048;stroke-width:1.0416666666666667;"/><text fill="#D8BC00" font-family="Open Sans,Avenir,Nunito,Arial,Helvetica,SansSerif" font-size="11.4583" lengthAdjust="spacing" textLength="157.2917" x="466.6667" y="507.0129">void convert(File in, File out)</text><!--MD5=[96fa6dd777b565a8f2e28c57d8998f3c]
class OverpassDataDownloader--><rect codeLine="22" fill="#282828" height="146.7794" id="OverpassDataDownloader" rx="8.3333" ry="8.3333" style="stroke:#5E5E5E;stroke-width:1.0416666666666667;" width="287.5" x="191.6667" y="165.1611"/><rect fill="#1B1B1A" height="31.3883" rx="8.3333" ry="8.3333" style="stroke:#1B1B1A;stroke-width:1.0416666666666667;" width="287.5" x="191.6667" y="165.1611"/><rect fill="#1B1B1A" height="8.3333" style="stroke:#1B1B1A;stroke-width:1.0416666666666667;" width="287.5" x="191.6667" y="188.2161"/><rect codeLine="22" fill="none" height="146.7794" id="OverpassDataDownloader" rx="8.3333" ry="8.3333" style="stroke:#5E5E5E;stroke-width:1.0416666666666667;" width="287.5" x="191.6667" y="165.1611"/><ellipse cx="243.75" cy="180.8553" fill="#0066CF" rx="10.4167" ry="10.4167" style="stroke:#0086EF;stroke-width:1.0416666666666667;"/><path d="M245.6604,185.2804 Q245.2332,185.5001 244.7632,185.6099 Q244.2932,185.7198 243.7744,185.7198 Q241.9312,185.7198 240.9607,184.5052 Q239.9902,183.2906 239.9902,180.9957 Q239.9902,178.6947 240.9607,177.4801 Q241.9312,176.2655 243.7744,176.2655 Q244.2932,176.2655 244.7693,176.3753 Q245.2454,176.4852 245.6604,176.7049 L245.6604,178.7069 Q245.1965,178.2796 244.7601,178.0813 Q244.3237,177.8829 243.8599,177.8829 Q242.8711,177.8829 242.3676,178.6672 Q241.864,179.4515 241.864,180.9957 Q241.864,182.5338 242.3676,183.3181 Q242.8711,184.1024 243.8599,184.1024 Q244.3237,184.1024 244.7601,183.904 Q245.1965,183.7056 245.6604,183.2784 Z " fill="#000000"/><text fill="#D8BC00" font-family="Open Sans,Avenir,Nunito,Arial,Helvetica,SansSerif" font-size="12.5" font-weight="bold" lengthAdjust="spacing" textLength="168.75" x="266.6667" y="185.5794">OverpassDataDownloader</text><line style="stroke:#5E5E5E;stroke-width:1.5625;" x1="192.7083" x2="478.125" y1="196.5495" y2="196.5495"/><ellipse cx="203.125" cy="231.9194" fill="#84BE84" rx="3.125" ry="3.125" style="stroke:#038048;stroke-width:1.0416666666666667;"/><text fill="#D8BC00" font-family="Open Sans,Avenir,Nunito,Arial,Helvetica,SansSerif" font-size="11.4583" lengthAdjust="spacing" textLength="188.5417" x="214.5833" y="238.8306">OverpassDataDownloader(Folder)</text><line style="stroke:#5E5E5E;stroke-width:1.0416666666666667;" x1="192.7083" x2="291.6667" y1="214.7552" y2="214.7552"/><text fill="#D8BC00" font-family="Open Sans,Avenir,Nunito,Arial,Helvetica,SansSerif" font-size="11.4583" lengthAdjust="spacing" textLength="81.25" x="294.7917" y="218.5649">(constructors)</text><line style="stroke:#5E5E5E;stroke-width:1.0416666666666667;" x1="379.1667" x2="478.125" y1="214.7552" y2="214.7552"/><ellipse cx="203.125" cy="275.5758" fill="#84BE84" rx="3.125" ry="3.125" style="stroke:#038048;stroke-width:1.0416666666666667;"/><text fill="#D8BC00" font-family="Open Sans,Avenir,Nunito,Arial,Helvetica,SansSerif" font-size="11.4583" lengthAdjust="spacing" textLength="255.2083" x="214.5833" y="282.487">File osm(String descriptor, Rectangle bounds)</text><ellipse cx="203.125" cy="295.3206" fill="#84BE84" rx="3.125" ry="3.125" style="stroke:#038048;stroke-width:1.0416666666666667;"/><text fill="#D8BC00" font-family="Open Sans,Avenir,Nunito,Arial,Helvetica,SansSerif" font-size="11.4583" lengthAdjust="spacing" textLength="248.9583" x="214.5833" y="302.2319">File pbf(String baseName, Rectangle bounds)</text><line style="stroke:#5E5E5E;stroke-width:1.0416666666666667;" x1="192.7083" x2="300" y1="258.4117" y2="258.4117"/><text fill="#D8BC00" font-family="Open Sans,Avenir,Nunito,Arial,Helvetica,SansSerif" font-size="11.4583" lengthAdjust="spacing" textLength="64.5833" x="303.125" y="262.2213">(filesystem)</text><line style="stroke:#5E5E5E;stroke-width:1.0416666666666667;" x1="370.8333" x2="478.125" y1="258.4117" y2="258.4117"/><!--MD5=[bd8dd72c740f0b6f80045c4c0d2213b7]
class OverpassOsmResource--><rect codeLine="33" fill="#282828" height="127.0345" id="OverpassOsmResource" rx="8.3333" ry="8.3333" style="stroke:#5E5E5E;stroke-width:1.0416666666666667;" width="226.0417" x="7.8125" y="397.4528"/><rect fill="#1B1B1A" height="31.3883" rx="8.3333" ry="8.3333" style="stroke:#1B1B1A;stroke-width:1.0416666666666667;" width="226.0417" x="7.8125" y="397.4528"/><rect fill="#1B1B1A" height="8.3333" style="stroke:#1B1B1A;stroke-width:1.0416666666666667;" width="226.0417" x="7.8125" y="420.5078"/><rect codeLine="33" fill="none" height="127.0345" id="OverpassOsmResource" rx="8.3333" ry="8.3333" style="stroke:#5E5E5E;stroke-width:1.0416666666666667;" width="226.0417" x="7.8125" y="397.4528"/><ellipse cx="40.2083" cy="413.147" fill="#0066CF" rx="10.4167" ry="10.4167" style="stroke:#0086EF;stroke-width:1.0416666666666667;"/><path d="M42.1187,417.572 Q41.6915,417.7917 41.2215,417.9016 Q40.7515,418.0115 40.2327,418.0115 Q38.3895,418.0115 37.419,416.7969 Q36.4486,415.5823 36.4486,413.2874 Q36.4486,410.9863 37.419,409.7717 Q38.3895,408.5571 40.2327,408.5571 Q40.7515,408.5571 41.2276,408.667 Q41.7037,408.7769 42.1187,408.9966 L42.1187,410.9985 Q41.6549,410.5713 41.2185,410.3729 Q40.7821,410.1746 40.3182,410.1746 Q39.3294,410.1746 38.8259,410.9589 Q38.3223,411.7432 38.3223,413.2874 Q38.3223,414.8254 38.8259,415.6097 Q39.3294,416.394 40.3182,416.394 Q40.7821,416.394 41.2185,416.1957 Q41.6549,415.9973 42.1187,415.5701 Z " fill="#000000"/><text fill="#D8BC00" font-family="Open Sans,Avenir,Nunito,Arial,Helvetica,SansSerif" font-size="12.5" font-weight="bold" lengthAdjust="spacing" textLength="148.9583" x="60.8333" y="417.8711">OverpassOsmResource</text><line style="stroke:#5E5E5E;stroke-width:1.5625;" x1="8.8542" x2="232.8125" y1="428.8411" y2="428.8411"/><ellipse cx="19.2708" cy="464.211" fill="#84BE84" rx="3.125" ry="3.125" style="stroke:#038048;stroke-width:1.0416666666666667;"/><text fill="#D8BC00" font-family="Open Sans,Avenir,Nunito,Arial,Helvetica,SansSerif" font-size="11.4583" lengthAdjust="spacing" textLength="193.75" x="30.7292" y="471.1222">OverpassOsmResource(Rectangle)</text><line style="stroke:#5E5E5E;stroke-width:1.0416666666666667;" x1="8.8542" x2="77.0833" y1="447.0469" y2="447.0469"/><text fill="#D8BC00" font-family="Open Sans,Avenir,Nunito,Arial,Helvetica,SansSerif" font-size="11.4583" lengthAdjust="spacing" textLength="81.25" x="80.2083" y="450.8565">(constructors)</text><line style="stroke:#5E5E5E;stroke-width:1.0416666666666667;" x1="164.5833" x2="232.8125" y1="447.0469" y2="447.0469"/><ellipse cx="19.2708" cy="507.8674" fill="#84BE84" rx="3.125" ry="3.125" style="stroke:#038048;stroke-width:1.0416666666666667;"/><text fill="#D8BC00" font-family="Open Sans,Avenir,Nunito,Arial,Helvetica,SansSerif" font-size="11.4583" lengthAdjust="spacing" textLength="186.4583" x="30.7292" y="514.7786">void safeCopyTo(File destination)</text><line style="stroke:#5E5E5E;stroke-width:1.0416666666666667;" x1="8.8542" x2="85.4167" y1="490.7033" y2="490.7033"/><text fill="#D8BC00" font-family="Open Sans,Avenir,Nunito,Arial,Helvetica,SansSerif" font-size="11.4583" lengthAdjust="spacing" textLength="64.5833" x="88.5417" y="494.5129">(filesystem)</text><line style="stroke:#5E5E5E;stroke-width:1.0416666666666667;" x1="156.25" x2="232.8125" y1="490.7033" y2="490.7033"/><!--MD5=[d1dcc9c41ef051a777528f9336a950e3]
class Folder--><rect fill="#282828" height="48.055" id="Folder" rx="8.3333" ry="8.3333" style="stroke:#5E5E5E;stroke-width:1.0416666666666667;" width="78.125" x="174.4792" y="609.9528"/><rect fill="#1B1B1A" height="31.3883" rx="8.3333" ry="8.3333" style="stroke:#1B1B1A;stroke-width:1.0416666666666667;" width="78.125" x="174.4792" y="609.9528"/><rect fill="#1B1B1A" height="8.3333" style="stroke:#1B1B1A;stroke-width:1.0416666666666667;" width="78.125" x="174.4792" y="633.0078"/><rect fill="none" height="48.055" id="Folder" rx="8.3333" ry="8.3333" style="stroke:#5E5E5E;stroke-width:1.0416666666666667;" width="78.125" x="174.4792" y="609.9528"/><ellipse cx="189.0625" cy="625.647" fill="#0066CF" rx="10.4167" ry="10.4167" style="stroke:#0086EF;stroke-width:1.0416666666666667;"/><path d="M190.9729,630.072 Q190.5457,630.2917 190.0757,630.4016 Q189.6057,630.5115 189.0869,630.5115 Q187.2437,630.5115 186.2732,629.2969 Q185.3027,628.0823 185.3027,625.7874 Q185.3027,623.4863 186.2732,622.2717 Q187.2437,621.0571 189.0869,621.0571 Q189.6057,621.0571 190.0818,621.167 Q190.5579,621.2769 190.9729,621.4966 L190.9729,623.4985 Q190.509,623.0713 190.0726,622.8729 Q189.6362,622.6746 189.1724,622.6746 Q188.1836,622.6746 187.6801,623.4589 Q187.1765,624.2432 187.1765,625.7874 Q187.1765,627.3254 187.6801,628.1097 Q188.1836,628.894 189.1724,628.894 Q189.6362,628.894 190.0726,628.6957 Q190.509,628.4973 190.9729,628.0701 Z " fill="#000000"/><text fill="#D8BC00" font-family="Open Sans,Avenir,Nunito,Arial,Helvetica,SansSerif" font-size="12.5" font-weight="bold" lengthAdjust="spacing" textLength="40.625" x="205.7292" y="630.3711">Folder</text><line style="stroke:#5E5E5E;stroke-width:1.0416666666666667;" x1="175.5208" x2="251.5625" y1="641.3411" y2="641.3411"/><line style="stroke:#5E5E5E;stroke-width:1.0416666666666667;" x1="175.5208" x2="251.5625" y1="649.6745" y2="649.6745"/><!--MD5=[977662dd38dde32f1c532325106d0b51]
reverse link BaseRepeater to OsmToPbfConverter--><path codeLine="9" d="M471.1354,118.7132 C481.2396,132.6299 491.3646,148.859 497.9167,165.1611 C529.8333,244.5778 539.6354,344.2965 542.5833,405.0257 " fill="none" id="BaseRepeater-backto-OsmToPbfConverter" style="stroke:#545454;stroke-width:1.5625;"/><polygon fill="none" points="465.1354,122.8799,458.1667,101.932,476.6771,113.9632,465.1354,122.8799" style="stroke:#545454;stroke-width:1.5625;"/><!--MD5=[4605f201512db6eb7a7e8cdcaebd2f1f]
reverse link BaseRepeater to OverpassDataDownloader--><path codeLine="18" d="M411.1563,119.7028 C402.2917,133.4945 392.1146,149.3278 382.1563,164.8174 " fill="none" id="BaseRepeater-backto-OverpassDataDownloader" style="stroke:#545454;stroke-width:1.5625;"/><polygon fill="none" points="405.2604,115.3903,422.6563,101.7965,417.5313,123.2653,405.2604,115.3903" style="stroke:#545454;stroke-width:1.5625;"/><!--MD5=[746960e65895855b8676357ca0fdd7cb]
link OverpassDataDownloader to OsmToPbfConverter--><path codeLine="19" d="M354.7083,312.1715 C362.1458,331.1611 372.1563,350.6507 385.4167,366.2028 C400.3542,383.7132 419.4271,398.7965 439.125,411.4215 " fill="none" id="OverpassDataDownloader-to-OsmToPbfConverter" style="stroke:#545454;stroke-width:1.5625;"/><polygon fill="#545454" points="443.5938,414.2549,437.8933,405.7251,439.1905,411.4731,433.4425,412.7703,443.5938,414.2549" style="stroke:#545454;stroke-width:1.5625;"/><text fill="#A0A0A0" font-family="Open Sans,Avenir,Nunito,Arial,Helvetica,SansSerif" font-size="12.5" font-weight="bold" lengthAdjust="spacing" textLength="119.7917" x="389.5833" y="359.5378">converts data with</text><!--MD5=[d0497d39f440bd4d744037c74b8a6491]
link OverpassDataDownloader to OverpassOsmResource--><path codeLine="20" d="M191.2604,303.3382 C165.9479,317.1195 144.9583,331.1715 136.4583,343.2861 C126.5625,357.3799 121.4896,374.8486 119.1354,391.9215 " fill="none" id="OverpassDataDownloader-to-OverpassOsmResource" style="stroke:#545454;stroke-width:1.5625;"/><polygon fill="#545454" points="118.4896,397.2132,123.7745,388.4199,119.1283,392.0442,115.504,387.398,118.4896,397.2132" style="stroke:#545454;stroke-width:1.5625;"/><text fill="#A0A0A0" font-family="Open Sans,Avenir,Nunito,Arial,Helvetica,SansSerif" font-size="12.5" font-weight="bold" lengthAdjust="spacing" textLength="135.4167" x="140.625" y="359.5378">downloads data with</text><!--MD5=[3c26438dbc605289fb425a16747b2b0f]
reverse link OverpassDataDownloader to Folder--><path codeLine="21" d="M329.7917,325.807 C322.8958,411.8382 308.9583,537.0882 284.375,578.7028 C276.7396,591.6299 264.7188,602.5361 252.7292,611.0986 " fill="none" id="OverpassDataDownloader-backto-Folder" style="stroke:#545454;stroke-width:1.5625;"/><polygon fill="#333333" points="330.8646,312.0882,326.2298,317.9995,329.9038,324.5512,334.5385,318.64,330.8646,312.0882" style="stroke:#545454;stroke-width:1.5625;"/><text fill="#A0A0A0" font-family="Open Sans,Avenir,Nunito,Arial,Helvetica,SansSerif" font-size="12.5" font-weight="bold" lengthAdjust="spacing" textLength="91.6667" x="327.0833" y="465.7878">caches data in</text><!--MD5=[ed899662291d3fd24f9006dc9f5e3ed4]
reverse link BaseComponent to OverpassOsmResource--><path codeLine="31" d="M86.9271,283.6507 C91.2813,308.0049 96.8646,338.7965 102.0833,366.2028 C104.0104,376.307 106.1042,387.0257 108.1667,397.4528 " fill="none" id="BaseComponent-backto-OverpassOsmResource" style="stroke:#545454;stroke-width:1.5625;"/><polygon fill="none" points="79.7292,284.7757,83.2604,262.9945,94.0833,282.2236,79.7292,284.7757" style="stroke:#545454;stroke-width:1.5625;"/><!--MD5=[4c56013a89f23f8a7862ec7ab51f3832]
link OverpassOsmResource to Folder--><path codeLine="32" d="M151.5,524.5882 C160.4688,542.2445 170.4792,561.359 180.2083,578.7028 C185.1354,587.4736 190.7708,596.8695 196,605.3278 " fill="none" id="OverpassOsmResource-to-Folder" style="stroke:#545454;stroke-width:1.5625;"/><polygon fill="#545454" points="198.8542,609.9215,197.4588,599.7577,196.1112,605.494,190.3748,604.1464,198.8542,609.9215" style="stroke:#545454;stroke-width:1.5625;"/><text fill="#A0A0A0" font-family="Open Sans,Avenir,Nunito,Arial,Helvetica,SansSerif" font-size="12.5" font-weight="bold" lengthAdjust="spacing" textLength="91.6667" x="184.375" y="572.0378">copies data to</text><!--MD5=[2a8d377bf0f090f297ef57f8fc004397]
@startuml

    !include lexakai.theme
    
    title "OSM Overpass"
    
    abstract BaseComponent
    abstract BaseRepeater
    
    BaseRepeater <|- - OsmToPbfConverter
    class OsmToPbfConverter
    {
        - -(constructors)- -
        +OsmToPbfConverter(Listener)
        - -
        +void convert(File in, File out)
    }
    
    BaseRepeater <|- - OverpassDataDownloader
    OverpassDataDownloader - -> OsmToPbfConverter : "converts data with"
    OverpassDataDownloader - -> OverpassOsmResource : "downloads data with"
    OverpassDataDownloader o- - Folder : "caches data in"
    class OverpassDataDownloader
    {
        - -(constructors)- -
        +OverpassDataDownloader(Folder)
        - -(filesystem)- -
        +File osm(String descriptor, Rectangle bounds)
        +File pbf(String baseName, Rectangle bounds)
    }
    
    BaseComponent <|- - OverpassOsmResource
    OverpassOsmResource - -> Folder : "copies data to"
    class OverpassOsmResource
    {
        - -(constructors)- -
        +OverpassOsmResource(Rectangle)
        - -(filesystem)- -
        +void safeCopyTo(File destination)
    }
    
@enduml

@startuml









skinparam backgroundColor #333333






skinparam  {
    defaultFontName   "Open Sans,Avenir,Nunito,Arial,Helvetica,SansSerif"
    defaultFontSize   12
    defaultTextAlignment left
    shadowing false
    RoundCorner 10
    TitleFontSize 18
}

skinparam defaultFontName       "Open Sans,Avenir,Nunito,Arial,Helvetica,SansSerif"
skinparam defaultFontSize       12
skinparam dpi                   100
skinparam shadowing             false
skinparam roundcorner           16
skinparam ParticipantPadding    40
skinparam BoxPadding            40
skinparam Padding               3
skinparam ArrowColor            #545454
skinparam stereotype {
    CBackgroundColor #0066cf
    CBorderColor #0086ef
    ABackgroundColor #C8Ac00
    ABorderColor #D8Bc00
    IBackgroundColor #008400
    IBorderColor #239c23
    EBackgroundColor #cf6300
    EBorderColor #ef8300
    NBackgroundColor #3380b9
    NBorderColor #004d86
}
skinparam title {
	FontColor	                 #c0c0c0
 	BorderColor                  #545454
	FontSize	    	         20
	BorderRoundCorner            16
	BorderThickness 	         1
	BackgroundColor              #48494b
}


skinparam legend {
	BackgroundColor #303030
	BorderColor #404040
	FontColor #a0a0a0
}

	skinparam swimlane {
	BorderColor #5e5e5e
	BorderThickness 2
	TitleBackgroundColor  #6d6d6d-#484848
	TitleFontColor #303030
}

skinparam activity {
		FontColor #C8Ac00
	BorderColor #333333
	BackgroundColor #333333-#333333
	BarColor #00FF00
	StartColor #0060a8
	EndColor #0060a8
	DiamondBackgroundColor #6d6d6d-#3a3a3a
  	DiamondBorderColor #3a3a3a
  	DiamondFontColor #fefefe
}


skinparam participant {
		FontColor #C8Ac00
	BorderColor #333333
	BackgroundColor #333333-#333333
	ParticipantBorderThickness 2
}


skinparam actor {
		FontColor #C8Ac00
	BorderColor #333333
	BackgroundColor #333333-#333333
}


skinparam arrow {
	Thickness 1.5
	Color #545454
	FontColor #a0a0a0
    FontStyle bold
    MessageAlignment center
}



skinparam sequence {
	BorderColor #303030
	TitleFontColor #303030
	BackgroundColor #333333
	StartColor #303030
	EndColor #303030
	BoxBackgroundColor #333333
	BoxBorderColor #484848
	BoxFontColor #484848
	LifeLineBorderColor #484848
	LifeLineBorderThickness 2
	LifeLineBackgroundColor #3a3a3a
	GroupBorderColor #484848
	GroupFontColor #484848
	GroupHeaderFontColor #0060a8
	GroupBackgroundColor #484848
	GroupHeaderBackgroundColor #333333
	DividerBackgroundColor #484848
    DividerBorderColor #484848
    DividerBorderThickness 2
    DividerFontColor #D8Bc00
	ReferenceBackgroundColor #333333
	ReferenceBorderColor #484848
	ReferenceFontColor #fefefe
	ReferenceHeaderBackgroundColor #484848
}


skinparam partition {
	BorderColor #303030
	FontColor #333333
	BackgroundColor #333333
}


skinparam collections {
		FontColor #C8Ac00
	BorderColor #333333
	BackgroundColor #333333-#333333
}


skinparam control {
		FontColor #C8Ac00
	BorderColor #333333
	BackgroundColor #333333-#333333
}


skinparam entity {
		FontColor #C8Ac00
	BorderColor #333333
	BackgroundColor #333333-#333333
}


skinparam boundary {
		FontColor #C8Ac00
	BorderColor #333333
	BackgroundColor #333333-#333333
}


skinparam agent {
	BackgroundColor #ff8000
	BorderColor #ff9933
	FontColor #484848
}


skinparam note {
	BorderThickness 1
	BackgroundColor #1b1b1a
	BorderColor #5e5e5e
	FontSize 11
	FontColor #a0a0a0
}


skinparam artifact {
	BorderThickness 10
	BorderColor #5e5e5e
	BackgroundColor #1b1b1a
	FontColor #D8Bc00
}


skinparam component {
		FontColor #C8Ac00
	BorderColor #333333
	BackgroundColor #333333-#333333
}


skinparam interface {
	BackgroundColor  #008400
	BorderColor  #007F00
	FontColor #484848
}


skinparam storage {
	BackgroundColor #ff8000
  	BorderColor #cc6600
	FontColor #222222
}


skinparam node {
	BackgroundColor #333333
	BorderColor #333333
	FontColor #C8Ac00
}


skinparam cloud {
	BackgroundColor #484848-black
	BorderColor #484848
	FontColor #D8Bc00
}


skinparam database {
		FontColor #C8Ac00
	BorderColor #333333
	BackgroundColor #333333-#333333
	BackgroundColor  #333333
}


skinparam class {
		FontColor #C8Ac00
	BorderColor #333333
	BackgroundColor #333333-#333333
	HeaderBackgroundColor #1b1b1a
    BackgroundColor #282828
    BorderColor #5e5e5e
 	StereotypeFontColor #a0a0a0
    StereotypeFontStyle bold
	BorderThickness 1
	AttributeFontColor #D8Bc00
	AttributeFontSize 11
    FontColor #D8Bc00
    FontStyle bold
}


skinparam object {
		FontColor #C8Ac00
	BorderColor #333333
	BackgroundColor #333333-#333333
	StereotypeFontColor #484848
	BorderThickness 1
	AttributeFontColor #fefefe
	AttributeFontSize 11
}


skinparam usecase {
		FontColor #C8Ac00
	BorderColor #333333
	BackgroundColor #333333-#333333
	BorderThickness 2
	StereotypeFontColor #303030
}


skinparam rectangle {
		FontColor #C8Ac00
	BorderColor #333333
	BackgroundColor #333333-#333333
	BackgroundColor #333333
	BorderThickness 2
	StereotypeFontColor #303030
}


skinparam package {
		FontColor #C8Ac00
	BorderColor #333333
	BackgroundColor #333333-#333333
	BackgroundColor #333333
	BorderThickness 2
}


skinparam folder {
	BackgroundColor #6d6d6d
  	BorderColor #ff8000
	FontColor #ff8000
	BorderThickness 2
}


skinparam frame {
	BackgroundColor #6d6d6d
  	BorderColor #0060a8
	FontColor #0060a8
	BorderThickness 2
}


skinparam state {
		FontColor #C8Ac00
	BorderColor #333333
	BackgroundColor #333333-#333333
	StartColor #0060a8
	EndColor #0060a8
	AttributeFontColor #fefefe
	AttributeFontSize 11
}


skinparam queue {
		FontColor #C8Ac00
	BorderColor #333333
	BackgroundColor #333333-#333333
}


skinparam card {
	BackgroundColor #0060a8
	BorderColor #004d86
	FontColor $INFO_TEXT
}


skinparam file {
	BackgroundColor #6d6d6d-#484848
	BorderColor #0060a8
	FontColor #fefefe
}


skinparam stack {
		FontColor #C8Ac00
	BorderColor #333333
	BackgroundColor #333333-#333333
}

    
    title "OSM Overpass"
    
    abstract BaseComponent
    abstract BaseRepeater
    
    BaseRepeater <|- - OsmToPbfConverter
    class OsmToPbfConverter
    {
        - -(constructors)- -
        +OsmToPbfConverter(Listener)
        - -
        +void convert(File in, File out)
    }
    
    BaseRepeater <|- - OverpassDataDownloader
    OverpassDataDownloader - -> OsmToPbfConverter : "converts data with"
    OverpassDataDownloader - -> OverpassOsmResource : "downloads data with"
    OverpassDataDownloader o- - Folder : "caches data in"
    class OverpassDataDownloader
    {
        - -(constructors)- -
        +OverpassDataDownloader(Folder)
        - -(filesystem)- -
        +File osm(String descriptor, Rectangle bounds)
        +File pbf(String baseName, Rectangle bounds)
    }
    
    BaseComponent <|- - OverpassOsmResource
    OverpassOsmResource - -> Folder : "copies data to"
    class OverpassOsmResource
    {
        - -(constructors)- -
        +OverpassOsmResource(Rectangle)
        - -(filesystem)- -
        +void safeCopyTo(File destination)
    }
    
@enduml

PlantUML version 1.2021.01(Tue Feb 02 00:55:08 MST 2021)
(GPL source distribution)
Java Runtime: OpenJDK Runtime Environment
JVM: OpenJDK 64-Bit Server VM
Default Encoding: UTF-8
Language: en
Country: US
--></g></svg>