<?xml version="1.0" encoding="UTF-8" standalone="no"?><svg xmlns="http://www.w3.org/2000/svg" xmlns:xlink="http://www.w3.org/1999/xlink" contentScriptType="application/ecmascript" contentStyleType="text/css" height="292.7083px" preserveAspectRatio="none" style="width:887px;height:292px;background:#333333;" version="1.1" viewBox="0 0 887 292" width="887.5px" zoomAndPan="magnify"><defs/><g><rect fill="#48494B" height="41.2028" rx="8.3333" ry="8.3333" style="stroke:#545454;stroke-width:1.0416666666666667;" width="483.3333" x="194.7917" y="2.0833"/><text fill="#C0C0C0" font-family="Open Sans,Avenir,Nunito,Arial,Helvetica,SansSerif" font-size="20.8333" lengthAdjust="spacing" textLength="460.4167" x="206.25" y="30.5583">com.telenav.mesakit.graph.world.virtual.types</text><!--MD5=[7c5c88a606935469d5f89b0b5794816c]
class Named--><rect codeLine="7" fill="#282828" height="48.055" id="Named" rx="8.3333" ry="8.3333" style="stroke:#5E5E5E;stroke-width:1.0416666666666667;" width="82.2917" x="14.5833" y="74.5361"/><rect fill="#1B1B1A" height="31.3883" rx="8.3333" ry="8.3333" style="stroke:#1B1B1A;stroke-width:1.0416666666666667;" width="82.2917" x="14.5833" y="74.5361"/><rect fill="#1B1B1A" height="8.3333" style="stroke:#1B1B1A;stroke-width:1.0416666666666667;" width="82.2917" x="14.5833" y="97.5911"/><rect codeLine="7" fill="none" height="48.055" id="Named" rx="8.3333" ry="8.3333" style="stroke:#5E5E5E;stroke-width:1.0416666666666667;" width="82.2917" x="14.5833" y="74.5361"/><ellipse cx="29.1667" cy="90.2303" fill="#008400" rx="10.4167" ry="10.4167" style="stroke:#239C23;stroke-width:1.0416666666666667;"/><path d="M26.5706,87.3922 L26.5706,85.8053 L31.9967,85.8053 L31.9967,87.3922 L30.1839,87.3922 L30.1839,93.3309 L31.9967,93.3309 L31.9967,94.9178 L26.5706,94.9178 L26.5706,93.3309 L28.3834,93.3309 L28.3834,87.3922 Z " fill="#000000"/><text fill="#D8BC00" font-family="Open Sans,Avenir,Nunito,Arial,Helvetica,SansSerif" font-size="12.5" font-style="italic" font-weight="bold" lengthAdjust="spacing" textLength="44.7917" x="45.8333" y="94.9544">Named</text><line style="stroke:#5E5E5E;stroke-width:1.0416666666666667;" x1="15.625" x2="95.8333" y1="105.9245" y2="105.9245"/><line style="stroke:#5E5E5E;stroke-width:1.0416666666666667;" x1="15.625" x2="95.8333" y1="114.2578" y2="114.2578"/><!--MD5=[43d3c0ba1d3b9c6f5e40c8769cc5b343]
class Source--><rect codeLine="8" fill="#282828" height="48.055" id="Source" rx="8.3333" ry="8.3333" style="stroke:#5E5E5E;stroke-width:1.0416666666666667;" width="80.2083" x="133.3333" y="74.5361"/><rect fill="#1B1B1A" height="31.3883" rx="8.3333" ry="8.3333" style="stroke:#1B1B1A;stroke-width:1.0416666666666667;" width="80.2083" x="133.3333" y="74.5361"/><rect fill="#1B1B1A" height="8.3333" style="stroke:#1B1B1A;stroke-width:1.0416666666666667;" width="80.2083" x="133.3333" y="97.5911"/><rect codeLine="8" fill="none" height="48.055" id="Source" rx="8.3333" ry="8.3333" style="stroke:#5E5E5E;stroke-width:1.0416666666666667;" width="80.2083" x="133.3333" y="74.5361"/><ellipse cx="147.9167" cy="90.2303" fill="#008400" rx="10.4167" ry="10.4167" style="stroke:#239C23;stroke-width:1.0416666666666667;"/><path d="M145.3206,87.3922 L145.3206,85.8053 L150.7467,85.8053 L150.7467,87.3922 L148.9339,87.3922 L148.9339,93.3309 L150.7467,93.3309 L150.7467,94.9178 L145.3206,94.9178 L145.3206,93.3309 L147.1334,93.3309 L147.1334,87.3922 Z " fill="#000000"/><text fill="#D8BC00" font-family="Open Sans,Avenir,Nunito,Arial,Helvetica,SansSerif" font-size="12.5" font-style="italic" font-weight="bold" lengthAdjust="spacing" textLength="42.7083" x="164.5833" y="94.9544">Source</text><line style="stroke:#5E5E5E;stroke-width:1.0416666666666667;" x1="134.375" x2="212.5" y1="105.9245" y2="105.9245"/><line style="stroke:#5E5E5E;stroke-width:1.0416666666666667;" x1="134.375" x2="212.5" y1="114.2578" y2="114.2578"/><!--MD5=[75cc5f2bc57a41f800f7208d8f09ddcd]
class HardReferencedValue--><rect codeLine="10" fill="#282828" height="83.3781" id="HardReferencedValue" rx="8.3333" ry="8.3333" style="stroke:#5E5E5E;stroke-width:1.0416666666666667;" width="192.7083" x="420.8333" y="56.8278"/><rect fill="#1B1B1A" height="31.3883" rx="8.3333" ry="8.3333" style="stroke:#1B1B1A;stroke-width:1.0416666666666667;" width="192.7083" x="420.8333" y="56.8278"/><rect fill="#1B1B1A" height="8.3333" style="stroke:#1B1B1A;stroke-width:1.0416666666666667;" width="192.7083" x="420.8333" y="79.8828"/><rect codeLine="10" fill="none" height="83.3781" id="HardReferencedValue" rx="8.3333" ry="8.3333" style="stroke:#5E5E5E;stroke-width:1.0416666666666667;" width="192.7083" x="420.8333" y="56.8278"/><ellipse cx="435.4167" cy="72.522" fill="#0066CF" rx="10.4167" ry="10.4167" style="stroke:#0086EF;stroke-width:1.0416666666666667;"/><path d="M437.3271,76.947 Q436.8998,77.1667 436.4299,77.2766 Q435.9599,77.3865 435.4411,77.3865 Q433.5978,77.3865 432.6274,76.1719 Q431.6569,74.9573 431.6569,72.6624 Q431.6569,70.3613 432.6274,69.1467 Q433.5978,67.9321 435.4411,67.9321 Q435.9599,67.9321 436.436,68.042 Q436.912,68.1519 437.3271,68.3716 L437.3271,70.3735 Q436.8632,69.9463 436.4268,69.7479 Q435.9904,69.5496 435.5265,69.5496 Q434.5378,69.5496 434.0342,70.3339 Q433.5307,71.1182 433.5307,72.6624 Q433.5307,74.2004 434.0342,74.9847 Q434.5378,75.769 435.5265,75.769 Q435.9904,75.769 436.4268,75.5707 Q436.8632,75.3723 437.3271,74.9451 Z " fill="#000000"/><text fill="#D8BC00" font-family="Open Sans,Avenir,Nunito,Arial,Helvetica,SansSerif" font-size="12.5" font-weight="bold" lengthAdjust="spacing" textLength="136.4583" x="452.0833" y="77.2461">HardReferencedValue</text><rect fill="#333333" height="23.055" style="stroke:#A0A0A0;stroke-width:1.0416666666666667;stroke-dasharray:2.0,2.0;" width="16.6667" x="600" y="53.7028"/><text fill="#A0A0A0" font-family="Open Sans,Avenir,Nunito,Arial,Helvetica,SansSerif" font-size="12.5" font-weight="bold" lengthAdjust="spacing" textLength="8.3333" x="604.1667" y="69.9544">T</text><line style="stroke:#5E5E5E;stroke-width:1.5625;" x1="421.875" x2="612.5" y1="88.2161" y2="88.2161"/><ellipse cx="432.2917" cy="123.586" fill="#84BE84" rx="3.125" ry="3.125" style="stroke:#038048;stroke-width:1.0416666666666667;"/><text fill="#D8BC00" font-family="Open Sans,Avenir,Nunito,Arial,Helvetica,SansSerif" font-size="11.4583" lengthAdjust="spacing" textLength="135.4167" x="443.75" y="130.4972">HardReferencedValue(T)</text><line style="stroke:#5E5E5E;stroke-width:1.0416666666666667;" x1="421.875" x2="473.4375" y1="106.4219" y2="106.4219"/><text fill="#D8BC00" font-family="Open Sans,Avenir,Nunito,Arial,Helvetica,SansSerif" font-size="11.4583" lengthAdjust="spacing" textLength="81.25" x="476.5625" y="110.2315">(constructors)</text><line style="stroke:#5E5E5E;stroke-width:1.0416666666666667;" x1="560.9375" x2="612.5" y1="106.4219" y2="106.4219"/><!--MD5=[7887fcbe9ec54cbacb3997f48a704f2b]
class SoftReference--><rect fill="#282828" height="48.055" id="SoftReference" rx="8.3333" ry="8.3333" style="stroke:#5E5E5E;stroke-width:1.0416666666666667;" width="126.0417" x="650" y="74.5361"/><rect fill="#1B1B1A" height="31.3883" rx="8.3333" ry="8.3333" style="stroke:#1B1B1A;stroke-width:1.0416666666666667;" width="126.0417" x="650" y="74.5361"/><rect fill="#1B1B1A" height="8.3333" style="stroke:#1B1B1A;stroke-width:1.0416666666666667;" width="126.0417" x="650" y="97.5911"/><rect fill="none" height="48.055" id="SoftReference" rx="8.3333" ry="8.3333" style="stroke:#5E5E5E;stroke-width:1.0416666666666667;" width="126.0417" x="650" y="74.5361"/><ellipse cx="664.5833" cy="90.2303" fill="#0066CF" rx="10.4167" ry="10.4167" style="stroke:#0086EF;stroke-width:1.0416666666666667;"/><path d="M666.4937,94.6554 Q666.0665,94.8751 665.5965,94.9849 Q665.1265,95.0948 664.6077,95.0948 Q662.7645,95.0948 661.794,93.8802 Q660.8236,92.6656 660.8236,90.3707 Q660.8236,88.0697 661.794,86.8551 Q662.7645,85.6405 664.6077,85.6405 Q665.1265,85.6405 665.6026,85.7503 Q666.0787,85.8602 666.4937,86.0799 L666.4937,88.0819 Q666.0299,87.6546 665.5935,87.4563 Q665.1571,87.2579 664.6932,87.2579 Q663.7044,87.2579 663.2009,88.0422 Q662.6973,88.8265 662.6973,90.3707 Q662.6973,91.9088 663.2009,92.6931 Q663.7044,93.4774 664.6932,93.4774 Q665.1571,93.4774 665.5935,93.279 Q666.0299,93.0806 666.4937,92.6534 Z " fill="#000000"/><text fill="#D8BC00" font-family="Open Sans,Avenir,Nunito,Arial,Helvetica,SansSerif" font-size="12.5" font-weight="bold" lengthAdjust="spacing" textLength="88.5417" x="681.25" y="94.9544">SoftReference</text><line style="stroke:#5E5E5E;stroke-width:1.0416666666666667;" x1="651.0417" x2="775" y1="105.9245" y2="105.9245"/><line style="stroke:#5E5E5E;stroke-width:1.0416666666666667;" x1="651.0417" x2="775" y1="114.2578" y2="114.2578"/><!--MD5=[2a1f77d545787a1974c9dbbb6524a58c]
class SoftReferencedValue--><rect codeLine="17" fill="#282828" height="83.3781" id="SoftReferencedValue" rx="8.3333" ry="8.3333" style="stroke:#5E5E5E;stroke-width:1.0416666666666667;" width="326.0417" x="550" y="202.6611"/><rect fill="#1B1B1A" height="31.3883" rx="8.3333" ry="8.3333" style="stroke:#1B1B1A;stroke-width:1.0416666666666667;" width="326.0417" x="550" y="202.6611"/><rect fill="#1B1B1A" height="8.3333" style="stroke:#1B1B1A;stroke-width:1.0416666666666667;" width="326.0417" x="550" y="225.7161"/><rect codeLine="17" fill="none" height="83.3781" id="SoftReferencedValue" rx="8.3333" ry="8.3333" style="stroke:#5E5E5E;stroke-width:1.0416666666666667;" width="326.0417" x="550" y="202.6611"/><ellipse cx="630.2083" cy="218.3553" fill="#0066CF" rx="10.4167" ry="10.4167" style="stroke:#0086EF;stroke-width:1.0416666666666667;"/><path d="M632.1187,222.7804 Q631.6915,223.0001 631.2215,223.1099 Q630.7515,223.2198 630.2327,223.2198 Q628.3895,223.2198 627.419,222.0052 Q626.4486,220.7906 626.4486,218.4957 Q626.4486,216.1947 627.419,214.9801 Q628.3895,213.7655 630.2327,213.7655 Q630.7515,213.7655 631.2276,213.8753 Q631.7037,213.9852 632.1187,214.2049 L632.1187,216.2069 Q631.6549,215.7796 631.2185,215.5813 Q630.7821,215.3829 630.3182,215.3829 Q629.3294,215.3829 628.8259,216.1672 Q628.3223,216.9515 628.3223,218.4957 Q628.3223,220.0338 628.8259,220.8181 Q629.3294,221.6024 630.3182,221.6024 Q630.7821,221.6024 631.2185,221.404 Q631.6549,221.2056 632.1187,220.7784 Z " fill="#000000"/><text fill="#D8BC00" font-family="Open Sans,Avenir,Nunito,Arial,Helvetica,SansSerif" font-size="12.5" font-weight="bold" lengthAdjust="spacing" textLength="132.2917" x="653.125" y="223.0794">SoftReferencedValue</text><rect fill="#333333" height="23.055" style="stroke:#A0A0A0;stroke-width:1.0416666666666667;stroke-dasharray:2.0,2.0;" width="16.6667" x="862.5" y="199.5361"/><text fill="#A0A0A0" font-family="Open Sans,Avenir,Nunito,Arial,Helvetica,SansSerif" font-size="12.5" font-weight="bold" lengthAdjust="spacing" textLength="8.3333" x="866.6667" y="215.7878">T</text><line style="stroke:#5E5E5E;stroke-width:1.5625;" x1="551.0417" x2="875" y1="234.0495" y2="234.0495"/><ellipse cx="561.4583" cy="269.4194" fill="#84BE84" rx="3.125" ry="3.125" style="stroke:#038048;stroke-width:1.0416666666666667;"/><text fill="#D8BC00" font-family="Open Sans,Avenir,Nunito,Arial,Helvetica,SansSerif" font-size="11.4583" lengthAdjust="spacing" textLength="293.75" x="572.9167" y="276.3306">SoftReferencedValue(String, T, ReferenceQueue&lt;T&gt;)</text><line style="stroke:#5E5E5E;stroke-width:1.0416666666666667;" x1="551.0417" x2="669.2708" y1="252.2552" y2="252.2552"/><text fill="#D8BC00" font-family="Open Sans,Avenir,Nunito,Arial,Helvetica,SansSerif" font-size="11.4583" lengthAdjust="spacing" textLength="81.25" x="672.3958" y="256.0649">(constructors)</text><line style="stroke:#5E5E5E;stroke-width:1.0416666666666667;" x1="756.7708" x2="875" y1="252.2552" y2="252.2552"/><!--MD5=[c2eae50d6b6880c7fc93ff5f00a94aa3]
class WeakReference--><rect fill="#282828" height="48.055" id="WeakReference" rx="8.3333" ry="8.3333" style="stroke:#5E5E5E;stroke-width:1.0416666666666667;" width="134.375" x="250" y="74.5361"/><rect fill="#1B1B1A" height="31.3883" rx="8.3333" ry="8.3333" style="stroke:#1B1B1A;stroke-width:1.0416666666666667;" width="134.375" x="250" y="74.5361"/><rect fill="#1B1B1A" height="8.3333" style="stroke:#1B1B1A;stroke-width:1.0416666666666667;" width="134.375" x="250" y="97.5911"/><rect fill="none" height="48.055" id="WeakReference" rx="8.3333" ry="8.3333" style="stroke:#5E5E5E;stroke-width:1.0416666666666667;" width="134.375" x="250" y="74.5361"/><ellipse cx="264.5833" cy="90.2303" fill="#0066CF" rx="10.4167" ry="10.4167" style="stroke:#0086EF;stroke-width:1.0416666666666667;"/><path d="M266.4937,94.6554 Q266.0665,94.8751 265.5965,94.9849 Q265.1265,95.0948 264.6077,95.0948 Q262.7645,95.0948 261.794,93.8802 Q260.8236,92.6656 260.8236,90.3707 Q260.8236,88.0697 261.794,86.8551 Q262.7645,85.6405 264.6077,85.6405 Q265.1265,85.6405 265.6026,85.7503 Q266.0787,85.8602 266.4937,86.0799 L266.4937,88.0819 Q266.0299,87.6546 265.5935,87.4563 Q265.1571,87.2579 264.6932,87.2579 Q263.7044,87.2579 263.2009,88.0422 Q262.6973,88.8265 262.6973,90.3707 Q262.6973,91.9088 263.2009,92.6931 Q263.7044,93.4774 264.6932,93.4774 Q265.1571,93.4774 265.5935,93.279 Q266.0299,93.0806 266.4937,92.6534 Z " fill="#000000"/><text fill="#D8BC00" font-family="Open Sans,Avenir,Nunito,Arial,Helvetica,SansSerif" font-size="12.5" font-weight="bold" lengthAdjust="spacing" textLength="96.875" x="281.25" y="94.9544">WeakReference</text><line style="stroke:#5E5E5E;stroke-width:1.0416666666666667;" x1="251.0417" x2="383.3333" y1="105.9245" y2="105.9245"/><line style="stroke:#5E5E5E;stroke-width:1.0416666666666667;" x1="251.0417" x2="383.3333" y1="114.2578" y2="114.2578"/><!--MD5=[9d1e88dabe0bea5bbe7a5a1f11fd960e]
class WeakReferencedValue--><rect codeLine="26" fill="#282828" height="83.3781" id="WeakReferencedValue" rx="8.3333" ry="8.3333" style="stroke:#5E5E5E;stroke-width:1.0416666666666667;" width="332.2917" x="7.2917" y="202.6611"/><rect fill="#1B1B1A" height="31.3883" rx="8.3333" ry="8.3333" style="stroke:#1B1B1A;stroke-width:1.0416666666666667;" width="332.2917" x="7.2917" y="202.6611"/><rect fill="#1B1B1A" height="8.3333" style="stroke:#1B1B1A;stroke-width:1.0416666666666667;" width="332.2917" x="7.2917" y="225.7161"/><rect codeLine="26" fill="none" height="83.3781" id="WeakReferencedValue" rx="8.3333" ry="8.3333" style="stroke:#5E5E5E;stroke-width:1.0416666666666667;" width="332.2917" x="7.2917" y="202.6611"/><ellipse cx="86.4583" cy="218.3553" fill="#0066CF" rx="10.4167" ry="10.4167" style="stroke:#0086EF;stroke-width:1.0416666666666667;"/><path d="M88.3687,222.7804 Q87.9415,223.0001 87.4715,223.1099 Q87.0015,223.2198 86.4827,223.2198 Q84.6395,223.2198 83.669,222.0052 Q82.6986,220.7906 82.6986,218.4957 Q82.6986,216.1947 83.669,214.9801 Q84.6395,213.7655 86.4827,213.7655 Q87.0015,213.7655 87.4776,213.8753 Q87.9537,213.9852 88.3687,214.2049 L88.3687,216.2069 Q87.9049,215.7796 87.4685,215.5813 Q87.0321,215.3829 86.5682,215.3829 Q85.5794,215.3829 85.0759,216.1672 Q84.5723,216.9515 84.5723,218.4957 Q84.5723,220.0338 85.0759,220.8181 Q85.5794,221.6024 86.5682,221.6024 Q87.0321,221.6024 87.4685,221.404 Q87.9049,221.2056 88.3687,220.7784 Z " fill="#000000"/><text fill="#D8BC00" font-family="Open Sans,Avenir,Nunito,Arial,Helvetica,SansSerif" font-size="12.5" font-weight="bold" lengthAdjust="spacing" textLength="140.625" x="109.375" y="223.0794">WeakReferencedValue</text><rect fill="#333333" height="23.055" style="stroke:#A0A0A0;stroke-width:1.0416666666666667;stroke-dasharray:2.0,2.0;" width="16.6667" x="326.0417" y="199.5361"/><text fill="#A0A0A0" font-family="Open Sans,Avenir,Nunito,Arial,Helvetica,SansSerif" font-size="12.5" font-weight="bold" lengthAdjust="spacing" textLength="8.3333" x="330.2083" y="215.7878">T</text><line style="stroke:#5E5E5E;stroke-width:1.5625;" x1="8.3333" x2="338.5417" y1="234.0495" y2="234.0495"/><ellipse cx="18.75" cy="269.4194" fill="#84BE84" rx="3.125" ry="3.125" style="stroke:#038048;stroke-width:1.0416666666666667;"/><text fill="#D8BC00" font-family="Open Sans,Avenir,Nunito,Arial,Helvetica,SansSerif" font-size="11.4583" lengthAdjust="spacing" textLength="300" x="30.2083" y="276.3306">WeakReferencedValue(String, T, ReferenceQueue&lt;T&gt;)</text><line style="stroke:#5E5E5E;stroke-width:1.0416666666666667;" x1="8.3333" x2="129.6875" y1="252.2552" y2="252.2552"/><text fill="#D8BC00" font-family="Open Sans,Avenir,Nunito,Arial,Helvetica,SansSerif" font-size="11.4583" lengthAdjust="spacing" textLength="81.25" x="132.8125" y="256.0649">(constructors)</text><line style="stroke:#5E5E5E;stroke-width:1.0416666666666667;" x1="217.1875" x2="338.5417" y1="252.2552" y2="252.2552"/><!--MD5=[6a7f215a465a38ce84a279bf332c9cc0]
reverse link SoftReference to SoftReferencedValue--><path codeLine="16" d="M713.0208,143.6195 C713.0208,162.4007 713.0208,184.1611 713.0208,202.5465 " fill="none" id="SoftReference-backto-SoftReferencedValue" style="stroke:#545454;stroke-width:1.5625;"/><polygon fill="none" points="705.7292,143.4632,713.0208,122.6299,720.3125,143.4632,705.7292,143.4632" style="stroke:#545454;stroke-width:1.5625;"/><!--MD5=[96e2822c2de6f31c1214038729e98391]
reverse link WeakReference to WeakReferencedValue--><path codeLine="23" d="M279.1771,137.5465 C259.1563,157.5674 234.5833,182.1403 214.1771,202.5465 " fill="none" id="WeakReference-backto-WeakReferencedValue" style="stroke:#545454;stroke-width:1.5625;"/><polygon fill="none" points="274.2083,132.2028,294.0938,122.6299,284.5208,142.5153,274.2083,132.2028" style="stroke:#545454;stroke-width:1.5625;"/><!--MD5=[97b8c8f8f18ad9fefc3e0212f4d0a64f]
reverse link Source to WeakReferencedValue--><path codeLine="24" d="M173.4375,143.6195 C173.4375,162.4007 173.4375,184.1611 173.4375,202.5465 " fill="none" id="Source-backto-WeakReferencedValue" style="stroke:#545454;stroke-width:1.5625;"/><polygon fill="none" points="166.1458,143.4632,173.4375,122.6299,180.7292,143.4632,166.1458,143.4632" style="stroke:#545454;stroke-width:1.5625;"/><!--MD5=[082f842d96650e2dfbeb6366041bfe02]
reverse link Named to WeakReferencedValue--><path codeLine="25" d="M88.0833,139.0465 C104.2396,158.7861 123.7813,182.6403 140.0833,202.5465 " fill="none" id="Named-backto-WeakReferencedValue" style="stroke:#545454;stroke-width:1.5625;"/><polygon fill="none" points="82.1979,143.3695,74.6458,122.6299,93.4792,134.1299,82.1979,143.3695" style="stroke:#545454;stroke-width:1.5625;"/><!--MD5=[5b6a2b5c737994a6f2be4ef21a60f8a7]
@startuml

    !include lexakai.theme
    
    title "com.telenav.mesakit.graph.world.virtual.types"
    
    interface Named
    interface Source
    
    class HardReferencedValue<T>
    {
        - -(constructors)- -
        +HardReferencedValue(T)
    }
    
    SoftReference <|- - SoftReferencedValue
    class SoftReferencedValue<T>
    {
        - -(constructors)- -
        +SoftReferencedValue(String, T, ReferenceQueue<T>)
    }
    
    WeakReference <|- - WeakReferencedValue
    Source <|- - WeakReferencedValue
    Named <|- - WeakReferencedValue
    class WeakReferencedValue<T>
    {
        - -(constructors)- -
        +WeakReferencedValue(String, T, ReferenceQueue<T>)
    }
    
@enduml

@startuml









skinparam backgroundColor #333333






skinparam  {
    defaultFontName   "Open Sans,Avenir,Nunito,Arial,Helvetica,SansSerif"
    defaultFontSize   12
    defaultTextAlignment left
    shadowing false
    RoundCorner 10
    TitleFontSize 18
}

skinparam defaultFontName       "Open Sans,Avenir,Nunito,Arial,Helvetica,SansSerif"
skinparam defaultFontSize       12
skinparam dpi                   100
skinparam shadowing             false
skinparam roundcorner           16
skinparam ParticipantPadding    40
skinparam BoxPadding            40
skinparam Padding               3
skinparam ArrowColor            #545454
skinparam stereotype {
    CBackgroundColor #0066cf
    CBorderColor #0086ef
    ABackgroundColor #C8Ac00
    ABorderColor #D8Bc00
    IBackgroundColor #008400
    IBorderColor #239c23
    EBackgroundColor #cf6300
    EBorderColor #ef8300
    NBackgroundColor #3380b9
    NBorderColor #004d86
}
skinparam title {
	FontColor	                 #c0c0c0
 	BorderColor                  #545454
	FontSize	    	         20
	BorderRoundCorner            16
	BorderThickness 	         1
	BackgroundColor              #48494b
}


skinparam legend {
	BackgroundColor #303030
	BorderColor #404040
	FontColor #a0a0a0
}

	skinparam swimlane {
	BorderColor #5e5e5e
	BorderThickness 2
	TitleBackgroundColor  #6d6d6d-#484848
	TitleFontColor #303030
}

skinparam activity {
		FontColor #C8Ac00
	BorderColor #333333
	BackgroundColor #333333-#333333
	BarColor #00FF00
	StartColor #0060a8
	EndColor #0060a8
	DiamondBackgroundColor #6d6d6d-#3a3a3a
  	DiamondBorderColor #3a3a3a
  	DiamondFontColor #fefefe
}


skinparam participant {
		FontColor #C8Ac00
	BorderColor #333333
	BackgroundColor #333333-#333333
	ParticipantBorderThickness 2
}


skinparam actor {
		FontColor #C8Ac00
	BorderColor #333333
	BackgroundColor #333333-#333333
}


skinparam arrow {
	Thickness 1.5
	Color #545454
	FontColor #a0a0a0
    FontStyle bold
    MessageAlignment center
}



skinparam sequence {
	BorderColor #303030
	TitleFontColor #303030
	BackgroundColor #333333
	StartColor #303030
	EndColor #303030
	BoxBackgroundColor #333333
	BoxBorderColor #484848
	BoxFontColor #484848
	LifeLineBorderColor #484848
	LifeLineBorderThickness 2
	LifeLineBackgroundColor #3a3a3a
	GroupBorderColor #484848
	GroupFontColor #484848
	GroupHeaderFontColor #0060a8
	GroupBackgroundColor #484848
	GroupHeaderBackgroundColor #333333
	DividerBackgroundColor #484848
    DividerBorderColor #484848
    DividerBorderThickness 2
    DividerFontColor #D8Bc00
	ReferenceBackgroundColor #333333
	ReferenceBorderColor #484848
	ReferenceFontColor #fefefe
	ReferenceHeaderBackgroundColor #484848
}


skinparam partition {
	BorderColor #303030
	FontColor #333333
	BackgroundColor #333333
}


skinparam collections {
		FontColor #C8Ac00
	BorderColor #333333
	BackgroundColor #333333-#333333
}


skinparam control {
		FontColor #C8Ac00
	BorderColor #333333
	BackgroundColor #333333-#333333
}


skinparam entity {
		FontColor #C8Ac00
	BorderColor #333333
	BackgroundColor #333333-#333333
}


skinparam boundary {
		FontColor #C8Ac00
	BorderColor #333333
	BackgroundColor #333333-#333333
}


skinparam agent {
	BackgroundColor #ff8000
	BorderColor #ff9933
	FontColor #484848
}


skinparam note {
	BorderThickness 1
	BackgroundColor #1b1b1a
	BorderColor #5e5e5e
	FontSize 11
	FontColor #a0a0a0
}


skinparam artifact {
	BorderThickness 10
	BorderColor #5e5e5e
	BackgroundColor #1b1b1a
	FontColor #D8Bc00
}


skinparam component {
		FontColor #C8Ac00
	BorderColor #333333
	BackgroundColor #333333-#333333
}


skinparam interface {
	BackgroundColor  #008400
	BorderColor  #007F00
	FontColor #484848
}


skinparam storage {
	BackgroundColor #ff8000
  	BorderColor #cc6600
	FontColor #222222
}


skinparam node {
	BackgroundColor #333333
	BorderColor #333333
	FontColor #C8Ac00
}


skinparam cloud {
	BackgroundColor #484848-black
	BorderColor #484848
	FontColor #D8Bc00
}


skinparam database {
		FontColor #C8Ac00
	BorderColor #333333
	BackgroundColor #333333-#333333
	BackgroundColor  #333333
}


skinparam class {
		FontColor #C8Ac00
	BorderColor #333333
	BackgroundColor #333333-#333333
	HeaderBackgroundColor #1b1b1a
    BackgroundColor #282828
    BorderColor #5e5e5e
 	StereotypeFontColor #a0a0a0
    StereotypeFontStyle bold
	BorderThickness 1
	AttributeFontColor #D8Bc00
	AttributeFontSize 11
    FontColor #D8Bc00
    FontStyle bold
}


skinparam object {
		FontColor #C8Ac00
	BorderColor #333333
	BackgroundColor #333333-#333333
	StereotypeFontColor #484848
	BorderThickness 1
	AttributeFontColor #fefefe
	AttributeFontSize 11
}


skinparam usecase {
		FontColor #C8Ac00
	BorderColor #333333
	BackgroundColor #333333-#333333
	BorderThickness 2
	StereotypeFontColor #303030
}


skinparam rectangle {
		FontColor #C8Ac00
	BorderColor #333333
	BackgroundColor #333333-#333333
	BackgroundColor #333333
	BorderThickness 2
	StereotypeFontColor #303030
}


skinparam package {
		FontColor #C8Ac00
	BorderColor #333333
	BackgroundColor #333333-#333333
	BackgroundColor #333333
	BorderThickness 2
}


skinparam folder {
	BackgroundColor #6d6d6d
  	BorderColor #ff8000
	FontColor #ff8000
	BorderThickness 2
}


skinparam frame {
	BackgroundColor #6d6d6d
  	BorderColor #0060a8
	FontColor #0060a8
	BorderThickness 2
}


skinparam state {
		FontColor #C8Ac00
	BorderColor #333333
	BackgroundColor #333333-#333333
	StartColor #0060a8
	EndColor #0060a8
	AttributeFontColor #fefefe
	AttributeFontSize 11
}


skinparam queue {
		FontColor #C8Ac00
	BorderColor #333333
	BackgroundColor #333333-#333333
}


skinparam card {
	BackgroundColor #0060a8
	BorderColor #004d86
	FontColor $INFO_TEXT
}


skinparam file {
	BackgroundColor #6d6d6d-#484848
	BorderColor #0060a8
	FontColor #fefefe
}


skinparam stack {
		FontColor #C8Ac00
	BorderColor #333333
	BackgroundColor #333333-#333333
}

    
    title "com.telenav.mesakit.graph.world.virtual.types"
    
    interface Named
    interface Source
    
    class HardReferencedValue<T>
    {
        - -(constructors)- -
        +HardReferencedValue(T)
    }
    
    SoftReference <|- - SoftReferencedValue
    class SoftReferencedValue<T>
    {
        - -(constructors)- -
        +SoftReferencedValue(String, T, ReferenceQueue<T>)
    }
    
    WeakReference <|- - WeakReferencedValue
    Source <|- - WeakReferencedValue
    Named <|- - WeakReferencedValue
    class WeakReferencedValue<T>
    {
        - -(constructors)- -
        +WeakReferencedValue(String, T, ReferenceQueue<T>)
    }
    
@enduml

PlantUML version 1.2021.01(Tue Feb 02 02:55:08 EST 2021)
(GPL source distribution)
Java Runtime: OpenJDK Runtime Environment
JVM: OpenJDK 64-Bit Server VM
Default Encoding: UTF-8
Language: en
Country: US
--></g></svg>