<?xml version="1.0" encoding="UTF-8" standalone="no"?><svg xmlns="http://www.w3.org/2000/svg" xmlns:xlink="http://www.w3.org/1999/xlink" contentScriptType="application/ecmascript" contentStyleType="text/css" height="385.4167px" preserveAspectRatio="none" style="width:547px;height:385px;background:#333333;" version="1.1" viewBox="0 0 547 385" width="547.9167px" zoomAndPan="magnify"><defs/><g><rect fill="#48494B" height="41.2028" rx="8.3333" ry="8.3333" style="stroke:#545454;stroke-width:1.0416666666666667;" width="535.4167" x="2.0833" y="2.0833"/><text fill="#C0C0C0" font-family="Open Sans,Avenir,Nunito,Arial,Helvetica,SansSerif" font-size="20.8333" lengthAdjust="spacing" textLength="512.5" x="13.5417" y="30.5583">com.telenav.mesakit.map.ui.desktop.graphics.style</text><rect fill="#282828" height="48.055" id="Stroke" rx="8.3333" ry="8.3333" style="stroke:#5E5E5E;stroke-width:1.0416666666666667;" width="79.1667" x="238.5417" y="53.7028"/><rect fill="#1B1B1A" height="31.3883" rx="8.3333" ry="8.3333" style="stroke:#1B1B1A;stroke-width:1.0416666666666667;" width="79.1667" x="238.5417" y="53.7028"/><rect fill="#1B1B1A" height="8.3333" style="stroke:#1B1B1A;stroke-width:1.0416666666666667;" width="79.1667" x="238.5417" y="76.7578"/><rect fill="none" height="48.055" id="Stroke" rx="8.3333" ry="8.3333" style="stroke:#5E5E5E;stroke-width:1.0416666666666667;" width="79.1667" x="238.5417" y="53.7028"/><ellipse cx="253.125" cy="69.397" fill="#0066CF" rx="10.4167" ry="10.4167" style="stroke:#0086EF;stroke-width:1.0416666666666667;"/><path d="M255.0354,73.822 Q254.6082,74.0417 254.1382,74.1516 Q253.6682,74.2615 253.1494,74.2615 Q251.3062,74.2615 250.3357,73.0469 Q249.3652,71.8323 249.3652,69.5374 Q249.3652,67.2363 250.3357,66.0217 Q251.3062,64.8071 253.1494,64.8071 Q253.6682,64.8071 254.1443,64.917 Q254.6204,65.0269 255.0354,65.2466 L255.0354,67.2485 Q254.5715,66.8213 254.1351,66.6229 Q253.6987,66.4246 253.2349,66.4246 Q252.2461,66.4246 251.7426,67.2089 Q251.239,67.9932 251.239,69.5374 Q251.239,71.0754 251.7426,71.8597 Q252.2461,72.644 253.2349,72.644 Q253.6987,72.644 254.1351,72.4457 Q254.5715,72.2473 255.0354,71.8201 Z " fill="#000000"/><text fill="#D8BC00" font-family="Open Sans,Avenir,Nunito,Arial,Helvetica,SansSerif" font-size="12.5" font-weight="bold" lengthAdjust="spacing" textLength="41.6667" x="269.7917" y="74.1211">Stroke</text><line style="stroke:#5E5E5E;stroke-width:1.0416666666666667;" x1="239.5833" x2="316.6667" y1="85.0911" y2="85.0911"/><line style="stroke:#5E5E5E;stroke-width:1.0416666666666667;" x1="239.5833" x2="316.6667" y1="93.4245" y2="93.4245"/><rect codeLine="8" fill="#282828" height="214.3473" id="MapStroke" rx="8.3333" ry="8.3333" style="stroke:#5E5E5E;stroke-width:1.0416666666666667;" width="237.5" x="159.375" y="164.1195"/><rect fill="#1B1B1A" height="31.3883" rx="8.3333" ry="8.3333" style="stroke:#1B1B1A;stroke-width:1.0416666666666667;" width="237.5" x="159.375" y="164.1195"/><rect fill="#1B1B1A" height="8.3333" style="stroke:#1B1B1A;stroke-width:1.0416666666666667;" width="237.5" x="159.375" y="187.1745"/><rect codeLine="8" fill="none" height="214.3473" id="MapStroke" rx="8.3333" ry="8.3333" style="stroke:#5E5E5E;stroke-width:1.0416666666666667;" width="237.5" x="159.375" y="164.1195"/><ellipse cx="236.4583" cy="179.8136" fill="#0066CF" rx="10.4167" ry="10.4167" style="stroke:#0086EF;stroke-width:1.0416666666666667;"/><path d="M238.3687,184.2387 Q237.9415,184.4584 237.4715,184.5683 Q237.0015,184.6781 236.4827,184.6781 Q234.6395,184.6781 233.669,183.4635 Q232.6986,182.2489 232.6986,179.954 Q232.6986,177.653 233.669,176.4384 Q234.6395,175.2238 236.4827,175.2238 Q237.0015,175.2238 237.4776,175.3337 Q237.9537,175.4435 238.3687,175.6632 L238.3687,177.6652 Q237.9049,177.238 237.4685,177.0396 Q237.0321,176.8412 236.5682,176.8412 Q235.5794,176.8412 235.0759,177.6255 Q234.5723,178.4098 234.5723,179.954 Q234.5723,181.4921 235.0759,182.2764 Q235.5794,183.0607 236.5682,183.0607 Q237.0321,183.0607 237.4685,182.8623 Q237.9049,182.664 238.3687,182.2367 Z " fill="#000000"/><text fill="#D8BC00" font-family="Open Sans,Avenir,Nunito,Arial,Helvetica,SansSerif" font-size="12.5" font-weight="bold" lengthAdjust="spacing" textLength="68.75" x="259.375" y="184.5378">MapStroke</text><line style="stroke:#5E5E5E;stroke-width:1.5625;" x1="160.4167" x2="395.8333" y1="195.5078" y2="195.5078"/><polygon fill="#FFFF44" points="170.8333,225.6694,175,229.836,170.8333,234.0027,166.6667,229.836" style="stroke:#B38D22;stroke-width:1.0416666666666667;"/><text fill="#D8BC00" font-family="Open Sans,Avenir,Nunito,Arial,Helvetica,SansSerif" font-size="11.4583" lengthAdjust="spacing" textLength="66.6667" x="182.2917" y="237.7889">MapStroke()</text><polygon fill="#FFFF44" points="170.8333,245.4142,175,249.5809,170.8333,253.7476,166.6667,249.5809" style="stroke:#B38D22;stroke-width:1.0416666666666667;"/><text fill="#D8BC00" font-family="Open Sans,Avenir,Nunito,Arial,Helvetica,SansSerif" font-size="11.4583" lengthAdjust="spacing" textLength="125" x="182.2917" y="257.5338">MapStroke(MapStroke)</text><line style="stroke:#5E5E5E;stroke-width:1.0416666666666667;" x1="160.4167" x2="234.375" y1="213.7136" y2="213.7136"/><text fill="#D8BC00" font-family="Open Sans,Avenir,Nunito,Arial,Helvetica,SansSerif" font-size="11.4583" lengthAdjust="spacing" textLength="81.25" x="237.5" y="217.5232">(constructors)</text><line style="stroke:#5E5E5E;stroke-width:1.0416666666666667;" x1="321.875" x2="395.8333" y1="213.7136" y2="213.7136"/><line style="stroke:#5E5E5E;stroke-width:1.0416666666666667;" x1="160.4167" x2="395.8333" y1="267.2424" y2="267.2424"/><ellipse cx="170.8333" cy="278.7008" fill="#84BE84" rx="3.125" ry="3.125" style="stroke:#038048;stroke-width:1.0416666666666667;"/><text fill="#D8BC00" font-family="Open Sans,Avenir,Nunito,Arial,Helvetica,SansSerif" font-size="11.4583" lengthAdjust="spacing" textLength="201.0417" x="182.2917" y="285.612">void apply(Graphics2D, MapCanvas)</text><ellipse cx="170.8333" cy="322.3572" fill="#84BE84" rx="3.125" ry="3.125" style="stroke:#038048;stroke-width:1.0416666666666667;"/><text fill="#D8BC00" font-family="Open Sans,Avenir,Nunito,Arial,Helvetica,SansSerif" font-size="11.4583" lengthAdjust="spacing" textLength="105.2083" x="182.2917" y="329.2684">MapStroke stroke()</text><ellipse cx="170.8333" cy="342.1021" fill="#84BE84" rx="3.125" ry="3.125" style="stroke:#038048;stroke-width:1.0416666666666667;"/><text fill="#D8BC00" font-family="Open Sans,Avenir,Nunito,Arial,Helvetica,SansSerif" font-size="11.4583" lengthAdjust="spacing" textLength="186.4583" x="182.2917" y="349.0133">MapStroke stroke(Distance width)</text><ellipse cx="170.8333" cy="361.8469" fill="#84BE84" rx="3.125" ry="3.125" style="stroke:#038048;stroke-width:1.0416666666666667;"/><text fill="#D8BC00" font-family="Open Sans,Avenir,Nunito,Arial,Helvetica,SansSerif" font-size="11.4583" lengthAdjust="spacing" textLength="205.2083" x="182.2917" y="368.7581">MapStroke withWidth(Distance width)</text><line style="stroke:#5E5E5E;stroke-width:1.0416666666666667;" x1="160.4167" x2="243.75" y1="305.1931" y2="305.1931"/><text fill="#D8BC00" font-family="Open Sans,Avenir,Nunito,Arial,Helvetica,SansSerif" font-size="11.4583" lengthAdjust="spacing" textLength="62.5" x="246.875" y="309.0027">(collection)</text><line style="stroke:#5E5E5E;stroke-width:1.0416666666666667;" x1="312.5" x2="395.8333" y1="305.1931" y2="305.1931"/><path codeLine="7" d="M278.125,122.807 C278.125,135.2965 278.125,149.4528 278.125,163.9424 " fill="none" id="Stroke-backto-MapStroke" style="stroke:#545454;stroke-width:1.5625;"/><polygon fill="none" points="270.8333,122.6507,278.125,101.8174,285.4167,122.6507,270.8333,122.6507" style="stroke:#545454;stroke-width:1.5625;"/></g></svg>
