<?xml version="1.0" encoding="UTF-8" standalone="no"?><svg xmlns="http://www.w3.org/2000/svg" xmlns:xlink="http://www.w3.org/1999/xlink" contentScriptType="application/ecmascript" contentStyleType="text/css" height="385.4167px" preserveAspectRatio="none" style="width:386px;height:385px;background:#333333;" version="1.1" viewBox="0 0 386 385" width="386.4583px" zoomAndPan="magnify"><defs/><g><rect fill="#48494B" height="41.2028" rx="8.3333" ry="8.3333" style="stroke:#545454;stroke-width:1.0416666666666667;" width="373.9583" x="2.0833" y="2.0833"/><text fill="#C0C0C0" font-family="Open Sans,Avenir,Nunito,Arial,Helvetica,SansSerif" font-size="20.8333" lengthAdjust="spacing" textLength="351.0417" x="13.5417" y="30.5583">com.telenav.mesakit.map.ui.debug</text><rect fill="#282828" height="48.055" id="DesktopViewer" rx="8.3333" ry="8.3333" style="stroke:#5E5E5E;stroke-width:1.0416666666666667;" width="135.4167" x="128.6458" y="53.7028"/><rect fill="#1B1B1A" height="31.3883" rx="8.3333" ry="8.3333" style="stroke:#1B1B1A;stroke-width:1.0416666666666667;" width="135.4167" x="128.6458" y="53.7028"/><rect fill="#1B1B1A" height="8.3333" style="stroke:#1B1B1A;stroke-width:1.0416666666666667;" width="135.4167" x="128.6458" y="76.7578"/><rect fill="none" height="48.055" id="DesktopViewer" rx="8.3333" ry="8.3333" style="stroke:#5E5E5E;stroke-width:1.0416666666666667;" width="135.4167" x="128.6458" y="53.7028"/><ellipse cx="143.2292" cy="69.397" fill="#0066CF" rx="10.4167" ry="10.4167" style="stroke:#0086EF;stroke-width:1.0416666666666667;"/><path d="M145.1396,73.822 Q144.7123,74.0417 144.2424,74.1516 Q143.7724,74.2615 143.2536,74.2615 Q141.4103,74.2615 140.4399,73.0469 Q139.4694,71.8323 139.4694,69.5374 Q139.4694,67.2363 140.4399,66.0217 Q141.4103,64.8071 143.2536,64.8071 Q143.7724,64.8071 144.2485,64.917 Q144.7245,65.0269 145.1396,65.2466 L145.1396,67.2485 Q144.6757,66.8213 144.2393,66.6229 Q143.8029,66.4246 143.339,66.4246 Q142.3503,66.4246 141.8467,67.2089 Q141.3432,67.9932 141.3432,69.5374 Q141.3432,71.0754 141.8467,71.8597 Q142.3503,72.644 143.339,72.644 Q143.8029,72.644 144.2393,72.4457 Q144.6757,72.2473 145.1396,71.8201 Z " fill="#000000"/><text fill="#D8BC00" font-family="Open Sans,Avenir,Nunito,Arial,Helvetica,SansSerif" font-size="12.5" font-weight="bold" lengthAdjust="spacing" textLength="97.9167" x="159.8958" y="74.1211">DesktopViewer</text><line style="stroke:#5E5E5E;stroke-width:1.0416666666666667;" x1="129.6875" x2="263.0208" y1="85.0911" y2="85.0911"/><line style="stroke:#5E5E5E;stroke-width:1.0416666666666667;" x1="129.6875" x2="263.0208" y1="93.4245" y2="93.4245"/><rect codeLine="8" fill="#282828" height="214.3473" id="DebugViewer" rx="8.3333" ry="8.3333" style="stroke:#5E5E5E;stroke-width:1.0416666666666667;" width="214.5833" x="89.0625" y="164.1195"/><rect fill="#1B1B1A" height="31.3883" rx="8.3333" ry="8.3333" style="stroke:#1B1B1A;stroke-width:1.0416666666666667;" width="214.5833" x="89.0625" y="164.1195"/><rect fill="#1B1B1A" height="8.3333" style="stroke:#1B1B1A;stroke-width:1.0416666666666667;" width="214.5833" x="89.0625" y="187.1745"/><rect codeLine="8" fill="none" height="214.3473" id="DebugViewer" rx="8.3333" ry="8.3333" style="stroke:#5E5E5E;stroke-width:1.0416666666666667;" width="214.5833" x="89.0625" y="164.1195"/><ellipse cx="146.3542" cy="179.8136" fill="#0066CF" rx="10.4167" ry="10.4167" style="stroke:#0086EF;stroke-width:1.0416666666666667;"/><path d="M148.2646,184.2387 Q147.8373,184.4584 147.3674,184.5683 Q146.8974,184.6781 146.3786,184.6781 Q144.5353,184.6781 143.5649,183.4635 Q142.5944,182.2489 142.5944,179.954 Q142.5944,177.653 143.5649,176.4384 Q144.5353,175.2238 146.3786,175.2238 Q146.8974,175.2238 147.3735,175.3337 Q147.8495,175.4435 148.2646,175.6632 L148.2646,177.6652 Q147.8007,177.238 147.3643,177.0396 Q146.9279,176.8412 146.464,176.8412 Q145.4753,176.8412 144.9717,177.6255 Q144.4682,178.4098 144.4682,179.954 Q144.4682,181.4921 144.9717,182.2764 Q145.4753,183.0607 146.464,183.0607 Q146.9279,183.0607 147.3643,182.8623 Q147.8007,182.664 148.2646,182.2367 Z " fill="#000000"/><text fill="#D8BC00" font-family="Open Sans,Avenir,Nunito,Arial,Helvetica,SansSerif" font-size="12.5" font-weight="bold" lengthAdjust="spacing" textLength="85.4167" x="169.2708" y="184.5378">DebugViewer</text><line style="stroke:#5E5E5E;stroke-width:1.5625;" x1="90.1042" x2="302.6042" y1="195.5078" y2="195.5078"/><line style="stroke:#5E5E5E;stroke-width:1.0416666666666667;" x1="90.1042" x2="302.6042" y1="203.8411" y2="203.8411"/><ellipse cx="100.5208" cy="215.2995" fill="#84BE84" rx="3.125" ry="3.125" style="stroke:#038048;stroke-width:1.0416666666666667;"/><text fill="#D8BC00" font-family="Open Sans,Avenir,Nunito,Arial,Helvetica,SansSerif" font-size="11.4583" lengthAdjust="spacing" textLength="120.8333" x="111.9792" y="222.2107">void frameComplete()</text><ellipse cx="100.5208" cy="235.0444" fill="#84BE84" rx="3.125" ry="3.125" style="stroke:#038048;stroke-width:1.0416666666666667;"/><text fill="#D8BC00" font-family="Open Sans,Avenir,Nunito,Arial,Helvetica,SansSerif" font-size="11.4583" lengthAdjust="spacing" textLength="182.2917" x="111.9792" y="241.9556">void frameSpeed(Duration delay)</text><ellipse cx="100.5208" cy="254.7892" fill="#84BE84" rx="3.125" ry="3.125" style="stroke:#038048;stroke-width:1.0416666666666667;"/><text fill="#D8BC00" font-family="Open Sans,Avenir,Nunito,Arial,Helvetica,SansSerif" font-size="11.4583" lengthAdjust="spacing" textLength="118.75" x="111.9792" y="261.7004">InteractiveView view()</text><ellipse cx="100.5208" cy="298.4456" fill="#84BE84" rx="3.125" ry="3.125" style="stroke:#038048;stroke-width:1.0416666666666667;"/><text fill="#D8BC00" font-family="Open Sans,Avenir,Nunito,Arial,Helvetica,SansSerif" font-size="11.4583" lengthAdjust="spacing" textLength="62.5" x="111.9792" y="305.3569">void clear()</text><line style="stroke:#5E5E5E;stroke-width:1.0416666666666667;" x1="90.1042" x2="161.9792" y1="281.2815" y2="281.2815"/><text fill="#D8BC00" font-family="Open Sans,Avenir,Nunito,Arial,Helvetica,SansSerif" font-size="11.4583" lengthAdjust="spacing" textLength="62.5" x="165.1042" y="285.0911">(collection)</text><line style="stroke:#5E5E5E;stroke-width:1.0416666666666667;" x1="230.7292" x2="302.6042" y1="281.2815" y2="281.2815"/><ellipse cx="100.5208" cy="342.1021" fill="#84BE84" rx="3.125" ry="3.125" style="stroke:#038048;stroke-width:1.0416666666666667;"/><text fill="#D8BC00" font-family="Open Sans,Avenir,Nunito,Arial,Helvetica,SansSerif" font-size="11.4583" lengthAdjust="spacing" textLength="128.125" x="111.9792" y="349.0133">void end(Location end)</text><ellipse cx="100.5208" cy="361.8469" fill="#84BE84" rx="3.125" ry="3.125" style="stroke:#038048;stroke-width:1.0416666666666667;"/><text fill="#D8BC00" font-family="Open Sans,Avenir,Nunito,Arial,Helvetica,SansSerif" font-size="11.4583" lengthAdjust="spacing" textLength="138.5417" x="111.9792" y="368.7581">void start(Location start)</text><line style="stroke:#5E5E5E;stroke-width:1.0416666666666667;" x1="90.1042" x2="166.6667" y1="324.9379" y2="324.9379"/><text fill="#D8BC00" font-family="Open Sans,Avenir,Nunito,Arial,Helvetica,SansSerif" font-size="11.4583" lengthAdjust="spacing" textLength="53.125" x="169.7917" y="328.7476">(lifecycle)</text><line style="stroke:#5E5E5E;stroke-width:1.0416666666666667;" x1="226.0417" x2="302.6042" y1="324.9379" y2="324.9379"/><path codeLine="7" d="M196.3542,122.807 C196.3542,135.2965 196.3542,149.4528 196.3542,163.9424 " fill="none" id="DesktopViewer-backto-DebugViewer" style="stroke:#545454;stroke-width:1.5625;"/><polygon fill="none" points="189.0625,122.6507,196.3542,101.8174,203.6458,122.6507,189.0625,122.6507" style="stroke:#545454;stroke-width:1.5625;"/></g></svg>
