<?xml version="1.0" encoding="UTF-8" standalone="no"?><svg xmlns="http://www.w3.org/2000/svg" xmlns:xlink="http://www.w3.org/1999/xlink" contentScriptType="application/ecmascript" contentStyleType="text/css" height="254.1667px" preserveAspectRatio="none" style="width:728px;height:254px;background:#333333;" version="1.1" viewBox="0 0 728 254" width="728.125px" zoomAndPan="magnify"><defs/><g><rect fill="#48494B" height="41.2028" rx="8.3333" ry="8.3333" style="stroke:#545454;stroke-width:1.0416666666666667;" width="715.625" x="2.0833" y="2.0833"/><text fill="#C0C0C0" font-family="Open Sans,Avenir,Nunito,Arial,Helvetica,SansSerif" font-size="20.8333" lengthAdjust="spacing" textLength="692.7083" x="13.5417" y="30.5583">com.telenav.mesakit.map.road.name.standardizer.locales.indonesian</text><rect codeLine="7" fill="#282828" height="48.055" id="BaseRoadNameStandardizer" rx="8.3333" ry="8.3333" style="stroke:#5E5E5E;stroke-width:1.0416666666666667;" width="217.7083" x="114.8438" y="71.4111"/><rect fill="#1B1B1A" height="31.3883" rx="8.3333" ry="8.3333" style="stroke:#1B1B1A;stroke-width:1.0416666666666667;" width="217.7083" x="114.8438" y="71.4111"/><rect fill="#1B1B1A" height="8.3333" style="stroke:#1B1B1A;stroke-width:1.0416666666666667;" width="217.7083" x="114.8438" y="94.4661"/><rect codeLine="7" fill="none" height="48.055" id="BaseRoadNameStandardizer" rx="8.3333" ry="8.3333" style="stroke:#5E5E5E;stroke-width:1.0416666666666667;" width="217.7083" x="114.8438" y="71.4111"/><ellipse cx="129.4271" cy="87.1053" fill="#C8AC00" rx="10.4167" ry="10.4167" style="stroke:#D8BC00;stroke-width:1.0416666666666667;"/><path d="M129.0202,83.8074 L128.1718,87.5366 L129.8747,87.5366 Z M127.9215,82.1594 L130.1249,82.1594 L132.5846,91.272 L130.7841,91.272 L130.2226,89.0198 L127.8117,89.0198 L127.2624,91.272 L125.4618,91.272 Z " fill="#000000"/><text fill="#D8BC00" font-family="Open Sans,Avenir,Nunito,Arial,Helvetica,SansSerif" font-size="12.5" font-style="italic" font-weight="bold" lengthAdjust="spacing" textLength="180.2083" x="146.0938" y="91.8294">BaseRoadNameStandardizer</text><line style="stroke:#5E5E5E;stroke-width:1.0416666666666667;" x1="115.8854" x2="331.5104" y1="102.7995" y2="102.7995"/><line style="stroke:#5E5E5E;stroke-width:1.0416666666666667;" x1="115.8854" x2="331.5104" y1="111.1328" y2="111.1328"/><rect codeLine="10" fill="#282828" height="48.055" id="IndonesianIndonesiaRoadNameStandardizer" rx="8.3333" ry="8.3333" style="stroke:#5E5E5E;stroke-width:1.0416666666666667;" width="322.9167" x="62.2396" y="199.5361"/><rect fill="#1B1B1A" height="31.3883" rx="8.3333" ry="8.3333" style="stroke:#1B1B1A;stroke-width:1.0416666666666667;" width="322.9167" x="62.2396" y="199.5361"/><rect fill="#1B1B1A" height="8.3333" style="stroke:#1B1B1A;stroke-width:1.0416666666666667;" width="322.9167" x="62.2396" y="222.5911"/><rect codeLine="10" fill="none" height="48.055" id="IndonesianIndonesiaRoadNameStandardizer" rx="8.3333" ry="8.3333" style="stroke:#5E5E5E;stroke-width:1.0416666666666667;" width="322.9167" x="62.2396" y="199.5361"/><ellipse cx="76.8229" cy="215.2303" fill="#0066CF" rx="10.4167" ry="10.4167" style="stroke:#0086EF;stroke-width:1.0416666666666667;"/><path d="M78.7333,219.6554 Q78.3061,219.8751 77.8361,219.9849 Q77.3661,220.0948 76.8473,220.0948 Q75.0041,220.0948 74.0336,218.8802 Q73.0632,217.6656 73.0632,215.3707 Q73.0632,213.0697 74.0336,211.8551 Q75.0041,210.6405 76.8473,210.6405 Q77.3661,210.6405 77.8422,210.7503 Q78.3183,210.8602 78.7333,211.0799 L78.7333,213.0819 Q78.2694,212.6546 77.833,212.4563 Q77.3966,212.2579 76.9328,212.2579 Q75.944,212.2579 75.4405,213.0422 Q74.9369,213.8265 74.9369,215.3707 Q74.9369,216.9088 75.4405,217.6931 Q75.944,218.4774 76.9328,218.4774 Q77.3966,218.4774 77.833,218.279 Q78.2694,218.0806 78.7333,217.6534 Z " fill="#000000"/><text fill="#D8BC00" font-family="Open Sans,Avenir,Nunito,Arial,Helvetica,SansSerif" font-size="12.5" font-weight="bold" lengthAdjust="spacing" textLength="285.4167" x="93.4896" y="219.9544">IndonesianIndonesiaRoadNameStandardizer</text><line style="stroke:#5E5E5E;stroke-width:1.0416666666666667;" x1="63.2813" x2="384.1146" y1="230.9245" y2="230.9245"/><line style="stroke:#5E5E5E;stroke-width:1.0416666666666667;" x1="63.2813" x2="384.1146" y1="239.2578" y2="239.2578"/><rect codeLine="14" fill="#282828" height="83.3781" id="SimpleIndonesianRoadNameStandardizer" rx="8.3333" ry="8.3333" style="stroke:#5E5E5E;stroke-width:1.0416666666666667;" width="303.125" x="369.0104" y="53.7028"/><rect fill="#1B1B1A" height="31.3883" rx="8.3333" ry="8.3333" style="stroke:#1B1B1A;stroke-width:1.0416666666666667;" width="303.125" x="369.0104" y="53.7028"/><rect fill="#1B1B1A" height="8.3333" style="stroke:#1B1B1A;stroke-width:1.0416666666666667;" width="303.125" x="369.0104" y="76.7578"/><rect codeLine="14" fill="none" height="83.3781" id="SimpleIndonesianRoadNameStandardizer" rx="8.3333" ry="8.3333" style="stroke:#5E5E5E;stroke-width:1.0416666666666667;" width="303.125" x="369.0104" y="53.7028"/><ellipse cx="383.5938" cy="69.397" fill="#0066CF" rx="10.4167" ry="10.4167" style="stroke:#0086EF;stroke-width:1.0416666666666667;"/><path d="M385.5042,73.822 Q385.0769,74.0417 384.6069,74.1516 Q384.137,74.2615 383.6182,74.2615 Q381.7749,74.2615 380.8044,73.0469 Q379.834,71.8323 379.834,69.5374 Q379.834,67.2363 380.8044,66.0217 Q381.7749,64.8071 383.6182,64.8071 Q384.137,64.8071 384.613,64.917 Q385.0891,65.0269 385.5042,65.2466 L385.5042,67.2485 Q385.0403,66.8213 384.6039,66.6229 Q384.1675,66.4246 383.7036,66.4246 Q382.7148,66.4246 382.2113,67.2089 Q381.7078,67.9932 381.7078,69.5374 Q381.7078,71.0754 382.2113,71.8597 Q382.7148,72.644 383.7036,72.644 Q384.1675,72.644 384.6039,72.4457 Q385.0403,72.2473 385.5042,71.8201 Z " fill="#000000"/><text fill="#D8BC00" font-family="Open Sans,Avenir,Nunito,Arial,Helvetica,SansSerif" font-size="12.5" font-weight="bold" lengthAdjust="spacing" textLength="265.625" x="400.2604" y="74.1211">SimpleIndonesianRoadNameStandardizer</text><line style="stroke:#5E5E5E;stroke-width:1.5625;" x1="370.0521" x2="671.0938" y1="85.0911" y2="85.0911"/><ellipse cx="380.4688" cy="120.461" fill="#84BE84" rx="3.125" ry="3.125" style="stroke:#038048;stroke-width:1.0416666666666667;"/><text fill="#D8BC00" font-family="Open Sans,Avenir,Nunito,Arial,Helvetica,SansSerif" font-size="11.4583" lengthAdjust="spacing" textLength="195.8333" x="391.9271" y="127.3722">RoadName standardize(RoadName)</text><line style="stroke:#5E5E5E;stroke-width:1.0416666666666667;" x1="370.0521" x2="492.4479" y1="103.2969" y2="103.2969"/><text fill="#D8BC00" font-family="Open Sans,Avenir,Nunito,Arial,Helvetica,SansSerif" font-size="11.4583" lengthAdjust="spacing" textLength="50" x="495.5729" y="107.1065">(naming)</text><line style="stroke:#5E5E5E;stroke-width:1.0416666666666667;" x1="548.6979" x2="671.0938" y1="103.2969" y2="103.2969"/><path codeLine="9" d="M223.6979,140.6611 C223.6979,160.5049 223.6979,183.0882 223.6979,199.484 " fill="none" id="BaseRoadNameStandardizer-backto-IndonesianIndonesiaRoadNameStandardizer" style="stroke:#545454;stroke-width:1.5625;"/><polygon fill="none" points="216.4063,140.359,223.6979,119.5257,230.9896,140.359,216.4063,140.359" style="stroke:#545454;stroke-width:1.5625;"/></g></svg>
