<?xml version="1.0" encoding="UTF-8" standalone="no"?><svg xmlns="http://www.w3.org/2000/svg" xmlns:xlink="http://www.w3.org/1999/xlink" contentScriptType="application/ecmascript" contentStyleType="text/css" height="781.25px" preserveAspectRatio="none" style="width:1016px;height:781px;background:#333333;" version="1.1" viewBox="0 0 1016 781" width="1016.6667px" zoomAndPan="magnify"><defs/><g><rect fill="#48494B" height="41.2028" rx="8.3333" ry="8.3333" style="stroke:#545454;stroke-width:1.0416666666666667;" width="406.25" x="298.1771" y="2.0833"/><text fill="#C0C0C0" font-family="Open Sans,Avenir,Nunito,Arial,Helvetica,SansSerif" font-size="20.8333" lengthAdjust="spacing" textLength="383.3333" x="309.6354" y="30.5583">com.telenav.mesakit.map.utilities.grid</text><rect codeLine="7" fill="#282828" height="48.055" id="StringFormattable" rx="8.3333" ry="8.3333" style="stroke:#5E5E5E;stroke-width:1.0416666666666667;" width="154.1667" x="30.7292" y="227.6611"/><rect fill="#1B1B1A" height="31.3883" rx="8.3333" ry="8.3333" style="stroke:#1B1B1A;stroke-width:1.0416666666666667;" width="154.1667" x="30.7292" y="227.6611"/><rect fill="#1B1B1A" height="8.3333" style="stroke:#1B1B1A;stroke-width:1.0416666666666667;" width="154.1667" x="30.7292" y="250.7161"/><rect codeLine="7" fill="none" height="48.055" id="StringFormattable" rx="8.3333" ry="8.3333" style="stroke:#5E5E5E;stroke-width:1.0416666666666667;" width="154.1667" x="30.7292" y="227.6611"/><ellipse cx="45.3125" cy="243.3553" fill="#008400" rx="10.4167" ry="10.4167" style="stroke:#239C23;stroke-width:1.0416666666666667;"/><path d="M42.7165,240.5172 L42.7165,238.9303 L48.1425,238.9303 L48.1425,240.5172 L46.3298,240.5172 L46.3298,246.4559 L48.1425,246.4559 L48.1425,248.0428 L42.7165,248.0428 L42.7165,246.4559 L44.5292,246.4559 L44.5292,240.5172 Z " fill="#000000"/><text fill="#D8BC00" font-family="Open Sans,Avenir,Nunito,Arial,Helvetica,SansSerif" font-size="12.5" font-style="italic" font-weight="bold" lengthAdjust="spacing" textLength="116.6667" x="61.9792" y="248.0794">StringFormattable</text><line style="stroke:#5E5E5E;stroke-width:1.0416666666666667;" x1="31.7708" x2="183.8542" y1="259.0495" y2="259.0495"/><line style="stroke:#5E5E5E;stroke-width:1.0416666666666667;" x1="31.7708" x2="183.8542" y1="267.3828" y2="267.3828"/><rect codeLine="9" fill="#282828" height="396.2179" id="Grid" rx="8.3333" ry="8.3333" style="stroke:#5E5E5E;stroke-width:1.0416666666666667;" width="386.4583" x="221.875" y="53.7028"/><rect fill="#1B1B1A" height="31.3883" rx="8.3333" ry="8.3333" style="stroke:#1B1B1A;stroke-width:1.0416666666666667;" width="386.4583" x="221.875" y="53.7028"/><rect fill="#1B1B1A" height="8.3333" style="stroke:#1B1B1A;stroke-width:1.0416666666666667;" width="386.4583" x="221.875" y="76.7578"/><rect codeLine="9" fill="none" height="396.2179" id="Grid" rx="8.3333" ry="8.3333" style="stroke:#5E5E5E;stroke-width:1.0416666666666667;" width="386.4583" x="221.875" y="53.7028"/><ellipse cx="394.2708" cy="69.397" fill="#0066CF" rx="10.4167" ry="10.4167" style="stroke:#0086EF;stroke-width:1.0416666666666667;"/><path d="M396.1812,73.822 Q395.754,74.0417 395.284,74.1516 Q394.814,74.2615 394.2952,74.2615 Q392.452,74.2615 391.4815,73.0469 Q390.5111,71.8323 390.5111,69.5374 Q390.5111,67.2363 391.4815,66.0217 Q392.452,64.8071 394.2952,64.8071 Q394.814,64.8071 395.2901,64.917 Q395.7662,65.0269 396.1812,65.2466 L396.1812,67.2485 Q395.7174,66.8213 395.281,66.6229 Q394.8446,66.4246 394.3807,66.4246 Q393.3919,66.4246 392.8884,67.2089 Q392.3848,67.9932 392.3848,69.5374 Q392.3848,71.0754 392.8884,71.8597 Q393.3919,72.644 394.3807,72.644 Q394.8446,72.644 395.281,72.4457 Q395.7174,72.2473 396.1812,71.8201 Z " fill="#000000"/><text fill="#D8BC00" font-family="Open Sans,Avenir,Nunito,Arial,Helvetica,SansSerif" font-size="12.5" font-weight="bold" lengthAdjust="spacing" textLength="27.0833" x="417.1875" y="74.1211">Grid</text><line style="stroke:#5E5E5E;stroke-width:1.5625;" x1="222.9167" x2="607.2917" y1="85.0911" y2="85.0911"/><ellipse cx="233.3333" cy="120.461" fill="#84BE84" rx="3.125" ry="3.125" style="stroke:#038048;stroke-width:1.0416666666666667;"/><text fill="#D8BC00" font-family="Open Sans,Avenir,Nunito,Arial,Helvetica,SansSerif" font-size="11.4583" lengthAdjust="spacing" textLength="115.625" x="244.7917" y="127.3722">Grid(Angle, Latitude)</text><ellipse cx="233.3333" cy="140.2059" fill="#84BE84" rx="3.125" ry="3.125" style="stroke:#038048;stroke-width:1.0416666666666667;"/><text fill="#D8BC00" font-family="Open Sans,Avenir,Nunito,Arial,Helvetica,SansSerif" font-size="11.4583" lengthAdjust="spacing" textLength="131.25" x="244.7917" y="147.1171">Grid(Distance, Latitude)</text><line style="stroke:#5E5E5E;stroke-width:1.0416666666666667;" x1="222.9167" x2="371.3542" y1="103.2969" y2="103.2969"/><text fill="#D8BC00" font-family="Open Sans,Avenir,Nunito,Arial,Helvetica,SansSerif" font-size="11.4583" lengthAdjust="spacing" textLength="81.25" x="374.4792" y="107.1065">(constructors)</text><line style="stroke:#5E5E5E;stroke-width:1.0416666666666667;" x1="458.8542" x2="607.2917" y1="103.2969" y2="103.2969"/><line style="stroke:#5E5E5E;stroke-width:1.0416666666666667;" x1="222.9167" x2="607.2917" y1="156.8258" y2="156.8258"/><ellipse cx="233.3333" cy="168.2841" fill="#84BE84" rx="3.125" ry="3.125" style="stroke:#038048;stroke-width:1.0416666666666667;"/><text fill="#D8BC00" font-family="Open Sans,Avenir,Nunito,Arial,Helvetica,SansSerif" font-size="11.4583" lengthAdjust="spacing" textLength="122.9167" x="244.7917" y="175.1953">GridCell cell(Location)</text><ellipse cx="233.3333" cy="211.9405" fill="#84BE84" rx="3.125" ry="3.125" style="stroke:#038048;stroke-width:1.0416666666666667;"/><text fill="#D8BC00" font-family="Open Sans,Avenir,Nunito,Arial,Helvetica,SansSerif" font-size="11.4583" lengthAdjust="spacing" textLength="172.9167" x="244.7917" y="218.8517">Distance approximateCellSize()</text><ellipse cx="233.3333" cy="231.6854" fill="#84BE84" rx="3.125" ry="3.125" style="stroke:#038048;stroke-width:1.0416666666666667;"/><text fill="#D8BC00" font-family="Open Sans,Avenir,Nunito,Arial,Helvetica,SansSerif" font-size="11.4583" lengthAdjust="spacing" textLength="98.9583" x="244.7917" y="238.5966">Count cellCount()</text><ellipse cx="233.3333" cy="251.4303" fill="#84BE84" rx="3.125" ry="3.125" style="stroke:#038048;stroke-width:1.0416666666666667;"/><text fill="#D8BC00" font-family="Open Sans,Avenir,Nunito,Arial,Helvetica,SansSerif" font-size="11.4583" lengthAdjust="spacing" textLength="354.1667" x="244.7917" y="258.3415">List&lt;GridCellIdentifier&gt; cellIdentifiersWithin(Rectangle bounds)</text><ellipse cx="233.3333" cy="271.1751" fill="#84BE84" rx="3.125" ry="3.125" style="stroke:#038048;stroke-width:1.0416666666666667;"/><text fill="#D8BC00" font-family="Open Sans,Avenir,Nunito,Arial,Helvetica,SansSerif" font-size="11.4583" lengthAdjust="spacing" textLength="73.9583" x="244.7917" y="278.0863">Size cellSize()</text><ellipse cx="233.3333" cy="290.92" fill="#84BE84" rx="3.125" ry="3.125" style="stroke:#038048;stroke-width:1.0416666666666667;"/><text fill="#D8BC00" font-family="Open Sans,Avenir,Nunito,Arial,Helvetica,SansSerif" font-size="11.4583" lengthAdjust="spacing" textLength="119.7917" x="244.7917" y="297.8312">List&lt;GridCell&gt; cells()</text><ellipse cx="233.3333" cy="310.6649" fill="#84BE84" rx="3.125" ry="3.125" style="stroke:#038048;stroke-width:1.0416666666666667;"/><text fill="#D8BC00" font-family="Open Sans,Avenir,Nunito,Arial,Helvetica,SansSerif" font-size="11.4583" lengthAdjust="spacing" textLength="286.4583" x="244.7917" y="317.5761">List&lt;GridCell&gt; cellsIntersecting(Rectangle bounds)</text><ellipse cx="233.3333" cy="330.4097" fill="#84BE84" rx="3.125" ry="3.125" style="stroke:#038048;stroke-width:1.0416666666666667;"/><text fill="#D8BC00" font-family="Open Sans,Avenir,Nunito,Arial,Helvetica,SansSerif" font-size="11.4583" lengthAdjust="spacing" textLength="201.0417" x="244.7917" y="337.321">List&lt;GridCellIdentifier&gt; identifiers()</text><ellipse cx="233.3333" cy="350.1546" fill="#84BE84" rx="3.125" ry="3.125" style="stroke:#038048;stroke-width:1.0416666666666667;"/><text fill="#D8BC00" font-family="Open Sans,Avenir,Nunito,Arial,Helvetica,SansSerif" font-size="11.4583" lengthAdjust="spacing" textLength="142.7083" x="244.7917" y="357.0658">Count latitudeCellCount()</text><ellipse cx="233.3333" cy="369.8995" fill="#84BE84" rx="3.125" ry="3.125" style="stroke:#038048;stroke-width:1.0416666666666667;"/><text fill="#D8BC00" font-family="Open Sans,Avenir,Nunito,Arial,Helvetica,SansSerif" font-size="11.4583" lengthAdjust="spacing" textLength="154.1667" x="244.7917" y="376.8107">Count longitudeCellCount()</text><line style="stroke:#5E5E5E;stroke-width:1.0416666666666667;" x1="222.9167" x2="380.7292" y1="194.7764" y2="194.7764"/><text fill="#D8BC00" font-family="Open Sans,Avenir,Nunito,Arial,Helvetica,SansSerif" font-size="11.4583" lengthAdjust="spacing" textLength="62.5" x="383.8542" y="198.586">(collection)</text><line style="stroke:#5E5E5E;stroke-width:1.0416666666666667;" x1="449.4792" x2="607.2917" y1="194.7764" y2="194.7764"/><ellipse cx="233.3333" cy="413.5559" fill="#84BE84" rx="3.125" ry="3.125" style="stroke:#038048;stroke-width:1.0416666666666667;"/><text fill="#D8BC00" font-family="Open Sans,Avenir,Nunito,Arial,Helvetica,SansSerif" font-size="11.4583" lengthAdjust="spacing" textLength="238.5417" x="244.7917" y="420.4671">GridCell cellForIdentifier(GridCellIdentifier)</text><ellipse cx="233.3333" cy="433.3008" fill="#84BE84" rx="3.125" ry="3.125" style="stroke:#038048;stroke-width:1.0416666666666667;"/><text fill="#D8BC00" font-family="Open Sans,Avenir,Nunito,Arial,Helvetica,SansSerif" font-size="11.4583" lengthAdjust="spacing" textLength="270.8333" x="244.7917" y="440.212">GridCellIdentifier identifierForLocation(Location)</text><line style="stroke:#5E5E5E;stroke-width:1.0416666666666667;" x1="222.9167" x2="386.9792" y1="396.3918" y2="396.3918"/><text fill="#D8BC00" font-family="Open Sans,Avenir,Nunito,Arial,Helvetica,SansSerif" font-size="11.4583" lengthAdjust="spacing" textLength="50" x="390.1042" y="400.2014">(identity)</text><line style="stroke:#5E5E5E;stroke-width:1.0416666666666667;" x1="443.2292" x2="607.2917" y1="396.3918" y2="396.3918"/><rect fill="#282828" height="48.055" id="Rectangle" rx="8.3333" ry="8.3333" style="stroke:#5E5E5E;stroke-width:1.0416666666666667;" width="100" x="645.3125" y="227.6611"/><rect fill="#1B1B1A" height="31.3883" rx="8.3333" ry="8.3333" style="stroke:#1B1B1A;stroke-width:1.0416666666666667;" width="100" x="645.3125" y="227.6611"/><rect fill="#1B1B1A" height="8.3333" style="stroke:#1B1B1A;stroke-width:1.0416666666666667;" width="100" x="645.3125" y="250.7161"/><rect fill="none" height="48.055" id="Rectangle" rx="8.3333" ry="8.3333" style="stroke:#5E5E5E;stroke-width:1.0416666666666667;" width="100" x="645.3125" y="227.6611"/><ellipse cx="659.8958" cy="243.3553" fill="#0066CF" rx="10.4167" ry="10.4167" style="stroke:#0086EF;stroke-width:1.0416666666666667;"/><path d="M661.8062,247.7804 Q661.379,248.0001 660.909,248.1099 Q660.439,248.2198 659.9202,248.2198 Q658.077,248.2198 657.1065,247.0052 Q656.1361,245.7906 656.1361,243.4957 Q656.1361,241.1947 657.1065,239.9801 Q658.077,238.7655 659.9202,238.7655 Q660.439,238.7655 660.9151,238.8753 Q661.3912,238.9852 661.8062,239.2049 L661.8062,241.2069 Q661.3424,240.7796 660.906,240.5813 Q660.4696,240.3829 660.0057,240.3829 Q659.0169,240.3829 658.5134,241.1672 Q658.0098,241.9515 658.0098,243.4957 Q658.0098,245.0338 658.5134,245.8181 Q659.0169,246.6024 660.0057,246.6024 Q660.4696,246.6024 660.906,246.404 Q661.3424,246.2056 661.8062,245.7784 Z " fill="#000000"/><text fill="#D8BC00" font-family="Open Sans,Avenir,Nunito,Arial,Helvetica,SansSerif" font-size="12.5" font-weight="bold" lengthAdjust="spacing" textLength="62.5" x="676.5625" y="248.0794">Rectangle</text><line style="stroke:#5E5E5E;stroke-width:1.0416666666666667;" x1="646.3542" x2="744.2708" y1="259.0495" y2="259.0495"/><line style="stroke:#5E5E5E;stroke-width:1.0416666666666667;" x1="646.3542" x2="744.2708" y1="267.3828" y2="267.3828"/><rect codeLine="32" fill="#282828" height="262.1704" id="GridCell" rx="8.3333" ry="8.3333" style="stroke:#5E5E5E;stroke-width:1.0416666666666667;" width="288.5417" x="551.0417" y="512.0361"/><rect fill="#1B1B1A" height="31.3883" rx="8.3333" ry="8.3333" style="stroke:#1B1B1A;stroke-width:1.0416666666666667;" width="288.5417" x="551.0417" y="512.0361"/><rect fill="#1B1B1A" height="8.3333" style="stroke:#1B1B1A;stroke-width:1.0416666666666667;" width="288.5417" x="551.0417" y="535.0911"/><rect codeLine="32" fill="none" height="262.1704" id="GridCell" rx="8.3333" ry="8.3333" style="stroke:#5E5E5E;stroke-width:1.0416666666666667;" width="288.5417" x="551.0417" y="512.0361"/><ellipse cx="661.9792" cy="527.7303" fill="#0066CF" rx="10.4167" ry="10.4167" style="stroke:#0086EF;stroke-width:1.0416666666666667;"/><path d="M663.8896,532.1554 Q663.4623,532.3751 662.9924,532.4849 Q662.5224,532.5948 662.0036,532.5948 Q660.1603,532.5948 659.1899,531.3802 Q658.2194,530.1656 658.2194,527.8707 Q658.2194,525.5697 659.1899,524.3551 Q660.1603,523.1405 662.0036,523.1405 Q662.5224,523.1405 662.9985,523.2503 Q663.4745,523.3602 663.8896,523.5799 L663.8896,525.5819 Q663.4257,525.1546 662.9893,524.9563 Q662.5529,524.7579 662.089,524.7579 Q661.1003,524.7579 660.5967,525.5422 Q660.0932,526.3265 660.0932,527.8707 Q660.0932,529.4088 660.5967,530.1931 Q661.1003,530.9774 662.089,530.9774 Q662.5529,530.9774 662.9893,530.779 Q663.4257,530.5806 663.8896,530.1534 Z " fill="#000000"/><text fill="#D8BC00" font-family="Open Sans,Avenir,Nunito,Arial,Helvetica,SansSerif" font-size="12.5" font-weight="bold" lengthAdjust="spacing" textLength="52.0833" x="684.8958" y="532.4544">GridCell</text><line style="stroke:#5E5E5E;stroke-width:1.5625;" x1="552.0833" x2="838.5417" y1="543.4245" y2="543.4245"/><ellipse cx="562.5" cy="578.7944" fill="#84BE84" rx="3.125" ry="3.125" style="stroke:#038048;stroke-width:1.0416666666666667;"/><text fill="#D8BC00" font-family="Open Sans,Avenir,Nunito,Arial,Helvetica,SansSerif" font-size="11.4583" lengthAdjust="spacing" textLength="256.25" x="573.9583" y="585.7056">GridCell(GridCellIdentifier, Location, Location)</text><ellipse cx="562.5" cy="598.5392" fill="#84BE84" rx="3.125" ry="3.125" style="stroke:#038048;stroke-width:1.0416666666666667;"/><text fill="#D8BC00" font-family="Open Sans,Avenir,Nunito,Arial,Helvetica,SansSerif" font-size="11.4583" lengthAdjust="spacing" textLength="208.3333" x="573.9583" y="605.4504">GridCell(GridCellIdentifier, Rectangle)</text><line style="stroke:#5E5E5E;stroke-width:1.0416666666666667;" x1="552.0833" x2="651.5625" y1="561.6302" y2="561.6302"/><text fill="#D8BC00" font-family="Open Sans,Avenir,Nunito,Arial,Helvetica,SansSerif" font-size="11.4583" lengthAdjust="spacing" textLength="81.25" x="654.6875" y="565.4399">(constructors)</text><line style="stroke:#5E5E5E;stroke-width:1.0416666666666667;" x1="739.0625" x2="838.5417" y1="561.6302" y2="561.6302"/><line style="stroke:#5E5E5E;stroke-width:1.0416666666666667;" x1="552.0833" x2="838.5417" y1="615.1591" y2="615.1591"/><ellipse cx="562.5" cy="626.6174" fill="#84BE84" rx="3.125" ry="3.125" style="stroke:#038048;stroke-width:1.0416666666666667;"/><text fill="#D8BC00" font-family="Open Sans,Avenir,Nunito,Arial,Helvetica,SansSerif" font-size="11.4583" lengthAdjust="spacing" textLength="158.3333" x="573.9583" y="633.5286">String pureRectangleString()</text><ellipse cx="562.5" cy="670.2738" fill="#84BE84" rx="3.125" ry="3.125" style="stroke:#038048;stroke-width:1.0416666666666667;"/><text fill="#D8BC00" font-family="Open Sans,Avenir,Nunito,Arial,Helvetica,SansSerif" font-size="11.4583" lengthAdjust="spacing" textLength="143.75" x="573.9583" y="677.1851">String toRectangleString()</text><line style="stroke:#5E5E5E;stroke-width:1.0416666666666667;" x1="552.0833" x2="656.7708" y1="653.1097" y2="653.1097"/><text fill="#D8BC00" font-family="Open Sans,Avenir,Nunito,Arial,Helvetica,SansSerif" font-size="11.4583" lengthAdjust="spacing" textLength="70.8333" x="659.8958" y="656.9194">(conversion)</text><line style="stroke:#5E5E5E;stroke-width:1.0416666666666667;" x1="733.8542" x2="838.5417" y1="653.1097" y2="653.1097"/><ellipse cx="562.5" cy="713.9303" fill="#84BE84" rx="3.125" ry="3.125" style="stroke:#038048;stroke-width:1.0416666666666667;"/><text fill="#D8BC00" font-family="Open Sans,Avenir,Nunito,Arial,Helvetica,SansSerif" font-size="11.4583" lengthAdjust="spacing" textLength="156.25" x="573.9583" y="720.8415">GridCellIdentifier identifier()</text><line style="stroke:#5E5E5E;stroke-width:1.0416666666666667;" x1="552.0833" x2="667.1875" y1="696.7662" y2="696.7662"/><text fill="#D8BC00" font-family="Open Sans,Avenir,Nunito,Arial,Helvetica,SansSerif" font-size="11.4583" lengthAdjust="spacing" textLength="50" x="670.3125" y="700.5758">(identity)</text><line style="stroke:#5E5E5E;stroke-width:1.0416666666666667;" x1="723.4375" x2="838.5417" y1="696.7662" y2="696.7662"/><ellipse cx="562.5" cy="757.5867" fill="#84BE84" rx="3.125" ry="3.125" style="stroke:#038048;stroke-width:1.0416666666666667;"/><text fill="#D8BC00" font-family="Open Sans,Avenir,Nunito,Arial,Helvetica,SansSerif" font-size="11.4583" lengthAdjust="spacing" textLength="75" x="573.9583" y="764.4979">String name()</text><line style="stroke:#5E5E5E;stroke-width:1.0416666666666667;" x1="552.0833" x2="667.1875" y1="740.4226" y2="740.4226"/><text fill="#D8BC00" font-family="Open Sans,Avenir,Nunito,Arial,Helvetica,SansSerif" font-size="11.4583" lengthAdjust="spacing" textLength="50" x="670.3125" y="744.2322">(naming)</text><line style="stroke:#5E5E5E;stroke-width:1.0416666666666667;" x1="723.4375" x2="838.5417" y1="740.4226" y2="740.4226"/><rect codeLine="48" fill="#282828" height="229.9255" id="GridCellIdentifier" rx="8.3333" ry="8.3333" style="stroke:#5E5E5E;stroke-width:1.0416666666666667;" width="201.0417" x="7.2917" y="528.182"/><rect fill="#1B1B1A" height="31.3883" rx="8.3333" ry="8.3333" style="stroke:#1B1B1A;stroke-width:1.0416666666666667;" width="201.0417" x="7.2917" y="528.182"/><rect fill="#1B1B1A" height="8.3333" style="stroke:#1B1B1A;stroke-width:1.0416666666666667;" width="201.0417" x="7.2917" y="551.237"/><rect codeLine="48" fill="none" height="229.9255" id="GridCellIdentifier" rx="8.3333" ry="8.3333" style="stroke:#5E5E5E;stroke-width:1.0416666666666667;" width="201.0417" x="7.2917" y="528.182"/><ellipse cx="45.3125" cy="543.8761" fill="#0066CF" rx="10.4167" ry="10.4167" style="stroke:#0086EF;stroke-width:1.0416666666666667;"/><path d="M47.2229,548.3012 Q46.7957,548.5209 46.3257,548.6308 Q45.8557,548.7406 45.3369,548.7406 Q43.4937,548.7406 42.5232,547.526 Q41.5527,546.3114 41.5527,544.0165 Q41.5527,541.7155 42.5232,540.5009 Q43.4937,539.2863 45.3369,539.2863 Q45.8557,539.2863 46.3318,539.3962 Q46.8079,539.506 47.2229,539.7257 L47.2229,541.7277 Q46.759,541.3005 46.3226,541.1021 Q45.8862,540.9037 45.4224,540.9037 Q44.4336,540.9037 43.9301,541.688 Q43.4265,542.4723 43.4265,544.0165 Q43.4265,545.5546 43.9301,546.3389 Q44.4336,547.1232 45.4224,547.1232 Q45.8862,547.1232 46.3226,546.9248 Q46.759,546.7265 47.2229,546.2992 Z " fill="#000000"/><text fill="#D8BC00" font-family="Open Sans,Avenir,Nunito,Arial,Helvetica,SansSerif" font-size="12.5" font-weight="bold" lengthAdjust="spacing" textLength="111.4583" x="67.1875" y="548.6003">GridCellIdentifier</text><line style="stroke:#5E5E5E;stroke-width:1.5625;" x1="8.3333" x2="207.2917" y1="559.5703" y2="559.5703"/><ellipse cx="18.75" cy="594.9402" fill="#84BE84" rx="3.125" ry="3.125" style="stroke:#038048;stroke-width:1.0416666666666667;"/><text fill="#D8BC00" font-family="Open Sans,Avenir,Nunito,Arial,Helvetica,SansSerif" font-size="11.4583" lengthAdjust="spacing" textLength="103.125" x="30.2083" y="601.8514">GridCellIdentifier()</text><ellipse cx="18.75" cy="614.6851" fill="#84BE84" rx="3.125" ry="3.125" style="stroke:#038048;stroke-width:1.0416666666666667;"/><text fill="#D8BC00" font-family="Open Sans,Avenir,Nunito,Arial,Helvetica,SansSerif" font-size="11.4583" lengthAdjust="spacing" textLength="147.9167" x="30.2083" y="621.5963">GridCellIdentifier(Grid, int)</text><ellipse cx="18.75" cy="634.4299" fill="#84BE84" rx="3.125" ry="3.125" style="stroke:#038048;stroke-width:1.0416666666666667;"/><text fill="#D8BC00" font-family="Open Sans,Avenir,Nunito,Arial,Helvetica,SansSerif" font-size="11.4583" lengthAdjust="spacing" textLength="168.75" x="30.2083" y="641.3411">GridCellIdentifier(Grid, int, int)</text><line style="stroke:#5E5E5E;stroke-width:1.0416666666666667;" x1="8.3333" x2="64.0625" y1="577.7761" y2="577.7761"/><text fill="#D8BC00" font-family="Open Sans,Avenir,Nunito,Arial,Helvetica,SansSerif" font-size="11.4583" lengthAdjust="spacing" textLength="81.25" x="67.1875" y="581.5857">(constructors)</text><line style="stroke:#5E5E5E;stroke-width:1.0416666666666667;" x1="151.5625" x2="207.2917" y1="577.7761" y2="577.7761"/><ellipse cx="18.75" cy="678.0863" fill="#84BE84" rx="3.125" ry="3.125" style="stroke:#038048;stroke-width:1.0416666666666667;"/><text fill="#D8BC00" font-family="Open Sans,Avenir,Nunito,Arial,Helvetica,SansSerif" font-size="11.4583" lengthAdjust="spacing" textLength="98.9583" x="30.2083" y="684.9976">int latitudeIndex()</text><ellipse cx="18.75" cy="697.8312" fill="#84BE84" rx="3.125" ry="3.125" style="stroke:#038048;stroke-width:1.0416666666666667;"/><text fill="#D8BC00" font-family="Open Sans,Avenir,Nunito,Arial,Helvetica,SansSerif" font-size="11.4583" lengthAdjust="spacing" textLength="110.4167" x="30.2083" y="704.7424">int longitudeIndex()</text><line style="stroke:#5E5E5E;stroke-width:1.0416666666666667;" x1="8.3333" x2="73.4375" y1="660.9222" y2="660.9222"/><text fill="#D8BC00" font-family="Open Sans,Avenir,Nunito,Arial,Helvetica,SansSerif" font-size="11.4583" lengthAdjust="spacing" textLength="62.5" x="76.5625" y="664.7319">(collection)</text><line style="stroke:#5E5E5E;stroke-width:1.0416666666666667;" x1="142.1875" x2="207.2917" y1="660.9222" y2="660.9222"/><ellipse cx="18.75" cy="741.4876" fill="#84BE84" rx="3.125" ry="3.125" style="stroke:#038048;stroke-width:1.0416666666666667;"/><text fill="#D8BC00" font-family="Open Sans,Avenir,Nunito,Arial,Helvetica,SansSerif" font-size="11.4583" lengthAdjust="spacing" textLength="76.0417" x="30.2083" y="748.3988">int identifier()</text><line style="stroke:#5E5E5E;stroke-width:1.0416666666666667;" x1="8.3333" x2="79.6875" y1="724.3235" y2="724.3235"/><text fill="#D8BC00" font-family="Open Sans,Avenir,Nunito,Arial,Helvetica,SansSerif" font-size="11.4583" lengthAdjust="spacing" textLength="50" x="82.8125" y="728.1331">(identity)</text><line style="stroke:#5E5E5E;stroke-width:1.0416666666666667;" x1="135.9375" x2="207.2917" y1="724.3235" y2="724.3235"/><rect fill="#282828" height="48.055" id="KryoTypes" rx="8.3333" ry="8.3333" style="stroke:#5E5E5E;stroke-width:1.0416666666666667;" width="106.25" x="890.1042" y="227.6611"/><rect fill="#1B1B1A" height="31.3883" rx="8.3333" ry="8.3333" style="stroke:#1B1B1A;stroke-width:1.0416666666666667;" width="106.25" x="890.1042" y="227.6611"/><rect fill="#1B1B1A" height="8.3333" style="stroke:#1B1B1A;stroke-width:1.0416666666666667;" width="106.25" x="890.1042" y="250.7161"/><rect fill="none" height="48.055" id="KryoTypes" rx="8.3333" ry="8.3333" style="stroke:#5E5E5E;stroke-width:1.0416666666666667;" width="106.25" x="890.1042" y="227.6611"/><ellipse cx="904.6875" cy="243.3553" fill="#0066CF" rx="10.4167" ry="10.4167" style="stroke:#0086EF;stroke-width:1.0416666666666667;"/><path d="M906.5979,247.7804 Q906.1707,248.0001 905.7007,248.1099 Q905.2307,248.2198 904.7119,248.2198 Q902.8687,248.2198 901.8982,247.0052 Q900.9277,245.7906 900.9277,243.4957 Q900.9277,241.1947 901.8982,239.9801 Q902.8687,238.7655 904.7119,238.7655 Q905.2307,238.7655 905.7068,238.8753 Q906.1829,238.9852 906.5979,239.2049 L906.5979,241.2069 Q906.134,240.7796 905.6976,240.5813 Q905.2612,240.3829 904.7974,240.3829 Q903.8086,240.3829 903.3051,241.1672 Q902.8015,241.9515 902.8015,243.4957 Q902.8015,245.0338 903.3051,245.8181 Q903.8086,246.6024 904.7974,246.6024 Q905.2612,246.6024 905.6976,246.404 Q906.134,246.2056 906.5979,245.7784 Z " fill="#000000"/><text fill="#D8BC00" font-family="Open Sans,Avenir,Nunito,Arial,Helvetica,SansSerif" font-size="12.5" font-weight="bold" lengthAdjust="spacing" textLength="68.75" x="921.3542" y="248.0794">KryoTypes</text><line style="stroke:#5E5E5E;stroke-width:1.0416666666666667;" x1="891.1458" x2="995.3125" y1="259.0495" y2="259.0495"/><line style="stroke:#5E5E5E;stroke-width:1.0416666666666667;" x1="891.1458" x2="995.3125" y1="267.3828" y2="267.3828"/><rect codeLine="62" fill="#282828" height="83.3781" id="GridKryoTypes" rx="8.3333" ry="8.3333" style="stroke:#5E5E5E;stroke-width:1.0416666666666667;" width="133.3333" x="876.5625" y="601.6195"/><rect fill="#1B1B1A" height="31.3883" rx="8.3333" ry="8.3333" style="stroke:#1B1B1A;stroke-width:1.0416666666666667;" width="133.3333" x="876.5625" y="601.6195"/><rect fill="#1B1B1A" height="8.3333" style="stroke:#1B1B1A;stroke-width:1.0416666666666667;" width="133.3333" x="876.5625" y="624.6745"/><rect codeLine="62" fill="none" height="83.3781" id="GridKryoTypes" rx="8.3333" ry="8.3333" style="stroke:#5E5E5E;stroke-width:1.0416666666666667;" width="133.3333" x="876.5625" y="601.6195"/><ellipse cx="891.1458" cy="617.3136" fill="#0066CF" rx="10.4167" ry="10.4167" style="stroke:#0086EF;stroke-width:1.0416666666666667;"/><path d="M893.0562,621.7387 Q892.629,621.9584 892.159,622.0683 Q891.689,622.1781 891.1702,622.1781 Q889.327,622.1781 888.3565,620.9635 Q887.3861,619.7489 887.3861,617.454 Q887.3861,615.153 888.3565,613.9384 Q889.327,612.7238 891.1702,612.7238 Q891.689,612.7238 892.1651,612.8337 Q892.6412,612.9435 893.0562,613.1632 L893.0562,615.1652 Q892.5924,614.738 892.156,614.5396 Q891.7196,614.3412 891.2557,614.3412 Q890.2669,614.3412 889.7634,615.1255 Q889.2598,615.9098 889.2598,617.454 Q889.2598,618.9921 889.7634,619.7764 Q890.2669,620.5607 891.2557,620.5607 Q891.7196,620.5607 892.156,620.3623 Q892.5924,620.164 893.0562,619.7367 Z " fill="#000000"/><text fill="#D8BC00" font-family="Open Sans,Avenir,Nunito,Arial,Helvetica,SansSerif" font-size="12.5" font-weight="bold" lengthAdjust="spacing" textLength="95.8333" x="907.8125" y="622.0378">GridKryoTypes</text><line style="stroke:#5E5E5E;stroke-width:1.5625;" x1="877.6042" x2="1008.8542" y1="633.0078" y2="633.0078"/><ellipse cx="888.0208" cy="668.3777" fill="#84BE84" rx="3.125" ry="3.125" style="stroke:#038048;stroke-width:1.0416666666666667;"/><text fill="#D8BC00" font-family="Open Sans,Avenir,Nunito,Arial,Helvetica,SansSerif" font-size="11.4583" lengthAdjust="spacing" textLength="91.6667" x="899.4792" y="675.2889">GridKryoTypes()</text><line style="stroke:#5E5E5E;stroke-width:1.0416666666666667;" x1="877.6042" x2="899.4792" y1="651.2136" y2="651.2136"/><text fill="#D8BC00" font-family="Open Sans,Avenir,Nunito,Arial,Helvetica,SansSerif" font-size="11.4583" lengthAdjust="spacing" textLength="81.25" x="902.6042" y="655.0232">(constructors)</text><line style="stroke:#5E5E5E;stroke-width:1.0416666666666667;" x1="986.9792" x2="1008.8542" y1="651.2136" y2="651.2136"/><path codeLine="31" d="M695.3125,296.9736 C695.3125,348.8903 695.3125,437.2653 695.3125,511.609 " fill="none" id="Rectangle-backto-GridCell" style="stroke:#545454;stroke-width:1.5625;"/><polygon fill="none" points="688.0208,296.7028,695.3125,275.8695,702.6042,296.7028,688.0208,296.7028" style="stroke:#545454;stroke-width:1.5625;"/><path codeLine="47" d="M107.8125,297.0153 C107.8125,352.807 107.8125,450.6611 107.8125,527.9736 " fill="none" id="StringFormattable-backto-GridCellIdentifier" style="stroke:#545454;stroke-width:1.5625;"/><polygon fill="none" points="100.5208,296.7028,107.8125,275.8695,115.1042,296.7028,100.5208,296.7028" style="stroke:#545454;stroke-width:1.5625;"/><path codeLine="61" d="M943.2292,296.7861 C943.2292,372.932 943.2292,527.8903 943.2292,601.5674 " fill="none" id="KryoTypes-backto-GridKryoTypes" style="stroke:#545454;stroke-width:1.5625;"/><polygon fill="none" points="935.9375,296.7028,943.2292,275.8695,950.5208,296.7028,935.9375,296.7028" style="stroke:#545454;stroke-width:1.5625;"/></g></svg>
