<?xml version="1.0" encoding="UTF-8" standalone="no"?><svg xmlns="http://www.w3.org/2000/svg" xmlns:xlink="http://www.w3.org/1999/xlink" contentScriptType="application/ecmascript" contentStyleType="text/css" height="254.1667px" preserveAspectRatio="none" style="width:1525px;height:254px;background:#333333;" version="1.1" viewBox="0 0 1525 254" width="1525px" zoomAndPan="magnify"><defs/><g><rect fill="#48494B" height="41.2028" rx="8.3333" ry="8.3333" style="stroke:#545454;stroke-width:1.0416666666666667;" width="652.0833" x="429.4271" y="2.0833"/><text fill="#C0C0C0" font-family="Open Sans,Avenir,Nunito,Arial,Helvetica,SansSerif" font-size="20.8333" lengthAdjust="spacing" textLength="629.1667" x="440.8854" y="30.5583">com.telenav.mesakit.navigation.routing.cost.functions.heuristic</text><!--MD5=[721802e552bc14401d889244e1a2cfe5]
class CostFunction--><rect codeLine="7" fill="#282828" height="48.055" id="CostFunction" rx="8.3333" ry="8.3333" style="stroke:#5E5E5E;stroke-width:1.0416666666666667;" width="123.9583" x="855.2083" y="53.7028"/><rect fill="#1B1B1A" height="31.3883" rx="8.3333" ry="8.3333" style="stroke:#1B1B1A;stroke-width:1.0416666666666667;" width="123.9583" x="855.2083" y="53.7028"/><rect fill="#1B1B1A" height="8.3333" style="stroke:#1B1B1A;stroke-width:1.0416666666666667;" width="123.9583" x="855.2083" y="76.7578"/><rect codeLine="7" fill="none" height="48.055" id="CostFunction" rx="8.3333" ry="8.3333" style="stroke:#5E5E5E;stroke-width:1.0416666666666667;" width="123.9583" x="855.2083" y="53.7028"/><ellipse cx="869.7917" cy="69.397" fill="#008400" rx="10.4167" ry="10.4167" style="stroke:#239C23;stroke-width:1.0416666666666667;"/><path d="M867.1956,66.5588 L867.1956,64.9719 L872.6217,64.9719 L872.6217,66.5588 L870.8089,66.5588 L870.8089,72.4976 L872.6217,72.4976 L872.6217,74.0845 L867.1956,74.0845 L867.1956,72.4976 L869.0084,72.4976 L869.0084,66.5588 Z " fill="#000000"/><text fill="#D8BC00" font-family="Open Sans,Avenir,Nunito,Arial,Helvetica,SansSerif" font-size="12.5" font-style="italic" font-weight="bold" lengthAdjust="spacing" textLength="86.4583" x="886.4583" y="74.1211">CostFunction</text><line style="stroke:#5E5E5E;stroke-width:1.0416666666666667;" x1="856.25" x2="978.125" y1="85.0911" y2="85.0911"/><line style="stroke:#5E5E5E;stroke-width:1.0416666666666667;" x1="856.25" x2="978.125" y1="93.4245" y2="93.4245"/><!--MD5=[5912a9638a44b24c2e8999379426b346]
class HeadingDeviationCostFunction--><rect codeLine="10" fill="#282828" height="83.3781" id="HeadingDeviationCostFunction" rx="8.3333" ry="8.3333" style="stroke:#5E5E5E;stroke-width:1.0416666666666667;" width="307.2917" x="7.2917" y="164.1195"/><rect fill="#1B1B1A" height="31.3883" rx="8.3333" ry="8.3333" style="stroke:#1B1B1A;stroke-width:1.0416666666666667;" width="307.2917" x="7.2917" y="164.1195"/><rect fill="#1B1B1A" height="8.3333" style="stroke:#1B1B1A;stroke-width:1.0416666666666667;" width="307.2917" x="7.2917" y="187.1745"/><rect codeLine="10" fill="none" height="83.3781" id="HeadingDeviationCostFunction" rx="8.3333" ry="8.3333" style="stroke:#5E5E5E;stroke-width:1.0416666666666667;" width="307.2917" x="7.2917" y="164.1195"/><ellipse cx="52.6042" cy="179.8136" fill="#0066CF" rx="10.4167" ry="10.4167" style="stroke:#0086EF;stroke-width:1.0416666666666667;"/><path d="M54.5146,184.2387 Q54.0873,184.4584 53.6174,184.5683 Q53.1474,184.6781 52.6286,184.6781 Q50.7853,184.6781 49.8149,183.4635 Q48.8444,182.2489 48.8444,179.954 Q48.8444,177.653 49.8149,176.4384 Q50.7853,175.2238 52.6286,175.2238 Q53.1474,175.2238 53.6235,175.3337 Q54.0995,175.4435 54.5146,175.6632 L54.5146,177.6652 Q54.0507,177.238 53.6143,177.0396 Q53.1779,176.8412 52.714,176.8412 Q51.7253,176.8412 51.2217,177.6255 Q50.7182,178.4098 50.7182,179.954 Q50.7182,181.4921 51.2217,182.2764 Q51.7253,183.0607 52.714,183.0607 Q53.1779,183.0607 53.6143,182.8623 Q54.0507,182.664 54.5146,182.2367 Z " fill="#000000"/><text fill="#D8BC00" font-family="Open Sans,Avenir,Nunito,Arial,Helvetica,SansSerif" font-size="12.5" font-weight="bold" lengthAdjust="spacing" textLength="202.0833" x="75.5208" y="184.5378">HeadingDeviationCostFunction</text><line style="stroke:#5E5E5E;stroke-width:1.5625;" x1="8.3333" x2="313.5417" y1="195.5078" y2="195.5078"/><ellipse cx="18.75" cy="230.8777" fill="#84BE84" rx="3.125" ry="3.125" style="stroke:#038048;stroke-width:1.0416666666666667;"/><text fill="#D8BC00" font-family="Open Sans,Avenir,Nunito,Arial,Helvetica,SansSerif" font-size="11.4583" lengthAdjust="spacing" textLength="275" x="30.2083" y="237.7889">HeadingDeviationCostFunction(Located, Located)</text><line style="stroke:#5E5E5E;stroke-width:1.0416666666666667;" x1="8.3333" x2="117.1875" y1="213.7136" y2="213.7136"/><text fill="#D8BC00" font-family="Open Sans,Avenir,Nunito,Arial,Helvetica,SansSerif" font-size="11.4583" lengthAdjust="spacing" textLength="81.25" x="120.3125" y="217.5232">(constructors)</text><line style="stroke:#5E5E5E;stroke-width:1.0416666666666667;" x1="204.6875" x2="313.5417" y1="213.7136" y2="213.7136"/><!--MD5=[4baf832205fad10b8a48d7e91468f95c]
class RemainingDistanceToEndCostFunction--><rect codeLine="17" fill="#282828" height="83.3781" id="RemainingDistanceToEndCostFunction" rx="8.3333" ry="8.3333" style="stroke:#5E5E5E;stroke-width:1.0416666666666667;" width="351.0417" x="351.0417" y="164.1195"/><rect fill="#1B1B1A" height="31.3883" rx="8.3333" ry="8.3333" style="stroke:#1B1B1A;stroke-width:1.0416666666666667;" width="351.0417" x="351.0417" y="164.1195"/><rect fill="#1B1B1A" height="8.3333" style="stroke:#1B1B1A;stroke-width:1.0416666666666667;" width="351.0417" x="351.0417" y="187.1745"/><rect codeLine="17" fill="none" height="83.3781" id="RemainingDistanceToEndCostFunction" rx="8.3333" ry="8.3333" style="stroke:#5E5E5E;stroke-width:1.0416666666666667;" width="351.0417" x="351.0417" y="164.1195"/><ellipse cx="393.2813" cy="179.8136" fill="#0066CF" rx="10.4167" ry="10.4167" style="stroke:#0086EF;stroke-width:1.0416666666666667;"/><path d="M395.1917,184.2387 Q394.7644,184.4584 394.2944,184.5683 Q393.8245,184.6781 393.3057,184.6781 Q391.4624,184.6781 390.4919,183.4635 Q389.5215,182.2489 389.5215,179.954 Q389.5215,177.653 390.4919,176.4384 Q391.4624,175.2238 393.3057,175.2238 Q393.8245,175.2238 394.3005,175.3337 Q394.7766,175.4435 395.1917,175.6632 L395.1917,177.6652 Q394.7278,177.238 394.2914,177.0396 Q393.855,176.8412 393.3911,176.8412 Q392.4023,176.8412 391.8988,177.6255 Q391.3953,178.4098 391.3953,179.954 Q391.3953,181.4921 391.8988,182.2764 Q392.4023,183.0607 393.3911,183.0607 Q393.855,183.0607 394.2914,182.8623 Q394.7278,182.664 395.1917,182.2367 Z " fill="#000000"/><text fill="#D8BC00" font-family="Open Sans,Avenir,Nunito,Arial,Helvetica,SansSerif" font-size="12.5" font-weight="bold" lengthAdjust="spacing" textLength="252.0833" x="416.0938" y="184.5378">RemainingDistanceToEndCostFunction</text><line style="stroke:#5E5E5E;stroke-width:1.5625;" x1="352.0833" x2="701.0417" y1="195.5078" y2="195.5078"/><ellipse cx="362.5" cy="230.8777" fill="#84BE84" rx="3.125" ry="3.125" style="stroke:#038048;stroke-width:1.0416666666666667;"/><text fill="#D8BC00" font-family="Open Sans,Avenir,Nunito,Arial,Helvetica,SansSerif" font-size="11.4583" lengthAdjust="spacing" textLength="318.75" x="373.9583" y="237.7889">RemainingDistanceToEndCostFunction(Located, Located)</text><line style="stroke:#5E5E5E;stroke-width:1.0416666666666667;" x1="352.0833" x2="482.8125" y1="213.7136" y2="213.7136"/><text fill="#D8BC00" font-family="Open Sans,Avenir,Nunito,Arial,Helvetica,SansSerif" font-size="11.4583" lengthAdjust="spacing" textLength="81.25" x="485.9375" y="217.5232">(constructors)</text><line style="stroke:#5E5E5E;stroke-width:1.0416666666666667;" x1="570.3125" x2="701.0417" y1="213.7136" y2="213.7136"/><!--MD5=[5c55d7b79c4fe393ac989edc73bd3c6e]
class RemainingDistanceToStartCostFunction--><rect codeLine="24" fill="#282828" height="83.3781" id="RemainingDistanceToStartCostFunction" rx="8.3333" ry="8.3333" style="stroke:#5E5E5E;stroke-width:1.0416666666666667;" width="356.25" x="739.0625" y="164.1195"/><rect fill="#1B1B1A" height="31.3883" rx="8.3333" ry="8.3333" style="stroke:#1B1B1A;stroke-width:1.0416666666666667;" width="356.25" x="739.0625" y="164.1195"/><rect fill="#1B1B1A" height="8.3333" style="stroke:#1B1B1A;stroke-width:1.0416666666666667;" width="356.25" x="739.0625" y="187.1745"/><rect codeLine="24" fill="none" height="83.3781" id="RemainingDistanceToStartCostFunction" rx="8.3333" ry="8.3333" style="stroke:#5E5E5E;stroke-width:1.0416666666666667;" width="356.25" x="739.0625" y="164.1195"/><ellipse cx="780.8333" cy="179.8136" fill="#0066CF" rx="10.4167" ry="10.4167" style="stroke:#0086EF;stroke-width:1.0416666666666667;"/><path d="M782.7437,184.2387 Q782.3165,184.4584 781.8465,184.5683 Q781.3765,184.6781 780.8577,184.6781 Q779.0145,184.6781 778.044,183.4635 Q777.0736,182.2489 777.0736,179.954 Q777.0736,177.653 778.044,176.4384 Q779.0145,175.2238 780.8577,175.2238 Q781.3765,175.2238 781.8526,175.3337 Q782.3287,175.4435 782.7437,175.6632 L782.7437,177.6652 Q782.2799,177.238 781.8435,177.0396 Q781.4071,176.8412 780.9432,176.8412 Q779.9544,176.8412 779.4509,177.6255 Q778.9473,178.4098 778.9473,179.954 Q778.9473,181.4921 779.4509,182.2764 Q779.9544,183.0607 780.9432,183.0607 Q781.4071,183.0607 781.8435,182.8623 Q782.2799,182.664 782.7437,182.2367 Z " fill="#000000"/><text fill="#D8BC00" font-family="Open Sans,Avenir,Nunito,Arial,Helvetica,SansSerif" font-size="12.5" font-weight="bold" lengthAdjust="spacing" textLength="258.3333" x="803.5417" y="184.5378">RemainingDistanceToStartCostFunction</text><line style="stroke:#5E5E5E;stroke-width:1.5625;" x1="740.1042" x2="1094.2708" y1="195.5078" y2="195.5078"/><ellipse cx="750.5208" cy="230.8777" fill="#84BE84" rx="3.125" ry="3.125" style="stroke:#038048;stroke-width:1.0416666666666667;"/><text fill="#D8BC00" font-family="Open Sans,Avenir,Nunito,Arial,Helvetica,SansSerif" font-size="11.4583" lengthAdjust="spacing" textLength="323.9583" x="761.9792" y="237.7889">RemainingDistanceToStartCostFunction(Located, Located)</text><line style="stroke:#5E5E5E;stroke-width:1.0416666666666667;" x1="740.1042" x2="873.4375" y1="213.7136" y2="213.7136"/><text fill="#D8BC00" font-family="Open Sans,Avenir,Nunito,Arial,Helvetica,SansSerif" font-size="11.4583" lengthAdjust="spacing" textLength="81.25" x="876.5625" y="217.5232">(constructors)</text><line style="stroke:#5E5E5E;stroke-width:1.0416666666666667;" x1="960.9375" x2="1094.2708" y1="213.7136" y2="213.7136"/><!--MD5=[0c69a29e2bb9331f5f61698fd3b5032d]
class RoadTypeCostFunction--><rect codeLine="31" fill="#282828" height="48.055" id="RoadTypeCostFunction" rx="8.3333" ry="8.3333" style="stroke:#5E5E5E;stroke-width:1.0416666666666667;" width="187.5" x="1131.7708" y="181.8278"/><rect fill="#1B1B1A" height="31.3883" rx="8.3333" ry="8.3333" style="stroke:#1B1B1A;stroke-width:1.0416666666666667;" width="187.5" x="1131.7708" y="181.8278"/><rect fill="#1B1B1A" height="8.3333" style="stroke:#1B1B1A;stroke-width:1.0416666666666667;" width="187.5" x="1131.7708" y="204.8828"/><rect codeLine="31" fill="none" height="48.055" id="RoadTypeCostFunction" rx="8.3333" ry="8.3333" style="stroke:#5E5E5E;stroke-width:1.0416666666666667;" width="187.5" x="1131.7708" y="181.8278"/><ellipse cx="1146.3542" cy="197.522" fill="#0066CF" rx="10.4167" ry="10.4167" style="stroke:#0086EF;stroke-width:1.0416666666666667;"/><path d="M1148.2646,201.947 Q1147.8373,202.1667 1147.3674,202.2766 Q1146.8974,202.3865 1146.3786,202.3865 Q1144.5353,202.3865 1143.5649,201.1719 Q1142.5944,199.9573 1142.5944,197.6624 Q1142.5944,195.3613 1143.5649,194.1467 Q1144.5353,192.9321 1146.3786,192.9321 Q1146.8974,192.9321 1147.3735,193.042 Q1147.8495,193.1519 1148.2646,193.3716 L1148.2646,195.3735 Q1147.8007,194.9463 1147.3643,194.7479 Q1146.9279,194.5496 1146.464,194.5496 Q1145.4753,194.5496 1144.9717,195.3339 Q1144.4682,196.1182 1144.4682,197.6624 Q1144.4682,199.2004 1144.9717,199.9847 Q1145.4753,200.769 1146.464,200.769 Q1146.9279,200.769 1147.3643,200.5707 Q1147.8007,200.3723 1148.2646,199.9451 Z " fill="#000000"/><text fill="#D8BC00" font-family="Open Sans,Avenir,Nunito,Arial,Helvetica,SansSerif" font-size="12.5" font-weight="bold" lengthAdjust="spacing" textLength="150" x="1163.0208" y="202.2461">RoadTypeCostFunction</text><line style="stroke:#5E5E5E;stroke-width:1.0416666666666667;" x1="1132.8125" x2="1318.2292" y1="213.2161" y2="213.2161"/><line style="stroke:#5E5E5E;stroke-width:1.0416666666666667;" x1="1132.8125" x2="1318.2292" y1="221.5495" y2="221.5495"/><!--MD5=[ff97d3219c07a26d1c799c6e96e6deae]
class SpeedCostFunction--><rect codeLine="36" fill="#282828" height="48.055" id="SpeedCostFunction" rx="8.3333" ry="8.3333" style="stroke:#5E5E5E;stroke-width:1.0416666666666667;" width="162.5" x="1355.7292" y="181.8278"/><rect fill="#1B1B1A" height="31.3883" rx="8.3333" ry="8.3333" style="stroke:#1B1B1A;stroke-width:1.0416666666666667;" width="162.5" x="1355.7292" y="181.8278"/><rect fill="#1B1B1A" height="8.3333" style="stroke:#1B1B1A;stroke-width:1.0416666666666667;" width="162.5" x="1355.7292" y="204.8828"/><rect codeLine="36" fill="none" height="48.055" id="SpeedCostFunction" rx="8.3333" ry="8.3333" style="stroke:#5E5E5E;stroke-width:1.0416666666666667;" width="162.5" x="1355.7292" y="181.8278"/><ellipse cx="1370.3125" cy="197.522" fill="#0066CF" rx="10.4167" ry="10.4167" style="stroke:#0086EF;stroke-width:1.0416666666666667;"/><path d="M1372.2229,201.947 Q1371.7957,202.1667 1371.3257,202.2766 Q1370.8557,202.3865 1370.3369,202.3865 Q1368.4937,202.3865 1367.5232,201.1719 Q1366.5527,199.9573 1366.5527,197.6624 Q1366.5527,195.3613 1367.5232,194.1467 Q1368.4937,192.9321 1370.3369,192.9321 Q1370.8557,192.9321 1371.3318,193.042 Q1371.8079,193.1519 1372.2229,193.3716 L1372.2229,195.3735 Q1371.759,194.9463 1371.3226,194.7479 Q1370.8862,194.5496 1370.4224,194.5496 Q1369.4336,194.5496 1368.9301,195.3339 Q1368.4265,196.1182 1368.4265,197.6624 Q1368.4265,199.2004 1368.9301,199.9847 Q1369.4336,200.769 1370.4224,200.769 Q1370.8862,200.769 1371.3226,200.5707 Q1371.759,200.3723 1372.2229,199.9451 Z " fill="#000000"/><text fill="#D8BC00" font-family="Open Sans,Avenir,Nunito,Arial,Helvetica,SansSerif" font-size="12.5" font-weight="bold" lengthAdjust="spacing" textLength="125" x="1386.9792" y="202.2461">SpeedCostFunction</text><line style="stroke:#5E5E5E;stroke-width:1.0416666666666667;" x1="1356.7708" x2="1517.1875" y1="213.2161" y2="213.2161"/><line style="stroke:#5E5E5E;stroke-width:1.0416666666666667;" x1="1356.7708" x2="1517.1875" y1="221.5495" y2="221.5495"/><!--MD5=[a923d45e86327d8263bd38fb327a37bf]
reverse link CostFunction to HeadingDeviationCostFunction--><path codeLine="9" d="M834.3229,88.5049 C720.7188,102.4736 510.4583,130.2132 332.8125,164.1195 C326.9375,165.2445 320.9688,166.4215 314.9375,167.6611 " fill="none" id="CostFunction-backto-HeadingDeviationCostFunction" style="stroke:#545454;stroke-width:1.5625;"/><polygon fill="none" points="833.4896,81.2653,855.0521,85.984,835.25,95.7445,833.4896,81.2653" style="stroke:#545454;stroke-width:1.5625;"/><!--MD5=[2cb8ebc3d2bf674ce0b0f2c15fd021ba]
reverse link CostFunction to RemainingDistanceToEndCostFunction--><path codeLine="16" d="M834.7604,105.2965 C781.9167,122.3486 712.2708,144.8174 652.5625,164.0882 " fill="none" id="CostFunction-backto-RemainingDistanceToEndCostFunction" style="stroke:#545454;stroke-width:1.5625;"/><polygon fill="none" points="832.7917,98.2757,854.8646,98.8174,837.2708,112.1507,832.7917,98.2757" style="stroke:#545454;stroke-width:1.5625;"/><!--MD5=[d10ed852e05462a4211a7bb418a50144]
reverse link CostFunction to RemainingDistanceToStartCostFunction--><path codeLine="23" d="M917.1875,122.682 C917.1875,136.0778 917.1875,150.7445 917.1875,163.9215 " fill="none" id="CostFunction-backto-RemainingDistanceToStartCostFunction" style="stroke:#545454;stroke-width:1.5625;"/><polygon fill="none" points="909.8958,122.6507,917.1875,101.8174,924.4792,122.6507,909.8958,122.6507" style="stroke:#545454;stroke-width:1.5625;"/><!--MD5=[5c0d5f0a548ba4bb2bb2bd8e219c2ec5]
reverse link CostFunction to RoadTypeCostFunction--><path codeLine="30" d="M992.9479,109.6715 C1047.4375,131.9528 1119.75,161.5049 1169.1875,181.7132 " fill="none" id="CostFunction-backto-RoadTypeCostFunction" style="stroke:#545454;stroke-width:1.5625;"/><polygon fill="none" points="989.9063,116.307,973.3854,101.6715,995.4271,102.807,989.9063,116.307" style="stroke:#545454;stroke-width:1.5625;"/><!--MD5=[c394a59043fce3b477e2c9840a369109]
reverse link CostFunction to SpeedCostFunction--><path codeLine="35" d="M1000.0625,90.7653 C1085.7813,104.3382 1222.9375,129.1611 1338.0208,164.1195 C1354.0104,168.9736 1370.9896,175.4424 1386.2917,181.7757 " fill="none" id="CostFunction-backto-SpeedCostFunction" style="stroke:#545454;stroke-width:1.5625;"/><polygon fill="none" points="998.8958,97.9632,979.4271,87.557,1001.1354,83.557,998.8958,97.9632" style="stroke:#545454;stroke-width:1.5625;"/><!--MD5=[02e1522811addb1f65f9f3ad89327595]
@startuml

    !include lexakai.theme
    
    title "com.telenav.mesakit.navigation.routing.cost.functions.heuristic"
    
    interface CostFunction
    
    CostFunction <|- - HeadingDeviationCostFunction
    class HeadingDeviationCostFunction
    {
        - -(constructors)- -
        +HeadingDeviationCostFunction(Located, Located)
    }
    
    CostFunction <|- - RemainingDistanceToEndCostFunction
    class RemainingDistanceToEndCostFunction
    {
        - -(constructors)- -
        +RemainingDistanceToEndCostFunction(Located, Located)
    }
    
    CostFunction <|- - RemainingDistanceToStartCostFunction
    class RemainingDistanceToStartCostFunction
    {
        - -(constructors)- -
        +RemainingDistanceToStartCostFunction(Located, Located)
    }
    
    CostFunction <|- - RoadTypeCostFunction
    class RoadTypeCostFunction
    {
    }
    
    CostFunction <|- - SpeedCostFunction
    class SpeedCostFunction
    {
    }
    
@enduml

@startuml









skinparam backgroundColor #333333






skinparam  {
    defaultFontName   "Open Sans,Avenir,Nunito,Arial,Helvetica,SansSerif"
    defaultFontSize   12
    defaultTextAlignment left
    shadowing false
    RoundCorner 10
    TitleFontSize 18
}

skinparam defaultFontName       "Open Sans,Avenir,Nunito,Arial,Helvetica,SansSerif"
skinparam defaultFontSize       12
skinparam dpi                   100
skinparam shadowing             false
skinparam roundcorner           16
skinparam ParticipantPadding    40
skinparam BoxPadding            40
skinparam Padding               3
skinparam ArrowColor            #545454
skinparam stereotype {
    CBackgroundColor #0066cf
    CBorderColor #0086ef
    ABackgroundColor #C8Ac00
    ABorderColor #D8Bc00
    IBackgroundColor #008400
    IBorderColor #239c23
    EBackgroundColor #cf6300
    EBorderColor #ef8300
    NBackgroundColor #3380b9
    NBorderColor #004d86
}
skinparam title {
	FontColor	                 #c0c0c0
 	BorderColor                  #545454
	FontSize	    	         20
	BorderRoundCorner            16
	BorderThickness 	         1
	BackgroundColor              #48494b
}


skinparam legend {
	BackgroundColor #303030
	BorderColor #404040
	FontColor #a0a0a0
}

	skinparam swimlane {
	BorderColor #5e5e5e
	BorderThickness 2
	TitleBackgroundColor  #6d6d6d-#484848
	TitleFontColor #303030
}

skinparam activity {
		FontColor #C8Ac00
	BorderColor #333333
	BackgroundColor #333333-#333333
	BarColor #00FF00
	StartColor #0060a8
	EndColor #0060a8
	DiamondBackgroundColor #6d6d6d-#3a3a3a
  	DiamondBorderColor #3a3a3a
  	DiamondFontColor #fefefe
}


skinparam participant {
		FontColor #C8Ac00
	BorderColor #333333
	BackgroundColor #333333-#333333
	ParticipantBorderThickness 2
}


skinparam actor {
		FontColor #C8Ac00
	BorderColor #333333
	BackgroundColor #333333-#333333
}


skinparam arrow {
	Thickness 1.5
	Color #545454
	FontColor #a0a0a0
    FontStyle bold
    MessageAlignment center
}



skinparam sequence {
	BorderColor #303030
	TitleFontColor #303030
	BackgroundColor #333333
	StartColor #303030
	EndColor #303030
	BoxBackgroundColor #333333
	BoxBorderColor #484848
	BoxFontColor #484848
	LifeLineBorderColor #484848
	LifeLineBorderThickness 2
	LifeLineBackgroundColor #3a3a3a
	GroupBorderColor #484848
	GroupFontColor #484848
	GroupHeaderFontColor #0060a8
	GroupBackgroundColor #484848
	GroupHeaderBackgroundColor #333333
	DividerBackgroundColor #484848
    DividerBorderColor #484848
    DividerBorderThickness 2
    DividerFontColor #D8Bc00
	ReferenceBackgroundColor #333333
	ReferenceBorderColor #484848
	ReferenceFontColor #fefefe
	ReferenceHeaderBackgroundColor #484848
}


skinparam partition {
	BorderColor #303030
	FontColor #333333
	BackgroundColor #333333
}


skinparam collections {
		FontColor #C8Ac00
	BorderColor #333333
	BackgroundColor #333333-#333333
}


skinparam control {
		FontColor #C8Ac00
	BorderColor #333333
	BackgroundColor #333333-#333333
}


skinparam entity {
		FontColor #C8Ac00
	BorderColor #333333
	BackgroundColor #333333-#333333
}


skinparam boundary {
		FontColor #C8Ac00
	BorderColor #333333
	BackgroundColor #333333-#333333
}


skinparam agent {
	BackgroundColor #ff8000
	BorderColor #ff9933
	FontColor #484848
}


skinparam note {
	BorderThickness 1
	BackgroundColor #1b1b1a
	BorderColor #5e5e5e
	FontSize 11
	FontColor #a0a0a0
}


skinparam artifact {
	BorderThickness 10
	BorderColor #5e5e5e
	BackgroundColor #1b1b1a
	FontColor #D8Bc00
}


skinparam component {
		FontColor #C8Ac00
	BorderColor #333333
	BackgroundColor #333333-#333333
}


skinparam interface {
	BackgroundColor  #008400
	BorderColor  #007F00
	FontColor #484848
}


skinparam storage {
	BackgroundColor #ff8000
  	BorderColor #cc6600
	FontColor #222222
}


skinparam node {
	BackgroundColor #333333
	BorderColor #333333
	FontColor #C8Ac00
}


skinparam cloud {
	BackgroundColor #484848-black
	BorderColor #484848
	FontColor #D8Bc00
}


skinparam database {
		FontColor #C8Ac00
	BorderColor #333333
	BackgroundColor #333333-#333333
	BackgroundColor  #333333
}


skinparam class {
		FontColor #C8Ac00
	BorderColor #333333
	BackgroundColor #333333-#333333
	HeaderBackgroundColor #1b1b1a
    BackgroundColor #282828
    BorderColor #5e5e5e
 	StereotypeFontColor #a0a0a0
    StereotypeFontStyle bold
	BorderThickness 1
	AttributeFontColor #D8Bc00
	AttributeFontSize 11
    FontColor #D8Bc00
    FontStyle bold
}


skinparam object {
		FontColor #C8Ac00
	BorderColor #333333
	BackgroundColor #333333-#333333
	StereotypeFontColor #484848
	BorderThickness 1
	AttributeFontColor #fefefe
	AttributeFontSize 11
}


skinparam usecase {
		FontColor #C8Ac00
	BorderColor #333333
	BackgroundColor #333333-#333333
	BorderThickness 2
	StereotypeFontColor #303030
}


skinparam rectangle {
		FontColor #C8Ac00
	BorderColor #333333
	BackgroundColor #333333-#333333
	BackgroundColor #333333
	BorderThickness 2
	StereotypeFontColor #303030
}


skinparam package {
		FontColor #C8Ac00
	BorderColor #333333
	BackgroundColor #333333-#333333
	BackgroundColor #333333
	BorderThickness 2
}


skinparam folder {
	BackgroundColor #6d6d6d
  	BorderColor #ff8000
	FontColor #ff8000
	BorderThickness 2
}


skinparam frame {
	BackgroundColor #6d6d6d
  	BorderColor #0060a8
	FontColor #0060a8
	BorderThickness 2
}


skinparam state {
		FontColor #C8Ac00
	BorderColor #333333
	BackgroundColor #333333-#333333
	StartColor #0060a8
	EndColor #0060a8
	AttributeFontColor #fefefe
	AttributeFontSize 11
}


skinparam queue {
		FontColor #C8Ac00
	BorderColor #333333
	BackgroundColor #333333-#333333
}


skinparam card {
	BackgroundColor #0060a8
	BorderColor #004d86
	FontColor $INFO_TEXT
}


skinparam file {
	BackgroundColor #6d6d6d-#484848
	BorderColor #0060a8
	FontColor #fefefe
}


skinparam stack {
		FontColor #C8Ac00
	BorderColor #333333
	BackgroundColor #333333-#333333
}

    
    title "com.telenav.mesakit.navigation.routing.cost.functions.heuristic"
    
    interface CostFunction
    
    CostFunction <|- - HeadingDeviationCostFunction
    class HeadingDeviationCostFunction
    {
        - -(constructors)- -
        +HeadingDeviationCostFunction(Located, Located)
    }
    
    CostFunction <|- - RemainingDistanceToEndCostFunction
    class RemainingDistanceToEndCostFunction
    {
        - -(constructors)- -
        +RemainingDistanceToEndCostFunction(Located, Located)
    }
    
    CostFunction <|- - RemainingDistanceToStartCostFunction
    class RemainingDistanceToStartCostFunction
    {
        - -(constructors)- -
        +RemainingDistanceToStartCostFunction(Located, Located)
    }
    
    CostFunction <|- - RoadTypeCostFunction
    class RoadTypeCostFunction
    {
    }
    
    CostFunction <|- - SpeedCostFunction
    class SpeedCostFunction
    {
    }
    
@enduml

PlantUML version 1.2021.01(Tue Feb 02 02:55:08 EST 2021)
(GPL source distribution)
Java Runtime: OpenJDK Runtime Environment
JVM: OpenJDK 64-Bit Server VM
Default Encoding: UTF-8
Language: en
Country: US
--></g></svg>