<?xml version="1.0" encoding="UTF-8" standalone="no"?><svg xmlns="http://www.w3.org/2000/svg" xmlns:xlink="http://www.w3.org/1999/xlink" contentScriptType="application/ecmascript" contentStyleType="text/css" height="254.1667px" preserveAspectRatio="none" style="width:1080px;height:254px;background:#333333;" version="1.1" viewBox="0 0 1080 254" width="1080.2083px" zoomAndPan="magnify"><defs/><g><rect fill="#48494B" height="41.2028" rx="8.3333" ry="8.3333" style="stroke:#545454;stroke-width:1.0416666666666667;" width="564.5833" x="250.5208" y="2.0833"/><text fill="#C0C0C0" font-family="Open Sans,Avenir,Nunito,Arial,Helvetica,SansSerif" font-size="20.8333" lengthAdjust="spacing" textLength="541.6667" x="261.9792" y="30.5583">com.telenav.mesakit.navigation.routing.cost.operators</text><!--MD5=[721802e552bc14401d889244e1a2cfe5]
class CostFunction--><rect codeLine="7" fill="#282828" height="48.055" id="CostFunction" rx="8.3333" ry="8.3333" style="stroke:#5E5E5E;stroke-width:1.0416666666666667;" width="123.9583" x="518.2292" y="53.7028"/><rect fill="#1B1B1A" height="31.3883" rx="8.3333" ry="8.3333" style="stroke:#1B1B1A;stroke-width:1.0416666666666667;" width="123.9583" x="518.2292" y="53.7028"/><rect fill="#1B1B1A" height="8.3333" style="stroke:#1B1B1A;stroke-width:1.0416666666666667;" width="123.9583" x="518.2292" y="76.7578"/><rect codeLine="7" fill="none" height="48.055" id="CostFunction" rx="8.3333" ry="8.3333" style="stroke:#5E5E5E;stroke-width:1.0416666666666667;" width="123.9583" x="518.2292" y="53.7028"/><ellipse cx="532.8125" cy="69.397" fill="#008400" rx="10.4167" ry="10.4167" style="stroke:#239C23;stroke-width:1.0416666666666667;"/><path d="M530.2165,66.5588 L530.2165,64.9719 L535.6425,64.9719 L535.6425,66.5588 L533.8298,66.5588 L533.8298,72.4976 L535.6425,72.4976 L535.6425,74.0845 L530.2165,74.0845 L530.2165,72.4976 L532.0292,72.4976 L532.0292,66.5588 Z " fill="#000000"/><text fill="#D8BC00" font-family="Open Sans,Avenir,Nunito,Arial,Helvetica,SansSerif" font-size="12.5" font-style="italic" font-weight="bold" lengthAdjust="spacing" textLength="86.4583" x="549.4792" y="74.1211">CostFunction</text><line style="stroke:#5E5E5E;stroke-width:1.0416666666666667;" x1="519.2708" x2="641.1458" y1="85.0911" y2="85.0911"/><line style="stroke:#5E5E5E;stroke-width:1.0416666666666667;" x1="519.2708" x2="641.1458" y1="93.4245" y2="93.4245"/><!--MD5=[31db482708066df67976a1275716dd3f]
class MaximumCost--><rect codeLine="10" fill="#282828" height="83.3781" id="MaximumCost" rx="8.3333" ry="8.3333" style="stroke:#5E5E5E;stroke-width:1.0416666666666667;" width="277.0833" x="7.2917" y="164.1195"/><rect fill="#1B1B1A" height="31.3883" rx="8.3333" ry="8.3333" style="stroke:#1B1B1A;stroke-width:1.0416666666666667;" width="277.0833" x="7.2917" y="164.1195"/><rect fill="#1B1B1A" height="8.3333" style="stroke:#1B1B1A;stroke-width:1.0416666666666667;" width="277.0833" x="7.2917" y="187.1745"/><rect codeLine="10" fill="none" height="83.3781" id="MaximumCost" rx="8.3333" ry="8.3333" style="stroke:#5E5E5E;stroke-width:1.0416666666666667;" width="277.0833" x="7.2917" y="164.1195"/><ellipse cx="91.6667" cy="179.8136" fill="#0066CF" rx="10.4167" ry="10.4167" style="stroke:#0086EF;stroke-width:1.0416666666666667;"/><path d="M93.5771,184.2387 Q93.1498,184.4584 92.6799,184.5683 Q92.2099,184.6781 91.6911,184.6781 Q89.8478,184.6781 88.8774,183.4635 Q87.9069,182.2489 87.9069,179.954 Q87.9069,177.653 88.8774,176.4384 Q89.8478,175.2238 91.6911,175.2238 Q92.2099,175.2238 92.686,175.3337 Q93.162,175.4435 93.5771,175.6632 L93.5771,177.6652 Q93.1132,177.238 92.6768,177.0396 Q92.2404,176.8412 91.7765,176.8412 Q90.7878,176.8412 90.2842,177.6255 Q89.7807,178.4098 89.7807,179.954 Q89.7807,181.4921 90.2842,182.2764 Q90.7878,183.0607 91.7765,183.0607 Q92.2404,183.0607 92.6768,182.8623 Q93.1132,182.664 93.5771,182.2367 Z " fill="#000000"/><text fill="#D8BC00" font-family="Open Sans,Avenir,Nunito,Arial,Helvetica,SansSerif" font-size="12.5" font-weight="bold" lengthAdjust="spacing" textLength="93.75" x="114.5833" y="184.5378">MaximumCost</text><line style="stroke:#5E5E5E;stroke-width:1.5625;" x1="8.3333" x2="283.3333" y1="195.5078" y2="195.5078"/><ellipse cx="18.75" cy="230.8777" fill="#84BE84" rx="3.125" ry="3.125" style="stroke:#038048;stroke-width:1.0416666666666667;"/><text fill="#D8BC00" font-family="Open Sans,Avenir,Nunito,Arial,Helvetica,SansSerif" font-size="11.4583" lengthAdjust="spacing" textLength="244.7917" x="30.2083" y="237.7889">MaximumCost(CostFunction, CostFunction)</text><line style="stroke:#5E5E5E;stroke-width:1.0416666666666667;" x1="8.3333" x2="102.0833" y1="213.7136" y2="213.7136"/><text fill="#D8BC00" font-family="Open Sans,Avenir,Nunito,Arial,Helvetica,SansSerif" font-size="11.4583" lengthAdjust="spacing" textLength="81.25" x="105.2083" y="217.5232">(constructors)</text><line style="stroke:#5E5E5E;stroke-width:1.0416666666666667;" x1="189.5833" x2="283.3333" y1="213.7136" y2="213.7136"/><!--MD5=[8b56c8475ecf541d0663395b5a75a5a0]
class Minimum--><rect codeLine="17" fill="#282828" height="83.3781" id="Minimum" rx="8.3333" ry="8.3333" style="stroke:#5E5E5E;stroke-width:1.0416666666666667;" width="247.9167" x="320.8333" y="164.1195"/><rect fill="#1B1B1A" height="31.3883" rx="8.3333" ry="8.3333" style="stroke:#1B1B1A;stroke-width:1.0416666666666667;" width="247.9167" x="320.8333" y="164.1195"/><rect fill="#1B1B1A" height="8.3333" style="stroke:#1B1B1A;stroke-width:1.0416666666666667;" width="247.9167" x="320.8333" y="187.1745"/><rect codeLine="17" fill="none" height="83.3781" id="Minimum" rx="8.3333" ry="8.3333" style="stroke:#5E5E5E;stroke-width:1.0416666666666667;" width="247.9167" x="320.8333" y="164.1195"/><ellipse cx="406.7708" cy="179.8136" fill="#0066CF" rx="10.4167" ry="10.4167" style="stroke:#0086EF;stroke-width:1.0416666666666667;"/><path d="M408.6812,184.2387 Q408.254,184.4584 407.784,184.5683 Q407.314,184.6781 406.7952,184.6781 Q404.952,184.6781 403.9815,183.4635 Q403.0111,182.2489 403.0111,179.954 Q403.0111,177.653 403.9815,176.4384 Q404.952,175.2238 406.7952,175.2238 Q407.314,175.2238 407.7901,175.3337 Q408.2662,175.4435 408.6812,175.6632 L408.6812,177.6652 Q408.2174,177.238 407.781,177.0396 Q407.3446,176.8412 406.8807,176.8412 Q405.8919,176.8412 405.3884,177.6255 Q404.8848,178.4098 404.8848,179.954 Q404.8848,181.4921 405.3884,182.2764 Q405.8919,183.0607 406.8807,183.0607 Q407.3446,183.0607 407.781,182.8623 Q408.2174,182.664 408.6812,182.2367 Z " fill="#000000"/><text fill="#D8BC00" font-family="Open Sans,Avenir,Nunito,Arial,Helvetica,SansSerif" font-size="12.5" font-weight="bold" lengthAdjust="spacing" textLength="61.4583" x="429.6875" y="184.5378">Minimum</text><line style="stroke:#5E5E5E;stroke-width:1.5625;" x1="321.875" x2="567.7083" y1="195.5078" y2="195.5078"/><ellipse cx="332.2917" cy="230.8777" fill="#84BE84" rx="3.125" ry="3.125" style="stroke:#038048;stroke-width:1.0416666666666667;"/><text fill="#D8BC00" font-family="Open Sans,Avenir,Nunito,Arial,Helvetica,SansSerif" font-size="11.4583" lengthAdjust="spacing" textLength="215.625" x="343.75" y="237.7889">Minimum(CostFunction, CostFunction)</text><line style="stroke:#5E5E5E;stroke-width:1.0416666666666667;" x1="321.875" x2="401.0417" y1="213.7136" y2="213.7136"/><text fill="#D8BC00" font-family="Open Sans,Avenir,Nunito,Arial,Helvetica,SansSerif" font-size="11.4583" lengthAdjust="spacing" textLength="81.25" x="404.1667" y="217.5232">(constructors)</text><line style="stroke:#5E5E5E;stroke-width:1.0416666666666667;" x1="488.5417" x2="567.7083" y1="213.7136" y2="213.7136"/><!--MD5=[eb65cc30424011594fbb8847441a41dd]
class Plus--><rect codeLine="24" fill="#282828" height="83.3781" id="Plus" rx="8.3333" ry="8.3333" style="stroke:#5E5E5E;stroke-width:1.0416666666666667;" width="219.7917" x="605.7292" y="164.1195"/><rect fill="#1B1B1A" height="31.3883" rx="8.3333" ry="8.3333" style="stroke:#1B1B1A;stroke-width:1.0416666666666667;" width="219.7917" x="605.7292" y="164.1195"/><rect fill="#1B1B1A" height="8.3333" style="stroke:#1B1B1A;stroke-width:1.0416666666666667;" width="219.7917" x="605.7292" y="187.1745"/><rect codeLine="24" fill="none" height="83.3781" id="Plus" rx="8.3333" ry="8.3333" style="stroke:#5E5E5E;stroke-width:1.0416666666666667;" width="219.7917" x="605.7292" y="164.1195"/><ellipse cx="694.7917" cy="179.8136" fill="#0066CF" rx="10.4167" ry="10.4167" style="stroke:#0086EF;stroke-width:1.0416666666666667;"/><path d="M696.7021,184.2387 Q696.2748,184.4584 695.8049,184.5683 Q695.3349,184.6781 694.8161,184.6781 Q692.9728,184.6781 692.0024,183.4635 Q691.0319,182.2489 691.0319,179.954 Q691.0319,177.653 692.0024,176.4384 Q692.9728,175.2238 694.8161,175.2238 Q695.3349,175.2238 695.811,175.3337 Q696.287,175.4435 696.7021,175.6632 L696.7021,177.6652 Q696.2382,177.238 695.8018,177.0396 Q695.3654,176.8412 694.9015,176.8412 Q693.9128,176.8412 693.4092,177.6255 Q692.9057,178.4098 692.9057,179.954 Q692.9057,181.4921 693.4092,182.2764 Q693.9128,183.0607 694.9015,183.0607 Q695.3654,183.0607 695.8018,182.8623 Q696.2382,182.664 696.7021,182.2367 Z " fill="#000000"/><text fill="#D8BC00" font-family="Open Sans,Avenir,Nunito,Arial,Helvetica,SansSerif" font-size="12.5" font-weight="bold" lengthAdjust="spacing" textLength="27.0833" x="717.7083" y="184.5378">Plus</text><line style="stroke:#5E5E5E;stroke-width:1.5625;" x1="606.7708" x2="824.4792" y1="195.5078" y2="195.5078"/><ellipse cx="617.1875" cy="230.8777" fill="#84BE84" rx="3.125" ry="3.125" style="stroke:#038048;stroke-width:1.0416666666666667;"/><text fill="#D8BC00" font-family="Open Sans,Avenir,Nunito,Arial,Helvetica,SansSerif" font-size="11.4583" lengthAdjust="spacing" textLength="187.5" x="628.6458" y="237.7889">Plus(CostFunction, CostFunction)</text><line style="stroke:#5E5E5E;stroke-width:1.0416666666666667;" x1="606.7708" x2="671.875" y1="213.7136" y2="213.7136"/><text fill="#D8BC00" font-family="Open Sans,Avenir,Nunito,Arial,Helvetica,SansSerif" font-size="11.4583" lengthAdjust="spacing" textLength="81.25" x="675" y="217.5232">(constructors)</text><line style="stroke:#5E5E5E;stroke-width:1.0416666666666667;" x1="759.375" x2="824.4792" y1="213.7136" y2="213.7136"/><!--MD5=[9d55e031fd2298d7aeda8acf4e9c1666]
class Weighted--><rect codeLine="31" fill="#282828" height="83.3781" id="Weighted" rx="8.3333" ry="8.3333" style="stroke:#5E5E5E;stroke-width:1.0416666666666667;" width="210.4167" x="862.5" y="164.1195"/><rect fill="#1B1B1A" height="31.3883" rx="8.3333" ry="8.3333" style="stroke:#1B1B1A;stroke-width:1.0416666666666667;" width="210.4167" x="862.5" y="164.1195"/><rect fill="#1B1B1A" height="8.3333" style="stroke:#1B1B1A;stroke-width:1.0416666666666667;" width="210.4167" x="862.5" y="187.1745"/><rect codeLine="31" fill="none" height="83.3781" id="Weighted" rx="8.3333" ry="8.3333" style="stroke:#5E5E5E;stroke-width:1.0416666666666667;" width="210.4167" x="862.5" y="164.1195"/><ellipse cx="930.2083" cy="179.8136" fill="#0066CF" rx="10.4167" ry="10.4167" style="stroke:#0086EF;stroke-width:1.0416666666666667;"/><path d="M932.1187,184.2387 Q931.6915,184.4584 931.2215,184.5683 Q930.7515,184.6781 930.2327,184.6781 Q928.3895,184.6781 927.419,183.4635 Q926.4486,182.2489 926.4486,179.954 Q926.4486,177.653 927.419,176.4384 Q928.3895,175.2238 930.2327,175.2238 Q930.7515,175.2238 931.2276,175.3337 Q931.7037,175.4435 932.1187,175.6632 L932.1187,177.6652 Q931.6549,177.238 931.2185,177.0396 Q930.7821,176.8412 930.3182,176.8412 Q929.3294,176.8412 928.8259,177.6255 Q928.3223,178.4098 928.3223,179.954 Q928.3223,181.4921 928.8259,182.2764 Q929.3294,183.0607 930.3182,183.0607 Q930.7821,183.0607 931.2185,182.8623 Q931.6549,182.664 932.1187,182.2367 Z " fill="#000000"/><text fill="#D8BC00" font-family="Open Sans,Avenir,Nunito,Arial,Helvetica,SansSerif" font-size="12.5" font-weight="bold" lengthAdjust="spacing" textLength="60.4167" x="953.125" y="184.5378">Weighted</text><line style="stroke:#5E5E5E;stroke-width:1.5625;" x1="863.5417" x2="1071.875" y1="195.5078" y2="195.5078"/><ellipse cx="873.9583" cy="230.8777" fill="#84BE84" rx="3.125" ry="3.125" style="stroke:#038048;stroke-width:1.0416666666666667;"/><text fill="#D8BC00" font-family="Open Sans,Avenir,Nunito,Arial,Helvetica,SansSerif" font-size="11.4583" lengthAdjust="spacing" textLength="178.125" x="885.4167" y="237.7889">Weighted(CostFunction, Weight)</text><line style="stroke:#5E5E5E;stroke-width:1.0416666666666667;" x1="863.5417" x2="923.9583" y1="213.7136" y2="213.7136"/><text fill="#D8BC00" font-family="Open Sans,Avenir,Nunito,Arial,Helvetica,SansSerif" font-size="11.4583" lengthAdjust="spacing" textLength="81.25" x="927.0833" y="217.5232">(constructors)</text><line style="stroke:#5E5E5E;stroke-width:1.0416666666666667;" x1="1011.4583" x2="1071.875" y1="213.7136" y2="213.7136"/><!--MD5=[c5caf496fc73a60e0ac36d8a493decb8]
reverse link CostFunction to MaximumCost--><path codeLine="9" d="M497.7188,102.6403 C437.625,120.0778 354.7813,144.109 284.5833,164.484 " fill="none" id="CostFunction-backto-MaximumCost" style="stroke:#545454;stroke-width:1.5625;"/><polygon fill="none" points="495.9375,95.5674,517.9688,96.7653,500,109.5674,495.9375,95.5674" style="stroke:#545454;stroke-width:1.5625;"/><!--MD5=[b94e9d137154d88d7d1e642e7b4992e2]
reverse link CostFunction to Minimum--><path codeLine="16" d="M539.6875,116.4215 C523.6042,131.3903 505.0521,148.6507 488.6563,163.9215 " fill="none" id="CostFunction-backto-Minimum" style="stroke:#545454;stroke-width:1.5625;"/><polygon fill="none" points="535.1563,110.682,555.375,101.8174,545.0938,121.3486,535.1563,110.682" style="stroke:#545454;stroke-width:1.5625;"/><!--MD5=[0bca6da29ba04f1571c0486918b6ac18]
reverse link CostFunction to Plus--><path codeLine="23" d="M620.7292,116.4215 C636.8125,131.3903 655.3646,148.6507 671.7604,163.9215 " fill="none" id="CostFunction-backto-Plus" style="stroke:#545454;stroke-width:1.5625;"/><polygon fill="none" points="615.3229,121.3486,605.0417,101.8174,625.2604,110.682,615.3229,121.3486" style="stroke:#545454;stroke-width:1.5625;"/><!--MD5=[219e2b60a38bb15ee59a53724740c07f]
reverse link CostFunction to Weighted--><path codeLine="30" d="M662.3854,105.2653 C714.3854,122.0882 783.0313,144.3278 843.75,164.1195 C849.7813,166.0882 855.9688,168.109 862.2188,170.1507 " fill="none" id="CostFunction-backto-Weighted" style="stroke:#545454;stroke-width:1.5625;"/><polygon fill="none" points="659.8438,112.0986,642.2604,98.7549,664.3229,98.2236,659.8438,112.0986" style="stroke:#545454;stroke-width:1.5625;"/><!--MD5=[3dc79e54a9bf9ff0ac1eefdd9285997e]
@startuml

    !include lexakai.theme
    
    title "com.telenav.mesakit.navigation.routing.cost.operators"
    
    interface CostFunction
    
    CostFunction <|- - MaximumCost
    class MaximumCost
    {
        - -(constructors)- -
        +MaximumCost(CostFunction, CostFunction)
    }
    
    CostFunction <|- - Minimum
    class Minimum
    {
        - -(constructors)- -
        +Minimum(CostFunction, CostFunction)
    }
    
    CostFunction <|- - Plus
    class Plus
    {
        - -(constructors)- -
        +Plus(CostFunction, CostFunction)
    }
    
    CostFunction <|- - Weighted
    class Weighted
    {
        - -(constructors)- -
        +Weighted(CostFunction, Weight)
    }
    
@enduml

@startuml









skinparam backgroundColor #333333






skinparam  {
    defaultFontName   "Open Sans,Avenir,Nunito,Arial,Helvetica,SansSerif"
    defaultFontSize   12
    defaultTextAlignment left
    shadowing false
    RoundCorner 10
    TitleFontSize 18
}

skinparam defaultFontName       "Open Sans,Avenir,Nunito,Arial,Helvetica,SansSerif"
skinparam defaultFontSize       12
skinparam dpi                   100
skinparam shadowing             false
skinparam roundcorner           16
skinparam ParticipantPadding    40
skinparam BoxPadding            40
skinparam Padding               3
skinparam ArrowColor            #545454
skinparam stereotype {
    CBackgroundColor #0066cf
    CBorderColor #0086ef
    ABackgroundColor #C8Ac00
    ABorderColor #D8Bc00
    IBackgroundColor #008400
    IBorderColor #239c23
    EBackgroundColor #cf6300
    EBorderColor #ef8300
    NBackgroundColor #3380b9
    NBorderColor #004d86
}
skinparam title {
	FontColor	                 #c0c0c0
 	BorderColor                  #545454
	FontSize	    	         20
	BorderRoundCorner            16
	BorderThickness 	         1
	BackgroundColor              #48494b
}


skinparam legend {
	BackgroundColor #303030
	BorderColor #404040
	FontColor #a0a0a0
}

	skinparam swimlane {
	BorderColor #5e5e5e
	BorderThickness 2
	TitleBackgroundColor  #6d6d6d-#484848
	TitleFontColor #303030
}

skinparam activity {
		FontColor #C8Ac00
	BorderColor #333333
	BackgroundColor #333333-#333333
	BarColor #00FF00
	StartColor #0060a8
	EndColor #0060a8
	DiamondBackgroundColor #6d6d6d-#3a3a3a
  	DiamondBorderColor #3a3a3a
  	DiamondFontColor #fefefe
}


skinparam participant {
		FontColor #C8Ac00
	BorderColor #333333
	BackgroundColor #333333-#333333
	ParticipantBorderThickness 2
}


skinparam actor {
		FontColor #C8Ac00
	BorderColor #333333
	BackgroundColor #333333-#333333
}


skinparam arrow {
	Thickness 1.5
	Color #545454
	FontColor #a0a0a0
    FontStyle bold
    MessageAlignment center
}



skinparam sequence {
	BorderColor #303030
	TitleFontColor #303030
	BackgroundColor #333333
	StartColor #303030
	EndColor #303030
	BoxBackgroundColor #333333
	BoxBorderColor #484848
	BoxFontColor #484848
	LifeLineBorderColor #484848
	LifeLineBorderThickness 2
	LifeLineBackgroundColor #3a3a3a
	GroupBorderColor #484848
	GroupFontColor #484848
	GroupHeaderFontColor #0060a8
	GroupBackgroundColor #484848
	GroupHeaderBackgroundColor #333333
	DividerBackgroundColor #484848
    DividerBorderColor #484848
    DividerBorderThickness 2
    DividerFontColor #D8Bc00
	ReferenceBackgroundColor #333333
	ReferenceBorderColor #484848
	ReferenceFontColor #fefefe
	ReferenceHeaderBackgroundColor #484848
}


skinparam partition {
	BorderColor #303030
	FontColor #333333
	BackgroundColor #333333
}


skinparam collections {
		FontColor #C8Ac00
	BorderColor #333333
	BackgroundColor #333333-#333333
}


skinparam control {
		FontColor #C8Ac00
	BorderColor #333333
	BackgroundColor #333333-#333333
}


skinparam entity {
		FontColor #C8Ac00
	BorderColor #333333
	BackgroundColor #333333-#333333
}


skinparam boundary {
		FontColor #C8Ac00
	BorderColor #333333
	BackgroundColor #333333-#333333
}


skinparam agent {
	BackgroundColor #ff8000
	BorderColor #ff9933
	FontColor #484848
}


skinparam note {
	BorderThickness 1
	BackgroundColor #1b1b1a
	BorderColor #5e5e5e
	FontSize 11
	FontColor #a0a0a0
}


skinparam artifact {
	BorderThickness 10
	BorderColor #5e5e5e
	BackgroundColor #1b1b1a
	FontColor #D8Bc00
}


skinparam component {
		FontColor #C8Ac00
	BorderColor #333333
	BackgroundColor #333333-#333333
}


skinparam interface {
	BackgroundColor  #008400
	BorderColor  #007F00
	FontColor #484848
}


skinparam storage {
	BackgroundColor #ff8000
  	BorderColor #cc6600
	FontColor #222222
}


skinparam node {
	BackgroundColor #333333
	BorderColor #333333
	FontColor #C8Ac00
}


skinparam cloud {
	BackgroundColor #484848-black
	BorderColor #484848
	FontColor #D8Bc00
}


skinparam database {
		FontColor #C8Ac00
	BorderColor #333333
	BackgroundColor #333333-#333333
	BackgroundColor  #333333
}


skinparam class {
		FontColor #C8Ac00
	BorderColor #333333
	BackgroundColor #333333-#333333
	HeaderBackgroundColor #1b1b1a
    BackgroundColor #282828
    BorderColor #5e5e5e
 	StereotypeFontColor #a0a0a0
    StereotypeFontStyle bold
	BorderThickness 1
	AttributeFontColor #D8Bc00
	AttributeFontSize 11
    FontColor #D8Bc00
    FontStyle bold
}


skinparam object {
		FontColor #C8Ac00
	BorderColor #333333
	BackgroundColor #333333-#333333
	StereotypeFontColor #484848
	BorderThickness 1
	AttributeFontColor #fefefe
	AttributeFontSize 11
}


skinparam usecase {
		FontColor #C8Ac00
	BorderColor #333333
	BackgroundColor #333333-#333333
	BorderThickness 2
	StereotypeFontColor #303030
}


skinparam rectangle {
		FontColor #C8Ac00
	BorderColor #333333
	BackgroundColor #333333-#333333
	BackgroundColor #333333
	BorderThickness 2
	StereotypeFontColor #303030
}


skinparam package {
		FontColor #C8Ac00
	BorderColor #333333
	BackgroundColor #333333-#333333
	BackgroundColor #333333
	BorderThickness 2
}


skinparam folder {
	BackgroundColor #6d6d6d
  	BorderColor #ff8000
	FontColor #ff8000
	BorderThickness 2
}


skinparam frame {
	BackgroundColor #6d6d6d
  	BorderColor #0060a8
	FontColor #0060a8
	BorderThickness 2
}


skinparam state {
		FontColor #C8Ac00
	BorderColor #333333
	BackgroundColor #333333-#333333
	StartColor #0060a8
	EndColor #0060a8
	AttributeFontColor #fefefe
	AttributeFontSize 11
}


skinparam queue {
		FontColor #C8Ac00
	BorderColor #333333
	BackgroundColor #333333-#333333
}


skinparam card {
	BackgroundColor #0060a8
	BorderColor #004d86
	FontColor $INFO_TEXT
}


skinparam file {
	BackgroundColor #6d6d6d-#484848
	BorderColor #0060a8
	FontColor #fefefe
}


skinparam stack {
		FontColor #C8Ac00
	BorderColor #333333
	BackgroundColor #333333-#333333
}

    
    title "com.telenav.mesakit.navigation.routing.cost.operators"
    
    interface CostFunction
    
    CostFunction <|- - MaximumCost
    class MaximumCost
    {
        - -(constructors)- -
        +MaximumCost(CostFunction, CostFunction)
    }
    
    CostFunction <|- - Minimum
    class Minimum
    {
        - -(constructors)- -
        +Minimum(CostFunction, CostFunction)
    }
    
    CostFunction <|- - Plus
    class Plus
    {
        - -(constructors)- -
        +Plus(CostFunction, CostFunction)
    }
    
    CostFunction <|- - Weighted
    class Weighted
    {
        - -(constructors)- -
        +Weighted(CostFunction, Weight)
    }
    
@enduml

PlantUML version 1.2021.01(Tue Feb 02 02:55:08 EST 2021)
(GPL source distribution)
Java Runtime: OpenJDK Runtime Environment
JVM: OpenJDK 64-Bit Server VM
Default Encoding: UTF-8
Language: en
Country: US
--></g></svg>