<?xml version="1.0" encoding="UTF-8" standalone="no"?><svg xmlns="http://www.w3.org/2000/svg" xmlns:xlink="http://www.w3.org/1999/xlink" contentScriptType="application/ecmascript" contentStyleType="text/css" height="313.5417px" preserveAspectRatio="none" style="width:1036px;height:313px;background:#333333;" version="1.1" viewBox="0 0 1036 313" width="1036.4583px" zoomAndPan="magnify"><defs/><g><rect fill="#48494B" height="41.2028" rx="8.3333" ry="8.3333" style="stroke:#545454;stroke-width:1.0416666666666667;" width="560.4167" x="230.9896" y="2.0833"/><text fill="#C0C0C0" font-family="Open Sans,Avenir,Nunito,Arial,Helvetica,SansSerif" font-size="20.8333" lengthAdjust="spacing" textLength="537.5" x="242.4479" y="30.5583">com.telenav.mesakit.navigation.routing.cost.functions</text><!--MD5=[2c570ec8cfd348382b22853b44ea43be]
class EdgePermissionFunction--><rect codeLine="7" fill="#282828" height="48.055" id="EdgePermissionFunction" rx="8.3333" ry="8.3333" style="stroke:#5E5E5E;stroke-width:1.0416666666666667;" width="196.875" x="7.2917" y="73.4945"/><rect fill="#1B1B1A" height="31.3883" rx="8.3333" ry="8.3333" style="stroke:#1B1B1A;stroke-width:1.0416666666666667;" width="196.875" x="7.2917" y="73.4945"/><rect fill="#1B1B1A" height="8.3333" style="stroke:#1B1B1A;stroke-width:1.0416666666666667;" width="196.875" x="7.2917" y="96.5495"/><rect codeLine="7" fill="none" height="48.055" id="EdgePermissionFunction" rx="8.3333" ry="8.3333" style="stroke:#5E5E5E;stroke-width:1.0416666666666667;" width="196.875" x="7.2917" y="73.4945"/><ellipse cx="21.875" cy="89.1886" fill="#008400" rx="10.4167" ry="10.4167" style="stroke:#239C23;stroke-width:1.0416666666666667;"/><path d="M19.279,86.3505 L19.279,84.7636 L24.705,84.7636 L24.705,86.3505 L22.8923,86.3505 L22.8923,92.2892 L24.705,92.2892 L24.705,93.8761 L19.279,93.8761 L19.279,92.2892 L21.0917,92.2892 L21.0917,86.3505 Z " fill="#000000"/><text fill="#D8BC00" font-family="Open Sans,Avenir,Nunito,Arial,Helvetica,SansSerif" font-size="12.5" font-style="italic" font-weight="bold" lengthAdjust="spacing" textLength="159.375" x="38.5417" y="93.9128">EdgePermissionFunction</text><line style="stroke:#5E5E5E;stroke-width:1.0416666666666667;" x1="8.3333" x2="203.125" y1="104.8828" y2="104.8828"/><line style="stroke:#5E5E5E;stroke-width:1.0416666666666667;" x1="8.3333" x2="203.125" y1="113.2161" y2="113.2161"/><!--MD5=[721802e552bc14401d889244e1a2cfe5]
class CostFunction--><rect codeLine="8" fill="#282828" height="48.055" id="CostFunction" rx="8.3333" ry="8.3333" style="stroke:#5E5E5E;stroke-width:1.0416666666666667;" width="123.9583" x="591.6667" y="73.4945"/><rect fill="#1B1B1A" height="31.3883" rx="8.3333" ry="8.3333" style="stroke:#1B1B1A;stroke-width:1.0416666666666667;" width="123.9583" x="591.6667" y="73.4945"/><rect fill="#1B1B1A" height="8.3333" style="stroke:#1B1B1A;stroke-width:1.0416666666666667;" width="123.9583" x="591.6667" y="96.5495"/><rect codeLine="8" fill="none" height="48.055" id="CostFunction" rx="8.3333" ry="8.3333" style="stroke:#5E5E5E;stroke-width:1.0416666666666667;" width="123.9583" x="591.6667" y="73.4945"/><ellipse cx="606.25" cy="89.1886" fill="#008400" rx="10.4167" ry="10.4167" style="stroke:#239C23;stroke-width:1.0416666666666667;"/><path d="M603.654,86.3505 L603.654,84.7636 L609.08,84.7636 L609.08,86.3505 L607.2673,86.3505 L607.2673,92.2892 L609.08,92.2892 L609.08,93.8761 L603.654,93.8761 L603.654,92.2892 L605.4667,92.2892 L605.4667,86.3505 Z " fill="#000000"/><text fill="#D8BC00" font-family="Open Sans,Avenir,Nunito,Arial,Helvetica,SansSerif" font-size="12.5" font-style="italic" font-weight="bold" lengthAdjust="spacing" textLength="86.4583" x="622.9167" y="93.9128">CostFunction</text><line style="stroke:#5E5E5E;stroke-width:1.0416666666666667;" x1="592.7083" x2="714.5833" y1="104.8828" y2="104.8828"/><line style="stroke:#5E5E5E;stroke-width:1.0416666666666667;" x1="592.7083" x2="714.5833" y1="113.2161" y2="113.2161"/><!--MD5=[ff79a495abf29eb9cd96cd5d5da98138]
class RoutePermissionFunction--><rect codeLine="9" fill="#282828" height="48.055" id="RoutePermissionFunction" rx="8.3333" ry="8.3333" style="stroke:#5E5E5E;stroke-width:1.0416666666666667;" width="203.125" x="240.625" y="73.4945"/><rect fill="#1B1B1A" height="31.3883" rx="8.3333" ry="8.3333" style="stroke:#1B1B1A;stroke-width:1.0416666666666667;" width="203.125" x="240.625" y="73.4945"/><rect fill="#1B1B1A" height="8.3333" style="stroke:#1B1B1A;stroke-width:1.0416666666666667;" width="203.125" x="240.625" y="96.5495"/><rect codeLine="9" fill="none" height="48.055" id="RoutePermissionFunction" rx="8.3333" ry="8.3333" style="stroke:#5E5E5E;stroke-width:1.0416666666666667;" width="203.125" x="240.625" y="73.4945"/><ellipse cx="255.2083" cy="89.1886" fill="#008400" rx="10.4167" ry="10.4167" style="stroke:#239C23;stroke-width:1.0416666666666667;"/><path d="M252.6123,86.3505 L252.6123,84.7636 L258.0383,84.7636 L258.0383,86.3505 L256.2256,86.3505 L256.2256,92.2892 L258.0383,92.2892 L258.0383,93.8761 L252.6123,93.8761 L252.6123,92.2892 L254.425,92.2892 L254.425,86.3505 Z " fill="#000000"/><text fill="#D8BC00" font-family="Open Sans,Avenir,Nunito,Arial,Helvetica,SansSerif" font-size="12.5" font-style="italic" font-weight="bold" lengthAdjust="spacing" textLength="165.625" x="271.875" y="93.9128">RoutePermissionFunction</text><line style="stroke:#5E5E5E;stroke-width:1.0416666666666667;" x1="241.6667" x2="442.7083" y1="104.8828" y2="104.8828"/><line style="stroke:#5E5E5E;stroke-width:1.0416666666666667;" x1="241.6667" x2="442.7083" y1="113.2161" y2="113.2161"/><!--MD5=[2bb060e68506e64831f81a3017eb268d]
class TollRoadCostFunction--><rect codeLine="12" fill="#282828" height="83.3781" id="TollRoadCostFunction" rx="8.3333" ry="8.3333" style="stroke:#5E5E5E;stroke-width:1.0416666666666667;" width="243.75" x="430.7292" y="213.5986"/><rect fill="#1B1B1A" height="31.3883" rx="8.3333" ry="8.3333" style="stroke:#1B1B1A;stroke-width:1.0416666666666667;" width="243.75" x="430.7292" y="213.5986"/><rect fill="#1B1B1A" height="8.3333" style="stroke:#1B1B1A;stroke-width:1.0416666666666667;" width="243.75" x="430.7292" y="236.6536"/><rect codeLine="12" fill="none" height="83.3781" id="TollRoadCostFunction" rx="8.3333" ry="8.3333" style="stroke:#5E5E5E;stroke-width:1.0416666666666667;" width="243.75" x="430.7292" y="213.5986"/><ellipse cx="473.4375" cy="229.2928" fill="#0066CF" rx="10.4167" ry="10.4167" style="stroke:#0086EF;stroke-width:1.0416666666666667;"/><path d="M475.3479,233.7179 Q474.9207,233.9376 474.4507,234.0474 Q473.9807,234.1573 473.4619,234.1573 Q471.6187,234.1573 470.6482,232.9427 Q469.6777,231.7281 469.6777,229.4332 Q469.6777,227.1322 470.6482,225.9176 Q471.6187,224.703 473.4619,224.703 Q473.9807,224.703 474.4568,224.8128 Q474.9329,224.9227 475.3479,225.1424 L475.3479,227.1444 Q474.884,226.7171 474.4476,226.5188 Q474.0112,226.3204 473.5474,226.3204 Q472.5586,226.3204 472.0551,227.1047 Q471.5515,227.889 471.5515,229.4332 Q471.5515,230.9713 472.0551,231.7556 Q472.5586,232.5399 473.5474,232.5399 Q474.0112,232.5399 474.4476,232.3415 Q474.884,232.1431 475.3479,231.7159 Z " fill="#000000"/><text fill="#D8BC00" font-family="Open Sans,Avenir,Nunito,Arial,Helvetica,SansSerif" font-size="12.5" font-weight="bold" lengthAdjust="spacing" textLength="143.75" x="496.3542" y="234.0169">TollRoadCostFunction</text><line style="stroke:#5E5E5E;stroke-width:1.5625;" x1="431.7708" x2="673.4375" y1="244.987" y2="244.987"/><ellipse cx="442.1875" cy="280.3569" fill="#84BE84" rx="3.125" ry="3.125" style="stroke:#038048;stroke-width:1.0416666666666667;"/><text fill="#D8BC00" font-family="Open Sans,Avenir,Nunito,Arial,Helvetica,SansSerif" font-size="11.4583" lengthAdjust="spacing" textLength="211.4583" x="453.6458" y="287.2681">TollRoadCostFunction(TollRoadMode)</text><line style="stroke:#5E5E5E;stroke-width:1.0416666666666667;" x1="431.7708" x2="508.8542" y1="263.1927" y2="263.1927"/><text fill="#D8BC00" font-family="Open Sans,Avenir,Nunito,Arial,Helvetica,SansSerif" font-size="11.4583" lengthAdjust="spacing" textLength="81.25" x="511.9792" y="267.0024">(constructors)</text><line style="stroke:#5E5E5E;stroke-width:1.0416666666666667;" x1="596.3542" x2="673.4375" y1="263.1927" y2="263.1927"/><!--MD5=[10670f899025eda69a63e370ef4941f4]
class TollRoadCostFunction.TollRoadMode--><rect codeLine="18" fill="#282828" height="87.5448" id="TollRoadCostFunction.TollRoadMode" rx="8.3333" ry="8.3333" style="stroke:#5E5E5E;stroke-width:1.0416666666666667;" width="277.0833" x="752.6042" y="53.7028"/><rect fill="#1B1B1A" height="31.3883" rx="8.3333" ry="8.3333" style="stroke:#1B1B1A;stroke-width:1.0416666666666667;" width="277.0833" x="752.6042" y="53.7028"/><rect fill="#1B1B1A" height="8.3333" style="stroke:#1B1B1A;stroke-width:1.0416666666666667;" width="277.0833" x="752.6042" y="76.7578"/><rect codeLine="18" fill="none" height="87.5448" id="TollRoadCostFunction.TollRoadMode" rx="8.3333" ry="8.3333" style="stroke:#5E5E5E;stroke-width:1.0416666666666667;" width="277.0833" x="752.6042" y="53.7028"/><ellipse cx="767.1875" cy="69.397" fill="#CF6300" rx="10.4167" ry="10.4167" style="stroke:#EF8300;stroke-width:1.0416666666666667;"/><path d="M770.2433,74.0845 L764.5671,74.0845 L764.5671,64.9719 L770.2433,64.9719 L770.2433,66.5588 L766.3676,66.5588 L766.3676,68.5242 L769.8771,68.5242 L769.8771,70.1111 L766.3676,70.1111 L766.3676,72.4976 L770.2433,72.4976 Z " fill="#000000"/><text fill="#D8BC00" font-family="Open Sans,Avenir,Nunito,Arial,Helvetica,SansSerif" font-size="12.5" font-weight="bold" lengthAdjust="spacing" textLength="239.5833" x="783.8542" y="74.1211">TollRoadCostFunction.TollRoadMode</text><line style="stroke:#5E5E5E;stroke-width:1.0416666666666667;" x1="753.6458" x2="1028.6458" y1="85.0911" y2="85.0911"/><text fill="#D8BC00" font-family="Open Sans,Avenir,Nunito,Arial,Helvetica,SansSerif" font-size="11.4583" lengthAdjust="spacing" textLength="117.7083" x="761.9792" y="103.4607">AVOID_TOLL_ROADS</text><text fill="#D8BC00" font-family="Open Sans,Avenir,Nunito,Arial,Helvetica,SansSerif" font-size="11.4583" lengthAdjust="spacing" textLength="102.0833" x="761.9792" y="123.2056">USE_TOLL_ROADS</text><line style="stroke:#5E5E5E;stroke-width:1.0416666666666667;" x1="753.6458" x2="1028.6458" y1="132.9142" y2="132.9142"/><!--MD5=[4429b30f03765476970855e26c0e61fb]
class TravelTimeCostFunction--><rect codeLine="25" fill="#282828" height="103.123" id="TravelTimeCostFunction" rx="8.3333" ry="8.3333" style="stroke:#5E5E5E;stroke-width:1.0416666666666667;" width="310.4167" x="710.9375" y="203.7028"/><rect fill="#1B1B1A" height="31.3883" rx="8.3333" ry="8.3333" style="stroke:#1B1B1A;stroke-width:1.0416666666666667;" width="310.4167" x="710.9375" y="203.7028"/><rect fill="#1B1B1A" height="8.3333" style="stroke:#1B1B1A;stroke-width:1.0416666666666667;" width="310.4167" x="710.9375" y="226.7578"/><rect codeLine="25" fill="none" height="103.123" id="TravelTimeCostFunction" rx="8.3333" ry="8.3333" style="stroke:#5E5E5E;stroke-width:1.0416666666666667;" width="310.4167" x="710.9375" y="203.7028"/><ellipse cx="779.6875" cy="219.397" fill="#0066CF" rx="10.4167" ry="10.4167" style="stroke:#0086EF;stroke-width:1.0416666666666667;"/><path d="M781.5979,223.822 Q781.1707,224.0417 780.7007,224.1516 Q780.2307,224.2615 779.7119,224.2615 Q777.8687,224.2615 776.8982,223.0469 Q775.9277,221.8323 775.9277,219.5374 Q775.9277,217.2363 776.8982,216.0217 Q777.8687,214.8071 779.7119,214.8071 Q780.2307,214.8071 780.7068,214.917 Q781.1829,215.0269 781.5979,215.2466 L781.5979,217.2485 Q781.134,216.8213 780.6976,216.6229 Q780.2612,216.4246 779.7974,216.4246 Q778.8086,216.4246 778.3051,217.2089 Q777.8015,217.9932 777.8015,219.5374 Q777.8015,221.0754 778.3051,221.8597 Q778.8086,222.644 779.7974,222.644 Q780.2612,222.644 780.6976,222.4457 Q781.134,222.2473 781.5979,221.8201 Z " fill="#000000"/><text fill="#D8BC00" font-family="Open Sans,Avenir,Nunito,Arial,Helvetica,SansSerif" font-size="12.5" font-weight="bold" lengthAdjust="spacing" textLength="158.3333" x="802.6042" y="224.1211">TravelTimeCostFunction</text><line style="stroke:#5E5E5E;stroke-width:1.5625;" x1="711.9792" x2="1020.3125" y1="235.0911" y2="235.0911"/><ellipse cx="722.3958" cy="270.461" fill="#84BE84" rx="3.125" ry="3.125" style="stroke:#038048;stroke-width:1.0416666666666667;"/><text fill="#D8BC00" font-family="Open Sans,Avenir,Nunito,Arial,Helvetica,SansSerif" font-size="11.4583" lengthAdjust="spacing" textLength="193.75" x="733.8542" y="277.3722">TravelTimeCostFunction(Duration)</text><ellipse cx="722.3958" cy="290.2059" fill="#84BE84" rx="3.125" ry="3.125" style="stroke:#038048;stroke-width:1.0416666666666667;"/><text fill="#D8BC00" font-family="Open Sans,Avenir,Nunito,Arial,Helvetica,SansSerif" font-size="11.4583" lengthAdjust="spacing" textLength="278.125" x="733.8542" y="297.1171">TravelTimeCostFunction(Speed, Located, Located)</text><line style="stroke:#5E5E5E;stroke-width:1.0416666666666667;" x1="711.9792" x2="822.3958" y1="253.2969" y2="253.2969"/><text fill="#D8BC00" font-family="Open Sans,Avenir,Nunito,Arial,Helvetica,SansSerif" font-size="11.4583" lengthAdjust="spacing" textLength="81.25" x="825.5208" y="257.1065">(constructors)</text><line style="stroke:#5E5E5E;stroke-width:1.0416666666666667;" x1="909.8958" x2="1020.3125" y1="253.2969" y2="253.2969"/><!--MD5=[6fe0933033618aadc0e65a52459ddd02]
class TurnRestrictionFunction--><rect codeLine="34" fill="#282828" height="48.055" id="TurnRestrictionFunction" rx="8.3333" ry="8.3333" style="stroke:#5E5E5E;stroke-width:1.0416666666666667;" width="193.75" x="99.4792" y="231.307"/><rect fill="#1B1B1A" height="31.3883" rx="8.3333" ry="8.3333" style="stroke:#1B1B1A;stroke-width:1.0416666666666667;" width="193.75" x="99.4792" y="231.307"/><rect fill="#1B1B1A" height="8.3333" style="stroke:#1B1B1A;stroke-width:1.0416666666666667;" width="193.75" x="99.4792" y="254.362"/><rect codeLine="34" fill="none" height="48.055" id="TurnRestrictionFunction" rx="8.3333" ry="8.3333" style="stroke:#5E5E5E;stroke-width:1.0416666666666667;" width="193.75" x="99.4792" y="231.307"/><ellipse cx="114.0625" cy="247.0011" fill="#0066CF" rx="10.4167" ry="10.4167" style="stroke:#0086EF;stroke-width:1.0416666666666667;"/><path d="M115.9729,251.4262 Q115.5457,251.6459 115.0757,251.7558 Q114.6057,251.8656 114.0869,251.8656 Q112.2437,251.8656 111.2732,250.651 Q110.3027,249.4364 110.3027,247.1415 Q110.3027,244.8405 111.2732,243.6259 Q112.2437,242.4113 114.0869,242.4113 Q114.6057,242.4113 115.0818,242.5212 Q115.5579,242.631 115.9729,242.8507 L115.9729,244.8527 Q115.509,244.4255 115.0726,244.2271 Q114.6362,244.0287 114.1724,244.0287 Q113.1836,244.0287 112.6801,244.813 Q112.1765,245.5973 112.1765,247.1415 Q112.1765,248.6796 112.6801,249.4639 Q113.1836,250.2482 114.1724,250.2482 Q114.6362,250.2482 115.0726,250.0498 Q115.509,249.8515 115.9729,249.4242 Z " fill="#000000"/><text fill="#D8BC00" font-family="Open Sans,Avenir,Nunito,Arial,Helvetica,SansSerif" font-size="12.5" font-weight="bold" lengthAdjust="spacing" textLength="156.25" x="130.7292" y="251.7253">TurnRestrictionFunction</text><line style="stroke:#5E5E5E;stroke-width:1.0416666666666667;" x1="100.5208" x2="292.1875" y1="262.6953" y2="262.6953"/><line style="stroke:#5E5E5E;stroke-width:1.0416666666666667;" x1="100.5208" x2="292.1875" y1="271.0286" y2="271.0286"/><!--MD5=[7abcb50c6ad1b6f704cdeab3034a24b8]
reverse link CostFunction to TollRoadCostFunction--><path codeLine="11" d="M627.3021,139.0986 C612.4688,161.9528 594.0208,190.4007 579.1563,213.2965 " fill="none" id="CostFunction-backto-TollRoadCostFunction" style="stroke:#545454;stroke-width:1.5625;"/><polygon fill="none" points="621.2813,134.984,638.7396,121.4736,633.5104,142.9215,621.2813,134.984" style="stroke:#545454;stroke-width:1.5625;"/><!--MD5=[944f26d42eb050aa7614bb830b4cff51]
reverse link CostFunction to TravelTimeCostFunction--><path codeLine="24" d="M702.1771,134.057 C730.1979,154.5986 765.9167,180.7653 796.8542,203.4424 " fill="none" id="CostFunction-backto-TravelTimeCostFunction" style="stroke:#545454;stroke-width:1.5625;"/><polygon fill="none" points="697.5,139.6715,685,121.4736,706.1146,127.9111,697.5,139.6715" style="stroke:#545454;stroke-width:1.5625;"/><!--MD5=[a3e599e535e057818d6a2a4a575c4b98]
reverse link RoutePermissionFunction to TurnRestrictionFunction--><path codeLine="32" d="M306.0521,137.0882 C278.3854,166.6299 241.1563,206.3903 217.9583,231.1507 " fill="none" id="RoutePermissionFunction-backto-TurnRestrictionFunction" style="stroke:#545454;stroke-width:1.5625;"/><polygon fill="none" points="301.1042,131.6924,320.6667,121.4736,311.75,141.6611,301.1042,131.6924" style="stroke:#545454;stroke-width:1.5625;"/><!--MD5=[2a29b5158ddd5e5f94ba4fa68810955e]
reverse link EdgePermissionFunction to TurnRestrictionFunction--><path codeLine="33" d="M129.6354,139.5778 C146.6667,168.8278 168.9167,207.0778 182.9271,231.1507 " fill="none" id="EdgePermissionFunction-backto-TurnRestrictionFunction" style="stroke:#545454;stroke-width:1.5625;"/><polygon fill="none" points="123.2813,143.1507,119.1042,121.4736,135.8854,135.807,123.2813,143.1507" style="stroke:#545454;stroke-width:1.5625;"/><!--MD5=[dd69927511a9ab261ee4563192907c3f]
@startuml

    !include lexakai.theme
    
    title "com.telenav.mesakit.navigation.routing.cost.functions"
    
    interface EdgePermissionFunction
    interface CostFunction
    interface RoutePermissionFunction
    
    CostFunction <|- - TollRoadCostFunction
    class TollRoadCostFunction
    {
        - -(constructors)- -
        +TollRoadCostFunction(TollRoadMode)
    }
    
    enum TollRoadCostFunction.TollRoadMode
    {
        AVOID_TOLL_ROADS
        USE_TOLL_ROADS
    }
    
    CostFunction <|- - TravelTimeCostFunction
    class TravelTimeCostFunction
    {
        - -(constructors)- -
        +TravelTimeCostFunction(Duration)
        +TravelTimeCostFunction(Speed, Located, Located)
    }
    
    RoutePermissionFunction <|- - TurnRestrictionFunction
    EdgePermissionFunction <|- - TurnRestrictionFunction
    class TurnRestrictionFunction
    {
    }
    
@enduml

@startuml









skinparam backgroundColor #333333






skinparam  {
    defaultFontName   "Open Sans,Avenir,Nunito,Arial,Helvetica,SansSerif"
    defaultFontSize   12
    defaultTextAlignment left
    shadowing false
    RoundCorner 10
    TitleFontSize 18
}

skinparam defaultFontName       "Open Sans,Avenir,Nunito,Arial,Helvetica,SansSerif"
skinparam defaultFontSize       12
skinparam dpi                   100
skinparam shadowing             false
skinparam roundcorner           16
skinparam ParticipantPadding    40
skinparam BoxPadding            40
skinparam Padding               3
skinparam ArrowColor            #545454
skinparam stereotype {
    CBackgroundColor #0066cf
    CBorderColor #0086ef
    ABackgroundColor #C8Ac00
    ABorderColor #D8Bc00
    IBackgroundColor #008400
    IBorderColor #239c23
    EBackgroundColor #cf6300
    EBorderColor #ef8300
    NBackgroundColor #3380b9
    NBorderColor #004d86
}
skinparam title {
	FontColor	                 #c0c0c0
 	BorderColor                  #545454
	FontSize	    	         20
	BorderRoundCorner            16
	BorderThickness 	         1
	BackgroundColor              #48494b
}


skinparam legend {
	BackgroundColor #303030
	BorderColor #404040
	FontColor #a0a0a0
}

	skinparam swimlane {
	BorderColor #5e5e5e
	BorderThickness 2
	TitleBackgroundColor  #6d6d6d-#484848
	TitleFontColor #303030
}

skinparam activity {
		FontColor #C8Ac00
	BorderColor #333333
	BackgroundColor #333333-#333333
	BarColor #00FF00
	StartColor #0060a8
	EndColor #0060a8
	DiamondBackgroundColor #6d6d6d-#3a3a3a
  	DiamondBorderColor #3a3a3a
  	DiamondFontColor #fefefe
}


skinparam participant {
		FontColor #C8Ac00
	BorderColor #333333
	BackgroundColor #333333-#333333
	ParticipantBorderThickness 2
}


skinparam actor {
		FontColor #C8Ac00
	BorderColor #333333
	BackgroundColor #333333-#333333
}


skinparam arrow {
	Thickness 1.5
	Color #545454
	FontColor #a0a0a0
    FontStyle bold
    MessageAlignment center
}



skinparam sequence {
	BorderColor #303030
	TitleFontColor #303030
	BackgroundColor #333333
	StartColor #303030
	EndColor #303030
	BoxBackgroundColor #333333
	BoxBorderColor #484848
	BoxFontColor #484848
	LifeLineBorderColor #484848
	LifeLineBorderThickness 2
	LifeLineBackgroundColor #3a3a3a
	GroupBorderColor #484848
	GroupFontColor #484848
	GroupHeaderFontColor #0060a8
	GroupBackgroundColor #484848
	GroupHeaderBackgroundColor #333333
	DividerBackgroundColor #484848
    DividerBorderColor #484848
    DividerBorderThickness 2
    DividerFontColor #D8Bc00
	ReferenceBackgroundColor #333333
	ReferenceBorderColor #484848
	ReferenceFontColor #fefefe
	ReferenceHeaderBackgroundColor #484848
}


skinparam partition {
	BorderColor #303030
	FontColor #333333
	BackgroundColor #333333
}


skinparam collections {
		FontColor #C8Ac00
	BorderColor #333333
	BackgroundColor #333333-#333333
}


skinparam control {
		FontColor #C8Ac00
	BorderColor #333333
	BackgroundColor #333333-#333333
}


skinparam entity {
		FontColor #C8Ac00
	BorderColor #333333
	BackgroundColor #333333-#333333
}


skinparam boundary {
		FontColor #C8Ac00
	BorderColor #333333
	BackgroundColor #333333-#333333
}


skinparam agent {
	BackgroundColor #ff8000
	BorderColor #ff9933
	FontColor #484848
}


skinparam note {
	BorderThickness 1
	BackgroundColor #1b1b1a
	BorderColor #5e5e5e
	FontSize 11
	FontColor #a0a0a0
}


skinparam artifact {
	BorderThickness 10
	BorderColor #5e5e5e
	BackgroundColor #1b1b1a
	FontColor #D8Bc00
}


skinparam component {
		FontColor #C8Ac00
	BorderColor #333333
	BackgroundColor #333333-#333333
}


skinparam interface {
	BackgroundColor  #008400
	BorderColor  #007F00
	FontColor #484848
}


skinparam storage {
	BackgroundColor #ff8000
  	BorderColor #cc6600
	FontColor #222222
}


skinparam node {
	BackgroundColor #333333
	BorderColor #333333
	FontColor #C8Ac00
}


skinparam cloud {
	BackgroundColor #484848-black
	BorderColor #484848
	FontColor #D8Bc00
}


skinparam database {
		FontColor #C8Ac00
	BorderColor #333333
	BackgroundColor #333333-#333333
	BackgroundColor  #333333
}


skinparam class {
		FontColor #C8Ac00
	BorderColor #333333
	BackgroundColor #333333-#333333
	HeaderBackgroundColor #1b1b1a
    BackgroundColor #282828
    BorderColor #5e5e5e
 	StereotypeFontColor #a0a0a0
    StereotypeFontStyle bold
	BorderThickness 1
	AttributeFontColor #D8Bc00
	AttributeFontSize 11
    FontColor #D8Bc00
    FontStyle bold
}


skinparam object {
		FontColor #C8Ac00
	BorderColor #333333
	BackgroundColor #333333-#333333
	StereotypeFontColor #484848
	BorderThickness 1
	AttributeFontColor #fefefe
	AttributeFontSize 11
}


skinparam usecase {
		FontColor #C8Ac00
	BorderColor #333333
	BackgroundColor #333333-#333333
	BorderThickness 2
	StereotypeFontColor #303030
}


skinparam rectangle {
		FontColor #C8Ac00
	BorderColor #333333
	BackgroundColor #333333-#333333
	BackgroundColor #333333
	BorderThickness 2
	StereotypeFontColor #303030
}


skinparam package {
		FontColor #C8Ac00
	BorderColor #333333
	BackgroundColor #333333-#333333
	BackgroundColor #333333
	BorderThickness 2
}


skinparam folder {
	BackgroundColor #6d6d6d
  	BorderColor #ff8000
	FontColor #ff8000
	BorderThickness 2
}


skinparam frame {
	BackgroundColor #6d6d6d
  	BorderColor #0060a8
	FontColor #0060a8
	BorderThickness 2
}


skinparam state {
		FontColor #C8Ac00
	BorderColor #333333
	BackgroundColor #333333-#333333
	StartColor #0060a8
	EndColor #0060a8
	AttributeFontColor #fefefe
	AttributeFontSize 11
}


skinparam queue {
		FontColor #C8Ac00
	BorderColor #333333
	BackgroundColor #333333-#333333
}


skinparam card {
	BackgroundColor #0060a8
	BorderColor #004d86
	FontColor $INFO_TEXT
}


skinparam file {
	BackgroundColor #6d6d6d-#484848
	BorderColor #0060a8
	FontColor #fefefe
}


skinparam stack {
		FontColor #C8Ac00
	BorderColor #333333
	BackgroundColor #333333-#333333
}

    
    title "com.telenav.mesakit.navigation.routing.cost.functions"
    
    interface EdgePermissionFunction
    interface CostFunction
    interface RoutePermissionFunction
    
    CostFunction <|- - TollRoadCostFunction
    class TollRoadCostFunction
    {
        - -(constructors)- -
        +TollRoadCostFunction(TollRoadMode)
    }
    
    enum TollRoadCostFunction.TollRoadMode
    {
        AVOID_TOLL_ROADS
        USE_TOLL_ROADS
    }
    
    CostFunction <|- - TravelTimeCostFunction
    class TravelTimeCostFunction
    {
        - -(constructors)- -
        +TravelTimeCostFunction(Duration)
        +TravelTimeCostFunction(Speed, Located, Located)
    }
    
    RoutePermissionFunction <|- - TurnRestrictionFunction
    EdgePermissionFunction <|- - TurnRestrictionFunction
    class TurnRestrictionFunction
    {
    }
    
@enduml

PlantUML version 1.2021.01(Tue Feb 02 02:55:08 EST 2021)
(GPL source distribution)
Java Runtime: OpenJDK Runtime Environment
JVM: OpenJDK 64-Bit Server VM
Default Encoding: UTF-8
Language: en
Country: US
--></g></svg>