<?xml version="1.0" encoding="UTF-8" standalone="no"?><svg xmlns="http://www.w3.org/2000/svg" xmlns:xlink="http://www.w3.org/1999/xlink" contentScriptType="application/ecmascript" contentStyleType="text/css" height="365.625px" preserveAspectRatio="none" style="width:811px;height:365px;background:#333333;" version="1.1" viewBox="0 0 811 365" width="811.4583px" zoomAndPan="magnify"><defs/><g><rect fill="#48494B" height="41.2028" rx="8.3333" ry="8.3333" style="stroke:#545454;stroke-width:1.0416666666666667;" width="528.125" x="134.375" y="2.0833"/><text fill="#C0C0C0" font-family="Open Sans,Avenir,Nunito,Arial,Helvetica,SansSerif" font-size="20.8333" lengthAdjust="spacing" textLength="505.2083" x="145.8333" y="30.5583">com.telenav.mesakit.navigation.routing.debuggers</text><!--MD5=[4384c87b10933f36ff052ce15b488ef7]
class RoutingDebugger--><rect codeLine="7" fill="#282828" height="48.055" id="RoutingDebugger" rx="8.3333" ry="8.3333" style="stroke:#5E5E5E;stroke-width:1.0416666666666667;" width="152.0833" x="174.4792" y="53.7028"/><rect fill="#1B1B1A" height="31.3883" rx="8.3333" ry="8.3333" style="stroke:#1B1B1A;stroke-width:1.0416666666666667;" width="152.0833" x="174.4792" y="53.7028"/><rect fill="#1B1B1A" height="8.3333" style="stroke:#1B1B1A;stroke-width:1.0416666666666667;" width="152.0833" x="174.4792" y="76.7578"/><rect codeLine="7" fill="none" height="48.055" id="RoutingDebugger" rx="8.3333" ry="8.3333" style="stroke:#5E5E5E;stroke-width:1.0416666666666667;" width="152.0833" x="174.4792" y="53.7028"/><ellipse cx="189.0625" cy="69.397" fill="#008400" rx="10.4167" ry="10.4167" style="stroke:#239C23;stroke-width:1.0416666666666667;"/><path d="M186.4665,66.5588 L186.4665,64.9719 L191.8925,64.9719 L191.8925,66.5588 L190.0798,66.5588 L190.0798,72.4976 L191.8925,72.4976 L191.8925,74.0845 L186.4665,74.0845 L186.4665,72.4976 L188.2792,72.4976 L188.2792,66.5588 Z " fill="#000000"/><text fill="#D8BC00" font-family="Open Sans,Avenir,Nunito,Arial,Helvetica,SansSerif" font-size="12.5" font-style="italic" font-weight="bold" lengthAdjust="spacing" textLength="114.5833" x="205.7292" y="74.1211">RoutingDebugger</text><line style="stroke:#5E5E5E;stroke-width:1.0416666666666667;" x1="175.5208" x2="325.5208" y1="85.0911" y2="85.0911"/><line style="stroke:#5E5E5E;stroke-width:1.0416666666666667;" x1="175.5208" x2="325.5208" y1="93.4245" y2="93.4245"/><!--MD5=[0c503266d059fc7e348f1f1b6b4b10ec]
class ConsoleRoutingDebugger--><rect codeLine="10" fill="#282828" height="48.055" id="ConsoleRoutingDebugger" rx="8.3333" ry="8.3333" style="stroke:#5E5E5E;stroke-width:1.0416666666666667;" width="205.2083" x="7.2917" y="237.557"/><rect fill="#1B1B1A" height="31.3883" rx="8.3333" ry="8.3333" style="stroke:#1B1B1A;stroke-width:1.0416666666666667;" width="205.2083" x="7.2917" y="237.557"/><rect fill="#1B1B1A" height="8.3333" style="stroke:#1B1B1A;stroke-width:1.0416666666666667;" width="205.2083" x="7.2917" y="260.612"/><rect codeLine="10" fill="none" height="48.055" id="ConsoleRoutingDebugger" rx="8.3333" ry="8.3333" style="stroke:#5E5E5E;stroke-width:1.0416666666666667;" width="205.2083" x="7.2917" y="237.557"/><ellipse cx="21.875" cy="253.2511" fill="#0066CF" rx="10.4167" ry="10.4167" style="stroke:#0086EF;stroke-width:1.0416666666666667;"/><path d="M23.7854,257.6762 Q23.3582,257.8959 22.8882,258.0058 Q22.4182,258.1156 21.8994,258.1156 Q20.0562,258.1156 19.0857,256.901 Q18.1152,255.6864 18.1152,253.3915 Q18.1152,251.0905 19.0857,249.8759 Q20.0562,248.6613 21.8994,248.6613 Q22.4182,248.6613 22.8943,248.7712 Q23.3704,248.881 23.7854,249.1007 L23.7854,251.1027 Q23.3215,250.6755 22.8851,250.4771 Q22.4487,250.2787 21.9849,250.2787 Q20.9961,250.2787 20.4926,251.063 Q19.989,251.8473 19.989,253.3915 Q19.989,254.9296 20.4926,255.7139 Q20.9961,256.4982 21.9849,256.4982 Q22.4487,256.4982 22.8851,256.2998 Q23.3215,256.1015 23.7854,255.6742 Z " fill="#000000"/><text fill="#D8BC00" font-family="Open Sans,Avenir,Nunito,Arial,Helvetica,SansSerif" font-size="12.5" font-weight="bold" lengthAdjust="spacing" textLength="167.7083" x="38.5417" y="257.9753">ConsoleRoutingDebugger</text><line style="stroke:#5E5E5E;stroke-width:1.0416666666666667;" x1="8.3333" x2="211.4583" y1="268.9453" y2="268.9453"/><line style="stroke:#5E5E5E;stroke-width:1.0416666666666667;" x1="8.3333" x2="211.4583" y1="277.2786" y2="277.2786"/><!--MD5=[dde6995954c6de6313849d22c14a7b15]
class SwingRoutingDebugger--><rect codeLine="15" fill="#282828" height="127.0345" id="SwingRoutingDebugger" rx="8.3333" ry="8.3333" style="stroke:#5E5E5E;stroke-width:1.0416666666666667;" width="283.3333" x="249.4792" y="197.9736"/><rect fill="#1B1B1A" height="31.3883" rx="8.3333" ry="8.3333" style="stroke:#1B1B1A;stroke-width:1.0416666666666667;" width="283.3333" x="249.4792" y="197.9736"/><rect fill="#1B1B1A" height="8.3333" style="stroke:#1B1B1A;stroke-width:1.0416666666666667;" width="283.3333" x="249.4792" y="221.0286"/><rect codeLine="15" fill="none" height="127.0345" id="SwingRoutingDebugger" rx="8.3333" ry="8.3333" style="stroke:#5E5E5E;stroke-width:1.0416666666666667;" width="283.3333" x="249.4792" y="197.9736"/><ellipse cx="307.2917" cy="213.6678" fill="#0066CF" rx="10.4167" ry="10.4167" style="stroke:#0086EF;stroke-width:1.0416666666666667;"/><path d="M309.2021,218.0929 Q308.7748,218.3126 308.3049,218.4224 Q307.8349,218.5323 307.3161,218.5323 Q305.4728,218.5323 304.5024,217.3177 Q303.5319,216.1031 303.5319,213.8082 Q303.5319,211.5072 304.5024,210.2926 Q305.4728,209.078 307.3161,209.078 Q307.8349,209.078 308.311,209.1878 Q308.787,209.2977 309.2021,209.5174 L309.2021,211.5194 Q308.7382,211.0921 308.3018,210.8938 Q307.8654,210.6954 307.4015,210.6954 Q306.4128,210.6954 305.9092,211.4797 Q305.4057,212.264 305.4057,213.8082 Q305.4057,215.3463 305.9092,216.1306 Q306.4128,216.9149 307.4015,216.9149 Q307.8654,216.9149 308.3018,216.7165 Q308.7382,216.5181 309.2021,216.0909 Z " fill="#000000"/><text fill="#D8BC00" font-family="Open Sans,Avenir,Nunito,Arial,Helvetica,SansSerif" font-size="12.5" font-weight="bold" lengthAdjust="spacing" textLength="153.125" x="330.2083" y="218.3919">SwingRoutingDebugger</text><line style="stroke:#5E5E5E;stroke-width:1.5625;" x1="250.5208" x2="531.7708" y1="229.362" y2="229.362"/><ellipse cx="260.9375" cy="264.7319" fill="#84BE84" rx="3.125" ry="3.125" style="stroke:#038048;stroke-width:1.0416666666666667;"/><text fill="#D8BC00" font-family="Open Sans,Avenir,Nunito,Arial,Helvetica,SansSerif" font-size="11.4583" lengthAdjust="spacing" textLength="172.9167" x="272.3958" y="271.6431">SwingRoutingDebugger(String)</text><line style="stroke:#5E5E5E;stroke-width:1.0416666666666667;" x1="250.5208" x2="347.3958" y1="247.5677" y2="247.5677"/><text fill="#D8BC00" font-family="Open Sans,Avenir,Nunito,Arial,Helvetica,SansSerif" font-size="11.4583" lengthAdjust="spacing" textLength="81.25" x="350.5208" y="251.3774">(constructors)</text><line style="stroke:#5E5E5E;stroke-width:1.0416666666666667;" x1="434.8958" x2="531.7708" y1="247.5677" y2="247.5677"/><ellipse cx="260.9375" cy="308.3883" fill="#84BE84" rx="3.125" ry="3.125" style="stroke:#038048;stroke-width:1.0416666666666667;"/><text fill="#D8BC00" font-family="Open Sans,Avenir,Nunito,Arial,Helvetica,SansSerif" font-size="11.4583" lengthAdjust="spacing" textLength="251.0417" x="272.3958" y="315.2995">SwingRoutingDebugger withConsoleOutput()</text><line style="stroke:#5E5E5E;stroke-width:1.0416666666666667;" x1="250.5208" x2="370.3125" y1="291.2242" y2="291.2242"/><text fill="#D8BC00" font-family="Open Sans,Avenir,Nunito,Arial,Helvetica,SansSerif" font-size="11.4583" lengthAdjust="spacing" textLength="35.4167" x="373.4375" y="295.0338">(write)</text><line style="stroke:#5E5E5E;stroke-width:1.0416666666666667;" x1="411.9792" x2="531.7708" y1="291.2242" y2="291.2242"/><!--MD5=[cf2bac4581d750f5ccb666ea7896fda8]
class KivaKitDarculaTheme--><rect fill="#282828" height="48.055" id="KivaKitDarculaTheme" rx="8.3333" ry="8.3333" style="stroke:#5E5E5E;stroke-width:1.0416666666666667;" width="177.0833" x="598.4375" y="53.7028"/><rect fill="#1B1B1A" height="31.3883" rx="8.3333" ry="8.3333" style="stroke:#1B1B1A;stroke-width:1.0416666666666667;" width="177.0833" x="598.4375" y="53.7028"/><rect fill="#1B1B1A" height="8.3333" style="stroke:#1B1B1A;stroke-width:1.0416666666666667;" width="177.0833" x="598.4375" y="76.7578"/><rect fill="none" height="48.055" id="KivaKitDarculaTheme" rx="8.3333" ry="8.3333" style="stroke:#5E5E5E;stroke-width:1.0416666666666667;" width="177.0833" x="598.4375" y="53.7028"/><ellipse cx="613.0208" cy="69.397" fill="#0066CF" rx="10.4167" ry="10.4167" style="stroke:#0086EF;stroke-width:1.0416666666666667;"/><path d="M614.9312,73.822 Q614.504,74.0417 614.034,74.1516 Q613.564,74.2615 613.0452,74.2615 Q611.202,74.2615 610.2315,73.0469 Q609.2611,71.8323 609.2611,69.5374 Q609.2611,67.2363 610.2315,66.0217 Q611.202,64.8071 613.0452,64.8071 Q613.564,64.8071 614.0401,64.917 Q614.5162,65.0269 614.9312,65.2466 L614.9312,67.2485 Q614.4674,66.8213 614.031,66.6229 Q613.5946,66.4246 613.1307,66.4246 Q612.1419,66.4246 611.6384,67.2089 Q611.1348,67.9932 611.1348,69.5374 Q611.1348,71.0754 611.6384,71.8597 Q612.1419,72.644 613.1307,72.644 Q613.5946,72.644 614.031,72.4457 Q614.4674,72.2473 614.9312,71.8201 Z " fill="#000000"/><text fill="#D8BC00" font-family="Open Sans,Avenir,Nunito,Arial,Helvetica,SansSerif" font-size="12.5" font-weight="bold" lengthAdjust="spacing" textLength="139.5833" x="629.6875" y="74.1211">KivaKitDarculaTheme</text><line style="stroke:#5E5E5E;stroke-width:1.0416666666666667;" x1="599.4792" x2="774.4792" y1="85.0911" y2="85.0911"/><line style="stroke:#5E5E5E;stroke-width:1.0416666666666667;" x1="599.4792" x2="774.4792" y1="93.4245" y2="93.4245"/><!--MD5=[b34dc6f78fce0d6423ac053e7f99c8cc]
class SwingRoutingDebuggerTheme--><rect codeLine="24" fill="#282828" height="194.6025" id="SwingRoutingDebuggerTheme" rx="8.3333" ry="8.3333" style="stroke:#5E5E5E;stroke-width:1.0416666666666667;" width="234.375" x="569.7917" y="164.1195"/><rect fill="#1B1B1A" height="31.3883" rx="8.3333" ry="8.3333" style="stroke:#1B1B1A;stroke-width:1.0416666666666667;" width="234.375" x="569.7917" y="164.1195"/><rect fill="#1B1B1A" height="8.3333" style="stroke:#1B1B1A;stroke-width:1.0416666666666667;" width="234.375" x="569.7917" y="187.1745"/><rect codeLine="24" fill="none" height="194.6025" id="SwingRoutingDebuggerTheme" rx="8.3333" ry="8.3333" style="stroke:#5E5E5E;stroke-width:1.0416666666666667;" width="234.375" x="569.7917" y="164.1195"/><ellipse cx="584.375" cy="179.8136" fill="#0066CF" rx="10.4167" ry="10.4167" style="stroke:#0086EF;stroke-width:1.0416666666666667;"/><path d="M586.2854,184.2387 Q585.8582,184.4584 585.3882,184.5683 Q584.9182,184.6781 584.3994,184.6781 Q582.5562,184.6781 581.5857,183.4635 Q580.6152,182.2489 580.6152,179.954 Q580.6152,177.653 581.5857,176.4384 Q582.5562,175.2238 584.3994,175.2238 Q584.9182,175.2238 585.3943,175.3337 Q585.8704,175.4435 586.2854,175.6632 L586.2854,177.6652 Q585.8215,177.238 585.3851,177.0396 Q584.9487,176.8412 584.4849,176.8412 Q583.4961,176.8412 582.9926,177.6255 Q582.489,178.4098 582.489,179.954 Q582.489,181.4921 582.9926,182.2764 Q583.4961,183.0607 584.4849,183.0607 Q584.9487,183.0607 585.3851,182.8623 Q585.8215,182.664 586.2854,182.2367 Z " fill="#000000"/><text fill="#D8BC00" font-family="Open Sans,Avenir,Nunito,Arial,Helvetica,SansSerif" font-size="12.5" font-weight="bold" lengthAdjust="spacing" textLength="196.875" x="601.0417" y="184.5378">SwingRoutingDebuggerTheme</text><line style="stroke:#5E5E5E;stroke-width:1.5625;" x1="570.8333" x2="803.125" y1="195.5078" y2="195.5078"/><line style="stroke:#5E5E5E;stroke-width:1.0416666666666667;" x1="570.8333" x2="803.125" y1="203.8411" y2="203.8411"/><ellipse cx="581.25" cy="215.2995" fill="#84BE84" rx="3.125" ry="3.125" style="stroke:#038048;stroke-width:1.0416666666666667;"/><text fill="#D8BC00" font-family="Open Sans,Avenir,Nunito,Arial,Helvetica,SansSerif" font-size="11.4583" lengthAdjust="spacing" textLength="107.2917" x="592.7083" y="222.2107">Style styleCurrent()</text><ellipse cx="581.25" cy="235.0444" fill="#84BE84" rx="3.125" ry="3.125" style="stroke:#038048;stroke-width:1.0416666666666667;"/><text fill="#D8BC00" font-family="Open Sans,Avenir,Nunito,Arial,Helvetica,SansSerif" font-size="11.4583" lengthAdjust="spacing" textLength="89.5833" x="592.7083" y="241.9556">Style styleFinal()</text><ellipse cx="581.25" cy="278.7008" fill="#84BE84" rx="3.125" ry="3.125" style="stroke:#038048;stroke-width:1.0416666666666667;"/><text fill="#D8BC00" font-family="Open Sans,Avenir,Nunito,Arial,Helvetica,SansSerif" font-size="11.4583" lengthAdjust="spacing" textLength="113.5417" x="592.7083" y="285.612">Style styleExplored()</text><line style="stroke:#5E5E5E;stroke-width:1.0416666666666667;" x1="570.8333" x2="651.5625" y1="261.5367" y2="261.5367"/><text fill="#D8BC00" font-family="Open Sans,Avenir,Nunito,Arial,Helvetica,SansSerif" font-size="11.4583" lengthAdjust="spacing" textLength="64.5833" x="654.6875" y="265.3463">(functional)</text><line style="stroke:#5E5E5E;stroke-width:1.0416666666666667;" x1="722.3958" x2="803.125" y1="261.5367" y2="261.5367"/><ellipse cx="581.25" cy="322.3572" fill="#84BE84" rx="3.125" ry="3.125" style="stroke:#038048;stroke-width:1.0416666666666667;"/><text fill="#D8BC00" font-family="Open Sans,Avenir,Nunito,Arial,Helvetica,SansSerif" font-size="11.4583" lengthAdjust="spacing" textLength="84.375" x="592.7083" y="329.2684">Style styleEnd()</text><ellipse cx="581.25" cy="342.1021" fill="#84BE84" rx="3.125" ry="3.125" style="stroke:#038048;stroke-width:1.0416666666666667;"/><text fill="#D8BC00" font-family="Open Sans,Avenir,Nunito,Arial,Helvetica,SansSerif" font-size="11.4583" lengthAdjust="spacing" textLength="89.5833" x="592.7083" y="349.0133">Style styleStart()</text><line style="stroke:#5E5E5E;stroke-width:1.0416666666666667;" x1="570.8333" x2="657.2917" y1="305.1931" y2="305.1931"/><text fill="#D8BC00" font-family="Open Sans,Avenir,Nunito,Arial,Helvetica,SansSerif" font-size="11.4583" lengthAdjust="spacing" textLength="53.125" x="660.4167" y="309.0027">(lifecycle)</text><line style="stroke:#5E5E5E;stroke-width:1.0416666666666667;" x1="716.6667" x2="803.125" y1="305.1931" y2="305.1931"/><!--MD5=[a925b6ea4a048a6740ebe91b77879008]
reverse link RoutingDebugger to ConsoleRoutingDebugger--><path codeLine="9" d="M219.6563,118.5986 C191.5104,154.9736 150.8958,207.4736 127.7813,237.3486 " fill="none" id="RoutingDebugger-backto-ConsoleRoutingDebugger" style="stroke:#545454;stroke-width:1.5625;"/><polygon fill="none" points="214.1979,113.7445,232.7083,101.7236,225.7292,122.6611,214.1979,113.7445" style="stroke:#545454;stroke-width:1.5625;"/><!--MD5=[330640b2c888efe5be67398e283803a9]
reverse link RoutingDebugger to SwingRoutingDebugger--><path codeLine="14" d="M281.2292,118.3903 C299.2083,141.6403 322.3229,171.5153 342.7083,197.859 " fill="none" id="RoutingDebugger-backto-SwingRoutingDebugger" style="stroke:#545454;stroke-width:1.5625;"/><polygon fill="none" points="275.3125,122.6611,268.3333,101.7236,286.8438,113.7445,275.3125,122.6611" style="stroke:#545454;stroke-width:1.5625;"/><!--MD5=[4c017dd63ed7cb99dbf171c99a292237]
reverse link KivaKitDarculaTheme to SwingRoutingDebuggerTheme--><path codeLine="23" d="M686.9792,122.8382 C686.9792,135.3799 686.9792,149.5674 686.9792,163.932 " fill="none" id="KivaKitDarculaTheme-backto-SwingRoutingDebuggerTheme" style="stroke:#545454;stroke-width:1.5625;"/><polygon fill="none" points="679.6875,122.557,686.9792,101.7236,694.2708,122.557,679.6875,122.557" style="stroke:#545454;stroke-width:1.5625;"/><!--MD5=[eeac3763bfd5ecd5940047a68bea7018]
@startuml

    !include lexakai.theme
    
    title "com.telenav.mesakit.navigation.routing.debuggers"
    
    interface RoutingDebugger
    
    RoutingDebugger <|- - ConsoleRoutingDebugger
    class ConsoleRoutingDebugger
    {
    }
    
    RoutingDebugger <|- - SwingRoutingDebugger
    class SwingRoutingDebugger
    {
        - -(constructors)- -
        +SwingRoutingDebugger(String)
        - -(write)- -
        +SwingRoutingDebugger withConsoleOutput()
    }
    
    KivaKitDarculaTheme <|- - SwingRoutingDebuggerTheme
    class SwingRoutingDebuggerTheme
    {
        - -
        +Style styleCurrent()
        +Style styleFinal()
        - -(functional)- -
        +Style styleExplored()
        - -(lifecycle)- -
        +Style styleEnd()
        +Style styleStart()
    }
    
@enduml

@startuml









skinparam backgroundColor #333333






skinparam  {
    defaultFontName   "Open Sans,Avenir,Nunito,Arial,Helvetica,SansSerif"
    defaultFontSize   12
    defaultTextAlignment left
    shadowing false
    RoundCorner 10
    TitleFontSize 18
}

skinparam defaultFontName       "Open Sans,Avenir,Nunito,Arial,Helvetica,SansSerif"
skinparam defaultFontSize       12
skinparam dpi                   100
skinparam shadowing             false
skinparam roundcorner           16
skinparam ParticipantPadding    40
skinparam BoxPadding            40
skinparam Padding               3
skinparam ArrowColor            #545454
skinparam stereotype {
    CBackgroundColor #0066cf
    CBorderColor #0086ef
    ABackgroundColor #C8Ac00
    ABorderColor #D8Bc00
    IBackgroundColor #008400
    IBorderColor #239c23
    EBackgroundColor #cf6300
    EBorderColor #ef8300
    NBackgroundColor #3380b9
    NBorderColor #004d86
}
skinparam title {
	FontColor	                 #c0c0c0
 	BorderColor                  #545454
	FontSize	    	         20
	BorderRoundCorner            16
	BorderThickness 	         1
	BackgroundColor              #48494b
}


skinparam legend {
	BackgroundColor #303030
	BorderColor #404040
	FontColor #a0a0a0
}

	skinparam swimlane {
	BorderColor #5e5e5e
	BorderThickness 2
	TitleBackgroundColor  #6d6d6d-#484848
	TitleFontColor #303030
}

skinparam activity {
		FontColor #C8Ac00
	BorderColor #333333
	BackgroundColor #333333-#333333
	BarColor #00FF00
	StartColor #0060a8
	EndColor #0060a8
	DiamondBackgroundColor #6d6d6d-#3a3a3a
  	DiamondBorderColor #3a3a3a
  	DiamondFontColor #fefefe
}


skinparam participant {
		FontColor #C8Ac00
	BorderColor #333333
	BackgroundColor #333333-#333333
	ParticipantBorderThickness 2
}


skinparam actor {
		FontColor #C8Ac00
	BorderColor #333333
	BackgroundColor #333333-#333333
}


skinparam arrow {
	Thickness 1.5
	Color #545454
	FontColor #a0a0a0
    FontStyle bold
    MessageAlignment center
}



skinparam sequence {
	BorderColor #303030
	TitleFontColor #303030
	BackgroundColor #333333
	StartColor #303030
	EndColor #303030
	BoxBackgroundColor #333333
	BoxBorderColor #484848
	BoxFontColor #484848
	LifeLineBorderColor #484848
	LifeLineBorderThickness 2
	LifeLineBackgroundColor #3a3a3a
	GroupBorderColor #484848
	GroupFontColor #484848
	GroupHeaderFontColor #0060a8
	GroupBackgroundColor #484848
	GroupHeaderBackgroundColor #333333
	DividerBackgroundColor #484848
    DividerBorderColor #484848
    DividerBorderThickness 2
    DividerFontColor #D8Bc00
	ReferenceBackgroundColor #333333
	ReferenceBorderColor #484848
	ReferenceFontColor #fefefe
	ReferenceHeaderBackgroundColor #484848
}


skinparam partition {
	BorderColor #303030
	FontColor #333333
	BackgroundColor #333333
}


skinparam collections {
		FontColor #C8Ac00
	BorderColor #333333
	BackgroundColor #333333-#333333
}


skinparam control {
		FontColor #C8Ac00
	BorderColor #333333
	BackgroundColor #333333-#333333
}


skinparam entity {
		FontColor #C8Ac00
	BorderColor #333333
	BackgroundColor #333333-#333333
}


skinparam boundary {
		FontColor #C8Ac00
	BorderColor #333333
	BackgroundColor #333333-#333333
}


skinparam agent {
	BackgroundColor #ff8000
	BorderColor #ff9933
	FontColor #484848
}


skinparam note {
	BorderThickness 1
	BackgroundColor #1b1b1a
	BorderColor #5e5e5e
	FontSize 11
	FontColor #a0a0a0
}


skinparam artifact {
	BorderThickness 10
	BorderColor #5e5e5e
	BackgroundColor #1b1b1a
	FontColor #D8Bc00
}


skinparam component {
		FontColor #C8Ac00
	BorderColor #333333
	BackgroundColor #333333-#333333
}


skinparam interface {
	BackgroundColor  #008400
	BorderColor  #007F00
	FontColor #484848
}


skinparam storage {
	BackgroundColor #ff8000
  	BorderColor #cc6600
	FontColor #222222
}


skinparam node {
	BackgroundColor #333333
	BorderColor #333333
	FontColor #C8Ac00
}


skinparam cloud {
	BackgroundColor #484848-black
	BorderColor #484848
	FontColor #D8Bc00
}


skinparam database {
		FontColor #C8Ac00
	BorderColor #333333
	BackgroundColor #333333-#333333
	BackgroundColor  #333333
}


skinparam class {
		FontColor #C8Ac00
	BorderColor #333333
	BackgroundColor #333333-#333333
	HeaderBackgroundColor #1b1b1a
    BackgroundColor #282828
    BorderColor #5e5e5e
 	StereotypeFontColor #a0a0a0
    StereotypeFontStyle bold
	BorderThickness 1
	AttributeFontColor #D8Bc00
	AttributeFontSize 11
    FontColor #D8Bc00
    FontStyle bold
}


skinparam object {
		FontColor #C8Ac00
	BorderColor #333333
	BackgroundColor #333333-#333333
	StereotypeFontColor #484848
	BorderThickness 1
	AttributeFontColor #fefefe
	AttributeFontSize 11
}


skinparam usecase {
		FontColor #C8Ac00
	BorderColor #333333
	BackgroundColor #333333-#333333
	BorderThickness 2
	StereotypeFontColor #303030
}


skinparam rectangle {
		FontColor #C8Ac00
	BorderColor #333333
	BackgroundColor #333333-#333333
	BackgroundColor #333333
	BorderThickness 2
	StereotypeFontColor #303030
}


skinparam package {
		FontColor #C8Ac00
	BorderColor #333333
	BackgroundColor #333333-#333333
	BackgroundColor #333333
	BorderThickness 2
}


skinparam folder {
	BackgroundColor #6d6d6d
  	BorderColor #ff8000
	FontColor #ff8000
	BorderThickness 2
}


skinparam frame {
	BackgroundColor #6d6d6d
  	BorderColor #0060a8
	FontColor #0060a8
	BorderThickness 2
}


skinparam state {
		FontColor #C8Ac00
	BorderColor #333333
	BackgroundColor #333333-#333333
	StartColor #0060a8
	EndColor #0060a8
	AttributeFontColor #fefefe
	AttributeFontSize 11
}


skinparam queue {
		FontColor #C8Ac00
	BorderColor #333333
	BackgroundColor #333333-#333333
}


skinparam card {
	BackgroundColor #0060a8
	BorderColor #004d86
	FontColor $INFO_TEXT
}


skinparam file {
	BackgroundColor #6d6d6d-#484848
	BorderColor #0060a8
	FontColor #fefefe
}


skinparam stack {
		FontColor #C8Ac00
	BorderColor #333333
	BackgroundColor #333333-#333333
}

    
    title "com.telenav.mesakit.navigation.routing.debuggers"
    
    interface RoutingDebugger
    
    RoutingDebugger <|- - ConsoleRoutingDebugger
    class ConsoleRoutingDebugger
    {
    }
    
    RoutingDebugger <|- - SwingRoutingDebugger
    class SwingRoutingDebugger
    {
        - -(constructors)- -
        +SwingRoutingDebugger(String)
        - -(write)- -
        +SwingRoutingDebugger withConsoleOutput()
    }
    
    KivaKitDarculaTheme <|- - SwingRoutingDebuggerTheme
    class SwingRoutingDebuggerTheme
    {
        - -
        +Style styleCurrent()
        +Style styleFinal()
        - -(functional)- -
        +Style styleExplored()
        - -(lifecycle)- -
        +Style styleEnd()
        +Style styleStart()
    }
    
@enduml

PlantUML version 1.2021.01(Tue Feb 02 02:55:08 EST 2021)
(GPL source distribution)
Java Runtime: OpenJDK Runtime Environment
JVM: OpenJDK 64-Bit Server VM
Default Encoding: UTF-8
Language: en
Country: US
--></g></svg>