<?xml version="1.0" encoding="UTF-8" standalone="no"?><svg xmlns="http://www.w3.org/2000/svg" xmlns:xlink="http://www.w3.org/1999/xlink" contentScriptType="application/ecmascript" contentStyleType="text/css" height="251.0417px" preserveAspectRatio="none" style="width:579px;height:251px;background:#333333;" version="1.1" viewBox="0 0 579 251" width="579.1667px" zoomAndPan="magnify"><defs/><g><rect fill="#48494B" height="41.2028" rx="8.3333" ry="8.3333" style="stroke:#545454;stroke-width:1.0416666666666667;" width="497.9167" x="33.5938" y="2.0833"/><text fill="#C0C0C0" font-family="Open Sans,Avenir,Nunito,Arial,Helvetica,SansSerif" font-size="20.8333" lengthAdjust="spacing" textLength="475" x="45.0521" y="30.5583">com.telenav.mesakit.map.geography.projection</text><rect codeLine="7" fill="#282828" height="190.4358" id="MetricCoordinate" rx="8.3333" ry="8.3333" style="stroke:#5E5E5E;stroke-width:1.0416666666666667;" width="265.625" x="7.2917" y="53.7028"/><rect fill="#1B1B1A" height="31.3883" rx="8.3333" ry="8.3333" style="stroke:#1B1B1A;stroke-width:1.0416666666666667;" width="265.625" x="7.2917" y="53.7028"/><rect fill="#1B1B1A" height="8.3333" style="stroke:#1B1B1A;stroke-width:1.0416666666666667;" width="265.625" x="7.2917" y="76.7578"/><rect codeLine="7" fill="none" height="190.4358" id="MetricCoordinate" rx="8.3333" ry="8.3333" style="stroke:#5E5E5E;stroke-width:1.0416666666666667;" width="265.625" x="7.2917" y="53.7028"/><ellipse cx="77.0833" cy="69.397" fill="#0066CF" rx="10.4167" ry="10.4167" style="stroke:#0086EF;stroke-width:1.0416666666666667;"/><path d="M78.9937,73.822 Q78.5665,74.0417 78.0965,74.1516 Q77.6265,74.2615 77.1077,74.2615 Q75.2645,74.2615 74.294,73.0469 Q73.3236,71.8323 73.3236,69.5374 Q73.3236,67.2363 74.294,66.0217 Q75.2645,64.8071 77.1077,64.8071 Q77.6265,64.8071 78.1026,64.917 Q78.5787,65.0269 78.9937,65.2466 L78.9937,67.2485 Q78.5299,66.8213 78.0935,66.6229 Q77.6571,66.4246 77.1932,66.4246 Q76.2044,66.4246 75.7009,67.2089 Q75.1973,67.9932 75.1973,69.5374 Q75.1973,71.0754 75.7009,71.8597 Q76.2044,72.644 77.1932,72.644 Q77.6571,72.644 78.0935,72.4457 Q78.5299,72.2473 78.9937,71.8201 Z " fill="#000000"/><text fill="#D8BC00" font-family="Open Sans,Avenir,Nunito,Arial,Helvetica,SansSerif" font-size="12.5" font-weight="bold" lengthAdjust="spacing" textLength="111.4583" x="100" y="74.1211">MetricCoordinate</text><line style="stroke:#5E5E5E;stroke-width:1.5625;" x1="8.3333" x2="271.875" y1="85.0911" y2="85.0911"/><ellipse cx="18.75" cy="120.461" fill="#84BE84" rx="3.125" ry="3.125" style="stroke:#038048;stroke-width:1.0416666666666667;"/><text fill="#D8BC00" font-family="Open Sans,Avenir,Nunito,Arial,Helvetica,SansSerif" font-size="11.4583" lengthAdjust="spacing" textLength="188.5417" x="30.2083" y="127.3722">MetricCoordinate(double, double)</text><line style="stroke:#5E5E5E;stroke-width:1.0416666666666667;" x1="8.3333" x2="96.3542" y1="103.2969" y2="103.2969"/><text fill="#D8BC00" font-family="Open Sans,Avenir,Nunito,Arial,Helvetica,SansSerif" font-size="11.4583" lengthAdjust="spacing" textLength="81.25" x="99.4792" y="107.1065">(constructors)</text><line style="stroke:#5E5E5E;stroke-width:1.0416666666666667;" x1="183.8542" x2="271.875" y1="103.2969" y2="103.2969"/><ellipse cx="18.75" cy="164.1174" fill="#84BE84" rx="3.125" ry="3.125" style="stroke:#038048;stroke-width:1.0416666666666667;"/><text fill="#D8BC00" font-family="Open Sans,Avenir,Nunito,Arial,Helvetica,SansSerif" font-size="11.4583" lengthAdjust="spacing" textLength="105.2083" x="30.2083" y="171.0286">double xInMeters()</text><ellipse cx="18.75" cy="183.8623" fill="#84BE84" rx="3.125" ry="3.125" style="stroke:#038048;stroke-width:1.0416666666666667;"/><text fill="#D8BC00" font-family="Open Sans,Avenir,Nunito,Arial,Helvetica,SansSerif" font-size="11.4583" lengthAdjust="spacing" textLength="104.1667" x="30.2083" y="190.7735">double yInMeters()</text><line style="stroke:#5E5E5E;stroke-width:1.0416666666666667;" x1="8.3333" x2="109.375" y1="146.9533" y2="146.9533"/><text fill="#D8BC00" font-family="Open Sans,Avenir,Nunito,Arial,Helvetica,SansSerif" font-size="11.4583" lengthAdjust="spacing" textLength="55.2083" x="112.5" y="150.7629">(distance)</text><line style="stroke:#5E5E5E;stroke-width:1.0416666666666667;" x1="170.8333" x2="271.875" y1="146.9533" y2="146.9533"/><ellipse cx="18.75" cy="227.5187" fill="#84BE84" rx="3.125" ry="3.125" style="stroke:#038048;stroke-width:1.0416666666666667;"/><text fill="#D8BC00" font-family="Open Sans,Avenir,Nunito,Arial,Helvetica,SansSerif" font-size="11.4583" lengthAdjust="spacing" textLength="233.3333" x="30.2083" y="234.4299">boolean isCloseTo(MetricCoordinate that)</text><line style="stroke:#5E5E5E;stroke-width:1.0416666666666667;" x1="8.3333" x2="127.6042" y1="210.3546" y2="210.3546"/><text fill="#D8BC00" font-family="Open Sans,Avenir,Nunito,Arial,Helvetica,SansSerif" font-size="11.4583" lengthAdjust="spacing" textLength="18.75" x="130.7292" y="214.1642">(io)</text><line style="stroke:#5E5E5E;stroke-width:1.0416666666666667;" x1="152.6042" x2="271.875" y1="210.3546" y2="210.3546"/><rect codeLine="18" fill="#282828" height="103.123" id="MetricProjection" rx="8.3333" ry="8.3333" style="stroke:#5E5E5E;stroke-width:1.0416666666666667;" width="262.5" x="309.8958" y="97.4528"/><rect fill="#1B1B1A" height="31.3883" rx="8.3333" ry="8.3333" style="stroke:#1B1B1A;stroke-width:1.0416666666666667;" width="262.5" x="309.8958" y="97.4528"/><rect fill="#1B1B1A" height="8.3333" style="stroke:#1B1B1A;stroke-width:1.0416666666666667;" width="262.5" x="309.8958" y="120.5078"/><rect codeLine="18" fill="none" height="103.123" id="MetricProjection" rx="8.3333" ry="8.3333" style="stroke:#5E5E5E;stroke-width:1.0416666666666667;" width="262.5" x="309.8958" y="97.4528"/><ellipse cx="381.7708" cy="113.147" fill="#008400" rx="10.4167" ry="10.4167" style="stroke:#239C23;stroke-width:1.0416666666666667;"/><path d="M379.1748,110.3088 L379.1748,108.7219 L384.6008,108.7219 L384.6008,110.3088 L382.7881,110.3088 L382.7881,116.2476 L384.6008,116.2476 L384.6008,117.8345 L379.1748,117.8345 L379.1748,116.2476 L380.9875,116.2476 L380.9875,110.3088 Z " fill="#000000"/><text fill="#D8BC00" font-family="Open Sans,Avenir,Nunito,Arial,Helvetica,SansSerif" font-size="12.5" font-style="italic" font-weight="bold" lengthAdjust="spacing" textLength="104.1667" x="404.6875" y="117.8711">MetricProjection</text><line style="stroke:#5E5E5E;stroke-width:1.5625;" x1="310.9375" x2="571.3542" y1="128.8411" y2="128.8411"/><ellipse cx="321.3542" cy="164.211" fill="#84BE84" rx="3.125" ry="3.125" style="stroke:#038048;stroke-width:1.0416666666666667;"/><text fill="#D8BC00" font-family="Open Sans,Avenir,Nunito,Arial,Helvetica,SansSerif" font-size="11.4583" lengthAdjust="spacing" textLength="230.2083" x="332.8125" y="171.1222">MetricCoordinate toCoordinate(Location)</text><ellipse cx="321.3542" cy="183.9559" fill="#84BE84" rx="3.125" ry="3.125" style="stroke:#038048;stroke-width:1.0416666666666667;"/><text fill="#D8BC00" font-family="Open Sans,Avenir,Nunito,Arial,Helvetica,SansSerif" font-size="11.4583" lengthAdjust="spacing" textLength="215.625" x="332.8125" y="190.8671">Location toLocation(MetricCoordinate)</text><line style="stroke:#5E5E5E;stroke-width:1.0416666666666667;" x1="310.9375" x2="402.6042" y1="147.0469" y2="147.0469"/><text fill="#D8BC00" font-family="Open Sans,Avenir,Nunito,Arial,Helvetica,SansSerif" font-size="11.4583" lengthAdjust="spacing" textLength="70.8333" x="405.7292" y="150.8565">(conversion)</text><line style="stroke:#5E5E5E;stroke-width:1.0416666666666667;" x1="479.6875" x2="571.3542" y1="147.0469" y2="147.0469"/></g></svg>
