<?xml version="1.0" encoding="UTF-8" standalone="no"?><svg xmlns="http://www.w3.org/2000/svg" xmlns:xlink="http://www.w3.org/1999/xlink" contentScriptType="application/ecmascript" contentStyleType="text/css" height="218.75px" preserveAspectRatio="none" style="width:628px;height:218px;background:#333333;" version="1.1" viewBox="0 0 628 218" width="628.125px" zoomAndPan="magnify"><defs/><g><rect fill="#48494B" height="41.2028" rx="8.3333" ry="8.3333" style="stroke:#545454;stroke-width:1.0416666666666667;" width="615.625" x="2.0833" y="2.0833"/><text fill="#C0C0C0" font-family="Open Sans,Avenir,Nunito,Arial,Helvetica,SansSerif" font-size="20.8333" lengthAdjust="spacing" textLength="592.7083" x="13.5417" y="30.5583">com.telenav.mesakit.map.geography.projection.projections</text><rect codeLine="7" fill="#282828" height="48.055" id="MetricProjection" rx="8.3333" ry="8.3333" style="stroke:#5E5E5E;stroke-width:1.0416666666666667;" width="141.6667" x="246.3542" y="53.7028"/><rect fill="#1B1B1A" height="31.3883" rx="8.3333" ry="8.3333" style="stroke:#1B1B1A;stroke-width:1.0416666666666667;" width="141.6667" x="246.3542" y="53.7028"/><rect fill="#1B1B1A" height="8.3333" style="stroke:#1B1B1A;stroke-width:1.0416666666666667;" width="141.6667" x="246.3542" y="76.7578"/><rect codeLine="7" fill="none" height="48.055" id="MetricProjection" rx="8.3333" ry="8.3333" style="stroke:#5E5E5E;stroke-width:1.0416666666666667;" width="141.6667" x="246.3542" y="53.7028"/><ellipse cx="260.9375" cy="69.397" fill="#008400" rx="10.4167" ry="10.4167" style="stroke:#239C23;stroke-width:1.0416666666666667;"/><path d="M258.3415,66.5588 L258.3415,64.9719 L263.7675,64.9719 L263.7675,66.5588 L261.9548,66.5588 L261.9548,72.4976 L263.7675,72.4976 L263.7675,74.0845 L258.3415,74.0845 L258.3415,72.4976 L260.1542,72.4976 L260.1542,66.5588 Z " fill="#000000"/><text fill="#D8BC00" font-family="Open Sans,Avenir,Nunito,Arial,Helvetica,SansSerif" font-size="12.5" font-style="italic" font-weight="bold" lengthAdjust="spacing" textLength="104.1667" x="277.6042" y="74.1211">MetricProjection</text><line style="stroke:#5E5E5E;stroke-width:1.0416666666666667;" x1="247.3958" x2="386.9792" y1="85.0911" y2="85.0911"/><line style="stroke:#5E5E5E;stroke-width:1.0416666666666667;" x1="247.3958" x2="386.9792" y1="93.4245" y2="93.4245"/><rect codeLine="10" fill="#282828" height="48.055" id="SphericalMercatorMetricProjection" rx="8.3333" ry="8.3333" style="stroke:#5E5E5E;stroke-width:1.0416666666666667;" width="256.25" x="189.0625" y="164.1195"/><rect fill="#1B1B1A" height="31.3883" rx="8.3333" ry="8.3333" style="stroke:#1B1B1A;stroke-width:1.0416666666666667;" width="256.25" x="189.0625" y="164.1195"/><rect fill="#1B1B1A" height="8.3333" style="stroke:#1B1B1A;stroke-width:1.0416666666666667;" width="256.25" x="189.0625" y="187.1745"/><rect codeLine="10" fill="none" height="48.055" id="SphericalMercatorMetricProjection" rx="8.3333" ry="8.3333" style="stroke:#5E5E5E;stroke-width:1.0416666666666667;" width="256.25" x="189.0625" y="164.1195"/><ellipse cx="203.6458" cy="179.8136" fill="#0066CF" rx="10.4167" ry="10.4167" style="stroke:#0086EF;stroke-width:1.0416666666666667;"/><path d="M205.5562,184.2387 Q205.129,184.4584 204.659,184.5683 Q204.189,184.6781 203.6702,184.6781 Q201.827,184.6781 200.8565,183.4635 Q199.8861,182.2489 199.8861,179.954 Q199.8861,177.653 200.8565,176.4384 Q201.827,175.2238 203.6702,175.2238 Q204.189,175.2238 204.6651,175.3337 Q205.1412,175.4435 205.5562,175.6632 L205.5562,177.6652 Q205.0924,177.238 204.656,177.0396 Q204.2196,176.8412 203.7557,176.8412 Q202.7669,176.8412 202.2634,177.6255 Q201.7598,178.4098 201.7598,179.954 Q201.7598,181.4921 202.2634,182.2764 Q202.7669,183.0607 203.7557,183.0607 Q204.2196,183.0607 204.656,182.8623 Q205.0924,182.664 205.5562,182.2367 Z " fill="#000000"/><text fill="#D8BC00" font-family="Open Sans,Avenir,Nunito,Arial,Helvetica,SansSerif" font-size="12.5" font-weight="bold" lengthAdjust="spacing" textLength="218.75" x="220.3125" y="184.5378">SphericalMercatorMetricProjection</text><line style="stroke:#5E5E5E;stroke-width:1.0416666666666667;" x1="190.1042" x2="444.2708" y1="195.5078" y2="195.5078"/><line style="stroke:#5E5E5E;stroke-width:1.0416666666666667;" x1="190.1042" x2="444.2708" y1="203.8411" y2="203.8411"/><path codeLine="9" d="M317.1875,122.6195 C317.1875,136.8382 317.1875,152.0361 317.1875,164.0986 " fill="none" id="MetricProjection-backto-SphericalMercatorMetricProjection" style="stroke:#545454;stroke-width:1.5625;"/><polygon fill="none" points="309.8958,122.5153,317.1875,101.682,324.4792,122.5153,309.8958,122.5153" style="stroke:#545454;stroke-width:1.5625;"/></g></svg>
