<?xml version="1.0" encoding="UTF-8" standalone="no"?><svg xmlns="http://www.w3.org/2000/svg" xmlns:xlink="http://www.w3.org/1999/xlink" contentScriptType="application/ecmascript" contentStyleType="text/css" height="339.5833px" preserveAspectRatio="none" style="width:468px;height:339px;background:#333333;" version="1.1" viewBox="0 0 468 339" width="468.75px" zoomAndPan="magnify"><defs/><g><rect fill="#48494B" height="41.2028" rx="8.3333" ry="8.3333" style="stroke:#545454;stroke-width:1.0416666666666667;" width="456.25" x="2.0833" y="2.0833"/><text fill="#C0C0C0" font-family="Open Sans,Avenir,Nunito,Arial,Helvetica,SansSerif" font-size="20.8333" lengthAdjust="spacing" textLength="433.3333" x="13.5417" y="30.5583">com.telenav.mesakit.map.geography.shape</text><polygon fill="#333333" points="280.7292,52.6611,341.1458,52.6611,348.4375,79.8828,436.9792,79.8828,436.9792,237.0361,280.7292,237.0361,280.7292,52.6611" style="stroke:#333333;stroke-width:2.0833333333333335;"/><line style="stroke:#333333;stroke-width:2.0833333333333335;" x1="280.7292" x2="348.4375" y1="79.8828" y2="79.8828"/><text fill="#C8AC00" font-family="Open Sans,Avenir,Nunito,Arial,Helvetica,SansSerif" font-size="12.5" font-weight="bold" lengthAdjust="spacing" textLength="47.9167" x="288.0208" y="69.9544">Outline</text><rect codeLine="7" fill="#282828" height="127.0345" id="Outline.Containment" rx="8.3333" ry="8.3333" style="stroke:#5E5E5E;stroke-width:1.0416666666666667;" width="121.875" x="297.9167" y="93.2861"/><rect fill="#1B1B1A" height="31.3883" rx="8.3333" ry="8.3333" style="stroke:#1B1B1A;stroke-width:1.0416666666666667;" width="121.875" x="297.9167" y="93.2861"/><rect fill="#1B1B1A" height="8.3333" style="stroke:#1B1B1A;stroke-width:1.0416666666666667;" width="121.875" x="297.9167" y="116.3411"/><rect codeLine="7" fill="none" height="127.0345" id="Outline.Containment" rx="8.3333" ry="8.3333" style="stroke:#5E5E5E;stroke-width:1.0416666666666667;" width="121.875" x="297.9167" y="93.2861"/><ellipse cx="312.5" cy="108.9803" fill="#CF6300" rx="10.4167" ry="10.4167" style="stroke:#EF8300;stroke-width:1.0416666666666667;"/><path d="M315.5558,113.6678 L309.8796,113.6678 L309.8796,104.5553 L315.5558,104.5553 L315.5558,106.1422 L311.6801,106.1422 L311.6801,108.1075 L315.1896,108.1075 L315.1896,109.6944 L311.6801,109.6944 L311.6801,112.0809 L315.5558,112.0809 Z " fill="#000000"/><text fill="#D8BC00" font-family="Open Sans,Avenir,Nunito,Arial,Helvetica,SansSerif" font-size="12.5" font-weight="bold" lengthAdjust="spacing" textLength="84.375" x="329.1667" y="113.7044">Containment</text><line style="stroke:#5E5E5E;stroke-width:1.0416666666666667;" x1="298.9583" x2="418.75" y1="124.6745" y2="124.6745"/><text fill="#D8BC00" font-family="Open Sans,Avenir,Nunito,Arial,Helvetica,SansSerif" font-size="11.4583" lengthAdjust="spacing" textLength="89.5833" x="307.2917" y="143.044">INDETERMINATE</text><text fill="#D8BC00" font-family="Open Sans,Avenir,Nunito,Arial,Helvetica,SansSerif" font-size="11.4583" lengthAdjust="spacing" textLength="35.4167" x="307.2917" y="162.7889">INSIDE</text><text fill="#D8BC00" font-family="Open Sans,Avenir,Nunito,Arial,Helvetica,SansSerif" font-size="11.4583" lengthAdjust="spacing" textLength="68.75" x="307.2917" y="182.5338">ON_BORDER</text><text fill="#D8BC00" font-family="Open Sans,Avenir,Nunito,Arial,Helvetica,SansSerif" font-size="11.4583" lengthAdjust="spacing" textLength="48.9583" x="307.2917" y="202.2786">OUTSIDE</text><line style="stroke:#5E5E5E;stroke-width:1.0416666666666667;" x1="298.9583" x2="418.75" y1="211.9873" y2="211.9873"/><rect codeLine="24" fill="#282828" height="131.2012" id="Outline" rx="8.3333" ry="8.3333" style="stroke:#5E5E5E;stroke-width:1.0416666666666667;" width="233.3333" x="27.6042" y="91.2028"/><rect fill="#1B1B1A" height="31.3883" rx="8.3333" ry="8.3333" style="stroke:#1B1B1A;stroke-width:1.0416666666666667;" width="233.3333" x="27.6042" y="91.2028"/><rect fill="#1B1B1A" height="8.3333" style="stroke:#1B1B1A;stroke-width:1.0416666666666667;" width="233.3333" x="27.6042" y="114.2578"/><rect codeLine="24" fill="none" height="131.2012" id="Outline" rx="8.3333" ry="8.3333" style="stroke:#5E5E5E;stroke-width:1.0416666666666667;" width="233.3333" x="27.6042" y="91.2028"/><ellipse cx="113.0208" cy="106.897" fill="#008400" rx="10.4167" ry="10.4167" style="stroke:#239C23;stroke-width:1.0416666666666667;"/><path d="M110.4248,104.0588 L110.4248,102.4719 L115.8508,102.4719 L115.8508,104.0588 L114.0381,104.0588 L114.0381,109.9976 L115.8508,109.9976 L115.8508,111.5845 L110.4248,111.5845 L110.4248,109.9976 L112.2375,109.9976 L112.2375,104.0588 Z " fill="#000000"/><text fill="#D8BC00" font-family="Open Sans,Avenir,Nunito,Arial,Helvetica,SansSerif" font-size="12.5" font-style="italic" font-weight="bold" lengthAdjust="spacing" textLength="47.9167" x="135.9375" y="111.6211">Outline</text><line style="stroke:#5E5E5E;stroke-width:1.5625;" x1="28.6458" x2="259.8958" y1="122.5911" y2="122.5911"/><line style="stroke:#5E5E5E;stroke-width:1.0416666666666667;" x1="28.6458" x2="259.8958" y1="130.9245" y2="130.9245"/><ellipse cx="39.0625" cy="142.3828" fill="#84BE84" rx="3.125" ry="3.125" style="stroke:#038048;stroke-width:1.0416666666666667;"/><text fill="#D8BC00" font-family="Open Sans,Avenir,Nunito,Arial,Helvetica,SansSerif" font-size="11.4583" lengthAdjust="spacing" textLength="201.0417" x="50.5208" y="149.294">Containment containment(Location)</text><ellipse cx="39.0625" cy="186.0392" fill="#84BE84" rx="3.125" ry="3.125" style="stroke:#038048;stroke-width:1.0416666666666667;"/><text fill="#D8BC00" font-family="Open Sans,Avenir,Nunito,Arial,Helvetica,SansSerif" font-size="11.4583" lengthAdjust="spacing" textLength="147.9167" x="50.5208" y="192.9504">boolean contains(Located)</text><ellipse cx="39.0625" cy="205.7841" fill="#84BE84" rx="3.125" ry="3.125" style="stroke:#038048;stroke-width:1.0416666666666667;"/><text fill="#D8BC00" font-family="Open Sans,Avenir,Nunito,Arial,Helvetica,SansSerif" font-size="11.4583" lengthAdjust="spacing" textLength="152.0833" x="50.5208" y="212.6953">boolean contains(Location)</text><line style="stroke:#5E5E5E;stroke-width:1.0416666666666667;" x1="28.6458" x2="109.8958" y1="168.8751" y2="168.8751"/><text fill="#D8BC00" font-family="Open Sans,Avenir,Nunito,Arial,Helvetica,SansSerif" font-size="11.4583" lengthAdjust="spacing" textLength="62.5" x="113.0208" y="172.6847">(collection)</text><line style="stroke:#5E5E5E;stroke-width:1.0416666666666667;" x1="178.6458" x2="259.8958" y1="168.8751" y2="168.8751"/><rect codeLine="26" fill="#282828" height="48.055" id="Shape" rx="8.3333" ry="8.3333" style="stroke:#5E5E5E;stroke-width:1.0416666666666667;" width="76.0417" x="106.25" y="284.9528"/><rect fill="#1B1B1A" height="31.3883" rx="8.3333" ry="8.3333" style="stroke:#1B1B1A;stroke-width:1.0416666666666667;" width="76.0417" x="106.25" y="284.9528"/><rect fill="#1B1B1A" height="8.3333" style="stroke:#1B1B1A;stroke-width:1.0416666666666667;" width="76.0417" x="106.25" y="308.0078"/><rect codeLine="26" fill="none" height="48.055" id="Shape" rx="8.3333" ry="8.3333" style="stroke:#5E5E5E;stroke-width:1.0416666666666667;" width="76.0417" x="106.25" y="284.9528"/><ellipse cx="120.8333" cy="300.647" fill="#008400" rx="10.4167" ry="10.4167" style="stroke:#239C23;stroke-width:1.0416666666666667;"/><path d="M118.2373,297.8088 L118.2373,296.2219 L123.6633,296.2219 L123.6633,297.8088 L121.8506,297.8088 L121.8506,303.7476 L123.6633,303.7476 L123.6633,305.3345 L118.2373,305.3345 L118.2373,303.7476 L120.05,303.7476 L120.05,297.8088 Z " fill="#000000"/><text fill="#D8BC00" font-family="Open Sans,Avenir,Nunito,Arial,Helvetica,SansSerif" font-size="12.5" font-style="italic" font-weight="bold" lengthAdjust="spacing" textLength="38.5417" x="137.5" y="305.3711">Shape</text><line style="stroke:#5E5E5E;stroke-width:1.0416666666666667;" x1="107.2917" x2="181.25" y1="316.3411" y2="316.3411"/><line style="stroke:#5E5E5E;stroke-width:1.0416666666666667;" x1="107.2917" x2="181.25" y1="324.6745" y2="324.6745"/><path codeLine="25" d="M144.2708,243.682 C144.2708,258.9007 144.2708,273.5257 144.2708,284.9528 " fill="none" id="Outline-backto-Shape" style="stroke:#545454;stroke-width:1.5625;"/><polygon fill="none" points="136.9792,243.6195,144.2708,222.7861,151.5625,243.6195,136.9792,243.6195" style="stroke:#545454;stroke-width:1.5625;"/></g></svg>
