<?xml version="1.0" encoding="UTF-8" standalone="no"?><svg xmlns="http://www.w3.org/2000/svg" xmlns:xlink="http://www.w3.org/1999/xlink" contentScriptType="application/ecmascript" contentStyleType="text/css" height="282.2917px" preserveAspectRatio="none" style="width:554px;height:282px;background:#333333;" version="1.1" viewBox="0 0 554 282" width="554.1667px" zoomAndPan="magnify"><defs/><g><rect fill="#48494B" height="41.2028" rx="8.3333" ry="8.3333" style="stroke:#545454;stroke-width:1.0416666666666667;" width="541.6667" x="2.0833" y="2.0833"/><text fill="#C0C0C0" font-family="Open Sans,Avenir,Nunito,Arial,Helvetica,SansSerif" font-size="20.8333" lengthAdjust="spacing" textLength="518.75" x="13.5417" y="30.5583">com.telenav.mesakit.tools.applications.pbf.analyzer</text><!--MD5=[784d533083758286c885e86b9fe3090e]
class BaseComponent--><rect codeLine="6" fill="#282828" height="48.055" id="BaseComponent" rx="8.3333" ry="8.3333" style="stroke:#5E5E5E;stroke-width:1.0416666666666667;" width="143.75" x="90.1042" y="53.7028"/><rect fill="#1B1B1A" height="31.3883" rx="8.3333" ry="8.3333" style="stroke:#1B1B1A;stroke-width:1.0416666666666667;" width="143.75" x="90.1042" y="53.7028"/><rect fill="#1B1B1A" height="8.3333" style="stroke:#1B1B1A;stroke-width:1.0416666666666667;" width="143.75" x="90.1042" y="76.7578"/><rect codeLine="6" fill="none" height="48.055" id="BaseComponent" rx="8.3333" ry="8.3333" style="stroke:#5E5E5E;stroke-width:1.0416666666666667;" width="143.75" x="90.1042" y="53.7028"/><ellipse cx="104.6875" cy="69.397" fill="#C8AC00" rx="10.4167" ry="10.4167" style="stroke:#D8BC00;stroke-width:1.0416666666666667;"/><path d="M104.2806,66.099 L103.4322,69.8283 L105.1351,69.8283 Z M103.182,64.4511 L105.3853,64.4511 L107.8451,73.5636 L106.0445,73.5636 L105.483,71.3114 L103.0721,71.3114 L102.5228,73.5636 L100.7222,73.5636 Z " fill="#000000"/><text fill="#D8BC00" font-family="Open Sans,Avenir,Nunito,Arial,Helvetica,SansSerif" font-size="12.5" font-style="italic" font-weight="bold" lengthAdjust="spacing" textLength="106.25" x="121.3542" y="74.1211">BaseComponent</text><line style="stroke:#5E5E5E;stroke-width:1.0416666666666667;" x1="91.1458" x2="232.8125" y1="85.0911" y2="85.0911"/><line style="stroke:#5E5E5E;stroke-width:1.0416666666666667;" x1="91.1458" x2="232.8125" y1="93.4245" y2="93.4245"/><!--MD5=[16a12f0a3fce49e84894ff28b9c80e57]
class Analyzer--><rect codeLine="9" fill="#282828" height="83.3781" id="Analyzer" rx="8.3333" ry="8.3333" style="stroke:#5E5E5E;stroke-width:1.0416666666666667;" width="150" x="86.9792" y="178.182"/><rect fill="#1B1B1A" height="31.3883" rx="8.3333" ry="8.3333" style="stroke:#1B1B1A;stroke-width:1.0416666666666667;" width="150" x="86.9792" y="178.182"/><rect fill="#1B1B1A" height="8.3333" style="stroke:#1B1B1A;stroke-width:1.0416666666666667;" width="150" x="86.9792" y="201.237"/><rect codeLine="9" fill="none" height="83.3781" id="Analyzer" rx="8.3333" ry="8.3333" style="stroke:#5E5E5E;stroke-width:1.0416666666666667;" width="150" x="86.9792" y="178.182"/><ellipse cx="126.875" cy="193.8761" fill="#0066CF" rx="10.4167" ry="10.4167" style="stroke:#0086EF;stroke-width:1.0416666666666667;"/><path d="M128.7854,198.3012 Q128.3582,198.5209 127.8882,198.6308 Q127.4182,198.7406 126.8994,198.7406 Q125.0562,198.7406 124.0857,197.526 Q123.1152,196.3114 123.1152,194.0165 Q123.1152,191.7155 124.0857,190.5009 Q125.0562,189.2863 126.8994,189.2863 Q127.4182,189.2863 127.8943,189.3962 Q128.3704,189.506 128.7854,189.7257 L128.7854,191.7277 Q128.3215,191.3005 127.8851,191.1021 Q127.4487,190.9037 126.9849,190.9037 Q125.9961,190.9037 125.4926,191.688 Q124.989,192.4723 124.989,194.0165 Q124.989,195.5546 125.4926,196.3389 Q125.9961,197.1232 126.9849,197.1232 Q127.4487,197.1232 127.8851,196.9248 Q128.3215,196.7265 128.7854,196.2992 Z " fill="#000000"/><text fill="#D8BC00" font-family="Open Sans,Avenir,Nunito,Arial,Helvetica,SansSerif" font-size="12.5" font-weight="bold" lengthAdjust="spacing" textLength="56.25" x="149.1667" y="198.6003">Analyzer</text><line style="stroke:#5E5E5E;stroke-width:1.5625;" x1="88.0208" x2="235.9375" y1="209.5703" y2="209.5703"/><ellipse cx="98.4375" cy="244.9402" fill="#84BE84" rx="3.125" ry="3.125" style="stroke:#038048;stroke-width:1.0416666666666667;"/><text fill="#D8BC00" font-family="Open Sans,Avenir,Nunito,Arial,Helvetica,SansSerif" font-size="11.4583" lengthAdjust="spacing" textLength="117.7083" x="109.8958" y="251.8514">void addWay(PbfWay)</text><line style="stroke:#5E5E5E;stroke-width:1.0416666666666667;" x1="88.0208" x2="127.6042" y1="227.7761" y2="227.7761"/><text fill="#D8BC00" font-family="Open Sans,Avenir,Nunito,Arial,Helvetica,SansSerif" font-size="11.4583" lengthAdjust="spacing" textLength="62.5" x="130.7292" y="231.5857">(collection)</text><line style="stroke:#5E5E5E;stroke-width:1.0416666666666667;" x1="196.3542" x2="235.9375" y1="227.7761" y2="227.7761"/><!--MD5=[0b4e4b4980470ea387cc45de9bd14b5b]
class Application--><rect fill="#282828" height="48.055" id="Application" rx="8.3333" ry="8.3333" style="stroke:#5E5E5E;stroke-width:1.0416666666666667;" width="111.4583" x="317.7083" y="53.7028"/><rect fill="#1B1B1A" height="31.3883" rx="8.3333" ry="8.3333" style="stroke:#1B1B1A;stroke-width:1.0416666666666667;" width="111.4583" x="317.7083" y="53.7028"/><rect fill="#1B1B1A" height="8.3333" style="stroke:#1B1B1A;stroke-width:1.0416666666666667;" width="111.4583" x="317.7083" y="76.7578"/><rect fill="none" height="48.055" id="Application" rx="8.3333" ry="8.3333" style="stroke:#5E5E5E;stroke-width:1.0416666666666667;" width="111.4583" x="317.7083" y="53.7028"/><ellipse cx="332.2917" cy="69.397" fill="#0066CF" rx="10.4167" ry="10.4167" style="stroke:#0086EF;stroke-width:1.0416666666666667;"/><path d="M334.2021,73.822 Q333.7748,74.0417 333.3049,74.1516 Q332.8349,74.2615 332.3161,74.2615 Q330.4728,74.2615 329.5024,73.0469 Q328.5319,71.8323 328.5319,69.5374 Q328.5319,67.2363 329.5024,66.0217 Q330.4728,64.8071 332.3161,64.8071 Q332.8349,64.8071 333.311,64.917 Q333.787,65.0269 334.2021,65.2466 L334.2021,67.2485 Q333.7382,66.8213 333.3018,66.6229 Q332.8654,66.4246 332.4015,66.4246 Q331.4128,66.4246 330.9092,67.2089 Q330.4057,67.9932 330.4057,69.5374 Q330.4057,71.0754 330.9092,71.8597 Q331.4128,72.644 332.4015,72.644 Q332.8654,72.644 333.3018,72.4457 Q333.7382,72.2473 334.2021,71.8201 Z " fill="#000000"/><text fill="#D8BC00" font-family="Open Sans,Avenir,Nunito,Arial,Helvetica,SansSerif" font-size="12.5" font-weight="bold" lengthAdjust="spacing" textLength="73.9583" x="348.9583" y="74.1211">Application</text><line style="stroke:#5E5E5E;stroke-width:1.0416666666666667;" x1="318.75" x2="428.125" y1="85.0911" y2="85.0911"/><line style="stroke:#5E5E5E;stroke-width:1.0416666666666667;" x1="318.75" x2="428.125" y1="93.4245" y2="93.4245"/><!--MD5=[f789902065a762fb264fa9616c4a048a]
class PbfAnalyzerApplication--><rect codeLine="16" fill="#282828" height="111.4563" id="PbfAnalyzerApplication" rx="8.3333" ry="8.3333" style="stroke:#5E5E5E;stroke-width:1.0416666666666667;" width="200" x="273.4375" y="164.1195"/><rect fill="#1B1B1A" height="31.3883" rx="8.3333" ry="8.3333" style="stroke:#1B1B1A;stroke-width:1.0416666666666667;" width="200" x="273.4375" y="164.1195"/><rect fill="#1B1B1A" height="8.3333" style="stroke:#1B1B1A;stroke-width:1.0416666666666667;" width="200" x="273.4375" y="187.1745"/><rect codeLine="16" fill="none" height="111.4563" id="PbfAnalyzerApplication" rx="8.3333" ry="8.3333" style="stroke:#5E5E5E;stroke-width:1.0416666666666667;" width="200" x="273.4375" y="164.1195"/><ellipse cx="293.1771" cy="179.8136" fill="#0066CF" rx="10.4167" ry="10.4167" style="stroke:#0086EF;stroke-width:1.0416666666666667;"/><path d="M295.0875,184.2387 Q294.6602,184.4584 294.1903,184.5683 Q293.7203,184.6781 293.2015,184.6781 Q291.3582,184.6781 290.3878,183.4635 Q289.4173,182.2489 289.4173,179.954 Q289.4173,177.653 290.3878,176.4384 Q291.3582,175.2238 293.2015,175.2238 Q293.7203,175.2238 294.1964,175.3337 Q294.6724,175.4435 295.0875,175.6632 L295.0875,177.6652 Q294.6236,177.238 294.1872,177.0396 Q293.7508,176.8412 293.2869,176.8412 Q292.2982,176.8412 291.7946,177.6255 Q291.2911,178.4098 291.2911,179.954 Q291.2911,181.4921 291.7946,182.2764 Q292.2982,183.0607 293.2869,183.0607 Q293.7508,183.0607 294.1872,182.8623 Q294.6236,182.664 295.0875,182.2367 Z " fill="#000000"/><text fill="#D8BC00" font-family="Open Sans,Avenir,Nunito,Arial,Helvetica,SansSerif" font-size="12.5" font-weight="bold" lengthAdjust="spacing" textLength="151.0417" x="310.9896" y="184.5378">PbfAnalyzerApplication</text><line style="stroke:#5E5E5E;stroke-width:1.5625;" x1="274.4792" x2="472.3958" y1="195.5078" y2="195.5078"/><ellipse cx="284.8958" cy="230.8777" fill="#84BE84" rx="3.125" ry="3.125" style="stroke:#038048;stroke-width:1.0416666666666667;"/><text fill="#D8BC00" font-family="Open Sans,Avenir,Nunito,Arial,Helvetica,SansSerif" font-size="11.4583" lengthAdjust="spacing" textLength="138.5417" x="296.3542" y="237.7889">PbfAnalyzerApplication()</text><line style="stroke:#5E5E5E;stroke-width:1.0416666666666667;" x1="274.4792" x2="329.6875" y1="213.7136" y2="213.7136"/><text fill="#D8BC00" font-family="Open Sans,Avenir,Nunito,Arial,Helvetica,SansSerif" font-size="11.4583" lengthAdjust="spacing" textLength="81.25" x="332.8125" y="217.5232">(constructors)</text><line style="stroke:#5E5E5E;stroke-width:1.0416666666666667;" x1="417.1875" x2="472.3958" y1="213.7136" y2="213.7136"/><line style="stroke:#5E5E5E;stroke-width:1.0416666666666667;" x1="274.4792" x2="472.3958" y1="247.4976" y2="247.4976"/><ellipse cx="284.8958" cy="258.9559" fill="#84BE84" rx="3.125" ry="3.125" style="stroke:#038048;stroke-width:1.0416666666666667;"/><text fill="#D8BC00" font-family="Open Sans,Avenir,Nunito,Arial,Helvetica,SansSerif" font-size="11.4583" lengthAdjust="spacing" textLength="167.7083" x="296.3542" y="265.8671">void main(String[] arguments)</text><!--MD5=[1537e49e8cf2780849fd96bb721dbce0]
reverse link BaseComponent to Analyzer--><path codeLine="8" d="M161.9792,122.7965 C161.9792,140.4736 161.9792,160.734 161.9792,178.0674 " fill="none" id="BaseComponent-backto-Analyzer" style="stroke:#545454;stroke-width:1.5625;"/><polygon fill="none" points="154.6875,122.6715,161.9792,101.8382,169.2708,122.6715,154.6875,122.6715" style="stroke:#545454;stroke-width:1.5625;"/><!--MD5=[1c72b4882622400b0ea4aae85407bd7b]
reverse link Application to PbfAnalyzerApplication--><path codeLine="15" d="M373.4375,122.7028 C373.4375,135.7549 373.4375,150.2028 373.4375,163.859 " fill="none" id="Application-backto-PbfAnalyzerApplication" style="stroke:#545454;stroke-width:1.5625;"/><polygon fill="none" points="366.1458,122.6715,373.4375,101.8382,380.7292,122.6715,366.1458,122.6715" style="stroke:#545454;stroke-width:1.5625;"/><!--MD5=[1cd318ecd59fb1ca3ddbd967d10ea831]
@startuml

    !include lexakai.theme
    
    title "com.telenav.mesakit.tools.applications.pbf.analyzer"
    
    abstract BaseComponent
    
    BaseComponent <|- - Analyzer
    class Analyzer
    {
        - -(collection)- -
        +void addWay(PbfWay)
    }
    
    Application <|- - PbfAnalyzerApplication
    class PbfAnalyzerApplication
    {
        - -(constructors)- -
        +PbfAnalyzerApplication()
        - -
        +void main(String[] arguments)
    }
    
@enduml

@startuml









skinparam backgroundColor #333333






skinparam  {
    defaultFontName   "Open Sans,Avenir,Nunito,Arial,Helvetica,SansSerif"
    defaultFontSize   12
    defaultTextAlignment left
    shadowing false
    RoundCorner 10
    TitleFontSize 18
}

skinparam defaultFontName       "Open Sans,Avenir,Nunito,Arial,Helvetica,SansSerif"
skinparam defaultFontSize       12
skinparam dpi                   100
skinparam shadowing             false
skinparam roundcorner           16
skinparam ParticipantPadding    40
skinparam BoxPadding            40
skinparam Padding               3
skinparam ArrowColor            #545454
skinparam stereotype {
    CBackgroundColor #0066cf
    CBorderColor #0086ef
    ABackgroundColor #C8Ac00
    ABorderColor #D8Bc00
    IBackgroundColor #008400
    IBorderColor #239c23
    EBackgroundColor #cf6300
    EBorderColor #ef8300
    NBackgroundColor #3380b9
    NBorderColor #004d86
}
skinparam title {
	FontColor	                 #c0c0c0
 	BorderColor                  #545454
	FontSize	    	         20
	BorderRoundCorner            16
	BorderThickness 	         1
	BackgroundColor              #48494b
}


skinparam legend {
	BackgroundColor #303030
	BorderColor #404040
	FontColor #a0a0a0
}

	skinparam swimlane {
	BorderColor #5e5e5e
	BorderThickness 2
	TitleBackgroundColor  #6d6d6d-#484848
	TitleFontColor #303030
}

skinparam activity {
		FontColor #C8Ac00
	BorderColor #333333
	BackgroundColor #333333-#333333
	BarColor #00FF00
	StartColor #0060a8
	EndColor #0060a8
	DiamondBackgroundColor #6d6d6d-#3a3a3a
  	DiamondBorderColor #3a3a3a
  	DiamondFontColor #fefefe
}


skinparam participant {
		FontColor #C8Ac00
	BorderColor #333333
	BackgroundColor #333333-#333333
	ParticipantBorderThickness 2
}


skinparam actor {
		FontColor #C8Ac00
	BorderColor #333333
	BackgroundColor #333333-#333333
}


skinparam arrow {
	Thickness 1.5
	Color #545454
	FontColor #a0a0a0
    FontStyle bold
    MessageAlignment center
}



skinparam sequence {
	BorderColor #303030
	TitleFontColor #303030
	BackgroundColor #333333
	StartColor #303030
	EndColor #303030
	BoxBackgroundColor #333333
	BoxBorderColor #484848
	BoxFontColor #484848
	LifeLineBorderColor #484848
	LifeLineBorderThickness 2
	LifeLineBackgroundColor #3a3a3a
	GroupBorderColor #484848
	GroupFontColor #484848
	GroupHeaderFontColor #0060a8
	GroupBackgroundColor #484848
	GroupHeaderBackgroundColor #333333
	DividerBackgroundColor #484848
    DividerBorderColor #484848
    DividerBorderThickness 2
    DividerFontColor #D8Bc00
	ReferenceBackgroundColor #333333
	ReferenceBorderColor #484848
	ReferenceFontColor #fefefe
	ReferenceHeaderBackgroundColor #484848
}


skinparam partition {
	BorderColor #303030
	FontColor #333333
	BackgroundColor #333333
}


skinparam collections {
		FontColor #C8Ac00
	BorderColor #333333
	BackgroundColor #333333-#333333
}


skinparam control {
		FontColor #C8Ac00
	BorderColor #333333
	BackgroundColor #333333-#333333
}


skinparam entity {
		FontColor #C8Ac00
	BorderColor #333333
	BackgroundColor #333333-#333333
}


skinparam boundary {
		FontColor #C8Ac00
	BorderColor #333333
	BackgroundColor #333333-#333333
}


skinparam agent {
	BackgroundColor #ff8000
	BorderColor #ff9933
	FontColor #484848
}


skinparam note {
	BorderThickness 1
	BackgroundColor #1b1b1a
	BorderColor #5e5e5e
	FontSize 11
	FontColor #a0a0a0
}


skinparam artifact {
	BorderThickness 10
	BorderColor #5e5e5e
	BackgroundColor #1b1b1a
	FontColor #D8Bc00
}


skinparam component {
		FontColor #C8Ac00
	BorderColor #333333
	BackgroundColor #333333-#333333
}


skinparam interface {
	BackgroundColor  #008400
	BorderColor  #007F00
	FontColor #484848
}


skinparam storage {
	BackgroundColor #ff8000
  	BorderColor #cc6600
	FontColor #222222
}


skinparam node {
	BackgroundColor #333333
	BorderColor #333333
	FontColor #C8Ac00
}


skinparam cloud {
	BackgroundColor #484848-black
	BorderColor #484848
	FontColor #D8Bc00
}


skinparam database {
		FontColor #C8Ac00
	BorderColor #333333
	BackgroundColor #333333-#333333
	BackgroundColor  #333333
}


skinparam class {
		FontColor #C8Ac00
	BorderColor #333333
	BackgroundColor #333333-#333333
	HeaderBackgroundColor #1b1b1a
    BackgroundColor #282828
    BorderColor #5e5e5e
 	StereotypeFontColor #a0a0a0
    StereotypeFontStyle bold
	BorderThickness 1
	AttributeFontColor #D8Bc00
	AttributeFontSize 11
    FontColor #D8Bc00
    FontStyle bold
}


skinparam object {
		FontColor #C8Ac00
	BorderColor #333333
	BackgroundColor #333333-#333333
	StereotypeFontColor #484848
	BorderThickness 1
	AttributeFontColor #fefefe
	AttributeFontSize 11
}


skinparam usecase {
		FontColor #C8Ac00
	BorderColor #333333
	BackgroundColor #333333-#333333
	BorderThickness 2
	StereotypeFontColor #303030
}


skinparam rectangle {
		FontColor #C8Ac00
	BorderColor #333333
	BackgroundColor #333333-#333333
	BackgroundColor #333333
	BorderThickness 2
	StereotypeFontColor #303030
}


skinparam package {
		FontColor #C8Ac00
	BorderColor #333333
	BackgroundColor #333333-#333333
	BackgroundColor #333333
	BorderThickness 2
}


skinparam folder {
	BackgroundColor #6d6d6d
  	BorderColor #ff8000
	FontColor #ff8000
	BorderThickness 2
}


skinparam frame {
	BackgroundColor #6d6d6d
  	BorderColor #0060a8
	FontColor #0060a8
	BorderThickness 2
}


skinparam state {
		FontColor #C8Ac00
	BorderColor #333333
	BackgroundColor #333333-#333333
	StartColor #0060a8
	EndColor #0060a8
	AttributeFontColor #fefefe
	AttributeFontSize 11
}


skinparam queue {
		FontColor #C8Ac00
	BorderColor #333333
	BackgroundColor #333333-#333333
}


skinparam card {
	BackgroundColor #0060a8
	BorderColor #004d86
	FontColor $INFO_TEXT
}


skinparam file {
	BackgroundColor #6d6d6d-#484848
	BorderColor #0060a8
	FontColor #fefefe
}


skinparam stack {
		FontColor #C8Ac00
	BorderColor #333333
	BackgroundColor #333333-#333333
}

    
    title "com.telenav.mesakit.tools.applications.pbf.analyzer"
    
    abstract BaseComponent
    
    BaseComponent <|- - Analyzer
    class Analyzer
    {
        - -(collection)- -
        +void addWay(PbfWay)
    }
    
    Application <|- - PbfAnalyzerApplication
    class PbfAnalyzerApplication
    {
        - -(constructors)- -
        +PbfAnalyzerApplication()
        - -
        +void main(String[] arguments)
    }
    
@enduml

PlantUML version 1.2021.01(Tue Feb 02 00:55:08 MST 2021)
(GPL source distribution)
Java Runtime: OpenJDK Runtime Environment
JVM: OpenJDK 64-Bit Server VM
Default Encoding: UTF-8
Language: en
Country: US
--></g></svg>