<?xml version="1.0" encoding="UTF-8" standalone="no"?><svg xmlns="http://www.w3.org/2000/svg" xmlns:xlink="http://www.w3.org/1999/xlink" contentScriptType="application/ecmascript" contentStyleType="text/css" height="472.9167px" preserveAspectRatio="none" style="width:1380px;height:472px;background:#333333;" version="1.1" viewBox="0 0 1380 472" width="1380.2083px" zoomAndPan="magnify"><defs/><g><rect fill="#48494B" height="41.2028" rx="8.3333" ry="8.3333" style="stroke:#545454;stroke-width:1.0416666666666667;" width="538.5417" x="413.5417" y="2.0833"/><text fill="#C0C0C0" font-family="Open Sans,Avenir,Nunito,Arial,Helvetica,SansSerif" font-size="20.8333" lengthAdjust="spacing" textLength="515.625" x="425" y="30.5583">com.telenav.mesakit.plugins.josm.library.tile.vector</text><rect codeLine="7" fill="#282828" height="48.055" id="AbstractTile" rx="8.3333" ry="8.3333" style="stroke:#5E5E5E;stroke-width:1.0416666666666667;" width="115.625" x="7.2917" y="85.4736"/><rect fill="#1B1B1A" height="31.3883" rx="8.3333" ry="8.3333" style="stroke:#1B1B1A;stroke-width:1.0416666666666667;" width="115.625" x="7.2917" y="85.4736"/><rect fill="#1B1B1A" height="8.3333" style="stroke:#1B1B1A;stroke-width:1.0416666666666667;" width="115.625" x="7.2917" y="108.5286"/><rect codeLine="7" fill="none" height="48.055" id="AbstractTile" rx="8.3333" ry="8.3333" style="stroke:#5E5E5E;stroke-width:1.0416666666666667;" width="115.625" x="7.2917" y="85.4736"/><ellipse cx="21.875" cy="101.1678" fill="#C8AC00" rx="10.4167" ry="10.4167" style="stroke:#D8BC00;stroke-width:1.0416666666666667;"/><path d="M21.4681,97.8699 L20.6197,101.5991 L22.3226,101.5991 Z M20.3695,96.2219 L22.5728,96.2219 L25.0326,105.3345 L23.232,105.3345 L22.6705,103.0823 L20.2596,103.0823 L19.7103,105.3345 L17.9097,105.3345 Z " fill="#000000"/><text fill="#D8BC00" font-family="Open Sans,Avenir,Nunito,Arial,Helvetica,SansSerif" font-size="12.5" font-style="italic" font-weight="bold" lengthAdjust="spacing" textLength="78.125" x="38.5417" y="105.8919">AbstractTile</text><line style="stroke:#5E5E5E;stroke-width:1.0416666666666667;" x1="8.3333" x2="121.875" y1="116.862" y2="116.862"/><line style="stroke:#5E5E5E;stroke-width:1.0416666666666667;" x1="8.3333" x2="121.875" y1="125.1953" y2="125.1953"/><rect codeLine="8" fill="#282828" height="48.055" id="AbstractTileDownloader" rx="8.3333" ry="8.3333" style="stroke:#5E5E5E;stroke-width:1.0416666666666667;" width="193.75" x="221.3542" y="85.4736"/><rect fill="#1B1B1A" height="31.3883" rx="8.3333" ry="8.3333" style="stroke:#1B1B1A;stroke-width:1.0416666666666667;" width="193.75" x="221.3542" y="85.4736"/><rect fill="#1B1B1A" height="8.3333" style="stroke:#1B1B1A;stroke-width:1.0416666666666667;" width="193.75" x="221.3542" y="108.5286"/><rect codeLine="8" fill="none" height="48.055" id="AbstractTileDownloader" rx="8.3333" ry="8.3333" style="stroke:#5E5E5E;stroke-width:1.0416666666666667;" width="193.75" x="221.3542" y="85.4736"/><ellipse cx="235.9375" cy="101.1678" fill="#C8AC00" rx="10.4167" ry="10.4167" style="stroke:#D8BC00;stroke-width:1.0416666666666667;"/><path d="M235.5306,97.8699 L234.6822,101.5991 L236.3851,101.5991 Z M234.432,96.2219 L236.6353,96.2219 L239.0951,105.3345 L237.2945,105.3345 L236.733,103.0823 L234.3221,103.0823 L233.7728,105.3345 L231.9722,105.3345 Z " fill="#000000"/><text fill="#D8BC00" font-family="Open Sans,Avenir,Nunito,Arial,Helvetica,SansSerif" font-size="12.5" font-style="italic" font-weight="bold" lengthAdjust="spacing" textLength="156.25" x="252.6042" y="105.8919">AbstractTileDownloader</text><line style="stroke:#5E5E5E;stroke-width:1.0416666666666667;" x1="222.3958" x2="414.0625" y1="116.862" y2="116.862"/><line style="stroke:#5E5E5E;stroke-width:1.0416666666666667;" x1="222.3958" x2="414.0625" y1="125.1953" y2="125.1953"/><rect codeLine="9" fill="#282828" height="48.055" id="AbstractTileRequest" rx="8.3333" ry="8.3333" style="stroke:#5E5E5E;stroke-width:1.0416666666666667;" width="167.7083" x="613.5417" y="85.4736"/><rect fill="#1B1B1A" height="31.3883" rx="8.3333" ry="8.3333" style="stroke:#1B1B1A;stroke-width:1.0416666666666667;" width="167.7083" x="613.5417" y="85.4736"/><rect fill="#1B1B1A" height="8.3333" style="stroke:#1B1B1A;stroke-width:1.0416666666666667;" width="167.7083" x="613.5417" y="108.5286"/><rect codeLine="9" fill="none" height="48.055" id="AbstractTileRequest" rx="8.3333" ry="8.3333" style="stroke:#5E5E5E;stroke-width:1.0416666666666667;" width="167.7083" x="613.5417" y="85.4736"/><ellipse cx="628.125" cy="101.1678" fill="#C8AC00" rx="10.4167" ry="10.4167" style="stroke:#D8BC00;stroke-width:1.0416666666666667;"/><path d="M627.7181,97.8699 L626.8697,101.5991 L628.5726,101.5991 Z M626.6195,96.2219 L628.8228,96.2219 L631.2826,105.3345 L629.482,105.3345 L628.9205,103.0823 L626.5096,103.0823 L625.9603,105.3345 L624.1597,105.3345 Z " fill="#000000"/><text fill="#D8BC00" font-family="Open Sans,Avenir,Nunito,Arial,Helvetica,SansSerif" font-size="12.5" font-style="italic" font-weight="bold" lengthAdjust="spacing" textLength="130.2083" x="644.7917" y="105.8919">AbstractTileRequest</text><line style="stroke:#5E5E5E;stroke-width:1.0416666666666667;" x1="614.5833" x2="780.2083" y1="116.862" y2="116.862"/><line style="stroke:#5E5E5E;stroke-width:1.0416666666666667;" x1="614.5833" x2="780.2083" y1="125.1953" y2="125.1953"/><rect codeLine="12" fill="#282828" height="48.055" id="VectorTile" rx="8.3333" ry="8.3333" style="stroke:#5E5E5E;stroke-width:1.0416666666666667;" width="102.0833" x="14.0625" y="322.9736"/><rect fill="#1B1B1A" height="31.3883" rx="8.3333" ry="8.3333" style="stroke:#1B1B1A;stroke-width:1.0416666666666667;" width="102.0833" x="14.0625" y="322.9736"/><rect fill="#1B1B1A" height="8.3333" style="stroke:#1B1B1A;stroke-width:1.0416666666666667;" width="102.0833" x="14.0625" y="346.0286"/><rect codeLine="12" fill="none" height="48.055" id="VectorTile" rx="8.3333" ry="8.3333" style="stroke:#5E5E5E;stroke-width:1.0416666666666667;" width="102.0833" x="14.0625" y="322.9736"/><ellipse cx="28.6458" cy="338.6678" fill="#0066CF" rx="10.4167" ry="10.4167" style="stroke:#0086EF;stroke-width:1.0416666666666667;"/><path d="M30.5562,343.0929 Q30.129,343.3126 29.659,343.4224 Q29.189,343.5323 28.6702,343.5323 Q26.827,343.5323 25.8565,342.3177 Q24.8861,341.1031 24.8861,338.8082 Q24.8861,336.5072 25.8565,335.2926 Q26.827,334.078 28.6702,334.078 Q29.189,334.078 29.6651,334.1878 Q30.1412,334.2977 30.5562,334.5174 L30.5562,336.5194 Q30.0924,336.0921 29.656,335.8938 Q29.2196,335.6954 28.7557,335.6954 Q27.7669,335.6954 27.2634,336.4797 Q26.7598,337.264 26.7598,338.8082 Q26.7598,340.3463 27.2634,341.1306 Q27.7669,341.9149 28.7557,341.9149 Q29.2196,341.9149 29.656,341.7165 Q30.0924,341.5181 30.5562,341.0909 Z " fill="#000000"/><text fill="#D8BC00" font-family="Open Sans,Avenir,Nunito,Arial,Helvetica,SansSerif" font-size="12.5" font-weight="bold" lengthAdjust="spacing" textLength="64.5833" x="45.3125" y="343.3919">VectorTile</text><line style="stroke:#5E5E5E;stroke-width:1.0416666666666667;" x1="15.1042" x2="115.1042" y1="354.362" y2="354.362"/><line style="stroke:#5E5E5E;stroke-width:1.0416666666666667;" x1="15.1042" x2="115.1042" y1="362.6953" y2="362.6953"/><rect codeLine="17" fill="#282828" height="83.3781" id="VectorTileDownloader" rx="8.3333" ry="8.3333" style="stroke:#5E5E5E;stroke-width:1.0416666666666667;" width="330.2083" x="153.125" y="305.2653"/><rect fill="#1B1B1A" height="31.3883" rx="8.3333" ry="8.3333" style="stroke:#1B1B1A;stroke-width:1.0416666666666667;" width="330.2083" x="153.125" y="305.2653"/><rect fill="#1B1B1A" height="8.3333" style="stroke:#1B1B1A;stroke-width:1.0416666666666667;" width="330.2083" x="153.125" y="328.3203"/><rect codeLine="17" fill="none" height="83.3781" id="VectorTileDownloader" rx="8.3333" ry="8.3333" style="stroke:#5E5E5E;stroke-width:1.0416666666666667;" width="330.2083" x="153.125" y="305.2653"/><ellipse cx="239.5833" cy="320.9595" fill="#0066CF" rx="10.4167" ry="10.4167" style="stroke:#0086EF;stroke-width:1.0416666666666667;"/><path d="M241.4937,325.3845 Q241.0665,325.6042 240.5965,325.7141 Q240.1265,325.824 239.6077,325.824 Q237.7645,325.824 236.794,324.6094 Q235.8236,323.3948 235.8236,321.0999 Q235.8236,318.7988 236.794,317.5842 Q237.7645,316.3696 239.6077,316.3696 Q240.1265,316.3696 240.6026,316.4795 Q241.0787,316.5894 241.4937,316.8091 L241.4937,318.811 Q241.0299,318.3838 240.5935,318.1854 Q240.1571,317.9871 239.6932,317.9871 Q238.7044,317.9871 238.2009,318.7714 Q237.6973,319.5557 237.6973,321.0999 Q237.6973,322.6379 238.2009,323.4222 Q238.7044,324.2065 239.6932,324.2065 Q240.1571,324.2065 240.5935,324.0082 Q241.0299,323.8098 241.4937,323.3826 Z " fill="#000000"/><text fill="#D8BC00" font-family="Open Sans,Avenir,Nunito,Arial,Helvetica,SansSerif" font-size="12.5" font-weight="bold" lengthAdjust="spacing" textLength="142.7083" x="262.5" y="325.6836">VectorTileDownloader</text><line style="stroke:#5E5E5E;stroke-width:1.5625;" x1="154.1667" x2="482.2917" y1="336.6536" y2="336.6536"/><ellipse cx="164.5833" cy="372.0235" fill="#84BE84" rx="3.125" ry="3.125" style="stroke:#038048;stroke-width:1.0416666666666667;"/><text fill="#D8BC00" font-family="Open Sans,Avenir,Nunito,Arial,Helvetica,SansSerif" font-size="11.4583" lengthAdjust="spacing" textLength="297.9167" x="176.0417" y="378.9347">VectorTileDownloader(HttpNetworkLocation, Version)</text><line style="stroke:#5E5E5E;stroke-width:1.0416666666666667;" x1="154.1667" x2="274.4792" y1="354.8594" y2="354.8594"/><text fill="#D8BC00" font-family="Open Sans,Avenir,Nunito,Arial,Helvetica,SansSerif" font-size="11.4583" lengthAdjust="spacing" textLength="81.25" x="277.6042" y="358.669">(constructors)</text><line style="stroke:#5E5E5E;stroke-width:1.0416666666666667;" x1="361.9792" x2="482.2917" y1="354.8594" y2="354.8594"/><rect codeLine="24" fill="#282828" height="238.2589" id="VectorTileRequest" rx="8.3333" ry="8.3333" style="stroke:#5E5E5E;stroke-width:1.0416666666666667;" width="355.2083" x="519.7917" y="227.6611"/><rect fill="#1B1B1A" height="31.3883" rx="8.3333" ry="8.3333" style="stroke:#1B1B1A;stroke-width:1.0416666666666667;" width="355.2083" x="519.7917" y="227.6611"/><rect fill="#1B1B1A" height="8.3333" style="stroke:#1B1B1A;stroke-width:1.0416666666666667;" width="355.2083" x="519.7917" y="250.7161"/><rect codeLine="24" fill="none" height="238.2589" id="VectorTileRequest" rx="8.3333" ry="8.3333" style="stroke:#5E5E5E;stroke-width:1.0416666666666667;" width="355.2083" x="519.7917" y="227.6611"/><ellipse cx="631.7708" cy="243.3553" fill="#0066CF" rx="10.4167" ry="10.4167" style="stroke:#0086EF;stroke-width:1.0416666666666667;"/><path d="M633.6812,247.7804 Q633.254,248.0001 632.784,248.1099 Q632.314,248.2198 631.7952,248.2198 Q629.952,248.2198 628.9815,247.0052 Q628.0111,245.7906 628.0111,243.4957 Q628.0111,241.1947 628.9815,239.9801 Q629.952,238.7655 631.7952,238.7655 Q632.314,238.7655 632.7901,238.8753 Q633.2662,238.9852 633.6812,239.2049 L633.6812,241.2069 Q633.2174,240.7796 632.781,240.5813 Q632.3446,240.3829 631.8807,240.3829 Q630.8919,240.3829 630.3884,241.1672 Q629.8848,241.9515 629.8848,243.4957 Q629.8848,245.0338 630.3884,245.8181 Q630.8919,246.6024 631.8807,246.6024 Q632.3446,246.6024 632.781,246.404 Q633.2174,246.2056 633.6812,245.7784 Z " fill="#000000"/><text fill="#D8BC00" font-family="Open Sans,Avenir,Nunito,Arial,Helvetica,SansSerif" font-size="12.5" font-weight="bold" lengthAdjust="spacing" textLength="116.6667" x="654.6875" y="248.0794">VectorTileRequest</text><line style="stroke:#5E5E5E;stroke-width:1.5625;" x1="520.8333" x2="873.9583" y1="259.0495" y2="259.0495"/><ellipse cx="531.25" cy="294.4194" fill="#84BE84" rx="3.125" ry="3.125" style="stroke:#038048;stroke-width:1.0416666666666667;"/><text fill="#D8BC00" font-family="Open Sans,Avenir,Nunito,Arial,Helvetica,SansSerif" font-size="11.4583" lengthAdjust="spacing" textLength="109.375" x="542.7083" y="301.3306">VectorTileRequest()</text><line style="stroke:#5E5E5E;stroke-width:1.0416666666666667;" x1="520.8333" x2="653.6458" y1="277.2552" y2="277.2552"/><text fill="#D8BC00" font-family="Open Sans,Avenir,Nunito,Arial,Helvetica,SansSerif" font-size="11.4583" lengthAdjust="spacing" textLength="81.25" x="656.7708" y="281.0649">(constructors)</text><line style="stroke:#5E5E5E;stroke-width:1.0416666666666667;" x1="741.1458" x2="873.9583" y1="277.2552" y2="277.2552"/><line style="stroke:#5E5E5E;stroke-width:1.0416666666666667;" x1="520.8333" x2="873.9583" y1="311.0392" y2="311.0392"/><ellipse cx="531.25" cy="322.4976" fill="#84BE84" rx="3.125" ry="3.125" style="stroke:#038048;stroke-width:1.0416666666666667;"/><text fill="#D8BC00" font-family="Open Sans,Avenir,Nunito,Arial,Helvetica,SansSerif" font-size="11.4583" lengthAdjust="spacing" textLength="81.25" x="542.7083" y="329.4088">SlippyTile tile()</text><ellipse cx="531.25" cy="366.154" fill="#84BE84" rx="3.125" ry="3.125" style="stroke:#038048;stroke-width:1.0416666666666667;"/><text fill="#D8BC00" font-family="Open Sans,Avenir,Nunito,Arial,Helvetica,SansSerif" font-size="11.4583" lengthAdjust="spacing" textLength="322.9167" x="542.7083" y="373.0652">VectorTileRequest withForceUpdate(boolean forceUpdate)</text><ellipse cx="531.25" cy="385.8988" fill="#84BE84" rx="3.125" ry="3.125" style="stroke:#038048;stroke-width:1.0416666666666667;"/><text fill="#D8BC00" font-family="Open Sans,Avenir,Nunito,Arial,Helvetica,SansSerif" font-size="11.4583" lengthAdjust="spacing" textLength="231.25" x="542.7083" y="392.8101">VectorTileRequest withMapData(MapData)</text><ellipse cx="531.25" cy="405.6437" fill="#84BE84" rx="3.125" ry="3.125" style="stroke:#038048;stroke-width:1.0416666666666667;"/><text fill="#D8BC00" font-family="Open Sans,Avenir,Nunito,Arial,Helvetica,SansSerif" font-size="11.4583" lengthAdjust="spacing" textLength="208.3333" x="542.7083" y="412.5549">VectorTileRequest withTile(SlippyTile)</text><line style="stroke:#5E5E5E;stroke-width:1.0416666666666667;" x1="520.8333" x2="675" y1="348.9899" y2="348.9899"/><text fill="#D8BC00" font-family="Open Sans,Avenir,Nunito,Arial,Helvetica,SansSerif" font-size="11.4583" lengthAdjust="spacing" textLength="38.5417" x="678.125" y="352.7995">(angle)</text><line style="stroke:#5E5E5E;stroke-width:1.0416666666666667;" x1="719.7917" x2="873.9583" y1="348.9899" y2="348.9899"/><ellipse cx="531.25" cy="449.3001" fill="#84BE84" rx="3.125" ry="3.125" style="stroke:#038048;stroke-width:1.0416666666666667;"/><text fill="#D8BC00" font-family="Open Sans,Avenir,Nunito,Arial,Helvetica,SansSerif" font-size="11.4583" lengthAdjust="spacing" textLength="108.3333" x="542.7083" y="456.2113">MapData mapData()</text><line style="stroke:#5E5E5E;stroke-width:1.0416666666666667;" x1="520.8333" x2="663.0208" y1="432.136" y2="432.136"/><text fill="#D8BC00" font-family="Open Sans,Avenir,Nunito,Arial,Helvetica,SansSerif" font-size="11.4583" lengthAdjust="spacing" textLength="62.5" x="666.1458" y="435.9456">(collection)</text><line style="stroke:#5E5E5E;stroke-width:1.0416666666666667;" x1="731.7708" x2="873.9583" y1="432.136" y2="432.136"/><rect codeLine="38" fill="#282828" height="111.4563" id="VectorTileSource" rx="8.3333" ry="8.3333" style="stroke:#5E5E5E;stroke-width:1.0416666666666667;" width="286.4583" x="817.7083" y="53.7028"/><rect fill="#1B1B1A" height="31.3883" rx="8.3333" ry="8.3333" style="stroke:#1B1B1A;stroke-width:1.0416666666666667;" width="286.4583" x="817.7083" y="53.7028"/><rect fill="#1B1B1A" height="8.3333" style="stroke:#1B1B1A;stroke-width:1.0416666666666667;" width="286.4583" x="817.7083" y="76.7578"/><rect codeLine="38" fill="none" height="111.4563" id="VectorTileSource" rx="8.3333" ry="8.3333" style="stroke:#5E5E5E;stroke-width:1.0416666666666667;" width="286.4583" x="817.7083" y="53.7028"/><ellipse cx="900" cy="69.397" fill="#008400" rx="10.4167" ry="10.4167" style="stroke:#239C23;stroke-width:1.0416666666666667;"/><path d="M897.404,66.5588 L897.404,64.9719 L902.83,64.9719 L902.83,66.5588 L901.0173,66.5588 L901.0173,72.4976 L902.83,72.4976 L902.83,74.0845 L897.404,74.0845 L897.404,72.4976 L899.2167,72.4976 L899.2167,66.5588 Z " fill="#000000"/><text fill="#D8BC00" font-family="Open Sans,Avenir,Nunito,Arial,Helvetica,SansSerif" font-size="12.5" font-style="italic" font-weight="bold" lengthAdjust="spacing" textLength="107.2917" x="922.9167" y="74.1211">VectorTileSource</text><line style="stroke:#5E5E5E;stroke-width:1.5625;" x1="818.75" x2="1103.125" y1="85.0911" y2="85.0911"/><line style="stroke:#5E5E5E;stroke-width:1.0416666666666667;" x1="818.75" x2="1103.125" y1="93.4245" y2="93.4245"/><ellipse cx="829.1667" cy="104.8828" fill="#84BE84" rx="3.125" ry="3.125" style="stroke:#038048;stroke-width:1.0416666666666667;"/><text fill="#D8BC00" font-family="Open Sans,Avenir,Nunito,Arial,Helvetica,SansSerif" font-size="11.4583" lengthAdjust="spacing" textLength="254.1667" x="840.625" y="111.794">void request(SlippyTile, boolean forceUpdate)</text><ellipse cx="829.1667" cy="148.5392" fill="#84BE84" rx="3.125" ry="3.125" style="stroke:#038048;stroke-width:1.0416666666666667;"/><text fill="#D8BC00" font-family="Open Sans,Avenir,Nunito,Arial,Helvetica,SansSerif" font-size="11.4583" lengthAdjust="spacing" textLength="138.5417" x="840.625" y="155.4504">VectorTile get(SlippyTile)</text><line style="stroke:#5E5E5E;stroke-width:1.0416666666666667;" x1="818.75" x2="938.5417" y1="131.3751" y2="131.3751"/><text fill="#D8BC00" font-family="Open Sans,Avenir,Nunito,Arial,Helvetica,SansSerif" font-size="11.4583" lengthAdjust="spacing" textLength="38.5417" x="941.6667" y="135.1847">(angle)</text><line style="stroke:#5E5E5E;stroke-width:1.0416666666666667;" x1="983.3333" x2="1103.125" y1="131.3751" y2="131.3751"/><rect codeLine="46" fill="#282828" height="87.5448" id="VectorTileDownloader.Version" rx="8.3333" ry="8.3333" style="stroke:#5E5E5E;stroke-width:1.0416666666666667;" width="232.2917" x="1140.625" y="65.682"/><rect fill="#1B1B1A" height="31.3883" rx="8.3333" ry="8.3333" style="stroke:#1B1B1A;stroke-width:1.0416666666666667;" width="232.2917" x="1140.625" y="65.682"/><rect fill="#1B1B1A" height="8.3333" style="stroke:#1B1B1A;stroke-width:1.0416666666666667;" width="232.2917" x="1140.625" y="88.737"/><rect codeLine="46" fill="none" height="87.5448" id="VectorTileDownloader.Version" rx="8.3333" ry="8.3333" style="stroke:#5E5E5E;stroke-width:1.0416666666666667;" width="232.2917" x="1140.625" y="65.682"/><ellipse cx="1155.2083" cy="81.3761" fill="#CF6300" rx="10.4167" ry="10.4167" style="stroke:#EF8300;stroke-width:1.0416666666666667;"/><path d="M1158.2642,86.0636 L1152.5879,86.0636 L1152.5879,76.9511 L1158.2642,76.9511 L1158.2642,78.538 L1154.3884,78.538 L1154.3884,80.5033 L1157.8979,80.5033 L1157.8979,82.0903 L1154.3884,82.0903 L1154.3884,84.4767 L1158.2642,84.4767 Z " fill="#000000"/><text fill="#D8BC00" font-family="Open Sans,Avenir,Nunito,Arial,Helvetica,SansSerif" font-size="12.5" font-weight="bold" lengthAdjust="spacing" textLength="194.7917" x="1171.875" y="86.1003">VectorTileDownloader.Version</text><line style="stroke:#5E5E5E;stroke-width:1.0416666666666667;" x1="1141.6667" x2="1371.875" y1="97.0703" y2="97.0703"/><text fill="#D8BC00" font-family="Open Sans,Avenir,Nunito,Arial,Helvetica,SansSerif" font-size="11.4583" lengthAdjust="spacing" textLength="14.5833" x="1150" y="115.4399">V3</text><text fill="#D8BC00" font-family="Open Sans,Avenir,Nunito,Arial,Helvetica,SansSerif" font-size="11.4583" lengthAdjust="spacing" textLength="14.5833" x="1150" y="135.1847">V4</text><line style="stroke:#5E5E5E;stroke-width:1.0416666666666667;" x1="1141.6667" x2="1371.875" y1="144.8934" y2="144.8934"/><path codeLine="11" d="M65.1042,154.359 C65.1042,204.2445 65.1042,283.7861 65.1042,322.7965 " fill="none" id="AbstractTile-backto-VectorTile" style="stroke:#545454;stroke-width:1.5625;"/><polygon fill="none" points="57.8125,154.307,65.1042,133.4736,72.3958,154.307,57.8125,154.307" style="stroke:#545454;stroke-width:1.5625;"/><path codeLine="16" d="M318.2292,154.3486 C318.2292,197.5674 318.2292,263.0465 318.2292,305.1403 " fill="none" id="AbstractTileDownloader-backto-VectorTileDownloader" style="stroke:#545454;stroke-width:1.5625;"/><polygon fill="none" points="310.9375,154.307,318.2292,133.4736,325.5208,154.307,310.9375,154.307" style="stroke:#545454;stroke-width:1.5625;"/><path codeLine="23" d="M697.3958,154.5778 C697.3958,175.4528 697.3958,201.484 697.3958,227.5465 " fill="none" id="AbstractTileRequest-backto-VectorTileRequest" style="stroke:#545454;stroke-width:1.5625;"/><polygon fill="none" points="690.1042,154.307,697.3958,133.4736,704.6875,154.307,690.1042,154.307" style="stroke:#545454;stroke-width:1.5625;"/></g></svg>
