<?xml version="1.0" encoding="UTF-8" standalone="no"?><svg xmlns="http://www.w3.org/2000/svg" xmlns:xlink="http://www.w3.org/1999/xlink" contentScriptType="application/ecmascript" contentStyleType="text/css" height="218.75px" preserveAspectRatio="none" style="width:1881px;height:218px;background:#333333;" version="1.1" viewBox="0 0 1881 218" width="1881.25px" zoomAndPan="magnify"><defs/><g><rect fill="#48494B" height="41.2028" rx="8.3333" ry="8.3333" style="stroke:#545454;stroke-width:1.0416666666666667;" width="613.5417" x="626.8229" y="2.0833"/><text fill="#C0C0C0" font-family="Open Sans,Avenir,Nunito,Arial,Helvetica,SansSerif" font-size="20.8333" lengthAdjust="spacing" textLength="590.625" x="638.2813" y="30.5583">com.telenav.mesakit.map.data.formats.pbf.internal.lexakai</text><rect codeLine="7" fill="#282828" height="48.055" id="UmlDiagramIdentifier" rx="8.3333" ry="8.3333" style="stroke:#5E5E5E;stroke-width:1.0416666666666667;" width="178.125" x="914.0625" y="53.7028"/><rect fill="#1B1B1A" height="31.3883" rx="8.3333" ry="8.3333" style="stroke:#1B1B1A;stroke-width:1.0416666666666667;" width="178.125" x="914.0625" y="53.7028"/><rect fill="#1B1B1A" height="8.3333" style="stroke:#1B1B1A;stroke-width:1.0416666666666667;" width="178.125" x="914.0625" y="76.7578"/><rect codeLine="7" fill="none" height="48.055" id="UmlDiagramIdentifier" rx="8.3333" ry="8.3333" style="stroke:#5E5E5E;stroke-width:1.0416666666666667;" width="178.125" x="914.0625" y="53.7028"/><ellipse cx="928.6458" cy="69.397" fill="#008400" rx="10.4167" ry="10.4167" style="stroke:#239C23;stroke-width:1.0416666666666667;"/><path d="M926.0498,66.5588 L926.0498,64.9719 L931.4758,64.9719 L931.4758,66.5588 L929.6631,66.5588 L929.6631,72.4976 L931.4758,72.4976 L931.4758,74.0845 L926.0498,74.0845 L926.0498,72.4976 L927.8625,72.4976 L927.8625,66.5588 Z " fill="#000000"/><text fill="#D8BC00" font-family="Open Sans,Avenir,Nunito,Arial,Helvetica,SansSerif" font-size="12.5" font-style="italic" font-weight="bold" lengthAdjust="spacing" textLength="140.625" x="945.3125" y="74.1211">UmlDiagramIdentifier</text><line style="stroke:#5E5E5E;stroke-width:1.0416666666666667;" x1="915.1042" x2="1091.1458" y1="85.0911" y2="85.0911"/><line style="stroke:#5E5E5E;stroke-width:1.0416666666666667;" x1="915.1042" x2="1091.1458" y1="93.4245" y2="93.4245"/><rect codeLine="10" fill="#282828" height="48.055" id="DiagramPbfModelCompression" rx="8.3333" ry="8.3333" style="stroke:#5E5E5E;stroke-width:1.0416666666666667;" width="239.5833" x="7.2917" y="164.1195"/><rect fill="#1B1B1A" height="31.3883" rx="8.3333" ry="8.3333" style="stroke:#1B1B1A;stroke-width:1.0416666666666667;" width="239.5833" x="7.2917" y="164.1195"/><rect fill="#1B1B1A" height="8.3333" style="stroke:#1B1B1A;stroke-width:1.0416666666666667;" width="239.5833" x="7.2917" y="187.1745"/><rect codeLine="10" fill="none" height="48.055" id="DiagramPbfModelCompression" rx="8.3333" ry="8.3333" style="stroke:#5E5E5E;stroke-width:1.0416666666666667;" width="239.5833" x="7.2917" y="164.1195"/><ellipse cx="21.875" cy="179.8136" fill="#0066CF" rx="10.4167" ry="10.4167" style="stroke:#0086EF;stroke-width:1.0416666666666667;"/><path d="M23.7854,184.2387 Q23.3582,184.4584 22.8882,184.5683 Q22.4182,184.6781 21.8994,184.6781 Q20.0562,184.6781 19.0857,183.4635 Q18.1152,182.2489 18.1152,179.954 Q18.1152,177.653 19.0857,176.4384 Q20.0562,175.2238 21.8994,175.2238 Q22.4182,175.2238 22.8943,175.3337 Q23.3704,175.4435 23.7854,175.6632 L23.7854,177.6652 Q23.3215,177.238 22.8851,177.0396 Q22.4487,176.8412 21.9849,176.8412 Q20.9961,176.8412 20.4926,177.6255 Q19.989,178.4098 19.989,179.954 Q19.989,181.4921 20.4926,182.2764 Q20.9961,183.0607 21.9849,183.0607 Q22.4487,183.0607 22.8851,182.8623 Q23.3215,182.664 23.7854,182.2367 Z " fill="#000000"/><text fill="#D8BC00" font-family="Open Sans,Avenir,Nunito,Arial,Helvetica,SansSerif" font-size="12.5" font-weight="bold" lengthAdjust="spacing" textLength="202.0833" x="38.5417" y="184.5378">DiagramPbfModelCompression</text><line style="stroke:#5E5E5E;stroke-width:1.0416666666666667;" x1="8.3333" x2="245.8333" y1="195.5078" y2="195.5078"/><line style="stroke:#5E5E5E;stroke-width:1.0416666666666667;" x1="8.3333" x2="245.8333" y1="203.8411" y2="203.8411"/><rect codeLine="15" fill="#282828" height="48.055" id="DiagramPbfModelEntities" rx="8.3333" ry="8.3333" style="stroke:#5E5E5E;stroke-width:1.0416666666666667;" width="202.0833" x="283.3333" y="164.1195"/><rect fill="#1B1B1A" height="31.3883" rx="8.3333" ry="8.3333" style="stroke:#1B1B1A;stroke-width:1.0416666666666667;" width="202.0833" x="283.3333" y="164.1195"/><rect fill="#1B1B1A" height="8.3333" style="stroke:#1B1B1A;stroke-width:1.0416666666666667;" width="202.0833" x="283.3333" y="187.1745"/><rect codeLine="15" fill="none" height="48.055" id="DiagramPbfModelEntities" rx="8.3333" ry="8.3333" style="stroke:#5E5E5E;stroke-width:1.0416666666666667;" width="202.0833" x="283.3333" y="164.1195"/><ellipse cx="297.9167" cy="179.8136" fill="#0066CF" rx="10.4167" ry="10.4167" style="stroke:#0086EF;stroke-width:1.0416666666666667;"/><path d="M299.8271,184.2387 Q299.3998,184.4584 298.9299,184.5683 Q298.4599,184.6781 297.9411,184.6781 Q296.0978,184.6781 295.1274,183.4635 Q294.1569,182.2489 294.1569,179.954 Q294.1569,177.653 295.1274,176.4384 Q296.0978,175.2238 297.9411,175.2238 Q298.4599,175.2238 298.936,175.3337 Q299.412,175.4435 299.8271,175.6632 L299.8271,177.6652 Q299.3632,177.238 298.9268,177.0396 Q298.4904,176.8412 298.0265,176.8412 Q297.0378,176.8412 296.5342,177.6255 Q296.0307,178.4098 296.0307,179.954 Q296.0307,181.4921 296.5342,182.2764 Q297.0378,183.0607 298.0265,183.0607 Q298.4904,183.0607 298.9268,182.8623 Q299.3632,182.664 299.8271,182.2367 Z " fill="#000000"/><text fill="#D8BC00" font-family="Open Sans,Avenir,Nunito,Arial,Helvetica,SansSerif" font-size="12.5" font-weight="bold" lengthAdjust="spacing" textLength="164.5833" x="314.5833" y="184.5378">DiagramPbfModelEntities</text><line style="stroke:#5E5E5E;stroke-width:1.0416666666666667;" x1="284.375" x2="484.375" y1="195.5078" y2="195.5078"/><line style="stroke:#5E5E5E;stroke-width:1.0416666666666667;" x1="284.375" x2="484.375" y1="203.8411" y2="203.8411"/><rect codeLine="20" fill="#282828" height="48.055" id="DiagramPbfModelIdentifiers" rx="8.3333" ry="8.3333" style="stroke:#5E5E5E;stroke-width:1.0416666666666667;" width="219.7917" x="522.3958" y="164.1195"/><rect fill="#1B1B1A" height="31.3883" rx="8.3333" ry="8.3333" style="stroke:#1B1B1A;stroke-width:1.0416666666666667;" width="219.7917" x="522.3958" y="164.1195"/><rect fill="#1B1B1A" height="8.3333" style="stroke:#1B1B1A;stroke-width:1.0416666666666667;" width="219.7917" x="522.3958" y="187.1745"/><rect codeLine="20" fill="none" height="48.055" id="DiagramPbfModelIdentifiers" rx="8.3333" ry="8.3333" style="stroke:#5E5E5E;stroke-width:1.0416666666666667;" width="219.7917" x="522.3958" y="164.1195"/><ellipse cx="536.9792" cy="179.8136" fill="#0066CF" rx="10.4167" ry="10.4167" style="stroke:#0086EF;stroke-width:1.0416666666666667;"/><path d="M538.8896,184.2387 Q538.4623,184.4584 537.9924,184.5683 Q537.5224,184.6781 537.0036,184.6781 Q535.1603,184.6781 534.1899,183.4635 Q533.2194,182.2489 533.2194,179.954 Q533.2194,177.653 534.1899,176.4384 Q535.1603,175.2238 537.0036,175.2238 Q537.5224,175.2238 537.9985,175.3337 Q538.4745,175.4435 538.8896,175.6632 L538.8896,177.6652 Q538.4257,177.238 537.9893,177.0396 Q537.5529,176.8412 537.089,176.8412 Q536.1003,176.8412 535.5967,177.6255 Q535.0932,178.4098 535.0932,179.954 Q535.0932,181.4921 535.5967,182.2764 Q536.1003,183.0607 537.089,183.0607 Q537.5529,183.0607 537.9893,182.8623 Q538.4257,182.664 538.8896,182.2367 Z " fill="#000000"/><text fill="#D8BC00" font-family="Open Sans,Avenir,Nunito,Arial,Helvetica,SansSerif" font-size="12.5" font-weight="bold" lengthAdjust="spacing" textLength="182.2917" x="553.6458" y="184.5378">DiagramPbfModelIdentifiers</text><line style="stroke:#5E5E5E;stroke-width:1.0416666666666667;" x1="523.4375" x2="741.1458" y1="195.5078" y2="195.5078"/><line style="stroke:#5E5E5E;stroke-width:1.0416666666666667;" x1="523.4375" x2="741.1458" y1="203.8411" y2="203.8411"/><rect codeLine="25" fill="#282828" height="48.055" id="DiagramPbfModelMetadata" rx="8.3333" ry="8.3333" style="stroke:#5E5E5E;stroke-width:1.0416666666666667;" width="212.5" x="779.1667" y="164.1195"/><rect fill="#1B1B1A" height="31.3883" rx="8.3333" ry="8.3333" style="stroke:#1B1B1A;stroke-width:1.0416666666666667;" width="212.5" x="779.1667" y="164.1195"/><rect fill="#1B1B1A" height="8.3333" style="stroke:#1B1B1A;stroke-width:1.0416666666666667;" width="212.5" x="779.1667" y="187.1745"/><rect codeLine="25" fill="none" height="48.055" id="DiagramPbfModelMetadata" rx="8.3333" ry="8.3333" style="stroke:#5E5E5E;stroke-width:1.0416666666666667;" width="212.5" x="779.1667" y="164.1195"/><ellipse cx="793.75" cy="179.8136" fill="#0066CF" rx="10.4167" ry="10.4167" style="stroke:#0086EF;stroke-width:1.0416666666666667;"/><path d="M795.6604,184.2387 Q795.2332,184.4584 794.7632,184.5683 Q794.2932,184.6781 793.7744,184.6781 Q791.9312,184.6781 790.9607,183.4635 Q789.9902,182.2489 789.9902,179.954 Q789.9902,177.653 790.9607,176.4384 Q791.9312,175.2238 793.7744,175.2238 Q794.2932,175.2238 794.7693,175.3337 Q795.2454,175.4435 795.6604,175.6632 L795.6604,177.6652 Q795.1965,177.238 794.7601,177.0396 Q794.3237,176.8412 793.8599,176.8412 Q792.8711,176.8412 792.3676,177.6255 Q791.864,178.4098 791.864,179.954 Q791.864,181.4921 792.3676,182.2764 Q792.8711,183.0607 793.8599,183.0607 Q794.3237,183.0607 794.7601,182.8623 Q795.1965,182.664 795.6604,182.2367 Z " fill="#000000"/><text fill="#D8BC00" font-family="Open Sans,Avenir,Nunito,Arial,Helvetica,SansSerif" font-size="12.5" font-weight="bold" lengthAdjust="spacing" textLength="175" x="810.4167" y="184.5378">DiagramPbfModelMetadata</text><line style="stroke:#5E5E5E;stroke-width:1.0416666666666667;" x1="780.2083" x2="990.625" y1="195.5078" y2="195.5078"/><line style="stroke:#5E5E5E;stroke-width:1.0416666666666667;" x1="780.2083" x2="990.625" y1="203.8411" y2="203.8411"/><rect codeLine="30" fill="#282828" height="48.055" id="DiagramPbfModelTags" rx="8.3333" ry="8.3333" style="stroke:#5E5E5E;stroke-width:1.0416666666666667;" width="184.375" x="1028.6458" y="164.1195"/><rect fill="#1B1B1A" height="31.3883" rx="8.3333" ry="8.3333" style="stroke:#1B1B1A;stroke-width:1.0416666666666667;" width="184.375" x="1028.6458" y="164.1195"/><rect fill="#1B1B1A" height="8.3333" style="stroke:#1B1B1A;stroke-width:1.0416666666666667;" width="184.375" x="1028.6458" y="187.1745"/><rect codeLine="30" fill="none" height="48.055" id="DiagramPbfModelTags" rx="8.3333" ry="8.3333" style="stroke:#5E5E5E;stroke-width:1.0416666666666667;" width="184.375" x="1028.6458" y="164.1195"/><ellipse cx="1043.2292" cy="179.8136" fill="#0066CF" rx="10.4167" ry="10.4167" style="stroke:#0086EF;stroke-width:1.0416666666666667;"/><path d="M1045.1396,184.2387 Q1044.7123,184.4584 1044.2424,184.5683 Q1043.7724,184.6781 1043.2536,184.6781 Q1041.4103,184.6781 1040.4399,183.4635 Q1039.4694,182.2489 1039.4694,179.954 Q1039.4694,177.653 1040.4399,176.4384 Q1041.4103,175.2238 1043.2536,175.2238 Q1043.7724,175.2238 1044.2485,175.3337 Q1044.7245,175.4435 1045.1396,175.6632 L1045.1396,177.6652 Q1044.6757,177.238 1044.2393,177.0396 Q1043.8029,176.8412 1043.339,176.8412 Q1042.3503,176.8412 1041.8467,177.6255 Q1041.3432,178.4098 1041.3432,179.954 Q1041.3432,181.4921 1041.8467,182.2764 Q1042.3503,183.0607 1043.339,183.0607 Q1043.8029,183.0607 1044.2393,182.8623 Q1044.6757,182.664 1045.1396,182.2367 Z " fill="#000000"/><text fill="#D8BC00" font-family="Open Sans,Avenir,Nunito,Arial,Helvetica,SansSerif" font-size="12.5" font-weight="bold" lengthAdjust="spacing" textLength="146.875" x="1059.8958" y="184.5378">DiagramPbfModelTags</text><line style="stroke:#5E5E5E;stroke-width:1.0416666666666667;" x1="1029.6875" x2="1211.9792" y1="195.5078" y2="195.5078"/><line style="stroke:#5E5E5E;stroke-width:1.0416666666666667;" x1="1029.6875" x2="1211.9792" y1="203.8411" y2="203.8411"/><rect codeLine="35" fill="#282828" height="48.055" id="DiagramPbfOsm" rx="8.3333" ry="8.3333" style="stroke:#5E5E5E;stroke-width:1.0416666666666667;" width="143.75" x="1250" y="164.1195"/><rect fill="#1B1B1A" height="31.3883" rx="8.3333" ry="8.3333" style="stroke:#1B1B1A;stroke-width:1.0416666666666667;" width="143.75" x="1250" y="164.1195"/><rect fill="#1B1B1A" height="8.3333" style="stroke:#1B1B1A;stroke-width:1.0416666666666667;" width="143.75" x="1250" y="187.1745"/><rect codeLine="35" fill="none" height="48.055" id="DiagramPbfOsm" rx="8.3333" ry="8.3333" style="stroke:#5E5E5E;stroke-width:1.0416666666666667;" width="143.75" x="1250" y="164.1195"/><ellipse cx="1264.5833" cy="179.8136" fill="#0066CF" rx="10.4167" ry="10.4167" style="stroke:#0086EF;stroke-width:1.0416666666666667;"/><path d="M1266.4937,184.2387 Q1266.0665,184.4584 1265.5965,184.5683 Q1265.1265,184.6781 1264.6077,184.6781 Q1262.7645,184.6781 1261.794,183.4635 Q1260.8236,182.2489 1260.8236,179.954 Q1260.8236,177.653 1261.794,176.4384 Q1262.7645,175.2238 1264.6077,175.2238 Q1265.1265,175.2238 1265.6026,175.3337 Q1266.0787,175.4435 1266.4937,175.6632 L1266.4937,177.6652 Q1266.0299,177.238 1265.5935,177.0396 Q1265.1571,176.8412 1264.6932,176.8412 Q1263.7044,176.8412 1263.2009,177.6255 Q1262.6973,178.4098 1262.6973,179.954 Q1262.6973,181.4921 1263.2009,182.2764 Q1263.7044,183.0607 1264.6932,183.0607 Q1265.1571,183.0607 1265.5935,182.8623 Q1266.0299,182.664 1266.4937,182.2367 Z " fill="#000000"/><text fill="#D8BC00" font-family="Open Sans,Avenir,Nunito,Arial,Helvetica,SansSerif" font-size="12.5" font-weight="bold" lengthAdjust="spacing" textLength="106.25" x="1281.25" y="184.5378">DiagramPbfOsm</text><line style="stroke:#5E5E5E;stroke-width:1.0416666666666667;" x1="1251.0417" x2="1392.7083" y1="195.5078" y2="195.5078"/><line style="stroke:#5E5E5E;stroke-width:1.0416666666666667;" x1="1251.0417" x2="1392.7083" y1="203.8411" y2="203.8411"/><rect codeLine="40" fill="#282828" height="48.055" id="DiagramPbfProcessing" rx="8.3333" ry="8.3333" style="stroke:#5E5E5E;stroke-width:1.0416666666666667;" width="183.3333" x="1430.2083" y="164.1195"/><rect fill="#1B1B1A" height="31.3883" rx="8.3333" ry="8.3333" style="stroke:#1B1B1A;stroke-width:1.0416666666666667;" width="183.3333" x="1430.2083" y="164.1195"/><rect fill="#1B1B1A" height="8.3333" style="stroke:#1B1B1A;stroke-width:1.0416666666666667;" width="183.3333" x="1430.2083" y="187.1745"/><rect codeLine="40" fill="none" height="48.055" id="DiagramPbfProcessing" rx="8.3333" ry="8.3333" style="stroke:#5E5E5E;stroke-width:1.0416666666666667;" width="183.3333" x="1430.2083" y="164.1195"/><ellipse cx="1444.7917" cy="179.8136" fill="#0066CF" rx="10.4167" ry="10.4167" style="stroke:#0086EF;stroke-width:1.0416666666666667;"/><path d="M1446.7021,184.2387 Q1446.2748,184.4584 1445.8049,184.5683 Q1445.3349,184.6781 1444.8161,184.6781 Q1442.9728,184.6781 1442.0024,183.4635 Q1441.0319,182.2489 1441.0319,179.954 Q1441.0319,177.653 1442.0024,176.4384 Q1442.9728,175.2238 1444.8161,175.2238 Q1445.3349,175.2238 1445.811,175.3337 Q1446.287,175.4435 1446.7021,175.6632 L1446.7021,177.6652 Q1446.2382,177.238 1445.8018,177.0396 Q1445.3654,176.8412 1444.9015,176.8412 Q1443.9128,176.8412 1443.4092,177.6255 Q1442.9057,178.4098 1442.9057,179.954 Q1442.9057,181.4921 1443.4092,182.2764 Q1443.9128,183.0607 1444.9015,183.0607 Q1445.3654,183.0607 1445.8018,182.8623 Q1446.2382,182.664 1446.7021,182.2367 Z " fill="#000000"/><text fill="#D8BC00" font-family="Open Sans,Avenir,Nunito,Arial,Helvetica,SansSerif" font-size="12.5" font-weight="bold" lengthAdjust="spacing" textLength="145.8333" x="1461.4583" y="184.5378">DiagramPbfProcessing</text><line style="stroke:#5E5E5E;stroke-width:1.0416666666666667;" x1="1431.25" x2="1612.5" y1="195.5078" y2="195.5078"/><line style="stroke:#5E5E5E;stroke-width:1.0416666666666667;" x1="1431.25" x2="1612.5" y1="203.8411" y2="203.8411"/><rect codeLine="45" fill="#282828" height="48.055" id="DiagramPbfProcessingFilters" rx="8.3333" ry="8.3333" style="stroke:#5E5E5E;stroke-width:1.0416666666666667;" width="223.9583" x="1650.5208" y="164.1195"/><rect fill="#1B1B1A" height="31.3883" rx="8.3333" ry="8.3333" style="stroke:#1B1B1A;stroke-width:1.0416666666666667;" width="223.9583" x="1650.5208" y="164.1195"/><rect fill="#1B1B1A" height="8.3333" style="stroke:#1B1B1A;stroke-width:1.0416666666666667;" width="223.9583" x="1650.5208" y="187.1745"/><rect codeLine="45" fill="none" height="48.055" id="DiagramPbfProcessingFilters" rx="8.3333" ry="8.3333" style="stroke:#5E5E5E;stroke-width:1.0416666666666667;" width="223.9583" x="1650.5208" y="164.1195"/><ellipse cx="1665.1042" cy="179.8136" fill="#0066CF" rx="10.4167" ry="10.4167" style="stroke:#0086EF;stroke-width:1.0416666666666667;"/><path d="M1667.0146,184.2387 Q1666.5873,184.4584 1666.1174,184.5683 Q1665.6474,184.6781 1665.1286,184.6781 Q1663.2853,184.6781 1662.3149,183.4635 Q1661.3444,182.2489 1661.3444,179.954 Q1661.3444,177.653 1662.3149,176.4384 Q1663.2853,175.2238 1665.1286,175.2238 Q1665.6474,175.2238 1666.1235,175.3337 Q1666.5995,175.4435 1667.0146,175.6632 L1667.0146,177.6652 Q1666.5507,177.238 1666.1143,177.0396 Q1665.6779,176.8412 1665.214,176.8412 Q1664.2253,176.8412 1663.7217,177.6255 Q1663.2182,178.4098 1663.2182,179.954 Q1663.2182,181.4921 1663.7217,182.2764 Q1664.2253,183.0607 1665.214,183.0607 Q1665.6779,183.0607 1666.1143,182.8623 Q1666.5507,182.664 1667.0146,182.2367 Z " fill="#000000"/><text fill="#D8BC00" font-family="Open Sans,Avenir,Nunito,Arial,Helvetica,SansSerif" font-size="12.5" font-weight="bold" lengthAdjust="spacing" textLength="186.4583" x="1681.7708" y="184.5378">DiagramPbfProcessingFilters</text><line style="stroke:#5E5E5E;stroke-width:1.0416666666666667;" x1="1651.5625" x2="1873.4375" y1="195.5078" y2="195.5078"/><line style="stroke:#5E5E5E;stroke-width:1.0416666666666667;" x1="1651.5625" x2="1873.4375" y1="203.8411" y2="203.8411"/><path codeLine="9" d="M893.1042,89.6924 C748.6146,104.5257 487.125,132.7236 264.5833,164.1195 C258.8333,164.932 252.9479,165.7965 247.0104,166.682 " fill="none" id="UmlDiagramIdentifier-backto-DiagramPbfModelCompression" style="stroke:#545454;stroke-width:1.5625;"/><polygon fill="none" points="892.5208,82.4215,913.9792,87.557,894,96.932,892.5208,82.4215" style="stroke:#545454;stroke-width:1.5625;"/><path codeLine="14" d="M893.0417,96.9111 C791.8646,113.807 637.7813,139.9007 504.1667,164.1195 C498.125,165.2132 491.9167,166.359 485.6458,167.5153 " fill="none" id="UmlDiagramIdentifier-backto-DiagramPbfModelEntities" style="stroke:#545454;stroke-width:1.5625;"/><polygon fill="none" points="892.0521,89.6924,913.8021,93.4528,894.4479,104.0778,892.0521,89.6924" style="stroke:#545454;stroke-width:1.5625;"/><path codeLine="19" d="M904.1875,107.609 C843.6354,125.2965 767.2083,147.6195 710.8229,164.0986 " fill="none" id="UmlDiagramIdentifier-backto-DiagramPbfModelIdentifiers" style="stroke:#545454;stroke-width:1.5625;"/><polygon fill="none" points="902.4375,100.5153,924.4792,101.682,906.5313,114.5153,902.4375,100.5153" style="stroke:#545454;stroke-width:1.5625;"/><path codeLine="24" d="M962.75,115.859 C945.3542,131.8799 925.5521,150.0986 910.3438,164.0986 " fill="none" id="UmlDiagramIdentifier-backto-DiagramPbfModelMetadata" style="stroke:#545454;stroke-width:1.5625;"/><polygon fill="none" points="957.8958,110.4215,978.1667,101.682,967.7708,121.1507,957.8958,110.4215" style="stroke:#545454;stroke-width:1.5625;"/><path codeLine="29" d="M1043.5,115.859 C1060.8958,131.8799 1080.6979,150.0986 1095.9063,164.0986 " fill="none" id="UmlDiagramIdentifier-backto-DiagramPbfModelTags" style="stroke:#545454;stroke-width:1.5625;"/><polygon fill="none" points="1038.4792,121.1507,1028.0833,101.682,1048.3542,110.4215,1038.4792,121.1507" style="stroke:#545454;stroke-width:1.5625;"/><path codeLine="34" d="M1090.5521,108.4215 C1142.2188,125.9736 1206.6458,147.8695 1254.375,164.0986 " fill="none" id="UmlDiagramIdentifier-backto-DiagramPbfOsm" style="stroke:#545454;stroke-width:1.5625;"/><polygon fill="none" points="1088.1042,115.2861,1070.7188,101.682,1092.7917,101.4736,1088.1042,115.2861" style="stroke:#545454;stroke-width:1.5625;"/><path codeLine="39" d="M1113.0521,101.609 C1195.4688,118.7965 1311.0625,142.9111 1412.5,164.1195 C1418.1979,165.307 1424.0625,166.5361 1429.9792,167.7757 " fill="none" id="UmlDiagramIdentifier-backto-DiagramPbfProcessing" style="stroke:#545454;stroke-width:1.5625;"/><polygon fill="none" points="1111.4792,108.734,1092.5729,97.3486,1114.4583,94.4528,1111.4792,108.734" style="stroke:#545454;stroke-width:1.5625;"/><path codeLine="44" d="M1113.3125,92.3278 C1239.0625,108.1924 1450.8229,135.8382 1632.2917,164.1195 C1638.1875,165.0361 1644.2292,166.0049 1650.3229,167.0049 " fill="none" id="UmlDiagramIdentifier-backto-DiagramPbfProcessingFilters" style="stroke:#545454;stroke-width:1.5625;"/><polygon fill="none" points="1112.125,99.5361,1092.3646,89.7028,1113.9479,85.057,1112.125,99.5361" style="stroke:#545454;stroke-width:1.5625;"/></g></svg>
