<?xml version="1.0" encoding="UTF-8" standalone="no"?><svg xmlns="http://www.w3.org/2000/svg" xmlns:xlink="http://www.w3.org/1999/xlink" contentScriptType="application/ecmascript" contentStyleType="text/css" height="808.3333px" preserveAspectRatio="none" style="width:1789px;height:808px;background:#333333;" version="1.1" viewBox="0 0 1789 808" width="1789.5833px" zoomAndPan="magnify"><defs/><g><rect fill="#48494B" height="41.2028" rx="8.3333" ry="8.3333" style="stroke:#545454;stroke-width:1.0416666666666667;" width="196.875" x="789.3229" y="2.0833"/><text fill="#C0C0C0" font-family="Open Sans,Avenir,Nunito,Arial,Helvetica,SansSerif" font-size="20.8333" lengthAdjust="spacing" textLength="173.9583" x="800.7813" y="30.5583">PBF Compression</text><rect codeLine="51" fill="#282828" height="131.2012" id="PbfTagCodec" rx="8.3333" ry="8.3333" style="stroke:#5E5E5E;stroke-width:1.0416666666666667;" width="283.3333" x="43.2292" y="256.8278"/><rect fill="#1B1B1A" height="31.3883" rx="8.3333" ry="8.3333" style="stroke:#1B1B1A;stroke-width:1.0416666666666667;" width="283.3333" x="43.2292" y="256.8278"/><rect fill="#1B1B1A" height="8.3333" style="stroke:#1B1B1A;stroke-width:1.0416666666666667;" width="283.3333" x="43.2292" y="279.8828"/><rect codeLine="51" fill="none" height="131.2012" id="PbfTagCodec" rx="8.3333" ry="8.3333" style="stroke:#5E5E5E;stroke-width:1.0416666666666667;" width="283.3333" x="43.2292" y="256.8278"/><ellipse cx="135.4167" cy="272.522" fill="#008400" rx="10.4167" ry="10.4167" style="stroke:#239C23;stroke-width:1.0416666666666667;"/><path d="M132.8206,269.6838 L132.8206,268.0969 L138.2467,268.0969 L138.2467,269.6838 L136.4339,269.6838 L136.4339,275.6226 L138.2467,275.6226 L138.2467,277.2095 L132.8206,277.2095 L132.8206,275.6226 L134.6334,275.6226 L134.6334,269.6838 Z " fill="#000000"/><text fill="#D8BC00" font-family="Open Sans,Avenir,Nunito,Arial,Helvetica,SansSerif" font-size="12.5" font-style="italic" font-weight="bold" lengthAdjust="spacing" textLength="84.375" x="158.3333" y="277.2461">PbfTagCodec</text><line style="stroke:#5E5E5E;stroke-width:1.5625;" x1="44.2708" x2="325.5208" y1="288.2161" y2="288.2161"/><line style="stroke:#5E5E5E;stroke-width:1.0416666666666667;" x1="44.2708" x2="325.5208" y1="296.5495" y2="296.5495"/><ellipse cx="54.6875" cy="308.0078" fill="#84BE84" rx="3.125" ry="3.125" style="stroke:#038048;stroke-width:1.0416666666666667;"/><text fill="#D8BC00" font-family="Open Sans,Avenir,Nunito,Arial,Helvetica,SansSerif" font-size="11.4583" lengthAdjust="spacing" textLength="251.0417" x="66.1458" y="314.919">void encode(ByteList output, PbfTagList tags)</text><ellipse cx="54.6875" cy="351.6642" fill="#84BE84" rx="3.125" ry="3.125" style="stroke:#038048;stroke-width:1.0416666666666667;"/><text fill="#D8BC00" font-family="Open Sans,Avenir,Nunito,Arial,Helvetica,SansSerif" font-size="11.4583" lengthAdjust="spacing" textLength="185.4167" x="66.1458" y="358.5754">PbfTagList decode(ByteList input)</text><ellipse cx="54.6875" cy="371.4091" fill="#84BE84" rx="3.125" ry="3.125" style="stroke:#038048;stroke-width:1.0416666666666667;"/><text fill="#D8BC00" font-family="Open Sans,Avenir,Nunito,Arial,Helvetica,SansSerif" font-size="11.4583" lengthAdjust="spacing" textLength="211.4583" x="66.1458" y="378.3203">PbfTagMap decodeMap(ByteList input)</text><line style="stroke:#5E5E5E;stroke-width:1.0416666666666667;" x1="44.2708" x2="150.5208" y1="334.5001" y2="334.5001"/><text fill="#D8BC00" font-family="Open Sans,Avenir,Nunito,Arial,Helvetica,SansSerif" font-size="11.4583" lengthAdjust="spacing" textLength="62.5" x="153.6458" y="338.3097">(collection)</text><line style="stroke:#5E5E5E;stroke-width:1.0416666666666667;" x1="219.2708" x2="325.5208" y1="334.5001" y2="334.5001"/><rect codeLine="11" fill="#282828" height="111.4563" id="PbfCharacterCodecBuilder" rx="8.3333" ry="8.3333" style="stroke:#5E5E5E;stroke-width:1.0416666666666667;" width="210.4167" x="507.8125" y="266.7236"/><rect fill="#1B1B1A" height="31.3883" rx="8.3333" ry="8.3333" style="stroke:#1B1B1A;stroke-width:1.0416666666666667;" width="210.4167" x="507.8125" y="266.7236"/><rect fill="#1B1B1A" height="8.3333" style="stroke:#1B1B1A;stroke-width:1.0416666666666667;" width="210.4167" x="507.8125" y="289.7786"/><rect codeLine="11" fill="none" height="111.4563" id="PbfCharacterCodecBuilder" rx="8.3333" ry="8.3333" style="stroke:#5E5E5E;stroke-width:1.0416666666666667;" width="210.4167" x="507.8125" y="266.7236"/><ellipse cx="524.7396" cy="282.4178" fill="#0066CF" rx="10.4167" ry="10.4167" style="stroke:#0086EF;stroke-width:1.0416666666666667;"/><path d="M526.65,286.8429 Q526.2227,287.0626 525.7528,287.1724 Q525.2828,287.2823 524.764,287.2823 Q522.9207,287.2823 521.9503,286.0677 Q520.9798,284.8531 520.9798,282.5582 Q520.9798,280.2572 521.9503,279.0426 Q522.9207,277.828 524.764,277.828 Q525.2828,277.828 525.7589,277.9378 Q526.2349,278.0477 526.65,278.2674 L526.65,280.2694 Q526.1861,279.8421 525.7497,279.6438 Q525.3133,279.4454 524.8494,279.4454 Q523.8607,279.4454 523.3571,280.2297 Q522.8536,281.014 522.8536,282.5582 Q522.8536,284.0963 523.3571,284.8806 Q523.8607,285.6649 524.8494,285.6649 Q525.3133,285.6649 525.7497,285.4665 Q526.1861,285.2681 526.65,284.8409 Z " fill="#000000"/><text fill="#D8BC00" font-family="Open Sans,Avenir,Nunito,Arial,Helvetica,SansSerif" font-size="12.5" font-weight="bold" lengthAdjust="spacing" textLength="167.7083" x="541.9271" y="287.1419">PbfCharacterCodecBuilder</text><line style="stroke:#5E5E5E;stroke-width:1.5625;" x1="508.8542" x2="717.1875" y1="298.112" y2="298.112"/><line style="stroke:#5E5E5E;stroke-width:1.0416666666666667;" x1="508.8542" x2="717.1875" y1="306.4453" y2="306.4453"/><ellipse cx="519.2708" cy="317.9036" fill="#84BE84" rx="3.125" ry="3.125" style="stroke:#038048;stroke-width:1.0416666666666667;"/><text fill="#D8BC00" font-family="Open Sans,Avenir,Nunito,Arial,Helvetica,SansSerif" font-size="11.4583" lengthAdjust="spacing" textLength="147.9167" x="530.7292" y="324.8149">void sample(PbfEntity&lt;?&gt;)</text><ellipse cx="519.2708" cy="361.5601" fill="#84BE84" rx="3.125" ry="3.125" style="stroke:#038048;stroke-width:1.0416666666666667;"/><text fill="#D8BC00" font-family="Open Sans,Avenir,Nunito,Arial,Helvetica,SansSerif" font-size="11.4583" lengthAdjust="spacing" textLength="178.125" x="530.7292" y="368.4713">HuffmanCharacterCodec build()</text><line style="stroke:#5E5E5E;stroke-width:1.0416666666666667;" x1="508.8542" x2="581.25" y1="344.396" y2="344.396"/><text fill="#D8BC00" font-family="Open Sans,Avenir,Nunito,Arial,Helvetica,SansSerif" font-size="11.4583" lengthAdjust="spacing" textLength="57.2917" x="584.375" y="348.2056">(primitive)</text><line style="stroke:#5E5E5E;stroke-width:1.0416666666666667;" x1="644.7917" x2="717.1875" y1="344.396" y2="344.396"/><rect fill="#282828" height="48.055" id="HuffmanCharacterCodec" rx="8.3333" ry="8.3333" style="stroke:#5E5E5E;stroke-width:1.0416666666666667;" width="194.7917" x="616.1458" y="725.5778"/><rect fill="#1B1B1A" height="31.3883" rx="8.3333" ry="8.3333" style="stroke:#1B1B1A;stroke-width:1.0416666666666667;" width="194.7917" x="616.1458" y="725.5778"/><rect fill="#1B1B1A" height="8.3333" style="stroke:#1B1B1A;stroke-width:1.0416666666666667;" width="194.7917" x="616.1458" y="748.6328"/><rect fill="none" height="48.055" id="HuffmanCharacterCodec" rx="8.3333" ry="8.3333" style="stroke:#5E5E5E;stroke-width:1.0416666666666667;" width="194.7917" x="616.1458" y="725.5778"/><ellipse cx="630.7292" cy="741.272" fill="#0066CF" rx="10.4167" ry="10.4167" style="stroke:#0086EF;stroke-width:1.0416666666666667;"/><path d="M632.6396,745.697 Q632.2123,745.9167 631.7424,746.0266 Q631.2724,746.1365 630.7536,746.1365 Q628.9103,746.1365 627.9399,744.9219 Q626.9694,743.7073 626.9694,741.4124 Q626.9694,739.1113 627.9399,737.8967 Q628.9103,736.6821 630.7536,736.6821 Q631.2724,736.6821 631.7485,736.792 Q632.2245,736.9019 632.6396,737.1216 L632.6396,739.1235 Q632.1757,738.6963 631.7393,738.4979 Q631.3029,738.2996 630.839,738.2996 Q629.8503,738.2996 629.3467,739.0839 Q628.8432,739.8682 628.8432,741.4124 Q628.8432,742.9504 629.3467,743.7347 Q629.8503,744.519 630.839,744.519 Q631.3029,744.519 631.7393,744.3207 Q632.1757,744.1223 632.6396,743.6951 Z " fill="#000000"/><text fill="#D8BC00" font-family="Open Sans,Avenir,Nunito,Arial,Helvetica,SansSerif" font-size="12.5" font-weight="bold" lengthAdjust="spacing" textLength="157.2917" x="647.3958" y="745.9961">HuffmanCharacterCodec</text><line style="stroke:#5E5E5E;stroke-width:1.0416666666666667;" x1="617.1875" x2="809.8958" y1="756.9661" y2="756.9661"/><line style="stroke:#5E5E5E;stroke-width:1.0416666666666667;" x1="617.1875" x2="809.8958" y1="765.2995" y2="765.2995"/><rect fill="#282828" height="48.055" id="CharacterFrequencies" rx="8.3333" ry="8.3333" style="stroke:#5E5E5E;stroke-width:1.0416666666666667;" width="176.0417" x="897.3958" y="725.5778"/><rect fill="#1B1B1A" height="31.3883" rx="8.3333" ry="8.3333" style="stroke:#1B1B1A;stroke-width:1.0416666666666667;" width="176.0417" x="897.3958" y="725.5778"/><rect fill="#1B1B1A" height="8.3333" style="stroke:#1B1B1A;stroke-width:1.0416666666666667;" width="176.0417" x="897.3958" y="748.6328"/><rect fill="none" height="48.055" id="CharacterFrequencies" rx="8.3333" ry="8.3333" style="stroke:#5E5E5E;stroke-width:1.0416666666666667;" width="176.0417" x="897.3958" y="725.5778"/><ellipse cx="911.9792" cy="741.272" fill="#0066CF" rx="10.4167" ry="10.4167" style="stroke:#0086EF;stroke-width:1.0416666666666667;"/><path d="M913.8896,745.697 Q913.4623,745.9167 912.9924,746.0266 Q912.5224,746.1365 912.0036,746.1365 Q910.1603,746.1365 909.1899,744.9219 Q908.2194,743.7073 908.2194,741.4124 Q908.2194,739.1113 909.1899,737.8967 Q910.1603,736.6821 912.0036,736.6821 Q912.5224,736.6821 912.9985,736.792 Q913.4745,736.9019 913.8896,737.1216 L913.8896,739.1235 Q913.4257,738.6963 912.9893,738.4979 Q912.5529,738.2996 912.089,738.2996 Q911.1003,738.2996 910.5967,739.0839 Q910.0932,739.8682 910.0932,741.4124 Q910.0932,742.9504 910.5967,743.7347 Q911.1003,744.519 912.089,744.519 Q912.5529,744.519 912.9893,744.3207 Q913.4257,744.1223 913.8896,743.6951 Z " fill="#000000"/><text fill="#D8BC00" font-family="Open Sans,Avenir,Nunito,Arial,Helvetica,SansSerif" font-size="12.5" font-weight="bold" lengthAdjust="spacing" textLength="138.5417" x="928.6458" y="745.9961">CharacterFrequencies</text><line style="stroke:#5E5E5E;stroke-width:1.0416666666666667;" x1="898.4375" x2="1072.3958" y1="756.9661" y2="756.9661"/><line style="stroke:#5E5E5E;stroke-width:1.0416666666666667;" x1="898.4375" x2="1072.3958" y1="765.2995" y2="765.2995"/><rect codeLine="21" fill="#282828" height="336.9832" id="PbfDefaultCodecs" rx="8.3333" ry="8.3333" style="stroke:#5E5E5E;stroke-width:1.0416666666666667;" width="341.6667" x="779.6875" y="154.7445"/><rect fill="#1B1B1A" height="31.3883" rx="8.3333" ry="8.3333" style="stroke:#1B1B1A;stroke-width:1.0416666666666667;" width="341.6667" x="779.6875" y="154.7445"/><rect fill="#1B1B1A" height="8.3333" style="stroke:#1B1B1A;stroke-width:1.0416666666666667;" width="341.6667" x="779.6875" y="177.7995"/><rect codeLine="21" fill="none" height="336.9832" id="PbfDefaultCodecs" rx="8.3333" ry="8.3333" style="stroke:#5E5E5E;stroke-width:1.0416666666666667;" width="341.6667" x="779.6875" y="154.7445"/><ellipse cx="885.4167" cy="170.4386" fill="#0066CF" rx="10.4167" ry="10.4167" style="stroke:#0086EF;stroke-width:1.0416666666666667;"/><path d="M887.3271,174.8637 Q886.8998,175.0834 886.4299,175.1933 Q885.9599,175.3031 885.4411,175.3031 Q883.5978,175.3031 882.6274,174.0885 Q881.6569,172.8739 881.6569,170.579 Q881.6569,168.278 882.6274,167.0634 Q883.5978,165.8488 885.4411,165.8488 Q885.9599,165.8488 886.436,165.9587 Q886.912,166.0685 887.3271,166.2882 L887.3271,168.2902 Q886.8632,167.863 886.4268,167.6646 Q885.9904,167.4662 885.5265,167.4662 Q884.5378,167.4662 884.0342,168.2505 Q883.5307,169.0348 883.5307,170.579 Q883.5307,172.1171 884.0342,172.9014 Q884.5378,173.6857 885.5265,173.6857 Q885.9904,173.6857 886.4268,173.4873 Q886.8632,173.289 887.3271,172.8617 Z " fill="#000000"/><text fill="#D8BC00" font-family="Open Sans,Avenir,Nunito,Arial,Helvetica,SansSerif" font-size="12.5" font-weight="bold" lengthAdjust="spacing" textLength="115.625" x="908.3333" y="175.1628">PbfDefaultCodecs</text><line style="stroke:#5E5E5E;stroke-width:1.5625;" x1="780.7292" x2="1120.3125" y1="186.1328" y2="186.1328"/><polygon fill="#FFFF44" points="791.1458,216.2944,795.3125,220.461,791.1458,224.6277,786.9792,220.461" style="stroke:#B38D22;stroke-width:1.0416666666666667;"/><text fill="#D8BC00" font-family="Open Sans,Avenir,Nunito,Arial,Helvetica,SansSerif" font-size="11.4583" lengthAdjust="spacing" textLength="107.2917" x="802.6042" y="228.4139">PbfDefaultCodecs()</text><line style="stroke:#5E5E5E;stroke-width:1.0416666666666667;" x1="780.7292" x2="906.7708" y1="204.3386" y2="204.3386"/><text fill="#D8BC00" font-family="Open Sans,Avenir,Nunito,Arial,Helvetica,SansSerif" font-size="11.4583" lengthAdjust="spacing" textLength="81.25" x="909.8958" y="208.1482">(constructors)</text><line style="stroke:#5E5E5E;stroke-width:1.0416666666666667;" x1="994.2708" x2="1120.3125" y1="204.3386" y2="204.3386"/><line style="stroke:#5E5E5E;stroke-width:1.0416666666666667;" x1="780.7292" x2="1120.3125" y1="238.1226" y2="238.1226"/><ellipse cx="791.1458" cy="249.5809" fill="#84BE84" rx="3.125" ry="3.125" style="stroke:#038048;stroke-width:1.0416666666666667;"/><text fill="#D8BC00" font-family="Open Sans,Avenir,Nunito,Arial,Helvetica,SansSerif" font-size="11.4583" lengthAdjust="spacing" textLength="265.625" x="802.6042" y="256.4921">HuffmanStringCodec defaultValueStringCodec()</text><ellipse cx="791.1458" cy="269.3258" fill="#84BE84" rx="3.125" ry="3.125" style="stroke:#038048;stroke-width:1.0416666666666667;"/><text fill="#D8BC00" font-family="Open Sans,Avenir,Nunito,Arial,Helvetica,SansSerif" font-size="11.4583" lengthAdjust="spacing" textLength="128.125" x="802.6042" y="276.237">PbfDefaultCodecs get()</text><ellipse cx="791.1458" cy="312.9822" fill="#84BE84" rx="3.125" ry="3.125" style="stroke:#038048;stroke-width:1.0416666666666667;"/><text fill="#D8BC00" font-family="Open Sans,Avenir,Nunito,Arial,Helvetica,SansSerif" font-size="11.4583" lengthAdjust="spacing" textLength="298.9583" x="802.6042" y="319.8934">HuffmanCharacterCodec defaultKeyCharacterCodec()</text><ellipse cx="791.1458" cy="332.7271" fill="#84BE84" rx="3.125" ry="3.125" style="stroke:#038048;stroke-width:1.0416666666666667;"/><text fill="#D8BC00" font-family="Open Sans,Avenir,Nunito,Arial,Helvetica,SansSerif" font-size="11.4583" lengthAdjust="spacing" textLength="255.2083" x="802.6042" y="339.6383">HuffmanStringCodec defaultKeyStringCodec()</text><ellipse cx="791.1458" cy="352.4719" fill="#84BE84" rx="3.125" ry="3.125" style="stroke:#038048;stroke-width:1.0416666666666667;"/><text fill="#D8BC00" font-family="Open Sans,Avenir,Nunito,Arial,Helvetica,SansSerif" font-size="11.4583" lengthAdjust="spacing" textLength="259.375" x="802.6042" y="359.3831">PropertyMap keyCharacterCodecFrequencies()</text><ellipse cx="791.1458" cy="372.2168" fill="#84BE84" rx="3.125" ry="3.125" style="stroke:#038048;stroke-width:1.0416666666666667;"/><text fill="#D8BC00" font-family="Open Sans,Avenir,Nunito,Arial,Helvetica,SansSerif" font-size="11.4583" lengthAdjust="spacing" textLength="237.5" x="802.6042" y="379.128">PropertyMap keyStringCodecFrequencies()</text><ellipse cx="791.1458" cy="391.9617" fill="#84BE84" rx="3.125" ry="3.125" style="stroke:#038048;stroke-width:1.0416666666666667;"/><text fill="#D8BC00" font-family="Open Sans,Avenir,Nunito,Arial,Helvetica,SansSerif" font-size="11.4583" lengthAdjust="spacing" textLength="297.9167" x="802.6042" y="398.8729">PropertyMap roadNameCharacterCodecFrequencies()</text><ellipse cx="791.1458" cy="411.7065" fill="#84BE84" rx="3.125" ry="3.125" style="stroke:#038048;stroke-width:1.0416666666666667;"/><text fill="#D8BC00" font-family="Open Sans,Avenir,Nunito,Arial,Helvetica,SansSerif" font-size="11.4583" lengthAdjust="spacing" textLength="269.7917" x="802.6042" y="418.6178">PropertyMap valueCharacterCodecFrequencies()</text><ellipse cx="791.1458" cy="431.4514" fill="#84BE84" rx="3.125" ry="3.125" style="stroke:#038048;stroke-width:1.0416666666666667;"/><text fill="#D8BC00" font-family="Open Sans,Avenir,Nunito,Arial,Helvetica,SansSerif" font-size="11.4583" lengthAdjust="spacing" textLength="247.9167" x="802.6042" y="438.3626">PropertyMap valueStringCodecFrequencies()</text><line style="stroke:#5E5E5E;stroke-width:1.0416666666666667;" x1="780.7292" x2="916.1458" y1="295.8181" y2="295.8181"/><text fill="#D8BC00" font-family="Open Sans,Avenir,Nunito,Arial,Helvetica,SansSerif" font-size="11.4583" lengthAdjust="spacing" textLength="62.5" x="919.2708" y="299.6277">(collection)</text><line style="stroke:#5E5E5E;stroke-width:1.0416666666666667;" x1="984.8958" x2="1120.3125" y1="295.8181" y2="295.8181"/><ellipse cx="791.1458" cy="475.1078" fill="#84BE84" rx="3.125" ry="3.125" style="stroke:#038048;stroke-width:1.0416666666666667;"/><text fill="#D8BC00" font-family="Open Sans,Avenir,Nunito,Arial,Helvetica,SansSerif" font-size="11.4583" lengthAdjust="spacing" textLength="309.375" x="802.6042" y="482.019">HuffmanCharacterCodec defaultValueCharacterCodec()</text><line style="stroke:#5E5E5E;stroke-width:1.0416666666666667;" x1="780.7292" x2="918.75" y1="457.9437" y2="457.9437"/><text fill="#D8BC00" font-family="Open Sans,Avenir,Nunito,Arial,Helvetica,SansSerif" font-size="11.4583" lengthAdjust="spacing" textLength="57.2917" x="921.875" y="461.7533">(primitive)</text><line style="stroke:#5E5E5E;stroke-width:1.0416666666666667;" x1="982.2917" x2="1120.3125" y1="457.9437" y2="457.9437"/><rect fill="#282828" height="48.055" id="HuffmanStringCodec" rx="8.3333" ry="8.3333" style="stroke:#5E5E5E;stroke-width:1.0416666666666667;" width="171.875" x="1159.8958" y="725.5778"/><rect fill="#1B1B1A" height="31.3883" rx="8.3333" ry="8.3333" style="stroke:#1B1B1A;stroke-width:1.0416666666666667;" width="171.875" x="1159.8958" y="725.5778"/><rect fill="#1B1B1A" height="8.3333" style="stroke:#1B1B1A;stroke-width:1.0416666666666667;" width="171.875" x="1159.8958" y="748.6328"/><rect fill="none" height="48.055" id="HuffmanStringCodec" rx="8.3333" ry="8.3333" style="stroke:#5E5E5E;stroke-width:1.0416666666666667;" width="171.875" x="1159.8958" y="725.5778"/><ellipse cx="1174.4792" cy="741.272" fill="#0066CF" rx="10.4167" ry="10.4167" style="stroke:#0086EF;stroke-width:1.0416666666666667;"/><path d="M1176.3896,745.697 Q1175.9623,745.9167 1175.4924,746.0266 Q1175.0224,746.1365 1174.5036,746.1365 Q1172.6603,746.1365 1171.6899,744.9219 Q1170.7194,743.7073 1170.7194,741.4124 Q1170.7194,739.1113 1171.6899,737.8967 Q1172.6603,736.6821 1174.5036,736.6821 Q1175.0224,736.6821 1175.4985,736.792 Q1175.9745,736.9019 1176.3896,737.1216 L1176.3896,739.1235 Q1175.9257,738.6963 1175.4893,738.4979 Q1175.0529,738.2996 1174.589,738.2996 Q1173.6003,738.2996 1173.0967,739.0839 Q1172.5932,739.8682 1172.5932,741.4124 Q1172.5932,742.9504 1173.0967,743.7347 Q1173.6003,744.519 1174.589,744.519 Q1175.0529,744.519 1175.4893,744.3207 Q1175.9257,744.1223 1176.3896,743.6951 Z " fill="#000000"/><text fill="#D8BC00" font-family="Open Sans,Avenir,Nunito,Arial,Helvetica,SansSerif" font-size="12.5" font-weight="bold" lengthAdjust="spacing" textLength="134.375" x="1191.1458" y="745.9961">HuffmanStringCodec</text><line style="stroke:#5E5E5E;stroke-width:1.0416666666666667;" x1="1160.9375" x2="1330.7292" y1="756.9661" y2="756.9661"/><line style="stroke:#5E5E5E;stroke-width:1.0416666666666667;" x1="1160.9375" x2="1330.7292" y1="765.2995" y2="765.2995"/><rect codeLine="44" fill="#282828" height="103.123" id="PbfStringListTagCodec" rx="8.3333" ry="8.3333" style="stroke:#5E5E5E;stroke-width:1.0416666666666667;" width="351.0417" x="9.375" y="697.9736"/><rect fill="#1B1B1A" height="31.3883" rx="8.3333" ry="8.3333" style="stroke:#1B1B1A;stroke-width:1.0416666666666667;" width="351.0417" x="9.375" y="697.9736"/><rect fill="#1B1B1A" height="8.3333" style="stroke:#1B1B1A;stroke-width:1.0416666666666667;" width="351.0417" x="9.375" y="721.0286"/><rect codeLine="44" fill="none" height="103.123" id="PbfStringListTagCodec" rx="8.3333" ry="8.3333" style="stroke:#5E5E5E;stroke-width:1.0416666666666667;" width="351.0417" x="9.375" y="697.9736"/><ellipse cx="104.1667" cy="713.6678" fill="#0066CF" rx="10.4167" ry="10.4167" style="stroke:#0086EF;stroke-width:1.0416666666666667;"/><path d="M106.0771,718.0929 Q105.6498,718.3126 105.1799,718.4224 Q104.7099,718.5323 104.1911,718.5323 Q102.3478,718.5323 101.3774,717.3177 Q100.4069,716.1031 100.4069,713.8082 Q100.4069,711.5072 101.3774,710.2926 Q102.3478,709.078 104.1911,709.078 Q104.7099,709.078 105.186,709.1878 Q105.662,709.2977 106.0771,709.5174 L106.0771,711.5194 Q105.6132,711.0921 105.1768,710.8938 Q104.7404,710.6954 104.2765,710.6954 Q103.2878,710.6954 102.7842,711.4797 Q102.2807,712.264 102.2807,713.8082 Q102.2807,715.3463 102.7842,716.1306 Q103.2878,716.9149 104.2765,716.9149 Q104.7404,716.9149 105.1768,716.7165 Q105.6132,716.5181 106.0771,716.0909 Z " fill="#000000"/><text fill="#D8BC00" font-family="Open Sans,Avenir,Nunito,Arial,Helvetica,SansSerif" font-size="12.5" font-weight="bold" lengthAdjust="spacing" textLength="146.875" x="127.0833" y="718.3919">PbfStringListTagCodec</text><line style="stroke:#5E5E5E;stroke-width:1.5625;" x1="10.4167" x2="359.375" y1="729.362" y2="729.362"/><polygon fill="#FFFF44" points="20.8333,759.5235,25,763.6902,20.8333,767.8569,16.6667,763.6902" style="stroke:#B38D22;stroke-width:1.0416666666666667;"/><text fill="#D8BC00" font-family="Open Sans,Avenir,Nunito,Arial,Helvetica,SansSerif" font-size="11.4583" lengthAdjust="spacing" textLength="135.4167" x="32.2917" y="771.6431">PbfStringListTagCodec()</text><ellipse cx="20.8333" cy="784.4767" fill="#84BE84" rx="3.125" ry="3.125" style="stroke:#038048;stroke-width:1.0416666666666667;"/><text fill="#D8BC00" font-family="Open Sans,Avenir,Nunito,Arial,Helvetica,SansSerif" font-size="11.4583" lengthAdjust="spacing" textLength="318.75" x="32.2917" y="791.3879">PbfStringListTagCodec(StringListCodec, StringListCodec)</text><line style="stroke:#5E5E5E;stroke-width:1.0416666666666667;" x1="10.4167" x2="141.1458" y1="747.5677" y2="747.5677"/><text fill="#D8BC00" font-family="Open Sans,Avenir,Nunito,Arial,Helvetica,SansSerif" font-size="11.4583" lengthAdjust="spacing" textLength="81.25" x="144.2708" y="751.3774">(constructors)</text><line style="stroke:#5E5E5E;stroke-width:1.0416666666666667;" x1="228.6458" x2="359.375" y1="747.5677" y2="747.5677"/><path d="M397.3958,742.7653 L397.3958,745.3695 L360.5729,749.5361 L397.3958,753.7028 L397.3958,756.2602 A8.3333,8.3333 0 0 0 405.7292,764.5935 L545.3125,764.5935 A8.3333,8.3333 0 0 0 553.6458,756.2602 L553.6458,744.8486 L543.2292,734.432 L405.7292,734.432 A8.3333,8.3333 0 0 0 397.3958,742.7653 " fill="#1B1B1A" style="stroke:#5E5E5E;stroke-width:1.0416666666666667;"/><path d="M543.2292,734.432 L543.2292,740.682 A4.1667,4.1667 0 0 0 547.3958,744.8486 L553.6458,744.8486 L543.2292,734.432 " fill="#1B1B1A" style="stroke:#5E5E5E;stroke-width:1.0416666666666667;"/><text fill="#A0A0A0" font-family="Open Sans,Avenir,Nunito,Arial,Helvetica,SansSerif" font-size="11.4583" lengthAdjust="spacing" textLength="128.125" x="406.7708" y="753.8432">Created from metadata</text><rect codeLine="65" fill="#282828" height="538.5986" id="PbfTagCodecBuilder" rx="8.3333" ry="8.3333" style="stroke:#5E5E5E;stroke-width:1.0416666666666667;" width="575" x="1207.8125" y="53.7028"/><rect fill="#1B1B1A" height="31.3883" rx="8.3333" ry="8.3333" style="stroke:#1B1B1A;stroke-width:1.0416666666666667;" width="575" x="1207.8125" y="53.7028"/><rect fill="#1B1B1A" height="8.3333" style="stroke:#1B1B1A;stroke-width:1.0416666666666667;" width="575" x="1207.8125" y="76.7578"/><rect codeLine="65" fill="none" height="538.5986" id="PbfTagCodecBuilder" rx="8.3333" ry="8.3333" style="stroke:#5E5E5E;stroke-width:1.0416666666666667;" width="575" x="1207.8125" y="53.7028"/><ellipse cx="1422.9167" cy="69.397" fill="#0066CF" rx="10.4167" ry="10.4167" style="stroke:#0086EF;stroke-width:1.0416666666666667;"/><path d="M1424.8271,73.822 Q1424.3998,74.0417 1423.9299,74.1516 Q1423.4599,74.2615 1422.9411,74.2615 Q1421.0978,74.2615 1420.1274,73.0469 Q1419.1569,71.8323 1419.1569,69.5374 Q1419.1569,67.2363 1420.1274,66.0217 Q1421.0978,64.8071 1422.9411,64.8071 Q1423.4599,64.8071 1423.936,64.917 Q1424.412,65.0269 1424.8271,65.2466 L1424.8271,67.2485 Q1424.3632,66.8213 1423.9268,66.6229 Q1423.4904,66.4246 1423.0265,66.4246 Q1422.0378,66.4246 1421.5342,67.2089 Q1421.0307,67.9932 1421.0307,69.5374 Q1421.0307,71.0754 1421.5342,71.8597 Q1422.0378,72.644 1423.0265,72.644 Q1423.4904,72.644 1423.9268,72.4457 Q1424.3632,72.2473 1424.8271,71.8201 Z " fill="#000000"/><text fill="#D8BC00" font-family="Open Sans,Avenir,Nunito,Arial,Helvetica,SansSerif" font-size="12.5" font-weight="bold" lengthAdjust="spacing" textLength="130.2083" x="1445.8333" y="74.1211">PbfTagCodecBuilder</text><line style="stroke:#5E5E5E;stroke-width:1.5625;" x1="1208.8542" x2="1781.7708" y1="85.0911" y2="85.0911"/><line style="stroke:#5E5E5E;stroke-width:1.0416666666666667;" x1="1208.8542" x2="1781.7708" y1="93.4245" y2="93.4245"/><ellipse cx="1219.2708" cy="104.8828" fill="#84BE84" rx="3.125" ry="3.125" style="stroke:#038048;stroke-width:1.0416666666666667;"/><text fill="#D8BC00" font-family="Open Sans,Avenir,Nunito,Arial,Helvetica,SansSerif" font-size="11.4583" lengthAdjust="spacing" textLength="147.9167" x="1230.7292" y="111.794">void sample(PbfEntity&lt;?&gt;)</text><ellipse cx="1219.2708" cy="124.6277" fill="#84BE84" rx="3.125" ry="3.125" style="stroke:#038048;stroke-width:1.0416666666666667;"/><text fill="#D8BC00" font-family="Open Sans,Avenir,Nunito,Arial,Helvetica,SansSerif" font-size="11.4583" lengthAdjust="spacing" textLength="226.0417" x="1230.7292" y="131.5389">HuffmanStringCodec valueStringCodec()</text><ellipse cx="1219.2708" cy="168.2841" fill="#84BE84" rx="3.125" ry="3.125" style="stroke:#038048;stroke-width:1.0416666666666667;"/><text fill="#D8BC00" font-family="Open Sans,Avenir,Nunito,Arial,Helvetica,SansSerif" font-size="11.4583" lengthAdjust="spacing" textLength="114.5833" x="1230.7292" y="175.1953">void build(File input)</text><ellipse cx="1219.2708" cy="188.029" fill="#84BE84" rx="3.125" ry="3.125" style="stroke:#038048;stroke-width:1.0416666666666667;"/><text fill="#D8BC00" font-family="Open Sans,Avenir,Nunito,Arial,Helvetica,SansSerif" font-size="11.4583" lengthAdjust="spacing" textLength="160.4167" x="1230.7292" y="194.9402">void buildCharacterCodecs()</text><ellipse cx="1219.2708" cy="207.7738" fill="#84BE84" rx="3.125" ry="3.125" style="stroke:#038048;stroke-width:1.0416666666666667;"/><text fill="#D8BC00" font-family="Open Sans,Avenir,Nunito,Arial,Helvetica,SansSerif" font-size="11.4583" lengthAdjust="spacing" textLength="211.4583" x="1230.7292" y="214.6851">void buildCharacterCodecs(File input)</text><ellipse cx="1219.2708" cy="227.5187" fill="#84BE84" rx="3.125" ry="3.125" style="stroke:#038048;stroke-width:1.0416666666666667;"/><text fill="#D8BC00" font-family="Open Sans,Avenir,Nunito,Arial,Helvetica,SansSerif" font-size="11.4583" lengthAdjust="spacing" textLength="189.5833" x="1230.7292" y="234.4299">void buildStringCodecs(File input)</text><ellipse cx="1219.2708" cy="247.2636" fill="#84BE84" rx="3.125" ry="3.125" style="stroke:#038048;stroke-width:1.0416666666666667;"/><text fill="#D8BC00" font-family="Open Sans,Avenir,Nunito,Arial,Helvetica,SansSerif" font-size="11.4583" lengthAdjust="spacing" textLength="138.5417" x="1230.7292" y="254.1748">void buildStringCodecs()</text><ellipse cx="1219.2708" cy="267.0085" fill="#84BE84" rx="3.125" ry="3.125" style="stroke:#038048;stroke-width:1.0416666666666667;"/><text fill="#D8BC00" font-family="Open Sans,Avenir,Nunito,Arial,Helvetica,SansSerif" font-size="11.4583" lengthAdjust="spacing" textLength="447.9167" x="1230.7292" y="273.9197">PbfTagCodecBuilder charactersMaximumBits(Maximum charactersMaximumBits)</text><ellipse cx="1219.2708" cy="286.7533" fill="#84BE84" rx="3.125" ry="3.125" style="stroke:#038048;stroke-width:1.0416666666666667;"/><text fill="#D8BC00" font-family="Open Sans,Avenir,Nunito,Arial,Helvetica,SansSerif" font-size="11.4583" lengthAdjust="spacing" textLength="542.7083" x="1230.7292" y="293.6646">PbfTagCodecBuilder charactersMinimumOccurrences(Minimum charactersMinimumOccurrences)</text><ellipse cx="1219.2708" cy="306.4982" fill="#84BE84" rx="3.125" ry="3.125" style="stroke:#038048;stroke-width:1.0416666666666667;"/><text fill="#D8BC00" font-family="Open Sans,Avenir,Nunito,Arial,Helvetica,SansSerif" font-size="11.4583" lengthAdjust="spacing" textLength="267.7083" x="1230.7292" y="313.4094">PbfTagCodecBuilder relationFilter(RelationFilter)</text><ellipse cx="1219.2708" cy="326.2431" fill="#84BE84" rx="3.125" ry="3.125" style="stroke:#038048;stroke-width:1.0416666666666667;"/><text fill="#D8BC00" font-family="Open Sans,Avenir,Nunito,Arial,Helvetica,SansSerif" font-size="11.4583" lengthAdjust="spacing" textLength="362.5" x="1230.7292" y="333.1543">PbfTagCodecBuilder sampleFrequency(Integer sampleFrequency)</text><ellipse cx="1219.2708" cy="345.988" fill="#84BE84" rx="3.125" ry="3.125" style="stroke:#038048;stroke-width:1.0416666666666667;"/><text fill="#D8BC00" font-family="Open Sans,Avenir,Nunito,Arial,Helvetica,SansSerif" font-size="11.4583" lengthAdjust="spacing" textLength="368.75" x="1230.7292" y="352.8992">PbfTagCodecBuilder stringsMaximum(Maximum stringsMaximum)</text><ellipse cx="1219.2708" cy="365.7328" fill="#84BE84" rx="3.125" ry="3.125" style="stroke:#038048;stroke-width:1.0416666666666667;"/><text fill="#D8BC00" font-family="Open Sans,Avenir,Nunito,Arial,Helvetica,SansSerif" font-size="11.4583" lengthAdjust="spacing" textLength="408.3333" x="1230.7292" y="372.644">PbfTagCodecBuilder stringsMaximumBits(Maximum stringsMaximumBits)</text><ellipse cx="1219.2708" cy="385.4777" fill="#84BE84" rx="3.125" ry="3.125" style="stroke:#038048;stroke-width:1.0416666666666667;"/><text fill="#D8BC00" font-family="Open Sans,Avenir,Nunito,Arial,Helvetica,SansSerif" font-size="11.4583" lengthAdjust="spacing" textLength="503.125" x="1230.7292" y="392.3889">PbfTagCodecBuilder stringsMinimumOccurrences(Minimum stringsMinimumOccurrences)</text><ellipse cx="1219.2708" cy="405.2226" fill="#84BE84" rx="3.125" ry="3.125" style="stroke:#038048;stroke-width:1.0416666666666667;"/><text fill="#D8BC00" font-family="Open Sans,Avenir,Nunito,Arial,Helvetica,SansSerif" font-size="11.4583" lengthAdjust="spacing" textLength="222.9167" x="1230.7292" y="412.1338">PbfTagCodecBuilder wayFilter(WayFilter)</text><line style="stroke:#5E5E5E;stroke-width:1.0416666666666667;" x1="1208.8542" x2="1465.1042" y1="151.12" y2="151.12"/><text fill="#D8BC00" font-family="Open Sans,Avenir,Nunito,Arial,Helvetica,SansSerif" font-size="11.4583" lengthAdjust="spacing" textLength="54.1667" x="1468.2292" y="154.9296">(building)</text><line style="stroke:#5E5E5E;stroke-width:1.0416666666666667;" x1="1525.5208" x2="1781.7708" y1="151.12" y2="151.12"/><ellipse cx="1219.2708" cy="448.879" fill="#84BE84" rx="3.125" ry="3.125" style="stroke:#038048;stroke-width:1.0416666666666667;"/><text fill="#D8BC00" font-family="Open Sans,Avenir,Nunito,Arial,Helvetica,SansSerif" font-size="11.4583" lengthAdjust="spacing" textLength="215.625" x="1230.7292" y="455.7902">HuffmanStringCodec keyStringCodec()</text><line style="stroke:#5E5E5E;stroke-width:1.0416666666666667;" x1="1208.8542" x2="1460.9375" y1="431.7149" y2="431.7149"/><text fill="#D8BC00" font-family="Open Sans,Avenir,Nunito,Arial,Helvetica,SansSerif" font-size="11.4583" lengthAdjust="spacing" textLength="62.5" x="1464.0625" y="435.5245">(collection)</text><line style="stroke:#5E5E5E;stroke-width:1.0416666666666667;" x1="1529.6875" x2="1781.7708" y1="431.7149" y2="431.7149"/><ellipse cx="1219.2708" cy="492.5354" fill="#84BE84" rx="3.125" ry="3.125" style="stroke:#038048;stroke-width:1.0416666666666667;"/><text fill="#D8BC00" font-family="Open Sans,Avenir,Nunito,Arial,Helvetica,SansSerif" font-size="11.4583" lengthAdjust="spacing" textLength="190.625" x="1230.7292" y="499.4466">void addCharacters(PbfEntity&lt;?&gt;)</text><ellipse cx="1219.2708" cy="512.2803" fill="#84BE84" rx="3.125" ry="3.125" style="stroke:#038048;stroke-width:1.0416666666666667;"/><text fill="#D8BC00" font-family="Open Sans,Avenir,Nunito,Arial,Helvetica,SansSerif" font-size="11.4583" lengthAdjust="spacing" textLength="259.375" x="1230.7292" y="519.1915">HuffmanCharacterCodec keyCharacterCodec()</text><ellipse cx="1219.2708" cy="532.0251" fill="#84BE84" rx="3.125" ry="3.125" style="stroke:#038048;stroke-width:1.0416666666666667;"/><text fill="#D8BC00" font-family="Open Sans,Avenir,Nunito,Arial,Helvetica,SansSerif" font-size="11.4583" lengthAdjust="spacing" textLength="269.7917" x="1230.7292" y="538.9364">HuffmanCharacterCodec valueCharacterCodec()</text><line style="stroke:#5E5E5E;stroke-width:1.0416666666666667;" x1="1208.8542" x2="1463.5417" y1="475.3713" y2="475.3713"/><text fill="#D8BC00" font-family="Open Sans,Avenir,Nunito,Arial,Helvetica,SansSerif" font-size="11.4583" lengthAdjust="spacing" textLength="57.2917" x="1466.6667" y="479.1809">(primitive)</text><line style="stroke:#5E5E5E;stroke-width:1.0416666666666667;" x1="1527.0833" x2="1781.7708" y1="475.3713" y2="475.3713"/><ellipse cx="1219.2708" cy="575.6816" fill="#84BE84" rx="3.125" ry="3.125" style="stroke:#038048;stroke-width:1.0416666666666667;"/><text fill="#D8BC00" font-family="Open Sans,Avenir,Nunito,Arial,Helvetica,SansSerif" font-size="11.4583" lengthAdjust="spacing" textLength="72.9167" x="1230.7292" y="582.5928">void output()</text><line style="stroke:#5E5E5E;stroke-width:1.0416666666666667;" x1="1208.8542" x2="1474.4792" y1="558.5175" y2="558.5175"/><text fill="#D8BC00" font-family="Open Sans,Avenir,Nunito,Arial,Helvetica,SansSerif" font-size="11.4583" lengthAdjust="spacing" textLength="35.4167" x="1477.6042" y="562.3271">(write)</text><line style="stroke:#5E5E5E;stroke-width:1.0416666666666667;" x1="1516.1458" x2="1781.7708" y1="558.5175" y2="558.5175"/><rect fill="#282828" height="48.055" id="WayFilter" rx="8.3333" ry="8.3333" style="stroke:#5E5E5E;stroke-width:1.0416666666666667;" width="96.875" x="1632.2917" y="725.5778"/><rect fill="#1B1B1A" height="31.3883" rx="8.3333" ry="8.3333" style="stroke:#1B1B1A;stroke-width:1.0416666666666667;" width="96.875" x="1632.2917" y="725.5778"/><rect fill="#1B1B1A" height="8.3333" style="stroke:#1B1B1A;stroke-width:1.0416666666666667;" width="96.875" x="1632.2917" y="748.6328"/><rect fill="none" height="48.055" id="WayFilter" rx="8.3333" ry="8.3333" style="stroke:#5E5E5E;stroke-width:1.0416666666666667;" width="96.875" x="1632.2917" y="725.5778"/><ellipse cx="1646.875" cy="741.272" fill="#0066CF" rx="10.4167" ry="10.4167" style="stroke:#0086EF;stroke-width:1.0416666666666667;"/><path d="M1648.7854,745.697 Q1648.3582,745.9167 1647.8882,746.0266 Q1647.4182,746.1365 1646.8994,746.1365 Q1645.0562,746.1365 1644.0857,744.9219 Q1643.1152,743.7073 1643.1152,741.4124 Q1643.1152,739.1113 1644.0857,737.8967 Q1645.0562,736.6821 1646.8994,736.6821 Q1647.4182,736.6821 1647.8943,736.792 Q1648.3704,736.9019 1648.7854,737.1216 L1648.7854,739.1235 Q1648.3215,738.6963 1647.8851,738.4979 Q1647.4487,738.2996 1646.9849,738.2996 Q1645.9961,738.2996 1645.4926,739.0839 Q1644.989,739.8682 1644.989,741.4124 Q1644.989,742.9504 1645.4926,743.7347 Q1645.9961,744.519 1646.9849,744.519 Q1647.4487,744.519 1647.8851,744.3207 Q1648.3215,744.1223 1648.7854,743.6951 Z " fill="#000000"/><text fill="#D8BC00" font-family="Open Sans,Avenir,Nunito,Arial,Helvetica,SansSerif" font-size="12.5" font-weight="bold" lengthAdjust="spacing" textLength="59.375" x="1663.5417" y="745.9961">WayFilter</text><line style="stroke:#5E5E5E;stroke-width:1.0416666666666667;" x1="1633.3333" x2="1728.125" y1="756.9661" y2="756.9661"/><line style="stroke:#5E5E5E;stroke-width:1.0416666666666667;" x1="1633.3333" x2="1728.125" y1="765.2995" y2="765.2995"/><rect fill="#282828" height="48.055" id="StringFrequencies" rx="8.3333" ry="8.3333" style="stroke:#5E5E5E;stroke-width:1.0416666666666667;" width="153.125" x="1418.2292" y="725.5778"/><rect fill="#1B1B1A" height="31.3883" rx="8.3333" ry="8.3333" style="stroke:#1B1B1A;stroke-width:1.0416666666666667;" width="153.125" x="1418.2292" y="725.5778"/><rect fill="#1B1B1A" height="8.3333" style="stroke:#1B1B1A;stroke-width:1.0416666666666667;" width="153.125" x="1418.2292" y="748.6328"/><rect fill="none" height="48.055" id="StringFrequencies" rx="8.3333" ry="8.3333" style="stroke:#5E5E5E;stroke-width:1.0416666666666667;" width="153.125" x="1418.2292" y="725.5778"/><ellipse cx="1432.8125" cy="741.272" fill="#0066CF" rx="10.4167" ry="10.4167" style="stroke:#0086EF;stroke-width:1.0416666666666667;"/><path d="M1434.7229,745.697 Q1434.2957,745.9167 1433.8257,746.0266 Q1433.3557,746.1365 1432.8369,746.1365 Q1430.9937,746.1365 1430.0232,744.9219 Q1429.0527,743.7073 1429.0527,741.4124 Q1429.0527,739.1113 1430.0232,737.8967 Q1430.9937,736.6821 1432.8369,736.6821 Q1433.3557,736.6821 1433.8318,736.792 Q1434.3079,736.9019 1434.7229,737.1216 L1434.7229,739.1235 Q1434.259,738.6963 1433.8226,738.4979 Q1433.3862,738.2996 1432.9224,738.2996 Q1431.9336,738.2996 1431.4301,739.0839 Q1430.9265,739.8682 1430.9265,741.4124 Q1430.9265,742.9504 1431.4301,743.7347 Q1431.9336,744.519 1432.9224,744.519 Q1433.3862,744.519 1433.8226,744.3207 Q1434.259,744.1223 1434.7229,743.6951 Z " fill="#000000"/><text fill="#D8BC00" font-family="Open Sans,Avenir,Nunito,Arial,Helvetica,SansSerif" font-size="12.5" font-weight="bold" lengthAdjust="spacing" textLength="115.625" x="1449.4792" y="745.9961">StringFrequencies</text><line style="stroke:#5E5E5E;stroke-width:1.0416666666666667;" x1="1419.2708" x2="1570.3125" y1="756.9661" y2="756.9661"/><line style="stroke:#5E5E5E;stroke-width:1.0416666666666667;" x1="1419.2708" x2="1570.3125" y1="765.2995" y2="765.2995"/><path codeLine="9" d="M601.4479,378.2549 C589.3646,448.6507 577.6667,572.984 621.3542,666.7236 C631.8854,689.3278 651.9688,708.2653 670.75,722.2028 " fill="none" id="PbfCharacterCodecBuilder-to-HuffmanCharacterCodec" style="stroke:#545454;stroke-width:1.5625;"/><polygon fill="#545454" points="674.9792,725.2757,669.8368,716.3983,670.7632,722.2176,664.9439,723.144,674.9792,725.2757" style="stroke:#545454;stroke-width:1.5625;"/><text fill="#A0A0A0" font-family="Open Sans,Avenir,Nunito,Arial,Helvetica,SansSerif" font-size="12.5" font-weight="bold" lengthAdjust="spacing" textLength="40.625" x="625.5208" y="660.0586">builds</text><path codeLine="10" d="M621.7604,378.3486 C635.0104,443.4736 666.4271,551.0049 735.9375,612.557 C773.4479,645.7757 799.3333,621.6195 844.2708,643.807 C886.4375,664.6299 929.0625,698.2028 956.3854,721.7028 " fill="none" id="PbfCharacterCodecBuilder-to-CharacterFrequencies" style="stroke:#545454;stroke-width:1.5625;"/><polygon fill="#545454" points="960.6354,725.3903,956.2664,716.1079,956.6946,721.9849,950.8177,722.4131,960.6354,725.3903" style="stroke:#545454;stroke-width:1.5625;"/><text fill="#A0A0A0" font-family="Open Sans,Avenir,Nunito,Arial,Helvetica,SansSerif" font-size="12.5" font-weight="bold" lengthAdjust="spacing" textLength="40.625" x="886.9792" y="660.0586">builds</text><path codeLine="19" d="M857.4063,491.484 C809.3021,577.734 755.3854,674.4111 729.5208,720.7757 " fill="none" id="PbfDefaultCodecs-to-HuffmanCharacterCodec" style="stroke:#545454;stroke-width:1.5625;"/><polygon fill="#545454" points="726.9583,725.3695,735.1536,719.1978,729.4877,720.8166,727.8689,715.1507,726.9583,725.3695" style="stroke:#545454;stroke-width:1.5625;"/><text fill="#A0A0A0" font-family="Open Sans,Avenir,Nunito,Arial,Helvetica,SansSerif" font-size="12.5" font-weight="bold" lengthAdjust="spacing" textLength="56.25" x="775.5208" y="660.0586">provides</text><text fill="#A0A0A0" font-family="Open Sans,Avenir,Nunito,Arial,Helvetica,SansSerif" font-size="12.5" font-weight="bold" lengthAdjust="spacing" textLength="8.3333" x="841.0845" y="515.3514">1</text><text fill="#A0A0A0" font-family="Open Sans,Avenir,Nunito,Arial,Helvetica,SansSerif" font-size="12.5" font-weight="bold" lengthAdjust="spacing" textLength="8.3333" x="716.993" y="711.3164">2</text><path codeLine="20" d="M1008.2292,491.3799 C1034.4479,551.2236 1069.8854,616.2965 1115.1042,666.7236 C1136.0313,690.057 1165.1563,709.109 1190.6667,722.9424 " fill="none" id="PbfDefaultCodecs-to-HuffmanStringCodec" style="stroke:#545454;stroke-width:1.5625;"/><polygon fill="#545454" points="1195.3854,725.4632,1189.0782,717.3718,1190.7911,723.0099,1185.1529,724.7228,1195.3854,725.4632" style="stroke:#545454;stroke-width:1.5625;"/><text fill="#A0A0A0" font-family="Open Sans,Avenir,Nunito,Arial,Helvetica,SansSerif" font-size="12.5" font-weight="bold" lengthAdjust="spacing" textLength="56.25" x="1119.2708" y="660.0586">provides</text><text fill="#A0A0A0" font-family="Open Sans,Avenir,Nunito,Arial,Helvetica,SansSerif" font-size="12.5" font-weight="bold" lengthAdjust="spacing" textLength="8.3333" x="999.2129" y="515.2422">1</text><text fill="#A0A0A0" font-family="Open Sans,Avenir,Nunito,Arial,Helvetica,SansSerif" font-size="12.5" font-weight="bold" lengthAdjust="spacing" textLength="8.3333" x="1169.8531" y="711.433">2</text><path codeLine="40" d="M184.8958,409.4945 C184.8958,496.057 184.8958,626.6299 184.8958,697.8174 " fill="none" id="PbfTagCodec-backto-PbfStringListTagCodec" style="stroke:#545454;stroke-width:1.5625;"/><polygon fill="none" points="177.6042,409.3382,184.8958,388.5049,192.1875,409.3382,177.6042,409.3382" style="stroke:#545454;stroke-width:1.5625;"/><path codeLine="60" d="M1617.9688,604.984 C1639.9688,655.2965 1659.4479,699.8382 1670.6667,725.484 " fill="none" id="PbfTagCodecBuilder-backto-WayFilter" style="stroke:#545454;stroke-width:1.5625;"/><polygon fill="#333333" points="1612.4792,592.432,1611.1679,599.8282,1617.4908,603.8833,1618.8021,596.4871,1612.4792,592.432" style="stroke:#545454;stroke-width:1.5625;"/><path codeLine="61" d="M1495.3125,606.2653 C1495.3125,656.0465 1495.3125,700.057 1495.3125,725.484 " fill="none" id="PbfTagCodecBuilder-backto-StringFrequencies" style="stroke:#545454;stroke-width:1.5625;"/><polygon fill="#333333" points="1495.3125,592.432,1491.1458,598.682,1495.3125,604.932,1499.4792,598.682,1495.3125,592.432" style="stroke:#545454;stroke-width:1.5625;"/><text fill="#A0A0A0" font-family="Open Sans,Avenir,Nunito,Arial,Helvetica,SansSerif" font-size="12.5" font-weight="bold" lengthAdjust="spacing" textLength="48.9583" x="1499.4792" y="660.0586">collects</text><text fill="#A0A0A0" font-family="Open Sans,Avenir,Nunito,Arial,Helvetica,SansSerif" font-size="12.5" font-weight="bold" lengthAdjust="spacing" textLength="8.3333" x="1483.6377" y="615.9519">1</text><text fill="#A0A0A0" font-family="Open Sans,Avenir,Nunito,Arial,Helvetica,SansSerif" font-size="12.5" font-weight="bold" lengthAdjust="spacing" textLength="8.3333" x="1482.2038" y="711.4589">2</text><path codeLine="62" d="M1263.6146,601.9632 C1238.0313,625.4111 1211.2813,647.4736 1183.8542,666.7236 C1171.8333,675.1611 1099.2604,704.3278 1045.4583,725.432 " fill="none" id="PbfTagCodecBuilder-backto-CharacterFrequencies" style="stroke:#545454;stroke-width:1.5625;"/><polygon fill="#333333" points="1273.7396,592.5465,1266.3241,593.7439,1264.5772,601.0496,1271.9927,599.8522,1273.7396,592.5465" style="stroke:#545454;stroke-width:1.5625;"/><text fill="#A0A0A0" font-family="Open Sans,Avenir,Nunito,Arial,Helvetica,SansSerif" font-size="12.5" font-weight="bold" lengthAdjust="spacing" textLength="48.9583" x="1218.2292" y="660.0586">collects</text><text fill="#A0A0A0" font-family="Open Sans,Avenir,Nunito,Arial,Helvetica,SansSerif" font-size="12.5" font-weight="bold" lengthAdjust="spacing" textLength="8.3333" x="1255.4868" y="616.0699">1</text><text fill="#A0A0A0" font-family="Open Sans,Avenir,Nunito,Arial,Helvetica,SansSerif" font-size="12.5" font-weight="bold" lengthAdjust="spacing" textLength="8.3333" x="1046.8578" y="711.3941">2</text><path codeLine="63" d="M1195.8125,594.5257 C1185.3021,600.8903 1174.7083,606.9215 1164.0625,612.557 C1115.8229,638.0778 1097.9583,629.4424 1045.3125,643.807 C959.9167,667.109 937.9063,670.859 853.6458,697.9736 C827.5208,706.3799 798.9688,716.5361 774.5417,725.5361 " fill="none" id="PbfTagCodecBuilder-backto-HuffmanCharacterCodec" style="stroke:#545454;stroke-width:1.5625;"/><polygon fill="#333333" points="1207.6354,587.2028,1200.1281,586.9487,1197.0062,593.7808,1204.5135,594.0349,1207.6354,587.2028" style="stroke:#545454;stroke-width:1.5625;"/><text fill="#A0A0A0" font-family="Open Sans,Avenir,Nunito,Arial,Helvetica,SansSerif" font-size="12.5" font-weight="bold" lengthAdjust="spacing" textLength="40.625" x="1049.4792" y="660.0586">builds</text><text fill="#A0A0A0" font-family="Open Sans,Avenir,Nunito,Arial,Helvetica,SansSerif" font-size="12.5" font-weight="bold" lengthAdjust="spacing" textLength="8.3333" x="1188.342" y="588.3224">1</text><text fill="#A0A0A0" font-family="Open Sans,Avenir,Nunito,Arial,Helvetica,SansSerif" font-size="12.5" font-weight="bold" lengthAdjust="spacing" textLength="8.3333" x="776.1747" y="711.5237">2</text><path codeLine="64" d="M1331,604.3486 C1301.3021,654.9215 1274.9896,699.7236 1259.8646,725.484 " fill="none" id="PbfTagCodecBuilder-backto-HuffmanStringCodec" style="stroke:#545454;stroke-width:1.5625;"/><polygon fill="#333333" points="1338,592.432,1331.2421,595.7114,1331.6701,603.2107,1338.4279,599.9313,1338,592.432" style="stroke:#545454;stroke-width:1.5625;"/><text fill="#A0A0A0" font-family="Open Sans,Avenir,Nunito,Arial,Helvetica,SansSerif" font-size="12.5" font-weight="bold" lengthAdjust="spacing" textLength="40.625" x="1310.9375" y="660.0586">builds</text><text fill="#A0A0A0" font-family="Open Sans,Avenir,Nunito,Arial,Helvetica,SansSerif" font-size="12.5" font-weight="bold" lengthAdjust="spacing" textLength="8.3333" x="1321.655" y="615.9519">1</text><text fill="#A0A0A0" font-family="Open Sans,Avenir,Nunito,Arial,Helvetica,SansSerif" font-size="12.5" font-weight="bold" lengthAdjust="spacing" textLength="8.3333" x="1250.049" y="711.4589">2</text></g></svg>
