<?xml version="1.0" encoding="UTF-8" standalone="no"?><svg xmlns="http://www.w3.org/2000/svg" xmlns:xlink="http://www.w3.org/1999/xlink" contentScriptType="application/ecmascript" contentStyleType="text/css" height="666.6667px" preserveAspectRatio="none" style="width:1679px;height:666px;background:#333333;" version="1.1" viewBox="0 0 1679 666" width="1679.1667px" zoomAndPan="magnify"><defs/><g><rect fill="#48494B" height="41.2028" rx="8.3333" ry="8.3333" style="stroke:#545454;stroke-width:1.0416666666666667;" width="165.625" x="749.4792" y="2.0833"/><text fill="#C0C0C0" font-family="Open Sans,Avenir,Nunito,Arial,Helvetica,SansSerif" font-size="20.8333" lengthAdjust="spacing" textLength="142.7083" x="760.9375" y="30.5583">PBF Identifiers</text><rect codeLine="9" fill="#282828" height="273.5819" id="PbfIdentifierType" rx="8.3333" ry="8.3333" style="stroke:#5E5E5E;stroke-width:1.0416666666666667;" width="420.8333" x="361.4583" y="53.7028"/><rect fill="#1B1B1A" height="31.3883" rx="8.3333" ry="8.3333" style="stroke:#1B1B1A;stroke-width:1.0416666666666667;" width="420.8333" x="361.4583" y="53.7028"/><rect fill="#1B1B1A" height="8.3333" style="stroke:#1B1B1A;stroke-width:1.0416666666666667;" width="420.8333" x="361.4583" y="76.7578"/><rect codeLine="9" fill="none" height="273.5819" id="PbfIdentifierType" rx="8.3333" ry="8.3333" style="stroke:#5E5E5E;stroke-width:1.0416666666666667;" width="420.8333" x="361.4583" y="53.7028"/><ellipse cx="508.8542" cy="69.397" fill="#008400" rx="10.4167" ry="10.4167" style="stroke:#239C23;stroke-width:1.0416666666666667;"/><path d="M506.2581,66.5588 L506.2581,64.9719 L511.6842,64.9719 L511.6842,66.5588 L509.8714,66.5588 L509.8714,72.4976 L511.6842,72.4976 L511.6842,74.0845 L506.2581,74.0845 L506.2581,72.4976 L508.0709,72.4976 L508.0709,66.5588 Z " fill="#000000"/><text fill="#D8BC00" font-family="Open Sans,Avenir,Nunito,Arial,Helvetica,SansSerif" font-size="12.5" font-style="italic" font-weight="bold" lengthAdjust="spacing" textLength="111.4583" x="531.7708" y="74.1211">PbfIdentifierType</text><line style="stroke:#5E5E5E;stroke-width:1.5625;" x1="362.5" x2="781.25" y1="85.0911" y2="85.0911"/><line style="stroke:#5E5E5E;stroke-width:1.0416666666666667;" x1="362.5" x2="781.25" y1="93.4245" y2="93.4245"/><ellipse cx="372.9167" cy="104.8828" fill="#84BE84" rx="3.125" ry="3.125" style="stroke:#038048;stroke-width:1.0416666666666667;"/><text fill="#D8BC00" font-family="Open Sans,Avenir,Nunito,Arial,Helvetica,SansSerif" font-size="11.4583" lengthAdjust="spacing" textLength="128.125" x="384.375" y="111.794">EntityType entityType()</text><ellipse cx="372.9167" cy="148.5392" fill="#84BE84" rx="3.125" ry="3.125" style="stroke:#038048;stroke-width:1.0416666666666667;"/><text fill="#D8BC00" font-family="Open Sans,Avenir,Nunito,Arial,Helvetica,SansSerif" font-size="11.4583" lengthAdjust="spacing" textLength="388.5417" x="384.375" y="155.4504">MapIdentifier forIdentifierAndType(MapIdentifier.Type, long identifier)</text><ellipse cx="372.9167" cy="168.2841" fill="#84BE84" rx="3.125" ry="3.125" style="stroke:#038048;stroke-width:1.0416666666666667;"/><text fill="#D8BC00" font-family="Open Sans,Avenir,Nunito,Arial,Helvetica,SansSerif" font-size="11.4583" lengthAdjust="spacing" textLength="329.1667" x="384.375" y="175.1953">MapIdentifier forIdentifierAndType(long identifierAndType)</text><ellipse cx="372.9167" cy="188.029" fill="#84BE84" rx="3.125" ry="3.125" style="stroke:#038048;stroke-width:1.0416666666666667;"/><text fill="#D8BC00" font-family="Open Sans,Avenir,Nunito,Arial,Helvetica,SansSerif" font-size="11.4583" lengthAdjust="spacing" textLength="234.375" x="384.375" y="194.9402">MapIdentifier newIdentifier(long identifier)</text><ellipse cx="372.9167" cy="207.7738" fill="#84BE84" rx="3.125" ry="3.125" style="stroke:#038048;stroke-width:1.0416666666666667;"/><text fill="#D8BC00" font-family="Open Sans,Avenir,Nunito,Arial,Helvetica,SansSerif" font-size="11.4583" lengthAdjust="spacing" textLength="138.5417" x="384.375" y="214.6851">MapIdentifier.Type type()</text><ellipse cx="372.9167" cy="227.5187" fill="#84BE84" rx="3.125" ry="3.125" style="stroke:#038048;stroke-width:1.0416666666666667;"/><text fill="#D8BC00" font-family="Open Sans,Avenir,Nunito,Arial,Helvetica,SansSerif" font-size="11.4583" lengthAdjust="spacing" textLength="316.6667" x="384.375" y="234.4299">MapIdentifier withType(MapIdentifier, MapIdentifier.Type)</text><ellipse cx="372.9167" cy="247.2636" fill="#84BE84" rx="3.125" ry="3.125" style="stroke:#038048;stroke-width:1.0416666666666667;"/><text fill="#D8BC00" font-family="Open Sans,Avenir,Nunito,Arial,Helvetica,SansSerif" font-size="11.4583" lengthAdjust="spacing" textLength="134.375" x="384.375" y="254.1748">MapIdentifier withType()</text><ellipse cx="372.9167" cy="267.0085" fill="#84BE84" rx="3.125" ry="3.125" style="stroke:#038048;stroke-width:1.0416666666666667;"/><text fill="#D8BC00" font-family="Open Sans,Avenir,Nunito,Arial,Helvetica,SansSerif" font-size="11.4583" lengthAdjust="spacing" textLength="153.125" x="384.375" y="273.9197">MapIdentifier withoutType()</text><line style="stroke:#5E5E5E;stroke-width:1.0416666666666667;" x1="362.5" x2="537.5" y1="131.3751" y2="131.3751"/><text fill="#D8BC00" font-family="Open Sans,Avenir,Nunito,Arial,Helvetica,SansSerif" font-size="11.4583" lengthAdjust="spacing" textLength="62.5" x="540.625" y="135.1847">(collection)</text><line style="stroke:#5E5E5E;stroke-width:1.0416666666666667;" x1="606.25" x2="781.25" y1="131.3751" y2="131.3751"/><ellipse cx="372.9167" cy="310.6649" fill="#84BE84" rx="3.125" ry="3.125" style="stroke:#038048;stroke-width:1.0416666666666667;"/><text fill="#D8BC00" font-family="Open Sans,Avenir,Nunito,Arial,Helvetica,SansSerif" font-size="11.4583" lengthAdjust="spacing" textLength="77.0833" x="384.375" y="317.5761">long asLong()</text><line style="stroke:#5E5E5E;stroke-width:1.0416666666666667;" x1="362.5" x2="540.1042" y1="293.5008" y2="293.5008"/><text fill="#D8BC00" font-family="Open Sans,Avenir,Nunito,Arial,Helvetica,SansSerif" font-size="11.4583" lengthAdjust="spacing" textLength="57.2917" x="543.2292" y="297.3104">(primitive)</text><line style="stroke:#5E5E5E;stroke-width:1.0416666666666667;" x1="603.6458" x2="781.25" y1="293.5008" y2="293.5008"/><rect fill="#282828" height="48.055" id="MapNodeIdentifier" rx="8.3333" ry="8.3333" style="stroke:#5E5E5E;stroke-width:1.0416666666666667;" width="157.2917" x="76.5625" y="166.7236"/><rect fill="#1B1B1A" height="31.3883" rx="8.3333" ry="8.3333" style="stroke:#1B1B1A;stroke-width:1.0416666666666667;" width="157.2917" x="76.5625" y="166.7236"/><rect fill="#1B1B1A" height="8.3333" style="stroke:#1B1B1A;stroke-width:1.0416666666666667;" width="157.2917" x="76.5625" y="189.7786"/><rect fill="none" height="48.055" id="MapNodeIdentifier" rx="8.3333" ry="8.3333" style="stroke:#5E5E5E;stroke-width:1.0416666666666667;" width="157.2917" x="76.5625" y="166.7236"/><ellipse cx="91.1458" cy="182.4178" fill="#0066CF" rx="10.4167" ry="10.4167" style="stroke:#0086EF;stroke-width:1.0416666666666667;"/><path d="M93.0562,186.8429 Q92.629,187.0626 92.159,187.1724 Q91.689,187.2823 91.1702,187.2823 Q89.327,187.2823 88.3565,186.0677 Q87.3861,184.8531 87.3861,182.5582 Q87.3861,180.2572 88.3565,179.0426 Q89.327,177.828 91.1702,177.828 Q91.689,177.828 92.1651,177.9378 Q92.6412,178.0477 93.0562,178.2674 L93.0562,180.2694 Q92.5924,179.8421 92.156,179.6438 Q91.7196,179.4454 91.2557,179.4454 Q90.2669,179.4454 89.7634,180.2297 Q89.2598,181.014 89.2598,182.5582 Q89.2598,184.0963 89.7634,184.8806 Q90.2669,185.6649 91.2557,185.6649 Q91.7196,185.6649 92.156,185.4665 Q92.5924,185.2681 93.0562,184.8409 Z " fill="#000000"/><text fill="#D8BC00" font-family="Open Sans,Avenir,Nunito,Arial,Helvetica,SansSerif" font-size="12.5" font-weight="bold" lengthAdjust="spacing" textLength="119.7917" x="107.8125" y="187.1419">MapNodeIdentifier</text><line style="stroke:#5E5E5E;stroke-width:1.0416666666666667;" x1="77.6042" x2="232.8125" y1="198.112" y2="198.112"/><line style="stroke:#5E5E5E;stroke-width:1.0416666666666667;" x1="77.6042" x2="232.8125" y1="206.4453" y2="206.4453"/><rect codeLine="27" fill="#282828" height="269.4153" id="PbfNodeIdentifier" rx="8.3333" ry="8.3333" style="stroke:#5E5E5E;stroke-width:1.0416666666666667;" width="295.8333" x="7.2917" y="390.1611"/><rect fill="#1B1B1A" height="31.3883" rx="8.3333" ry="8.3333" style="stroke:#1B1B1A;stroke-width:1.0416666666666667;" width="295.8333" x="7.2917" y="390.1611"/><rect fill="#1B1B1A" height="8.3333" style="stroke:#1B1B1A;stroke-width:1.0416666666666667;" width="295.8333" x="7.2917" y="413.2161"/><rect codeLine="27" fill="none" height="269.4153" id="PbfNodeIdentifier" rx="8.3333" ry="8.3333" style="stroke:#5E5E5E;stroke-width:1.0416666666666667;" width="295.8333" x="7.2917" y="390.1611"/><ellipse cx="91.1458" cy="405.8553" fill="#0066CF" rx="10.4167" ry="10.4167" style="stroke:#0086EF;stroke-width:1.0416666666666667;"/><path d="M93.0562,410.2804 Q92.629,410.5001 92.159,410.6099 Q91.689,410.7198 91.1702,410.7198 Q89.327,410.7198 88.3565,409.5052 Q87.3861,408.2906 87.3861,405.9957 Q87.3861,403.6947 88.3565,402.4801 Q89.327,401.2655 91.1702,401.2655 Q91.689,401.2655 92.1651,401.3753 Q92.6412,401.4852 93.0562,401.7049 L93.0562,403.7069 Q92.5924,403.2796 92.156,403.0813 Q91.7196,402.8829 91.2557,402.8829 Q90.2669,402.8829 89.7634,403.6672 Q89.2598,404.4515 89.2598,405.9957 Q89.2598,407.5338 89.7634,408.3181 Q90.2669,409.1024 91.2557,409.1024 Q91.7196,409.1024 92.156,408.904 Q92.5924,408.7056 93.0562,408.2784 Z " fill="#000000"/><text fill="#D8BC00" font-family="Open Sans,Avenir,Nunito,Arial,Helvetica,SansSerif" font-size="12.5" font-weight="bold" lengthAdjust="spacing" textLength="113.5417" x="114.0625" y="410.5794">PbfNodeIdentifier</text><line style="stroke:#5E5E5E;stroke-width:1.5625;" x1="8.3333" x2="302.0833" y1="421.5495" y2="421.5495"/><ellipse cx="18.75" cy="456.9194" fill="#84BE84" rx="3.125" ry="3.125" style="stroke:#038048;stroke-width:1.0416666666666667;"/><text fill="#D8BC00" font-family="Open Sans,Avenir,Nunito,Arial,Helvetica,SansSerif" font-size="11.4583" lengthAdjust="spacing" textLength="152.0833" x="30.2083" y="463.8306">PbfNodeIdentifier(PbfNode)</text><ellipse cx="18.75" cy="476.6642" fill="#84BE84" rx="3.125" ry="3.125" style="stroke:#038048;stroke-width:1.0416666666666667;"/><text fill="#D8BC00" font-family="Open Sans,Avenir,Nunito,Arial,Helvetica,SansSerif" font-size="11.4583" lengthAdjust="spacing" textLength="156.25" x="30.2083" y="483.5754">PbfNodeIdentifier(WayNode)</text><ellipse cx="18.75" cy="496.4091" fill="#84BE84" rx="3.125" ry="3.125" style="stroke:#038048;stroke-width:1.0416666666666667;"/><text fill="#D8BC00" font-family="Open Sans,Avenir,Nunito,Arial,Helvetica,SansSerif" font-size="11.4583" lengthAdjust="spacing" textLength="130.2083" x="30.2083" y="503.3203">PbfNodeIdentifier(long)</text><line style="stroke:#5E5E5E;stroke-width:1.0416666666666667;" x1="8.3333" x2="111.4583" y1="439.7552" y2="439.7552"/><text fill="#D8BC00" font-family="Open Sans,Avenir,Nunito,Arial,Helvetica,SansSerif" font-size="11.4583" lengthAdjust="spacing" textLength="81.25" x="114.5833" y="443.5649">(constructors)</text><line style="stroke:#5E5E5E;stroke-width:1.0416666666666667;" x1="198.9583" x2="302.0833" y1="439.7552" y2="439.7552"/><ellipse cx="18.75" cy="540.0655" fill="#84BE84" rx="3.125" ry="3.125" style="stroke:#038048;stroke-width:1.0416666666666667;"/><text fill="#D8BC00" font-family="Open Sans,Avenir,Nunito,Arial,Helvetica,SansSerif" font-size="11.4583" lengthAdjust="spacing" textLength="116.6667" x="30.2083" y="546.9767">boolean isSynthetic()</text><ellipse cx="18.75" cy="559.8104" fill="#84BE84" rx="3.125" ry="3.125" style="stroke:#038048;stroke-width:1.0416666666666667;"/><text fill="#D8BC00" font-family="Open Sans,Avenir,Nunito,Arial,Helvetica,SansSerif" font-size="11.4583" lengthAdjust="spacing" textLength="194.7917" x="30.2083" y="566.7216">boolean isSynthetic(long identifier)</text><line style="stroke:#5E5E5E;stroke-width:1.0416666666666667;" x1="8.3333" x2="128.6458" y1="522.9014" y2="522.9014"/><text fill="#D8BC00" font-family="Open Sans,Avenir,Nunito,Arial,Helvetica,SansSerif" font-size="11.4583" lengthAdjust="spacing" textLength="46.875" x="131.7708" y="526.711">(checks)</text><line style="stroke:#5E5E5E;stroke-width:1.0416666666666667;" x1="181.7708" x2="302.0833" y1="522.9014" y2="522.9014"/><ellipse cx="18.75" cy="603.4668" fill="#84BE84" rx="3.125" ry="3.125" style="stroke:#038048;stroke-width:1.0416666666666667;"/><text fill="#D8BC00" font-family="Open Sans,Avenir,Nunito,Arial,Helvetica,SansSerif" font-size="11.4583" lengthAdjust="spacing" textLength="231.25" x="30.2083" y="610.378">PbfNodeIdentifier forLong(long identifier)</text><ellipse cx="18.75" cy="623.2117" fill="#84BE84" rx="3.125" ry="3.125" style="stroke:#038048;stroke-width:1.0416666666666667;"/><text fill="#D8BC00" font-family="Open Sans,Avenir,Nunito,Arial,Helvetica,SansSerif" font-size="11.4583" lengthAdjust="spacing" textLength="263.5417" x="30.2083" y="630.1229">PbfNodeIdentifier nextSyntheticNodeIdentifier()</text><ellipse cx="18.75" cy="642.9565" fill="#84BE84" rx="3.125" ry="3.125" style="stroke:#038048;stroke-width:1.0416666666666667;"/><text fill="#D8BC00" font-family="Open Sans,Avenir,Nunito,Arial,Helvetica,SansSerif" font-size="11.4583" lengthAdjust="spacing" textLength="172.9167" x="30.2083" y="649.8678">PbfNodeIdentifier parse(String)</text><line style="stroke:#5E5E5E;stroke-width:1.0416666666666667;" x1="8.3333" x2="127.0833" y1="586.3027" y2="586.3027"/><text fill="#D8BC00" font-family="Open Sans,Avenir,Nunito,Arial,Helvetica,SansSerif" font-size="11.4583" lengthAdjust="spacing" textLength="50" x="130.2083" y="590.1123">(identity)</text><line style="stroke:#5E5E5E;stroke-width:1.0416666666666667;" x1="183.3333" x2="302.0833" y1="586.3027" y2="586.3027"/><rect fill="#282828" height="48.055" id="MapRelationIdentifier" rx="8.3333" ry="8.3333" style="stroke:#5E5E5E;stroke-width:1.0416666666666667;" width="177.0833" x="818.75" y="166.7236"/><rect fill="#1B1B1A" height="31.3883" rx="8.3333" ry="8.3333" style="stroke:#1B1B1A;stroke-width:1.0416666666666667;" width="177.0833" x="818.75" y="166.7236"/><rect fill="#1B1B1A" height="8.3333" style="stroke:#1B1B1A;stroke-width:1.0416666666666667;" width="177.0833" x="818.75" y="189.7786"/><rect fill="none" height="48.055" id="MapRelationIdentifier" rx="8.3333" ry="8.3333" style="stroke:#5E5E5E;stroke-width:1.0416666666666667;" width="177.0833" x="818.75" y="166.7236"/><ellipse cx="833.3333" cy="182.4178" fill="#0066CF" rx="10.4167" ry="10.4167" style="stroke:#0086EF;stroke-width:1.0416666666666667;"/><path d="M835.2437,186.8429 Q834.8165,187.0626 834.3465,187.1724 Q833.8765,187.2823 833.3577,187.2823 Q831.5145,187.2823 830.544,186.0677 Q829.5736,184.8531 829.5736,182.5582 Q829.5736,180.2572 830.544,179.0426 Q831.5145,177.828 833.3577,177.828 Q833.8765,177.828 834.3526,177.9378 Q834.8287,178.0477 835.2437,178.2674 L835.2437,180.2694 Q834.7799,179.8421 834.3435,179.6438 Q833.9071,179.4454 833.4432,179.4454 Q832.4544,179.4454 831.9509,180.2297 Q831.4473,181.014 831.4473,182.5582 Q831.4473,184.0963 831.9509,184.8806 Q832.4544,185.6649 833.4432,185.6649 Q833.9071,185.6649 834.3435,185.4665 Q834.7799,185.2681 835.2437,184.8409 Z " fill="#000000"/><text fill="#D8BC00" font-family="Open Sans,Avenir,Nunito,Arial,Helvetica,SansSerif" font-size="12.5" font-weight="bold" lengthAdjust="spacing" textLength="139.5833" x="850" y="187.1419">MapRelationIdentifier</text><line style="stroke:#5E5E5E;stroke-width:1.0416666666666667;" x1="819.7917" x2="994.7917" y1="198.112" y2="198.112"/><line style="stroke:#5E5E5E;stroke-width:1.0416666666666667;" x1="819.7917" x2="994.7917" y1="206.4453" y2="206.4453"/><rect codeLine="44" fill="#282828" height="186.2691" id="PbfRelationIdentifier" rx="8.3333" ry="8.3333" style="stroke:#5E5E5E;stroke-width:1.0416666666666667;" width="644.7917" x="340.1042" y="431.8278"/><rect fill="#1B1B1A" height="31.3883" rx="8.3333" ry="8.3333" style="stroke:#1B1B1A;stroke-width:1.0416666666666667;" width="644.7917" x="340.1042" y="431.8278"/><rect fill="#1B1B1A" height="8.3333" style="stroke:#1B1B1A;stroke-width:1.0416666666666667;" width="644.7917" x="340.1042" y="454.8828"/><rect codeLine="44" fill="none" height="186.2691" id="PbfRelationIdentifier" rx="8.3333" ry="8.3333" style="stroke:#5E5E5E;stroke-width:1.0416666666666667;" width="644.7917" x="340.1042" y="431.8278"/><ellipse cx="588.5417" cy="447.522" fill="#0066CF" rx="10.4167" ry="10.4167" style="stroke:#0086EF;stroke-width:1.0416666666666667;"/><path d="M590.4521,451.947 Q590.0248,452.1667 589.5549,452.2766 Q589.0849,452.3865 588.5661,452.3865 Q586.7228,452.3865 585.7524,451.1719 Q584.7819,449.9573 584.7819,447.6624 Q584.7819,445.3613 585.7524,444.1467 Q586.7228,442.9321 588.5661,442.9321 Q589.0849,442.9321 589.561,443.042 Q590.037,443.1519 590.4521,443.3716 L590.4521,445.3735 Q589.9882,444.9463 589.5518,444.7479 Q589.1154,444.5496 588.6515,444.5496 Q587.6628,444.5496 587.1592,445.3339 Q586.6557,446.1182 586.6557,447.6624 Q586.6557,449.2004 587.1592,449.9847 Q587.6628,450.769 588.6515,450.769 Q589.1154,450.769 589.5518,450.5707 Q589.9882,450.3723 590.4521,449.9451 Z " fill="#000000"/><text fill="#D8BC00" font-family="Open Sans,Avenir,Nunito,Arial,Helvetica,SansSerif" font-size="12.5" font-weight="bold" lengthAdjust="spacing" textLength="133.3333" x="611.4583" y="452.2461">PbfRelationIdentifier</text><line style="stroke:#5E5E5E;stroke-width:1.5625;" x1="341.1458" x2="983.8542" y1="463.2161" y2="463.2161"/><ellipse cx="351.5625" cy="498.586" fill="#84BE84" rx="3.125" ry="3.125" style="stroke:#038048;stroke-width:1.0416666666666667;"/><text fill="#D8BC00" font-family="Open Sans,Avenir,Nunito,Arial,Helvetica,SansSerif" font-size="11.4583" lengthAdjust="spacing" textLength="183.3333" x="363.0208" y="505.4972">PbfRelationIdentifier(PbfRelation)</text><ellipse cx="351.5625" cy="518.3309" fill="#84BE84" rx="3.125" ry="3.125" style="stroke:#038048;stroke-width:1.0416666666666667;"/><text fill="#D8BC00" font-family="Open Sans,Avenir,Nunito,Arial,Helvetica,SansSerif" font-size="11.4583" lengthAdjust="spacing" textLength="145.8333" x="363.0208" y="525.2421">PbfRelationIdentifier(long)</text><line style="stroke:#5E5E5E;stroke-width:1.0416666666666667;" x1="341.1458" x2="618.75" y1="481.4219" y2="481.4219"/><text fill="#D8BC00" font-family="Open Sans,Avenir,Nunito,Arial,Helvetica,SansSerif" font-size="11.4583" lengthAdjust="spacing" textLength="81.25" x="621.875" y="485.2315">(constructors)</text><line style="stroke:#5E5E5E;stroke-width:1.0416666666666667;" x1="706.25" x2="983.8542" y1="481.4219" y2="481.4219"/><ellipse cx="351.5625" cy="561.9873" fill="#84BE84" rx="3.125" ry="3.125" style="stroke:#038048;stroke-width:1.0416666666666667;"/><text fill="#D8BC00" font-family="Open Sans,Avenir,Nunito,Arial,Helvetica,SansSerif" font-size="11.4583" lengthAdjust="spacing" textLength="252.0833" x="363.0208" y="568.8985">MapRelationIdentifier forLong(long identifier)</text><ellipse cx="351.5625" cy="581.7322" fill="#84BE84" rx="3.125" ry="3.125" style="stroke:#038048;stroke-width:1.0416666666666667;"/><text fill="#D8BC00" font-family="Open Sans,Avenir,Nunito,Arial,Helvetica,SansSerif" font-size="11.4583" lengthAdjust="spacing" textLength="230.2083" x="363.0208" y="588.6434">PbfRelationIdentifier forRelation(Relation)</text><ellipse cx="351.5625" cy="601.4771" fill="#84BE84" rx="3.125" ry="3.125" style="stroke:#038048;stroke-width:1.0416666666666667;"/><text fill="#D8BC00" font-family="Open Sans,Avenir,Nunito,Arial,Helvetica,SansSerif" font-size="11.4583" lengthAdjust="spacing" textLength="612.5" x="363.0208" y="608.3883">SwitchParser.Builder&lt;PbfRelationIdentifier&gt; pbfRelationIdentifierSwitchParser(String name, String description)</text><line style="stroke:#5E5E5E;stroke-width:1.0416666666666667;" x1="341.1458" x2="634.375" y1="544.8232" y2="544.8232"/><text fill="#D8BC00" font-family="Open Sans,Avenir,Nunito,Arial,Helvetica,SansSerif" font-size="11.4583" lengthAdjust="spacing" textLength="50" x="637.5" y="548.6328">(identity)</text><line style="stroke:#5E5E5E;stroke-width:1.0416666666666667;" x1="690.625" x2="983.8542" y1="544.8232" y2="544.8232"/><rect fill="#282828" height="48.055" id="MapWayIdentifier" rx="8.3333" ry="8.3333" style="stroke:#5E5E5E;stroke-width:1.0416666666666667;" width="150" x="1271.875" y="166.7236"/><rect fill="#1B1B1A" height="31.3883" rx="8.3333" ry="8.3333" style="stroke:#1B1B1A;stroke-width:1.0416666666666667;" width="150" x="1271.875" y="166.7236"/><rect fill="#1B1B1A" height="8.3333" style="stroke:#1B1B1A;stroke-width:1.0416666666666667;" width="150" x="1271.875" y="189.7786"/><rect fill="none" height="48.055" id="MapWayIdentifier" rx="8.3333" ry="8.3333" style="stroke:#5E5E5E;stroke-width:1.0416666666666667;" width="150" x="1271.875" y="166.7236"/><ellipse cx="1286.4583" cy="182.4178" fill="#0066CF" rx="10.4167" ry="10.4167" style="stroke:#0086EF;stroke-width:1.0416666666666667;"/><path d="M1288.3687,186.8429 Q1287.9415,187.0626 1287.4715,187.1724 Q1287.0015,187.2823 1286.4827,187.2823 Q1284.6395,187.2823 1283.669,186.0677 Q1282.6986,184.8531 1282.6986,182.5582 Q1282.6986,180.2572 1283.669,179.0426 Q1284.6395,177.828 1286.4827,177.828 Q1287.0015,177.828 1287.4776,177.9378 Q1287.9537,178.0477 1288.3687,178.2674 L1288.3687,180.2694 Q1287.9049,179.8421 1287.4685,179.6438 Q1287.0321,179.4454 1286.5682,179.4454 Q1285.5794,179.4454 1285.0759,180.2297 Q1284.5723,181.014 1284.5723,182.5582 Q1284.5723,184.0963 1285.0759,184.8806 Q1285.5794,185.6649 1286.5682,185.6649 Q1287.0321,185.6649 1287.4685,185.4665 Q1287.9049,185.2681 1288.3687,184.8409 Z " fill="#000000"/><text fill="#D8BC00" font-family="Open Sans,Avenir,Nunito,Arial,Helvetica,SansSerif" font-size="12.5" font-weight="bold" lengthAdjust="spacing" textLength="112.5" x="1303.125" y="187.1419">MapWayIdentifier</text><line style="stroke:#5E5E5E;stroke-width:1.0416666666666667;" x1="1272.9167" x2="1420.8333" y1="198.112" y2="198.112"/><line style="stroke:#5E5E5E;stroke-width:1.0416666666666667;" x1="1272.9167" x2="1420.8333" y1="206.4453" y2="206.4453"/><rect codeLine="57" fill="#282828" height="206.014" id="PbfWayIdentifier" rx="8.3333" ry="8.3333" style="stroke:#5E5E5E;stroke-width:1.0416666666666667;" width="650" x="1021.875" y="421.932"/><rect fill="#1B1B1A" height="31.3883" rx="8.3333" ry="8.3333" style="stroke:#1B1B1A;stroke-width:1.0416666666666667;" width="650" x="1021.875" y="421.932"/><rect fill="#1B1B1A" height="8.3333" style="stroke:#1B1B1A;stroke-width:1.0416666666666667;" width="650" x="1021.875" y="444.987"/><rect codeLine="57" fill="none" height="206.014" id="PbfWayIdentifier" rx="8.3333" ry="8.3333" style="stroke:#5E5E5E;stroke-width:1.0416666666666667;" width="650" x="1021.875" y="421.932"/><ellipse cx="1286.4583" cy="437.6261" fill="#0066CF" rx="10.4167" ry="10.4167" style="stroke:#0086EF;stroke-width:1.0416666666666667;"/><path d="M1288.3687,442.0512 Q1287.9415,442.2709 1287.4715,442.3808 Q1287.0015,442.4906 1286.4827,442.4906 Q1284.6395,442.4906 1283.669,441.276 Q1282.6986,440.0614 1282.6986,437.7665 Q1282.6986,435.4655 1283.669,434.2509 Q1284.6395,433.0363 1286.4827,433.0363 Q1287.0015,433.0363 1287.4776,433.1462 Q1287.9537,433.256 1288.3687,433.4757 L1288.3687,435.4777 Q1287.9049,435.0505 1287.4685,434.8521 Q1287.0321,434.6537 1286.5682,434.6537 Q1285.5794,434.6537 1285.0759,435.438 Q1284.5723,436.2223 1284.5723,437.7665 Q1284.5723,439.3046 1285.0759,440.0889 Q1285.5794,440.8732 1286.5682,440.8732 Q1287.0321,440.8732 1287.4685,440.6748 Q1287.9049,440.4765 1288.3687,440.0492 Z " fill="#000000"/><text fill="#D8BC00" font-family="Open Sans,Avenir,Nunito,Arial,Helvetica,SansSerif" font-size="12.5" font-weight="bold" lengthAdjust="spacing" textLength="106.25" x="1309.375" y="442.3503">PbfWayIdentifier</text><line style="stroke:#5E5E5E;stroke-width:1.5625;" x1="1022.9167" x2="1670.8333" y1="453.3203" y2="453.3203"/><ellipse cx="1033.3333" cy="488.6902" fill="#84BE84" rx="3.125" ry="3.125" style="stroke:#038048;stroke-width:1.0416666666666667;"/><text fill="#D8BC00" font-family="Open Sans,Avenir,Nunito,Arial,Helvetica,SansSerif" font-size="11.4583" lengthAdjust="spacing" textLength="137.5" x="1044.7917" y="495.6014">PbfWayIdentifier(PbfWay)</text><ellipse cx="1033.3333" cy="508.4351" fill="#84BE84" rx="3.125" ry="3.125" style="stroke:#038048;stroke-width:1.0416666666666667;"/><text fill="#D8BC00" font-family="Open Sans,Avenir,Nunito,Arial,Helvetica,SansSerif" font-size="11.4583" lengthAdjust="spacing" textLength="122.9167" x="1044.7917" y="515.3463">PbfWayIdentifier(long)</text><line style="stroke:#5E5E5E;stroke-width:1.0416666666666667;" x1="1022.9167" x2="1303.125" y1="471.5261" y2="471.5261"/><text fill="#D8BC00" font-family="Open Sans,Avenir,Nunito,Arial,Helvetica,SansSerif" font-size="11.4583" lengthAdjust="spacing" textLength="81.25" x="1306.25" y="475.3357">(constructors)</text><line style="stroke:#5E5E5E;stroke-width:1.0416666666666667;" x1="1390.625" x2="1670.8333" y1="471.5261" y2="471.5261"/><ellipse cx="1033.3333" cy="552.0915" fill="#84BE84" rx="3.125" ry="3.125" style="stroke:#038048;stroke-width:1.0416666666666667;"/><text fill="#D8BC00" font-family="Open Sans,Avenir,Nunito,Arial,Helvetica,SansSerif" font-size="11.4583" lengthAdjust="spacing" textLength="229.1667" x="1044.7917" y="559.0027">MapWayIdentifier forLong(long identifier)</text><ellipse cx="1033.3333" cy="571.8363" fill="#84BE84" rx="3.125" ry="3.125" style="stroke:#038048;stroke-width:1.0416666666666667;"/><text fill="#D8BC00" font-family="Open Sans,Avenir,Nunito,Arial,Helvetica,SansSerif" font-size="11.4583" lengthAdjust="spacing" textLength="161.4583" x="1044.7917" y="578.7476">PbfWayIdentifier forWay(Way)</text><ellipse cx="1033.3333" cy="591.5812" fill="#84BE84" rx="3.125" ry="3.125" style="stroke:#038048;stroke-width:1.0416666666666667;"/><text fill="#D8BC00" font-family="Open Sans,Avenir,Nunito,Arial,Helvetica,SansSerif" font-size="11.4583" lengthAdjust="spacing" textLength="165.625" x="1044.7917" y="598.4924">PbfWayIdentifier parse(String)</text><ellipse cx="1033.3333" cy="611.3261" fill="#84BE84" rx="3.125" ry="3.125" style="stroke:#038048;stroke-width:1.0416666666666667;"/><text fill="#D8BC00" font-family="Open Sans,Avenir,Nunito,Arial,Helvetica,SansSerif" font-size="11.4583" lengthAdjust="spacing" textLength="617.7083" x="1044.7917" y="618.2373">SwitchParser.Builder&lt;PbfWayIdentifier&gt; pbfWayIdentifierSwitchParser(Listener, String name, String description)</text><line style="stroke:#5E5E5E;stroke-width:1.0416666666666667;" x1="1022.9167" x2="1318.75" y1="534.9274" y2="534.9274"/><text fill="#D8BC00" font-family="Open Sans,Avenir,Nunito,Arial,Helvetica,SansSerif" font-size="11.4583" lengthAdjust="spacing" textLength="50" x="1321.875" y="538.737">(identity)</text><line style="stroke:#5E5E5E;stroke-width:1.0416666666666667;" x1="1375" x2="1670.8333" y1="534.9274" y2="534.9274"/><path codeLine="25" d="M155.2083,235.734 C155.2083,275.1507 155.2083,335.0674 155.2083,390.0882 " fill="none" id="MapNodeIdentifier-backto-PbfNodeIdentifier" style="stroke:#545454;stroke-width:1.5625;"/><polygon fill="none" points="147.9167,235.6611,155.2083,214.8278,162.5,235.6611,147.9167,235.6611" style="stroke:#545454;stroke-width:1.5625;"/><path codeLine="26" d="M383.9271,340.7132 C362.9792,357.3799 341.9583,374.1195 321.875,390.1611 C315.7813,395.0257 309.5729,399.9945 303.3021,405.0049 " fill="none" id="PbfIdentifierType-backto-PbfNodeIdentifier" style="stroke:#545454;stroke-width:1.5625;"/><polygon fill="none" points="379.4583,334.9528,400.3021,327.6924,388.5417,346.3695,379.4583,334.9528" style="stroke:#545454;stroke-width:1.5625;"/><path codeLine="42" d="M877.7604,231.807 C841.5313,280.9945 778.9583,365.932 730.5833,431.5986 " fill="none" id="MapRelationIdentifier-backto-PbfRelationIdentifier" style="stroke:#545454;stroke-width:1.5625;"/><polygon fill="none" points="872.0417,227.2757,890.2708,214.8278,883.7917,235.9215,872.0417,227.2757" style="stroke:#545454;stroke-width:1.5625;"/><path codeLine="43" d="M614.5104,348.0674 C622.3229,376.7028 630.2396,405.7236 637.3333,431.7236 " fill="none" id="PbfIdentifierType-backto-PbfRelationIdentifier" style="stroke:#545454;stroke-width:1.5625;"/><polygon fill="none" points="607.4479,349.859,609,327.8382,621.5104,346.0153,607.4479,349.859" style="stroke:#545454;stroke-width:1.5625;"/><path codeLine="55" d="M1346.875,235.734 C1346.875,282.9215 1346.875,359.4736 1346.875,421.8382 " fill="none" id="MapWayIdentifier-backto-PbfWayIdentifier" style="stroke:#545454;stroke-width:1.5625;"/><polygon fill="none" points="1339.5833,235.6611,1346.875,214.8278,1354.1667,235.6611,1339.5833,235.6611" style="stroke:#545454;stroke-width:1.5625;"/><path codeLine="56" d="M801.6875,327.9424 C890.1354,365.2653 919.6667,361.1195 1003.125,390.1611 C1031.5521,400.057 1061.125,410.8278 1090.4792,421.8278 " fill="none" id="PbfIdentifierType-backto-PbfWayIdentifier" style="stroke:#545454;stroke-width:1.5625;"/><polygon fill="none" points="798.7292,334.609,782.5313,319.6195,804.5417,321.234,798.7292,334.609" style="stroke:#545454;stroke-width:1.5625;"/></g></svg>
