<?xml version="1.0" encoding="UTF-8" standalone="no"?><svg xmlns="http://www.w3.org/2000/svg" xmlns:xlink="http://www.w3.org/1999/xlink" contentScriptType="application/ecmascript" contentStyleType="text/css" height="143.75px" preserveAspectRatio="none" style="width:380px;height:143px;background:#333333;" version="1.1" viewBox="0 0 380 143" width="380.2083px" zoomAndPan="magnify"><defs/><g><rect fill="#48494B" height="41.2028" rx="8.3333" ry="8.3333" style="stroke:#545454;stroke-width:1.0416666666666667;" width="367.7083" x="2.0833" y="2.0833"/><text fill="#C0C0C0" font-family="Open Sans,Avenir,Nunito,Arial,Helvetica,SansSerif" font-size="20.8333" lengthAdjust="spacing" textLength="344.7917" x="13.5417" y="30.5583">com.telenav.mesakit.graph.io.save</text><rect codeLine="7" fill="#282828" height="83.3781" id="PbfGraphSaver" rx="8.3333" ry="8.3333" style="stroke:#5E5E5E;stroke-width:1.0416666666666667;" width="230.2083" x="71.3542" y="53.7028"/><rect fill="#1B1B1A" height="31.3883" rx="8.3333" ry="8.3333" style="stroke:#1B1B1A;stroke-width:1.0416666666666667;" width="230.2083" x="71.3542" y="53.7028"/><rect fill="#1B1B1A" height="8.3333" style="stroke:#1B1B1A;stroke-width:1.0416666666666667;" width="230.2083" x="71.3542" y="76.7578"/><rect codeLine="7" fill="none" height="83.3781" id="PbfGraphSaver" rx="8.3333" ry="8.3333" style="stroke:#5E5E5E;stroke-width:1.0416666666666667;" width="230.2083" x="71.3542" y="53.7028"/><ellipse cx="132.2917" cy="69.397" fill="#0066CF" rx="10.4167" ry="10.4167" style="stroke:#0086EF;stroke-width:1.0416666666666667;"/><path d="M134.2021,73.822 Q133.7748,74.0417 133.3049,74.1516 Q132.8349,74.2615 132.3161,74.2615 Q130.4728,74.2615 129.5024,73.0469 Q128.5319,71.8323 128.5319,69.5374 Q128.5319,67.2363 129.5024,66.0217 Q130.4728,64.8071 132.3161,64.8071 Q132.8349,64.8071 133.311,64.917 Q133.787,65.0269 134.2021,65.2466 L134.2021,67.2485 Q133.7382,66.8213 133.3018,66.6229 Q132.8654,66.4246 132.4015,66.4246 Q131.4128,66.4246 130.9092,67.2089 Q130.4057,67.9932 130.4057,69.5374 Q130.4057,71.0754 130.9092,71.8597 Q131.4128,72.644 132.4015,72.644 Q132.8654,72.644 133.3018,72.4457 Q133.7382,72.2473 134.2021,71.8201 Z " fill="#000000"/><text fill="#D8BC00" font-family="Open Sans,Avenir,Nunito,Arial,Helvetica,SansSerif" font-size="12.5" font-weight="bold" lengthAdjust="spacing" textLength="93.75" x="155.2083" y="74.1211">PbfGraphSaver</text><line style="stroke:#5E5E5E;stroke-width:1.5625;" x1="72.3958" x2="300.5208" y1="85.0911" y2="85.0911"/><ellipse cx="82.8125" cy="120.461" fill="#84BE84" rx="3.125" ry="3.125" style="stroke:#038048;stroke-width:1.0416666666666667;"/><text fill="#D8BC00" font-family="Open Sans,Avenir,Nunito,Arial,Helvetica,SansSerif" font-size="11.4583" lengthAdjust="spacing" textLength="197.9167" x="94.2708" y="127.3722">void save(Graph, WritableResource)</text><line style="stroke:#5E5E5E;stroke-width:1.0416666666666667;" x1="72.3958" x2="165.625" y1="103.2969" y2="103.2969"/><text fill="#D8BC00" font-family="Open Sans,Avenir,Nunito,Arial,Helvetica,SansSerif" font-size="11.4583" lengthAdjust="spacing" textLength="35.4167" x="168.75" y="107.1065">(write)</text><line style="stroke:#5E5E5E;stroke-width:1.0416666666666667;" x1="207.2917" x2="300.5208" y1="103.2969" y2="103.2969"/></g></svg>
