<?xml version="1.0" encoding="UTF-8" standalone="no"?><svg xmlns="http://www.w3.org/2000/svg" xmlns:xlink="http://www.w3.org/1999/xlink" contentScriptType="application/ecmascript" contentStyleType="text/css" height="262.5px" preserveAspectRatio="none" style="width:473px;height:262px;background:#333333;" version="1.1" viewBox="0 0 473 262" width="473.9583px" zoomAndPan="magnify"><defs/><g><rect fill="#48494B" height="41.2028" rx="8.3333" ry="8.3333" style="stroke:#545454;stroke-width:1.0416666666666667;" width="461.4583" x="2.0833" y="2.0833"/><text fill="#C0C0C0" font-family="Open Sans,Avenir,Nunito,Arial,Helvetica,SansSerif" font-size="20.8333" lengthAdjust="spacing" textLength="438.5417" x="13.5417" y="30.5583">com.telenav.mesakit.graph.library.matchers</text><rect codeLine="7" fill="#282828" height="201.8473" id="Matchers" rx="8.3333" ry="8.3333" style="stroke:#5E5E5E;stroke-width:1.0416666666666667;" width="408.3333" x="29.1667" y="53.7028"/><rect fill="#1B1B1A" height="31.3883" rx="8.3333" ry="8.3333" style="stroke:#1B1B1A;stroke-width:1.0416666666666667;" width="408.3333" x="29.1667" y="53.7028"/><rect fill="#1B1B1A" height="8.3333" style="stroke:#1B1B1A;stroke-width:1.0416666666666667;" width="408.3333" x="29.1667" y="76.7578"/><rect codeLine="7" fill="none" height="201.8473" id="Matchers" rx="8.3333" ry="8.3333" style="stroke:#5E5E5E;stroke-width:1.0416666666666667;" width="408.3333" x="29.1667" y="53.7028"/><ellipse cx="196.875" cy="69.397" fill="#0066CF" rx="10.4167" ry="10.4167" style="stroke:#0086EF;stroke-width:1.0416666666666667;"/><path d="M198.7854,73.822 Q198.3582,74.0417 197.8882,74.1516 Q197.4182,74.2615 196.8994,74.2615 Q195.0562,74.2615 194.0857,73.0469 Q193.1152,71.8323 193.1152,69.5374 Q193.1152,67.2363 194.0857,66.0217 Q195.0562,64.8071 196.8994,64.8071 Q197.4182,64.8071 197.8943,64.917 Q198.3704,65.0269 198.7854,65.2466 L198.7854,67.2485 Q198.3215,66.8213 197.8851,66.6229 Q197.4487,66.4246 196.9849,66.4246 Q195.9961,66.4246 195.4926,67.2089 Q194.989,67.9932 194.989,69.5374 Q194.989,71.0754 195.4926,71.8597 Q195.9961,72.644 196.9849,72.644 Q197.4487,72.644 197.8851,72.4457 Q198.3215,72.2473 198.7854,71.8201 Z " fill="#000000"/><text fill="#D8BC00" font-family="Open Sans,Avenir,Nunito,Arial,Helvetica,SansSerif" font-size="12.5" font-weight="bold" lengthAdjust="spacing" textLength="58.3333" x="219.7917" y="74.1211">Matchers</text><line style="stroke:#5E5E5E;stroke-width:1.5625;" x1="30.2083" x2="436.4583" y1="85.0911" y2="85.0911"/><ellipse cx="40.625" cy="120.461" fill="#84BE84" rx="3.125" ry="3.125" style="stroke:#038048;stroke-width:1.0416666666666667;"/><text fill="#D8BC00" font-family="Open Sans,Avenir,Nunito,Arial,Helvetica,SansSerif" font-size="11.4583" lengthAdjust="spacing" textLength="323.9583" x="52.0833" y="127.3722">Matcher&lt;Edge&gt; lessImportantThan(RoadFunctionalClass)</text><ellipse cx="40.625" cy="140.2059" fill="#84BE84" rx="3.125" ry="3.125" style="stroke:#038048;stroke-width:1.0416666666666667;"/><text fill="#D8BC00" font-family="Open Sans,Avenir,Nunito,Arial,Helvetica,SansSerif" font-size="11.4583" lengthAdjust="spacing" textLength="368.75" x="52.0833" y="147.1171">Matcher&lt;Edge&gt; lessImportantThanOrEqual(RoadFunctionalClass)</text><ellipse cx="40.625" cy="159.9508" fill="#84BE84" rx="3.125" ry="3.125" style="stroke:#038048;stroke-width:1.0416666666666667;"/><text fill="#D8BC00" font-family="Open Sans,Avenir,Nunito,Arial,Helvetica,SansSerif" font-size="11.4583" lengthAdjust="spacing" textLength="368.75" x="52.0833" y="166.862">Matcher&lt;Edge&gt; mainRoadMoreImportantThanOrEqual(RoadType)</text><ellipse cx="40.625" cy="179.6956" fill="#84BE84" rx="3.125" ry="3.125" style="stroke:#038048;stroke-width:1.0416666666666667;"/><text fill="#D8BC00" font-family="Open Sans,Avenir,Nunito,Arial,Helvetica,SansSerif" font-size="11.4583" lengthAdjust="spacing" textLength="269.7917" x="52.0833" y="186.6069">Matcher&lt;Edge&gt; moreImportantThan(RoadType)</text><ellipse cx="40.625" cy="199.4405" fill="#84BE84" rx="3.125" ry="3.125" style="stroke:#038048;stroke-width:1.0416666666666667;"/><text fill="#D8BC00" font-family="Open Sans,Avenir,Nunito,Arial,Helvetica,SansSerif" font-size="11.4583" lengthAdjust="spacing" textLength="331.25" x="52.0833" y="206.3517">Matcher&lt;Edge&gt; moreImportantThan(RoadFunctionalClass)</text><ellipse cx="40.625" cy="219.1854" fill="#84BE84" rx="3.125" ry="3.125" style="stroke:#038048;stroke-width:1.0416666666666667;"/><text fill="#D8BC00" font-family="Open Sans,Avenir,Nunito,Arial,Helvetica,SansSerif" font-size="11.4583" lengthAdjust="spacing" textLength="376.0417" x="52.0833" y="226.0966">Matcher&lt;Edge&gt; moreImportantThanOrEqual(RoadFunctionalClass)</text><ellipse cx="40.625" cy="238.9303" fill="#84BE84" rx="3.125" ry="3.125" style="stroke:#038048;stroke-width:1.0416666666666667;"/><text fill="#D8BC00" font-family="Open Sans,Avenir,Nunito,Arial,Helvetica,SansSerif" font-size="11.4583" lengthAdjust="spacing" textLength="314.5833" x="52.0833" y="245.8415">Matcher&lt;Edge&gt; moreImportantThanOrEqual(RoadType)</text><line style="stroke:#5E5E5E;stroke-width:1.0416666666666667;" x1="30.2083" x2="200" y1="103.2969" y2="103.2969"/><text fill="#D8BC00" font-family="Open Sans,Avenir,Nunito,Arial,Helvetica,SansSerif" font-size="11.4583" lengthAdjust="spacing" textLength="60.4167" x="203.125" y="107.1065">(matching)</text><line style="stroke:#5E5E5E;stroke-width:1.0416666666666667;" x1="266.6667" x2="436.4583" y1="103.2969" y2="103.2969"/></g></svg>
