<?xml version="1.0" encoding="UTF-8" standalone="no"?><svg xmlns="http://www.w3.org/2000/svg" xmlns:xlink="http://www.w3.org/1999/xlink" contentScriptType="application/ecmascript" contentStyleType="text/css" height="673.9583px" preserveAspectRatio="none" style="width:1262px;height:673px;background:#333333;" version="1.1" viewBox="0 0 1262 673" width="1262.5px" zoomAndPan="magnify"><defs/><g><rect fill="#48494B" height="41.2028" rx="8.3333" ry="8.3333" style="stroke:#545454;stroke-width:1.0416666666666667;" width="545.8333" x="351.3021" y="2.0833"/><text fill="#C0C0C0" font-family="Open Sans,Avenir,Nunito,Arial,Helvetica,SansSerif" font-size="20.8333" lengthAdjust="spacing" textLength="522.9167" x="362.7604" y="30.5583">com.telenav.mesakit.graph.library.osm.change.store</text><rect codeLine="7" fill="#282828" height="48.055" id="Iterable" rx="8.3333" ry="8.3333" style="stroke:#5E5E5E;stroke-width:1.0416666666666667;" width="86.4583" x="59.375" y="217.7653"/><rect fill="#1B1B1A" height="31.3883" rx="8.3333" ry="8.3333" style="stroke:#1B1B1A;stroke-width:1.0416666666666667;" width="86.4583" x="59.375" y="217.7653"/><rect fill="#1B1B1A" height="8.3333" style="stroke:#1B1B1A;stroke-width:1.0416666666666667;" width="86.4583" x="59.375" y="240.8203"/><rect codeLine="7" fill="none" height="48.055" id="Iterable" rx="8.3333" ry="8.3333" style="stroke:#5E5E5E;stroke-width:1.0416666666666667;" width="86.4583" x="59.375" y="217.7653"/><ellipse cx="73.9583" cy="233.4595" fill="#008400" rx="10.4167" ry="10.4167" style="stroke:#239C23;stroke-width:1.0416666666666667;"/><path d="M71.3623,230.6213 L71.3623,229.0344 L76.7883,229.0344 L76.7883,230.6213 L74.9756,230.6213 L74.9756,236.5601 L76.7883,236.5601 L76.7883,238.147 L71.3623,238.147 L71.3623,236.5601 L73.175,236.5601 L73.175,230.6213 Z " fill="#000000"/><text fill="#D8BC00" font-family="Open Sans,Avenir,Nunito,Arial,Helvetica,SansSerif" font-size="12.5" font-style="italic" font-weight="bold" lengthAdjust="spacing" textLength="48.9583" x="90.625" y="238.1836">Iterable</text><line style="stroke:#5E5E5E;stroke-width:1.0416666666666667;" x1="60.4167" x2="144.7917" y1="249.1536" y2="249.1536"/><line style="stroke:#5E5E5E;stroke-width:1.0416666666666667;" x1="60.4167" x2="144.7917" y1="257.487" y2="257.487"/><rect codeLine="9" fill="#282828" height="341.1499" id="ModifiedWayStore" rx="8.3333" ry="8.3333" style="stroke:#5E5E5E;stroke-width:1.0416666666666667;" width="703.125" x="182.2917" y="70.8903"/><rect fill="#1B1B1A" height="31.3883" rx="8.3333" ry="8.3333" style="stroke:#1B1B1A;stroke-width:1.0416666666666667;" width="703.125" x="182.2917" y="70.8903"/><rect fill="#1B1B1A" height="8.3333" style="stroke:#1B1B1A;stroke-width:1.0416666666666667;" width="703.125" x="182.2917" y="93.9453"/><rect codeLine="9" fill="none" height="341.1499" id="ModifiedWayStore" rx="8.3333" ry="8.3333" style="stroke:#5E5E5E;stroke-width:1.0416666666666667;" width="703.125" x="182.2917" y="70.8903"/><ellipse cx="468.2292" cy="86.5845" fill="#0066CF" rx="10.4167" ry="10.4167" style="stroke:#0086EF;stroke-width:1.0416666666666667;"/><path d="M470.1396,91.0095 Q469.7123,91.2292 469.2424,91.3391 Q468.7724,91.449 468.2536,91.449 Q466.4103,91.449 465.4399,90.2344 Q464.4694,89.0198 464.4694,86.7249 Q464.4694,84.4238 465.4399,83.2092 Q466.4103,81.9946 468.2536,81.9946 Q468.7724,81.9946 469.2485,82.1045 Q469.7245,82.2144 470.1396,82.4341 L470.1396,84.436 Q469.6757,84.0088 469.2393,83.8104 Q468.8029,83.6121 468.339,83.6121 Q467.3503,83.6121 466.8467,84.3964 Q466.3432,85.1807 466.3432,86.7249 Q466.3432,88.2629 466.8467,89.0472 Q467.3503,89.8315 468.339,89.8315 Q468.8029,89.8315 469.2393,89.6332 Q469.6757,89.4348 470.1396,89.0076 Z " fill="#000000"/><text fill="#D8BC00" font-family="Open Sans,Avenir,Nunito,Arial,Helvetica,SansSerif" font-size="12.5" font-weight="bold" lengthAdjust="spacing" textLength="116.6667" x="491.1458" y="91.3086">ModifiedWayStore</text><line style="stroke:#5E5E5E;stroke-width:1.5625;" x1="183.3333" x2="884.375" y1="102.2786" y2="102.2786"/><ellipse cx="193.75" cy="137.6485" fill="#84BE84" rx="3.125" ry="3.125" style="stroke:#038048;stroke-width:1.0416666666666667;"/><text fill="#D8BC00" font-family="Open Sans,Avenir,Nunito,Arial,Helvetica,SansSerif" font-size="11.4583" lengthAdjust="spacing" textLength="183.3333" x="205.2083" y="144.5597">ModifiedWayStore(PbfNodeStore)</text><line style="stroke:#5E5E5E;stroke-width:1.0416666666666667;" x1="183.3333" x2="490.1042" y1="120.4844" y2="120.4844"/><text fill="#D8BC00" font-family="Open Sans,Avenir,Nunito,Arial,Helvetica,SansSerif" font-size="11.4583" lengthAdjust="spacing" textLength="81.25" x="493.2292" y="124.294">(constructors)</text><line style="stroke:#5E5E5E;stroke-width:1.0416666666666667;" x1="577.6042" x2="884.375" y1="120.4844" y2="120.4844"/><line style="stroke:#5E5E5E;stroke-width:1.0416666666666667;" x1="183.3333" x2="884.375" y1="154.2684" y2="154.2684"/><ellipse cx="193.75" cy="165.7267" fill="#84BE84" rx="3.125" ry="3.125" style="stroke:#038048;stroke-width:1.0416666666666667;"/><text fill="#D8BC00" font-family="Open Sans,Avenir,Nunito,Arial,Helvetica,SansSerif" font-size="11.4583" lengthAdjust="spacing" textLength="184.375" x="205.2083" y="172.6379">MutableWay modifiableWay(Edge)</text><ellipse cx="193.75" cy="185.4716" fill="#84BE84" rx="3.125" ry="3.125" style="stroke:#038048;stroke-width:1.0416666666666667;"/><text fill="#D8BC00" font-family="Open Sans,Avenir,Nunito,Arial,Helvetica,SansSerif" font-size="11.4583" lengthAdjust="spacing" textLength="670.8333" x="205.2083" y="192.3828">MutableWay modifiableWay(PbfUserIdentifier, PbfUserName, PbfWayIdentifier, Polyline shape, PbfTagList tags, int version)</text><ellipse cx="193.75" cy="205.2165" fill="#84BE84" rx="3.125" ry="3.125" style="stroke:#038048;stroke-width:1.0416666666666667;"/><text fill="#D8BC00" font-family="Open Sans,Avenir,Nunito,Arial,Helvetica,SansSerif" font-size="11.4583" lengthAdjust="spacing" textLength="121.875" x="205.2083" y="212.1277">PbfNodeStore nodes()</text><ellipse cx="193.75" cy="248.8729" fill="#84BE84" rx="3.125" ry="3.125" style="stroke:#038048;stroke-width:1.0416666666666667;"/><text fill="#D8BC00" font-family="Open Sans,Avenir,Nunito,Arial,Helvetica,SansSerif" font-size="11.4583" lengthAdjust="spacing" textLength="227.0833" x="205.2083" y="255.7841">List&lt;PbfWay&gt; asWays(boolean modified)</text><ellipse cx="193.75" cy="268.6178" fill="#84BE84" rx="3.125" ry="3.125" style="stroke:#038048;stroke-width:1.0416666666666667;"/><text fill="#D8BC00" font-family="Open Sans,Avenir,Nunito,Arial,Helvetica,SansSerif" font-size="11.4583" lengthAdjust="spacing" textLength="100" x="205.2083" y="275.529">boolean isEmpty()</text><ellipse cx="193.75" cy="288.3626" fill="#84BE84" rx="3.125" ry="3.125" style="stroke:#038048;stroke-width:1.0416666666666667;"/><text fill="#D8BC00" font-family="Open Sans,Avenir,Nunito,Arial,Helvetica,SansSerif" font-size="11.4583" lengthAdjust="spacing" textLength="67.7083" x="205.2083" y="295.2738">Count size()</text><line style="stroke:#5E5E5E;stroke-width:1.0416666666666667;" x1="183.3333" x2="499.4792" y1="231.7088" y2="231.7088"/><text fill="#D8BC00" font-family="Open Sans,Avenir,Nunito,Arial,Helvetica,SansSerif" font-size="11.4583" lengthAdjust="spacing" textLength="62.5" x="502.6042" y="235.5184">(collection)</text><line style="stroke:#5E5E5E;stroke-width:1.0416666666666667;" x1="568.2292" x2="884.375" y1="231.7088" y2="231.7088"/><ellipse cx="193.75" cy="332.019" fill="#84BE84" rx="3.125" ry="3.125" style="stroke:#038048;stroke-width:1.0416666666666667;"/><text fill="#D8BC00" font-family="Open Sans,Avenir,Nunito,Arial,Helvetica,SansSerif" font-size="11.4583" lengthAdjust="spacing" textLength="229.1667" x="205.2083" y="338.9303">Collection&lt;MutableWay&gt; modifiedWays()</text><ellipse cx="193.75" cy="351.7639" fill="#84BE84" rx="3.125" ry="3.125" style="stroke:#038048;stroke-width:1.0416666666666667;"/><text fill="#D8BC00" font-family="Open Sans,Avenir,Nunito,Arial,Helvetica,SansSerif" font-size="11.4583" lengthAdjust="spacing" textLength="159.375" x="205.2083" y="358.6751">void saveModified(PbfWriter)</text><line style="stroke:#5E5E5E;stroke-width:1.0416666666666667;" x1="183.3333" x2="514.5833" y1="314.8549" y2="314.8549"/><text fill="#D8BC00" font-family="Open Sans,Avenir,Nunito,Arial,Helvetica,SansSerif" font-size="11.4583" lengthAdjust="spacing" textLength="32.2917" x="517.7083" y="318.6646">(time)</text><line style="stroke:#5E5E5E;stroke-width:1.0416666666666667;" x1="553.125" x2="884.375" y1="314.8549" y2="314.8549"/><ellipse cx="193.75" cy="395.4203" fill="#84BE84" rx="3.125" ry="3.125" style="stroke:#038048;stroke-width:1.0416666666666667;"/><text fill="#D8BC00" font-family="Open Sans,Avenir,Nunito,Arial,Helvetica,SansSerif" font-size="11.4583" lengthAdjust="spacing" textLength="126.0417" x="205.2083" y="402.3315">void saveAll(PbfWriter)</text><line style="stroke:#5E5E5E;stroke-width:1.0416666666666667;" x1="183.3333" x2="513.0208" y1="378.2562" y2="378.2562"/><text fill="#D8BC00" font-family="Open Sans,Avenir,Nunito,Arial,Helvetica,SansSerif" font-size="11.4583" lengthAdjust="spacing" textLength="35.4167" x="516.1458" y="382.0658">(write)</text><line style="stroke:#5E5E5E;stroke-width:1.0416666666666667;" x1="554.6875" x2="884.375" y1="378.2562" y2="378.2562"/><rect codeLine="29" fill="#282828" height="174.8576" id="NewWayStore" rx="8.3333" ry="8.3333" style="stroke:#5E5E5E;stroke-width:1.0416666666666667;" width="190.625" x="7.2917" y="492.2445"/><rect fill="#1B1B1A" height="31.3883" rx="8.3333" ry="8.3333" style="stroke:#1B1B1A;stroke-width:1.0416666666666667;" width="190.625" x="7.2917" y="492.2445"/><rect fill="#1B1B1A" height="8.3333" style="stroke:#1B1B1A;stroke-width:1.0416666666666667;" width="190.625" x="7.2917" y="515.2995"/><rect codeLine="29" fill="none" height="174.8576" id="NewWayStore" rx="8.3333" ry="8.3333" style="stroke:#5E5E5E;stroke-width:1.0416666666666667;" width="190.625" x="7.2917" y="492.2445"/><ellipse cx="52.0833" cy="507.9386" fill="#0066CF" rx="10.4167" ry="10.4167" style="stroke:#0086EF;stroke-width:1.0416666666666667;"/><path d="M53.9937,512.3637 Q53.5665,512.5834 53.0965,512.6933 Q52.6265,512.8031 52.1077,512.8031 Q50.2645,512.8031 49.294,511.5885 Q48.3236,510.3739 48.3236,508.079 Q48.3236,505.778 49.294,504.5634 Q50.2645,503.3488 52.1077,503.3488 Q52.6265,503.3488 53.1026,503.4587 Q53.5787,503.5685 53.9937,503.7882 L53.9937,505.7902 Q53.5299,505.363 53.0935,505.1646 Q52.6571,504.9662 52.1932,504.9662 Q51.2044,504.9662 50.7009,505.7505 Q50.1973,506.5348 50.1973,508.079 Q50.1973,509.6171 50.7009,510.4014 Q51.2044,511.1857 52.1932,511.1857 Q52.6571,511.1857 53.0935,510.9873 Q53.5299,510.789 53.9937,510.3617 Z " fill="#000000"/><text fill="#D8BC00" font-family="Open Sans,Avenir,Nunito,Arial,Helvetica,SansSerif" font-size="12.5" font-weight="bold" lengthAdjust="spacing" textLength="86.4583" x="75" y="512.6628">NewWayStore</text><line style="stroke:#5E5E5E;stroke-width:1.5625;" x1="8.3333" x2="196.875" y1="523.6328" y2="523.6328"/><line style="stroke:#5E5E5E;stroke-width:1.0416666666666667;" x1="8.3333" x2="196.875" y1="531.9661" y2="531.9661"/><ellipse cx="18.75" cy="543.4245" fill="#84BE84" rx="3.125" ry="3.125" style="stroke:#038048;stroke-width:1.0416666666666667;"/><text fill="#D8BC00" font-family="Open Sans,Avenir,Nunito,Arial,Helvetica,SansSerif" font-size="11.4583" lengthAdjust="spacing" textLength="123.9583" x="30.2083" y="550.3357">void referenceNodes()</text><ellipse cx="18.75" cy="587.0809" fill="#84BE84" rx="3.125" ry="3.125" style="stroke:#038048;stroke-width:1.0416666666666667;"/><text fill="#D8BC00" font-family="Open Sans,Avenir,Nunito,Arial,Helvetica,SansSerif" font-size="11.4583" lengthAdjust="spacing" textLength="101.0417" x="30.2083" y="593.9921">void add(NewWay)</text><ellipse cx="18.75" cy="606.8258" fill="#84BE84" rx="3.125" ry="3.125" style="stroke:#038048;stroke-width:1.0416666666666667;"/><text fill="#D8BC00" font-family="Open Sans,Avenir,Nunito,Arial,Helvetica,SansSerif" font-size="11.4583" lengthAdjust="spacing" textLength="100" x="30.2083" y="613.737">boolean isEmpty()</text><line style="stroke:#5E5E5E;stroke-width:1.0416666666666667;" x1="8.3333" x2="68.2292" y1="569.9168" y2="569.9168"/><text fill="#D8BC00" font-family="Open Sans,Avenir,Nunito,Arial,Helvetica,SansSerif" font-size="11.4583" lengthAdjust="spacing" textLength="62.5" x="71.3542" y="573.7264">(collection)</text><line style="stroke:#5E5E5E;stroke-width:1.0416666666666667;" x1="136.9792" x2="196.875" y1="569.9168" y2="569.9168"/><ellipse cx="18.75" cy="650.4822" fill="#84BE84" rx="3.125" ry="3.125" style="stroke:#038048;stroke-width:1.0416666666666667;"/><text fill="#D8BC00" font-family="Open Sans,Avenir,Nunito,Arial,Helvetica,SansSerif" font-size="11.4583" lengthAdjust="spacing" textLength="158.3333" x="30.2083" y="657.3934">Collection&lt;NewWay&gt; ways()</text><line style="stroke:#5E5E5E;stroke-width:1.0416666666666667;" x1="8.3333" x2="75.5208" y1="633.3181" y2="633.3181"/><text fill="#D8BC00" font-family="Open Sans,Avenir,Nunito,Arial,Helvetica,SansSerif" font-size="11.4583" lengthAdjust="spacing" textLength="47.9167" x="78.6458" y="637.1277">(factory)</text><line style="stroke:#5E5E5E;stroke-width:1.0416666666666667;" x1="129.6875" x2="196.875" y1="633.3181" y2="633.3181"/><rect codeLine="40" fill="#282828" height="376.473" id="PbfNodeStore" rx="8.3333" ry="8.3333" style="stroke:#5E5E5E;stroke-width:1.0416666666666667;" width="333.3333" x="922.3958" y="53.7028"/><rect fill="#1B1B1A" height="31.3883" rx="8.3333" ry="8.3333" style="stroke:#1B1B1A;stroke-width:1.0416666666666667;" width="333.3333" x="922.3958" y="53.7028"/><rect fill="#1B1B1A" height="8.3333" style="stroke:#1B1B1A;stroke-width:1.0416666666666667;" width="333.3333" x="922.3958" y="76.7578"/><rect codeLine="40" fill="none" height="376.473" id="PbfNodeStore" rx="8.3333" ry="8.3333" style="stroke:#5E5E5E;stroke-width:1.0416666666666667;" width="333.3333" x="922.3958" y="53.7028"/><ellipse cx="1038.0208" cy="69.397" fill="#0066CF" rx="10.4167" ry="10.4167" style="stroke:#0086EF;stroke-width:1.0416666666666667;"/><path d="M1039.9312,73.822 Q1039.504,74.0417 1039.034,74.1516 Q1038.564,74.2615 1038.0452,74.2615 Q1036.202,74.2615 1035.2315,73.0469 Q1034.2611,71.8323 1034.2611,69.5374 Q1034.2611,67.2363 1035.2315,66.0217 Q1036.202,64.8071 1038.0452,64.8071 Q1038.564,64.8071 1039.0401,64.917 Q1039.5162,65.0269 1039.9312,65.2466 L1039.9312,67.2485 Q1039.4674,66.8213 1039.031,66.6229 Q1038.5946,66.4246 1038.1307,66.4246 Q1037.1419,66.4246 1036.6384,67.2089 Q1036.1348,67.9932 1036.1348,69.5374 Q1036.1348,71.0754 1036.6384,71.8597 Q1037.1419,72.644 1038.1307,72.644 Q1038.5946,72.644 1039.031,72.4457 Q1039.4674,72.2473 1039.9312,71.8201 Z " fill="#000000"/><text fill="#D8BC00" font-family="Open Sans,Avenir,Nunito,Arial,Helvetica,SansSerif" font-size="12.5" font-weight="bold" lengthAdjust="spacing" textLength="87.5" x="1060.9375" y="74.1211">PbfNodeStore</text><line style="stroke:#5E5E5E;stroke-width:1.5625;" x1="923.4375" x2="1254.6875" y1="85.0911" y2="85.0911"/><ellipse cx="933.8542" cy="120.461" fill="#84BE84" rx="3.125" ry="3.125" style="stroke:#038048;stroke-width:1.0416666666666667;"/><text fill="#D8BC00" font-family="Open Sans,Avenir,Nunito,Arial,Helvetica,SansSerif" font-size="11.4583" lengthAdjust="spacing" textLength="118.75" x="945.3125" y="127.3722">PbfNodeStore(Graph)</text><line style="stroke:#5E5E5E;stroke-width:1.0416666666666667;" x1="923.4375" x2="1045.3125" y1="103.2969" y2="103.2969"/><text fill="#D8BC00" font-family="Open Sans,Avenir,Nunito,Arial,Helvetica,SansSerif" font-size="11.4583" lengthAdjust="spacing" textLength="81.25" x="1048.4375" y="107.1065">(constructors)</text><line style="stroke:#5E5E5E;stroke-width:1.0416666666666667;" x1="1132.8125" x2="1254.6875" y1="103.2969" y2="103.2969"/><line style="stroke:#5E5E5E;stroke-width:1.0416666666666667;" x1="923.4375" x2="1254.6875" y1="137.0809" y2="137.0809"/><ellipse cx="933.8542" cy="148.5392" fill="#84BE84" rx="3.125" ry="3.125" style="stroke:#038048;stroke-width:1.0416666666666667;"/><text fill="#D8BC00" font-family="Open Sans,Avenir,Nunito,Arial,Helvetica,SansSerif" font-size="11.4583" lengthAdjust="spacing" textLength="150" x="945.3125" y="155.4504">void dereference(Location)</text><ellipse cx="933.8542" cy="168.2841" fill="#84BE84" rx="3.125" ry="3.125" style="stroke:#038048;stroke-width:1.0416666666666667;"/><text fill="#D8BC00" font-family="Open Sans,Avenir,Nunito,Arial,Helvetica,SansSerif" font-size="11.4583" lengthAdjust="spacing" textLength="201.0417" x="945.3125" y="175.1953">Location location(PbfNodeIdentifier)</text><ellipse cx="933.8542" cy="188.029" fill="#84BE84" rx="3.125" ry="3.125" style="stroke:#038048;stroke-width:1.0416666666666667;"/><text fill="#D8BC00" font-family="Open Sans,Avenir,Nunito,Arial,Helvetica,SansSerif" font-size="11.4583" lengthAdjust="spacing" textLength="136.4583" x="945.3125" y="194.9402">void reference(Location)</text><ellipse cx="933.8542" cy="207.7738" fill="#84BE84" rx="3.125" ry="3.125" style="stroke:#038048;stroke-width:1.0416666666666667;"/><text fill="#D8BC00" font-family="Open Sans,Avenir,Nunito,Arial,Helvetica,SansSerif" font-size="11.4583" lengthAdjust="spacing" textLength="301.0417" x="945.3125" y="214.6851">PbfNodeStore subset(Set&lt;PbfNodeIdentifier&gt; include)</text><ellipse cx="933.8542" cy="251.4303" fill="#84BE84" rx="3.125" ry="3.125" style="stroke:#038048;stroke-width:1.0416666666666667;"/><text fill="#D8BC00" font-family="Open Sans,Avenir,Nunito,Arial,Helvetica,SansSerif" font-size="11.4583" lengthAdjust="spacing" textLength="144.7917" x="945.3125" y="258.3415">List&lt;PbfNode&gt; asNodes()</text><ellipse cx="933.8542" cy="271.1751" fill="#84BE84" rx="3.125" ry="3.125" style="stroke:#038048;stroke-width:1.0416666666666667;"/><text fill="#D8BC00" font-family="Open Sans,Avenir,Nunito,Arial,Helvetica,SansSerif" font-size="11.4583" lengthAdjust="spacing" textLength="152.0833" x="945.3125" y="278.0863">boolean contains(Location)</text><ellipse cx="933.8542" cy="290.92" fill="#84BE84" rx="3.125" ry="3.125" style="stroke:#038048;stroke-width:1.0416666666666667;"/><text fill="#D8BC00" font-family="Open Sans,Avenir,Nunito,Arial,Helvetica,SansSerif" font-size="11.4583" lengthAdjust="spacing" textLength="225" x="945.3125" y="297.8312">Iterable&lt;PbfNodeIdentifier&gt; identifiers()</text><ellipse cx="933.8542" cy="310.6649" fill="#84BE84" rx="3.125" ry="3.125" style="stroke:#038048;stroke-width:1.0416666666666667;"/><text fill="#D8BC00" font-family="Open Sans,Avenir,Nunito,Arial,Helvetica,SansSerif" font-size="11.4583" lengthAdjust="spacing" textLength="170.8333" x="945.3125" y="317.5761">Iterable&lt;Location&gt; locations()</text><ellipse cx="933.8542" cy="330.4097" fill="#84BE84" rx="3.125" ry="3.125" style="stroke:#038048;stroke-width:1.0416666666666667;"/><text fill="#D8BC00" font-family="Open Sans,Avenir,Nunito,Arial,Helvetica,SansSerif" font-size="11.4583" lengthAdjust="spacing" textLength="67.7083" x="945.3125" y="337.321">Count size()</text><line style="stroke:#5E5E5E;stroke-width:1.0416666666666667;" x1="923.4375" x2="1054.6875" y1="234.2662" y2="234.2662"/><text fill="#D8BC00" font-family="Open Sans,Avenir,Nunito,Arial,Helvetica,SansSerif" font-size="11.4583" lengthAdjust="spacing" textLength="62.5" x="1057.8125" y="238.0758">(collection)</text><line style="stroke:#5E5E5E;stroke-width:1.0416666666666667;" x1="1123.4375" x2="1254.6875" y1="234.2662" y2="234.2662"/><ellipse cx="933.8542" cy="374.0662" fill="#84BE84" rx="3.125" ry="3.125" style="stroke:#038048;stroke-width:1.0416666666666667;"/><text fill="#D8BC00" font-family="Open Sans,Avenir,Nunito,Arial,Helvetica,SansSerif" font-size="11.4583" lengthAdjust="spacing" textLength="206.25" x="945.3125" y="380.9774">PbfNodeIdentifier identifier(Location)</text><ellipse cx="933.8542" cy="393.811" fill="#84BE84" rx="3.125" ry="3.125" style="stroke:#038048;stroke-width:1.0416666666666667;"/><text fill="#D8BC00" font-family="Open Sans,Avenir,Nunito,Arial,Helvetica,SansSerif" font-size="11.4583" lengthAdjust="spacing" textLength="212.5" x="945.3125" y="400.7222">PbfNodeIdentifier nextNodeIdentifier()</text><ellipse cx="933.8542" cy="413.5559" fill="#84BE84" rx="3.125" ry="3.125" style="stroke:#038048;stroke-width:1.0416666666666667;"/><text fill="#D8BC00" font-family="Open Sans,Avenir,Nunito,Arial,Helvetica,SansSerif" font-size="11.4583" lengthAdjust="spacing" textLength="197.9167" x="945.3125" y="420.4671">PbfWayIdentifier nextWayIdentifier()</text><line style="stroke:#5E5E5E;stroke-width:1.0416666666666667;" x1="923.4375" x2="1060.9375" y1="356.9021" y2="356.9021"/><text fill="#D8BC00" font-family="Open Sans,Avenir,Nunito,Arial,Helvetica,SansSerif" font-size="11.4583" lengthAdjust="spacing" textLength="50" x="1064.0625" y="360.7117">(identity)</text><line style="stroke:#5E5E5E;stroke-width:1.0416666666666667;" x1="1117.1875" x2="1254.6875" y1="356.9021" y2="356.9021"/><path codeLine="28" d="M102.6042,286.6924 C102.6042,338.6507 102.6042,426.3695 102.6042,492.1299 " fill="none" id="Iterable-backto-NewWayStore" style="stroke:#545454;stroke-width:1.5625;"/><polygon fill="none" points="95.3125,286.6924,102.6042,265.859,109.8958,286.6924,95.3125,286.6924" style="stroke:#545454;stroke-width:1.5625;"/></g></svg>
