<?xml version="1.0" encoding="UTF-8" standalone="no"?><svg xmlns="http://www.w3.org/2000/svg" xmlns:xlink="http://www.w3.org/1999/xlink" contentScriptType="application/ecmascript" contentStyleType="text/css" height="254.1667px" preserveAspectRatio="none" style="width:728px;height:254px;background:#333333;" version="1.1" viewBox="0 0 728 254" width="728.125px" zoomAndPan="magnify"><defs/><g><rect fill="#48494B" height="41.2028" rx="8.3333" ry="8.3333" style="stroke:#545454;stroke-width:1.0416666666666667;" width="715.625" x="2.0833" y="2.0833"/><text fill="#C0C0C0" font-family="Open Sans,Avenir,Nunito,Arial,Helvetica,SansSerif" font-size="20.8333" lengthAdjust="spacing" textLength="692.7083" x="13.5417" y="30.5583">com.telenav.mesakit.graph.specifications.common.vertex.store.index</text><rect fill="#282828" height="48.055" id="GraphElementSpatialIndex" rx="8.3333" ry="8.3333" style="stroke:#5E5E5E;stroke-width:1.0416666666666667;" width="207.2917" x="263.5417" y="53.7028"/><rect fill="#1B1B1A" height="31.3883" rx="8.3333" ry="8.3333" style="stroke:#1B1B1A;stroke-width:1.0416666666666667;" width="207.2917" x="263.5417" y="53.7028"/><rect fill="#1B1B1A" height="8.3333" style="stroke:#1B1B1A;stroke-width:1.0416666666666667;" width="207.2917" x="263.5417" y="76.7578"/><rect fill="none" height="48.055" id="GraphElementSpatialIndex" rx="8.3333" ry="8.3333" style="stroke:#5E5E5E;stroke-width:1.0416666666666667;" width="207.2917" x="263.5417" y="53.7028"/><ellipse cx="278.125" cy="69.397" fill="#0066CF" rx="10.4167" ry="10.4167" style="stroke:#0086EF;stroke-width:1.0416666666666667;"/><path d="M280.0354,73.822 Q279.6082,74.0417 279.1382,74.1516 Q278.6682,74.2615 278.1494,74.2615 Q276.3062,74.2615 275.3357,73.0469 Q274.3652,71.8323 274.3652,69.5374 Q274.3652,67.2363 275.3357,66.0217 Q276.3062,64.8071 278.1494,64.8071 Q278.6682,64.8071 279.1443,64.917 Q279.6204,65.0269 280.0354,65.2466 L280.0354,67.2485 Q279.5715,66.8213 279.1351,66.6229 Q278.6987,66.4246 278.2349,66.4246 Q277.2461,66.4246 276.7426,67.2089 Q276.239,67.9932 276.239,69.5374 Q276.239,71.0754 276.7426,71.8597 Q277.2461,72.644 278.2349,72.644 Q278.6987,72.644 279.1351,72.4457 Q279.5715,72.2473 280.0354,71.8201 Z " fill="#000000"/><text fill="#D8BC00" font-family="Open Sans,Avenir,Nunito,Arial,Helvetica,SansSerif" font-size="12.5" font-weight="bold" lengthAdjust="spacing" textLength="169.7917" x="294.7917" y="74.1211">GraphElementSpatialIndex</text><line style="stroke:#5E5E5E;stroke-width:1.0416666666666667;" x1="264.5833" x2="469.7917" y1="85.0911" y2="85.0911"/><line style="stroke:#5E5E5E;stroke-width:1.0416666666666667;" x1="264.5833" x2="469.7917" y1="93.4245" y2="93.4245"/><rect codeLine="8" fill="#282828" height="83.3781" id="VertexSpatialIndex" rx="8.3333" ry="8.3333" style="stroke:#5E5E5E;stroke-width:1.0416666666666667;" width="219.7917" x="257.2917" y="164.1195"/><rect fill="#1B1B1A" height="31.3883" rx="8.3333" ry="8.3333" style="stroke:#1B1B1A;stroke-width:1.0416666666666667;" width="219.7917" x="257.2917" y="164.1195"/><rect fill="#1B1B1A" height="8.3333" style="stroke:#1B1B1A;stroke-width:1.0416666666666667;" width="219.7917" x="257.2917" y="187.1745"/><rect codeLine="8" fill="none" height="83.3781" id="VertexSpatialIndex" rx="8.3333" ry="8.3333" style="stroke:#5E5E5E;stroke-width:1.0416666666666667;" width="219.7917" x="257.2917" y="164.1195"/><ellipse cx="300" cy="179.8136" fill="#0066CF" rx="10.4167" ry="10.4167" style="stroke:#0086EF;stroke-width:1.0416666666666667;"/><path d="M301.9104,184.2387 Q301.4832,184.4584 301.0132,184.5683 Q300.5432,184.6781 300.0244,184.6781 Q298.1812,184.6781 297.2107,183.4635 Q296.2402,182.2489 296.2402,179.954 Q296.2402,177.653 297.2107,176.4384 Q298.1812,175.2238 300.0244,175.2238 Q300.5432,175.2238 301.0193,175.3337 Q301.4954,175.4435 301.9104,175.6632 L301.9104,177.6652 Q301.4465,177.238 301.0101,177.0396 Q300.5737,176.8412 300.1099,176.8412 Q299.1211,176.8412 298.6176,177.6255 Q298.114,178.4098 298.114,179.954 Q298.114,181.4921 298.6176,182.2764 Q299.1211,183.0607 300.1099,183.0607 Q300.5737,183.0607 301.0101,182.8623 Q301.4465,182.664 301.9104,182.2367 Z " fill="#000000"/><text fill="#D8BC00" font-family="Open Sans,Avenir,Nunito,Arial,Helvetica,SansSerif" font-size="12.5" font-weight="bold" lengthAdjust="spacing" textLength="119.7917" x="322.9167" y="184.5378">VertexSpatialIndex</text><line style="stroke:#5E5E5E;stroke-width:1.5625;" x1="258.3333" x2="476.0417" y1="195.5078" y2="195.5078"/><ellipse cx="268.75" cy="230.8777" fill="#84BE84" rx="3.125" ry="3.125" style="stroke:#038048;stroke-width:1.0416666666666667;"/><text fill="#D8BC00" font-family="Open Sans,Avenir,Nunito,Arial,Helvetica,SansSerif" font-size="11.4583" lengthAdjust="spacing" textLength="187.5" x="280.2083" y="237.7889">VertexSpatialIndex(Graph, Count)</text><line style="stroke:#5E5E5E;stroke-width:1.0416666666666667;" x1="258.3333" x2="323.4375" y1="213.7136" y2="213.7136"/><text fill="#D8BC00" font-family="Open Sans,Avenir,Nunito,Arial,Helvetica,SansSerif" font-size="11.4583" lengthAdjust="spacing" textLength="81.25" x="326.5625" y="217.5232">(constructors)</text><line style="stroke:#5E5E5E;stroke-width:1.0416666666666667;" x1="410.9375" x2="476.0417" y1="213.7136" y2="213.7136"/><path codeLine="7" d="M367.1875,122.682 C367.1875,136.0778 367.1875,150.7445 367.1875,163.9215 " fill="none" id="GraphElementSpatialIndex-backto-VertexSpatialIndex" style="stroke:#545454;stroke-width:1.5625;"/><polygon fill="none" points="359.8958,122.6507,367.1875,101.8174,374.4792,122.6507,359.8958,122.6507" style="stroke:#545454;stroke-width:1.5625;"/></g></svg>
