<?xml version="1.0" encoding="UTF-8" standalone="no"?><svg xmlns="http://www.w3.org/2000/svg" xmlns:xlink="http://www.w3.org/1999/xlink" contentScriptType="application/ecmascript" contentStyleType="text/css" height="365.625px" preserveAspectRatio="none" style="width:561px;height:365px;background:#333333;" version="1.1" viewBox="0 0 561 365" width="561.4583px" zoomAndPan="magnify"><defs/><g><rect fill="#48494B" height="41.2028" rx="8.3333" ry="8.3333" style="stroke:#545454;stroke-width:1.0416666666666667;" width="548.9583" x="2.0833" y="2.0833"/><text fill="#C0C0C0" font-family="Open Sans,Avenir,Nunito,Arial,Helvetica,SansSerif" font-size="20.8333" lengthAdjust="spacing" textLength="526.0417" x="13.5417" y="30.5583">com.telenav.mesakit.graph.specifications.osm.graph</text><rect fill="#282828" height="48.055" id="CommonGraph" rx="8.3333" ry="8.3333" style="stroke:#5E5E5E;stroke-width:1.0416666666666667;" width="135.4167" x="216.1458" y="53.7028"/><rect fill="#1B1B1A" height="31.3883" rx="8.3333" ry="8.3333" style="stroke:#1B1B1A;stroke-width:1.0416666666666667;" width="135.4167" x="216.1458" y="53.7028"/><rect fill="#1B1B1A" height="8.3333" style="stroke:#1B1B1A;stroke-width:1.0416666666666667;" width="135.4167" x="216.1458" y="76.7578"/><rect fill="none" height="48.055" id="CommonGraph" rx="8.3333" ry="8.3333" style="stroke:#5E5E5E;stroke-width:1.0416666666666667;" width="135.4167" x="216.1458" y="53.7028"/><ellipse cx="230.7292" cy="69.397" fill="#0066CF" rx="10.4167" ry="10.4167" style="stroke:#0086EF;stroke-width:1.0416666666666667;"/><path d="M232.6396,73.822 Q232.2123,74.0417 231.7424,74.1516 Q231.2724,74.2615 230.7536,74.2615 Q228.9103,74.2615 227.9399,73.0469 Q226.9694,71.8323 226.9694,69.5374 Q226.9694,67.2363 227.9399,66.0217 Q228.9103,64.8071 230.7536,64.8071 Q231.2724,64.8071 231.7485,64.917 Q232.2245,65.0269 232.6396,65.2466 L232.6396,67.2485 Q232.1757,66.8213 231.7393,66.6229 Q231.3029,66.4246 230.839,66.4246 Q229.8503,66.4246 229.3467,67.2089 Q228.8432,67.9932 228.8432,69.5374 Q228.8432,71.0754 229.3467,71.8597 Q229.8503,72.644 230.839,72.644 Q231.3029,72.644 231.7393,72.4457 Q232.1757,72.2473 232.6396,71.8201 Z " fill="#000000"/><text fill="#D8BC00" font-family="Open Sans,Avenir,Nunito,Arial,Helvetica,SansSerif" font-size="12.5" font-weight="bold" lengthAdjust="spacing" textLength="97.9167" x="247.3958" y="74.1211">CommonGraph</text><line style="stroke:#5E5E5E;stroke-width:1.0416666666666667;" x1="217.1875" x2="350.5208" y1="85.0911" y2="85.0911"/><line style="stroke:#5E5E5E;stroke-width:1.0416666666666667;" x1="217.1875" x2="350.5208" y1="93.4245" y2="93.4245"/><rect codeLine="8" fill="#282828" height="194.6025" id="OsmGraph" rx="8.3333" ry="8.3333" style="stroke:#5E5E5E;stroke-width:1.0416666666666667;" width="221.875" x="172.9167" y="164.1195"/><rect fill="#1B1B1A" height="31.3883" rx="8.3333" ry="8.3333" style="stroke:#1B1B1A;stroke-width:1.0416666666666667;" width="221.875" x="172.9167" y="164.1195"/><rect fill="#1B1B1A" height="8.3333" style="stroke:#1B1B1A;stroke-width:1.0416666666666667;" width="221.875" x="172.9167" y="187.1745"/><rect codeLine="8" fill="none" height="194.6025" id="OsmGraph" rx="8.3333" ry="8.3333" style="stroke:#5E5E5E;stroke-width:1.0416666666666667;" width="221.875" x="172.9167" y="164.1195"/><ellipse cx="242.1875" cy="179.8136" fill="#0066CF" rx="10.4167" ry="10.4167" style="stroke:#0086EF;stroke-width:1.0416666666666667;"/><path d="M244.0979,184.2387 Q243.6707,184.4584 243.2007,184.5683 Q242.7307,184.6781 242.2119,184.6781 Q240.3687,184.6781 239.3982,183.4635 Q238.4277,182.2489 238.4277,179.954 Q238.4277,177.653 239.3982,176.4384 Q240.3687,175.2238 242.2119,175.2238 Q242.7307,175.2238 243.2068,175.3337 Q243.6829,175.4435 244.0979,175.6632 L244.0979,177.6652 Q243.634,177.238 243.1976,177.0396 Q242.7612,176.8412 242.2974,176.8412 Q241.3086,176.8412 240.8051,177.6255 Q240.3015,178.4098 240.3015,179.954 Q240.3015,181.4921 240.8051,182.2764 Q241.3086,183.0607 242.2974,183.0607 Q242.7612,183.0607 243.1976,182.8623 Q243.634,182.664 244.0979,182.2367 Z " fill="#000000"/><text fill="#D8BC00" font-family="Open Sans,Avenir,Nunito,Arial,Helvetica,SansSerif" font-size="12.5" font-weight="bold" lengthAdjust="spacing" textLength="68.75" x="265.1042" y="184.5378">OsmGraph</text><line style="stroke:#5E5E5E;stroke-width:1.5625;" x1="173.9583" x2="393.75" y1="195.5078" y2="195.5078"/><ellipse cx="184.375" cy="230.8777" fill="#84BE84" rx="3.125" ry="3.125" style="stroke:#038048;stroke-width:1.0416666666666667;"/><text fill="#D8BC00" font-family="Open Sans,Avenir,Nunito,Arial,Helvetica,SansSerif" font-size="11.4583" lengthAdjust="spacing" textLength="118.75" x="195.8333" y="237.7889">OsmGraph(Metadata)</text><line style="stroke:#5E5E5E;stroke-width:1.0416666666666667;" x1="173.9583" x2="240.1042" y1="213.7136" y2="213.7136"/><text fill="#D8BC00" font-family="Open Sans,Avenir,Nunito,Arial,Helvetica,SansSerif" font-size="11.4583" lengthAdjust="spacing" textLength="81.25" x="243.2292" y="217.5232">(constructors)</text><line style="stroke:#5E5E5E;stroke-width:1.0416666666666667;" x1="327.6042" x2="393.75" y1="213.7136" y2="213.7136"/><line style="stroke:#5E5E5E;stroke-width:1.0416666666666667;" x1="173.9583" x2="393.75" y1="247.4976" y2="247.4976"/><ellipse cx="184.375" cy="258.9559" fill="#84BE84" rx="3.125" ry="3.125" style="stroke:#038048;stroke-width:1.0416666666666667;"/><text fill="#D8BC00" font-family="Open Sans,Avenir,Nunito,Arial,Helvetica,SansSerif" font-size="11.4583" lengthAdjust="spacing" textLength="96.875" x="195.8333" y="265.8671">void markEdges()</text><ellipse cx="184.375" cy="278.7008" fill="#84BE84" rx="3.125" ry="3.125" style="stroke:#038048;stroke-width:1.0416666666666667;"/><text fill="#D8BC00" font-family="Open Sans,Avenir,Nunito,Arial,Helvetica,SansSerif" font-size="11.4583" lengthAdjust="spacing" textLength="142.7083" x="195.8333" y="285.612">void markJunctionEdges()</text><ellipse cx="184.375" cy="298.4456" fill="#84BE84" rx="3.125" ry="3.125" style="stroke:#038048;stroke-width:1.0416666666666667;"/><text fill="#D8BC00" font-family="Open Sans,Avenir,Nunito,Arial,Helvetica,SansSerif" font-size="11.4583" lengthAdjust="spacing" textLength="189.5833" x="195.8333" y="305.3569">void markRampsAndConnectors()</text><ellipse cx="184.375" cy="342.1021" fill="#84BE84" rx="3.125" ry="3.125" style="stroke:#038048;stroke-width:1.0416666666666667;"/><text fill="#D8BC00" font-family="Open Sans,Avenir,Nunito,Arial,Helvetica,SansSerif" font-size="11.4583" lengthAdjust="spacing" textLength="185.4167" x="195.8333" y="349.0133">void markDoubleDigitizedEdges()</text><line style="stroke:#5E5E5E;stroke-width:1.0416666666666667;" x1="173.9583" x2="252.0833" y1="324.9379" y2="324.9379"/><text fill="#D8BC00" font-family="Open Sans,Avenir,Nunito,Arial,Helvetica,SansSerif" font-size="11.4583" lengthAdjust="spacing" textLength="57.2917" x="255.2083" y="328.7476">(primitive)</text><line style="stroke:#5E5E5E;stroke-width:1.0416666666666667;" x1="315.625" x2="393.75" y1="324.9379" y2="324.9379"/><path codeLine="7" d="M283.8542,122.8382 C283.8542,135.3799 283.8542,149.5674 283.8542,163.932 " fill="none" id="CommonGraph-backto-OsmGraph" style="stroke:#545454;stroke-width:1.5625;"/><polygon fill="none" points="276.5625,122.557,283.8542,101.7236,291.1458,122.557,276.5625,122.557" style="stroke:#545454;stroke-width:1.5625;"/></g></svg>
