<?xml version="1.0" encoding="UTF-8" standalone="no"?><svg xmlns="http://www.w3.org/2000/svg" xmlns:xlink="http://www.w3.org/1999/xlink" contentScriptType="application/ecmascript" contentStyleType="text/css" height="143.75px" preserveAspectRatio="none" style="width:533px;height:143px;background:#333333;" version="1.1" viewBox="0 0 533 143" width="533.3333px" zoomAndPan="magnify"><defs/><g><rect fill="#48494B" height="41.2028" rx="8.3333" ry="8.3333" style="stroke:#545454;stroke-width:1.0416666666666667;" width="520.8333" x="2.0833" y="2.0833"/><text fill="#C0C0C0" font-family="Open Sans,Avenir,Nunito,Arial,Helvetica,SansSerif" font-size="20.8333" lengthAdjust="spacing" textLength="497.9167" x="13.5417" y="30.5583">com.telenav.mesakit.graph.analytics.classification</text><rect codeLine="7" fill="#282828" height="83.3781" id="EdgeClassifier" rx="8.3333" ry="8.3333" style="stroke:#5E5E5E;stroke-width:1.0416666666666667;" width="152.0833" x="186.9792" y="53.7028"/><rect fill="#1B1B1A" height="31.3883" rx="8.3333" ry="8.3333" style="stroke:#1B1B1A;stroke-width:1.0416666666666667;" width="152.0833" x="186.9792" y="53.7028"/><rect fill="#1B1B1A" height="8.3333" style="stroke:#1B1B1A;stroke-width:1.0416666666666667;" width="152.0833" x="186.9792" y="76.7578"/><rect codeLine="7" fill="none" height="83.3781" id="EdgeClassifier" rx="8.3333" ry="8.3333" style="stroke:#5E5E5E;stroke-width:1.0416666666666667;" width="152.0833" x="186.9792" y="53.7028"/><ellipse cx="211.4063" cy="69.397" fill="#008400" rx="10.4167" ry="10.4167" style="stroke:#239C23;stroke-width:1.0416666666666667;"/><path d="M208.8102,66.5588 L208.8102,64.9719 L214.2362,64.9719 L214.2362,66.5588 L212.4235,66.5588 L212.4235,72.4976 L214.2362,72.4976 L214.2362,74.0845 L208.8102,74.0845 L208.8102,72.4976 L210.623,72.4976 L210.623,66.5588 Z " fill="#000000"/><text fill="#D8BC00" font-family="Open Sans,Avenir,Nunito,Arial,Helvetica,SansSerif" font-size="12.5" font-style="italic" font-weight="bold" lengthAdjust="spacing" textLength="92.7083" x="230.2604" y="74.1211">EdgeClassifier</text><line style="stroke:#5E5E5E;stroke-width:1.5625;" x1="188.0208" x2="338.0208" y1="85.0911" y2="85.0911"/><ellipse cx="198.4375" cy="120.461" fill="#84BE84" rx="3.125" ry="3.125" style="stroke:#038048;stroke-width:1.0416666666666667;"/><text fill="#D8BC00" font-family="Open Sans,Avenir,Nunito,Arial,Helvetica,SansSerif" font-size="11.4583" lengthAdjust="spacing" textLength="119.7917" x="209.8958" y="127.3722">boolean accept(Edge)</text><line style="stroke:#5E5E5E;stroke-width:1.0416666666666667;" x1="188.0208" x2="233.8542" y1="103.2969" y2="103.2969"/><text fill="#D8BC00" font-family="Open Sans,Avenir,Nunito,Arial,Helvetica,SansSerif" font-size="11.4583" lengthAdjust="spacing" textLength="52.0833" x="236.9792" y="107.1065">(filtering)</text><line style="stroke:#5E5E5E;stroke-width:1.0416666666666667;" x1="292.1875" x2="338.0208" y1="103.2969" y2="103.2969"/></g></svg>
