<?xml version="1.0" encoding="UTF-8" standalone="no"?><svg xmlns="http://www.w3.org/2000/svg" xmlns:xlink="http://www.w3.org/1999/xlink" contentScriptType="application/ecmascript" contentStyleType="text/css" height="409.375px" preserveAspectRatio="none" style="width:827px;height:409px;background:#333333;" version="1.1" viewBox="0 0 827 409" width="827.0833px" zoomAndPan="magnify"><defs/><g><rect fill="#48494B" height="41.2028" rx="8.3333" ry="8.3333" style="stroke:#545454;stroke-width:1.0416666666666667;" width="814.5833" x="2.0833" y="2.0833"/><text fill="#C0C0C0" font-family="Open Sans,Avenir,Nunito,Arial,Helvetica,SansSerif" font-size="20.8333" lengthAdjust="spacing" textLength="791.6667" x="13.5417" y="30.5583">com.telenav.mesakit.graph.specifications.common.edge.store.stores.roadname</text><rect codeLine="7" fill="#282828" height="48.055" id="Initializable" rx="8.3333" ry="8.3333" style="stroke:#5E5E5E;stroke-width:1.0416666666666667;" width="113.5417" x="283.8542" y="53.7028"/><rect fill="#1B1B1A" height="31.3883" rx="8.3333" ry="8.3333" style="stroke:#1B1B1A;stroke-width:1.0416666666666667;" width="113.5417" x="283.8542" y="53.7028"/><rect fill="#1B1B1A" height="8.3333" style="stroke:#1B1B1A;stroke-width:1.0416666666666667;" width="113.5417" x="283.8542" y="76.7578"/><rect codeLine="7" fill="none" height="48.055" id="Initializable" rx="8.3333" ry="8.3333" style="stroke:#5E5E5E;stroke-width:1.0416666666666667;" width="113.5417" x="283.8542" y="53.7028"/><ellipse cx="298.4375" cy="69.397" fill="#008400" rx="10.4167" ry="10.4167" style="stroke:#239C23;stroke-width:1.0416666666666667;"/><path d="M295.8415,66.5588 L295.8415,64.9719 L301.2675,64.9719 L301.2675,66.5588 L299.4548,66.5588 L299.4548,72.4976 L301.2675,72.4976 L301.2675,74.0845 L295.8415,74.0845 L295.8415,72.4976 L297.6542,72.4976 L297.6542,66.5588 Z " fill="#000000"/><text fill="#D8BC00" font-family="Open Sans,Avenir,Nunito,Arial,Helvetica,SansSerif" font-size="12.5" font-style="italic" font-weight="bold" lengthAdjust="spacing" textLength="76.0417" x="315.1042" y="74.1211">Initializable</text><line style="stroke:#5E5E5E;stroke-width:1.0416666666666667;" x1="284.8958" x2="396.3542" y1="85.0911" y2="85.0911"/><line style="stroke:#5E5E5E;stroke-width:1.0416666666666667;" x1="284.8958" x2="396.3542" y1="93.4245" y2="93.4245"/><rect codeLine="8" fill="#282828" height="48.055" id="NamedObject" rx="8.3333" ry="8.3333" style="stroke:#5E5E5E;stroke-width:1.0416666666666667;" width="123.9583" x="433.8542" y="53.7028"/><rect fill="#1B1B1A" height="31.3883" rx="8.3333" ry="8.3333" style="stroke:#1B1B1A;stroke-width:1.0416666666666667;" width="123.9583" x="433.8542" y="53.7028"/><rect fill="#1B1B1A" height="8.3333" style="stroke:#1B1B1A;stroke-width:1.0416666666666667;" width="123.9583" x="433.8542" y="76.7578"/><rect codeLine="8" fill="none" height="48.055" id="NamedObject" rx="8.3333" ry="8.3333" style="stroke:#5E5E5E;stroke-width:1.0416666666666667;" width="123.9583" x="433.8542" y="53.7028"/><ellipse cx="448.4375" cy="69.397" fill="#008400" rx="10.4167" ry="10.4167" style="stroke:#239C23;stroke-width:1.0416666666666667;"/><path d="M445.8415,66.5588 L445.8415,64.9719 L451.2675,64.9719 L451.2675,66.5588 L449.4548,66.5588 L449.4548,72.4976 L451.2675,72.4976 L451.2675,74.0845 L445.8415,74.0845 L445.8415,72.4976 L447.6542,72.4976 L447.6542,66.5588 Z " fill="#000000"/><text fill="#D8BC00" font-family="Open Sans,Avenir,Nunito,Arial,Helvetica,SansSerif" font-size="12.5" font-style="italic" font-weight="bold" lengthAdjust="spacing" textLength="86.4583" x="465.1042" y="74.1211">NamedObject</text><line style="stroke:#5E5E5E;stroke-width:1.0416666666666667;" x1="434.8958" x2="556.7708" y1="85.0911" y2="85.0911"/><line style="stroke:#5E5E5E;stroke-width:1.0416666666666667;" x1="434.8958" x2="556.7708" y1="93.4245" y2="93.4245"/><rect codeLine="12" fill="#282828" height="238.2589" id="RoadNameStore" rx="8.3333" ry="8.3333" style="stroke:#5E5E5E;stroke-width:1.0416666666666667;" width="395.8333" x="219.7917" y="164.1195"/><rect fill="#1B1B1A" height="31.3883" rx="8.3333" ry="8.3333" style="stroke:#1B1B1A;stroke-width:1.0416666666666667;" width="395.8333" x="219.7917" y="164.1195"/><rect fill="#1B1B1A" height="8.3333" style="stroke:#1B1B1A;stroke-width:1.0416666666666667;" width="395.8333" x="219.7917" y="187.1745"/><rect codeLine="12" fill="none" height="238.2589" id="RoadNameStore" rx="8.3333" ry="8.3333" style="stroke:#5E5E5E;stroke-width:1.0416666666666667;" width="395.8333" x="219.7917" y="164.1195"/><ellipse cx="359.375" cy="179.8136" fill="#0066CF" rx="10.4167" ry="10.4167" style="stroke:#0086EF;stroke-width:1.0416666666666667;"/><path d="M361.2854,184.2387 Q360.8582,184.4584 360.3882,184.5683 Q359.9182,184.6781 359.3994,184.6781 Q357.5562,184.6781 356.5857,183.4635 Q355.6152,182.2489 355.6152,179.954 Q355.6152,177.653 356.5857,176.4384 Q357.5562,175.2238 359.3994,175.2238 Q359.9182,175.2238 360.3943,175.3337 Q360.8704,175.4435 361.2854,175.6632 L361.2854,177.6652 Q360.8215,177.238 360.3851,177.0396 Q359.9487,176.8412 359.4849,176.8412 Q358.4961,176.8412 357.9926,177.6255 Q357.489,178.4098 357.489,179.954 Q357.489,181.4921 357.9926,182.2764 Q358.4961,183.0607 359.4849,183.0607 Q359.9487,183.0607 360.3851,182.8623 Q360.8215,182.664 361.2854,182.2367 Z " fill="#000000"/><text fill="#D8BC00" font-family="Open Sans,Avenir,Nunito,Arial,Helvetica,SansSerif" font-size="12.5" font-weight="bold" lengthAdjust="spacing" textLength="102.0833" x="382.2917" y="184.5378">RoadNameStore</text><line style="stroke:#5E5E5E;stroke-width:1.5625;" x1="220.8333" x2="614.5833" y1="195.5078" y2="195.5078"/><polygon fill="#FFFF44" points="231.25,225.6694,235.4167,229.836,231.25,234.0027,227.0833,229.836" style="stroke:#B38D22;stroke-width:1.0416666666666667;"/><text fill="#D8BC00" font-family="Open Sans,Avenir,Nunito,Arial,Helvetica,SansSerif" font-size="11.4583" lengthAdjust="spacing" textLength="96.875" x="242.7083" y="237.7889">RoadNameStore()</text><ellipse cx="231.25" cy="250.6226" fill="#84BE84" rx="3.125" ry="3.125" style="stroke:#038048;stroke-width:1.0416666666666667;"/><text fill="#D8BC00" font-family="Open Sans,Avenir,Nunito,Arial,Helvetica,SansSerif" font-size="11.4583" lengthAdjust="spacing" textLength="239.5833" x="242.7083" y="257.5338">RoadNameStore(String, Estimate, Metadata)</text><line style="stroke:#5E5E5E;stroke-width:1.0416666666666667;" x1="220.8333" x2="373.9583" y1="213.7136" y2="213.7136"/><text fill="#D8BC00" font-family="Open Sans,Avenir,Nunito,Arial,Helvetica,SansSerif" font-size="11.4583" lengthAdjust="spacing" textLength="81.25" x="377.0833" y="217.5232">(constructors)</text><line style="stroke:#5E5E5E;stroke-width:1.0416666666666667;" x1="461.4583" x2="614.5833" y1="213.7136" y2="213.7136"/><line style="stroke:#5E5E5E;stroke-width:1.0416666666666667;" x1="220.8333" x2="614.5833" y1="267.2424" y2="267.2424"/><ellipse cx="231.25" cy="278.7008" fill="#84BE84" rx="3.125" ry="3.125" style="stroke:#038048;stroke-width:1.0416666666666667;"/><text fill="#D8BC00" font-family="Open Sans,Avenir,Nunito,Arial,Helvetica,SansSerif" font-size="11.4583" lengthAdjust="spacing" textLength="207.2917" x="242.7083" y="285.612">void codec(HuffmanCharacterCodec)</text><ellipse cx="231.25" cy="298.4456" fill="#84BE84" rx="3.125" ry="3.125" style="stroke:#038048;stroke-width:1.0416666666666667;"/><text fill="#D8BC00" font-family="Open Sans,Avenir,Nunito,Arial,Helvetica,SansSerif" font-size="11.4583" lengthAdjust="spacing" textLength="363.5417" x="242.7083" y="305.3569">void set(Edge, RoadName.Type, int roadNameOrdinal, RoadName)</text><ellipse cx="231.25" cy="342.1021" fill="#84BE84" rx="3.125" ry="3.125" style="stroke:#038048;stroke-width:1.0416666666666667;"/><text fill="#D8BC00" font-family="Open Sans,Avenir,Nunito,Arial,Helvetica,SansSerif" font-size="11.4583" lengthAdjust="spacing" textLength="170.8333" x="242.7083" y="349.0133">int size(Edge, RoadName.Type)</text><line style="stroke:#5E5E5E;stroke-width:1.0416666666666667;" x1="220.8333" x2="383.3333" y1="324.9379" y2="324.9379"/><text fill="#D8BC00" font-family="Open Sans,Avenir,Nunito,Arial,Helvetica,SansSerif" font-size="11.4583" lengthAdjust="spacing" textLength="62.5" x="386.4583" y="328.7476">(collection)</text><line style="stroke:#5E5E5E;stroke-width:1.0416666666666667;" x1="452.0833" x2="614.5833" y1="324.9379" y2="324.9379"/><ellipse cx="231.25" cy="385.7585" fill="#84BE84" rx="3.125" ry="3.125" style="stroke:#038048;stroke-width:1.0416666666666667;"/><text fill="#D8BC00" font-family="Open Sans,Avenir,Nunito,Arial,Helvetica,SansSerif" font-size="11.4583" lengthAdjust="spacing" textLength="334.375" x="242.7083" y="392.6697">RoadName get(Edge, RoadName.Type, int roadNameOrdinal)</text><line style="stroke:#5E5E5E;stroke-width:1.0416666666666667;" x1="220.8333" x2="389.5833" y1="368.5944" y2="368.5944"/><text fill="#D8BC00" font-family="Open Sans,Avenir,Nunito,Arial,Helvetica,SansSerif" font-size="11.4583" lengthAdjust="spacing" textLength="50" x="392.7083" y="372.404">(naming)</text><line style="stroke:#5E5E5E;stroke-width:1.0416666666666667;" x1="445.8333" x2="614.5833" y1="368.5944" y2="368.5944"/><path codeLine="10" d="M479.5521,121.1403 C474.6458,133.9424 468.9896,148.6715 463.1458,163.9007 " fill="none" id="NamedObject-backto-RoadNameStore" style="stroke:#545454;stroke-width:1.5625;"/><polygon fill="none" points="472.75,118.5049,487.0208,101.6715,486.3646,123.734,472.75,118.5049" style="stroke:#545454;stroke-width:1.5625;"/><path codeLine="11" d="M356.8646,121.609 C361.6667,134.2965 367.1771,148.8486 372.875,163.9007 " fill="none" id="Initializable-backto-RoadNameStore" style="stroke:#545454;stroke-width:1.5625;"/><polygon fill="none" points="349.875,123.734,349.3125,101.6715,363.5104,118.5674,349.875,123.734" style="stroke:#545454;stroke-width:1.5625;"/></g></svg>
