<?xml version="1.0" encoding="UTF-8" standalone="no"?><svg xmlns="http://www.w3.org/2000/svg" xmlns:xlink="http://www.w3.org/1999/xlink" contentScriptType="application/ecmascript" contentStyleType="text/css" height="682.2917px" preserveAspectRatio="none" style="width:1241px;height:682px;background:#333333;" version="1.1" viewBox="0 0 1241 682" width="1241.6667px" zoomAndPan="magnify"><defs/><g><rect fill="#48494B" height="41.2028" rx="8.3333" ry="8.3333" style="stroke:#545454;stroke-width:1.0416666666666667;" width="596.875" x="315.3646" y="2.0833"/><text fill="#C0C0C0" font-family="Open Sans,Avenir,Nunito,Arial,Helvetica,SansSerif" font-size="20.8333" lengthAdjust="spacing" textLength="573.9583" x="326.8229" y="30.5583">com.telenav.mesakit.graph.specifications.common.vertex</text><polygon fill="#333333" points="491.6667,52.6611,603.125,52.6611,610.4167,79.8828,690.625,79.8828,690.625,174.5361,491.6667,174.5361,491.6667,52.6611" style="stroke:#333333;stroke-width:2.0833333333333335;"/><line style="stroke:#333333;stroke-width:2.0833333333333335;" x1="491.6667" x2="610.4167" y1="79.8828" y2="79.8828"/><text fill="#C8AC00" font-family="Open Sans,Avenir,Nunito,Arial,Helvetica,SansSerif" font-size="12.5" font-weight="bold" lengthAdjust="spacing" textLength="98.9583" x="498.9583" y="69.9544">NodeAttributes</text><polygon fill="#333333" points="548.9583,353.182,667.7083,353.182,675,380.4036,779.1667,380.4036,779.1667,510.4736,548.9583,510.4736,548.9583,353.182" style="stroke:#333333;stroke-width:2.0833333333333335;"/><line style="stroke:#333333;stroke-width:2.0833333333333335;" x1="548.9583" x2="675" y1="380.4036" y2="380.4036"/><text fill="#C8AC00" font-family="Open Sans,Avenir,Nunito,Arial,Helvetica,SansSerif" font-size="12.5" font-weight="bold" lengthAdjust="spacing" textLength="106.25" x="556.25" y="370.4753">VertexAttributes</text><rect fill="#282828" height="48.055" id="NodeAttributes.NodeAttribute" rx="8.3333" ry="8.3333" style="stroke:#5E5E5E;stroke-width:1.0416666666666667;" width="129.1667" x="536.4583" y="101.6195"/><rect fill="#1B1B1A" height="31.3883" rx="8.3333" ry="8.3333" style="stroke:#1B1B1A;stroke-width:1.0416666666666667;" width="129.1667" x="536.4583" y="101.6195"/><rect fill="#1B1B1A" height="8.3333" style="stroke:#1B1B1A;stroke-width:1.0416666666666667;" width="129.1667" x="536.4583" y="124.6745"/><rect fill="none" height="48.055" id="NodeAttributes.NodeAttribute" rx="8.3333" ry="8.3333" style="stroke:#5E5E5E;stroke-width:1.0416666666666667;" width="129.1667" x="536.4583" y="101.6195"/><ellipse cx="551.0417" cy="117.3136" fill="#0066CF" rx="10.4167" ry="10.4167" style="stroke:#0086EF;stroke-width:1.0416666666666667;"/><path d="M552.9521,121.7387 Q552.5248,121.9584 552.0549,122.0683 Q551.5849,122.1781 551.0661,122.1781 Q549.2228,122.1781 548.2524,120.9635 Q547.2819,119.7489 547.2819,117.454 Q547.2819,115.153 548.2524,113.9384 Q549.2228,112.7238 551.0661,112.7238 Q551.5849,112.7238 552.061,112.8337 Q552.537,112.9435 552.9521,113.1632 L552.9521,115.1652 Q552.4882,114.738 552.0518,114.5396 Q551.6154,114.3412 551.1515,114.3412 Q550.1628,114.3412 549.6592,115.1255 Q549.1557,115.9098 549.1557,117.454 Q549.1557,118.9921 549.6592,119.7764 Q550.1628,120.5607 551.1515,120.5607 Q551.6154,120.5607 552.0518,120.3623 Q552.4882,120.164 552.9521,119.7367 Z " fill="#000000"/><text fill="#D8BC00" font-family="Open Sans,Avenir,Nunito,Arial,Helvetica,SansSerif" font-size="12.5" font-weight="bold" lengthAdjust="spacing" textLength="91.6667" x="567.7083" y="122.0378">NodeAttribute</text><line style="stroke:#5E5E5E;stroke-width:1.0416666666666667;" x1="537.5" x2="664.5833" y1="133.0078" y2="133.0078"/><line style="stroke:#5E5E5E;stroke-width:1.0416666666666667;" x1="537.5" x2="664.5833" y1="141.3411" y2="141.3411"/><rect codeLine="34" fill="#282828" height="83.3781" id="VertexAttributes.VertexAttribute" rx="8.3333" ry="8.3333" style="stroke:#5E5E5E;stroke-width:1.0416666666666667;" width="160.4167" x="593.75" y="402.1403"/><rect fill="#1B1B1A" height="31.3883" rx="8.3333" ry="8.3333" style="stroke:#1B1B1A;stroke-width:1.0416666666666667;" width="160.4167" x="593.75" y="402.1403"/><rect fill="#1B1B1A" height="8.3333" style="stroke:#1B1B1A;stroke-width:1.0416666666666667;" width="160.4167" x="593.75" y="425.1953"/><rect codeLine="34" fill="none" height="83.3781" id="VertexAttributes.VertexAttribute" rx="8.3333" ry="8.3333" style="stroke:#5E5E5E;stroke-width:1.0416666666666667;" width="160.4167" x="593.75" y="402.1403"/><ellipse cx="619.1146" cy="417.8345" fill="#0066CF" rx="10.4167" ry="10.4167" style="stroke:#0086EF;stroke-width:1.0416666666666667;"/><path d="M621.025,422.2595 Q620.5977,422.4792 620.1278,422.5891 Q619.6578,422.699 619.139,422.699 Q617.2957,422.699 616.3253,421.4844 Q615.3548,420.2698 615.3548,417.9749 Q615.3548,415.6738 616.3253,414.4592 Q617.2957,413.2446 619.139,413.2446 Q619.6578,413.2446 620.1339,413.3545 Q620.6099,413.4644 621.025,413.6841 L621.025,415.686 Q620.5611,415.2588 620.1247,415.0604 Q619.6883,414.8621 619.2244,414.8621 Q618.2357,414.8621 617.7321,415.6464 Q617.2286,416.4307 617.2286,417.9749 Q617.2286,419.5129 617.7321,420.2972 Q618.2357,421.0815 619.2244,421.0815 Q619.6883,421.0815 620.1247,420.8832 Q620.5611,420.6848 621.025,420.2576 Z " fill="#000000"/><text fill="#D8BC00" font-family="Open Sans,Avenir,Nunito,Arial,Helvetica,SansSerif" font-size="12.5" font-weight="bold" lengthAdjust="spacing" textLength="98.9583" x="638.1771" y="422.5586">VertexAttribute</text><line style="stroke:#5E5E5E;stroke-width:1.5625;" x1="594.7917" x2="753.125" y1="433.5286" y2="433.5286"/><ellipse cx="605.2083" cy="468.8985" fill="#84BE84" rx="3.125" ry="3.125" style="stroke:#038048;stroke-width:1.0416666666666667;"/><text fill="#D8BC00" font-family="Open Sans,Avenir,Nunito,Arial,Helvetica,SansSerif" font-size="11.4583" lengthAdjust="spacing" textLength="128.125" x="616.6667" y="475.8097">VertexAttribute(String)</text><line style="stroke:#5E5E5E;stroke-width:1.0416666666666667;" x1="594.7917" x2="630.2083" y1="451.7344" y2="451.7344"/><text fill="#D8BC00" font-family="Open Sans,Avenir,Nunito,Arial,Helvetica,SansSerif" font-size="11.4583" lengthAdjust="spacing" textLength="81.25" x="633.3333" y="455.544">(constructors)</text><line style="stroke:#5E5E5E;stroke-width:1.0416666666666667;" x1="717.7083" x2="753.125" y1="451.7344" y2="451.7344"/><rect fill="#282828" height="48.055" id="Vertex" rx="8.3333" ry="8.3333" style="stroke:#5E5E5E;stroke-width:1.0416666666666667;" width="78.125" x="129.6875" y="101.6195"/><rect fill="#1B1B1A" height="31.3883" rx="8.3333" ry="8.3333" style="stroke:#1B1B1A;stroke-width:1.0416666666666667;" width="78.125" x="129.6875" y="101.6195"/><rect fill="#1B1B1A" height="8.3333" style="stroke:#1B1B1A;stroke-width:1.0416666666666667;" width="78.125" x="129.6875" y="124.6745"/><rect fill="none" height="48.055" id="Vertex" rx="8.3333" ry="8.3333" style="stroke:#5E5E5E;stroke-width:1.0416666666666667;" width="78.125" x="129.6875" y="101.6195"/><ellipse cx="144.2708" cy="117.3136" fill="#0066CF" rx="10.4167" ry="10.4167" style="stroke:#0086EF;stroke-width:1.0416666666666667;"/><path d="M146.1812,121.7387 Q145.754,121.9584 145.284,122.0683 Q144.814,122.1781 144.2952,122.1781 Q142.452,122.1781 141.4815,120.9635 Q140.5111,119.7489 140.5111,117.454 Q140.5111,115.153 141.4815,113.9384 Q142.452,112.7238 144.2952,112.7238 Q144.814,112.7238 145.2901,112.8337 Q145.7662,112.9435 146.1812,113.1632 L146.1812,115.1652 Q145.7174,114.738 145.281,114.5396 Q144.8446,114.3412 144.3807,114.3412 Q143.3919,114.3412 142.8884,115.1255 Q142.3848,115.9098 142.3848,117.454 Q142.3848,118.9921 142.8884,119.7764 Q143.3919,120.5607 144.3807,120.5607 Q144.8446,120.5607 145.281,120.3623 Q145.7174,120.164 146.1812,119.7367 Z " fill="#000000"/><text fill="#D8BC00" font-family="Open Sans,Avenir,Nunito,Arial,Helvetica,SansSerif" font-size="12.5" font-weight="bold" lengthAdjust="spacing" textLength="40.625" x="160.9375" y="122.0378">Vertex</text><line style="stroke:#5E5E5E;stroke-width:1.0416666666666667;" x1="130.7292" x2="206.7708" y1="133.0078" y2="133.0078"/><line style="stroke:#5E5E5E;stroke-width:1.0416666666666667;" x1="130.7292" x2="206.7708" y1="141.3411" y2="141.3411"/><rect codeLine="8" fill="#282828" height="463.7858" id="HeavyWeightVertex" rx="8.3333" ry="8.3333" style="stroke:#5E5E5E;stroke-width:1.0416666666666667;" width="322.9167" x="7.2917" y="212.0361"/><rect fill="#1B1B1A" height="31.3883" rx="8.3333" ry="8.3333" style="stroke:#1B1B1A;stroke-width:1.0416666666666667;" width="322.9167" x="7.2917" y="212.0361"/><rect fill="#1B1B1A" height="8.3333" style="stroke:#1B1B1A;stroke-width:1.0416666666666667;" width="322.9167" x="7.2917" y="235.0911"/><rect codeLine="8" fill="none" height="463.7858" id="HeavyWeightVertex" rx="8.3333" ry="8.3333" style="stroke:#5E5E5E;stroke-width:1.0416666666666667;" width="322.9167" x="7.2917" y="212.0361"/><ellipse cx="99.4792" cy="227.7303" fill="#0066CF" rx="10.4167" ry="10.4167" style="stroke:#0086EF;stroke-width:1.0416666666666667;"/><path d="M101.3896,232.1554 Q100.9623,232.3751 100.4924,232.4849 Q100.0224,232.5948 99.5036,232.5948 Q97.6603,232.5948 96.6899,231.3802 Q95.7194,230.1656 95.7194,227.8707 Q95.7194,225.5697 96.6899,224.3551 Q97.6603,223.1405 99.5036,223.1405 Q100.0224,223.1405 100.4985,223.2503 Q100.9745,223.3602 101.3896,223.5799 L101.3896,225.5819 Q100.9257,225.1546 100.4893,224.9563 Q100.0529,224.7579 99.589,224.7579 Q98.6003,224.7579 98.0967,225.5422 Q97.5932,226.3265 97.5932,227.8707 Q97.5932,229.4088 98.0967,230.1931 Q98.6003,230.9774 99.589,230.9774 Q100.0529,230.9774 100.4893,230.779 Q100.9257,230.5806 101.3896,230.1534 Z " fill="#000000"/><text fill="#D8BC00" font-family="Open Sans,Avenir,Nunito,Arial,Helvetica,SansSerif" font-size="12.5" font-weight="bold" lengthAdjust="spacing" textLength="123.9583" x="122.3958" y="232.4544">HeavyWeightVertex</text><line style="stroke:#5E5E5E;stroke-width:1.5625;" x1="8.3333" x2="329.1667" y1="243.4245" y2="243.4245"/><ellipse cx="18.75" cy="278.7944" fill="#84BE84" rx="3.125" ry="3.125" style="stroke:#038048;stroke-width:1.0416666666666667;"/><text fill="#D8BC00" font-family="Open Sans,Avenir,Nunito,Arial,Helvetica,SansSerif" font-size="11.4583" lengthAdjust="spacing" textLength="242.7083" x="30.2083" y="285.7056">HeavyWeightVertex(Graph, VertexIdentifier)</text><ellipse cx="18.75" cy="298.5392" fill="#84BE84" rx="3.125" ry="3.125" style="stroke:#038048;stroke-width:1.0416666666666667;"/><text fill="#D8BC00" font-family="Open Sans,Avenir,Nunito,Arial,Helvetica,SansSerif" font-size="11.4583" lengthAdjust="spacing" textLength="181.25" x="30.2083" y="305.4504">HeavyWeightVertex(Graph, long)</text><line style="stroke:#5E5E5E;stroke-width:1.0416666666666667;" x1="8.3333" x2="125" y1="261.6302" y2="261.6302"/><text fill="#D8BC00" font-family="Open Sans,Avenir,Nunito,Arial,Helvetica,SansSerif" font-size="11.4583" lengthAdjust="spacing" textLength="81.25" x="128.125" y="265.4399">(constructors)</text><line style="stroke:#5E5E5E;stroke-width:1.0416666666666667;" x1="212.5" x2="329.1667" y1="261.6302" y2="261.6302"/><line style="stroke:#5E5E5E;stroke-width:1.0416666666666667;" x1="8.3333" x2="329.1667" y1="315.1591" y2="315.1591"/><ellipse cx="18.75" cy="326.6174" fill="#84BE84" rx="3.125" ry="3.125" style="stroke:#038048;stroke-width:1.0416666666666667;"/><text fill="#D8BC00" font-family="Open Sans,Avenir,Nunito,Arial,Helvetica,SansSerif" font-size="11.4583" lengthAdjust="spacing" textLength="164.5833" x="30.2083" y="333.5286">void clipped(boolean clipped)</text><ellipse cx="18.75" cy="346.3623" fill="#84BE84" rx="3.125" ry="3.125" style="stroke:#038048;stroke-width:1.0416666666666667;"/><text fill="#D8BC00" font-family="Open Sans,Avenir,Nunito,Arial,Helvetica,SansSerif" font-size="11.4583" lengthAdjust="spacing" textLength="219.7917" x="30.2083" y="353.2735">void gradeSeparation(GradeSeparation)</text><ellipse cx="18.75" cy="366.1072" fill="#84BE84" rx="3.125" ry="3.125" style="stroke:#038048;stroke-width:1.0416666666666667;"/><text fill="#D8BC00" font-family="Open Sans,Avenir,Nunito,Arial,Helvetica,SansSerif" font-size="11.4583" lengthAdjust="spacing" textLength="128.125" x="30.2083" y="373.0184">void location(Location)</text><ellipse cx="18.75" cy="385.8521" fill="#84BE84" rx="3.125" ry="3.125" style="stroke:#038048;stroke-width:1.0416666666666667;"/><text fill="#D8BC00" font-family="Open Sans,Avenir,Nunito,Arial,Helvetica,SansSerif" font-size="11.4583" lengthAdjust="spacing" textLength="255.2083" x="30.2083" y="392.7633">void pbfRevisionNumber(PbfRevisionNumber)</text><ellipse cx="18.75" cy="405.5969" fill="#84BE84" rx="3.125" ry="3.125" style="stroke:#038048;stroke-width:1.0416666666666667;"/><text fill="#D8BC00" font-family="Open Sans,Avenir,Nunito,Arial,Helvetica,SansSerif" font-size="11.4583" lengthAdjust="spacing" textLength="166.6667" x="30.2083" y="412.5081">void pbfTags(PbfTagList tags)</text><ellipse cx="18.75" cy="449.2533" fill="#84BE84" rx="3.125" ry="3.125" style="stroke:#038048;stroke-width:1.0416666666666667;"/><text fill="#D8BC00" font-family="Open Sans,Avenir,Nunito,Arial,Helvetica,SansSerif" font-size="11.4583" lengthAdjust="spacing" textLength="107.2917" x="30.2083" y="456.1646">void addIn(Edge in)</text><ellipse cx="18.75" cy="468.9982" fill="#84BE84" rx="3.125" ry="3.125" style="stroke:#038048;stroke-width:1.0416666666666667;"/><text fill="#D8BC00" font-family="Open Sans,Avenir,Nunito,Arial,Helvetica,SansSerif" font-size="11.4583" lengthAdjust="spacing" textLength="126.0417" x="30.2083" y="475.9094">void addOut(Edge out)</text><ellipse cx="18.75" cy="488.7431" fill="#84BE84" rx="3.125" ry="3.125" style="stroke:#038048;stroke-width:1.0416666666666667;"/><text fill="#D8BC00" font-family="Open Sans,Avenir,Nunito,Arial,Helvetica,SansSerif" font-size="11.4583" lengthAdjust="spacing" textLength="270.8333" x="30.2083" y="495.6543">void pbfLastModificationTime(Time lastModified)</text><line style="stroke:#5E5E5E;stroke-width:1.0416666666666667;" x1="8.3333" x2="134.375" y1="432.0892" y2="432.0892"/><text fill="#D8BC00" font-family="Open Sans,Avenir,Nunito,Arial,Helvetica,SansSerif" font-size="11.4583" lengthAdjust="spacing" textLength="62.5" x="137.5" y="435.8988">(collection)</text><line style="stroke:#5E5E5E;stroke-width:1.0416666666666667;" x1="203.125" x2="329.1667" y1="432.0892" y2="432.0892"/><ellipse cx="18.75" cy="532.3995" fill="#84BE84" rx="3.125" ry="3.125" style="stroke:#038048;stroke-width:1.0416666666666667;"/><text fill="#D8BC00" font-family="Open Sans,Avenir,Nunito,Arial,Helvetica,SansSerif" font-size="11.4583" lengthAdjust="spacing" textLength="123.9583" x="30.2083" y="539.3107">void copy(Vertex that)</text><line style="stroke:#5E5E5E;stroke-width:1.0416666666666667;" x1="8.3333" x2="133.3333" y1="515.2354" y2="515.2354"/><text fill="#D8BC00" font-family="Open Sans,Avenir,Nunito,Arial,Helvetica,SansSerif" font-size="11.4583" lengthAdjust="spacing" textLength="64.5833" x="136.4583" y="519.045">(filesystem)</text><line style="stroke:#5E5E5E;stroke-width:1.0416666666666667;" x1="204.1667" x2="329.1667" y1="515.2354" y2="515.2354"/><ellipse cx="18.75" cy="576.0559" fill="#84BE84" rx="3.125" ry="3.125" style="stroke:#038048;stroke-width:1.0416666666666667;"/><text fill="#D8BC00" font-family="Open Sans,Avenir,Nunito,Arial,Helvetica,SansSerif" font-size="11.4583" lengthAdjust="spacing" textLength="215.625" x="30.2083" y="582.9671">void nodeIdentifier(MapNodeIdentifier)</text><ellipse cx="18.75" cy="595.8008" fill="#84BE84" rx="3.125" ry="3.125" style="stroke:#038048;stroke-width:1.0416666666666667;"/><text fill="#D8BC00" font-family="Open Sans,Avenir,Nunito,Arial,Helvetica,SansSerif" font-size="11.4583" lengthAdjust="spacing" textLength="290.625" x="30.2083" y="602.712">void pbfChangeSetIdentifier(PbfChangeSetIdentifier)</text><ellipse cx="18.75" cy="615.5457" fill="#84BE84" rx="3.125" ry="3.125" style="stroke:#038048;stroke-width:1.0416666666666667;"/><text fill="#D8BC00" font-family="Open Sans,Avenir,Nunito,Arial,Helvetica,SansSerif" font-size="11.4583" lengthAdjust="spacing" textLength="223.9583" x="30.2083" y="622.4569">void pbfUserIdentifier(PbfUserIdentifier)</text><line style="stroke:#5E5E5E;stroke-width:1.0416666666666667;" x1="8.3333" x2="140.625" y1="558.8918" y2="558.8918"/><text fill="#D8BC00" font-family="Open Sans,Avenir,Nunito,Arial,Helvetica,SansSerif" font-size="11.4583" lengthAdjust="spacing" textLength="50" x="143.75" y="562.7014">(identity)</text><line style="stroke:#5E5E5E;stroke-width:1.0416666666666667;" x1="196.875" x2="329.1667" y1="558.8918" y2="558.8918"/><ellipse cx="18.75" cy="659.2021" fill="#84BE84" rx="3.125" ry="3.125" style="stroke:#038048;stroke-width:1.0416666666666667;"/><text fill="#D8BC00" font-family="Open Sans,Avenir,Nunito,Arial,Helvetica,SansSerif" font-size="11.4583" lengthAdjust="spacing" textLength="186.4583" x="30.2083" y="666.1133">void pbfUserName(PbfUserName)</text><line style="stroke:#5E5E5E;stroke-width:1.0416666666666667;" x1="8.3333" x2="140.625" y1="642.038" y2="642.038"/><text fill="#D8BC00" font-family="Open Sans,Avenir,Nunito,Arial,Helvetica,SansSerif" font-size="11.4583" lengthAdjust="spacing" textLength="50" x="143.75" y="645.8476">(naming)</text><line style="stroke:#5E5E5E;stroke-width:1.0416666666666667;" x1="196.875" x2="329.1667" y1="642.038" y2="642.038"/><rect codeLine="41" fill="#282828" height="111.4563" id="VertexAttributes" rx="8.3333" ry="8.3333" style="stroke:#5E5E5E;stroke-width:1.0416666666666667;" width="154.1667" x="366.6667" y="388.0778"/><rect fill="#1B1B1A" height="31.3883" rx="8.3333" ry="8.3333" style="stroke:#1B1B1A;stroke-width:1.0416666666666667;" width="154.1667" x="366.6667" y="388.0778"/><rect fill="#1B1B1A" height="8.3333" style="stroke:#1B1B1A;stroke-width:1.0416666666666667;" width="154.1667" x="366.6667" y="411.1328"/><rect codeLine="41" fill="none" height="111.4563" id="VertexAttributes" rx="8.3333" ry="8.3333" style="stroke:#5E5E5E;stroke-width:1.0416666666666667;" width="154.1667" x="366.6667" y="388.0778"/><ellipse cx="385.9375" cy="403.772" fill="#0066CF" rx="10.4167" ry="10.4167" style="stroke:#0086EF;stroke-width:1.0416666666666667;"/><path d="M387.8479,408.197 Q387.4207,408.4167 386.9507,408.5266 Q386.4807,408.6365 385.9619,408.6365 Q384.1187,408.6365 383.1482,407.4219 Q382.1777,406.2073 382.1777,403.9124 Q382.1777,401.6113 383.1482,400.3967 Q384.1187,399.1821 385.9619,399.1821 Q386.4807,399.1821 386.9568,399.292 Q387.4329,399.4019 387.8479,399.6216 L387.8479,401.6235 Q387.384,401.1963 386.9476,400.9979 Q386.5112,400.7996 386.0474,400.7996 Q385.0586,400.7996 384.5551,401.5839 Q384.0515,402.3682 384.0515,403.9124 Q384.0515,405.4504 384.5551,406.2347 Q385.0586,407.019 386.0474,407.019 Q386.5112,407.019 386.9476,406.8207 Q387.384,406.6223 387.8479,406.1951 Z " fill="#000000"/><text fill="#D8BC00" font-family="Open Sans,Avenir,Nunito,Arial,Helvetica,SansSerif" font-size="12.5" font-weight="bold" lengthAdjust="spacing" textLength="106.25" x="403.6458" y="408.4961">VertexAttributes</text><line style="stroke:#5E5E5E;stroke-width:1.5625;" x1="367.7083" x2="519.7917" y1="419.4661" y2="419.4661"/><polygon fill="#FFFF44" points="378.125,449.6277,382.2917,453.7944,378.125,457.961,373.9583,453.7944" style="stroke:#B38D22;stroke-width:1.0416666666666667;"/><text fill="#D8BC00" font-family="Open Sans,Avenir,Nunito,Arial,Helvetica,SansSerif" font-size="11.4583" lengthAdjust="spacing" textLength="101.0417" x="389.5833" y="461.7472">VertexAttributes()</text><line style="stroke:#5E5E5E;stroke-width:1.0416666666666667;" x1="367.7083" x2="400" y1="437.6719" y2="437.6719"/><text fill="#D8BC00" font-family="Open Sans,Avenir,Nunito,Arial,Helvetica,SansSerif" font-size="11.4583" lengthAdjust="spacing" textLength="81.25" x="403.125" y="441.4815">(constructors)</text><line style="stroke:#5E5E5E;stroke-width:1.0416666666666667;" x1="487.5" x2="519.7917" y1="437.6719" y2="437.6719"/><line style="stroke:#5E5E5E;stroke-width:1.0416666666666667;" x1="367.7083" x2="519.7917" y1="471.4559" y2="471.4559"/><ellipse cx="378.125" cy="482.9142" fill="#84BE84" rx="3.125" ry="3.125" style="stroke:#038048;stroke-width:1.0416666666666667;"/><text fill="#D8BC00" font-family="Open Sans,Avenir,Nunito,Arial,Helvetica,SansSerif" font-size="11.4583" lengthAdjust="spacing" textLength="121.875" x="389.5833" y="489.8254">VertexAttributes get()</text><rect fill="#282828" height="48.055" id="GraphElementProperties" rx="8.3333" ry="8.3333" style="stroke:#5E5E5E;stroke-width:1.0416666666666667;" width="193.75" x="785.4167" y="101.6195"/><rect fill="#1B1B1A" height="31.3883" rx="8.3333" ry="8.3333" style="stroke:#1B1B1A;stroke-width:1.0416666666666667;" width="193.75" x="785.4167" y="101.6195"/><rect fill="#1B1B1A" height="8.3333" style="stroke:#1B1B1A;stroke-width:1.0416666666666667;" width="193.75" x="785.4167" y="124.6745"/><rect fill="none" height="48.055" id="GraphElementProperties" rx="8.3333" ry="8.3333" style="stroke:#5E5E5E;stroke-width:1.0416666666666667;" width="193.75" x="785.4167" y="101.6195"/><ellipse cx="800" cy="117.3136" fill="#0066CF" rx="10.4167" ry="10.4167" style="stroke:#0086EF;stroke-width:1.0416666666666667;"/><path d="M801.9104,121.7387 Q801.4832,121.9584 801.0132,122.0683 Q800.5432,122.1781 800.0244,122.1781 Q798.1812,122.1781 797.2107,120.9635 Q796.2402,119.7489 796.2402,117.454 Q796.2402,115.153 797.2107,113.9384 Q798.1812,112.7238 800.0244,112.7238 Q800.5432,112.7238 801.0193,112.8337 Q801.4954,112.9435 801.9104,113.1632 L801.9104,115.1652 Q801.4465,114.738 801.0101,114.5396 Q800.5737,114.3412 800.1099,114.3412 Q799.1211,114.3412 798.6176,115.1255 Q798.114,115.9098 798.114,117.454 Q798.114,118.9921 798.6176,119.7764 Q799.1211,120.5607 800.1099,120.5607 Q800.5737,120.5607 801.0101,120.3623 Q801.4465,120.164 801.9104,119.7367 Z " fill="#000000"/><text fill="#D8BC00" font-family="Open Sans,Avenir,Nunito,Arial,Helvetica,SansSerif" font-size="12.5" font-weight="bold" lengthAdjust="spacing" textLength="156.25" x="816.6667" y="122.0378">GraphElementProperties</text><line style="stroke:#5E5E5E;stroke-width:1.0416666666666667;" x1="786.4583" x2="978.125" y1="133.0078" y2="133.0078"/><line style="stroke:#5E5E5E;stroke-width:1.0416666666666667;" x1="786.4583" x2="978.125" y1="141.3411" y2="141.3411"/><rect codeLine="50" fill="#282828" height="111.4563" id="VertexProperties" rx="8.3333" ry="8.3333" style="stroke:#5E5E5E;stroke-width:1.0416666666666667;" width="155.2083" x="804.6875" y="388.0778"/><rect fill="#1B1B1A" height="31.3883" rx="8.3333" ry="8.3333" style="stroke:#1B1B1A;stroke-width:1.0416666666666667;" width="155.2083" x="804.6875" y="388.0778"/><rect fill="#1B1B1A" height="8.3333" style="stroke:#1B1B1A;stroke-width:1.0416666666666667;" width="155.2083" x="804.6875" y="411.1328"/><rect codeLine="50" fill="none" height="111.4563" id="VertexProperties" rx="8.3333" ry="8.3333" style="stroke:#5E5E5E;stroke-width:1.0416666666666667;" width="155.2083" x="804.6875" y="388.0778"/><ellipse cx="824.4271" cy="403.772" fill="#0066CF" rx="10.4167" ry="10.4167" style="stroke:#0086EF;stroke-width:1.0416666666666667;"/><path d="M826.3375,408.197 Q825.9102,408.4167 825.4403,408.5266 Q824.9703,408.6365 824.4515,408.6365 Q822.6082,408.6365 821.6378,407.4219 Q820.6673,406.2073 820.6673,403.9124 Q820.6673,401.6113 821.6378,400.3967 Q822.6082,399.1821 824.4515,399.1821 Q824.9703,399.1821 825.4464,399.292 Q825.9224,399.4019 826.3375,399.6216 L826.3375,401.6235 Q825.8736,401.1963 825.4372,400.9979 Q825.0008,400.7996 824.5369,400.7996 Q823.5482,400.7996 823.0446,401.5839 Q822.5411,402.3682 822.5411,403.9124 Q822.5411,405.4504 823.0446,406.2347 Q823.5482,407.019 824.5369,407.019 Q825.0008,407.019 825.4372,406.8207 Q825.8736,406.6223 826.3375,406.1951 Z " fill="#000000"/><text fill="#D8BC00" font-family="Open Sans,Avenir,Nunito,Arial,Helvetica,SansSerif" font-size="12.5" font-weight="bold" lengthAdjust="spacing" textLength="106.25" x="842.2396" y="408.4961">VertexProperties</text><line style="stroke:#5E5E5E;stroke-width:1.5625;" x1="805.7292" x2="958.8542" y1="419.4661" y2="419.4661"/><polygon fill="#FFFF44" points="816.1458,449.6277,820.3125,453.7944,816.1458,457.961,811.9792,453.7944" style="stroke:#B38D22;stroke-width:1.0416666666666667;"/><text fill="#D8BC00" font-family="Open Sans,Avenir,Nunito,Arial,Helvetica,SansSerif" font-size="11.4583" lengthAdjust="spacing" textLength="102.0833" x="827.6042" y="461.7472">VertexProperties()</text><line style="stroke:#5E5E5E;stroke-width:1.0416666666666667;" x1="805.7292" x2="838.5417" y1="437.6719" y2="437.6719"/><text fill="#D8BC00" font-family="Open Sans,Avenir,Nunito,Arial,Helvetica,SansSerif" font-size="11.4583" lengthAdjust="spacing" textLength="81.25" x="841.6667" y="441.4815">(constructors)</text><line style="stroke:#5E5E5E;stroke-width:1.0416666666666667;" x1="926.0417" x2="958.8542" y1="437.6719" y2="437.6719"/><line style="stroke:#5E5E5E;stroke-width:1.0416666666666667;" x1="805.7292" x2="958.8542" y1="471.4559" y2="471.4559"/><ellipse cx="816.1458" cy="482.9142" fill="#84BE84" rx="3.125" ry="3.125" style="stroke:#038048;stroke-width:1.0416666666666667;"/><text fill="#D8BC00" font-family="Open Sans,Avenir,Nunito,Arial,Helvetica,SansSerif" font-size="11.4583" lengthAdjust="spacing" textLength="122.9167" x="827.6042" y="489.8254">VertexProperties get()</text><rect fill="#282828" height="48.055" id="GraphElementProperty" rx="8.3333" ry="8.3333" style="stroke:#5E5E5E;stroke-width:1.0416666666666667;" width="182.2917" x="1024.4792" y="101.6195"/><rect fill="#1B1B1A" height="31.3883" rx="8.3333" ry="8.3333" style="stroke:#1B1B1A;stroke-width:1.0416666666666667;" width="182.2917" x="1024.4792" y="101.6195"/><rect fill="#1B1B1A" height="8.3333" style="stroke:#1B1B1A;stroke-width:1.0416666666666667;" width="182.2917" x="1024.4792" y="124.6745"/><rect fill="none" height="48.055" id="GraphElementProperty" rx="8.3333" ry="8.3333" style="stroke:#5E5E5E;stroke-width:1.0416666666666667;" width="182.2917" x="1024.4792" y="101.6195"/><ellipse cx="1039.0625" cy="117.3136" fill="#0066CF" rx="10.4167" ry="10.4167" style="stroke:#0086EF;stroke-width:1.0416666666666667;"/><path d="M1040.9729,121.7387 Q1040.5457,121.9584 1040.0757,122.0683 Q1039.6057,122.1781 1039.0869,122.1781 Q1037.2437,122.1781 1036.2732,120.9635 Q1035.3027,119.7489 1035.3027,117.454 Q1035.3027,115.153 1036.2732,113.9384 Q1037.2437,112.7238 1039.0869,112.7238 Q1039.6057,112.7238 1040.0818,112.8337 Q1040.5579,112.9435 1040.9729,113.1632 L1040.9729,115.1652 Q1040.509,114.738 1040.0726,114.5396 Q1039.6362,114.3412 1039.1724,114.3412 Q1038.1836,114.3412 1037.6801,115.1255 Q1037.1765,115.9098 1037.1765,117.454 Q1037.1765,118.9921 1037.6801,119.7764 Q1038.1836,120.5607 1039.1724,120.5607 Q1039.6362,120.5607 1040.0726,120.3623 Q1040.509,120.164 1040.9729,119.7367 Z " fill="#000000"/><text fill="#D8BC00" font-family="Open Sans,Avenir,Nunito,Arial,Helvetica,SansSerif" font-size="12.5" font-weight="bold" lengthAdjust="spacing" textLength="144.7917" x="1055.7292" y="122.0378">GraphElementProperty</text><line style="stroke:#5E5E5E;stroke-width:1.0416666666666667;" x1="1025.5208" x2="1205.7292" y1="133.0078" y2="133.0078"/><line style="stroke:#5E5E5E;stroke-width:1.0416666666666667;" x1="1025.5208" x2="1205.7292" y1="141.3411" y2="141.3411"/><rect codeLine="59" fill="#282828" height="83.3781" id="VertexProperties.VertexProperty" rx="8.3333" ry="8.3333" style="stroke:#5E5E5E;stroke-width:1.0416666666666667;" width="238.5417" x="996.3542" y="402.1403"/><rect fill="#1B1B1A" height="31.3883" rx="8.3333" ry="8.3333" style="stroke:#1B1B1A;stroke-width:1.0416666666666667;" width="238.5417" x="996.3542" y="402.1403"/><rect fill="#1B1B1A" height="8.3333" style="stroke:#1B1B1A;stroke-width:1.0416666666666667;" width="238.5417" x="996.3542" y="425.1953"/><rect codeLine="59" fill="none" height="83.3781" id="VertexProperties.VertexProperty" rx="8.3333" ry="8.3333" style="stroke:#5E5E5E;stroke-width:1.0416666666666667;" width="238.5417" x="996.3542" y="402.1403"/><ellipse cx="1060.9375" cy="417.8345" fill="#C8AC00" rx="10.4167" ry="10.4167" style="stroke:#D8BC00;stroke-width:1.0416666666666667;"/><path d="M1060.5306,414.5365 L1059.6822,418.2658 L1061.3851,418.2658 Z M1059.432,412.8886 L1061.6353,412.8886 L1064.0951,422.0011 L1062.2945,422.0011 L1061.733,419.7489 L1059.3221,419.7489 L1058.7728,422.0011 L1056.9722,422.0011 Z " fill="#000000"/><text fill="#D8BC00" font-family="Open Sans,Avenir,Nunito,Arial,Helvetica,SansSerif" font-size="12.5" font-style="italic" font-weight="bold" lengthAdjust="spacing" textLength="94.7917" x="1083.8542" y="422.5586">VertexProperty</text><line style="stroke:#5E5E5E;stroke-width:1.5625;" x1="997.3958" x2="1233.8542" y1="433.5286" y2="433.5286"/><polygon fill="#FFFF44" points="1007.8125,463.6902,1011.9792,467.8569,1007.8125,472.0235,1003.6458,467.8569" style="stroke:#B38D22;stroke-width:1.0416666666666667;"/><text fill="#D8BC00" font-family="Open Sans,Avenir,Nunito,Arial,Helvetica,SansSerif" font-size="11.4583" lengthAdjust="spacing" textLength="206.25" x="1019.2708" y="475.8097">VertexProperty(String, Attribute&lt;?&gt;)</text><line style="stroke:#5E5E5E;stroke-width:1.0416666666666667;" x1="997.3958" x2="1071.875" y1="451.7344" y2="451.7344"/><text fill="#D8BC00" font-family="Open Sans,Avenir,Nunito,Arial,Helvetica,SansSerif" font-size="11.4583" lengthAdjust="spacing" textLength="81.25" x="1075" y="455.544">(constructors)</text><line style="stroke:#5E5E5E;stroke-width:1.0416666666666667;" x1="1159.375" x2="1233.8542" y1="451.7344" y2="451.7344"/><path codeLine="7" d="M168.75,171.057 C168.75,183.057 168.75,196.9111 168.75,211.8799 " fill="none" id="Vertex-backto-HeavyWeightVertex" style="stroke:#545454;stroke-width:1.5625;"/><polygon fill="none" points="161.4583,170.7028,168.75,149.8695,176.0417,170.7028,161.4583,170.7028" style="stroke:#545454;stroke-width:1.5625;"/><path codeLine="33" d="M611.1354,170.3903 C625.2813,231.7236 650.8021,342.3695 664.5625,402.0257 " fill="none" id="NodeAttributes.NodeAttribute-backto-VertexAttributes.VertexAttribute" style="stroke:#545454;stroke-width:1.5625;"/><polygon fill="none" points="603.9792,171.807,606.4063,149.8695,618.1875,168.5257,603.9792,171.807" style="stroke:#545454;stroke-width:1.5625;"/><path d="M491.6223,173.6988 C491.5634,174.0293 491.5044,174.3612 491.4451,174.6943 C491.208,176.027 490.9672,177.3803 490.7229,178.7533 C490.2343,181.4994 489.7316,184.3246 489.2162,187.2214 C487.1545,198.8086 484.889,211.542 482.5039,224.9476 C472.9635,278.57 461.5104,342.9476 453.5417,387.7445 " fill="none" id="NodeAttributes-backto-VertexAttributes" style="stroke:#545454;stroke-width:1.5625;"/><polygon fill="#333333" points="491.6223,173.6988,480.9763,191.907,495.3341,194.4617,491.6223,173.6988" style="stroke:#545454;stroke-width:1.5625;"/><path codeLine="49" d="M882.2917,170.7757 C882.2917,227.6403 882.2917,326.4632 882.2917,388.0465 " fill="none" id="GraphElementProperties-backto-VertexProperties" style="stroke:#545454;stroke-width:1.5625;"/><polygon fill="none" points="875,170.7028,882.2917,149.8695,889.5833,170.7028,875,170.7028" style="stroke:#545454;stroke-width:1.5625;"/><path codeLine="58" d="M1115.625,170.7965 C1115.625,232.2132 1115.625,342.5049 1115.625,402.0257 " fill="none" id="GraphElementProperty-backto-VertexProperties.VertexProperty" style="stroke:#545454;stroke-width:1.5625;"/><polygon fill="none" points="1108.3333,170.7028,1115.625,149.8695,1122.9167,170.7028,1108.3333,170.7028" style="stroke:#545454;stroke-width:1.5625;"/></g></svg>
