<?xml version="1.0" encoding="UTF-8" standalone="no"?><svg xmlns="http://www.w3.org/2000/svg" xmlns:xlink="http://www.w3.org/1999/xlink" contentScriptType="application/ecmascript" contentStyleType="text/css" height="476.0417px" preserveAspectRatio="none" style="width:1130px;height:476px;background:#333333;" version="1.1" viewBox="0 0 1130 476" width="1130.2083px" zoomAndPan="magnify"><defs/><g><rect fill="#48494B" height="41.2028" rx="8.3333" ry="8.3333" style="stroke:#545454;stroke-width:1.0416666666666667;" width="514.5833" x="300.5208" y="2.0833"/><text fill="#C0C0C0" font-family="Open Sans,Avenir,Nunito,Arial,Helvetica,SansSerif" font-size="20.8333" lengthAdjust="spacing" textLength="491.6667" x="311.9792" y="30.5583">com.telenav.mesakit.graph.library.osm.change.io</text><rect codeLine="7" fill="#282828" height="258.0037" id="JosmChangeFile" rx="8.3333" ry="8.3333" style="stroke:#5E5E5E;stroke-width:1.0416666666666667;" width="743.75" x="7.2917" y="59.432"/><rect fill="#1B1B1A" height="31.3883" rx="8.3333" ry="8.3333" style="stroke:#1B1B1A;stroke-width:1.0416666666666667;" width="743.75" x="7.2917" y="59.432"/><rect fill="#1B1B1A" height="8.3333" style="stroke:#1B1B1A;stroke-width:1.0416666666666667;" width="743.75" x="7.2917" y="82.487"/><rect codeLine="7" fill="none" height="258.0037" id="JosmChangeFile" rx="8.3333" ry="8.3333" style="stroke:#5E5E5E;stroke-width:1.0416666666666667;" width="743.75" x="7.2917" y="59.432"/><ellipse cx="319.2708" cy="75.1261" fill="#0066CF" rx="10.4167" ry="10.4167" style="stroke:#0086EF;stroke-width:1.0416666666666667;"/><path d="M321.1812,79.5512 Q320.754,79.7709 320.284,79.8808 Q319.814,79.9906 319.2952,79.9906 Q317.452,79.9906 316.4815,78.776 Q315.5111,77.5614 315.5111,75.2665 Q315.5111,72.9655 316.4815,71.7509 Q317.452,70.5363 319.2952,70.5363 Q319.814,70.5363 320.2901,70.6462 Q320.7662,70.756 321.1812,70.9757 L321.1812,72.9777 Q320.7174,72.5505 320.281,72.3521 Q319.8446,72.1537 319.3807,72.1537 Q318.3919,72.1537 317.8884,72.938 Q317.3848,73.7223 317.3848,75.2665 Q317.3848,76.8046 317.8884,77.5889 Q318.3919,78.3732 319.3807,78.3732 Q319.8446,78.3732 320.281,78.1748 Q320.7174,77.9765 321.1812,77.5492 Z " fill="#000000"/><text fill="#D8BC00" font-family="Open Sans,Avenir,Nunito,Arial,Helvetica,SansSerif" font-size="12.5" font-weight="bold" lengthAdjust="spacing" textLength="105.2083" x="342.1875" y="79.8503">JosmChangeFile</text><line style="stroke:#5E5E5E;stroke-width:1.5625;" x1="8.3333" x2="750" y1="90.8203" y2="90.8203"/><line style="stroke:#5E5E5E;stroke-width:1.0416666666666667;" x1="8.3333" x2="750" y1="99.1536" y2="99.1536"/><ellipse cx="18.75" cy="110.612" fill="#84BE84" rx="3.125" ry="3.125" style="stroke:#038048;stroke-width:1.0416666666666667;"/><text fill="#D8BC00" font-family="Open Sans,Avenir,Nunito,Arial,Helvetica,SansSerif" font-size="11.4583" lengthAdjust="spacing" textLength="184.375" x="30.2083" y="117.5232">MutableWay modifiableWay(Edge)</text><ellipse cx="18.75" cy="130.3569" fill="#84BE84" rx="3.125" ry="3.125" style="stroke:#038048;stroke-width:1.0416666666666667;"/><text fill="#D8BC00" font-family="Open Sans,Avenir,Nunito,Arial,Helvetica,SansSerif" font-size="11.4583" lengthAdjust="spacing" textLength="711.4583" x="30.2083" y="137.2681">MutableWay modifiableWay(Graph, PbfUserIdentifier, PbfUserName, PbfWayIdentifier, Polyline shape, PbfTagList tags, int version)</text><ellipse cx="18.75" cy="174.0133" fill="#84BE84" rx="3.125" ry="3.125" style="stroke:#038048;stroke-width:1.0416666666666667;"/><text fill="#D8BC00" font-family="Open Sans,Avenir,Nunito,Arial,Helvetica,SansSerif" font-size="11.4583" lengthAdjust="spacing" textLength="101.0417" x="30.2083" y="180.9245">void add(NewWay)</text><line style="stroke:#5E5E5E;stroke-width:1.0416666666666667;" x1="8.3333" x2="344.7917" y1="156.8492" y2="156.8492"/><text fill="#D8BC00" font-family="Open Sans,Avenir,Nunito,Arial,Helvetica,SansSerif" font-size="11.4583" lengthAdjust="spacing" textLength="62.5" x="347.9167" y="160.6588">(collection)</text><line style="stroke:#5E5E5E;stroke-width:1.0416666666666667;" x1="413.5417" x2="750" y1="156.8492" y2="156.8492"/><ellipse cx="18.75" cy="217.6697" fill="#84BE84" rx="3.125" ry="3.125" style="stroke:#038048;stroke-width:1.0416666666666667;"/><text fill="#D8BC00" font-family="Open Sans,Avenir,Nunito,Arial,Helvetica,SansSerif" font-size="11.4583" lengthAdjust="spacing" textLength="294.7917" x="30.2083" y="224.5809">void connectFromEnd(ConnectionPoint, MutableWay)</text><ellipse cx="18.75" cy="237.4146" fill="#84BE84" rx="3.125" ry="3.125" style="stroke:#038048;stroke-width:1.0416666666666667;"/><text fill="#D8BC00" font-family="Open Sans,Avenir,Nunito,Arial,Helvetica,SansSerif" font-size="11.4583" lengthAdjust="spacing" textLength="280.2083" x="30.2083" y="244.3258">void connectToEnd(ConnectionPoint, MutableWay)</text><line style="stroke:#5E5E5E;stroke-width:1.0416666666666667;" x1="8.3333" x2="349.4792" y1="200.5056" y2="200.5056"/><text fill="#D8BC00" font-family="Open Sans,Avenir,Nunito,Arial,Helvetica,SansSerif" font-size="11.4583" lengthAdjust="spacing" textLength="53.125" x="352.6042" y="204.3152">(lifecycle)</text><line style="stroke:#5E5E5E;stroke-width:1.0416666666666667;" x1="408.8542" x2="750" y1="200.5056" y2="200.5056"/><ellipse cx="18.75" cy="281.071" fill="#84BE84" rx="3.125" ry="3.125" style="stroke:#038048;stroke-width:1.0416666666666667;"/><text fill="#D8BC00" font-family="Open Sans,Avenir,Nunito,Arial,Helvetica,SansSerif" font-size="11.4583" lengthAdjust="spacing" textLength="119.7917" x="30.2083" y="287.9822">void save(File output)</text><ellipse cx="18.75" cy="300.8158" fill="#84BE84" rx="3.125" ry="3.125" style="stroke:#038048;stroke-width:1.0416666666666667;"/><text fill="#D8BC00" font-family="Open Sans,Avenir,Nunito,Arial,Helvetica,SansSerif" font-size="11.4583" lengthAdjust="spacing" textLength="209.375" x="30.2083" y="307.7271">void save(File output, boolean debug)</text><line style="stroke:#5E5E5E;stroke-width:1.0416666666666667;" x1="8.3333" x2="358.3333" y1="263.9069" y2="263.9069"/><text fill="#D8BC00" font-family="Open Sans,Avenir,Nunito,Arial,Helvetica,SansSerif" font-size="11.4583" lengthAdjust="spacing" textLength="35.4167" x="361.4583" y="267.7165">(write)</text><line style="stroke:#5E5E5E;stroke-width:1.0416666666666667;" x1="400" x2="750" y1="263.9069" y2="263.9069"/><rect codeLine="22" fill="#282828" height="269.4153" id="JosmXml" rx="8.3333" ry="8.3333" style="stroke:#5E5E5E;stroke-width:1.0416666666666667;" width="335.4167" x="787.5" y="53.7028"/><rect fill="#1B1B1A" height="31.3883" rx="8.3333" ry="8.3333" style="stroke:#1B1B1A;stroke-width:1.0416666666666667;" width="335.4167" x="787.5" y="53.7028"/><rect fill="#1B1B1A" height="8.3333" style="stroke:#1B1B1A;stroke-width:1.0416666666666667;" width="335.4167" x="787.5" y="76.7578"/><rect codeLine="22" fill="none" height="269.4153" id="JosmXml" rx="8.3333" ry="8.3333" style="stroke:#5E5E5E;stroke-width:1.0416666666666667;" width="335.4167" x="787.5" y="53.7028"/><ellipse cx="918.75" cy="69.397" fill="#0066CF" rx="10.4167" ry="10.4167" style="stroke:#0086EF;stroke-width:1.0416666666666667;"/><path d="M920.6604,73.822 Q920.2332,74.0417 919.7632,74.1516 Q919.2932,74.2615 918.7744,74.2615 Q916.9312,74.2615 915.9607,73.0469 Q914.9902,71.8323 914.9902,69.5374 Q914.9902,67.2363 915.9607,66.0217 Q916.9312,64.8071 918.7744,64.8071 Q919.2932,64.8071 919.7693,64.917 Q920.2454,65.0269 920.6604,65.2466 L920.6604,67.2485 Q920.1965,66.8213 919.7601,66.6229 Q919.3237,66.4246 918.8599,66.4246 Q917.8711,66.4246 917.3676,67.2089 Q916.864,67.9932 916.864,69.5374 Q916.864,71.0754 917.3676,71.8597 Q917.8711,72.644 918.8599,72.644 Q919.3237,72.644 919.7601,72.4457 Q920.1965,72.2473 920.6604,71.8201 Z " fill="#000000"/><text fill="#D8BC00" font-family="Open Sans,Avenir,Nunito,Arial,Helvetica,SansSerif" font-size="12.5" font-weight="bold" lengthAdjust="spacing" textLength="58.3333" x="941.6667" y="74.1211">JosmXml</text><line style="stroke:#5E5E5E;stroke-width:1.5625;" x1="788.5417" x2="1121.875" y1="85.0911" y2="85.0911"/><ellipse cx="798.9583" cy="120.461" fill="#84BE84" rx="3.125" ry="3.125" style="stroke:#038048;stroke-width:1.0416666666666667;"/><text fill="#D8BC00" font-family="Open Sans,Avenir,Nunito,Arial,Helvetica,SansSerif" font-size="11.4583" lengthAdjust="spacing" textLength="153.125" x="810.4167" y="127.3722">JosmXml(WritableResource)</text><line style="stroke:#5E5E5E;stroke-width:1.0416666666666667;" x1="788.5417" x2="911.4583" y1="103.2969" y2="103.2969"/><text fill="#D8BC00" font-family="Open Sans,Avenir,Nunito,Arial,Helvetica,SansSerif" font-size="11.4583" lengthAdjust="spacing" textLength="81.25" x="914.5833" y="107.1065">(constructors)</text><line style="stroke:#5E5E5E;stroke-width:1.0416666666666667;" x1="998.9583" x2="1121.875" y1="103.2969" y2="103.2969"/><ellipse cx="798.9583" cy="164.1174" fill="#84BE84" rx="3.125" ry="3.125" style="stroke:#038048;stroke-width:1.0416666666666667;"/><text fill="#D8BC00" font-family="Open Sans,Avenir,Nunito,Arial,Helvetica,SansSerif" font-size="11.4583" lengthAdjust="spacing" textLength="200" x="810.4167" y="171.0286">void addModifiedTags(boolean add)</text><ellipse cx="798.9583" cy="183.8623" fill="#84BE84" rx="3.125" ry="3.125" style="stroke:#038048;stroke-width:1.0416666666666667;"/><text fill="#D8BC00" font-family="Open Sans,Avenir,Nunito,Arial,Helvetica,SansSerif" font-size="11.4583" lengthAdjust="spacing" textLength="303.125" x="810.4167" y="190.7735">void addModifiedWays(Collection&lt;MutableWay&gt; ways)</text><ellipse cx="798.9583" cy="203.6072" fill="#84BE84" rx="3.125" ry="3.125" style="stroke:#038048;stroke-width:1.0416666666666667;"/><text fill="#D8BC00" font-family="Open Sans,Avenir,Nunito,Arial,Helvetica,SansSerif" font-size="11.4583" lengthAdjust="spacing" textLength="175" x="810.4167" y="210.5184">void addNewTags(boolean add)</text><ellipse cx="798.9583" cy="223.3521" fill="#84BE84" rx="3.125" ry="3.125" style="stroke:#038048;stroke-width:1.0416666666666667;"/><text fill="#D8BC00" font-family="Open Sans,Avenir,Nunito,Arial,Helvetica,SansSerif" font-size="11.4583" lengthAdjust="spacing" textLength="257.2917" x="810.4167" y="230.2633">void addNewWays(Collection&lt;NewWay&gt; ways)</text><ellipse cx="798.9583" cy="243.0969" fill="#84BE84" rx="3.125" ry="3.125" style="stroke:#038048;stroke-width:1.0416666666666667;"/><text fill="#D8BC00" font-family="Open Sans,Avenir,Nunito,Arial,Helvetica,SansSerif" font-size="11.4583" lengthAdjust="spacing" textLength="167.7083" x="810.4167" y="250.0081">void addNodes(PbfNodeStore)</text><ellipse cx="798.9583" cy="262.8418" fill="#84BE84" rx="3.125" ry="3.125" style="stroke:#038048;stroke-width:1.0416666666666667;"/><text fill="#D8BC00" font-family="Open Sans,Avenir,Nunito,Arial,Helvetica,SansSerif" font-size="11.4583" lengthAdjust="spacing" textLength="188.5417" x="810.4167" y="269.753">void removeWay(PbfWayIdentifier)</text><line style="stroke:#5E5E5E;stroke-width:1.0416666666666667;" x1="788.5417" x2="920.8333" y1="146.9533" y2="146.9533"/><text fill="#D8BC00" font-family="Open Sans,Avenir,Nunito,Arial,Helvetica,SansSerif" font-size="11.4583" lengthAdjust="spacing" textLength="62.5" x="923.9583" y="150.7629">(collection)</text><line style="stroke:#5E5E5E;stroke-width:1.0416666666666667;" x1="989.5833" x2="1121.875" y1="146.9533" y2="146.9533"/><ellipse cx="798.9583" cy="306.4982" fill="#84BE84" rx="3.125" ry="3.125" style="stroke:#038048;stroke-width:1.0416666666666667;"/><text fill="#D8BC00" font-family="Open Sans,Avenir,Nunito,Arial,Helvetica,SansSerif" font-size="11.4583" lengthAdjust="spacing" textLength="143.75" x="810.4167" y="313.4094">void save(boolean debug)</text><line style="stroke:#5E5E5E;stroke-width:1.0416666666666667;" x1="788.5417" x2="934.375" y1="289.3341" y2="289.3341"/><text fill="#D8BC00" font-family="Open Sans,Avenir,Nunito,Arial,Helvetica,SansSerif" font-size="11.4583" lengthAdjust="spacing" textLength="35.4167" x="937.5" y="293.1437">(write)</text><line style="stroke:#5E5E5E;stroke-width:1.0416666666666667;" x1="976.0417" x2="1121.875" y1="289.3341" y2="289.3341"/><rect codeLine="37" fill="#282828" height="83.3781" id="PbfSaver" rx="8.3333" ry="8.3333" style="stroke:#5E5E5E;stroke-width:1.0416666666666667;" width="192.7083" x="282.8125" y="385.9945"/><rect fill="#1B1B1A" height="31.3883" rx="8.3333" ry="8.3333" style="stroke:#1B1B1A;stroke-width:1.0416666666666667;" width="192.7083" x="282.8125" y="385.9945"/><rect fill="#1B1B1A" height="8.3333" style="stroke:#1B1B1A;stroke-width:1.0416666666666667;" width="192.7083" x="282.8125" y="409.0495"/><rect codeLine="37" fill="none" height="83.3781" id="PbfSaver" rx="8.3333" ry="8.3333" style="stroke:#5E5E5E;stroke-width:1.0416666666666667;" width="192.7083" x="282.8125" y="385.9945"/><ellipse cx="344.2708" cy="401.6886" fill="#0066CF" rx="10.4167" ry="10.4167" style="stroke:#0086EF;stroke-width:1.0416666666666667;"/><path d="M346.1812,406.1137 Q345.754,406.3334 345.284,406.4433 Q344.814,406.5531 344.2952,406.5531 Q342.452,406.5531 341.4815,405.3385 Q340.5111,404.1239 340.5111,401.829 Q340.5111,399.528 341.4815,398.3134 Q342.452,397.0988 344.2952,397.0988 Q344.814,397.0988 345.2901,397.2087 Q345.7662,397.3185 346.1812,397.5382 L346.1812,399.5402 Q345.7174,399.113 345.281,398.9146 Q344.8446,398.7162 344.3807,398.7162 Q343.3919,398.7162 342.8884,399.5005 Q342.3848,400.2848 342.3848,401.829 Q342.3848,403.3671 342.8884,404.1514 Q343.3919,404.9357 344.3807,404.9357 Q344.8446,404.9357 345.281,404.7373 Q345.7174,404.539 346.1812,404.1117 Z " fill="#000000"/><text fill="#D8BC00" font-family="Open Sans,Avenir,Nunito,Arial,Helvetica,SansSerif" font-size="12.5" font-weight="bold" lengthAdjust="spacing" textLength="55.2083" x="367.1875" y="406.4128">PbfSaver</text><line style="stroke:#5E5E5E;stroke-width:1.5625;" x1="283.8542" x2="474.4792" y1="417.3828" y2="417.3828"/><ellipse cx="294.2708" cy="452.7527" fill="#84BE84" rx="3.125" ry="3.125" style="stroke:#038048;stroke-width:1.0416666666666667;"/><text fill="#D8BC00" font-family="Open Sans,Avenir,Nunito,Arial,Helvetica,SansSerif" font-size="11.4583" lengthAdjust="spacing" textLength="160.4167" x="305.7292" y="459.6639">void save(Graph, File output)</text><line style="stroke:#5E5E5E;stroke-width:1.0416666666666667;" x1="283.8542" x2="358.3333" y1="435.5886" y2="435.5886"/><text fill="#D8BC00" font-family="Open Sans,Avenir,Nunito,Arial,Helvetica,SansSerif" font-size="11.4583" lengthAdjust="spacing" textLength="35.4167" x="361.4583" y="439.3982">(write)</text><line style="stroke:#5E5E5E;stroke-width:1.0416666666666667;" x1="400" x2="474.4792" y1="435.5886" y2="435.5886"/></g></svg>
