<?xml version="1.0" encoding="UTF-8" standalone="no"?><svg xmlns="http://www.w3.org/2000/svg" xmlns:xlink="http://www.w3.org/1999/xlink" contentScriptType="application/ecmascript" contentStyleType="text/css" height="218.75px" preserveAspectRatio="none" style="width:460px;height:218px;background:#333333;" version="1.1" viewBox="0 0 460 218" width="460.4167px" zoomAndPan="magnify"><defs/><g><rect fill="#48494B" height="41.2028" rx="8.3333" ry="8.3333" style="stroke:#545454;stroke-width:1.0416666666666667;" width="447.9167" x="2.0833" y="2.0833"/><text fill="#C0C0C0" font-family="Open Sans,Avenir,Nunito,Arial,Helvetica,SansSerif" font-size="20.8333" lengthAdjust="spacing" textLength="425" x="13.5417" y="30.5583">com.telenav.mesakit.graph.io.load.loaders</text><rect codeLine="7" fill="#282828" height="48.055" id="BaseRepeater" rx="8.3333" ry="8.3333" style="stroke:#5E5E5E;stroke-width:1.0416666666666667;" width="123.9583" x="93.2292" y="53.7028"/><rect fill="#1B1B1A" height="31.3883" rx="8.3333" ry="8.3333" style="stroke:#1B1B1A;stroke-width:1.0416666666666667;" width="123.9583" x="93.2292" y="53.7028"/><rect fill="#1B1B1A" height="8.3333" style="stroke:#1B1B1A;stroke-width:1.0416666666666667;" width="123.9583" x="93.2292" y="76.7578"/><rect codeLine="7" fill="none" height="48.055" id="BaseRepeater" rx="8.3333" ry="8.3333" style="stroke:#5E5E5E;stroke-width:1.0416666666666667;" width="123.9583" x="93.2292" y="53.7028"/><ellipse cx="107.8125" cy="69.397" fill="#C8AC00" rx="10.4167" ry="10.4167" style="stroke:#D8BC00;stroke-width:1.0416666666666667;"/><path d="M107.4056,66.099 L106.5572,69.8283 L108.2601,69.8283 Z M106.307,64.4511 L108.5103,64.4511 L110.9701,73.5636 L109.1695,73.5636 L108.608,71.3114 L106.1971,71.3114 L105.6478,73.5636 L103.8472,73.5636 Z " fill="#000000"/><text fill="#D8BC00" font-family="Open Sans,Avenir,Nunito,Arial,Helvetica,SansSerif" font-size="12.5" font-style="italic" font-weight="bold" lengthAdjust="spacing" textLength="86.4583" x="124.4792" y="74.1211">BaseRepeater</text><line style="stroke:#5E5E5E;stroke-width:1.0416666666666667;" x1="94.2708" x2="216.1458" y1="85.0911" y2="85.0911"/><line style="stroke:#5E5E5E;stroke-width:1.0416666666666667;" x1="94.2708" x2="216.1458" y1="93.4245" y2="93.4245"/><rect codeLine="9" fill="#282828" height="48.055" id="GraphLoader" rx="8.3333" ry="8.3333" style="stroke:#5E5E5E;stroke-width:1.0416666666666667;" width="119.7917" x="253.6458" y="53.7028"/><rect fill="#1B1B1A" height="31.3883" rx="8.3333" ry="8.3333" style="stroke:#1B1B1A;stroke-width:1.0416666666666667;" width="119.7917" x="253.6458" y="53.7028"/><rect fill="#1B1B1A" height="8.3333" style="stroke:#1B1B1A;stroke-width:1.0416666666666667;" width="119.7917" x="253.6458" y="76.7578"/><rect codeLine="9" fill="none" height="48.055" id="GraphLoader" rx="8.3333" ry="8.3333" style="stroke:#5E5E5E;stroke-width:1.0416666666666667;" width="119.7917" x="253.6458" y="53.7028"/><ellipse cx="268.2292" cy="69.397" fill="#008400" rx="10.4167" ry="10.4167" style="stroke:#239C23;stroke-width:1.0416666666666667;"/><path d="M265.6331,66.5588 L265.6331,64.9719 L271.0592,64.9719 L271.0592,66.5588 L269.2464,66.5588 L269.2464,72.4976 L271.0592,72.4976 L271.0592,74.0845 L265.6331,74.0845 L265.6331,72.4976 L267.4459,72.4976 L267.4459,66.5588 Z " fill="#000000"/><text fill="#D8BC00" font-family="Open Sans,Avenir,Nunito,Arial,Helvetica,SansSerif" font-size="12.5" font-style="italic" font-weight="bold" lengthAdjust="spacing" textLength="82.2917" x="284.8958" y="74.1211">GraphLoader</text><line style="stroke:#5E5E5E;stroke-width:1.0416666666666667;" x1="254.6875" x2="372.3958" y1="85.0911" y2="85.0911"/><line style="stroke:#5E5E5E;stroke-width:1.0416666666666667;" x1="254.6875" x2="372.3958" y1="93.4245" y2="93.4245"/><rect codeLine="13" fill="#282828" height="48.055" id="BaseGraphLoader" rx="8.3333" ry="8.3333" style="stroke:#5E5E5E;stroke-width:1.0416666666666667;" width="150" x="159.375" y="164.1195"/><rect fill="#1B1B1A" height="31.3883" rx="8.3333" ry="8.3333" style="stroke:#1B1B1A;stroke-width:1.0416666666666667;" width="150" x="159.375" y="164.1195"/><rect fill="#1B1B1A" height="8.3333" style="stroke:#1B1B1A;stroke-width:1.0416666666666667;" width="150" x="159.375" y="187.1745"/><rect codeLine="13" fill="none" height="48.055" id="BaseGraphLoader" rx="8.3333" ry="8.3333" style="stroke:#5E5E5E;stroke-width:1.0416666666666667;" width="150" x="159.375" y="164.1195"/><ellipse cx="173.9583" cy="179.8136" fill="#C8AC00" rx="10.4167" ry="10.4167" style="stroke:#D8BC00;stroke-width:1.0416666666666667;"/><path d="M173.5514,176.5157 L172.703,180.245 L174.4059,180.245 Z M172.4528,174.8678 L174.6562,174.8678 L177.1159,183.9803 L175.3153,183.9803 L174.7538,181.7281 L172.3429,181.7281 L171.7936,183.9803 L169.9931,183.9803 Z " fill="#000000"/><text fill="#D8BC00" font-family="Open Sans,Avenir,Nunito,Arial,Helvetica,SansSerif" font-size="12.5" font-style="italic" font-weight="bold" lengthAdjust="spacing" textLength="112.5" x="190.625" y="184.5378">BaseGraphLoader</text><line style="stroke:#5E5E5E;stroke-width:1.0416666666666667;" x1="160.4167" x2="308.3333" y1="195.5078" y2="195.5078"/><line style="stroke:#5E5E5E;stroke-width:1.0416666666666667;" x1="160.4167" x2="308.3333" y1="203.8411" y2="203.8411"/><path codeLine="11" d="M184.3542,118.5882 C195.5625,133.9215 207.9583,150.8903 217.6146,164.0986 " fill="none" id="BaseRepeater-backto-BaseGraphLoader" style="stroke:#545454;stroke-width:1.5625;"/><polygon fill="none" points="178.4063,122.7965,172,101.682,190.1771,114.1924,178.4063,122.7965" style="stroke:#545454;stroke-width:1.5625;"/><path codeLine="12" d="M284.3958,118.5882 C273.1875,133.9215 260.7917,150.8903 251.1354,164.0986 " fill="none" id="GraphLoader-backto-BaseGraphLoader" style="stroke:#545454;stroke-width:1.5625;"/><polygon fill="none" points="278.5729,114.1924,296.75,101.682,290.3438,122.7965,278.5729,114.1924" style="stroke:#545454;stroke-width:1.5625;"/></g></svg>
