<?xml version="1.0" encoding="UTF-8" standalone="no"?><svg xmlns="http://www.w3.org/2000/svg" xmlns:xlink="http://www.w3.org/1999/xlink" contentScriptType="application/ecmascript" contentStyleType="text/css" height="428.125px" preserveAspectRatio="none" style="width:961px;height:428px;background:#333333;" version="1.1" viewBox="0 0 961 428" width="961.4583px" zoomAndPan="magnify"><defs/><g><rect fill="#48494B" height="41.2028" rx="8.3333" ry="8.3333" style="stroke:#545454;stroke-width:1.0416666666666667;" width="415.625" x="265.625" y="2.0833"/><text fill="#C0C0C0" font-family="Open Sans,Avenir,Nunito,Arial,Helvetica,SansSerif" font-size="20.8333" lengthAdjust="spacing" textLength="392.7083" x="277.0833" y="30.5583">org.nocrala.tools.gis.data.esri.shapefile</text><rect codeLine="7" fill="#282828" height="190.4358" id="ShapeFileReader" rx="8.3333" ry="8.3333" style="stroke:#5E5E5E;stroke-width:1.0416666666666667;" width="326.0417" x="7.2917" y="142.2445"/><rect fill="#1B1B1A" height="31.3883" rx="8.3333" ry="8.3333" style="stroke:#1B1B1A;stroke-width:1.0416666666666667;" width="326.0417" x="7.2917" y="142.2445"/><rect fill="#1B1B1A" height="8.3333" style="stroke:#1B1B1A;stroke-width:1.0416666666666667;" width="326.0417" x="7.2917" y="165.2995"/><rect codeLine="7" fill="none" height="190.4358" id="ShapeFileReader" rx="8.3333" ry="8.3333" style="stroke:#5E5E5E;stroke-width:1.0416666666666667;" width="326.0417" x="7.2917" y="142.2445"/><ellipse cx="110.4167" cy="157.9386" fill="#0066CF" rx="10.4167" ry="10.4167" style="stroke:#0086EF;stroke-width:1.0416666666666667;"/><path d="M112.3271,162.3637 Q111.8998,162.5834 111.4299,162.6933 Q110.9599,162.8031 110.4411,162.8031 Q108.5978,162.8031 107.6274,161.5885 Q106.6569,160.3739 106.6569,158.079 Q106.6569,155.778 107.6274,154.5634 Q108.5978,153.3488 110.4411,153.3488 Q110.9599,153.3488 111.436,153.4587 Q111.912,153.5685 112.3271,153.7882 L112.3271,155.7902 Q111.8632,155.363 111.4268,155.1646 Q110.9904,154.9662 110.5265,154.9662 Q109.5378,154.9662 109.0342,155.7505 Q108.5307,156.5348 108.5307,158.079 Q108.5307,159.6171 109.0342,160.4014 Q109.5378,161.1857 110.5265,161.1857 Q110.9904,161.1857 111.4268,160.9873 Q111.8632,160.789 112.3271,160.3617 Z " fill="#000000"/><text fill="#D8BC00" font-family="Open Sans,Avenir,Nunito,Arial,Helvetica,SansSerif" font-size="12.5" font-weight="bold" lengthAdjust="spacing" textLength="105.2083" x="133.3333" y="162.6628">ShapeFileReader</text><line style="stroke:#5E5E5E;stroke-width:1.5625;" x1="8.3333" x2="332.2917" y1="173.6328" y2="173.6328"/><ellipse cx="18.75" cy="209.0027" fill="#84BE84" rx="3.125" ry="3.125" style="stroke:#038048;stroke-width:1.0416666666666667;"/><text fill="#D8BC00" font-family="Open Sans,Avenir,Nunito,Arial,Helvetica,SansSerif" font-size="11.4583" lengthAdjust="spacing" textLength="166.6667" x="30.2083" y="215.9139">ShapeFileReader(InputStream)</text><ellipse cx="18.75" cy="228.7476" fill="#84BE84" rx="3.125" ry="3.125" style="stroke:#038048;stroke-width:1.0416666666666667;"/><text fill="#D8BC00" font-family="Open Sans,Avenir,Nunito,Arial,Helvetica,SansSerif" font-size="11.4583" lengthAdjust="spacing" textLength="293.75" x="30.2083" y="235.6588">ShapeFileReader(InputStream, ValidationPreferences)</text><line style="stroke:#5E5E5E;stroke-width:1.0416666666666667;" x1="8.3333" x2="126.5625" y1="191.8386" y2="191.8386"/><text fill="#D8BC00" font-family="Open Sans,Avenir,Nunito,Arial,Helvetica,SansSerif" font-size="11.4583" lengthAdjust="spacing" textLength="81.25" x="129.6875" y="195.6482">(constructors)</text><line style="stroke:#5E5E5E;stroke-width:1.0416666666666667;" x1="214.0625" x2="332.2917" y1="191.8386" y2="191.8386"/><ellipse cx="18.75" cy="272.404" fill="#84BE84" rx="3.125" ry="3.125" style="stroke:#038048;stroke-width:1.0416666666666667;"/><text fill="#D8BC00" font-family="Open Sans,Avenir,Nunito,Arial,Helvetica,SansSerif" font-size="11.4583" lengthAdjust="spacing" textLength="160.4167" x="30.2083" y="279.3152">ShapeFileHeader getHeader()</text><line style="stroke:#5E5E5E;stroke-width:1.0416666666666667;" x1="8.3333" x2="134.8958" y1="255.2399" y2="255.2399"/><text fill="#D8BC00" font-family="Open Sans,Avenir,Nunito,Arial,Helvetica,SansSerif" font-size="11.4583" lengthAdjust="spacing" textLength="64.5833" x="138.0208" y="259.0495">(filesystem)</text><line style="stroke:#5E5E5E;stroke-width:1.0416666666666667;" x1="205.7292" x2="332.2917" y1="255.2399" y2="255.2399"/><ellipse cx="18.75" cy="316.0604" fill="#84BE84" rx="3.125" ry="3.125" style="stroke:#038048;stroke-width:1.0416666666666667;"/><text fill="#D8BC00" font-family="Open Sans,Avenir,Nunito,Arial,Helvetica,SansSerif" font-size="11.4583" lengthAdjust="spacing" textLength="117.7083" x="30.2083" y="322.9716">AbstractShape next()</text><line style="stroke:#5E5E5E;stroke-width:1.0416666666666667;" x1="8.3333" x2="139.5833" y1="298.8963" y2="298.8963"/><text fill="#D8BC00" font-family="Open Sans,Avenir,Nunito,Arial,Helvetica,SansSerif" font-size="11.4583" lengthAdjust="spacing" textLength="55.2083" x="142.7083" y="302.7059">(iteration)</text><line style="stroke:#5E5E5E;stroke-width:1.0416666666666667;" x1="201.0417" x2="332.2917" y1="298.8963" y2="298.8963"/><rect codeLine="18" fill="#282828" height="368.1396" id="ValidationPreferences" rx="8.3333" ry="8.3333" style="stroke:#5E5E5E;stroke-width:1.0416666666666667;" width="584.375" x="369.7917" y="53.7028"/><rect fill="#1B1B1A" height="31.3883" rx="8.3333" ry="8.3333" style="stroke:#1B1B1A;stroke-width:1.0416666666666667;" width="584.375" x="369.7917" y="53.7028"/><rect fill="#1B1B1A" height="8.3333" style="stroke:#1B1B1A;stroke-width:1.0416666666666667;" width="584.375" x="369.7917" y="76.7578"/><rect codeLine="18" fill="none" height="368.1396" id="ValidationPreferences" rx="8.3333" ry="8.3333" style="stroke:#5E5E5E;stroke-width:1.0416666666666667;" width="584.375" x="369.7917" y="53.7028"/><ellipse cx="584.8958" cy="69.397" fill="#0066CF" rx="10.4167" ry="10.4167" style="stroke:#0086EF;stroke-width:1.0416666666666667;"/><path d="M586.8062,73.822 Q586.379,74.0417 585.909,74.1516 Q585.439,74.2615 584.9202,74.2615 Q583.077,74.2615 582.1065,73.0469 Q581.1361,71.8323 581.1361,69.5374 Q581.1361,67.2363 582.1065,66.0217 Q583.077,64.8071 584.9202,64.8071 Q585.439,64.8071 585.9151,64.917 Q586.3912,65.0269 586.8062,65.2466 L586.8062,67.2485 Q586.3424,66.8213 585.906,66.6229 Q585.4696,66.4246 585.0057,66.4246 Q584.0169,66.4246 583.5134,67.2089 Q583.0098,67.9932 583.0098,69.5374 Q583.0098,71.0754 583.5134,71.8597 Q584.0169,72.644 585.0057,72.644 Q585.4696,72.644 585.906,72.4457 Q586.3424,72.2473 586.8062,71.8201 Z " fill="#000000"/><text fill="#D8BC00" font-family="Open Sans,Avenir,Nunito,Arial,Helvetica,SansSerif" font-size="12.5" font-weight="bold" lengthAdjust="spacing" textLength="139.5833" x="607.8125" y="74.1211">ValidationPreferences</text><line style="stroke:#5E5E5E;stroke-width:1.5625;" x1="370.8333" x2="953.125" y1="85.0911" y2="85.0911"/><line style="stroke:#5E5E5E;stroke-width:1.0416666666666667;" x1="370.8333" x2="953.125" y1="93.4245" y2="93.4245"/><ellipse cx="381.25" cy="104.8828" fill="#84BE84" rx="3.125" ry="3.125" style="stroke:#038048;stroke-width:1.0416666666666667;"/><text fill="#D8BC00" font-family="Open Sans,Avenir,Nunito,Arial,Helvetica,SansSerif" font-size="11.4583" lengthAdjust="spacing" textLength="179.1667" x="392.7083" y="111.794">int getExpectedRecordNumber()</text><ellipse cx="381.25" cy="124.6277" fill="#84BE84" rx="3.125" ry="3.125" style="stroke:#038048;stroke-width:1.0416666666666667;"/><text fill="#D8BC00" font-family="Open Sans,Avenir,Nunito,Arial,Helvetica,SansSerif" font-size="11.4583" lengthAdjust="spacing" textLength="158.3333" x="392.7083" y="131.5389">PartType getForcePartType()</text><ellipse cx="381.25" cy="144.3726" fill="#84BE84" rx="3.125" ry="3.125" style="stroke:#038048;stroke-width:1.0416666666666667;"/><text fill="#D8BC00" font-family="Open Sans,Avenir,Nunito,Arial,Helvetica,SansSerif" font-size="11.4583" lengthAdjust="spacing" textLength="181.25" x="392.7083" y="151.2838">ShapeType getForceShapeType()</text><ellipse cx="381.25" cy="164.1174" fill="#84BE84" rx="3.125" ry="3.125" style="stroke:#038048;stroke-width:1.0416666666666667;"/><text fill="#D8BC00" font-family="Open Sans,Avenir,Nunito,Arial,Helvetica,SansSerif" font-size="11.4583" lengthAdjust="spacing" textLength="210.4167" x="392.7083" y="171.0286">int getMaxNumberOfPointsPerShape()</text><ellipse cx="381.25" cy="183.8623" fill="#84BE84" rx="3.125" ry="3.125" style="stroke:#038048;stroke-width:1.0416666666666667;"/><text fill="#D8BC00" font-family="Open Sans,Avenir,Nunito,Arial,Helvetica,SansSerif" font-size="11.4583" lengthAdjust="spacing" textLength="364.5833" x="392.7083" y="190.7735">void setAllowBadContentLength(boolean allowBadContentLength)</text><ellipse cx="381.25" cy="203.6072" fill="#84BE84" rx="3.125" ry="3.125" style="stroke:#038048;stroke-width:1.0416666666666667;"/><text fill="#D8BC00" font-family="Open Sans,Avenir,Nunito,Arial,Helvetica,SansSerif" font-size="11.4583" lengthAdjust="spacing" textLength="379.1667" x="392.7083" y="210.5184">void setAllowBadRecordNumbers(boolean allowBadRecordNumbers)</text><ellipse cx="381.25" cy="223.3521" fill="#84BE84" rx="3.125" ry="3.125" style="stroke:#038048;stroke-width:1.0416666666666667;"/><text fill="#D8BC00" font-family="Open Sans,Avenir,Nunito,Arial,Helvetica,SansSerif" font-size="11.4583" lengthAdjust="spacing" textLength="379.1667" x="392.7083" y="230.2633">void setAllowMultipleShapeTypes(boolean allowMultipleShapeTypes)</text><ellipse cx="381.25" cy="243.0969" fill="#84BE84" rx="3.125" ry="3.125" style="stroke:#038048;stroke-width:1.0416666666666667;"/><text fill="#D8BC00" font-family="Open Sans,Avenir,Nunito,Arial,Helvetica,SansSerif" font-size="11.4583" lengthAdjust="spacing" textLength="552.0833" x="392.7083" y="250.0081">void setAllowUnlimitedNumberOfPointsPerShape(boolean allowUnlimitedNumberOfPointsPerShape)</text><ellipse cx="381.25" cy="262.8418" fill="#84BE84" rx="3.125" ry="3.125" style="stroke:#038048;stroke-width:1.0416666666666667;"/><text fill="#D8BC00" font-family="Open Sans,Avenir,Nunito,Arial,Helvetica,SansSerif" font-size="11.4583" lengthAdjust="spacing" textLength="262.5" x="392.7083" y="269.753">void setForcePartType(PartType forcePartType)</text><ellipse cx="381.25" cy="282.5867" fill="#84BE84" rx="3.125" ry="3.125" style="stroke:#038048;stroke-width:1.0416666666666667;"/><text fill="#D8BC00" font-family="Open Sans,Avenir,Nunito,Arial,Helvetica,SansSerif" font-size="11.4583" lengthAdjust="spacing" textLength="296.875" x="392.7083" y="289.4979">void setForceShapeType(ShapeType forceShapeType)</text><ellipse cx="381.25" cy="302.3315" fill="#84BE84" rx="3.125" ry="3.125" style="stroke:#038048;stroke-width:1.0416666666666667;"/><text fill="#D8BC00" font-family="Open Sans,Avenir,Nunito,Arial,Helvetica,SansSerif" font-size="11.4583" lengthAdjust="spacing" textLength="290.625" x="392.7083" y="309.2428">void setMaxNumberOfPointsPerShape(int maxItems)</text><ellipse cx="381.25" cy="345.988" fill="#84BE84" rx="3.125" ry="3.125" style="stroke:#038048;stroke-width:1.0416666666666667;"/><text fill="#D8BC00" font-family="Open Sans,Avenir,Nunito,Arial,Helvetica,SansSerif" font-size="11.4583" lengthAdjust="spacing" textLength="198.9583" x="392.7083" y="352.8992">boolean isAllowBadContentLength()</text><ellipse cx="381.25" cy="365.7328" fill="#84BE84" rx="3.125" ry="3.125" style="stroke:#038048;stroke-width:1.0416666666666667;"/><text fill="#D8BC00" font-family="Open Sans,Avenir,Nunito,Arial,Helvetica,SansSerif" font-size="11.4583" lengthAdjust="spacing" textLength="206.25" x="392.7083" y="372.644">boolean isAllowBadRecordNumbers()</text><ellipse cx="381.25" cy="385.4777" fill="#84BE84" rx="3.125" ry="3.125" style="stroke:#038048;stroke-width:1.0416666666666667;"/><text fill="#D8BC00" font-family="Open Sans,Avenir,Nunito,Arial,Helvetica,SansSerif" font-size="11.4583" lengthAdjust="spacing" textLength="206.25" x="392.7083" y="392.3889">boolean isAllowMultipleShapeTypes()</text><ellipse cx="381.25" cy="405.2226" fill="#84BE84" rx="3.125" ry="3.125" style="stroke:#038048;stroke-width:1.0416666666666667;"/><text fill="#D8BC00" font-family="Open Sans,Avenir,Nunito,Arial,Helvetica,SansSerif" font-size="11.4583" lengthAdjust="spacing" textLength="292.7083" x="392.7083" y="412.1338">boolean isAllowUnlimitedNumberOfPointsPerShape()</text><line style="stroke:#5E5E5E;stroke-width:1.0416666666666667;" x1="370.8333" x2="635.4167" y1="328.8239" y2="328.8239"/><text fill="#D8BC00" font-family="Open Sans,Avenir,Nunito,Arial,Helvetica,SansSerif" font-size="11.4583" lengthAdjust="spacing" textLength="46.875" x="638.5417" y="332.6335">(checks)</text><line style="stroke:#5E5E5E;stroke-width:1.0416666666666667;" x1="688.5417" x2="953.125" y1="328.8239" y2="328.8239"/></g></svg>
