<?xml version="1.0" encoding="UTF-8" standalone="no"?><svg xmlns="http://www.w3.org/2000/svg" xmlns:xlink="http://www.w3.org/1999/xlink" contentScriptType="application/ecmascript" contentStyleType="text/css" height="313.5417px" preserveAspectRatio="none" style="width:535px;height:313px;background:#333333;" version="1.1" viewBox="0 0 535 313" width="535.4167px" zoomAndPan="magnify"><defs/><g><rect fill="#48494B" height="41.2028" rx="8.3333" ry="8.3333" style="stroke:#545454;stroke-width:1.0416666666666667;" width="519.7917" x="2.0833" y="2.0833"/><text fill="#C0C0C0" font-family="Open Sans,Avenir,Nunito,Arial,Helvetica,SansSerif" font-size="20.8333" lengthAdjust="spacing" textLength="496.875" x="13.5417" y="30.5583">org.nocrala.tools.gis.data.esri.shapefile.exception</text><rect fill="#282828" height="48.055" id="Exception" rx="8.3333" ry="8.3333" style="stroke:#5E5E5E;stroke-width:1.0416666666666667;" width="100" x="198.1771" y="53.7028"/><rect fill="#1B1B1A" height="31.3883" rx="8.3333" ry="8.3333" style="stroke:#1B1B1A;stroke-width:1.0416666666666667;" width="100" x="198.1771" y="53.7028"/><rect fill="#1B1B1A" height="8.3333" style="stroke:#1B1B1A;stroke-width:1.0416666666666667;" width="100" x="198.1771" y="76.7578"/><rect fill="none" height="48.055" id="Exception" rx="8.3333" ry="8.3333" style="stroke:#5E5E5E;stroke-width:1.0416666666666667;" width="100" x="198.1771" y="53.7028"/><ellipse cx="212.7604" cy="69.397" fill="#0066CF" rx="10.4167" ry="10.4167" style="stroke:#0086EF;stroke-width:1.0416666666666667;"/><path d="M214.6708,73.822 Q214.2436,74.0417 213.7736,74.1516 Q213.3036,74.2615 212.7848,74.2615 Q210.9416,74.2615 209.9711,73.0469 Q209.0007,71.8323 209.0007,69.5374 Q209.0007,67.2363 209.9711,66.0217 Q210.9416,64.8071 212.7848,64.8071 Q213.3036,64.8071 213.7797,64.917 Q214.2558,65.0269 214.6708,65.2466 L214.6708,67.2485 Q214.2069,66.8213 213.7705,66.6229 Q213.3341,66.4246 212.8703,66.4246 Q211.8815,66.4246 211.378,67.2089 Q210.8744,67.9932 210.8744,69.5374 Q210.8744,71.0754 211.378,71.8597 Q211.8815,72.644 212.8703,72.644 Q213.3341,72.644 213.7705,72.4457 Q214.2069,72.2473 214.6708,71.8201 Z " fill="#000000"/><text fill="#D8BC00" font-family="Open Sans,Avenir,Nunito,Arial,Helvetica,SansSerif" font-size="12.5" font-weight="bold" lengthAdjust="spacing" textLength="62.5" x="229.4271" y="74.1211">Exception</text><line style="stroke:#5E5E5E;stroke-width:1.0416666666666667;" x1="199.2188" x2="297.1354" y1="85.0911" y2="85.0911"/><line style="stroke:#5E5E5E;stroke-width:1.0416666666666667;" x1="199.2188" x2="297.1354" y1="93.4245" y2="93.4245"/><rect codeLine="8" fill="#282828" height="83.3781" id="DataStreamEOFException" rx="8.3333" ry="8.3333" style="stroke:#5E5E5E;stroke-width:1.0416666666666667;" width="200" x="9.6354" y="193.807"/><rect fill="#1B1B1A" height="31.3883" rx="8.3333" ry="8.3333" style="stroke:#1B1B1A;stroke-width:1.0416666666666667;" width="200" x="9.6354" y="193.807"/><rect fill="#1B1B1A" height="8.3333" style="stroke:#1B1B1A;stroke-width:1.0416666666666667;" width="200" x="9.6354" y="216.862"/><rect codeLine="8" fill="none" height="83.3781" id="DataStreamEOFException" rx="8.3333" ry="8.3333" style="stroke:#5E5E5E;stroke-width:1.0416666666666667;" width="200" x="9.6354" y="193.807"/><ellipse cx="24.2188" cy="209.5011" fill="#0066CF" rx="10.4167" ry="10.4167" style="stroke:#0086EF;stroke-width:1.0416666666666667;"/><path d="M26.1292,213.9262 Q25.7019,214.1459 25.2319,214.2558 Q24.762,214.3656 24.2432,214.3656 Q22.3999,214.3656 21.4294,213.151 Q20.459,211.9364 20.459,209.6415 Q20.459,207.3405 21.4294,206.1259 Q22.3999,204.9113 24.2432,204.9113 Q24.762,204.9113 25.238,205.0212 Q25.7141,205.131 26.1292,205.3507 L26.1292,207.3527 Q25.6653,206.9255 25.2289,206.7271 Q24.7925,206.5287 24.3286,206.5287 Q23.3398,206.5287 22.8363,207.313 Q22.3328,208.0973 22.3328,209.6415 Q22.3328,211.1796 22.8363,211.9639 Q23.3398,212.7482 24.3286,212.7482 Q24.7925,212.7482 25.2289,212.5498 Q25.6653,212.3515 26.1292,211.9242 Z " fill="#000000"/><text fill="#D8BC00" font-family="Open Sans,Avenir,Nunito,Arial,Helvetica,SansSerif" font-size="12.5" font-weight="bold" lengthAdjust="spacing" textLength="162.5" x="40.8854" y="214.2253">DataStreamEOFException</text><line style="stroke:#5E5E5E;stroke-width:1.5625;" x1="10.6771" x2="208.5938" y1="225.1953" y2="225.1953"/><ellipse cx="21.0938" cy="260.5652" fill="#84BE84" rx="3.125" ry="3.125" style="stroke:#038048;stroke-width:1.0416666666666667;"/><text fill="#D8BC00" font-family="Open Sans,Avenir,Nunito,Arial,Helvetica,SansSerif" font-size="11.4583" lengthAdjust="spacing" textLength="148.9583" x="32.5521" y="267.4764">DataStreamEOFException()</text><line style="stroke:#5E5E5E;stroke-width:1.0416666666666667;" x1="10.6771" x2="65.8854" y1="243.4011" y2="243.4011"/><text fill="#D8BC00" font-family="Open Sans,Avenir,Nunito,Arial,Helvetica,SansSerif" font-size="11.4583" lengthAdjust="spacing" textLength="81.25" x="69.0104" y="247.2107">(constructors)</text><line style="stroke:#5E5E5E;stroke-width:1.0416666666666667;" x1="153.3854" x2="208.5938" y1="243.4011" y2="243.4011"/><rect codeLine="15" fill="#282828" height="142.6127" id="InvalidShapeFileException" rx="8.3333" ry="8.3333" style="stroke:#5E5E5E;stroke-width:1.0416666666666667;" width="282.2917" x="246.6146" y="164.1195"/><rect fill="#1B1B1A" height="31.3883" rx="8.3333" ry="8.3333" style="stroke:#1B1B1A;stroke-width:1.0416666666666667;" width="282.2917" x="246.6146" y="164.1195"/><rect fill="#1B1B1A" height="8.3333" style="stroke:#1B1B1A;stroke-width:1.0416666666666667;" width="282.2917" x="246.6146" y="187.1745"/><rect codeLine="15" fill="none" height="142.6127" id="InvalidShapeFileException" rx="8.3333" ry="8.3333" style="stroke:#5E5E5E;stroke-width:1.0416666666666667;" width="282.2917" x="246.6146" y="164.1195"/><ellipse cx="296.6146" cy="179.8136" fill="#0066CF" rx="10.4167" ry="10.4167" style="stroke:#0086EF;stroke-width:1.0416666666666667;"/><path d="M298.525,184.2387 Q298.0977,184.4584 297.6278,184.5683 Q297.1578,184.6781 296.639,184.6781 Q294.7957,184.6781 293.8253,183.4635 Q292.8548,182.2489 292.8548,179.954 Q292.8548,177.653 293.8253,176.4384 Q294.7957,175.2238 296.639,175.2238 Q297.1578,175.2238 297.6339,175.3337 Q298.1099,175.4435 298.525,175.6632 L298.525,177.6652 Q298.0611,177.238 297.6247,177.0396 Q297.1883,176.8412 296.7244,176.8412 Q295.7357,176.8412 295.2321,177.6255 Q294.7286,178.4098 294.7286,179.954 Q294.7286,181.4921 295.2321,182.2764 Q295.7357,183.0607 296.7244,183.0607 Q297.1883,183.0607 297.6247,182.8623 Q298.0611,182.664 298.525,182.2367 Z " fill="#000000"/><text fill="#D8BC00" font-family="Open Sans,Avenir,Nunito,Arial,Helvetica,SansSerif" font-size="12.5" font-weight="bold" lengthAdjust="spacing" textLength="167.7083" x="319.5313" y="184.5378">InvalidShapeFileException</text><line style="stroke:#5E5E5E;stroke-width:1.5625;" x1="247.6563" x2="527.8646" y1="195.5078" y2="195.5078"/><ellipse cx="258.0729" cy="230.8777" fill="#84BE84" rx="3.125" ry="3.125" style="stroke:#038048;stroke-width:1.0416666666666667;"/><text fill="#D8BC00" font-family="Open Sans,Avenir,Nunito,Arial,Helvetica,SansSerif" font-size="11.4583" lengthAdjust="spacing" textLength="152.0833" x="269.5313" y="237.7889">InvalidShapeFileException()</text><ellipse cx="258.0729" cy="250.6226" fill="#84BE84" rx="3.125" ry="3.125" style="stroke:#038048;stroke-width:1.0416666666666667;"/><text fill="#D8BC00" font-family="Open Sans,Avenir,Nunito,Arial,Helvetica,SansSerif" font-size="11.4583" lengthAdjust="spacing" textLength="185.4167" x="269.5313" y="257.5338">InvalidShapeFileException(String)</text><ellipse cx="258.0729" cy="270.3674" fill="#84BE84" rx="3.125" ry="3.125" style="stroke:#038048;stroke-width:1.0416666666666667;"/><text fill="#D8BC00" font-family="Open Sans,Avenir,Nunito,Arial,Helvetica,SansSerif" font-size="11.4583" lengthAdjust="spacing" textLength="250" x="269.5313" y="277.2786">InvalidShapeFileException(String, Throwable)</text><ellipse cx="258.0729" cy="290.1123" fill="#84BE84" rx="3.125" ry="3.125" style="stroke:#038048;stroke-width:1.0416666666666667;"/><text fill="#D8BC00" font-family="Open Sans,Avenir,Nunito,Arial,Helvetica,SansSerif" font-size="11.4583" lengthAdjust="spacing" textLength="210.4167" x="269.5313" y="297.0235">InvalidShapeFileException(Throwable)</text><line style="stroke:#5E5E5E;stroke-width:1.0416666666666667;" x1="247.6563" x2="344.0104" y1="213.7136" y2="213.7136"/><text fill="#D8BC00" font-family="Open Sans,Avenir,Nunito,Arial,Helvetica,SansSerif" font-size="11.4583" lengthAdjust="spacing" textLength="81.25" x="347.1354" y="217.5232">(constructors)</text><line style="stroke:#5E5E5E;stroke-width:1.0416666666666667;" x1="431.5104" x2="527.8646" y1="213.7136" y2="213.7136"/><path codeLine="7" d="M213.8646,117.2757 C193.25,140.4528 167.0313,169.9215 146.0417,193.5049 " fill="none" id="Exception-backto-DataStreamEOFException" style="stroke:#545454;stroke-width:1.5625;"/><polygon fill="none" points="208.4375,112.4007,227.7396,101.682,219.3333,122.0882,208.4375,112.4007" style="stroke:#545454;stroke-width:1.5625;"/><path codeLine="14" d="M283.0208,117.5674 C295.6667,131.6924 310.3854,148.109 324.7188,164.0986 " fill="none" id="Exception-backto-InvalidShapeFileException" style="stroke:#545454;stroke-width:1.5625;"/><polygon fill="none" points="277.25,122.057,268.7708,101.682,288.1042,112.3278,277.25,122.057" style="stroke:#545454;stroke-width:1.5625;"/></g></svg>
