<?xml version="1.0" encoding="UTF-8" standalone="no"?><svg xmlns="http://www.w3.org/2000/svg" xmlns:xlink="http://www.w3.org/1999/xlink" contentScriptType="application/ecmascript" contentStyleType="text/css" height="614.5833px" preserveAspectRatio="none" style="width:825px;height:614px;background:#333333;" version="1.1" viewBox="0 0 825 614" width="825px" zoomAndPan="magnify"><defs/><g><rect fill="#48494B" height="41.2028" rx="8.3333" ry="8.3333" style="stroke:#545454;stroke-width:1.0416666666666667;" width="481.25" x="164.8438" y="2.0833"/><text fill="#C0C0C0" font-family="Open Sans,Avenir,Nunito,Arial,Helvetica,SansSerif" font-size="20.8333" lengthAdjust="spacing" textLength="458.3333" x="176.3021" y="30.5583">org.nocrala.tools.gis.data.esri.shapefile.shape</text><rect codeLine="7" fill="#282828" height="131.2012" id="AbstractShape" rx="8.3333" ry="8.3333" style="stroke:#5E5E5E;stroke-width:1.0416666666666667;" width="462.5" x="9.375" y="71.4111"/><rect fill="#1B1B1A" height="31.3883" rx="8.3333" ry="8.3333" style="stroke:#1B1B1A;stroke-width:1.0416666666666667;" width="462.5" x="9.375" y="71.4111"/><rect fill="#1B1B1A" height="8.3333" style="stroke:#1B1B1A;stroke-width:1.0416666666666667;" width="462.5" x="9.375" y="94.4661"/><rect codeLine="7" fill="none" height="131.2012" id="AbstractShape" rx="8.3333" ry="8.3333" style="stroke:#5E5E5E;stroke-width:1.0416666666666667;" width="462.5" x="9.375" y="71.4111"/><ellipse cx="186.9792" cy="87.1053" fill="#C8AC00" rx="10.4167" ry="10.4167" style="stroke:#D8BC00;stroke-width:1.0416666666666667;"/><path d="M186.5723,83.8074 L185.7239,87.5366 L187.4268,87.5366 Z M185.4736,82.1594 L187.677,82.1594 L190.1367,91.272 L188.3362,91.272 L187.7747,89.0198 L185.3638,89.0198 L184.8145,91.272 L183.0139,91.272 Z " fill="#000000"/><text fill="#D8BC00" font-family="Open Sans,Avenir,Nunito,Arial,Helvetica,SansSerif" font-size="12.5" font-style="italic" font-weight="bold" lengthAdjust="spacing" textLength="92.7083" x="209.8958" y="91.8294">AbstractShape</text><line style="stroke:#5E5E5E;stroke-width:1.5625;" x1="10.4167" x2="470.8333" y1="102.7995" y2="102.7995"/><polygon fill="#FFFF44" points="20.8333,132.961,25,137.1277,20.8333,141.2944,16.6667,137.1277" style="stroke:#B38D22;stroke-width:1.0416666666666667;"/><text fill="#D8BC00" font-family="Open Sans,Avenir,Nunito,Arial,Helvetica,SansSerif" font-size="11.4583" lengthAdjust="spacing" textLength="430.2083" x="32.2917" y="145.0806">AbstractShape(ShapeHeader, ShapeType, InputStream, ValidationPreferences)</text><line style="stroke:#5E5E5E;stroke-width:1.0416666666666667;" x1="10.4167" x2="196.875" y1="121.0052" y2="121.0052"/><text fill="#D8BC00" font-family="Open Sans,Avenir,Nunito,Arial,Helvetica,SansSerif" font-size="11.4583" lengthAdjust="spacing" textLength="81.25" x="200" y="124.8149">(constructors)</text><line style="stroke:#5E5E5E;stroke-width:1.0416666666666667;" x1="284.375" x2="470.8333" y1="121.0052" y2="121.0052"/><line style="stroke:#5E5E5E;stroke-width:1.0416666666666667;" x1="10.4167" x2="470.8333" y1="154.7892" y2="154.7892"/><ellipse cx="20.8333" cy="166.2476" fill="#84BE84" rx="3.125" ry="3.125" style="stroke:#038048;stroke-width:1.0416666666666667;"/><text fill="#D8BC00" font-family="Open Sans,Avenir,Nunito,Arial,Helvetica,SansSerif" font-size="11.4583" lengthAdjust="spacing" textLength="141.6667" x="32.2917" y="173.1588">ShapeHeader getHeader()</text><ellipse cx="20.8333" cy="185.9924" fill="#84BE84" rx="3.125" ry="3.125" style="stroke:#038048;stroke-width:1.0416666666666667;"/><text fill="#D8BC00" font-family="Open Sans,Avenir,Nunito,Arial,Helvetica,SansSerif" font-size="11.4583" lengthAdjust="spacing" textLength="150" x="32.2917" y="192.9036">ShapeType getShapeType()</text><rect codeLine="16" fill="#282828" height="48.055" id="Const" rx="8.3333" ry="8.3333" style="stroke:#5E5E5E;stroke-width:1.0416666666666667;" width="76.0417" x="508.8542" y="113.0778"/><rect fill="#1B1B1A" height="31.3883" rx="8.3333" ry="8.3333" style="stroke:#1B1B1A;stroke-width:1.0416666666666667;" width="76.0417" x="508.8542" y="113.0778"/><rect fill="#1B1B1A" height="8.3333" style="stroke:#1B1B1A;stroke-width:1.0416666666666667;" width="76.0417" x="508.8542" y="136.1328"/><rect codeLine="16" fill="none" height="48.055" id="Const" rx="8.3333" ry="8.3333" style="stroke:#5E5E5E;stroke-width:1.0416666666666667;" width="76.0417" x="508.8542" y="113.0778"/><ellipse cx="523.4375" cy="128.772" fill="#0066CF" rx="10.4167" ry="10.4167" style="stroke:#0086EF;stroke-width:1.0416666666666667;"/><path d="M525.3479,133.197 Q524.9207,133.4167 524.4507,133.5266 Q523.9807,133.6365 523.4619,133.6365 Q521.6187,133.6365 520.6482,132.4219 Q519.6777,131.2073 519.6777,128.9124 Q519.6777,126.6113 520.6482,125.3967 Q521.6187,124.1821 523.4619,124.1821 Q523.9807,124.1821 524.4568,124.292 Q524.9329,124.4019 525.3479,124.6216 L525.3479,126.6235 Q524.884,126.1963 524.4476,125.9979 Q524.0112,125.7996 523.5474,125.7996 Q522.5586,125.7996 522.0551,126.5839 Q521.5515,127.3682 521.5515,128.9124 Q521.5515,130.4504 522.0551,131.2347 Q522.5586,132.019 523.5474,132.019 Q524.0112,132.019 524.4476,131.8207 Q524.884,131.6223 525.3479,131.1951 Z " fill="#000000"/><text fill="#D8BC00" font-family="Open Sans,Avenir,Nunito,Arial,Helvetica,SansSerif" font-size="12.5" font-weight="bold" lengthAdjust="spacing" textLength="38.5417" x="540.1042" y="133.4961">Const</text><line style="stroke:#5E5E5E;stroke-width:1.0416666666666667;" x1="509.8958" x2="583.8542" y1="144.4661" y2="144.4661"/><line style="stroke:#5E5E5E;stroke-width:1.0416666666666667;" x1="509.8958" x2="583.8542" y1="152.7995" y2="152.7995"/><rect codeLine="20" fill="#282828" height="166.5243" id="PartType" rx="8.3333" ry="8.3333" style="stroke:#5E5E5E;stroke-width:1.0416666666666667;" width="110.4167" x="621.875" y="53.7028"/><rect fill="#1B1B1A" height="31.3883" rx="8.3333" ry="8.3333" style="stroke:#1B1B1A;stroke-width:1.0416666666666667;" width="110.4167" x="621.875" y="53.7028"/><rect fill="#1B1B1A" height="8.3333" style="stroke:#1B1B1A;stroke-width:1.0416666666666667;" width="110.4167" x="621.875" y="76.7578"/><rect codeLine="20" fill="none" height="166.5243" id="PartType" rx="8.3333" ry="8.3333" style="stroke:#5E5E5E;stroke-width:1.0416666666666667;" width="110.4167" x="621.875" y="53.7028"/><ellipse cx="643.9583" cy="69.397" fill="#CF6300" rx="10.4167" ry="10.4167" style="stroke:#EF8300;stroke-width:1.0416666666666667;"/><path d="M647.0142,74.0845 L641.3379,74.0845 L641.3379,64.9719 L647.0142,64.9719 L647.0142,66.5588 L643.1384,66.5588 L643.1384,68.5242 L646.6479,68.5242 L646.6479,70.1111 L643.1384,70.1111 L643.1384,72.4976 L647.0142,72.4976 Z " fill="#000000"/><text fill="#D8BC00" font-family="Open Sans,Avenir,Nunito,Arial,Helvetica,SansSerif" font-size="12.5" font-weight="bold" lengthAdjust="spacing" textLength="56.25" x="662.2917" y="74.1211">PartType</text><line style="stroke:#5E5E5E;stroke-width:1.0416666666666667;" x1="622.9167" x2="731.25" y1="85.0911" y2="85.0911"/><text fill="#D8BC00" font-family="Open Sans,Avenir,Nunito,Arial,Helvetica,SansSerif" font-size="11.4583" lengthAdjust="spacing" textLength="63.5417" x="631.25" y="103.4607">FIRST_RING</text><text fill="#D8BC00" font-family="Open Sans,Avenir,Nunito,Arial,Helvetica,SansSerif" font-size="11.4583" lengthAdjust="spacing" textLength="66.6667" x="631.25" y="123.2056">INNER_RING</text><text fill="#D8BC00" font-family="Open Sans,Avenir,Nunito,Arial,Helvetica,SansSerif" font-size="11.4583" lengthAdjust="spacing" textLength="71.875" x="631.25" y="142.9504">OUTER_RING</text><text fill="#D8BC00" font-family="Open Sans,Avenir,Nunito,Arial,Helvetica,SansSerif" font-size="11.4583" lengthAdjust="spacing" textLength="27.0833" x="631.25" y="162.6953">RING</text><text fill="#D8BC00" font-family="Open Sans,Avenir,Nunito,Arial,Helvetica,SansSerif" font-size="11.4583" lengthAdjust="spacing" textLength="84.375" x="631.25" y="182.4402">TRIANGLE_FAN</text><text fill="#D8BC00" font-family="Open Sans,Avenir,Nunito,Arial,Helvetica,SansSerif" font-size="11.4583" lengthAdjust="spacing" textLength="91.6667" x="631.25" y="202.1851">TRIANGLE_STRIP</text><line style="stroke:#5E5E5E;stroke-width:1.0416666666666667;" x1="622.9167" x2="731.25" y1="211.8937" y2="211.8937"/><rect codeLine="30" fill="#282828" height="131.2012" id="PointData" rx="8.3333" ry="8.3333" style="stroke:#5E5E5E;stroke-width:1.0416666666666667;" width="177.0833" x="152.0833" y="379.7445"/><rect fill="#1B1B1A" height="31.3883" rx="8.3333" ry="8.3333" style="stroke:#1B1B1A;stroke-width:1.0416666666666667;" width="177.0833" x="152.0833" y="379.7445"/><rect fill="#1B1B1A" height="8.3333" style="stroke:#1B1B1A;stroke-width:1.0416666666666667;" width="177.0833" x="152.0833" y="402.7995"/><rect codeLine="30" fill="none" height="131.2012" id="PointData" rx="8.3333" ry="8.3333" style="stroke:#5E5E5E;stroke-width:1.0416666666666667;" width="177.0833" x="152.0833" y="379.7445"/><ellipse cx="201.5625" cy="395.4386" fill="#0066CF" rx="10.4167" ry="10.4167" style="stroke:#0086EF;stroke-width:1.0416666666666667;"/><path d="M203.4729,399.8637 Q203.0457,400.0834 202.5757,400.1933 Q202.1057,400.3031 201.5869,400.3031 Q199.7437,400.3031 198.7732,399.0885 Q197.8027,397.8739 197.8027,395.579 Q197.8027,393.278 198.7732,392.0634 Q199.7437,390.8488 201.5869,390.8488 Q202.1057,390.8488 202.5818,390.9587 Q203.0579,391.0685 203.4729,391.2882 L203.4729,393.2902 Q203.009,392.863 202.5726,392.6646 Q202.1362,392.4662 201.6724,392.4662 Q200.6836,392.4662 200.1801,393.2505 Q199.6765,394.0348 199.6765,395.579 Q199.6765,397.1171 200.1801,397.9014 Q200.6836,398.6857 201.6724,398.6857 Q202.1362,398.6857 202.5726,398.4873 Q203.009,398.289 203.4729,397.8617 Z " fill="#000000"/><text fill="#D8BC00" font-family="Open Sans,Avenir,Nunito,Arial,Helvetica,SansSerif" font-size="12.5" font-weight="bold" lengthAdjust="spacing" textLength="63.5417" x="224.4792" y="400.1628">PointData</text><line style="stroke:#5E5E5E;stroke-width:1.5625;" x1="153.125" x2="328.125" y1="411.1328" y2="411.1328"/><ellipse cx="163.5417" cy="446.5027" fill="#84BE84" rx="3.125" ry="3.125" style="stroke:#038048;stroke-width:1.0416666666666667;"/><text fill="#D8BC00" font-family="Open Sans,Avenir,Nunito,Arial,Helvetica,SansSerif" font-size="11.4583" lengthAdjust="spacing" textLength="144.7917" x="175" y="453.4139">PointData(double, double)</text><line style="stroke:#5E5E5E;stroke-width:1.0416666666666667;" x1="153.125" x2="196.875" y1="429.3386" y2="429.3386"/><text fill="#D8BC00" font-family="Open Sans,Avenir,Nunito,Arial,Helvetica,SansSerif" font-size="11.4583" lengthAdjust="spacing" textLength="81.25" x="200" y="433.1482">(constructors)</text><line style="stroke:#5E5E5E;stroke-width:1.0416666666666667;" x1="284.375" x2="328.125" y1="429.3386" y2="429.3386"/><line style="stroke:#5E5E5E;stroke-width:1.0416666666666667;" x1="153.125" x2="328.125" y1="463.1226" y2="463.1226"/><ellipse cx="163.5417" cy="474.5809" fill="#84BE84" rx="3.125" ry="3.125" style="stroke:#038048;stroke-width:1.0416666666666667;"/><text fill="#D8BC00" font-family="Open Sans,Avenir,Nunito,Arial,Helvetica,SansSerif" font-size="11.4583" lengthAdjust="spacing" textLength="75" x="175" y="481.4921">double getX()</text><ellipse cx="163.5417" cy="494.3258" fill="#84BE84" rx="3.125" ry="3.125" style="stroke:#038048;stroke-width:1.0416666666666667;"/><text fill="#D8BC00" font-family="Open Sans,Avenir,Nunito,Arial,Helvetica,SansSerif" font-size="11.4583" lengthAdjust="spacing" textLength="75" x="175" y="501.237">double getY()</text><rect codeLine="39" fill="#282828" height="131.2012" id="ShapeHeader" rx="8.3333" ry="8.3333" style="stroke:#5E5E5E;stroke-width:1.0416666666666667;" width="308.3333" x="365.625" y="379.7445"/><rect fill="#1B1B1A" height="31.3883" rx="8.3333" ry="8.3333" style="stroke:#1B1B1A;stroke-width:1.0416666666666667;" width="308.3333" x="365.625" y="379.7445"/><rect fill="#1B1B1A" height="8.3333" style="stroke:#1B1B1A;stroke-width:1.0416666666666667;" width="308.3333" x="365.625" y="402.7995"/><rect codeLine="39" fill="none" height="131.2012" id="ShapeHeader" rx="8.3333" ry="8.3333" style="stroke:#5E5E5E;stroke-width:1.0416666666666667;" width="308.3333" x="365.625" y="379.7445"/><ellipse cx="470.8333" cy="395.4386" fill="#0066CF" rx="10.4167" ry="10.4167" style="stroke:#0086EF;stroke-width:1.0416666666666667;"/><path d="M472.7437,399.8637 Q472.3165,400.0834 471.8465,400.1933 Q471.3765,400.3031 470.8577,400.3031 Q469.0145,400.3031 468.044,399.0885 Q467.0736,397.8739 467.0736,395.579 Q467.0736,393.278 468.044,392.0634 Q469.0145,390.8488 470.8577,390.8488 Q471.3765,390.8488 471.8526,390.9587 Q472.3287,391.0685 472.7437,391.2882 L472.7437,393.2902 Q472.2799,392.863 471.8435,392.6646 Q471.4071,392.4662 470.9432,392.4662 Q469.9544,392.4662 469.4509,393.2505 Q468.9473,394.0348 468.9473,395.579 Q468.9473,397.1171 469.4509,397.9014 Q469.9544,398.6857 470.9432,398.6857 Q471.4071,398.6857 471.8435,398.4873 Q472.2799,398.289 472.7437,397.8617 Z " fill="#000000"/><text fill="#D8BC00" font-family="Open Sans,Avenir,Nunito,Arial,Helvetica,SansSerif" font-size="12.5" font-weight="bold" lengthAdjust="spacing" textLength="83.3333" x="493.75" y="400.1628">ShapeHeader</text><line style="stroke:#5E5E5E;stroke-width:1.5625;" x1="366.6667" x2="672.9167" y1="411.1328" y2="411.1328"/><ellipse cx="377.0833" cy="446.5027" fill="#84BE84" rx="3.125" ry="3.125" style="stroke:#038048;stroke-width:1.0416666666666667;"/><text fill="#D8BC00" font-family="Open Sans,Avenir,Nunito,Arial,Helvetica,SansSerif" font-size="11.4583" lengthAdjust="spacing" textLength="276.0417" x="388.5417" y="453.4139">ShapeHeader(InputStream, ValidationPreferences)</text><line style="stroke:#5E5E5E;stroke-width:1.0416666666666667;" x1="366.6667" x2="476.0417" y1="429.3386" y2="429.3386"/><text fill="#D8BC00" font-family="Open Sans,Avenir,Nunito,Arial,Helvetica,SansSerif" font-size="11.4583" lengthAdjust="spacing" textLength="81.25" x="479.1667" y="433.1482">(constructors)</text><line style="stroke:#5E5E5E;stroke-width:1.0416666666666667;" x1="563.5417" x2="672.9167" y1="429.3386" y2="429.3386"/><line style="stroke:#5E5E5E;stroke-width:1.0416666666666667;" x1="366.6667" x2="672.9167" y1="463.1226" y2="463.1226"/><ellipse cx="377.0833" cy="474.5809" fill="#84BE84" rx="3.125" ry="3.125" style="stroke:#038048;stroke-width:1.0416666666666667;"/><text fill="#D8BC00" font-family="Open Sans,Avenir,Nunito,Arial,Helvetica,SansSerif" font-size="11.4583" lengthAdjust="spacing" textLength="127.0833" x="388.5417" y="481.4921">int getContentLength()</text><ellipse cx="377.0833" cy="494.3258" fill="#84BE84" rx="3.125" ry="3.125" style="stroke:#038048;stroke-width:1.0416666666666667;"/><text fill="#D8BC00" font-family="Open Sans,Avenir,Nunito,Arial,Helvetica,SansSerif" font-size="11.4583" lengthAdjust="spacing" textLength="128.125" x="388.5417" y="501.237">int getRecordNumber()</text><rect codeLine="48" fill="#282828" height="324.4832" id="ShapeType" rx="8.3333" ry="8.3333" style="stroke:#5E5E5E;stroke-width:1.0416666666666667;" width="107.2917" x="710.9375" y="282.8695"/><rect fill="#1B1B1A" height="31.3883" rx="8.3333" ry="8.3333" style="stroke:#1B1B1A;stroke-width:1.0416666666666667;" width="107.2917" x="710.9375" y="282.8695"/><rect fill="#1B1B1A" height="8.3333" style="stroke:#1B1B1A;stroke-width:1.0416666666666667;" width="107.2917" x="710.9375" y="305.9245"/><rect codeLine="48" fill="none" height="324.4832" id="ShapeType" rx="8.3333" ry="8.3333" style="stroke:#5E5E5E;stroke-width:1.0416666666666667;" width="107.2917" x="710.9375" y="282.8695"/><ellipse cx="725.5208" cy="298.5636" fill="#CF6300" rx="10.4167" ry="10.4167" style="stroke:#EF8300;stroke-width:1.0416666666666667;"/><path d="M728.5767,303.2511 L722.9004,303.2511 L722.9004,294.1386 L728.5767,294.1386 L728.5767,295.7255 L724.7009,295.7255 L724.7009,297.6908 L728.2104,297.6908 L728.2104,299.2778 L724.7009,299.2778 L724.7009,301.6642 L728.5767,301.6642 Z " fill="#000000"/><text fill="#D8BC00" font-family="Open Sans,Avenir,Nunito,Arial,Helvetica,SansSerif" font-size="12.5" font-weight="bold" lengthAdjust="spacing" textLength="69.7917" x="742.1875" y="303.2878">ShapeType</text><line style="stroke:#5E5E5E;stroke-width:1.0416666666666667;" x1="711.9792" x2="817.1875" y1="314.2578" y2="314.2578"/><text fill="#D8BC00" font-family="Open Sans,Avenir,Nunito,Arial,Helvetica,SansSerif" font-size="11.4583" lengthAdjust="spacing" textLength="72.9167" x="720.3125" y="332.6274">MULTIPATCH</text><text fill="#D8BC00" font-family="Open Sans,Avenir,Nunito,Arial,Helvetica,SansSerif" font-size="11.4583" lengthAdjust="spacing" textLength="68.75" x="720.3125" y="352.3722">MULTIPOINT</text><text fill="#D8BC00" font-family="Open Sans,Avenir,Nunito,Arial,Helvetica,SansSerif" font-size="11.4583" lengthAdjust="spacing" textLength="84.375" x="720.3125" y="372.1171">MULTIPOINT_M</text><text fill="#D8BC00" font-family="Open Sans,Avenir,Nunito,Arial,Helvetica,SansSerif" font-size="11.4583" lengthAdjust="spacing" textLength="82.2917" x="720.3125" y="391.862">MULTIPOINT_Z</text><text fill="#D8BC00" font-family="Open Sans,Avenir,Nunito,Arial,Helvetica,SansSerif" font-size="11.4583" lengthAdjust="spacing" textLength="29.1667" x="720.3125" y="411.6069">NULL</text><text fill="#D8BC00" font-family="Open Sans,Avenir,Nunito,Arial,Helvetica,SansSerif" font-size="11.4583" lengthAdjust="spacing" textLength="34.375" x="720.3125" y="431.3517">POINT</text><text fill="#D8BC00" font-family="Open Sans,Avenir,Nunito,Arial,Helvetica,SansSerif" font-size="11.4583" lengthAdjust="spacing" textLength="50" x="720.3125" y="451.0966">POINT_M</text><text fill="#D8BC00" font-family="Open Sans,Avenir,Nunito,Arial,Helvetica,SansSerif" font-size="11.4583" lengthAdjust="spacing" textLength="47.9167" x="720.3125" y="470.8415">POINT_Z</text><text fill="#D8BC00" font-family="Open Sans,Avenir,Nunito,Arial,Helvetica,SansSerif" font-size="11.4583" lengthAdjust="spacing" textLength="55.2083" x="720.3125" y="490.5863">POLYGON</text><text fill="#D8BC00" font-family="Open Sans,Avenir,Nunito,Arial,Helvetica,SansSerif" font-size="11.4583" lengthAdjust="spacing" textLength="70.8333" x="720.3125" y="510.3312">POLYGON_M</text><text fill="#D8BC00" font-family="Open Sans,Avenir,Nunito,Arial,Helvetica,SansSerif" font-size="11.4583" lengthAdjust="spacing" textLength="68.75" x="720.3125" y="530.0761">POLYGON_Z</text><text fill="#D8BC00" font-family="Open Sans,Avenir,Nunito,Arial,Helvetica,SansSerif" font-size="11.4583" lengthAdjust="spacing" textLength="53.125" x="720.3125" y="549.821">POLYLINE</text><text fill="#D8BC00" font-family="Open Sans,Avenir,Nunito,Arial,Helvetica,SansSerif" font-size="11.4583" lengthAdjust="spacing" textLength="68.75" x="720.3125" y="569.5658">POLYLINE_M</text><text fill="#D8BC00" font-family="Open Sans,Avenir,Nunito,Arial,Helvetica,SansSerif" font-size="11.4583" lengthAdjust="spacing" textLength="66.6667" x="720.3125" y="589.3107">POLYLINE_Z</text><line style="stroke:#5E5E5E;stroke-width:1.0416666666666667;" x1="711.9792" x2="817.1875" y1="599.0194" y2="599.0194"/></g></svg>
