<?xml version="1.0" encoding="UTF-8" standalone="no"?><svg xmlns="http://www.w3.org/2000/svg" xmlns:xlink="http://www.w3.org/1999/xlink" contentScriptType="application/ecmascript" contentStyleType="text/css" height="471.875px" preserveAspectRatio="none" style="width:923px;height:471px;background:#333333;" version="1.1" viewBox="0 0 923 471" width="923.9583px" zoomAndPan="magnify"><defs/><g><rect fill="#48494B" height="41.2028" rx="8.3333" ry="8.3333" style="stroke:#545454;stroke-width:1.0416666666666667;" width="454.1667" x="227.8646" y="2.0833"/><text fill="#C0C0C0" font-family="Open Sans,Avenir,Nunito,Arial,Helvetica,SansSerif" font-size="20.8333" lengthAdjust="spacing" textLength="431.25" x="239.3229" y="30.5583">org.nocrala.tools.gis.data.esri.shapefile.util</text><rect codeLine="7" fill="#282828" height="83.3781" id="BAUtil" rx="8.3333" ry="8.3333" style="stroke:#5E5E5E;stroke-width:1.0416666666666667;" width="278.125" x="16.6667" y="75.5778"/><rect fill="#1B1B1A" height="31.3883" rx="8.3333" ry="8.3333" style="stroke:#1B1B1A;stroke-width:1.0416666666666667;" width="278.125" x="16.6667" y="75.5778"/><rect fill="#1B1B1A" height="8.3333" style="stroke:#1B1B1A;stroke-width:1.0416666666666667;" width="278.125" x="16.6667" y="98.6328"/><rect codeLine="7" fill="none" height="83.3781" id="BAUtil" rx="8.3333" ry="8.3333" style="stroke:#5E5E5E;stroke-width:1.0416666666666667;" width="278.125" x="16.6667" y="75.5778"/><ellipse cx="128.125" cy="91.272" fill="#0066CF" rx="10.4167" ry="10.4167" style="stroke:#0086EF;stroke-width:1.0416666666666667;"/><path d="M130.0354,95.697 Q129.6082,95.9167 129.1382,96.0266 Q128.6682,96.1365 128.1494,96.1365 Q126.3062,96.1365 125.3357,94.9219 Q124.3652,93.7073 124.3652,91.4124 Q124.3652,89.1113 125.3357,87.8967 Q126.3062,86.6821 128.1494,86.6821 Q128.6682,86.6821 129.1443,86.792 Q129.6204,86.9019 130.0354,87.1216 L130.0354,89.1235 Q129.5715,88.6963 129.1351,88.4979 Q128.6987,88.2996 128.2349,88.2996 Q127.2461,88.2996 126.7426,89.0839 Q126.239,89.8682 126.239,91.4124 Q126.239,92.9504 126.7426,93.7347 Q127.2461,94.519 128.2349,94.519 Q128.6987,94.519 129.1351,94.3207 Q129.5715,94.1223 130.0354,93.6951 Z " fill="#000000"/><text fill="#D8BC00" font-family="Open Sans,Avenir,Nunito,Arial,Helvetica,SansSerif" font-size="12.5" font-weight="bold" lengthAdjust="spacing" textLength="40.625" x="151.0417" y="95.9961">BAUtil</text><line style="stroke:#5E5E5E;stroke-width:1.5625;" x1="17.7083" x2="293.75" y1="106.9661" y2="106.9661"/><ellipse cx="28.125" cy="142.336" fill="#84BE84" rx="3.125" ry="3.125" style="stroke:#038048;stroke-width:1.0416666666666667;"/><text fill="#D8BC00" font-family="Open Sans,Avenir,Nunito,Arial,Helvetica,SansSerif" font-size="11.4583" lengthAdjust="spacing" textLength="245.8333" x="39.5833" y="149.2472">void displayByteArray(String prompt, byte[])</text><line style="stroke:#5E5E5E;stroke-width:1.0416666666666667;" x1="17.7083" x2="123.9583" y1="125.1719" y2="125.1719"/><text fill="#D8BC00" font-family="Open Sans,Avenir,Nunito,Arial,Helvetica,SansSerif" font-size="11.4583" lengthAdjust="spacing" textLength="57.2917" x="127.0833" y="128.9815">(primitive)</text><line style="stroke:#5E5E5E;stroke-width:1.0416666666666667;" x1="187.5" x2="293.75" y1="125.1719" y2="125.1719"/><rect codeLine="13" fill="#282828" height="127.0345" id="DoubleSerializer" rx="8.3333" ry="8.3333" style="stroke:#5E5E5E;stroke-width:1.0416666666666667;" width="311.4583" x="331.25" y="53.7028"/><rect fill="#1B1B1A" height="31.3883" rx="8.3333" ry="8.3333" style="stroke:#1B1B1A;stroke-width:1.0416666666666667;" width="311.4583" x="331.25" y="53.7028"/><rect fill="#1B1B1A" height="8.3333" style="stroke:#1B1B1A;stroke-width:1.0416666666666667;" width="311.4583" x="331.25" y="76.7578"/><rect codeLine="13" fill="none" height="127.0345" id="DoubleSerializer" rx="8.3333" ry="8.3333" style="stroke:#5E5E5E;stroke-width:1.0416666666666667;" width="311.4583" x="331.25" y="53.7028"/><ellipse cx="426.5625" cy="69.397" fill="#0066CF" rx="10.4167" ry="10.4167" style="stroke:#0086EF;stroke-width:1.0416666666666667;"/><path d="M428.4729,73.822 Q428.0457,74.0417 427.5757,74.1516 Q427.1057,74.2615 426.5869,74.2615 Q424.7437,74.2615 423.7732,73.0469 Q422.8027,71.8323 422.8027,69.5374 Q422.8027,67.2363 423.7732,66.0217 Q424.7437,64.8071 426.5869,64.8071 Q427.1057,64.8071 427.5818,64.917 Q428.0579,65.0269 428.4729,65.2466 L428.4729,67.2485 Q428.009,66.8213 427.5726,66.6229 Q427.1362,66.4246 426.6724,66.4246 Q425.6836,66.4246 425.1801,67.2089 Q424.6765,67.9932 424.6765,69.5374 Q424.6765,71.0754 425.1801,71.8597 Q425.6836,72.644 426.6724,72.644 Q427.1362,72.644 427.5726,72.4457 Q428.009,72.2473 428.4729,71.8201 Z " fill="#000000"/><text fill="#D8BC00" font-family="Open Sans,Avenir,Nunito,Arial,Helvetica,SansSerif" font-size="12.5" font-weight="bold" lengthAdjust="spacing" textLength="106.25" x="449.4792" y="74.1211">DoubleSerializer</text><line style="stroke:#5E5E5E;stroke-width:1.5625;" x1="332.2917" x2="641.6667" y1="85.0911" y2="85.0911"/><line style="stroke:#5E5E5E;stroke-width:1.0416666666666667;" x1="332.2917" x2="641.6667" y1="93.4245" y2="93.4245"/><ellipse cx="342.7083" cy="104.8828" fill="#84BE84" rx="3.125" ry="3.125" style="stroke:#038048;stroke-width:1.0416666666666667;"/><text fill="#D8BC00" font-family="Open Sans,Avenir,Nunito,Arial,Helvetica,SansSerif" font-size="11.4583" lengthAdjust="spacing" textLength="219.7917" x="354.1667" y="111.794">double deserializeBigEndian(ByteBuffer)</text><ellipse cx="342.7083" cy="124.6277" fill="#84BE84" rx="3.125" ry="3.125" style="stroke:#038048;stroke-width:1.0416666666666667;"/><text fill="#D8BC00" font-family="Open Sans,Avenir,Nunito,Arial,Helvetica,SansSerif" font-size="11.4583" lengthAdjust="spacing" textLength="230.2083" x="354.1667" y="131.5389">double deserializeLittleEndian(ByteBuffer)</text><ellipse cx="342.7083" cy="144.3726" fill="#84BE84" rx="3.125" ry="3.125" style="stroke:#038048;stroke-width:1.0416666666666667;"/><text fill="#D8BC00" font-family="Open Sans,Avenir,Nunito,Arial,Helvetica,SansSerif" font-size="11.4583" lengthAdjust="spacing" textLength="268.75" x="354.1667" y="151.2838">void serializeBigEndian(double value, ByteBuffer)</text><ellipse cx="342.7083" cy="164.1174" fill="#84BE84" rx="3.125" ry="3.125" style="stroke:#038048;stroke-width:1.0416666666666667;"/><text fill="#D8BC00" font-family="Open Sans,Avenir,Nunito,Arial,Helvetica,SansSerif" font-size="11.4583" lengthAdjust="spacing" textLength="279.1667" x="354.1667" y="171.0286">void serializeLittleEndian(double value, ByteBuffer)</text><rect codeLine="22" fill="#282828" height="103.123" id="HexaUtil" rx="8.3333" ry="8.3333" style="stroke:#5E5E5E;stroke-width:1.0416666666666667;" width="237.5" x="679.6875" y="65.682"/><rect fill="#1B1B1A" height="31.3883" rx="8.3333" ry="8.3333" style="stroke:#1B1B1A;stroke-width:1.0416666666666667;" width="237.5" x="679.6875" y="65.682"/><rect fill="#1B1B1A" height="8.3333" style="stroke:#1B1B1A;stroke-width:1.0416666666666667;" width="237.5" x="679.6875" y="88.737"/><rect codeLine="22" fill="none" height="103.123" id="HexaUtil" rx="8.3333" ry="8.3333" style="stroke:#5E5E5E;stroke-width:1.0416666666666667;" width="237.5" x="679.6875" y="65.682"/><ellipse cx="764.0625" cy="81.3761" fill="#0066CF" rx="10.4167" ry="10.4167" style="stroke:#0086EF;stroke-width:1.0416666666666667;"/><path d="M765.9729,85.8012 Q765.5457,86.0209 765.0757,86.1308 Q764.6057,86.2406 764.0869,86.2406 Q762.2437,86.2406 761.2732,85.026 Q760.3027,83.8114 760.3027,81.5165 Q760.3027,79.2155 761.2732,78.0009 Q762.2437,76.7863 764.0869,76.7863 Q764.6057,76.7863 765.0818,76.8962 Q765.5579,77.006 765.9729,77.2257 L765.9729,79.2277 Q765.509,78.8005 765.0726,78.6021 Q764.6362,78.4037 764.1724,78.4037 Q763.1836,78.4037 762.6801,79.188 Q762.1765,79.9723 762.1765,81.5165 Q762.1765,83.0546 762.6801,83.8389 Q763.1836,84.6232 764.1724,84.6232 Q764.6362,84.6232 765.0726,84.4248 Q765.509,84.2265 765.9729,83.7992 Z " fill="#000000"/><text fill="#D8BC00" font-family="Open Sans,Avenir,Nunito,Arial,Helvetica,SansSerif" font-size="12.5" font-weight="bold" lengthAdjust="spacing" textLength="54.1667" x="786.9792" y="86.1003">HexaUtil</text><line style="stroke:#5E5E5E;stroke-width:1.5625;" x1="680.7292" x2="916.1458" y1="97.0703" y2="97.0703"/><ellipse cx="691.1458" cy="132.4402" fill="#84BE84" rx="3.125" ry="3.125" style="stroke:#038048;stroke-width:1.0416666666666667;"/><text fill="#D8BC00" font-family="Open Sans,Avenir,Nunito,Arial,Helvetica,SansSerif" font-size="11.4583" lengthAdjust="spacing" textLength="180.2083" x="702.6042" y="139.3514">String byteArrayToString(byte[])</text><ellipse cx="691.1458" cy="152.1851" fill="#84BE84" rx="3.125" ry="3.125" style="stroke:#038048;stroke-width:1.0416666666666667;"/><text fill="#D8BC00" font-family="Open Sans,Avenir,Nunito,Arial,Helvetica,SansSerif" font-size="11.4583" lengthAdjust="spacing" textLength="205.2083" x="702.6042" y="159.0963">byte[] stringToByteArray(String orig)</text><line style="stroke:#5E5E5E;stroke-width:1.0416666666666667;" x1="680.7292" x2="766.6667" y1="115.2761" y2="115.2761"/><text fill="#D8BC00" font-family="Open Sans,Avenir,Nunito,Arial,Helvetica,SansSerif" font-size="11.4583" lengthAdjust="spacing" textLength="57.2917" x="769.7917" y="119.0857">(primitive)</text><line style="stroke:#5E5E5E;stroke-width:1.0416666666666667;" x1="830.2083" x2="916.1458" y1="115.2761" y2="115.2761"/><rect codeLine="29" fill="#282828" height="221.5922" id="ISUtil" rx="8.3333" ry="8.3333" style="stroke:#5E5E5E;stroke-width:1.0416666666666667;" width="296.875" x="7.2917" y="243.2861"/><rect fill="#1B1B1A" height="31.3883" rx="8.3333" ry="8.3333" style="stroke:#1B1B1A;stroke-width:1.0416666666666667;" width="296.875" x="7.2917" y="243.2861"/><rect fill="#1B1B1A" height="8.3333" style="stroke:#1B1B1A;stroke-width:1.0416666666666667;" width="296.875" x="7.2917" y="266.3411"/><rect codeLine="29" fill="none" height="221.5922" id="ISUtil" rx="8.3333" ry="8.3333" style="stroke:#5E5E5E;stroke-width:1.0416666666666667;" width="296.875" x="7.2917" y="243.2861"/><ellipse cx="131.25" cy="258.9803" fill="#0066CF" rx="10.4167" ry="10.4167" style="stroke:#0086EF;stroke-width:1.0416666666666667;"/><path d="M133.1604,263.4054 Q132.7332,263.6251 132.2632,263.7349 Q131.7932,263.8448 131.2744,263.8448 Q129.4312,263.8448 128.4607,262.6302 Q127.4902,261.4156 127.4902,259.1207 Q127.4902,256.8197 128.4607,255.6051 Q129.4312,254.3905 131.2744,254.3905 Q131.7932,254.3905 132.2693,254.5003 Q132.7454,254.6102 133.1604,254.8299 L133.1604,256.8319 Q132.6965,256.4046 132.2601,256.2063 Q131.8237,256.0079 131.3599,256.0079 Q130.3711,256.0079 129.8676,256.7922 Q129.364,257.5765 129.364,259.1207 Q129.364,260.6588 129.8676,261.4431 Q130.3711,262.2274 131.3599,262.2274 Q131.8237,262.2274 132.2601,262.029 Q132.6965,261.8306 133.1604,261.4034 Z " fill="#000000"/><text fill="#D8BC00" font-family="Open Sans,Avenir,Nunito,Arial,Helvetica,SansSerif" font-size="12.5" font-weight="bold" lengthAdjust="spacing" textLength="34.375" x="154.1667" y="263.7044">ISUtil</text><line style="stroke:#5E5E5E;stroke-width:1.5625;" x1="8.3333" x2="303.125" y1="274.6745" y2="274.6745"/><ellipse cx="18.75" cy="310.0444" fill="#84BE84" rx="3.125" ry="3.125" style="stroke:#038048;stroke-width:1.0416666666666667;"/><text fill="#D8BC00" font-family="Open Sans,Avenir,Nunito,Arial,Helvetica,SansSerif" font-size="11.4583" lengthAdjust="spacing" textLength="207.2917" x="30.2083" y="316.9556">double readBeDouble(InputStream is)</text><ellipse cx="18.75" cy="329.7892" fill="#84BE84" rx="3.125" ry="3.125" style="stroke:#038048;stroke-width:1.0416666666666667;"/><text fill="#D8BC00" font-family="Open Sans,Avenir,Nunito,Arial,Helvetica,SansSerif" font-size="11.4583" lengthAdjust="spacing" textLength="264.5833" x="30.2083" y="336.7004">double readBeDoubleMaybeEOF(InputStream is)</text><ellipse cx="18.75" cy="349.5341" fill="#84BE84" rx="3.125" ry="3.125" style="stroke:#038048;stroke-width:1.0416666666666667;"/><text fill="#D8BC00" font-family="Open Sans,Avenir,Nunito,Arial,Helvetica,SansSerif" font-size="11.4583" lengthAdjust="spacing" textLength="158.3333" x="30.2083" y="356.4453">int readBeInt(InputStream is)</text><ellipse cx="18.75" cy="369.279" fill="#84BE84" rx="3.125" ry="3.125" style="stroke:#038048;stroke-width:1.0416666666666667;"/><text fill="#D8BC00" font-family="Open Sans,Avenir,Nunito,Arial,Helvetica,SansSerif" font-size="11.4583" lengthAdjust="spacing" textLength="215.625" x="30.2083" y="376.1902">int readBeIntMaybeEOF(InputStream is)</text><ellipse cx="18.75" cy="389.0238" fill="#84BE84" rx="3.125" ry="3.125" style="stroke:#038048;stroke-width:1.0416666666666667;"/><text fill="#D8BC00" font-family="Open Sans,Avenir,Nunito,Arial,Helvetica,SansSerif" font-size="11.4583" lengthAdjust="spacing" textLength="207.2917" x="30.2083" y="395.9351">double readLeDouble(InputStream is)</text><ellipse cx="18.75" cy="408.7687" fill="#84BE84" rx="3.125" ry="3.125" style="stroke:#038048;stroke-width:1.0416666666666667;"/><text fill="#D8BC00" font-family="Open Sans,Avenir,Nunito,Arial,Helvetica,SansSerif" font-size="11.4583" lengthAdjust="spacing" textLength="264.5833" x="30.2083" y="415.6799">double readLeDoubleMaybeEOF(InputStream is)</text><ellipse cx="18.75" cy="428.5136" fill="#84BE84" rx="3.125" ry="3.125" style="stroke:#038048;stroke-width:1.0416666666666667;"/><text fill="#D8BC00" font-family="Open Sans,Avenir,Nunito,Arial,Helvetica,SansSerif" font-size="11.4583" lengthAdjust="spacing" textLength="158.3333" x="30.2083" y="435.4248">int readLeInt(InputStream is)</text><ellipse cx="18.75" cy="448.2585" fill="#84BE84" rx="3.125" ry="3.125" style="stroke:#038048;stroke-width:1.0416666666666667;"/><text fill="#D8BC00" font-family="Open Sans,Avenir,Nunito,Arial,Helvetica,SansSerif" font-size="11.4583" lengthAdjust="spacing" textLength="215.625" x="30.2083" y="455.1697">int readLeIntMaybeEOF(InputStream is)</text><line style="stroke:#5E5E5E;stroke-width:1.0416666666666667;" x1="8.3333" x2="123.9583" y1="292.8802" y2="292.8802"/><text fill="#D8BC00" font-family="Open Sans,Avenir,Nunito,Arial,Helvetica,SansSerif" font-size="11.4583" lengthAdjust="spacing" textLength="57.2917" x="127.0833" y="296.6899">(primitive)</text><line style="stroke:#5E5E5E;stroke-width:1.0416666666666667;" x1="187.5" x2="303.125" y1="292.8802" y2="292.8802"/><rect codeLine="42" fill="#282828" height="127.0345" id="IntSerializer" rx="8.3333" ry="8.3333" style="stroke:#5E5E5E;stroke-width:1.0416666666666667;" width="287.5" x="341.1458" y="290.682"/><rect fill="#1B1B1A" height="31.3883" rx="8.3333" ry="8.3333" style="stroke:#1B1B1A;stroke-width:1.0416666666666667;" width="287.5" x="341.1458" y="290.682"/><rect fill="#1B1B1A" height="8.3333" style="stroke:#1B1B1A;stroke-width:1.0416666666666667;" width="287.5" x="341.1458" y="313.737"/><rect codeLine="42" fill="none" height="127.0345" id="IntSerializer" rx="8.3333" ry="8.3333" style="stroke:#5E5E5E;stroke-width:1.0416666666666667;" width="287.5" x="341.1458" y="290.682"/><ellipse cx="439.0625" cy="306.3761" fill="#0066CF" rx="10.4167" ry="10.4167" style="stroke:#0086EF;stroke-width:1.0416666666666667;"/><path d="M440.9729,310.8012 Q440.5457,311.0209 440.0757,311.1308 Q439.6057,311.2406 439.0869,311.2406 Q437.2437,311.2406 436.2732,310.026 Q435.3027,308.8114 435.3027,306.5165 Q435.3027,304.2155 436.2732,303.0009 Q437.2437,301.7863 439.0869,301.7863 Q439.6057,301.7863 440.0818,301.8962 Q440.5579,302.006 440.9729,302.2257 L440.9729,304.2277 Q440.509,303.8005 440.0726,303.6021 Q439.6362,303.4037 439.1724,303.4037 Q438.1836,303.4037 437.6801,304.188 Q437.1765,304.9723 437.1765,306.5165 Q437.1765,308.0546 437.6801,308.8389 Q438.1836,309.6232 439.1724,309.6232 Q439.6362,309.6232 440.0726,309.4248 Q440.509,309.2265 440.9729,308.7992 Z " fill="#000000"/><text fill="#D8BC00" font-family="Open Sans,Avenir,Nunito,Arial,Helvetica,SansSerif" font-size="12.5" font-weight="bold" lengthAdjust="spacing" textLength="77.0833" x="461.9792" y="311.1003">IntSerializer</text><line style="stroke:#5E5E5E;stroke-width:1.5625;" x1="342.1875" x2="627.6042" y1="322.0703" y2="322.0703"/><line style="stroke:#5E5E5E;stroke-width:1.0416666666666667;" x1="342.1875" x2="627.6042" y1="330.4036" y2="330.4036"/><ellipse cx="352.6042" cy="341.862" fill="#84BE84" rx="3.125" ry="3.125" style="stroke:#038048;stroke-width:1.0416666666666667;"/><text fill="#D8BC00" font-family="Open Sans,Avenir,Nunito,Arial,Helvetica,SansSerif" font-size="11.4583" lengthAdjust="spacing" textLength="195.8333" x="364.0625" y="348.7732">int deserializeBigEndian(ByteBuffer)</text><ellipse cx="352.6042" cy="361.6069" fill="#84BE84" rx="3.125" ry="3.125" style="stroke:#038048;stroke-width:1.0416666666666667;"/><text fill="#D8BC00" font-family="Open Sans,Avenir,Nunito,Arial,Helvetica,SansSerif" font-size="11.4583" lengthAdjust="spacing" textLength="206.25" x="364.0625" y="368.5181">int deserializeLittleEndian(ByteBuffer)</text><ellipse cx="352.6042" cy="381.3517" fill="#84BE84" rx="3.125" ry="3.125" style="stroke:#038048;stroke-width:1.0416666666666667;"/><text fill="#D8BC00" font-family="Open Sans,Avenir,Nunito,Arial,Helvetica,SansSerif" font-size="11.4583" lengthAdjust="spacing" textLength="244.7917" x="364.0625" y="388.2629">void serializeBigEndian(int value, ByteBuffer)</text><ellipse cx="352.6042" cy="401.0966" fill="#84BE84" rx="3.125" ry="3.125" style="stroke:#038048;stroke-width:1.0416666666666667;"/><text fill="#D8BC00" font-family="Open Sans,Avenir,Nunito,Arial,Helvetica,SansSerif" font-size="11.4583" lengthAdjust="spacing" textLength="255.2083" x="364.0625" y="408.0078">void serializeLittleEndian(int value, ByteBuffer)</text></g></svg>
