<?xml version="1.0" encoding="UTF-8" standalone="no"?><svg xmlns="http://www.w3.org/2000/svg" xmlns:xlink="http://www.w3.org/1999/xlink" contentScriptType="application/ecmascript" contentStyleType="text/css" height="348.9583px" preserveAspectRatio="none" style="width:631px;height:348px;background:#333333;" version="1.1" viewBox="0 0 631 348" width="631.25px" zoomAndPan="magnify"><defs/><g><rect fill="#48494B" height="41.2028" rx="8.3333" ry="8.3333" style="stroke:#545454;stroke-width:1.0416666666666667;" width="502.0833" x="57.5521" y="2.0833"/><text fill="#C0C0C0" font-family="Open Sans,Avenir,Nunito,Arial,Helvetica,SansSerif" font-size="20.8333" lengthAdjust="spacing" textLength="479.1667" x="69.0104" y="30.5583">com.telenav.mesakit.map.data.formats.pbf.osm</text><rect codeLine="7" fill="#282828" height="48.055" id="PbfTagFilter" rx="8.3333" ry="8.3333" style="stroke:#5E5E5E;stroke-width:1.0416666666666667;" width="115.625" x="492.1875" y="101.0986"/><rect fill="#1B1B1A" height="31.3883" rx="8.3333" ry="8.3333" style="stroke:#1B1B1A;stroke-width:1.0416666666666667;" width="115.625" x="492.1875" y="101.0986"/><rect fill="#1B1B1A" height="8.3333" style="stroke:#1B1B1A;stroke-width:1.0416666666666667;" width="115.625" x="492.1875" y="124.1536"/><rect codeLine="7" fill="none" height="48.055" id="PbfTagFilter" rx="8.3333" ry="8.3333" style="stroke:#5E5E5E;stroke-width:1.0416666666666667;" width="115.625" x="492.1875" y="101.0986"/><ellipse cx="506.7708" cy="116.7928" fill="#008400" rx="10.4167" ry="10.4167" style="stroke:#239C23;stroke-width:1.0416666666666667;"/><path d="M504.1748,113.9547 L504.1748,112.3678 L509.6008,112.3678 L509.6008,113.9547 L507.7881,113.9547 L507.7881,119.8934 L509.6008,119.8934 L509.6008,121.4803 L504.1748,121.4803 L504.1748,119.8934 L505.9875,119.8934 L505.9875,113.9547 Z " fill="#000000"/><text fill="#D8BC00" font-family="Open Sans,Avenir,Nunito,Arial,Helvetica,SansSerif" font-size="12.5" font-style="italic" font-weight="bold" lengthAdjust="spacing" textLength="78.125" x="523.4375" y="121.5169">PbfTagFilter</text><line style="stroke:#5E5E5E;stroke-width:1.0416666666666667;" x1="493.2292" x2="606.7708" y1="132.487" y2="132.487"/><line style="stroke:#5E5E5E;stroke-width:1.0416666666666667;" x1="493.2292" x2="606.7708" y1="140.8203" y2="140.8203"/><rect codeLine="9" fill="#282828" height="83.3781" id="Osm" rx="8.3333" ry="8.3333" style="stroke:#5E5E5E;stroke-width:1.0416666666666667;" width="191.6667" x="7.2917" y="83.3903"/><rect fill="#1B1B1A" height="31.3883" rx="8.3333" ry="8.3333" style="stroke:#1B1B1A;stroke-width:1.0416666666666667;" width="191.6667" x="7.2917" y="83.3903"/><rect fill="#1B1B1A" height="8.3333" style="stroke:#1B1B1A;stroke-width:1.0416666666666667;" width="191.6667" x="7.2917" y="106.4453"/><rect codeLine="9" fill="none" height="83.3781" id="Osm" rx="8.3333" ry="8.3333" style="stroke:#5E5E5E;stroke-width:1.0416666666666667;" width="191.6667" x="7.2917" y="83.3903"/><ellipse cx="80.7292" cy="99.0845" fill="#0066CF" rx="10.4167" ry="10.4167" style="stroke:#0086EF;stroke-width:1.0416666666666667;"/><path d="M82.6396,103.5095 Q82.2123,103.7292 81.7424,103.8391 Q81.2724,103.949 80.7536,103.949 Q78.9103,103.949 77.9399,102.7344 Q76.9694,101.5198 76.9694,99.2249 Q76.9694,96.9238 77.9399,95.7092 Q78.9103,94.4946 80.7536,94.4946 Q81.2724,94.4946 81.7485,94.6045 Q82.2245,94.7144 82.6396,94.9341 L82.6396,96.936 Q82.1757,96.5088 81.7393,96.3104 Q81.3029,96.1121 80.839,96.1121 Q79.8503,96.1121 79.3467,96.8964 Q78.8432,97.6807 78.8432,99.2249 Q78.8432,100.7629 79.3467,101.5472 Q79.8503,102.3315 80.839,102.3315 Q81.3029,102.3315 81.7393,102.1332 Q82.1757,101.9348 82.6396,101.5076 Z " fill="#000000"/><text fill="#D8BC00" font-family="Open Sans,Avenir,Nunito,Arial,Helvetica,SansSerif" font-size="12.5" font-weight="bold" lengthAdjust="spacing" textLength="30.2083" x="103.6458" y="103.8086">Osm</text><line style="stroke:#5E5E5E;stroke-width:1.5625;" x1="8.3333" x2="197.9167" y1="114.7786" y2="114.7786"/><ellipse cx="18.75" cy="150.1485" fill="#84BE84" rx="3.125" ry="3.125" style="stroke:#038048;stroke-width:1.0416666666666667;"/><text fill="#D8BC00" font-family="Open Sans,Avenir,Nunito,Arial,Helvetica,SansSerif" font-size="11.4583" lengthAdjust="spacing" textLength="159.375" x="30.2083" y="157.0597">boolean isNavigable(PbfWay)</text><line style="stroke:#5E5E5E;stroke-width:1.0416666666666667;" x1="8.3333" x2="76.5625" y1="132.9844" y2="132.9844"/><text fill="#D8BC00" font-family="Open Sans,Avenir,Nunito,Arial,Helvetica,SansSerif" font-size="11.4583" lengthAdjust="spacing" textLength="46.875" x="79.6875" y="136.794">(checks)</text><line style="stroke:#5E5E5E;stroke-width:1.0416666666666667;" x1="129.6875" x2="197.9167" y1="132.9844" y2="132.9844"/><rect codeLine="15" fill="#282828" height="142.6127" id="OsmHighwayTag" rx="8.3333" ry="8.3333" style="stroke:#5E5E5E;stroke-width:1.0416666666666667;" width="219.7917" x="235.9375" y="53.7028"/><rect fill="#1B1B1A" height="31.3883" rx="8.3333" ry="8.3333" style="stroke:#1B1B1A;stroke-width:1.0416666666666667;" width="219.7917" x="235.9375" y="53.7028"/><rect fill="#1B1B1A" height="8.3333" style="stroke:#1B1B1A;stroke-width:1.0416666666666667;" width="219.7917" x="235.9375" y="76.7578"/><rect codeLine="15" fill="none" height="142.6127" id="OsmHighwayTag" rx="8.3333" ry="8.3333" style="stroke:#5E5E5E;stroke-width:1.0416666666666667;" width="219.7917" x="235.9375" y="53.7028"/><ellipse cx="283.8542" cy="69.397" fill="#0066CF" rx="10.4167" ry="10.4167" style="stroke:#0086EF;stroke-width:1.0416666666666667;"/><path d="M285.7646,73.822 Q285.3373,74.0417 284.8674,74.1516 Q284.3974,74.2615 283.8786,74.2615 Q282.0353,74.2615 281.0649,73.0469 Q280.0944,71.8323 280.0944,69.5374 Q280.0944,67.2363 281.0649,66.0217 Q282.0353,64.8071 283.8786,64.8071 Q284.3974,64.8071 284.8735,64.917 Q285.3495,65.0269 285.7646,65.2466 L285.7646,67.2485 Q285.3007,66.8213 284.8643,66.6229 Q284.4279,66.4246 283.964,66.4246 Q282.9753,66.4246 282.4717,67.2089 Q281.9682,67.9932 281.9682,69.5374 Q281.9682,71.0754 282.4717,71.8597 Q282.9753,72.644 283.964,72.644 Q284.4279,72.644 284.8643,72.4457 Q285.3007,72.2473 285.7646,71.8201 Z " fill="#000000"/><text fill="#D8BC00" font-family="Open Sans,Avenir,Nunito,Arial,Helvetica,SansSerif" font-size="12.5" font-weight="bold" lengthAdjust="spacing" textLength="109.375" x="306.7708" y="74.1211">OsmHighwayTag</text><line style="stroke:#5E5E5E;stroke-width:1.5625;" x1="236.9792" x2="454.6875" y1="85.0911" y2="85.0911"/><ellipse cx="247.3958" cy="120.461" fill="#84BE84" rx="3.125" ry="3.125" style="stroke:#038048;stroke-width:1.0416666666666667;"/><text fill="#D8BC00" font-family="Open Sans,Avenir,Nunito,Arial,Helvetica,SansSerif" font-size="11.4583" lengthAdjust="spacing" textLength="187.5" x="258.8542" y="127.3722">boolean isNavigableHighway(Tag)</text><ellipse cx="247.3958" cy="140.2059" fill="#84BE84" rx="3.125" ry="3.125" style="stroke:#038048;stroke-width:1.0416666666666667;"/><text fill="#D8BC00" font-family="Open Sans,Avenir,Nunito,Arial,Helvetica,SansSerif" font-size="11.4583" lengthAdjust="spacing" textLength="169.7917" x="258.8542" y="147.1171">boolean isNullServiceWay(Tag)</text><ellipse cx="247.3958" cy="159.9508" fill="#84BE84" rx="3.125" ry="3.125" style="stroke:#038048;stroke-width:1.0416666666666667;"/><text fill="#D8BC00" font-family="Open Sans,Avenir,Nunito,Arial,Helvetica,SansSerif" font-size="11.4583" lengthAdjust="spacing" textLength="163.5417" x="258.8542" y="166.862">boolean isPrivateAccess(Tag)</text><ellipse cx="247.3958" cy="179.6956" fill="#84BE84" rx="3.125" ry="3.125" style="stroke:#038048;stroke-width:1.0416666666666667;"/><text fill="#D8BC00" font-family="Open Sans,Avenir,Nunito,Arial,Helvetica,SansSerif" font-size="11.4583" lengthAdjust="spacing" textLength="147.9167" x="258.8542" y="186.6069">boolean isServiceWay(Tag)</text><line style="stroke:#5E5E5E;stroke-width:1.0416666666666667;" x1="236.9792" x2="319.2708" y1="103.2969" y2="103.2969"/><text fill="#D8BC00" font-family="Open Sans,Avenir,Nunito,Arial,Helvetica,SansSerif" font-size="11.4583" lengthAdjust="spacing" textLength="46.875" x="322.3958" y="107.1065">(checks)</text><line style="stroke:#5E5E5E;stroke-width:1.0416666666666667;" x1="372.3958" x2="454.6875" y1="103.2969" y2="103.2969"/><rect codeLine="25" fill="#282828" height="83.3781" id="OsmIgnoredTags" rx="8.3333" ry="8.3333" style="stroke:#5E5E5E;stroke-width:1.0416666666666667;" width="148.9583" x="475.5208" y="258.9111"/><rect fill="#1B1B1A" height="31.3883" rx="8.3333" ry="8.3333" style="stroke:#1B1B1A;stroke-width:1.0416666666666667;" width="148.9583" x="475.5208" y="258.9111"/><rect fill="#1B1B1A" height="8.3333" style="stroke:#1B1B1A;stroke-width:1.0416666666666667;" width="148.9583" x="475.5208" y="281.9661"/><rect codeLine="25" fill="none" height="83.3781" id="OsmIgnoredTags" rx="8.3333" ry="8.3333" style="stroke:#5E5E5E;stroke-width:1.0416666666666667;" width="148.9583" x="475.5208" y="258.9111"/><ellipse cx="490.1042" cy="274.6053" fill="#0066CF" rx="10.4167" ry="10.4167" style="stroke:#0086EF;stroke-width:1.0416666666666667;"/><path d="M492.0146,279.0304 Q491.5873,279.2501 491.1174,279.3599 Q490.6474,279.4698 490.1286,279.4698 Q488.2853,279.4698 487.3149,278.2552 Q486.3444,277.0406 486.3444,274.7457 Q486.3444,272.4447 487.3149,271.2301 Q488.2853,270.0155 490.1286,270.0155 Q490.6474,270.0155 491.1235,270.1253 Q491.5995,270.2352 492.0146,270.4549 L492.0146,272.4569 Q491.5507,272.0296 491.1143,271.8313 Q490.6779,271.6329 490.214,271.6329 Q489.2253,271.6329 488.7217,272.4172 Q488.2182,273.2015 488.2182,274.7457 Q488.2182,276.2838 488.7217,277.0681 Q489.2253,277.8524 490.214,277.8524 Q490.6779,277.8524 491.1143,277.654 Q491.5507,277.4556 492.0146,277.0284 Z " fill="#000000"/><text fill="#D8BC00" font-family="Open Sans,Avenir,Nunito,Arial,Helvetica,SansSerif" font-size="12.5" font-weight="bold" lengthAdjust="spacing" textLength="111.4583" x="506.7708" y="279.3294">OsmIgnoredTags</text><line style="stroke:#5E5E5E;stroke-width:1.5625;" x1="476.5625" x2="623.4375" y1="290.2995" y2="290.2995"/><ellipse cx="486.9792" cy="325.6694" fill="#84BE84" rx="3.125" ry="3.125" style="stroke:#038048;stroke-width:1.0416666666666667;"/><text fill="#D8BC00" font-family="Open Sans,Avenir,Nunito,Arial,Helvetica,SansSerif" font-size="11.4583" lengthAdjust="spacing" textLength="105.2083" x="498.4375" y="332.5806">OsmIgnoredTags()</text><line style="stroke:#5E5E5E;stroke-width:1.0416666666666667;" x1="476.5625" x2="506.25" y1="308.5052" y2="308.5052"/><text fill="#D8BC00" font-family="Open Sans,Avenir,Nunito,Arial,Helvetica,SansSerif" font-size="11.4583" lengthAdjust="spacing" textLength="81.25" x="509.375" y="312.3149">(constructors)</text><line style="stroke:#5E5E5E;stroke-width:1.0416666666666667;" x1="593.75" x2="623.4375" y1="308.5052" y2="308.5052"/><rect codeLine="31" fill="#282828" height="48.055" id="OsmRelationTag" rx="8.3333" ry="8.3333" style="stroke:#5E5E5E;stroke-width:1.0416666666666667;" width="144.7917" x="30.7292" y="276.6195"/><rect fill="#1B1B1A" height="31.3883" rx="8.3333" ry="8.3333" style="stroke:#1B1B1A;stroke-width:1.0416666666666667;" width="144.7917" x="30.7292" y="276.6195"/><rect fill="#1B1B1A" height="8.3333" style="stroke:#1B1B1A;stroke-width:1.0416666666666667;" width="144.7917" x="30.7292" y="299.6745"/><rect codeLine="31" fill="none" height="48.055" id="OsmRelationTag" rx="8.3333" ry="8.3333" style="stroke:#5E5E5E;stroke-width:1.0416666666666667;" width="144.7917" x="30.7292" y="276.6195"/><ellipse cx="45.3125" cy="292.3136" fill="#0066CF" rx="10.4167" ry="10.4167" style="stroke:#0086EF;stroke-width:1.0416666666666667;"/><path d="M47.2229,296.7387 Q46.7957,296.9584 46.3257,297.0683 Q45.8557,297.1781 45.3369,297.1781 Q43.4937,297.1781 42.5232,295.9635 Q41.5527,294.7489 41.5527,292.454 Q41.5527,290.153 42.5232,288.9384 Q43.4937,287.7238 45.3369,287.7238 Q45.8557,287.7238 46.3318,287.8337 Q46.8079,287.9435 47.2229,288.1632 L47.2229,290.1652 Q46.759,289.738 46.3226,289.5396 Q45.8862,289.3412 45.4224,289.3412 Q44.4336,289.3412 43.9301,290.1255 Q43.4265,290.9098 43.4265,292.454 Q43.4265,293.9921 43.9301,294.7764 Q44.4336,295.5607 45.4224,295.5607 Q45.8862,295.5607 46.3226,295.3623 Q46.759,295.164 47.2229,294.7367 Z " fill="#000000"/><text fill="#D8BC00" font-family="Open Sans,Avenir,Nunito,Arial,Helvetica,SansSerif" font-size="12.5" font-weight="bold" lengthAdjust="spacing" textLength="107.2917" x="61.9792" y="297.0378">OsmRelationTag</text><line style="stroke:#5E5E5E;stroke-width:1.0416666666666667;" x1="31.7708" x2="174.4792" y1="308.0078" y2="308.0078"/><line style="stroke:#5E5E5E;stroke-width:1.0416666666666667;" x1="31.7708" x2="174.4792" y1="316.3411" y2="316.3411"/><path codeLine="24" d="M550,170.3382 C550,197.557 550,232.2028 550,258.7653 " fill="none" id="PbfTagFilter-backto-OsmIgnoredTags" style="stroke:#545454;stroke-width:1.5625;"/><polygon fill="none" points="542.7083,169.9632,550,149.1299,557.2917,169.9632,542.7083,169.9632" style="stroke:#545454;stroke-width:1.5625;"/></g></svg>
