<?xml version="1.0" encoding="UTF-8" standalone="no"?><svg xmlns="http://www.w3.org/2000/svg" xmlns:xlink="http://www.w3.org/1999/xlink" contentScriptType="application/ecmascript" contentStyleType="text/css" height="273.9583px" preserveAspectRatio="none" style="width:732px;height:273px;background:#333333;" version="1.1" viewBox="0 0 732 273" width="732.2917px" zoomAndPan="magnify"><defs/><g><rect fill="#48494B" height="41.2028" rx="8.3333" ry="8.3333" style="stroke:#545454;stroke-width:1.0416666666666667;" width="629.1667" x="44.5313" y="2.0833"/><text fill="#C0C0C0" font-family="Open Sans,Avenir,Nunito,Arial,Helvetica,SansSerif" font-size="20.8333" lengthAdjust="spacing" textLength="606.25" x="55.9896" y="30.5583">com.telenav.mesakit.map.data.formats.pbf.model.extractors</text><rect codeLine="7" fill="#282828" height="48.055" id="BaseExtractor" rx="8.3333" ry="8.3333" style="stroke:#5E5E5E;stroke-width:1.0416666666666667;" width="125" x="312.5" y="53.7028"/><rect fill="#1B1B1A" height="31.3883" rx="8.3333" ry="8.3333" style="stroke:#1B1B1A;stroke-width:1.0416666666666667;" width="125" x="312.5" y="53.7028"/><rect fill="#1B1B1A" height="8.3333" style="stroke:#1B1B1A;stroke-width:1.0416666666666667;" width="125" x="312.5" y="76.7578"/><rect codeLine="7" fill="none" height="48.055" id="BaseExtractor" rx="8.3333" ry="8.3333" style="stroke:#5E5E5E;stroke-width:1.0416666666666667;" width="125" x="312.5" y="53.7028"/><ellipse cx="327.0833" cy="69.397" fill="#C8AC00" rx="10.4167" ry="10.4167" style="stroke:#D8BC00;stroke-width:1.0416666666666667;"/><path d="M326.6764,66.099 L325.828,69.8283 L327.5309,69.8283 Z M325.5778,64.4511 L327.7812,64.4511 L330.2409,73.5636 L328.4403,73.5636 L327.8788,71.3114 L325.4679,71.3114 L324.9186,73.5636 L323.1181,73.5636 Z " fill="#000000"/><text fill="#D8BC00" font-family="Open Sans,Avenir,Nunito,Arial,Helvetica,SansSerif" font-size="12.5" font-style="italic" font-weight="bold" lengthAdjust="spacing" textLength="87.5" x="343.75" y="74.1211">BaseExtractor</text><line style="stroke:#5E5E5E;stroke-width:1.0416666666666667;" x1="313.5417" x2="436.4583" y1="85.0911" y2="85.0911"/><line style="stroke:#5E5E5E;stroke-width:1.0416666666666667;" x1="313.5417" x2="436.4583" y1="93.4245" y2="93.4245"/><rect codeLine="10" fill="#282828" height="103.123" id="IntegerExtractor" rx="8.3333" ry="8.3333" style="stroke:#5E5E5E;stroke-width:1.0416666666666667;" width="216.6667" x="7.2917" y="164.1195"/><rect fill="#1B1B1A" height="31.3883" rx="8.3333" ry="8.3333" style="stroke:#1B1B1A;stroke-width:1.0416666666666667;" width="216.6667" x="7.2917" y="164.1195"/><rect fill="#1B1B1A" height="8.3333" style="stroke:#1B1B1A;stroke-width:1.0416666666666667;" width="216.6667" x="7.2917" y="187.1745"/><rect codeLine="10" fill="none" height="103.123" id="IntegerExtractor" rx="8.3333" ry="8.3333" style="stroke:#5E5E5E;stroke-width:1.0416666666666667;" width="216.6667" x="7.2917" y="164.1195"/><ellipse cx="56.7708" cy="179.8136" fill="#0066CF" rx="10.4167" ry="10.4167" style="stroke:#0086EF;stroke-width:1.0416666666666667;"/><path d="M58.6812,184.2387 Q58.254,184.4584 57.784,184.5683 Q57.314,184.6781 56.7952,184.6781 Q54.952,184.6781 53.9815,183.4635 Q53.0111,182.2489 53.0111,179.954 Q53.0111,177.653 53.9815,176.4384 Q54.952,175.2238 56.7952,175.2238 Q57.314,175.2238 57.7901,175.3337 Q58.2662,175.4435 58.6812,175.6632 L58.6812,177.6652 Q58.2174,177.238 57.781,177.0396 Q57.3446,176.8412 56.8807,176.8412 Q55.8919,176.8412 55.3884,177.6255 Q54.8848,178.4098 54.8848,179.954 Q54.8848,181.4921 55.3884,182.2764 Q55.8919,183.0607 56.8807,183.0607 Q57.3446,183.0607 57.781,182.8623 Q58.2174,182.664 58.6812,182.2367 Z " fill="#000000"/><text fill="#D8BC00" font-family="Open Sans,Avenir,Nunito,Arial,Helvetica,SansSerif" font-size="12.5" font-weight="bold" lengthAdjust="spacing" textLength="103.125" x="79.6875" y="184.5378">IntegerExtractor</text><line style="stroke:#5E5E5E;stroke-width:1.5625;" x1="8.3333" x2="222.9167" y1="195.5078" y2="195.5078"/><ellipse cx="18.75" cy="230.8777" fill="#84BE84" rx="3.125" ry="3.125" style="stroke:#038048;stroke-width:1.0416666666666667;"/><text fill="#D8BC00" font-family="Open Sans,Avenir,Nunito,Arial,Helvetica,SansSerif" font-size="11.4583" lengthAdjust="spacing" textLength="144.7917" x="30.2083" y="237.7889">IntegerExtractor(Listener)</text><ellipse cx="18.75" cy="250.6226" fill="#84BE84" rx="3.125" ry="3.125" style="stroke:#038048;stroke-width:1.0416666666666667;"/><text fill="#D8BC00" font-family="Open Sans,Avenir,Nunito,Arial,Helvetica,SansSerif" font-size="11.4583" lengthAdjust="spacing" textLength="184.375" x="30.2083" y="257.5338">IntegerExtractor(Listener, String)</text><line style="stroke:#5E5E5E;stroke-width:1.0416666666666667;" x1="8.3333" x2="71.875" y1="213.7136" y2="213.7136"/><text fill="#D8BC00" font-family="Open Sans,Avenir,Nunito,Arial,Helvetica,SansSerif" font-size="11.4583" lengthAdjust="spacing" textLength="81.25" x="75" y="217.5232">(constructors)</text><line style="stroke:#5E5E5E;stroke-width:1.0416666666666667;" x1="159.375" x2="222.9167" y1="213.7136" y2="213.7136"/><rect codeLine="18" fill="#282828" height="83.3781" id="RevisionNumberExtractor" rx="8.3333" ry="8.3333" style="stroke:#5E5E5E;stroke-width:1.0416666666666667;" width="229.1667" x="260.4167" y="174.0153"/><rect fill="#1B1B1A" height="31.3883" rx="8.3333" ry="8.3333" style="stroke:#1B1B1A;stroke-width:1.0416666666666667;" width="229.1667" x="260.4167" y="174.0153"/><rect fill="#1B1B1A" height="8.3333" style="stroke:#1B1B1A;stroke-width:1.0416666666666667;" width="229.1667" x="260.4167" y="197.0703"/><rect codeLine="18" fill="none" height="83.3781" id="RevisionNumberExtractor" rx="8.3333" ry="8.3333" style="stroke:#5E5E5E;stroke-width:1.0416666666666667;" width="229.1667" x="260.4167" y="174.0153"/><ellipse cx="287.6563" cy="189.7095" fill="#0066CF" rx="10.4167" ry="10.4167" style="stroke:#0086EF;stroke-width:1.0416666666666667;"/><path d="M289.5667,194.1345 Q289.1394,194.3542 288.6694,194.4641 Q288.1995,194.574 287.6807,194.574 Q285.8374,194.574 284.8669,193.3594 Q283.8965,192.1448 283.8965,189.8499 Q283.8965,187.5488 284.8669,186.3342 Q285.8374,185.1196 287.6807,185.1196 Q288.1995,185.1196 288.6755,185.2295 Q289.1516,185.3394 289.5667,185.5591 L289.5667,187.561 Q289.1028,187.1338 288.6664,186.9354 Q288.23,186.7371 287.7661,186.7371 Q286.7773,186.7371 286.2738,187.5214 Q285.7703,188.3057 285.7703,189.8499 Q285.7703,191.3879 286.2738,192.1722 Q286.7773,192.9565 287.7661,192.9565 Q288.23,192.9565 288.6664,192.7582 Q289.1028,192.5598 289.5667,192.1326 Z " fill="#000000"/><text fill="#D8BC00" font-family="Open Sans,Avenir,Nunito,Arial,Helvetica,SansSerif" font-size="12.5" font-weight="bold" lengthAdjust="spacing" textLength="163.5417" x="307.1354" y="194.4336">RevisionNumberExtractor</text><line style="stroke:#5E5E5E;stroke-width:1.5625;" x1="261.4583" x2="488.5417" y1="205.4036" y2="205.4036"/><ellipse cx="271.875" cy="240.7735" fill="#84BE84" rx="3.125" ry="3.125" style="stroke:#038048;stroke-width:1.0416666666666667;"/><text fill="#D8BC00" font-family="Open Sans,Avenir,Nunito,Arial,Helvetica,SansSerif" font-size="11.4583" lengthAdjust="spacing" textLength="196.875" x="283.3333" y="247.6847">RevisionNumberExtractor(Listener)</text><line style="stroke:#5E5E5E;stroke-width:1.0416666666666667;" x1="261.4583" x2="331.25" y1="223.6094" y2="223.6094"/><text fill="#D8BC00" font-family="Open Sans,Avenir,Nunito,Arial,Helvetica,SansSerif" font-size="11.4583" lengthAdjust="spacing" textLength="81.25" x="334.375" y="227.419">(constructors)</text><line style="stroke:#5E5E5E;stroke-width:1.0416666666666667;" x1="418.75" x2="488.5417" y1="223.6094" y2="223.6094"/><rect codeLine="25" fill="#282828" height="83.3781" id="TimestampExtractor" rx="8.3333" ry="8.3333" style="stroke:#5E5E5E;stroke-width:1.0416666666666667;" width="198.9583" x="526.5625" y="174.0153"/><rect fill="#1B1B1A" height="31.3883" rx="8.3333" ry="8.3333" style="stroke:#1B1B1A;stroke-width:1.0416666666666667;" width="198.9583" x="526.5625" y="174.0153"/><rect fill="#1B1B1A" height="8.3333" style="stroke:#1B1B1A;stroke-width:1.0416666666666667;" width="198.9583" x="526.5625" y="197.0703"/><rect codeLine="25" fill="none" height="83.3781" id="TimestampExtractor" rx="8.3333" ry="8.3333" style="stroke:#5E5E5E;stroke-width:1.0416666666666667;" width="198.9583" x="526.5625" y="174.0153"/><ellipse cx="555.2083" cy="189.7095" fill="#0066CF" rx="10.4167" ry="10.4167" style="stroke:#0086EF;stroke-width:1.0416666666666667;"/><path d="M557.1187,194.1345 Q556.6915,194.3542 556.2215,194.4641 Q555.7515,194.574 555.2327,194.574 Q553.3895,194.574 552.419,193.3594 Q551.4486,192.1448 551.4486,189.8499 Q551.4486,187.5488 552.419,186.3342 Q553.3895,185.1196 555.2327,185.1196 Q555.7515,185.1196 556.2276,185.2295 Q556.7037,185.3394 557.1187,185.5591 L557.1187,187.561 Q556.6549,187.1338 556.2185,186.9354 Q555.7821,186.7371 555.3182,186.7371 Q554.3294,186.7371 553.8259,187.5214 Q553.3223,188.3057 553.3223,189.8499 Q553.3223,191.3879 553.8259,192.1722 Q554.3294,192.9565 555.3182,192.9565 Q555.7821,192.9565 556.2185,192.7582 Q556.6549,192.5598 557.1187,192.1326 Z " fill="#000000"/><text fill="#D8BC00" font-family="Open Sans,Avenir,Nunito,Arial,Helvetica,SansSerif" font-size="12.5" font-weight="bold" lengthAdjust="spacing" textLength="130.2083" x="575" y="194.4336">TimestampExtractor</text><line style="stroke:#5E5E5E;stroke-width:1.5625;" x1="527.6042" x2="724.4792" y1="205.4036" y2="205.4036"/><ellipse cx="538.0208" cy="240.7735" fill="#84BE84" rx="3.125" ry="3.125" style="stroke:#038048;stroke-width:1.0416666666666667;"/><text fill="#D8BC00" font-family="Open Sans,Avenir,Nunito,Arial,Helvetica,SansSerif" font-size="11.4583" lengthAdjust="spacing" textLength="166.6667" x="549.4792" y="247.6847">TimestampExtractor(Listener)</text><line style="stroke:#5E5E5E;stroke-width:1.0416666666666667;" x1="527.6042" x2="582.2917" y1="223.6094" y2="223.6094"/><text fill="#D8BC00" font-family="Open Sans,Avenir,Nunito,Arial,Helvetica,SansSerif" font-size="11.4583" lengthAdjust="spacing" textLength="81.25" x="585.4167" y="227.419">(constructors)</text><line style="stroke:#5E5E5E;stroke-width:1.0416666666666667;" x1="669.7917" x2="724.4792" y1="223.6094" y2="223.6094"/><path codeLine="9" d="M312.3125,111.557 C282.2708,127.307 245.6146,146.5153 212.125,164.0674 " fill="none" id="BaseExtractor-backto-IntegerExtractor" style="stroke:#545454;stroke-width:1.5625;"/><polygon fill="none" points="309.1667,104.9736,331,101.7653,315.9375,117.8903,309.1667,104.9736" style="stroke:#545454;stroke-width:1.5625;"/><path codeLine="17" d="M375,122.734 C375,139.1611 375,157.7236 375,173.8382 " fill="none" id="BaseExtractor-backto-RevisionNumberExtractor" style="stroke:#545454;stroke-width:1.5625;"/><polygon fill="none" points="367.7083,122.5986,375,101.7653,382.2917,122.5986,367.7083,122.5986" style="stroke:#545454;stroke-width:1.5625;"/><path codeLine="24" d="M436.25,111.8695 C470.75,130.5465 514.1146,154.0361 550.6875,173.8382 " fill="none" id="BaseExtractor-backto-TimestampExtractor" style="stroke:#545454;stroke-width:1.5625;"/><polygon fill="none" points="432.4375,118.0986,417.5833,101.7653,439.375,105.2757,432.4375,118.0986" style="stroke:#545454;stroke-width:1.5625;"/></g></svg>
