<?xml version="1.0" encoding="UTF-8" standalone="no"?><svg xmlns="http://www.w3.org/2000/svg" xmlns:xlink="http://www.w3.org/1999/xlink" contentScriptType="application/ecmascript" contentStyleType="text/css" height="851.0417px" preserveAspectRatio="none" style="width:1811px;height:851px;background:#333333;" version="1.1" viewBox="0 0 1811 851" width="1811.4583px" zoomAndPan="magnify"><defs/><g><rect fill="#48494B" height="41.2028" rx="8.3333" ry="8.3333" style="stroke:#545454;stroke-width:1.0416666666666667;" width="343.75" x="726.5625" y="2.0833"/><text fill="#C0C0C0" font-family="Open Sans,Avenir,Nunito,Arial,Helvetica,SansSerif" font-size="20.8333" lengthAdjust="spacing" textLength="320.8333" x="738.0208" y="30.5583">com.telenav.mesakit.graph.map</text><!--MD5=[882130b7a6244c344a9fb289bc1dfac9]
cluster MapRoute--><polygon fill="#333333" points="16.6667,370.3695,93.75,370.3695,101.0417,397.5911,336.4583,397.5911,336.4583,547.4528,16.6667,547.4528,16.6667,370.3695" style="stroke:#333333;stroke-width:2.0833333333333335;"/><line style="stroke:#333333;stroke-width:2.0833333333333335;" x1="16.6667" x2="101.0417" y1="397.5911" y2="397.5911"/><text fill="#C8AC00" font-family="Open Sans,Avenir,Nunito,Arial,Helvetica,SansSerif" font-size="12.5" font-weight="bold" lengthAdjust="spacing" textLength="64.5833" x="23.9583" y="387.6628">MapRoute</text><!--MD5=[1b23290ddd66ca5b72f126c7bd67f29f]
cluster MapEdgeIdentifier--><polygon fill="#333333" points="369.7917,388.5986,500,388.5986,507.2917,415.8203,791.6667,415.8203,791.6667,529.2236,369.7917,529.2236,369.7917,388.5986" style="stroke:#333333;stroke-width:2.0833333333333335;"/><line style="stroke:#333333;stroke-width:2.0833333333333335;" x1="369.7917" x2="507.2917" y1="415.8203" y2="415.8203"/><text fill="#C8AC00" font-family="Open Sans,Avenir,Nunito,Arial,Helvetica,SansSerif" font-size="12.5" font-weight="bold" lengthAdjust="spacing" textLength="117.7083" x="377.0833" y="405.8919">MapEdgeIdentifier</text><!--MD5=[6d9593573d1915bea74d80f3fe136866]
class MapRoute.Converter--><rect codeLine="12" fill="#282828" height="103.123" id="MapRoute.Converter" rx="8.3333" ry="8.3333" style="stroke:#5E5E5E;stroke-width:1.0416666666666667;" width="248.9583" x="61.9792" y="419.3278"/><rect fill="#1B1B1A" height="31.3883" rx="8.3333" ry="8.3333" style="stroke:#1B1B1A;stroke-width:1.0416666666666667;" width="248.9583" x="61.9792" y="419.3278"/><rect fill="#1B1B1A" height="8.3333" style="stroke:#1B1B1A;stroke-width:1.0416666666666667;" width="248.9583" x="61.9792" y="442.3828"/><rect codeLine="12" fill="none" height="103.123" id="MapRoute.Converter" rx="8.3333" ry="8.3333" style="stroke:#5E5E5E;stroke-width:1.0416666666666667;" width="248.9583" x="61.9792" y="419.3278"/><ellipse cx="147.3958" cy="435.022" fill="#0066CF" rx="10.4167" ry="10.4167" style="stroke:#0086EF;stroke-width:1.0416666666666667;"/><path d="M149.3062,439.447 Q148.879,439.6667 148.409,439.7766 Q147.939,439.8865 147.4202,439.8865 Q145.577,439.8865 144.6065,438.6719 Q143.6361,437.4573 143.6361,435.1624 Q143.6361,432.8613 144.6065,431.6467 Q145.577,430.4321 147.4202,430.4321 Q147.939,430.4321 148.4151,430.542 Q148.8912,430.6519 149.3062,430.8716 L149.3062,432.8735 Q148.8424,432.4463 148.406,432.2479 Q147.9696,432.0496 147.5057,432.0496 Q146.5169,432.0496 146.0134,432.8339 Q145.5098,433.6182 145.5098,435.1624 Q145.5098,436.7004 146.0134,437.4847 Q146.5169,438.269 147.5057,438.269 Q147.9696,438.269 148.406,438.0707 Q148.8424,437.8723 149.3062,437.4451 Z " fill="#000000"/><text fill="#D8BC00" font-family="Open Sans,Avenir,Nunito,Arial,Helvetica,SansSerif" font-size="12.5" font-weight="bold" lengthAdjust="spacing" textLength="63.5417" x="170.3125" y="439.7461">Converter</text><line style="stroke:#5E5E5E;stroke-width:1.5625;" x1="63.0208" x2="309.8958" y1="450.7161" y2="450.7161"/><ellipse cx="73.4375" cy="486.086" fill="#84BE84" rx="3.125" ry="3.125" style="stroke:#038048;stroke-width:1.0416666666666667;"/><text fill="#D8BC00" font-family="Open Sans,Avenir,Nunito,Arial,Helvetica,SansSerif" font-size="11.4583" lengthAdjust="spacing" textLength="216.6667" x="84.8958" y="492.9972">Converter(Listener, Graph, Separators)</text><ellipse cx="73.4375" cy="505.8309" fill="#84BE84" rx="3.125" ry="3.125" style="stroke:#038048;stroke-width:1.0416666666666667;"/><text fill="#D8BC00" font-family="Open Sans,Avenir,Nunito,Arial,Helvetica,SansSerif" font-size="11.4583" lengthAdjust="spacing" textLength="176.0417" x="84.8958" y="512.7421">Converter(Listener, Separators)</text><line style="stroke:#5E5E5E;stroke-width:1.0416666666666667;" x1="63.0208" x2="142.7083" y1="468.9219" y2="468.9219"/><text fill="#D8BC00" font-family="Open Sans,Avenir,Nunito,Arial,Helvetica,SansSerif" font-size="11.4583" lengthAdjust="spacing" textLength="81.25" x="145.8333" y="472.7315">(constructors)</text><line style="stroke:#5E5E5E;stroke-width:1.0416666666666667;" x1="230.2083" x2="309.8958" y1="468.9219" y2="468.9219"/><!--MD5=[0b76d509572f69b6d43b6b6fdee6d102]
class MapEdgeIdentifier.Converter--><rect codeLine="20" fill="#282828" height="83.3781" id="MapEdgeIdentifier.Converter" rx="8.3333" ry="8.3333" style="stroke:#5E5E5E;stroke-width:1.0416666666666667;" width="141.6667" x="633.3333" y="429.2236"/><rect fill="#1B1B1A" height="31.3883" rx="8.3333" ry="8.3333" style="stroke:#1B1B1A;stroke-width:1.0416666666666667;" width="141.6667" x="633.3333" y="429.2236"/><rect fill="#1B1B1A" height="8.3333" style="stroke:#1B1B1A;stroke-width:1.0416666666666667;" width="141.6667" x="633.3333" y="452.2786"/><rect codeLine="20" fill="none" height="83.3781" id="MapEdgeIdentifier.Converter" rx="8.3333" ry="8.3333" style="stroke:#5E5E5E;stroke-width:1.0416666666666667;" width="141.6667" x="633.3333" y="429.2236"/><ellipse cx="666.1979" cy="444.9178" fill="#0066CF" rx="10.4167" ry="10.4167" style="stroke:#0086EF;stroke-width:1.0416666666666667;"/><path d="M668.1083,449.3429 Q667.6811,449.5626 667.2111,449.6724 Q666.7411,449.7823 666.2223,449.7823 Q664.3791,449.7823 663.4086,448.5677 Q662.4382,447.3531 662.4382,445.0582 Q662.4382,442.7572 663.4086,441.5426 Q664.3791,440.328 666.2223,440.328 Q666.7411,440.328 667.2172,440.4378 Q667.6933,440.5477 668.1083,440.7674 L668.1083,442.7694 Q667.6444,442.3421 667.208,442.1438 Q666.7716,441.9454 666.3078,441.9454 Q665.319,441.9454 664.8155,442.7297 Q664.3119,443.514 664.3119,445.0582 Q664.3119,446.5963 664.8155,447.3806 Q665.319,448.1649 666.3078,448.1649 Q666.7716,448.1649 667.208,447.9665 Q667.6444,447.7681 668.1083,447.3409 Z " fill="#000000"/><text fill="#D8BC00" font-family="Open Sans,Avenir,Nunito,Arial,Helvetica,SansSerif" font-size="12.5" font-weight="bold" lengthAdjust="spacing" textLength="63.5417" x="686.9271" y="449.6419">Converter</text><line style="stroke:#5E5E5E;stroke-width:1.5625;" x1="634.375" x2="773.9583" y1="460.612" y2="460.612"/><ellipse cx="644.7917" cy="495.9819" fill="#84BE84" rx="3.125" ry="3.125" style="stroke:#038048;stroke-width:1.0416666666666667;"/><text fill="#D8BC00" font-family="Open Sans,Avenir,Nunito,Arial,Helvetica,SansSerif" font-size="11.4583" lengthAdjust="spacing" textLength="109.375" x="656.25" y="502.8931">Converter(Listener)</text><line style="stroke:#5E5E5E;stroke-width:1.0416666666666667;" x1="634.375" x2="660.4167" y1="478.8177" y2="478.8177"/><text fill="#D8BC00" font-family="Open Sans,Avenir,Nunito,Arial,Helvetica,SansSerif" font-size="11.4583" lengthAdjust="spacing" textLength="81.25" x="663.5417" y="482.6274">(constructors)</text><line style="stroke:#5E5E5E;stroke-width:1.0416666666666667;" x1="747.9167" x2="773.9583" y1="478.8177" y2="478.8177"/><!--MD5=[5ad9d41c36afd54e74498da500539b81]
class MapEdgeIdentifier.EdgeConverter--><rect codeLine="27" fill="#282828" height="83.3781" id="MapEdgeIdentifier.EdgeConverter" rx="8.3333" ry="8.3333" style="stroke:#5E5E5E;stroke-width:1.0416666666666667;" width="209.375" x="386.9792" y="429.2236"/><rect fill="#1B1B1A" height="31.3883" rx="8.3333" ry="8.3333" style="stroke:#1B1B1A;stroke-width:1.0416666666666667;" width="209.375" x="386.9792" y="429.2236"/><rect fill="#1B1B1A" height="8.3333" style="stroke:#1B1B1A;stroke-width:1.0416666666666667;" width="209.375" x="386.9792" y="452.2786"/><rect codeLine="27" fill="none" height="83.3781" id="MapEdgeIdentifier.EdgeConverter" rx="8.3333" ry="8.3333" style="stroke:#5E5E5E;stroke-width:1.0416666666666667;" width="209.375" x="386.9792" y="429.2236"/><ellipse cx="436.9792" cy="444.9178" fill="#0066CF" rx="10.4167" ry="10.4167" style="stroke:#0086EF;stroke-width:1.0416666666666667;"/><path d="M438.8896,449.3429 Q438.4623,449.5626 437.9924,449.6724 Q437.5224,449.7823 437.0036,449.7823 Q435.1603,449.7823 434.1899,448.5677 Q433.2194,447.3531 433.2194,445.0582 Q433.2194,442.7572 434.1899,441.5426 Q435.1603,440.328 437.0036,440.328 Q437.5224,440.328 437.9985,440.4378 Q438.4745,440.5477 438.8896,440.7674 L438.8896,442.7694 Q438.4257,442.3421 437.9893,442.1438 Q437.5529,441.9454 437.089,441.9454 Q436.1003,441.9454 435.5967,442.7297 Q435.0932,443.514 435.0932,445.0582 Q435.0932,446.5963 435.5967,447.3806 Q436.1003,448.1649 437.089,448.1649 Q437.5529,448.1649 437.9893,447.9665 Q438.4257,447.7681 438.8896,447.3409 Z " fill="#000000"/><text fill="#D8BC00" font-family="Open Sans,Avenir,Nunito,Arial,Helvetica,SansSerif" font-size="12.5" font-weight="bold" lengthAdjust="spacing" textLength="94.7917" x="459.8958" y="449.6419">EdgeConverter</text><line style="stroke:#5E5E5E;stroke-width:1.5625;" x1="388.0208" x2="595.3125" y1="460.612" y2="460.612"/><ellipse cx="398.4375" cy="495.9819" fill="#84BE84" rx="3.125" ry="3.125" style="stroke:#038048;stroke-width:1.0416666666666667;"/><text fill="#D8BC00" font-family="Open Sans,Avenir,Nunito,Arial,Helvetica,SansSerif" font-size="11.4583" lengthAdjust="spacing" textLength="177.0833" x="409.8958" y="502.8931">EdgeConverter(Listener, Graph)</text><line style="stroke:#5E5E5E;stroke-width:1.0416666666666667;" x1="388.0208" x2="447.9167" y1="478.8177" y2="478.8177"/><text fill="#D8BC00" font-family="Open Sans,Avenir,Nunito,Arial,Helvetica,SansSerif" font-size="11.4583" lengthAdjust="spacing" textLength="81.25" x="451.0417" y="482.6274">(constructors)</text><line style="stroke:#5E5E5E;stroke-width:1.0416666666666667;" x1="535.4167" x2="595.3125" y1="478.8177" y2="478.8177"/><!--MD5=[9aa687ed59f428548907e723dba1087a]
class BaseStringConverter--><rect codeLine="6" fill="#282828" height="48.055" id="BaseStringConverter" rx="8.3333" ry="8.3333" style="stroke:#5E5E5E;stroke-width:1.0416666666666667;" width="169.7917" x="406.7708" y="113.0778"/><rect fill="#1B1B1A" height="31.3883" rx="8.3333" ry="8.3333" style="stroke:#1B1B1A;stroke-width:1.0416666666666667;" width="169.7917" x="406.7708" y="113.0778"/><rect fill="#1B1B1A" height="8.3333" style="stroke:#1B1B1A;stroke-width:1.0416666666666667;" width="169.7917" x="406.7708" y="136.1328"/><rect codeLine="6" fill="none" height="48.055" id="BaseStringConverter" rx="8.3333" ry="8.3333" style="stroke:#5E5E5E;stroke-width:1.0416666666666667;" width="169.7917" x="406.7708" y="113.0778"/><ellipse cx="421.3542" cy="128.772" fill="#C8AC00" rx="10.4167" ry="10.4167" style="stroke:#D8BC00;stroke-width:1.0416666666666667;"/><path d="M420.9473,125.474 L420.0989,129.2033 L421.8018,129.2033 Z M419.8486,123.8261 L422.052,123.8261 L424.5117,132.9386 L422.7112,132.9386 L422.1497,130.6864 L419.7388,130.6864 L419.1895,132.9386 L417.3889,132.9386 Z " fill="#000000"/><text fill="#D8BC00" font-family="Open Sans,Avenir,Nunito,Arial,Helvetica,SansSerif" font-size="12.5" font-style="italic" font-weight="bold" lengthAdjust="spacing" textLength="132.2917" x="438.0208" y="133.4961">BaseStringConverter</text><line style="stroke:#5E5E5E;stroke-width:1.0416666666666667;" x1="407.8125" x2="575.5208" y1="144.4661" y2="144.4661"/><line style="stroke:#5E5E5E;stroke-width:1.0416666666666667;" x1="407.8125" x2="575.5208" y1="152.7995" y2="152.7995"/><!--MD5=[47de47a8b5f06cbc5e036fae0a9149b7]
class Iterable--><rect codeLine="8" fill="#282828" height="48.055" id="Iterable" rx="8.3333" ry="8.3333" style="stroke:#5E5E5E;stroke-width:1.0416666666666667;" width="86.4583" x="1016.1458" y="113.0778"/><rect fill="#1B1B1A" height="31.3883" rx="8.3333" ry="8.3333" style="stroke:#1B1B1A;stroke-width:1.0416666666666667;" width="86.4583" x="1016.1458" y="113.0778"/><rect fill="#1B1B1A" height="8.3333" style="stroke:#1B1B1A;stroke-width:1.0416666666666667;" width="86.4583" x="1016.1458" y="136.1328"/><rect codeLine="8" fill="none" height="48.055" id="Iterable" rx="8.3333" ry="8.3333" style="stroke:#5E5E5E;stroke-width:1.0416666666666667;" width="86.4583" x="1016.1458" y="113.0778"/><ellipse cx="1030.7292" cy="128.772" fill="#008400" rx="10.4167" ry="10.4167" style="stroke:#239C23;stroke-width:1.0416666666666667;"/><path d="M1028.1331,125.9338 L1028.1331,124.3469 L1033.5592,124.3469 L1033.5592,125.9338 L1031.7464,125.9338 L1031.7464,131.8726 L1033.5592,131.8726 L1033.5592,133.4595 L1028.1331,133.4595 L1028.1331,131.8726 L1029.9459,131.8726 L1029.9459,125.9338 Z " fill="#000000"/><text fill="#D8BC00" font-family="Open Sans,Avenir,Nunito,Arial,Helvetica,SansSerif" font-size="12.5" font-style="italic" font-weight="bold" lengthAdjust="spacing" textLength="48.9583" x="1047.3958" y="133.4961">Iterable</text><line style="stroke:#5E5E5E;stroke-width:1.0416666666666667;" x1="1017.1875" x2="1101.5625" y1="144.4661" y2="144.4661"/><line style="stroke:#5E5E5E;stroke-width:1.0416666666666667;" x1="1017.1875" x2="1101.5625" y1="152.7995" y2="152.7995"/><!--MD5=[fbcb1dceea9c260248071806a7ce1500]
class Road--><rect codeLine="9" fill="#282828" height="48.055" id="Road" rx="8.3333" ry="8.3333" style="stroke:#5E5E5E;stroke-width:1.0416666666666667;" width="69.7917" x="1245.3125" y="113.0778"/><rect fill="#1B1B1A" height="31.3883" rx="8.3333" ry="8.3333" style="stroke:#1B1B1A;stroke-width:1.0416666666666667;" width="69.7917" x="1245.3125" y="113.0778"/><rect fill="#1B1B1A" height="8.3333" style="stroke:#1B1B1A;stroke-width:1.0416666666666667;" width="69.7917" x="1245.3125" y="136.1328"/><rect codeLine="9" fill="none" height="48.055" id="Road" rx="8.3333" ry="8.3333" style="stroke:#5E5E5E;stroke-width:1.0416666666666667;" width="69.7917" x="1245.3125" y="113.0778"/><ellipse cx="1259.8958" cy="128.772" fill="#008400" rx="10.4167" ry="10.4167" style="stroke:#239C23;stroke-width:1.0416666666666667;"/><path d="M1257.2998,125.9338 L1257.2998,124.3469 L1262.7258,124.3469 L1262.7258,125.9338 L1260.9131,125.9338 L1260.9131,131.8726 L1262.7258,131.8726 L1262.7258,133.4595 L1257.2998,133.4595 L1257.2998,131.8726 L1259.1125,131.8726 L1259.1125,125.9338 Z " fill="#000000"/><text fill="#D8BC00" font-family="Open Sans,Avenir,Nunito,Arial,Helvetica,SansSerif" font-size="12.5" font-style="italic" font-weight="bold" lengthAdjust="spacing" textLength="32.2917" x="1276.5625" y="133.4961">Road</text><line style="stroke:#5E5E5E;stroke-width:1.0416666666666667;" x1="1246.3542" x2="1314.0625" y1="144.4661" y2="144.4661"/><line style="stroke:#5E5E5E;stroke-width:1.0416666666666667;" x1="1246.3542" x2="1314.0625" y1="152.7995" y2="152.7995"/><!--MD5=[327fd535f71db063cd95f9ca8b281f76]
class MapEdgeIdentifier--><rect codeLine="33" fill="#282828" height="166.5243" id="MapEdgeIdentifier" rx="8.3333" ry="8.3333" style="stroke:#5E5E5E;stroke-width:1.0416666666666667;" width="452.0833" x="1352.0833" y="53.7028"/><rect fill="#1B1B1A" height="31.3883" rx="8.3333" ry="8.3333" style="stroke:#1B1B1A;stroke-width:1.0416666666666667;" width="452.0833" x="1352.0833" y="53.7028"/><rect fill="#1B1B1A" height="8.3333" style="stroke:#1B1B1A;stroke-width:1.0416666666666667;" width="452.0833" x="1352.0833" y="76.7578"/><rect codeLine="33" fill="none" height="166.5243" id="MapEdgeIdentifier" rx="8.3333" ry="8.3333" style="stroke:#5E5E5E;stroke-width:1.0416666666666667;" width="452.0833" x="1352.0833" y="53.7028"/><ellipse cx="1511.9792" cy="69.397" fill="#0066CF" rx="10.4167" ry="10.4167" style="stroke:#0086EF;stroke-width:1.0416666666666667;"/><path d="M1513.8896,73.822 Q1513.4623,74.0417 1512.9924,74.1516 Q1512.5224,74.2615 1512.0036,74.2615 Q1510.1603,74.2615 1509.1899,73.0469 Q1508.2194,71.8323 1508.2194,69.5374 Q1508.2194,67.2363 1509.1899,66.0217 Q1510.1603,64.8071 1512.0036,64.8071 Q1512.5224,64.8071 1512.9985,64.917 Q1513.4745,65.0269 1513.8896,65.2466 L1513.8896,67.2485 Q1513.4257,66.8213 1512.9893,66.6229 Q1512.5529,66.4246 1512.089,66.4246 Q1511.1003,66.4246 1510.5967,67.2089 Q1510.0932,67.9932 1510.0932,69.5374 Q1510.0932,71.0754 1510.5967,71.8597 Q1511.1003,72.644 1512.089,72.644 Q1512.5529,72.644 1512.9893,72.4457 Q1513.4257,72.2473 1513.8896,71.8201 Z " fill="#000000"/><text fill="#D8BC00" font-family="Open Sans,Avenir,Nunito,Arial,Helvetica,SansSerif" font-size="12.5" font-weight="bold" lengthAdjust="spacing" textLength="117.7083" x="1534.8958" y="74.1211">MapEdgeIdentifier</text><line style="stroke:#5E5E5E;stroke-width:1.5625;" x1="1353.125" x2="1803.125" y1="85.0911" y2="85.0911"/><ellipse cx="1363.5417" cy="120.461" fill="#84BE84" rx="3.125" ry="3.125" style="stroke:#038048;stroke-width:1.0416666666666667;"/><text fill="#D8BC00" font-family="Open Sans,Avenir,Nunito,Arial,Helvetica,SansSerif" font-size="11.4583" lengthAdjust="spacing" textLength="419.7917" x="1375" y="127.3722">MapEdgeIdentifier(MapWayIdentifier, MapNodeIdentifier, MapNodeIdentifier)</text><line style="stroke:#5E5E5E;stroke-width:1.0416666666666667;" x1="1353.125" x2="1534.375" y1="103.2969" y2="103.2969"/><text fill="#D8BC00" font-family="Open Sans,Avenir,Nunito,Arial,Helvetica,SansSerif" font-size="11.4583" lengthAdjust="spacing" textLength="81.25" x="1537.5" y="107.1065">(constructors)</text><line style="stroke:#5E5E5E;stroke-width:1.0416666666666667;" x1="1621.875" x2="1803.125" y1="103.2969" y2="103.2969"/><ellipse cx="1363.5417" cy="164.1174" fill="#84BE84" rx="3.125" ry="3.125" style="stroke:#038048;stroke-width:1.0416666666666667;"/><text fill="#D8BC00" font-family="Open Sans,Avenir,Nunito,Arial,Helvetica,SansSerif" font-size="11.4583" lengthAdjust="spacing" textLength="140.625" x="1375" y="171.0286">MapNodeIdentifier from()</text><ellipse cx="1363.5417" cy="183.8623" fill="#84BE84" rx="3.125" ry="3.125" style="stroke:#038048;stroke-width:1.0416666666666667;"/><text fill="#D8BC00" font-family="Open Sans,Avenir,Nunito,Arial,Helvetica,SansSerif" font-size="11.4583" lengthAdjust="spacing" textLength="125" x="1375" y="190.7735">MapNodeIdentifier to()</text><ellipse cx="1363.5417" cy="203.6072" fill="#84BE84" rx="3.125" ry="3.125" style="stroke:#038048;stroke-width:1.0416666666666667;"/><text fill="#D8BC00" font-family="Open Sans,Avenir,Nunito,Arial,Helvetica,SansSerif" font-size="11.4583" lengthAdjust="spacing" textLength="127.0833" x="1375" y="210.5184">MapWayIdentifier way()</text><line style="stroke:#5E5E5E;stroke-width:1.0416666666666667;" x1="1353.125" x2="1543.75" y1="146.9533" y2="146.9533"/><text fill="#D8BC00" font-family="Open Sans,Avenir,Nunito,Arial,Helvetica,SansSerif" font-size="11.4583" lengthAdjust="spacing" textLength="62.5" x="1546.875" y="150.7629">(collection)</text><line style="stroke:#5E5E5E;stroke-width:1.0416666666666667;" x1="1612.5" x2="1803.125" y1="146.9533" y2="146.9533"/><!--MD5=[e962fee7f71d4cb989a25c647508247a]
class MapRoute--><rect codeLine="44" fill="#282828" height="229.9255" id="MapRoute" rx="8.3333" ry="8.3333" style="stroke:#5E5E5E;stroke-width:1.0416666666666667;" width="284.375" x="811.9792" y="355.7861"/><rect fill="#1B1B1A" height="31.3883" rx="8.3333" ry="8.3333" style="stroke:#1B1B1A;stroke-width:1.0416666666666667;" width="284.375" x="811.9792" y="355.7861"/><rect fill="#1B1B1A" height="8.3333" style="stroke:#1B1B1A;stroke-width:1.0416666666666667;" width="284.375" x="811.9792" y="378.8411"/><rect codeLine="44" fill="none" height="229.9255" id="MapRoute" rx="8.3333" ry="8.3333" style="stroke:#5E5E5E;stroke-width:1.0416666666666667;" width="284.375" x="811.9792" y="355.7861"/><ellipse cx="914.5833" cy="371.4803" fill="#0066CF" rx="10.4167" ry="10.4167" style="stroke:#0086EF;stroke-width:1.0416666666666667;"/><path d="M916.4937,375.9054 Q916.0665,376.1251 915.5965,376.2349 Q915.1265,376.3448 914.6077,376.3448 Q912.7645,376.3448 911.794,375.1302 Q910.8236,373.9156 910.8236,371.6207 Q910.8236,369.3197 911.794,368.1051 Q912.7645,366.8905 914.6077,366.8905 Q915.1265,366.8905 915.6026,367.0003 Q916.0787,367.1102 916.4937,367.3299 L916.4937,369.3319 Q916.0299,368.9046 915.5935,368.7063 Q915.1571,368.5079 914.6932,368.5079 Q913.7044,368.5079 913.2009,369.2922 Q912.6973,370.0765 912.6973,371.6207 Q912.6973,373.1588 913.2009,373.9431 Q913.7044,374.7274 914.6932,374.7274 Q915.1571,374.7274 915.5935,374.529 Q916.0299,374.3306 916.4937,373.9034 Z " fill="#000000"/><text fill="#D8BC00" font-family="Open Sans,Avenir,Nunito,Arial,Helvetica,SansSerif" font-size="12.5" font-weight="bold" lengthAdjust="spacing" textLength="64.5833" x="937.5" y="376.2044">MapRoute</text><line style="stroke:#5E5E5E;stroke-width:1.5625;" x1="813.0208" x2="1095.3125" y1="387.1745" y2="387.1745"/><ellipse cx="823.4375" cy="422.5444" fill="#84BE84" rx="3.125" ry="3.125" style="stroke:#038048;stroke-width:1.0416666666666667;"/><text fill="#D8BC00" font-family="Open Sans,Avenir,Nunito,Arial,Helvetica,SansSerif" font-size="11.4583" lengthAdjust="spacing" textLength="202.0833" x="834.8958" y="429.4556">MapRoute(List&lt;MapEdgeIdentifier&gt;)</text><ellipse cx="823.4375" cy="442.2892" fill="#84BE84" rx="3.125" ry="3.125" style="stroke:#038048;stroke-width:1.0416666666666667;"/><text fill="#D8BC00" font-family="Open Sans,Avenir,Nunito,Arial,Helvetica,SansSerif" font-size="11.4583" lengthAdjust="spacing" textLength="95.8333" x="834.8958" y="449.2004">MapRoute(Route)</text><line style="stroke:#5E5E5E;stroke-width:1.0416666666666667;" x1="813.0208" x2="910.4167" y1="405.3802" y2="405.3802"/><text fill="#D8BC00" font-family="Open Sans,Avenir,Nunito,Arial,Helvetica,SansSerif" font-size="11.4583" lengthAdjust="spacing" textLength="81.25" x="913.5417" y="409.1899">(constructors)</text><line style="stroke:#5E5E5E;stroke-width:1.0416666666666667;" x1="997.9167" x2="1095.3125" y1="405.3802" y2="405.3802"/><ellipse cx="823.4375" cy="485.9456" fill="#84BE84" rx="3.125" ry="3.125" style="stroke:#038048;stroke-width:1.0416666666666667;"/><text fill="#D8BC00" font-family="Open Sans,Avenir,Nunito,Arial,Helvetica,SansSerif" font-size="11.4583" lengthAdjust="spacing" textLength="247.9167" x="834.8958" y="492.8569">Stream&lt;MapEdgeIdentifier&gt; parallelStream()</text><ellipse cx="823.4375" cy="505.6905" fill="#84BE84" rx="3.125" ry="3.125" style="stroke:#038048;stroke-width:1.0416666666666667;"/><text fill="#D8BC00" font-family="Open Sans,Avenir,Nunito,Arial,Helvetica,SansSerif" font-size="11.4583" lengthAdjust="spacing" textLength="252.0833" x="834.8958" y="512.6017">List&lt;MapEdgeIdentifier&gt; pbfEdgeIdentifiers()</text><ellipse cx="823.4375" cy="525.4354" fill="#84BE84" rx="3.125" ry="3.125" style="stroke:#038048;stroke-width:1.0416666666666667;"/><text fill="#D8BC00" font-family="Open Sans,Avenir,Nunito,Arial,Helvetica,SansSerif" font-size="11.4583" lengthAdjust="spacing" textLength="207.2917" x="834.8958" y="532.3466">Stream&lt;MapEdgeIdentifier&gt; stream()</text><line style="stroke:#5E5E5E;stroke-width:1.0416666666666667;" x1="813.0208" x2="919.7917" y1="468.7815" y2="468.7815"/><text fill="#D8BC00" font-family="Open Sans,Avenir,Nunito,Arial,Helvetica,SansSerif" font-size="11.4583" lengthAdjust="spacing" textLength="62.5" x="922.9167" y="472.5911">(collection)</text><line style="stroke:#5E5E5E;stroke-width:1.0416666666666667;" x1="988.5417" x2="1095.3125" y1="468.7815" y2="468.7815"/><ellipse cx="823.4375" cy="569.0918" fill="#84BE84" rx="3.125" ry="3.125" style="stroke:#038048;stroke-width:1.0416666666666667;"/><text fill="#D8BC00" font-family="Open Sans,Avenir,Nunito,Arial,Helvetica,SansSerif" font-size="11.4583" lengthAdjust="spacing" textLength="156.25" x="834.8958" y="576.003">String join(String separator)</text><line style="stroke:#5E5E5E;stroke-width:1.0416666666666667;" x1="813.0208" x2="924.4792" y1="551.9277" y2="551.9277"/><text fill="#D8BC00" font-family="Open Sans,Avenir,Nunito,Arial,Helvetica,SansSerif" font-size="11.4583" lengthAdjust="spacing" textLength="53.125" x="927.6042" y="555.7373">(lifecycle)</text><line style="stroke:#5E5E5E;stroke-width:1.0416666666666667;" x1="983.8542" x2="1095.3125" y1="551.9277" y2="551.9277"/><!--MD5=[d0cd8811070a728e4cfbdffe8ac46106]
class Way--><rect codeLine="68" fill="#282828" height="376.473" id="Way" rx="8.3333" ry="8.3333" style="stroke:#5E5E5E;stroke-width:1.0416666666666667;" width="293.75" x="1133.3333" y="282.8695"/><rect fill="#1B1B1A" height="31.3883" rx="8.3333" ry="8.3333" style="stroke:#1B1B1A;stroke-width:1.0416666666666667;" width="293.75" x="1133.3333" y="282.8695"/><rect fill="#1B1B1A" height="8.3333" style="stroke:#1B1B1A;stroke-width:1.0416666666666667;" width="293.75" x="1133.3333" y="305.9245"/><rect codeLine="68" fill="none" height="376.473" id="Way" rx="8.3333" ry="8.3333" style="stroke:#5E5E5E;stroke-width:1.0416666666666667;" width="293.75" x="1133.3333" y="282.8695"/><ellipse cx="1259.8958" cy="298.5636" fill="#0066CF" rx="10.4167" ry="10.4167" style="stroke:#0086EF;stroke-width:1.0416666666666667;"/><path d="M1261.8062,302.9887 Q1261.379,303.2084 1260.909,303.3183 Q1260.439,303.4281 1259.9202,303.4281 Q1258.077,303.4281 1257.1065,302.2135 Q1256.1361,300.9989 1256.1361,298.704 Q1256.1361,296.403 1257.1065,295.1884 Q1258.077,293.9738 1259.9202,293.9738 Q1260.439,293.9738 1260.9151,294.0837 Q1261.3912,294.1935 1261.8062,294.4132 L1261.8062,296.4152 Q1261.3424,295.988 1260.906,295.7896 Q1260.4696,295.5912 1260.0057,295.5912 Q1259.0169,295.5912 1258.5134,296.3755 Q1258.0098,297.1598 1258.0098,298.704 Q1258.0098,300.2421 1258.5134,301.0264 Q1259.0169,301.8107 1260.0057,301.8107 Q1260.4696,301.8107 1260.906,301.6123 Q1261.3424,301.414 1261.8062,300.9867 Z " fill="#000000"/><text fill="#D8BC00" font-family="Open Sans,Avenir,Nunito,Arial,Helvetica,SansSerif" font-size="12.5" font-weight="bold" lengthAdjust="spacing" textLength="26.0417" x="1282.8125" y="303.2878">Way</text><line style="stroke:#5E5E5E;stroke-width:1.5625;" x1="1134.375" x2="1426.0417" y1="314.2578" y2="314.2578"/><polygon fill="#FFFF44" points="1144.7917,344.4194,1148.9583,348.586,1144.7917,352.7527,1140.625,348.586" style="stroke:#B38D22;stroke-width:1.0416666666666667;"/><text fill="#D8BC00" font-family="Open Sans,Avenir,Nunito,Arial,Helvetica,SansSerif" font-size="11.4583" lengthAdjust="spacing" textLength="62.5" x="1156.25" y="356.5389">Way(Route)</text><line style="stroke:#5E5E5E;stroke-width:1.0416666666666667;" x1="1134.375" x2="1236.4583" y1="332.4636" y2="332.4636"/><text fill="#D8BC00" font-family="Open Sans,Avenir,Nunito,Arial,Helvetica,SansSerif" font-size="11.4583" lengthAdjust="spacing" textLength="81.25" x="1239.5833" y="336.2732">(constructors)</text><line style="stroke:#5E5E5E;stroke-width:1.0416666666666667;" x1="1323.9583" x2="1426.0417" y1="332.4636" y2="332.4636"/><line style="stroke:#5E5E5E;stroke-width:1.0416666666666667;" x1="1134.375" x2="1426.0417" y1="366.2476" y2="366.2476"/><ellipse cx="1144.7917" cy="377.7059" fill="#84BE84" rx="3.125" ry="3.125" style="stroke:#038048;stroke-width:1.0416666666666667;"/><text fill="#D8BC00" font-family="Open Sans,Avenir,Nunito,Arial,Helvetica,SansSerif" font-size="11.4583" lengthAdjust="spacing" textLength="108.3333" x="1156.25" y="384.6171">Rectangle bounds()</text><ellipse cx="1144.7917" cy="397.4508" fill="#84BE84" rx="3.125" ry="3.125" style="stroke:#038048;stroke-width:1.0416666666666667;"/><text fill="#D8BC00" font-family="Open Sans,Avenir,Nunito,Arial,Helvetica,SansSerif" font-size="11.4583" lengthAdjust="spacing" textLength="191.6667" x="1156.25" y="404.362">Way contiguousWayForEdge(Edge)</text><ellipse cx="1144.7917" cy="417.1956" fill="#84BE84" rx="3.125" ry="3.125" style="stroke:#038048;stroke-width:1.0416666666666667;"/><text fill="#D8BC00" font-family="Open Sans,Avenir,Nunito,Arial,Helvetica,SansSerif" font-size="11.4583" lengthAdjust="spacing" textLength="114.5833" x="1156.25" y="424.1069">Way forRoute(Route)</text><ellipse cx="1144.7917" cy="436.9405" fill="#84BE84" rx="3.125" ry="3.125" style="stroke:#038048;stroke-width:1.0416666666666667;"/><text fill="#D8BC00" font-family="Open Sans,Avenir,Nunito,Arial,Helvetica,SansSerif" font-size="11.4583" lengthAdjust="spacing" textLength="158.3333" x="1156.25" y="443.8517">HighwayType highwayType()</text><ellipse cx="1144.7917" cy="456.6854" fill="#84BE84" rx="3.125" ry="3.125" style="stroke:#038048;stroke-width:1.0416666666666667;"/><text fill="#D8BC00" font-family="Open Sans,Avenir,Nunito,Arial,Helvetica,SansSerif" font-size="11.4583" lengthAdjust="spacing" textLength="134.375" x="1156.25" y="463.5966">Stream&lt;Edge&gt; stream()</text><ellipse cx="1144.7917" cy="500.3418" fill="#84BE84" rx="3.125" ry="3.125" style="stroke:#038048;stroke-width:1.0416666666666667;"/><text fill="#D8BC00" font-family="Open Sans,Avenir,Nunito,Arial,Helvetica,SansSerif" font-size="11.4583" lengthAdjust="spacing" textLength="116.6667" x="1156.25" y="507.253">boolean isReversed()</text><line style="stroke:#5E5E5E;stroke-width:1.0416666666666667;" x1="1134.375" x2="1253.6458" y1="483.1777" y2="483.1777"/><text fill="#D8BC00" font-family="Open Sans,Avenir,Nunito,Arial,Helvetica,SansSerif" font-size="11.4583" lengthAdjust="spacing" textLength="46.875" x="1256.7708" y="486.9873">(checks)</text><line style="stroke:#5E5E5E;stroke-width:1.0416666666666667;" x1="1306.7708" x2="1426.0417" y1="483.1777" y2="483.1777"/><ellipse cx="1144.7917" cy="543.9982" fill="#84BE84" rx="3.125" ry="3.125" style="stroke:#038048;stroke-width:1.0416666666666667;"/><text fill="#D8BC00" font-family="Open Sans,Avenir,Nunito,Arial,Helvetica,SansSerif" font-size="11.4583" lengthAdjust="spacing" textLength="110.4167" x="1156.25" y="550.9094">List&lt;Edge&gt; edges()</text><ellipse cx="1144.7917" cy="563.7431" fill="#84BE84" rx="3.125" ry="3.125" style="stroke:#038048;stroke-width:1.0416666666666667;"/><text fill="#D8BC00" font-family="Open Sans,Avenir,Nunito,Arial,Helvetica,SansSerif" font-size="11.4583" lengthAdjust="spacing" textLength="61.4583" x="1156.25" y="570.6543">Edge first()</text><ellipse cx="1144.7917" cy="583.488" fill="#84BE84" rx="3.125" ry="3.125" style="stroke:#038048;stroke-width:1.0416666666666667;"/><text fill="#D8BC00" font-family="Open Sans,Avenir,Nunito,Arial,Helvetica,SansSerif" font-size="11.4583" lengthAdjust="spacing" textLength="58.3333" x="1156.25" y="590.3992">Edge last()</text><ellipse cx="1144.7917" cy="603.2328" fill="#84BE84" rx="3.125" ry="3.125" style="stroke:#038048;stroke-width:1.0416666666666667;"/><text fill="#D8BC00" font-family="Open Sans,Avenir,Nunito,Arial,Helvetica,SansSerif" font-size="11.4583" lengthAdjust="spacing" textLength="261.4583" x="1156.25" y="610.144">List&lt;MapNodeIdentifier&gt; mapNodeIdentifiers()</text><ellipse cx="1144.7917" cy="622.9777" fill="#84BE84" rx="3.125" ry="3.125" style="stroke:#038048;stroke-width:1.0416666666666667;"/><text fill="#D8BC00" font-family="Open Sans,Avenir,Nunito,Arial,Helvetica,SansSerif" font-size="11.4583" lengthAdjust="spacing" textLength="115.625" x="1156.25" y="629.8889">PbfTagList pbfTags()</text><ellipse cx="1144.7917" cy="642.7226" fill="#84BE84" rx="3.125" ry="3.125" style="stroke:#038048;stroke-width:1.0416666666666667;"/><text fill="#D8BC00" font-family="Open Sans,Avenir,Nunito,Arial,Helvetica,SansSerif" font-size="11.4583" lengthAdjust="spacing" textLength="47.9167" x="1156.25" y="649.6338">int size()</text><line style="stroke:#5E5E5E;stroke-width:1.0416666666666667;" x1="1134.375" x2="1245.8333" y1="526.8341" y2="526.8341"/><text fill="#D8BC00" font-family="Open Sans,Avenir,Nunito,Arial,Helvetica,SansSerif" font-size="11.4583" lengthAdjust="spacing" textLength="62.5" x="1248.9583" y="530.6437">(collection)</text><line style="stroke:#5E5E5E;stroke-width:1.0416666666666667;" x1="1314.5833" x2="1426.0417" y1="526.8341" y2="526.8341"/><!--MD5=[7ea4aa43577db8fc295b71a286c9e787]
class MapWay--><rect codeLine="58" fill="#282828" height="122.8678" id="MapWay" rx="8.3333" ry="8.3333" style="stroke:#5E5E5E;stroke-width:1.0416666666666667;" width="413.5417" x="1073.4375" y="721.4111"/><rect fill="#1B1B1A" height="31.3883" rx="8.3333" ry="8.3333" style="stroke:#1B1B1A;stroke-width:1.0416666666666667;" width="413.5417" x="1073.4375" y="721.4111"/><rect fill="#1B1B1A" height="8.3333" style="stroke:#1B1B1A;stroke-width:1.0416666666666667;" width="413.5417" x="1073.4375" y="744.4661"/><rect codeLine="58" fill="none" height="122.8678" id="MapWay" rx="8.3333" ry="8.3333" style="stroke:#5E5E5E;stroke-width:1.0416666666666667;" width="413.5417" x="1073.4375" y="721.4111"/><ellipse cx="1246.3542" cy="737.1053" fill="#0066CF" rx="10.4167" ry="10.4167" style="stroke:#0086EF;stroke-width:1.0416666666666667;"/><path d="M1248.2646,741.5304 Q1247.8373,741.7501 1247.3674,741.8599 Q1246.8974,741.9698 1246.3786,741.9698 Q1244.5353,741.9698 1243.5649,740.7552 Q1242.5944,739.5406 1242.5944,737.2457 Q1242.5944,734.9447 1243.5649,733.7301 Q1244.5353,732.5155 1246.3786,732.5155 Q1246.8974,732.5155 1247.3735,732.6253 Q1247.8495,732.7352 1248.2646,732.9549 L1248.2646,734.9569 Q1247.8007,734.5296 1247.3643,734.3313 Q1246.9279,734.1329 1246.464,734.1329 Q1245.4753,734.1329 1244.9717,734.9172 Q1244.4682,735.7015 1244.4682,737.2457 Q1244.4682,738.7838 1244.9717,739.5681 Q1245.4753,740.3524 1246.464,740.3524 Q1246.9279,740.3524 1247.3643,740.154 Q1247.8007,739.9556 1248.2646,739.5284 Z " fill="#000000"/><text fill="#D8BC00" font-family="Open Sans,Avenir,Nunito,Arial,Helvetica,SansSerif" font-size="12.5" font-weight="bold" lengthAdjust="spacing" textLength="53.125" x="1269.2708" y="741.8294">MapWay</text><line style="stroke:#5E5E5E;stroke-width:1.5625;" x1="1074.4792" x2="1485.9375" y1="752.7995" y2="752.7995"/><ellipse cx="1084.8958" cy="788.1694" fill="#84BE84" rx="3.125" ry="3.125" style="stroke:#038048;stroke-width:1.0416666666666667;"/><text fill="#D8BC00" font-family="Open Sans,Avenir,Nunito,Arial,Helvetica,SansSerif" font-size="11.4583" lengthAdjust="spacing" textLength="127.0833" x="1096.3542" y="795.0806">MapWay forEdge(Edge)</text><ellipse cx="1084.8958" cy="807.9142" fill="#84BE84" rx="3.125" ry="3.125" style="stroke:#038048;stroke-width:1.0416666666666667;"/><text fill="#D8BC00" font-family="Open Sans,Avenir,Nunito,Arial,Helvetica,SansSerif" font-size="11.4583" lengthAdjust="spacing" textLength="137.5" x="1096.3542" y="814.8254">MapWay forRoute(Route)</text><ellipse cx="1084.8958" cy="827.6591" fill="#84BE84" rx="3.125" ry="3.125" style="stroke:#038048;stroke-width:1.0416666666666667;"/><text fill="#D8BC00" font-family="Open Sans,Avenir,Nunito,Arial,Helvetica,SansSerif" font-size="11.4583" lengthAdjust="spacing" textLength="381.25" x="1096.3542" y="834.5703">MapWay forWayIdentifier(Graph, Rectangle bounds, PbfWayIdentifier)</text><line style="stroke:#5E5E5E;stroke-width:1.0416666666666667;" x1="1074.4792" x2="1245.8333" y1="771.0052" y2="771.0052"/><text fill="#D8BC00" font-family="Open Sans,Avenir,Nunito,Arial,Helvetica,SansSerif" font-size="11.4583" lengthAdjust="spacing" textLength="62.5" x="1248.9583" y="774.8149">(collection)</text><line style="stroke:#5E5E5E;stroke-width:1.0416666666666667;" x1="1314.5833" x2="1485.9375" y1="771.0052" y2="771.0052"/><!--MD5=[7b9cb6df5602ff7ff37e77a320a46733]
reverse link BaseStringConverter to MapRoute.Converter--><path codeLine="11" d="M456.3229,176.4945 C401.1042,236.5153 294.375,352.5465 232.9792,419.2757 " fill="none" id="BaseStringConverter-backto-MapRoute.Converter" style="stroke:#545454;stroke-width:1.5625;"/><polygon fill="none" points="450.9792,171.5361,470.4479,161.1403,461.7083,181.4111,450.9792,171.5361" style="stroke:#545454;stroke-width:1.5625;"/><!--MD5=[cd02a9022514ff45fa83c981a00af454]
reverse link BaseStringConverter to MapEdgeIdentifier.Converter--><path codeLine="19" d="M529.1563,176.5986 C555.1667,204.5882 589.5,244.2028 614.5833,282.8695 C645.3333,330.2861 672.0625,389.8695 688.1354,428.859 " fill="none" id="BaseStringConverter-backto-MapEdgeIdentifier.Converter" style="stroke:#545454;stroke-width:1.5625;"/><polygon fill="none" points="523.5833,181.3174,514.5729,161.1715,534.1771,171.2965,523.5833,181.3174" style="stroke:#545454;stroke-width:1.5625;"/><!--MD5=[1d132396478fb5bde5c1034caa7d5c0e]
reverse link BaseStringConverter to MapEdgeIdentifier.EdgeConverter--><path codeLine="26" d="M491.6667,182.2861 C491.6667,246.984 491.6667,366.5465 491.6667,429.1715 " fill="none" id="BaseStringConverter-backto-MapEdgeIdentifier.EdgeConverter" style="stroke:#545454;stroke-width:1.5625;"/><polygon fill="none" points="484.375,181.9736,491.6667,161.1403,498.9583,181.9736,484.375,181.9736" style="stroke:#545454;stroke-width:1.5625;"/><!--MD5=[e532008cdda8b70c49be268c0d7a05a1]
reverse link Iterable to MapRoute--><path codeLine="43" d="M1045.7604,181.0153 C1031.8125,225.0049 1009.5208,295.2965 990.4271,355.5153 " fill="none" id="Iterable-backto-MapRoute" style="stroke:#545454;stroke-width:1.5625;"/><polygon fill="none" points="1038.8125,178.7965,1052.0625,161.1403,1052.7083,183.2028,1038.8125,178.7965" style="stroke:#545454;stroke-width:1.5625;"/><!--MD5=[478d014c6d69054e4e26ac5f1e9aedf1]
reverse link Way to MapWay--><path codeLine="57" d="M1280.2083,680.307 C1280.2083,694.8486 1280.2083,708.6715 1280.2083,721.1715 " fill="none" id="Way-backto-MapWay" style="stroke:#545454;stroke-width:1.5625;"/><polygon fill="none" points="1272.9167,680.182,1280.2083,659.3486,1287.5,680.182,1272.9167,680.182" style="stroke:#545454;stroke-width:1.5625;"/><!--MD5=[d18ae8545807f38f5a86b978dc0cd942]
reverse link Road to Way--><path codeLine="66" d="M1280.2083,182.0049 C1280.2083,208.7236 1280.2083,244.8903 1280.2083,282.5465 " fill="none" id="Road-backto-Way" style="stroke:#545454;stroke-width:1.5625;"/><polygon fill="none" points="1272.9167,181.9736,1280.2083,161.1403,1287.5,181.9736,1272.9167,181.9736" style="stroke:#545454;stroke-width:1.5625;"/><!--MD5=[eb7464103b6b661b765db57ddc269b93]
reverse link Iterable to Way--><path codeLine="67" d="M1086.4896,178.807 C1104.4583,205.807 1129.4583,243.3695 1155.5417,282.5465 " fill="none" id="Iterable-backto-Way" style="stroke:#545454;stroke-width:1.5625;"/><polygon fill="none" points="1080.1979,182.5257,1074.7292,161.1403,1092.3438,174.4424,1080.1979,182.5257" style="stroke:#545454;stroke-width:1.5625;"/><!--MD5=[ed40667200de252e5e362c7bd102436f]
@startuml

    !include lexakai.theme
    
    title "com.telenav.mesakit.graph.map"
    
    abstract BaseStringConverter
    
    interface Iterable
    interface Road
    
    BaseStringConverter <|- - MapRoute.Converter
    class MapRoute.Converter
    {
        - -(constructors)- -
        +Converter(Listener, Graph, Separators)
        +Converter(Listener, Separators)
    }
    
    BaseStringConverter <|- - MapEdgeIdentifier.Converter
    class MapEdgeIdentifier.Converter
    {
        - -(constructors)- -
        +Converter(Listener)
    }
    
    BaseStringConverter <|- - MapEdgeIdentifier.EdgeConverter
    class MapEdgeIdentifier.EdgeConverter
    {
        - -(constructors)- -
        +EdgeConverter(Listener, Graph)
    }
    
    class MapEdgeIdentifier
    {
        - -(constructors)- -
        +MapEdgeIdentifier(MapWayIdentifier, MapNodeIdentifier, MapNodeIdentifier)
        - -(collection)- -
        +MapNodeIdentifier from()
        +MapNodeIdentifier to()
        +MapWayIdentifier way()
    }
    
    Iterable <|- - MapRoute
    class MapRoute
    {
        - -(constructors)- -
        +MapRoute(List<MapEdgeIdentifier>)
        +MapRoute(Route)
        - -(collection)- -
        +Stream<MapEdgeIdentifier> parallelStream()
        +List<MapEdgeIdentifier> pbfEdgeIdentifiers()
        +Stream<MapEdgeIdentifier> stream()
        - -(lifecycle)- -
        +String join(String separator)
    }
    
    Way <|- - MapWay
    class MapWay
    {
        - -(collection)- -
        +MapWay forEdge(Edge)
        +MapWay forRoute(Route)
        +MapWay forWayIdentifier(Graph, Rectangle bounds, PbfWayIdentifier)
    }
    
    Road <|- - Way
    Iterable <|- - Way
    class Way
    {
        - -(constructors)- -
        #Way(Route)
        - -
        +Rectangle bounds()
        +Way contiguousWayForEdge(Edge)
        +Way forRoute(Route)
        +HighwayType highwayType()
        +Stream<Edge> stream()
        - -(checks)- -
        +boolean isReversed()
        - -(collection)- -
        +List<Edge> edges()
        +Edge first()
        +Edge last()
        +List<MapNodeIdentifier> mapNodeIdentifiers()
        +PbfTagList pbfTags()
        +int size()
    }
    
@enduml

@startuml









skinparam backgroundColor #333333






skinparam  {
    defaultFontName   "Open Sans,Avenir,Nunito,Arial,Helvetica,SansSerif"
    defaultFontSize   12
    defaultTextAlignment left
    shadowing false
    RoundCorner 10
    TitleFontSize 18
}

skinparam defaultFontName       "Open Sans,Avenir,Nunito,Arial,Helvetica,SansSerif"
skinparam defaultFontSize       12
skinparam dpi                   100
skinparam shadowing             false
skinparam roundcorner           16
skinparam ParticipantPadding    40
skinparam BoxPadding            40
skinparam Padding               3
skinparam ArrowColor            #545454
skinparam stereotype {
    CBackgroundColor #0066cf
    CBorderColor #0086ef
    ABackgroundColor #C8Ac00
    ABorderColor #D8Bc00
    IBackgroundColor #008400
    IBorderColor #239c23
    EBackgroundColor #cf6300
    EBorderColor #ef8300
    NBackgroundColor #3380b9
    NBorderColor #004d86
}
skinparam title {
	FontColor	                 #c0c0c0
 	BorderColor                  #545454
	FontSize	    	         20
	BorderRoundCorner            16
	BorderThickness 	         1
	BackgroundColor              #48494b
}


skinparam legend {
	BackgroundColor #303030
	BorderColor #404040
	FontColor #a0a0a0
}

	skinparam swimlane {
	BorderColor #5e5e5e
	BorderThickness 2
	TitleBackgroundColor  #6d6d6d-#484848
	TitleFontColor #303030
}

skinparam activity {
		FontColor #C8Ac00
	BorderColor #333333
	BackgroundColor #333333-#333333
	BarColor #00FF00
	StartColor #0060a8
	EndColor #0060a8
	DiamondBackgroundColor #6d6d6d-#3a3a3a
  	DiamondBorderColor #3a3a3a
  	DiamondFontColor #fefefe
}


skinparam participant {
		FontColor #C8Ac00
	BorderColor #333333
	BackgroundColor #333333-#333333
	ParticipantBorderThickness 2
}


skinparam actor {
		FontColor #C8Ac00
	BorderColor #333333
	BackgroundColor #333333-#333333
}


skinparam arrow {
	Thickness 1.5
	Color #545454
	FontColor #a0a0a0
    FontStyle bold
    MessageAlignment center
}



skinparam sequence {
	BorderColor #303030
	TitleFontColor #303030
	BackgroundColor #333333
	StartColor #303030
	EndColor #303030
	BoxBackgroundColor #333333
	BoxBorderColor #484848
	BoxFontColor #484848
	LifeLineBorderColor #484848
	LifeLineBorderThickness 2
	LifeLineBackgroundColor #3a3a3a
	GroupBorderColor #484848
	GroupFontColor #484848
	GroupHeaderFontColor #0060a8
	GroupBackgroundColor #484848
	GroupHeaderBackgroundColor #333333
	DividerBackgroundColor #484848
    DividerBorderColor #484848
    DividerBorderThickness 2
    DividerFontColor #D8Bc00
	ReferenceBackgroundColor #333333
	ReferenceBorderColor #484848
	ReferenceFontColor #fefefe
	ReferenceHeaderBackgroundColor #484848
}


skinparam partition {
	BorderColor #303030
	FontColor #333333
	BackgroundColor #333333
}


skinparam collections {
		FontColor #C8Ac00
	BorderColor #333333
	BackgroundColor #333333-#333333
}


skinparam control {
		FontColor #C8Ac00
	BorderColor #333333
	BackgroundColor #333333-#333333
}


skinparam entity {
		FontColor #C8Ac00
	BorderColor #333333
	BackgroundColor #333333-#333333
}


skinparam boundary {
		FontColor #C8Ac00
	BorderColor #333333
	BackgroundColor #333333-#333333
}


skinparam agent {
	BackgroundColor #ff8000
	BorderColor #ff9933
	FontColor #484848
}


skinparam note {
	BorderThickness 1
	BackgroundColor #1b1b1a
	BorderColor #5e5e5e
	FontSize 11
	FontColor #a0a0a0
}


skinparam artifact {
	BorderThickness 10
	BorderColor #5e5e5e
	BackgroundColor #1b1b1a
	FontColor #D8Bc00
}


skinparam component {
		FontColor #C8Ac00
	BorderColor #333333
	BackgroundColor #333333-#333333
}


skinparam interface {
	BackgroundColor  #008400
	BorderColor  #007F00
	FontColor #484848
}


skinparam storage {
	BackgroundColor #ff8000
  	BorderColor #cc6600
	FontColor #222222
}


skinparam node {
	BackgroundColor #333333
	BorderColor #333333
	FontColor #C8Ac00
}


skinparam cloud {
	BackgroundColor #484848-black
	BorderColor #484848
	FontColor #D8Bc00
}


skinparam database {
		FontColor #C8Ac00
	BorderColor #333333
	BackgroundColor #333333-#333333
	BackgroundColor  #333333
}


skinparam class {
		FontColor #C8Ac00
	BorderColor #333333
	BackgroundColor #333333-#333333
	HeaderBackgroundColor #1b1b1a
    BackgroundColor #282828
    BorderColor #5e5e5e
 	StereotypeFontColor #a0a0a0
    StereotypeFontStyle bold
	BorderThickness 1
	AttributeFontColor #D8Bc00
	AttributeFontSize 11
    FontColor #D8Bc00
    FontStyle bold
}


skinparam object {
		FontColor #C8Ac00
	BorderColor #333333
	BackgroundColor #333333-#333333
	StereotypeFontColor #484848
	BorderThickness 1
	AttributeFontColor #fefefe
	AttributeFontSize 11
}


skinparam usecase {
		FontColor #C8Ac00
	BorderColor #333333
	BackgroundColor #333333-#333333
	BorderThickness 2
	StereotypeFontColor #303030
}


skinparam rectangle {
		FontColor #C8Ac00
	BorderColor #333333
	BackgroundColor #333333-#333333
	BackgroundColor #333333
	BorderThickness 2
	StereotypeFontColor #303030
}


skinparam package {
		FontColor #C8Ac00
	BorderColor #333333
	BackgroundColor #333333-#333333
	BackgroundColor #333333
	BorderThickness 2
}


skinparam folder {
	BackgroundColor #6d6d6d
  	BorderColor #ff8000
	FontColor #ff8000
	BorderThickness 2
}


skinparam frame {
	BackgroundColor #6d6d6d
  	BorderColor #0060a8
	FontColor #0060a8
	BorderThickness 2
}


skinparam state {
		FontColor #C8Ac00
	BorderColor #333333
	BackgroundColor #333333-#333333
	StartColor #0060a8
	EndColor #0060a8
	AttributeFontColor #fefefe
	AttributeFontSize 11
}


skinparam queue {
		FontColor #C8Ac00
	BorderColor #333333
	BackgroundColor #333333-#333333
}


skinparam card {
	BackgroundColor #0060a8
	BorderColor #004d86
	FontColor $INFO_TEXT
}


skinparam file {
	BackgroundColor #6d6d6d-#484848
	BorderColor #0060a8
	FontColor #fefefe
}


skinparam stack {
		FontColor #C8Ac00
	BorderColor #333333
	BackgroundColor #333333-#333333
}

    
    title "com.telenav.mesakit.graph.map"
    
    abstract BaseStringConverter
    
    interface Iterable
    interface Road
    
    BaseStringConverter <|- - MapRoute.Converter
    class MapRoute.Converter
    {
        - -(constructors)- -
        +Converter(Listener, Graph, Separators)
        +Converter(Listener, Separators)
    }
    
    BaseStringConverter <|- - MapEdgeIdentifier.Converter
    class MapEdgeIdentifier.Converter
    {
        - -(constructors)- -
        +Converter(Listener)
    }
    
    BaseStringConverter <|- - MapEdgeIdentifier.EdgeConverter
    class MapEdgeIdentifier.EdgeConverter
    {
        - -(constructors)- -
        +EdgeConverter(Listener, Graph)
    }
    
    class MapEdgeIdentifier
    {
        - -(constructors)- -
        +MapEdgeIdentifier(MapWayIdentifier, MapNodeIdentifier, MapNodeIdentifier)
        - -(collection)- -
        +MapNodeIdentifier from()
        +MapNodeIdentifier to()
        +MapWayIdentifier way()
    }
    
    Iterable <|- - MapRoute
    class MapRoute
    {
        - -(constructors)- -
        +MapRoute(List<MapEdgeIdentifier>)
        +MapRoute(Route)
        - -(collection)- -
        +Stream<MapEdgeIdentifier> parallelStream()
        +List<MapEdgeIdentifier> pbfEdgeIdentifiers()
        +Stream<MapEdgeIdentifier> stream()
        - -(lifecycle)- -
        +String join(String separator)
    }
    
    Way <|- - MapWay
    class MapWay
    {
        - -(collection)- -
        +MapWay forEdge(Edge)
        +MapWay forRoute(Route)
        +MapWay forWayIdentifier(Graph, Rectangle bounds, PbfWayIdentifier)
    }
    
    Road <|- - Way
    Iterable <|- - Way
    class Way
    {
        - -(constructors)- -
        #Way(Route)
        - -
        +Rectangle bounds()
        +Way contiguousWayForEdge(Edge)
        +Way forRoute(Route)
        +HighwayType highwayType()
        +Stream<Edge> stream()
        - -(checks)- -
        +boolean isReversed()
        - -(collection)- -
        +List<Edge> edges()
        +Edge first()
        +Edge last()
        +List<MapNodeIdentifier> mapNodeIdentifiers()
        +PbfTagList pbfTags()
        +int size()
    }
    
@enduml

PlantUML version 1.2021.01(Tue Feb 02 00:55:08 MST 2021)
(GPL source distribution)
Java Runtime: OpenJDK Runtime Environment
JVM: OpenJDK 64-Bit Server VM
Default Encoding: UTF-8
Language: en
Country: US
--></g></svg>