<?xml version="1.0" encoding="UTF-8" standalone="no"?><svg xmlns="http://www.w3.org/2000/svg" xmlns:xlink="http://www.w3.org/1999/xlink" contentScriptType="application/ecmascript" contentStyleType="text/css" height="381.25px" preserveAspectRatio="none" style="width:598px;height:381px;background:#333333;" version="1.1" viewBox="0 0 598 381" width="598.9583px" zoomAndPan="magnify"><defs/><g><rect fill="#48494B" height="41.2028" rx="8.3333" ry="8.3333" style="stroke:#545454;stroke-width:1.0416666666666667;" width="444.7917" x="69.7917" y="2.0833"/><text fill="#C0C0C0" font-family="Open Sans,Avenir,Nunito,Arial,Helvetica,SansSerif" font-size="20.8333" lengthAdjust="spacing" textLength="421.875" x="81.25" y="30.5583">com.telenav.mesakit.graph.analytics.ramp</text><!--MD5=[762aa3d0df6a9d47bd8e105afbd066b5]
class BaseRepeater--><rect codeLine="6" fill="#282828" height="48.055" id="BaseRepeater" rx="8.3333" ry="8.3333" style="stroke:#5E5E5E;stroke-width:1.0416666666666667;" width="123.9583" x="399.4792" y="71.4111"/><rect fill="#1B1B1A" height="31.3883" rx="8.3333" ry="8.3333" style="stroke:#1B1B1A;stroke-width:1.0416666666666667;" width="123.9583" x="399.4792" y="71.4111"/><rect fill="#1B1B1A" height="8.3333" style="stroke:#1B1B1A;stroke-width:1.0416666666666667;" width="123.9583" x="399.4792" y="94.4661"/><rect codeLine="6" fill="none" height="48.055" id="BaseRepeater" rx="8.3333" ry="8.3333" style="stroke:#5E5E5E;stroke-width:1.0416666666666667;" width="123.9583" x="399.4792" y="71.4111"/><ellipse cx="414.0625" cy="87.1053" fill="#C8AC00" rx="10.4167" ry="10.4167" style="stroke:#D8BC00;stroke-width:1.0416666666666667;"/><path d="M413.6556,83.8074 L412.8072,87.5366 L414.5101,87.5366 Z M412.557,82.1594 L414.7603,82.1594 L417.2201,91.272 L415.4195,91.272 L414.858,89.0198 L412.4471,89.0198 L411.8978,91.272 L410.0972,91.272 Z " fill="#000000"/><text fill="#D8BC00" font-family="Open Sans,Avenir,Nunito,Arial,Helvetica,SansSerif" font-size="12.5" font-style="italic" font-weight="bold" lengthAdjust="spacing" textLength="86.4583" x="430.7292" y="91.8294">BaseRepeater</text><line style="stroke:#5E5E5E;stroke-width:1.0416666666666667;" x1="400.5208" x2="522.3958" y1="102.7995" y2="102.7995"/><line style="stroke:#5E5E5E;stroke-width:1.0416666666666667;" x1="400.5208" x2="522.3958" y1="111.1328" y2="111.1328"/><!--MD5=[e3bc8134fd9285daf10cb9b535218f72]
class AccumulatedAngle--><rect codeLine="8" fill="#282828" height="48.055" id="AccumulatedAngle" rx="8.3333" ry="8.3333" style="stroke:#5E5E5E;stroke-width:1.0416666666666667;" width="158.3333" x="7.2917" y="71.4111"/><rect fill="#1B1B1A" height="31.3883" rx="8.3333" ry="8.3333" style="stroke:#1B1B1A;stroke-width:1.0416666666666667;" width="158.3333" x="7.2917" y="71.4111"/><rect fill="#1B1B1A" height="8.3333" style="stroke:#1B1B1A;stroke-width:1.0416666666666667;" width="158.3333" x="7.2917" y="94.4661"/><rect codeLine="8" fill="none" height="48.055" id="AccumulatedAngle" rx="8.3333" ry="8.3333" style="stroke:#5E5E5E;stroke-width:1.0416666666666667;" width="158.3333" x="7.2917" y="71.4111"/><ellipse cx="21.875" cy="87.1053" fill="#0066CF" rx="10.4167" ry="10.4167" style="stroke:#0086EF;stroke-width:1.0416666666666667;"/><path d="M23.7854,91.5304 Q23.3582,91.7501 22.8882,91.8599 Q22.4182,91.9698 21.8994,91.9698 Q20.0562,91.9698 19.0857,90.7552 Q18.1152,89.5406 18.1152,87.2457 Q18.1152,84.9447 19.0857,83.7301 Q20.0562,82.5155 21.8994,82.5155 Q22.4182,82.5155 22.8943,82.6253 Q23.3704,82.7352 23.7854,82.9549 L23.7854,84.9569 Q23.3215,84.5296 22.8851,84.3313 Q22.4487,84.1329 21.9849,84.1329 Q20.9961,84.1329 20.4926,84.9172 Q19.989,85.7015 19.989,87.2457 Q19.989,88.7838 20.4926,89.5681 Q20.9961,90.3524 21.9849,90.3524 Q22.4487,90.3524 22.8851,90.154 Q23.3215,89.9556 23.7854,89.5284 Z " fill="#000000"/><text fill="#D8BC00" font-family="Open Sans,Avenir,Nunito,Arial,Helvetica,SansSerif" font-size="12.5" font-weight="bold" lengthAdjust="spacing" textLength="120.8333" x="38.5417" y="91.8294">AccumulatedAngle</text><line style="stroke:#5E5E5E;stroke-width:1.0416666666666667;" x1="8.3333" x2="164.5833" y1="102.7995" y2="102.7995"/><line style="stroke:#5E5E5E;stroke-width:1.0416666666666667;" x1="8.3333" x2="164.5833" y1="111.1328" y2="111.1328"/><!--MD5=[4c23c9092c54d73788c2427d75f9bc69]
class LinkCrawler--><rect codeLine="12" fill="#282828" height="83.3781" id="LinkCrawler" rx="8.3333" ry="8.3333" style="stroke:#5E5E5E;stroke-width:1.0416666666666667;" width="160.4167" x="202.0833" y="53.7028"/><rect fill="#1B1B1A" height="31.3883" rx="8.3333" ry="8.3333" style="stroke:#1B1B1A;stroke-width:1.0416666666666667;" width="160.4167" x="202.0833" y="53.7028"/><rect fill="#1B1B1A" height="8.3333" style="stroke:#1B1B1A;stroke-width:1.0416666666666667;" width="160.4167" x="202.0833" y="76.7578"/><rect codeLine="12" fill="none" height="83.3781" id="LinkCrawler" rx="8.3333" ry="8.3333" style="stroke:#5E5E5E;stroke-width:1.0416666666666667;" width="160.4167" x="202.0833" y="53.7028"/><ellipse cx="237.2917" cy="69.397" fill="#0066CF" rx="10.4167" ry="10.4167" style="stroke:#0086EF;stroke-width:1.0416666666666667;"/><path d="M239.2021,73.822 Q238.7748,74.0417 238.3049,74.1516 Q237.8349,74.2615 237.3161,74.2615 Q235.4728,74.2615 234.5024,73.0469 Q233.5319,71.8323 233.5319,69.5374 Q233.5319,67.2363 234.5024,66.0217 Q235.4728,64.8071 237.3161,64.8071 Q237.8349,64.8071 238.311,64.917 Q238.787,65.0269 239.2021,65.2466 L239.2021,67.2485 Q238.7382,66.8213 238.3018,66.6229 Q237.8654,66.4246 237.4015,66.4246 Q236.4128,66.4246 235.9092,67.2089 Q235.4057,67.9932 235.4057,69.5374 Q235.4057,71.0754 235.9092,71.8597 Q236.4128,72.644 237.4015,72.644 Q237.8654,72.644 238.3018,72.4457 Q238.7382,72.2473 239.2021,71.8201 Z " fill="#000000"/><text fill="#D8BC00" font-family="Open Sans,Avenir,Nunito,Arial,Helvetica,SansSerif" font-size="12.5" font-weight="bold" lengthAdjust="spacing" textLength="77.0833" x="258.5417" y="74.1211">LinkCrawler</text><line style="stroke:#5E5E5E;stroke-width:1.5625;" x1="203.125" x2="361.4583" y1="85.0911" y2="85.0911"/><ellipse cx="213.5417" cy="120.461" fill="#84BE84" rx="3.125" ry="3.125" style="stroke:#038048;stroke-width:1.0416666666666667;"/><text fill="#D8BC00" font-family="Open Sans,Avenir,Nunito,Arial,Helvetica,SansSerif" font-size="11.4583" lengthAdjust="spacing" textLength="128.125" x="225" y="127.3722">LinkCrawler(Maximum)</text><line style="stroke:#5E5E5E;stroke-width:1.0416666666666667;" x1="203.125" x2="238.5417" y1="103.2969" y2="103.2969"/><text fill="#D8BC00" font-family="Open Sans,Avenir,Nunito,Arial,Helvetica,SansSerif" font-size="11.4583" lengthAdjust="spacing" textLength="81.25" x="241.6667" y="107.1065">(constructors)</text><line style="stroke:#5E5E5E;stroke-width:1.0416666666666667;" x1="326.0417" x2="361.4583" y1="103.2969" y2="103.2969"/><!--MD5=[ea7db2c7d09037c22501aeaebf63920b]
class LinkSetJudger--><rect codeLine="18" fill="#282828" height="48.055" id="LinkSetJudger" rx="8.3333" ry="8.3333" style="stroke:#5E5E5E;stroke-width:1.0416666666666667;" width="128.125" x="22.3958" y="263.0778"/><rect fill="#1B1B1A" height="31.3883" rx="8.3333" ry="8.3333" style="stroke:#1B1B1A;stroke-width:1.0416666666666667;" width="128.125" x="22.3958" y="263.0778"/><rect fill="#1B1B1A" height="8.3333" style="stroke:#1B1B1A;stroke-width:1.0416666666666667;" width="128.125" x="22.3958" y="286.1328"/><rect codeLine="18" fill="none" height="48.055" id="LinkSetJudger" rx="8.3333" ry="8.3333" style="stroke:#5E5E5E;stroke-width:1.0416666666666667;" width="128.125" x="22.3958" y="263.0778"/><ellipse cx="36.9792" cy="278.772" fill="#0066CF" rx="10.4167" ry="10.4167" style="stroke:#0086EF;stroke-width:1.0416666666666667;"/><path d="M38.8896,283.197 Q38.4623,283.4167 37.9924,283.5266 Q37.5224,283.6365 37.0036,283.6365 Q35.1603,283.6365 34.1899,282.4219 Q33.2194,281.2073 33.2194,278.9124 Q33.2194,276.6113 34.1899,275.3967 Q35.1603,274.1821 37.0036,274.1821 Q37.5224,274.1821 37.9985,274.292 Q38.4745,274.4019 38.8896,274.6216 L38.8896,276.6235 Q38.4257,276.1963 37.9893,275.9979 Q37.5529,275.7996 37.089,275.7996 Q36.1003,275.7996 35.5967,276.5839 Q35.0932,277.3682 35.0932,278.9124 Q35.0932,280.4504 35.5967,281.2347 Q36.1003,282.019 37.089,282.019 Q37.5529,282.019 37.9893,281.8207 Q38.4257,281.6223 38.8896,281.1951 Z " fill="#000000"/><text fill="#D8BC00" font-family="Open Sans,Avenir,Nunito,Arial,Helvetica,SansSerif" font-size="12.5" font-weight="bold" lengthAdjust="spacing" textLength="90.625" x="53.6458" y="283.4961">LinkSetJudger</text><line style="stroke:#5E5E5E;stroke-width:1.0416666666666667;" x1="23.4375" x2="149.4792" y1="294.4661" y2="294.4661"/><line style="stroke:#5E5E5E;stroke-width:1.0416666666666667;" x1="23.4375" x2="149.4792" y1="302.7995" y2="302.7995"/><!--MD5=[e25b4cfed934eecbe22554dc5d8bba2c]
class RampFinder--><rect codeLine="23" fill="#282828" height="174.8576" id="RampFinder" rx="8.3333" ry="8.3333" style="stroke:#5E5E5E;stroke-width:1.0416666666666667;" width="260.4167" x="331.25" y="199.5361"/><rect fill="#1B1B1A" height="31.3883" rx="8.3333" ry="8.3333" style="stroke:#1B1B1A;stroke-width:1.0416666666666667;" width="260.4167" x="331.25" y="199.5361"/><rect fill="#1B1B1A" height="8.3333" style="stroke:#1B1B1A;stroke-width:1.0416666666666667;" width="260.4167" x="331.25" y="222.5911"/><rect codeLine="23" fill="none" height="174.8576" id="RampFinder" rx="8.3333" ry="8.3333" style="stroke:#5E5E5E;stroke-width:1.0416666666666667;" width="260.4167" x="331.25" y="199.5361"/><ellipse cx="415.625" cy="215.2303" fill="#C8AC00" rx="10.4167" ry="10.4167" style="stroke:#D8BC00;stroke-width:1.0416666666666667;"/><path d="M415.2181,211.9324 L414.3697,215.6616 L416.0726,215.6616 Z M414.1195,210.2844 L416.3228,210.2844 L418.7826,219.397 L416.982,219.397 L416.4205,217.1448 L414.0096,217.1448 L413.4603,219.397 L411.6597,219.397 Z " fill="#000000"/><text fill="#D8BC00" font-family="Open Sans,Avenir,Nunito,Arial,Helvetica,SansSerif" font-size="12.5" font-style="italic" font-weight="bold" lengthAdjust="spacing" textLength="77.0833" x="438.5417" y="219.9544">RampFinder</text><line style="stroke:#5E5E5E;stroke-width:1.5625;" x1="332.2917" x2="590.625" y1="230.9245" y2="230.9245"/><polygon fill="#FFFF44" points="342.7083,261.086,346.875,265.2527,342.7083,269.4194,338.5417,265.2527" style="stroke:#B38D22;stroke-width:1.0416666666666667;"/><text fill="#D8BC00" font-family="Open Sans,Avenir,Nunito,Arial,Helvetica,SansSerif" font-size="11.4583" lengthAdjust="spacing" textLength="109.375" x="354.1667" y="273.2056">RampFinder(Graph)</text><line style="stroke:#5E5E5E;stroke-width:1.0416666666666667;" x1="332.2917" x2="417.7083" y1="249.1302" y2="249.1302"/><text fill="#D8BC00" font-family="Open Sans,Avenir,Nunito,Arial,Helvetica,SansSerif" font-size="11.4583" lengthAdjust="spacing" textLength="81.25" x="420.8333" y="252.9399">(constructors)</text><line style="stroke:#5E5E5E;stroke-width:1.0416666666666667;" x1="505.2083" x2="590.625" y1="249.1302" y2="249.1302"/><line style="stroke:#5E5E5E;stroke-width:1.0416666666666667;" x1="332.2917" x2="590.625" y1="282.9142" y2="282.9142"/><polygon fill="#FFFF44" points="342.7083,289.1642,346.875,293.3309,342.7083,297.4976,338.5417,293.3309" style="stroke:#B38D22;stroke-width:1.0416666666666667;"/><text fill="#D8BC00" font-family="Open Sans,Avenir,Nunito,Arial,Helvetica,SansSerif" font-size="11.4583" lengthAdjust="spacing" textLength="140.625" x="354.1667" y="301.2838">void onRamp(Edge ramp)</text><polygon fill="#FFFF44" points="342.7083,308.9091,346.875,313.0758,342.7083,317.2424,338.5417,313.0758" style="stroke:#B38D22;stroke-width:1.0416666666666667;"/><text fill="#D8BC00" font-family="Open Sans,Avenir,Nunito,Arial,Helvetica,SansSerif" font-size="11.4583" lengthAdjust="spacing" textLength="228.125" x="354.1667" y="321.0286">void onRampConnector(Edge connector)</text><ellipse cx="342.7083" cy="357.7738" fill="#84BE84" rx="3.125" ry="3.125" style="stroke:#038048;stroke-width:1.0416666666666667;"/><text fill="#D8BC00" font-family="Open Sans,Avenir,Nunito,Arial,Helvetica,SansSerif" font-size="11.4583" lengthAdjust="spacing" textLength="57.2917" x="354.1667" y="364.6851">void find()</text><line style="stroke:#5E5E5E;stroke-width:1.0416666666666667;" x1="332.2917" x2="435.4167" y1="340.6097" y2="340.6097"/><text fill="#D8BC00" font-family="Open Sans,Avenir,Nunito,Arial,Helvetica,SansSerif" font-size="11.4583" lengthAdjust="spacing" textLength="45.8333" x="438.5417" y="344.4194">(search)</text><line style="stroke:#5E5E5E;stroke-width:1.0416666666666667;" x1="487.5" x2="590.625" y1="340.6097" y2="340.6097"/><!--MD5=[c94ddf6274cf68c27a6cb5decc89c383]
reverse link BaseRepeater to RampFinder--><path codeLine="22" d="M461.4583,140.5361 C461.4583,158.0986 461.4583,178.9528 461.4583,199.2965 " fill="none" id="BaseRepeater-backto-RampFinder" style="stroke:#545454;stroke-width:1.5625;"/><polygon fill="none" points="454.1667,140.4945,461.4583,119.6611,468.75,140.4945,454.1667,140.4945" style="stroke:#545454;stroke-width:1.5625;"/><!--MD5=[aae6be2860a332476f76052e2bb88245]
link AccumulatedAngle to LinkCrawler--><!--MD5=[53d3245a8666ef463c5b404d04a92fa2]
link AccumulatedAngle to LinkSetJudger--><!--MD5=[e0ba81100e87e1e0a56b5ee6ad34dfe8]
@startuml

    !include lexakai.theme
    
    title "com.telenav.mesakit.graph.analytics.ramp"
    
    abstract BaseRepeater
    
    class AccumulatedAngle
    {
    }
    
    class LinkCrawler
    {
        - -(constructors)- -
        +LinkCrawler(Maximum)
    }
    
    class LinkSetJudger
    {
    }
    
    BaseRepeater <|- - RampFinder
    abstract class RampFinder
    {
        - -(constructors)- -
        #RampFinder(Graph)
        - -
        #void onRamp(Edge ramp)
        #void onRampConnector(Edge connector)
        - -(search)- -
        +void find()
    }
    
@enduml

@startuml









skinparam backgroundColor #333333






skinparam  {
    defaultFontName   "Open Sans,Avenir,Nunito,Arial,Helvetica,SansSerif"
    defaultFontSize   12
    defaultTextAlignment left
    shadowing false
    RoundCorner 10
    TitleFontSize 18
}

skinparam defaultFontName       "Open Sans,Avenir,Nunito,Arial,Helvetica,SansSerif"
skinparam defaultFontSize       12
skinparam dpi                   100
skinparam shadowing             false
skinparam roundcorner           16
skinparam ParticipantPadding    40
skinparam BoxPadding            40
skinparam Padding               3
skinparam ArrowColor            #545454
skinparam stereotype {
    CBackgroundColor #0066cf
    CBorderColor #0086ef
    ABackgroundColor #C8Ac00
    ABorderColor #D8Bc00
    IBackgroundColor #008400
    IBorderColor #239c23
    EBackgroundColor #cf6300
    EBorderColor #ef8300
    NBackgroundColor #3380b9
    NBorderColor #004d86
}
skinparam title {
	FontColor	                 #c0c0c0
 	BorderColor                  #545454
	FontSize	    	         20
	BorderRoundCorner            16
	BorderThickness 	         1
	BackgroundColor              #48494b
}


skinparam legend {
	BackgroundColor #303030
	BorderColor #404040
	FontColor #a0a0a0
}

	skinparam swimlane {
	BorderColor #5e5e5e
	BorderThickness 2
	TitleBackgroundColor  #6d6d6d-#484848
	TitleFontColor #303030
}

skinparam activity {
		FontColor #C8Ac00
	BorderColor #333333
	BackgroundColor #333333-#333333
	BarColor #00FF00
	StartColor #0060a8
	EndColor #0060a8
	DiamondBackgroundColor #6d6d6d-#3a3a3a
  	DiamondBorderColor #3a3a3a
  	DiamondFontColor #fefefe
}


skinparam participant {
		FontColor #C8Ac00
	BorderColor #333333
	BackgroundColor #333333-#333333
	ParticipantBorderThickness 2
}


skinparam actor {
		FontColor #C8Ac00
	BorderColor #333333
	BackgroundColor #333333-#333333
}


skinparam arrow {
	Thickness 1.5
	Color #545454
	FontColor #a0a0a0
    FontStyle bold
    MessageAlignment center
}



skinparam sequence {
	BorderColor #303030
	TitleFontColor #303030
	BackgroundColor #333333
	StartColor #303030
	EndColor #303030
	BoxBackgroundColor #333333
	BoxBorderColor #484848
	BoxFontColor #484848
	LifeLineBorderColor #484848
	LifeLineBorderThickness 2
	LifeLineBackgroundColor #3a3a3a
	GroupBorderColor #484848
	GroupFontColor #484848
	GroupHeaderFontColor #0060a8
	GroupBackgroundColor #484848
	GroupHeaderBackgroundColor #333333
	DividerBackgroundColor #484848
    DividerBorderColor #484848
    DividerBorderThickness 2
    DividerFontColor #D8Bc00
	ReferenceBackgroundColor #333333
	ReferenceBorderColor #484848
	ReferenceFontColor #fefefe
	ReferenceHeaderBackgroundColor #484848
}


skinparam partition {
	BorderColor #303030
	FontColor #333333
	BackgroundColor #333333
}


skinparam collections {
		FontColor #C8Ac00
	BorderColor #333333
	BackgroundColor #333333-#333333
}


skinparam control {
		FontColor #C8Ac00
	BorderColor #333333
	BackgroundColor #333333-#333333
}


skinparam entity {
		FontColor #C8Ac00
	BorderColor #333333
	BackgroundColor #333333-#333333
}


skinparam boundary {
		FontColor #C8Ac00
	BorderColor #333333
	BackgroundColor #333333-#333333
}


skinparam agent {
	BackgroundColor #ff8000
	BorderColor #ff9933
	FontColor #484848
}


skinparam note {
	BorderThickness 1
	BackgroundColor #1b1b1a
	BorderColor #5e5e5e
	FontSize 11
	FontColor #a0a0a0
}


skinparam artifact {
	BorderThickness 10
	BorderColor #5e5e5e
	BackgroundColor #1b1b1a
	FontColor #D8Bc00
}


skinparam component {
		FontColor #C8Ac00
	BorderColor #333333
	BackgroundColor #333333-#333333
}


skinparam interface {
	BackgroundColor  #008400
	BorderColor  #007F00
	FontColor #484848
}


skinparam storage {
	BackgroundColor #ff8000
  	BorderColor #cc6600
	FontColor #222222
}


skinparam node {
	BackgroundColor #333333
	BorderColor #333333
	FontColor #C8Ac00
}


skinparam cloud {
	BackgroundColor #484848-black
	BorderColor #484848
	FontColor #D8Bc00
}


skinparam database {
		FontColor #C8Ac00
	BorderColor #333333
	BackgroundColor #333333-#333333
	BackgroundColor  #333333
}


skinparam class {
		FontColor #C8Ac00
	BorderColor #333333
	BackgroundColor #333333-#333333
	HeaderBackgroundColor #1b1b1a
    BackgroundColor #282828
    BorderColor #5e5e5e
 	StereotypeFontColor #a0a0a0
    StereotypeFontStyle bold
	BorderThickness 1
	AttributeFontColor #D8Bc00
	AttributeFontSize 11
    FontColor #D8Bc00
    FontStyle bold
}


skinparam object {
		FontColor #C8Ac00
	BorderColor #333333
	BackgroundColor #333333-#333333
	StereotypeFontColor #484848
	BorderThickness 1
	AttributeFontColor #fefefe
	AttributeFontSize 11
}


skinparam usecase {
		FontColor #C8Ac00
	BorderColor #333333
	BackgroundColor #333333-#333333
	BorderThickness 2
	StereotypeFontColor #303030
}


skinparam rectangle {
		FontColor #C8Ac00
	BorderColor #333333
	BackgroundColor #333333-#333333
	BackgroundColor #333333
	BorderThickness 2
	StereotypeFontColor #303030
}


skinparam package {
		FontColor #C8Ac00
	BorderColor #333333
	BackgroundColor #333333-#333333
	BackgroundColor #333333
	BorderThickness 2
}


skinparam folder {
	BackgroundColor #6d6d6d
  	BorderColor #ff8000
	FontColor #ff8000
	BorderThickness 2
}


skinparam frame {
	BackgroundColor #6d6d6d
  	BorderColor #0060a8
	FontColor #0060a8
	BorderThickness 2
}


skinparam state {
		FontColor #C8Ac00
	BorderColor #333333
	BackgroundColor #333333-#333333
	StartColor #0060a8
	EndColor #0060a8
	AttributeFontColor #fefefe
	AttributeFontSize 11
}


skinparam queue {
		FontColor #C8Ac00
	BorderColor #333333
	BackgroundColor #333333-#333333
}


skinparam card {
	BackgroundColor #0060a8
	BorderColor #004d86
	FontColor $INFO_TEXT
}


skinparam file {
	BackgroundColor #6d6d6d-#484848
	BorderColor #0060a8
	FontColor #fefefe
}


skinparam stack {
		FontColor #C8Ac00
	BorderColor #333333
	BackgroundColor #333333-#333333
}

    
    title "com.telenav.mesakit.graph.analytics.ramp"
    
    abstract BaseRepeater
    
    class AccumulatedAngle
    {
    }
    
    class LinkCrawler
    {
        - -(constructors)- -
        +LinkCrawler(Maximum)
    }
    
    class LinkSetJudger
    {
    }
    
    BaseRepeater <|- - RampFinder
    abstract class RampFinder
    {
        - -(constructors)- -
        #RampFinder(Graph)
        - -
        #void onRamp(Edge ramp)
        #void onRampConnector(Edge connector)
        - -(search)- -
        +void find()
    }
    
@enduml

PlantUML version 1.2021.01(Tue Feb 02 00:55:08 MST 2021)
(GPL source distribution)
Java Runtime: OpenJDK Runtime Environment
JVM: OpenJDK 64-Bit Server VM
Default Encoding: UTF-8
Language: en
Country: US
--></g></svg>