<?xml version="1.0" encoding="UTF-8" standalone="no"?><svg xmlns="http://www.w3.org/2000/svg" xmlns:xlink="http://www.w3.org/1999/xlink" contentScriptType="application/ecmascript" contentStyleType="text/css" height="408.3333px" preserveAspectRatio="none" style="width:1510px;height:408px;background:#333333;" version="1.1" viewBox="0 0 1510 408" width="1510.4167px" zoomAndPan="magnify"><defs/><g><rect fill="#48494B" height="41.2028" rx="8.3333" ry="8.3333" style="stroke:#545454;stroke-width:1.0416666666666667;" width="511.4583" x="492.4479" y="2.0833"/><text fill="#C0C0C0" font-family="Open Sans,Avenir,Nunito,Arial,Helvetica,SansSerif" font-size="20.8333" lengthAdjust="spacing" textLength="488.5417" x="503.9063" y="30.5583">com.telenav.mesakit.graph.navigation.navigators</text><!--MD5=[40b3c804dbebccffe015874329c9226f]
class Navigator--><rect fill="#282828" height="48.055" id="Navigator" rx="8.3333" ry="8.3333" style="stroke:#5E5E5E;stroke-width:1.0416666666666667;" width="100" x="596.875" y="53.7028"/><rect fill="#1B1B1A" height="31.3883" rx="8.3333" ry="8.3333" style="stroke:#1B1B1A;stroke-width:1.0416666666666667;" width="100" x="596.875" y="53.7028"/><rect fill="#1B1B1A" height="8.3333" style="stroke:#1B1B1A;stroke-width:1.0416666666666667;" width="100" x="596.875" y="76.7578"/><rect fill="none" height="48.055" id="Navigator" rx="8.3333" ry="8.3333" style="stroke:#5E5E5E;stroke-width:1.0416666666666667;" width="100" x="596.875" y="53.7028"/><ellipse cx="611.4583" cy="69.397" fill="#0066CF" rx="10.4167" ry="10.4167" style="stroke:#0086EF;stroke-width:1.0416666666666667;"/><path d="M613.3687,73.822 Q612.9415,74.0417 612.4715,74.1516 Q612.0015,74.2615 611.4827,74.2615 Q609.6395,74.2615 608.669,73.0469 Q607.6986,71.8323 607.6986,69.5374 Q607.6986,67.2363 608.669,66.0217 Q609.6395,64.8071 611.4827,64.8071 Q612.0015,64.8071 612.4776,64.917 Q612.9537,65.0269 613.3687,65.2466 L613.3687,67.2485 Q612.9049,66.8213 612.4685,66.6229 Q612.0321,66.4246 611.5682,66.4246 Q610.5794,66.4246 610.0759,67.2089 Q609.5723,67.9932 609.5723,69.5374 Q609.5723,71.0754 610.0759,71.8597 Q610.5794,72.644 611.5682,72.644 Q612.0321,72.644 612.4685,72.4457 Q612.9049,72.2473 613.3687,71.8201 Z " fill="#000000"/><text fill="#D8BC00" font-family="Open Sans,Avenir,Nunito,Arial,Helvetica,SansSerif" font-size="12.5" font-weight="bold" lengthAdjust="spacing" textLength="62.5" x="628.125" y="74.1211">Navigator</text><line style="stroke:#5E5E5E;stroke-width:1.0416666666666667;" x1="597.9167" x2="695.8333" y1="85.0911" y2="85.0911"/><line style="stroke:#5E5E5E;stroke-width:1.0416666666666667;" x1="597.9167" x2="695.8333" y1="93.4245" y2="93.4245"/><!--MD5=[eaddba1d16507dd5d20a7bb9499a7518]
class NamedRoadNavigator--><rect codeLine="7" fill="#282828" height="127.0345" id="NamedRoadNavigator" rx="8.3333" ry="8.3333" style="stroke:#5E5E5E;stroke-width:1.0416666666666667;" width="220.8333" x="9.375" y="164.1195"/><rect fill="#1B1B1A" height="31.3883" rx="8.3333" ry="8.3333" style="stroke:#1B1B1A;stroke-width:1.0416666666666667;" width="220.8333" x="9.375" y="164.1195"/><rect fill="#1B1B1A" height="8.3333" style="stroke:#1B1B1A;stroke-width:1.0416666666666667;" width="220.8333" x="9.375" y="187.1745"/><rect codeLine="7" fill="none" height="127.0345" id="NamedRoadNavigator" rx="8.3333" ry="8.3333" style="stroke:#5E5E5E;stroke-width:1.0416666666666667;" width="220.8333" x="9.375" y="164.1195"/><ellipse cx="43.6458" cy="179.8136" fill="#0066CF" rx="10.4167" ry="10.4167" style="stroke:#0086EF;stroke-width:1.0416666666666667;"/><path d="M45.5562,184.2387 Q45.129,184.4584 44.659,184.5683 Q44.189,184.6781 43.6702,184.6781 Q41.827,184.6781 40.8565,183.4635 Q39.8861,182.2489 39.8861,179.954 Q39.8861,177.653 40.8565,176.4384 Q41.827,175.2238 43.6702,175.2238 Q44.189,175.2238 44.6651,175.3337 Q45.1412,175.4435 45.5562,175.6632 L45.5562,177.6652 Q45.0924,177.238 44.656,177.0396 Q44.2196,176.8412 43.7557,176.8412 Q42.7669,176.8412 42.2634,177.6255 Q41.7598,178.4098 41.7598,179.954 Q41.7598,181.4921 42.2634,182.2764 Q42.7669,183.0607 43.7557,183.0607 Q44.2196,183.0607 44.656,182.8623 Q45.0924,182.664 45.5562,182.2367 Z " fill="#000000"/><text fill="#D8BC00" font-family="Open Sans,Avenir,Nunito,Arial,Helvetica,SansSerif" font-size="12.5" font-weight="bold" lengthAdjust="spacing" textLength="139.5833" x="64.6875" y="184.5378">NamedRoadNavigator</text><line style="stroke:#5E5E5E;stroke-width:1.5625;" x1="10.4167" x2="229.1667" y1="195.5078" y2="195.5078"/><ellipse cx="20.8333" cy="230.8777" fill="#84BE84" rx="3.125" ry="3.125" style="stroke:#038048;stroke-width:1.0416666666666667;"/><text fill="#D8BC00" font-family="Open Sans,Avenir,Nunito,Arial,Helvetica,SansSerif" font-size="11.4583" lengthAdjust="spacing" textLength="188.5417" x="32.2917" y="237.7889">NamedRoadNavigator(RoadName)</text><line style="stroke:#5E5E5E;stroke-width:1.0416666666666667;" x1="10.4167" x2="76.0417" y1="213.7136" y2="213.7136"/><text fill="#D8BC00" font-family="Open Sans,Avenir,Nunito,Arial,Helvetica,SansSerif" font-size="11.4583" lengthAdjust="spacing" textLength="81.25" x="79.1667" y="217.5232">(constructors)</text><line style="stroke:#5E5E5E;stroke-width:1.0416666666666667;" x1="163.5417" x2="229.1667" y1="213.7136" y2="213.7136"/><polygon fill="#FFFF44" points="20.8333,269.3258,25,273.4924,20.8333,277.6591,16.6667,273.4924" style="stroke:#B38D22;stroke-width:1.0416666666666667;"/><text fill="#D8BC00" font-family="Open Sans,Avenir,Nunito,Arial,Helvetica,SansSerif" font-size="11.4583" lengthAdjust="spacing" textLength="119.7917" x="32.2917" y="281.4453">boolean accept(Edge)</text><line style="stroke:#5E5E5E;stroke-width:1.0416666666666667;" x1="10.4167" x2="90.625" y1="257.37" y2="257.37"/><text fill="#D8BC00" font-family="Open Sans,Avenir,Nunito,Arial,Helvetica,SansSerif" font-size="11.4583" lengthAdjust="spacing" textLength="52.0833" x="93.75" y="261.1796">(filtering)</text><line style="stroke:#5E5E5E;stroke-width:1.0416666666666667;" x1="148.9583" x2="229.1667" y1="257.37" y2="257.37"/><!--MD5=[5552f23a3b615f64b2f7c242f5563548]
class NonBranchingNavigator--><rect codeLine="16" fill="#282828" height="48.055" id="NonBranchingNavigator" rx="8.3333" ry="8.3333" style="stroke:#5E5E5E;stroke-width:1.0416666666666667;" width="190.625" x="267.1875" y="203.7028"/><rect fill="#1B1B1A" height="31.3883" rx="8.3333" ry="8.3333" style="stroke:#1B1B1A;stroke-width:1.0416666666666667;" width="190.625" x="267.1875" y="203.7028"/><rect fill="#1B1B1A" height="8.3333" style="stroke:#1B1B1A;stroke-width:1.0416666666666667;" width="190.625" x="267.1875" y="226.7578"/><rect codeLine="16" fill="none" height="48.055" id="NonBranchingNavigator" rx="8.3333" ry="8.3333" style="stroke:#5E5E5E;stroke-width:1.0416666666666667;" width="190.625" x="267.1875" y="203.7028"/><ellipse cx="281.7708" cy="219.397" fill="#0066CF" rx="10.4167" ry="10.4167" style="stroke:#0086EF;stroke-width:1.0416666666666667;"/><path d="M283.6812,223.822 Q283.254,224.0417 282.784,224.1516 Q282.314,224.2615 281.7952,224.2615 Q279.952,224.2615 278.9815,223.0469 Q278.0111,221.8323 278.0111,219.5374 Q278.0111,217.2363 278.9815,216.0217 Q279.952,214.8071 281.7952,214.8071 Q282.314,214.8071 282.7901,214.917 Q283.2662,215.0269 283.6812,215.2466 L283.6812,217.2485 Q283.2174,216.8213 282.781,216.6229 Q282.3446,216.4246 281.8807,216.4246 Q280.8919,216.4246 280.3884,217.2089 Q279.8848,217.9932 279.8848,219.5374 Q279.8848,221.0754 280.3884,221.8597 Q280.8919,222.644 281.8807,222.644 Q282.3446,222.644 282.781,222.4457 Q283.2174,222.2473 283.6812,221.8201 Z " fill="#000000"/><text fill="#D8BC00" font-family="Open Sans,Avenir,Nunito,Arial,Helvetica,SansSerif" font-size="12.5" font-weight="bold" lengthAdjust="spacing" textLength="153.125" x="298.4375" y="224.1211">NonBranchingNavigator</text><line style="stroke:#5E5E5E;stroke-width:1.0416666666666667;" x1="268.2292" x2="456.7708" y1="235.0911" y2="235.0911"/><line style="stroke:#5E5E5E;stroke-width:1.0416666666666667;" x1="268.2292" x2="456.7708" y1="243.4245" y2="243.4245"/><!--MD5=[9356d5cbc57dfa5c642f6f2fe6bd7770]
class NonBranchingNoMergeNoUTurnNavigator--><rect codeLine="21" fill="#282828" height="48.055" id="NonBranchingNoMergeNoUTurnNavigator" rx="8.3333" ry="8.3333" style="stroke:#5E5E5E;stroke-width:1.0416666666666667;" width="305.2083" x="494.2708" y="203.7028"/><rect fill="#1B1B1A" height="31.3883" rx="8.3333" ry="8.3333" style="stroke:#1B1B1A;stroke-width:1.0416666666666667;" width="305.2083" x="494.2708" y="203.7028"/><rect fill="#1B1B1A" height="8.3333" style="stroke:#1B1B1A;stroke-width:1.0416666666666667;" width="305.2083" x="494.2708" y="226.7578"/><rect codeLine="21" fill="none" height="48.055" id="NonBranchingNoMergeNoUTurnNavigator" rx="8.3333" ry="8.3333" style="stroke:#5E5E5E;stroke-width:1.0416666666666667;" width="305.2083" x="494.2708" y="203.7028"/><ellipse cx="508.8542" cy="219.397" fill="#0066CF" rx="10.4167" ry="10.4167" style="stroke:#0086EF;stroke-width:1.0416666666666667;"/><path d="M510.7646,223.822 Q510.3373,224.0417 509.8674,224.1516 Q509.3974,224.2615 508.8786,224.2615 Q507.0353,224.2615 506.0649,223.0469 Q505.0944,221.8323 505.0944,219.5374 Q505.0944,217.2363 506.0649,216.0217 Q507.0353,214.8071 508.8786,214.8071 Q509.3974,214.8071 509.8735,214.917 Q510.3495,215.0269 510.7646,215.2466 L510.7646,217.2485 Q510.3007,216.8213 509.8643,216.6229 Q509.4279,216.4246 508.964,216.4246 Q507.9753,216.4246 507.4717,217.2089 Q506.9682,217.9932 506.9682,219.5374 Q506.9682,221.0754 507.4717,221.8597 Q507.9753,222.644 508.964,222.644 Q509.4279,222.644 509.8643,222.4457 Q510.3007,222.2473 510.7646,221.8201 Z " fill="#000000"/><text fill="#D8BC00" font-family="Open Sans,Avenir,Nunito,Arial,Helvetica,SansSerif" font-size="12.5" font-weight="bold" lengthAdjust="spacing" textLength="267.7083" x="525.5208" y="224.1211">NonBranchingNoMergeNoUTurnNavigator</text><line style="stroke:#5E5E5E;stroke-width:1.0416666666666667;" x1="495.3125" x2="798.4375" y1="235.0911" y2="235.0911"/><line style="stroke:#5E5E5E;stroke-width:1.0416666666666667;" x1="495.3125" x2="798.4375" y1="243.4245" y2="243.4245"/><!--MD5=[4f30ce6f4c794b911911499fa75f1953]
class NonBranchingNoMergeNoUTurnNoLoopNavigator--><rect codeLine="26" fill="#282828" height="48.055" id="NonBranchingNoMergeNoUTurnNoLoopNavigator" rx="8.3333" ry="8.3333" style="stroke:#5E5E5E;stroke-width:1.0416666666666667;" width="355.2083" x="463.0208" y="353.7028"/><rect fill="#1B1B1A" height="31.3883" rx="8.3333" ry="8.3333" style="stroke:#1B1B1A;stroke-width:1.0416666666666667;" width="355.2083" x="463.0208" y="353.7028"/><rect fill="#1B1B1A" height="8.3333" style="stroke:#1B1B1A;stroke-width:1.0416666666666667;" width="355.2083" x="463.0208" y="376.7578"/><rect codeLine="26" fill="none" height="48.055" id="NonBranchingNoMergeNoUTurnNoLoopNavigator" rx="8.3333" ry="8.3333" style="stroke:#5E5E5E;stroke-width:1.0416666666666667;" width="355.2083" x="463.0208" y="353.7028"/><ellipse cx="477.6042" cy="369.397" fill="#0066CF" rx="10.4167" ry="10.4167" style="stroke:#0086EF;stroke-width:1.0416666666666667;"/><path d="M479.5146,373.822 Q479.0873,374.0417 478.6174,374.1516 Q478.1474,374.2615 477.6286,374.2615 Q475.7853,374.2615 474.8149,373.0469 Q473.8444,371.8323 473.8444,369.5374 Q473.8444,367.2363 474.8149,366.0217 Q475.7853,364.8071 477.6286,364.8071 Q478.1474,364.8071 478.6235,364.917 Q479.0995,365.0269 479.5146,365.2466 L479.5146,367.2485 Q479.0507,366.8213 478.6143,366.6229 Q478.1779,366.4246 477.714,366.4246 Q476.7253,366.4246 476.2217,367.2089 Q475.7182,367.9932 475.7182,369.5374 Q475.7182,371.0754 476.2217,371.8597 Q476.7253,372.644 477.714,372.644 Q478.1779,372.644 478.6143,372.4457 Q479.0507,372.2473 479.5146,371.8201 Z " fill="#000000"/><text fill="#D8BC00" font-family="Open Sans,Avenir,Nunito,Arial,Helvetica,SansSerif" font-size="12.5" font-weight="bold" lengthAdjust="spacing" textLength="317.7083" x="494.2708" y="374.1211">NonBranchingNoMergeNoUTurnNoLoopNavigator</text><line style="stroke:#5E5E5E;stroke-width:1.0416666666666667;" x1="464.0625" x2="817.1875" y1="385.0911" y2="385.0911"/><line style="stroke:#5E5E5E;stroke-width:1.0416666666666667;" x1="464.0625" x2="817.1875" y1="393.4245" y2="393.4245"/><!--MD5=[c946f7e2e8ca06711eaaf42c09674b7c]
class NonBranchingNoUTurnNavigator--><rect codeLine="31" fill="#282828" height="83.3781" id="NonBranchingNoUTurnNavigator" rx="8.3333" ry="8.3333" style="stroke:#5E5E5E;stroke-width:1.0416666666666667;" width="336.4583" x="835.9375" y="185.9945"/><rect fill="#1B1B1A" height="31.3883" rx="8.3333" ry="8.3333" style="stroke:#1B1B1A;stroke-width:1.0416666666666667;" width="336.4583" x="835.9375" y="185.9945"/><rect fill="#1B1B1A" height="8.3333" style="stroke:#1B1B1A;stroke-width:1.0416666666666667;" width="336.4583" x="835.9375" y="209.0495"/><rect codeLine="31" fill="none" height="83.3781" id="NonBranchingNoUTurnNavigator" rx="8.3333" ry="8.3333" style="stroke:#5E5E5E;stroke-width:1.0416666666666667;" width="336.4583" x="835.9375" y="185.9945"/><ellipse cx="891.6667" cy="201.6886" fill="#0066CF" rx="10.4167" ry="10.4167" style="stroke:#0086EF;stroke-width:1.0416666666666667;"/><path d="M893.5771,206.1137 Q893.1498,206.3334 892.6799,206.4433 Q892.2099,206.5531 891.6911,206.5531 Q889.8478,206.5531 888.8774,205.3385 Q887.9069,204.1239 887.9069,201.829 Q887.9069,199.528 888.8774,198.3134 Q889.8478,197.0988 891.6911,197.0988 Q892.2099,197.0988 892.686,197.2087 Q893.162,197.3185 893.5771,197.5382 L893.5771,199.5402 Q893.1132,199.113 892.6768,198.9146 Q892.2404,198.7162 891.7765,198.7162 Q890.7878,198.7162 890.2842,199.5005 Q889.7807,200.2848 889.7807,201.829 Q889.7807,203.3671 890.2842,204.1514 Q890.7878,204.9357 891.7765,204.9357 Q892.2404,204.9357 892.6768,204.7373 Q893.1132,204.539 893.5771,204.1117 Z " fill="#000000"/><text fill="#D8BC00" font-family="Open Sans,Avenir,Nunito,Arial,Helvetica,SansSerif" font-size="12.5" font-weight="bold" lengthAdjust="spacing" textLength="210.4167" x="914.5833" y="206.4128">NonBranchingNoUTurnNavigator</text><line style="stroke:#5E5E5E;stroke-width:1.5625;" x1="836.9792" x2="1171.3542" y1="217.3828" y2="217.3828"/><polygon fill="#FFFF44" points="847.3958,247.5444,851.5625,251.711,847.3958,255.8777,843.2292,251.711" style="stroke:#B38D22;stroke-width:1.0416666666666667;"/><text fill="#D8BC00" font-family="Open Sans,Avenir,Nunito,Arial,Helvetica,SansSerif" font-size="11.4583" lengthAdjust="spacing" textLength="304.1667" x="858.8542" y="259.6639">Edge next(Edge, Count size, EdgeSequence nextEdges)</text><line style="stroke:#5E5E5E;stroke-width:1.0416666666666667;" x1="836.9792" x2="973.4375" y1="235.5886" y2="235.5886"/><text fill="#D8BC00" font-family="Open Sans,Avenir,Nunito,Arial,Helvetica,SansSerif" font-size="11.4583" lengthAdjust="spacing" textLength="55.2083" x="976.5625" y="239.3982">(iteration)</text><line style="stroke:#5E5E5E;stroke-width:1.0416666666666667;" x1="1034.8958" x2="1171.3542" y1="235.5886" y2="235.5886"/><!--MD5=[12bfdc94333b15fd9f582e437926bf33]
class NonBranchingNoUTurnNoLoopNavigator--><rect codeLine="38" fill="#282828" height="48.055" id="NonBranchingNoUTurnNoLoopNavigator" rx="8.3333" ry="8.3333" style="stroke:#5E5E5E;stroke-width:1.0416666666666667;" width="297.9167" x="855.2083" y="353.7028"/><rect fill="#1B1B1A" height="31.3883" rx="8.3333" ry="8.3333" style="stroke:#1B1B1A;stroke-width:1.0416666666666667;" width="297.9167" x="855.2083" y="353.7028"/><rect fill="#1B1B1A" height="8.3333" style="stroke:#1B1B1A;stroke-width:1.0416666666666667;" width="297.9167" x="855.2083" y="376.7578"/><rect codeLine="38" fill="none" height="48.055" id="NonBranchingNoUTurnNoLoopNavigator" rx="8.3333" ry="8.3333" style="stroke:#5E5E5E;stroke-width:1.0416666666666667;" width="297.9167" x="855.2083" y="353.7028"/><ellipse cx="869.7917" cy="369.397" fill="#0066CF" rx="10.4167" ry="10.4167" style="stroke:#0086EF;stroke-width:1.0416666666666667;"/><path d="M871.7021,373.822 Q871.2748,374.0417 870.8049,374.1516 Q870.3349,374.2615 869.8161,374.2615 Q867.9728,374.2615 867.0024,373.0469 Q866.0319,371.8323 866.0319,369.5374 Q866.0319,367.2363 867.0024,366.0217 Q867.9728,364.8071 869.8161,364.8071 Q870.3349,364.8071 870.811,364.917 Q871.287,365.0269 871.7021,365.2466 L871.7021,367.2485 Q871.2382,366.8213 870.8018,366.6229 Q870.3654,366.4246 869.9015,366.4246 Q868.9128,366.4246 868.4092,367.2089 Q867.9057,367.9932 867.9057,369.5374 Q867.9057,371.0754 868.4092,371.8597 Q868.9128,372.644 869.9015,372.644 Q870.3654,372.644 870.8018,372.4457 Q871.2382,372.2473 871.7021,371.8201 Z " fill="#000000"/><text fill="#D8BC00" font-family="Open Sans,Avenir,Nunito,Arial,Helvetica,SansSerif" font-size="12.5" font-weight="bold" lengthAdjust="spacing" textLength="260.4167" x="886.4583" y="374.1211">NonBranchingNoUTurnNoLoopNavigator</text><line style="stroke:#5E5E5E;stroke-width:1.0416666666666667;" x1="856.25" x2="1152.0833" y1="385.0911" y2="385.0911"/><line style="stroke:#5E5E5E;stroke-width:1.0416666666666667;" x1="856.25" x2="1152.0833" y1="393.4245" y2="393.4245"/><!--MD5=[0068c6a97b850e34f7c4a278e0d84bf6]
class NonBranchingWithSpursNoUTurnNavigator--><rect codeLine="43" fill="#282828" height="48.055" id="NonBranchingWithSpursNoUTurnNavigator" rx="8.3333" ry="8.3333" style="stroke:#5E5E5E;stroke-width:1.0416666666666667;" width="313.5417" x="1190.1042" y="353.7028"/><rect fill="#1B1B1A" height="31.3883" rx="8.3333" ry="8.3333" style="stroke:#1B1B1A;stroke-width:1.0416666666666667;" width="313.5417" x="1190.1042" y="353.7028"/><rect fill="#1B1B1A" height="8.3333" style="stroke:#1B1B1A;stroke-width:1.0416666666666667;" width="313.5417" x="1190.1042" y="376.7578"/><rect codeLine="43" fill="none" height="48.055" id="NonBranchingWithSpursNoUTurnNavigator" rx="8.3333" ry="8.3333" style="stroke:#5E5E5E;stroke-width:1.0416666666666667;" width="313.5417" x="1190.1042" y="353.7028"/><ellipse cx="1204.6875" cy="369.397" fill="#0066CF" rx="10.4167" ry="10.4167" style="stroke:#0086EF;stroke-width:1.0416666666666667;"/><path d="M1206.5979,373.822 Q1206.1707,374.0417 1205.7007,374.1516 Q1205.2307,374.2615 1204.7119,374.2615 Q1202.8687,374.2615 1201.8982,373.0469 Q1200.9277,371.8323 1200.9277,369.5374 Q1200.9277,367.2363 1201.8982,366.0217 Q1202.8687,364.8071 1204.7119,364.8071 Q1205.2307,364.8071 1205.7068,364.917 Q1206.1829,365.0269 1206.5979,365.2466 L1206.5979,367.2485 Q1206.134,366.8213 1205.6976,366.6229 Q1205.2612,366.4246 1204.7974,366.4246 Q1203.8086,366.4246 1203.3051,367.2089 Q1202.8015,367.9932 1202.8015,369.5374 Q1202.8015,371.0754 1203.3051,371.8597 Q1203.8086,372.644 1204.7974,372.644 Q1205.2612,372.644 1205.6976,372.4457 Q1206.134,372.2473 1206.5979,371.8201 Z " fill="#000000"/><text fill="#D8BC00" font-family="Open Sans,Avenir,Nunito,Arial,Helvetica,SansSerif" font-size="12.5" font-weight="bold" lengthAdjust="spacing" textLength="276.0417" x="1221.3542" y="374.1211">NonBranchingWithSpursNoUTurnNavigator</text><line style="stroke:#5E5E5E;stroke-width:1.0416666666666667;" x1="1191.1458" x2="1502.6042" y1="385.0911" y2="385.0911"/><line style="stroke:#5E5E5E;stroke-width:1.0416666666666667;" x1="1191.1458" x2="1502.6042" y1="393.4245" y2="393.4245"/><!--MD5=[0d42b9463fa68665425958bfd1799479]
class WayNavigator--><rect codeLine="48" fill="#282828" height="83.3781" id="WayNavigator" rx="8.3333" ry="8.3333" style="stroke:#5E5E5E;stroke-width:1.0416666666666667;" width="143.75" x="1209.375" y="185.9945"/><rect fill="#1B1B1A" height="31.3883" rx="8.3333" ry="8.3333" style="stroke:#1B1B1A;stroke-width:1.0416666666666667;" width="143.75" x="1209.375" y="185.9945"/><rect fill="#1B1B1A" height="8.3333" style="stroke:#1B1B1A;stroke-width:1.0416666666666667;" width="143.75" x="1209.375" y="209.0495"/><rect codeLine="48" fill="none" height="83.3781" id="WayNavigator" rx="8.3333" ry="8.3333" style="stroke:#5E5E5E;stroke-width:1.0416666666666667;" width="143.75" x="1209.375" y="185.9945"/><ellipse cx="1231.9271" cy="201.6886" fill="#0066CF" rx="10.4167" ry="10.4167" style="stroke:#0086EF;stroke-width:1.0416666666666667;"/><path d="M1233.8375,206.1137 Q1233.4102,206.3334 1232.9403,206.4433 Q1232.4703,206.5531 1231.9515,206.5531 Q1230.1082,206.5531 1229.1378,205.3385 Q1228.1673,204.1239 1228.1673,201.829 Q1228.1673,199.528 1229.1378,198.3134 Q1230.1082,197.0988 1231.9515,197.0988 Q1232.4703,197.0988 1232.9464,197.2087 Q1233.4224,197.3185 1233.8375,197.5382 L1233.8375,199.5402 Q1233.3736,199.113 1232.9372,198.9146 Q1232.5008,198.7162 1232.0369,198.7162 Q1231.0482,198.7162 1230.5446,199.5005 Q1230.0411,200.2848 1230.0411,201.829 Q1230.0411,203.3671 1230.5446,204.1514 Q1231.0482,204.9357 1232.0369,204.9357 Q1232.5008,204.9357 1232.9372,204.7373 Q1233.3736,204.539 1233.8375,204.1117 Z " fill="#000000"/><text fill="#D8BC00" font-family="Open Sans,Avenir,Nunito,Arial,Helvetica,SansSerif" font-size="12.5" font-weight="bold" lengthAdjust="spacing" textLength="88.5417" x="1250.3646" y="206.4128">WayNavigator</text><line style="stroke:#5E5E5E;stroke-width:1.5625;" x1="1210.4167" x2="1352.0833" y1="217.3828" y2="217.3828"/><ellipse cx="1220.8333" cy="252.7527" fill="#84BE84" rx="3.125" ry="3.125" style="stroke:#038048;stroke-width:1.0416666666666667;"/><text fill="#D8BC00" font-family="Open Sans,Avenir,Nunito,Arial,Helvetica,SansSerif" font-size="11.4583" lengthAdjust="spacing" textLength="111.4583" x="1232.2917" y="259.6639">WayNavigator(Edge)</text><line style="stroke:#5E5E5E;stroke-width:1.0416666666666667;" x1="1210.4167" x2="1237.5" y1="235.5886" y2="235.5886"/><text fill="#D8BC00" font-family="Open Sans,Avenir,Nunito,Arial,Helvetica,SansSerif" font-size="11.4583" lengthAdjust="spacing" textLength="81.25" x="1240.625" y="239.3982">(constructors)</text><line style="stroke:#5E5E5E;stroke-width:1.0416666666666667;" x1="1325" x2="1352.0833" y1="235.5886" y2="235.5886"/><!--MD5=[2b65a1e39e733bdd175a591f6c48d6b2]
reverse link Navigator to NamedRoadNavigator--><path codeLine="6" d="M576.0833,88.6507 C495.4167,101.182 360.3542,125.8278 248.9583,164.1195 C242.8333,166.2236 236.6146,168.5465 230.3958,171.0257 " fill="none" id="Navigator-backto-NamedRoadNavigator" style="stroke:#545454;stroke-width:1.5625;"/><polygon fill="none" points="575.1458,81.4215,596.8333,85.5153,577.3333,95.8382,575.1458,81.4215" style="stroke:#545454;stroke-width:1.5625;"/><!--MD5=[f4a792f903a06894d5e137315b0fd255]
reverse link Navigator to NonBranchingNavigator--><path codeLine="15" d="M580.6667,111.0465 C548.875,126.7757 510.3229,146.1195 476.0417,164.1195 C451.7396,176.8799 424.8125,191.6715 403.2813,203.6611 " fill="none" id="Navigator-backto-NonBranchingNavigator" style="stroke:#545454;stroke-width:1.5625;"/><polygon fill="none" points="577.5729,104.4424,599.4896,101.7757,584.0208,117.5257,577.5729,104.4424" style="stroke:#545454;stroke-width:1.5625;"/><!--MD5=[e4acf9a2f193c47eee0d7611a7823a80]
reverse link Navigator to NonBranchingNoMergeNoUTurnNavigator--><path codeLine="20" d="M646.875,122.7236 C646.875,149.3174 646.875,182.1299 646.875,203.6715 " fill="none" id="Navigator-backto-NonBranchingNoMergeNoUTurnNavigator" style="stroke:#545454;stroke-width:1.5625;"/><polygon fill="none" points="639.5833,122.6507,646.875,101.8174,654.1667,122.6507,639.5833,122.6507" style="stroke:#545454;stroke-width:1.5625;"/><!--MD5=[446e33cd003a0aa3bae3f5ace4ca875d]
reverse link NonBranchingNoMergeNoUTurnNavigator to NonBranchingNoMergeNoUTurnNoLoopNavigator--><path codeLine="25" d="M645.0104,272.7236 C643.8958,299.3174 642.5,332.1299 641.5938,353.6715 " fill="none" id="NonBranchingNoMergeNoUTurnNavigator-backto-NonBranchingNoMergeNoUTurnNoLoopNavigator" style="stroke:#545454;stroke-width:1.5625;"/><polygon fill="none" points="637.7292,272.3174,645.8958,251.8174,652.3021,272.9424,637.7292,272.3174" style="stroke:#545454;stroke-width:1.5625;"/><!--MD5=[c53794555269482143091151846fc1e0]
reverse link Navigator to NonBranchingNoUTurnNavigator--><path codeLine="30" d="M716.4792,107.5153 C770.4167,129.8486 845.8438,161.0778 905.9375,185.9528 " fill="none" id="Navigator-backto-NonBranchingNoUTurnNavigator" style="stroke:#545454;stroke-width:1.5625;"/><polygon fill="none" points="713.3958,114.1299,696.9271,99.4215,718.9688,100.6611,713.3958,114.1299" style="stroke:#545454;stroke-width:1.5625;"/><!--MD5=[515a4c819645e89aea0af77b9c34b5f7]
reverse link NonBranchingNoUTurnNavigator to NonBranchingNoUTurnNoLoopNavigator--><path codeLine="37" d="M1004.1667,290.5257 C1004.1667,312.7653 1004.1667,336.5153 1004.1667,353.432 " fill="none" id="NonBranchingNoUTurnNavigator-backto-NonBranchingNoUTurnNoLoopNavigator" style="stroke:#545454;stroke-width:1.5625;"/><polygon fill="none" points="996.875,290.3486,1004.1667,269.5153,1011.4583,290.3486,996.875,290.3486" style="stroke:#545454;stroke-width:1.5625;"/><!--MD5=[543b42eb7863ac6c84b5d2eb0e7ff0d9]
reverse link NonBranchingNoUTurnNavigator to NonBranchingWithSpursNoUTurnNavigator--><path codeLine="42" d="M1117.9583,277.8174 C1177.2188,303.3903 1246.8646,333.4528 1293.6354,353.6403 " fill="none" id="NonBranchingNoUTurnNavigator-backto-NonBranchingWithSpursNoUTurnNavigator" style="stroke:#545454;stroke-width:1.5625;"/><polygon fill="none" points="1114.9583,284.4632,1098.7188,269.5153,1120.7396,271.0778,1114.9583,284.4632" style="stroke:#545454;stroke-width:1.5625;"/><!--MD5=[1ced9f9c1c6159cc5dffd5ef558029c7]
reverse link Navigator to WayNavigator--><path codeLine="47" d="M718.0521,79.8903 C824.5208,83.8382 1029.9271,99.9736 1190.625,164.1195 C1204.2917,169.5778 1217.9375,177.4007 1230.3333,185.682 " fill="none" id="Navigator-backto-WayNavigator" style="stroke:#545454;stroke-width:1.5625;"/><polygon fill="none" points="717.7813,87.1715,697.1875,79.2236,718.25,72.5986,717.7813,87.1715" style="stroke:#545454;stroke-width:1.5625;"/><!--MD5=[ba259a536f68aecdabe8b68652918376]
@startuml

    !include lexakai.theme
    
    title "com.telenav.mesakit.graph.navigation.navigators"
    
    Navigator <|- - NamedRoadNavigator
    class NamedRoadNavigator
    {
        - -(constructors)- -
        +NamedRoadNavigator(RoadName)
        - -(filtering)- -
        #boolean accept(Edge)
    }
    
    Navigator <|- - NonBranchingNavigator
    class NonBranchingNavigator
    {
    }
    
    Navigator <|- - NonBranchingNoMergeNoUTurnNavigator
    class NonBranchingNoMergeNoUTurnNavigator
    {
    }
    
    NonBranchingNoMergeNoUTurnNavigator <|- - NonBranchingNoMergeNoUTurnNoLoopNavigator
    class NonBranchingNoMergeNoUTurnNoLoopNavigator
    {
    }
    
    Navigator <|- - NonBranchingNoUTurnNavigator
    class NonBranchingNoUTurnNavigator
    {
        - -(iteration)- -
        #Edge next(Edge, Count size, EdgeSequence nextEdges)
    }
    
    NonBranchingNoUTurnNavigator <|- - NonBranchingNoUTurnNoLoopNavigator
    class NonBranchingNoUTurnNoLoopNavigator
    {
    }
    
    NonBranchingNoUTurnNavigator <|- - NonBranchingWithSpursNoUTurnNavigator
    class NonBranchingWithSpursNoUTurnNavigator
    {
    }
    
    Navigator <|- - WayNavigator
    class WayNavigator
    {
        - -(constructors)- -
        +WayNavigator(Edge)
    }
    
@enduml

@startuml









skinparam backgroundColor #333333






skinparam  {
    defaultFontName   "Open Sans,Avenir,Nunito,Arial,Helvetica,SansSerif"
    defaultFontSize   12
    defaultTextAlignment left
    shadowing false
    RoundCorner 10
    TitleFontSize 18
}

skinparam defaultFontName       "Open Sans,Avenir,Nunito,Arial,Helvetica,SansSerif"
skinparam defaultFontSize       12
skinparam dpi                   100
skinparam shadowing             false
skinparam roundcorner           16
skinparam ParticipantPadding    40
skinparam BoxPadding            40
skinparam Padding               3
skinparam ArrowColor            #545454
skinparam stereotype {
    CBackgroundColor #0066cf
    CBorderColor #0086ef
    ABackgroundColor #C8Ac00
    ABorderColor #D8Bc00
    IBackgroundColor #008400
    IBorderColor #239c23
    EBackgroundColor #cf6300
    EBorderColor #ef8300
    NBackgroundColor #3380b9
    NBorderColor #004d86
}
skinparam title {
	FontColor	                 #c0c0c0
 	BorderColor                  #545454
	FontSize	    	         20
	BorderRoundCorner            16
	BorderThickness 	         1
	BackgroundColor              #48494b
}


skinparam legend {
	BackgroundColor #303030
	BorderColor #404040
	FontColor #a0a0a0
}

	skinparam swimlane {
	BorderColor #5e5e5e
	BorderThickness 2
	TitleBackgroundColor  #6d6d6d-#484848
	TitleFontColor #303030
}

skinparam activity {
		FontColor #C8Ac00
	BorderColor #333333
	BackgroundColor #333333-#333333
	BarColor #00FF00
	StartColor #0060a8
	EndColor #0060a8
	DiamondBackgroundColor #6d6d6d-#3a3a3a
  	DiamondBorderColor #3a3a3a
  	DiamondFontColor #fefefe
}


skinparam participant {
		FontColor #C8Ac00
	BorderColor #333333
	BackgroundColor #333333-#333333
	ParticipantBorderThickness 2
}


skinparam actor {
		FontColor #C8Ac00
	BorderColor #333333
	BackgroundColor #333333-#333333
}


skinparam arrow {
	Thickness 1.5
	Color #545454
	FontColor #a0a0a0
    FontStyle bold
    MessageAlignment center
}



skinparam sequence {
	BorderColor #303030
	TitleFontColor #303030
	BackgroundColor #333333
	StartColor #303030
	EndColor #303030
	BoxBackgroundColor #333333
	BoxBorderColor #484848
	BoxFontColor #484848
	LifeLineBorderColor #484848
	LifeLineBorderThickness 2
	LifeLineBackgroundColor #3a3a3a
	GroupBorderColor #484848
	GroupFontColor #484848
	GroupHeaderFontColor #0060a8
	GroupBackgroundColor #484848
	GroupHeaderBackgroundColor #333333
	DividerBackgroundColor #484848
    DividerBorderColor #484848
    DividerBorderThickness 2
    DividerFontColor #D8Bc00
	ReferenceBackgroundColor #333333
	ReferenceBorderColor #484848
	ReferenceFontColor #fefefe
	ReferenceHeaderBackgroundColor #484848
}


skinparam partition {
	BorderColor #303030
	FontColor #333333
	BackgroundColor #333333
}


skinparam collections {
		FontColor #C8Ac00
	BorderColor #333333
	BackgroundColor #333333-#333333
}


skinparam control {
		FontColor #C8Ac00
	BorderColor #333333
	BackgroundColor #333333-#333333
}


skinparam entity {
		FontColor #C8Ac00
	BorderColor #333333
	BackgroundColor #333333-#333333
}


skinparam boundary {
		FontColor #C8Ac00
	BorderColor #333333
	BackgroundColor #333333-#333333
}


skinparam agent {
	BackgroundColor #ff8000
	BorderColor #ff9933
	FontColor #484848
}


skinparam note {
	BorderThickness 1
	BackgroundColor #1b1b1a
	BorderColor #5e5e5e
	FontSize 11
	FontColor #a0a0a0
}


skinparam artifact {
	BorderThickness 10
	BorderColor #5e5e5e
	BackgroundColor #1b1b1a
	FontColor #D8Bc00
}


skinparam component {
		FontColor #C8Ac00
	BorderColor #333333
	BackgroundColor #333333-#333333
}


skinparam interface {
	BackgroundColor  #008400
	BorderColor  #007F00
	FontColor #484848
}


skinparam storage {
	BackgroundColor #ff8000
  	BorderColor #cc6600
	FontColor #222222
}


skinparam node {
	BackgroundColor #333333
	BorderColor #333333
	FontColor #C8Ac00
}


skinparam cloud {
	BackgroundColor #484848-black
	BorderColor #484848
	FontColor #D8Bc00
}


skinparam database {
		FontColor #C8Ac00
	BorderColor #333333
	BackgroundColor #333333-#333333
	BackgroundColor  #333333
}


skinparam class {
		FontColor #C8Ac00
	BorderColor #333333
	BackgroundColor #333333-#333333
	HeaderBackgroundColor #1b1b1a
    BackgroundColor #282828
    BorderColor #5e5e5e
 	StereotypeFontColor #a0a0a0
    StereotypeFontStyle bold
	BorderThickness 1
	AttributeFontColor #D8Bc00
	AttributeFontSize 11
    FontColor #D8Bc00
    FontStyle bold
}


skinparam object {
		FontColor #C8Ac00
	BorderColor #333333
	BackgroundColor #333333-#333333
	StereotypeFontColor #484848
	BorderThickness 1
	AttributeFontColor #fefefe
	AttributeFontSize 11
}


skinparam usecase {
		FontColor #C8Ac00
	BorderColor #333333
	BackgroundColor #333333-#333333
	BorderThickness 2
	StereotypeFontColor #303030
}


skinparam rectangle {
		FontColor #C8Ac00
	BorderColor #333333
	BackgroundColor #333333-#333333
	BackgroundColor #333333
	BorderThickness 2
	StereotypeFontColor #303030
}


skinparam package {
		FontColor #C8Ac00
	BorderColor #333333
	BackgroundColor #333333-#333333
	BackgroundColor #333333
	BorderThickness 2
}


skinparam folder {
	BackgroundColor #6d6d6d
  	BorderColor #ff8000
	FontColor #ff8000
	BorderThickness 2
}


skinparam frame {
	BackgroundColor #6d6d6d
  	BorderColor #0060a8
	FontColor #0060a8
	BorderThickness 2
}


skinparam state {
		FontColor #C8Ac00
	BorderColor #333333
	BackgroundColor #333333-#333333
	StartColor #0060a8
	EndColor #0060a8
	AttributeFontColor #fefefe
	AttributeFontSize 11
}


skinparam queue {
		FontColor #C8Ac00
	BorderColor #333333
	BackgroundColor #333333-#333333
}


skinparam card {
	BackgroundColor #0060a8
	BorderColor #004d86
	FontColor $INFO_TEXT
}


skinparam file {
	BackgroundColor #6d6d6d-#484848
	BorderColor #0060a8
	FontColor #fefefe
}


skinparam stack {
		FontColor #C8Ac00
	BorderColor #333333
	BackgroundColor #333333-#333333
}

    
    title "com.telenav.mesakit.graph.navigation.navigators"
    
    Navigator <|- - NamedRoadNavigator
    class NamedRoadNavigator
    {
        - -(constructors)- -
        +NamedRoadNavigator(RoadName)
        - -(filtering)- -
        #boolean accept(Edge)
    }
    
    Navigator <|- - NonBranchingNavigator
    class NonBranchingNavigator
    {
    }
    
    Navigator <|- - NonBranchingNoMergeNoUTurnNavigator
    class NonBranchingNoMergeNoUTurnNavigator
    {
    }
    
    NonBranchingNoMergeNoUTurnNavigator <|- - NonBranchingNoMergeNoUTurnNoLoopNavigator
    class NonBranchingNoMergeNoUTurnNoLoopNavigator
    {
    }
    
    Navigator <|- - NonBranchingNoUTurnNavigator
    class NonBranchingNoUTurnNavigator
    {
        - -(iteration)- -
        #Edge next(Edge, Count size, EdgeSequence nextEdges)
    }
    
    NonBranchingNoUTurnNavigator <|- - NonBranchingNoUTurnNoLoopNavigator
    class NonBranchingNoUTurnNoLoopNavigator
    {
    }
    
    NonBranchingNoUTurnNavigator <|- - NonBranchingWithSpursNoUTurnNavigator
    class NonBranchingWithSpursNoUTurnNavigator
    {
    }
    
    Navigator <|- - WayNavigator
    class WayNavigator
    {
        - -(constructors)- -
        +WayNavigator(Edge)
    }
    
@enduml

PlantUML version 1.2021.01(Tue Feb 02 00:55:08 MST 2021)
(GPL source distribution)
Java Runtime: OpenJDK Runtime Environment
JVM: OpenJDK 64-Bit Server VM
Default Encoding: UTF-8
Language: en
Country: US
--></g></svg>