<?xml version="1.0" encoding="UTF-8" standalone="no"?><svg xmlns="http://www.w3.org/2000/svg" xmlns:xlink="http://www.w3.org/1999/xlink" contentScriptType="application/ecmascript" contentStyleType="text/css" height="254.1667px" preserveAspectRatio="none" style="width:592px;height:254px;background:#333333;" version="1.1" viewBox="0 0 592 254" width="592.7083px" zoomAndPan="magnify"><defs/><g><rect fill="#48494B" height="41.2028" rx="8.3333" ry="8.3333" style="stroke:#545454;stroke-width:1.0416666666666667;" width="580.2083" x="2.0833" y="2.0833"/><text fill="#C0C0C0" font-family="Open Sans,Avenir,Nunito,Arial,Helvetica,SansSerif" font-size="20.8333" lengthAdjust="spacing" textLength="557.2917" x="13.5417" y="30.5583">com.telenav.mesakit.graph.geocoding.reverse.matching</text><rect codeLine="14" fill="#282828" height="83.3781" id="RoadNameMatcher" rx="8.3333" ry="8.3333" style="stroke:#5E5E5E;stroke-width:1.0416666666666667;" width="359.375" x="119.7917" y="53.7028"/><rect fill="#1B1B1A" height="31.3883" rx="8.3333" ry="8.3333" style="stroke:#1B1B1A;stroke-width:1.0416666666666667;" width="359.375" x="119.7917" y="53.7028"/><rect fill="#1B1B1A" height="8.3333" style="stroke:#1B1B1A;stroke-width:1.0416666666666667;" width="359.375" x="119.7917" y="76.7578"/><rect codeLine="14" fill="none" height="83.3781" id="RoadNameMatcher" rx="8.3333" ry="8.3333" style="stroke:#5E5E5E;stroke-width:1.0416666666666667;" width="359.375" x="119.7917" y="53.7028"/><ellipse cx="232.2917" cy="69.397" fill="#008400" rx="10.4167" ry="10.4167" style="stroke:#239C23;stroke-width:1.0416666666666667;"/><path d="M229.6956,66.5588 L229.6956,64.9719 L235.1217,64.9719 L235.1217,66.5588 L233.3089,66.5588 L233.3089,72.4976 L235.1217,72.4976 L235.1217,74.0845 L229.6956,74.0845 L229.6956,72.4976 L231.5084,72.4976 L231.5084,66.5588 Z " fill="#000000"/><text fill="#D8BC00" font-family="Open Sans,Avenir,Nunito,Arial,Helvetica,SansSerif" font-size="12.5" font-style="italic" font-weight="bold" lengthAdjust="spacing" textLength="119.7917" x="255.2083" y="74.1211">RoadNameMatcher</text><line style="stroke:#5E5E5E;stroke-width:1.5625;" x1="120.8333" x2="478.125" y1="85.0911" y2="85.0911"/><ellipse cx="131.25" cy="120.461" fill="#84BE84" rx="3.125" ry="3.125" style="stroke:#038048;stroke-width:1.0416666666666667;"/><text fill="#D8BC00" font-family="Open Sans,Avenir,Nunito,Arial,Helvetica,SansSerif" font-size="11.4583" lengthAdjust="spacing" textLength="327.0833" x="142.7083" y="127.3722">Percent matches(RoadName candidate, RoadName desired)</text><line style="stroke:#5E5E5E;stroke-width:1.0416666666666667;" x1="120.8333" x2="278.125" y1="103.2969" y2="103.2969"/><text fill="#D8BC00" font-family="Open Sans,Avenir,Nunito,Arial,Helvetica,SansSerif" font-size="11.4583" lengthAdjust="spacing" textLength="36.4583" x="281.25" y="107.1065">(math)</text><line style="stroke:#5E5E5E;stroke-width:1.0416666666666667;" x1="320.8333" x2="478.125" y1="103.2969" y2="103.2969"/><rect codeLine="10" fill="#282828" height="48.055" id="FuzzyRoadNameMatcher" rx="8.3333" ry="8.3333" style="stroke:#5E5E5E;stroke-width:1.0416666666666667;" width="194.7917" x="202.0833" y="199.5361"/><rect fill="#1B1B1A" height="31.3883" rx="8.3333" ry="8.3333" style="stroke:#1B1B1A;stroke-width:1.0416666666666667;" width="194.7917" x="202.0833" y="199.5361"/><rect fill="#1B1B1A" height="8.3333" style="stroke:#1B1B1A;stroke-width:1.0416666666666667;" width="194.7917" x="202.0833" y="222.5911"/><rect codeLine="10" fill="none" height="48.055" id="FuzzyRoadNameMatcher" rx="8.3333" ry="8.3333" style="stroke:#5E5E5E;stroke-width:1.0416666666666667;" width="194.7917" x="202.0833" y="199.5361"/><ellipse cx="216.6667" cy="215.2303" fill="#0066CF" rx="10.4167" ry="10.4167" style="stroke:#0086EF;stroke-width:1.0416666666666667;"/><path d="M218.5771,219.6554 Q218.1498,219.8751 217.6799,219.9849 Q217.2099,220.0948 216.6911,220.0948 Q214.8478,220.0948 213.8774,218.8802 Q212.9069,217.6656 212.9069,215.3707 Q212.9069,213.0697 213.8774,211.8551 Q214.8478,210.6405 216.6911,210.6405 Q217.2099,210.6405 217.686,210.7503 Q218.162,210.8602 218.5771,211.0799 L218.5771,213.0819 Q218.1132,212.6546 217.6768,212.4563 Q217.2404,212.2579 216.7765,212.2579 Q215.7878,212.2579 215.2842,213.0422 Q214.7807,213.8265 214.7807,215.3707 Q214.7807,216.9088 215.2842,217.6931 Q215.7878,218.4774 216.7765,218.4774 Q217.2404,218.4774 217.6768,218.279 Q218.1132,218.0806 218.5771,217.6534 Z " fill="#000000"/><text fill="#D8BC00" font-family="Open Sans,Avenir,Nunito,Arial,Helvetica,SansSerif" font-size="12.5" font-weight="bold" lengthAdjust="spacing" textLength="157.2917" x="233.3333" y="219.9544">FuzzyRoadNameMatcher</text><line style="stroke:#5E5E5E;stroke-width:1.0416666666666667;" x1="203.125" x2="395.8333" y1="230.9245" y2="230.9245"/><line style="stroke:#5E5E5E;stroke-width:1.0416666666666667;" x1="203.125" x2="395.8333" y1="239.2578" y2="239.2578"/><path codeLine="9" d="M299.4792,158.359 C299.4792,173.0049 299.4792,187.7236 299.4792,199.359 " fill="none" id="RoadNameMatcher-backto-FuzzyRoadNameMatcher" style="stroke:#545454;stroke-width:1.5625;"/><polygon fill="none" points="292.1875,158.1715,299.4792,137.3382,306.7708,158.1715,292.1875,158.1715" style="stroke:#545454;stroke-width:1.5625;"/></g></svg>
