<?xml version="1.0" encoding="UTF-8" standalone="no"?><svg xmlns="http://www.w3.org/2000/svg" xmlns:xlink="http://www.w3.org/1999/xlink" contentScriptType="application/ecmascript" contentStyleType="text/css" height="238.5417px" preserveAspectRatio="none" style="width:517px;height:238px;background:#333333;" version="1.1" viewBox="0 0 517 238" width="517.7083px" zoomAndPan="magnify"><defs/><g><rect fill="#48494B" height="41.2028" rx="8.3333" ry="8.3333" style="stroke:#545454;stroke-width:1.0416666666666667;" width="505.2083" x="2.0833" y="2.0833"/><text fill="#C0C0C0" font-family="Open Sans,Avenir,Nunito,Arial,Helvetica,SansSerif" font-size="20.8333" lengthAdjust="spacing" textLength="482.2917" x="13.5417" y="30.5583">com.telenav.mesakit.tools.applications.pbf.filter</text><rect fill="#282828" height="48.055" id="Application" rx="8.3333" ry="8.3333" style="stroke:#5E5E5E;stroke-width:1.0416666666666667;" width="111.4583" x="96.0938" y="53.7028"/><rect fill="#1B1B1A" height="31.3883" rx="8.3333" ry="8.3333" style="stroke:#1B1B1A;stroke-width:1.0416666666666667;" width="111.4583" x="96.0938" y="53.7028"/><rect fill="#1B1B1A" height="8.3333" style="stroke:#1B1B1A;stroke-width:1.0416666666666667;" width="111.4583" x="96.0938" y="76.7578"/><rect fill="none" height="48.055" id="Application" rx="8.3333" ry="8.3333" style="stroke:#5E5E5E;stroke-width:1.0416666666666667;" width="111.4583" x="96.0938" y="53.7028"/><ellipse cx="110.6771" cy="69.397" fill="#0066CF" rx="10.4167" ry="10.4167" style="stroke:#0086EF;stroke-width:1.0416666666666667;"/><path d="M112.5875,73.822 Q112.1602,74.0417 111.6903,74.1516 Q111.2203,74.2615 110.7015,74.2615 Q108.8582,74.2615 107.8878,73.0469 Q106.9173,71.8323 106.9173,69.5374 Q106.9173,67.2363 107.8878,66.0217 Q108.8582,64.8071 110.7015,64.8071 Q111.2203,64.8071 111.6964,64.917 Q112.1724,65.0269 112.5875,65.2466 L112.5875,67.2485 Q112.1236,66.8213 111.6872,66.6229 Q111.2508,66.4246 110.7869,66.4246 Q109.7982,66.4246 109.2946,67.2089 Q108.7911,67.9932 108.7911,69.5374 Q108.7911,71.0754 109.2946,71.8597 Q109.7982,72.644 110.7869,72.644 Q111.2508,72.644 111.6872,72.4457 Q112.1236,72.2473 112.5875,71.8201 Z " fill="#000000"/><text fill="#D8BC00" font-family="Open Sans,Avenir,Nunito,Arial,Helvetica,SansSerif" font-size="12.5" font-weight="bold" lengthAdjust="spacing" textLength="73.9583" x="127.3438" y="74.1211">Application</text><line style="stroke:#5E5E5E;stroke-width:1.0416666666666667;" x1="97.1354" x2="206.5104" y1="85.0911" y2="85.0911"/><line style="stroke:#5E5E5E;stroke-width:1.0416666666666667;" x1="97.1354" x2="206.5104" y1="93.4245" y2="93.4245"/><rect codeLine="8" fill="#282828" height="67.7999" id="PbfFilterApplication" rx="8.3333" ry="8.3333" style="stroke:#5E5E5E;stroke-width:1.0416666666666667;" width="200" x="51.8229" y="164.1195"/><rect fill="#1B1B1A" height="31.3883" rx="8.3333" ry="8.3333" style="stroke:#1B1B1A;stroke-width:1.0416666666666667;" width="200" x="51.8229" y="164.1195"/><rect fill="#1B1B1A" height="8.3333" style="stroke:#1B1B1A;stroke-width:1.0416666666666667;" width="200" x="51.8229" y="187.1745"/><rect codeLine="8" fill="none" height="67.7999" id="PbfFilterApplication" rx="8.3333" ry="8.3333" style="stroke:#5E5E5E;stroke-width:1.0416666666666667;" width="200" x="51.8229" y="164.1195"/><ellipse cx="81.875" cy="179.8136" fill="#0066CF" rx="10.4167" ry="10.4167" style="stroke:#0086EF;stroke-width:1.0416666666666667;"/><path d="M83.7854,184.2387 Q83.3582,184.4584 82.8882,184.5683 Q82.4182,184.6781 81.8994,184.6781 Q80.0562,184.6781 79.0857,183.4635 Q78.1152,182.2489 78.1152,179.954 Q78.1152,177.653 79.0857,176.4384 Q80.0562,175.2238 81.8994,175.2238 Q82.4182,175.2238 82.8943,175.3337 Q83.3704,175.4435 83.7854,175.6632 L83.7854,177.6652 Q83.3215,177.238 82.8851,177.0396 Q82.4487,176.8412 81.9849,176.8412 Q80.9961,176.8412 80.4926,177.6255 Q79.989,178.4098 79.989,179.954 Q79.989,181.4921 80.4926,182.2764 Q80.9961,183.0607 81.9849,183.0607 Q82.4487,183.0607 82.8851,182.8623 Q83.3215,182.664 83.7854,182.2367 Z " fill="#000000"/><text fill="#D8BC00" font-family="Open Sans,Avenir,Nunito,Arial,Helvetica,SansSerif" font-size="12.5" font-weight="bold" lengthAdjust="spacing" textLength="128.125" x="101.9792" y="184.5378">PbfFilterApplication</text><line style="stroke:#5E5E5E;stroke-width:1.5625;" x1="52.8646" x2="250.7813" y1="195.5078" y2="195.5078"/><line style="stroke:#5E5E5E;stroke-width:1.0416666666666667;" x1="52.8646" x2="250.7813" y1="203.8411" y2="203.8411"/><ellipse cx="63.2813" cy="215.2995" fill="#84BE84" rx="3.125" ry="3.125" style="stroke:#038048;stroke-width:1.0416666666666667;"/><text fill="#D8BC00" font-family="Open Sans,Avenir,Nunito,Arial,Helvetica,SansSerif" font-size="11.4583" lengthAdjust="spacing" textLength="167.7083" x="74.7396" y="222.2107">void main(String[] arguments)</text><rect codeLine="14" fill="#282828" height="48.055" id="PbfFilterApplication.Statistics" rx="8.3333" ry="8.3333" style="stroke:#5E5E5E;stroke-width:1.0416666666666667;" width="228.125" x="244.0104" y="53.7028"/><rect fill="#1B1B1A" height="31.3883" rx="8.3333" ry="8.3333" style="stroke:#1B1B1A;stroke-width:1.0416666666666667;" width="228.125" x="244.0104" y="53.7028"/><rect fill="#1B1B1A" height="8.3333" style="stroke:#1B1B1A;stroke-width:1.0416666666666667;" width="228.125" x="244.0104" y="76.7578"/><rect codeLine="14" fill="none" height="48.055" id="PbfFilterApplication.Statistics" rx="8.3333" ry="8.3333" style="stroke:#5E5E5E;stroke-width:1.0416666666666667;" width="228.125" x="244.0104" y="53.7028"/><ellipse cx="258.5938" cy="69.397" fill="#0066CF" rx="10.4167" ry="10.4167" style="stroke:#0086EF;stroke-width:1.0416666666666667;"/><path d="M260.5042,73.822 Q260.0769,74.0417 259.6069,74.1516 Q259.137,74.2615 258.6182,74.2615 Q256.7749,74.2615 255.8044,73.0469 Q254.834,71.8323 254.834,69.5374 Q254.834,67.2363 255.8044,66.0217 Q256.7749,64.8071 258.6182,64.8071 Q259.137,64.8071 259.613,64.917 Q260.0891,65.0269 260.5042,65.2466 L260.5042,67.2485 Q260.0403,66.8213 259.6039,66.6229 Q259.1675,66.4246 258.7036,66.4246 Q257.7148,66.4246 257.2113,67.2089 Q256.7078,67.9932 256.7078,69.5374 Q256.7078,71.0754 257.2113,71.8597 Q257.7148,72.644 258.7036,72.644 Q259.1675,72.644 259.6039,72.4457 Q260.0403,72.2473 260.5042,71.8201 Z " fill="#000000"/><text fill="#D8BC00" font-family="Open Sans,Avenir,Nunito,Arial,Helvetica,SansSerif" font-size="12.5" font-weight="bold" lengthAdjust="spacing" textLength="190.625" x="275.2604" y="74.1211">PbfFilterApplication.Statistics</text><line style="stroke:#5E5E5E;stroke-width:1.0416666666666667;" x1="245.0521" x2="471.0938" y1="85.0911" y2="85.0911"/><line style="stroke:#5E5E5E;stroke-width:1.0416666666666667;" x1="245.0521" x2="471.0938" y1="93.4245" y2="93.4245"/><path codeLine="7" d="M151.8229,123.0674 C151.8229,136.6715 151.8229,151.3799 151.8229,164.0674 " fill="none" id="Application-backto-PbfFilterApplication" style="stroke:#545454;stroke-width:1.5625;"/><polygon fill="none" points="144.5313,122.609,151.8229,101.7757,159.1146,122.609,144.5313,122.609" style="stroke:#545454;stroke-width:1.5625;"/></g></svg>
