<?xml version="1.0" encoding="UTF-8" standalone="no"?><svg xmlns="http://www.w3.org/2000/svg" xmlns:xlink="http://www.w3.org/1999/xlink" contentScriptType="application/ecmascript" contentStyleType="text/css" height="108.3333px" preserveAspectRatio="none" style="width:465px;height:108px;background:#333333;" version="1.1" viewBox="0 0 465 108" width="465.625px" zoomAndPan="magnify"><defs/><g><rect fill="#48494B" height="41.2028" rx="8.3333" ry="8.3333" style="stroke:#545454;stroke-width:1.0416666666666667;" width="453.125" x="2.0833" y="2.0833"/><text fill="#C0C0C0" font-family="Open Sans,Avenir,Nunito,Arial,Helvetica,SansSerif" font-size="20.8333" lengthAdjust="spacing" textLength="430.2083" x="13.5417" y="30.5583">com.telenav.mesakit.map.data.formats.pbf</text><rect codeLine="7" fill="#282828" height="48.055" id="PbfLimits" rx="8.3333" ry="8.3333" style="stroke:#5E5E5E;stroke-width:1.0416666666666667;" width="98.9583" x="179.6875" y="53.7028"/><rect fill="#1B1B1A" height="31.3883" rx="8.3333" ry="8.3333" style="stroke:#1B1B1A;stroke-width:1.0416666666666667;" width="98.9583" x="179.6875" y="53.7028"/><rect fill="#1B1B1A" height="8.3333" style="stroke:#1B1B1A;stroke-width:1.0416666666666667;" width="98.9583" x="179.6875" y="76.7578"/><rect codeLine="7" fill="none" height="48.055" id="PbfLimits" rx="8.3333" ry="8.3333" style="stroke:#5E5E5E;stroke-width:1.0416666666666667;" width="98.9583" x="179.6875" y="53.7028"/><ellipse cx="194.2708" cy="69.397" fill="#0066CF" rx="10.4167" ry="10.4167" style="stroke:#0086EF;stroke-width:1.0416666666666667;"/><path d="M196.1812,73.822 Q195.754,74.0417 195.284,74.1516 Q194.814,74.2615 194.2952,74.2615 Q192.452,74.2615 191.4815,73.0469 Q190.5111,71.8323 190.5111,69.5374 Q190.5111,67.2363 191.4815,66.0217 Q192.452,64.8071 194.2952,64.8071 Q194.814,64.8071 195.2901,64.917 Q195.7662,65.0269 196.1812,65.2466 L196.1812,67.2485 Q195.7174,66.8213 195.281,66.6229 Q194.8446,66.4246 194.3807,66.4246 Q193.3919,66.4246 192.8884,67.2089 Q192.3848,67.9932 192.3848,69.5374 Q192.3848,71.0754 192.8884,71.8597 Q193.3919,72.644 194.3807,72.644 Q194.8446,72.644 195.281,72.4457 Q195.7174,72.2473 196.1812,71.8201 Z " fill="#000000"/><text fill="#D8BC00" font-family="Open Sans,Avenir,Nunito,Arial,Helvetica,SansSerif" font-size="12.5" font-weight="bold" lengthAdjust="spacing" textLength="61.4583" x="210.9375" y="74.1211">PbfLimits</text><line style="stroke:#5E5E5E;stroke-width:1.0416666666666667;" x1="180.7292" x2="277.6042" y1="85.0911" y2="85.0911"/><line style="stroke:#5E5E5E;stroke-width:1.0416666666666667;" x1="180.7292" x2="277.6042" y1="93.4245" y2="93.4245"/></g></svg>
