<?xml version="1.0" encoding="UTF-8" standalone="no"?><svg xmlns="http://www.w3.org/2000/svg" xmlns:xlink="http://www.w3.org/1999/xlink" contentScriptType="application/ecmascript" contentStyleType="text/css" height="547.9167px" preserveAspectRatio="none" style="width:654px;height:547px;background:#333333;" version="1.1" viewBox="0 0 654 547" width="654.1667px" zoomAndPan="magnify"><defs/><g><rect fill="#48494B" height="41.2028" rx="8.3333" ry="8.3333" style="stroke:#545454;stroke-width:1.0416666666666667;" width="641.6667" x="2.0833" y="2.0833"/><text fill="#C0C0C0" font-family="Open Sans,Avenir,Nunito,Arial,Helvetica,SansSerif" font-size="20.8333" lengthAdjust="spacing" textLength="618.75" x="13.5417" y="30.5583">com.telenav.mesakit.map.data.formats.pbf.processing.writers</text><rect codeLine="9" fill="#282828" height="317.2384" id="PbfWriter" rx="8.3333" ry="8.3333" style="stroke:#5E5E5E;stroke-width:1.0416666666666667;" width="335.4167" x="162.5" y="53.7028"/><rect fill="#1B1B1A" height="31.3883" rx="8.3333" ry="8.3333" style="stroke:#1B1B1A;stroke-width:1.0416666666666667;" width="335.4167" x="162.5" y="53.7028"/><rect fill="#1B1B1A" height="8.3333" style="stroke:#1B1B1A;stroke-width:1.0416666666666667;" width="335.4167" x="162.5" y="76.7578"/><rect codeLine="9" fill="none" height="317.2384" id="PbfWriter" rx="8.3333" ry="8.3333" style="stroke:#5E5E5E;stroke-width:1.0416666666666667;" width="335.4167" x="162.5" y="53.7028"/><ellipse cx="293.2292" cy="69.397" fill="#0066CF" rx="10.4167" ry="10.4167" style="stroke:#0086EF;stroke-width:1.0416666666666667;"/><path d="M295.1396,73.822 Q294.7123,74.0417 294.2424,74.1516 Q293.7724,74.2615 293.2536,74.2615 Q291.4103,74.2615 290.4399,73.0469 Q289.4694,71.8323 289.4694,69.5374 Q289.4694,67.2363 290.4399,66.0217 Q291.4103,64.8071 293.2536,64.8071 Q293.7724,64.8071 294.2485,64.917 Q294.7245,65.0269 295.1396,65.2466 L295.1396,67.2485 Q294.6757,66.8213 294.2393,66.6229 Q293.8029,66.4246 293.339,66.4246 Q292.3503,66.4246 291.8467,67.2089 Q291.3432,67.9932 291.3432,69.5374 Q291.3432,71.0754 291.8467,71.8597 Q292.3503,72.644 293.339,72.644 Q293.8029,72.644 294.2393,72.4457 Q294.6757,72.2473 295.1396,71.8201 Z " fill="#000000"/><text fill="#D8BC00" font-family="Open Sans,Avenir,Nunito,Arial,Helvetica,SansSerif" font-size="12.5" font-weight="bold" lengthAdjust="spacing" textLength="59.375" x="316.1458" y="74.1211">PbfWriter</text><line style="stroke:#5E5E5E;stroke-width:1.5625;" x1="163.5417" x2="496.875" y1="85.0911" y2="85.0911"/><ellipse cx="173.9583" cy="120.461" fill="#84BE84" rx="3.125" ry="3.125" style="stroke:#038048;stroke-width:1.0416666666666667;"/><text fill="#D8BC00" font-family="Open Sans,Avenir,Nunito,Arial,Helvetica,SansSerif" font-size="11.4583" lengthAdjust="spacing" textLength="207.2917" x="185.4167" y="127.3722">PbfWriter(WritableResource, boolean)</text><line style="stroke:#5E5E5E;stroke-width:1.0416666666666667;" x1="163.5417" x2="286.4583" y1="103.2969" y2="103.2969"/><text fill="#D8BC00" font-family="Open Sans,Avenir,Nunito,Arial,Helvetica,SansSerif" font-size="11.4583" lengthAdjust="spacing" textLength="81.25" x="289.5833" y="107.1065">(constructors)</text><line style="stroke:#5E5E5E;stroke-width:1.0416666666666667;" x1="373.9583" x2="496.875" y1="103.2969" y2="103.2969"/><line style="stroke:#5E5E5E;stroke-width:1.0416666666666667;" x1="163.5417" x2="496.875" y1="137.0809" y2="137.0809"/><ellipse cx="173.9583" cy="148.5392" fill="#84BE84" rx="3.125" ry="3.125" style="stroke:#038048;stroke-width:1.0416666666666667;"/><text fill="#D8BC00" font-family="Open Sans,Avenir,Nunito,Arial,Helvetica,SansSerif" font-size="11.4583" lengthAdjust="spacing" textLength="158.3333" x="185.4167" y="155.4504">WritableResource resource()</text><ellipse cx="173.9583" cy="192.1956" fill="#84BE84" rx="3.125" ry="3.125" style="stroke:#038048;stroke-width:1.0416666666666667;"/><text fill="#D8BC00" font-family="Open Sans,Avenir,Nunito,Arial,Helvetica,SansSerif" font-size="11.4583" lengthAdjust="spacing" textLength="64.5833" x="185.4167" y="199.1069">void close()</text><line style="stroke:#5E5E5E;stroke-width:1.0416666666666667;" x1="163.5417" x2="317.7083" y1="175.0315" y2="175.0315"/><text fill="#D8BC00" font-family="Open Sans,Avenir,Nunito,Arial,Helvetica,SansSerif" font-size="11.4583" lengthAdjust="spacing" textLength="18.75" x="320.8333" y="178.8411">(io)</text><line style="stroke:#5E5E5E;stroke-width:1.0416666666666667;" x1="342.7083" x2="496.875" y1="175.0315" y2="175.0315"/><ellipse cx="173.9583" cy="235.8521" fill="#84BE84" rx="3.125" ry="3.125" style="stroke:#038048;stroke-width:1.0416666666666667;"/><text fill="#D8BC00" font-family="Open Sans,Avenir,Nunito,Arial,Helvetica,SansSerif" font-size="11.4583" lengthAdjust="spacing" textLength="102.0833" x="185.4167" y="242.7633">void write(PbfWay)</text><ellipse cx="173.9583" cy="255.5969" fill="#84BE84" rx="3.125" ry="3.125" style="stroke:#038048;stroke-width:1.0416666666666667;"/><text fill="#D8BC00" font-family="Open Sans,Avenir,Nunito,Arial,Helvetica,SansSerif" font-size="11.4583" lengthAdjust="spacing" textLength="109.375" x="185.4167" y="262.5081">void write(PbfNode)</text><ellipse cx="173.9583" cy="275.3418" fill="#84BE84" rx="3.125" ry="3.125" style="stroke:#038048;stroke-width:1.0416666666666667;"/><text fill="#D8BC00" font-family="Open Sans,Avenir,Nunito,Arial,Helvetica,SansSerif" font-size="11.4583" lengthAdjust="spacing" textLength="125" x="185.4167" y="282.253">void write(PbfRelation)</text><ellipse cx="173.9583" cy="295.0867" fill="#84BE84" rx="3.125" ry="3.125" style="stroke:#038048;stroke-width:1.0416666666666667;"/><text fill="#D8BC00" font-family="Open Sans,Avenir,Nunito,Arial,Helvetica,SansSerif" font-size="11.4583" lengthAdjust="spacing" textLength="97.9167" x="185.4167" y="301.9979">void write(Bound)</text><ellipse cx="173.9583" cy="314.8315" fill="#84BE84" rx="3.125" ry="3.125" style="stroke:#038048;stroke-width:1.0416666666666667;"/><text fill="#D8BC00" font-family="Open Sans,Avenir,Nunito,Arial,Helvetica,SansSerif" font-size="11.4583" lengthAdjust="spacing" textLength="220.8333" x="185.4167" y="321.7428">void writeNodes(List&lt;PbfNode&gt; nodes)</text><ellipse cx="173.9583" cy="334.5764" fill="#84BE84" rx="3.125" ry="3.125" style="stroke:#038048;stroke-width:1.0416666666666667;"/><text fill="#D8BC00" font-family="Open Sans,Avenir,Nunito,Arial,Helvetica,SansSerif" font-size="11.4583" lengthAdjust="spacing" textLength="303.125" x="185.4167" y="341.4876">void writeRelations(Collection&lt;PbfRelation&gt; relations)</text><ellipse cx="173.9583" cy="354.3213" fill="#84BE84" rx="3.125" ry="3.125" style="stroke:#038048;stroke-width:1.0416666666666667;"/><text fill="#D8BC00" font-family="Open Sans,Avenir,Nunito,Arial,Helvetica,SansSerif" font-size="11.4583" lengthAdjust="spacing" textLength="198.9583" x="185.4167" y="361.2325">void writeWays(List&lt;PbfWay&gt; ways)</text><line style="stroke:#5E5E5E;stroke-width:1.0416666666666667;" x1="163.5417" x2="309.375" y1="218.6879" y2="218.6879"/><text fill="#D8BC00" font-family="Open Sans,Avenir,Nunito,Arial,Helvetica,SansSerif" font-size="11.4583" lengthAdjust="spacing" textLength="35.4167" x="312.5" y="222.4976">(write)</text><line style="stroke:#5E5E5E;stroke-width:1.0416666666666667;" x1="351.0417" x2="496.875" y1="218.6879" y2="218.6879"/><rect fill="#282828" height="48.055" id="WritableResource" rx="8.3333" ry="8.3333" style="stroke:#5E5E5E;stroke-width:1.0416666666666667;" width="148.9583" x="179.6875" y="463.5986"/><rect fill="#1B1B1A" height="31.3883" rx="8.3333" ry="8.3333" style="stroke:#1B1B1A;stroke-width:1.0416666666666667;" width="148.9583" x="179.6875" y="463.5986"/><rect fill="#1B1B1A" height="8.3333" style="stroke:#1B1B1A;stroke-width:1.0416666666666667;" width="148.9583" x="179.6875" y="486.6536"/><rect fill="none" height="48.055" id="WritableResource" rx="8.3333" ry="8.3333" style="stroke:#5E5E5E;stroke-width:1.0416666666666667;" width="148.9583" x="179.6875" y="463.5986"/><ellipse cx="194.2708" cy="479.2928" fill="#0066CF" rx="10.4167" ry="10.4167" style="stroke:#0086EF;stroke-width:1.0416666666666667;"/><path d="M196.1812,483.7179 Q195.754,483.9376 195.284,484.0474 Q194.814,484.1573 194.2952,484.1573 Q192.452,484.1573 191.4815,482.9427 Q190.5111,481.7281 190.5111,479.4332 Q190.5111,477.1322 191.4815,475.9176 Q192.452,474.703 194.2952,474.703 Q194.814,474.703 195.2901,474.8128 Q195.7662,474.9227 196.1812,475.1424 L196.1812,477.1444 Q195.7174,476.7171 195.281,476.5188 Q194.8446,476.3204 194.3807,476.3204 Q193.3919,476.3204 192.8884,477.1047 Q192.3848,477.889 192.3848,479.4332 Q192.3848,480.9713 192.8884,481.7556 Q193.3919,482.5399 194.3807,482.5399 Q194.8446,482.5399 195.281,482.3415 Q195.7174,482.1431 196.1812,481.7159 Z " fill="#000000"/><text fill="#D8BC00" font-family="Open Sans,Avenir,Nunito,Arial,Helvetica,SansSerif" font-size="12.5" font-weight="bold" lengthAdjust="spacing" textLength="111.4583" x="210.9375" y="484.0169">WritableResource</text><line style="stroke:#5E5E5E;stroke-width:1.0416666666666667;" x1="180.7292" x2="327.6042" y1="494.987" y2="494.987"/><line style="stroke:#5E5E5E;stroke-width:1.0416666666666667;" x1="180.7292" x2="327.6042" y1="503.3203" y2="503.3203"/><rect codeLine="27" fill="#282828" height="107.2896" id="PbfWriter.Phase" rx="8.3333" ry="8.3333" style="stroke:#5E5E5E;stroke-width:1.0416666666666667;" width="81.25" x="365.625" y="433.9111"/><rect fill="#1B1B1A" height="31.3883" rx="8.3333" ry="8.3333" style="stroke:#1B1B1A;stroke-width:1.0416666666666667;" width="81.25" x="365.625" y="433.9111"/><rect fill="#1B1B1A" height="8.3333" style="stroke:#1B1B1A;stroke-width:1.0416666666666667;" width="81.25" x="365.625" y="456.9661"/><rect codeLine="27" fill="none" height="107.2896" id="PbfWriter.Phase" rx="8.3333" ry="8.3333" style="stroke:#5E5E5E;stroke-width:1.0416666666666667;" width="81.25" x="365.625" y="433.9111"/><ellipse cx="383.0208" cy="449.6053" fill="#CF6300" rx="10.4167" ry="10.4167" style="stroke:#EF8300;stroke-width:1.0416666666666667;"/><path d="M386.0767,454.2928 L380.4004,454.2928 L380.4004,445.1803 L386.0767,445.1803 L386.0767,446.7672 L382.2009,446.7672 L382.2009,448.7325 L385.7104,448.7325 L385.7104,450.3194 L382.2009,450.3194 L382.2009,452.7059 L386.0767,452.7059 Z " fill="#000000"/><text fill="#D8BC00" font-family="Open Sans,Avenir,Nunito,Arial,Helvetica,SansSerif" font-size="12.5" font-weight="bold" lengthAdjust="spacing" textLength="37.5" x="400.3125" y="454.3294">Phase</text><line style="stroke:#5E5E5E;stroke-width:1.0416666666666667;" x1="366.6667" x2="445.8333" y1="465.2995" y2="465.2995"/><text fill="#D8BC00" font-family="Open Sans,Avenir,Nunito,Arial,Helvetica,SansSerif" font-size="11.4583" lengthAdjust="spacing" textLength="38.5417" x="375" y="483.669">NODES</text><text fill="#D8BC00" font-family="Open Sans,Avenir,Nunito,Arial,Helvetica,SansSerif" font-size="11.4583" lengthAdjust="spacing" textLength="62.5" x="375" y="503.4139">RELATIONS</text><text fill="#D8BC00" font-family="Open Sans,Avenir,Nunito,Arial,Helvetica,SansSerif" font-size="11.4583" lengthAdjust="spacing" textLength="31.25" x="375" y="523.1588">WAYS</text><line style="stroke:#5E5E5E;stroke-width:1.0416666666666667;" x1="366.6667" x2="445.8333" y1="532.8674" y2="532.8674"/><path codeLine="7" d="M282.4583,384.9736 C273.8333,415.9424 265.9167,444.3382 260.6667,463.182 " fill="none" id="PbfWriter-backto-WritableResource" style="stroke:#545454;stroke-width:1.5625;"/><polygon fill="#333333" points="286.1979,371.5674,280.5085,376.4718,282.8474,383.61,288.5369,378.7055,286.1979,371.5674" style="stroke:#545454;stroke-width:1.5625;"/><path codeLine="8" d="M377.9896,385.0986 C382.875,402.5986 387.5208,419.2861 391.5833,433.8799 " fill="none" id="PbfWriter-backto-PbfWriter.Phase" style="stroke:#545454;stroke-width:1.5625;"/><polygon fill="#333333" points="374.2188,371.5674,371.8798,378.7055,377.5693,383.61,379.9082,376.4718,374.2188,371.5674" style="stroke:#545454;stroke-width:1.5625;"/></g></svg>
