<?xml version="1.0" encoding="UTF-8" standalone="no"?><svg xmlns="http://www.w3.org/2000/svg" xmlns:xlink="http://www.w3.org/1999/xlink" contentScriptType="application/ecmascript" contentStyleType="text/css" height="218.75px" preserveAspectRatio="none" style="width:1881px;height:218px;background:#333333;" version="1.1" viewBox="0 0 1881 218" width="1881.25px" zoomAndPan="magnify"><defs/><g><rect fill="#48494B" height="41.2028" rx="8.3333" ry="8.3333" style="stroke:#545454;stroke-width:1.0416666666666667;" width="613.5417" x="626.8229" y="2.0833"/><text fill="#C0C0C0" font-family="Open Sans,Avenir,Nunito,Arial,Helvetica,SansSerif" font-size="20.8333" lengthAdjust="spacing" textLength="590.625" x="638.2813" y="30.5583">com.telenav.mesakit.map.data.formats.pbf.internal.lexakai</text><rect codeLine="49" fill="#282828" height="48.055" id="UmlDiagramIdentifier" rx="8.3333" ry="8.3333" style="stroke:#5E5E5E;stroke-width:1.0416666666666667;" width="178.125" x="914.0625" y="53.7028"/><rect fill="#1B1B1A" height="31.3883" rx="8.3333" ry="8.3333" style="stroke:#1B1B1A;stroke-width:1.0416666666666667;" width="178.125" x="914.0625" y="53.7028"/><rect fill="#1B1B1A" height="8.3333" style="stroke:#1B1B1A;stroke-width:1.0416666666666667;" width="178.125" x="914.0625" y="76.7578"/><rect codeLine="49" fill="none" height="48.055" id="UmlDiagramIdentifier" rx="8.3333" ry="8.3333" style="stroke:#5E5E5E;stroke-width:1.0416666666666667;" width="178.125" x="914.0625" y="53.7028"/><ellipse cx="928.6458" cy="69.397" fill="#008400" rx="10.4167" ry="10.4167" style="stroke:#239C23;stroke-width:1.0416666666666667;"/><path d="M926.0498,66.5588 L926.0498,64.9719 L931.4758,64.9719 L931.4758,66.5588 L929.6631,66.5588 L929.6631,72.4976 L931.4758,72.4976 L931.4758,74.0845 L926.0498,74.0845 L926.0498,72.4976 L927.8625,72.4976 L927.8625,66.5588 Z " fill="#000000"/><text fill="#D8BC00" font-family="Open Sans,Avenir,Nunito,Arial,Helvetica,SansSerif" font-size="12.5" font-style="italic" font-weight="bold" lengthAdjust="spacing" textLength="140.625" x="945.3125" y="74.1211">UmlDiagramIdentifier</text><line style="stroke:#5E5E5E;stroke-width:1.0416666666666667;" x1="915.1042" x2="1091.1458" y1="85.0911" y2="85.0911"/><line style="stroke:#5E5E5E;stroke-width:1.0416666666666667;" x1="915.1042" x2="1091.1458" y1="93.4245" y2="93.4245"/><rect codeLine="9" fill="#282828" height="48.055" id="DiagramPbfModelCompression" rx="8.3333" ry="8.3333" style="stroke:#5E5E5E;stroke-width:1.0416666666666667;" width="239.5833" x="7.2917" y="164.1195"/><rect fill="#1B1B1A" height="31.3883" rx="8.3333" ry="8.3333" style="stroke:#1B1B1A;stroke-width:1.0416666666666667;" width="239.5833" x="7.2917" y="164.1195"/><rect fill="#1B1B1A" height="8.3333" style="stroke:#1B1B1A;stroke-width:1.0416666666666667;" width="239.5833" x="7.2917" y="187.1745"/><rect codeLine="9" fill="none" height="48.055" id="DiagramPbfModelCompression" rx="8.3333" ry="8.3333" style="stroke:#5E5E5E;stroke-width:1.0416666666666667;" width="239.5833" x="7.2917" y="164.1195"/><ellipse cx="21.875" cy="179.8136" fill="#008400" rx="10.4167" ry="10.4167" style="stroke:#239C23;stroke-width:1.0416666666666667;"/><path d="M19.279,176.9755 L19.279,175.3886 L24.705,175.3886 L24.705,176.9755 L22.8923,176.9755 L22.8923,182.9142 L24.705,182.9142 L24.705,184.5011 L19.279,184.5011 L19.279,182.9142 L21.0917,182.9142 L21.0917,176.9755 Z " fill="#000000"/><text fill="#D8BC00" font-family="Open Sans,Avenir,Nunito,Arial,Helvetica,SansSerif" font-size="12.5" font-style="italic" font-weight="bold" lengthAdjust="spacing" textLength="202.0833" x="38.5417" y="184.5378">DiagramPbfModelCompression</text><line style="stroke:#5E5E5E;stroke-width:1.0416666666666667;" x1="8.3333" x2="245.8333" y1="195.5078" y2="195.5078"/><line style="stroke:#5E5E5E;stroke-width:1.0416666666666667;" x1="8.3333" x2="245.8333" y1="203.8411" y2="203.8411"/><rect codeLine="15" fill="#282828" height="48.055" id="DiagramPbfModelEntities" rx="8.3333" ry="8.3333" style="stroke:#5E5E5E;stroke-width:1.0416666666666667;" width="202.0833" x="283.3333" y="164.1195"/><rect fill="#1B1B1A" height="31.3883" rx="8.3333" ry="8.3333" style="stroke:#1B1B1A;stroke-width:1.0416666666666667;" width="202.0833" x="283.3333" y="164.1195"/><rect fill="#1B1B1A" height="8.3333" style="stroke:#1B1B1A;stroke-width:1.0416666666666667;" width="202.0833" x="283.3333" y="187.1745"/><rect codeLine="15" fill="none" height="48.055" id="DiagramPbfModelEntities" rx="8.3333" ry="8.3333" style="stroke:#5E5E5E;stroke-width:1.0416666666666667;" width="202.0833" x="283.3333" y="164.1195"/><ellipse cx="297.9167" cy="179.8136" fill="#008400" rx="10.4167" ry="10.4167" style="stroke:#239C23;stroke-width:1.0416666666666667;"/><path d="M295.3206,176.9755 L295.3206,175.3886 L300.7467,175.3886 L300.7467,176.9755 L298.9339,176.9755 L298.9339,182.9142 L300.7467,182.9142 L300.7467,184.5011 L295.3206,184.5011 L295.3206,182.9142 L297.1334,182.9142 L297.1334,176.9755 Z " fill="#000000"/><text fill="#D8BC00" font-family="Open Sans,Avenir,Nunito,Arial,Helvetica,SansSerif" font-size="12.5" font-style="italic" font-weight="bold" lengthAdjust="spacing" textLength="164.5833" x="314.5833" y="184.5378">DiagramPbfModelEntities</text><line style="stroke:#5E5E5E;stroke-width:1.0416666666666667;" x1="284.375" x2="484.375" y1="195.5078" y2="195.5078"/><line style="stroke:#5E5E5E;stroke-width:1.0416666666666667;" x1="284.375" x2="484.375" y1="203.8411" y2="203.8411"/><rect codeLine="21" fill="#282828" height="48.055" id="DiagramPbfModelIdentifiers" rx="8.3333" ry="8.3333" style="stroke:#5E5E5E;stroke-width:1.0416666666666667;" width="219.7917" x="522.3958" y="164.1195"/><rect fill="#1B1B1A" height="31.3883" rx="8.3333" ry="8.3333" style="stroke:#1B1B1A;stroke-width:1.0416666666666667;" width="219.7917" x="522.3958" y="164.1195"/><rect fill="#1B1B1A" height="8.3333" style="stroke:#1B1B1A;stroke-width:1.0416666666666667;" width="219.7917" x="522.3958" y="187.1745"/><rect codeLine="21" fill="none" height="48.055" id="DiagramPbfModelIdentifiers" rx="8.3333" ry="8.3333" style="stroke:#5E5E5E;stroke-width:1.0416666666666667;" width="219.7917" x="522.3958" y="164.1195"/><ellipse cx="536.9792" cy="179.8136" fill="#008400" rx="10.4167" ry="10.4167" style="stroke:#239C23;stroke-width:1.0416666666666667;"/><path d="M534.3831,176.9755 L534.3831,175.3886 L539.8092,175.3886 L539.8092,176.9755 L537.9964,176.9755 L537.9964,182.9142 L539.8092,182.9142 L539.8092,184.5011 L534.3831,184.5011 L534.3831,182.9142 L536.1959,182.9142 L536.1959,176.9755 Z " fill="#000000"/><text fill="#D8BC00" font-family="Open Sans,Avenir,Nunito,Arial,Helvetica,SansSerif" font-size="12.5" font-style="italic" font-weight="bold" lengthAdjust="spacing" textLength="182.2917" x="553.6458" y="184.5378">DiagramPbfModelIdentifiers</text><line style="stroke:#5E5E5E;stroke-width:1.0416666666666667;" x1="523.4375" x2="741.1458" y1="195.5078" y2="195.5078"/><line style="stroke:#5E5E5E;stroke-width:1.0416666666666667;" x1="523.4375" x2="741.1458" y1="203.8411" y2="203.8411"/><rect codeLine="27" fill="#282828" height="48.055" id="DiagramPbfModelMetadata" rx="8.3333" ry="8.3333" style="stroke:#5E5E5E;stroke-width:1.0416666666666667;" width="212.5" x="779.1667" y="164.1195"/><rect fill="#1B1B1A" height="31.3883" rx="8.3333" ry="8.3333" style="stroke:#1B1B1A;stroke-width:1.0416666666666667;" width="212.5" x="779.1667" y="164.1195"/><rect fill="#1B1B1A" height="8.3333" style="stroke:#1B1B1A;stroke-width:1.0416666666666667;" width="212.5" x="779.1667" y="187.1745"/><rect codeLine="27" fill="none" height="48.055" id="DiagramPbfModelMetadata" rx="8.3333" ry="8.3333" style="stroke:#5E5E5E;stroke-width:1.0416666666666667;" width="212.5" x="779.1667" y="164.1195"/><ellipse cx="793.75" cy="179.8136" fill="#008400" rx="10.4167" ry="10.4167" style="stroke:#239C23;stroke-width:1.0416666666666667;"/><path d="M791.154,176.9755 L791.154,175.3886 L796.58,175.3886 L796.58,176.9755 L794.7673,176.9755 L794.7673,182.9142 L796.58,182.9142 L796.58,184.5011 L791.154,184.5011 L791.154,182.9142 L792.9667,182.9142 L792.9667,176.9755 Z " fill="#000000"/><text fill="#D8BC00" font-family="Open Sans,Avenir,Nunito,Arial,Helvetica,SansSerif" font-size="12.5" font-style="italic" font-weight="bold" lengthAdjust="spacing" textLength="175" x="810.4167" y="184.5378">DiagramPbfModelMetadata</text><line style="stroke:#5E5E5E;stroke-width:1.0416666666666667;" x1="780.2083" x2="990.625" y1="195.5078" y2="195.5078"/><line style="stroke:#5E5E5E;stroke-width:1.0416666666666667;" x1="780.2083" x2="990.625" y1="203.8411" y2="203.8411"/><rect codeLine="33" fill="#282828" height="48.055" id="DiagramPbfModelTags" rx="8.3333" ry="8.3333" style="stroke:#5E5E5E;stroke-width:1.0416666666666667;" width="184.375" x="1028.6458" y="164.1195"/><rect fill="#1B1B1A" height="31.3883" rx="8.3333" ry="8.3333" style="stroke:#1B1B1A;stroke-width:1.0416666666666667;" width="184.375" x="1028.6458" y="164.1195"/><rect fill="#1B1B1A" height="8.3333" style="stroke:#1B1B1A;stroke-width:1.0416666666666667;" width="184.375" x="1028.6458" y="187.1745"/><rect codeLine="33" fill="none" height="48.055" id="DiagramPbfModelTags" rx="8.3333" ry="8.3333" style="stroke:#5E5E5E;stroke-width:1.0416666666666667;" width="184.375" x="1028.6458" y="164.1195"/><ellipse cx="1043.2292" cy="179.8136" fill="#008400" rx="10.4167" ry="10.4167" style="stroke:#239C23;stroke-width:1.0416666666666667;"/><path d="M1040.6331,176.9755 L1040.6331,175.3886 L1046.0592,175.3886 L1046.0592,176.9755 L1044.2464,176.9755 L1044.2464,182.9142 L1046.0592,182.9142 L1046.0592,184.5011 L1040.6331,184.5011 L1040.6331,182.9142 L1042.4459,182.9142 L1042.4459,176.9755 Z " fill="#000000"/><text fill="#D8BC00" font-family="Open Sans,Avenir,Nunito,Arial,Helvetica,SansSerif" font-size="12.5" font-style="italic" font-weight="bold" lengthAdjust="spacing" textLength="146.875" x="1059.8958" y="184.5378">DiagramPbfModelTags</text><line style="stroke:#5E5E5E;stroke-width:1.0416666666666667;" x1="1029.6875" x2="1211.9792" y1="195.5078" y2="195.5078"/><line style="stroke:#5E5E5E;stroke-width:1.0416666666666667;" x1="1029.6875" x2="1211.9792" y1="203.8411" y2="203.8411"/><rect codeLine="39" fill="#282828" height="48.055" id="DiagramPbfOsm" rx="8.3333" ry="8.3333" style="stroke:#5E5E5E;stroke-width:1.0416666666666667;" width="143.75" x="1250" y="164.1195"/><rect fill="#1B1B1A" height="31.3883" rx="8.3333" ry="8.3333" style="stroke:#1B1B1A;stroke-width:1.0416666666666667;" width="143.75" x="1250" y="164.1195"/><rect fill="#1B1B1A" height="8.3333" style="stroke:#1B1B1A;stroke-width:1.0416666666666667;" width="143.75" x="1250" y="187.1745"/><rect codeLine="39" fill="none" height="48.055" id="DiagramPbfOsm" rx="8.3333" ry="8.3333" style="stroke:#5E5E5E;stroke-width:1.0416666666666667;" width="143.75" x="1250" y="164.1195"/><ellipse cx="1264.5833" cy="179.8136" fill="#008400" rx="10.4167" ry="10.4167" style="stroke:#239C23;stroke-width:1.0416666666666667;"/><path d="M1261.9873,176.9755 L1261.9873,175.3886 L1267.4133,175.3886 L1267.4133,176.9755 L1265.6006,176.9755 L1265.6006,182.9142 L1267.4133,182.9142 L1267.4133,184.5011 L1261.9873,184.5011 L1261.9873,182.9142 L1263.8,182.9142 L1263.8,176.9755 Z " fill="#000000"/><text fill="#D8BC00" font-family="Open Sans,Avenir,Nunito,Arial,Helvetica,SansSerif" font-size="12.5" font-style="italic" font-weight="bold" lengthAdjust="spacing" textLength="106.25" x="1281.25" y="184.5378">DiagramPbfOsm</text><line style="stroke:#5E5E5E;stroke-width:1.0416666666666667;" x1="1251.0417" x2="1392.7083" y1="195.5078" y2="195.5078"/><line style="stroke:#5E5E5E;stroke-width:1.0416666666666667;" x1="1251.0417" x2="1392.7083" y1="203.8411" y2="203.8411"/><rect codeLine="45" fill="#282828" height="48.055" id="DiagramPbfProcessing" rx="8.3333" ry="8.3333" style="stroke:#5E5E5E;stroke-width:1.0416666666666667;" width="183.3333" x="1430.2083" y="164.1195"/><rect fill="#1B1B1A" height="31.3883" rx="8.3333" ry="8.3333" style="stroke:#1B1B1A;stroke-width:1.0416666666666667;" width="183.3333" x="1430.2083" y="164.1195"/><rect fill="#1B1B1A" height="8.3333" style="stroke:#1B1B1A;stroke-width:1.0416666666666667;" width="183.3333" x="1430.2083" y="187.1745"/><rect codeLine="45" fill="none" height="48.055" id="DiagramPbfProcessing" rx="8.3333" ry="8.3333" style="stroke:#5E5E5E;stroke-width:1.0416666666666667;" width="183.3333" x="1430.2083" y="164.1195"/><ellipse cx="1444.7917" cy="179.8136" fill="#008400" rx="10.4167" ry="10.4167" style="stroke:#239C23;stroke-width:1.0416666666666667;"/><path d="M1442.1956,176.9755 L1442.1956,175.3886 L1447.6217,175.3886 L1447.6217,176.9755 L1445.8089,176.9755 L1445.8089,182.9142 L1447.6217,182.9142 L1447.6217,184.5011 L1442.1956,184.5011 L1442.1956,182.9142 L1444.0084,182.9142 L1444.0084,176.9755 Z " fill="#000000"/><text fill="#D8BC00" font-family="Open Sans,Avenir,Nunito,Arial,Helvetica,SansSerif" font-size="12.5" font-style="italic" font-weight="bold" lengthAdjust="spacing" textLength="145.8333" x="1461.4583" y="184.5378">DiagramPbfProcessing</text><line style="stroke:#5E5E5E;stroke-width:1.0416666666666667;" x1="1431.25" x2="1612.5" y1="195.5078" y2="195.5078"/><line style="stroke:#5E5E5E;stroke-width:1.0416666666666667;" x1="1431.25" x2="1612.5" y1="203.8411" y2="203.8411"/><rect codeLine="51" fill="#282828" height="48.055" id="DiagramPbfProcessingFilters" rx="8.3333" ry="8.3333" style="stroke:#5E5E5E;stroke-width:1.0416666666666667;" width="223.9583" x="1650.5208" y="164.1195"/><rect fill="#1B1B1A" height="31.3883" rx="8.3333" ry="8.3333" style="stroke:#1B1B1A;stroke-width:1.0416666666666667;" width="223.9583" x="1650.5208" y="164.1195"/><rect fill="#1B1B1A" height="8.3333" style="stroke:#1B1B1A;stroke-width:1.0416666666666667;" width="223.9583" x="1650.5208" y="187.1745"/><rect codeLine="51" fill="none" height="48.055" id="DiagramPbfProcessingFilters" rx="8.3333" ry="8.3333" style="stroke:#5E5E5E;stroke-width:1.0416666666666667;" width="223.9583" x="1650.5208" y="164.1195"/><ellipse cx="1665.1042" cy="179.8136" fill="#008400" rx="10.4167" ry="10.4167" style="stroke:#239C23;stroke-width:1.0416666666666667;"/><path d="M1662.5081,176.9755 L1662.5081,175.3886 L1667.9342,175.3886 L1667.9342,176.9755 L1666.1214,176.9755 L1666.1214,182.9142 L1667.9342,182.9142 L1667.9342,184.5011 L1662.5081,184.5011 L1662.5081,182.9142 L1664.3209,182.9142 L1664.3209,176.9755 Z " fill="#000000"/><text fill="#D8BC00" font-family="Open Sans,Avenir,Nunito,Arial,Helvetica,SansSerif" font-size="12.5" font-style="italic" font-weight="bold" lengthAdjust="spacing" textLength="186.4583" x="1681.7708" y="184.5378">DiagramPbfProcessingFilters</text><line style="stroke:#5E5E5E;stroke-width:1.0416666666666667;" x1="1651.5625" x2="1873.4375" y1="195.5078" y2="195.5078"/><line style="stroke:#5E5E5E;stroke-width:1.0416666666666667;" x1="1651.5625" x2="1873.4375" y1="203.8411" y2="203.8411"/><path codeLine="8" d="M893.1042,89.6924 C748.6146,104.5257 487.125,132.7236 264.5833,164.1195 C258.8333,164.932 252.9479,165.7965 247.0104,166.682 " fill="none" id="UmlDiagramIdentifier-backto-DiagramPbfModelCompression" style="stroke:#545454;stroke-width:1.5625;"/><polygon fill="none" points="892.5208,82.4215,913.9792,87.557,894,96.932,892.5208,82.4215" style="stroke:#545454;stroke-width:1.5625;"/><path codeLine="14" d="M893.0417,96.9111 C791.8646,113.807 637.7813,139.9007 504.1667,164.1195 C498.125,165.2132 491.9167,166.359 485.6458,167.5153 " fill="none" id="UmlDiagramIdentifier-backto-DiagramPbfModelEntities" style="stroke:#545454;stroke-width:1.5625;"/><polygon fill="none" points="892.0521,89.6924,913.8021,93.4528,894.4479,104.0778,892.0521,89.6924" style="stroke:#545454;stroke-width:1.5625;"/><path codeLine="20" d="M904.1875,107.609 C843.6354,125.2965 767.2083,147.6195 710.8229,164.0986 " fill="none" id="UmlDiagramIdentifier-backto-DiagramPbfModelIdentifiers" style="stroke:#545454;stroke-width:1.5625;"/><polygon fill="none" points="902.4375,100.5153,924.4792,101.682,906.5313,114.5153,902.4375,100.5153" style="stroke:#545454;stroke-width:1.5625;"/><path codeLine="26" d="M962.75,115.859 C945.3542,131.8799 925.5521,150.0986 910.3438,164.0986 " fill="none" id="UmlDiagramIdentifier-backto-DiagramPbfModelMetadata" style="stroke:#545454;stroke-width:1.5625;"/><polygon fill="none" points="957.8958,110.4215,978.1667,101.682,967.7708,121.1507,957.8958,110.4215" style="stroke:#545454;stroke-width:1.5625;"/><path codeLine="32" d="M1043.5,115.859 C1060.8958,131.8799 1080.6979,150.0986 1095.9063,164.0986 " fill="none" id="UmlDiagramIdentifier-backto-DiagramPbfModelTags" style="stroke:#545454;stroke-width:1.5625;"/><polygon fill="none" points="1038.4792,121.1507,1028.0833,101.682,1048.3542,110.4215,1038.4792,121.1507" style="stroke:#545454;stroke-width:1.5625;"/><path codeLine="38" d="M1090.5521,108.4215 C1142.2188,125.9736 1206.6458,147.8695 1254.375,164.0986 " fill="none" id="UmlDiagramIdentifier-backto-DiagramPbfOsm" style="stroke:#545454;stroke-width:1.5625;"/><polygon fill="none" points="1088.1042,115.2861,1070.7188,101.682,1092.7917,101.4736,1088.1042,115.2861" style="stroke:#545454;stroke-width:1.5625;"/><path codeLine="44" d="M1113.0521,101.609 C1195.4688,118.7965 1311.0625,142.9111 1412.5,164.1195 C1418.1979,165.307 1424.0625,166.5361 1429.9792,167.7757 " fill="none" id="UmlDiagramIdentifier-backto-DiagramPbfProcessing" style="stroke:#545454;stroke-width:1.5625;"/><polygon fill="none" points="1111.4792,108.734,1092.5729,97.3486,1114.4583,94.4528,1111.4792,108.734" style="stroke:#545454;stroke-width:1.5625;"/><path codeLine="50" d="M1113.3125,92.3278 C1239.0625,108.1924 1450.8229,135.8382 1632.2917,164.1195 C1638.1875,165.0361 1644.2292,166.0049 1650.3229,167.0049 " fill="none" id="UmlDiagramIdentifier-backto-DiagramPbfProcessingFilters" style="stroke:#545454;stroke-width:1.5625;"/><polygon fill="none" points="1112.125,99.5361,1092.3646,89.7028,1113.9479,85.057,1112.125,99.5361" style="stroke:#545454;stroke-width:1.5625;"/></g></svg>
