<?xml version="1.0" encoding="UTF-8" standalone="no"?><svg xmlns="http://www.w3.org/2000/svg" xmlns:xlink="http://www.w3.org/1999/xlink" contentScriptType="application/ecmascript" contentStyleType="text/css" height="348.9583px" preserveAspectRatio="none" style="width:1766px;height:348px;background:#333333;" version="1.1" viewBox="0 0 1766 348" width="1766.6667px" zoomAndPan="magnify"><defs/><g><rect fill="#48494B" height="41.2028" rx="8.3333" ry="8.3333" style="stroke:#545454;stroke-width:1.0416666666666667;" width="187.5" x="782.5521" y="2.0833"/><text fill="#C0C0C0" font-family="Open Sans,Avenir,Nunito,Arial,Helvetica,SansSerif" font-size="20.8333" lengthAdjust="spacing" textLength="164.5833" x="794.0104" y="30.5583">OSM PBF Format</text><rect codeLine="7" fill="#282828" height="48.055" id="PbfTagFilter" rx="8.3333" ry="8.3333" style="stroke:#5E5E5E;stroke-width:1.0416666666666667;" width="115.625" x="492.1875" y="101.0986"/><rect fill="#1B1B1A" height="31.3883" rx="8.3333" ry="8.3333" style="stroke:#1B1B1A;stroke-width:1.0416666666666667;" width="115.625" x="492.1875" y="101.0986"/><rect fill="#1B1B1A" height="8.3333" style="stroke:#1B1B1A;stroke-width:1.0416666666666667;" width="115.625" x="492.1875" y="124.1536"/><rect codeLine="7" fill="none" height="48.055" id="PbfTagFilter" rx="8.3333" ry="8.3333" style="stroke:#5E5E5E;stroke-width:1.0416666666666667;" width="115.625" x="492.1875" y="101.0986"/><ellipse cx="506.7708" cy="116.7928" fill="#008400" rx="10.4167" ry="10.4167" style="stroke:#239C23;stroke-width:1.0416666666666667;"/><path d="M504.1748,113.9547 L504.1748,112.3678 L509.6008,112.3678 L509.6008,113.9547 L507.7881,113.9547 L507.7881,119.8934 L509.6008,119.8934 L509.6008,121.4803 L504.1748,121.4803 L504.1748,119.8934 L505.9875,119.8934 L505.9875,113.9547 Z " fill="#000000"/><text fill="#D8BC00" font-family="Open Sans,Avenir,Nunito,Arial,Helvetica,SansSerif" font-size="12.5" font-style="italic" font-weight="bold" lengthAdjust="spacing" textLength="78.125" x="523.4375" y="121.5169">PbfTagFilter</text><line style="stroke:#5E5E5E;stroke-width:1.0416666666666667;" x1="493.2292" x2="606.7708" y1="132.487" y2="132.487"/><line style="stroke:#5E5E5E;stroke-width:1.0416666666666667;" x1="493.2292" x2="606.7708" y1="140.8203" y2="140.8203"/><rect codeLine="9" fill="#282828" height="83.3781" id="Osm" rx="8.3333" ry="8.3333" style="stroke:#5E5E5E;stroke-width:1.0416666666666667;" width="191.6667" x="7.2917" y="83.3903"/><rect fill="#1B1B1A" height="31.3883" rx="8.3333" ry="8.3333" style="stroke:#1B1B1A;stroke-width:1.0416666666666667;" width="191.6667" x="7.2917" y="83.3903"/><rect fill="#1B1B1A" height="8.3333" style="stroke:#1B1B1A;stroke-width:1.0416666666666667;" width="191.6667" x="7.2917" y="106.4453"/><rect codeLine="9" fill="none" height="83.3781" id="Osm" rx="8.3333" ry="8.3333" style="stroke:#5E5E5E;stroke-width:1.0416666666666667;" width="191.6667" x="7.2917" y="83.3903"/><ellipse cx="80.7292" cy="99.0845" fill="#0066CF" rx="10.4167" ry="10.4167" style="stroke:#0086EF;stroke-width:1.0416666666666667;"/><path d="M82.6396,103.5095 Q82.2123,103.7292 81.7424,103.8391 Q81.2724,103.949 80.7536,103.949 Q78.9103,103.949 77.9399,102.7344 Q76.9694,101.5198 76.9694,99.2249 Q76.9694,96.9238 77.9399,95.7092 Q78.9103,94.4946 80.7536,94.4946 Q81.2724,94.4946 81.7485,94.6045 Q82.2245,94.7144 82.6396,94.9341 L82.6396,96.936 Q82.1757,96.5088 81.7393,96.3104 Q81.3029,96.1121 80.839,96.1121 Q79.8503,96.1121 79.3467,96.8964 Q78.8432,97.6807 78.8432,99.2249 Q78.8432,100.7629 79.3467,101.5472 Q79.8503,102.3315 80.839,102.3315 Q81.3029,102.3315 81.7393,102.1332 Q82.1757,101.9348 82.6396,101.5076 Z " fill="#000000"/><text fill="#D8BC00" font-family="Open Sans,Avenir,Nunito,Arial,Helvetica,SansSerif" font-size="12.5" font-weight="bold" lengthAdjust="spacing" textLength="30.2083" x="103.6458" y="103.8086">Osm</text><line style="stroke:#5E5E5E;stroke-width:1.5625;" x1="8.3333" x2="197.9167" y1="114.7786" y2="114.7786"/><ellipse cx="18.75" cy="150.1485" fill="#84BE84" rx="3.125" ry="3.125" style="stroke:#038048;stroke-width:1.0416666666666667;"/><text fill="#D8BC00" font-family="Open Sans,Avenir,Nunito,Arial,Helvetica,SansSerif" font-size="11.4583" lengthAdjust="spacing" textLength="159.375" x="30.2083" y="157.0597">boolean isNavigable(PbfWay)</text><line style="stroke:#5E5E5E;stroke-width:1.0416666666666667;" x1="8.3333" x2="76.5625" y1="132.9844" y2="132.9844"/><text fill="#D8BC00" font-family="Open Sans,Avenir,Nunito,Arial,Helvetica,SansSerif" font-size="11.4583" lengthAdjust="spacing" textLength="46.875" x="79.6875" y="136.794">(checks)</text><line style="stroke:#5E5E5E;stroke-width:1.0416666666666667;" x1="129.6875" x2="197.9167" y1="132.9844" y2="132.9844"/><rect fill="#282828" height="48.055" id="WayFilter" rx="8.3333" ry="8.3333" style="stroke:#5E5E5E;stroke-width:1.0416666666666667;" width="96.875" x="1130.7292" y="101.0986"/><rect fill="#1B1B1A" height="31.3883" rx="8.3333" ry="8.3333" style="stroke:#1B1B1A;stroke-width:1.0416666666666667;" width="96.875" x="1130.7292" y="101.0986"/><rect fill="#1B1B1A" height="8.3333" style="stroke:#1B1B1A;stroke-width:1.0416666666666667;" width="96.875" x="1130.7292" y="124.1536"/><rect fill="none" height="48.055" id="WayFilter" rx="8.3333" ry="8.3333" style="stroke:#5E5E5E;stroke-width:1.0416666666666667;" width="96.875" x="1130.7292" y="101.0986"/><ellipse cx="1145.3125" cy="116.7928" fill="#0066CF" rx="10.4167" ry="10.4167" style="stroke:#0086EF;stroke-width:1.0416666666666667;"/><path d="M1147.2229,121.2179 Q1146.7957,121.4376 1146.3257,121.5474 Q1145.8557,121.6573 1145.3369,121.6573 Q1143.4937,121.6573 1142.5232,120.4427 Q1141.5527,119.2281 1141.5527,116.9332 Q1141.5527,114.6322 1142.5232,113.4176 Q1143.4937,112.203 1145.3369,112.203 Q1145.8557,112.203 1146.3318,112.3128 Q1146.8079,112.4227 1147.2229,112.6424 L1147.2229,114.6444 Q1146.759,114.2171 1146.3226,114.0188 Q1145.8862,113.8204 1145.4224,113.8204 Q1144.4336,113.8204 1143.9301,114.6047 Q1143.4265,115.389 1143.4265,116.9332 Q1143.4265,118.4713 1143.9301,119.2556 Q1144.4336,120.0399 1145.4224,120.0399 Q1145.8862,120.0399 1146.3226,119.8415 Q1146.759,119.6431 1147.2229,119.2159 Z " fill="#000000"/><text fill="#D8BC00" font-family="Open Sans,Avenir,Nunito,Arial,Helvetica,SansSerif" font-size="12.5" font-weight="bold" lengthAdjust="spacing" textLength="59.375" x="1161.9792" y="121.5169">WayFilter</text><line style="stroke:#5E5E5E;stroke-width:1.0416666666666667;" x1="1131.7708" x2="1226.5625" y1="132.487" y2="132.487"/><line style="stroke:#5E5E5E;stroke-width:1.0416666666666667;" x1="1131.7708" x2="1226.5625" y1="140.8203" y2="140.8203"/><rect codeLine="16" fill="#282828" height="83.3781" id="OsmExcludeNonDrivableWaysFilter" rx="8.3333" ry="8.3333" style="stroke:#5E5E5E;stroke-width:1.0416666666666667;" width="263.5417" x="660.9375" y="258.9111"/><rect fill="#1B1B1A" height="31.3883" rx="8.3333" ry="8.3333" style="stroke:#1B1B1A;stroke-width:1.0416666666666667;" width="263.5417" x="660.9375" y="258.9111"/><rect fill="#1B1B1A" height="8.3333" style="stroke:#1B1B1A;stroke-width:1.0416666666666667;" width="263.5417" x="660.9375" y="281.9661"/><rect codeLine="16" fill="none" height="83.3781" id="OsmExcludeNonDrivableWaysFilter" rx="8.3333" ry="8.3333" style="stroke:#5E5E5E;stroke-width:1.0416666666666667;" width="263.5417" x="660.9375" y="258.9111"/><ellipse cx="675.5208" cy="274.6053" fill="#0066CF" rx="10.4167" ry="10.4167" style="stroke:#0086EF;stroke-width:1.0416666666666667;"/><path d="M677.4312,279.0304 Q677.004,279.2501 676.534,279.3599 Q676.064,279.4698 675.5452,279.4698 Q673.702,279.4698 672.7315,278.2552 Q671.7611,277.0406 671.7611,274.7457 Q671.7611,272.4447 672.7315,271.2301 Q673.702,270.0155 675.5452,270.0155 Q676.064,270.0155 676.5401,270.1253 Q677.0162,270.2352 677.4312,270.4549 L677.4312,272.4569 Q676.9674,272.0296 676.531,271.8313 Q676.0946,271.6329 675.6307,271.6329 Q674.6419,271.6329 674.1384,272.4172 Q673.6348,273.2015 673.6348,274.7457 Q673.6348,276.2838 674.1384,277.0681 Q674.6419,277.8524 675.6307,277.8524 Q676.0946,277.8524 676.531,277.654 Q676.9674,277.4556 677.4312,277.0284 Z " fill="#000000"/><text fill="#D8BC00" font-family="Open Sans,Avenir,Nunito,Arial,Helvetica,SansSerif" font-size="12.5" font-weight="bold" lengthAdjust="spacing" textLength="226.0417" x="692.1875" y="279.3294">OsmExcludeNonDrivableWaysFilter</text><line style="stroke:#5E5E5E;stroke-width:1.5625;" x1="661.9792" x2="923.4375" y1="290.2995" y2="290.2995"/><ellipse cx="672.3958" cy="325.6694" fill="#84BE84" rx="3.125" ry="3.125" style="stroke:#038048;stroke-width:1.0416666666666667;"/><text fill="#D8BC00" font-family="Open Sans,Avenir,Nunito,Arial,Helvetica,SansSerif" font-size="11.4583" lengthAdjust="spacing" textLength="203.125" x="683.8542" y="332.5806">OsmExcludeNonDrivableWaysFilter()</text><line style="stroke:#5E5E5E;stroke-width:1.0416666666666667;" x1="661.9792" x2="748.9583" y1="308.5052" y2="308.5052"/><text fill="#D8BC00" font-family="Open Sans,Avenir,Nunito,Arial,Helvetica,SansSerif" font-size="11.4583" lengthAdjust="spacing" textLength="81.25" x="752.0833" y="312.3149">(constructors)</text><line style="stroke:#5E5E5E;stroke-width:1.0416666666666667;" x1="836.4583" x2="923.4375" y1="308.5052" y2="308.5052"/><rect codeLine="22" fill="#282828" height="142.6127" id="OsmHighwayTag" rx="8.3333" ry="8.3333" style="stroke:#5E5E5E;stroke-width:1.0416666666666667;" width="219.7917" x="235.9375" y="53.7028"/><rect fill="#1B1B1A" height="31.3883" rx="8.3333" ry="8.3333" style="stroke:#1B1B1A;stroke-width:1.0416666666666667;" width="219.7917" x="235.9375" y="53.7028"/><rect fill="#1B1B1A" height="8.3333" style="stroke:#1B1B1A;stroke-width:1.0416666666666667;" width="219.7917" x="235.9375" y="76.7578"/><rect codeLine="22" fill="none" height="142.6127" id="OsmHighwayTag" rx="8.3333" ry="8.3333" style="stroke:#5E5E5E;stroke-width:1.0416666666666667;" width="219.7917" x="235.9375" y="53.7028"/><ellipse cx="283.8542" cy="69.397" fill="#0066CF" rx="10.4167" ry="10.4167" style="stroke:#0086EF;stroke-width:1.0416666666666667;"/><path d="M285.7646,73.822 Q285.3373,74.0417 284.8674,74.1516 Q284.3974,74.2615 283.8786,74.2615 Q282.0353,74.2615 281.0649,73.0469 Q280.0944,71.8323 280.0944,69.5374 Q280.0944,67.2363 281.0649,66.0217 Q282.0353,64.8071 283.8786,64.8071 Q284.3974,64.8071 284.8735,64.917 Q285.3495,65.0269 285.7646,65.2466 L285.7646,67.2485 Q285.3007,66.8213 284.8643,66.6229 Q284.4279,66.4246 283.964,66.4246 Q282.9753,66.4246 282.4717,67.2089 Q281.9682,67.9932 281.9682,69.5374 Q281.9682,71.0754 282.4717,71.8597 Q282.9753,72.644 283.964,72.644 Q284.4279,72.644 284.8643,72.4457 Q285.3007,72.2473 285.7646,71.8201 Z " fill="#000000"/><text fill="#D8BC00" font-family="Open Sans,Avenir,Nunito,Arial,Helvetica,SansSerif" font-size="12.5" font-weight="bold" lengthAdjust="spacing" textLength="109.375" x="306.7708" y="74.1211">OsmHighwayTag</text><line style="stroke:#5E5E5E;stroke-width:1.5625;" x1="236.9792" x2="454.6875" y1="85.0911" y2="85.0911"/><ellipse cx="247.3958" cy="120.461" fill="#84BE84" rx="3.125" ry="3.125" style="stroke:#038048;stroke-width:1.0416666666666667;"/><text fill="#D8BC00" font-family="Open Sans,Avenir,Nunito,Arial,Helvetica,SansSerif" font-size="11.4583" lengthAdjust="spacing" textLength="187.5" x="258.8542" y="127.3722">boolean isNavigableHighway(Tag)</text><ellipse cx="247.3958" cy="140.2059" fill="#84BE84" rx="3.125" ry="3.125" style="stroke:#038048;stroke-width:1.0416666666666667;"/><text fill="#D8BC00" font-family="Open Sans,Avenir,Nunito,Arial,Helvetica,SansSerif" font-size="11.4583" lengthAdjust="spacing" textLength="169.7917" x="258.8542" y="147.1171">boolean isNullServiceWay(Tag)</text><ellipse cx="247.3958" cy="159.9508" fill="#84BE84" rx="3.125" ry="3.125" style="stroke:#038048;stroke-width:1.0416666666666667;"/><text fill="#D8BC00" font-family="Open Sans,Avenir,Nunito,Arial,Helvetica,SansSerif" font-size="11.4583" lengthAdjust="spacing" textLength="163.5417" x="258.8542" y="166.862">boolean isPrivateAccess(Tag)</text><ellipse cx="247.3958" cy="179.6956" fill="#84BE84" rx="3.125" ry="3.125" style="stroke:#038048;stroke-width:1.0416666666666667;"/><text fill="#D8BC00" font-family="Open Sans,Avenir,Nunito,Arial,Helvetica,SansSerif" font-size="11.4583" lengthAdjust="spacing" textLength="147.9167" x="258.8542" y="186.6069">boolean isServiceWay(Tag)</text><line style="stroke:#5E5E5E;stroke-width:1.0416666666666667;" x1="236.9792" x2="319.2708" y1="103.2969" y2="103.2969"/><text fill="#D8BC00" font-family="Open Sans,Avenir,Nunito,Arial,Helvetica,SansSerif" font-size="11.4583" lengthAdjust="spacing" textLength="46.875" x="322.3958" y="107.1065">(checks)</text><line style="stroke:#5E5E5E;stroke-width:1.0416666666666667;" x1="372.3958" x2="454.6875" y1="103.2969" y2="103.2969"/><rect codeLine="32" fill="#282828" height="83.3781" id="OsmIgnoredTags" rx="8.3333" ry="8.3333" style="stroke:#5E5E5E;stroke-width:1.0416666666666667;" width="148.9583" x="475.5208" y="258.9111"/><rect fill="#1B1B1A" height="31.3883" rx="8.3333" ry="8.3333" style="stroke:#1B1B1A;stroke-width:1.0416666666666667;" width="148.9583" x="475.5208" y="258.9111"/><rect fill="#1B1B1A" height="8.3333" style="stroke:#1B1B1A;stroke-width:1.0416666666666667;" width="148.9583" x="475.5208" y="281.9661"/><rect codeLine="32" fill="none" height="83.3781" id="OsmIgnoredTags" rx="8.3333" ry="8.3333" style="stroke:#5E5E5E;stroke-width:1.0416666666666667;" width="148.9583" x="475.5208" y="258.9111"/><ellipse cx="490.1042" cy="274.6053" fill="#0066CF" rx="10.4167" ry="10.4167" style="stroke:#0086EF;stroke-width:1.0416666666666667;"/><path d="M492.0146,279.0304 Q491.5873,279.2501 491.1174,279.3599 Q490.6474,279.4698 490.1286,279.4698 Q488.2853,279.4698 487.3149,278.2552 Q486.3444,277.0406 486.3444,274.7457 Q486.3444,272.4447 487.3149,271.2301 Q488.2853,270.0155 490.1286,270.0155 Q490.6474,270.0155 491.1235,270.1253 Q491.5995,270.2352 492.0146,270.4549 L492.0146,272.4569 Q491.5507,272.0296 491.1143,271.8313 Q490.6779,271.6329 490.214,271.6329 Q489.2253,271.6329 488.7217,272.4172 Q488.2182,273.2015 488.2182,274.7457 Q488.2182,276.2838 488.7217,277.0681 Q489.2253,277.8524 490.214,277.8524 Q490.6779,277.8524 491.1143,277.654 Q491.5507,277.4556 492.0146,277.0284 Z " fill="#000000"/><text fill="#D8BC00" font-family="Open Sans,Avenir,Nunito,Arial,Helvetica,SansSerif" font-size="12.5" font-weight="bold" lengthAdjust="spacing" textLength="111.4583" x="506.7708" y="279.3294">OsmIgnoredTags</text><line style="stroke:#5E5E5E;stroke-width:1.5625;" x1="476.5625" x2="623.4375" y1="290.2995" y2="290.2995"/><ellipse cx="486.9792" cy="325.6694" fill="#84BE84" rx="3.125" ry="3.125" style="stroke:#038048;stroke-width:1.0416666666666667;"/><text fill="#D8BC00" font-family="Open Sans,Avenir,Nunito,Arial,Helvetica,SansSerif" font-size="11.4583" lengthAdjust="spacing" textLength="105.2083" x="498.4375" y="332.5806">OsmIgnoredTags()</text><line style="stroke:#5E5E5E;stroke-width:1.0416666666666667;" x1="476.5625" x2="506.25" y1="308.5052" y2="308.5052"/><text fill="#D8BC00" font-family="Open Sans,Avenir,Nunito,Arial,Helvetica,SansSerif" font-size="11.4583" lengthAdjust="spacing" textLength="81.25" x="509.375" y="312.3149">(constructors)</text><line style="stroke:#5E5E5E;stroke-width:1.0416666666666667;" x1="593.75" x2="623.4375" y1="308.5052" y2="308.5052"/><rect codeLine="39" fill="#282828" height="83.3781" id="OsmMajorRoadsWayFilter" rx="8.3333" ry="8.3333" style="stroke:#5E5E5E;stroke-width:1.0416666666666667;" width="203.125" x="960.9375" y="258.9111"/><rect fill="#1B1B1A" height="31.3883" rx="8.3333" ry="8.3333" style="stroke:#1B1B1A;stroke-width:1.0416666666666667;" width="203.125" x="960.9375" y="258.9111"/><rect fill="#1B1B1A" height="8.3333" style="stroke:#1B1B1A;stroke-width:1.0416666666666667;" width="203.125" x="960.9375" y="281.9661"/><rect codeLine="39" fill="none" height="83.3781" id="OsmMajorRoadsWayFilter" rx="8.3333" ry="8.3333" style="stroke:#5E5E5E;stroke-width:1.0416666666666667;" width="203.125" x="960.9375" y="258.9111"/><ellipse cx="975.5208" cy="274.6053" fill="#0066CF" rx="10.4167" ry="10.4167" style="stroke:#0086EF;stroke-width:1.0416666666666667;"/><path d="M977.4312,279.0304 Q977.004,279.2501 976.534,279.3599 Q976.064,279.4698 975.5452,279.4698 Q973.702,279.4698 972.7315,278.2552 Q971.7611,277.0406 971.7611,274.7457 Q971.7611,272.4447 972.7315,271.2301 Q973.702,270.0155 975.5452,270.0155 Q976.064,270.0155 976.5401,270.1253 Q977.0162,270.2352 977.4312,270.4549 L977.4312,272.4569 Q976.9674,272.0296 976.531,271.8313 Q976.0946,271.6329 975.6307,271.6329 Q974.6419,271.6329 974.1384,272.4172 Q973.6348,273.2015 973.6348,274.7457 Q973.6348,276.2838 974.1384,277.0681 Q974.6419,277.8524 975.6307,277.8524 Q976.0946,277.8524 976.531,277.654 Q976.9674,277.4556 977.4312,277.0284 Z " fill="#000000"/><text fill="#D8BC00" font-family="Open Sans,Avenir,Nunito,Arial,Helvetica,SansSerif" font-size="12.5" font-weight="bold" lengthAdjust="spacing" textLength="165.625" x="992.1875" y="279.3294">OsmMajorRoadsWayFilter</text><line style="stroke:#5E5E5E;stroke-width:1.5625;" x1="961.9792" x2="1163.0208" y1="290.2995" y2="290.2995"/><ellipse cx="972.3958" cy="325.6694" fill="#84BE84" rx="3.125" ry="3.125" style="stroke:#038048;stroke-width:1.0416666666666667;"/><text fill="#D8BC00" font-family="Open Sans,Avenir,Nunito,Arial,Helvetica,SansSerif" font-size="11.4583" lengthAdjust="spacing" textLength="150" x="983.8542" y="332.5806">OsmMajorRoadsWayFilter()</text><line style="stroke:#5E5E5E;stroke-width:1.0416666666666667;" x1="961.9792" x2="1018.75" y1="308.5052" y2="308.5052"/><text fill="#D8BC00" font-family="Open Sans,Avenir,Nunito,Arial,Helvetica,SansSerif" font-size="11.4583" lengthAdjust="spacing" textLength="81.25" x="1021.875" y="312.3149">(constructors)</text><line style="stroke:#5E5E5E;stroke-width:1.0416666666666667;" x1="1106.25" x2="1163.0208" y1="308.5052" y2="308.5052"/><rect codeLine="46" fill="#282828" height="83.3781" id="OsmNavigableWayFilter" rx="8.3333" ry="8.3333" style="stroke:#5E5E5E;stroke-width:1.0416666666666667;" width="190.625" x="1200.5208" y="258.9111"/><rect fill="#1B1B1A" height="31.3883" rx="8.3333" ry="8.3333" style="stroke:#1B1B1A;stroke-width:1.0416666666666667;" width="190.625" x="1200.5208" y="258.9111"/><rect fill="#1B1B1A" height="8.3333" style="stroke:#1B1B1A;stroke-width:1.0416666666666667;" width="190.625" x="1200.5208" y="281.9661"/><rect codeLine="46" fill="none" height="83.3781" id="OsmNavigableWayFilter" rx="8.3333" ry="8.3333" style="stroke:#5E5E5E;stroke-width:1.0416666666666667;" width="190.625" x="1200.5208" y="258.9111"/><ellipse cx="1215.1042" cy="274.6053" fill="#0066CF" rx="10.4167" ry="10.4167" style="stroke:#0086EF;stroke-width:1.0416666666666667;"/><path d="M1217.0146,279.0304 Q1216.5873,279.2501 1216.1174,279.3599 Q1215.6474,279.4698 1215.1286,279.4698 Q1213.2853,279.4698 1212.3149,278.2552 Q1211.3444,277.0406 1211.3444,274.7457 Q1211.3444,272.4447 1212.3149,271.2301 Q1213.2853,270.0155 1215.1286,270.0155 Q1215.6474,270.0155 1216.1235,270.1253 Q1216.5995,270.2352 1217.0146,270.4549 L1217.0146,272.4569 Q1216.5507,272.0296 1216.1143,271.8313 Q1215.6779,271.6329 1215.214,271.6329 Q1214.2253,271.6329 1213.7217,272.4172 Q1213.2182,273.2015 1213.2182,274.7457 Q1213.2182,276.2838 1213.7217,277.0681 Q1214.2253,277.8524 1215.214,277.8524 Q1215.6779,277.8524 1216.1143,277.654 Q1216.5507,277.4556 1217.0146,277.0284 Z " fill="#000000"/><text fill="#D8BC00" font-family="Open Sans,Avenir,Nunito,Arial,Helvetica,SansSerif" font-size="12.5" font-weight="bold" lengthAdjust="spacing" textLength="153.125" x="1231.7708" y="279.3294">OsmNavigableWayFilter</text><line style="stroke:#5E5E5E;stroke-width:1.5625;" x1="1201.5625" x2="1390.1042" y1="290.2995" y2="290.2995"/><ellipse cx="1211.9792" cy="325.6694" fill="#84BE84" rx="3.125" ry="3.125" style="stroke:#038048;stroke-width:1.0416666666666667;"/><text fill="#D8BC00" font-family="Open Sans,Avenir,Nunito,Arial,Helvetica,SansSerif" font-size="11.4583" lengthAdjust="spacing" textLength="138.5417" x="1223.4375" y="332.5806">OsmNavigableWayFilter()</text><line style="stroke:#5E5E5E;stroke-width:1.0416666666666667;" x1="1201.5625" x2="1252.0833" y1="308.5052" y2="308.5052"/><text fill="#D8BC00" font-family="Open Sans,Avenir,Nunito,Arial,Helvetica,SansSerif" font-size="11.4583" lengthAdjust="spacing" textLength="81.25" x="1255.2083" y="312.3149">(constructors)</text><line style="stroke:#5E5E5E;stroke-width:1.0416666666666667;" x1="1339.5833" x2="1390.1042" y1="308.5052" y2="308.5052"/><rect codeLine="52" fill="#282828" height="48.055" id="OsmRelationTag" rx="8.3333" ry="8.3333" style="stroke:#5E5E5E;stroke-width:1.0416666666666667;" width="144.7917" x="30.7292" y="276.6195"/><rect fill="#1B1B1A" height="31.3883" rx="8.3333" ry="8.3333" style="stroke:#1B1B1A;stroke-width:1.0416666666666667;" width="144.7917" x="30.7292" y="276.6195"/><rect fill="#1B1B1A" height="8.3333" style="stroke:#1B1B1A;stroke-width:1.0416666666666667;" width="144.7917" x="30.7292" y="299.6745"/><rect codeLine="52" fill="none" height="48.055" id="OsmRelationTag" rx="8.3333" ry="8.3333" style="stroke:#5E5E5E;stroke-width:1.0416666666666667;" width="144.7917" x="30.7292" y="276.6195"/><ellipse cx="45.3125" cy="292.3136" fill="#0066CF" rx="10.4167" ry="10.4167" style="stroke:#0086EF;stroke-width:1.0416666666666667;"/><path d="M47.2229,296.7387 Q46.7957,296.9584 46.3257,297.0683 Q45.8557,297.1781 45.3369,297.1781 Q43.4937,297.1781 42.5232,295.9635 Q41.5527,294.7489 41.5527,292.454 Q41.5527,290.153 42.5232,288.9384 Q43.4937,287.7238 45.3369,287.7238 Q45.8557,287.7238 46.3318,287.8337 Q46.8079,287.9435 47.2229,288.1632 L47.2229,290.1652 Q46.759,289.738 46.3226,289.5396 Q45.8862,289.3412 45.4224,289.3412 Q44.4336,289.3412 43.9301,290.1255 Q43.4265,290.9098 43.4265,292.454 Q43.4265,293.9921 43.9301,294.7764 Q44.4336,295.5607 45.4224,295.5607 Q45.8862,295.5607 46.3226,295.3623 Q46.759,295.164 47.2229,294.7367 Z " fill="#000000"/><text fill="#D8BC00" font-family="Open Sans,Avenir,Nunito,Arial,Helvetica,SansSerif" font-size="12.5" font-weight="bold" lengthAdjust="spacing" textLength="107.2917" x="61.9792" y="297.0378">OsmRelationTag</text><line style="stroke:#5E5E5E;stroke-width:1.0416666666666667;" x1="31.7708" x2="174.4792" y1="308.0078" y2="308.0078"/><line style="stroke:#5E5E5E;stroke-width:1.0416666666666667;" x1="31.7708" x2="174.4792" y1="316.3411" y2="316.3411"/><rect fill="#282828" height="48.055" id="RelationFilter" rx="8.3333" ry="8.3333" style="stroke:#5E5E5E;stroke-width:1.0416666666666667;" width="123.9583" x="1617.1875" y="101.0986"/><rect fill="#1B1B1A" height="31.3883" rx="8.3333" ry="8.3333" style="stroke:#1B1B1A;stroke-width:1.0416666666666667;" width="123.9583" x="1617.1875" y="101.0986"/><rect fill="#1B1B1A" height="8.3333" style="stroke:#1B1B1A;stroke-width:1.0416666666666667;" width="123.9583" x="1617.1875" y="124.1536"/><rect fill="none" height="48.055" id="RelationFilter" rx="8.3333" ry="8.3333" style="stroke:#5E5E5E;stroke-width:1.0416666666666667;" width="123.9583" x="1617.1875" y="101.0986"/><ellipse cx="1631.7708" cy="116.7928" fill="#0066CF" rx="10.4167" ry="10.4167" style="stroke:#0086EF;stroke-width:1.0416666666666667;"/><path d="M1633.6812,121.2179 Q1633.254,121.4376 1632.784,121.5474 Q1632.314,121.6573 1631.7952,121.6573 Q1629.952,121.6573 1628.9815,120.4427 Q1628.0111,119.2281 1628.0111,116.9332 Q1628.0111,114.6322 1628.9815,113.4176 Q1629.952,112.203 1631.7952,112.203 Q1632.314,112.203 1632.7901,112.3128 Q1633.2662,112.4227 1633.6812,112.6424 L1633.6812,114.6444 Q1633.2174,114.2171 1632.781,114.0188 Q1632.3446,113.8204 1631.8807,113.8204 Q1630.8919,113.8204 1630.3884,114.6047 Q1629.8848,115.389 1629.8848,116.9332 Q1629.8848,118.4713 1630.3884,119.2556 Q1630.8919,120.0399 1631.8807,120.0399 Q1632.3446,120.0399 1632.781,119.8415 Q1633.2174,119.6431 1633.6812,119.2159 Z " fill="#000000"/><text fill="#D8BC00" font-family="Open Sans,Avenir,Nunito,Arial,Helvetica,SansSerif" font-size="12.5" font-weight="bold" lengthAdjust="spacing" textLength="86.4583" x="1648.4375" y="121.5169">RelationFilter</text><line style="stroke:#5E5E5E;stroke-width:1.0416666666666667;" x1="1618.2292" x2="1740.1042" y1="132.487" y2="132.487"/><line style="stroke:#5E5E5E;stroke-width:1.0416666666666667;" x1="1618.2292" x2="1740.1042" y1="140.8203" y2="140.8203"/><rect codeLine="57" fill="#282828" height="83.3781" id="OsmRelationsFilter" rx="8.3333" ry="8.3333" style="stroke:#5E5E5E;stroke-width:1.0416666666666667;" width="161.4583" x="1598.4375" y="258.9111"/><rect fill="#1B1B1A" height="31.3883" rx="8.3333" ry="8.3333" style="stroke:#1B1B1A;stroke-width:1.0416666666666667;" width="161.4583" x="1598.4375" y="258.9111"/><rect fill="#1B1B1A" height="8.3333" style="stroke:#1B1B1A;stroke-width:1.0416666666666667;" width="161.4583" x="1598.4375" y="281.9661"/><rect codeLine="57" fill="none" height="83.3781" id="OsmRelationsFilter" rx="8.3333" ry="8.3333" style="stroke:#5E5E5E;stroke-width:1.0416666666666667;" width="161.4583" x="1598.4375" y="258.9111"/><ellipse cx="1613.0208" cy="274.6053" fill="#0066CF" rx="10.4167" ry="10.4167" style="stroke:#0086EF;stroke-width:1.0416666666666667;"/><path d="M1614.9312,279.0304 Q1614.504,279.2501 1614.034,279.3599 Q1613.564,279.4698 1613.0452,279.4698 Q1611.202,279.4698 1610.2315,278.2552 Q1609.2611,277.0406 1609.2611,274.7457 Q1609.2611,272.4447 1610.2315,271.2301 Q1611.202,270.0155 1613.0452,270.0155 Q1613.564,270.0155 1614.0401,270.1253 Q1614.5162,270.2352 1614.9312,270.4549 L1614.9312,272.4569 Q1614.4674,272.0296 1614.031,271.8313 Q1613.5946,271.6329 1613.1307,271.6329 Q1612.1419,271.6329 1611.6384,272.4172 Q1611.1348,273.2015 1611.1348,274.7457 Q1611.1348,276.2838 1611.6384,277.0681 Q1612.1419,277.8524 1613.1307,277.8524 Q1613.5946,277.8524 1614.031,277.654 Q1614.4674,277.4556 1614.9312,277.0284 Z " fill="#000000"/><text fill="#D8BC00" font-family="Open Sans,Avenir,Nunito,Arial,Helvetica,SansSerif" font-size="12.5" font-weight="bold" lengthAdjust="spacing" textLength="123.9583" x="1629.6875" y="279.3294">OsmRelationsFilter</text><line style="stroke:#5E5E5E;stroke-width:1.5625;" x1="1599.4792" x2="1758.8542" y1="290.2995" y2="290.2995"/><ellipse cx="1609.8958" cy="325.6694" fill="#84BE84" rx="3.125" ry="3.125" style="stroke:#038048;stroke-width:1.0416666666666667;"/><text fill="#D8BC00" font-family="Open Sans,Avenir,Nunito,Arial,Helvetica,SansSerif" font-size="11.4583" lengthAdjust="spacing" textLength="113.5417" x="1621.3542" y="332.5806">OsmRelationsFilter()</text><line style="stroke:#5E5E5E;stroke-width:1.0416666666666667;" x1="1599.4792" x2="1635.4167" y1="308.5052" y2="308.5052"/><text fill="#D8BC00" font-family="Open Sans,Avenir,Nunito,Arial,Helvetica,SansSerif" font-size="11.4583" lengthAdjust="spacing" textLength="81.25" x="1638.5417" y="312.3149">(constructors)</text><line style="stroke:#5E5E5E;stroke-width:1.0416666666666667;" x1="1722.9167" x2="1758.8542" y1="308.5052" y2="308.5052"/><rect codeLine="64" fill="#282828" height="83.3781" id="OsmWaysFilter" rx="8.3333" ry="8.3333" style="stroke:#5E5E5E;stroke-width:1.0416666666666667;" width="134.375" x="1427.6042" y="258.9111"/><rect fill="#1B1B1A" height="31.3883" rx="8.3333" ry="8.3333" style="stroke:#1B1B1A;stroke-width:1.0416666666666667;" width="134.375" x="1427.6042" y="258.9111"/><rect fill="#1B1B1A" height="8.3333" style="stroke:#1B1B1A;stroke-width:1.0416666666666667;" width="134.375" x="1427.6042" y="281.9661"/><rect codeLine="64" fill="none" height="83.3781" id="OsmWaysFilter" rx="8.3333" ry="8.3333" style="stroke:#5E5E5E;stroke-width:1.0416666666666667;" width="134.375" x="1427.6042" y="258.9111"/><ellipse cx="1442.1875" cy="274.6053" fill="#0066CF" rx="10.4167" ry="10.4167" style="stroke:#0086EF;stroke-width:1.0416666666666667;"/><path d="M1444.0979,279.0304 Q1443.6707,279.2501 1443.2007,279.3599 Q1442.7307,279.4698 1442.2119,279.4698 Q1440.3687,279.4698 1439.3982,278.2552 Q1438.4277,277.0406 1438.4277,274.7457 Q1438.4277,272.4447 1439.3982,271.2301 Q1440.3687,270.0155 1442.2119,270.0155 Q1442.7307,270.0155 1443.2068,270.1253 Q1443.6829,270.2352 1444.0979,270.4549 L1444.0979,272.4569 Q1443.634,272.0296 1443.1976,271.8313 Q1442.7612,271.6329 1442.2974,271.6329 Q1441.3086,271.6329 1440.8051,272.4172 Q1440.3015,273.2015 1440.3015,274.7457 Q1440.3015,276.2838 1440.8051,277.0681 Q1441.3086,277.8524 1442.2974,277.8524 Q1442.7612,277.8524 1443.1976,277.654 Q1443.634,277.4556 1444.0979,277.0284 Z " fill="#000000"/><text fill="#D8BC00" font-family="Open Sans,Avenir,Nunito,Arial,Helvetica,SansSerif" font-size="12.5" font-weight="bold" lengthAdjust="spacing" textLength="96.875" x="1458.8542" y="279.3294">OsmWaysFilter</text><line style="stroke:#5E5E5E;stroke-width:1.5625;" x1="1428.6458" x2="1560.9375" y1="290.2995" y2="290.2995"/><ellipse cx="1439.0625" cy="325.6694" fill="#84BE84" rx="3.125" ry="3.125" style="stroke:#038048;stroke-width:1.0416666666666667;"/><text fill="#D8BC00" font-family="Open Sans,Avenir,Nunito,Arial,Helvetica,SansSerif" font-size="11.4583" lengthAdjust="spacing" textLength="90.625" x="1450.5208" y="332.5806">OsmWaysFilter()</text><line style="stroke:#5E5E5E;stroke-width:1.0416666666666667;" x1="1428.6458" x2="1451.0417" y1="308.5052" y2="308.5052"/><text fill="#D8BC00" font-family="Open Sans,Avenir,Nunito,Arial,Helvetica,SansSerif" font-size="11.4583" lengthAdjust="spacing" textLength="81.25" x="1454.1667" y="312.3149">(constructors)</text><line style="stroke:#5E5E5E;stroke-width:1.0416666666666667;" x1="1538.5417" x2="1560.9375" y1="308.5052" y2="308.5052"/><path codeLine="15" d="M1111.25,156.5778 C1047.9688,184.984 953.1563,227.5257 883.4271,258.8278 " fill="none" id="WayFilter-backto-OsmExcludeNonDrivableWaysFilter" style="stroke:#545454;stroke-width:1.5625;"/><polygon fill="none" points="1108.625,149.7653,1130.6146,147.8903,1114.5938,163.0674,1108.625,149.7653" style="stroke:#545454;stroke-width:1.5625;"/><path codeLine="31" d="M550,170.3382 C550,197.557 550,232.2028 550,258.7653 " fill="none" id="PbfTagFilter-backto-OsmIgnoredTags" style="stroke:#545454;stroke-width:1.5625;"/><polygon fill="none" points="542.7083,169.9632,550,149.1299,557.2917,169.9632,542.7083,169.9632" style="stroke:#545454;stroke-width:1.5625;"/><path codeLine="38" d="M1151.8646,166.6924 C1133.2188,194.4111 1108.5938,231.0049 1089.9271,258.7653 " fill="none" id="WayFilter-backto-OsmMajorRoadsWayFilter" style="stroke:#545454;stroke-width:1.5625;"/><polygon fill="none" points="1146,162.3486,1163.6771,149.1299,1158.0938,170.484,1146,162.3486" style="stroke:#545454;stroke-width:1.5625;"/><path codeLine="45" d="M1206.4688,166.6924 C1225.1146,194.4111 1249.7396,231.0049 1268.4063,258.7653 " fill="none" id="WayFilter-backto-OsmNavigableWayFilter" style="stroke:#545454;stroke-width:1.5625;"/><polygon fill="none" points="1200.2396,170.484,1194.6563,149.1299,1212.3333,162.3486,1200.2396,170.484" style="stroke:#545454;stroke-width:1.5625;"/><path codeLine="56" d="M1679.1667,170.3382 C1679.1667,197.557 1679.1667,232.2028 1679.1667,258.7653 " fill="none" id="RelationFilter-backto-OsmRelationsFilter" style="stroke:#545454;stroke-width:1.5625;"/><polygon fill="none" points="1671.875,169.9632,1679.1667,149.1299,1686.4583,169.9632,1671.875,169.9632" style="stroke:#545454;stroke-width:1.5625;"/><path codeLine="63" d="M1239.6771,159.3486 C1293.4271,188.8903 1371.875,231.9945 1427.5729,262.5986 " fill="none" id="WayFilter-backto-OsmWaysFilter" style="stroke:#545454;stroke-width:1.5625;"/><polygon fill="none" points="1235.8229,165.557,1221.0833,149.1299,1242.8542,152.7757,1235.8229,165.557" style="stroke:#545454;stroke-width:1.5625;"/></g></svg>
