<?xml version="1.0" encoding="UTF-8" standalone="no"?><svg xmlns="http://www.w3.org/2000/svg" xmlns:xlink="http://www.w3.org/1999/xlink" contentScriptType="application/ecmascript" contentStyleType="text/css" height="254.1667px" preserveAspectRatio="none" style="width:1053px;height:254px;background:#333333;" version="1.1" viewBox="0 0 1053 254" width="1053.125px" zoomAndPan="magnify"><defs/><g><rect fill="#48494B" height="41.2028" rx="8.3333" ry="8.3333" style="stroke:#545454;stroke-width:1.0416666666666667;" width="597.9167" x="220.3125" y="2.0833"/><text fill="#C0C0C0" font-family="Open Sans,Avenir,Nunito,Arial,Helvetica,SansSerif" font-size="20.8333" lengthAdjust="spacing" textLength="575" x="231.7708" y="30.5583">com.telenav.mesakit.graph.io.load.loaders.region.regions</text><rect fill="#282828" height="48.055" id="RegionalGraphLoader" rx="8.3333" ry="8.3333" style="stroke:#5E5E5E;stroke-width:1.0416666666666667;" width="176.0417" x="440.625" y="53.7028"/><rect fill="#1B1B1A" height="31.3883" rx="8.3333" ry="8.3333" style="stroke:#1B1B1A;stroke-width:1.0416666666666667;" width="176.0417" x="440.625" y="53.7028"/><rect fill="#1B1B1A" height="8.3333" style="stroke:#1B1B1A;stroke-width:1.0416666666666667;" width="176.0417" x="440.625" y="76.7578"/><rect fill="none" height="48.055" id="RegionalGraphLoader" rx="8.3333" ry="8.3333" style="stroke:#5E5E5E;stroke-width:1.0416666666666667;" width="176.0417" x="440.625" y="53.7028"/><ellipse cx="455.2083" cy="69.397" fill="#0066CF" rx="10.4167" ry="10.4167" style="stroke:#0086EF;stroke-width:1.0416666666666667;"/><path d="M457.1187,73.822 Q456.6915,74.0417 456.2215,74.1516 Q455.7515,74.2615 455.2327,74.2615 Q453.3895,74.2615 452.419,73.0469 Q451.4486,71.8323 451.4486,69.5374 Q451.4486,67.2363 452.419,66.0217 Q453.3895,64.8071 455.2327,64.8071 Q455.7515,64.8071 456.2276,64.917 Q456.7037,65.0269 457.1187,65.2466 L457.1187,67.2485 Q456.6549,66.8213 456.2185,66.6229 Q455.7821,66.4246 455.3182,66.4246 Q454.3294,66.4246 453.8259,67.2089 Q453.3223,67.9932 453.3223,69.5374 Q453.3223,71.0754 453.8259,71.8597 Q454.3294,72.644 455.3182,72.644 Q455.7821,72.644 456.2185,72.4457 Q456.6549,72.2473 457.1187,71.8201 Z " fill="#000000"/><text fill="#D8BC00" font-family="Open Sans,Avenir,Nunito,Arial,Helvetica,SansSerif" font-size="12.5" font-weight="bold" lengthAdjust="spacing" textLength="138.5417" x="471.875" y="74.1211">RegionalGraphLoader</text><line style="stroke:#5E5E5E;stroke-width:1.0416666666666667;" x1="441.6667" x2="615.625" y1="85.0911" y2="85.0911"/><line style="stroke:#5E5E5E;stroke-width:1.0416666666666667;" x1="441.6667" x2="615.625" y1="93.4245" y2="93.4245"/><rect codeLine="8" fill="#282828" height="83.3781" id="ContinentLoader" rx="8.3333" ry="8.3333" style="stroke:#5E5E5E;stroke-width:1.0416666666666667;" width="230.2083" x="7.2917" y="164.1195"/><rect fill="#1B1B1A" height="31.3883" rx="8.3333" ry="8.3333" style="stroke:#1B1B1A;stroke-width:1.0416666666666667;" width="230.2083" x="7.2917" y="164.1195"/><rect fill="#1B1B1A" height="8.3333" style="stroke:#1B1B1A;stroke-width:1.0416666666666667;" width="230.2083" x="7.2917" y="187.1745"/><rect codeLine="8" fill="none" height="83.3781" id="ContinentLoader" rx="8.3333" ry="8.3333" style="stroke:#5E5E5E;stroke-width:1.0416666666666667;" width="230.2083" x="7.2917" y="164.1195"/><ellipse cx="60.9375" cy="179.8136" fill="#0066CF" rx="10.4167" ry="10.4167" style="stroke:#0086EF;stroke-width:1.0416666666666667;"/><path d="M62.8479,184.2387 Q62.4207,184.4584 61.9507,184.5683 Q61.4807,184.6781 60.9619,184.6781 Q59.1187,184.6781 58.1482,183.4635 Q57.1777,182.2489 57.1777,179.954 Q57.1777,177.653 58.1482,176.4384 Q59.1187,175.2238 60.9619,175.2238 Q61.4807,175.2238 61.9568,175.3337 Q62.4329,175.4435 62.8479,175.6632 L62.8479,177.6652 Q62.384,177.238 61.9476,177.0396 Q61.5112,176.8412 61.0474,176.8412 Q60.0586,176.8412 59.5551,177.6255 Q59.0515,178.4098 59.0515,179.954 Q59.0515,181.4921 59.5551,182.2764 Q60.0586,183.0607 61.0474,183.0607 Q61.5112,183.0607 61.9476,182.8623 Q62.384,182.664 62.8479,182.2367 Z " fill="#000000"/><text fill="#D8BC00" font-family="Open Sans,Avenir,Nunito,Arial,Helvetica,SansSerif" font-size="12.5" font-weight="bold" lengthAdjust="spacing" textLength="108.3333" x="83.8542" y="184.5378">ContinentLoader</text><line style="stroke:#5E5E5E;stroke-width:1.5625;" x1="8.3333" x2="236.4583" y1="195.5078" y2="195.5078"/><ellipse cx="18.75" cy="230.8777" fill="#84BE84" rx="3.125" ry="3.125" style="stroke:#038048;stroke-width:1.0416666666666667;"/><text fill="#D8BC00" font-family="Open Sans,Avenir,Nunito,Arial,Helvetica,SansSerif" font-size="11.4583" lengthAdjust="spacing" textLength="197.9167" x="30.2083" y="237.7889">ContinentLoader(Graph, Continent)</text><line style="stroke:#5E5E5E;stroke-width:1.0416666666666667;" x1="8.3333" x2="78.6458" y1="213.7136" y2="213.7136"/><text fill="#D8BC00" font-family="Open Sans,Avenir,Nunito,Arial,Helvetica,SansSerif" font-size="11.4583" lengthAdjust="spacing" textLength="81.25" x="81.7708" y="217.5232">(constructors)</text><line style="stroke:#5E5E5E;stroke-width:1.0416666666666667;" x1="166.1458" x2="236.4583" y1="213.7136" y2="213.7136"/><rect codeLine="15" fill="#282828" height="83.3781" id="CountryLoader" rx="8.3333" ry="8.3333" style="stroke:#5E5E5E;stroke-width:1.0416666666666667;" width="211.4583" x="273.9583" y="164.1195"/><rect fill="#1B1B1A" height="31.3883" rx="8.3333" ry="8.3333" style="stroke:#1B1B1A;stroke-width:1.0416666666666667;" width="211.4583" x="273.9583" y="164.1195"/><rect fill="#1B1B1A" height="8.3333" style="stroke:#1B1B1A;stroke-width:1.0416666666666667;" width="211.4583" x="273.9583" y="187.1745"/><rect codeLine="15" fill="none" height="83.3781" id="CountryLoader" rx="8.3333" ry="8.3333" style="stroke:#5E5E5E;stroke-width:1.0416666666666667;" width="211.4583" x="273.9583" y="164.1195"/><ellipse cx="324.4792" cy="179.8136" fill="#0066CF" rx="10.4167" ry="10.4167" style="stroke:#0086EF;stroke-width:1.0416666666666667;"/><path d="M326.3896,184.2387 Q325.9623,184.4584 325.4924,184.5683 Q325.0224,184.6781 324.5036,184.6781 Q322.6603,184.6781 321.6899,183.4635 Q320.7194,182.2489 320.7194,179.954 Q320.7194,177.653 321.6899,176.4384 Q322.6603,175.2238 324.5036,175.2238 Q325.0224,175.2238 325.4985,175.3337 Q325.9745,175.4435 326.3896,175.6632 L326.3896,177.6652 Q325.9257,177.238 325.4893,177.0396 Q325.0529,176.8412 324.589,176.8412 Q323.6003,176.8412 323.0967,177.6255 Q322.5932,178.4098 322.5932,179.954 Q322.5932,181.4921 323.0967,182.2764 Q323.6003,183.0607 324.589,183.0607 Q325.0529,183.0607 325.4893,182.8623 Q325.9257,182.664 326.3896,182.2367 Z " fill="#000000"/><text fill="#D8BC00" font-family="Open Sans,Avenir,Nunito,Arial,Helvetica,SansSerif" font-size="12.5" font-weight="bold" lengthAdjust="spacing" textLength="95.8333" x="347.3958" y="184.5378">CountryLoader</text><line style="stroke:#5E5E5E;stroke-width:1.5625;" x1="275" x2="484.375" y1="195.5078" y2="195.5078"/><ellipse cx="285.4167" cy="230.8777" fill="#84BE84" rx="3.125" ry="3.125" style="stroke:#038048;stroke-width:1.0416666666666667;"/><text fill="#D8BC00" font-family="Open Sans,Avenir,Nunito,Arial,Helvetica,SansSerif" font-size="11.4583" lengthAdjust="spacing" textLength="179.1667" x="296.875" y="237.7889">CountryLoader(Graph, Country)</text><line style="stroke:#5E5E5E;stroke-width:1.0416666666666667;" x1="275" x2="335.9375" y1="213.7136" y2="213.7136"/><text fill="#D8BC00" font-family="Open Sans,Avenir,Nunito,Arial,Helvetica,SansSerif" font-size="11.4583" lengthAdjust="spacing" textLength="81.25" x="339.0625" y="217.5232">(constructors)</text><line style="stroke:#5E5E5E;stroke-width:1.0416666666666667;" x1="423.4375" x2="484.375" y1="213.7136" y2="213.7136"/><rect codeLine="22" fill="#282828" height="83.3781" id="MetropolitanAreaLoader" rx="8.3333" ry="8.3333" style="stroke:#5E5E5E;stroke-width:1.0416666666666667;" width="313.5417" x="521.875" y="164.1195"/><rect fill="#1B1B1A" height="31.3883" rx="8.3333" ry="8.3333" style="stroke:#1B1B1A;stroke-width:1.0416666666666667;" width="313.5417" x="521.875" y="164.1195"/><rect fill="#1B1B1A" height="8.3333" style="stroke:#1B1B1A;stroke-width:1.0416666666666667;" width="313.5417" x="521.875" y="187.1745"/><rect codeLine="22" fill="none" height="83.3781" id="MetropolitanAreaLoader" rx="8.3333" ry="8.3333" style="stroke:#5E5E5E;stroke-width:1.0416666666666667;" width="313.5417" x="521.875" y="164.1195"/><ellipse cx="593.2292" cy="179.8136" fill="#0066CF" rx="10.4167" ry="10.4167" style="stroke:#0086EF;stroke-width:1.0416666666666667;"/><path d="M595.1396,184.2387 Q594.7123,184.4584 594.2424,184.5683 Q593.7724,184.6781 593.2536,184.6781 Q591.4103,184.6781 590.4399,183.4635 Q589.4694,182.2489 589.4694,179.954 Q589.4694,177.653 590.4399,176.4384 Q591.4103,175.2238 593.2536,175.2238 Q593.7724,175.2238 594.2485,175.3337 Q594.7245,175.4435 595.1396,175.6632 L595.1396,177.6652 Q594.6757,177.238 594.2393,177.0396 Q593.8029,176.8412 593.339,176.8412 Q592.3503,176.8412 591.8467,177.6255 Q591.3432,178.4098 591.3432,179.954 Q591.3432,181.4921 591.8467,182.2764 Q592.3503,183.0607 593.339,183.0607 Q593.8029,183.0607 594.2393,182.8623 Q594.6757,182.664 595.1396,182.2367 Z " fill="#000000"/><text fill="#D8BC00" font-family="Open Sans,Avenir,Nunito,Arial,Helvetica,SansSerif" font-size="12.5" font-weight="bold" lengthAdjust="spacing" textLength="156.25" x="616.1458" y="184.5378">MetropolitanAreaLoader</text><line style="stroke:#5E5E5E;stroke-width:1.5625;" x1="522.9167" x2="834.375" y1="195.5078" y2="195.5078"/><ellipse cx="533.3333" cy="230.8777" fill="#84BE84" rx="3.125" ry="3.125" style="stroke:#038048;stroke-width:1.0416666666666667;"/><text fill="#D8BC00" font-family="Open Sans,Avenir,Nunito,Arial,Helvetica,SansSerif" font-size="11.4583" lengthAdjust="spacing" textLength="281.25" x="544.7917" y="237.7889">MetropolitanAreaLoader(Graph, MetropolitanArea)</text><line style="stroke:#5E5E5E;stroke-width:1.0416666666666667;" x1="522.9167" x2="634.8958" y1="213.7136" y2="213.7136"/><text fill="#D8BC00" font-family="Open Sans,Avenir,Nunito,Arial,Helvetica,SansSerif" font-size="11.4583" lengthAdjust="spacing" textLength="81.25" x="638.0208" y="217.5232">(constructors)</text><line style="stroke:#5E5E5E;stroke-width:1.0416666666666667;" x1="722.3958" x2="834.375" y1="213.7136" y2="213.7136"/><rect codeLine="29" fill="#282828" height="83.3781" id="StateLoader" rx="8.3333" ry="8.3333" style="stroke:#5E5E5E;stroke-width:1.0416666666666667;" width="173.9583" x="871.875" y="164.1195"/><rect fill="#1B1B1A" height="31.3883" rx="8.3333" ry="8.3333" style="stroke:#1B1B1A;stroke-width:1.0416666666666667;" width="173.9583" x="871.875" y="164.1195"/><rect fill="#1B1B1A" height="8.3333" style="stroke:#1B1B1A;stroke-width:1.0416666666666667;" width="173.9583" x="871.875" y="187.1745"/><rect codeLine="29" fill="none" height="83.3781" id="StateLoader" rx="8.3333" ry="8.3333" style="stroke:#5E5E5E;stroke-width:1.0416666666666667;" width="173.9583" x="871.875" y="164.1195"/><ellipse cx="913.6458" cy="179.8136" fill="#0066CF" rx="10.4167" ry="10.4167" style="stroke:#0086EF;stroke-width:1.0416666666666667;"/><path d="M915.5562,184.2387 Q915.129,184.4584 914.659,184.5683 Q914.189,184.6781 913.6702,184.6781 Q911.827,184.6781 910.8565,183.4635 Q909.8861,182.2489 909.8861,179.954 Q909.8861,177.653 910.8565,176.4384 Q911.827,175.2238 913.6702,175.2238 Q914.189,175.2238 914.6651,175.3337 Q915.1412,175.4435 915.5562,175.6632 L915.5562,177.6652 Q915.0924,177.238 914.656,177.0396 Q914.2196,176.8412 913.7557,176.8412 Q912.7669,176.8412 912.2634,177.6255 Q911.7598,178.4098 911.7598,179.954 Q911.7598,181.4921 912.2634,182.2764 Q912.7669,183.0607 913.7557,183.0607 Q914.2196,183.0607 914.656,182.8623 Q915.0924,182.664 915.5562,182.2367 Z " fill="#000000"/><text fill="#D8BC00" font-family="Open Sans,Avenir,Nunito,Arial,Helvetica,SansSerif" font-size="12.5" font-weight="bold" lengthAdjust="spacing" textLength="76.0417" x="936.3542" y="184.5378">StateLoader</text><line style="stroke:#5E5E5E;stroke-width:1.5625;" x1="872.9167" x2="1044.7917" y1="195.5078" y2="195.5078"/><ellipse cx="883.3333" cy="230.8777" fill="#84BE84" rx="3.125" ry="3.125" style="stroke:#038048;stroke-width:1.0416666666666667;"/><text fill="#D8BC00" font-family="Open Sans,Avenir,Nunito,Arial,Helvetica,SansSerif" font-size="11.4583" lengthAdjust="spacing" textLength="141.6667" x="894.7917" y="237.7889">StateLoader(Graph, State)</text><line style="stroke:#5E5E5E;stroke-width:1.0416666666666667;" x1="872.9167" x2="915.1042" y1="213.7136" y2="213.7136"/><text fill="#D8BC00" font-family="Open Sans,Avenir,Nunito,Arial,Helvetica,SansSerif" font-size="11.4583" lengthAdjust="spacing" textLength="81.25" x="918.2292" y="217.5232">(constructors)</text><line style="stroke:#5E5E5E;stroke-width:1.0416666666666667;" x1="1002.6042" x2="1044.7917" y1="213.7136" y2="213.7136"/><path codeLine="7" d="M434.6354,107.8695 C375.9792,126.0674 300.0833,149.6195 237.7917,168.9424 " fill="none" id="RegionalGraphLoader-backto-ContinentLoader" style="stroke:#545454;stroke-width:1.5625;"/><polygon fill="none" points="432.5521,100.8799,454.6042,101.6715,436.8646,114.807,432.5521,100.8799" style="stroke:#545454;stroke-width:1.5625;"/><path codeLine="14" d="M485.1875,115.4736 C467.2396,130.6611 446.3542,148.3278 427.9375,163.9215 " fill="none" id="RegionalGraphLoader-backto-CountryLoader" style="stroke:#545454;stroke-width:1.5625;"/><polygon fill="none" points="480.7083,109.7132,501.3229,101.8174,490.1354,120.8486,480.7083,109.7132" style="stroke:#545454;stroke-width:1.5625;"/><path codeLine="21" d="M572.125,115.2445 C590.2708,130.484 611.4167,148.2549 630.0625,163.9215 " fill="none" id="RegionalGraphLoader-backto-MetropolitanAreaLoader" style="stroke:#545454;stroke-width:1.5625;"/><polygon fill="none" points="567.4167,120.807,556.1563,101.8174,576.8021,109.6403,567.4167,120.807" style="stroke:#545454;stroke-width:1.5625;"/><path codeLine="28" d="M637.4063,104.0674 C700.9583,119.6924 782.4271,141.0882 853.6458,164.1195 C859.6042,166.0465 865.7188,168.1299 871.8646,170.2965 " fill="none" id="RegionalGraphLoader-backto-StateLoader" style="stroke:#545454;stroke-width:1.5625;"/><polygon fill="none" points="635.5208,111.1195,617.0104,99.0986,638.9688,96.9424,635.5208,111.1195" style="stroke:#545454;stroke-width:1.5625;"/></g></svg>
