<?xml version="1.0" encoding="UTF-8" standalone="no"?><svg xmlns="http://www.w3.org/2000/svg" xmlns:xlink="http://www.w3.org/1999/xlink" contentScriptType="application/ecmascript" contentStyleType="text/css" height="504.1667px" preserveAspectRatio="none" style="width:730px;height:504px;background:#333333;" version="1.1" viewBox="0 0 730 504" width="730.2083px" zoomAndPan="magnify"><defs/><g><rect fill="#48494B" height="41.2028" rx="8.3333" ry="8.3333" style="stroke:#545454;stroke-width:1.0416666666666667;" width="717.7083" x="2.0833" y="2.0833"/><text fill="#C0C0C0" font-family="Open Sans,Avenir,Nunito,Arial,Helvetica,SansSerif" font-size="20.8333" lengthAdjust="spacing" textLength="694.7917" x="13.5417" y="30.5583">com.telenav.mesakit.graph.analytics.classification.classifiers.signpost</text><rect codeLine="7" fill="#282828" height="48.055" id="EdgeClassifier" rx="8.3333" ry="8.3333" style="stroke:#5E5E5E;stroke-width:1.0416666666666667;" width="130.2083" x="207.5521" y="196.4111"/><rect fill="#1B1B1A" height="31.3883" rx="8.3333" ry="8.3333" style="stroke:#1B1B1A;stroke-width:1.0416666666666667;" width="130.2083" x="207.5521" y="196.4111"/><rect fill="#1B1B1A" height="8.3333" style="stroke:#1B1B1A;stroke-width:1.0416666666666667;" width="130.2083" x="207.5521" y="219.4661"/><rect codeLine="7" fill="none" height="48.055" id="EdgeClassifier" rx="8.3333" ry="8.3333" style="stroke:#5E5E5E;stroke-width:1.0416666666666667;" width="130.2083" x="207.5521" y="196.4111"/><ellipse cx="222.1354" cy="212.1053" fill="#008400" rx="10.4167" ry="10.4167" style="stroke:#239C23;stroke-width:1.0416666666666667;"/><path d="M219.5394,209.2672 L219.5394,207.6803 L224.9654,207.6803 L224.9654,209.2672 L223.1527,209.2672 L223.1527,215.2059 L224.9654,215.2059 L224.9654,216.7928 L219.5394,216.7928 L219.5394,215.2059 L221.3521,215.2059 L221.3521,209.2672 Z " fill="#000000"/><text fill="#D8BC00" font-family="Open Sans,Avenir,Nunito,Arial,Helvetica,SansSerif" font-size="12.5" font-style="italic" font-weight="bold" lengthAdjust="spacing" textLength="92.7083" x="238.8021" y="216.8294">EdgeClassifier</text><line style="stroke:#5E5E5E;stroke-width:1.0416666666666667;" x1="208.5938" x2="336.7188" y1="227.7995" y2="227.7995"/><line style="stroke:#5E5E5E;stroke-width:1.0416666666666667;" x1="208.5938" x2="336.7188" y1="236.1328" y2="236.1328"/><rect codeLine="9" fill="#282828" height="332.8166" id="SignPost" rx="8.3333" ry="8.3333" style="stroke:#5E5E5E;stroke-width:1.0416666666666667;" width="197.9167" x="374.7396" y="53.7028"/><rect fill="#1B1B1A" height="31.3883" rx="8.3333" ry="8.3333" style="stroke:#1B1B1A;stroke-width:1.0416666666666667;" width="197.9167" x="374.7396" y="53.7028"/><rect fill="#1B1B1A" height="8.3333" style="stroke:#1B1B1A;stroke-width:1.0416666666666667;" width="197.9167" x="374.7396" y="76.7578"/><rect codeLine="9" fill="none" height="332.8166" id="SignPost" rx="8.3333" ry="8.3333" style="stroke:#5E5E5E;stroke-width:1.0416666666666667;" width="197.9167" x="374.7396" y="53.7028"/><ellipse cx="438.2813" cy="69.397" fill="#0066CF" rx="10.4167" ry="10.4167" style="stroke:#0086EF;stroke-width:1.0416666666666667;"/><path d="M440.1917,73.822 Q439.7644,74.0417 439.2944,74.1516 Q438.8245,74.2615 438.3057,74.2615 Q436.4624,74.2615 435.4919,73.0469 Q434.5215,71.8323 434.5215,69.5374 Q434.5215,67.2363 435.4919,66.0217 Q436.4624,64.8071 438.3057,64.8071 Q438.8245,64.8071 439.3005,64.917 Q439.7766,65.0269 440.1917,65.2466 L440.1917,67.2485 Q439.7278,66.8213 439.2914,66.6229 Q438.855,66.4246 438.3911,66.4246 Q437.4023,66.4246 436.8988,67.2089 Q436.3953,67.9932 436.3953,69.5374 Q436.3953,71.0754 436.8988,71.8597 Q437.4023,72.644 438.3911,72.644 Q438.855,72.644 439.2914,72.4457 Q439.7278,72.2473 440.1917,71.8201 Z " fill="#000000"/><text fill="#D8BC00" font-family="Open Sans,Avenir,Nunito,Arial,Helvetica,SansSerif" font-size="12.5" font-weight="bold" lengthAdjust="spacing" textLength="56.25" x="461.1979" y="74.1211">SignPost</text><line style="stroke:#5E5E5E;stroke-width:1.5625;" x1="375.7813" x2="571.6146" y1="85.0911" y2="85.0911"/><ellipse cx="386.1979" cy="120.461" fill="#84BE84" rx="3.125" ry="3.125" style="stroke:#038048;stroke-width:1.0416666666666667;"/><text fill="#D8BC00" font-family="Open Sans,Avenir,Nunito,Arial,Helvetica,SansSerif" font-size="11.4583" lengthAdjust="spacing" textLength="83.3333" x="397.6563" y="127.3722">SignPost(Edge)</text><ellipse cx="386.1979" cy="140.2059" fill="#84BE84" rx="3.125" ry="3.125" style="stroke:#038048;stroke-width:1.0416666666666667;"/><text fill="#D8BC00" font-family="Open Sans,Avenir,Nunito,Arial,Helvetica,SansSerif" font-size="11.4583" lengthAdjust="spacing" textLength="142.7083" x="397.6563" y="147.1171">SignPost(Vertex, EdgeSet)</text><line style="stroke:#5E5E5E;stroke-width:1.0416666666666667;" x1="375.7813" x2="429.9479" y1="103.2969" y2="103.2969"/><text fill="#D8BC00" font-family="Open Sans,Avenir,Nunito,Arial,Helvetica,SansSerif" font-size="11.4583" lengthAdjust="spacing" textLength="81.25" x="433.0729" y="107.1065">(constructors)</text><line style="stroke:#5E5E5E;stroke-width:1.0416666666666667;" x1="517.4479" x2="571.6146" y1="103.2969" y2="103.2969"/><line style="stroke:#5E5E5E;stroke-width:1.0416666666666667;" x1="375.7813" x2="571.6146" y1="156.8258" y2="156.8258"/><ellipse cx="386.1979" cy="168.2841" fill="#84BE84" rx="3.125" ry="3.125" style="stroke:#038048;stroke-width:1.0416666666666667;"/><text fill="#D8BC00" font-family="Open Sans,Avenir,Nunito,Arial,Helvetica,SansSerif" font-size="11.4583" lengthAdjust="spacing" textLength="94.7917" x="397.6563" y="175.1953">Edge leftBranch()</text><ellipse cx="386.1979" cy="188.029" fill="#84BE84" rx="3.125" ry="3.125" style="stroke:#038048;stroke-width:1.0416666666666667;"/><text fill="#D8BC00" font-family="Open Sans,Avenir,Nunito,Arial,Helvetica,SansSerif" font-size="11.4583" lengthAdjust="spacing" textLength="104.1667" x="397.6563" y="194.9402">Location location()</text><ellipse cx="386.1979" cy="207.7738" fill="#84BE84" rx="3.125" ry="3.125" style="stroke:#038048;stroke-width:1.0416666666666667;"/><text fill="#D8BC00" font-family="Open Sans,Avenir,Nunito,Arial,Helvetica,SansSerif" font-size="11.4583" lengthAdjust="spacing" textLength="107.2917" x="397.6563" y="214.6851">EdgeSet outEdges()</text><ellipse cx="386.1979" cy="227.5187" fill="#84BE84" rx="3.125" ry="3.125" style="stroke:#038048;stroke-width:1.0416666666666667;"/><text fill="#D8BC00" font-family="Open Sans,Avenir,Nunito,Arial,Helvetica,SansSerif" font-size="11.4583" lengthAdjust="spacing" textLength="104.1667" x="397.6563" y="234.4299">Edge rightBranch()</text><ellipse cx="386.1979" cy="247.2636" fill="#84BE84" rx="3.125" ry="3.125" style="stroke:#038048;stroke-width:1.0416666666666667;"/><text fill="#D8BC00" font-family="Open Sans,Avenir,Nunito,Arial,Helvetica,SansSerif" font-size="11.4583" lengthAdjust="spacing" textLength="83.3333" x="397.6563" y="254.1748">Vertex vertex()</text><ellipse cx="386.1979" cy="290.92" fill="#84BE84" rx="3.125" ry="3.125" style="stroke:#038048;stroke-width:1.0416666666666667;"/><text fill="#D8BC00" font-family="Open Sans,Avenir,Nunito,Arial,Helvetica,SansSerif" font-size="11.4583" lengthAdjust="spacing" textLength="145.8333" x="397.6563" y="297.8312">boolean hasDestinations()</text><ellipse cx="386.1979" cy="310.6649" fill="#84BE84" rx="3.125" ry="3.125" style="stroke:#038048;stroke-width:1.0416666666666667;"/><text fill="#D8BC00" font-family="Open Sans,Avenir,Nunito,Arial,Helvetica,SansSerif" font-size="11.4583" lengthAdjust="spacing" textLength="145.8333" x="397.6563" y="317.5761">boolean hasProperAngle()</text><ellipse cx="386.1979" cy="330.4097" fill="#84BE84" rx="3.125" ry="3.125" style="stroke:#038048;stroke-width:1.0416666666666667;"/><text fill="#D8BC00" font-family="Open Sans,Avenir,Nunito,Arial,Helvetica,SansSerif" font-size="11.4583" lengthAdjust="spacing" textLength="86.4583" x="397.6563" y="337.321">boolean isExit()</text><ellipse cx="386.1979" cy="350.1546" fill="#84BE84" rx="3.125" ry="3.125" style="stroke:#038048;stroke-width:1.0416666666666667;"/><text fill="#D8BC00" font-family="Open Sans,Avenir,Nunito,Arial,Helvetica,SansSerif" font-size="11.4583" lengthAdjust="spacing" textLength="165.625" x="397.6563" y="357.0658">boolean isMotorwayJunction()</text><ellipse cx="386.1979" cy="369.8995" fill="#84BE84" rx="3.125" ry="3.125" style="stroke:#038048;stroke-width:1.0416666666666667;"/><text fill="#D8BC00" font-family="Open Sans,Avenir,Nunito,Arial,Helvetica,SansSerif" font-size="11.4583" lengthAdjust="spacing" textLength="127.0833" x="397.6563" y="376.8107">boolean isOnFreeway()</text><line style="stroke:#5E5E5E;stroke-width:1.0416666666666667;" x1="375.7813" x2="447.1354" y1="273.7559" y2="273.7559"/><text fill="#D8BC00" font-family="Open Sans,Avenir,Nunito,Arial,Helvetica,SansSerif" font-size="11.4583" lengthAdjust="spacing" textLength="46.875" x="450.2604" y="277.5655">(checks)</text><line style="stroke:#5E5E5E;stroke-width:1.0416666666666667;" x1="500.2604" x2="571.6146" y1="273.7559" y2="273.7559"/><rect codeLine="29" fill="#282828" height="48.055" id="SignPostDetectionClassifier" rx="8.3333" ry="8.3333" style="stroke:#5E5E5E;stroke-width:1.0416666666666667;" width="217.7083" x="163.8021" y="449.5361"/><rect fill="#1B1B1A" height="31.3883" rx="8.3333" ry="8.3333" style="stroke:#1B1B1A;stroke-width:1.0416666666666667;" width="217.7083" x="163.8021" y="449.5361"/><rect fill="#1B1B1A" height="8.3333" style="stroke:#1B1B1A;stroke-width:1.0416666666666667;" width="217.7083" x="163.8021" y="472.5911"/><rect codeLine="29" fill="none" height="48.055" id="SignPostDetectionClassifier" rx="8.3333" ry="8.3333" style="stroke:#5E5E5E;stroke-width:1.0416666666666667;" width="217.7083" x="163.8021" y="449.5361"/><ellipse cx="178.3854" cy="465.2303" fill="#0066CF" rx="10.4167" ry="10.4167" style="stroke:#0086EF;stroke-width:1.0416666666666667;"/><path d="M180.2958,469.6554 Q179.8686,469.8751 179.3986,469.9849 Q178.9286,470.0948 178.4098,470.0948 Q176.5666,470.0948 175.5961,468.8802 Q174.6257,467.6656 174.6257,465.3707 Q174.6257,463.0697 175.5961,461.8551 Q176.5666,460.6405 178.4098,460.6405 Q178.9286,460.6405 179.4047,460.7503 Q179.8808,460.8602 180.2958,461.0799 L180.2958,463.0819 Q179.8319,462.6546 179.3955,462.4563 Q178.9591,462.2579 178.4953,462.2579 Q177.5065,462.2579 177.003,463.0422 Q176.4994,463.8265 176.4994,465.3707 Q176.4994,466.9088 177.003,467.6931 Q177.5065,468.4774 178.4953,468.4774 Q178.9591,468.4774 179.3955,468.279 Q179.8319,468.0806 180.2958,467.6534 Z " fill="#000000"/><text fill="#D8BC00" font-family="Open Sans,Avenir,Nunito,Arial,Helvetica,SansSerif" font-size="12.5" font-weight="bold" lengthAdjust="spacing" textLength="180.2083" x="195.0521" y="469.9544">SignPostDetectionClassifier</text><line style="stroke:#5E5E5E;stroke-width:1.0416666666666667;" x1="164.8438" x2="380.4688" y1="480.9245" y2="480.9245"/><line style="stroke:#5E5E5E;stroke-width:1.0416666666666667;" x1="164.8438" x2="380.4688" y1="489.2578" y2="489.2578"/><path codeLine="28" d="M272.6563,265.5049 C272.6563,319.1299 272.6563,407.6299 272.6563,449.3382 " fill="none" id="EdgeClassifier-backto-SignPostDetectionClassifier" style="stroke:#545454;stroke-width:1.5625;"/><polygon fill="none" points="265.3646,265.4111,272.6563,244.5778,279.9479,265.4111,265.3646,265.4111" style="stroke:#545454;stroke-width:1.5625;"/></g></svg>
