<?xml version="1.0" encoding="UTF-8" standalone="no"?><svg xmlns="http://www.w3.org/2000/svg" xmlns:xlink="http://www.w3.org/1999/xlink" contentScriptType="application/ecmascript" contentStyleType="text/css" height="254.1667px" preserveAspectRatio="none" style="width:662px;height:254px;background:#333333;" version="1.1" viewBox="0 0 662 254" width="662.5px" zoomAndPan="magnify"><defs/><g><rect fill="#48494B" height="41.2028" rx="8.3333" ry="8.3333" style="stroke:#545454;stroke-width:1.0416666666666667;" width="650" x="2.0833" y="2.0833"/><text fill="#C0C0C0" font-family="Open Sans,Avenir,Nunito,Arial,Helvetica,SansSerif" font-size="20.8333" lengthAdjust="spacing" textLength="627.0833" x="13.5417" y="30.5583">com.telenav.mesakit.graph.specifications.common.graph.store</text><rect fill="#282828" height="48.055" id="ArchivedGraphStore" rx="8.3333" ry="8.3333" style="stroke:#5E5E5E;stroke-width:1.0416666666666667;" width="165.625" x="251.5625" y="53.7028"/><rect fill="#1B1B1A" height="31.3883" rx="8.3333" ry="8.3333" style="stroke:#1B1B1A;stroke-width:1.0416666666666667;" width="165.625" x="251.5625" y="53.7028"/><rect fill="#1B1B1A" height="8.3333" style="stroke:#1B1B1A;stroke-width:1.0416666666666667;" width="165.625" x="251.5625" y="76.7578"/><rect fill="none" height="48.055" id="ArchivedGraphStore" rx="8.3333" ry="8.3333" style="stroke:#5E5E5E;stroke-width:1.0416666666666667;" width="165.625" x="251.5625" y="53.7028"/><ellipse cx="266.1458" cy="69.397" fill="#0066CF" rx="10.4167" ry="10.4167" style="stroke:#0086EF;stroke-width:1.0416666666666667;"/><path d="M268.0562,73.822 Q267.629,74.0417 267.159,74.1516 Q266.689,74.2615 266.1702,74.2615 Q264.327,74.2615 263.3565,73.0469 Q262.3861,71.8323 262.3861,69.5374 Q262.3861,67.2363 263.3565,66.0217 Q264.327,64.8071 266.1702,64.8071 Q266.689,64.8071 267.1651,64.917 Q267.6412,65.0269 268.0562,65.2466 L268.0562,67.2485 Q267.5924,66.8213 267.156,66.6229 Q266.7196,66.4246 266.2557,66.4246 Q265.2669,66.4246 264.7634,67.2089 Q264.2598,67.9932 264.2598,69.5374 Q264.2598,71.0754 264.7634,71.8597 Q265.2669,72.644 266.2557,72.644 Q266.7196,72.644 267.156,72.4457 Q267.5924,72.2473 268.0562,71.8201 Z " fill="#000000"/><text fill="#D8BC00" font-family="Open Sans,Avenir,Nunito,Arial,Helvetica,SansSerif" font-size="12.5" font-weight="bold" lengthAdjust="spacing" textLength="128.125" x="282.8125" y="74.1211">ArchivedGraphStore</text><line style="stroke:#5E5E5E;stroke-width:1.0416666666666667;" x1="252.6042" x2="416.1458" y1="85.0911" y2="85.0911"/><line style="stroke:#5E5E5E;stroke-width:1.0416666666666667;" x1="252.6042" x2="416.1458" y1="93.4245" y2="93.4245"/><rect codeLine="8" fill="#282828" height="83.3781" id="CommonGraphStore" rx="8.3333" ry="8.3333" style="stroke:#5E5E5E;stroke-width:1.0416666666666667;" width="189.5833" x="239.5833" y="164.1195"/><rect fill="#1B1B1A" height="31.3883" rx="8.3333" ry="8.3333" style="stroke:#1B1B1A;stroke-width:1.0416666666666667;" width="189.5833" x="239.5833" y="164.1195"/><rect fill="#1B1B1A" height="8.3333" style="stroke:#1B1B1A;stroke-width:1.0416666666666667;" width="189.5833" x="239.5833" y="187.1745"/><rect codeLine="8" fill="none" height="83.3781" id="CommonGraphStore" rx="8.3333" ry="8.3333" style="stroke:#5E5E5E;stroke-width:1.0416666666666667;" width="189.5833" x="239.5833" y="164.1195"/><ellipse cx="263.5417" cy="179.8136" fill="#0066CF" rx="10.4167" ry="10.4167" style="stroke:#0086EF;stroke-width:1.0416666666666667;"/><path d="M265.4521,184.2387 Q265.0248,184.4584 264.5549,184.5683 Q264.0849,184.6781 263.5661,184.6781 Q261.7228,184.6781 260.7524,183.4635 Q259.7819,182.2489 259.7819,179.954 Q259.7819,177.653 260.7524,176.4384 Q261.7228,175.2238 263.5661,175.2238 Q264.0849,175.2238 264.561,175.3337 Q265.037,175.4435 265.4521,175.6632 L265.4521,177.6652 Q264.9882,177.238 264.5518,177.0396 Q264.1154,176.8412 263.6515,176.8412 Q262.6628,176.8412 262.1592,177.6255 Q261.6557,178.4098 261.6557,179.954 Q261.6557,181.4921 262.1592,182.2764 Q262.6628,183.0607 263.6515,183.0607 Q264.1154,183.0607 264.5518,182.8623 Q264.9882,182.664 265.4521,182.2367 Z " fill="#000000"/><text fill="#D8BC00" font-family="Open Sans,Avenir,Nunito,Arial,Helvetica,SansSerif" font-size="12.5" font-weight="bold" lengthAdjust="spacing" textLength="131.25" x="282.2917" y="184.5378">CommonGraphStore</text><line style="stroke:#5E5E5E;stroke-width:1.5625;" x1="240.625" x2="428.125" y1="195.5078" y2="195.5078"/><ellipse cx="251.0417" cy="230.8777" fill="#84BE84" rx="3.125" ry="3.125" style="stroke:#038048;stroke-width:1.0416666666666667;"/><text fill="#D8BC00" font-family="Open Sans,Avenir,Nunito,Arial,Helvetica,SansSerif" font-size="11.4583" lengthAdjust="spacing" textLength="157.2917" x="262.5" y="237.7889">CommonGraphStore(Graph)</text><line style="stroke:#5E5E5E;stroke-width:1.0416666666666667;" x1="240.625" x2="290.625" y1="213.7136" y2="213.7136"/><text fill="#D8BC00" font-family="Open Sans,Avenir,Nunito,Arial,Helvetica,SansSerif" font-size="11.4583" lengthAdjust="spacing" textLength="81.25" x="293.75" y="217.5232">(constructors)</text><line style="stroke:#5E5E5E;stroke-width:1.0416666666666667;" x1="378.125" x2="428.125" y1="213.7136" y2="213.7136"/><path codeLine="7" d="M334.375,122.682 C334.375,136.0778 334.375,150.7445 334.375,163.9215 " fill="none" id="ArchivedGraphStore-backto-CommonGraphStore" style="stroke:#545454;stroke-width:1.5625;"/><polygon fill="none" points="327.0833,122.6507,334.375,101.8174,341.6667,122.6507,327.0833,122.6507" style="stroke:#545454;stroke-width:1.5625;"/></g></svg>
