<?xml version="1.0" encoding="UTF-8" standalone="no"?><svg xmlns="http://www.w3.org/2000/svg" xmlns:xlink="http://www.w3.org/1999/xlink" contentScriptType="application/ecmascript" contentStyleType="text/css" height="512.5px" preserveAspectRatio="none" style="width:684px;height:512px;background:#333333;" version="1.1" viewBox="0 0 684 512" width="684.375px" zoomAndPan="magnify"><defs/><g><rect fill="#48494B" height="41.2028" rx="8.3333" ry="8.3333" style="stroke:#545454;stroke-width:1.0416666666666667;" width="671.875" x="2.0833" y="2.0833"/><text fill="#C0C0C0" font-family="Open Sans,Avenir,Nunito,Arial,Helvetica,SansSerif" font-size="20.8333" lengthAdjust="spacing" textLength="648.9583" x="13.5417" y="30.5583">com.telenav.mesakit.graph.specifications.common.element.store</text><polygon fill="#333333" points="510.1563,52.6611,579.9479,52.6611,587.2396,79.8828,650.7813,79.8828,650.7813,174.5361,510.1563,174.5361,510.1563,52.6611" style="stroke:#333333;stroke-width:2.0833333333333335;"/><line style="stroke:#333333;stroke-width:2.0833333333333335;" x1="510.1563" x2="587.2396" y1="79.8828" y2="79.8828"/><text fill="#C8AC00" font-family="Open Sans,Avenir,Nunito,Arial,Helvetica,SansSerif" font-size="12.5" font-weight="bold" lengthAdjust="spacing" textLength="57.2917" x="517.4479" y="69.9544">TagStore</text><rect codeLine="11" fill="#282828" height="48.055" id="TagStore.Entry" rx="8.3333" ry="8.3333" style="stroke:#5E5E5E;stroke-width:1.0416666666666667;" width="70.8333" x="554.9479" y="101.6195"/><rect fill="#1B1B1A" height="31.3883" rx="8.3333" ry="8.3333" style="stroke:#1B1B1A;stroke-width:1.0416666666666667;" width="70.8333" x="554.9479" y="101.6195"/><rect fill="#1B1B1A" height="8.3333" style="stroke:#1B1B1A;stroke-width:1.0416666666666667;" width="70.8333" x="554.9479" y="124.6745"/><rect codeLine="11" fill="none" height="48.055" id="TagStore.Entry" rx="8.3333" ry="8.3333" style="stroke:#5E5E5E;stroke-width:1.0416666666666667;" width="70.8333" x="554.9479" y="101.6195"/><ellipse cx="569.5313" cy="117.3136" fill="#0066CF" rx="10.4167" ry="10.4167" style="stroke:#0086EF;stroke-width:1.0416666666666667;"/><path d="M571.4417,121.7387 Q571.0144,121.9584 570.5444,122.0683 Q570.0745,122.1781 569.5557,122.1781 Q567.7124,122.1781 566.7419,120.9635 Q565.7715,119.7489 565.7715,117.454 Q565.7715,115.153 566.7419,113.9384 Q567.7124,112.7238 569.5557,112.7238 Q570.0745,112.7238 570.5505,112.8337 Q571.0266,112.9435 571.4417,113.1632 L571.4417,115.1652 Q570.9778,114.738 570.5414,114.5396 Q570.105,114.3412 569.6411,114.3412 Q568.6523,114.3412 568.1488,115.1255 Q567.6453,115.9098 567.6453,117.454 Q567.6453,118.9921 568.1488,119.7764 Q568.6523,120.5607 569.6411,120.5607 Q570.105,120.5607 570.5414,120.3623 Q570.9778,120.164 571.4417,119.7367 Z " fill="#000000"/><text fill="#D8BC00" font-family="Open Sans,Avenir,Nunito,Arial,Helvetica,SansSerif" font-size="12.5" font-weight="bold" lengthAdjust="spacing" textLength="33.3333" x="586.1979" y="122.0378">Entry</text><line style="stroke:#5E5E5E;stroke-width:1.0416666666666667;" x1="555.9896" x2="624.7396" y1="133.0078" y2="133.0078"/><line style="stroke:#5E5E5E;stroke-width:1.0416666666666667;" x1="555.9896" x2="624.7396" y1="141.3411" y2="141.3411"/><rect codeLine="7" fill="#282828" height="48.055" id="Initializable" rx="8.3333" ry="8.3333" style="stroke:#5E5E5E;stroke-width:1.0416666666666667;" width="113.5417" x="29.4271" y="101.6195"/><rect fill="#1B1B1A" height="31.3883" rx="8.3333" ry="8.3333" style="stroke:#1B1B1A;stroke-width:1.0416666666666667;" width="113.5417" x="29.4271" y="101.6195"/><rect fill="#1B1B1A" height="8.3333" style="stroke:#1B1B1A;stroke-width:1.0416666666666667;" width="113.5417" x="29.4271" y="124.6745"/><rect codeLine="7" fill="none" height="48.055" id="Initializable" rx="8.3333" ry="8.3333" style="stroke:#5E5E5E;stroke-width:1.0416666666666667;" width="113.5417" x="29.4271" y="101.6195"/><ellipse cx="44.0104" cy="117.3136" fill="#008400" rx="10.4167" ry="10.4167" style="stroke:#239C23;stroke-width:1.0416666666666667;"/><path d="M41.4144,114.4755 L41.4144,112.8886 L46.8404,112.8886 L46.8404,114.4755 L45.0277,114.4755 L45.0277,120.4142 L46.8404,120.4142 L46.8404,122.0011 L41.4144,122.0011 L41.4144,120.4142 L43.2271,120.4142 L43.2271,114.4755 Z " fill="#000000"/><text fill="#D8BC00" font-family="Open Sans,Avenir,Nunito,Arial,Helvetica,SansSerif" font-size="12.5" font-style="italic" font-weight="bold" lengthAdjust="spacing" textLength="76.0417" x="60.6771" y="122.0378">Initializable</text><line style="stroke:#5E5E5E;stroke-width:1.0416666666666667;" x1="30.4688" x2="141.9271" y1="133.0078" y2="133.0078"/><line style="stroke:#5E5E5E;stroke-width:1.0416666666666667;" x1="30.4688" x2="141.9271" y1="141.3411" y2="141.3411"/><rect codeLine="8" fill="#282828" height="48.055" id="NamedObject" rx="8.3333" ry="8.3333" style="stroke:#5E5E5E;stroke-width:1.0416666666666667;" width="123.9583" x="179.4271" y="101.6195"/><rect fill="#1B1B1A" height="31.3883" rx="8.3333" ry="8.3333" style="stroke:#1B1B1A;stroke-width:1.0416666666666667;" width="123.9583" x="179.4271" y="101.6195"/><rect fill="#1B1B1A" height="8.3333" style="stroke:#1B1B1A;stroke-width:1.0416666666666667;" width="123.9583" x="179.4271" y="124.6745"/><rect codeLine="8" fill="none" height="48.055" id="NamedObject" rx="8.3333" ry="8.3333" style="stroke:#5E5E5E;stroke-width:1.0416666666666667;" width="123.9583" x="179.4271" y="101.6195"/><ellipse cx="194.0104" cy="117.3136" fill="#008400" rx="10.4167" ry="10.4167" style="stroke:#239C23;stroke-width:1.0416666666666667;"/><path d="M191.4144,114.4755 L191.4144,112.8886 L196.8404,112.8886 L196.8404,114.4755 L195.0277,114.4755 L195.0277,120.4142 L196.8404,120.4142 L196.8404,122.0011 L191.4144,122.0011 L191.4144,120.4142 L193.2271,120.4142 L193.2271,114.4755 Z " fill="#000000"/><text fill="#D8BC00" font-family="Open Sans,Avenir,Nunito,Arial,Helvetica,SansSerif" font-size="12.5" font-style="italic" font-weight="bold" lengthAdjust="spacing" textLength="86.4583" x="210.6771" y="122.0378">NamedObject</text><line style="stroke:#5E5E5E;stroke-width:1.0416666666666667;" x1="180.4688" x2="302.3438" y1="133.0078" y2="133.0078"/><line style="stroke:#5E5E5E;stroke-width:1.0416666666666667;" x1="180.4688" x2="302.3438" y1="141.3411" y2="141.3411"/><rect codeLine="9" fill="#282828" height="48.055" id="KryoSerializable" rx="8.3333" ry="8.3333" style="stroke:#5E5E5E;stroke-width:1.0416666666666667;" width="141.6667" x="340.3646" y="101.6195"/><rect fill="#1B1B1A" height="31.3883" rx="8.3333" ry="8.3333" style="stroke:#1B1B1A;stroke-width:1.0416666666666667;" width="141.6667" x="340.3646" y="101.6195"/><rect fill="#1B1B1A" height="8.3333" style="stroke:#1B1B1A;stroke-width:1.0416666666666667;" width="141.6667" x="340.3646" y="124.6745"/><rect codeLine="9" fill="none" height="48.055" id="KryoSerializable" rx="8.3333" ry="8.3333" style="stroke:#5E5E5E;stroke-width:1.0416666666666667;" width="141.6667" x="340.3646" y="101.6195"/><ellipse cx="354.9479" cy="117.3136" fill="#008400" rx="10.4167" ry="10.4167" style="stroke:#239C23;stroke-width:1.0416666666666667;"/><path d="M352.3519,114.4755 L352.3519,112.8886 L357.7779,112.8886 L357.7779,114.4755 L355.9652,114.4755 L355.9652,120.4142 L357.7779,120.4142 L357.7779,122.0011 L352.3519,122.0011 L352.3519,120.4142 L354.1646,120.4142 L354.1646,114.4755 Z " fill="#000000"/><text fill="#D8BC00" font-family="Open Sans,Avenir,Nunito,Arial,Helvetica,SansSerif" font-size="12.5" font-style="italic" font-weight="bold" lengthAdjust="spacing" textLength="104.1667" x="371.6146" y="122.0378">KryoSerializable</text><line style="stroke:#5E5E5E;stroke-width:1.0416666666666667;" x1="341.4063" x2="480.9896" y1="133.0078" y2="133.0078"/><line style="stroke:#5E5E5E;stroke-width:1.0416666666666667;" x1="341.4063" x2="480.9896" y1="141.3411" y2="141.3411"/><rect codeLine="18" fill="#282828" height="293.3268" id="TagStore" rx="8.3333" ry="8.3333" style="stroke:#5E5E5E;stroke-width:1.0416666666666667;" width="254.1667" x="114.3229" y="212.0361"/><rect fill="#1B1B1A" height="31.3883" rx="8.3333" ry="8.3333" style="stroke:#1B1B1A;stroke-width:1.0416666666666667;" width="254.1667" x="114.3229" y="212.0361"/><rect fill="#1B1B1A" height="8.3333" style="stroke:#1B1B1A;stroke-width:1.0416666666666667;" width="254.1667" x="114.3229" y="235.0911"/><rect codeLine="18" fill="none" height="293.3268" id="TagStore" rx="8.3333" ry="8.3333" style="stroke:#5E5E5E;stroke-width:1.0416666666666667;" width="254.1667" x="114.3229" y="212.0361"/><ellipse cx="205.4688" cy="227.7303" fill="#0066CF" rx="10.4167" ry="10.4167" style="stroke:#0086EF;stroke-width:1.0416666666666667;"/><path d="M207.3792,232.1554 Q206.9519,232.3751 206.4819,232.4849 Q206.012,232.5948 205.4932,232.5948 Q203.6499,232.5948 202.6794,231.3802 Q201.709,230.1656 201.709,227.8707 Q201.709,225.5697 202.6794,224.3551 Q203.6499,223.1405 205.4932,223.1405 Q206.012,223.1405 206.488,223.2503 Q206.9641,223.3602 207.3792,223.5799 L207.3792,225.5819 Q206.9153,225.1546 206.4789,224.9563 Q206.0425,224.7579 205.5786,224.7579 Q204.5898,224.7579 204.0863,225.5422 Q203.5828,226.3265 203.5828,227.8707 Q203.5828,229.4088 204.0863,230.1931 Q204.5898,230.9774 205.5786,230.9774 Q206.0425,230.9774 206.4789,230.779 Q206.9153,230.5806 207.3792,230.1534 Z " fill="#000000"/><text fill="#D8BC00" font-family="Open Sans,Avenir,Nunito,Arial,Helvetica,SansSerif" font-size="12.5" font-weight="bold" lengthAdjust="spacing" textLength="57.2917" x="228.3854" y="232.4544">TagStore</text><line style="stroke:#5E5E5E;stroke-width:1.5625;" x1="115.3646" x2="367.4479" y1="243.4245" y2="243.4245"/><polygon fill="#FFFF44" points="125.7813,273.586,129.9479,277.7527,125.7813,281.9194,121.6146,277.7527" style="stroke:#B38D22;stroke-width:1.0416666666666667;"/><text fill="#D8BC00" font-family="Open Sans,Avenir,Nunito,Arial,Helvetica,SansSerif" font-size="11.4583" lengthAdjust="spacing" textLength="58.3333" x="137.2396" y="285.7056">TagStore()</text><ellipse cx="125.7813" cy="298.5392" fill="#84BE84" rx="3.125" ry="3.125" style="stroke:#038048;stroke-width:1.0416666666666667;"/><text fill="#D8BC00" font-family="Open Sans,Avenir,Nunito,Arial,Helvetica,SansSerif" font-size="11.4583" lengthAdjust="spacing" textLength="171.875" x="137.2396" y="305.4504">TagStore(String, PbfTagCodec)</text><line style="stroke:#5E5E5E;stroke-width:1.0416666666666667;" x1="115.3646" x2="197.6563" y1="261.6302" y2="261.6302"/><text fill="#D8BC00" font-family="Open Sans,Avenir,Nunito,Arial,Helvetica,SansSerif" font-size="11.4583" lengthAdjust="spacing" textLength="81.25" x="200.7813" y="265.4399">(constructors)</text><line style="stroke:#5E5E5E;stroke-width:1.0416666666666667;" x1="285.1563" x2="367.4479" y1="261.6302" y2="261.6302"/><line style="stroke:#5E5E5E;stroke-width:1.0416666666666667;" x1="115.3646" x2="367.4479" y1="315.1591" y2="315.1591"/><ellipse cx="125.7813" cy="326.6174" fill="#84BE84" rx="3.125" ry="3.125" style="stroke:#038048;stroke-width:1.0416666666666667;"/><text fill="#D8BC00" font-family="Open Sans,Avenir,Nunito,Arial,Helvetica,SansSerif" font-size="11.4583" lengthAdjust="spacing" textLength="142.7083" x="137.2396" y="333.5286">void codec(PbfTagCodec)</text><ellipse cx="125.7813" cy="346.3623" fill="#84BE84" rx="3.125" ry="3.125" style="stroke:#038048;stroke-width:1.0416666666666667;"/><text fill="#D8BC00" font-family="Open Sans,Avenir,Nunito,Arial,Helvetica,SansSerif" font-size="11.4583" lengthAdjust="spacing" textLength="118.75" x="137.2396" y="353.2735">PbfTagCodec codec()</text><ellipse cx="125.7813" cy="366.1072" fill="#84BE84" rx="3.125" ry="3.125" style="stroke:#038048;stroke-width:1.0416666666666667;"/><text fill="#D8BC00" font-family="Open Sans,Avenir,Nunito,Arial,Helvetica,SansSerif" font-size="11.4583" lengthAdjust="spacing" textLength="165.625" x="137.2396" y="373.0184">void set(GraphElement, Entry)</text><ellipse cx="125.7813" cy="385.8521" fill="#84BE84" rx="3.125" ry="3.125" style="stroke:#038048;stroke-width:1.0416666666666667;"/><text fill="#D8BC00" font-family="Open Sans,Avenir,Nunito,Arial,Helvetica,SansSerif" font-size="11.4583" lengthAdjust="spacing" textLength="221.875" x="137.2396" y="392.7633">void set(GraphElement, PbfTagList tags)</text><ellipse cx="125.7813" cy="429.5085" fill="#84BE84" rx="3.125" ry="3.125" style="stroke:#038048;stroke-width:1.0416666666666667;"/><text fill="#D8BC00" font-family="Open Sans,Avenir,Nunito,Arial,Helvetica,SansSerif" font-size="11.4583" lengthAdjust="spacing" textLength="100" x="137.2396" y="436.4197">boolean isEmpty()</text><ellipse cx="125.7813" cy="449.2533" fill="#84BE84" rx="3.125" ry="3.125" style="stroke:#038048;stroke-width:1.0416666666666667;"/><text fill="#D8BC00" font-family="Open Sans,Avenir,Nunito,Arial,Helvetica,SansSerif" font-size="11.4583" lengthAdjust="spacing" textLength="47.9167" x="137.2396" y="456.1646">int size()</text><ellipse cx="125.7813" cy="468.9982" fill="#84BE84" rx="3.125" ry="3.125" style="stroke:#038048;stroke-width:1.0416666666666667;"/><text fill="#D8BC00" font-family="Open Sans,Avenir,Nunito,Arial,Helvetica,SansSerif" font-size="11.4583" lengthAdjust="spacing" textLength="185.4167" x="137.2396" y="475.9094">PbfTagList tagList(GraphElement)</text><ellipse cx="125.7813" cy="488.7431" fill="#84BE84" rx="3.125" ry="3.125" style="stroke:#038048;stroke-width:1.0416666666666667;"/><text fill="#D8BC00" font-family="Open Sans,Avenir,Nunito,Arial,Helvetica,SansSerif" font-size="11.4583" lengthAdjust="spacing" textLength="191.6667" x="137.2396" y="495.6543">PbfTagMap tagMap(GraphElement)</text><line style="stroke:#5E5E5E;stroke-width:1.0416666666666667;" x1="115.3646" x2="207.0313" y1="412.3444" y2="412.3444"/><text fill="#D8BC00" font-family="Open Sans,Avenir,Nunito,Arial,Helvetica,SansSerif" font-size="11.4583" lengthAdjust="spacing" textLength="62.5" x="210.1563" y="416.154">(collection)</text><line style="stroke:#5E5E5E;stroke-width:1.0416666666666667;" x1="275.7813" x2="367.4479" y1="412.3444" y2="412.3444"/><path codeLine="15" d="M381.8438,166.609 C372.1354,179.8174 360.7083,195.3903 348.625,211.8382 " fill="none" id="KryoSerializable-backto-TagStore" style="stroke:#545454;stroke-width:1.5625;"/><polygon fill="none" points="376.0938,162.1195,394.3021,149.6403,387.8438,170.7445,376.0938,162.1195" style="stroke:#545454;stroke-width:1.5625;"/><path codeLine="16" d="M241.4063,170.7757 C241.4063,183.0465 241.4063,197.0882 241.4063,211.8382 " fill="none" id="NamedObject-backto-TagStore" style="stroke:#545454;stroke-width:1.5625;"/><polygon fill="none" points="234.1146,170.4736,241.4063,149.6403,248.6979,170.4736,234.1146,170.4736" style="stroke:#545454;stroke-width:1.5625;"/><path codeLine="17" d="M113.3438,167.057 C122.1458,180.182 132.4792,195.5778 143.3958,211.8382 " fill="none" id="Initializable-backto-TagStore" style="stroke:#545454;stroke-width:1.5625;"/><polygon fill="none" points="107.1979,171.0049,101.6458,149.6403,119.3125,162.8695,107.1979,171.0049" style="stroke:#545454;stroke-width:1.5625;"/></g></svg>
