<?xml version="1.0" encoding="UTF-8" standalone="no"?><svg xmlns="http://www.w3.org/2000/svg" xmlns:xlink="http://www.w3.org/1999/xlink" contentScriptType="application/ecmascript" contentStyleType="text/css" height="409.375px" preserveAspectRatio="none" style="width:484px;height:409px;background:#333333;" version="1.1" viewBox="0 0 484 409" width="484.375px" zoomAndPan="magnify"><defs/><g><rect fill="#48494B" height="41.2028" rx="8.3333" ry="8.3333" style="stroke:#545454;stroke-width:1.0416666666666667;" width="471.875" x="2.0833" y="2.0833"/><text fill="#C0C0C0" font-family="Open Sans,Avenir,Nunito,Arial,Helvetica,SansSerif" font-size="20.8333" lengthAdjust="spacing" textLength="448.9583" x="13.5417" y="30.5583">com.telenav.mesakit.graph.analytics.junction</text><rect codeLine="7" fill="#282828" height="48.055" id="BaseRepeater" rx="8.3333" ry="8.3333" style="stroke:#5E5E5E;stroke-width:1.0416666666666667;" width="123.9583" x="85.9375" y="85.4736"/><rect fill="#1B1B1A" height="31.3883" rx="8.3333" ry="8.3333" style="stroke:#1B1B1A;stroke-width:1.0416666666666667;" width="123.9583" x="85.9375" y="85.4736"/><rect fill="#1B1B1A" height="8.3333" style="stroke:#1B1B1A;stroke-width:1.0416666666666667;" width="123.9583" x="85.9375" y="108.5286"/><rect codeLine="7" fill="none" height="48.055" id="BaseRepeater" rx="8.3333" ry="8.3333" style="stroke:#5E5E5E;stroke-width:1.0416666666666667;" width="123.9583" x="85.9375" y="85.4736"/><ellipse cx="100.5208" cy="101.1678" fill="#C8AC00" rx="10.4167" ry="10.4167" style="stroke:#D8BC00;stroke-width:1.0416666666666667;"/><path d="M100.1139,97.8699 L99.2655,101.5991 L100.9684,101.5991 Z M99.0153,96.2219 L101.2187,96.2219 L103.6784,105.3345 L101.8778,105.3345 L101.3163,103.0823 L98.9054,103.0823 L98.3561,105.3345 L96.5556,105.3345 Z " fill="#000000"/><text fill="#D8BC00" font-family="Open Sans,Avenir,Nunito,Arial,Helvetica,SansSerif" font-size="12.5" font-style="italic" font-weight="bold" lengthAdjust="spacing" textLength="86.4583" x="117.1875" y="105.8919">BaseRepeater</text><line style="stroke:#5E5E5E;stroke-width:1.0416666666666667;" x1="86.9792" x2="208.8542" y1="116.862" y2="116.862"/><line style="stroke:#5E5E5E;stroke-width:1.0416666666666667;" x1="86.9792" x2="208.8542" y1="125.1953" y2="125.1953"/><rect codeLine="10" fill="#282828" height="174.8576" id="JunctionEdgeFinder" rx="8.3333" ry="8.3333" style="stroke:#5E5E5E;stroke-width:1.0416666666666667;" width="229.1667" x="33.3333" y="227.6611"/><rect fill="#1B1B1A" height="31.3883" rx="8.3333" ry="8.3333" style="stroke:#1B1B1A;stroke-width:1.0416666666666667;" width="229.1667" x="33.3333" y="227.6611"/><rect fill="#1B1B1A" height="8.3333" style="stroke:#1B1B1A;stroke-width:1.0416666666666667;" width="229.1667" x="33.3333" y="250.7161"/><rect codeLine="10" fill="none" height="174.8576" id="JunctionEdgeFinder" rx="8.3333" ry="8.3333" style="stroke:#5E5E5E;stroke-width:1.0416666666666667;" width="229.1667" x="33.3333" y="227.6611"/><ellipse cx="77.6042" cy="243.3553" fill="#C8AC00" rx="10.4167" ry="10.4167" style="stroke:#D8BC00;stroke-width:1.0416666666666667;"/><path d="M77.1973,240.0574 L76.3489,243.7866 L78.0518,243.7866 Z M76.0986,238.4094 L78.302,238.4094 L80.7617,247.522 L78.9612,247.522 L78.3997,245.2698 L75.9888,245.2698 L75.4395,247.522 L73.6389,247.522 Z " fill="#000000"/><text fill="#D8BC00" font-family="Open Sans,Avenir,Nunito,Arial,Helvetica,SansSerif" font-size="12.5" font-style="italic" font-weight="bold" lengthAdjust="spacing" textLength="126.0417" x="100.5208" y="248.0794">JunctionEdgeFinder</text><line style="stroke:#5E5E5E;stroke-width:1.5625;" x1="34.375" x2="261.4583" y1="259.0495" y2="259.0495"/><polygon fill="#FFFF44" points="44.7917,289.211,48.9583,293.3777,44.7917,297.5444,40.625,293.3777" style="stroke:#B38D22;stroke-width:1.0416666666666667;"/><text fill="#D8BC00" font-family="Open Sans,Avenir,Nunito,Arial,Helvetica,SansSerif" font-size="11.4583" lengthAdjust="spacing" textLength="196.875" x="56.25" y="301.3306">JunctionEdgeFinder(EdgeSequence)</text><line style="stroke:#5E5E5E;stroke-width:1.0416666666666667;" x1="34.375" x2="104.1667" y1="277.2552" y2="277.2552"/><text fill="#D8BC00" font-family="Open Sans,Avenir,Nunito,Arial,Helvetica,SansSerif" font-size="11.4583" lengthAdjust="spacing" textLength="81.25" x="107.2917" y="281.0649">(constructors)</text><line style="stroke:#5E5E5E;stroke-width:1.0416666666666667;" x1="191.6667" x2="261.4583" y1="277.2552" y2="277.2552"/><line style="stroke:#5E5E5E;stroke-width:1.0416666666666667;" x1="34.375" x2="261.4583" y1="311.0392" y2="311.0392"/><polygon fill="#FFFF44" points="44.7917,317.2892,48.9583,321.4559,44.7917,325.6226,40.625,321.4559" style="stroke:#B38D22;stroke-width:1.0416666666666667;"/><text fill="#D8BC00" font-family="Open Sans,Avenir,Nunito,Arial,Helvetica,SansSerif" font-size="11.4583" lengthAdjust="spacing" textLength="136.4583" x="56.25" y="329.4088">void onConnector(Edge)</text><polygon fill="#FFFF44" points="44.7917,337.0341,48.9583,341.2008,44.7917,345.3674,40.625,341.2008" style="stroke:#B38D22;stroke-width:1.0416666666666667;"/><text fill="#D8BC00" font-family="Open Sans,Avenir,Nunito,Arial,Helvetica,SansSerif" font-size="11.4583" lengthAdjust="spacing" textLength="122.9167" x="56.25" y="349.1536">void onJunction(Edge)</text><ellipse cx="44.7917" cy="385.8988" fill="#84BE84" rx="3.125" ry="3.125" style="stroke:#038048;stroke-width:1.0416666666666667;"/><text fill="#D8BC00" font-family="Open Sans,Avenir,Nunito,Arial,Helvetica,SansSerif" font-size="11.4583" lengthAdjust="spacing" textLength="57.2917" x="56.25" y="392.8101">void find()</text><line style="stroke:#5E5E5E;stroke-width:1.0416666666666667;" x1="34.375" x2="121.875" y1="368.7347" y2="368.7347"/><text fill="#D8BC00" font-family="Open Sans,Avenir,Nunito,Arial,Helvetica,SansSerif" font-size="11.4583" lengthAdjust="spacing" textLength="45.8333" x="125" y="372.5444">(search)</text><line style="stroke:#5E5E5E;stroke-width:1.0416666666666667;" x1="173.9583" x2="261.4583" y1="368.7347" y2="368.7347"/><rect codeLine="21" fill="#282828" height="111.4563" id="JunctionEdgeOptimizer" rx="8.3333" ry="8.3333" style="stroke:#5E5E5E;stroke-width:1.0416666666666667;" width="212.5" x="246.875" y="53.7028"/><rect fill="#1B1B1A" height="31.3883" rx="8.3333" ry="8.3333" style="stroke:#1B1B1A;stroke-width:1.0416666666666667;" width="212.5" x="246.875" y="53.7028"/><rect fill="#1B1B1A" height="8.3333" style="stroke:#1B1B1A;stroke-width:1.0416666666666667;" width="212.5" x="246.875" y="76.7578"/><rect codeLine="21" fill="none" height="111.4563" id="JunctionEdgeOptimizer" rx="8.3333" ry="8.3333" style="stroke:#5E5E5E;stroke-width:1.0416666666666667;" width="212.5" x="246.875" y="53.7028"/><ellipse cx="272.7083" cy="69.397" fill="#0066CF" rx="10.4167" ry="10.4167" style="stroke:#0086EF;stroke-width:1.0416666666666667;"/><path d="M274.6187,73.822 Q274.1915,74.0417 273.7215,74.1516 Q273.2515,74.2615 272.7327,74.2615 Q270.8895,74.2615 269.919,73.0469 Q268.9486,71.8323 268.9486,69.5374 Q268.9486,67.2363 269.919,66.0217 Q270.8895,64.8071 272.7327,64.8071 Q273.2515,64.8071 273.7276,64.917 Q274.2037,65.0269 274.6187,65.2466 L274.6187,67.2485 Q274.1549,66.8213 273.7185,66.6229 Q273.2821,66.4246 272.8182,66.4246 Q271.8294,66.4246 271.3259,67.2089 Q270.8223,67.9932 270.8223,69.5374 Q270.8223,71.0754 271.3259,71.8597 Q271.8294,72.644 272.8182,72.644 Q273.2821,72.644 273.7185,72.4457 Q274.1549,72.2473 274.6187,71.8201 Z " fill="#000000"/><text fill="#D8BC00" font-family="Open Sans,Avenir,Nunito,Arial,Helvetica,SansSerif" font-size="12.5" font-weight="bold" lengthAdjust="spacing" textLength="150" x="291.875" y="74.1211">JunctionEdgeOptimizer</text><line style="stroke:#5E5E5E;stroke-width:1.5625;" x1="247.9167" x2="458.3333" y1="85.0911" y2="85.0911"/><ellipse cx="258.3333" cy="120.461" fill="#84BE84" rx="3.125" ry="3.125" style="stroke:#038048;stroke-width:1.0416666666666667;"/><text fill="#D8BC00" font-family="Open Sans,Avenir,Nunito,Arial,Helvetica,SansSerif" font-size="11.4583" lengthAdjust="spacing" textLength="180.2083" x="269.7917" y="127.3722">JunctionEdgeOptimizer(EdgeSet)</text><line style="stroke:#5E5E5E;stroke-width:1.0416666666666667;" x1="247.9167" x2="309.375" y1="103.2969" y2="103.2969"/><text fill="#D8BC00" font-family="Open Sans,Avenir,Nunito,Arial,Helvetica,SansSerif" font-size="11.4583" lengthAdjust="spacing" textLength="81.25" x="312.5" y="107.1065">(constructors)</text><line style="stroke:#5E5E5E;stroke-width:1.0416666666666667;" x1="396.875" x2="458.3333" y1="103.2969" y2="103.2969"/><line style="stroke:#5E5E5E;stroke-width:1.0416666666666667;" x1="247.9167" x2="458.3333" y1="137.0809" y2="137.0809"/><ellipse cx="258.3333" cy="148.5392" fill="#84BE84" rx="3.125" ry="3.125" style="stroke:#038048;stroke-width:1.0416666666666667;"/><text fill="#D8BC00" font-family="Open Sans,Avenir,Nunito,Arial,Helvetica,SansSerif" font-size="11.4583" lengthAdjust="spacing" textLength="103.125" x="269.7917" y="155.4504">EdgeSet optimize()</text><path codeLine="9" d="M147.9167,154.3799 C147.9167,175.807 147.9167,202.3695 147.9167,227.6507 " fill="none" id="BaseRepeater-backto-JunctionEdgeFinder" style="stroke:#545454;stroke-width:1.5625;"/><polygon fill="none" points="140.625,154.2757,147.9167,133.4424,155.2083,154.2757,140.625,154.2757" style="stroke:#545454;stroke-width:1.5625;"/></g></svg>
