<?xml version="1.0" encoding="UTF-8" standalone="no"?><svg xmlns="http://www.w3.org/2000/svg" xmlns:xlink="http://www.w3.org/1999/xlink" contentScriptType="application/ecmascript" contentStyleType="text/css" height="364.5833px" preserveAspectRatio="none" style="width:1246px;height:364px;background:#333333;" version="1.1" viewBox="0 0 1246 364" width="1246.875px" zoomAndPan="magnify"><defs/><g><rect fill="#48494B" height="41.2028" rx="8.3333" ry="8.3333" style="stroke:#545454;stroke-width:1.0416666666666667;" width="776.0417" x="228.125" y="2.0833"/><text fill="#C0C0C0" font-family="Open Sans,Avenir,Nunito,Arial,Helvetica,SansSerif" font-size="20.8333" lengthAdjust="spacing" textLength="753.125" x="239.5833" y="30.5583">com.telenav.mesakit.graph.specifications.osm.graph.edge.model.attributes</text><!--MD5=[db40b6440c95f8cc607572d61360fb5f]
cluster GraphElementAttributes--><polygon fill="#333333" points="1005.2083,52.6611,1173.9583,52.6611,1181.25,79.8828,1226.0417,79.8828,1226.0417,157.8695,1005.2083,157.8695,1005.2083,52.6611" style="stroke:#333333;stroke-width:2.0833333333333335;"/><line style="stroke:#333333;stroke-width:2.0833333333333335;" x1="1005.2083" x2="1181.25" y1="79.8828" y2="79.8828"/><text fill="#C8AC00" font-family="Open Sans,Avenir,Nunito,Arial,Helvetica,SansSerif" font-size="12.5" font-weight="bold" lengthAdjust="spacing" textLength="156.25" x="1012.5" y="69.9544">GraphElementAttributes</text><!--MD5=[4334d1f1444605acd8ff33a200d195bd]
cluster OsmEdgeAttributes--><polygon fill="#333333" points="982.2917,200.5778,1121.875,200.5778,1129.1667,227.7995,1229.1667,227.7995,1229.1667,357.8695,982.2917,357.8695,982.2917,200.5778" style="stroke:#333333;stroke-width:2.0833333333333335;"/><line style="stroke:#333333;stroke-width:2.0833333333333335;" x1="982.2917" x2="1129.1667" y1="227.7995" y2="227.7995"/><text fill="#C8AC00" font-family="Open Sans,Avenir,Nunito,Arial,Helvetica,SansSerif" font-size="12.5" font-weight="bold" lengthAdjust="spacing" textLength="127.0833" x="989.5833" y="217.8711">OsmEdgeAttributes</text><!--MD5=[aab74cbd59a4fbe0c1f09a2482e4f314]
class GraphElementAttributes.GraphElementAttribute--><rect fill="#282828" height="48.055" id="GraphElementAttributes.GraphElementAttribute" rx="8.3333" ry="8.3333" style="stroke:#5E5E5E;stroke-width:1.0416666666666667;" width="186.4583" x="1022.3958" y="93.2861"/><rect fill="#1B1B1A" height="31.3883" rx="8.3333" ry="8.3333" style="stroke:#1B1B1A;stroke-width:1.0416666666666667;" width="186.4583" x="1022.3958" y="93.2861"/><rect fill="#1B1B1A" height="8.3333" style="stroke:#1B1B1A;stroke-width:1.0416666666666667;" width="186.4583" x="1022.3958" y="116.3411"/><rect fill="none" height="48.055" id="GraphElementAttributes.GraphElementAttribute" rx="8.3333" ry="8.3333" style="stroke:#5E5E5E;stroke-width:1.0416666666666667;" width="186.4583" x="1022.3958" y="93.2861"/><ellipse cx="1036.9792" cy="108.9803" fill="#0066CF" rx="10.4167" ry="10.4167" style="stroke:#0086EF;stroke-width:1.0416666666666667;"/><path d="M1038.8896,113.4054 Q1038.4623,113.6251 1037.9924,113.7349 Q1037.5224,113.8448 1037.0036,113.8448 Q1035.1603,113.8448 1034.1899,112.6302 Q1033.2194,111.4156 1033.2194,109.1207 Q1033.2194,106.8197 1034.1899,105.6051 Q1035.1603,104.3905 1037.0036,104.3905 Q1037.5224,104.3905 1037.9985,104.5003 Q1038.4745,104.6102 1038.8896,104.8299 L1038.8896,106.8319 Q1038.4257,106.4046 1037.9893,106.2063 Q1037.5529,106.0079 1037.089,106.0079 Q1036.1003,106.0079 1035.5967,106.7922 Q1035.0932,107.5765 1035.0932,109.1207 Q1035.0932,110.6588 1035.5967,111.4431 Q1036.1003,112.2274 1037.089,112.2274 Q1037.5529,112.2274 1037.9893,112.029 Q1038.4257,111.8306 1038.8896,111.4034 Z " fill="#000000"/><text fill="#D8BC00" font-family="Open Sans,Avenir,Nunito,Arial,Helvetica,SansSerif" font-size="12.5" font-weight="bold" lengthAdjust="spacing" textLength="148.9583" x="1053.6458" y="113.7044">GraphElementAttribute</text><line style="stroke:#5E5E5E;stroke-width:1.0416666666666667;" x1="1023.4375" x2="1207.8125" y1="124.6745" y2="124.6745"/><line style="stroke:#5E5E5E;stroke-width:1.0416666666666667;" x1="1023.4375" x2="1207.8125" y1="133.0078" y2="133.0078"/><!--MD5=[6074295767200f6d81cb15c4a3619742]
class OsmEdgeAttributes.OsmEdgeAttribute--><rect codeLine="7" fill="#282828" height="83.3781" id="OsmEdgeAttributes.OsmEdgeAttribute" rx="8.3333" ry="8.3333" style="stroke:#5E5E5E;stroke-width:1.0416666666666667;" width="177.0833" x="1027.0833" y="249.5361"/><rect fill="#1B1B1A" height="31.3883" rx="8.3333" ry="8.3333" style="stroke:#1B1B1A;stroke-width:1.0416666666666667;" width="177.0833" x="1027.0833" y="249.5361"/><rect fill="#1B1B1A" height="8.3333" style="stroke:#1B1B1A;stroke-width:1.0416666666666667;" width="177.0833" x="1027.0833" y="272.5911"/><rect codeLine="7" fill="none" height="83.3781" id="OsmEdgeAttributes.OsmEdgeAttribute" rx="8.3333" ry="8.3333" style="stroke:#5E5E5E;stroke-width:1.0416666666666667;" width="177.0833" x="1027.0833" y="249.5361"/><ellipse cx="1050.5729" cy="265.2303" fill="#0066CF" rx="10.4167" ry="10.4167" style="stroke:#0086EF;stroke-width:1.0416666666666667;"/><path d="M1052.4833,269.6554 Q1052.0561,269.8751 1051.5861,269.9849 Q1051.1161,270.0948 1050.5973,270.0948 Q1048.7541,270.0948 1047.7836,268.8802 Q1046.8132,267.6656 1046.8132,265.3707 Q1046.8132,263.0697 1047.7836,261.8551 Q1048.7541,260.6405 1050.5973,260.6405 Q1051.1161,260.6405 1051.5922,260.7503 Q1052.0683,260.8602 1052.4833,261.0799 L1052.4833,263.0819 Q1052.0194,262.6546 1051.583,262.4563 Q1051.1466,262.2579 1050.6828,262.2579 Q1049.694,262.2579 1049.1905,263.0422 Q1048.6869,263.8265 1048.6869,265.3707 Q1048.6869,266.9088 1049.1905,267.6931 Q1049.694,268.4774 1050.6828,268.4774 Q1051.1466,268.4774 1051.583,268.279 Q1052.0194,268.0806 1052.4833,267.6534 Z " fill="#000000"/><text fill="#D8BC00" font-family="Open Sans,Avenir,Nunito,Arial,Helvetica,SansSerif" font-size="12.5" font-weight="bold" lengthAdjust="spacing" textLength="119.7917" x="1069.2188" y="269.9544">OsmEdgeAttribute</text><line style="stroke:#5E5E5E;stroke-width:1.5625;" x1="1028.125" x2="1203.125" y1="280.9245" y2="280.9245"/><ellipse cx="1038.5417" cy="316.2944" fill="#84BE84" rx="3.125" ry="3.125" style="stroke:#038048;stroke-width:1.0416666666666667;"/><text fill="#D8BC00" font-family="Open Sans,Avenir,Nunito,Arial,Helvetica,SansSerif" font-size="11.4583" lengthAdjust="spacing" textLength="144.7917" x="1050" y="323.2056">OsmEdgeAttribute(String)</text><line style="stroke:#5E5E5E;stroke-width:1.0416666666666667;" x1="1028.125" x2="1071.875" y1="299.1302" y2="299.1302"/><text fill="#D8BC00" font-family="Open Sans,Avenir,Nunito,Arial,Helvetica,SansSerif" font-size="11.4583" lengthAdjust="spacing" textLength="81.25" x="1075" y="302.9399">(constructors)</text><line style="stroke:#5E5E5E;stroke-width:1.0416666666666667;" x1="1159.375" x2="1203.125" y1="299.1302" y2="299.1302"/><!--MD5=[1d0b97287d22fb6005c9a70d8238e9b6]
class EdgeAttributes--><rect fill="#282828" height="48.055" id="EdgeAttributes" rx="8.3333" ry="8.3333" style="stroke:#5E5E5E;stroke-width:1.0416666666666667;" width="134.375" x="27.6042" y="93.2861"/><rect fill="#1B1B1A" height="31.3883" rx="8.3333" ry="8.3333" style="stroke:#1B1B1A;stroke-width:1.0416666666666667;" width="134.375" x="27.6042" y="93.2861"/><rect fill="#1B1B1A" height="8.3333" style="stroke:#1B1B1A;stroke-width:1.0416666666666667;" width="134.375" x="27.6042" y="116.3411"/><rect fill="none" height="48.055" id="EdgeAttributes" rx="8.3333" ry="8.3333" style="stroke:#5E5E5E;stroke-width:1.0416666666666667;" width="134.375" x="27.6042" y="93.2861"/><ellipse cx="42.1875" cy="108.9803" fill="#0066CF" rx="10.4167" ry="10.4167" style="stroke:#0086EF;stroke-width:1.0416666666666667;"/><path d="M44.0979,113.4054 Q43.6707,113.6251 43.2007,113.7349 Q42.7307,113.8448 42.2119,113.8448 Q40.3687,113.8448 39.3982,112.6302 Q38.4277,111.4156 38.4277,109.1207 Q38.4277,106.8197 39.3982,105.6051 Q40.3687,104.3905 42.2119,104.3905 Q42.7307,104.3905 43.2068,104.5003 Q43.6829,104.6102 44.0979,104.8299 L44.0979,106.8319 Q43.634,106.4046 43.1976,106.2063 Q42.7612,106.0079 42.2974,106.0079 Q41.3086,106.0079 40.8051,106.7922 Q40.3015,107.5765 40.3015,109.1207 Q40.3015,110.6588 40.8051,111.4431 Q41.3086,112.2274 42.2974,112.2274 Q42.7612,112.2274 43.1976,112.029 Q43.634,111.8306 44.0979,111.4034 Z " fill="#000000"/><text fill="#D8BC00" font-family="Open Sans,Avenir,Nunito,Arial,Helvetica,SansSerif" font-size="12.5" font-weight="bold" lengthAdjust="spacing" textLength="96.875" x="58.8542" y="113.7044">EdgeAttributes</text><line style="stroke:#5E5E5E;stroke-width:1.0416666666666667;" x1="28.6458" x2="160.9375" y1="124.6745" y2="124.6745"/><line style="stroke:#5E5E5E;stroke-width:1.0416666666666667;" x1="28.6458" x2="160.9375" y1="133.0078" y2="133.0078"/><!--MD5=[36800ff25ed87598ca3593d38dafe329]
class OsmEdgeAttributes--><rect codeLine="14" fill="#282828" height="111.4563" id="OsmEdgeAttributes" rx="8.3333" ry="8.3333" style="stroke:#5E5E5E;stroke-width:1.0416666666666667;" width="170.8333" x="9.375" y="235.4736"/><rect fill="#1B1B1A" height="31.3883" rx="8.3333" ry="8.3333" style="stroke:#1B1B1A;stroke-width:1.0416666666666667;" width="170.8333" x="9.375" y="235.4736"/><rect fill="#1B1B1A" height="8.3333" style="stroke:#1B1B1A;stroke-width:1.0416666666666667;" width="170.8333" x="9.375" y="258.5286"/><rect codeLine="14" fill="none" height="111.4563" id="OsmEdgeAttributes" rx="8.3333" ry="8.3333" style="stroke:#5E5E5E;stroke-width:1.0416666666666667;" width="170.8333" x="9.375" y="235.4736"/><ellipse cx="26.7708" cy="251.1678" fill="#0066CF" rx="10.4167" ry="10.4167" style="stroke:#0086EF;stroke-width:1.0416666666666667;"/><path d="M28.6812,255.5929 Q28.254,255.8126 27.784,255.9224 Q27.314,256.0323 26.7952,256.0323 Q24.952,256.0323 23.9815,254.8177 Q23.0111,253.6031 23.0111,251.3082 Q23.0111,249.0072 23.9815,247.7926 Q24.952,246.578 26.7952,246.578 Q27.314,246.578 27.7901,246.6878 Q28.2662,246.7977 28.6812,247.0174 L28.6812,249.0194 Q28.2174,248.5921 27.781,248.3938 Q27.3446,248.1954 26.8807,248.1954 Q25.8919,248.1954 25.3884,248.9797 Q24.8848,249.764 24.8848,251.3082 Q24.8848,252.8463 25.3884,253.6306 Q25.8919,254.4149 26.8807,254.4149 Q27.3446,254.4149 27.781,254.2165 Q28.2174,254.0181 28.6812,253.5909 Z " fill="#000000"/><text fill="#D8BC00" font-family="Open Sans,Avenir,Nunito,Arial,Helvetica,SansSerif" font-size="12.5" font-weight="bold" lengthAdjust="spacing" textLength="127.0833" x="44.0625" y="255.8919">OsmEdgeAttributes</text><line style="stroke:#5E5E5E;stroke-width:1.5625;" x1="10.4167" x2="179.1667" y1="266.862" y2="266.862"/><polygon fill="#FFFF44" points="20.8333,297.0235,25,301.1902,20.8333,305.3569,16.6667,301.1902" style="stroke:#B38D22;stroke-width:1.0416666666666667;"/><text fill="#D8BC00" font-family="Open Sans,Avenir,Nunito,Arial,Helvetica,SansSerif" font-size="11.4583" lengthAdjust="spacing" textLength="117.7083" x="32.2917" y="309.1431">OsmEdgeAttributes()</text><line style="stroke:#5E5E5E;stroke-width:1.0416666666666667;" x1="10.4167" x2="51.0417" y1="285.0677" y2="285.0677"/><text fill="#D8BC00" font-family="Open Sans,Avenir,Nunito,Arial,Helvetica,SansSerif" font-size="11.4583" lengthAdjust="spacing" textLength="81.25" x="54.1667" y="288.8774">(constructors)</text><line style="stroke:#5E5E5E;stroke-width:1.0416666666666667;" x1="138.5417" x2="179.1667" y1="285.0677" y2="285.0677"/><line style="stroke:#5E5E5E;stroke-width:1.0416666666666667;" x1="10.4167" x2="179.1667" y1="318.8517" y2="318.8517"/><ellipse cx="20.8333" cy="330.3101" fill="#84BE84" rx="3.125" ry="3.125" style="stroke:#038048;stroke-width:1.0416666666666667;"/><text fill="#D8BC00" font-family="Open Sans,Avenir,Nunito,Arial,Helvetica,SansSerif" font-size="11.4583" lengthAdjust="spacing" textLength="138.5417" x="32.2917" y="337.2213">OsmEdgeAttributes get()</text><!--MD5=[27f6b066823a87ca731e7f2c2384d4bd]
class OsmEdgeComparator--><rect codeLine="22" fill="#282828" height="111.4563" id="OsmEdgeComparator" rx="8.3333" ry="8.3333" style="stroke:#5E5E5E;stroke-width:1.0416666666666667;" width="273.9583" x="198.4375" y="61.5153"/><rect fill="#1B1B1A" height="31.3883" rx="8.3333" ry="8.3333" style="stroke:#1B1B1A;stroke-width:1.0416666666666667;" width="273.9583" x="198.4375" y="61.5153"/><rect fill="#1B1B1A" height="8.3333" style="stroke:#1B1B1A;stroke-width:1.0416666666666667;" width="273.9583" x="198.4375" y="84.5703"/><rect codeLine="22" fill="none" height="111.4563" id="OsmEdgeComparator" rx="8.3333" ry="8.3333" style="stroke:#5E5E5E;stroke-width:1.0416666666666667;" width="273.9583" x="198.4375" y="61.5153"/><ellipse cx="258.8542" cy="77.2095" fill="#0066CF" rx="10.4167" ry="10.4167" style="stroke:#0086EF;stroke-width:1.0416666666666667;"/><path d="M260.7646,81.6345 Q260.3373,81.8542 259.8674,81.9641 Q259.3974,82.074 258.8786,82.074 Q257.0353,82.074 256.0649,80.8594 Q255.0944,79.6448 255.0944,77.3499 Q255.0944,75.0488 256.0649,73.8342 Q257.0353,72.6196 258.8786,72.6196 Q259.3974,72.6196 259.8735,72.7295 Q260.3495,72.8394 260.7646,73.0591 L260.7646,75.061 Q260.3007,74.6338 259.8643,74.4354 Q259.4279,74.2371 258.964,74.2371 Q257.9753,74.2371 257.4717,75.0214 Q256.9682,75.8057 256.9682,77.3499 Q256.9682,78.8879 257.4717,79.6722 Q257.9753,80.4565 258.964,80.4565 Q259.4279,80.4565 259.8643,80.2582 Q260.3007,80.0598 260.7646,79.6326 Z " fill="#000000"/><text fill="#D8BC00" font-family="Open Sans,Avenir,Nunito,Arial,Helvetica,SansSerif" font-size="12.5" font-weight="bold" lengthAdjust="spacing" textLength="138.5417" x="281.7708" y="81.9336">OsmEdgeComparator</text><line style="stroke:#5E5E5E;stroke-width:1.5625;" x1="199.4792" x2="471.3542" y1="92.9036" y2="92.9036"/><ellipse cx="209.8958" cy="128.2735" fill="#84BE84" rx="3.125" ry="3.125" style="stroke:#038048;stroke-width:1.0416666666666667;"/><text fill="#D8BC00" font-family="Open Sans,Avenir,Nunito,Arial,Helvetica,SansSerif" font-size="11.4583" lengthAdjust="spacing" textLength="241.6667" x="221.3542" y="135.1847">OsmEdgeComparator(OsmEdge, OsmEdge)</text><line style="stroke:#5E5E5E;stroke-width:1.0416666666666667;" x1="199.4792" x2="291.6667" y1="111.1094" y2="111.1094"/><text fill="#D8BC00" font-family="Open Sans,Avenir,Nunito,Arial,Helvetica,SansSerif" font-size="11.4583" lengthAdjust="spacing" textLength="81.25" x="294.7917" y="114.919">(constructors)</text><line style="stroke:#5E5E5E;stroke-width:1.0416666666666667;" x1="379.1667" x2="471.3542" y1="111.1094" y2="111.1094"/><line style="stroke:#5E5E5E;stroke-width:1.0416666666666667;" x1="199.4792" x2="471.3542" y1="144.8934" y2="144.8934"/><ellipse cx="209.8958" cy="156.3517" fill="#84BE84" rx="3.125" ry="3.125" style="stroke:#038048;stroke-width:1.0416666666666667;"/><text fill="#D8BC00" font-family="Open Sans,Avenir,Nunito,Arial,Helvetica,SansSerif" font-size="11.4583" lengthAdjust="spacing" textLength="123.9583" x="221.3542" y="163.2629">Differences compare()</text><!--MD5=[dee6247dee607fc51eef130dfef52984]
class EdgeProperties--><rect fill="#282828" height="48.055" id="EdgeProperties" rx="8.3333" ry="8.3333" style="stroke:#5E5E5E;stroke-width:1.0416666666666667;" width="134.375" x="508.8542" y="93.2861"/><rect fill="#1B1B1A" height="31.3883" rx="8.3333" ry="8.3333" style="stroke:#1B1B1A;stroke-width:1.0416666666666667;" width="134.375" x="508.8542" y="93.2861"/><rect fill="#1B1B1A" height="8.3333" style="stroke:#1B1B1A;stroke-width:1.0416666666666667;" width="134.375" x="508.8542" y="116.3411"/><rect fill="none" height="48.055" id="EdgeProperties" rx="8.3333" ry="8.3333" style="stroke:#5E5E5E;stroke-width:1.0416666666666667;" width="134.375" x="508.8542" y="93.2861"/><ellipse cx="523.4375" cy="108.9803" fill="#0066CF" rx="10.4167" ry="10.4167" style="stroke:#0086EF;stroke-width:1.0416666666666667;"/><path d="M525.3479,113.4054 Q524.9207,113.6251 524.4507,113.7349 Q523.9807,113.8448 523.4619,113.8448 Q521.6187,113.8448 520.6482,112.6302 Q519.6777,111.4156 519.6777,109.1207 Q519.6777,106.8197 520.6482,105.6051 Q521.6187,104.3905 523.4619,104.3905 Q523.9807,104.3905 524.4568,104.5003 Q524.9329,104.6102 525.3479,104.8299 L525.3479,106.8319 Q524.884,106.4046 524.4476,106.2063 Q524.0112,106.0079 523.5474,106.0079 Q522.5586,106.0079 522.0551,106.7922 Q521.5515,107.5765 521.5515,109.1207 Q521.5515,110.6588 522.0551,111.4431 Q522.5586,112.2274 523.5474,112.2274 Q524.0112,112.2274 524.4476,112.029 Q524.884,111.8306 525.3479,111.4034 Z " fill="#000000"/><text fill="#D8BC00" font-family="Open Sans,Avenir,Nunito,Arial,Helvetica,SansSerif" font-size="12.5" font-weight="bold" lengthAdjust="spacing" textLength="96.875" x="540.1042" y="113.7044">EdgeProperties</text><line style="stroke:#5E5E5E;stroke-width:1.0416666666666667;" x1="509.8958" x2="642.1875" y1="124.6745" y2="124.6745"/><line style="stroke:#5E5E5E;stroke-width:1.0416666666666667;" x1="509.8958" x2="642.1875" y1="133.0078" y2="133.0078"/><!--MD5=[66b6f126dcdf73447ab646afd2747adb]
class OsmEdgeProperties--><rect codeLine="31" fill="#282828" height="111.4563" id="OsmEdgeProperties" rx="8.3333" ry="8.3333" style="stroke:#5E5E5E;stroke-width:1.0416666666666667;" width="171.875" x="490.1042" y="235.4736"/><rect fill="#1B1B1A" height="31.3883" rx="8.3333" ry="8.3333" style="stroke:#1B1B1A;stroke-width:1.0416666666666667;" width="171.875" x="490.1042" y="235.4736"/><rect fill="#1B1B1A" height="8.3333" style="stroke:#1B1B1A;stroke-width:1.0416666666666667;" width="171.875" x="490.1042" y="258.5286"/><rect codeLine="31" fill="none" height="111.4563" id="OsmEdgeProperties" rx="8.3333" ry="8.3333" style="stroke:#5E5E5E;stroke-width:1.0416666666666667;" width="171.875" x="490.1042" y="235.4736"/><ellipse cx="507.9688" cy="251.1678" fill="#0066CF" rx="10.4167" ry="10.4167" style="stroke:#0086EF;stroke-width:1.0416666666666667;"/><path d="M509.8792,255.5929 Q509.4519,255.8126 508.9819,255.9224 Q508.512,256.0323 507.9932,256.0323 Q506.1499,256.0323 505.1794,254.8177 Q504.209,253.6031 504.209,251.3082 Q504.209,249.0072 505.1794,247.7926 Q506.1499,246.578 507.9932,246.578 Q508.512,246.578 508.988,246.6878 Q509.4641,246.7977 509.8792,247.0174 L509.8792,249.0194 Q509.4153,248.5921 508.9789,248.3938 Q508.5425,248.1954 508.0786,248.1954 Q507.0898,248.1954 506.5863,248.9797 Q506.0828,249.764 506.0828,251.3082 Q506.0828,252.8463 506.5863,253.6306 Q507.0898,254.4149 508.0786,254.4149 Q508.5425,254.4149 508.9789,254.2165 Q509.4153,254.0181 509.8792,253.5909 Z " fill="#000000"/><text fill="#D8BC00" font-family="Open Sans,Avenir,Nunito,Arial,Helvetica,SansSerif" font-size="12.5" font-weight="bold" lengthAdjust="spacing" textLength="127.0833" x="525.3646" y="255.8919">OsmEdgeProperties</text><line style="stroke:#5E5E5E;stroke-width:1.5625;" x1="491.1458" x2="660.9375" y1="266.862" y2="266.862"/><polygon fill="#FFFF44" points="501.5625,297.0235,505.7292,301.1902,501.5625,305.3569,497.3958,301.1902" style="stroke:#B38D22;stroke-width:1.0416666666666667;"/><text fill="#D8BC00" font-family="Open Sans,Avenir,Nunito,Arial,Helvetica,SansSerif" font-size="11.4583" lengthAdjust="spacing" textLength="118.75" x="513.0208" y="309.1431">OsmEdgeProperties()</text><line style="stroke:#5E5E5E;stroke-width:1.0416666666666667;" x1="491.1458" x2="532.2917" y1="285.0677" y2="285.0677"/><text fill="#D8BC00" font-family="Open Sans,Avenir,Nunito,Arial,Helvetica,SansSerif" font-size="11.4583" lengthAdjust="spacing" textLength="81.25" x="535.4167" y="288.8774">(constructors)</text><line style="stroke:#5E5E5E;stroke-width:1.0416666666666667;" x1="619.7917" x2="660.9375" y1="285.0677" y2="285.0677"/><line style="stroke:#5E5E5E;stroke-width:1.0416666666666667;" x1="491.1458" x2="660.9375" y1="318.8517" y2="318.8517"/><ellipse cx="501.5625" cy="330.3101" fill="#84BE84" rx="3.125" ry="3.125" style="stroke:#038048;stroke-width:1.0416666666666667;"/><text fill="#D8BC00" font-family="Open Sans,Avenir,Nunito,Arial,Helvetica,SansSerif" font-size="11.4583" lengthAdjust="spacing" textLength="139.5833" x="513.0208" y="337.2213">OsmEdgeProperties get()</text><!--MD5=[43847fe7c03bee51411ac6b2e2a7f690]
class EdgeProperties.EdgeProperty--><rect fill="#282828" height="48.055" id="EdgeProperties.EdgeProperty" rx="8.3333" ry="8.3333" style="stroke:#5E5E5E;stroke-width:1.0416666666666667;" width="122.9167" x="764.5833" y="93.2861"/><rect fill="#1B1B1A" height="31.3883" rx="8.3333" ry="8.3333" style="stroke:#1B1B1A;stroke-width:1.0416666666666667;" width="122.9167" x="764.5833" y="93.2861"/><rect fill="#1B1B1A" height="8.3333" style="stroke:#1B1B1A;stroke-width:1.0416666666666667;" width="122.9167" x="764.5833" y="116.3411"/><rect fill="none" height="48.055" id="EdgeProperties.EdgeProperty" rx="8.3333" ry="8.3333" style="stroke:#5E5E5E;stroke-width:1.0416666666666667;" width="122.9167" x="764.5833" y="93.2861"/><ellipse cx="779.1667" cy="108.9803" fill="#0066CF" rx="10.4167" ry="10.4167" style="stroke:#0086EF;stroke-width:1.0416666666666667;"/><path d="M781.0771,113.4054 Q780.6498,113.6251 780.1799,113.7349 Q779.7099,113.8448 779.1911,113.8448 Q777.3478,113.8448 776.3774,112.6302 Q775.4069,111.4156 775.4069,109.1207 Q775.4069,106.8197 776.3774,105.6051 Q777.3478,104.3905 779.1911,104.3905 Q779.7099,104.3905 780.186,104.5003 Q780.662,104.6102 781.0771,104.8299 L781.0771,106.8319 Q780.6132,106.4046 780.1768,106.2063 Q779.7404,106.0079 779.2765,106.0079 Q778.2878,106.0079 777.7842,106.7922 Q777.2807,107.5765 777.2807,109.1207 Q777.2807,110.6588 777.7842,111.4431 Q778.2878,112.2274 779.2765,112.2274 Q779.7404,112.2274 780.1768,112.029 Q780.6132,111.8306 781.0771,111.4034 Z " fill="#000000"/><text fill="#D8BC00" font-family="Open Sans,Avenir,Nunito,Arial,Helvetica,SansSerif" font-size="12.5" font-weight="bold" lengthAdjust="spacing" textLength="85.4167" x="795.8333" y="113.7044">EdgeProperty</text><line style="stroke:#5E5E5E;stroke-width:1.0416666666666667;" x1="765.625" x2="886.4583" y1="124.6745" y2="124.6745"/><line style="stroke:#5E5E5E;stroke-width:1.0416666666666667;" x1="765.625" x2="886.4583" y1="133.0078" y2="133.0078"/><!--MD5=[d24a9ec8cc4b06502699ef84f1e1aaa5]
class OsmEdgeProperties.OsmEdgeProperty--><rect codeLine="40" fill="#282828" height="83.3781" id="OsmEdgeProperties.OsmEdgeProperty" rx="8.3333" ry="8.3333" style="stroke:#5E5E5E;stroke-width:1.0416666666666667;" width="255.2083" x="698.4375" y="249.5361"/><rect fill="#1B1B1A" height="31.3883" rx="8.3333" ry="8.3333" style="stroke:#1B1B1A;stroke-width:1.0416666666666667;" width="255.2083" x="698.4375" y="249.5361"/><rect fill="#1B1B1A" height="8.3333" style="stroke:#1B1B1A;stroke-width:1.0416666666666667;" width="255.2083" x="698.4375" y="272.5911"/><rect codeLine="40" fill="none" height="83.3781" id="OsmEdgeProperties.OsmEdgeProperty" rx="8.3333" ry="8.3333" style="stroke:#5E5E5E;stroke-width:1.0416666666666667;" width="255.2083" x="698.4375" y="249.5361"/><ellipse cx="760.9375" cy="265.2303" fill="#C8AC00" rx="10.4167" ry="10.4167" style="stroke:#D8BC00;stroke-width:1.0416666666666667;"/><path d="M760.5306,261.9324 L759.6822,265.6616 L761.3851,265.6616 Z M759.432,260.2844 L761.6353,260.2844 L764.0951,269.397 L762.2945,269.397 L761.733,267.1448 L759.3221,267.1448 L758.7728,269.397 L756.9722,269.397 Z " fill="#000000"/><text fill="#D8BC00" font-family="Open Sans,Avenir,Nunito,Arial,Helvetica,SansSerif" font-size="12.5" font-style="italic" font-weight="bold" lengthAdjust="spacing" textLength="115.625" x="783.8542" y="269.9544">OsmEdgeProperty</text><line style="stroke:#5E5E5E;stroke-width:1.5625;" x1="699.4792" x2="952.6042" y1="280.9245" y2="280.9245"/><polygon fill="#FFFF44" points="709.8958,311.086,714.0625,315.2527,709.8958,319.4194,705.7292,315.2527" style="stroke:#B38D22;stroke-width:1.0416666666666667;"/><text fill="#D8BC00" font-family="Open Sans,Avenir,Nunito,Arial,Helvetica,SansSerif" font-size="11.4583" lengthAdjust="spacing" textLength="222.9167" x="721.3542" y="323.2056">OsmEdgeProperty(String, Attribute&lt;?&gt;)</text><line style="stroke:#5E5E5E;stroke-width:1.0416666666666667;" x1="699.4792" x2="782.2917" y1="299.1302" y2="299.1302"/><text fill="#D8BC00" font-family="Open Sans,Avenir,Nunito,Arial,Helvetica,SansSerif" font-size="11.4583" lengthAdjust="spacing" textLength="81.25" x="785.4167" y="302.9399">(constructors)</text><line style="stroke:#5E5E5E;stroke-width:1.0416666666666667;" x1="869.7917" x2="952.6042" y1="299.1302" y2="299.1302"/><!--MD5=[fbadc6b72ebb8b5f1cbab2718bf8c029]
reverse link GraphElementAttributes.GraphElementAttribute to OsmEdgeAttributes.OsmEdgeAttribute--><path codeLine="6" d="M1115.625,162.359 C1115.625,189.1299 1115.625,223.0882 1115.625,249.2653 " fill="none" id="GraphElementAttributes.GraphElementAttribute-backto-OsmEdgeAttributes.OsmEdgeAttribute" style="stroke:#545454;stroke-width:1.5625;"/><polygon fill="none" points="1108.3333,162.2965,1115.625,141.4632,1122.9167,162.2965,1108.3333,162.2965" style="stroke:#545454;stroke-width:1.5625;"/><!--MD5=[1d97aba4ae65171dfa1eff6e1b4d59ac]
reverse link EdgeAttributes to OsmEdgeAttributes--><path codeLine="13" d="M94.7917,162.4528 C94.7917,184.6299 94.7917,211.7236 94.7917,235.234 " fill="none" id="EdgeAttributes-backto-OsmEdgeAttributes" style="stroke:#545454;stroke-width:1.5625;"/><polygon fill="none" points="87.5,162.2965,94.7917,141.4632,102.0833,162.2965,87.5,162.2965" style="stroke:#545454;stroke-width:1.5625;"/><!--MD5=[da36c1fae187c4d17a4d777966cbc429]
reverse link EdgeProperties to OsmEdgeProperties--><path codeLine="30" d="M576.0417,162.4528 C576.0417,184.6299 576.0417,211.7236 576.0417,235.234 " fill="none" id="EdgeProperties-backto-OsmEdgeProperties" style="stroke:#545454;stroke-width:1.5625;"/><polygon fill="none" points="568.75,162.2965,576.0417,141.4632,583.3333,162.2965,568.75,162.2965" style="stroke:#545454;stroke-width:1.5625;"/><!--MD5=[1d7857732afb8b221acd8bc004bd1782]
reverse link EdgeProperties.EdgeProperty to OsmEdgeProperties.OsmEdgeProperty--><path codeLine="39" d="M826.0417,162.359 C826.0417,189.1299 826.0417,223.0882 826.0417,249.2653 " fill="none" id="EdgeProperties.EdgeProperty-backto-OsmEdgeProperties.OsmEdgeProperty" style="stroke:#545454;stroke-width:1.5625;"/><polygon fill="none" points="818.75,162.2965,826.0417,141.4632,833.3333,162.2965,818.75,162.2965" style="stroke:#545454;stroke-width:1.5625;"/><!--MD5=[0ab5c2e0f082b29d3b2626a1be6c480d]
@startuml

    !include lexakai.theme
    
    title "com.telenav.mesakit.graph.specifications.osm.graph.edge.model.attributes"
    
    GraphElementAttributes.GraphElementAttribute <|- - OsmEdgeAttributes.OsmEdgeAttribute
    class OsmEdgeAttributes.OsmEdgeAttribute
    {
        - -(constructors)- -
        +OsmEdgeAttribute(String)
    }
    
    EdgeAttributes <|- - OsmEdgeAttributes
    class OsmEdgeAttributes
    {
        - -(constructors)- -
        #OsmEdgeAttributes()
        - -
        +OsmEdgeAttributes get()
    }
    
    class OsmEdgeComparator
    {
        - -(constructors)- -
        +OsmEdgeComparator(OsmEdge, OsmEdge)
        - -
        +Differences compare()
    }
    
    EdgeProperties <|- - OsmEdgeProperties
    class OsmEdgeProperties
    {
        - -(constructors)- -
        #OsmEdgeProperties()
        - -
        +OsmEdgeProperties get()
    }
    
    EdgeProperties.EdgeProperty <|- - OsmEdgeProperties.OsmEdgeProperty
    abstract class OsmEdgeProperties.OsmEdgeProperty
    {
        - -(constructors)- -
        #OsmEdgeProperty(String, Attribute<?>)
    }
    
@enduml

@startuml









skinparam backgroundColor #333333






skinparam  {
    defaultFontName   "Open Sans,Avenir,Nunito,Arial,Helvetica,SansSerif"
    defaultFontSize   12
    defaultTextAlignment left
    shadowing false
    RoundCorner 10
    TitleFontSize 18
}

skinparam defaultFontName       "Open Sans,Avenir,Nunito,Arial,Helvetica,SansSerif"
skinparam defaultFontSize       12
skinparam dpi                   100
skinparam shadowing             false
skinparam roundcorner           16
skinparam ParticipantPadding    40
skinparam BoxPadding            40
skinparam Padding               3
skinparam ArrowColor            #545454
skinparam stereotype {
    CBackgroundColor #0066cf
    CBorderColor #0086ef
    ABackgroundColor #C8Ac00
    ABorderColor #D8Bc00
    IBackgroundColor #008400
    IBorderColor #239c23
    EBackgroundColor #cf6300
    EBorderColor #ef8300
    NBackgroundColor #3380b9
    NBorderColor #004d86
}
skinparam title {
	FontColor	                 #c0c0c0
 	BorderColor                  #545454
	FontSize	    	         20
	BorderRoundCorner            16
	BorderThickness 	         1
	BackgroundColor              #48494b
}


skinparam legend {
	BackgroundColor #303030
	BorderColor #404040
	FontColor #a0a0a0
}

	skinparam swimlane {
	BorderColor #5e5e5e
	BorderThickness 2
	TitleBackgroundColor  #6d6d6d-#484848
	TitleFontColor #303030
}

skinparam activity {
		FontColor #C8Ac00
	BorderColor #333333
	BackgroundColor #333333-#333333
	BarColor #00FF00
	StartColor #0060a8
	EndColor #0060a8
	DiamondBackgroundColor #6d6d6d-#3a3a3a
  	DiamondBorderColor #3a3a3a
  	DiamondFontColor #fefefe
}


skinparam participant {
		FontColor #C8Ac00
	BorderColor #333333
	BackgroundColor #333333-#333333
	ParticipantBorderThickness 2
}


skinparam actor {
		FontColor #C8Ac00
	BorderColor #333333
	BackgroundColor #333333-#333333
}


skinparam arrow {
	Thickness 1.5
	Color #545454
	FontColor #a0a0a0
    FontStyle bold
    MessageAlignment center
}



skinparam sequence {
	BorderColor #303030
	TitleFontColor #303030
	BackgroundColor #333333
	StartColor #303030
	EndColor #303030
	BoxBackgroundColor #333333
	BoxBorderColor #484848
	BoxFontColor #484848
	LifeLineBorderColor #484848
	LifeLineBorderThickness 2
	LifeLineBackgroundColor #3a3a3a
	GroupBorderColor #484848
	GroupFontColor #484848
	GroupHeaderFontColor #0060a8
	GroupBackgroundColor #484848
	GroupHeaderBackgroundColor #333333
	DividerBackgroundColor #484848
    DividerBorderColor #484848
    DividerBorderThickness 2
    DividerFontColor #D8Bc00
	ReferenceBackgroundColor #333333
	ReferenceBorderColor #484848
	ReferenceFontColor #fefefe
	ReferenceHeaderBackgroundColor #484848
}


skinparam partition {
	BorderColor #303030
	FontColor #333333
	BackgroundColor #333333
}


skinparam collections {
		FontColor #C8Ac00
	BorderColor #333333
	BackgroundColor #333333-#333333
}


skinparam control {
		FontColor #C8Ac00
	BorderColor #333333
	BackgroundColor #333333-#333333
}


skinparam entity {
		FontColor #C8Ac00
	BorderColor #333333
	BackgroundColor #333333-#333333
}


skinparam boundary {
		FontColor #C8Ac00
	BorderColor #333333
	BackgroundColor #333333-#333333
}


skinparam agent {
	BackgroundColor #ff8000
	BorderColor #ff9933
	FontColor #484848
}


skinparam note {
	BorderThickness 1
	BackgroundColor #1b1b1a
	BorderColor #5e5e5e
	FontSize 11
	FontColor #a0a0a0
}


skinparam artifact {
	BorderThickness 10
	BorderColor #5e5e5e
	BackgroundColor #1b1b1a
	FontColor #D8Bc00
}


skinparam component {
		FontColor #C8Ac00
	BorderColor #333333
	BackgroundColor #333333-#333333
}


skinparam interface {
	BackgroundColor  #008400
	BorderColor  #007F00
	FontColor #484848
}


skinparam storage {
	BackgroundColor #ff8000
  	BorderColor #cc6600
	FontColor #222222
}


skinparam node {
	BackgroundColor #333333
	BorderColor #333333
	FontColor #C8Ac00
}


skinparam cloud {
	BackgroundColor #484848-black
	BorderColor #484848
	FontColor #D8Bc00
}


skinparam database {
		FontColor #C8Ac00
	BorderColor #333333
	BackgroundColor #333333-#333333
	BackgroundColor  #333333
}


skinparam class {
		FontColor #C8Ac00
	BorderColor #333333
	BackgroundColor #333333-#333333
	HeaderBackgroundColor #1b1b1a
    BackgroundColor #282828
    BorderColor #5e5e5e
 	StereotypeFontColor #a0a0a0
    StereotypeFontStyle bold
	BorderThickness 1
	AttributeFontColor #D8Bc00
	AttributeFontSize 11
    FontColor #D8Bc00
    FontStyle bold
}


skinparam object {
		FontColor #C8Ac00
	BorderColor #333333
	BackgroundColor #333333-#333333
	StereotypeFontColor #484848
	BorderThickness 1
	AttributeFontColor #fefefe
	AttributeFontSize 11
}


skinparam usecase {
		FontColor #C8Ac00
	BorderColor #333333
	BackgroundColor #333333-#333333
	BorderThickness 2
	StereotypeFontColor #303030
}


skinparam rectangle {
		FontColor #C8Ac00
	BorderColor #333333
	BackgroundColor #333333-#333333
	BackgroundColor #333333
	BorderThickness 2
	StereotypeFontColor #303030
}


skinparam package {
		FontColor #C8Ac00
	BorderColor #333333
	BackgroundColor #333333-#333333
	BackgroundColor #333333
	BorderThickness 2
}


skinparam folder {
	BackgroundColor #6d6d6d
  	BorderColor #ff8000
	FontColor #ff8000
	BorderThickness 2
}


skinparam frame {
	BackgroundColor #6d6d6d
  	BorderColor #0060a8
	FontColor #0060a8
	BorderThickness 2
}


skinparam state {
		FontColor #C8Ac00
	BorderColor #333333
	BackgroundColor #333333-#333333
	StartColor #0060a8
	EndColor #0060a8
	AttributeFontColor #fefefe
	AttributeFontSize 11
}


skinparam queue {
		FontColor #C8Ac00
	BorderColor #333333
	BackgroundColor #333333-#333333
}


skinparam card {
	BackgroundColor #0060a8
	BorderColor #004d86
	FontColor $INFO_TEXT
}


skinparam file {
	BackgroundColor #6d6d6d-#484848
	BorderColor #0060a8
	FontColor #fefefe
}


skinparam stack {
		FontColor #C8Ac00
	BorderColor #333333
	BackgroundColor #333333-#333333
}

    
    title "com.telenav.mesakit.graph.specifications.osm.graph.edge.model.attributes"
    
    GraphElementAttributes.GraphElementAttribute <|- - OsmEdgeAttributes.OsmEdgeAttribute
    class OsmEdgeAttributes.OsmEdgeAttribute
    {
        - -(constructors)- -
        +OsmEdgeAttribute(String)
    }
    
    EdgeAttributes <|- - OsmEdgeAttributes
    class OsmEdgeAttributes
    {
        - -(constructors)- -
        #OsmEdgeAttributes()
        - -
        +OsmEdgeAttributes get()
    }
    
    class OsmEdgeComparator
    {
        - -(constructors)- -
        +OsmEdgeComparator(OsmEdge, OsmEdge)
        - -
        +Differences compare()
    }
    
    EdgeProperties <|- - OsmEdgeProperties
    class OsmEdgeProperties
    {
        - -(constructors)- -
        #OsmEdgeProperties()
        - -
        +OsmEdgeProperties get()
    }
    
    EdgeProperties.EdgeProperty <|- - OsmEdgeProperties.OsmEdgeProperty
    abstract class OsmEdgeProperties.OsmEdgeProperty
    {
        - -(constructors)- -
        #OsmEdgeProperty(String, Attribute<?>)
    }
    
@enduml

PlantUML version 1.2021.01(Tue Feb 02 00:55:08 MST 2021)
(GPL source distribution)
Java Runtime: OpenJDK Runtime Environment
JVM: OpenJDK 64-Bit Server VM
Default Encoding: UTF-8
Language: en
Country: US
--></g></svg>