<?xml version="1.0" encoding="UTF-8" standalone="no"?><svg xmlns="http://www.w3.org/2000/svg" xmlns:xlink="http://www.w3.org/1999/xlink" contentScriptType="application/ecmascript" contentStyleType="text/css" height="642.7083px" preserveAspectRatio="none" style="width:1443px;height:642px;background:#333333;" version="1.1" viewBox="0 0 1443 642" width="1443.75px" zoomAndPan="magnify"><defs/><g><rect fill="#48494B" height="41.2028" rx="8.3333" ry="8.3333" style="stroke:#545454;stroke-width:1.0416666666666667;" width="588.5417" x="420.5729" y="2.0833"/><text fill="#C0C0C0" font-family="Open Sans,Avenir,Nunito,Arial,Helvetica,SansSerif" font-size="20.8333" lengthAdjust="spacing" textLength="565.625" x="432.0313" y="30.5583">com.telenav.mesakit.graph.specifications.common.place</text><!--MD5=[db40b6440c95f8cc607572d61360fb5f]
cluster GraphElementAttributes--><polygon fill="#333333" points="467.7083,52.6611,636.4583,52.6611,643.75,79.8828,725,79.8828,725,174.5361,467.7083,174.5361,467.7083,52.6611" style="stroke:#333333;stroke-width:2.0833333333333335;"/><line style="stroke:#333333;stroke-width:2.0833333333333335;" x1="467.7083" x2="643.75" y1="79.8828" y2="79.8828"/><text fill="#C8AC00" font-family="Open Sans,Avenir,Nunito,Arial,Helvetica,SansSerif" font-size="12.5" font-weight="bold" lengthAdjust="spacing" textLength="156.25" x="475" y="69.9544">GraphElementAttributes</text><!--MD5=[9b320554edfbfbc72ab3d33da0a3a744]
cluster PlaceAttributes--><polygon fill="#333333" points="540.625,333.3903,651.0417,333.3903,658.3333,360.612,762.5,360.612,762.5,490.682,540.625,490.682,540.625,333.3903" style="stroke:#333333;stroke-width:2.0833333333333335;"/><line style="stroke:#333333;stroke-width:2.0833333333333335;" x1="540.625" x2="658.3333" y1="360.612" y2="360.612"/><text fill="#C8AC00" font-family="Open Sans,Avenir,Nunito,Arial,Helvetica,SansSerif" font-size="12.5" font-weight="bold" lengthAdjust="spacing" textLength="97.9167" x="547.9167" y="350.6836">PlaceAttributes</text><!--MD5=[aab74cbd59a4fbe0c1f09a2482e4f314]
class GraphElementAttributes.GraphElementAttribute--><rect fill="#282828" height="48.055" id="GraphElementAttributes.GraphElementAttribute" rx="8.3333" ry="8.3333" style="stroke:#5E5E5E;stroke-width:1.0416666666666667;" width="186.4583" x="513.0208" y="101.6195"/><rect fill="#1B1B1A" height="31.3883" rx="8.3333" ry="8.3333" style="stroke:#1B1B1A;stroke-width:1.0416666666666667;" width="186.4583" x="513.0208" y="101.6195"/><rect fill="#1B1B1A" height="8.3333" style="stroke:#1B1B1A;stroke-width:1.0416666666666667;" width="186.4583" x="513.0208" y="124.6745"/><rect fill="none" height="48.055" id="GraphElementAttributes.GraphElementAttribute" rx="8.3333" ry="8.3333" style="stroke:#5E5E5E;stroke-width:1.0416666666666667;" width="186.4583" x="513.0208" y="101.6195"/><ellipse cx="527.6042" cy="117.3136" fill="#0066CF" rx="10.4167" ry="10.4167" style="stroke:#0086EF;stroke-width:1.0416666666666667;"/><path d="M529.5146,121.7387 Q529.0873,121.9584 528.6174,122.0683 Q528.1474,122.1781 527.6286,122.1781 Q525.7853,122.1781 524.8149,120.9635 Q523.8444,119.7489 523.8444,117.454 Q523.8444,115.153 524.8149,113.9384 Q525.7853,112.7238 527.6286,112.7238 Q528.1474,112.7238 528.6235,112.8337 Q529.0995,112.9435 529.5146,113.1632 L529.5146,115.1652 Q529.0507,114.738 528.6143,114.5396 Q528.1779,114.3412 527.714,114.3412 Q526.7253,114.3412 526.2217,115.1255 Q525.7182,115.9098 525.7182,117.454 Q525.7182,118.9921 526.2217,119.7764 Q526.7253,120.5607 527.714,120.5607 Q528.1779,120.5607 528.6143,120.3623 Q529.0507,120.164 529.5146,119.7367 Z " fill="#000000"/><text fill="#D8BC00" font-family="Open Sans,Avenir,Nunito,Arial,Helvetica,SansSerif" font-size="12.5" font-weight="bold" lengthAdjust="spacing" textLength="148.9583" x="544.2708" y="122.0378">GraphElementAttribute</text><line style="stroke:#5E5E5E;stroke-width:1.0416666666666667;" x1="514.0625" x2="698.4375" y1="133.0078" y2="133.0078"/><line style="stroke:#5E5E5E;stroke-width:1.0416666666666667;" x1="514.0625" x2="698.4375" y1="141.3411" y2="141.3411"/><!--MD5=[f4e0f02454d20fc45ab9e5f1cdaaee49]
class PlaceAttributes.PlaceAttribute--><rect codeLine="31" fill="#282828" height="83.3781" id="PlaceAttributes.PlaceAttribute" rx="8.3333" ry="8.3333" style="stroke:#5E5E5E;stroke-width:1.0416666666666667;" width="152.0833" x="585.4167" y="382.3486"/><rect fill="#1B1B1A" height="31.3883" rx="8.3333" ry="8.3333" style="stroke:#1B1B1A;stroke-width:1.0416666666666667;" width="152.0833" x="585.4167" y="382.3486"/><rect fill="#1B1B1A" height="8.3333" style="stroke:#1B1B1A;stroke-width:1.0416666666666667;" width="152.0833" x="585.4167" y="405.4036"/><rect codeLine="31" fill="none" height="83.3781" id="PlaceAttributes.PlaceAttribute" rx="8.3333" ry="8.3333" style="stroke:#5E5E5E;stroke-width:1.0416666666666667;" width="152.0833" x="585.4167" y="382.3486"/><ellipse cx="610.7813" cy="398.0428" fill="#0066CF" rx="10.4167" ry="10.4167" style="stroke:#0086EF;stroke-width:1.0416666666666667;"/><path d="M612.6917,402.4679 Q612.2644,402.6876 611.7944,402.7974 Q611.3245,402.9073 610.8057,402.9073 Q608.9624,402.9073 607.9919,401.6927 Q607.0215,400.4781 607.0215,398.1832 Q607.0215,395.8822 607.9919,394.6676 Q608.9624,393.453 610.8057,393.453 Q611.3245,393.453 611.8005,393.5628 Q612.2766,393.6727 612.6917,393.8924 L612.6917,395.8944 Q612.2278,395.4671 611.7914,395.2688 Q611.355,395.0704 610.8911,395.0704 Q609.9023,395.0704 609.3988,395.8547 Q608.8953,396.639 608.8953,398.1832 Q608.8953,399.7213 609.3988,400.5056 Q609.9023,401.2899 610.8911,401.2899 Q611.355,401.2899 611.7914,401.0915 Q612.2278,400.8931 612.6917,400.4659 Z " fill="#000000"/><text fill="#D8BC00" font-family="Open Sans,Avenir,Nunito,Arial,Helvetica,SansSerif" font-size="12.5" font-weight="bold" lengthAdjust="spacing" textLength="90.625" x="629.8438" y="402.7669">PlaceAttribute</text><line style="stroke:#5E5E5E;stroke-width:1.5625;" x1="586.4583" x2="736.4583" y1="413.737" y2="413.737"/><ellipse cx="596.875" cy="449.1069" fill="#84BE84" rx="3.125" ry="3.125" style="stroke:#038048;stroke-width:1.0416666666666667;"/><text fill="#D8BC00" font-family="Open Sans,Avenir,Nunito,Arial,Helvetica,SansSerif" font-size="11.4583" lengthAdjust="spacing" textLength="119.7917" x="608.3333" y="456.0181">PlaceAttribute(String)</text><line style="stroke:#5E5E5E;stroke-width:1.0416666666666667;" x1="586.4583" x2="617.7083" y1="431.9427" y2="431.9427"/><text fill="#D8BC00" font-family="Open Sans,Avenir,Nunito,Arial,Helvetica,SansSerif" font-size="11.4583" lengthAdjust="spacing" textLength="81.25" x="620.8333" y="435.7524">(constructors)</text><line style="stroke:#5E5E5E;stroke-width:1.0416666666666667;" x1="705.2083" x2="736.4583" y1="431.9427" y2="431.9427"/><!--MD5=[8515a37c80da559ff7ce07f8a9e75d30]
class Place--><rect fill="#282828" height="48.055" id="Place" rx="8.3333" ry="8.3333" style="stroke:#5E5E5E;stroke-width:1.0416666666666667;" width="69.7917" x="133.8542" y="101.6195"/><rect fill="#1B1B1A" height="31.3883" rx="8.3333" ry="8.3333" style="stroke:#1B1B1A;stroke-width:1.0416666666666667;" width="69.7917" x="133.8542" y="101.6195"/><rect fill="#1B1B1A" height="8.3333" style="stroke:#1B1B1A;stroke-width:1.0416666666666667;" width="69.7917" x="133.8542" y="124.6745"/><rect fill="none" height="48.055" id="Place" rx="8.3333" ry="8.3333" style="stroke:#5E5E5E;stroke-width:1.0416666666666667;" width="69.7917" x="133.8542" y="101.6195"/><ellipse cx="148.4375" cy="117.3136" fill="#0066CF" rx="10.4167" ry="10.4167" style="stroke:#0086EF;stroke-width:1.0416666666666667;"/><path d="M150.3479,121.7387 Q149.9207,121.9584 149.4507,122.0683 Q148.9807,122.1781 148.4619,122.1781 Q146.6187,122.1781 145.6482,120.9635 Q144.6777,119.7489 144.6777,117.454 Q144.6777,115.153 145.6482,113.9384 Q146.6187,112.7238 148.4619,112.7238 Q148.9807,112.7238 149.4568,112.8337 Q149.9329,112.9435 150.3479,113.1632 L150.3479,115.1652 Q149.884,114.738 149.4476,114.5396 Q149.0112,114.3412 148.5474,114.3412 Q147.5586,114.3412 147.0551,115.1255 Q146.5515,115.9098 146.5515,117.454 Q146.5515,118.9921 147.0551,119.7764 Q147.5586,120.5607 148.5474,120.5607 Q149.0112,120.5607 149.4476,120.3623 Q149.884,120.164 150.3479,119.7367 Z " fill="#000000"/><text fill="#D8BC00" font-family="Open Sans,Avenir,Nunito,Arial,Helvetica,SansSerif" font-size="12.5" font-weight="bold" lengthAdjust="spacing" textLength="32.2917" x="165.1042" y="122.0378">Place</text><line style="stroke:#5E5E5E;stroke-width:1.0416666666666667;" x1="134.8958" x2="202.6042" y1="133.0078" y2="133.0078"/><line style="stroke:#5E5E5E;stroke-width:1.0416666666666667;" x1="134.8958" x2="202.6042" y1="141.3411" y2="141.3411"/><!--MD5=[d53f2621d0a4c4235186289d931f324f]
class HeavyWeightPlace--><rect codeLine="7" fill="#282828" height="424.2961" id="HeavyWeightPlace" rx="8.3333" ry="8.3333" style="stroke:#5E5E5E;stroke-width:1.0416666666666667;" width="322.9167" x="7.2917" y="212.0361"/><rect fill="#1B1B1A" height="31.3883" rx="8.3333" ry="8.3333" style="stroke:#1B1B1A;stroke-width:1.0416666666666667;" width="322.9167" x="7.2917" y="212.0361"/><rect fill="#1B1B1A" height="8.3333" style="stroke:#1B1B1A;stroke-width:1.0416666666666667;" width="322.9167" x="7.2917" y="235.0911"/><rect codeLine="7" fill="none" height="424.2961" id="HeavyWeightPlace" rx="8.3333" ry="8.3333" style="stroke:#5E5E5E;stroke-width:1.0416666666666667;" width="322.9167" x="7.2917" y="212.0361"/><ellipse cx="103.6458" cy="227.7303" fill="#0066CF" rx="10.4167" ry="10.4167" style="stroke:#0086EF;stroke-width:1.0416666666666667;"/><path d="M105.5562,232.1554 Q105.129,232.3751 104.659,232.4849 Q104.189,232.5948 103.6702,232.5948 Q101.827,232.5948 100.8565,231.3802 Q99.8861,230.1656 99.8861,227.8707 Q99.8861,225.5697 100.8565,224.3551 Q101.827,223.1405 103.6702,223.1405 Q104.189,223.1405 104.6651,223.2503 Q105.1412,223.3602 105.5562,223.5799 L105.5562,225.5819 Q105.0924,225.1546 104.656,224.9563 Q104.2196,224.7579 103.7557,224.7579 Q102.7669,224.7579 102.2634,225.5422 Q101.7598,226.3265 101.7598,227.8707 Q101.7598,229.4088 102.2634,230.1931 Q102.7669,230.9774 103.7557,230.9774 Q104.2196,230.9774 104.656,230.779 Q105.0924,230.5806 105.5562,230.1534 Z " fill="#000000"/><text fill="#D8BC00" font-family="Open Sans,Avenir,Nunito,Arial,Helvetica,SansSerif" font-size="12.5" font-weight="bold" lengthAdjust="spacing" textLength="115.625" x="126.5625" y="232.4544">HeavyWeightPlace</text><line style="stroke:#5E5E5E;stroke-width:1.5625;" x1="8.3333" x2="329.1667" y1="243.4245" y2="243.4245"/><ellipse cx="18.75" cy="278.7944" fill="#84BE84" rx="3.125" ry="3.125" style="stroke:#038048;stroke-width:1.0416666666666667;"/><text fill="#D8BC00" font-family="Open Sans,Avenir,Nunito,Arial,Helvetica,SansSerif" font-size="11.4583" lengthAdjust="spacing" textLength="226.0417" x="30.2083" y="285.7056">HeavyWeightPlace(Graph, PlaceIdentifier)</text><ellipse cx="18.75" cy="298.5392" fill="#84BE84" rx="3.125" ry="3.125" style="stroke:#038048;stroke-width:1.0416666666666667;"/><text fill="#D8BC00" font-family="Open Sans,Avenir,Nunito,Arial,Helvetica,SansSerif" font-size="11.4583" lengthAdjust="spacing" textLength="172.9167" x="30.2083" y="305.4504">HeavyWeightPlace(Graph, long)</text><line style="stroke:#5E5E5E;stroke-width:1.0416666666666667;" x1="8.3333" x2="125" y1="261.6302" y2="261.6302"/><text fill="#D8BC00" font-family="Open Sans,Avenir,Nunito,Arial,Helvetica,SansSerif" font-size="11.4583" lengthAdjust="spacing" textLength="81.25" x="128.125" y="265.4399">(constructors)</text><line style="stroke:#5E5E5E;stroke-width:1.0416666666666667;" x1="212.5" x2="329.1667" y1="261.6302" y2="261.6302"/><line style="stroke:#5E5E5E;stroke-width:1.0416666666666667;" x1="8.3333" x2="329.1667" y1="315.1591" y2="315.1591"/><ellipse cx="18.75" cy="326.6174" fill="#84BE84" rx="3.125" ry="3.125" style="stroke:#038048;stroke-width:1.0416666666666667;"/><text fill="#D8BC00" font-family="Open Sans,Avenir,Nunito,Arial,Helvetica,SansSerif" font-size="11.4583" lengthAdjust="spacing" textLength="128.125" x="30.2083" y="333.5286">void location(Location)</text><ellipse cx="18.75" cy="346.3623" fill="#84BE84" rx="3.125" ry="3.125" style="stroke:#038048;stroke-width:1.0416666666666667;"/><text fill="#D8BC00" font-family="Open Sans,Avenir,Nunito,Arial,Helvetica,SansSerif" font-size="11.4583" lengthAdjust="spacing" textLength="255.2083" x="30.2083" y="353.2735">void pbfRevisionNumber(PbfRevisionNumber)</text><ellipse cx="18.75" cy="366.1072" fill="#84BE84" rx="3.125" ry="3.125" style="stroke:#038048;stroke-width:1.0416666666666667;"/><text fill="#D8BC00" font-family="Open Sans,Avenir,Nunito,Arial,Helvetica,SansSerif" font-size="11.4583" lengthAdjust="spacing" textLength="193.75" x="30.2083" y="373.0184">void population(Count population)</text><ellipse cx="18.75" cy="385.8521" fill="#84BE84" rx="3.125" ry="3.125" style="stroke:#038048;stroke-width:1.0416666666666667;"/><text fill="#D8BC00" font-family="Open Sans,Avenir,Nunito,Arial,Helvetica,SansSerif" font-size="11.4583" lengthAdjust="spacing" textLength="144.7917" x="30.2083" y="392.7633">void tags(PbfTagList tags)</text><ellipse cx="18.75" cy="405.5969" fill="#84BE84" rx="3.125" ry="3.125" style="stroke:#038048;stroke-width:1.0416666666666667;"/><text fill="#D8BC00" font-family="Open Sans,Avenir,Nunito,Arial,Helvetica,SansSerif" font-size="11.4583" lengthAdjust="spacing" textLength="86.4583" x="30.2083" y="412.5081">void type(Type)</text><ellipse cx="18.75" cy="449.2533" fill="#84BE84" rx="3.125" ry="3.125" style="stroke:#038048;stroke-width:1.0416666666666667;"/><text fill="#D8BC00" font-family="Open Sans,Avenir,Nunito,Arial,Helvetica,SansSerif" font-size="11.4583" lengthAdjust="spacing" textLength="115.625" x="30.2083" y="456.1646">void copy(Place that)</text><line style="stroke:#5E5E5E;stroke-width:1.0416666666666667;" x1="8.3333" x2="133.3333" y1="432.0892" y2="432.0892"/><text fill="#D8BC00" font-family="Open Sans,Avenir,Nunito,Arial,Helvetica,SansSerif" font-size="11.4583" lengthAdjust="spacing" textLength="64.5833" x="136.4583" y="435.8988">(filesystem)</text><line style="stroke:#5E5E5E;stroke-width:1.0416666666666667;" x1="204.1667" x2="329.1667" y1="432.0892" y2="432.0892"/><ellipse cx="18.75" cy="492.9097" fill="#84BE84" rx="3.125" ry="3.125" style="stroke:#038048;stroke-width:1.0416666666666667;"/><text fill="#D8BC00" font-family="Open Sans,Avenir,Nunito,Arial,Helvetica,SansSerif" font-size="11.4583" lengthAdjust="spacing" textLength="290.625" x="30.2083" y="499.821">void pbfChangeSetIdentifier(PbfChangeSetIdentifier)</text><ellipse cx="18.75" cy="512.6546" fill="#84BE84" rx="3.125" ry="3.125" style="stroke:#038048;stroke-width:1.0416666666666667;"/><text fill="#D8BC00" font-family="Open Sans,Avenir,Nunito,Arial,Helvetica,SansSerif" font-size="11.4583" lengthAdjust="spacing" textLength="223.9583" x="30.2083" y="519.5658">void pbfUserIdentifier(PbfUserIdentifier)</text><line style="stroke:#5E5E5E;stroke-width:1.0416666666666667;" x1="8.3333" x2="140.625" y1="475.7456" y2="475.7456"/><text fill="#D8BC00" font-family="Open Sans,Avenir,Nunito,Arial,Helvetica,SansSerif" font-size="11.4583" lengthAdjust="spacing" textLength="50" x="143.75" y="479.5553">(identity)</text><line style="stroke:#5E5E5E;stroke-width:1.0416666666666667;" x1="196.875" x2="329.1667" y1="475.7456" y2="475.7456"/><ellipse cx="18.75" cy="556.311" fill="#84BE84" rx="3.125" ry="3.125" style="stroke:#038048;stroke-width:1.0416666666666667;"/><text fill="#D8BC00" font-family="Open Sans,Avenir,Nunito,Arial,Helvetica,SansSerif" font-size="11.4583" lengthAdjust="spacing" textLength="132.2917" x="30.2083" y="563.2222">void name(String name)</text><ellipse cx="18.75" cy="576.0559" fill="#84BE84" rx="3.125" ry="3.125" style="stroke:#038048;stroke-width:1.0416666666666667;"/><text fill="#D8BC00" font-family="Open Sans,Avenir,Nunito,Arial,Helvetica,SansSerif" font-size="11.4583" lengthAdjust="spacing" textLength="186.4583" x="30.2083" y="582.9671">void pbfUserName(PbfUserName)</text><line style="stroke:#5E5E5E;stroke-width:1.0416666666666667;" x1="8.3333" x2="140.625" y1="539.1469" y2="539.1469"/><text fill="#D8BC00" font-family="Open Sans,Avenir,Nunito,Arial,Helvetica,SansSerif" font-size="11.4583" lengthAdjust="spacing" textLength="50" x="143.75" y="542.9565">(naming)</text><line style="stroke:#5E5E5E;stroke-width:1.0416666666666667;" x1="196.875" x2="329.1667" y1="539.1469" y2="539.1469"/><ellipse cx="18.75" cy="619.7123" fill="#84BE84" rx="3.125" ry="3.125" style="stroke:#038048;stroke-width:1.0416666666666667;"/><text fill="#D8BC00" font-family="Open Sans,Avenir,Nunito,Arial,Helvetica,SansSerif" font-size="11.4583" lengthAdjust="spacing" textLength="248.9583" x="30.2083" y="626.6235">void lastModificationTime(Time lastModified)</text><line style="stroke:#5E5E5E;stroke-width:1.0416666666666667;" x1="8.3333" x2="149.4792" y1="602.5482" y2="602.5482"/><text fill="#D8BC00" font-family="Open Sans,Avenir,Nunito,Arial,Helvetica,SansSerif" font-size="11.4583" lengthAdjust="spacing" textLength="32.2917" x="152.6042" y="606.3578">(time)</text><line style="stroke:#5E5E5E;stroke-width:1.0416666666666667;" x1="188.0208" x2="329.1667" y1="602.5482" y2="602.5482"/><!--MD5=[f3797ada772a7cb48b5acc47362aacda]
class PlaceAttributes--><rect codeLine="38" fill="#282828" height="111.4563" id="PlaceAttributes" rx="8.3333" ry="8.3333" style="stroke:#5E5E5E;stroke-width:1.0416666666666667;" width="145.8333" x="366.6667" y="368.2861"/><rect fill="#1B1B1A" height="31.3883" rx="8.3333" ry="8.3333" style="stroke:#1B1B1A;stroke-width:1.0416666666666667;" width="145.8333" x="366.6667" y="368.2861"/><rect fill="#1B1B1A" height="8.3333" style="stroke:#1B1B1A;stroke-width:1.0416666666666667;" width="145.8333" x="366.6667" y="391.3411"/><rect codeLine="38" fill="none" height="111.4563" id="PlaceAttributes" rx="8.3333" ry="8.3333" style="stroke:#5E5E5E;stroke-width:1.0416666666666667;" width="145.8333" x="366.6667" y="368.2861"/><ellipse cx="385.9375" cy="383.9803" fill="#0066CF" rx="10.4167" ry="10.4167" style="stroke:#0086EF;stroke-width:1.0416666666666667;"/><path d="M387.8479,388.4054 Q387.4207,388.6251 386.9507,388.7349 Q386.4807,388.8448 385.9619,388.8448 Q384.1187,388.8448 383.1482,387.6302 Q382.1777,386.4156 382.1777,384.1207 Q382.1777,381.8197 383.1482,380.6051 Q384.1187,379.3905 385.9619,379.3905 Q386.4807,379.3905 386.9568,379.5003 Q387.4329,379.6102 387.8479,379.8299 L387.8479,381.8319 Q387.384,381.4046 386.9476,381.2063 Q386.5112,381.0079 386.0474,381.0079 Q385.0586,381.0079 384.5551,381.7922 Q384.0515,382.5765 384.0515,384.1207 Q384.0515,385.6588 384.5551,386.4431 Q385.0586,387.2274 386.0474,387.2274 Q386.5112,387.2274 386.9476,387.029 Q387.384,386.8306 387.8479,386.4034 Z " fill="#000000"/><text fill="#D8BC00" font-family="Open Sans,Avenir,Nunito,Arial,Helvetica,SansSerif" font-size="12.5" font-weight="bold" lengthAdjust="spacing" textLength="97.9167" x="403.6458" y="388.7044">PlaceAttributes</text><line style="stroke:#5E5E5E;stroke-width:1.5625;" x1="367.7083" x2="511.4583" y1="399.6745" y2="399.6745"/><polygon fill="#FFFF44" points="378.125,429.836,382.2917,434.0027,378.125,438.1694,373.9583,434.0027" style="stroke:#B38D22;stroke-width:1.0416666666666667;"/><text fill="#D8BC00" font-family="Open Sans,Avenir,Nunito,Arial,Helvetica,SansSerif" font-size="11.4583" lengthAdjust="spacing" textLength="92.7083" x="389.5833" y="441.9556">PlaceAttributes()</text><line style="stroke:#5E5E5E;stroke-width:1.0416666666666667;" x1="367.7083" x2="395.8333" y1="417.8802" y2="417.8802"/><text fill="#D8BC00" font-family="Open Sans,Avenir,Nunito,Arial,Helvetica,SansSerif" font-size="11.4583" lengthAdjust="spacing" textLength="81.25" x="398.9583" y="421.6899">(constructors)</text><line style="stroke:#5E5E5E;stroke-width:1.0416666666666667;" x1="483.3333" x2="511.4583" y1="417.8802" y2="417.8802"/><line style="stroke:#5E5E5E;stroke-width:1.0416666666666667;" x1="367.7083" x2="511.4583" y1="451.6642" y2="451.6642"/><ellipse cx="378.125" cy="463.1226" fill="#84BE84" rx="3.125" ry="3.125" style="stroke:#038048;stroke-width:1.0416666666666667;"/><text fill="#D8BC00" font-family="Open Sans,Avenir,Nunito,Arial,Helvetica,SansSerif" font-size="11.4583" lengthAdjust="spacing" textLength="113.5417" x="389.5833" y="470.0338">PlaceAttributes get()</text><!--MD5=[10e9558fe0f7c572b956635899797c73]
class Differences--><rect fill="#282828" height="48.055" id="Differences" rx="8.3333" ry="8.3333" style="stroke:#5E5E5E;stroke-width:1.0416666666666667;" width="111.4583" x="829.6875" y="101.6195"/><rect fill="#1B1B1A" height="31.3883" rx="8.3333" ry="8.3333" style="stroke:#1B1B1A;stroke-width:1.0416666666666667;" width="111.4583" x="829.6875" y="101.6195"/><rect fill="#1B1B1A" height="8.3333" style="stroke:#1B1B1A;stroke-width:1.0416666666666667;" width="111.4583" x="829.6875" y="124.6745"/><rect fill="none" height="48.055" id="Differences" rx="8.3333" ry="8.3333" style="stroke:#5E5E5E;stroke-width:1.0416666666666667;" width="111.4583" x="829.6875" y="101.6195"/><ellipse cx="844.2708" cy="117.3136" fill="#0066CF" rx="10.4167" ry="10.4167" style="stroke:#0086EF;stroke-width:1.0416666666666667;"/><path d="M846.1812,121.7387 Q845.754,121.9584 845.284,122.0683 Q844.814,122.1781 844.2952,122.1781 Q842.452,122.1781 841.4815,120.9635 Q840.5111,119.7489 840.5111,117.454 Q840.5111,115.153 841.4815,113.9384 Q842.452,112.7238 844.2952,112.7238 Q844.814,112.7238 845.2901,112.8337 Q845.7662,112.9435 846.1812,113.1632 L846.1812,115.1652 Q845.7174,114.738 845.281,114.5396 Q844.8446,114.3412 844.3807,114.3412 Q843.3919,114.3412 842.8884,115.1255 Q842.3848,115.9098 842.3848,117.454 Q842.3848,118.9921 842.8884,119.7764 Q843.3919,120.5607 844.3807,120.5607 Q844.8446,120.5607 845.281,120.3623 Q845.7174,120.164 846.1812,119.7367 Z " fill="#000000"/><text fill="#D8BC00" font-family="Open Sans,Avenir,Nunito,Arial,Helvetica,SansSerif" font-size="12.5" font-weight="bold" lengthAdjust="spacing" textLength="73.9583" x="860.9375" y="122.0378">Differences</text><line style="stroke:#5E5E5E;stroke-width:1.0416666666666667;" x1="830.7292" x2="940.1042" y1="133.0078" y2="133.0078"/><line style="stroke:#5E5E5E;stroke-width:1.0416666666666667;" x1="830.7292" x2="940.1042" y1="141.3411" y2="141.3411"/><!--MD5=[167773effcd161642f6cf54a7827a4b0]
class PlaceDifferences--><rect codeLine="47" fill="#282828" height="111.4563" id="PlaceDifferences" rx="8.3333" ry="8.3333" style="stroke:#5E5E5E;stroke-width:1.0416666666666667;" width="194.7917" x="788.0208" y="368.2861"/><rect fill="#1B1B1A" height="31.3883" rx="8.3333" ry="8.3333" style="stroke:#1B1B1A;stroke-width:1.0416666666666667;" width="194.7917" x="788.0208" y="368.2861"/><rect fill="#1B1B1A" height="8.3333" style="stroke:#1B1B1A;stroke-width:1.0416666666666667;" width="194.7917" x="788.0208" y="391.3411"/><rect codeLine="47" fill="none" height="111.4563" id="PlaceDifferences" rx="8.3333" ry="8.3333" style="stroke:#5E5E5E;stroke-width:1.0416666666666667;" width="194.7917" x="788.0208" y="368.2861"/><ellipse cx="825.5729" cy="383.9803" fill="#0066CF" rx="10.4167" ry="10.4167" style="stroke:#0086EF;stroke-width:1.0416666666666667;"/><path d="M827.4833,388.4054 Q827.0561,388.6251 826.5861,388.7349 Q826.1161,388.8448 825.5973,388.8448 Q823.7541,388.8448 822.7836,387.6302 Q821.8132,386.4156 821.8132,384.1207 Q821.8132,381.8197 822.7836,380.6051 Q823.7541,379.3905 825.5973,379.3905 Q826.1161,379.3905 826.5922,379.5003 Q827.0683,379.6102 827.4833,379.8299 L827.4833,381.8319 Q827.0194,381.4046 826.583,381.2063 Q826.1466,381.0079 825.6828,381.0079 Q824.694,381.0079 824.1905,381.7922 Q823.6869,382.5765 823.6869,384.1207 Q823.6869,385.6588 824.1905,386.4431 Q824.694,387.2274 825.6828,387.2274 Q826.1466,387.2274 826.583,387.029 Q827.0194,386.8306 827.4833,386.4034 Z " fill="#000000"/><text fill="#D8BC00" font-family="Open Sans,Avenir,Nunito,Arial,Helvetica,SansSerif" font-size="12.5" font-weight="bold" lengthAdjust="spacing" textLength="106.25" x="847.3438" y="388.7044">PlaceDifferences</text><line style="stroke:#5E5E5E;stroke-width:1.5625;" x1="789.0625" x2="981.7708" y1="399.6745" y2="399.6745"/><ellipse cx="799.4792" cy="435.0444" fill="#84BE84" rx="3.125" ry="3.125" style="stroke:#038048;stroke-width:1.0416666666666667;"/><text fill="#D8BC00" font-family="Open Sans,Avenir,Nunito,Arial,Helvetica,SansSerif" font-size="11.4583" lengthAdjust="spacing" textLength="162.5" x="810.9375" y="441.9556">PlaceDifferences(Place, Place)</text><line style="stroke:#5E5E5E;stroke-width:1.0416666666666667;" x1="789.0625" x2="841.6667" y1="417.8802" y2="417.8802"/><text fill="#D8BC00" font-family="Open Sans,Avenir,Nunito,Arial,Helvetica,SansSerif" font-size="11.4583" lengthAdjust="spacing" textLength="81.25" x="844.7917" y="421.6899">(constructors)</text><line style="stroke:#5E5E5E;stroke-width:1.0416666666666667;" x1="929.1667" x2="981.7708" y1="417.8802" y2="417.8802"/><line style="stroke:#5E5E5E;stroke-width:1.0416666666666667;" x1="789.0625" x2="981.7708" y1="451.6642" y2="451.6642"/><ellipse cx="799.4792" cy="463.1226" fill="#84BE84" rx="3.125" ry="3.125" style="stroke:#038048;stroke-width:1.0416666666666667;"/><text fill="#D8BC00" font-family="Open Sans,Avenir,Nunito,Arial,Helvetica,SansSerif" font-size="11.4583" lengthAdjust="spacing" textLength="123.9583" x="810.9375" y="470.0338">Differences compare()</text><!--MD5=[b24e991e4060fe9dc991388e94d9e1f8]
class GraphElementPropertySet--><rect fill="#282828" height="48.055" id="GraphElementPropertySet" rx="8.3333" ry="8.3333" style="stroke:#5E5E5E;stroke-width:1.0416666666666667;" width="202.0833" x="991.6667" y="101.6195"/><rect fill="#1B1B1A" height="31.3883" rx="8.3333" ry="8.3333" style="stroke:#1B1B1A;stroke-width:1.0416666666666667;" width="202.0833" x="991.6667" y="101.6195"/><rect fill="#1B1B1A" height="8.3333" style="stroke:#1B1B1A;stroke-width:1.0416666666666667;" width="202.0833" x="991.6667" y="124.6745"/><rect fill="none" height="48.055" id="GraphElementPropertySet" rx="8.3333" ry="8.3333" style="stroke:#5E5E5E;stroke-width:1.0416666666666667;" width="202.0833" x="991.6667" y="101.6195"/><ellipse cx="1006.25" cy="117.3136" fill="#0066CF" rx="10.4167" ry="10.4167" style="stroke:#0086EF;stroke-width:1.0416666666666667;"/><path d="M1008.1604,121.7387 Q1007.7332,121.9584 1007.2632,122.0683 Q1006.7932,122.1781 1006.2744,122.1781 Q1004.4312,122.1781 1003.4607,120.9635 Q1002.4902,119.7489 1002.4902,117.454 Q1002.4902,115.153 1003.4607,113.9384 Q1004.4312,112.7238 1006.2744,112.7238 Q1006.7932,112.7238 1007.2693,112.8337 Q1007.7454,112.9435 1008.1604,113.1632 L1008.1604,115.1652 Q1007.6965,114.738 1007.2601,114.5396 Q1006.8237,114.3412 1006.3599,114.3412 Q1005.3711,114.3412 1004.8676,115.1255 Q1004.364,115.9098 1004.364,117.454 Q1004.364,118.9921 1004.8676,119.7764 Q1005.3711,120.5607 1006.3599,120.5607 Q1006.8237,120.5607 1007.2601,120.3623 Q1007.6965,120.164 1008.1604,119.7367 Z " fill="#000000"/><text fill="#D8BC00" font-family="Open Sans,Avenir,Nunito,Arial,Helvetica,SansSerif" font-size="12.5" font-weight="bold" lengthAdjust="spacing" textLength="164.5833" x="1022.9167" y="122.0378">GraphElementPropertySet</text><line style="stroke:#5E5E5E;stroke-width:1.0416666666666667;" x1="992.7083" x2="1192.7083" y1="133.0078" y2="133.0078"/><line style="stroke:#5E5E5E;stroke-width:1.0416666666666667;" x1="992.7083" x2="1192.7083" y1="141.3411" y2="141.3411"/><!--MD5=[eab9038df7e6d9c65b7104e0e404958e]
class PlaceProperties--><rect codeLine="56" fill="#282828" height="111.4563" id="PlaceProperties" rx="8.3333" ry="8.3333" style="stroke:#5E5E5E;stroke-width:1.0416666666666667;" width="146.875" x="1019.2708" y="368.2861"/><rect fill="#1B1B1A" height="31.3883" rx="8.3333" ry="8.3333" style="stroke:#1B1B1A;stroke-width:1.0416666666666667;" width="146.875" x="1019.2708" y="368.2861"/><rect fill="#1B1B1A" height="8.3333" style="stroke:#1B1B1A;stroke-width:1.0416666666666667;" width="146.875" x="1019.2708" y="391.3411"/><rect codeLine="56" fill="none" height="111.4563" id="PlaceProperties" rx="8.3333" ry="8.3333" style="stroke:#5E5E5E;stroke-width:1.0416666666666667;" width="146.875" x="1019.2708" y="368.2861"/><ellipse cx="1039.0104" cy="383.9803" fill="#0066CF" rx="10.4167" ry="10.4167" style="stroke:#0086EF;stroke-width:1.0416666666666667;"/><path d="M1040.9208,388.4054 Q1040.4936,388.6251 1040.0236,388.7349 Q1039.5536,388.8448 1039.0348,388.8448 Q1037.1916,388.8448 1036.2211,387.6302 Q1035.2507,386.4156 1035.2507,384.1207 Q1035.2507,381.8197 1036.2211,380.6051 Q1037.1916,379.3905 1039.0348,379.3905 Q1039.5536,379.3905 1040.0297,379.5003 Q1040.5058,379.6102 1040.9208,379.8299 L1040.9208,381.8319 Q1040.4569,381.4046 1040.0205,381.2063 Q1039.5841,381.0079 1039.1203,381.0079 Q1038.1315,381.0079 1037.628,381.7922 Q1037.1244,382.5765 1037.1244,384.1207 Q1037.1244,385.6588 1037.628,386.4431 Q1038.1315,387.2274 1039.1203,387.2274 Q1039.5841,387.2274 1040.0205,387.029 Q1040.4569,386.8306 1040.9208,386.4034 Z " fill="#000000"/><text fill="#D8BC00" font-family="Open Sans,Avenir,Nunito,Arial,Helvetica,SansSerif" font-size="12.5" font-weight="bold" lengthAdjust="spacing" textLength="97.9167" x="1056.8229" y="388.7044">PlaceProperties</text><line style="stroke:#5E5E5E;stroke-width:1.5625;" x1="1020.3125" x2="1165.1042" y1="399.6745" y2="399.6745"/><polygon fill="#FFFF44" points="1030.7292,429.836,1034.8958,434.0027,1030.7292,438.1694,1026.5625,434.0027" style="stroke:#B38D22;stroke-width:1.0416666666666667;"/><text fill="#D8BC00" font-family="Open Sans,Avenir,Nunito,Arial,Helvetica,SansSerif" font-size="11.4583" lengthAdjust="spacing" textLength="93.75" x="1042.1875" y="441.9556">PlaceProperties()</text><line style="stroke:#5E5E5E;stroke-width:1.0416666666666667;" x1="1020.3125" x2="1048.9583" y1="417.8802" y2="417.8802"/><text fill="#D8BC00" font-family="Open Sans,Avenir,Nunito,Arial,Helvetica,SansSerif" font-size="11.4583" lengthAdjust="spacing" textLength="81.25" x="1052.0833" y="421.6899">(constructors)</text><line style="stroke:#5E5E5E;stroke-width:1.0416666666666667;" x1="1136.4583" x2="1165.1042" y1="417.8802" y2="417.8802"/><line style="stroke:#5E5E5E;stroke-width:1.0416666666666667;" x1="1020.3125" x2="1165.1042" y1="451.6642" y2="451.6642"/><ellipse cx="1030.7292" cy="463.1226" fill="#84BE84" rx="3.125" ry="3.125" style="stroke:#038048;stroke-width:1.0416666666666667;"/><text fill="#D8BC00" font-family="Open Sans,Avenir,Nunito,Arial,Helvetica,SansSerif" font-size="11.4583" lengthAdjust="spacing" textLength="114.5833" x="1042.1875" y="470.0338">PlaceProperties get()</text><!--MD5=[0245c4c2d44e60a004da4ebbf13e487e]
class GraphElementProperty--><rect fill="#282828" height="48.055" id="GraphElementProperty" rx="8.3333" ry="8.3333" style="stroke:#5E5E5E;stroke-width:1.0416666666666667;" width="182.2917" x="1230.7292" y="101.6195"/><rect fill="#1B1B1A" height="31.3883" rx="8.3333" ry="8.3333" style="stroke:#1B1B1A;stroke-width:1.0416666666666667;" width="182.2917" x="1230.7292" y="101.6195"/><rect fill="#1B1B1A" height="8.3333" style="stroke:#1B1B1A;stroke-width:1.0416666666666667;" width="182.2917" x="1230.7292" y="124.6745"/><rect fill="none" height="48.055" id="GraphElementProperty" rx="8.3333" ry="8.3333" style="stroke:#5E5E5E;stroke-width:1.0416666666666667;" width="182.2917" x="1230.7292" y="101.6195"/><ellipse cx="1245.3125" cy="117.3136" fill="#0066CF" rx="10.4167" ry="10.4167" style="stroke:#0086EF;stroke-width:1.0416666666666667;"/><path d="M1247.2229,121.7387 Q1246.7957,121.9584 1246.3257,122.0683 Q1245.8557,122.1781 1245.3369,122.1781 Q1243.4937,122.1781 1242.5232,120.9635 Q1241.5527,119.7489 1241.5527,117.454 Q1241.5527,115.153 1242.5232,113.9384 Q1243.4937,112.7238 1245.3369,112.7238 Q1245.8557,112.7238 1246.3318,112.8337 Q1246.8079,112.9435 1247.2229,113.1632 L1247.2229,115.1652 Q1246.759,114.738 1246.3226,114.5396 Q1245.8862,114.3412 1245.4224,114.3412 Q1244.4336,114.3412 1243.9301,115.1255 Q1243.4265,115.9098 1243.4265,117.454 Q1243.4265,118.9921 1243.9301,119.7764 Q1244.4336,120.5607 1245.4224,120.5607 Q1245.8862,120.5607 1246.3226,120.3623 Q1246.759,120.164 1247.2229,119.7367 Z " fill="#000000"/><text fill="#D8BC00" font-family="Open Sans,Avenir,Nunito,Arial,Helvetica,SansSerif" font-size="12.5" font-weight="bold" lengthAdjust="spacing" textLength="144.7917" x="1261.9792" y="122.0378">GraphElementProperty</text><line style="stroke:#5E5E5E;stroke-width:1.0416666666666667;" x1="1231.7708" x2="1411.9792" y1="133.0078" y2="133.0078"/><line style="stroke:#5E5E5E;stroke-width:1.0416666666666667;" x1="1231.7708" x2="1411.9792" y1="141.3411" y2="141.3411"/><!--MD5=[666d67141c3736399eea99e5d99239ed]
class PlaceProperties.PlaceProperty--><rect codeLine="65" fill="#282828" height="83.3781" id="PlaceProperties.PlaceProperty" rx="8.3333" ry="8.3333" style="stroke:#5E5E5E;stroke-width:1.0416666666666667;" width="230.2083" x="1206.7708" y="382.3486"/><rect fill="#1B1B1A" height="31.3883" rx="8.3333" ry="8.3333" style="stroke:#1B1B1A;stroke-width:1.0416666666666667;" width="230.2083" x="1206.7708" y="382.3486"/><rect fill="#1B1B1A" height="8.3333" style="stroke:#1B1B1A;stroke-width:1.0416666666666667;" width="230.2083" x="1206.7708" y="405.4036"/><rect codeLine="65" fill="none" height="83.3781" id="PlaceProperties.PlaceProperty" rx="8.3333" ry="8.3333" style="stroke:#5E5E5E;stroke-width:1.0416666666666667;" width="230.2083" x="1206.7708" y="382.3486"/><ellipse cx="1271.3542" cy="398.0428" fill="#C8AC00" rx="10.4167" ry="10.4167" style="stroke:#D8BC00;stroke-width:1.0416666666666667;"/><path d="M1270.9473,394.7449 L1270.0989,398.4741 L1271.8018,398.4741 Z M1269.8486,393.0969 L1272.052,393.0969 L1274.5117,402.2095 L1272.7112,402.2095 L1272.1497,399.9573 L1269.7388,399.9573 L1269.1895,402.2095 L1267.3889,402.2095 Z " fill="#000000"/><text fill="#D8BC00" font-family="Open Sans,Avenir,Nunito,Arial,Helvetica,SansSerif" font-size="12.5" font-style="italic" font-weight="bold" lengthAdjust="spacing" textLength="86.4583" x="1294.2708" y="402.7669">PlaceProperty</text><line style="stroke:#5E5E5E;stroke-width:1.5625;" x1="1207.8125" x2="1435.9375" y1="413.737" y2="413.737"/><polygon fill="#FFFF44" points="1218.2292,443.8985,1222.3958,448.0652,1218.2292,452.2319,1214.0625,448.0652" style="stroke:#B38D22;stroke-width:1.0416666666666667;"/><text fill="#D8BC00" font-family="Open Sans,Avenir,Nunito,Arial,Helvetica,SansSerif" font-size="11.4583" lengthAdjust="spacing" textLength="197.9167" x="1229.6875" y="456.0181">PlaceProperty(String, Attribute&lt;?&gt;)</text><line style="stroke:#5E5E5E;stroke-width:1.0416666666666667;" x1="1207.8125" x2="1278.125" y1="431.9427" y2="431.9427"/><text fill="#D8BC00" font-family="Open Sans,Avenir,Nunito,Arial,Helvetica,SansSerif" font-size="11.4583" lengthAdjust="spacing" textLength="81.25" x="1281.25" y="435.7524">(constructors)</text><line style="stroke:#5E5E5E;stroke-width:1.0416666666666667;" x1="1365.625" x2="1435.9375" y1="431.9427" y2="431.9427"/><!--MD5=[1cf5c5e5be499d8ce8db76cb2ecf5fb6]
reverse link Place to HeavyWeightPlace--><path codeLine="6" d="M168.75,171.1715 C168.75,183.2132 168.75,197.0882 168.75,212.0049 " fill="none" id="Place-backto-HeavyWeightPlace" style="stroke:#545454;stroke-width:1.5625;"/><polygon fill="none" points="161.4583,170.7028,168.75,149.8695,176.0417,170.7028,161.4583,170.7028" style="stroke:#545454;stroke-width:1.5625;"/><!--MD5=[d080db657ead61949e74ac8f2ef0953d]
reverse link GraphElementAttributes.GraphElementAttribute to PlaceAttributes.PlaceAttribute--><path codeLine="30" d="M614.4375,170.5465 C625.0729,227.6715 643.5208,326.7132 653.8646,382.234 " fill="none" id="GraphElementAttributes.GraphElementAttribute-backto-PlaceAttributes.PlaceAttribute" style="stroke:#545454;stroke-width:1.5625;"/><polygon fill="none" points="607.2292,171.6924,610.5833,149.8695,621.5625,169.0153,607.2292,171.6924" style="stroke:#545454;stroke-width:1.5625;"/><!--MD5=[9957cd381e452b63d5b3d1f3f2d442d9]
reverse link GraphElementAttributes to PlaceAttributes--><path d="M470.0477,175.3059 C470.0087,175.623 469.9696,175.9412 469.9303,176.2605 C469.8517,176.8991 469.7726,177.5422 469.693,178.1896 C469.5337,179.4845 469.3722,180.7968 469.2087,182.1258 C467.9009,192.7573 466.4622,204.4521 464.9453,216.7835 C458.8776,266.109 451.5573,325.6195 446.3438,368.0049 " fill="none" id="GraphElementAttributes-backto-PlaceAttributes" style="stroke:#545454;stroke-width:1.5625;"/><polygon fill="#333333" points="470.0477,175.3059,460.3941,194.0592,474.8683,195.8398,470.0477,175.3059" style="stroke:#545454;stroke-width:1.5625;"/><!--MD5=[445e30ae88be0bff6f9ed760c0d4ad82]
reverse link Differences to PlaceDifferences--><path codeLine="46" d="M885.4167,171.0257 C885.4167,223.6299 885.4167,311.2653 885.4167,368.0778 " fill="none" id="Differences-backto-PlaceDifferences" style="stroke:#545454;stroke-width:1.5625;"/><polygon fill="none" points="878.125,170.7028,885.4167,149.8695,892.7083,170.7028,878.125,170.7028" style="stroke:#545454;stroke-width:1.5625;"/><!--MD5=[cbe8c3fc59bafb38d676791c61cbdc00]
reverse link GraphElementPropertySet to PlaceProperties--><path codeLine="55" d="M1092.7083,171.0257 C1092.7083,223.6299 1092.7083,311.2653 1092.7083,368.0778 " fill="none" id="GraphElementPropertySet-backto-PlaceProperties" style="stroke:#545454;stroke-width:1.5625;"/><polygon fill="none" points="1085.4167,170.7028,1092.7083,149.8695,1100,170.7028,1085.4167,170.7028" style="stroke:#545454;stroke-width:1.5625;"/><!--MD5=[171d74ab61bcddf8a46b983792920bb8]
reverse link GraphElementProperty to PlaceProperties.PlaceProperty--><path codeLine="64" d="M1321.875,170.9215 C1321.875,228.109 1321.875,326.8382 1321.875,382.234 " fill="none" id="GraphElementProperty-backto-PlaceProperties.PlaceProperty" style="stroke:#545454;stroke-width:1.5625;"/><polygon fill="none" points="1314.5833,170.7028,1321.875,149.8695,1329.1667,170.7028,1314.5833,170.7028" style="stroke:#545454;stroke-width:1.5625;"/><!--MD5=[ac62eaff903b4cd99fc5609dba9e6382]
@startuml

    !include lexakai.theme
    
    title "com.telenav.mesakit.graph.specifications.common.place"
    
    Place <|- - HeavyWeightPlace
    class HeavyWeightPlace
    {
        - -(constructors)- -
        +HeavyWeightPlace(Graph, PlaceIdentifier)
        +HeavyWeightPlace(Graph, long)
        - -
        +void location(Location)
        +void pbfRevisionNumber(PbfRevisionNumber)
        +void population(Count population)
        +void tags(PbfTagList tags)
        +void type(Type)
        - -(filesystem)- -
        +void copy(Place that)
        - -(identity)- -
        +void pbfChangeSetIdentifier(PbfChangeSetIdentifier)
        +void pbfUserIdentifier(PbfUserIdentifier)
        - -(naming)- -
        +void name(String name)
        +void pbfUserName(PbfUserName)
        - -(time)- -
        +void lastModificationTime(Time lastModified)
    }
    
    GraphElementAttributes.GraphElementAttribute <|- - PlaceAttributes.PlaceAttribute
    class PlaceAttributes.PlaceAttribute
    {
        - -(constructors)- -
        +PlaceAttribute(String)
    }
    
    GraphElementAttributes <|- - PlaceAttributes
    class PlaceAttributes
    {
        - -(constructors)- -
        #PlaceAttributes()
        - -
        +PlaceAttributes get()
    }
    
    Differences <|- - PlaceDifferences
    class PlaceDifferences
    {
        - -(constructors)- -
        +PlaceDifferences(Place, Place)
        - -
        +Differences compare()
    }
    
    GraphElementPropertySet <|- - PlaceProperties
    class PlaceProperties
    {
        - -(constructors)- -
        #PlaceProperties()
        - -
        +PlaceProperties get()
    }
    
    GraphElementProperty <|- - PlaceProperties.PlaceProperty
    abstract class PlaceProperties.PlaceProperty
    {
        - -(constructors)- -
        #PlaceProperty(String, Attribute<?>)
    }
    
@enduml

@startuml









skinparam backgroundColor #333333






skinparam  {
    defaultFontName   "Open Sans,Avenir,Nunito,Arial,Helvetica,SansSerif"
    defaultFontSize   12
    defaultTextAlignment left
    shadowing false
    RoundCorner 10
    TitleFontSize 18
}

skinparam defaultFontName       "Open Sans,Avenir,Nunito,Arial,Helvetica,SansSerif"
skinparam defaultFontSize       12
skinparam dpi                   100
skinparam shadowing             false
skinparam roundcorner           16
skinparam ParticipantPadding    40
skinparam BoxPadding            40
skinparam Padding               3
skinparam ArrowColor            #545454
skinparam stereotype {
    CBackgroundColor #0066cf
    CBorderColor #0086ef
    ABackgroundColor #C8Ac00
    ABorderColor #D8Bc00
    IBackgroundColor #008400
    IBorderColor #239c23
    EBackgroundColor #cf6300
    EBorderColor #ef8300
    NBackgroundColor #3380b9
    NBorderColor #004d86
}
skinparam title {
	FontColor	                 #c0c0c0
 	BorderColor                  #545454
	FontSize	    	         20
	BorderRoundCorner            16
	BorderThickness 	         1
	BackgroundColor              #48494b
}


skinparam legend {
	BackgroundColor #303030
	BorderColor #404040
	FontColor #a0a0a0
}

	skinparam swimlane {
	BorderColor #5e5e5e
	BorderThickness 2
	TitleBackgroundColor  #6d6d6d-#484848
	TitleFontColor #303030
}

skinparam activity {
		FontColor #C8Ac00
	BorderColor #333333
	BackgroundColor #333333-#333333
	BarColor #00FF00
	StartColor #0060a8
	EndColor #0060a8
	DiamondBackgroundColor #6d6d6d-#3a3a3a
  	DiamondBorderColor #3a3a3a
  	DiamondFontColor #fefefe
}


skinparam participant {
		FontColor #C8Ac00
	BorderColor #333333
	BackgroundColor #333333-#333333
	ParticipantBorderThickness 2
}


skinparam actor {
		FontColor #C8Ac00
	BorderColor #333333
	BackgroundColor #333333-#333333
}


skinparam arrow {
	Thickness 1.5
	Color #545454
	FontColor #a0a0a0
    FontStyle bold
    MessageAlignment center
}



skinparam sequence {
	BorderColor #303030
	TitleFontColor #303030
	BackgroundColor #333333
	StartColor #303030
	EndColor #303030
	BoxBackgroundColor #333333
	BoxBorderColor #484848
	BoxFontColor #484848
	LifeLineBorderColor #484848
	LifeLineBorderThickness 2
	LifeLineBackgroundColor #3a3a3a
	GroupBorderColor #484848
	GroupFontColor #484848
	GroupHeaderFontColor #0060a8
	GroupBackgroundColor #484848
	GroupHeaderBackgroundColor #333333
	DividerBackgroundColor #484848
    DividerBorderColor #484848
    DividerBorderThickness 2
    DividerFontColor #D8Bc00
	ReferenceBackgroundColor #333333
	ReferenceBorderColor #484848
	ReferenceFontColor #fefefe
	ReferenceHeaderBackgroundColor #484848
}


skinparam partition {
	BorderColor #303030
	FontColor #333333
	BackgroundColor #333333
}


skinparam collections {
		FontColor #C8Ac00
	BorderColor #333333
	BackgroundColor #333333-#333333
}


skinparam control {
		FontColor #C8Ac00
	BorderColor #333333
	BackgroundColor #333333-#333333
}


skinparam entity {
		FontColor #C8Ac00
	BorderColor #333333
	BackgroundColor #333333-#333333
}


skinparam boundary {
		FontColor #C8Ac00
	BorderColor #333333
	BackgroundColor #333333-#333333
}


skinparam agent {
	BackgroundColor #ff8000
	BorderColor #ff9933
	FontColor #484848
}


skinparam note {
	BorderThickness 1
	BackgroundColor #1b1b1a
	BorderColor #5e5e5e
	FontSize 11
	FontColor #a0a0a0
}


skinparam artifact {
	BorderThickness 10
	BorderColor #5e5e5e
	BackgroundColor #1b1b1a
	FontColor #D8Bc00
}


skinparam component {
		FontColor #C8Ac00
	BorderColor #333333
	BackgroundColor #333333-#333333
}


skinparam interface {
	BackgroundColor  #008400
	BorderColor  #007F00
	FontColor #484848
}


skinparam storage {
	BackgroundColor #ff8000
  	BorderColor #cc6600
	FontColor #222222
}


skinparam node {
	BackgroundColor #333333
	BorderColor #333333
	FontColor #C8Ac00
}


skinparam cloud {
	BackgroundColor #484848-black
	BorderColor #484848
	FontColor #D8Bc00
}


skinparam database {
		FontColor #C8Ac00
	BorderColor #333333
	BackgroundColor #333333-#333333
	BackgroundColor  #333333
}


skinparam class {
		FontColor #C8Ac00
	BorderColor #333333
	BackgroundColor #333333-#333333
	HeaderBackgroundColor #1b1b1a
    BackgroundColor #282828
    BorderColor #5e5e5e
 	StereotypeFontColor #a0a0a0
    StereotypeFontStyle bold
	BorderThickness 1
	AttributeFontColor #D8Bc00
	AttributeFontSize 11
    FontColor #D8Bc00
    FontStyle bold
}


skinparam object {
		FontColor #C8Ac00
	BorderColor #333333
	BackgroundColor #333333-#333333
	StereotypeFontColor #484848
	BorderThickness 1
	AttributeFontColor #fefefe
	AttributeFontSize 11
}


skinparam usecase {
		FontColor #C8Ac00
	BorderColor #333333
	BackgroundColor #333333-#333333
	BorderThickness 2
	StereotypeFontColor #303030
}


skinparam rectangle {
		FontColor #C8Ac00
	BorderColor #333333
	BackgroundColor #333333-#333333
	BackgroundColor #333333
	BorderThickness 2
	StereotypeFontColor #303030
}


skinparam package {
		FontColor #C8Ac00
	BorderColor #333333
	BackgroundColor #333333-#333333
	BackgroundColor #333333
	BorderThickness 2
}


skinparam folder {
	BackgroundColor #6d6d6d
  	BorderColor #ff8000
	FontColor #ff8000
	BorderThickness 2
}


skinparam frame {
	BackgroundColor #6d6d6d
  	BorderColor #0060a8
	FontColor #0060a8
	BorderThickness 2
}


skinparam state {
		FontColor #C8Ac00
	BorderColor #333333
	BackgroundColor #333333-#333333
	StartColor #0060a8
	EndColor #0060a8
	AttributeFontColor #fefefe
	AttributeFontSize 11
}


skinparam queue {
		FontColor #C8Ac00
	BorderColor #333333
	BackgroundColor #333333-#333333
}


skinparam card {
	BackgroundColor #0060a8
	BorderColor #004d86
	FontColor $INFO_TEXT
}


skinparam file {
	BackgroundColor #6d6d6d-#484848
	BorderColor #0060a8
	FontColor #fefefe
}


skinparam stack {
		FontColor #C8Ac00
	BorderColor #333333
	BackgroundColor #333333-#333333
}

    
    title "com.telenav.mesakit.graph.specifications.common.place"
    
    Place <|- - HeavyWeightPlace
    class HeavyWeightPlace
    {
        - -(constructors)- -
        +HeavyWeightPlace(Graph, PlaceIdentifier)
        +HeavyWeightPlace(Graph, long)
        - -
        +void location(Location)
        +void pbfRevisionNumber(PbfRevisionNumber)
        +void population(Count population)
        +void tags(PbfTagList tags)
        +void type(Type)
        - -(filesystem)- -
        +void copy(Place that)
        - -(identity)- -
        +void pbfChangeSetIdentifier(PbfChangeSetIdentifier)
        +void pbfUserIdentifier(PbfUserIdentifier)
        - -(naming)- -
        +void name(String name)
        +void pbfUserName(PbfUserName)
        - -(time)- -
        +void lastModificationTime(Time lastModified)
    }
    
    GraphElementAttributes.GraphElementAttribute <|- - PlaceAttributes.PlaceAttribute
    class PlaceAttributes.PlaceAttribute
    {
        - -(constructors)- -
        +PlaceAttribute(String)
    }
    
    GraphElementAttributes <|- - PlaceAttributes
    class PlaceAttributes
    {
        - -(constructors)- -
        #PlaceAttributes()
        - -
        +PlaceAttributes get()
    }
    
    Differences <|- - PlaceDifferences
    class PlaceDifferences
    {
        - -(constructors)- -
        +PlaceDifferences(Place, Place)
        - -
        +Differences compare()
    }
    
    GraphElementPropertySet <|- - PlaceProperties
    class PlaceProperties
    {
        - -(constructors)- -
        #PlaceProperties()
        - -
        +PlaceProperties get()
    }
    
    GraphElementProperty <|- - PlaceProperties.PlaceProperty
    abstract class PlaceProperties.PlaceProperty
    {
        - -(constructors)- -
        #PlaceProperty(String, Attribute<?>)
    }
    
@enduml

PlantUML version 1.2021.01(Tue Feb 02 00:55:08 MST 2021)
(GPL source distribution)
Java Runtime: OpenJDK Runtime Environment
JVM: OpenJDK 64-Bit Server VM
Default Encoding: UTF-8
Language: en
Country: US
--></g></svg>