<?xml version="1.0" encoding="UTF-8" standalone="no"?><svg xmlns="http://www.w3.org/2000/svg" xmlns:xlink="http://www.w3.org/1999/xlink" contentScriptType="application/ecmascript" contentStyleType="text/css" height="519.7917px" preserveAspectRatio="none" style="width:673px;height:519px;background:#333333;" version="1.1" viewBox="0 0 673 519" width="673.9583px" zoomAndPan="magnify"><defs/><g><rect fill="#48494B" height="41.2028" rx="8.3333" ry="8.3333" style="stroke:#545454;stroke-width:1.0416666666666667;" width="653.125" x="3.3854" y="2.0833"/><text fill="#C0C0C0" font-family="Open Sans,Avenir,Nunito,Arial,Helvetica,SansSerif" font-size="20.8333" lengthAdjust="spacing" textLength="630.2083" x="14.8438" y="30.5583">com.telenav.mesakit.map.road.name.parser.locales.indonesian</text><polygon fill="#333333" points="453.6458,52.6611,646.3542,52.6611,653.6458,79.8828,656.7708,79.8828,656.7708,233.9111,453.6458,233.9111,453.6458,52.6611" style="stroke:#333333;stroke-width:2.0833333333333335;"/><line style="stroke:#333333;stroke-width:2.0833333333333335;" x1="453.6458" x2="653.6458" y1="79.8828" y2="79.8828"/><text fill="#C8AC00" font-family="Open Sans,Avenir,Nunito,Arial,Helvetica,SansSerif" font-size="12.5" font-weight="bold" lengthAdjust="spacing" textLength="180.2083" x="460.9375" y="69.9544">IndonesianRoadNameParser</text><rect codeLine="9" fill="#282828" height="107.2896" id="IndonesianRoadNameParser.Capitalization" rx="8.3333" ry="8.3333" style="stroke:#5E5E5E;stroke-width:1.0416666666666667;" width="128.125" x="502.0833" y="101.6195"/><rect fill="#1B1B1A" height="31.3883" rx="8.3333" ry="8.3333" style="stroke:#1B1B1A;stroke-width:1.0416666666666667;" width="128.125" x="502.0833" y="101.6195"/><rect fill="#1B1B1A" height="8.3333" style="stroke:#1B1B1A;stroke-width:1.0416666666666667;" width="128.125" x="502.0833" y="124.6745"/><rect codeLine="9" fill="none" height="107.2896" id="IndonesianRoadNameParser.Capitalization" rx="8.3333" ry="8.3333" style="stroke:#5E5E5E;stroke-width:1.0416666666666667;" width="128.125" x="502.0833" y="101.6195"/><ellipse cx="516.6667" cy="117.3136" fill="#CF6300" rx="10.4167" ry="10.4167" style="stroke:#EF8300;stroke-width:1.0416666666666667;"/><path d="M519.7225,122.0011 L514.0462,122.0011 L514.0462,112.8886 L519.7225,112.8886 L519.7225,114.4755 L515.8468,114.4755 L515.8468,116.4408 L519.3563,116.4408 L519.3563,118.0278 L515.8468,118.0278 L515.8468,120.4142 L519.7225,120.4142 Z " fill="#000000"/><text fill="#D8BC00" font-family="Open Sans,Avenir,Nunito,Arial,Helvetica,SansSerif" font-size="12.5" font-weight="bold" lengthAdjust="spacing" textLength="90.625" x="533.3333" y="122.0378">Capitalization</text><line style="stroke:#5E5E5E;stroke-width:1.0416666666666667;" x1="503.125" x2="629.1667" y1="133.0078" y2="133.0078"/><text fill="#D8BC00" font-family="Open Sans,Avenir,Nunito,Arial,Helvetica,SansSerif" font-size="11.4583" lengthAdjust="spacing" textLength="72.9167" x="511.4583" y="151.3774">CAPITALIZED</text><text fill="#D8BC00" font-family="Open Sans,Avenir,Nunito,Arial,Helvetica,SansSerif" font-size="11.4583" lengthAdjust="spacing" textLength="67.7083" x="511.4583" y="171.1222">LOWERCASE</text><text fill="#D8BC00" font-family="Open Sans,Avenir,Nunito,Arial,Helvetica,SansSerif" font-size="11.4583" lengthAdjust="spacing" textLength="63.5417" x="511.4583" y="190.8671">UPPERCASE</text><line style="stroke:#5E5E5E;stroke-width:1.0416666666666667;" x1="503.125" x2="629.1667" y1="200.5758" y2="200.5758"/><rect codeLine="7" fill="#282828" height="48.055" id="BaseRoadNameParser" rx="8.3333" ry="8.3333" style="stroke:#5E5E5E;stroke-width:1.0416666666666667;" width="176.0417" x="28.125" y="131.307"/><rect fill="#1B1B1A" height="31.3883" rx="8.3333" ry="8.3333" style="stroke:#1B1B1A;stroke-width:1.0416666666666667;" width="176.0417" x="28.125" y="131.307"/><rect fill="#1B1B1A" height="8.3333" style="stroke:#1B1B1A;stroke-width:1.0416666666666667;" width="176.0417" x="28.125" y="154.362"/><rect codeLine="7" fill="none" height="48.055" id="BaseRoadNameParser" rx="8.3333" ry="8.3333" style="stroke:#5E5E5E;stroke-width:1.0416666666666667;" width="176.0417" x="28.125" y="131.307"/><ellipse cx="42.7083" cy="147.0011" fill="#C8AC00" rx="10.4167" ry="10.4167" style="stroke:#D8BC00;stroke-width:1.0416666666666667;"/><path d="M42.3014,143.7032 L41.453,147.4325 L43.1559,147.4325 Z M41.2028,142.0553 L43.4062,142.0553 L45.8659,151.1678 L44.0653,151.1678 L43.5038,148.9156 L41.0929,148.9156 L40.5436,151.1678 L38.7431,151.1678 Z " fill="#000000"/><text fill="#D8BC00" font-family="Open Sans,Avenir,Nunito,Arial,Helvetica,SansSerif" font-size="12.5" font-style="italic" font-weight="bold" lengthAdjust="spacing" textLength="138.5417" x="59.375" y="151.7253">BaseRoadNameParser</text><line style="stroke:#5E5E5E;stroke-width:1.0416666666666667;" x1="29.1667" x2="203.125" y1="162.6953" y2="162.6953"/><line style="stroke:#5E5E5E;stroke-width:1.0416666666666667;" x1="29.1667" x2="203.125" y1="171.0286" y2="171.0286"/><rect codeLine="17" fill="#282828" height="48.055" id="IndonesianRoadNameParser" rx="8.3333" ry="8.3333" style="stroke:#5E5E5E;stroke-width:1.0416666666666667;" width="217.7083" x="7.2917" y="368.2861"/><rect fill="#1B1B1A" height="31.3883" rx="8.3333" ry="8.3333" style="stroke:#1B1B1A;stroke-width:1.0416666666666667;" width="217.7083" x="7.2917" y="368.2861"/><rect fill="#1B1B1A" height="8.3333" style="stroke:#1B1B1A;stroke-width:1.0416666666666667;" width="217.7083" x="7.2917" y="391.3411"/><rect codeLine="17" fill="none" height="48.055" id="IndonesianRoadNameParser" rx="8.3333" ry="8.3333" style="stroke:#5E5E5E;stroke-width:1.0416666666666667;" width="217.7083" x="7.2917" y="368.2861"/><ellipse cx="21.875" cy="383.9803" fill="#0066CF" rx="10.4167" ry="10.4167" style="stroke:#0086EF;stroke-width:1.0416666666666667;"/><path d="M23.7854,388.4054 Q23.3582,388.6251 22.8882,388.7349 Q22.4182,388.8448 21.8994,388.8448 Q20.0562,388.8448 19.0857,387.6302 Q18.1152,386.4156 18.1152,384.1207 Q18.1152,381.8197 19.0857,380.6051 Q20.0562,379.3905 21.8994,379.3905 Q22.4182,379.3905 22.8943,379.5003 Q23.3704,379.6102 23.7854,379.8299 L23.7854,381.8319 Q23.3215,381.4046 22.8851,381.2063 Q22.4487,381.0079 21.9849,381.0079 Q20.9961,381.0079 20.4926,381.7922 Q19.989,382.5765 19.989,384.1207 Q19.989,385.6588 20.4926,386.4431 Q20.9961,387.2274 21.9849,387.2274 Q22.4487,387.2274 22.8851,387.029 Q23.3215,386.8306 23.7854,386.4034 Z " fill="#000000"/><text fill="#D8BC00" font-family="Open Sans,Avenir,Nunito,Arial,Helvetica,SansSerif" font-size="12.5" font-weight="bold" lengthAdjust="spacing" textLength="180.2083" x="38.5417" y="388.7044">IndonesianRoadNameParser</text><line style="stroke:#5E5E5E;stroke-width:1.0416666666666667;" x1="8.3333" x2="223.9583" y1="399.6745" y2="399.6745"/><line style="stroke:#5E5E5E;stroke-width:1.0416666666666667;" x1="8.3333" x2="223.9583" y1="408.0078" y2="408.0078"/><rect fill="#282828" height="48.055" id="Tokenizer" rx="8.3333" ry="8.3333" style="stroke:#5E5E5E;stroke-width:1.0416666666666667;" width="102.0833" x="325.5208" y="131.307"/><rect fill="#1B1B1A" height="31.3883" rx="8.3333" ry="8.3333" style="stroke:#1B1B1A;stroke-width:1.0416666666666667;" width="102.0833" x="325.5208" y="131.307"/><rect fill="#1B1B1A" height="8.3333" style="stroke:#1B1B1A;stroke-width:1.0416666666666667;" width="102.0833" x="325.5208" y="154.362"/><rect fill="none" height="48.055" id="Tokenizer" rx="8.3333" ry="8.3333" style="stroke:#5E5E5E;stroke-width:1.0416666666666667;" width="102.0833" x="325.5208" y="131.307"/><ellipse cx="340.1042" cy="147.0011" fill="#0066CF" rx="10.4167" ry="10.4167" style="stroke:#0086EF;stroke-width:1.0416666666666667;"/><path d="M342.0146,151.4262 Q341.5873,151.6459 341.1174,151.7558 Q340.6474,151.8656 340.1286,151.8656 Q338.2853,151.8656 337.3149,150.651 Q336.3444,149.4364 336.3444,147.1415 Q336.3444,144.8405 337.3149,143.6259 Q338.2853,142.4113 340.1286,142.4113 Q340.6474,142.4113 341.1235,142.5212 Q341.5995,142.631 342.0146,142.8507 L342.0146,144.8527 Q341.5507,144.4255 341.1143,144.2271 Q340.6779,144.0287 340.214,144.0287 Q339.2253,144.0287 338.7217,144.813 Q338.2182,145.5973 338.2182,147.1415 Q338.2182,148.6796 338.7217,149.4639 Q339.2253,150.2482 340.214,150.2482 Q340.6779,150.2482 341.1143,150.0498 Q341.5507,149.8515 342.0146,149.4242 Z " fill="#000000"/><text fill="#D8BC00" font-family="Open Sans,Avenir,Nunito,Arial,Helvetica,SansSerif" font-size="12.5" font-weight="bold" lengthAdjust="spacing" textLength="64.5833" x="356.7708" y="151.7253">Tokenizer</text><line style="stroke:#5E5E5E;stroke-width:1.0416666666666667;" x1="326.5625" x2="426.5625" y1="162.6953" y2="162.6953"/><line style="stroke:#5E5E5E;stroke-width:1.0416666666666667;" x1="326.5625" x2="426.5625" y1="171.0286" y2="171.0286"/><rect codeLine="22" fill="#282828" height="241.3371" id="IndonesianTokenizer" rx="8.3333" ry="8.3333" style="stroke:#5E5E5E;stroke-width:1.0416666666666667;" width="230.2083" x="261.4583" y="271.4111"/><rect fill="#1B1B1A" height="31.3883" rx="8.3333" ry="8.3333" style="stroke:#1B1B1A;stroke-width:1.0416666666666667;" width="230.2083" x="261.4583" y="271.4111"/><rect fill="#1B1B1A" height="8.3333" style="stroke:#1B1B1A;stroke-width:1.0416666666666667;" width="230.2083" x="261.4583" y="294.4661"/><rect codeLine="22" fill="none" height="241.3371" id="IndonesianTokenizer" rx="8.3333" ry="8.3333" style="stroke:#5E5E5E;stroke-width:1.0416666666666667;" width="230.2083" x="261.4583" y="271.4111"/><ellipse cx="301.3542" cy="287.1053" fill="#0066CF" rx="10.4167" ry="10.4167" style="stroke:#0086EF;stroke-width:1.0416666666666667;"/><path d="M303.2646,291.5304 Q302.8373,291.7501 302.3674,291.8599 Q301.8974,291.9698 301.3786,291.9698 Q299.5353,291.9698 298.5649,290.7552 Q297.5944,289.5406 297.5944,287.2457 Q297.5944,284.9447 298.5649,283.7301 Q299.5353,282.5155 301.3786,282.5155 Q301.8974,282.5155 302.3735,282.6253 Q302.8495,282.7352 303.2646,282.9549 L303.2646,284.9569 Q302.8007,284.5296 302.3643,284.3313 Q301.9279,284.1329 301.464,284.1329 Q300.4753,284.1329 299.9717,284.9172 Q299.4682,285.7015 299.4682,287.2457 Q299.4682,288.7838 299.9717,289.5681 Q300.4753,290.3524 301.464,290.3524 Q301.9279,290.3524 302.3643,290.154 Q302.8007,289.9556 303.2646,289.5284 Z " fill="#000000"/><text fill="#D8BC00" font-family="Open Sans,Avenir,Nunito,Arial,Helvetica,SansSerif" font-size="12.5" font-weight="bold" lengthAdjust="spacing" textLength="136.4583" x="323.6458" y="291.8294">IndonesianTokenizer</text><line style="stroke:#5E5E5E;stroke-width:1.5625;" x1="262.5" x2="490.625" y1="302.7995" y2="302.7995"/><ellipse cx="272.9167" cy="338.1694" fill="#84BE84" rx="3.125" ry="3.125" style="stroke:#038048;stroke-width:1.0416666666666667;"/><text fill="#D8BC00" font-family="Open Sans,Avenir,Nunito,Arial,Helvetica,SansSerif" font-size="11.4583" lengthAdjust="spacing" textLength="197.9167" x="284.375" y="345.0806">boolean isCardinalDirection(Token)</text><ellipse cx="272.9167" cy="357.9142" fill="#84BE84" rx="3.125" ry="3.125" style="stroke:#038048;stroke-width:1.0416666666666667;"/><text fill="#D8BC00" font-family="Open Sans,Avenir,Nunito,Arial,Helvetica,SansSerif" font-size="11.4583" lengthAdjust="spacing" textLength="195.8333" x="284.375" y="364.8254">boolean isCloseParenthesis(Token)</text><ellipse cx="272.9167" cy="377.6591" fill="#84BE84" rx="3.125" ry="3.125" style="stroke:#038048;stroke-width:1.0416666666666667;"/><text fill="#D8BC00" font-family="Open Sans,Avenir,Nunito,Arial,Helvetica,SansSerif" font-size="11.4583" lengthAdjust="spacing" textLength="126.0417" x="284.375" y="384.5703">boolean isDigit(Token)</text><ellipse cx="272.9167" cy="397.404" fill="#84BE84" rx="3.125" ry="3.125" style="stroke:#038048;stroke-width:1.0416666666666667;"/><text fill="#D8BC00" font-family="Open Sans,Avenir,Nunito,Arial,Helvetica,SansSerif" font-size="11.4583" lengthAdjust="spacing" textLength="137.5" x="284.375" y="404.3152">boolean isOctant(Token)</text><ellipse cx="272.9167" cy="417.1488" fill="#84BE84" rx="3.125" ry="3.125" style="stroke:#038048;stroke-width:1.0416666666666667;"/><text fill="#D8BC00" font-family="Open Sans,Avenir,Nunito,Arial,Helvetica,SansSerif" font-size="11.4583" lengthAdjust="spacing" textLength="194.7917" x="284.375" y="424.0601">boolean isOpenParenthesis(Token)</text><ellipse cx="272.9167" cy="436.8937" fill="#84BE84" rx="3.125" ry="3.125" style="stroke:#038048;stroke-width:1.0416666666666667;"/><text fill="#D8BC00" font-family="Open Sans,Avenir,Nunito,Arial,Helvetica,SansSerif" font-size="11.4583" lengthAdjust="spacing" textLength="168.75" x="284.375" y="443.8049">boolean isProperName(Token)</text><ellipse cx="272.9167" cy="456.6386" fill="#84BE84" rx="3.125" ry="3.125" style="stroke:#038048;stroke-width:1.0416666666666667;"/><text fill="#D8BC00" font-family="Open Sans,Avenir,Nunito,Arial,Helvetica,SansSerif" font-size="11.4583" lengthAdjust="spacing" textLength="153.125" x="284.375" y="463.5498">boolean isQuadrant(Token)</text><ellipse cx="272.9167" cy="476.3835" fill="#84BE84" rx="3.125" ry="3.125" style="stroke:#038048;stroke-width:1.0416666666666667;"/><text fill="#D8BC00" font-family="Open Sans,Avenir,Nunito,Arial,Helvetica,SansSerif" font-size="11.4583" lengthAdjust="spacing" textLength="155.2083" x="284.375" y="483.2947">boolean isRoadType(Token)</text><ellipse cx="272.9167" cy="496.1283" fill="#84BE84" rx="3.125" ry="3.125" style="stroke:#038048;stroke-width:1.0416666666666667;"/><text fill="#D8BC00" font-family="Open Sans,Avenir,Nunito,Arial,Helvetica,SansSerif" font-size="11.4583" lengthAdjust="spacing" textLength="185.4167" x="284.375" y="503.0396">boolean isRomanNumeral(Token)</text><line style="stroke:#5E5E5E;stroke-width:1.0416666666666667;" x1="262.5" x2="350" y1="321.0052" y2="321.0052"/><text fill="#D8BC00" font-family="Open Sans,Avenir,Nunito,Arial,Helvetica,SansSerif" font-size="11.4583" lengthAdjust="spacing" textLength="46.875" x="353.125" y="324.8149">(checks)</text><line style="stroke:#5E5E5E;stroke-width:1.0416666666666667;" x1="403.125" x2="490.625" y1="321.0052" y2="321.0052"/><path codeLine="16" d="M116.1458,200.0986 C116.1458,249.8695 116.1458,329.2445 116.1458,368.1611 " fill="none" id="BaseRoadNameParser-backto-IndonesianRoadNameParser" style="stroke:#545454;stroke-width:1.5625;"/><polygon fill="none" points="108.8542,200.0882,116.1458,179.2549,123.4375,200.0882,108.8542,200.0882" style="stroke:#545454;stroke-width:1.5625;"/><path codeLine="21" d="M376.5625,200.2132 C376.5625,220.5361 376.5625,245.7861 376.5625,271.182 " fill="none" id="Tokenizer-backto-IndonesianTokenizer" style="stroke:#545454;stroke-width:1.5625;"/><polygon fill="none" points="369.2708,200.0882,376.5625,179.2549,383.8542,200.0882,369.2708,200.0882" style="stroke:#545454;stroke-width:1.5625;"/></g></svg>
