<?xml version="1.0" encoding="UTF-8" standalone="no"?><svg xmlns="http://www.w3.org/2000/svg" xmlns:xlink="http://www.w3.org/1999/xlink" contentScriptType="application/ecmascript" contentStyleType="text/css" height="218.75px" preserveAspectRatio="none" style="width:584px;height:218px;background:#333333;" version="1.1" viewBox="0 0 584 218" width="584.375px" zoomAndPan="magnify"><defs/><g><rect fill="#48494B" height="41.2028" rx="8.3333" ry="8.3333" style="stroke:#545454;stroke-width:1.0416666666666667;" width="510.4167" x="29.6875" y="2.0833"/><text fill="#C0C0C0" font-family="Open Sans,Avenir,Nunito,Arial,Helvetica,SansSerif" font-size="20.8333" lengthAdjust="spacing" textLength="487.5" x="41.1458" y="30.5583">com.telenav.mesakit.map.measurements.lexakai</text><rect codeLine="7" fill="#282828" height="48.055" id="UmlDiagramIdentifier" rx="8.3333" ry="8.3333" style="stroke:#5E5E5E;stroke-width:1.0416666666666667;" width="178.125" x="209.375" y="53.7028"/><rect fill="#1B1B1A" height="31.3883" rx="8.3333" ry="8.3333" style="stroke:#1B1B1A;stroke-width:1.0416666666666667;" width="178.125" x="209.375" y="53.7028"/><rect fill="#1B1B1A" height="8.3333" style="stroke:#1B1B1A;stroke-width:1.0416666666666667;" width="178.125" x="209.375" y="76.7578"/><rect codeLine="7" fill="none" height="48.055" id="UmlDiagramIdentifier" rx="8.3333" ry="8.3333" style="stroke:#5E5E5E;stroke-width:1.0416666666666667;" width="178.125" x="209.375" y="53.7028"/><ellipse cx="223.9583" cy="69.397" fill="#008400" rx="10.4167" ry="10.4167" style="stroke:#239C23;stroke-width:1.0416666666666667;"/><path d="M221.3623,66.5588 L221.3623,64.9719 L226.7883,64.9719 L226.7883,66.5588 L224.9756,66.5588 L224.9756,72.4976 L226.7883,72.4976 L226.7883,74.0845 L221.3623,74.0845 L221.3623,72.4976 L223.175,72.4976 L223.175,66.5588 Z " fill="#000000"/><text fill="#D8BC00" font-family="Open Sans,Avenir,Nunito,Arial,Helvetica,SansSerif" font-size="12.5" font-style="italic" font-weight="bold" lengthAdjust="spacing" textLength="140.625" x="240.625" y="74.1211">UmlDiagramIdentifier</text><line style="stroke:#5E5E5E;stroke-width:1.0416666666666667;" x1="210.4167" x2="386.4583" y1="85.0911" y2="85.0911"/><line style="stroke:#5E5E5E;stroke-width:1.0416666666666667;" x1="210.4167" x2="386.4583" y1="93.4245" y2="93.4245"/><rect codeLine="10" fill="#282828" height="48.055" id="DiagramMapMeasurementGeographic" rx="8.3333" ry="8.3333" style="stroke:#5E5E5E;stroke-width:1.0416666666666667;" width="280.2083" x="7.2917" y="164.1195"/><rect fill="#1B1B1A" height="31.3883" rx="8.3333" ry="8.3333" style="stroke:#1B1B1A;stroke-width:1.0416666666666667;" width="280.2083" x="7.2917" y="164.1195"/><rect fill="#1B1B1A" height="8.3333" style="stroke:#1B1B1A;stroke-width:1.0416666666666667;" width="280.2083" x="7.2917" y="187.1745"/><rect codeLine="10" fill="none" height="48.055" id="DiagramMapMeasurementGeographic" rx="8.3333" ry="8.3333" style="stroke:#5E5E5E;stroke-width:1.0416666666666667;" width="280.2083" x="7.2917" y="164.1195"/><ellipse cx="21.875" cy="179.8136" fill="#0066CF" rx="10.4167" ry="10.4167" style="stroke:#0086EF;stroke-width:1.0416666666666667;"/><path d="M23.7854,184.2387 Q23.3582,184.4584 22.8882,184.5683 Q22.4182,184.6781 21.8994,184.6781 Q20.0562,184.6781 19.0857,183.4635 Q18.1152,182.2489 18.1152,179.954 Q18.1152,177.653 19.0857,176.4384 Q20.0562,175.2238 21.8994,175.2238 Q22.4182,175.2238 22.8943,175.3337 Q23.3704,175.4435 23.7854,175.6632 L23.7854,177.6652 Q23.3215,177.238 22.8851,177.0396 Q22.4487,176.8412 21.9849,176.8412 Q20.9961,176.8412 20.4926,177.6255 Q19.989,178.4098 19.989,179.954 Q19.989,181.4921 20.4926,182.2764 Q20.9961,183.0607 21.9849,183.0607 Q22.4487,183.0607 22.8851,182.8623 Q23.3215,182.664 23.7854,182.2367 Z " fill="#000000"/><text fill="#D8BC00" font-family="Open Sans,Avenir,Nunito,Arial,Helvetica,SansSerif" font-size="12.5" font-weight="bold" lengthAdjust="spacing" textLength="242.7083" x="38.5417" y="184.5378">DiagramMapMeasurementGeographic</text><line style="stroke:#5E5E5E;stroke-width:1.0416666666666667;" x1="8.3333" x2="286.4583" y1="195.5078" y2="195.5078"/><line style="stroke:#5E5E5E;stroke-width:1.0416666666666667;" x1="8.3333" x2="286.4583" y1="203.8411" y2="203.8411"/><rect codeLine="15" fill="#282828" height="48.055" id="DiagramMapMeasurementMotion" rx="8.3333" ry="8.3333" style="stroke:#5E5E5E;stroke-width:1.0416666666666667;" width="253.125" x="323.9583" y="164.1195"/><rect fill="#1B1B1A" height="31.3883" rx="8.3333" ry="8.3333" style="stroke:#1B1B1A;stroke-width:1.0416666666666667;" width="253.125" x="323.9583" y="164.1195"/><rect fill="#1B1B1A" height="8.3333" style="stroke:#1B1B1A;stroke-width:1.0416666666666667;" width="253.125" x="323.9583" y="187.1745"/><rect codeLine="15" fill="none" height="48.055" id="DiagramMapMeasurementMotion" rx="8.3333" ry="8.3333" style="stroke:#5E5E5E;stroke-width:1.0416666666666667;" width="253.125" x="323.9583" y="164.1195"/><ellipse cx="338.5417" cy="179.8136" fill="#0066CF" rx="10.4167" ry="10.4167" style="stroke:#0086EF;stroke-width:1.0416666666666667;"/><path d="M340.4521,184.2387 Q340.0248,184.4584 339.5549,184.5683 Q339.0849,184.6781 338.5661,184.6781 Q336.7228,184.6781 335.7524,183.4635 Q334.7819,182.2489 334.7819,179.954 Q334.7819,177.653 335.7524,176.4384 Q336.7228,175.2238 338.5661,175.2238 Q339.0849,175.2238 339.561,175.3337 Q340.037,175.4435 340.4521,175.6632 L340.4521,177.6652 Q339.9882,177.238 339.5518,177.0396 Q339.1154,176.8412 338.6515,176.8412 Q337.6628,176.8412 337.1592,177.6255 Q336.6557,178.4098 336.6557,179.954 Q336.6557,181.4921 337.1592,182.2764 Q337.6628,183.0607 338.6515,183.0607 Q339.1154,183.0607 339.5518,182.8623 Q339.9882,182.664 340.4521,182.2367 Z " fill="#000000"/><text fill="#D8BC00" font-family="Open Sans,Avenir,Nunito,Arial,Helvetica,SansSerif" font-size="12.5" font-weight="bold" lengthAdjust="spacing" textLength="215.625" x="355.2083" y="184.5378">DiagramMapMeasurementMotion</text><line style="stroke:#5E5E5E;stroke-width:1.0416666666666667;" x1="325" x2="576.0417" y1="195.5078" y2="195.5078"/><line style="stroke:#5E5E5E;stroke-width:1.0416666666666667;" x1="325" x2="576.0417" y1="203.8411" y2="203.8411"/><path codeLine="9" d="M249.3646,113.9007 C226.3958,130.3695 199.6979,149.5257 179.3854,164.0986 " fill="none" id="UmlDiagramIdentifier-backto-DiagramMapMeasurementGeographic" style="stroke:#545454;stroke-width:1.5625;"/><polygon fill="none" points="245.2292,107.8903,266.4063,101.682,253.7292,119.7445,245.2292,107.8903" style="stroke:#545454;stroke-width:1.5625;"/><path codeLine="14" d="M347.8542,113.9007 C370.9792,130.3695 397.8542,149.5257 418.3125,164.0986 " fill="none" id="UmlDiagramIdentifier-backto-DiagramMapMeasurementMotion" style="stroke:#545454;stroke-width:1.5625;"/><polygon fill="none" points="343.4271,119.7028,330.6875,101.682,351.8854,107.8278,343.4271,119.7028" style="stroke:#545454;stroke-width:1.5625;"/></g></svg>
