<?xml version="1.0" encoding="UTF-8" standalone="no"?><svg xmlns="http://www.w3.org/2000/svg" xmlns:xlink="http://www.w3.org/1999/xlink" contentScriptType="application/ecmascript" contentStyleType="text/css" height="533.3333px" preserveAspectRatio="none" style="width:2157px;height:533px;background:#333333;" version="1.1" viewBox="0 0 2157 533" width="2157.2917px" zoomAndPan="magnify"><defs/><g><rect fill="#48494B" height="41.2028" rx="8.3333" ry="8.3333" style="stroke:#545454;stroke-width:1.0416666666666667;" width="318.75" x="912.2396" y="2.0833"/><text fill="#C0C0C0" font-family="Open Sans,Avenir,Nunito,Arial,Helvetica,SansSerif" font-size="20.8333" lengthAdjust="spacing" textLength="295.8333" x="923.6979" y="30.5583">mesakit-map-measurements</text><rect fill="#1B1B1A" height="44.93" rx="8.3333" ry="8.3333" style="stroke:#5E5E5E;stroke-width:1.5625;" width="63.5417" x="858.8542" y="268.2861"/><polygon fill="#1B1B1A" points="904.6875,273.4945,904.6875,288.0778,917.1875,288.0778,917.1875,279.7445,910.9375,273.4945,904.6875,273.4945" style="stroke:#5E5E5E;stroke-width:1.5625;"/><line style="stroke:#5E5E5E;stroke-width:1.5625;" x1="910.9375" x2="910.9375" y1="273.4945" y2="279.7445"/><line style="stroke:#5E5E5E;stroke-width:1.5625;" x1="917.1875" x2="910.9375" y1="279.7445" y2="279.7445"/><text fill="#D8BC00" font-family="Open Sans,Avenir,Nunito,Arial,Helvetica,SansSerif" font-size="12.5" lengthAdjust="spacing" textLength="26.0417" x="872.3958" y="297.0378">kryo</text><rect fill="#1B1B1A" height="44.93" rx="8.3333" ry="8.3333" style="stroke:#5E5E5E;stroke-width:1.5625;" width="77.0833" x="727.0833" y="375.5778"/><polygon fill="#1B1B1A" points="786.4583,380.7861,786.4583,395.3695,798.9583,395.3695,798.9583,387.0361,792.7083,380.7861,786.4583,380.7861" style="stroke:#5E5E5E;stroke-width:1.5625;"/><line style="stroke:#5E5E5E;stroke-width:1.5625;" x1="792.7083" x2="792.7083" y1="380.7861" y2="387.0361"/><line style="stroke:#5E5E5E;stroke-width:1.5625;" x1="798.9583" x2="792.7083" y1="387.0361" y2="387.0361"/><text fill="#D8BC00" font-family="Open Sans,Avenir,Nunito,Arial,Helvetica,SansSerif" font-size="12.5" lengthAdjust="spacing" textLength="39.5833" x="740.625" y="404.3294">minlog</text><rect fill="#1B1B1A" height="44.93" rx="8.3333" ry="8.3333" style="stroke:#5E5E5E;stroke-width:1.5625;" width="100" x="840.625" y="375.5778"/><polygon fill="#1B1B1A" points="922.9167,380.7861,922.9167,395.3695,935.4167,395.3695,935.4167,387.0361,929.1667,380.7861,922.9167,380.7861" style="stroke:#5E5E5E;stroke-width:1.5625;"/><line style="stroke:#5E5E5E;stroke-width:1.5625;" x1="929.1667" x2="929.1667" y1="380.7861" y2="387.0361"/><line style="stroke:#5E5E5E;stroke-width:1.5625;" x1="935.4167" x2="929.1667" y1="387.0361" y2="387.0361"/><text fill="#D8BC00" font-family="Open Sans,Avenir,Nunito,Arial,Helvetica,SansSerif" font-size="12.5" lengthAdjust="spacing" textLength="62.5" x="854.1667" y="404.3294">reflectasm</text><rect fill="#1B1B1A" height="44.93" rx="8.3333" ry="8.3333" style="stroke:#5E5E5E;stroke-width:1.5625;" width="138.5417" x="178.6458" y="375.5778"/><polygon fill="#1B1B1A" points="299.4792,380.7861,299.4792,395.3695,311.9792,395.3695,311.9792,387.0361,305.7292,380.7861,299.4792,380.7861" style="stroke:#5E5E5E;stroke-width:1.5625;"/><line style="stroke:#5E5E5E;stroke-width:1.5625;" x1="305.7292" x2="305.7292" y1="380.7861" y2="387.0361"/><line style="stroke:#5E5E5E;stroke-width:1.5625;" x1="311.9792" x2="305.7292" y1="387.0361" y2="387.0361"/><text fill="#D8BC00" font-family="Open Sans,Avenir,Nunito,Arial,Helvetica,SansSerif" font-size="12.5" lengthAdjust="spacing" textLength="101.0417" x="192.1875" y="404.3294">cactus_metadata</text><rect fill="#1B1B1A" height="44.93" rx="8.3333" ry="8.3333" style="stroke:#5E5E5E;stroke-width:1.5625;" width="143.75" x="7.2917" y="268.2861"/><polygon fill="#1B1B1A" points="133.3333,273.4945,133.3333,288.0778,145.8333,288.0778,145.8333,279.7445,139.5833,273.4945,133.3333,273.4945" style="stroke:#5E5E5E;stroke-width:1.5625;"/><line style="stroke:#5E5E5E;stroke-width:1.5625;" x1="139.5833" x2="139.5833" y1="273.4945" y2="279.7445"/><line style="stroke:#5E5E5E;stroke-width:1.5625;" x1="145.8333" x2="139.5833" y1="279.7445" y2="279.7445"/><text fill="#D8BC00" font-family="Open Sans,Avenir,Nunito,Arial,Helvetica,SansSerif" font-size="12.5" lengthAdjust="spacing" textLength="106.25" x="20.8333" y="297.0378">kivakit_collections</text><rect fill="#1B1B1A" height="44.93" rx="8.3333" ry="8.3333" style="stroke:#5E5E5E;stroke-width:1.5625;" width="162.5" x="342.7083" y="160.9945"/><polygon fill="#1B1B1A" points="487.5,166.2028,487.5,180.7861,500,180.7861,500,172.4528,493.75,166.2028,487.5,166.2028" style="stroke:#5E5E5E;stroke-width:1.5625;"/><line style="stroke:#5E5E5E;stroke-width:1.5625;" x1="493.75" x2="493.75" y1="166.2028" y2="172.4528"/><line style="stroke:#5E5E5E;stroke-width:1.5625;" x1="500" x2="493.75" y1="172.4528" y2="172.4528"/><text fill="#D8BC00" font-family="Open Sans,Avenir,Nunito,Arial,Helvetica,SansSerif" font-size="12.5" lengthAdjust="spacing" textLength="125" x="356.25" y="189.7461">kivakit_commandline</text><rect fill="#1B1B1A" height="44.93" rx="8.3333" ry="8.3333" style="stroke:#5E5E5E;stroke-width:1.5625;" width="145.8333" x="187.5" y="268.2861"/><polygon fill="#1B1B1A" points="315.625,273.4945,315.625,288.0778,328.125,288.0778,328.125,279.7445,321.875,273.4945,315.625,273.4945" style="stroke:#5E5E5E;stroke-width:1.5625;"/><line style="stroke:#5E5E5E;stroke-width:1.5625;" x1="321.875" x2="321.875" y1="273.4945" y2="279.7445"/><line style="stroke:#5E5E5E;stroke-width:1.5625;" x1="328.125" x2="321.875" y1="279.7445" y2="279.7445"/><text fill="#D8BC00" font-family="Open Sans,Avenir,Nunito,Arial,Helvetica,SansSerif" font-size="12.5" lengthAdjust="spacing" textLength="108.3333" x="201.0417" y="297.0378">kivakit_conversion</text><rect fill="#1B1B1A" height="44.93" rx="8.3333" ry="8.3333" style="stroke:#5E5E5E;stroke-width:1.5625;" width="108.3333" x="369.7917" y="268.2861"/><polygon fill="#1B1B1A" points="460.4167,273.4945,460.4167,288.0778,472.9167,288.0778,472.9167,279.7445,466.6667,273.4945,460.4167,273.4945" style="stroke:#5E5E5E;stroke-width:1.5625;"/><line style="stroke:#5E5E5E;stroke-width:1.5625;" x1="466.6667" x2="466.6667" y1="273.4945" y2="279.7445"/><line style="stroke:#5E5E5E;stroke-width:1.5625;" x1="472.9167" x2="466.6667" y1="279.7445" y2="279.7445"/><text fill="#D8BC00" font-family="Open Sans,Avenir,Nunito,Arial,Helvetica,SansSerif" font-size="12.5" lengthAdjust="spacing" textLength="70.8333" x="383.3333" y="297.0378">kivakit_core</text><rect fill="#1B1B1A" height="44.93" rx="8.3333" ry="8.3333" style="stroke:#5E5E5E;stroke-width:1.5625;" width="140.625" x="353.6458" y="375.5778"/><polygon fill="#1B1B1A" points="476.5625,380.7861,476.5625,395.3695,489.0625,395.3695,489.0625,387.0361,482.8125,380.7861,476.5625,380.7861" style="stroke:#5E5E5E;stroke-width:1.5625;"/><line style="stroke:#5E5E5E;stroke-width:1.5625;" x1="482.8125" x2="482.8125" y1="380.7861" y2="387.0361"/><line style="stroke:#5E5E5E;stroke-width:1.5625;" x1="489.0625" x2="482.8125" y1="387.0361" y2="387.0361"/><text fill="#D8BC00" font-family="Open Sans,Avenir,Nunito,Arial,Helvetica,SansSerif" font-size="12.5" lengthAdjust="spacing" textLength="103.125" x="367.1875" y="404.3294">kivakit_interfaces</text><rect fill="#1B1B1A" height="44.93" rx="8.3333" ry="8.3333" style="stroke:#5E5E5E;stroke-width:1.5625;" width="172.9167" x="1780.2083" y="268.2861"/><polygon fill="#1B1B1A" points="1935.4167,273.4945,1935.4167,288.0778,1947.9167,288.0778,1947.9167,279.7445,1941.6667,273.4945,1935.4167,273.4945" style="stroke:#5E5E5E;stroke-width:1.5625;"/><line style="stroke:#5E5E5E;stroke-width:1.5625;" x1="1941.6667" x2="1941.6667" y1="273.4945" y2="279.7445"/><line style="stroke:#5E5E5E;stroke-width:1.5625;" x1="1947.9167" x2="1941.6667" y1="279.7445" y2="279.7445"/><text fill="#D8BC00" font-family="Open Sans,Avenir,Nunito,Arial,Helvetica,SansSerif" font-size="12.5" lengthAdjust="spacing" textLength="135.4167" x="1793.75" y="297.0378">kivakit_internal_testing</text><rect fill="#1B1B1A" height="44.93" rx="8.3333" ry="8.3333" style="stroke:#5E5E5E;stroke-width:1.5625;" width="112.5" x="701.0417" y="160.9945"/><polygon fill="#1B1B1A" points="795.8333,166.2028,795.8333,180.7861,808.3333,180.7861,808.3333,172.4528,802.0833,166.2028,795.8333,166.2028" style="stroke:#5E5E5E;stroke-width:1.5625;"/><line style="stroke:#5E5E5E;stroke-width:1.5625;" x1="802.0833" x2="802.0833" y1="166.2028" y2="172.4528"/><line style="stroke:#5E5E5E;stroke-width:1.5625;" x1="808.3333" x2="802.0833" y1="172.4528" y2="172.4528"/><text fill="#D8BC00" font-family="Open Sans,Avenir,Nunito,Arial,Helvetica,SansSerif" font-size="12.5" lengthAdjust="spacing" textLength="75" x="714.5833" y="189.7461">kivakit_math</text><rect fill="#1B1B1A" height="44.93" rx="8.3333" ry="8.3333" style="stroke:#5E5E5E;stroke-width:1.5625;" width="120.8333" x="531.25" y="375.5778"/><polygon fill="#1B1B1A" points="634.375,380.7861,634.375,395.3695,646.875,395.3695,646.875,387.0361,640.625,380.7861,634.375,380.7861" style="stroke:#5E5E5E;stroke-width:1.5625;"/><line style="stroke:#5E5E5E;stroke-width:1.5625;" x1="640.625" x2="640.625" y1="380.7861" y2="387.0361"/><line style="stroke:#5E5E5E;stroke-width:1.5625;" x1="646.875" x2="640.625" y1="387.0361" y2="387.0361"/><text fill="#D8BC00" font-family="Open Sans,Avenir,Nunito,Arial,Helvetica,SansSerif" font-size="12.5" lengthAdjust="spacing" textLength="83.3333" x="544.7917" y="404.3294">kivakit_mixins</text><rect fill="#1B1B1A" height="44.93" rx="8.3333" ry="8.3333" style="stroke:#5E5E5E;stroke-width:1.5625;" width="134.375" x="958.8542" y="268.2861"/><polygon fill="#1B1B1A" points="1075.5208,273.4945,1075.5208,288.0778,1088.0208,288.0778,1088.0208,279.7445,1081.7708,273.4945,1075.5208,273.4945" style="stroke:#5E5E5E;stroke-width:1.5625;"/><line style="stroke:#5E5E5E;stroke-width:1.5625;" x1="1081.7708" x2="1081.7708" y1="273.4945" y2="279.7445"/><line style="stroke:#5E5E5E;stroke-width:1.5625;" x1="1088.0208" x2="1081.7708" y1="279.7445" y2="279.7445"/><text fill="#D8BC00" font-family="Open Sans,Avenir,Nunito,Arial,Helvetica,SansSerif" font-size="12.5" lengthAdjust="spacing" textLength="96.875" x="972.3958" y="297.0378">kivakit_resource</text><rect fill="#1B1B1A" height="44.93" rx="8.3333" ry="8.3333" style="stroke:#5E5E5E;stroke-width:1.5625;" width="186.4583" x="1129.6875" y="268.2861"/><polygon fill="#1B1B1A" points="1298.4375,273.4945,1298.4375,288.0778,1310.9375,288.0778,1310.9375,279.7445,1304.6875,273.4945,1298.4375,273.4945" style="stroke:#5E5E5E;stroke-width:1.5625;"/><line style="stroke:#5E5E5E;stroke-width:1.5625;" x1="1304.6875" x2="1304.6875" y1="273.4945" y2="279.7445"/><line style="stroke:#5E5E5E;stroke-width:1.5625;" x1="1310.9375" x2="1304.6875" y1="279.7445" y2="279.7445"/><text fill="#D8BC00" font-family="Open Sans,Avenir,Nunito,Arial,Helvetica,SansSerif" font-size="12.5" lengthAdjust="spacing" textLength="148.9583" x="1143.2292" y="297.0378">kivakit_serialization_core</text><rect fill="#1B1B1A" height="44.93" rx="8.3333" ry="8.3333" style="stroke:#5E5E5E;stroke-width:1.5625;" width="232.2917" x="852.6042" y="160.9945"/><polygon fill="#1B1B1A" points="1067.1875,166.2028,1067.1875,180.7861,1079.6875,180.7861,1079.6875,172.4528,1073.4375,166.2028,1067.1875,166.2028" style="stroke:#5E5E5E;stroke-width:1.5625;"/><line style="stroke:#5E5E5E;stroke-width:1.5625;" x1="1073.4375" x2="1073.4375" y1="166.2028" y2="172.4528"/><line style="stroke:#5E5E5E;stroke-width:1.5625;" x1="1079.6875" x2="1073.4375" y1="172.4528" y2="172.4528"/><text fill="#D8BC00" font-family="Open Sans,Avenir,Nunito,Arial,Helvetica,SansSerif" font-size="12.5" lengthAdjust="spacing" textLength="194.7917" x="866.1458" y="189.7461">kivakit_serialization_kryo_testing</text><rect fill="#1B1B1A" height="44.93" rx="8.3333" ry="8.3333" style="stroke:#5E5E5E;stroke-width:1.5625;" width="186.4583" x="1124.4792" y="160.9945"/><polygon fill="#1B1B1A" points="1293.2292,166.2028,1293.2292,180.7861,1305.7292,180.7861,1305.7292,172.4528,1299.4792,166.2028,1293.2292,166.2028" style="stroke:#5E5E5E;stroke-width:1.5625;"/><line style="stroke:#5E5E5E;stroke-width:1.5625;" x1="1299.4792" x2="1299.4792" y1="166.2028" y2="172.4528"/><line style="stroke:#5E5E5E;stroke-width:1.5625;" x1="1305.7292" x2="1299.4792" y1="172.4528" y2="172.4528"/><text fill="#D8BC00" font-family="Open Sans,Avenir,Nunito,Arial,Helvetica,SansSerif" font-size="12.5" lengthAdjust="spacing" textLength="148.9583" x="1138.0208" y="189.7461">kivakit_serialization_kryo</text><rect fill="#1B1B1A" height="44.93" rx="8.3333" ry="8.3333" style="stroke:#5E5E5E;stroke-width:1.5625;" width="222.9167" x="1353.125" y="268.2861"/><polygon fill="#1B1B1A" points="1558.3333,273.4945,1558.3333,288.0778,1570.8333,288.0778,1570.8333,279.7445,1564.5833,273.4945,1558.3333,273.4945" style="stroke:#5E5E5E;stroke-width:1.5625;"/><line style="stroke:#5E5E5E;stroke-width:1.5625;" x1="1564.5833" x2="1564.5833" y1="273.4945" y2="279.7445"/><line style="stroke:#5E5E5E;stroke-width:1.5625;" x1="1570.8333" x2="1564.5833" y1="279.7445" y2="279.7445"/><text fill="#D8BC00" font-family="Open Sans,Avenir,Nunito,Arial,Helvetica,SansSerif" font-size="12.5" lengthAdjust="spacing" textLength="185.4167" x="1366.6667" y="297.0378">kivakit_serialization_properties</text><rect fill="#1B1B1A" height="44.93" rx="8.3333" ry="8.3333" style="stroke:#5E5E5E;stroke-width:1.5625;" width="121.875" x="1805.7292" y="160.9945"/><polygon fill="#1B1B1A" points="1909.8958,166.2028,1909.8958,180.7861,1922.3958,180.7861,1922.3958,172.4528,1916.1458,166.2028,1909.8958,166.2028" style="stroke:#5E5E5E;stroke-width:1.5625;"/><line style="stroke:#5E5E5E;stroke-width:1.5625;" x1="1916.1458" x2="1916.1458" y1="166.2028" y2="172.4528"/><line style="stroke:#5E5E5E;stroke-width:1.5625;" x1="1922.3958" x2="1916.1458" y1="172.4528" y2="172.4528"/><text fill="#D8BC00" font-family="Open Sans,Avenir,Nunito,Arial,Helvetica,SansSerif" font-size="12.5" lengthAdjust="spacing" textLength="84.375" x="1819.2708" y="189.7461">kivakit_testing</text><rect fill="#1B1B1A" height="44.93" rx="8.3333" ry="8.3333" style="stroke:#5E5E5E;stroke-width:1.5625;" width="139.5833" x="514.5833" y="268.2861"/><polygon fill="#1B1B1A" points="636.4583,273.4945,636.4583,288.0778,648.9583,288.0778,648.9583,279.7445,642.7083,273.4945,636.4583,273.4945" style="stroke:#5E5E5E;stroke-width:1.5625;"/><line style="stroke:#5E5E5E;stroke-width:1.5625;" x1="642.7083" x2="642.7083" y1="273.4945" y2="279.7445"/><line style="stroke:#5E5E5E;stroke-width:1.5625;" x1="648.9583" x2="642.7083" y1="279.7445" y2="279.7445"/><text fill="#D8BC00" font-family="Open Sans,Avenir,Nunito,Arial,Helvetica,SansSerif" font-size="12.5" lengthAdjust="spacing" textLength="102.0833" x="528.125" y="297.0378">kivakit_validation</text><rect fill="#1B1B1A" height="44.93" rx="8.3333" ry="8.3333" style="stroke:#5E5E5E;stroke-width:1.5625;" width="155.2083" x="1990.1042" y="268.2861"/><polygon fill="#1B1B1A" points="2127.6042,273.4945,2127.6042,288.0778,2140.1042,288.0778,2140.1042,279.7445,2133.8542,273.4945,2127.6042,273.4945" style="stroke:#5E5E5E;stroke-width:1.5625;"/><line style="stroke:#5E5E5E;stroke-width:1.5625;" x1="2133.8542" x2="2133.8542" y1="273.4945" y2="279.7445"/><line style="stroke:#5E5E5E;stroke-width:1.5625;" x1="2140.1042" x2="2133.8542" y1="279.7445" y2="279.7445"/><text fill="#D8BC00" font-family="Open Sans,Avenir,Nunito,Arial,Helvetica,SansSerif" font-size="12.5" lengthAdjust="spacing" textLength="117.7083" x="2003.6458" y="297.0378">lexakai_annotations</text><rect fill="#1B1B1A" height="44.93" rx="8.3333" ry="8.3333" style="stroke:#5E5E5E;stroke-width:1.5625;" width="212.5" x="862.5" y="53.7028"/><polygon fill="#1B1B1A" points="1057.2917,58.9111,1057.2917,73.4945,1069.7917,73.4945,1069.7917,65.1611,1063.5417,58.9111,1057.2917,58.9111" style="stroke:#5E5E5E;stroke-width:1.5625;"/><line style="stroke:#5E5E5E;stroke-width:1.5625;" x1="1063.5417" x2="1063.5417" y1="58.9111" y2="65.1611"/><line style="stroke:#5E5E5E;stroke-width:1.5625;" x1="1069.7917" x2="1063.5417" y1="65.1611" y2="65.1611"/><text fill="#D8BC00" font-family="Open Sans,Avenir,Nunito,Arial,Helvetica,SansSerif" font-size="12.5" lengthAdjust="spacing" textLength="175" x="876.0417" y="82.4544">mesakit_map_measurements</text><rect fill="#1B1B1A" height="44.93" rx="8.3333" ry="8.3333" style="stroke:#5E5E5E;stroke-width:1.5625;" width="131.25" x="1612.5" y="268.2861"/><polygon fill="#1B1B1A" points="1726.0417,273.4945,1726.0417,288.0778,1738.5417,288.0778,1738.5417,279.7445,1732.2917,273.4945,1726.0417,273.4945" style="stroke:#5E5E5E;stroke-width:1.5625;"/><line style="stroke:#5E5E5E;stroke-width:1.5625;" x1="1732.2917" x2="1732.2917" y1="273.4945" y2="279.7445"/><line style="stroke:#5E5E5E;stroke-width:1.5625;" x1="1738.5417" x2="1732.2917" y1="279.7445" y2="279.7445"/><text fill="#D8BC00" font-family="Open Sans,Avenir,Nunito,Arial,Helvetica,SansSerif" font-size="12.5" lengthAdjust="spacing" textLength="93.75" x="1626.0417" y="297.0378">kryo_serializers</text><rect fill="#1B1B1A" height="44.93" rx="8.3333" ry="8.3333" style="stroke:#5E5E5E;stroke-width:1.5625;" width="63.5417" x="1773.4375" y="375.5778"/><polygon fill="#1B1B1A" points="1819.2708,380.7861,1819.2708,395.3695,1831.7708,395.3695,1831.7708,387.0361,1825.5208,380.7861,1819.2708,380.7861" style="stroke:#5E5E5E;stroke-width:1.5625;"/><line style="stroke:#5E5E5E;stroke-width:1.5625;" x1="1825.5208" x2="1825.5208" y1="380.7861" y2="387.0361"/><line style="stroke:#5E5E5E;stroke-width:1.5625;" x1="1831.7708" x2="1825.5208" y1="387.0361" y2="387.0361"/><text fill="#D8BC00" font-family="Open Sans,Avenir,Nunito,Arial,Helvetica,SansSerif" font-size="12.5" lengthAdjust="spacing" textLength="26.0417" x="1786.9792" y="404.3294">junit</text><rect fill="#1B1B1A" height="44.93" rx="8.3333" ry="8.3333" style="stroke:#5E5E5E;stroke-width:1.5625;" width="131.25" x="690.625" y="268.2861"/><polygon fill="#1B1B1A" points="804.1667,273.4945,804.1667,288.0778,816.6667,288.0778,816.6667,279.7445,810.4167,273.4945,804.1667,273.4945" style="stroke:#5E5E5E;stroke-width:1.5625;"/><line style="stroke:#5E5E5E;stroke-width:1.5625;" x1="810.4167" x2="810.4167" y1="273.4945" y2="279.7445"/><line style="stroke:#5E5E5E;stroke-width:1.5625;" x1="816.6667" x2="810.4167" y1="279.7445" y2="279.7445"/><text fill="#D8BC00" font-family="Open Sans,Avenir,Nunito,Arial,Helvetica,SansSerif" font-size="12.5" lengthAdjust="spacing" textLength="93.75" x="704.1667" y="297.0378">commons_math</text><rect fill="#1B1B1A" height="44.93" rx="8.3333" ry="8.3333" style="stroke:#5E5E5E;stroke-width:1.5625;" width="125" x="1742.7083" y="482.8695"/><polygon fill="#1B1B1A" points="1850,488.0778,1850,502.6611,1862.5,502.6611,1862.5,494.3278,1856.25,488.0778,1850,488.0778" style="stroke:#5E5E5E;stroke-width:1.5625;"/><line style="stroke:#5E5E5E;stroke-width:1.5625;" x1="1856.25" x2="1856.25" y1="488.0778" y2="494.3278"/><line style="stroke:#5E5E5E;stroke-width:1.5625;" x1="1862.5" x2="1856.25" y1="494.3278" y2="494.3278"/><text fill="#D8BC00" font-family="Open Sans,Avenir,Nunito,Arial,Helvetica,SansSerif" font-size="12.5" lengthAdjust="spacing" textLength="87.5" x="1756.25" y="511.6211">hamcrest_core</text><rect fill="#1B1B1A" height="44.93" rx="8.3333" ry="8.3333" style="stroke:#5E5E5E;stroke-width:1.5625;" width="106.25" x="1873.9583" y="375.5778"/><polygon fill="#1B1B1A" points="1962.5,380.7861,1962.5,395.3695,1975,395.3695,1975,387.0361,1968.75,380.7861,1962.5,380.7861" style="stroke:#5E5E5E;stroke-width:1.5625;"/><line style="stroke:#5E5E5E;stroke-width:1.5625;" x1="1968.75" x2="1968.75" y1="380.7861" y2="387.0361"/><line style="stroke:#5E5E5E;stroke-width:1.5625;" x1="1975" x2="1968.75" y1="387.0361" y2="387.0361"/><text fill="#D8BC00" font-family="Open Sans,Avenir,Nunito,Arial,Helvetica,SansSerif" font-size="12.5" lengthAdjust="spacing" textLength="68.75" x="1887.5" y="404.3294">annotations</text><rect fill="#1B1B1A" height="44.93" rx="8.3333" ry="8.3333" style="stroke:#5E5E5E;stroke-width:1.5625;" width="94.7917" x="977.6042" y="375.5778"/><polygon fill="#1B1B1A" points="1054.6875,380.7861,1054.6875,395.3695,1067.1875,395.3695,1067.1875,387.0361,1060.9375,380.7861,1054.6875,380.7861" style="stroke:#5E5E5E;stroke-width:1.5625;"/><line style="stroke:#5E5E5E;stroke-width:1.5625;" x1="1060.9375" x2="1060.9375" y1="380.7861" y2="387.0361"/><line style="stroke:#5E5E5E;stroke-width:1.5625;" x1="1067.1875" x2="1060.9375" y1="387.0361" y2="387.0361"/><text fill="#D8BC00" font-family="Open Sans,Avenir,Nunito,Arial,Helvetica,SansSerif" font-size="12.5" lengthAdjust="spacing" textLength="57.2917" x="991.1458" y="404.3294">objenesis</text><rect fill="#1B1B1A" height="44.93" rx="8.3333" ry="8.3333" style="stroke:#5E5E5E;stroke-width:1.5625;" width="62.5" x="859.375" y="482.8695"/><polygon fill="#1B1B1A" points="904.1667,488.0778,904.1667,502.6611,916.6667,502.6611,916.6667,494.3278,910.4167,488.0778,904.1667,488.0778" style="stroke:#5E5E5E;stroke-width:1.5625;"/><line style="stroke:#5E5E5E;stroke-width:1.5625;" x1="910.4167" x2="910.4167" y1="488.0778" y2="494.3278"/><line style="stroke:#5E5E5E;stroke-width:1.5625;" x1="916.6667" x2="910.4167" y1="494.3278" y2="494.3278"/><text fill="#D8BC00" font-family="Open Sans,Avenir,Nunito,Arial,Helvetica,SansSerif" font-size="12.5" lengthAdjust="spacing" textLength="25" x="872.9167" y="511.6211">asm</text><path d="M1805.2083,420.8174 C1805.2083,437.2861 1805.2083,459.984 1805.2083,477.5361 " fill="none" id="junit-to-hamcrest_core" style="stroke:#545454;stroke-width:1.5625;"/><polygon fill="#545454" points="1805.2083,482.8174,1809.375,473.4424,1805.2083,477.609,1801.0417,473.4424,1805.2083,482.8174" style="stroke:#545454;stroke-width:1.5625;"/><path d="M353.7708,205.8486 C295.8542,223.5153 213.8646,248.5361 154.5625,266.6299 " fill="none" id="kivakit_commandline-to-kivakit_collections" style="stroke:#545454;stroke-width:1.5625;"/><polygon fill="#545454" points="149.2604,268.2549,159.4436,269.5017,154.2416,266.7337,157.0097,261.5317,149.2604,268.2549" style="stroke:#545454;stroke-width:1.5625;"/><path d="M390.4688,205.9736 C363.6771,223.2132 326.125,247.3695 298.25,265.307 " fill="none" id="kivakit_commandline-to-kivakit_conversion" style="stroke:#545454;stroke-width:1.5625;"/><polygon fill="#545454" points="293.8646,268.1299,304.0038,266.5652,298.2457,265.3134,299.4975,259.5554,293.8646,268.1299" style="stroke:#545454;stroke-width:1.5625;"/><path d="M423.9583,206.234 C423.9583,222.7028 423.9583,245.4007 423.9583,262.9528 " fill="none" id="kivakit_commandline-to-kivakit_core" style="stroke:#545454;stroke-width:1.5625;"/><polygon fill="#545454" points="423.9583,268.234,428.125,258.859,423.9583,263.0257,419.7917,258.859,423.9583,268.234" style="stroke:#545454;stroke-width:1.5625;"/><path d="M456.8125,205.9736 C482.9792,223.1403 519.625,247.1715 546.9271,265.0778 " fill="none" id="kivakit_commandline-to-kivakit_validation" style="stroke:#545454;stroke-width:1.5625;"/><polygon fill="#545454" points="551.5729,268.1299,546.0152,259.5064,547.2166,265.2752,541.4478,266.4766,551.5729,268.1299" style="stroke:#545454;stroke-width:1.5625;"/><path d="M387.9063,313.2653 C359.0729,330.5049 318.6458,354.6611 288.6354,372.5986 " fill="none" id="kivakit_core-to-cactus_metadata" style="stroke:#545454;stroke-width:1.5625;"/><polygon fill="#545454" points="283.9167,375.4215,294.1024,374.196,288.3893,372.7529,289.8325,367.0398,283.9167,375.4215" style="stroke:#545454;stroke-width:1.5625;"/><path d="M423.9583,313.5257 C423.9583,329.9945 423.9583,352.6924 423.9583,370.2445 " fill="none" id="kivakit_core-to-kivakit_interfaces" style="stroke:#545454;stroke-width:1.5625;"/><polygon fill="#545454" points="423.9583,375.5257,428.125,366.1507,423.9583,370.3174,419.7917,366.1507,423.9583,375.5257" style="stroke:#545454;stroke-width:1.5625;"/><path d="M458.3021,313.2653 C485.7708,330.5049 524.2917,354.6611 552.875,372.5986 " fill="none" id="kivakit_core-to-kivakit_mixins" style="stroke:#545454;stroke-width:1.5625;"/><polygon fill="#545454" points="557.3646,375.4215,551.6436,366.9056,552.9546,372.6504,547.2098,373.9615,557.3646,375.4215" style="stroke:#545454;stroke-width:1.5625;"/><path d="M1879.1875,313.5257 C1888.7292,330.1403 1901.9063,353.0778 1912.0208,370.7028 " fill="none" id="kivakit_internal_testing-to-annotations" style="stroke:#545454;stroke-width:1.5625;"/><polygon fill="#545454" points="1914.7917,375.5257,1913.7363,365.3209,1912.198,371.0091,1906.5098,369.4708,1914.7917,375.5257" style="stroke:#545454;stroke-width:1.5625;"/><path d="M1853.9375,313.5257 C1844.2292,330.1403 1830.8229,353.0778 1820.5313,370.7028 " fill="none" id="kivakit_internal_testing-to-junit" style="stroke:#545454;stroke-width:1.5625;"/><polygon fill="#545454" points="1817.7188,375.5257,1826.0391,369.5238,1820.3412,371.0258,1818.8393,365.3279,1817.7188,375.5257" style="stroke:#545454;stroke-width:1.5625;"/><path d="M757.0729,206.234 C756.9167,222.7028 756.6875,245.4007 756.5104,262.9528 " fill="none" id="kivakit_math-to-commons_math" style="stroke:#545454;stroke-width:1.5625;"/><polygon fill="#545454" points="756.4583,268.234,760.7052,258.8951,756.503,263.0259,752.3722,258.8237,756.4583,268.234" style="stroke:#545454;stroke-width:1.5625;"/><path d="M1178.4583,205.9736 C1146.9375,223.2757 1102.6771,247.5674 1069.9792,265.5257 " fill="none" id="kivakit_serialization_kryo-to-kivakit_resource" style="stroke:#545454;stroke-width:1.5625;"/><polygon fill="#545454" points="1065.2396,268.1299,1075.4628,267.2705,1069.8051,265.6233,1071.4523,259.9657,1065.2396,268.1299" style="stroke:#545454;stroke-width:1.5625;"/><path d="M1218.7917,206.234 C1219.6042,222.7028 1220.7292,245.4007 1221.5938,262.9528 " fill="none" id="kivakit_serialization_kryo-to-kivakit_serialization_core" style="stroke:#545454;stroke-width:1.5625;"/><polygon fill="#545454" points="1221.8542,268.234,1225.5324,258.6569,1221.5859,263.0326,1217.2101,259.0861,1221.8542,268.234" style="stroke:#545454;stroke-width:1.5625;"/><path d="M1267.9688,205.8486 C1309.0104,223.3382 1366.9583,248.0361 1409.3125,266.0882 " fill="none" id="kivakit_serialization_kryo-to-kivakit_serialization_properties" style="stroke:#545454;stroke-width:1.5625;"/><polygon fill="#545454" points="1414.3958,268.2549,1407.4004,260.7505,1409.6032,266.2158,1404.1379,268.4186,1414.3958,268.2549" style="stroke:#545454;stroke-width:1.5625;"/><path d="M1138.7292,205.8382 C1082.875,221.5778 1006.5208,244.3278 940.625,268.2861 C936.2604,269.8695 931.7292,271.6403 927.25,273.4528 " fill="none" id="kivakit_serialization_kryo-to-kryo" style="stroke:#545454;stroke-width:1.5625;"/><polygon fill="#545454" points="922.4271,275.4424,932.6824,275.7257,927.2431,273.4593,929.5095,268.02,922.4271,275.4424" style="stroke:#545454;stroke-width:1.5625;"/><path d="M1310.9896,204.4632 C1387.1875,221.0049 1497.6042,245.4007 1593.75,268.2861 C1598.0833,269.3174 1602.5313,270.3903 1607.0208,271.4945 " fill="none" id="kivakit_serialization_kryo-to-kryo_serializers" style="stroke:#545454;stroke-width:1.5625;"/><polygon fill="#545454" points="1612.3021,272.7861,1604.1827,266.515,1607.2423,271.551,1602.2064,274.6106,1612.3021,272.7861" style="stroke:#545454;stroke-width:1.5625;"/><path d="M1866.6667,206.234 C1866.6667,222.7028 1866.6667,245.4007 1866.6667,262.9528 " fill="none" id="kivakit_testing-to-kivakit_internal_testing" style="stroke:#545454;stroke-width:1.5625;"/><polygon fill="#545454" points="1866.6667,268.234,1870.8333,258.859,1866.6667,263.0257,1862.5,258.859,1866.6667,268.234" style="stroke:#545454;stroke-width:1.5625;"/><path d="M1907.8333,205.9736 C1940.9063,223.2757 1987.3229,247.5674 2021.625,265.5257 " fill="none" id="kivakit_testing-to-lexakai_annotations" style="stroke:#545454;stroke-width:1.5625;"/><polygon fill="#545454" points="2026.5938,268.1299,2020.2147,260.095,2021.9777,265.7176,2016.3551,267.4807,2026.5938,268.1299" style="stroke:#545454;stroke-width:1.5625;"/><path d="M865.0313,313.2653 C844.8021,330.2861 816.5521,354.0674 795.3333,371.932 " fill="none" id="kryo-to-minlog" style="stroke:#545454;stroke-width:1.5625;"/><polygon fill="#545454" points="791.1875,375.4215,801.0415,372.5665,795.1703,372.0653,795.6715,366.1941,791.1875,375.4215" style="stroke:#545454;stroke-width:1.5625;"/><path d="M918.1458,313.2653 C939.9688,330.359 970.5104,354.2653 993.3438,372.1507 " fill="none" id="kryo-to-objenesis" style="stroke:#545454;stroke-width:1.5625;"/><polygon fill="#545454" points="997.5208,375.4215,992.7059,366.3624,993.4192,372.2116,987.57,372.9249,997.5208,375.4215" style="stroke:#545454;stroke-width:1.5625;"/><path d="M890.625,313.5257 C890.625,329.9945 890.625,352.6924 890.625,370.2445 " fill="none" id="kryo-to-reflectasm" style="stroke:#545454;stroke-width:1.5625;"/><polygon fill="#545454" points="890.625,375.5257,894.7917,366.1507,890.625,370.3174,886.4583,366.1507,890.625,375.5257" style="stroke:#545454;stroke-width:1.5625;"/><path d="M862.4167,97.6715 C759.8438,117.484 606.4792,147.0986 510.9688,165.5465 " fill="none" id="mesakit_map_measurements-to-kivakit_commandline" style="stroke:#545454;stroke-width:1.5625;"/><polygon fill="#545454" points="505.6146,166.5778,515.608,168.898,510.7291,165.5937,514.0334,160.7148,505.6146,166.5778" style="stroke:#545454;stroke-width:1.5625;"/><path d="M925.4479,98.682 C890.5208,116.057 841.4479,140.484 805.3229,158.4528 " fill="none" id="mesakit_map_measurements-to-kivakit_math" style="stroke:#545454;stroke-width:1.5625;"/><polygon fill="#545454" points="800.5313,160.8382,810.7805,160.3855,805.1927,158.5149,807.0632,152.9272,800.5313,160.8382" style="stroke:#545454;stroke-width:1.5625;"/><path d="M1019.4271,98.557 C1060.8229,116.0465 1119.2604,140.7445 1161.9688,158.7965 " fill="none" id="mesakit_map_measurements-to-kivakit_serialization_kryo" style="stroke:#545454;stroke-width:1.5625;"/><polygon fill="#545454" points="1167.0938,160.9632,1160.0786,153.4772,1162.2958,158.9368,1156.8363,161.1539,1167.0938,160.9632" style="stroke:#545454;stroke-width:1.5625;"/><path d="M968.75,98.9424 C968.75,115.4111 968.75,138.109 968.75,155.6611 " fill="none" id="mesakit_map_measurements-to-kivakit_serialization_kryo_testing" style="stroke:#545454;stroke-width:1.5625;"/><polygon fill="#545454" points="968.75,160.9424,972.9167,151.5674,968.75,155.734,964.5833,151.5674,968.75,160.9424" style="stroke:#545454;stroke-width:1.5625;"/><path d="M1075.2813,89.6195 C1262.7083,111.5882 1646.1771,156.5153 1800.3229,174.5778 " fill="none" id="mesakit_map_measurements-to-kivakit_testing" style="stroke:#545454;stroke-width:1.5625;"/><polygon fill="#545454" points="1805.7083,175.2028,1796.8853,169.9678,1800.5358,174.5934,1795.9102,178.2439,1805.7083,175.2028" style="stroke:#545454;stroke-width:1.5625;"/><path d="M890.625,420.8174 C890.625,437.2861 890.625,459.984 890.625,477.5361 " fill="none" id="reflectasm-to-asm" style="stroke:#545454;stroke-width:1.5625;"/><polygon fill="#545454" points="890.625,482.8174,894.7917,473.4424,890.625,477.609,886.4583,473.4424,890.625,482.8174" style="stroke:#545454;stroke-width:1.5625;"/></g></svg>
