<?xml version="1.0" encoding="UTF-8" standalone="no"?><svg xmlns="http://www.w3.org/2000/svg" xmlns:xlink="http://www.w3.org/1999/xlink" contentScriptType="application/ecmascript" contentStyleType="text/css" height="218.75px" preserveAspectRatio="none" style="width:1096px;height:218px;background:#333333;" version="1.1" viewBox="0 0 1096 218" width="1096.875px" zoomAndPan="magnify"><defs/><g><rect fill="#48494B" height="41.2028" rx="8.3333" ry="8.3333" style="stroke:#545454;stroke-width:1.0416666666666667;" width="468.75" x="307.0313" y="2.0833"/><text fill="#C0C0C0" font-family="Open Sans,Avenir,Nunito,Arial,Helvetica,SansSerif" font-size="20.8333" lengthAdjust="spacing" textLength="445.8333" x="318.4896" y="30.5583">com.telenav.mesakit.map.geography.lexakai</text><!--MD5=[d0a12be03067cdc29bc4127bc14fabc5]
class UmlDiagramIdentifier--><rect codeLine="6" fill="#282828" height="48.055" id="UmlDiagramIdentifier" rx="8.3333" ry="8.3333" style="stroke:#5E5E5E;stroke-width:1.0416666666666667;" width="178.125" x="454.6875" y="53.7028"/><rect fill="#1B1B1A" height="31.3883" rx="8.3333" ry="8.3333" style="stroke:#1B1B1A;stroke-width:1.0416666666666667;" width="178.125" x="454.6875" y="53.7028"/><rect fill="#1B1B1A" height="8.3333" style="stroke:#1B1B1A;stroke-width:1.0416666666666667;" width="178.125" x="454.6875" y="76.7578"/><rect codeLine="6" fill="none" height="48.055" id="UmlDiagramIdentifier" rx="8.3333" ry="8.3333" style="stroke:#5E5E5E;stroke-width:1.0416666666666667;" width="178.125" x="454.6875" y="53.7028"/><ellipse cx="469.2708" cy="69.397" fill="#008400" rx="10.4167" ry="10.4167" style="stroke:#239C23;stroke-width:1.0416666666666667;"/><path d="M466.6748,66.5588 L466.6748,64.9719 L472.1008,64.9719 L472.1008,66.5588 L470.2881,66.5588 L470.2881,72.4976 L472.1008,72.4976 L472.1008,74.0845 L466.6748,74.0845 L466.6748,72.4976 L468.4875,72.4976 L468.4875,66.5588 Z " fill="#000000"/><text fill="#D8BC00" font-family="Open Sans,Avenir,Nunito,Arial,Helvetica,SansSerif" font-size="12.5" font-style="italic" font-weight="bold" lengthAdjust="spacing" textLength="140.625" x="485.9375" y="74.1211">UmlDiagramIdentifier</text><line style="stroke:#5E5E5E;stroke-width:1.0416666666666667;" x1="455.7292" x2="631.7708" y1="85.0911" y2="85.0911"/><line style="stroke:#5E5E5E;stroke-width:1.0416666666666667;" x1="455.7292" x2="631.7708" y1="93.4245" y2="93.4245"/><!--MD5=[eb174a5581b90c766fd74d274cfac00f]
class DiagramLocation--><rect codeLine="9" fill="#282828" height="48.055" id="DiagramLocation" rx="8.3333" ry="8.3333" style="stroke:#5E5E5E;stroke-width:1.0416666666666667;" width="147.9167" x="7.2917" y="164.1195"/><rect fill="#1B1B1A" height="31.3883" rx="8.3333" ry="8.3333" style="stroke:#1B1B1A;stroke-width:1.0416666666666667;" width="147.9167" x="7.2917" y="164.1195"/><rect fill="#1B1B1A" height="8.3333" style="stroke:#1B1B1A;stroke-width:1.0416666666666667;" width="147.9167" x="7.2917" y="187.1745"/><rect codeLine="9" fill="none" height="48.055" id="DiagramLocation" rx="8.3333" ry="8.3333" style="stroke:#5E5E5E;stroke-width:1.0416666666666667;" width="147.9167" x="7.2917" y="164.1195"/><ellipse cx="21.875" cy="179.8136" fill="#0066CF" rx="10.4167" ry="10.4167" style="stroke:#0086EF;stroke-width:1.0416666666666667;"/><path d="M23.7854,184.2387 Q23.3582,184.4584 22.8882,184.5683 Q22.4182,184.6781 21.8994,184.6781 Q20.0562,184.6781 19.0857,183.4635 Q18.1152,182.2489 18.1152,179.954 Q18.1152,177.653 19.0857,176.4384 Q20.0562,175.2238 21.8994,175.2238 Q22.4182,175.2238 22.8943,175.3337 Q23.3704,175.4435 23.7854,175.6632 L23.7854,177.6652 Q23.3215,177.238 22.8851,177.0396 Q22.4487,176.8412 21.9849,176.8412 Q20.9961,176.8412 20.4926,177.6255 Q19.989,178.4098 19.989,179.954 Q19.989,181.4921 20.4926,182.2764 Q20.9961,183.0607 21.9849,183.0607 Q22.4487,183.0607 22.8851,182.8623 Q23.3215,182.664 23.7854,182.2367 Z " fill="#000000"/><text fill="#D8BC00" font-family="Open Sans,Avenir,Nunito,Arial,Helvetica,SansSerif" font-size="12.5" font-weight="bold" lengthAdjust="spacing" textLength="110.4167" x="38.5417" y="184.5378">DiagramLocation</text><line style="stroke:#5E5E5E;stroke-width:1.0416666666666667;" x1="8.3333" x2="154.1667" y1="195.5078" y2="195.5078"/><line style="stroke:#5E5E5E;stroke-width:1.0416666666666667;" x1="8.3333" x2="154.1667" y1="203.8411" y2="203.8411"/><!--MD5=[eefbca1027fde38e3033544032938448]
class DiagramPolyline--><rect codeLine="14" fill="#282828" height="48.055" id="DiagramPolyline" rx="8.3333" ry="8.3333" style="stroke:#5E5E5E;stroke-width:1.0416666666666667;" width="143.75" x="191.6667" y="164.1195"/><rect fill="#1B1B1A" height="31.3883" rx="8.3333" ry="8.3333" style="stroke:#1B1B1A;stroke-width:1.0416666666666667;" width="143.75" x="191.6667" y="164.1195"/><rect fill="#1B1B1A" height="8.3333" style="stroke:#1B1B1A;stroke-width:1.0416666666666667;" width="143.75" x="191.6667" y="187.1745"/><rect codeLine="14" fill="none" height="48.055" id="DiagramPolyline" rx="8.3333" ry="8.3333" style="stroke:#5E5E5E;stroke-width:1.0416666666666667;" width="143.75" x="191.6667" y="164.1195"/><ellipse cx="206.25" cy="179.8136" fill="#0066CF" rx="10.4167" ry="10.4167" style="stroke:#0086EF;stroke-width:1.0416666666666667;"/><path d="M208.1604,184.2387 Q207.7332,184.4584 207.2632,184.5683 Q206.7932,184.6781 206.2744,184.6781 Q204.4312,184.6781 203.4607,183.4635 Q202.4902,182.2489 202.4902,179.954 Q202.4902,177.653 203.4607,176.4384 Q204.4312,175.2238 206.2744,175.2238 Q206.7932,175.2238 207.2693,175.3337 Q207.7454,175.4435 208.1604,175.6632 L208.1604,177.6652 Q207.6965,177.238 207.2601,177.0396 Q206.8237,176.8412 206.3599,176.8412 Q205.3711,176.8412 204.8676,177.6255 Q204.364,178.4098 204.364,179.954 Q204.364,181.4921 204.8676,182.2764 Q205.3711,183.0607 206.3599,183.0607 Q206.8237,183.0607 207.2601,182.8623 Q207.6965,182.664 208.1604,182.2367 Z " fill="#000000"/><text fill="#D8BC00" font-family="Open Sans,Avenir,Nunito,Arial,Helvetica,SansSerif" font-size="12.5" font-weight="bold" lengthAdjust="spacing" textLength="106.25" x="222.9167" y="184.5378">DiagramPolyline</text><line style="stroke:#5E5E5E;stroke-width:1.0416666666666667;" x1="192.7083" x2="334.375" y1="195.5078" y2="195.5078"/><line style="stroke:#5E5E5E;stroke-width:1.0416666666666667;" x1="192.7083" x2="334.375" y1="203.8411" y2="203.8411"/><!--MD5=[b945525c39100a6a5a4e1b76143e127e]
class DiagramRectangle--><rect codeLine="19" fill="#282828" height="48.055" id="DiagramRectangle" rx="8.3333" ry="8.3333" style="stroke:#5E5E5E;stroke-width:1.0416666666666667;" width="155.2083" x="372.3958" y="164.1195"/><rect fill="#1B1B1A" height="31.3883" rx="8.3333" ry="8.3333" style="stroke:#1B1B1A;stroke-width:1.0416666666666667;" width="155.2083" x="372.3958" y="164.1195"/><rect fill="#1B1B1A" height="8.3333" style="stroke:#1B1B1A;stroke-width:1.0416666666666667;" width="155.2083" x="372.3958" y="187.1745"/><rect codeLine="19" fill="none" height="48.055" id="DiagramRectangle" rx="8.3333" ry="8.3333" style="stroke:#5E5E5E;stroke-width:1.0416666666666667;" width="155.2083" x="372.3958" y="164.1195"/><ellipse cx="386.9792" cy="179.8136" fill="#0066CF" rx="10.4167" ry="10.4167" style="stroke:#0086EF;stroke-width:1.0416666666666667;"/><path d="M388.8896,184.2387 Q388.4623,184.4584 387.9924,184.5683 Q387.5224,184.6781 387.0036,184.6781 Q385.1603,184.6781 384.1899,183.4635 Q383.2194,182.2489 383.2194,179.954 Q383.2194,177.653 384.1899,176.4384 Q385.1603,175.2238 387.0036,175.2238 Q387.5224,175.2238 387.9985,175.3337 Q388.4745,175.4435 388.8896,175.6632 L388.8896,177.6652 Q388.4257,177.238 387.9893,177.0396 Q387.5529,176.8412 387.089,176.8412 Q386.1003,176.8412 385.5967,177.6255 Q385.0932,178.4098 385.0932,179.954 Q385.0932,181.4921 385.5967,182.2764 Q386.1003,183.0607 387.089,183.0607 Q387.5529,183.0607 387.9893,182.8623 Q388.4257,182.664 388.8896,182.2367 Z " fill="#000000"/><text fill="#D8BC00" font-family="Open Sans,Avenir,Nunito,Arial,Helvetica,SansSerif" font-size="12.5" font-weight="bold" lengthAdjust="spacing" textLength="117.7083" x="403.6458" y="184.5378">DiagramRectangle</text><line style="stroke:#5E5E5E;stroke-width:1.0416666666666667;" x1="373.4375" x2="526.5625" y1="195.5078" y2="195.5078"/><line style="stroke:#5E5E5E;stroke-width:1.0416666666666667;" x1="373.4375" x2="526.5625" y1="203.8411" y2="203.8411"/><!--MD5=[ca884fc4fa473248420c4dfaa05f8764]
class DiagramSegment--><rect codeLine="24" fill="#282828" height="48.055" id="DiagramSegment" rx="8.3333" ry="8.3333" style="stroke:#5E5E5E;stroke-width:1.0416666666666667;" width="148.9583" x="564.0625" y="164.1195"/><rect fill="#1B1B1A" height="31.3883" rx="8.3333" ry="8.3333" style="stroke:#1B1B1A;stroke-width:1.0416666666666667;" width="148.9583" x="564.0625" y="164.1195"/><rect fill="#1B1B1A" height="8.3333" style="stroke:#1B1B1A;stroke-width:1.0416666666666667;" width="148.9583" x="564.0625" y="187.1745"/><rect codeLine="24" fill="none" height="48.055" id="DiagramSegment" rx="8.3333" ry="8.3333" style="stroke:#5E5E5E;stroke-width:1.0416666666666667;" width="148.9583" x="564.0625" y="164.1195"/><ellipse cx="578.6458" cy="179.8136" fill="#0066CF" rx="10.4167" ry="10.4167" style="stroke:#0086EF;stroke-width:1.0416666666666667;"/><path d="M580.5562,184.2387 Q580.129,184.4584 579.659,184.5683 Q579.189,184.6781 578.6702,184.6781 Q576.827,184.6781 575.8565,183.4635 Q574.8861,182.2489 574.8861,179.954 Q574.8861,177.653 575.8565,176.4384 Q576.827,175.2238 578.6702,175.2238 Q579.189,175.2238 579.6651,175.3337 Q580.1412,175.4435 580.5562,175.6632 L580.5562,177.6652 Q580.0924,177.238 579.656,177.0396 Q579.2196,176.8412 578.7557,176.8412 Q577.7669,176.8412 577.2634,177.6255 Q576.7598,178.4098 576.7598,179.954 Q576.7598,181.4921 577.2634,182.2764 Q577.7669,183.0607 578.7557,183.0607 Q579.2196,183.0607 579.656,182.8623 Q580.0924,182.664 580.5562,182.2367 Z " fill="#000000"/><text fill="#D8BC00" font-family="Open Sans,Avenir,Nunito,Arial,Helvetica,SansSerif" font-size="12.5" font-weight="bold" lengthAdjust="spacing" textLength="111.4583" x="595.3125" y="184.5378">DiagramSegment</text><line style="stroke:#5E5E5E;stroke-width:1.0416666666666667;" x1="565.1042" x2="711.9792" y1="195.5078" y2="195.5078"/><line style="stroke:#5E5E5E;stroke-width:1.0416666666666667;" x1="565.1042" x2="711.9792" y1="203.8411" y2="203.8411"/><!--MD5=[e6afd0689d51875137da32fe4a084902]
class DiagramShape--><rect codeLine="29" fill="#282828" height="48.055" id="DiagramShape" rx="8.3333" ry="8.3333" style="stroke:#5E5E5E;stroke-width:1.0416666666666667;" width="131.25" x="750" y="164.1195"/><rect fill="#1B1B1A" height="31.3883" rx="8.3333" ry="8.3333" style="stroke:#1B1B1A;stroke-width:1.0416666666666667;" width="131.25" x="750" y="164.1195"/><rect fill="#1B1B1A" height="8.3333" style="stroke:#1B1B1A;stroke-width:1.0416666666666667;" width="131.25" x="750" y="187.1745"/><rect codeLine="29" fill="none" height="48.055" id="DiagramShape" rx="8.3333" ry="8.3333" style="stroke:#5E5E5E;stroke-width:1.0416666666666667;" width="131.25" x="750" y="164.1195"/><ellipse cx="764.5833" cy="179.8136" fill="#0066CF" rx="10.4167" ry="10.4167" style="stroke:#0086EF;stroke-width:1.0416666666666667;"/><path d="M766.4937,184.2387 Q766.0665,184.4584 765.5965,184.5683 Q765.1265,184.6781 764.6077,184.6781 Q762.7645,184.6781 761.794,183.4635 Q760.8236,182.2489 760.8236,179.954 Q760.8236,177.653 761.794,176.4384 Q762.7645,175.2238 764.6077,175.2238 Q765.1265,175.2238 765.6026,175.3337 Q766.0787,175.4435 766.4937,175.6632 L766.4937,177.6652 Q766.0299,177.238 765.5935,177.0396 Q765.1571,176.8412 764.6932,176.8412 Q763.7044,176.8412 763.2009,177.6255 Q762.6973,178.4098 762.6973,179.954 Q762.6973,181.4921 763.2009,182.2764 Q763.7044,183.0607 764.6932,183.0607 Q765.1571,183.0607 765.5935,182.8623 Q766.0299,182.664 766.4937,182.2367 Z " fill="#000000"/><text fill="#D8BC00" font-family="Open Sans,Avenir,Nunito,Arial,Helvetica,SansSerif" font-size="12.5" font-weight="bold" lengthAdjust="spacing" textLength="93.75" x="781.25" y="184.5378">DiagramShape</text><line style="stroke:#5E5E5E;stroke-width:1.0416666666666667;" x1="751.0417" x2="880.2083" y1="195.5078" y2="195.5078"/><line style="stroke:#5E5E5E;stroke-width:1.0416666666666667;" x1="751.0417" x2="880.2083" y1="203.8411" y2="203.8411"/><!--MD5=[013ff799619988ec8b88a9137e57a2f5]
class DiagramSpatialIndex--><rect codeLine="34" fill="#282828" height="48.055" id="DiagramSpatialIndex" rx="8.3333" ry="8.3333" style="stroke:#5E5E5E;stroke-width:1.0416666666666667;" width="171.875" x="918.2292" y="164.1195"/><rect fill="#1B1B1A" height="31.3883" rx="8.3333" ry="8.3333" style="stroke:#1B1B1A;stroke-width:1.0416666666666667;" width="171.875" x="918.2292" y="164.1195"/><rect fill="#1B1B1A" height="8.3333" style="stroke:#1B1B1A;stroke-width:1.0416666666666667;" width="171.875" x="918.2292" y="187.1745"/><rect codeLine="34" fill="none" height="48.055" id="DiagramSpatialIndex" rx="8.3333" ry="8.3333" style="stroke:#5E5E5E;stroke-width:1.0416666666666667;" width="171.875" x="918.2292" y="164.1195"/><ellipse cx="932.8125" cy="179.8136" fill="#0066CF" rx="10.4167" ry="10.4167" style="stroke:#0086EF;stroke-width:1.0416666666666667;"/><path d="M934.7229,184.2387 Q934.2957,184.4584 933.8257,184.5683 Q933.3557,184.6781 932.8369,184.6781 Q930.9937,184.6781 930.0232,183.4635 Q929.0527,182.2489 929.0527,179.954 Q929.0527,177.653 930.0232,176.4384 Q930.9937,175.2238 932.8369,175.2238 Q933.3557,175.2238 933.8318,175.3337 Q934.3079,175.4435 934.7229,175.6632 L934.7229,177.6652 Q934.259,177.238 933.8226,177.0396 Q933.3862,176.8412 932.9224,176.8412 Q931.9336,176.8412 931.4301,177.6255 Q930.9265,178.4098 930.9265,179.954 Q930.9265,181.4921 931.4301,182.2764 Q931.9336,183.0607 932.9224,183.0607 Q933.3862,183.0607 933.8226,182.8623 Q934.259,182.664 934.7229,182.2367 Z " fill="#000000"/><text fill="#D8BC00" font-family="Open Sans,Avenir,Nunito,Arial,Helvetica,SansSerif" font-size="12.5" font-weight="bold" lengthAdjust="spacing" textLength="134.375" x="949.4792" y="184.5378">DiagramSpatialIndex</text><line style="stroke:#5E5E5E;stroke-width:1.0416666666666667;" x1="919.2708" x2="1089.0625" y1="195.5078" y2="195.5078"/><line style="stroke:#5E5E5E;stroke-width:1.0416666666666667;" x1="919.2708" x2="1089.0625" y1="203.8411" y2="203.8411"/><!--MD5=[6fd27a4d306a47a3feac822c53d3f7e9]
reverse link UmlDiagramIdentifier to DiagramLocation--><path codeLine="8" d="M433.875,103.4528 C360.0104,120.2236 260.5104,143.0882 172.9167,164.1195 C167.1771,165.4945 161.2396,166.9424 155.2708,168.4111 " fill="none" id="UmlDiagramIdentifier-backto-DiagramLocation" style="stroke:#545454;stroke-width:1.5625;"/><polygon fill="none" points="432.5417,96.2757,454.4792,98.7757,435.7708,110.4945,432.5417,96.2757" style="stroke:#545454;stroke-width:1.5625;"/><!--MD5=[da87b5af0ca4e2400dc3fd060c4bf254]
reverse link UmlDiagramIdentifier to DiagramPolyline--><path codeLine="13" d="M464.7708,109.234 C419.7292,126.6507 364.1875,148.1195 322.8854,164.0986 " fill="none" id="UmlDiagramIdentifier-backto-DiagramPolyline" style="stroke:#545454;stroke-width:1.5625;"/><polygon fill="none" points="462.2604,102.3903,484.3229,101.682,467.5208,115.9945,462.2604,102.3903" style="stroke:#545454;stroke-width:1.5625;"/><!--MD5=[14020bc6938e6647f282249735f0681b]
reverse link UmlDiagramIdentifier to DiagramRectangle--><path codeLine="18" d="M510.0938,117.5986 C496.6042,133.182 481.5313,150.5986 469.8542,164.0986 " fill="none" id="UmlDiagramIdentifier-backto-DiagramRectangle" style="stroke:#545454;stroke-width:1.5625;"/><polygon fill="none" points="504.7188,112.6611,523.8646,101.682,515.75,122.2028,504.7188,112.6611" style="stroke:#545454;stroke-width:1.5625;"/><!--MD5=[08b3fc45b5d1d7b3acd9f6d8535696df]
reverse link UmlDiagramIdentifier to DiagramSegment--><path codeLine="23" d="M577.7813,117.5986 C591.4167,133.182 606.6563,150.5986 618.4688,164.0986 " fill="none" id="UmlDiagramIdentifier-backto-DiagramSegment" style="stroke:#545454;stroke-width:1.5625;"/><polygon fill="none" points="572.0833,122.1611,563.8542,101.682,583.0625,112.557,572.0833,122.1611" style="stroke:#545454;stroke-width:1.5625;"/><!--MD5=[0d1623b62b6729a2c4b45f128ade6cf6]
reverse link UmlDiagramIdentifier to DiagramShape--><path codeLine="28" d="M620.9688,109.4736 C664.5729,126.8486 718.1458,148.1924 758.0521,164.0986 " fill="none" id="UmlDiagramIdentifier-backto-DiagramShape" style="stroke:#545454;stroke-width:1.5625;"/><polygon fill="none" points="618.0625,116.1611,601.4063,101.682,623.4583,102.6195,618.0625,116.1611" style="stroke:#545454;stroke-width:1.5625;"/><!--MD5=[6463ba6cacfec592e6a270389a9c859c]
reverse link UmlDiagramIdentifier to DiagramSpatialIndex--><path codeLine="33" d="M653.5729,104.5465 C734.6458,123.6195 843.4375,149.2132 918.2083,166.807 " fill="none" id="UmlDiagramIdentifier-backto-DiagramSpatialIndex" style="stroke:#545454;stroke-width:1.5625;"/><polygon fill="none" points="651.6771,111.5882,633.0729,99.7236,655.0208,97.3903,651.6771,111.5882" style="stroke:#545454;stroke-width:1.5625;"/><!--MD5=[d30bd5127894207efe7640756572a168]
@startuml

    !include lexakai.theme
    
    title "com.telenav.mesakit.map.geography.lexakai"
    
    interface UmlDiagramIdentifier
    
    UmlDiagramIdentifier <|- - DiagramLocation
    class DiagramLocation
    {
    }
    
    UmlDiagramIdentifier <|- - DiagramPolyline
    class DiagramPolyline
    {
    }
    
    UmlDiagramIdentifier <|- - DiagramRectangle
    class DiagramRectangle
    {
    }
    
    UmlDiagramIdentifier <|- - DiagramSegment
    class DiagramSegment
    {
    }
    
    UmlDiagramIdentifier <|- - DiagramShape
    class DiagramShape
    {
    }
    
    UmlDiagramIdentifier <|- - DiagramSpatialIndex
    class DiagramSpatialIndex
    {
    }
    
@enduml

@startuml









skinparam backgroundColor #333333






skinparam  {
    defaultFontName   "Open Sans,Avenir,Nunito,Arial,Helvetica,SansSerif"
    defaultFontSize   12
    defaultTextAlignment left
    shadowing false
    RoundCorner 10
    TitleFontSize 18
}

skinparam defaultFontName       "Open Sans,Avenir,Nunito,Arial,Helvetica,SansSerif"
skinparam defaultFontSize       12
skinparam dpi                   100
skinparam shadowing             false
skinparam roundcorner           16
skinparam ParticipantPadding    40
skinparam BoxPadding            40
skinparam Padding               3
skinparam ArrowColor            #545454
skinparam stereotype {
    CBackgroundColor #0066cf
    CBorderColor #0086ef
    ABackgroundColor #C8Ac00
    ABorderColor #D8Bc00
    IBackgroundColor #008400
    IBorderColor #239c23
    EBackgroundColor #cf6300
    EBorderColor #ef8300
    NBackgroundColor #3380b9
    NBorderColor #004d86
}
skinparam title {
	FontColor	                 #c0c0c0
 	BorderColor                  #545454
	FontSize	    	         20
	BorderRoundCorner            16
	BorderThickness 	         1
	BackgroundColor              #48494b
}


skinparam legend {
	BackgroundColor #303030
	BorderColor #404040
	FontColor #a0a0a0
}

	skinparam swimlane {
	BorderColor #5e5e5e
	BorderThickness 2
	TitleBackgroundColor  #6d6d6d-#484848
	TitleFontColor #303030
}

skinparam activity {
		FontColor #C8Ac00
	BorderColor #333333
	BackgroundColor #333333-#333333
	BarColor #00FF00
	StartColor #0060a8
	EndColor #0060a8
	DiamondBackgroundColor #6d6d6d-#3a3a3a
  	DiamondBorderColor #3a3a3a
  	DiamondFontColor #fefefe
}


skinparam participant {
		FontColor #C8Ac00
	BorderColor #333333
	BackgroundColor #333333-#333333
	ParticipantBorderThickness 2
}


skinparam actor {
		FontColor #C8Ac00
	BorderColor #333333
	BackgroundColor #333333-#333333
}


skinparam arrow {
	Thickness 1.5
	Color #545454
	FontColor #a0a0a0
    FontStyle bold
    MessageAlignment center
}



skinparam sequence {
	BorderColor #303030
	TitleFontColor #303030
	BackgroundColor #333333
	StartColor #303030
	EndColor #303030
	BoxBackgroundColor #333333
	BoxBorderColor #484848
	BoxFontColor #484848
	LifeLineBorderColor #484848
	LifeLineBorderThickness 2
	LifeLineBackgroundColor #3a3a3a
	GroupBorderColor #484848
	GroupFontColor #484848
	GroupHeaderFontColor #0060a8
	GroupBackgroundColor #484848
	GroupHeaderBackgroundColor #333333
	DividerBackgroundColor #484848
    DividerBorderColor #484848
    DividerBorderThickness 2
    DividerFontColor #D8Bc00
	ReferenceBackgroundColor #333333
	ReferenceBorderColor #484848
	ReferenceFontColor #fefefe
	ReferenceHeaderBackgroundColor #484848
}


skinparam partition {
	BorderColor #303030
	FontColor #333333
	BackgroundColor #333333
}


skinparam collections {
		FontColor #C8Ac00
	BorderColor #333333
	BackgroundColor #333333-#333333
}


skinparam control {
		FontColor #C8Ac00
	BorderColor #333333
	BackgroundColor #333333-#333333
}


skinparam entity {
		FontColor #C8Ac00
	BorderColor #333333
	BackgroundColor #333333-#333333
}


skinparam boundary {
		FontColor #C8Ac00
	BorderColor #333333
	BackgroundColor #333333-#333333
}


skinparam agent {
	BackgroundColor #ff8000
	BorderColor #ff9933
	FontColor #484848
}


skinparam note {
	BorderThickness 1
	BackgroundColor #1b1b1a
	BorderColor #5e5e5e
	FontSize 11
	FontColor #a0a0a0
}


skinparam artifact {
	BorderThickness 10
	BorderColor #5e5e5e
	BackgroundColor #1b1b1a
	FontColor #D8Bc00
}


skinparam component {
		FontColor #C8Ac00
	BorderColor #333333
	BackgroundColor #333333-#333333
}


skinparam interface {
	BackgroundColor  #008400
	BorderColor  #007F00
	FontColor #484848
}


skinparam storage {
	BackgroundColor #ff8000
  	BorderColor #cc6600
	FontColor #222222
}


skinparam node {
	BackgroundColor #333333
	BorderColor #333333
	FontColor #C8Ac00
}


skinparam cloud {
	BackgroundColor #484848-black
	BorderColor #484848
	FontColor #D8Bc00
}


skinparam database {
		FontColor #C8Ac00
	BorderColor #333333
	BackgroundColor #333333-#333333
	BackgroundColor  #333333
}


skinparam class {
		FontColor #C8Ac00
	BorderColor #333333
	BackgroundColor #333333-#333333
	HeaderBackgroundColor #1b1b1a
    BackgroundColor #282828
    BorderColor #5e5e5e
 	StereotypeFontColor #a0a0a0
    StereotypeFontStyle bold
	BorderThickness 1
	AttributeFontColor #D8Bc00
	AttributeFontSize 11
    FontColor #D8Bc00
    FontStyle bold
}


skinparam object {
		FontColor #C8Ac00
	BorderColor #333333
	BackgroundColor #333333-#333333
	StereotypeFontColor #484848
	BorderThickness 1
	AttributeFontColor #fefefe
	AttributeFontSize 11
}


skinparam usecase {
		FontColor #C8Ac00
	BorderColor #333333
	BackgroundColor #333333-#333333
	BorderThickness 2
	StereotypeFontColor #303030
}


skinparam rectangle {
		FontColor #C8Ac00
	BorderColor #333333
	BackgroundColor #333333-#333333
	BackgroundColor #333333
	BorderThickness 2
	StereotypeFontColor #303030
}


skinparam package {
		FontColor #C8Ac00
	BorderColor #333333
	BackgroundColor #333333-#333333
	BackgroundColor #333333
	BorderThickness 2
}


skinparam folder {
	BackgroundColor #6d6d6d
  	BorderColor #ff8000
	FontColor #ff8000
	BorderThickness 2
}


skinparam frame {
	BackgroundColor #6d6d6d
  	BorderColor #0060a8
	FontColor #0060a8
	BorderThickness 2
}


skinparam state {
		FontColor #C8Ac00
	BorderColor #333333
	BackgroundColor #333333-#333333
	StartColor #0060a8
	EndColor #0060a8
	AttributeFontColor #fefefe
	AttributeFontSize 11
}


skinparam queue {
		FontColor #C8Ac00
	BorderColor #333333
	BackgroundColor #333333-#333333
}


skinparam card {
	BackgroundColor #0060a8
	BorderColor #004d86
	FontColor $INFO_TEXT
}


skinparam file {
	BackgroundColor #6d6d6d-#484848
	BorderColor #0060a8
	FontColor #fefefe
}


skinparam stack {
		FontColor #C8Ac00
	BorderColor #333333
	BackgroundColor #333333-#333333
}

    
    title "com.telenav.mesakit.map.geography.lexakai"
    
    interface UmlDiagramIdentifier
    
    UmlDiagramIdentifier <|- - DiagramLocation
    class DiagramLocation
    {
    }
    
    UmlDiagramIdentifier <|- - DiagramPolyline
    class DiagramPolyline
    {
    }
    
    UmlDiagramIdentifier <|- - DiagramRectangle
    class DiagramRectangle
    {
    }
    
    UmlDiagramIdentifier <|- - DiagramSegment
    class DiagramSegment
    {
    }
    
    UmlDiagramIdentifier <|- - DiagramShape
    class DiagramShape
    {
    }
    
    UmlDiagramIdentifier <|- - DiagramSpatialIndex
    class DiagramSpatialIndex
    {
    }
    
@enduml

PlantUML version 1.2021.01(Tue Feb 02 00:55:08 MST 2021)
(GPL source distribution)
Java Runtime: OpenJDK Runtime Environment
JVM: OpenJDK 64-Bit Server VM
Default Encoding: UTF-8
Language: en
Country: US
--></g></svg>