<?xml version="1.0" encoding="UTF-8" standalone="no"?><svg xmlns="http://www.w3.org/2000/svg" xmlns:xlink="http://www.w3.org/1999/xlink" contentScriptType="application/ecmascript" contentStyleType="text/css" height="108.3333px" preserveAspectRatio="none" style="width:455px;height:108px;background:#333333;" version="1.1" viewBox="0 0 455 108" width="455.2083px" zoomAndPan="magnify"><defs/><g><rect fill="#48494B" height="41.2028" rx="8.3333" ry="8.3333" style="stroke:#545454;stroke-width:1.0416666666666667;" width="442.7083" x="2.0833" y="2.0833"/><text fill="#C0C0C0" font-family="Open Sans,Avenir,Nunito,Arial,Helvetica,SansSerif" font-size="20.8333" lengthAdjust="spacing" textLength="419.7917" x="13.5417" y="30.5583">com.telenav.mesakit.map.ui.debug.theme</text><rect codeLine="7" fill="#282828" height="48.055" id="DebugViewerIcons" rx="8.3333" ry="8.3333" style="stroke:#5E5E5E;stroke-width:1.0416666666666667;" width="157.2917" x="53.125" y="53.7028"/><rect fill="#1B1B1A" height="31.3883" rx="8.3333" ry="8.3333" style="stroke:#1B1B1A;stroke-width:1.0416666666666667;" width="157.2917" x="53.125" y="53.7028"/><rect fill="#1B1B1A" height="8.3333" style="stroke:#1B1B1A;stroke-width:1.0416666666666667;" width="157.2917" x="53.125" y="76.7578"/><rect codeLine="7" fill="none" height="48.055" id="DebugViewerIcons" rx="8.3333" ry="8.3333" style="stroke:#5E5E5E;stroke-width:1.0416666666666667;" width="157.2917" x="53.125" y="53.7028"/><ellipse cx="67.7083" cy="69.397" fill="#0066CF" rx="10.4167" ry="10.4167" style="stroke:#0086EF;stroke-width:1.0416666666666667;"/><path d="M69.6187,73.822 Q69.1915,74.0417 68.7215,74.1516 Q68.2515,74.2615 67.7327,74.2615 Q65.8895,74.2615 64.919,73.0469 Q63.9486,71.8323 63.9486,69.5374 Q63.9486,67.2363 64.919,66.0217 Q65.8895,64.8071 67.7327,64.8071 Q68.2515,64.8071 68.7276,64.917 Q69.2037,65.0269 69.6187,65.2466 L69.6187,67.2485 Q69.1549,66.8213 68.7185,66.6229 Q68.2821,66.4246 67.8182,66.4246 Q66.8294,66.4246 66.3259,67.2089 Q65.8223,67.9932 65.8223,69.5374 Q65.8223,71.0754 66.3259,71.8597 Q66.8294,72.644 67.8182,72.644 Q68.2821,72.644 68.7185,72.4457 Q69.1549,72.2473 69.6187,71.8201 Z " fill="#000000"/><text fill="#D8BC00" font-family="Open Sans,Avenir,Nunito,Arial,Helvetica,SansSerif" font-size="12.5" font-weight="bold" lengthAdjust="spacing" textLength="119.7917" x="84.375" y="74.1211">DebugViewerIcons</text><line style="stroke:#5E5E5E;stroke-width:1.0416666666666667;" x1="54.1667" x2="209.375" y1="85.0911" y2="85.0911"/><line style="stroke:#5E5E5E;stroke-width:1.0416666666666667;" x1="54.1667" x2="209.375" y1="93.4245" y2="93.4245"/><rect codeLine="11" fill="#282828" height="48.055" id="DebugViewerStyles" rx="8.3333" ry="8.3333" style="stroke:#5E5E5E;stroke-width:1.0416666666666667;" width="161.4583" x="246.875" y="53.7028"/><rect fill="#1B1B1A" height="31.3883" rx="8.3333" ry="8.3333" style="stroke:#1B1B1A;stroke-width:1.0416666666666667;" width="161.4583" x="246.875" y="53.7028"/><rect fill="#1B1B1A" height="8.3333" style="stroke:#1B1B1A;stroke-width:1.0416666666666667;" width="161.4583" x="246.875" y="76.7578"/><rect codeLine="11" fill="none" height="48.055" id="DebugViewerStyles" rx="8.3333" ry="8.3333" style="stroke:#5E5E5E;stroke-width:1.0416666666666667;" width="161.4583" x="246.875" y="53.7028"/><ellipse cx="261.4583" cy="69.397" fill="#0066CF" rx="10.4167" ry="10.4167" style="stroke:#0086EF;stroke-width:1.0416666666666667;"/><path d="M263.3687,73.822 Q262.9415,74.0417 262.4715,74.1516 Q262.0015,74.2615 261.4827,74.2615 Q259.6395,74.2615 258.669,73.0469 Q257.6986,71.8323 257.6986,69.5374 Q257.6986,67.2363 258.669,66.0217 Q259.6395,64.8071 261.4827,64.8071 Q262.0015,64.8071 262.4776,64.917 Q262.9537,65.0269 263.3687,65.2466 L263.3687,67.2485 Q262.9049,66.8213 262.4685,66.6229 Q262.0321,66.4246 261.5682,66.4246 Q260.5794,66.4246 260.0759,67.2089 Q259.5723,67.9932 259.5723,69.5374 Q259.5723,71.0754 260.0759,71.8597 Q260.5794,72.644 261.5682,72.644 Q262.0321,72.644 262.4685,72.4457 Q262.9049,72.2473 263.3687,71.8201 Z " fill="#000000"/><text fill="#D8BC00" font-family="Open Sans,Avenir,Nunito,Arial,Helvetica,SansSerif" font-size="12.5" font-weight="bold" lengthAdjust="spacing" textLength="123.9583" x="278.125" y="74.1211">DebugViewerStyles</text><line style="stroke:#5E5E5E;stroke-width:1.0416666666666667;" x1="247.9167" x2="407.2917" y1="85.0911" y2="85.0911"/><line style="stroke:#5E5E5E;stroke-width:1.0416666666666667;" x1="247.9167" x2="407.2917" y1="93.4245" y2="93.4245"/></g></svg>
