<?xml version="1.0" encoding="UTF-8" standalone="no"?><svg xmlns="http://www.w3.org/2000/svg" xmlns:xlink="http://www.w3.org/1999/xlink" contentScriptType="application/ecmascript" contentStyleType="text/css" height="218.75px" preserveAspectRatio="none" style="width:620px;height:218px;background:#333333;" version="1.1" viewBox="0 0 620 218" width="620.8333px" zoomAndPan="magnify"><defs/><g><rect fill="#48494B" height="41.2028" rx="8.3333" ry="8.3333" style="stroke:#545454;stroke-width:1.0416666666666667;" width="608.3333" x="2.0833" y="2.0833"/><text fill="#C0C0C0" font-family="Open Sans,Avenir,Nunito,Arial,Helvetica,SansSerif" font-size="20.8333" lengthAdjust="spacing" textLength="585.4167" x="13.5417" y="30.5583">com.telenav.mesakit.graph.relations.restrictions.classifiers</text><rect codeLine="7" fill="#282828" height="48.055" id="EdgeClassifier" rx="8.3333" ry="8.3333" style="stroke:#5E5E5E;stroke-width:1.0416666666666667;" width="130.2083" x="111.7188" y="53.7028"/><rect fill="#1B1B1A" height="31.3883" rx="8.3333" ry="8.3333" style="stroke:#1B1B1A;stroke-width:1.0416666666666667;" width="130.2083" x="111.7188" y="53.7028"/><rect fill="#1B1B1A" height="8.3333" style="stroke:#1B1B1A;stroke-width:1.0416666666666667;" width="130.2083" x="111.7188" y="76.7578"/><rect codeLine="7" fill="none" height="48.055" id="EdgeClassifier" rx="8.3333" ry="8.3333" style="stroke:#5E5E5E;stroke-width:1.0416666666666667;" width="130.2083" x="111.7188" y="53.7028"/><ellipse cx="126.3021" cy="69.397" fill="#008400" rx="10.4167" ry="10.4167" style="stroke:#239C23;stroke-width:1.0416666666666667;"/><path d="M123.7061,66.5588 L123.7061,64.9719 L129.1321,64.9719 L129.1321,66.5588 L127.3193,66.5588 L127.3193,72.4976 L129.1321,72.4976 L129.1321,74.0845 L123.7061,74.0845 L123.7061,72.4976 L125.5188,72.4976 L125.5188,66.5588 Z " fill="#000000"/><text fill="#D8BC00" font-family="Open Sans,Avenir,Nunito,Arial,Helvetica,SansSerif" font-size="12.5" font-style="italic" font-weight="bold" lengthAdjust="spacing" textLength="92.7083" x="142.9688" y="74.1211">EdgeClassifier</text><line style="stroke:#5E5E5E;stroke-width:1.0416666666666667;" x1="112.7604" x2="240.8854" y1="85.0911" y2="85.0911"/><line style="stroke:#5E5E5E;stroke-width:1.0416666666666667;" x1="112.7604" x2="240.8854" y1="93.4245" y2="93.4245"/><rect codeLine="8" fill="#282828" height="48.055" id="TurnClassifier" rx="8.3333" ry="8.3333" style="stroke:#5E5E5E;stroke-width:1.0416666666666667;" width="129.1667" x="370.5729" y="53.7028"/><rect fill="#1B1B1A" height="31.3883" rx="8.3333" ry="8.3333" style="stroke:#1B1B1A;stroke-width:1.0416666666666667;" width="129.1667" x="370.5729" y="53.7028"/><rect fill="#1B1B1A" height="8.3333" style="stroke:#1B1B1A;stroke-width:1.0416666666666667;" width="129.1667" x="370.5729" y="76.7578"/><rect codeLine="8" fill="none" height="48.055" id="TurnClassifier" rx="8.3333" ry="8.3333" style="stroke:#5E5E5E;stroke-width:1.0416666666666667;" width="129.1667" x="370.5729" y="53.7028"/><ellipse cx="385.1563" cy="69.397" fill="#008400" rx="10.4167" ry="10.4167" style="stroke:#239C23;stroke-width:1.0416666666666667;"/><path d="M382.5602,66.5588 L382.5602,64.9719 L387.9862,64.9719 L387.9862,66.5588 L386.1735,66.5588 L386.1735,72.4976 L387.9862,72.4976 L387.9862,74.0845 L382.5602,74.0845 L382.5602,72.4976 L384.373,72.4976 L384.373,66.5588 Z " fill="#000000"/><text fill="#D8BC00" font-family="Open Sans,Avenir,Nunito,Arial,Helvetica,SansSerif" font-size="12.5" font-style="italic" font-weight="bold" lengthAdjust="spacing" textLength="91.6667" x="401.8229" y="74.1211">TurnClassifier</text><line style="stroke:#5E5E5E;stroke-width:1.0416666666666667;" x1="371.6146" x2="498.6979" y1="85.0911" y2="85.0911"/><line style="stroke:#5E5E5E;stroke-width:1.0416666666666667;" x1="371.6146" x2="498.6979" y1="93.4245" y2="93.4245"/><rect codeLine="11" fill="#282828" height="48.055" id="TurnRestrictionsClassifier" rx="8.3333" ry="8.3333" style="stroke:#5E5E5E;stroke-width:1.0416666666666667;" width="206.25" x="73.6979" y="164.1195"/><rect fill="#1B1B1A" height="31.3883" rx="8.3333" ry="8.3333" style="stroke:#1B1B1A;stroke-width:1.0416666666666667;" width="206.25" x="73.6979" y="164.1195"/><rect fill="#1B1B1A" height="8.3333" style="stroke:#1B1B1A;stroke-width:1.0416666666666667;" width="206.25" x="73.6979" y="187.1745"/><rect codeLine="11" fill="none" height="48.055" id="TurnRestrictionsClassifier" rx="8.3333" ry="8.3333" style="stroke:#5E5E5E;stroke-width:1.0416666666666667;" width="206.25" x="73.6979" y="164.1195"/><ellipse cx="88.2813" cy="179.8136" fill="#0066CF" rx="10.4167" ry="10.4167" style="stroke:#0086EF;stroke-width:1.0416666666666667;"/><path d="M90.1917,184.2387 Q89.7644,184.4584 89.2944,184.5683 Q88.8245,184.6781 88.3057,184.6781 Q86.4624,184.6781 85.4919,183.4635 Q84.5215,182.2489 84.5215,179.954 Q84.5215,177.653 85.4919,176.4384 Q86.4624,175.2238 88.3057,175.2238 Q88.8245,175.2238 89.3005,175.3337 Q89.7766,175.4435 90.1917,175.6632 L90.1917,177.6652 Q89.7278,177.238 89.2914,177.0396 Q88.855,176.8412 88.3911,176.8412 Q87.4023,176.8412 86.8988,177.6255 Q86.3953,178.4098 86.3953,179.954 Q86.3953,181.4921 86.8988,182.2764 Q87.4023,183.0607 88.3911,183.0607 Q88.855,183.0607 89.2914,182.8623 Q89.7278,182.664 90.1917,182.2367 Z " fill="#000000"/><text fill="#D8BC00" font-family="Open Sans,Avenir,Nunito,Arial,Helvetica,SansSerif" font-size="12.5" font-weight="bold" lengthAdjust="spacing" textLength="168.75" x="104.9479" y="184.5378">TurnRestrictionsClassifier</text><line style="stroke:#5E5E5E;stroke-width:1.0416666666666667;" x1="74.7396" x2="278.9063" y1="195.5078" y2="195.5078"/><line style="stroke:#5E5E5E;stroke-width:1.0416666666666667;" x1="74.7396" x2="278.9063" y1="203.8411" y2="203.8411"/><rect codeLine="16" fill="#282828" height="48.055" id="TurnRestrictionsTurnClassifier" rx="8.3333" ry="8.3333" style="stroke:#5E5E5E;stroke-width:1.0416666666666667;" width="236.4583" x="316.9271" y="164.1195"/><rect fill="#1B1B1A" height="31.3883" rx="8.3333" ry="8.3333" style="stroke:#1B1B1A;stroke-width:1.0416666666666667;" width="236.4583" x="316.9271" y="164.1195"/><rect fill="#1B1B1A" height="8.3333" style="stroke:#1B1B1A;stroke-width:1.0416666666666667;" width="236.4583" x="316.9271" y="187.1745"/><rect codeLine="16" fill="none" height="48.055" id="TurnRestrictionsTurnClassifier" rx="8.3333" ry="8.3333" style="stroke:#5E5E5E;stroke-width:1.0416666666666667;" width="236.4583" x="316.9271" y="164.1195"/><ellipse cx="331.5104" cy="179.8136" fill="#0066CF" rx="10.4167" ry="10.4167" style="stroke:#0086EF;stroke-width:1.0416666666666667;"/><path d="M333.4208,184.2387 Q332.9936,184.4584 332.5236,184.5683 Q332.0536,184.6781 331.5348,184.6781 Q329.6916,184.6781 328.7211,183.4635 Q327.7507,182.2489 327.7507,179.954 Q327.7507,177.653 328.7211,176.4384 Q329.6916,175.2238 331.5348,175.2238 Q332.0536,175.2238 332.5297,175.3337 Q333.0058,175.4435 333.4208,175.6632 L333.4208,177.6652 Q332.9569,177.238 332.5205,177.0396 Q332.0841,176.8412 331.6203,176.8412 Q330.6315,176.8412 330.128,177.6255 Q329.6244,178.4098 329.6244,179.954 Q329.6244,181.4921 330.128,182.2764 Q330.6315,183.0607 331.6203,183.0607 Q332.0841,183.0607 332.5205,182.8623 Q332.9569,182.664 333.4208,182.2367 Z " fill="#000000"/><text fill="#D8BC00" font-family="Open Sans,Avenir,Nunito,Arial,Helvetica,SansSerif" font-size="12.5" font-weight="bold" lengthAdjust="spacing" textLength="198.9583" x="348.1771" y="184.5378">TurnRestrictionsTurnClassifier</text><line style="stroke:#5E5E5E;stroke-width:1.0416666666666667;" x1="317.9688" x2="552.3438" y1="195.5078" y2="195.5078"/><line style="stroke:#5E5E5E;stroke-width:1.0416666666666667;" x1="317.9688" x2="552.3438" y1="203.8411" y2="203.8411"/><path codeLine="10" d="M176.8229,122.6195 C176.8229,136.8382 176.8229,152.0361 176.8229,164.0986 " fill="none" id="EdgeClassifier-backto-TurnRestrictionsClassifier" style="stroke:#545454;stroke-width:1.5625;"/><polygon fill="none" points="169.5313,122.5153,176.8229,101.682,184.1146,122.5153,169.5313,122.5153" style="stroke:#545454;stroke-width:1.5625;"/><path codeLine="15" d="M435.1563,122.6195 C435.1563,136.8382 435.1563,152.0361 435.1563,164.0986 " fill="none" id="TurnClassifier-backto-TurnRestrictionsTurnClassifier" style="stroke:#545454;stroke-width:1.5625;"/><polygon fill="none" points="427.8646,122.5153,435.1563,101.682,442.4479,122.5153,427.8646,122.5153" style="stroke:#545454;stroke-width:1.5625;"/></g></svg>
