<?xml version="1.0" encoding="UTF-8" standalone="no"?><svg xmlns="http://www.w3.org/2000/svg" xmlns:xlink="http://www.w3.org/1999/xlink" contentScriptType="application/ecmascript" contentStyleType="text/css" height="254.1667px" preserveAspectRatio="none" style="width:894px;height:254px;background:#333333;" version="1.1" viewBox="0 0 894 254" width="894.7917px" zoomAndPan="magnify"><defs/><g><rect fill="#48494B" height="41.2028" rx="8.3333" ry="8.3333" style="stroke:#545454;stroke-width:1.0416666666666667;" width="882.2917" x="2.0833" y="2.0833"/><text fill="#C0C0C0" font-family="Open Sans,Avenir,Nunito,Arial,Helvetica,SansSerif" font-size="20.8333" lengthAdjust="spacing" textLength="859.375" x="13.5417" y="30.5583">com.telenav.mesakit.graph.specifications.osm.graph.edge.model.attributes.extractors</text><rect codeLine="7" fill="#282828" height="48.055" id="BaseExtractor" rx="8.3333" ry="8.3333" style="stroke:#5E5E5E;stroke-width:1.0416666666666667;" width="125" x="392.1875" y="53.7028"/><rect fill="#1B1B1A" height="31.3883" rx="8.3333" ry="8.3333" style="stroke:#1B1B1A;stroke-width:1.0416666666666667;" width="125" x="392.1875" y="53.7028"/><rect fill="#1B1B1A" height="8.3333" style="stroke:#1B1B1A;stroke-width:1.0416666666666667;" width="125" x="392.1875" y="76.7578"/><rect codeLine="7" fill="none" height="48.055" id="BaseExtractor" rx="8.3333" ry="8.3333" style="stroke:#5E5E5E;stroke-width:1.0416666666666667;" width="125" x="392.1875" y="53.7028"/><ellipse cx="406.7708" cy="69.397" fill="#C8AC00" rx="10.4167" ry="10.4167" style="stroke:#D8BC00;stroke-width:1.0416666666666667;"/><path d="M406.3639,66.099 L405.5155,69.8283 L407.2184,69.8283 Z M405.2653,64.4511 L407.4687,64.4511 L409.9284,73.5636 L408.1278,73.5636 L407.5663,71.3114 L405.1554,71.3114 L404.6061,73.5636 L402.8056,73.5636 Z " fill="#000000"/><text fill="#D8BC00" font-family="Open Sans,Avenir,Nunito,Arial,Helvetica,SansSerif" font-size="12.5" font-style="italic" font-weight="bold" lengthAdjust="spacing" textLength="87.5" x="423.4375" y="74.1211">BaseExtractor</text><line style="stroke:#5E5E5E;stroke-width:1.0416666666666667;" x1="393.2292" x2="516.1458" y1="85.0911" y2="85.0911"/><line style="stroke:#5E5E5E;stroke-width:1.0416666666666667;" x1="393.2292" x2="516.1458" y1="93.4245" y2="93.4245"/><rect codeLine="10" fill="#282828" height="83.3781" id="LastModifierExtractor" rx="8.3333" ry="8.3333" style="stroke:#5E5E5E;stroke-width:1.0416666666666667;" width="206.25" x="47.3958" y="164.1195"/><rect fill="#1B1B1A" height="31.3883" rx="8.3333" ry="8.3333" style="stroke:#1B1B1A;stroke-width:1.0416666666666667;" width="206.25" x="47.3958" y="164.1195"/><rect fill="#1B1B1A" height="8.3333" style="stroke:#1B1B1A;stroke-width:1.0416666666666667;" width="206.25" x="47.3958" y="187.1745"/><rect codeLine="10" fill="none" height="83.3781" id="LastModifierExtractor" rx="8.3333" ry="8.3333" style="stroke:#5E5E5E;stroke-width:1.0416666666666667;" width="206.25" x="47.3958" y="164.1195"/><ellipse cx="75.5729" cy="179.8136" fill="#0066CF" rx="10.4167" ry="10.4167" style="stroke:#0086EF;stroke-width:1.0416666666666667;"/><path d="M77.4833,184.2387 Q77.0561,184.4584 76.5861,184.5683 Q76.1161,184.6781 75.5973,184.6781 Q73.7541,184.6781 72.7836,183.4635 Q71.8132,182.2489 71.8132,179.954 Q71.8132,177.653 72.7836,176.4384 Q73.7541,175.2238 75.5973,175.2238 Q76.1161,175.2238 76.5922,175.3337 Q77.0683,175.4435 77.4833,175.6632 L77.4833,177.6652 Q77.0194,177.238 76.583,177.0396 Q76.1466,176.8412 75.6828,176.8412 Q74.694,176.8412 74.1905,177.6255 Q73.6869,178.4098 73.6869,179.954 Q73.6869,181.4921 74.1905,182.2764 Q74.694,183.0607 75.6828,183.0607 Q76.1466,183.0607 76.583,182.8623 Q77.0194,182.664 77.4833,182.2367 Z " fill="#000000"/><text fill="#D8BC00" font-family="Open Sans,Avenir,Nunito,Arial,Helvetica,SansSerif" font-size="12.5" font-weight="bold" lengthAdjust="spacing" textLength="138.5417" x="95.2604" y="184.5378">LastModifierExtractor</text><line style="stroke:#5E5E5E;stroke-width:1.5625;" x1="48.4375" x2="252.6042" y1="195.5078" y2="195.5078"/><ellipse cx="58.8542" cy="230.8777" fill="#84BE84" rx="3.125" ry="3.125" style="stroke:#038048;stroke-width:1.0416666666666667;"/><text fill="#D8BC00" font-family="Open Sans,Avenir,Nunito,Arial,Helvetica,SansSerif" font-size="11.4583" lengthAdjust="spacing" textLength="173.9583" x="70.3125" y="237.7889">LastModifierExtractor(Listener)</text><line style="stroke:#5E5E5E;stroke-width:1.0416666666666667;" x1="48.4375" x2="106.7708" y1="213.7136" y2="213.7136"/><text fill="#D8BC00" font-family="Open Sans,Avenir,Nunito,Arial,Helvetica,SansSerif" font-size="11.4583" lengthAdjust="spacing" textLength="81.25" x="109.8958" y="217.5232">(constructors)</text><line style="stroke:#5E5E5E;stroke-width:1.0416666666666667;" x1="194.2708" x2="252.6042" y1="213.7136" y2="213.7136"/><rect codeLine="17" fill="#282828" height="83.3781" id="PlaceExtractor" rx="8.3333" ry="8.3333" style="stroke:#5E5E5E;stroke-width:1.0416666666666667;" width="328.125" x="290.625" y="164.1195"/><rect fill="#1B1B1A" height="31.3883" rx="8.3333" ry="8.3333" style="stroke:#1B1B1A;stroke-width:1.0416666666666667;" width="328.125" x="290.625" y="164.1195"/><rect fill="#1B1B1A" height="8.3333" style="stroke:#1B1B1A;stroke-width:1.0416666666666667;" width="328.125" x="290.625" y="187.1745"/><rect codeLine="17" fill="none" height="83.3781" id="PlaceExtractor" rx="8.3333" ry="8.3333" style="stroke:#5E5E5E;stroke-width:1.0416666666666667;" width="328.125" x="290.625" y="164.1195"/><ellipse cx="402.6042" cy="179.8136" fill="#0066CF" rx="10.4167" ry="10.4167" style="stroke:#0086EF;stroke-width:1.0416666666666667;"/><path d="M404.5146,184.2387 Q404.0873,184.4584 403.6174,184.5683 Q403.1474,184.6781 402.6286,184.6781 Q400.7853,184.6781 399.8149,183.4635 Q398.8444,182.2489 398.8444,179.954 Q398.8444,177.653 399.8149,176.4384 Q400.7853,175.2238 402.6286,175.2238 Q403.1474,175.2238 403.6235,175.3337 Q404.0995,175.4435 404.5146,175.6632 L404.5146,177.6652 Q404.0507,177.238 403.6143,177.0396 Q403.1779,176.8412 402.714,176.8412 Q401.7253,176.8412 401.2217,177.6255 Q400.7182,178.4098 400.7182,179.954 Q400.7182,181.4921 401.2217,182.2764 Q401.7253,183.0607 402.714,183.0607 Q403.1779,183.0607 403.6143,182.8623 Q404.0507,182.664 404.5146,182.2367 Z " fill="#000000"/><text fill="#D8BC00" font-family="Open Sans,Avenir,Nunito,Arial,Helvetica,SansSerif" font-size="12.5" font-weight="bold" lengthAdjust="spacing" textLength="89.5833" x="425.5208" y="184.5378">PlaceExtractor</text><line style="stroke:#5E5E5E;stroke-width:1.5625;" x1="291.6667" x2="617.7083" y1="195.5078" y2="195.5078"/><ellipse cx="302.0833" cy="230.8777" fill="#84BE84" rx="3.125" ry="3.125" style="stroke:#038048;stroke-width:1.0416666666666667;"/><text fill="#D8BC00" font-family="Open Sans,Avenir,Nunito,Arial,Helvetica,SansSerif" font-size="11.4583" lengthAdjust="spacing" textLength="295.8333" x="313.5417" y="237.7889">PlaceExtractor(Listener, Metadata, LocationExtractor)</text><line style="stroke:#5E5E5E;stroke-width:1.0416666666666667;" x1="291.6667" x2="410.9375" y1="213.7136" y2="213.7136"/><text fill="#D8BC00" font-family="Open Sans,Avenir,Nunito,Arial,Helvetica,SansSerif" font-size="11.4583" lengthAdjust="spacing" textLength="81.25" x="414.0625" y="217.5232">(constructors)</text><line style="stroke:#5E5E5E;stroke-width:1.0416666666666667;" x1="498.4375" x2="617.7083" y1="213.7136" y2="213.7136"/><rect codeLine="24" fill="#282828" height="83.3781" id="SpeedLimitExtractor" rx="8.3333" ry="8.3333" style="stroke:#5E5E5E;stroke-width:1.0416666666666667;" width="197.9167" x="655.7292" y="164.1195"/><rect fill="#1B1B1A" height="31.3883" rx="8.3333" ry="8.3333" style="stroke:#1B1B1A;stroke-width:1.0416666666666667;" width="197.9167" x="655.7292" y="164.1195"/><rect fill="#1B1B1A" height="8.3333" style="stroke:#1B1B1A;stroke-width:1.0416666666666667;" width="197.9167" x="655.7292" y="187.1745"/><rect codeLine="24" fill="none" height="83.3781" id="SpeedLimitExtractor" rx="8.3333" ry="8.3333" style="stroke:#5E5E5E;stroke-width:1.0416666666666667;" width="197.9167" x="655.7292" y="164.1195"/><ellipse cx="684.375" cy="179.8136" fill="#0066CF" rx="10.4167" ry="10.4167" style="stroke:#0086EF;stroke-width:1.0416666666666667;"/><path d="M686.2854,184.2387 Q685.8582,184.4584 685.3882,184.5683 Q684.9182,184.6781 684.3994,184.6781 Q682.5562,184.6781 681.5857,183.4635 Q680.6152,182.2489 680.6152,179.954 Q680.6152,177.653 681.5857,176.4384 Q682.5562,175.2238 684.3994,175.2238 Q684.9182,175.2238 685.3943,175.3337 Q685.8704,175.4435 686.2854,175.6632 L686.2854,177.6652 Q685.8215,177.238 685.3851,177.0396 Q684.9487,176.8412 684.4849,176.8412 Q683.4961,176.8412 682.9926,177.6255 Q682.489,178.4098 682.489,179.954 Q682.489,181.4921 682.9926,182.2764 Q683.4961,183.0607 684.4849,183.0607 Q684.9487,183.0607 685.3851,182.8623 Q685.8215,182.664 686.2854,182.2367 Z " fill="#000000"/><text fill="#D8BC00" font-family="Open Sans,Avenir,Nunito,Arial,Helvetica,SansSerif" font-size="12.5" font-weight="bold" lengthAdjust="spacing" textLength="129.1667" x="704.1667" y="184.5378">SpeedLimitExtractor</text><line style="stroke:#5E5E5E;stroke-width:1.5625;" x1="656.7708" x2="852.6042" y1="195.5078" y2="195.5078"/><ellipse cx="667.1875" cy="230.8777" fill="#84BE84" rx="3.125" ry="3.125" style="stroke:#038048;stroke-width:1.0416666666666667;"/><text fill="#D8BC00" font-family="Open Sans,Avenir,Nunito,Arial,Helvetica,SansSerif" font-size="11.4583" lengthAdjust="spacing" textLength="165.625" x="678.6458" y="237.7889">SpeedLimitExtractor(Listener)</text><line style="stroke:#5E5E5E;stroke-width:1.0416666666666667;" x1="656.7708" x2="710.9375" y1="213.7136" y2="213.7136"/><text fill="#D8BC00" font-family="Open Sans,Avenir,Nunito,Arial,Helvetica,SansSerif" font-size="11.4583" lengthAdjust="spacing" textLength="81.25" x="714.0625" y="217.5232">(constructors)</text><line style="stroke:#5E5E5E;stroke-width:1.0416666666666667;" x1="798.4375" x2="852.6042" y1="213.7136" y2="213.7136"/><path codeLine="9" d="M379.8021,109.734 C340.25,126.1299 291.2083,146.4424 248.6458,164.0778 " fill="none" id="BaseExtractor-backto-LastModifierExtractor" style="stroke:#545454;stroke-width:1.5625;"/><polygon fill="none" points="377.2188,102.9111,399.25,101.6715,382.8021,116.3903,377.2188,102.9111" style="stroke:#545454;stroke-width:1.5625;"/><path codeLine="16" d="M454.6875,122.682 C454.6875,136.0778 454.6875,150.7445 454.6875,163.9215 " fill="none" id="BaseExtractor-backto-PlaceExtractor" style="stroke:#545454;stroke-width:1.5625;"/><polygon fill="none" points="447.3958,122.6507,454.6875,101.8174,461.9792,122.6507,447.3958,122.6507" style="stroke:#545454;stroke-width:1.5625;"/><path codeLine="23" d="M528.8125,109.8486 C567.7813,126.2132 616.0208,146.484 657.9063,164.0778 " fill="none" id="BaseExtractor-backto-SpeedLimitExtractor" style="stroke:#545454;stroke-width:1.5625;"/><polygon fill="none" points="525.75,116.4632,509.3646,101.6715,531.3958,103.0257,525.75,116.4632" style="stroke:#545454;stroke-width:1.5625;"/></g></svg>
