<?xml version="1.0" encoding="UTF-8" standalone="no"?><svg xmlns="http://www.w3.org/2000/svg" xmlns:xlink="http://www.w3.org/1999/xlink" contentScriptType="application/ecmascript" contentStyleType="text/css" height="282.2917px" preserveAspectRatio="none" style="width:715px;height:282px;background:#333333;" version="1.1" viewBox="0 0 715 282" width="715.625px" zoomAndPan="magnify"><defs/><g><rect fill="#48494B" height="41.2028" rx="8.3333" ry="8.3333" style="stroke:#545454;stroke-width:1.0416666666666667;" width="703.125" x="2.0833" y="2.0833"/><text fill="#C0C0C0" font-family="Open Sans,Avenir,Nunito,Arial,Helvetica,SansSerif" font-size="20.8333" lengthAdjust="spacing" textLength="680.2083" x="13.5417" y="30.5583">com.telenav.mesakit.graph.specifications.common.shapepoint.store</text><rect fill="#282828" height="48.055" id="NodeStore" rx="8.3333" ry="8.3333" style="stroke:#5E5E5E;stroke-width:1.0416666666666667;" width="104.1667" x="308.8542" y="53.7028"/><rect fill="#1B1B1A" height="31.3883" rx="8.3333" ry="8.3333" style="stroke:#1B1B1A;stroke-width:1.0416666666666667;" width="104.1667" x="308.8542" y="53.7028"/><rect fill="#1B1B1A" height="8.3333" style="stroke:#1B1B1A;stroke-width:1.0416666666666667;" width="104.1667" x="308.8542" y="76.7578"/><rect fill="none" height="48.055" id="NodeStore" rx="8.3333" ry="8.3333" style="stroke:#5E5E5E;stroke-width:1.0416666666666667;" width="104.1667" x="308.8542" y="53.7028"/><ellipse cx="323.4375" cy="69.397" fill="#0066CF" rx="10.4167" ry="10.4167" style="stroke:#0086EF;stroke-width:1.0416666666666667;"/><path d="M325.3479,73.822 Q324.9207,74.0417 324.4507,74.1516 Q323.9807,74.2615 323.4619,74.2615 Q321.6187,74.2615 320.6482,73.0469 Q319.6777,71.8323 319.6777,69.5374 Q319.6777,67.2363 320.6482,66.0217 Q321.6187,64.8071 323.4619,64.8071 Q323.9807,64.8071 324.4568,64.917 Q324.9329,65.0269 325.3479,65.2466 L325.3479,67.2485 Q324.884,66.8213 324.4476,66.6229 Q324.0112,66.4246 323.5474,66.4246 Q322.5586,66.4246 322.0551,67.2089 Q321.5515,67.9932 321.5515,69.5374 Q321.5515,71.0754 322.0551,71.8597 Q322.5586,72.644 323.5474,72.644 Q324.0112,72.644 324.4476,72.4457 Q324.884,72.2473 325.3479,71.8201 Z " fill="#000000"/><text fill="#D8BC00" font-family="Open Sans,Avenir,Nunito,Arial,Helvetica,SansSerif" font-size="12.5" font-weight="bold" lengthAdjust="spacing" textLength="66.6667" x="340.1042" y="74.1211">NodeStore</text><line style="stroke:#5E5E5E;stroke-width:1.0416666666666667;" x1="309.8958" x2="411.9792" y1="85.0911" y2="85.0911"/><line style="stroke:#5E5E5E;stroke-width:1.0416666666666667;" x1="309.8958" x2="411.9792" y1="93.4245" y2="93.4245"/><rect codeLine="8" fill="#282828" height="111.4563" id="ShapePointStore" rx="8.3333" ry="8.3333" style="stroke:#5E5E5E;stroke-width:1.0416666666666667;" width="217.7083" x="252.0833" y="164.1195"/><rect fill="#1B1B1A" height="31.3883" rx="8.3333" ry="8.3333" style="stroke:#1B1B1A;stroke-width:1.0416666666666667;" width="217.7083" x="252.0833" y="164.1195"/><rect fill="#1B1B1A" height="8.3333" style="stroke:#1B1B1A;stroke-width:1.0416666666666667;" width="217.7083" x="252.0833" y="187.1745"/><rect codeLine="8" fill="none" height="111.4563" id="ShapePointStore" rx="8.3333" ry="8.3333" style="stroke:#5E5E5E;stroke-width:1.0416666666666667;" width="217.7083" x="252.0833" y="164.1195"/><ellipse cx="301.0417" cy="179.8136" fill="#0066CF" rx="10.4167" ry="10.4167" style="stroke:#0086EF;stroke-width:1.0416666666666667;"/><path d="M302.9521,184.2387 Q302.5248,184.4584 302.0549,184.5683 Q301.5849,184.6781 301.0661,184.6781 Q299.2228,184.6781 298.2524,183.4635 Q297.2819,182.2489 297.2819,179.954 Q297.2819,177.653 298.2524,176.4384 Q299.2228,175.2238 301.0661,175.2238 Q301.5849,175.2238 302.061,175.3337 Q302.537,175.4435 302.9521,175.6632 L302.9521,177.6652 Q302.4882,177.238 302.0518,177.0396 Q301.6154,176.8412 301.1515,176.8412 Q300.1628,176.8412 299.6592,177.6255 Q299.1557,178.4098 299.1557,179.954 Q299.1557,181.4921 299.6592,182.2764 Q300.1628,183.0607 301.1515,183.0607 Q301.6154,183.0607 302.0518,182.8623 Q302.4882,182.664 302.9521,182.2367 Z " fill="#000000"/><text fill="#D8BC00" font-family="Open Sans,Avenir,Nunito,Arial,Helvetica,SansSerif" font-size="12.5" font-weight="bold" lengthAdjust="spacing" textLength="105.2083" x="323.9583" y="184.5378">ShapePointStore</text><line style="stroke:#5E5E5E;stroke-width:1.5625;" x1="253.125" x2="468.75" y1="195.5078" y2="195.5078"/><ellipse cx="263.5417" cy="230.8777" fill="#84BE84" rx="3.125" ry="3.125" style="stroke:#038048;stroke-width:1.0416666666666667;"/><text fill="#D8BC00" font-family="Open Sans,Avenir,Nunito,Arial,Helvetica,SansSerif" font-size="11.4583" lengthAdjust="spacing" textLength="133.3333" x="275" y="237.7889">ShapePointStore(Graph)</text><line style="stroke:#5E5E5E;stroke-width:1.0416666666666667;" x1="253.125" x2="317.1875" y1="213.7136" y2="213.7136"/><text fill="#D8BC00" font-family="Open Sans,Avenir,Nunito,Arial,Helvetica,SansSerif" font-size="11.4583" lengthAdjust="spacing" textLength="81.25" x="320.3125" y="217.5232">(constructors)</text><line style="stroke:#5E5E5E;stroke-width:1.0416666666666667;" x1="404.6875" x2="468.75" y1="213.7136" y2="213.7136"/><line style="stroke:#5E5E5E;stroke-width:1.0416666666666667;" x1="253.125" x2="468.75" y1="247.4976" y2="247.4976"/><ellipse cx="263.5417" cy="258.9559" fill="#84BE84" rx="3.125" ry="3.125" style="stroke:#038048;stroke-width:1.0416666666666667;"/><text fill="#D8BC00" font-family="Open Sans,Avenir,Nunito,Arial,Helvetica,SansSerif" font-size="11.4583" lengthAdjust="spacing" textLength="185.4167" x="275" y="265.8671">ShapePoint forLocation(Location)</text><path codeLine="7" d="M360.9375,122.7028 C360.9375,135.7549 360.9375,150.2028 360.9375,163.859 " fill="none" id="NodeStore-backto-ShapePointStore" style="stroke:#545454;stroke-width:1.5625;"/><polygon fill="none" points="353.6458,122.6715,360.9375,101.8382,368.2292,122.6715,353.6458,122.6715" style="stroke:#545454;stroke-width:1.5625;"/></g></svg>
