<?xml version="1.0" encoding="UTF-8" standalone="no"?><svg xmlns="http://www.w3.org/2000/svg" xmlns:xlink="http://www.w3.org/1999/xlink" contentScriptType="application/ecmascript" contentStyleType="text/css" height="429.1667px" preserveAspectRatio="none" style="width:866px;height:429px;background:#333333;" version="1.1" viewBox="0 0 866 429" width="866.6667px" zoomAndPan="magnify"><defs/><g><rect fill="#48494B" height="41.2028" rx="8.3333" ry="8.3333" style="stroke:#545454;stroke-width:1.0416666666666667;" width="615.625" x="118.4896" y="2.0833"/><text fill="#C0C0C0" font-family="Open Sans,Avenir,Nunito,Arial,Helvetica,SansSerif" font-size="20.8333" lengthAdjust="spacing" textLength="592.7083" x="129.9479" y="30.5583">com.telenav.mesakit.graph.specifications.library.properties</text><rect codeLine="7" fill="#282828" height="48.055" id="Comparable" rx="8.3333" ry="8.3333" style="stroke:#5E5E5E;stroke-width:1.0416666666666667;" width="115.625" x="142.7083" y="53.7028"/><rect fill="#1B1B1A" height="31.3883" rx="8.3333" ry="8.3333" style="stroke:#1B1B1A;stroke-width:1.0416666666666667;" width="115.625" x="142.7083" y="53.7028"/><rect fill="#1B1B1A" height="8.3333" style="stroke:#1B1B1A;stroke-width:1.0416666666666667;" width="115.625" x="142.7083" y="76.7578"/><rect codeLine="7" fill="none" height="48.055" id="Comparable" rx="8.3333" ry="8.3333" style="stroke:#5E5E5E;stroke-width:1.0416666666666667;" width="115.625" x="142.7083" y="53.7028"/><ellipse cx="157.2917" cy="69.397" fill="#008400" rx="10.4167" ry="10.4167" style="stroke:#239C23;stroke-width:1.0416666666666667;"/><path d="M154.6956,66.5588 L154.6956,64.9719 L160.1217,64.9719 L160.1217,66.5588 L158.3089,66.5588 L158.3089,72.4976 L160.1217,72.4976 L160.1217,74.0845 L154.6956,74.0845 L154.6956,72.4976 L156.5084,72.4976 L156.5084,66.5588 Z " fill="#000000"/><text fill="#D8BC00" font-family="Open Sans,Avenir,Nunito,Arial,Helvetica,SansSerif" font-size="12.5" font-style="italic" font-weight="bold" lengthAdjust="spacing" textLength="78.125" x="173.9583" y="74.1211">Comparable</text><line style="stroke:#5E5E5E;stroke-width:1.0416666666666667;" x1="143.75" x2="257.2917" y1="85.0911" y2="85.0911"/><line style="stroke:#5E5E5E;stroke-width:1.0416666666666667;" x1="143.75" x2="257.2917" y1="93.4245" y2="93.4245"/><rect codeLine="8" fill="#282828" height="48.055" id="Iterable" rx="8.3333" ry="8.3333" style="stroke:#5E5E5E;stroke-width:1.0416666666666667;" width="86.4583" x="598.9583" y="53.7028"/><rect fill="#1B1B1A" height="31.3883" rx="8.3333" ry="8.3333" style="stroke:#1B1B1A;stroke-width:1.0416666666666667;" width="86.4583" x="598.9583" y="53.7028"/><rect fill="#1B1B1A" height="8.3333" style="stroke:#1B1B1A;stroke-width:1.0416666666666667;" width="86.4583" x="598.9583" y="76.7578"/><rect codeLine="8" fill="none" height="48.055" id="Iterable" rx="8.3333" ry="8.3333" style="stroke:#5E5E5E;stroke-width:1.0416666666666667;" width="86.4583" x="598.9583" y="53.7028"/><ellipse cx="613.5417" cy="69.397" fill="#008400" rx="10.4167" ry="10.4167" style="stroke:#239C23;stroke-width:1.0416666666666667;"/><path d="M610.9456,66.5588 L610.9456,64.9719 L616.3717,64.9719 L616.3717,66.5588 L614.5589,66.5588 L614.5589,72.4976 L616.3717,72.4976 L616.3717,74.0845 L610.9456,74.0845 L610.9456,72.4976 L612.7584,72.4976 L612.7584,66.5588 Z " fill="#000000"/><text fill="#D8BC00" font-family="Open Sans,Avenir,Nunito,Arial,Helvetica,SansSerif" font-size="12.5" font-style="italic" font-weight="bold" lengthAdjust="spacing" textLength="48.9583" x="630.2083" y="74.1211">Iterable</text><line style="stroke:#5E5E5E;stroke-width:1.0416666666666667;" x1="600" x2="684.375" y1="85.0911" y2="85.0911"/><line style="stroke:#5E5E5E;stroke-width:1.0416666666666667;" x1="600" x2="684.375" y1="93.4245" y2="93.4245"/><rect codeLine="11" fill="#282828" height="258.0037" id="GraphElementProperty" rx="8.3333" ry="8.3333" style="stroke:#5E5E5E;stroke-width:1.0416666666666667;" width="382.2917" x="9.375" y="164.1195"/><rect fill="#1B1B1A" height="31.3883" rx="8.3333" ry="8.3333" style="stroke:#1B1B1A;stroke-width:1.0416666666666667;" width="382.2917" x="9.375" y="164.1195"/><rect fill="#1B1B1A" height="8.3333" style="stroke:#1B1B1A;stroke-width:1.0416666666666667;" width="382.2917" x="9.375" y="187.1745"/><rect codeLine="11" fill="none" height="258.0037" id="GraphElementProperty" rx="8.3333" ry="8.3333" style="stroke:#5E5E5E;stroke-width:1.0416666666666667;" width="382.2917" x="9.375" y="164.1195"/><ellipse cx="111.4583" cy="179.8136" fill="#C8AC00" rx="10.4167" ry="10.4167" style="stroke:#D8BC00;stroke-width:1.0416666666666667;"/><path d="M111.0514,176.5157 L110.203,180.245 L111.9059,180.245 Z M109.9528,174.8678 L112.1562,174.8678 L114.6159,183.9803 L112.8153,183.9803 L112.2538,181.7281 L109.8429,181.7281 L109.2936,183.9803 L107.4931,183.9803 Z " fill="#000000"/><text fill="#D8BC00" font-family="Open Sans,Avenir,Nunito,Arial,Helvetica,SansSerif" font-size="12.5" font-style="italic" font-weight="bold" lengthAdjust="spacing" textLength="144.7917" x="134.375" y="184.5378">GraphElementProperty</text><rect fill="#333333" height="23.055" style="stroke:#A0A0A0;stroke-width:1.0416666666666667;stroke-dasharray:2.0,2.0;" width="16.6667" x="378.125" y="160.9945"/><text fill="#A0A0A0" font-family="Open Sans,Avenir,Nunito,Arial,Helvetica,SansSerif" font-size="12.5" font-weight="bold" lengthAdjust="spacing" textLength="8.3333" x="382.2917" y="177.2461">T</text><line style="stroke:#5E5E5E;stroke-width:1.5625;" x1="10.4167" x2="390.625" y1="195.5078" y2="195.5078"/><polygon fill="#FFFF44" points="20.8333,225.6694,25,229.836,20.8333,234.0027,16.6667,229.836" style="stroke:#B38D22;stroke-width:1.0416666666666667;"/><text fill="#D8BC00" font-family="Open Sans,Avenir,Nunito,Arial,Helvetica,SansSerif" font-size="11.4583" lengthAdjust="spacing" textLength="350" x="32.2917" y="237.7889">GraphElementProperty(String, Attribute&lt;?&gt;, DataSpecification)</text><line style="stroke:#5E5E5E;stroke-width:1.0416666666666667;" x1="10.4167" x2="156.7708" y1="213.7136" y2="213.7136"/><text fill="#D8BC00" font-family="Open Sans,Avenir,Nunito,Arial,Helvetica,SansSerif" font-size="11.4583" lengthAdjust="spacing" textLength="81.25" x="159.8958" y="217.5232">(constructors)</text><line style="stroke:#5E5E5E;stroke-width:1.0416666666666667;" x1="244.2708" x2="390.625" y1="213.7136" y2="213.7136"/><line style="stroke:#5E5E5E;stroke-width:1.0416666666666667;" x1="10.4167" x2="390.625" y1="247.4976" y2="247.4976"/><ellipse cx="20.8333" cy="258.9559" fill="#84BE84" rx="3.125" ry="3.125" style="stroke:#038048;stroke-width:1.0416666666666667;"/><text fill="#D8BC00" font-family="Open Sans,Avenir,Nunito,Arial,Helvetica,SansSerif" font-size="11.4583" lengthAdjust="spacing" textLength="133.3333" x="32.2917" y="265.8671">Attribute&lt;?&gt; attribute()</text><ellipse cx="20.8333" cy="278.7008" fill="#84BE84" rx="3.125" ry="3.125" style="stroke:#038048;stroke-width:1.0416666666666667;"/><text fill="#D8BC00" font-family="Open Sans,Avenir,Nunito,Arial,Helvetica,SansSerif" font-size="11.4583" lengthAdjust="spacing" textLength="198.9583" x="32.2917" y="285.612">boolean matches(DataSpecification)</text><ellipse cx="20.8333" cy="298.4456" fill="#84BE84" rx="3.125" ry="3.125" style="stroke:#038048;stroke-width:1.0416666666666667;"/><text fill="#D8BC00" font-family="Open Sans,Avenir,Nunito,Arial,Helvetica,SansSerif" font-size="11.4583" lengthAdjust="spacing" textLength="161.4583" x="32.2917" y="305.3569">String string(Object element)</text><ellipse cx="20.8333" cy="318.1905" fill="#84BE84" rx="3.125" ry="3.125" style="stroke:#038048;stroke-width:1.0416666666666667;"/><text fill="#D8BC00" font-family="Open Sans,Avenir,Nunito,Arial,Helvetica,SansSerif" font-size="11.4583" lengthAdjust="spacing" textLength="226.0417" x="32.2917" y="325.1017">Object valueFromObject(Object element)</text><polygon fill="#FFFF44" points="20.8333,356.6386,25,360.8053,20.8333,364.9719,16.6667,360.8053" style="stroke:#B38D22;stroke-width:1.0416666666666667;"/><text fill="#D8BC00" font-family="Open Sans,Avenir,Nunito,Arial,Helvetica,SansSerif" font-size="11.4583" lengthAdjust="spacing" textLength="131.25" x="32.2917" y="368.7581">Object value(T element)</text><line style="stroke:#5E5E5E;stroke-width:1.0416666666666667;" x1="10.4167" x2="166.1458" y1="344.6828" y2="344.6828"/><text fill="#D8BC00" font-family="Open Sans,Avenir,Nunito,Arial,Helvetica,SansSerif" font-size="11.4583" lengthAdjust="spacing" textLength="62.5" x="169.2708" y="348.4924">(collection)</text><line style="stroke:#5E5E5E;stroke-width:1.0416666666666667;" x1="234.8958" x2="390.625" y1="344.6828" y2="344.6828"/><ellipse cx="20.8333" cy="405.5033" fill="#84BE84" rx="3.125" ry="3.125" style="stroke:#038048;stroke-width:1.0416666666666667;"/><text fill="#D8BC00" font-family="Open Sans,Avenir,Nunito,Arial,Helvetica,SansSerif" font-size="11.4583" lengthAdjust="spacing" textLength="75" x="32.2917" y="412.4146">String name()</text><line style="stroke:#5E5E5E;stroke-width:1.0416666666666667;" x1="10.4167" x2="172.3958" y1="388.3392" y2="388.3392"/><text fill="#D8BC00" font-family="Open Sans,Avenir,Nunito,Arial,Helvetica,SansSerif" font-size="11.4583" lengthAdjust="spacing" textLength="50" x="175.5208" y="392.1488">(naming)</text><line style="stroke:#5E5E5E;stroke-width:1.0416666666666667;" x1="228.6458" x2="390.625" y1="388.3392" y2="388.3392"/><rect codeLine="27" fill="#282828" height="122.8678" id="GraphElementPropertySet" rx="8.3333" ry="8.3333" style="stroke:#5E5E5E;stroke-width:1.0416666666666667;" width="427.0833" x="428.6458" y="231.8278"/><rect fill="#1B1B1A" height="31.3883" rx="8.3333" ry="8.3333" style="stroke:#1B1B1A;stroke-width:1.0416666666666667;" width="427.0833" x="428.6458" y="231.8278"/><rect fill="#1B1B1A" height="8.3333" style="stroke:#1B1B1A;stroke-width:1.0416666666666667;" width="427.0833" x="428.6458" y="254.8828"/><rect codeLine="27" fill="none" height="122.8678" id="GraphElementPropertySet" rx="8.3333" ry="8.3333" style="stroke:#5E5E5E;stroke-width:1.0416666666666667;" width="427.0833" x="428.6458" y="231.8278"/><ellipse cx="543.2292" cy="247.522" fill="#0066CF" rx="10.4167" ry="10.4167" style="stroke:#0086EF;stroke-width:1.0416666666666667;"/><path d="M545.1396,251.947 Q544.7123,252.1667 544.2424,252.2766 Q543.7724,252.3865 543.2536,252.3865 Q541.4103,252.3865 540.4399,251.1719 Q539.4694,249.9573 539.4694,247.6624 Q539.4694,245.3613 540.4399,244.1467 Q541.4103,242.9321 543.2536,242.9321 Q543.7724,242.9321 544.2485,243.042 Q544.7245,243.1519 545.1396,243.3716 L545.1396,245.3735 Q544.6757,244.9463 544.2393,244.7479 Q543.8029,244.5496 543.339,244.5496 Q542.3503,244.5496 541.8467,245.3339 Q541.3432,246.1182 541.3432,247.6624 Q541.3432,249.2004 541.8467,249.9847 Q542.3503,250.769 543.339,250.769 Q543.8029,250.769 544.2393,250.5707 Q544.6757,250.3723 545.1396,249.9451 Z " fill="#000000"/><text fill="#D8BC00" font-family="Open Sans,Avenir,Nunito,Arial,Helvetica,SansSerif" font-size="12.5" font-weight="bold" lengthAdjust="spacing" textLength="164.5833" x="566.1458" y="252.2461">GraphElementPropertySet</text><rect fill="#333333" height="23.055" style="stroke:#A0A0A0;stroke-width:1.0416666666666667;stroke-dasharray:2.0,2.0;" width="16.6667" x="842.1875" y="228.7028"/><text fill="#A0A0A0" font-family="Open Sans,Avenir,Nunito,Arial,Helvetica,SansSerif" font-size="12.5" font-weight="bold" lengthAdjust="spacing" textLength="8.3333" x="846.3542" y="244.9544">T</text><line style="stroke:#5E5E5E;stroke-width:1.5625;" x1="429.6875" x2="854.6875" y1="263.2161" y2="263.2161"/><ellipse cx="440.1042" cy="298.586" fill="#84BE84" rx="3.125" ry="3.125" style="stroke:#038048;stroke-width:1.0416666666666667;"/><text fill="#D8BC00" font-family="Open Sans,Avenir,Nunito,Arial,Helvetica,SansSerif" font-size="11.4583" lengthAdjust="spacing" textLength="394.7917" x="451.5625" y="305.4972">GraphElementPropertySet&lt;T&gt; add(GraphElementPropertySet&lt;T&gt; that)</text><ellipse cx="440.1042" cy="318.3309" fill="#84BE84" rx="3.125" ry="3.125" style="stroke:#038048;stroke-width:1.0416666666666667;"/><text fill="#D8BC00" font-family="Open Sans,Avenir,Nunito,Arial,Helvetica,SansSerif" font-size="11.4583" lengthAdjust="spacing" textLength="260.4167" x="451.5625" y="325.2421">List&lt;GraphElementProperty&lt;T&gt;&gt; properties()</text><polygon fill="#FFFF44" points="440.1042,332.8674,444.2708,337.0341,440.1042,341.2008,435.9375,337.0341" style="stroke:#B38D22;stroke-width:1.0416666666666667;"/><text fill="#D8BC00" font-family="Open Sans,Avenir,Nunito,Arial,Helvetica,SansSerif" font-size="11.4583" lengthAdjust="spacing" textLength="208.3333" x="451.5625" y="344.987">void add(GraphElementProperty&lt;T&gt;)</text><line style="stroke:#5E5E5E;stroke-width:1.0416666666666667;" x1="429.6875" x2="607.8125" y1="281.4219" y2="281.4219"/><text fill="#D8BC00" font-family="Open Sans,Avenir,Nunito,Arial,Helvetica,SansSerif" font-size="11.4583" lengthAdjust="spacing" textLength="62.5" x="610.9375" y="285.2315">(collection)</text><line style="stroke:#5E5E5E;stroke-width:1.0416666666666667;" x1="676.5625" x2="854.6875" y1="281.4219" y2="281.4219"/><path codeLine="10" d="M200.5208,123.1195 C200.5208,135.359 200.5208,149.2757 200.5208,163.7445 " fill="none" id="Comparable-backto-GraphElementProperty" style="stroke:#545454;stroke-width:1.5625;"/><polygon fill="none" points="193.2292,122.7965,200.5208,101.9632,207.8125,122.7965,193.2292,122.7965" style="stroke:#545454;stroke-width:1.5625;"/><path codeLine="26" d="M642.1875,123.0986 C642.1875,154.5882 642.1875,197.234 642.1875,231.8174 " fill="none" id="Iterable-backto-GraphElementPropertySet" style="stroke:#545454;stroke-width:1.5625;"/><polygon fill="none" points="634.8958,122.7965,642.1875,101.9632,649.4792,122.7965,634.8958,122.7965" style="stroke:#545454;stroke-width:1.5625;"/></g></svg>
