<?xml version="1.0" encoding="UTF-8" standalone="no"?><svg xmlns="http://www.w3.org/2000/svg" xmlns:xlink="http://www.w3.org/1999/xlink" contentScriptType="application/ecmascript" contentStyleType="text/css" height="273.9583px" preserveAspectRatio="none" style="width:544px;height:273px;background:#333333;" version="1.1" viewBox="0 0 544 273" width="544.7917px" zoomAndPan="magnify"><defs/><g><rect fill="#48494B" height="41.2028" rx="8.3333" ry="8.3333" style="stroke:#545454;stroke-width:1.0416666666666667;" width="532.2917" x="2.0833" y="2.0833"/><text fill="#C0C0C0" font-family="Open Sans,Avenir,Nunito,Arial,Helvetica,SansSerif" font-size="20.8333" lengthAdjust="spacing" textLength="509.375" x="13.5417" y="30.5583">com.telenav.mesakit.graph.io.load.loaders.copying</text><rect codeLine="7" fill="#282828" height="48.055" id="BaseGraphLoader" rx="8.3333" ry="8.3333" style="stroke:#5E5E5E;stroke-width:1.0416666666666667;" width="150" x="200.5208" y="53.7028"/><rect fill="#1B1B1A" height="31.3883" rx="8.3333" ry="8.3333" style="stroke:#1B1B1A;stroke-width:1.0416666666666667;" width="150" x="200.5208" y="53.7028"/><rect fill="#1B1B1A" height="8.3333" style="stroke:#1B1B1A;stroke-width:1.0416666666666667;" width="150" x="200.5208" y="76.7578"/><rect codeLine="7" fill="none" height="48.055" id="BaseGraphLoader" rx="8.3333" ry="8.3333" style="stroke:#5E5E5E;stroke-width:1.0416666666666667;" width="150" x="200.5208" y="53.7028"/><ellipse cx="215.1042" cy="69.397" fill="#C8AC00" rx="10.4167" ry="10.4167" style="stroke:#D8BC00;stroke-width:1.0416666666666667;"/><path d="M214.6973,66.099 L213.8489,69.8283 L215.5518,69.8283 Z M213.5986,64.4511 L215.802,64.4511 L218.2617,73.5636 L216.4612,73.5636 L215.8997,71.3114 L213.4888,71.3114 L212.9395,73.5636 L211.1389,73.5636 Z " fill="#000000"/><text fill="#D8BC00" font-family="Open Sans,Avenir,Nunito,Arial,Helvetica,SansSerif" font-size="12.5" font-style="italic" font-weight="bold" lengthAdjust="spacing" textLength="112.5" x="231.7708" y="74.1211">BaseGraphLoader</text><line style="stroke:#5E5E5E;stroke-width:1.0416666666666667;" x1="201.5625" x2="349.4792" y1="85.0911" y2="85.0911"/><line style="stroke:#5E5E5E;stroke-width:1.0416666666666667;" x1="201.5625" x2="349.4792" y1="93.4245" y2="93.4245"/><rect codeLine="10" fill="#282828" height="103.123" id="CopyingGraphLoader" rx="8.3333" ry="8.3333" style="stroke:#5E5E5E;stroke-width:1.0416666666666667;" width="237.5" x="156.7708" y="164.1195"/><rect fill="#1B1B1A" height="31.3883" rx="8.3333" ry="8.3333" style="stroke:#1B1B1A;stroke-width:1.0416666666666667;" width="237.5" x="156.7708" y="164.1195"/><rect fill="#1B1B1A" height="8.3333" style="stroke:#1B1B1A;stroke-width:1.0416666666666667;" width="237.5" x="156.7708" y="187.1745"/><rect codeLine="10" fill="none" height="103.123" id="CopyingGraphLoader" rx="8.3333" ry="8.3333" style="stroke:#5E5E5E;stroke-width:1.0416666666666667;" width="237.5" x="156.7708" y="164.1195"/><ellipse cx="200" cy="179.8136" fill="#0066CF" rx="10.4167" ry="10.4167" style="stroke:#0086EF;stroke-width:1.0416666666666667;"/><path d="M201.9104,184.2387 Q201.4832,184.4584 201.0132,184.5683 Q200.5432,184.6781 200.0244,184.6781 Q198.1812,184.6781 197.2107,183.4635 Q196.2402,182.2489 196.2402,179.954 Q196.2402,177.653 197.2107,176.4384 Q198.1812,175.2238 200.0244,175.2238 Q200.5432,175.2238 201.0193,175.3337 Q201.4954,175.4435 201.9104,175.6632 L201.9104,177.6652 Q201.4465,177.238 201.0101,177.0396 Q200.5737,176.8412 200.1099,176.8412 Q199.1211,176.8412 198.6176,177.6255 Q198.114,178.4098 198.114,179.954 Q198.114,181.4921 198.6176,182.2764 Q199.1211,183.0607 200.1099,183.0607 Q200.5737,183.0607 201.0101,182.8623 Q201.4465,182.664 201.9104,182.2367 Z " fill="#000000"/><text fill="#D8BC00" font-family="Open Sans,Avenir,Nunito,Arial,Helvetica,SansSerif" font-size="12.5" font-weight="bold" lengthAdjust="spacing" textLength="136.4583" x="222.9167" y="184.5378">CopyingGraphLoader</text><line style="stroke:#5E5E5E;stroke-width:1.5625;" x1="157.8125" x2="393.2292" y1="195.5078" y2="195.5078"/><ellipse cx="168.2292" cy="230.8777" fill="#84BE84" rx="3.125" ry="3.125" style="stroke:#038048;stroke-width:1.0416666666666667;"/><text fill="#D8BC00" font-family="Open Sans,Avenir,Nunito,Arial,Helvetica,SansSerif" font-size="11.4583" lengthAdjust="spacing" textLength="162.5" x="179.6875" y="237.7889">CopyingGraphLoader(Graph)</text><ellipse cx="168.2292" cy="250.6226" fill="#84BE84" rx="3.125" ry="3.125" style="stroke:#038048;stroke-width:1.0416666666666667;"/><text fill="#D8BC00" font-family="Open Sans,Avenir,Nunito,Arial,Helvetica,SansSerif" font-size="11.4583" lengthAdjust="spacing" textLength="205.2083" x="179.6875" y="257.5338">CopyingGraphLoader(GraphArchive)</text><line style="stroke:#5E5E5E;stroke-width:1.0416666666666667;" x1="157.8125" x2="231.7708" y1="213.7136" y2="213.7136"/><text fill="#D8BC00" font-family="Open Sans,Avenir,Nunito,Arial,Helvetica,SansSerif" font-size="11.4583" lengthAdjust="spacing" textLength="81.25" x="234.8958" y="217.5232">(constructors)</text><line style="stroke:#5E5E5E;stroke-width:1.0416666666666667;" x1="319.2708" x2="393.2292" y1="213.7136" y2="213.7136"/><path codeLine="9" d="M275.5208,122.8382 C275.5208,135.9945 275.5208,150.5257 275.5208,164.0674 " fill="none" id="BaseGraphLoader-backto-CopyingGraphLoader" style="stroke:#545454;stroke-width:1.5625;"/><polygon fill="none" points="268.2292,122.5986,275.5208,101.7653,282.8125,122.5986,268.2292,122.5986" style="stroke:#545454;stroke-width:1.5625;"/></g></svg>
