<?xml version="1.0" encoding="UTF-8" standalone="no"?><svg xmlns="http://www.w3.org/2000/svg" xmlns:xlink="http://www.w3.org/1999/xlink" contentScriptType="application/ecmascript" contentStyleType="text/css" height="361.4583px" preserveAspectRatio="none" style="width:672px;height:361px;background:#333333;" version="1.1" viewBox="0 0 672 361" width="672.9167px" zoomAndPan="magnify"><defs/><g><rect fill="#48494B" height="41.2028" rx="8.3333" ry="8.3333" style="stroke:#545454;stroke-width:1.0416666666666667;" width="660.4167" x="2.0833" y="2.0833"/><text fill="#C0C0C0" font-family="Open Sans,Avenir,Nunito,Arial,Helvetica,SansSerif" font-size="20.8333" lengthAdjust="spacing" textLength="637.5" x="13.5417" y="30.5583">com.telenav.mesakit.graph.specifications.osm.graph.edge.store</text><rect fill="#282828" height="48.055" id="EdgeStore" rx="8.3333" ry="8.3333" style="stroke:#5E5E5E;stroke-width:1.0416666666666667;" width="102.0833" x="288.5417" y="53.7028"/><rect fill="#1B1B1A" height="31.3883" rx="8.3333" ry="8.3333" style="stroke:#1B1B1A;stroke-width:1.0416666666666667;" width="102.0833" x="288.5417" y="53.7028"/><rect fill="#1B1B1A" height="8.3333" style="stroke:#1B1B1A;stroke-width:1.0416666666666667;" width="102.0833" x="288.5417" y="76.7578"/><rect fill="none" height="48.055" id="EdgeStore" rx="8.3333" ry="8.3333" style="stroke:#5E5E5E;stroke-width:1.0416666666666667;" width="102.0833" x="288.5417" y="53.7028"/><ellipse cx="303.125" cy="69.397" fill="#0066CF" rx="10.4167" ry="10.4167" style="stroke:#0086EF;stroke-width:1.0416666666666667;"/><path d="M305.0354,73.822 Q304.6082,74.0417 304.1382,74.1516 Q303.6682,74.2615 303.1494,74.2615 Q301.3062,74.2615 300.3357,73.0469 Q299.3652,71.8323 299.3652,69.5374 Q299.3652,67.2363 300.3357,66.0217 Q301.3062,64.8071 303.1494,64.8071 Q303.6682,64.8071 304.1443,64.917 Q304.6204,65.0269 305.0354,65.2466 L305.0354,67.2485 Q304.5715,66.8213 304.1351,66.6229 Q303.6987,66.4246 303.2349,66.4246 Q302.2461,66.4246 301.7426,67.2089 Q301.239,67.9932 301.239,69.5374 Q301.239,71.0754 301.7426,71.8597 Q302.2461,72.644 303.2349,72.644 Q303.6987,72.644 304.1351,72.4457 Q304.5715,72.2473 305.0354,71.8201 Z " fill="#000000"/><text fill="#D8BC00" font-family="Open Sans,Avenir,Nunito,Arial,Helvetica,SansSerif" font-size="12.5" font-weight="bold" lengthAdjust="spacing" textLength="64.5833" x="319.7917" y="74.1211">EdgeStore</text><line style="stroke:#5E5E5E;stroke-width:1.0416666666666667;" x1="289.5833" x2="389.5833" y1="85.0911" y2="85.0911"/><line style="stroke:#5E5E5E;stroke-width:1.0416666666666667;" x1="289.5833" x2="389.5833" y1="93.4245" y2="93.4245"/><rect codeLine="8" fill="#282828" height="190.4358" id="OsmEdgeStore" rx="8.3333" ry="8.3333" style="stroke:#5E5E5E;stroke-width:1.0416666666666667;" width="373.9583" x="152.6042" y="164.1195"/><rect fill="#1B1B1A" height="31.3883" rx="8.3333" ry="8.3333" style="stroke:#1B1B1A;stroke-width:1.0416666666666667;" width="373.9583" x="152.6042" y="164.1195"/><rect fill="#1B1B1A" height="8.3333" style="stroke:#1B1B1A;stroke-width:1.0416666666666667;" width="373.9583" x="152.6042" y="187.1745"/><rect codeLine="8" fill="none" height="190.4358" id="OsmEdgeStore" rx="8.3333" ry="8.3333" style="stroke:#5E5E5E;stroke-width:1.0416666666666667;" width="373.9583" x="152.6042" y="164.1195"/><ellipse cx="284.8958" cy="179.8136" fill="#0066CF" rx="10.4167" ry="10.4167" style="stroke:#0086EF;stroke-width:1.0416666666666667;"/><path d="M286.8062,184.2387 Q286.379,184.4584 285.909,184.5683 Q285.439,184.6781 284.9202,184.6781 Q283.077,184.6781 282.1065,183.4635 Q281.1361,182.2489 281.1361,179.954 Q281.1361,177.653 282.1065,176.4384 Q283.077,175.2238 284.9202,175.2238 Q285.439,175.2238 285.9151,175.3337 Q286.3912,175.4435 286.8062,175.6632 L286.8062,177.6652 Q286.3424,177.238 285.906,177.0396 Q285.4696,176.8412 285.0057,176.8412 Q284.0169,176.8412 283.5134,177.6255 Q283.0098,178.4098 283.0098,179.954 Q283.0098,181.4921 283.5134,182.2764 Q284.0169,183.0607 285.0057,183.0607 Q285.4696,183.0607 285.906,182.8623 Q286.3424,182.664 286.8062,182.2367 Z " fill="#000000"/><text fill="#D8BC00" font-family="Open Sans,Avenir,Nunito,Arial,Helvetica,SansSerif" font-size="12.5" font-weight="bold" lengthAdjust="spacing" textLength="94.7917" x="307.8125" y="184.5378">OsmEdgeStore</text><line style="stroke:#5E5E5E;stroke-width:1.5625;" x1="153.6458" x2="525.5208" y1="195.5078" y2="195.5078"/><ellipse cx="164.0625" cy="230.8777" fill="#84BE84" rx="3.125" ry="3.125" style="stroke:#038048;stroke-width:1.0416666666666667;"/><text fill="#D8BC00" font-family="Open Sans,Avenir,Nunito,Arial,Helvetica,SansSerif" font-size="11.4583" lengthAdjust="spacing" textLength="125" x="175.5208" y="237.7889">OsmEdgeStore(Graph)</text><line style="stroke:#5E5E5E;stroke-width:1.0416666666666667;" x1="153.6458" x2="295.8333" y1="213.7136" y2="213.7136"/><text fill="#D8BC00" font-family="Open Sans,Avenir,Nunito,Arial,Helvetica,SansSerif" font-size="11.4583" lengthAdjust="spacing" textLength="81.25" x="298.9583" y="217.5232">(constructors)</text><line style="stroke:#5E5E5E;stroke-width:1.0416666666666667;" x1="383.3333" x2="525.5208" y1="213.7136" y2="213.7136"/><ellipse cx="164.0625" cy="274.5341" fill="#84BE84" rx="3.125" ry="3.125" style="stroke:#038048;stroke-width:1.0416666666666667;"/><text fill="#D8BC00" font-family="Open Sans,Avenir,Nunito,Arial,Helvetica,SansSerif" font-size="11.4583" lengthAdjust="spacing" textLength="230.2083" x="175.5208" y="281.4453">EdgeIdentifier retrieveRawIdentifier(Edge)</text><line style="stroke:#5E5E5E;stroke-width:1.0416666666666667;" x1="153.6458" x2="311.4583" y1="257.37" y2="257.37"/><text fill="#D8BC00" font-family="Open Sans,Avenir,Nunito,Arial,Helvetica,SansSerif" font-size="11.4583" lengthAdjust="spacing" textLength="50" x="314.5833" y="261.1796">(identity)</text><line style="stroke:#5E5E5E;stroke-width:1.0416666666666667;" x1="367.7083" x2="525.5208" y1="257.37" y2="257.37"/><ellipse cx="164.0625" cy="318.1905" fill="#84BE84" rx="3.125" ry="3.125" style="stroke:#038048;stroke-width:1.0416666666666667;"/><text fill="#D8BC00" font-family="Open Sans,Avenir,Nunito,Arial,Helvetica,SansSerif" font-size="11.4583" lengthAdjust="spacing" textLength="223.9583" x="175.5208" y="325.1017">boolean retrieveIsDoubleDigitized(Edge)</text><ellipse cx="164.0625" cy="337.9354" fill="#84BE84" rx="3.125" ry="3.125" style="stroke:#038048;stroke-width:1.0416666666666667;"/><text fill="#D8BC00" font-family="Open Sans,Avenir,Nunito,Arial,Helvetica,SansSerif" font-size="11.4583" lengthAdjust="spacing" textLength="341.6667" x="175.5208" y="344.8466">void storeIsDoubleDigitized(Edge, boolean isDoubleDigitized)</text><line style="stroke:#5E5E5E;stroke-width:1.0416666666666667;" x1="153.6458" x2="307.8125" y1="301.0264" y2="301.0264"/><text fill="#D8BC00" font-family="Open Sans,Avenir,Nunito,Arial,Helvetica,SansSerif" font-size="11.4583" lengthAdjust="spacing" textLength="57.2917" x="310.9375" y="304.836">(primitive)</text><line style="stroke:#5E5E5E;stroke-width:1.0416666666666667;" x1="371.3542" x2="525.5208" y1="301.0264" y2="301.0264"/><path codeLine="7" d="M339.5833,122.8695 C339.5833,135.359 339.5833,149.4528 339.5833,163.7132 " fill="none" id="EdgeStore-backto-OsmEdgeStore" style="stroke:#545454;stroke-width:1.5625;"/><polygon fill="none" points="332.2917,122.6611,339.5833,101.8278,346.875,122.6611,332.2917,122.6611" style="stroke:#545454;stroke-width:1.5625;"/></g></svg>
