<?xml version="1.0" encoding="UTF-8" standalone="no"?><svg xmlns="http://www.w3.org/2000/svg" xmlns:xlink="http://www.w3.org/1999/xlink" contentScriptType="application/ecmascript" contentStyleType="text/css" height="254.1667px" preserveAspectRatio="none" style="width:889px;height:254px;background:#333333;" version="1.1" viewBox="0 0 889 254" width="889.5833px" zoomAndPan="magnify"><defs/><g><rect fill="#48494B" height="41.2028" rx="8.3333" ry="8.3333" style="stroke:#545454;stroke-width:1.0416666666666667;" width="618.75" x="128.3854" y="2.0833"/><text fill="#C0C0C0" font-family="Open Sans,Avenir,Nunito,Arial,Helvetica,SansSerif" font-size="20.8333" lengthAdjust="spacing" textLength="595.8333" x="139.8438" y="30.5583">com.telenav.mesakit.graph.specifications.osm.graph.loader</text><rect fill="#282828" height="48.055" id="PbfGraphLoader" rx="8.3333" ry="8.3333" style="stroke:#5E5E5E;stroke-width:1.0416666666666667;" width="140.625" x="120.8333" y="53.7028"/><rect fill="#1B1B1A" height="31.3883" rx="8.3333" ry="8.3333" style="stroke:#1B1B1A;stroke-width:1.0416666666666667;" width="140.625" x="120.8333" y="53.7028"/><rect fill="#1B1B1A" height="8.3333" style="stroke:#1B1B1A;stroke-width:1.0416666666666667;" width="140.625" x="120.8333" y="76.7578"/><rect fill="none" height="48.055" id="PbfGraphLoader" rx="8.3333" ry="8.3333" style="stroke:#5E5E5E;stroke-width:1.0416666666666667;" width="140.625" x="120.8333" y="53.7028"/><ellipse cx="135.4167" cy="69.397" fill="#0066CF" rx="10.4167" ry="10.4167" style="stroke:#0086EF;stroke-width:1.0416666666666667;"/><path d="M137.3271,73.822 Q136.8998,74.0417 136.4299,74.1516 Q135.9599,74.2615 135.4411,74.2615 Q133.5978,74.2615 132.6274,73.0469 Q131.6569,71.8323 131.6569,69.5374 Q131.6569,67.2363 132.6274,66.0217 Q133.5978,64.8071 135.4411,64.8071 Q135.9599,64.8071 136.436,64.917 Q136.912,65.0269 137.3271,65.2466 L137.3271,67.2485 Q136.8632,66.8213 136.4268,66.6229 Q135.9904,66.4246 135.5265,66.4246 Q134.5378,66.4246 134.0342,67.2089 Q133.5307,67.9932 133.5307,69.5374 Q133.5307,71.0754 134.0342,71.8597 Q134.5378,72.644 135.5265,72.644 Q135.9904,72.644 136.4268,72.4457 Q136.8632,72.2473 137.3271,71.8201 Z " fill="#000000"/><text fill="#D8BC00" font-family="Open Sans,Avenir,Nunito,Arial,Helvetica,SansSerif" font-size="12.5" font-weight="bold" lengthAdjust="spacing" textLength="103.125" x="152.0833" y="74.1211">PbfGraphLoader</text><line style="stroke:#5E5E5E;stroke-width:1.0416666666666667;" x1="121.875" x2="260.4167" y1="85.0911" y2="85.0911"/><line style="stroke:#5E5E5E;stroke-width:1.0416666666666667;" x1="121.875" x2="260.4167" y1="93.4245" y2="93.4245"/><rect codeLine="8" fill="#282828" height="67.7999" id="OsmPbfGraphLoader" rx="8.3333" ry="8.3333" style="stroke:#5E5E5E;stroke-width:1.0416666666666667;" width="367.7083" x="7.2917" y="171.932"/><rect fill="#1B1B1A" height="31.3883" rx="8.3333" ry="8.3333" style="stroke:#1B1B1A;stroke-width:1.0416666666666667;" width="367.7083" x="7.2917" y="171.932"/><rect fill="#1B1B1A" height="8.3333" style="stroke:#1B1B1A;stroke-width:1.0416666666666667;" width="367.7083" x="7.2917" y="194.987"/><rect codeLine="8" fill="none" height="67.7999" id="OsmPbfGraphLoader" rx="8.3333" ry="8.3333" style="stroke:#5E5E5E;stroke-width:1.0416666666666667;" width="367.7083" x="7.2917" y="171.932"/><ellipse cx="117.1875" cy="187.6261" fill="#0066CF" rx="10.4167" ry="10.4167" style="stroke:#0086EF;stroke-width:1.0416666666666667;"/><path d="M119.0979,192.0512 Q118.6707,192.2709 118.2007,192.3808 Q117.7307,192.4906 117.2119,192.4906 Q115.3687,192.4906 114.3982,191.276 Q113.4277,190.0614 113.4277,187.7665 Q113.4277,185.4655 114.3982,184.2509 Q115.3687,183.0363 117.2119,183.0363 Q117.7307,183.0363 118.2068,183.1462 Q118.6829,183.256 119.0979,183.4757 L119.0979,185.4777 Q118.634,185.0505 118.1976,184.8521 Q117.7612,184.6537 117.2974,184.6537 Q116.3086,184.6537 115.8051,185.438 Q115.3015,186.2223 115.3015,187.7665 Q115.3015,189.3046 115.8051,190.0889 Q116.3086,190.8732 117.2974,190.8732 Q117.7612,190.8732 118.1976,190.6748 Q118.634,190.4765 119.0979,190.0492 Z " fill="#000000"/><text fill="#D8BC00" font-family="Open Sans,Avenir,Nunito,Arial,Helvetica,SansSerif" font-size="12.5" font-weight="bold" lengthAdjust="spacing" textLength="133.3333" x="140.1042" y="192.3503">OsmPbfGraphLoader</text><line style="stroke:#5E5E5E;stroke-width:1.5625;" x1="8.3333" x2="373.9583" y1="203.3203" y2="203.3203"/><line style="stroke:#5E5E5E;stroke-width:1.0416666666666667;" x1="8.3333" x2="373.9583" y1="211.6536" y2="211.6536"/><ellipse cx="18.75" cy="223.112" fill="#84BE84" rx="3.125" ry="3.125" style="stroke:#038048;stroke-width:1.0416666666666667;"/><text fill="#D8BC00" font-family="Open Sans,Avenir,Nunito,Arial,Helvetica,SansSerif" font-size="11.4583" lengthAdjust="spacing" textLength="335.4167" x="30.2083" y="230.0232">OsmPbfGraphLoader analysis(PbfDataAnalysis, PbfTagFilter)</text><rect fill="#282828" height="48.055" id="RawPbfGraphLoader" rx="8.3333" ry="8.3333" style="stroke:#5E5E5E;stroke-width:1.0416666666666667;" width="166.6667" x="564.0625" y="53.7028"/><rect fill="#1B1B1A" height="31.3883" rx="8.3333" ry="8.3333" style="stroke:#1B1B1A;stroke-width:1.0416666666666667;" width="166.6667" x="564.0625" y="53.7028"/><rect fill="#1B1B1A" height="8.3333" style="stroke:#1B1B1A;stroke-width:1.0416666666666667;" width="166.6667" x="564.0625" y="76.7578"/><rect fill="none" height="48.055" id="RawPbfGraphLoader" rx="8.3333" ry="8.3333" style="stroke:#5E5E5E;stroke-width:1.0416666666666667;" width="166.6667" x="564.0625" y="53.7028"/><ellipse cx="578.6458" cy="69.397" fill="#0066CF" rx="10.4167" ry="10.4167" style="stroke:#0086EF;stroke-width:1.0416666666666667;"/><path d="M580.5562,73.822 Q580.129,74.0417 579.659,74.1516 Q579.189,74.2615 578.6702,74.2615 Q576.827,74.2615 575.8565,73.0469 Q574.8861,71.8323 574.8861,69.5374 Q574.8861,67.2363 575.8565,66.0217 Q576.827,64.8071 578.6702,64.8071 Q579.189,64.8071 579.6651,64.917 Q580.1412,65.0269 580.5562,65.2466 L580.5562,67.2485 Q580.0924,66.8213 579.656,66.6229 Q579.2196,66.4246 578.7557,66.4246 Q577.7669,66.4246 577.2634,67.2089 Q576.7598,67.9932 576.7598,69.5374 Q576.7598,71.0754 577.2634,71.8597 Q577.7669,72.644 578.7557,72.644 Q579.2196,72.644 579.656,72.4457 Q580.0924,72.2473 580.5562,71.8201 Z " fill="#000000"/><text fill="#D8BC00" font-family="Open Sans,Avenir,Nunito,Arial,Helvetica,SansSerif" font-size="12.5" font-weight="bold" lengthAdjust="spacing" textLength="129.1667" x="595.3125" y="74.1211">RawPbfGraphLoader</text><line style="stroke:#5E5E5E;stroke-width:1.0416666666666667;" x1="565.1042" x2="729.6875" y1="85.0911" y2="85.0911"/><line style="stroke:#5E5E5E;stroke-width:1.0416666666666667;" x1="565.1042" x2="729.6875" y1="93.4245" y2="93.4245"/><rect codeLine="15" fill="#282828" height="83.3781" id="OsmRawPbfGraphLoader" rx="8.3333" ry="8.3333" style="stroke:#5E5E5E;stroke-width:1.0416666666666667;" width="470.8333" x="411.9792" y="164.1195"/><rect fill="#1B1B1A" height="31.3883" rx="8.3333" ry="8.3333" style="stroke:#1B1B1A;stroke-width:1.0416666666666667;" width="470.8333" x="411.9792" y="164.1195"/><rect fill="#1B1B1A" height="8.3333" style="stroke:#1B1B1A;stroke-width:1.0416666666666667;" width="470.8333" x="411.9792" y="187.1745"/><rect codeLine="15" fill="none" height="83.3781" id="OsmRawPbfGraphLoader" rx="8.3333" ry="8.3333" style="stroke:#5E5E5E;stroke-width:1.0416666666666667;" width="470.8333" x="411.9792" y="164.1195"/><ellipse cx="560.4167" cy="179.8136" fill="#0066CF" rx="10.4167" ry="10.4167" style="stroke:#0086EF;stroke-width:1.0416666666666667;"/><path d="M562.3271,184.2387 Q561.8998,184.4584 561.4299,184.5683 Q560.9599,184.6781 560.4411,184.6781 Q558.5978,184.6781 557.6274,183.4635 Q556.6569,182.2489 556.6569,179.954 Q556.6569,177.653 557.6274,176.4384 Q558.5978,175.2238 560.4411,175.2238 Q560.9599,175.2238 561.436,175.3337 Q561.912,175.4435 562.3271,175.6632 L562.3271,177.6652 Q561.8632,177.238 561.4268,177.0396 Q560.9904,176.8412 560.5265,176.8412 Q559.5378,176.8412 559.0342,177.6255 Q558.5307,178.4098 558.5307,179.954 Q558.5307,181.4921 559.0342,182.2764 Q559.5378,183.0607 560.5265,183.0607 Q560.9904,183.0607 561.4268,182.8623 Q561.8632,182.664 562.3271,182.2367 Z " fill="#000000"/><text fill="#D8BC00" font-family="Open Sans,Avenir,Nunito,Arial,Helvetica,SansSerif" font-size="12.5" font-weight="bold" lengthAdjust="spacing" textLength="159.375" x="583.3333" y="184.5378">OsmRawPbfGraphLoader</text><line style="stroke:#5E5E5E;stroke-width:1.5625;" x1="413.0208" x2="881.7708" y1="195.5078" y2="195.5078"/><ellipse cx="423.4375" cy="230.8777" fill="#84BE84" rx="3.125" ry="3.125" style="stroke:#038048;stroke-width:1.0416666666666667;"/><text fill="#D8BC00" font-family="Open Sans,Avenir,Nunito,Arial,Helvetica,SansSerif" font-size="11.4583" lengthAdjust="spacing" textLength="438.5417" x="434.8958" y="237.7889">OsmRawPbfGraphLoader(PbfDataSourceFactory, PbfDataAnalysis, PbfTagFilter)</text><line style="stroke:#5E5E5E;stroke-width:1.0416666666666667;" x1="413.0208" x2="603.6458" y1="213.7136" y2="213.7136"/><text fill="#D8BC00" font-family="Open Sans,Avenir,Nunito,Arial,Helvetica,SansSerif" font-size="11.4583" lengthAdjust="spacing" textLength="81.25" x="606.7708" y="217.5232">(constructors)</text><line style="stroke:#5E5E5E;stroke-width:1.0416666666666667;" x1="691.1458" x2="881.7708" y1="213.7136" y2="213.7136"/><path codeLine="7" d="M191.1458,122.8695 C191.1458,138.9632 191.1458,156.859 191.1458,171.807 " fill="none" id="PbfGraphLoader-backto-OsmPbfGraphLoader" style="stroke:#545454;stroke-width:1.5625;"/><polygon fill="none" points="183.8542,122.6507,191.1458,101.8174,198.4375,122.6507,183.8542,122.6507" style="stroke:#545454;stroke-width:1.5625;"/><path codeLine="14" d="M647.3958,122.682 C647.3958,136.0778 647.3958,150.7445 647.3958,163.9215 " fill="none" id="RawPbfGraphLoader-backto-OsmRawPbfGraphLoader" style="stroke:#545454;stroke-width:1.5625;"/><polygon fill="none" points="640.1042,122.6507,647.3958,101.8174,654.6875,122.6507,640.1042,122.6507" style="stroke:#545454;stroke-width:1.5625;"/></g></svg>
