<?xml version="1.0" encoding="UTF-8" standalone="no"?><svg xmlns="http://www.w3.org/2000/svg" xmlns:xlink="http://www.w3.org/1999/xlink" contentScriptType="application/ecmascript" contentStyleType="text/css" height="238.5417px" preserveAspectRatio="none" style="width:409px;height:238px;background:#333333;" version="1.1" viewBox="0 0 409 238" width="409.375px" zoomAndPan="magnify"><defs/><g><rect fill="#48494B" height="41.2028" rx="8.3333" ry="8.3333" style="stroke:#545454;stroke-width:1.0416666666666667;" width="396.875" x="2.0833" y="2.0833"/><text fill="#C0C0C0" font-family="Open Sans,Avenir,Nunito,Arial,Helvetica,SansSerif" font-size="20.8333" lengthAdjust="spacing" textLength="373.9583" x="13.5417" y="30.5583">com.telenav.mesakit.graph.io.convert</text><rect codeLine="7" fill="#282828" height="48.055" id="Repeater" rx="8.3333" ry="8.3333" style="stroke:#5E5E5E;stroke-width:1.0416666666666667;" width="93.75" x="160.9375" y="53.7028"/><rect fill="#1B1B1A" height="31.3883" rx="8.3333" ry="8.3333" style="stroke:#1B1B1A;stroke-width:1.0416666666666667;" width="93.75" x="160.9375" y="53.7028"/><rect fill="#1B1B1A" height="8.3333" style="stroke:#1B1B1A;stroke-width:1.0416666666666667;" width="93.75" x="160.9375" y="76.7578"/><rect codeLine="7" fill="none" height="48.055" id="Repeater" rx="8.3333" ry="8.3333" style="stroke:#5E5E5E;stroke-width:1.0416666666666667;" width="93.75" x="160.9375" y="53.7028"/><ellipse cx="175.5208" cy="69.397" fill="#008400" rx="10.4167" ry="10.4167" style="stroke:#239C23;stroke-width:1.0416666666666667;"/><path d="M172.9248,66.5588 L172.9248,64.9719 L178.3508,64.9719 L178.3508,66.5588 L176.5381,66.5588 L176.5381,72.4976 L178.3508,72.4976 L178.3508,74.0845 L172.9248,74.0845 L172.9248,72.4976 L174.7375,72.4976 L174.7375,66.5588 Z " fill="#000000"/><text fill="#D8BC00" font-family="Open Sans,Avenir,Nunito,Arial,Helvetica,SansSerif" font-size="12.5" font-style="italic" font-weight="bold" lengthAdjust="spacing" textLength="56.25" x="192.1875" y="74.1211">Repeater</text><line style="stroke:#5E5E5E;stroke-width:1.0416666666666667;" x1="161.9792" x2="253.6458" y1="85.0911" y2="85.0911"/><line style="stroke:#5E5E5E;stroke-width:1.0416666666666667;" x1="161.9792" x2="253.6458" y1="93.4245" y2="93.4245"/><rect codeLine="9" fill="#282828" height="67.7999" id="GraphConverter" rx="8.3333" ry="8.3333" style="stroke:#5E5E5E;stroke-width:1.0416666666666667;" width="171.875" x="121.875" y="164.1195"/><rect fill="#1B1B1A" height="31.3883" rx="8.3333" ry="8.3333" style="stroke:#1B1B1A;stroke-width:1.0416666666666667;" width="171.875" x="121.875" y="164.1195"/><rect fill="#1B1B1A" height="8.3333" style="stroke:#1B1B1A;stroke-width:1.0416666666666667;" width="171.875" x="121.875" y="187.1745"/><rect codeLine="9" fill="none" height="67.7999" id="GraphConverter" rx="8.3333" ry="8.3333" style="stroke:#5E5E5E;stroke-width:1.0416666666666667;" width="171.875" x="121.875" y="164.1195"/><ellipse cx="150.9896" cy="179.8136" fill="#008400" rx="10.4167" ry="10.4167" style="stroke:#239C23;stroke-width:1.0416666666666667;"/><path d="M148.3936,176.9755 L148.3936,175.3886 L153.8196,175.3886 L153.8196,176.9755 L152.0068,176.9755 L152.0068,182.9142 L153.8196,182.9142 L153.8196,184.5011 L148.3936,184.5011 L148.3936,182.9142 L150.2063,182.9142 L150.2063,176.9755 Z " fill="#000000"/><text fill="#D8BC00" font-family="Open Sans,Avenir,Nunito,Arial,Helvetica,SansSerif" font-size="12.5" font-style="italic" font-weight="bold" lengthAdjust="spacing" textLength="102.0833" x="170.8854" y="184.5378">GraphConverter</text><line style="stroke:#5E5E5E;stroke-width:1.5625;" x1="122.9167" x2="292.7083" y1="195.5078" y2="195.5078"/><line style="stroke:#5E5E5E;stroke-width:1.0416666666666667;" x1="122.9167" x2="292.7083" y1="203.8411" y2="203.8411"/><ellipse cx="133.3333" cy="215.2995" fill="#84BE84" rx="3.125" ry="3.125" style="stroke:#038048;stroke-width:1.0416666666666667;"/><text fill="#D8BC00" font-family="Open Sans,Avenir,Nunito,Arial,Helvetica,SansSerif" font-size="11.4583" lengthAdjust="spacing" textLength="139.5833" x="144.7917" y="222.2107">Graph convert(File input)</text><path codeLine="8" d="M207.8125,123.0674 C207.8125,136.6715 207.8125,151.3799 207.8125,164.0674 " fill="none" id="Repeater-backto-GraphConverter" style="stroke:#545454;stroke-width:1.5625;"/><polygon fill="none" points="200.5208,122.609,207.8125,101.7757,215.1042,122.609,200.5208,122.609" style="stroke:#545454;stroke-width:1.5625;"/></g></svg>
