<?xml version="1.0" encoding="UTF-8" standalone="no"?><svg xmlns="http://www.w3.org/2000/svg" xmlns:xlink="http://www.w3.org/1999/xlink" contentScriptType="application/ecmascript" contentStyleType="text/css" height="254.1667px" preserveAspectRatio="none" style="width:443px;height:254px;background:#333333;" version="1.1" viewBox="0 0 443 254" width="443.75px" zoomAndPan="magnify"><defs/><g><rect fill="#48494B" height="41.2028" rx="8.3333" ry="8.3333" style="stroke:#545454;stroke-width:1.0416666666666667;" width="431.25" x="2.0833" y="2.0833"/><text fill="#C0C0C0" font-family="Open Sans,Avenir,Nunito,Arial,Helvetica,SansSerif" font-size="20.8333" lengthAdjust="spacing" textLength="408.3333" x="13.5417" y="30.5583">com.telenav.mesakit.graph.world.project</text><!--MD5=[d776228a55af1f9e7dd99d395538019c]
class KryoTypes--><rect fill="#282828" height="48.055" id="KryoTypes" rx="8.3333" ry="8.3333" style="stroke:#5E5E5E;stroke-width:1.0416666666666667;" width="106.25" x="69.0104" y="53.7028"/><rect fill="#1B1B1A" height="31.3883" rx="8.3333" ry="8.3333" style="stroke:#1B1B1A;stroke-width:1.0416666666666667;" width="106.25" x="69.0104" y="53.7028"/><rect fill="#1B1B1A" height="8.3333" style="stroke:#1B1B1A;stroke-width:1.0416666666666667;" width="106.25" x="69.0104" y="76.7578"/><rect fill="none" height="48.055" id="KryoTypes" rx="8.3333" ry="8.3333" style="stroke:#5E5E5E;stroke-width:1.0416666666666667;" width="106.25" x="69.0104" y="53.7028"/><ellipse cx="83.5938" cy="69.397" fill="#0066CF" rx="10.4167" ry="10.4167" style="stroke:#0086EF;stroke-width:1.0416666666666667;"/><path d="M85.5042,73.822 Q85.0769,74.0417 84.6069,74.1516 Q84.137,74.2615 83.6182,74.2615 Q81.7749,74.2615 80.8044,73.0469 Q79.834,71.8323 79.834,69.5374 Q79.834,67.2363 80.8044,66.0217 Q81.7749,64.8071 83.6182,64.8071 Q84.137,64.8071 84.613,64.917 Q85.0891,65.0269 85.5042,65.2466 L85.5042,67.2485 Q85.0403,66.8213 84.6039,66.6229 Q84.1675,66.4246 83.7036,66.4246 Q82.7148,66.4246 82.2113,67.2089 Q81.7078,67.9932 81.7078,69.5374 Q81.7078,71.0754 82.2113,71.8597 Q82.7148,72.644 83.7036,72.644 Q84.1675,72.644 84.6039,72.4457 Q85.0403,72.2473 85.5042,71.8201 Z " fill="#000000"/><text fill="#D8BC00" font-family="Open Sans,Avenir,Nunito,Arial,Helvetica,SansSerif" font-size="12.5" font-weight="bold" lengthAdjust="spacing" textLength="68.75" x="100.2604" y="74.1211">KryoTypes</text><line style="stroke:#5E5E5E;stroke-width:1.0416666666666667;" x1="70.0521" x2="174.2188" y1="85.0911" y2="85.0911"/><line style="stroke:#5E5E5E;stroke-width:1.0416666666666667;" x1="70.0521" x2="174.2188" y1="93.4245" y2="93.4245"/><!--MD5=[caea387d182efad47c6bca2a3ac33f0c]
class WorldGraphKryoTypes--><rect codeLine="7" fill="#282828" height="83.3781" id="WorldGraphKryoTypes" rx="8.3333" ry="8.3333" style="stroke:#5E5E5E;stroke-width:1.0416666666666667;" width="182.2917" x="30.9896" y="164.1195"/><rect fill="#1B1B1A" height="31.3883" rx="8.3333" ry="8.3333" style="stroke:#1B1B1A;stroke-width:1.0416666666666667;" width="182.2917" x="30.9896" y="164.1195"/><rect fill="#1B1B1A" height="8.3333" style="stroke:#1B1B1A;stroke-width:1.0416666666666667;" width="182.2917" x="30.9896" y="187.1745"/><rect codeLine="7" fill="none" height="83.3781" id="WorldGraphKryoTypes" rx="8.3333" ry="8.3333" style="stroke:#5E5E5E;stroke-width:1.0416666666666667;" width="182.2917" x="30.9896" y="164.1195"/><ellipse cx="45.5729" cy="179.8136" fill="#0066CF" rx="10.4167" ry="10.4167" style="stroke:#0086EF;stroke-width:1.0416666666666667;"/><path d="M47.4833,184.2387 Q47.0561,184.4584 46.5861,184.5683 Q46.1161,184.6781 45.5973,184.6781 Q43.7541,184.6781 42.7836,183.4635 Q41.8132,182.2489 41.8132,179.954 Q41.8132,177.653 42.7836,176.4384 Q43.7541,175.2238 45.5973,175.2238 Q46.1161,175.2238 46.5922,175.3337 Q47.0683,175.4435 47.4833,175.6632 L47.4833,177.6652 Q47.0194,177.238 46.583,177.0396 Q46.1466,176.8412 45.6828,176.8412 Q44.694,176.8412 44.1905,177.6255 Q43.6869,178.4098 43.6869,179.954 Q43.6869,181.4921 44.1905,182.2764 Q44.694,183.0607 45.6828,183.0607 Q46.1466,183.0607 46.583,182.8623 Q47.0194,182.664 47.4833,182.2367 Z " fill="#000000"/><text fill="#D8BC00" font-family="Open Sans,Avenir,Nunito,Arial,Helvetica,SansSerif" font-size="12.5" font-weight="bold" lengthAdjust="spacing" textLength="144.7917" x="62.2396" y="184.5378">WorldGraphKryoTypes</text><line style="stroke:#5E5E5E;stroke-width:1.5625;" x1="32.0313" x2="212.2396" y1="195.5078" y2="195.5078"/><ellipse cx="42.4479" cy="230.8777" fill="#84BE84" rx="3.125" ry="3.125" style="stroke:#038048;stroke-width:1.0416666666666667;"/><text fill="#D8BC00" font-family="Open Sans,Avenir,Nunito,Arial,Helvetica,SansSerif" font-size="11.4583" lengthAdjust="spacing" textLength="134.375" x="53.9063" y="237.7889">WorldGraphKryoTypes()</text><line style="stroke:#5E5E5E;stroke-width:1.0416666666666667;" x1="32.0313" x2="78.3854" y1="213.7136" y2="213.7136"/><text fill="#D8BC00" font-family="Open Sans,Avenir,Nunito,Arial,Helvetica,SansSerif" font-size="11.4583" lengthAdjust="spacing" textLength="81.25" x="81.5104" y="217.5232">(constructors)</text><line style="stroke:#5E5E5E;stroke-width:1.0416666666666667;" x1="165.8854" x2="212.2396" y1="213.7136" y2="213.7136"/><!--MD5=[b59cc0cfbba6b420d6ae83dd59ebb650]
class GraphUnitTest--><rect fill="#282828" height="48.055" id="GraphUnitTest" rx="8.3333" ry="8.3333" style="stroke:#5E5E5E;stroke-width:1.0416666666666667;" width="131.25" x="269.0104" y="53.7028"/><rect fill="#1B1B1A" height="31.3883" rx="8.3333" ry="8.3333" style="stroke:#1B1B1A;stroke-width:1.0416666666666667;" width="131.25" x="269.0104" y="53.7028"/><rect fill="#1B1B1A" height="8.3333" style="stroke:#1B1B1A;stroke-width:1.0416666666666667;" width="131.25" x="269.0104" y="76.7578"/><rect fill="none" height="48.055" id="GraphUnitTest" rx="8.3333" ry="8.3333" style="stroke:#5E5E5E;stroke-width:1.0416666666666667;" width="131.25" x="269.0104" y="53.7028"/><ellipse cx="283.5938" cy="69.397" fill="#0066CF" rx="10.4167" ry="10.4167" style="stroke:#0086EF;stroke-width:1.0416666666666667;"/><path d="M285.5042,73.822 Q285.0769,74.0417 284.6069,74.1516 Q284.137,74.2615 283.6182,74.2615 Q281.7749,74.2615 280.8044,73.0469 Q279.834,71.8323 279.834,69.5374 Q279.834,67.2363 280.8044,66.0217 Q281.7749,64.8071 283.6182,64.8071 Q284.137,64.8071 284.613,64.917 Q285.0891,65.0269 285.5042,65.2466 L285.5042,67.2485 Q285.0403,66.8213 284.6039,66.6229 Q284.1675,66.4246 283.7036,66.4246 Q282.7148,66.4246 282.2113,67.2089 Q281.7078,67.9932 281.7078,69.5374 Q281.7078,71.0754 282.2113,71.8597 Q282.7148,72.644 283.7036,72.644 Q284.1675,72.644 284.6039,72.4457 Q285.0403,72.2473 285.5042,71.8201 Z " fill="#000000"/><text fill="#D8BC00" font-family="Open Sans,Avenir,Nunito,Arial,Helvetica,SansSerif" font-size="12.5" font-weight="bold" lengthAdjust="spacing" textLength="93.75" x="300.2604" y="74.1211">GraphUnitTest</text><line style="stroke:#5E5E5E;stroke-width:1.0416666666666667;" x1="270.0521" x2="399.2188" y1="85.0911" y2="85.0911"/><line style="stroke:#5E5E5E;stroke-width:1.0416666666666667;" x1="270.0521" x2="399.2188" y1="93.4245" y2="93.4245"/><!--MD5=[5788b337b8daa7713cca87343fdafa60]
class WorldGraphUnitTest--><rect codeLine="14" fill="#282828" height="67.7999" id="WorldGraphUnitTest" rx="8.3333" ry="8.3333" style="stroke:#5E5E5E;stroke-width:1.0416666666666667;" width="168.75" x="250.2604" y="171.932"/><rect fill="#1B1B1A" height="31.3883" rx="8.3333" ry="8.3333" style="stroke:#1B1B1A;stroke-width:1.0416666666666667;" width="168.75" x="250.2604" y="171.932"/><rect fill="#1B1B1A" height="8.3333" style="stroke:#1B1B1A;stroke-width:1.0416666666666667;" width="168.75" x="250.2604" y="194.987"/><rect codeLine="14" fill="none" height="67.7999" id="WorldGraphUnitTest" rx="8.3333" ry="8.3333" style="stroke:#5E5E5E;stroke-width:1.0416666666666667;" width="168.75" x="250.2604" y="171.932"/><ellipse cx="264.8438" cy="187.6261" fill="#0066CF" rx="10.4167" ry="10.4167" style="stroke:#0086EF;stroke-width:1.0416666666666667;"/><path d="M266.7542,192.0512 Q266.3269,192.2709 265.8569,192.3808 Q265.387,192.4906 264.8682,192.4906 Q263.0249,192.4906 262.0544,191.276 Q261.084,190.0614 261.084,187.7665 Q261.084,185.4655 262.0544,184.2509 Q263.0249,183.0363 264.8682,183.0363 Q265.387,183.0363 265.863,183.1462 Q266.3391,183.256 266.7542,183.4757 L266.7542,185.4777 Q266.2903,185.0505 265.8539,184.8521 Q265.4175,184.6537 264.9536,184.6537 Q263.9648,184.6537 263.4613,185.438 Q262.9578,186.2223 262.9578,187.7665 Q262.9578,189.3046 263.4613,190.0889 Q263.9648,190.8732 264.9536,190.8732 Q265.4175,190.8732 265.8539,190.6748 Q266.2903,190.4765 266.7542,190.0492 Z " fill="#000000"/><text fill="#D8BC00" font-family="Open Sans,Avenir,Nunito,Arial,Helvetica,SansSerif" font-size="12.5" font-weight="bold" lengthAdjust="spacing" textLength="131.25" x="281.5104" y="192.3503">WorldGraphUnitTest</text><line style="stroke:#5E5E5E;stroke-width:1.5625;" x1="251.3021" x2="417.9688" y1="203.3203" y2="203.3203"/><line style="stroke:#5E5E5E;stroke-width:1.0416666666666667;" x1="251.3021" x2="417.9688" y1="211.6536" y2="211.6536"/><ellipse cx="261.7188" cy="223.112" fill="#84BE84" rx="3.125" ry="3.125" style="stroke:#038048;stroke-width:1.0416666666666667;"/><text fill="#D8BC00" font-family="Open Sans,Avenir,Nunito,Arial,Helvetica,SansSerif" font-size="11.4583" lengthAdjust="spacing" textLength="87.5" x="273.1771" y="230.0232">void testSetup()</text><!--MD5=[ca50473cb7c6c4cde9d4b924bfb3375d]
reverse link KryoTypes to WorldGraphKryoTypes--><path codeLine="6" d="M122.1354,122.682 C122.1354,136.0778 122.1354,150.7445 122.1354,163.9215 " fill="none" id="KryoTypes-backto-WorldGraphKryoTypes" style="stroke:#545454;stroke-width:1.5625;"/><polygon fill="none" points="114.8438,122.6507,122.1354,101.8174,129.4271,122.6507,114.8438,122.6507" style="stroke:#545454;stroke-width:1.5625;"/><!--MD5=[a1f1ae9b052621acbf61fa2e083a8913]
reverse link GraphUnitTest to WorldGraphUnitTest--><path codeLine="13" d="M334.6354,122.8695 C334.6354,138.9632 334.6354,156.859 334.6354,171.807 " fill="none" id="GraphUnitTest-backto-WorldGraphUnitTest" style="stroke:#545454;stroke-width:1.5625;"/><polygon fill="none" points="327.3438,122.6507,334.6354,101.8174,341.9271,122.6507,327.3438,122.6507" style="stroke:#545454;stroke-width:1.5625;"/><!--MD5=[e36e31f4eec9eb6b15db4a2fe93b855a]
@startuml

    !include lexakai.theme
    
    title "com.telenav.mesakit.graph.world.project"
    
    KryoTypes <|- - WorldGraphKryoTypes
    class WorldGraphKryoTypes
    {
        - -(constructors)- -
        +WorldGraphKryoTypes()
    }
    
    GraphUnitTest <|- - WorldGraphUnitTest
    class WorldGraphUnitTest
    {
        - -
        +void testSetup()
    }
    
@enduml

@startuml









skinparam backgroundColor #333333






skinparam  {
    defaultFontName   "Open Sans,Avenir,Nunito,Arial,Helvetica,SansSerif"
    defaultFontSize   12
    defaultTextAlignment left
    shadowing false
    RoundCorner 10
    TitleFontSize 18
}

skinparam defaultFontName       "Open Sans,Avenir,Nunito,Arial,Helvetica,SansSerif"
skinparam defaultFontSize       12
skinparam dpi                   100
skinparam shadowing             false
skinparam roundcorner           16
skinparam ParticipantPadding    40
skinparam BoxPadding            40
skinparam Padding               3
skinparam ArrowColor            #545454
skinparam stereotype {
    CBackgroundColor #0066cf
    CBorderColor #0086ef
    ABackgroundColor #C8Ac00
    ABorderColor #D8Bc00
    IBackgroundColor #008400
    IBorderColor #239c23
    EBackgroundColor #cf6300
    EBorderColor #ef8300
    NBackgroundColor #3380b9
    NBorderColor #004d86
}
skinparam title {
	FontColor	                 #c0c0c0
 	BorderColor                  #545454
	FontSize	    	         20
	BorderRoundCorner            16
	BorderThickness 	         1
	BackgroundColor              #48494b
}


skinparam legend {
	BackgroundColor #303030
	BorderColor #404040
	FontColor #a0a0a0
}

	skinparam swimlane {
	BorderColor #5e5e5e
	BorderThickness 2
	TitleBackgroundColor  #6d6d6d-#484848
	TitleFontColor #303030
}

skinparam activity {
		FontColor #C8Ac00
	BorderColor #333333
	BackgroundColor #333333-#333333
	BarColor #00FF00
	StartColor #0060a8
	EndColor #0060a8
	DiamondBackgroundColor #6d6d6d-#3a3a3a
  	DiamondBorderColor #3a3a3a
  	DiamondFontColor #fefefe
}


skinparam participant {
		FontColor #C8Ac00
	BorderColor #333333
	BackgroundColor #333333-#333333
	ParticipantBorderThickness 2
}


skinparam actor {
		FontColor #C8Ac00
	BorderColor #333333
	BackgroundColor #333333-#333333
}


skinparam arrow {
	Thickness 1.5
	Color #545454
	FontColor #a0a0a0
    FontStyle bold
    MessageAlignment center
}



skinparam sequence {
	BorderColor #303030
	TitleFontColor #303030
	BackgroundColor #333333
	StartColor #303030
	EndColor #303030
	BoxBackgroundColor #333333
	BoxBorderColor #484848
	BoxFontColor #484848
	LifeLineBorderColor #484848
	LifeLineBorderThickness 2
	LifeLineBackgroundColor #3a3a3a
	GroupBorderColor #484848
	GroupFontColor #484848
	GroupHeaderFontColor #0060a8
	GroupBackgroundColor #484848
	GroupHeaderBackgroundColor #333333
	DividerBackgroundColor #484848
    DividerBorderColor #484848
    DividerBorderThickness 2
    DividerFontColor #D8Bc00
	ReferenceBackgroundColor #333333
	ReferenceBorderColor #484848
	ReferenceFontColor #fefefe
	ReferenceHeaderBackgroundColor #484848
}


skinparam partition {
	BorderColor #303030
	FontColor #333333
	BackgroundColor #333333
}


skinparam collections {
		FontColor #C8Ac00
	BorderColor #333333
	BackgroundColor #333333-#333333
}


skinparam control {
		FontColor #C8Ac00
	BorderColor #333333
	BackgroundColor #333333-#333333
}


skinparam entity {
		FontColor #C8Ac00
	BorderColor #333333
	BackgroundColor #333333-#333333
}


skinparam boundary {
		FontColor #C8Ac00
	BorderColor #333333
	BackgroundColor #333333-#333333
}


skinparam agent {
	BackgroundColor #ff8000
	BorderColor #ff9933
	FontColor #484848
}


skinparam note {
	BorderThickness 1
	BackgroundColor #1b1b1a
	BorderColor #5e5e5e
	FontSize 11
	FontColor #a0a0a0
}


skinparam artifact {
	BorderThickness 10
	BorderColor #5e5e5e
	BackgroundColor #1b1b1a
	FontColor #D8Bc00
}


skinparam component {
		FontColor #C8Ac00
	BorderColor #333333
	BackgroundColor #333333-#333333
}


skinparam interface {
	BackgroundColor  #008400
	BorderColor  #007F00
	FontColor #484848
}


skinparam storage {
	BackgroundColor #ff8000
  	BorderColor #cc6600
	FontColor #222222
}


skinparam node {
	BackgroundColor #333333
	BorderColor #333333
	FontColor #C8Ac00
}


skinparam cloud {
	BackgroundColor #484848-black
	BorderColor #484848
	FontColor #D8Bc00
}


skinparam database {
		FontColor #C8Ac00
	BorderColor #333333
	BackgroundColor #333333-#333333
	BackgroundColor  #333333
}


skinparam class {
		FontColor #C8Ac00
	BorderColor #333333
	BackgroundColor #333333-#333333
	HeaderBackgroundColor #1b1b1a
    BackgroundColor #282828
    BorderColor #5e5e5e
 	StereotypeFontColor #a0a0a0
    StereotypeFontStyle bold
	BorderThickness 1
	AttributeFontColor #D8Bc00
	AttributeFontSize 11
    FontColor #D8Bc00
    FontStyle bold
}


skinparam object {
		FontColor #C8Ac00
	BorderColor #333333
	BackgroundColor #333333-#333333
	StereotypeFontColor #484848
	BorderThickness 1
	AttributeFontColor #fefefe
	AttributeFontSize 11
}


skinparam usecase {
		FontColor #C8Ac00
	BorderColor #333333
	BackgroundColor #333333-#333333
	BorderThickness 2
	StereotypeFontColor #303030
}


skinparam rectangle {
		FontColor #C8Ac00
	BorderColor #333333
	BackgroundColor #333333-#333333
	BackgroundColor #333333
	BorderThickness 2
	StereotypeFontColor #303030
}


skinparam package {
		FontColor #C8Ac00
	BorderColor #333333
	BackgroundColor #333333-#333333
	BackgroundColor #333333
	BorderThickness 2
}


skinparam folder {
	BackgroundColor #6d6d6d
  	BorderColor #ff8000
	FontColor #ff8000
	BorderThickness 2
}


skinparam frame {
	BackgroundColor #6d6d6d
  	BorderColor #0060a8
	FontColor #0060a8
	BorderThickness 2
}


skinparam state {
		FontColor #C8Ac00
	BorderColor #333333
	BackgroundColor #333333-#333333
	StartColor #0060a8
	EndColor #0060a8
	AttributeFontColor #fefefe
	AttributeFontSize 11
}


skinparam queue {
		FontColor #C8Ac00
	BorderColor #333333
	BackgroundColor #333333-#333333
}


skinparam card {
	BackgroundColor #0060a8
	BorderColor #004d86
	FontColor $INFO_TEXT
}


skinparam file {
	BackgroundColor #6d6d6d-#484848
	BorderColor #0060a8
	FontColor #fefefe
}


skinparam stack {
		FontColor #C8Ac00
	BorderColor #333333
	BackgroundColor #333333-#333333
}

    
    title "com.telenav.mesakit.graph.world.project"
    
    KryoTypes <|- - WorldGraphKryoTypes
    class WorldGraphKryoTypes
    {
        - -(constructors)- -
        +WorldGraphKryoTypes()
    }
    
    GraphUnitTest <|- - WorldGraphUnitTest
    class WorldGraphUnitTest
    {
        - -
        +void testSetup()
    }
    
@enduml

PlantUML version 1.2021.01(Tue Feb 02 00:55:08 MST 2021)
(GPL source distribution)
Java Runtime: OpenJDK Runtime Environment
JVM: OpenJDK 64-Bit Server VM
Default Encoding: UTF-8
Language: en
Country: US
--></g></svg>