<?xml version="1.0" encoding="UTF-8" standalone="no"?><svg xmlns="http://www.w3.org/2000/svg" xmlns:xlink="http://www.w3.org/1999/xlink" contentScriptType="application/ecmascript" contentStyleType="text/css" height="171.875px" preserveAspectRatio="none" style="width:839px;height:171px;background:#333333;" version="1.1" viewBox="0 0 839 171" width="839.5833px" zoomAndPan="magnify"><defs/><g><rect fill="#48494B" height="41.2028" rx="8.3333" ry="8.3333" style="stroke:#545454;stroke-width:1.0416666666666667;" width="355.2083" x="241.6667" y="2.0833"/><text fill="#C0C0C0" font-family="Open Sans,Avenir,Nunito,Arial,Helvetica,SansSerif" font-size="20.8333" lengthAdjust="spacing" textLength="332.2917" x="253.125" y="30.5583">com.telenav.mesakit.graph.query</text><rect codeLine="7" fill="#282828" height="111.4563" id="GraphQuery" rx="8.3333" ry="8.3333" style="stroke:#5E5E5E;stroke-width:1.0416666666666667;" width="825" x="7.2917" y="53.7028"/><rect fill="#1B1B1A" height="31.3883" rx="8.3333" ry="8.3333" style="stroke:#1B1B1A;stroke-width:1.0416666666666667;" width="825" x="7.2917" y="53.7028"/><rect fill="#1B1B1A" height="8.3333" style="stroke:#1B1B1A;stroke-width:1.0416666666666667;" width="825" x="7.2917" y="76.7578"/><rect codeLine="7" fill="none" height="111.4563" id="GraphQuery" rx="8.3333" ry="8.3333" style="stroke:#5E5E5E;stroke-width:1.0416666666666667;" width="825" x="7.2917" y="53.7028"/><ellipse cx="373.9583" cy="69.397" fill="#0066CF" rx="10.4167" ry="10.4167" style="stroke:#0086EF;stroke-width:1.0416666666666667;"/><path d="M375.8687,73.822 Q375.4415,74.0417 374.9715,74.1516 Q374.5015,74.2615 373.9827,74.2615 Q372.1395,74.2615 371.169,73.0469 Q370.1986,71.8323 370.1986,69.5374 Q370.1986,67.2363 371.169,66.0217 Q372.1395,64.8071 373.9827,64.8071 Q374.5015,64.8071 374.9776,64.917 Q375.4537,65.0269 375.8687,65.2466 L375.8687,67.2485 Q375.4049,66.8213 374.9685,66.6229 Q374.5321,66.4246 374.0682,66.4246 Q373.0794,66.4246 372.5759,67.2089 Q372.0723,67.9932 372.0723,69.5374 Q372.0723,71.0754 372.5759,71.8597 Q373.0794,72.644 374.0682,72.644 Q374.5321,72.644 374.9685,72.4457 Q375.4049,72.2473 375.8687,71.8201 Z " fill="#000000"/><text fill="#D8BC00" font-family="Open Sans,Avenir,Nunito,Arial,Helvetica,SansSerif" font-size="12.5" font-weight="bold" lengthAdjust="spacing" textLength="77.0833" x="396.875" y="74.1211">GraphQuery</text><line style="stroke:#5E5E5E;stroke-width:1.5625;" x1="8.3333" x2="831.25" y1="85.0911" y2="85.0911"/><line style="stroke:#5E5E5E;stroke-width:1.0416666666666667;" x1="8.3333" x2="831.25" y1="93.4245" y2="93.4245"/><ellipse cx="18.75" cy="104.8828" fill="#84BE84" rx="3.125" ry="3.125" style="stroke:#038048;stroke-width:1.0416666666666667;"/><text fill="#D8BC00" font-family="Open Sans,Avenir,Nunito,Arial,Helvetica,SansSerif" font-size="11.4583" lengthAdjust="spacing" textLength="792.7083" x="30.2083" y="111.794">Set&lt;Route&gt; execute(ProgressReporter, EdgeSequence candidates, String query, Maximum maximumMatches, Callback&lt;String&gt; errorHandler)</text><ellipse cx="18.75" cy="148.5392" fill="#84BE84" rx="3.125" ry="3.125" style="stroke:#038048;stroke-width:1.0416666666666667;"/><text fill="#D8BC00" font-family="Open Sans,Avenir,Nunito,Arial,Helvetica,SansSerif" font-size="11.4583" lengthAdjust="spacing" textLength="60.4167" x="30.2083" y="155.4504">void stop()</text><line style="stroke:#5E5E5E;stroke-width:1.0416666666666667;" x1="8.3333" x2="390.1042" y1="131.3751" y2="131.3751"/><text fill="#D8BC00" font-family="Open Sans,Avenir,Nunito,Arial,Helvetica,SansSerif" font-size="11.4583" lengthAdjust="spacing" textLength="53.125" x="393.2292" y="135.1847">(lifecycle)</text><line style="stroke:#5E5E5E;stroke-width:1.0416666666666667;" x1="449.4792" x2="831.25" y1="131.3751" y2="131.3751"/></g></svg>
