<?xml version="1.0" encoding="UTF-8" standalone="no"?><svg xmlns="http://www.w3.org/2000/svg" xmlns:xlink="http://www.w3.org/1999/xlink" contentScriptType="application/ecmascript" contentStyleType="text/css" height="218.75px" preserveAspectRatio="none" style="width:464px;height:218px;background:#333333;" version="1.1" viewBox="0 0 464 218" width="464.5833px" zoomAndPan="magnify"><defs/><g><rect fill="#48494B" height="41.2028" rx="8.3333" ry="8.3333" style="stroke:#545454;stroke-width:1.0416666666666667;" width="452.0833" x="2.0833" y="2.0833"/><text fill="#C0C0C0" font-family="Open Sans,Avenir,Nunito,Arial,Helvetica,SansSerif" font-size="20.8333" lengthAdjust="spacing" textLength="429.1667" x="13.5417" y="30.5583">com.telenav.mesakit.map.overpass.lexakai</text><rect codeLine="7" fill="#282828" height="48.055" id="UmlDiagramIdentifier" rx="8.3333" ry="8.3333" style="stroke:#5E5E5E;stroke-width:1.0416666666666667;" width="178.125" x="146.3542" y="53.7028"/><rect fill="#1B1B1A" height="31.3883" rx="8.3333" ry="8.3333" style="stroke:#1B1B1A;stroke-width:1.0416666666666667;" width="178.125" x="146.3542" y="53.7028"/><rect fill="#1B1B1A" height="8.3333" style="stroke:#1B1B1A;stroke-width:1.0416666666666667;" width="178.125" x="146.3542" y="76.7578"/><rect codeLine="7" fill="none" height="48.055" id="UmlDiagramIdentifier" rx="8.3333" ry="8.3333" style="stroke:#5E5E5E;stroke-width:1.0416666666666667;" width="178.125" x="146.3542" y="53.7028"/><ellipse cx="160.9375" cy="69.397" fill="#008400" rx="10.4167" ry="10.4167" style="stroke:#239C23;stroke-width:1.0416666666666667;"/><path d="M158.3415,66.5588 L158.3415,64.9719 L163.7675,64.9719 L163.7675,66.5588 L161.9548,66.5588 L161.9548,72.4976 L163.7675,72.4976 L163.7675,74.0845 L158.3415,74.0845 L158.3415,72.4976 L160.1542,72.4976 L160.1542,66.5588 Z " fill="#000000"/><text fill="#D8BC00" font-family="Open Sans,Avenir,Nunito,Arial,Helvetica,SansSerif" font-size="12.5" font-style="italic" font-weight="bold" lengthAdjust="spacing" textLength="140.625" x="177.6042" y="74.1211">UmlDiagramIdentifier</text><line style="stroke:#5E5E5E;stroke-width:1.0416666666666667;" x1="147.3958" x2="323.4375" y1="85.0911" y2="85.0911"/><line style="stroke:#5E5E5E;stroke-width:1.0416666666666667;" x1="147.3958" x2="323.4375" y1="93.4245" y2="93.4245"/><rect codeLine="10" fill="#282828" height="48.055" id="DiagramOverpass" rx="8.3333" ry="8.3333" style="stroke:#5E5E5E;stroke-width:1.0416666666666667;" width="153.125" x="158.8542" y="164.1195"/><rect fill="#1B1B1A" height="31.3883" rx="8.3333" ry="8.3333" style="stroke:#1B1B1A;stroke-width:1.0416666666666667;" width="153.125" x="158.8542" y="164.1195"/><rect fill="#1B1B1A" height="8.3333" style="stroke:#1B1B1A;stroke-width:1.0416666666666667;" width="153.125" x="158.8542" y="187.1745"/><rect codeLine="10" fill="none" height="48.055" id="DiagramOverpass" rx="8.3333" ry="8.3333" style="stroke:#5E5E5E;stroke-width:1.0416666666666667;" width="153.125" x="158.8542" y="164.1195"/><ellipse cx="173.4375" cy="179.8136" fill="#0066CF" rx="10.4167" ry="10.4167" style="stroke:#0086EF;stroke-width:1.0416666666666667;"/><path d="M175.3479,184.2387 Q174.9207,184.4584 174.4507,184.5683 Q173.9807,184.6781 173.4619,184.6781 Q171.6187,184.6781 170.6482,183.4635 Q169.6777,182.2489 169.6777,179.954 Q169.6777,177.653 170.6482,176.4384 Q171.6187,175.2238 173.4619,175.2238 Q173.9807,175.2238 174.4568,175.3337 Q174.9329,175.4435 175.3479,175.6632 L175.3479,177.6652 Q174.884,177.238 174.4476,177.0396 Q174.0112,176.8412 173.5474,176.8412 Q172.5586,176.8412 172.0551,177.6255 Q171.5515,178.4098 171.5515,179.954 Q171.5515,181.4921 172.0551,182.2764 Q172.5586,183.0607 173.5474,183.0607 Q174.0112,183.0607 174.4476,182.8623 Q174.884,182.664 175.3479,182.2367 Z " fill="#000000"/><text fill="#D8BC00" font-family="Open Sans,Avenir,Nunito,Arial,Helvetica,SansSerif" font-size="12.5" font-weight="bold" lengthAdjust="spacing" textLength="115.625" x="190.1042" y="184.5378">DiagramOverpass</text><line style="stroke:#5E5E5E;stroke-width:1.0416666666666667;" x1="159.8958" x2="310.9375" y1="195.5078" y2="195.5078"/><line style="stroke:#5E5E5E;stroke-width:1.0416666666666667;" x1="159.8958" x2="310.9375" y1="203.8411" y2="203.8411"/><path codeLine="9" d="M235.4167,122.6195 C235.4167,136.8382 235.4167,152.0361 235.4167,164.0986 " fill="none" id="UmlDiagramIdentifier-backto-DiagramOverpass" style="stroke:#545454;stroke-width:1.5625;"/><polygon fill="none" points="228.125,122.5153,235.4167,101.682,242.7083,122.5153,228.125,122.5153" style="stroke:#545454;stroke-width:1.5625;"/></g></svg>
