<?xml version="1.0" encoding="UTF-8" standalone="no"?><svg xmlns="http://www.w3.org/2000/svg" xmlns:xlink="http://www.w3.org/1999/xlink" contentScriptType="application/ecmascript" contentStyleType="text/css" height="282.2917px" preserveAspectRatio="none" style="width:573px;height:282px;background:#333333;" version="1.1" viewBox="0 0 573 282" width="573.9583px" zoomAndPan="magnify"><defs/><g><rect fill="#48494B" height="41.2028" rx="8.3333" ry="8.3333" style="stroke:#545454;stroke-width:1.0416666666666667;" width="561.4583" x="2.0833" y="2.0833"/><text fill="#C0C0C0" font-family="Open Sans,Avenir,Nunito,Arial,Helvetica,SansSerif" font-size="20.8333" lengthAdjust="spacing" textLength="538.5417" x="13.5417" y="30.5583">com.telenav.mesakit.tools.applications.graph.dumper</text><rect fill="#282828" height="48.055" id="Application" rx="8.3333" ry="8.3333" style="stroke:#5E5E5E;stroke-width:1.0416666666666667;" width="111.4583" x="235.4167" y="53.7028"/><rect fill="#1B1B1A" height="31.3883" rx="8.3333" ry="8.3333" style="stroke:#1B1B1A;stroke-width:1.0416666666666667;" width="111.4583" x="235.4167" y="53.7028"/><rect fill="#1B1B1A" height="8.3333" style="stroke:#1B1B1A;stroke-width:1.0416666666666667;" width="111.4583" x="235.4167" y="76.7578"/><rect fill="none" height="48.055" id="Application" rx="8.3333" ry="8.3333" style="stroke:#5E5E5E;stroke-width:1.0416666666666667;" width="111.4583" x="235.4167" y="53.7028"/><ellipse cx="250" cy="69.397" fill="#0066CF" rx="10.4167" ry="10.4167" style="stroke:#0086EF;stroke-width:1.0416666666666667;"/><path d="M251.9104,73.822 Q251.4832,74.0417 251.0132,74.1516 Q250.5432,74.2615 250.0244,74.2615 Q248.1812,74.2615 247.2107,73.0469 Q246.2402,71.8323 246.2402,69.5374 Q246.2402,67.2363 247.2107,66.0217 Q248.1812,64.8071 250.0244,64.8071 Q250.5432,64.8071 251.0193,64.917 Q251.4954,65.0269 251.9104,65.2466 L251.9104,67.2485 Q251.4465,66.8213 251.0101,66.6229 Q250.5737,66.4246 250.1099,66.4246 Q249.1211,66.4246 248.6176,67.2089 Q248.114,67.9932 248.114,69.5374 Q248.114,71.0754 248.6176,71.8597 Q249.1211,72.644 250.1099,72.644 Q250.5737,72.644 251.0101,72.4457 Q251.4465,72.2473 251.9104,71.8201 Z " fill="#000000"/><text fill="#D8BC00" font-family="Open Sans,Avenir,Nunito,Arial,Helvetica,SansSerif" font-size="12.5" font-weight="bold" lengthAdjust="spacing" textLength="73.9583" x="266.6667" y="74.1211">Application</text><line style="stroke:#5E5E5E;stroke-width:1.0416666666666667;" x1="236.4583" x2="345.8333" y1="85.0911" y2="85.0911"/><line style="stroke:#5E5E5E;stroke-width:1.0416666666666667;" x1="236.4583" x2="345.8333" y1="93.4245" y2="93.4245"/><rect codeLine="8" fill="#282828" height="111.4563" id="GraphDumperApplication" rx="8.3333" ry="8.3333" style="stroke:#5E5E5E;stroke-width:1.0416666666666667;" width="202.0833" x="190.1042" y="164.1195"/><rect fill="#1B1B1A" height="31.3883" rx="8.3333" ry="8.3333" style="stroke:#1B1B1A;stroke-width:1.0416666666666667;" width="202.0833" x="190.1042" y="164.1195"/><rect fill="#1B1B1A" height="8.3333" style="stroke:#1B1B1A;stroke-width:1.0416666666666667;" width="202.0833" x="190.1042" y="187.1745"/><rect codeLine="8" fill="none" height="111.4563" id="GraphDumperApplication" rx="8.3333" ry="8.3333" style="stroke:#5E5E5E;stroke-width:1.0416666666666667;" width="202.0833" x="190.1042" y="164.1195"/><ellipse cx="204.6875" cy="179.8136" fill="#0066CF" rx="10.4167" ry="10.4167" style="stroke:#0086EF;stroke-width:1.0416666666666667;"/><path d="M206.5979,184.2387 Q206.1707,184.4584 205.7007,184.5683 Q205.2307,184.6781 204.7119,184.6781 Q202.8687,184.6781 201.8982,183.4635 Q200.9277,182.2489 200.9277,179.954 Q200.9277,177.653 201.8982,176.4384 Q202.8687,175.2238 204.7119,175.2238 Q205.2307,175.2238 205.7068,175.3337 Q206.1829,175.4435 206.5979,175.6632 L206.5979,177.6652 Q206.134,177.238 205.6976,177.0396 Q205.2612,176.8412 204.7974,176.8412 Q203.8086,176.8412 203.3051,177.6255 Q202.8015,178.4098 202.8015,179.954 Q202.8015,181.4921 203.3051,182.2764 Q203.8086,183.0607 204.7974,183.0607 Q205.2612,183.0607 205.6976,182.8623 Q206.134,182.664 206.5979,182.2367 Z " fill="#000000"/><text fill="#D8BC00" font-family="Open Sans,Avenir,Nunito,Arial,Helvetica,SansSerif" font-size="12.5" font-weight="bold" lengthAdjust="spacing" textLength="164.5833" x="221.3542" y="184.5378">GraphDumperApplication</text><line style="stroke:#5E5E5E;stroke-width:1.5625;" x1="191.1458" x2="391.1458" y1="195.5078" y2="195.5078"/><polygon fill="#FFFF44" points="201.5625,225.6694,205.7292,229.836,201.5625,234.0027,197.3958,229.836" style="stroke:#B38D22;stroke-width:1.0416666666666667;"/><text fill="#D8BC00" font-family="Open Sans,Avenir,Nunito,Arial,Helvetica,SansSerif" font-size="11.4583" lengthAdjust="spacing" textLength="151.0417" x="213.0208" y="237.7889">GraphDumperApplication()</text><line style="stroke:#5E5E5E;stroke-width:1.0416666666666667;" x1="191.1458" x2="247.3958" y1="213.7136" y2="213.7136"/><text fill="#D8BC00" font-family="Open Sans,Avenir,Nunito,Arial,Helvetica,SansSerif" font-size="11.4583" lengthAdjust="spacing" textLength="81.25" x="250.5208" y="217.5232">(constructors)</text><line style="stroke:#5E5E5E;stroke-width:1.0416666666666667;" x1="334.8958" x2="391.1458" y1="213.7136" y2="213.7136"/><line style="stroke:#5E5E5E;stroke-width:1.0416666666666667;" x1="191.1458" x2="391.1458" y1="247.4976" y2="247.4976"/><ellipse cx="201.5625" cy="258.9559" fill="#84BE84" rx="3.125" ry="3.125" style="stroke:#038048;stroke-width:1.0416666666666667;"/><text fill="#D8BC00" font-family="Open Sans,Avenir,Nunito,Arial,Helvetica,SansSerif" font-size="11.4583" lengthAdjust="spacing" textLength="167.7083" x="213.0208" y="265.8671">void main(String[] arguments)</text><path codeLine="7" d="M291.1458,122.7028 C291.1458,135.7549 291.1458,150.2028 291.1458,163.859 " fill="none" id="Application-backto-GraphDumperApplication" style="stroke:#545454;stroke-width:1.5625;"/><polygon fill="none" points="283.8542,122.6715,291.1458,101.8382,298.4375,122.6715,283.8542,122.6715" style="stroke:#545454;stroke-width:1.5625;"/></g></svg>
