<?xml version="1.0" encoding="UTF-8" standalone="no"?><svg xmlns="http://www.w3.org/2000/svg" xmlns:xlink="http://www.w3.org/1999/xlink" contentScriptType="application/ecmascript" contentStyleType="text/css" height="282.2917px" preserveAspectRatio="none" style="width:616px;height:282px;background:#333333;" version="1.1" viewBox="0 0 616 282" width="616.6667px" zoomAndPan="magnify"><defs/><g><rect fill="#48494B" height="41.2028" rx="8.3333" ry="8.3333" style="stroke:#545454;stroke-width:1.0416666666666667;" width="604.1667" x="2.0833" y="2.0833"/><text fill="#C0C0C0" font-family="Open Sans,Avenir,Nunito,Arial,Helvetica,SansSerif" font-size="20.8333" lengthAdjust="spacing" textLength="581.25" x="13.5417" y="30.5583">com.telenav.mesakit.tools.applications.region.information</text><rect fill="#282828" height="48.055" id="Application" rx="8.3333" ry="8.3333" style="stroke:#5E5E5E;stroke-width:1.0416666666666667;" width="111.4583" x="255.7292" y="53.7028"/><rect fill="#1B1B1A" height="31.3883" rx="8.3333" ry="8.3333" style="stroke:#1B1B1A;stroke-width:1.0416666666666667;" width="111.4583" x="255.7292" y="53.7028"/><rect fill="#1B1B1A" height="8.3333" style="stroke:#1B1B1A;stroke-width:1.0416666666666667;" width="111.4583" x="255.7292" y="76.7578"/><rect fill="none" height="48.055" id="Application" rx="8.3333" ry="8.3333" style="stroke:#5E5E5E;stroke-width:1.0416666666666667;" width="111.4583" x="255.7292" y="53.7028"/><ellipse cx="270.3125" cy="69.397" fill="#0066CF" rx="10.4167" ry="10.4167" style="stroke:#0086EF;stroke-width:1.0416666666666667;"/><path d="M272.2229,73.822 Q271.7957,74.0417 271.3257,74.1516 Q270.8557,74.2615 270.3369,74.2615 Q268.4937,74.2615 267.5232,73.0469 Q266.5527,71.8323 266.5527,69.5374 Q266.5527,67.2363 267.5232,66.0217 Q268.4937,64.8071 270.3369,64.8071 Q270.8557,64.8071 271.3318,64.917 Q271.8079,65.0269 272.2229,65.2466 L272.2229,67.2485 Q271.759,66.8213 271.3226,66.6229 Q270.8862,66.4246 270.4224,66.4246 Q269.4336,66.4246 268.9301,67.2089 Q268.4265,67.9932 268.4265,69.5374 Q268.4265,71.0754 268.9301,71.8597 Q269.4336,72.644 270.4224,72.644 Q270.8862,72.644 271.3226,72.4457 Q271.759,72.2473 272.2229,71.8201 Z " fill="#000000"/><text fill="#D8BC00" font-family="Open Sans,Avenir,Nunito,Arial,Helvetica,SansSerif" font-size="12.5" font-weight="bold" lengthAdjust="spacing" textLength="73.9583" x="286.9792" y="74.1211">Application</text><line style="stroke:#5E5E5E;stroke-width:1.0416666666666667;" x1="256.7708" x2="366.1458" y1="85.0911" y2="85.0911"/><line style="stroke:#5E5E5E;stroke-width:1.0416666666666667;" x1="256.7708" x2="366.1458" y1="93.4245" y2="93.4245"/><rect codeLine="8" fill="#282828" height="111.4563" id="RegionInformationApplication" rx="8.3333" ry="8.3333" style="stroke:#5E5E5E;stroke-width:1.0416666666666667;" width="233.3333" x="194.7917" y="164.1195"/><rect fill="#1B1B1A" height="31.3883" rx="8.3333" ry="8.3333" style="stroke:#1B1B1A;stroke-width:1.0416666666666667;" width="233.3333" x="194.7917" y="164.1195"/><rect fill="#1B1B1A" height="8.3333" style="stroke:#1B1B1A;stroke-width:1.0416666666666667;" width="233.3333" x="194.7917" y="187.1745"/><rect codeLine="8" fill="none" height="111.4563" id="RegionInformationApplication" rx="8.3333" ry="8.3333" style="stroke:#5E5E5E;stroke-width:1.0416666666666667;" width="233.3333" x="194.7917" y="164.1195"/><ellipse cx="209.375" cy="179.8136" fill="#0066CF" rx="10.4167" ry="10.4167" style="stroke:#0086EF;stroke-width:1.0416666666666667;"/><path d="M211.2854,184.2387 Q210.8582,184.4584 210.3882,184.5683 Q209.9182,184.6781 209.3994,184.6781 Q207.5562,184.6781 206.5857,183.4635 Q205.6152,182.2489 205.6152,179.954 Q205.6152,177.653 206.5857,176.4384 Q207.5562,175.2238 209.3994,175.2238 Q209.9182,175.2238 210.3943,175.3337 Q210.8704,175.4435 211.2854,175.6632 L211.2854,177.6652 Q210.8215,177.238 210.3851,177.0396 Q209.9487,176.8412 209.4849,176.8412 Q208.4961,176.8412 207.9926,177.6255 Q207.489,178.4098 207.489,179.954 Q207.489,181.4921 207.9926,182.2764 Q208.4961,183.0607 209.4849,183.0607 Q209.9487,183.0607 210.3851,182.8623 Q210.8215,182.664 211.2854,182.2367 Z " fill="#000000"/><text fill="#D8BC00" font-family="Open Sans,Avenir,Nunito,Arial,Helvetica,SansSerif" font-size="12.5" font-weight="bold" lengthAdjust="spacing" textLength="195.8333" x="226.0417" y="184.5378">RegionInformationApplication</text><line style="stroke:#5E5E5E;stroke-width:1.5625;" x1="195.8333" x2="427.0833" y1="195.5078" y2="195.5078"/><ellipse cx="206.25" cy="230.8777" fill="#84BE84" rx="3.125" ry="3.125" style="stroke:#038048;stroke-width:1.0416666666666667;"/><text fill="#D8BC00" font-family="Open Sans,Avenir,Nunito,Arial,Helvetica,SansSerif" font-size="11.4583" lengthAdjust="spacing" textLength="176.0417" x="217.7083" y="237.7889">RegionInformationApplication()</text><line style="stroke:#5E5E5E;stroke-width:1.0416666666666667;" x1="195.8333" x2="267.7083" y1="213.7136" y2="213.7136"/><text fill="#D8BC00" font-family="Open Sans,Avenir,Nunito,Arial,Helvetica,SansSerif" font-size="11.4583" lengthAdjust="spacing" textLength="81.25" x="270.8333" y="217.5232">(constructors)</text><line style="stroke:#5E5E5E;stroke-width:1.0416666666666667;" x1="355.2083" x2="427.0833" y1="213.7136" y2="213.7136"/><line style="stroke:#5E5E5E;stroke-width:1.0416666666666667;" x1="195.8333" x2="427.0833" y1="247.4976" y2="247.4976"/><ellipse cx="206.25" cy="258.9559" fill="#84BE84" rx="3.125" ry="3.125" style="stroke:#038048;stroke-width:1.0416666666666667;"/><text fill="#D8BC00" font-family="Open Sans,Avenir,Nunito,Arial,Helvetica,SansSerif" font-size="11.4583" lengthAdjust="spacing" textLength="167.7083" x="217.7083" y="265.8671">void main(String[] arguments)</text><path codeLine="7" d="M311.4583,122.7028 C311.4583,135.7549 311.4583,150.2028 311.4583,163.859 " fill="none" id="Application-backto-RegionInformationApplication" style="stroke:#545454;stroke-width:1.5625;"/><polygon fill="none" points="304.1667,122.6715,311.4583,101.8382,318.75,122.6715,304.1667,122.6715" style="stroke:#545454;stroke-width:1.5625;"/></g></svg>
