<?xml version="1.0" encoding="UTF-8" standalone="no"?><svg xmlns="http://www.w3.org/2000/svg" xmlns:xlink="http://www.w3.org/1999/xlink" contentScriptType="application/ecmascript" contentStyleType="text/css" height="254.1667px" preserveAspectRatio="none" style="width:471px;height:254px;background:#333333;" version="1.1" viewBox="0 0 471 254" width="471.875px" zoomAndPan="magnify"><defs/><g><rect fill="#48494B" height="41.2028" rx="8.3333" ry="8.3333" style="stroke:#545454;stroke-width:1.0416666666666667;" width="428.125" x="14.5833" y="2.0833"/><text fill="#C0C0C0" font-family="Open Sans,Avenir,Nunito,Arial,Helvetica,SansSerif" font-size="20.8333" lengthAdjust="spacing" textLength="405.2083" x="26.0417" y="30.5583">com.telenav.mesakit.plugins.josm.graph</text><!--MD5=[c9e3024f2ff482106f5f2c6018b82a4d]
class BaseJosmPlugin--><rect codeLine="7" fill="#282828" height="48.055" id="BaseJosmPlugin" rx="8.3333" ry="8.3333" style="stroke:#5E5E5E;stroke-width:1.0416666666666667;" width="141.6667" x="41.1458" y="53.7028"/><rect fill="#1B1B1A" height="31.3883" rx="8.3333" ry="8.3333" style="stroke:#1B1B1A;stroke-width:1.0416666666666667;" width="141.6667" x="41.1458" y="53.7028"/><rect fill="#1B1B1A" height="8.3333" style="stroke:#1B1B1A;stroke-width:1.0416666666666667;" width="141.6667" x="41.1458" y="76.7578"/><rect codeLine="7" fill="none" height="48.055" id="BaseJosmPlugin" rx="8.3333" ry="8.3333" style="stroke:#5E5E5E;stroke-width:1.0416666666666667;" width="141.6667" x="41.1458" y="53.7028"/><ellipse cx="55.7292" cy="69.397" fill="#C8AC00" rx="10.4167" ry="10.4167" style="stroke:#D8BC00;stroke-width:1.0416666666666667;"/><path d="M55.3223,66.099 L54.4739,69.8283 L56.1768,69.8283 Z M54.2236,64.4511 L56.427,64.4511 L58.8867,73.5636 L57.0862,73.5636 L56.5247,71.3114 L54.1138,71.3114 L53.5645,73.5636 L51.7639,73.5636 Z " fill="#000000"/><text fill="#D8BC00" font-family="Open Sans,Avenir,Nunito,Arial,Helvetica,SansSerif" font-size="12.5" font-style="italic" font-weight="bold" lengthAdjust="spacing" textLength="104.1667" x="72.3958" y="74.1211">BaseJosmPlugin</text><line style="stroke:#5E5E5E;stroke-width:1.0416666666666667;" x1="42.1875" x2="181.7708" y1="85.0911" y2="85.0911"/><line style="stroke:#5E5E5E;stroke-width:1.0416666666666667;" x1="42.1875" x2="181.7708" y1="93.4245" y2="93.4245"/><!--MD5=[e479a84643d9f1809b84e1101d6d5700]
class FileImporter--><rect fill="#282828" height="48.055" id="FileImporter" rx="8.3333" ry="8.3333" style="stroke:#5E5E5E;stroke-width:1.0416666666666667;" width="116.6667" x="300.5208" y="53.7028"/><rect fill="#1B1B1A" height="31.3883" rx="8.3333" ry="8.3333" style="stroke:#1B1B1A;stroke-width:1.0416666666666667;" width="116.6667" x="300.5208" y="53.7028"/><rect fill="#1B1B1A" height="8.3333" style="stroke:#1B1B1A;stroke-width:1.0416666666666667;" width="116.6667" x="300.5208" y="76.7578"/><rect fill="none" height="48.055" id="FileImporter" rx="8.3333" ry="8.3333" style="stroke:#5E5E5E;stroke-width:1.0416666666666667;" width="116.6667" x="300.5208" y="53.7028"/><ellipse cx="315.1042" cy="69.397" fill="#0066CF" rx="10.4167" ry="10.4167" style="stroke:#0086EF;stroke-width:1.0416666666666667;"/><path d="M317.0146,73.822 Q316.5873,74.0417 316.1174,74.1516 Q315.6474,74.2615 315.1286,74.2615 Q313.2853,74.2615 312.3149,73.0469 Q311.3444,71.8323 311.3444,69.5374 Q311.3444,67.2363 312.3149,66.0217 Q313.2853,64.8071 315.1286,64.8071 Q315.6474,64.8071 316.1235,64.917 Q316.5995,65.0269 317.0146,65.2466 L317.0146,67.2485 Q316.5507,66.8213 316.1143,66.6229 Q315.6779,66.4246 315.214,66.4246 Q314.2253,66.4246 313.7217,67.2089 Q313.2182,67.9932 313.2182,69.5374 Q313.2182,71.0754 313.7217,71.8597 Q314.2253,72.644 315.214,72.644 Q315.6779,72.644 316.1143,72.4457 Q316.5507,72.2473 317.0146,71.8201 Z " fill="#000000"/><text fill="#D8BC00" font-family="Open Sans,Avenir,Nunito,Arial,Helvetica,SansSerif" font-size="12.5" font-weight="bold" lengthAdjust="spacing" textLength="79.1667" x="331.7708" y="74.1211">FileImporter</text><line style="stroke:#5E5E5E;stroke-width:1.0416666666666667;" x1="301.5625" x2="416.1458" y1="85.0911" y2="85.0911"/><line style="stroke:#5E5E5E;stroke-width:1.0416666666666667;" x1="301.5625" x2="416.1458" y1="93.4245" y2="93.4245"/><!--MD5=[8fa5fd8312960ac7be24b49d664e64ad]
class GraphFileImporter--><rect codeLine="10" fill="#282828" height="83.3781" id="GraphFileImporter" rx="8.3333" ry="8.3333" style="stroke:#5E5E5E;stroke-width:1.0416666666666667;" width="211.4583" x="253.125" y="164.1195"/><rect fill="#1B1B1A" height="31.3883" rx="8.3333" ry="8.3333" style="stroke:#1B1B1A;stroke-width:1.0416666666666667;" width="211.4583" x="253.125" y="164.1195"/><rect fill="#1B1B1A" height="8.3333" style="stroke:#1B1B1A;stroke-width:1.0416666666666667;" width="211.4583" x="253.125" y="187.1745"/><rect codeLine="10" fill="none" height="83.3781" id="GraphFileImporter" rx="8.3333" ry="8.3333" style="stroke:#5E5E5E;stroke-width:1.0416666666666667;" width="211.4583" x="253.125" y="164.1195"/><ellipse cx="293.0208" cy="179.8136" fill="#0066CF" rx="10.4167" ry="10.4167" style="stroke:#0086EF;stroke-width:1.0416666666666667;"/><path d="M294.9312,184.2387 Q294.504,184.4584 294.034,184.5683 Q293.564,184.6781 293.0452,184.6781 Q291.202,184.6781 290.2315,183.4635 Q289.2611,182.2489 289.2611,179.954 Q289.2611,177.653 290.2315,176.4384 Q291.202,175.2238 293.0452,175.2238 Q293.564,175.2238 294.0401,175.3337 Q294.5162,175.4435 294.9312,175.6632 L294.9312,177.6652 Q294.4674,177.238 294.031,177.0396 Q293.5946,176.8412 293.1307,176.8412 Q292.1419,176.8412 291.6384,177.6255 Q291.1348,178.4098 291.1348,179.954 Q291.1348,181.4921 291.6384,182.2764 Q292.1419,183.0607 293.1307,183.0607 Q293.5946,183.0607 294.031,182.8623 Q294.4674,182.664 294.9312,182.2367 Z " fill="#000000"/><text fill="#D8BC00" font-family="Open Sans,Avenir,Nunito,Arial,Helvetica,SansSerif" font-size="12.5" font-weight="bold" lengthAdjust="spacing" textLength="117.7083" x="315.3125" y="184.5378">GraphFileImporter</text><line style="stroke:#5E5E5E;stroke-width:1.5625;" x1="254.1667" x2="463.5417" y1="195.5078" y2="195.5078"/><ellipse cx="264.5833" cy="230.8777" fill="#84BE84" rx="3.125" ry="3.125" style="stroke:#038048;stroke-width:1.0416666666666667;"/><text fill="#D8BC00" font-family="Open Sans,Avenir,Nunito,Arial,Helvetica,SansSerif" font-size="11.4583" lengthAdjust="spacing" textLength="179.1667" x="276.0417" y="237.7889">GraphFileImporter(GraphPlugin)</text><line style="stroke:#5E5E5E;stroke-width:1.0416666666666667;" x1="254.1667" x2="315.1042" y1="213.7136" y2="213.7136"/><text fill="#D8BC00" font-family="Open Sans,Avenir,Nunito,Arial,Helvetica,SansSerif" font-size="11.4583" lengthAdjust="spacing" textLength="81.25" x="318.2292" y="217.5232">(constructors)</text><line style="stroke:#5E5E5E;stroke-width:1.0416666666666667;" x1="402.6042" x2="463.5417" y1="213.7136" y2="213.7136"/><!--MD5=[c9cc071657c5e85cfbe201dc005aa681]
class GraphPlugin--><rect codeLine="17" fill="#282828" height="83.3781" id="GraphPlugin" rx="8.3333" ry="8.3333" style="stroke:#5E5E5E;stroke-width:1.0416666666666667;" width="209.375" x="7.2917" y="164.1195"/><rect fill="#1B1B1A" height="31.3883" rx="8.3333" ry="8.3333" style="stroke:#1B1B1A;stroke-width:1.0416666666666667;" width="209.375" x="7.2917" y="164.1195"/><rect fill="#1B1B1A" height="8.3333" style="stroke:#1B1B1A;stroke-width:1.0416666666666667;" width="209.375" x="7.2917" y="187.1745"/><rect codeLine="17" fill="none" height="83.3781" id="GraphPlugin" rx="8.3333" ry="8.3333" style="stroke:#5E5E5E;stroke-width:1.0416666666666667;" width="209.375" x="7.2917" y="164.1195"/><ellipse cx="65.1042" cy="179.8136" fill="#0066CF" rx="10.4167" ry="10.4167" style="stroke:#0086EF;stroke-width:1.0416666666666667;"/><path d="M67.0146,184.2387 Q66.5873,184.4584 66.1174,184.5683 Q65.6474,184.6781 65.1286,184.6781 Q63.2853,184.6781 62.3149,183.4635 Q61.3444,182.2489 61.3444,179.954 Q61.3444,177.653 62.3149,176.4384 Q63.2853,175.2238 65.1286,175.2238 Q65.6474,175.2238 66.1235,175.3337 Q66.5995,175.4435 67.0146,175.6632 L67.0146,177.6652 Q66.5507,177.238 66.1143,177.0396 Q65.6779,176.8412 65.214,176.8412 Q64.2253,176.8412 63.7217,177.6255 Q63.2182,178.4098 63.2182,179.954 Q63.2182,181.4921 63.7217,182.2764 Q64.2253,183.0607 65.214,183.0607 Q65.6779,183.0607 66.1143,182.8623 Q66.5507,182.664 67.0146,182.2367 Z " fill="#000000"/><text fill="#D8BC00" font-family="Open Sans,Avenir,Nunito,Arial,Helvetica,SansSerif" font-size="12.5" font-weight="bold" lengthAdjust="spacing" textLength="79.1667" x="88.0208" y="184.5378">GraphPlugin</text><line style="stroke:#5E5E5E;stroke-width:1.5625;" x1="8.3333" x2="215.625" y1="195.5078" y2="195.5078"/><ellipse cx="18.75" cy="230.8777" fill="#84BE84" rx="3.125" ry="3.125" style="stroke:#038048;stroke-width:1.0416666666666667;"/><text fill="#D8BC00" font-family="Open Sans,Avenir,Nunito,Arial,Helvetica,SansSerif" font-size="11.4583" lengthAdjust="spacing" textLength="177.0833" x="30.2083" y="237.7889">GraphPlugin(PluginInformation)</text><line style="stroke:#5E5E5E;stroke-width:1.0416666666666667;" x1="8.3333" x2="68.2292" y1="213.7136" y2="213.7136"/><text fill="#D8BC00" font-family="Open Sans,Avenir,Nunito,Arial,Helvetica,SansSerif" font-size="11.4583" lengthAdjust="spacing" textLength="81.25" x="71.3542" y="217.5232">(constructors)</text><line style="stroke:#5E5E5E;stroke-width:1.0416666666666667;" x1="155.7292" x2="215.625" y1="213.7136" y2="213.7136"/><!--MD5=[46c671bf6997b9fdf49c9d2e16c4b50c]
reverse link FileImporter to GraphFileImporter--><path codeLine="9" d="M358.8542,122.682 C358.8542,136.0778 358.8542,150.7445 358.8542,163.9215 " fill="none" id="FileImporter-backto-GraphFileImporter" style="stroke:#545454;stroke-width:1.5625;"/><polygon fill="none" points="351.5625,122.6507,358.8542,101.8174,366.1458,122.6507,351.5625,122.6507" style="stroke:#545454;stroke-width:1.5625;"/><!--MD5=[843bd771cc3fdd679f94cfd7138a8a98]
reverse link BaseJosmPlugin to GraphPlugin--><path codeLine="16" d="M111.9792,122.682 C111.9792,136.0778 111.9792,150.7445 111.9792,163.9215 " fill="none" id="BaseJosmPlugin-backto-GraphPlugin" style="stroke:#545454;stroke-width:1.5625;"/><polygon fill="none" points="104.6875,122.6507,111.9792,101.8174,119.2708,122.6507,104.6875,122.6507" style="stroke:#545454;stroke-width:1.5625;"/><!--MD5=[a79dc84fd32007950d5bc3f5f6d18df3]
@startuml

    !include lexakai.theme
    
    title "com.telenav.mesakit.plugins.josm.graph"
    
    abstract BaseJosmPlugin
    
    FileImporter <|- - GraphFileImporter
    class GraphFileImporter
    {
        - -(constructors)- -
        +GraphFileImporter(GraphPlugin)
    }
    
    BaseJosmPlugin <|- - GraphPlugin
    class GraphPlugin
    {
        - -(constructors)- -
        +GraphPlugin(PluginInformation)
    }
    
@enduml

@startuml









skinparam backgroundColor #333333






skinparam  {
    defaultFontName   "Open Sans,Avenir,Nunito,Arial,Helvetica,SansSerif"
    defaultFontSize   12
    defaultTextAlignment left
    shadowing false
    RoundCorner 10
    TitleFontSize 18
}

skinparam defaultFontName       "Open Sans,Avenir,Nunito,Arial,Helvetica,SansSerif"
skinparam defaultFontSize       12
skinparam dpi                   100
skinparam shadowing             false
skinparam roundcorner           16
skinparam ParticipantPadding    40
skinparam BoxPadding            40
skinparam Padding               3
skinparam ArrowColor            #545454
skinparam stereotype {
    CBackgroundColor #0066cf
    CBorderColor #0086ef
    ABackgroundColor #C8Ac00
    ABorderColor #D8Bc00
    IBackgroundColor #008400
    IBorderColor #239c23
    EBackgroundColor #cf6300
    EBorderColor #ef8300
    NBackgroundColor #3380b9
    NBorderColor #004d86
}
skinparam title {
	FontColor	                 #c0c0c0
 	BorderColor                  #545454
	FontSize	    	         20
	BorderRoundCorner            16
	BorderThickness 	         1
	BackgroundColor              #48494b
}


skinparam legend {
	BackgroundColor #303030
	BorderColor #404040
	FontColor #a0a0a0
}

	skinparam swimlane {
	BorderColor #5e5e5e
	BorderThickness 2
	TitleBackgroundColor  #6d6d6d-#484848
	TitleFontColor #303030
}

skinparam activity {
		FontColor #C8Ac00
	BorderColor #333333
	BackgroundColor #333333-#333333
	BarColor #00FF00
	StartColor #0060a8
	EndColor #0060a8
	DiamondBackgroundColor #6d6d6d-#3a3a3a
  	DiamondBorderColor #3a3a3a
  	DiamondFontColor #fefefe
}


skinparam participant {
		FontColor #C8Ac00
	BorderColor #333333
	BackgroundColor #333333-#333333
	ParticipantBorderThickness 2
}


skinparam actor {
		FontColor #C8Ac00
	BorderColor #333333
	BackgroundColor #333333-#333333
}


skinparam arrow {
	Thickness 1.5
	Color #545454
	FontColor #a0a0a0
    FontStyle bold
    MessageAlignment center
}



skinparam sequence {
	BorderColor #303030
	TitleFontColor #303030
	BackgroundColor #333333
	StartColor #303030
	EndColor #303030
	BoxBackgroundColor #333333
	BoxBorderColor #484848
	BoxFontColor #484848
	LifeLineBorderColor #484848
	LifeLineBorderThickness 2
	LifeLineBackgroundColor #3a3a3a
	GroupBorderColor #484848
	GroupFontColor #484848
	GroupHeaderFontColor #0060a8
	GroupBackgroundColor #484848
	GroupHeaderBackgroundColor #333333
	DividerBackgroundColor #484848
    DividerBorderColor #484848
    DividerBorderThickness 2
    DividerFontColor #D8Bc00
	ReferenceBackgroundColor #333333
	ReferenceBorderColor #484848
	ReferenceFontColor #fefefe
	ReferenceHeaderBackgroundColor #484848
}


skinparam partition {
	BorderColor #303030
	FontColor #333333
	BackgroundColor #333333
}


skinparam collections {
		FontColor #C8Ac00
	BorderColor #333333
	BackgroundColor #333333-#333333
}


skinparam control {
		FontColor #C8Ac00
	BorderColor #333333
	BackgroundColor #333333-#333333
}


skinparam entity {
		FontColor #C8Ac00
	BorderColor #333333
	BackgroundColor #333333-#333333
}


skinparam boundary {
		FontColor #C8Ac00
	BorderColor #333333
	BackgroundColor #333333-#333333
}


skinparam agent {
	BackgroundColor #ff8000
	BorderColor #ff9933
	FontColor #484848
}


skinparam note {
	BorderThickness 1
	BackgroundColor #1b1b1a
	BorderColor #5e5e5e
	FontSize 11
	FontColor #a0a0a0
}


skinparam artifact {
	BorderThickness 10
	BorderColor #5e5e5e
	BackgroundColor #1b1b1a
	FontColor #D8Bc00
}


skinparam component {
		FontColor #C8Ac00
	BorderColor #333333
	BackgroundColor #333333-#333333
}


skinparam interface {
	BackgroundColor  #008400
	BorderColor  #007F00
	FontColor #484848
}


skinparam storage {
	BackgroundColor #ff8000
  	BorderColor #cc6600
	FontColor #222222
}


skinparam node {
	BackgroundColor #333333
	BorderColor #333333
	FontColor #C8Ac00
}


skinparam cloud {
	BackgroundColor #484848-black
	BorderColor #484848
	FontColor #D8Bc00
}


skinparam database {
		FontColor #C8Ac00
	BorderColor #333333
	BackgroundColor #333333-#333333
	BackgroundColor  #333333
}


skinparam class {
		FontColor #C8Ac00
	BorderColor #333333
	BackgroundColor #333333-#333333
	HeaderBackgroundColor #1b1b1a
    BackgroundColor #282828
    BorderColor #5e5e5e
 	StereotypeFontColor #a0a0a0
    StereotypeFontStyle bold
	BorderThickness 1
	AttributeFontColor #D8Bc00
	AttributeFontSize 11
    FontColor #D8Bc00
    FontStyle bold
}


skinparam object {
		FontColor #C8Ac00
	BorderColor #333333
	BackgroundColor #333333-#333333
	StereotypeFontColor #484848
	BorderThickness 1
	AttributeFontColor #fefefe
	AttributeFontSize 11
}


skinparam usecase {
		FontColor #C8Ac00
	BorderColor #333333
	BackgroundColor #333333-#333333
	BorderThickness 2
	StereotypeFontColor #303030
}


skinparam rectangle {
		FontColor #C8Ac00
	BorderColor #333333
	BackgroundColor #333333-#333333
	BackgroundColor #333333
	BorderThickness 2
	StereotypeFontColor #303030
}


skinparam package {
		FontColor #C8Ac00
	BorderColor #333333
	BackgroundColor #333333-#333333
	BackgroundColor #333333
	BorderThickness 2
}


skinparam folder {
	BackgroundColor #6d6d6d
  	BorderColor #ff8000
	FontColor #ff8000
	BorderThickness 2
}


skinparam frame {
	BackgroundColor #6d6d6d
  	BorderColor #0060a8
	FontColor #0060a8
	BorderThickness 2
}


skinparam state {
		FontColor #C8Ac00
	BorderColor #333333
	BackgroundColor #333333-#333333
	StartColor #0060a8
	EndColor #0060a8
	AttributeFontColor #fefefe
	AttributeFontSize 11
}


skinparam queue {
		FontColor #C8Ac00
	BorderColor #333333
	BackgroundColor #333333-#333333
}


skinparam card {
	BackgroundColor #0060a8
	BorderColor #004d86
	FontColor $INFO_TEXT
}


skinparam file {
	BackgroundColor #6d6d6d-#484848
	BorderColor #0060a8
	FontColor #fefefe
}


skinparam stack {
		FontColor #C8Ac00
	BorderColor #333333
	BackgroundColor #333333-#333333
}

    
    title "com.telenav.mesakit.plugins.josm.graph"
    
    abstract BaseJosmPlugin
    
    FileImporter <|- - GraphFileImporter
    class GraphFileImporter
    {
        - -(constructors)- -
        +GraphFileImporter(GraphPlugin)
    }
    
    BaseJosmPlugin <|- - GraphPlugin
    class GraphPlugin
    {
        - -(constructors)- -
        +GraphPlugin(PluginInformation)
    }
    
@enduml

PlantUML version 1.2021.01(Tue Feb 02 02:55:08 EST 2021)
(GPL source distribution)
Java Runtime: OpenJDK Runtime Environment
JVM: OpenJDK 64-Bit Server VM
Default Encoding: UTF-8
Language: en
Country: US
--></g></svg>