<?xml version="1.0" encoding="UTF-8" standalone="no"?><svg xmlns="http://www.w3.org/2000/svg" xmlns:xlink="http://www.w3.org/1999/xlink" contentScriptType="application/ecmascript" contentStyleType="text/css" height="560.4167px" preserveAspectRatio="none" style="width:1386px;height:560px;background:#333333;" version="1.1" viewBox="0 0 1386 560" width="1386.4583px" zoomAndPan="magnify"><defs/><g><rect fill="#48494B" height="41.2028" rx="8.3333" ry="8.3333" style="stroke:#545454;stroke-width:1.0416666666666667;" width="577.0833" x="397.3958" y="2.0833"/><text fill="#C0C0C0" font-family="Open Sans,Avenir,Nunito,Arial,Helvetica,SansSerif" font-size="20.8333" lengthAdjust="spacing" textLength="554.1667" x="408.8542" y="30.5583">com.telenav.mesakit.plugins.josm.graph.view.tabs.view</text><!--MD5=[397cd6cab87fba665d54c9508f554489]
cluster ViewPanel--><polygon fill="#333333" points="322.3958,200.5778,399.4792,200.5778,406.7708,227.7995,858.8542,227.7995,858.8542,553.7028,322.3958,553.7028,322.3958,200.5778" style="stroke:#333333;stroke-width:2.0833333333333335;"/><line style="stroke:#333333;stroke-width:2.0833333333333335;" x1="322.3958" x2="406.7708" y1="227.7995" y2="227.7995"/><text fill="#C8AC00" font-family="Open Sans,Avenir,Nunito,Arial,Helvetica,SansSerif" font-size="12.5" font-weight="bold" lengthAdjust="spacing" textLength="64.5833" x="329.6875" y="217.8711">ViewPanel</text><!--MD5=[60df21d07d28e6a452f91029194f1ea7]
class ViewPanel.Column--><rect codeLine="8" fill="#282828" height="83.3781" id="ViewPanel.Column" rx="8.3333" ry="8.3333" style="stroke:#5E5E5E;stroke-width:1.0416666666666667;" width="318.75" x="395.3125" y="249.5361"/><rect fill="#1B1B1A" height="31.3883" rx="8.3333" ry="8.3333" style="stroke:#1B1B1A;stroke-width:1.0416666666666667;" width="318.75" x="395.3125" y="249.5361"/><rect fill="#1B1B1A" height="8.3333" style="stroke:#1B1B1A;stroke-width:1.0416666666666667;" width="318.75" x="395.3125" y="272.5911"/><rect codeLine="8" fill="none" height="83.3781" id="ViewPanel.Column" rx="8.3333" ry="8.3333" style="stroke:#5E5E5E;stroke-width:1.0416666666666667;" width="318.75" x="395.3125" y="249.5361"/><ellipse cx="521.875" cy="265.2303" fill="#0066CF" rx="10.4167" ry="10.4167" style="stroke:#0086EF;stroke-width:1.0416666666666667;"/><path d="M523.7854,269.6554 Q523.3582,269.8751 522.8882,269.9849 Q522.4182,270.0948 521.8994,270.0948 Q520.0562,270.0948 519.0857,268.8802 Q518.1152,267.6656 518.1152,265.3707 Q518.1152,263.0697 519.0857,261.8551 Q520.0562,260.6405 521.8994,260.6405 Q522.4182,260.6405 522.8943,260.7503 Q523.3704,260.8602 523.7854,261.0799 L523.7854,263.0819 Q523.3215,262.6546 522.8851,262.4563 Q522.4487,262.2579 521.9849,262.2579 Q520.9961,262.2579 520.4926,263.0422 Q519.989,263.8265 519.989,265.3707 Q519.989,266.9088 520.4926,267.6931 Q520.9961,268.4774 521.9849,268.4774 Q522.4487,268.4774 522.8851,268.279 Q523.3215,268.0806 523.7854,267.6534 Z " fill="#000000"/><text fill="#D8BC00" font-family="Open Sans,Avenir,Nunito,Arial,Helvetica,SansSerif" font-size="12.5" font-weight="bold" lengthAdjust="spacing" textLength="51.0417" x="544.7917" y="269.9544">Column</text><line style="stroke:#5E5E5E;stroke-width:1.5625;" x1="396.3542" x2="713.0208" y1="280.9245" y2="280.9245"/><ellipse cx="406.7708" cy="316.2944" fill="#84BE84" rx="3.125" ry="3.125" style="stroke:#038048;stroke-width:1.0416666666666667;"/><text fill="#D8BC00" font-family="Open Sans,Avenir,Nunito,Arial,Helvetica,SansSerif" font-size="11.4583" lengthAdjust="spacing" textLength="286.4583" x="418.2292" y="323.2056">void add(JComponent header, JComponent column)</text><line style="stroke:#5E5E5E;stroke-width:1.0416666666666667;" x1="396.3542" x2="520.3125" y1="299.1302" y2="299.1302"/><text fill="#D8BC00" font-family="Open Sans,Avenir,Nunito,Arial,Helvetica,SansSerif" font-size="11.4583" lengthAdjust="spacing" textLength="62.5" x="523.4375" y="302.9399">(collection)</text><line style="stroke:#5E5E5E;stroke-width:1.0416666666666667;" x1="589.0625" x2="713.0208" y1="299.1302" y2="299.1302"/><!--MD5=[8b2089fba57b2cb2db8a5653c1afc699]
class ViewPanel.EdgesColumn--><rect codeLine="15" fill="#282828" height="48.055" id="ViewPanel.EdgesColumn" rx="8.3333" ry="8.3333" style="stroke:#5E5E5E;stroke-width:1.0416666666666667;" width="127.0833" x="355.7292" y="480.7861"/><rect fill="#1B1B1A" height="31.3883" rx="8.3333" ry="8.3333" style="stroke:#1B1B1A;stroke-width:1.0416666666666667;" width="127.0833" x="355.7292" y="480.7861"/><rect fill="#1B1B1A" height="8.3333" style="stroke:#1B1B1A;stroke-width:1.0416666666666667;" width="127.0833" x="355.7292" y="503.8411"/><rect codeLine="15" fill="none" height="48.055" id="ViewPanel.EdgesColumn" rx="8.3333" ry="8.3333" style="stroke:#5E5E5E;stroke-width:1.0416666666666667;" width="127.0833" x="355.7292" y="480.7861"/><ellipse cx="370.3125" cy="496.4803" fill="#0066CF" rx="10.4167" ry="10.4167" style="stroke:#0086EF;stroke-width:1.0416666666666667;"/><path d="M372.2229,500.9054 Q371.7957,501.1251 371.3257,501.2349 Q370.8557,501.3448 370.3369,501.3448 Q368.4937,501.3448 367.5232,500.1302 Q366.5527,498.9156 366.5527,496.6207 Q366.5527,494.3197 367.5232,493.1051 Q368.4937,491.8905 370.3369,491.8905 Q370.8557,491.8905 371.3318,492.0003 Q371.8079,492.1102 372.2229,492.3299 L372.2229,494.3319 Q371.759,493.9046 371.3226,493.7063 Q370.8862,493.5079 370.4224,493.5079 Q369.4336,493.5079 368.9301,494.2922 Q368.4265,495.0765 368.4265,496.6207 Q368.4265,498.1588 368.9301,498.9431 Q369.4336,499.7274 370.4224,499.7274 Q370.8862,499.7274 371.3226,499.529 Q371.759,499.3306 372.2229,498.9034 Z " fill="#000000"/><text fill="#D8BC00" font-family="Open Sans,Avenir,Nunito,Arial,Helvetica,SansSerif" font-size="12.5" font-weight="bold" lengthAdjust="spacing" textLength="89.5833" x="386.9792" y="501.2044">EdgesColumn</text><line style="stroke:#5E5E5E;stroke-width:1.0416666666666667;" x1="356.7708" x2="481.7708" y1="512.1745" y2="512.1745"/><line style="stroke:#5E5E5E;stroke-width:1.0416666666666667;" x1="356.7708" x2="481.7708" y1="520.5078" y2="520.5078"/><!--MD5=[7c143ce87bbaed2aac3128af8c733fab]
class ViewPanel.PlacesColumn--><rect codeLine="20" fill="#282828" height="48.055" id="ViewPanel.PlacesColumn" rx="8.3333" ry="8.3333" style="stroke:#5E5E5E;stroke-width:1.0416666666666667;" width="128.125" x="519.7917" y="480.7861"/><rect fill="#1B1B1A" height="31.3883" rx="8.3333" ry="8.3333" style="stroke:#1B1B1A;stroke-width:1.0416666666666667;" width="128.125" x="519.7917" y="480.7861"/><rect fill="#1B1B1A" height="8.3333" style="stroke:#1B1B1A;stroke-width:1.0416666666666667;" width="128.125" x="519.7917" y="503.8411"/><rect codeLine="20" fill="none" height="48.055" id="ViewPanel.PlacesColumn" rx="8.3333" ry="8.3333" style="stroke:#5E5E5E;stroke-width:1.0416666666666667;" width="128.125" x="519.7917" y="480.7861"/><ellipse cx="534.375" cy="496.4803" fill="#0066CF" rx="10.4167" ry="10.4167" style="stroke:#0086EF;stroke-width:1.0416666666666667;"/><path d="M536.2854,500.9054 Q535.8582,501.1251 535.3882,501.2349 Q534.9182,501.3448 534.3994,501.3448 Q532.5562,501.3448 531.5857,500.1302 Q530.6152,498.9156 530.6152,496.6207 Q530.6152,494.3197 531.5857,493.1051 Q532.5562,491.8905 534.3994,491.8905 Q534.9182,491.8905 535.3943,492.0003 Q535.8704,492.1102 536.2854,492.3299 L536.2854,494.3319 Q535.8215,493.9046 535.3851,493.7063 Q534.9487,493.5079 534.4849,493.5079 Q533.4961,493.5079 532.9926,494.2922 Q532.489,495.0765 532.489,496.6207 Q532.489,498.1588 532.9926,498.9431 Q533.4961,499.7274 534.4849,499.7274 Q534.9487,499.7274 535.3851,499.529 Q535.8215,499.3306 536.2854,498.9034 Z " fill="#000000"/><text fill="#D8BC00" font-family="Open Sans,Avenir,Nunito,Arial,Helvetica,SansSerif" font-size="12.5" font-weight="bold" lengthAdjust="spacing" textLength="90.625" x="551.0417" y="501.2044">PlacesColumn</text><line style="stroke:#5E5E5E;stroke-width:1.0416666666666667;" x1="520.8333" x2="646.875" y1="512.1745" y2="512.1745"/><line style="stroke:#5E5E5E;stroke-width:1.0416666666666667;" x1="520.8333" x2="646.875" y1="520.5078" y2="520.5078"/><!--MD5=[f90041be8432abddf66097b270431bca]
class ViewPanel.RelationsColumn--><rect codeLine="25" fill="#282828" height="48.055" id="ViewPanel.RelationsColumn" rx="8.3333" ry="8.3333" style="stroke:#5E5E5E;stroke-width:1.0416666666666667;" width="148.9583" x="684.375" y="480.7861"/><rect fill="#1B1B1A" height="31.3883" rx="8.3333" ry="8.3333" style="stroke:#1B1B1A;stroke-width:1.0416666666666667;" width="148.9583" x="684.375" y="480.7861"/><rect fill="#1B1B1A" height="8.3333" style="stroke:#1B1B1A;stroke-width:1.0416666666666667;" width="148.9583" x="684.375" y="503.8411"/><rect codeLine="25" fill="none" height="48.055" id="ViewPanel.RelationsColumn" rx="8.3333" ry="8.3333" style="stroke:#5E5E5E;stroke-width:1.0416666666666667;" width="148.9583" x="684.375" y="480.7861"/><ellipse cx="698.9583" cy="496.4803" fill="#0066CF" rx="10.4167" ry="10.4167" style="stroke:#0086EF;stroke-width:1.0416666666666667;"/><path d="M700.8687,500.9054 Q700.4415,501.1251 699.9715,501.2349 Q699.5015,501.3448 698.9827,501.3448 Q697.1395,501.3448 696.169,500.1302 Q695.1986,498.9156 695.1986,496.6207 Q695.1986,494.3197 696.169,493.1051 Q697.1395,491.8905 698.9827,491.8905 Q699.5015,491.8905 699.9776,492.0003 Q700.4537,492.1102 700.8687,492.3299 L700.8687,494.3319 Q700.4049,493.9046 699.9685,493.7063 Q699.5321,493.5079 699.0682,493.5079 Q698.0794,493.5079 697.5759,494.2922 Q697.0723,495.0765 697.0723,496.6207 Q697.0723,498.1588 697.5759,498.9431 Q698.0794,499.7274 699.0682,499.7274 Q699.5321,499.7274 699.9685,499.529 Q700.4049,499.3306 700.8687,498.9034 Z " fill="#000000"/><text fill="#D8BC00" font-family="Open Sans,Avenir,Nunito,Arial,Helvetica,SansSerif" font-size="12.5" font-weight="bold" lengthAdjust="spacing" textLength="111.4583" x="715.625" y="501.2044">RelationsColumn</text><line style="stroke:#5E5E5E;stroke-width:1.0416666666666667;" x1="685.4167" x2="832.2917" y1="512.1745" y2="512.1745"/><line style="stroke:#5E5E5E;stroke-width:1.0416666666666667;" x1="685.4167" x2="832.2917" y1="520.5078" y2="520.5078"/><!--MD5=[36afe292eb27441132c327893668631d]
class JPanel--><rect fill="#282828" height="48.055" id="JPanel" rx="8.3333" ry="8.3333" style="stroke:#5E5E5E;stroke-width:1.0416666666666667;" width="77.0833" x="328.6458" y="53.7028"/><rect fill="#1B1B1A" height="31.3883" rx="8.3333" ry="8.3333" style="stroke:#1B1B1A;stroke-width:1.0416666666666667;" width="77.0833" x="328.6458" y="53.7028"/><rect fill="#1B1B1A" height="8.3333" style="stroke:#1B1B1A;stroke-width:1.0416666666666667;" width="77.0833" x="328.6458" y="76.7578"/><rect fill="none" height="48.055" id="JPanel" rx="8.3333" ry="8.3333" style="stroke:#5E5E5E;stroke-width:1.0416666666666667;" width="77.0833" x="328.6458" y="53.7028"/><ellipse cx="343.2292" cy="69.397" fill="#0066CF" rx="10.4167" ry="10.4167" style="stroke:#0086EF;stroke-width:1.0416666666666667;"/><path d="M345.1396,73.822 Q344.7123,74.0417 344.2424,74.1516 Q343.7724,74.2615 343.2536,74.2615 Q341.4103,74.2615 340.4399,73.0469 Q339.4694,71.8323 339.4694,69.5374 Q339.4694,67.2363 340.4399,66.0217 Q341.4103,64.8071 343.2536,64.8071 Q343.7724,64.8071 344.2485,64.917 Q344.7245,65.0269 345.1396,65.2466 L345.1396,67.2485 Q344.6757,66.8213 344.2393,66.6229 Q343.8029,66.4246 343.339,66.4246 Q342.3503,66.4246 341.8467,67.2089 Q341.3432,67.9932 341.3432,69.5374 Q341.3432,71.0754 341.8467,71.8597 Q342.3503,72.644 343.339,72.644 Q343.8029,72.644 344.2393,72.4457 Q344.6757,72.2473 345.1396,71.8201 Z " fill="#000000"/><text fill="#D8BC00" font-family="Open Sans,Avenir,Nunito,Arial,Helvetica,SansSerif" font-size="12.5" font-weight="bold" lengthAdjust="spacing" textLength="39.5833" x="359.8958" y="74.1211">JPanel</text><line style="stroke:#5E5E5E;stroke-width:1.0416666666666667;" x1="329.6875" x2="404.6875" y1="85.0911" y2="85.0911"/><line style="stroke:#5E5E5E;stroke-width:1.0416666666666667;" x1="329.6875" x2="404.6875" y1="93.4245" y2="93.4245"/><!--MD5=[6a663f0b18847e0d6cdc424557110906]
class JCheckBox--><rect fill="#282828" height="48.055" id="JCheckBox" rx="8.3333" ry="8.3333" style="stroke:#5E5E5E;stroke-width:1.0416666666666667;" width="106.25" x="943.2292" y="53.7028"/><rect fill="#1B1B1A" height="31.3883" rx="8.3333" ry="8.3333" style="stroke:#1B1B1A;stroke-width:1.0416666666666667;" width="106.25" x="943.2292" y="53.7028"/><rect fill="#1B1B1A" height="8.3333" style="stroke:#1B1B1A;stroke-width:1.0416666666666667;" width="106.25" x="943.2292" y="76.7578"/><rect fill="none" height="48.055" id="JCheckBox" rx="8.3333" ry="8.3333" style="stroke:#5E5E5E;stroke-width:1.0416666666666667;" width="106.25" x="943.2292" y="53.7028"/><ellipse cx="957.8125" cy="69.397" fill="#0066CF" rx="10.4167" ry="10.4167" style="stroke:#0086EF;stroke-width:1.0416666666666667;"/><path d="M959.7229,73.822 Q959.2957,74.0417 958.8257,74.1516 Q958.3557,74.2615 957.8369,74.2615 Q955.9937,74.2615 955.0232,73.0469 Q954.0527,71.8323 954.0527,69.5374 Q954.0527,67.2363 955.0232,66.0217 Q955.9937,64.8071 957.8369,64.8071 Q958.3557,64.8071 958.8318,64.917 Q959.3079,65.0269 959.7229,65.2466 L959.7229,67.2485 Q959.259,66.8213 958.8226,66.6229 Q958.3862,66.4246 957.9224,66.4246 Q956.9336,66.4246 956.4301,67.2089 Q955.9265,67.9932 955.9265,69.5374 Q955.9265,71.0754 956.4301,71.8597 Q956.9336,72.644 957.9224,72.644 Q958.3862,72.644 958.8226,72.4457 Q959.259,72.2473 959.7229,71.8201 Z " fill="#000000"/><text fill="#D8BC00" font-family="Open Sans,Avenir,Nunito,Arial,Helvetica,SansSerif" font-size="12.5" font-weight="bold" lengthAdjust="spacing" textLength="68.75" x="974.4792" y="74.1211">JCheckBox</text><line style="stroke:#5E5E5E;stroke-width:1.0416666666666667;" x1="944.2708" x2="1048.4375" y1="85.0911" y2="85.0911"/><line style="stroke:#5E5E5E;stroke-width:1.0416666666666667;" x1="944.2708" x2="1048.4375" y1="93.4245" y2="93.4245"/><!--MD5=[843907564c8921832cc42cc05c3bd8a1]
class ViewCheckBox--><rect codeLine="30" fill="#282828" height="83.3781" id="ViewCheckBox" rx="8.3333" ry="8.3333" style="stroke:#5E5E5E;stroke-width:1.0416666666666667;" width="223.9583" x="884.375" y="249.5361"/><rect fill="#1B1B1A" height="31.3883" rx="8.3333" ry="8.3333" style="stroke:#1B1B1A;stroke-width:1.0416666666666667;" width="223.9583" x="884.375" y="249.5361"/><rect fill="#1B1B1A" height="8.3333" style="stroke:#1B1B1A;stroke-width:1.0416666666666667;" width="223.9583" x="884.375" y="272.5911"/><rect codeLine="30" fill="none" height="83.3781" id="ViewCheckBox" rx="8.3333" ry="8.3333" style="stroke:#5E5E5E;stroke-width:1.0416666666666667;" width="223.9583" x="884.375" y="249.5361"/><ellipse cx="942.1875" cy="265.2303" fill="#0066CF" rx="10.4167" ry="10.4167" style="stroke:#0086EF;stroke-width:1.0416666666666667;"/><path d="M944.0979,269.6554 Q943.6707,269.8751 943.2007,269.9849 Q942.7307,270.0948 942.2119,270.0948 Q940.3687,270.0948 939.3982,268.8802 Q938.4277,267.6656 938.4277,265.3707 Q938.4277,263.0697 939.3982,261.8551 Q940.3687,260.6405 942.2119,260.6405 Q942.7307,260.6405 943.2068,260.7503 Q943.6829,260.8602 944.0979,261.0799 L944.0979,263.0819 Q943.634,262.6546 943.1976,262.4563 Q942.7612,262.2579 942.2974,262.2579 Q941.3086,262.2579 940.8051,263.0422 Q940.3015,263.8265 940.3015,265.3707 Q940.3015,266.9088 940.8051,267.6931 Q941.3086,268.4774 942.2974,268.4774 Q942.7612,268.4774 943.1976,268.279 Q943.634,268.0806 944.0979,267.6534 Z " fill="#000000"/><text fill="#D8BC00" font-family="Open Sans,Avenir,Nunito,Arial,Helvetica,SansSerif" font-size="12.5" font-weight="bold" lengthAdjust="spacing" textLength="93.75" x="965.1042" y="269.9544">ViewCheckBox</text><line style="stroke:#5E5E5E;stroke-width:1.5625;" x1="885.4167" x2="1107.2917" y1="280.9245" y2="280.9245"/><ellipse cx="895.8333" cy="316.2944" fill="#84BE84" rx="3.125" ry="3.125" style="stroke:#038048;stroke-width:1.0416666666666667;"/><text fill="#D8BC00" font-family="Open Sans,Avenir,Nunito,Arial,Helvetica,SansSerif" font-size="11.4583" lengthAdjust="spacing" textLength="191.6667" x="907.2917" y="323.2056">ViewCheckBox(GraphPanel, String)</text><line style="stroke:#5E5E5E;stroke-width:1.0416666666666667;" x1="885.4167" x2="952.6042" y1="299.1302" y2="299.1302"/><text fill="#D8BC00" font-family="Open Sans,Avenir,Nunito,Arial,Helvetica,SansSerif" font-size="11.4583" lengthAdjust="spacing" textLength="81.25" x="955.7292" y="302.9399">(constructors)</text><line style="stroke:#5E5E5E;stroke-width:1.0416666666666667;" x1="1040.1042" x2="1107.2917" y1="299.1302" y2="299.1302"/><!--MD5=[076a16afa4fc8cd3918f83fa1974cfcb]
class JList--><rect fill="#282828" height="48.055" id="JList" rx="8.3333" ry="8.3333" style="stroke:#5E5E5E;stroke-width:1.0416666666666667;" width="66.6667" x="1226.5625" y="53.7028"/><rect fill="#1B1B1A" height="31.3883" rx="8.3333" ry="8.3333" style="stroke:#1B1B1A;stroke-width:1.0416666666666667;" width="66.6667" x="1226.5625" y="53.7028"/><rect fill="#1B1B1A" height="8.3333" style="stroke:#1B1B1A;stroke-width:1.0416666666666667;" width="66.6667" x="1226.5625" y="76.7578"/><rect fill="none" height="48.055" id="JList" rx="8.3333" ry="8.3333" style="stroke:#5E5E5E;stroke-width:1.0416666666666667;" width="66.6667" x="1226.5625" y="53.7028"/><ellipse cx="1241.1458" cy="69.397" fill="#0066CF" rx="10.4167" ry="10.4167" style="stroke:#0086EF;stroke-width:1.0416666666666667;"/><path d="M1243.0562,73.822 Q1242.629,74.0417 1242.159,74.1516 Q1241.689,74.2615 1241.1702,74.2615 Q1239.327,74.2615 1238.3565,73.0469 Q1237.3861,71.8323 1237.3861,69.5374 Q1237.3861,67.2363 1238.3565,66.0217 Q1239.327,64.8071 1241.1702,64.8071 Q1241.689,64.8071 1242.1651,64.917 Q1242.6412,65.0269 1243.0562,65.2466 L1243.0562,67.2485 Q1242.5924,66.8213 1242.156,66.6229 Q1241.7196,66.4246 1241.2557,66.4246 Q1240.2669,66.4246 1239.7634,67.2089 Q1239.2598,67.9932 1239.2598,69.5374 Q1239.2598,71.0754 1239.7634,71.8597 Q1240.2669,72.644 1241.2557,72.644 Q1241.7196,72.644 1242.156,72.4457 Q1242.5924,72.2473 1243.0562,71.8201 Z " fill="#000000"/><text fill="#D8BC00" font-family="Open Sans,Avenir,Nunito,Arial,Helvetica,SansSerif" font-size="12.5" font-weight="bold" lengthAdjust="spacing" textLength="29.1667" x="1257.8125" y="74.1211">JList</text><line style="stroke:#5E5E5E;stroke-width:1.0416666666666667;" x1="1227.6042" x2="1292.1875" y1="85.0911" y2="85.0911"/><line style="stroke:#5E5E5E;stroke-width:1.0416666666666667;" x1="1227.6042" x2="1292.1875" y1="93.4245" y2="93.4245"/><!--MD5=[37b09ddca97814e831342533732c7a37]
class ViewMultiSelectList--><rect codeLine="37" fill="#282828" height="83.3781" id="ViewMultiSelectList" rx="8.3333" ry="8.3333" style="stroke:#5E5E5E;stroke-width:1.0416666666666667;" width="230.2083" x="1144.7917" y="249.5361"/><rect fill="#1B1B1A" height="31.3883" rx="8.3333" ry="8.3333" style="stroke:#1B1B1A;stroke-width:1.0416666666666667;" width="230.2083" x="1144.7917" y="249.5361"/><rect fill="#1B1B1A" height="8.3333" style="stroke:#1B1B1A;stroke-width:1.0416666666666667;" width="230.2083" x="1144.7917" y="272.5911"/><rect codeLine="37" fill="none" height="83.3781" id="ViewMultiSelectList" rx="8.3333" ry="8.3333" style="stroke:#5E5E5E;stroke-width:1.0416666666666667;" width="230.2083" x="1144.7917" y="249.5361"/><ellipse cx="1181.4063" cy="265.2303" fill="#0066CF" rx="10.4167" ry="10.4167" style="stroke:#0086EF;stroke-width:1.0416666666666667;"/><path d="M1183.3167,269.6554 Q1182.8894,269.8751 1182.4194,269.9849 Q1181.9495,270.0948 1181.4307,270.0948 Q1179.5874,270.0948 1178.6169,268.8802 Q1177.6465,267.6656 1177.6465,265.3707 Q1177.6465,263.0697 1178.6169,261.8551 Q1179.5874,260.6405 1181.4307,260.6405 Q1181.9495,260.6405 1182.4255,260.7503 Q1182.9016,260.8602 1183.3167,261.0799 L1183.3167,263.0819 Q1182.8528,262.6546 1182.4164,262.4563 Q1181.98,262.2579 1181.5161,262.2579 Q1180.5273,262.2579 1180.0238,263.0422 Q1179.5203,263.8265 1179.5203,265.3707 Q1179.5203,266.9088 1180.0238,267.6931 Q1180.5273,268.4774 1181.5161,268.4774 Q1181.98,268.4774 1182.4164,268.279 Q1182.8528,268.0806 1183.3167,267.6534 Z " fill="#000000"/><text fill="#D8BC00" font-family="Open Sans,Avenir,Nunito,Arial,Helvetica,SansSerif" font-size="12.5" font-weight="bold" lengthAdjust="spacing" textLength="125" x="1202.9688" y="269.9544">ViewMultiSelectList</text><rect fill="#333333" height="23.055" style="stroke:#A0A0A0;stroke-width:1.0416666666666667;stroke-dasharray:2.0,2.0;" width="16.6667" x="1361.4583" y="246.4111"/><text fill="#A0A0A0" font-family="Open Sans,Avenir,Nunito,Arial,Helvetica,SansSerif" font-size="12.5" font-weight="bold" lengthAdjust="spacing" textLength="8.3333" x="1365.625" y="262.6628">T</text><line style="stroke:#5E5E5E;stroke-width:1.5625;" x1="1145.8333" x2="1373.9583" y1="280.9245" y2="280.9245"/><ellipse cx="1156.25" cy="316.2944" fill="#84BE84" rx="3.125" ry="3.125" style="stroke:#038048;stroke-width:1.0416666666666667;"/><text fill="#D8BC00" font-family="Open Sans,Avenir,Nunito,Arial,Helvetica,SansSerif" font-size="11.4583" lengthAdjust="spacing" textLength="197.9167" x="1167.7083" y="323.2056">ViewMultiSelectList(GraphPanel, T[])</text><line style="stroke:#5E5E5E;stroke-width:1.0416666666666667;" x1="1145.8333" x2="1216.1458" y1="299.1302" y2="299.1302"/><text fill="#D8BC00" font-family="Open Sans,Avenir,Nunito,Arial,Helvetica,SansSerif" font-size="11.4583" lengthAdjust="spacing" textLength="81.25" x="1219.2708" y="302.9399">(constructors)</text><line style="stroke:#5E5E5E;stroke-width:1.0416666666666667;" x1="1303.6458" x2="1373.9583" y1="299.1302" y2="299.1302"/><!--MD5=[49bb4c3739db0f8b0d0a53c4d4d10447]
class ViewPanel--><rect codeLine="44" fill="#282828" height="253.8371" id="ViewPanel" rx="8.3333" ry="8.3333" style="stroke:#5E5E5E;stroke-width:1.0416666666666667;" width="286.4583" x="7.2917" y="164.1195"/><rect fill="#1B1B1A" height="31.3883" rx="8.3333" ry="8.3333" style="stroke:#1B1B1A;stroke-width:1.0416666666666667;" width="286.4583" x="7.2917" y="164.1195"/><rect fill="#1B1B1A" height="8.3333" style="stroke:#1B1B1A;stroke-width:1.0416666666666667;" width="286.4583" x="7.2917" y="187.1745"/><rect codeLine="44" fill="none" height="253.8371" id="ViewPanel" rx="8.3333" ry="8.3333" style="stroke:#5E5E5E;stroke-width:1.0416666666666667;" width="286.4583" x="7.2917" y="164.1195"/><ellipse cx="110.9375" cy="179.8136" fill="#0066CF" rx="10.4167" ry="10.4167" style="stroke:#0086EF;stroke-width:1.0416666666666667;"/><path d="M112.8479,184.2387 Q112.4207,184.4584 111.9507,184.5683 Q111.4807,184.6781 110.9619,184.6781 Q109.1187,184.6781 108.1482,183.4635 Q107.1777,182.2489 107.1777,179.954 Q107.1777,177.653 108.1482,176.4384 Q109.1187,175.2238 110.9619,175.2238 Q111.4807,175.2238 111.9568,175.3337 Q112.4329,175.4435 112.8479,175.6632 L112.8479,177.6652 Q112.384,177.238 111.9476,177.0396 Q111.5112,176.8412 111.0474,176.8412 Q110.0586,176.8412 109.5551,177.6255 Q109.0515,178.4098 109.0515,179.954 Q109.0515,181.4921 109.5551,182.2764 Q110.0586,183.0607 111.0474,183.0607 Q111.5112,183.0607 111.9476,182.8623 Q112.384,182.664 112.8479,182.2367 Z " fill="#000000"/><text fill="#D8BC00" font-family="Open Sans,Avenir,Nunito,Arial,Helvetica,SansSerif" font-size="12.5" font-weight="bold" lengthAdjust="spacing" textLength="64.5833" x="133.8542" y="184.5378">ViewPanel</text><line style="stroke:#5E5E5E;stroke-width:1.5625;" x1="8.3333" x2="292.7083" y1="195.5078" y2="195.5078"/><ellipse cx="18.75" cy="230.8777" fill="#84BE84" rx="3.125" ry="3.125" style="stroke:#038048;stroke-width:1.0416666666666667;"/><text fill="#D8BC00" font-family="Open Sans,Avenir,Nunito,Arial,Helvetica,SansSerif" font-size="11.4583" lengthAdjust="spacing" textLength="126.0417" x="30.2083" y="237.7889">ViewPanel(GraphPanel)</text><line style="stroke:#5E5E5E;stroke-width:1.0416666666666667;" x1="8.3333" x2="106.7708" y1="213.7136" y2="213.7136"/><text fill="#D8BC00" font-family="Open Sans,Avenir,Nunito,Arial,Helvetica,SansSerif" font-size="11.4583" lengthAdjust="spacing" textLength="81.25" x="109.8958" y="217.5232">(constructors)</text><line style="stroke:#5E5E5E;stroke-width:1.0416666666666667;" x1="194.2708" x2="292.7083" y1="213.7136" y2="213.7136"/><line style="stroke:#5E5E5E;stroke-width:1.0416666666666667;" x1="8.3333" x2="292.7083" y1="247.4976" y2="247.4976"/><ellipse cx="18.75" cy="258.9559" fill="#84BE84" rx="3.125" ry="3.125" style="stroke:#038048;stroke-width:1.0416666666666667;"/><text fill="#D8BC00" font-family="Open Sans,Avenir,Nunito,Arial,Helvetica,SansSerif" font-size="11.4583" lengthAdjust="spacing" textLength="128.125" x="30.2083" y="265.8671">boolean viewAllEdges()</text><ellipse cx="18.75" cy="278.7008" fill="#84BE84" rx="3.125" ry="3.125" style="stroke:#038048;stroke-width:1.0416666666666667;"/><text fill="#D8BC00" font-family="Open Sans,Avenir,Nunito,Arial,Helvetica,SansSerif" font-size="11.4583" lengthAdjust="spacing" textLength="113.5417" x="30.2083" y="285.612">boolean viewEdges()</text><ellipse cx="18.75" cy="298.4456" fill="#84BE84" rx="3.125" ry="3.125" style="stroke:#038048;stroke-width:1.0416666666666667;"/><text fill="#D8BC00" font-family="Open Sans,Avenir,Nunito,Arial,Helvetica,SansSerif" font-size="11.4583" lengthAdjust="spacing" textLength="114.5833" x="30.2083" y="305.3569">boolean viewPlaces()</text><ellipse cx="18.75" cy="318.1905" fill="#84BE84" rx="3.125" ry="3.125" style="stroke:#038048;stroke-width:1.0416666666666667;"/><text fill="#D8BC00" font-family="Open Sans,Avenir,Nunito,Arial,Helvetica,SansSerif" font-size="11.4583" lengthAdjust="spacing" textLength="131.25" x="30.2083" y="325.1017">boolean viewRelations()</text><ellipse cx="18.75" cy="361.8469" fill="#84BE84" rx="3.125" ry="3.125" style="stroke:#038048;stroke-width:1.0416666666666667;"/><text fill="#D8BC00" font-family="Open Sans,Avenir,Nunito,Arial,Helvetica,SansSerif" font-size="11.4583" lengthAdjust="spacing" textLength="193.75" x="30.2083" y="368.7581">List&lt;Place.Type&gt; viewPlaceTypes()</text><ellipse cx="18.75" cy="381.5918" fill="#84BE84" rx="3.125" ry="3.125" style="stroke:#038048;stroke-width:1.0416666666666667;"/><text fill="#D8BC00" font-family="Open Sans,Avenir,Nunito,Arial,Helvetica,SansSerif" font-size="11.4583" lengthAdjust="spacing" textLength="254.1667" x="30.2083" y="388.503">List&lt;EdgeRelation.Type&gt; viewRelationTypes()</text><ellipse cx="18.75" cy="401.3367" fill="#84BE84" rx="3.125" ry="3.125" style="stroke:#038048;stroke-width:1.0416666666666667;"/><text fill="#D8BC00" font-family="Open Sans,Avenir,Nunito,Arial,Helvetica,SansSerif" font-size="11.4583" lengthAdjust="spacing" textLength="190.625" x="30.2083" y="408.2479">List&lt;RoadType&gt; viewRoadTypes()</text><line style="stroke:#5E5E5E;stroke-width:1.0416666666666667;" x1="8.3333" x2="116.1458" y1="344.6828" y2="344.6828"/><text fill="#D8BC00" font-family="Open Sans,Avenir,Nunito,Arial,Helvetica,SansSerif" font-size="11.4583" lengthAdjust="spacing" textLength="62.5" x="119.2708" y="348.4924">(collection)</text><line style="stroke:#5E5E5E;stroke-width:1.0416666666666667;" x1="184.8958" x2="292.7083" y1="344.6828" y2="344.6828"/><!--MD5=[218777a75300e3e06c6380a43b5d446a]
reverse link JPanel to ViewPanel.Column--><path codeLine="7" d="M401.5521,117.4632 C434.75,154.9007 484.8229,211.3695 518.5833,249.4528 " fill="none" id="JPanel-backto-ViewPanel.Column" style="stroke:#545454;stroke-width:1.5625;"/><polygon fill="none" points="395.9792,122.1611,387.6146,101.734,406.8854,112.484,395.9792,122.1611" style="stroke:#545454;stroke-width:1.5625;"/><!--MD5=[0ba05e8e18d5d48f2cd7e827978b3837]
reverse link ViewPanel.Column to ViewPanel.EdgesColumn--><path codeLine="14" d="M517.1875,350.807 C489.6771,393.7653 453.8021,449.7861 434,480.6924 " fill="none" id="ViewPanel.Column-backto-ViewPanel.EdgesColumn" style="stroke:#545454;stroke-width:1.5625;"/><polygon fill="none" points="511.1979,346.6299,528.5729,333.0153,523.4792,354.4945,511.1979,346.6299" style="stroke:#545454;stroke-width:1.5625;"/><!--MD5=[93c1ea64e886bafe100bc49e4e740965]
reverse link ViewPanel.Column to ViewPanel.PlacesColumn--><path codeLine="19" d="M563.1667,353.7132 C569.0313,396.2549 576.5104,450.4736 580.6771,480.6924 " fill="none" id="ViewPanel.Column-backto-ViewPanel.PlacesColumn" style="stroke:#545454;stroke-width:1.5625;"/><polygon fill="none" points="555.9375,354.6507,560.3125,333.0153,570.3854,352.6611,555.9375,354.6507" style="stroke:#545454;stroke-width:1.5625;"/><!--MD5=[99d07db2e121f1e5ac82eb30b92bd9af]
reverse link ViewPanel.Column to ViewPanel.RelationsColumn--><path codeLine="24" d="M608.7396,348.234 C650.5208,391.4945 706.1979,449.1611 736.6354,480.6924 " fill="none" id="ViewPanel.Column-backto-ViewPanel.RelationsColumn" style="stroke:#545454;stroke-width:1.5625;"/><polygon fill="none" points="603.2813,353.0674,594.0521,333.0153,613.7708,342.9424,603.2813,353.0674" style="stroke:#545454;stroke-width:1.5625;"/><!--MD5=[3525b70e5824438c5404aedba758bef8]
reverse link JCheckBox to ViewCheckBox--><path codeLine="29" d="M996.3542,122.6299 C996.3542,159.9424 996.3542,213.0882 996.3542,249.4528 " fill="none" id="JCheckBox-backto-ViewCheckBox" style="stroke:#545454;stroke-width:1.5625;"/><polygon fill="none" points="989.0625,122.5674,996.3542,101.734,1003.6458,122.5674,989.0625,122.5674" style="stroke:#545454;stroke-width:1.5625;"/><!--MD5=[58434e4f889315eb6a34c3d41c9002f6]
reverse link JList to ViewMultiSelectList--><path codeLine="36" d="M1259.8958,122.6299 C1259.8958,159.9424 1259.8958,213.0882 1259.8958,249.4528 " fill="none" id="JList-backto-ViewMultiSelectList" style="stroke:#545454;stroke-width:1.5625;"/><polygon fill="none" points="1252.6042,122.5674,1259.8958,101.734,1267.1875,122.5674,1252.6042,122.5674" style="stroke:#545454;stroke-width:1.5625;"/><!--MD5=[d06fc7299f5340b8b7a15a650a6c256a]
reverse link JPanel to ViewPanel--><path codeLine="43" d="M328.4063,116.5465 C314.3125,130.307 297.4896,146.7236 279.9063,163.8903 " fill="none" id="JPanel-backto-ViewPanel" style="stroke:#545454;stroke-width:1.5625;"/><polygon fill="none" points="323.5833,111.0674,343.5833,101.734,333.7708,121.5049,323.5833,111.0674" style="stroke:#545454;stroke-width:1.5625;"/><!--MD5=[a2f0dfb55ec0fa036591852f30030114]
@startuml

    !include lexakai.theme
    
    title "com.telenav.mesakit.plugins.josm.graph.view.tabs.view"
    
    JPanel <|- - ViewPanel.Column
    class ViewPanel.Column
    {
        - -(collection)- -
        +void add(JComponent header, JComponent column)
    }
    
    ViewPanel.Column <|- - ViewPanel.EdgesColumn
    class ViewPanel.EdgesColumn
    {
    }
    
    ViewPanel.Column <|- - ViewPanel.PlacesColumn
    class ViewPanel.PlacesColumn
    {
    }
    
    ViewPanel.Column <|- - ViewPanel.RelationsColumn
    class ViewPanel.RelationsColumn
    {
    }
    
    JCheckBox <|- - ViewCheckBox
    class ViewCheckBox
    {
        - -(constructors)- -
        +ViewCheckBox(GraphPanel, String)
    }
    
    JList <|- - ViewMultiSelectList
    class ViewMultiSelectList<T>
    {
        - -(constructors)- -
        +ViewMultiSelectList(GraphPanel, T[])
    }
    
    JPanel <|- - ViewPanel
    class ViewPanel
    {
        - -(constructors)- -
        +ViewPanel(GraphPanel)
        - -
        +boolean viewAllEdges()
        +boolean viewEdges()
        +boolean viewPlaces()
        +boolean viewRelations()
        - -(collection)- -
        +List<Place.Type> viewPlaceTypes()
        +List<EdgeRelation.Type> viewRelationTypes()
        +List<RoadType> viewRoadTypes()
    }
    
@enduml

@startuml









skinparam backgroundColor #333333






skinparam  {
    defaultFontName   "Open Sans,Avenir,Nunito,Arial,Helvetica,SansSerif"
    defaultFontSize   12
    defaultTextAlignment left
    shadowing false
    RoundCorner 10
    TitleFontSize 18
}

skinparam defaultFontName       "Open Sans,Avenir,Nunito,Arial,Helvetica,SansSerif"
skinparam defaultFontSize       12
skinparam dpi                   100
skinparam shadowing             false
skinparam roundcorner           16
skinparam ParticipantPadding    40
skinparam BoxPadding            40
skinparam Padding               3
skinparam ArrowColor            #545454
skinparam stereotype {
    CBackgroundColor #0066cf
    CBorderColor #0086ef
    ABackgroundColor #C8Ac00
    ABorderColor #D8Bc00
    IBackgroundColor #008400
    IBorderColor #239c23
    EBackgroundColor #cf6300
    EBorderColor #ef8300
    NBackgroundColor #3380b9
    NBorderColor #004d86
}
skinparam title {
	FontColor	                 #c0c0c0
 	BorderColor                  #545454
	FontSize	    	         20
	BorderRoundCorner            16
	BorderThickness 	         1
	BackgroundColor              #48494b
}


skinparam legend {
	BackgroundColor #303030
	BorderColor #404040
	FontColor #a0a0a0
}

	skinparam swimlane {
	BorderColor #5e5e5e
	BorderThickness 2
	TitleBackgroundColor  #6d6d6d-#484848
	TitleFontColor #303030
}

skinparam activity {
		FontColor #C8Ac00
	BorderColor #333333
	BackgroundColor #333333-#333333
	BarColor #00FF00
	StartColor #0060a8
	EndColor #0060a8
	DiamondBackgroundColor #6d6d6d-#3a3a3a
  	DiamondBorderColor #3a3a3a
  	DiamondFontColor #fefefe
}


skinparam participant {
		FontColor #C8Ac00
	BorderColor #333333
	BackgroundColor #333333-#333333
	ParticipantBorderThickness 2
}


skinparam actor {
		FontColor #C8Ac00
	BorderColor #333333
	BackgroundColor #333333-#333333
}


skinparam arrow {
	Thickness 1.5
	Color #545454
	FontColor #a0a0a0
    FontStyle bold
    MessageAlignment center
}



skinparam sequence {
	BorderColor #303030
	TitleFontColor #303030
	BackgroundColor #333333
	StartColor #303030
	EndColor #303030
	BoxBackgroundColor #333333
	BoxBorderColor #484848
	BoxFontColor #484848
	LifeLineBorderColor #484848
	LifeLineBorderThickness 2
	LifeLineBackgroundColor #3a3a3a
	GroupBorderColor #484848
	GroupFontColor #484848
	GroupHeaderFontColor #0060a8
	GroupBackgroundColor #484848
	GroupHeaderBackgroundColor #333333
	DividerBackgroundColor #484848
    DividerBorderColor #484848
    DividerBorderThickness 2
    DividerFontColor #D8Bc00
	ReferenceBackgroundColor #333333
	ReferenceBorderColor #484848
	ReferenceFontColor #fefefe
	ReferenceHeaderBackgroundColor #484848
}


skinparam partition {
	BorderColor #303030
	FontColor #333333
	BackgroundColor #333333
}


skinparam collections {
		FontColor #C8Ac00
	BorderColor #333333
	BackgroundColor #333333-#333333
}


skinparam control {
		FontColor #C8Ac00
	BorderColor #333333
	BackgroundColor #333333-#333333
}


skinparam entity {
		FontColor #C8Ac00
	BorderColor #333333
	BackgroundColor #333333-#333333
}


skinparam boundary {
		FontColor #C8Ac00
	BorderColor #333333
	BackgroundColor #333333-#333333
}


skinparam agent {
	BackgroundColor #ff8000
	BorderColor #ff9933
	FontColor #484848
}


skinparam note {
	BorderThickness 1
	BackgroundColor #1b1b1a
	BorderColor #5e5e5e
	FontSize 11
	FontColor #a0a0a0
}


skinparam artifact {
	BorderThickness 10
	BorderColor #5e5e5e
	BackgroundColor #1b1b1a
	FontColor #D8Bc00
}


skinparam component {
		FontColor #C8Ac00
	BorderColor #333333
	BackgroundColor #333333-#333333
}


skinparam interface {
	BackgroundColor  #008400
	BorderColor  #007F00
	FontColor #484848
}


skinparam storage {
	BackgroundColor #ff8000
  	BorderColor #cc6600
	FontColor #222222
}


skinparam node {
	BackgroundColor #333333
	BorderColor #333333
	FontColor #C8Ac00
}


skinparam cloud {
	BackgroundColor #484848-black
	BorderColor #484848
	FontColor #D8Bc00
}


skinparam database {
		FontColor #C8Ac00
	BorderColor #333333
	BackgroundColor #333333-#333333
	BackgroundColor  #333333
}


skinparam class {
		FontColor #C8Ac00
	BorderColor #333333
	BackgroundColor #333333-#333333
	HeaderBackgroundColor #1b1b1a
    BackgroundColor #282828
    BorderColor #5e5e5e
 	StereotypeFontColor #a0a0a0
    StereotypeFontStyle bold
	BorderThickness 1
	AttributeFontColor #D8Bc00
	AttributeFontSize 11
    FontColor #D8Bc00
    FontStyle bold
}


skinparam object {
		FontColor #C8Ac00
	BorderColor #333333
	BackgroundColor #333333-#333333
	StereotypeFontColor #484848
	BorderThickness 1
	AttributeFontColor #fefefe
	AttributeFontSize 11
}


skinparam usecase {
		FontColor #C8Ac00
	BorderColor #333333
	BackgroundColor #333333-#333333
	BorderThickness 2
	StereotypeFontColor #303030
}


skinparam rectangle {
		FontColor #C8Ac00
	BorderColor #333333
	BackgroundColor #333333-#333333
	BackgroundColor #333333
	BorderThickness 2
	StereotypeFontColor #303030
}


skinparam package {
		FontColor #C8Ac00
	BorderColor #333333
	BackgroundColor #333333-#333333
	BackgroundColor #333333
	BorderThickness 2
}


skinparam folder {
	BackgroundColor #6d6d6d
  	BorderColor #ff8000
	FontColor #ff8000
	BorderThickness 2
}


skinparam frame {
	BackgroundColor #6d6d6d
  	BorderColor #0060a8
	FontColor #0060a8
	BorderThickness 2
}


skinparam state {
		FontColor #C8Ac00
	BorderColor #333333
	BackgroundColor #333333-#333333
	StartColor #0060a8
	EndColor #0060a8
	AttributeFontColor #fefefe
	AttributeFontSize 11
}


skinparam queue {
		FontColor #C8Ac00
	BorderColor #333333
	BackgroundColor #333333-#333333
}


skinparam card {
	BackgroundColor #0060a8
	BorderColor #004d86
	FontColor $INFO_TEXT
}


skinparam file {
	BackgroundColor #6d6d6d-#484848
	BorderColor #0060a8
	FontColor #fefefe
}


skinparam stack {
		FontColor #C8Ac00
	BorderColor #333333
	BackgroundColor #333333-#333333
}

    
    title "com.telenav.mesakit.plugins.josm.graph.view.tabs.view"
    
    JPanel <|- - ViewPanel.Column
    class ViewPanel.Column
    {
        - -(collection)- -
        +void add(JComponent header, JComponent column)
    }
    
    ViewPanel.Column <|- - ViewPanel.EdgesColumn
    class ViewPanel.EdgesColumn
    {
    }
    
    ViewPanel.Column <|- - ViewPanel.PlacesColumn
    class ViewPanel.PlacesColumn
    {
    }
    
    ViewPanel.Column <|- - ViewPanel.RelationsColumn
    class ViewPanel.RelationsColumn
    {
    }
    
    JCheckBox <|- - ViewCheckBox
    class ViewCheckBox
    {
        - -(constructors)- -
        +ViewCheckBox(GraphPanel, String)
    }
    
    JList <|- - ViewMultiSelectList
    class ViewMultiSelectList<T>
    {
        - -(constructors)- -
        +ViewMultiSelectList(GraphPanel, T[])
    }
    
    JPanel <|- - ViewPanel
    class ViewPanel
    {
        - -(constructors)- -
        +ViewPanel(GraphPanel)
        - -
        +boolean viewAllEdges()
        +boolean viewEdges()
        +boolean viewPlaces()
        +boolean viewRelations()
        - -(collection)- -
        +List<Place.Type> viewPlaceTypes()
        +List<EdgeRelation.Type> viewRelationTypes()
        +List<RoadType> viewRoadTypes()
    }
    
@enduml

PlantUML version 1.2021.01(Tue Feb 02 02:55:08 EST 2021)
(GPL source distribution)
Java Runtime: OpenJDK Runtime Environment
JVM: OpenJDK 64-Bit Server VM
Default Encoding: UTF-8
Language: en
Country: US
--></g></svg>