<?xml version="1.0" encoding="UTF-8" standalone="no"?><svg xmlns="http://www.w3.org/2000/svg" xmlns:xlink="http://www.w3.org/1999/xlink" contentScriptType="application/ecmascript" contentStyleType="text/css" height="282.2917px" preserveAspectRatio="none" style="width:630px;height:282px;background:#333333;" version="1.1" viewBox="0 0 630 282" width="630.2083px" zoomAndPan="magnify"><defs/><g><rect fill="#48494B" height="41.2028" rx="8.3333" ry="8.3333" style="stroke:#545454;stroke-width:1.0416666666666667;" width="617.7083" x="2.0833" y="2.0833"/><text fill="#C0C0C0" font-family="Open Sans,Avenir,Nunito,Arial,Helvetica,SansSerif" font-size="20.8333" lengthAdjust="spacing" textLength="594.7917" x="13.5417" y="30.5583">com.telenav.mesakit.tools.applications.pbf.region.extractor</text><rect fill="#282828" height="48.055" id="Application" rx="8.3333" ry="8.3333" style="stroke:#5E5E5E;stroke-width:1.0416666666666667;" width="111.4583" x="263.5417" y="53.7028"/><rect fill="#1B1B1A" height="31.3883" rx="8.3333" ry="8.3333" style="stroke:#1B1B1A;stroke-width:1.0416666666666667;" width="111.4583" x="263.5417" y="53.7028"/><rect fill="#1B1B1A" height="8.3333" style="stroke:#1B1B1A;stroke-width:1.0416666666666667;" width="111.4583" x="263.5417" y="76.7578"/><rect fill="none" height="48.055" id="Application" rx="8.3333" ry="8.3333" style="stroke:#5E5E5E;stroke-width:1.0416666666666667;" width="111.4583" x="263.5417" y="53.7028"/><ellipse cx="278.125" cy="69.397" fill="#0066CF" rx="10.4167" ry="10.4167" style="stroke:#0086EF;stroke-width:1.0416666666666667;"/><path d="M280.0354,73.822 Q279.6082,74.0417 279.1382,74.1516 Q278.6682,74.2615 278.1494,74.2615 Q276.3062,74.2615 275.3357,73.0469 Q274.3652,71.8323 274.3652,69.5374 Q274.3652,67.2363 275.3357,66.0217 Q276.3062,64.8071 278.1494,64.8071 Q278.6682,64.8071 279.1443,64.917 Q279.6204,65.0269 280.0354,65.2466 L280.0354,67.2485 Q279.5715,66.8213 279.1351,66.6229 Q278.6987,66.4246 278.2349,66.4246 Q277.2461,66.4246 276.7426,67.2089 Q276.239,67.9932 276.239,69.5374 Q276.239,71.0754 276.7426,71.8597 Q277.2461,72.644 278.2349,72.644 Q278.6987,72.644 279.1351,72.4457 Q279.5715,72.2473 280.0354,71.8201 Z " fill="#000000"/><text fill="#D8BC00" font-family="Open Sans,Avenir,Nunito,Arial,Helvetica,SansSerif" font-size="12.5" font-weight="bold" lengthAdjust="spacing" textLength="73.9583" x="294.7917" y="74.1211">Application</text><line style="stroke:#5E5E5E;stroke-width:1.0416666666666667;" x1="264.5833" x2="373.9583" y1="85.0911" y2="85.0911"/><line style="stroke:#5E5E5E;stroke-width:1.0416666666666667;" x1="264.5833" x2="373.9583" y1="93.4245" y2="93.4245"/><rect codeLine="8" fill="#282828" height="111.4563" id="PbfRegionExtractorApplication" rx="8.3333" ry="8.3333" style="stroke:#5E5E5E;stroke-width:1.0416666666666667;" width="234.375" x="202.0833" y="164.1195"/><rect fill="#1B1B1A" height="31.3883" rx="8.3333" ry="8.3333" style="stroke:#1B1B1A;stroke-width:1.0416666666666667;" width="234.375" x="202.0833" y="164.1195"/><rect fill="#1B1B1A" height="8.3333" style="stroke:#1B1B1A;stroke-width:1.0416666666666667;" width="234.375" x="202.0833" y="187.1745"/><rect codeLine="8" fill="none" height="111.4563" id="PbfRegionExtractorApplication" rx="8.3333" ry="8.3333" style="stroke:#5E5E5E;stroke-width:1.0416666666666667;" width="234.375" x="202.0833" y="164.1195"/><ellipse cx="216.6667" cy="179.8136" fill="#0066CF" rx="10.4167" ry="10.4167" style="stroke:#0086EF;stroke-width:1.0416666666666667;"/><path d="M218.5771,184.2387 Q218.1498,184.4584 217.6799,184.5683 Q217.2099,184.6781 216.6911,184.6781 Q214.8478,184.6781 213.8774,183.4635 Q212.9069,182.2489 212.9069,179.954 Q212.9069,177.653 213.8774,176.4384 Q214.8478,175.2238 216.6911,175.2238 Q217.2099,175.2238 217.686,175.3337 Q218.162,175.4435 218.5771,175.6632 L218.5771,177.6652 Q218.1132,177.238 217.6768,177.0396 Q217.2404,176.8412 216.7765,176.8412 Q215.7878,176.8412 215.2842,177.6255 Q214.7807,178.4098 214.7807,179.954 Q214.7807,181.4921 215.2842,182.2764 Q215.7878,183.0607 216.7765,183.0607 Q217.2404,183.0607 217.6768,182.8623 Q218.1132,182.664 218.5771,182.2367 Z " fill="#000000"/><text fill="#D8BC00" font-family="Open Sans,Avenir,Nunito,Arial,Helvetica,SansSerif" font-size="12.5" font-weight="bold" lengthAdjust="spacing" textLength="196.875" x="233.3333" y="184.5378">PbfRegionExtractorApplication</text><line style="stroke:#5E5E5E;stroke-width:1.5625;" x1="203.125" x2="435.4167" y1="195.5078" y2="195.5078"/><polygon fill="#FFFF44" points="213.5417,225.6694,217.7083,229.836,213.5417,234.0027,209.375,229.836" style="stroke:#B38D22;stroke-width:1.0416666666666667;"/><text fill="#D8BC00" font-family="Open Sans,Avenir,Nunito,Arial,Helvetica,SansSerif" font-size="11.4583" lengthAdjust="spacing" textLength="180.2083" x="225" y="237.7889">PbfRegionExtractorApplication()</text><line style="stroke:#5E5E5E;stroke-width:1.0416666666666667;" x1="203.125" x2="275.5208" y1="213.7136" y2="213.7136"/><text fill="#D8BC00" font-family="Open Sans,Avenir,Nunito,Arial,Helvetica,SansSerif" font-size="11.4583" lengthAdjust="spacing" textLength="81.25" x="278.6458" y="217.5232">(constructors)</text><line style="stroke:#5E5E5E;stroke-width:1.0416666666666667;" x1="363.0208" x2="435.4167" y1="213.7136" y2="213.7136"/><line style="stroke:#5E5E5E;stroke-width:1.0416666666666667;" x1="203.125" x2="435.4167" y1="247.4976" y2="247.4976"/><ellipse cx="213.5417" cy="258.9559" fill="#84BE84" rx="3.125" ry="3.125" style="stroke:#038048;stroke-width:1.0416666666666667;"/><text fill="#D8BC00" font-family="Open Sans,Avenir,Nunito,Arial,Helvetica,SansSerif" font-size="11.4583" lengthAdjust="spacing" textLength="167.7083" x="225" y="265.8671">void main(String[] arguments)</text><path codeLine="7" d="M319.2708,122.7028 C319.2708,135.7549 319.2708,150.2028 319.2708,163.859 " fill="none" id="Application-backto-PbfRegionExtractorApplication" style="stroke:#545454;stroke-width:1.5625;"/><polygon fill="none" points="311.9792,122.6715,319.2708,101.8382,326.5625,122.6715,311.9792,122.6715" style="stroke:#545454;stroke-width:1.5625;"/></g></svg>
