<?xml version="1.0" encoding="UTF-8" standalone="no"?><svg xmlns="http://www.w3.org/2000/svg" xmlns:xlink="http://www.w3.org/1999/xlink" contentScriptType="application/ecmascript" contentStyleType="text/css" height="733.3333px" preserveAspectRatio="none" style="width:1734px;height:733px;background:#333333;" version="1.1" viewBox="0 0 1734 733" width="1734.375px" zoomAndPan="magnify"><defs/><g><rect fill="#48494B" height="41.2028" rx="8.3333" ry="8.3333" style="stroke:#545454;stroke-width:1.0416666666666667;" width="415.625" x="652.3438" y="2.0833"/><text fill="#C0C0C0" font-family="Open Sans,Avenir,Nunito,Arial,Helvetica,SansSerif" font-size="20.8333" lengthAdjust="spacing" textLength="392.7083" x="663.8021" y="30.5583">com.telenav.mesakit.navigation.routing</text><polygon fill="#333333" points="1572.3958,52.6611,1706.7708,52.6611,1714.0625,79.8828,1717.1875,79.8828,1717.1875,217.2445,1572.3958,217.2445,1572.3958,52.6611" style="stroke:#333333;stroke-width:2.0833333333333335;"/><line style="stroke:#333333;stroke-width:2.0833333333333335;" x1="1572.3958" x2="1714.0625" y1="79.8828" y2="79.8828"/><text fill="#C8AC00" font-family="Open Sans,Avenir,Nunito,Arial,Helvetica,SansSerif" font-size="12.5" font-weight="bold" lengthAdjust="spacing" textLength="121.875" x="1579.6875" y="69.9544">RoutingInstruction</text><rect codeLine="25" fill="#282828" height="107.2896" id="RoutingInstruction.Meaning" rx="8.3333" ry="8.3333" style="stroke:#5E5E5E;stroke-width:1.0416666666666667;" width="106.25" x="1590.1042" y="93.2861"/><rect fill="#1B1B1A" height="31.3883" rx="8.3333" ry="8.3333" style="stroke:#1B1B1A;stroke-width:1.0416666666666667;" width="106.25" x="1590.1042" y="93.2861"/><rect fill="#1B1B1A" height="8.3333" style="stroke:#1B1B1A;stroke-width:1.0416666666666667;" width="106.25" x="1590.1042" y="116.3411"/><rect codeLine="25" fill="none" height="107.2896" id="RoutingInstruction.Meaning" rx="8.3333" ry="8.3333" style="stroke:#5E5E5E;stroke-width:1.0416666666666667;" width="106.25" x="1590.1042" y="93.2861"/><ellipse cx="1610.7813" cy="108.9803" fill="#CF6300" rx="10.4167" ry="10.4167" style="stroke:#EF8300;stroke-width:1.0416666666666667;"/><path d="M1613.8371,113.6678 L1608.1608,113.6678 L1608.1608,104.5553 L1613.8371,104.5553 L1613.8371,106.1422 L1609.9613,106.1422 L1609.9613,108.1075 L1613.4709,108.1075 L1613.4709,109.6944 L1609.9613,109.6944 L1609.9613,112.0809 L1613.8371,112.0809 Z " fill="#000000"/><text fill="#D8BC00" font-family="Open Sans,Avenir,Nunito,Arial,Helvetica,SansSerif" font-size="12.5" font-weight="bold" lengthAdjust="spacing" textLength="55.2083" x="1628.8021" y="113.7044">Meaning</text><line style="stroke:#5E5E5E;stroke-width:1.0416666666666667;" x1="1591.1458" x2="1695.3125" y1="124.6745" y2="124.6745"/><text fill="#D8BC00" font-family="Open Sans,Avenir,Nunito,Arial,Helvetica,SansSerif" font-size="11.4583" lengthAdjust="spacing" textLength="84.375" x="1599.4792" y="143.044">EXPLORE_EDGE</text><text fill="#D8BC00" font-family="Open Sans,Avenir,Nunito,Arial,Helvetica,SansSerif" font-size="11.4583" lengthAdjust="spacing" textLength="78.125" x="1599.4792" y="162.7889">IGNORE_EDGE</text><text fill="#D8BC00" font-family="Open Sans,Avenir,Nunito,Arial,Helvetica,SansSerif" font-size="11.4583" lengthAdjust="spacing" textLength="87.5" x="1599.4792" y="182.5338">STOP_ROUTING</text><line style="stroke:#5E5E5E;stroke-width:1.0416666666666667;" x1="1591.1458" x2="1695.3125" y1="192.2424" y2="192.2424"/><rect codeLine="32" fill="#282828" height="83.3781" id="Router" rx="8.3333" ry="8.3333" style="stroke:#5E5E5E;stroke-width:1.0416666666666667;" width="284.375" x="957.2917" y="105.2653"/><rect fill="#1B1B1A" height="31.3883" rx="8.3333" ry="8.3333" style="stroke:#1B1B1A;stroke-width:1.0416666666666667;" width="284.375" x="957.2917" y="105.2653"/><rect fill="#1B1B1A" height="8.3333" style="stroke:#1B1B1A;stroke-width:1.0416666666666667;" width="284.375" x="957.2917" y="128.3203"/><rect codeLine="32" fill="none" height="83.3781" id="Router" rx="8.3333" ry="8.3333" style="stroke:#5E5E5E;stroke-width:1.0416666666666667;" width="284.375" x="957.2917" y="105.2653"/><ellipse cx="1070.8333" cy="120.9595" fill="#008400" rx="10.4167" ry="10.4167" style="stroke:#239C23;stroke-width:1.0416666666666667;"/><path d="M1068.2373,118.1213 L1068.2373,116.5344 L1073.6633,116.5344 L1073.6633,118.1213 L1071.8506,118.1213 L1071.8506,124.0601 L1073.6633,124.0601 L1073.6633,125.647 L1068.2373,125.647 L1068.2373,124.0601 L1070.05,124.0601 L1070.05,118.1213 Z " fill="#000000"/><text fill="#D8BC00" font-family="Open Sans,Avenir,Nunito,Arial,Helvetica,SansSerif" font-size="12.5" font-style="italic" font-weight="bold" lengthAdjust="spacing" textLength="42.7083" x="1093.75" y="125.6836">Router</text><line style="stroke:#5E5E5E;stroke-width:1.5625;" x1="958.3333" x2="1240.625" y1="136.6536" y2="136.6536"/><ellipse cx="968.75" cy="172.0235" fill="#84BE84" rx="3.125" ry="3.125" style="stroke:#038048;stroke-width:1.0416666666666667;"/><text fill="#D8BC00" font-family="Open Sans,Avenir,Nunito,Arial,Helvetica,SansSerif" font-size="11.4583" lengthAdjust="spacing" textLength="252.0833" x="980.2083" y="178.9347">RoutingResponse findRoute(RoutingRequest)</text><line style="stroke:#5E5E5E;stroke-width:1.0416666666666667;" x1="958.3333" x2="1073.4375" y1="154.8594" y2="154.8594"/><text fill="#D8BC00" font-family="Open Sans,Avenir,Nunito,Arial,Helvetica,SansSerif" font-size="11.4583" lengthAdjust="spacing" textLength="45.8333" x="1076.5625" y="158.669">(search)</text><line style="stroke:#5E5E5E;stroke-width:1.0416666666666667;" x1="1125.5208" x2="1240.625" y1="154.8594" y2="154.8594"/><rect codeLine="10" fill="#282828" height="83.3781" id="BaseRouter" rx="8.3333" ry="8.3333" style="stroke:#5E5E5E;stroke-width:1.0416666666666667;" width="301.0417" x="948.9583" y="465.1611"/><rect fill="#1B1B1A" height="31.3883" rx="8.3333" ry="8.3333" style="stroke:#1B1B1A;stroke-width:1.0416666666666667;" width="301.0417" x="948.9583" y="465.1611"/><rect fill="#1B1B1A" height="8.3333" style="stroke:#1B1B1A;stroke-width:1.0416666666666667;" width="301.0417" x="948.9583" y="488.2161"/><rect codeLine="10" fill="none" height="83.3781" id="BaseRouter" rx="8.3333" ry="8.3333" style="stroke:#5E5E5E;stroke-width:1.0416666666666667;" width="301.0417" x="948.9583" y="465.1611"/><ellipse cx="1055.7292" cy="480.8553" fill="#C8AC00" rx="10.4167" ry="10.4167" style="stroke:#D8BC00;stroke-width:1.0416666666666667;"/><path d="M1055.3223,477.5574 L1054.4739,481.2866 L1056.1768,481.2866 Z M1054.2236,475.9094 L1056.427,475.9094 L1058.8867,485.022 L1057.0862,485.022 L1056.5247,482.7698 L1054.1138,482.7698 L1053.5645,485.022 L1051.7639,485.022 Z " fill="#000000"/><text fill="#D8BC00" font-family="Open Sans,Avenir,Nunito,Arial,Helvetica,SansSerif" font-size="12.5" font-style="italic" font-weight="bold" lengthAdjust="spacing" textLength="72.9167" x="1078.6458" y="485.5794">BaseRouter</text><line style="stroke:#5E5E5E;stroke-width:1.5625;" x1="950" x2="1248.9583" y1="496.5495" y2="496.5495"/><ellipse cx="960.4167" cy="531.9194" fill="#84BE84" rx="3.125" ry="3.125" style="stroke:#038048;stroke-width:1.0416666666666667;"/><text fill="#D8BC00" font-family="Open Sans,Avenir,Nunito,Arial,Helvetica,SansSerif" font-size="11.4583" lengthAdjust="spacing" textLength="268.75" x="971.875" y="538.8306">RoutingResponse onFindRoute(RoutingRequest)</text><line style="stroke:#5E5E5E;stroke-width:1.0416666666666667;" x1="950" x2="1045.3125" y1="514.7552" y2="514.7552"/><text fill="#D8BC00" font-family="Open Sans,Avenir,Nunito,Arial,Helvetica,SansSerif" font-size="11.4583" lengthAdjust="spacing" textLength="102.0833" x="1048.4375" y="518.5649">(extension points)</text><line style="stroke:#5E5E5E;stroke-width:1.0416666666666667;" x1="1153.6458" x2="1248.9583" y1="514.7552" y2="514.7552"/><rect codeLine="16" fill="#282828" height="131.2012" id="LevelPromoter" rx="8.3333" ry="8.3333" style="stroke:#5E5E5E;stroke-width:1.0416666666666667;" width="196.875" x="116.6667" y="81.307"/><rect fill="#1B1B1A" height="31.3883" rx="8.3333" ry="8.3333" style="stroke:#1B1B1A;stroke-width:1.0416666666666667;" width="196.875" x="116.6667" y="81.307"/><rect fill="#1B1B1A" height="8.3333" style="stroke:#1B1B1A;stroke-width:1.0416666666666667;" width="196.875" x="116.6667" y="104.362"/><rect codeLine="16" fill="none" height="131.2012" id="LevelPromoter" rx="8.3333" ry="8.3333" style="stroke:#5E5E5E;stroke-width:1.0416666666666667;" width="196.875" x="116.6667" y="81.307"/><ellipse cx="161.4583" cy="97.0011" fill="#008400" rx="10.4167" ry="10.4167" style="stroke:#239C23;stroke-width:1.0416666666666667;"/><path d="M158.8623,94.163 L158.8623,92.5761 L164.2883,92.5761 L164.2883,94.163 L162.4756,94.163 L162.4756,100.1017 L164.2883,100.1017 L164.2883,101.6886 L158.8623,101.6886 L158.8623,100.1017 L160.675,100.1017 L160.675,94.163 Z " fill="#000000"/><text fill="#D8BC00" font-family="Open Sans,Avenir,Nunito,Arial,Helvetica,SansSerif" font-size="12.5" font-style="italic" font-weight="bold" lengthAdjust="spacing" textLength="92.7083" x="184.375" y="101.7253">LevelPromoter</text><line style="stroke:#5E5E5E;stroke-width:1.5625;" x1="117.7083" x2="312.5" y1="112.6953" y2="112.6953"/><line style="stroke:#5E5E5E;stroke-width:1.0416666666666667;" x1="117.7083" x2="312.5" y1="121.0286" y2="121.0286"/><ellipse cx="128.125" cy="132.487" fill="#84BE84" rx="3.125" ry="3.125" style="stroke:#038048;stroke-width:1.0416666666666667;"/><text fill="#D8BC00" font-family="Open Sans,Avenir,Nunito,Arial,Helvetica,SansSerif" font-size="11.4583" lengthAdjust="spacing" textLength="107.2917" x="139.5833" y="139.3982">void onRelax(Edge)</text><ellipse cx="128.125" cy="152.2319" fill="#84BE84" rx="3.125" ry="3.125" style="stroke:#038048;stroke-width:1.0416666666666667;"/><text fill="#D8BC00" font-family="Open Sans,Avenir,Nunito,Arial,Helvetica,SansSerif" font-size="11.4583" lengthAdjust="spacing" textLength="107.2917" x="139.5833" y="159.1431">void onSettle(Edge)</text><ellipse cx="128.125" cy="195.8883" fill="#84BE84" rx="3.125" ry="3.125" style="stroke:#038048;stroke-width:1.0416666666666667;"/><text fill="#D8BC00" font-family="Open Sans,Avenir,Nunito,Arial,Helvetica,SansSerif" font-size="11.4583" lengthAdjust="spacing" textLength="164.5833" x="139.5833" y="202.7995">boolean shouldExplore(Edge)</text><line style="stroke:#5E5E5E;stroke-width:1.0416666666666667;" x1="117.7083" x2="188.5417" y1="178.7242" y2="178.7242"/><text fill="#D8BC00" font-family="Open Sans,Avenir,Nunito,Arial,Helvetica,SansSerif" font-size="11.4583" lengthAdjust="spacing" textLength="46.875" x="191.6667" y="182.5338">(checks)</text><line style="stroke:#5E5E5E;stroke-width:1.0416666666666667;" x1="241.6667" x2="312.5" y1="178.7242" y2="178.7242"/><rect codeLine="38" fill="#282828" height="150.946" id="RoutingDebugger" rx="8.3333" ry="8.3333" style="stroke:#5E5E5E;stroke-width:1.0416666666666667;" width="295.8333" x="350.5208" y="71.4111"/><rect fill="#1B1B1A" height="31.3883" rx="8.3333" ry="8.3333" style="stroke:#1B1B1A;stroke-width:1.0416666666666667;" width="295.8333" x="350.5208" y="71.4111"/><rect fill="#1B1B1A" height="8.3333" style="stroke:#1B1B1A;stroke-width:1.0416666666666667;" width="295.8333" x="350.5208" y="94.4661"/><rect codeLine="38" fill="none" height="150.946" id="RoutingDebugger" rx="8.3333" ry="8.3333" style="stroke:#5E5E5E;stroke-width:1.0416666666666667;" width="295.8333" x="350.5208" y="71.4111"/><ellipse cx="433.8542" cy="87.1053" fill="#008400" rx="10.4167" ry="10.4167" style="stroke:#239C23;stroke-width:1.0416666666666667;"/><path d="M431.2581,84.2672 L431.2581,82.6803 L436.6842,82.6803 L436.6842,84.2672 L434.8714,84.2672 L434.8714,90.2059 L436.6842,90.2059 L436.6842,91.7928 L431.2581,91.7928 L431.2581,90.2059 L433.0709,90.2059 L433.0709,84.2672 Z " fill="#000000"/><text fill="#D8BC00" font-family="Open Sans,Avenir,Nunito,Arial,Helvetica,SansSerif" font-size="12.5" font-style="italic" font-weight="bold" lengthAdjust="spacing" textLength="114.5833" x="456.7708" y="91.8294">RoutingDebugger</text><line style="stroke:#5E5E5E;stroke-width:1.5625;" x1="351.5625" x2="645.3125" y1="102.7995" y2="102.7995"/><line style="stroke:#5E5E5E;stroke-width:1.0416666666666667;" x1="351.5625" x2="645.3125" y1="111.1328" y2="111.1328"/><ellipse cx="361.9792" cy="122.5911" fill="#84BE84" rx="3.125" ry="3.125" style="stroke:#038048;stroke-width:1.0416666666666667;"/><text fill="#D8BC00" font-family="Open Sans,Avenir,Nunito,Arial,Helvetica,SansSerif" font-size="11.4583" lengthAdjust="spacing" textLength="158.3333" x="373.4375" y="129.5024">void onRelaxed(Route, Cost)</text><ellipse cx="361.9792" cy="142.336" fill="#84BE84" rx="3.125" ry="3.125" style="stroke:#038048;stroke-width:1.0416666666666667;"/><text fill="#D8BC00" font-family="Open Sans,Avenir,Nunito,Arial,Helvetica,SansSerif" font-size="11.4583" lengthAdjust="spacing" textLength="156.25" x="373.4375" y="149.2472">void onSettled(Vertex, Cost)</text><ellipse cx="361.9792" cy="185.9924" fill="#84BE84" rx="3.125" ry="3.125" style="stroke:#038048;stroke-width:1.0416666666666667;"/><text fill="#D8BC00" font-family="Open Sans,Avenir,Nunito,Arial,Helvetica,SansSerif" font-size="11.4583" lengthAdjust="spacing" textLength="263.5417" x="373.4375" y="192.9036">void onEnd(RoutingRequest, RoutingResponse)</text><ellipse cx="361.9792" cy="205.7373" fill="#84BE84" rx="3.125" ry="3.125" style="stroke:#038048;stroke-width:1.0416666666666667;"/><text fill="#D8BC00" font-family="Open Sans,Avenir,Nunito,Arial,Helvetica,SansSerif" font-size="11.4583" lengthAdjust="spacing" textLength="164.5833" x="373.4375" y="212.6485">void onStart(RoutingRequest)</text><line style="stroke:#5E5E5E;stroke-width:1.0416666666666667;" x1="351.5625" x2="468.75" y1="168.8283" y2="168.8283"/><text fill="#D8BC00" font-family="Open Sans,Avenir,Nunito,Arial,Helvetica,SansSerif" font-size="11.4583" lengthAdjust="spacing" textLength="53.125" x="471.875" y="172.6379">(lifecycle)</text><line style="stroke:#5E5E5E;stroke-width:1.0416666666666667;" x1="528.125" x2="645.3125" y1="168.8283" y2="168.8283"/><rect codeLine="48" fill="#282828" height="155.1127" id="RoutingInstruction" rx="8.3333" ry="8.3333" style="stroke:#5E5E5E;stroke-width:1.0416666666666667;" width="275" x="1278.6458" y="69.3278"/><rect fill="#1B1B1A" height="31.3883" rx="8.3333" ry="8.3333" style="stroke:#1B1B1A;stroke-width:1.0416666666666667;" width="275" x="1278.6458" y="69.3278"/><rect fill="#1B1B1A" height="8.3333" style="stroke:#1B1B1A;stroke-width:1.0416666666666667;" width="275" x="1278.6458" y="92.3828"/><rect codeLine="48" fill="none" height="155.1127" id="RoutingInstruction" rx="8.3333" ry="8.3333" style="stroke:#5E5E5E;stroke-width:1.0416666666666667;" width="275" x="1278.6458" y="69.3278"/><ellipse cx="1347.9167" cy="85.022" fill="#0066CF" rx="10.4167" ry="10.4167" style="stroke:#0086EF;stroke-width:1.0416666666666667;"/><path d="M1349.8271,89.447 Q1349.3998,89.6667 1348.9299,89.7766 Q1348.4599,89.8865 1347.9411,89.8865 Q1346.0978,89.8865 1345.1274,88.6719 Q1344.1569,87.4573 1344.1569,85.1624 Q1344.1569,82.8613 1345.1274,81.6467 Q1346.0978,80.4321 1347.9411,80.4321 Q1348.4599,80.4321 1348.936,80.542 Q1349.412,80.6519 1349.8271,80.8716 L1349.8271,82.8735 Q1349.3632,82.4463 1348.9268,82.2479 Q1348.4904,82.0496 1348.0265,82.0496 Q1347.0378,82.0496 1346.5342,82.8339 Q1346.0307,83.6182 1346.0307,85.1624 Q1346.0307,86.7004 1346.5342,87.4847 Q1347.0378,88.269 1348.0265,88.269 Q1348.4904,88.269 1348.9268,88.0707 Q1349.3632,87.8723 1349.8271,87.4451 Z " fill="#000000"/><text fill="#D8BC00" font-family="Open Sans,Avenir,Nunito,Arial,Helvetica,SansSerif" font-size="12.5" font-weight="bold" lengthAdjust="spacing" textLength="121.875" x="1370.8333" y="89.7461">RoutingInstruction</text><line style="stroke:#5E5E5E;stroke-width:1.5625;" x1="1279.6875" x2="1552.6042" y1="100.7161" y2="100.7161"/><ellipse cx="1290.1042" cy="136.086" fill="#84BE84" rx="3.125" ry="3.125" style="stroke:#038048;stroke-width:1.0416666666666667;"/><text fill="#D8BC00" font-family="Open Sans,Avenir,Nunito,Arial,Helvetica,SansSerif" font-size="11.4583" lengthAdjust="spacing" textLength="242.7083" x="1301.5625" y="142.9972">RoutingInstruction(Meaning, String, Object)</text><line style="stroke:#5E5E5E;stroke-width:1.0416666666666667;" x1="1279.6875" x2="1372.3958" y1="118.9219" y2="118.9219"/><text fill="#D8BC00" font-family="Open Sans,Avenir,Nunito,Arial,Helvetica,SansSerif" font-size="11.4583" lengthAdjust="spacing" textLength="81.25" x="1375.5208" y="122.7315">(constructors)</text><line style="stroke:#5E5E5E;stroke-width:1.0416666666666667;" x1="1459.8958" x2="1552.6042" y1="118.9219" y2="118.9219"/><line style="stroke:#5E5E5E;stroke-width:1.0416666666666667;" x1="1279.6875" x2="1552.6042" y1="152.7059" y2="152.7059"/><ellipse cx="1290.1042" cy="164.1642" fill="#84BE84" rx="3.125" ry="3.125" style="stroke:#038048;stroke-width:1.0416666666666667;"/><text fill="#D8BC00" font-family="Open Sans,Avenir,Nunito,Arial,Helvetica,SansSerif" font-size="11.4583" lengthAdjust="spacing" textLength="106.25" x="1301.5625" y="171.0754">Meaning meaning()</text><ellipse cx="1290.1042" cy="207.8206" fill="#84BE84" rx="3.125" ry="3.125" style="stroke:#038048;stroke-width:1.0416666666666667;"/><text fill="#D8BC00" font-family="Open Sans,Avenir,Nunito,Arial,Helvetica,SansSerif" font-size="11.4583" lengthAdjust="spacing" textLength="93.75" x="1301.5625" y="214.7319">String message()</text><line style="stroke:#5E5E5E;stroke-width:1.0416666666666667;" x1="1279.6875" x2="1378.6458" y1="190.6565" y2="190.6565"/><text fill="#D8BC00" font-family="Open Sans,Avenir,Nunito,Arial,Helvetica,SansSerif" font-size="11.4583" lengthAdjust="spacing" textLength="68.75" x="1381.7708" y="194.4661">(messaging)</text><line style="stroke:#5E5E5E;stroke-width:1.0416666666666667;" x1="1453.6458" x2="1552.6042" y1="190.6565" y2="190.6565"/><rect codeLine="58" fill="#282828" height="111.4563" id="RoutingLimiter" rx="8.3333" ry="8.3333" style="stroke:#5E5E5E;stroke-width:1.0416666666666667;" width="237.5" x="682.8125" y="91.2028"/><rect fill="#1B1B1A" height="31.3883" rx="8.3333" ry="8.3333" style="stroke:#1B1B1A;stroke-width:1.0416666666666667;" width="237.5" x="682.8125" y="91.2028"/><rect fill="#1B1B1A" height="8.3333" style="stroke:#1B1B1A;stroke-width:1.0416666666666667;" width="237.5" x="682.8125" y="114.2578"/><rect codeLine="58" fill="none" height="111.4563" id="RoutingLimiter" rx="8.3333" ry="8.3333" style="stroke:#5E5E5E;stroke-width:1.0416666666666667;" width="237.5" x="682.8125" y="91.2028"/><ellipse cx="745.8333" cy="106.897" fill="#008400" rx="10.4167" ry="10.4167" style="stroke:#239C23;stroke-width:1.0416666666666667;"/><path d="M743.2373,104.0588 L743.2373,102.4719 L748.6633,102.4719 L748.6633,104.0588 L746.8506,104.0588 L746.8506,109.9976 L748.6633,109.9976 L748.6633,111.5845 L743.2373,111.5845 L743.2373,109.9976 L745.05,109.9976 L745.05,104.0588 Z " fill="#000000"/><text fill="#D8BC00" font-family="Open Sans,Avenir,Nunito,Arial,Helvetica,SansSerif" font-size="12.5" font-style="italic" font-weight="bold" lengthAdjust="spacing" textLength="96.875" x="768.75" y="111.6211">RoutingLimiter</text><line style="stroke:#5E5E5E;stroke-width:1.5625;" x1="683.8542" x2="919.2708" y1="122.5911" y2="122.5911"/><line style="stroke:#5E5E5E;stroke-width:1.0416666666666667;" x1="683.8542" x2="919.2708" y1="130.9245" y2="130.9245"/><ellipse cx="694.2708" cy="142.3828" fill="#84BE84" rx="3.125" ry="3.125" style="stroke:#038048;stroke-width:1.0416666666666667;"/><text fill="#D8BC00" font-family="Open Sans,Avenir,Nunito,Arial,Helvetica,SansSerif" font-size="11.4583" lengthAdjust="spacing" textLength="205.2083" x="705.7292" y="149.294">RoutingInstruction instruction(Edge)</text><ellipse cx="694.2708" cy="186.0392" fill="#84BE84" rx="3.125" ry="3.125" style="stroke:#038048;stroke-width:1.0416666666666667;"/><text fill="#D8BC00" font-family="Open Sans,Avenir,Nunito,Arial,Helvetica,SansSerif" font-size="11.4583" lengthAdjust="spacing" textLength="150" x="705.7292" y="192.9504">void start(RoutingRequest)</text><line style="stroke:#5E5E5E;stroke-width:1.0416666666666667;" x1="683.8542" x2="771.875" y1="168.8751" y2="168.8751"/><text fill="#D8BC00" font-family="Open Sans,Avenir,Nunito,Arial,Helvetica,SansSerif" font-size="11.4583" lengthAdjust="spacing" textLength="53.125" x="775" y="172.6847">(lifecycle)</text><line style="stroke:#5E5E5E;stroke-width:1.0416666666666667;" x1="831.25" x2="919.2708" y1="168.8751" y2="168.8751"/><rect codeLine="66" fill="#282828" height="439.8743" id="RoutingRequest" rx="8.3333" ry="8.3333" style="stroke:#5E5E5E;stroke-width:1.0416666666666667;" width="411.4583" x="9.375" y="287.0361"/><rect fill="#1B1B1A" height="31.3883" rx="8.3333" ry="8.3333" style="stroke:#1B1B1A;stroke-width:1.0416666666666667;" width="411.4583" x="9.375" y="287.0361"/><rect fill="#1B1B1A" height="8.3333" style="stroke:#1B1B1A;stroke-width:1.0416666666666667;" width="411.4583" x="9.375" y="310.0911"/><rect codeLine="66" fill="none" height="439.8743" id="RoutingRequest" rx="8.3333" ry="8.3333" style="stroke:#5E5E5E;stroke-width:1.0416666666666667;" width="411.4583" x="9.375" y="287.0361"/><ellipse cx="156.25" cy="302.7303" fill="#C8AC00" rx="10.4167" ry="10.4167" style="stroke:#D8BC00;stroke-width:1.0416666666666667;"/><path d="M155.8431,299.4324 L154.9947,303.1616 L156.6976,303.1616 Z M154.7445,297.7844 L156.9478,297.7844 L159.4076,306.897 L157.607,306.897 L157.0455,304.6448 L154.6346,304.6448 L154.0853,306.897 L152.2847,306.897 Z " fill="#000000"/><text fill="#D8BC00" font-family="Open Sans,Avenir,Nunito,Arial,Helvetica,SansSerif" font-size="12.5" font-style="italic" font-weight="bold" lengthAdjust="spacing" textLength="103.125" x="179.1667" y="307.4544">RoutingRequest</text><line style="stroke:#5E5E5E;stroke-width:1.5625;" x1="10.4167" x2="419.7917" y1="318.4245" y2="318.4245"/><polygon fill="#FFFF44" points="20.8333,348.586,25,352.7527,20.8333,356.9194,16.6667,352.7527" style="stroke:#B38D22;stroke-width:1.0416666666666667;"/><text fill="#D8BC00" font-family="Open Sans,Avenir,Nunito,Arial,Helvetica,SansSerif" font-size="11.4583" lengthAdjust="spacing" textLength="379.1667" x="32.2917" y="360.7056">RoutingRequest(RoutingRequest, RoutingLimiter, RoutingDebugger)</text><polygon fill="#FFFF44" points="20.8333,368.3309,25,372.4976,20.8333,376.6642,16.6667,372.4976" style="stroke:#B38D22;stroke-width:1.0416666666666667;"/><text fill="#D8BC00" font-family="Open Sans,Avenir,Nunito,Arial,Helvetica,SansSerif" font-size="11.4583" lengthAdjust="spacing" textLength="176.0417" x="32.2917" y="380.4504">RoutingRequest(Vertex, Vertex)</text><line style="stroke:#5E5E5E;stroke-width:1.0416666666666667;" x1="10.4167" x2="171.3542" y1="336.6302" y2="336.6302"/><text fill="#D8BC00" font-family="Open Sans,Avenir,Nunito,Arial,Helvetica,SansSerif" font-size="11.4583" lengthAdjust="spacing" textLength="81.25" x="174.4792" y="340.4399">(constructors)</text><line style="stroke:#5E5E5E;stroke-width:1.0416666666666667;" x1="258.8542" x2="419.7917" y1="336.6302" y2="336.6302"/><line style="stroke:#5E5E5E;stroke-width:1.0416666666666667;" x1="10.4167" x2="419.7917" y1="390.1591" y2="390.1591"/><ellipse cx="20.8333" cy="401.6174" fill="#84BE84" rx="3.125" ry="3.125" style="stroke:#038048;stroke-width:1.0416666666666667;"/><text fill="#D8BC00" font-family="Open Sans,Avenir,Nunito,Arial,Helvetica,SansSerif" font-size="11.4583" lengthAdjust="spacing" textLength="164.5833" x="32.2917" y="408.5286">RoutingDebugger debugger()</text><ellipse cx="20.8333" cy="421.3623" fill="#84BE84" rx="3.125" ry="3.125" style="stroke:#038048;stroke-width:1.0416666666666667;"/><text fill="#D8BC00" font-family="Open Sans,Avenir,Nunito,Arial,Helvetica,SansSerif" font-size="11.4583" lengthAdjust="spacing" textLength="108.3333" x="32.2917" y="428.2735">String description()</text><ellipse cx="20.8333" cy="441.1072" fill="#84BE84" rx="3.125" ry="3.125" style="stroke:#038048;stroke-width:1.0416666666666667;"/><text fill="#D8BC00" font-family="Open Sans,Avenir,Nunito,Arial,Helvetica,SansSerif" font-size="11.4583" lengthAdjust="spacing" textLength="106.25" x="32.2917" y="448.0184">Distance distance()</text><ellipse cx="20.8333" cy="460.8521" fill="#84BE84" rx="3.125" ry="3.125" style="stroke:#038048;stroke-width:1.0416666666666667;"/><text fill="#D8BC00" font-family="Open Sans,Avenir,Nunito,Arial,Helvetica,SansSerif" font-size="11.4583" lengthAdjust="spacing" textLength="129.1667" x="32.2917" y="467.7633">RoutingLimiter limiter()</text><ellipse cx="20.8333" cy="480.5969" fill="#84BE84" rx="3.125" ry="3.125" style="stroke:#038048;stroke-width:1.0416666666666667;"/><text fill="#D8BC00" font-family="Open Sans,Avenir,Nunito,Arial,Helvetica,SansSerif" font-size="11.4583" lengthAdjust="spacing" textLength="158.3333" x="32.2917" y="487.5081">void onRelaxed(Route, Cost)</text><polygon fill="#FFFF44" points="20.8333,495.1335,25,499.3001,20.8333,503.4668,16.6667,499.3001" style="stroke:#B38D22;stroke-width:1.0416666666666667;"/><text fill="#D8BC00" font-family="Open Sans,Avenir,Nunito,Arial,Helvetica,SansSerif" font-size="11.4583" lengthAdjust="spacing" textLength="156.25" x="32.2917" y="507.253">void onSettled(Vertex, Cost)</text><ellipse cx="20.8333" cy="543.9982" fill="#84BE84" rx="3.125" ry="3.125" style="stroke:#038048;stroke-width:1.0416666666666667;"/><text fill="#D8BC00" font-family="Open Sans,Avenir,Nunito,Arial,Helvetica,SansSerif" font-size="11.4583" lengthAdjust="spacing" textLength="127.0833" x="32.2917" y="550.9094">boolean isDebugging()</text><line style="stroke:#5E5E5E;stroke-width:1.0416666666666667;" x1="10.4167" x2="188.5417" y1="526.8341" y2="526.8341"/><text fill="#D8BC00" font-family="Open Sans,Avenir,Nunito,Arial,Helvetica,SansSerif" font-size="11.4583" lengthAdjust="spacing" textLength="46.875" x="191.6667" y="530.6437">(checks)</text><line style="stroke:#5E5E5E;stroke-width:1.0416666666666667;" x1="241.6667" x2="419.7917" y1="526.8341" y2="526.8341"/><ellipse cx="20.8333" cy="587.6546" fill="#84BE84" rx="3.125" ry="3.125" style="stroke:#038048;stroke-width:1.0416666666666667;"/><text fill="#D8BC00" font-family="Open Sans,Avenir,Nunito,Arial,Helvetica,SansSerif" font-size="11.4583" lengthAdjust="spacing" textLength="68.75" x="32.2917" y="594.5658">Vertex end()</text><ellipse cx="20.8333" cy="607.3995" fill="#84BE84" rx="3.125" ry="3.125" style="stroke:#038048;stroke-width:1.0416666666666667;"/><text fill="#D8BC00" font-family="Open Sans,Avenir,Nunito,Arial,Helvetica,SansSerif" font-size="11.4583" lengthAdjust="spacing" textLength="122.9167" x="32.2917" y="614.3107">boolean isEnd(Vertex)</text><ellipse cx="20.8333" cy="627.1444" fill="#84BE84" rx="3.125" ry="3.125" style="stroke:#038048;stroke-width:1.0416666666666667;"/><text fill="#D8BC00" font-family="Open Sans,Avenir,Nunito,Arial,Helvetica,SansSerif" font-size="11.4583" lengthAdjust="spacing" textLength="119.7917" x="32.2917" y="634.0556">void onStartRouting()</text><ellipse cx="20.8333" cy="646.8892" fill="#84BE84" rx="3.125" ry="3.125" style="stroke:#038048;stroke-width:1.0416666666666667;"/><text fill="#D8BC00" font-family="Open Sans,Avenir,Nunito,Arial,Helvetica,SansSerif" font-size="11.4583" lengthAdjust="spacing" textLength="73.9583" x="32.2917" y="653.8005">Vertex start()</text><polygon fill="#FFFF44" points="20.8333,661.4258,25,665.5924,20.8333,669.7591,16.6667,665.5924" style="stroke:#B38D22;stroke-width:1.0416666666666667;"/><text fill="#D8BC00" font-family="Open Sans,Avenir,Nunito,Arial,Helvetica,SansSerif" font-size="11.4583" lengthAdjust="spacing" textLength="212.5" x="32.2917" y="673.5453">void onEndRouting(RoutingResponse)</text><line style="stroke:#5E5E5E;stroke-width:1.0416666666666667;" x1="10.4167" x2="185.4167" y1="570.4905" y2="570.4905"/><text fill="#D8BC00" font-family="Open Sans,Avenir,Nunito,Arial,Helvetica,SansSerif" font-size="11.4583" lengthAdjust="spacing" textLength="53.125" x="188.5417" y="574.3001">(lifecycle)</text><line style="stroke:#5E5E5E;stroke-width:1.0416666666666667;" x1="244.7917" x2="419.7917" y1="570.4905" y2="570.4905"/><polygon fill="#FFFF44" points="20.8333,705.0822,25,709.2489,20.8333,713.4155,16.6667,709.2489" style="stroke:#B38D22;stroke-width:1.0416666666666667;"/><text fill="#D8BC00" font-family="Open Sans,Avenir,Nunito,Arial,Helvetica,SansSerif" font-size="11.4583" lengthAdjust="spacing" textLength="103.125" x="32.2917" y="717.2017">Duration elapsed()</text><line style="stroke:#5E5E5E;stroke-width:1.0416666666666667;" x1="10.4167" x2="195.8333" y1="693.1264" y2="693.1264"/><text fill="#D8BC00" font-family="Open Sans,Avenir,Nunito,Arial,Helvetica,SansSerif" font-size="11.4583" lengthAdjust="spacing" textLength="32.2917" x="198.9583" y="696.936">(time)</text><line style="stroke:#5E5E5E;stroke-width:1.0416666666666667;" x1="234.375" x2="419.7917" y1="693.1264" y2="693.1264"/><rect codeLine="90" fill="#282828" height="174.8576" id="RoutingResponse" rx="8.3333" ry="8.3333" style="stroke:#5E5E5E;stroke-width:1.0416666666666667;" width="226.0417" x="457.2917" y="419.3278"/><rect fill="#1B1B1A" height="31.3883" rx="8.3333" ry="8.3333" style="stroke:#1B1B1A;stroke-width:1.0416666666666667;" width="226.0417" x="457.2917" y="419.3278"/><rect fill="#1B1B1A" height="8.3333" style="stroke:#1B1B1A;stroke-width:1.0416666666666667;" width="226.0417" x="457.2917" y="442.3828"/><rect codeLine="90" fill="none" height="174.8576" id="RoutingResponse" rx="8.3333" ry="8.3333" style="stroke:#5E5E5E;stroke-width:1.0416666666666667;" width="226.0417" x="457.2917" y="419.3278"/><ellipse cx="506.25" cy="435.022" fill="#0066CF" rx="10.4167" ry="10.4167" style="stroke:#0086EF;stroke-width:1.0416666666666667;"/><path d="M508.1604,439.447 Q507.7332,439.6667 507.2632,439.7766 Q506.7932,439.8865 506.2744,439.8865 Q504.4312,439.8865 503.4607,438.6719 Q502.4902,437.4573 502.4902,435.1624 Q502.4902,432.8613 503.4607,431.6467 Q504.4312,430.4321 506.2744,430.4321 Q506.7932,430.4321 507.2693,430.542 Q507.7454,430.6519 508.1604,430.8716 L508.1604,432.8735 Q507.6965,432.4463 507.2601,432.2479 Q506.8237,432.0496 506.3599,432.0496 Q505.3711,432.0496 504.8676,432.8339 Q504.364,433.6182 504.364,435.1624 Q504.364,436.7004 504.8676,437.4847 Q505.3711,438.269 506.3599,438.269 Q506.8237,438.269 507.2601,438.0707 Q507.6965,437.8723 508.1604,437.4451 Z " fill="#000000"/><text fill="#D8BC00" font-family="Open Sans,Avenir,Nunito,Arial,Helvetica,SansSerif" font-size="12.5" font-weight="bold" lengthAdjust="spacing" textLength="113.5417" x="529.1667" y="439.7461">RoutingResponse</text><line style="stroke:#5E5E5E;stroke-width:1.5625;" x1="458.3333" x2="682.2917" y1="450.7161" y2="450.7161"/><ellipse cx="468.75" cy="486.086" fill="#84BE84" rx="3.125" ry="3.125" style="stroke:#038048;stroke-width:1.0416666666666667;"/><text fill="#D8BC00" font-family="Open Sans,Avenir,Nunito,Arial,Helvetica,SansSerif" font-size="11.4583" lengthAdjust="spacing" textLength="193.75" x="480.2083" y="492.9972">RoutingResponse(Route, Duration)</text><line style="stroke:#5E5E5E;stroke-width:1.0416666666666667;" x1="458.3333" x2="526.5625" y1="468.9219" y2="468.9219"/><text fill="#D8BC00" font-family="Open Sans,Avenir,Nunito,Arial,Helvetica,SansSerif" font-size="11.4583" lengthAdjust="spacing" textLength="81.25" x="529.6875" y="472.7315">(constructors)</text><line style="stroke:#5E5E5E;stroke-width:1.0416666666666667;" x1="614.0625" x2="682.2917" y1="468.9219" y2="468.9219"/><line style="stroke:#5E5E5E;stroke-width:1.0416666666666667;" x1="458.3333" x2="682.2917" y1="502.7059" y2="502.7059"/><ellipse cx="468.75" cy="514.1642" fill="#84BE84" rx="3.125" ry="3.125" style="stroke:#038048;stroke-width:1.0416666666666667;"/><text fill="#D8BC00" font-family="Open Sans,Avenir,Nunito,Arial,Helvetica,SansSerif" font-size="11.4583" lengthAdjust="spacing" textLength="86.4583" x="480.2083" y="521.0754">boolean failed()</text><ellipse cx="468.75" cy="533.9091" fill="#84BE84" rx="3.125" ry="3.125" style="stroke:#038048;stroke-width:1.0416666666666667;"/><text fill="#D8BC00" font-family="Open Sans,Avenir,Nunito,Arial,Helvetica,SansSerif" font-size="11.4583" lengthAdjust="spacing" textLength="73.9583" x="480.2083" y="540.8203">Route route()</text><ellipse cx="468.75" cy="577.5655" fill="#84BE84" rx="3.125" ry="3.125" style="stroke:#038048;stroke-width:1.0416666666666667;"/><text fill="#D8BC00" font-family="Open Sans,Avenir,Nunito,Arial,Helvetica,SansSerif" font-size="11.4583" lengthAdjust="spacing" textLength="103.125" x="480.2083" y="584.4767">Duration elapsed()</text><line style="stroke:#5E5E5E;stroke-width:1.0416666666666667;" x1="458.3333" x2="551.0417" y1="560.4014" y2="560.4014"/><text fill="#D8BC00" font-family="Open Sans,Avenir,Nunito,Arial,Helvetica,SansSerif" font-size="11.4583" lengthAdjust="spacing" textLength="32.2917" x="554.1667" y="564.211">(time)</text><line style="stroke:#5E5E5E;stroke-width:1.0416666666666667;" x1="589.5833" x2="682.2917" y1="560.4014" y2="560.4014"/><rect codeLine="102" fill="#282828" height="83.3781" id="StopRoutingInstruction" rx="8.3333" ry="8.3333" style="stroke:#5E5E5E;stroke-width:1.0416666666666667;" width="246.875" x="1292.7083" y="465.1611"/><rect fill="#1B1B1A" height="31.3883" rx="8.3333" ry="8.3333" style="stroke:#1B1B1A;stroke-width:1.0416666666666667;" width="246.875" x="1292.7083" y="465.1611"/><rect fill="#1B1B1A" height="8.3333" style="stroke:#1B1B1A;stroke-width:1.0416666666666667;" width="246.875" x="1292.7083" y="488.2161"/><rect codeLine="102" fill="none" height="83.3781" id="StopRoutingInstruction" rx="8.3333" ry="8.3333" style="stroke:#5E5E5E;stroke-width:1.0416666666666667;" width="246.875" x="1292.7083" y="465.1611"/><ellipse cx="1333.5417" cy="480.8553" fill="#0066CF" rx="10.4167" ry="10.4167" style="stroke:#0086EF;stroke-width:1.0416666666666667;"/><path d="M1335.4521,485.2804 Q1335.0248,485.5001 1334.5549,485.6099 Q1334.0849,485.7198 1333.5661,485.7198 Q1331.7228,485.7198 1330.7524,484.5052 Q1329.7819,483.2906 1329.7819,480.9957 Q1329.7819,478.6947 1330.7524,477.4801 Q1331.7228,476.2655 1333.5661,476.2655 Q1334.0849,476.2655 1334.561,476.3753 Q1335.037,476.4852 1335.4521,476.7049 L1335.4521,478.7069 Q1334.9882,478.2796 1334.5518,478.0813 Q1334.1154,477.8829 1333.6515,477.8829 Q1332.6628,477.8829 1332.1592,478.6672 Q1331.6557,479.4515 1331.6557,480.9957 Q1331.6557,482.5338 1332.1592,483.3181 Q1332.6628,484.1024 1333.6515,484.1024 Q1334.1154,484.1024 1334.5518,483.904 Q1334.9882,483.7056 1335.4521,483.2784 Z " fill="#000000"/><text fill="#D8BC00" font-family="Open Sans,Avenir,Nunito,Arial,Helvetica,SansSerif" font-size="12.5" font-weight="bold" lengthAdjust="spacing" textLength="151.0417" x="1356.0417" y="485.5794">StopRoutingInstruction</text><line style="stroke:#5E5E5E;stroke-width:1.5625;" x1="1293.75" x2="1538.5417" y1="496.5495" y2="496.5495"/><ellipse cx="1304.1667" cy="531.9194" fill="#84BE84" rx="3.125" ry="3.125" style="stroke:#038048;stroke-width:1.0416666666666667;"/><text fill="#D8BC00" font-family="Open Sans,Avenir,Nunito,Arial,Helvetica,SansSerif" font-size="11.4583" lengthAdjust="spacing" textLength="214.5833" x="1315.625" y="538.8306">StopRoutingInstruction(String, Object)</text><line style="stroke:#5E5E5E;stroke-width:1.0416666666666667;" x1="1293.75" x2="1372.3958" y1="514.7552" y2="514.7552"/><text fill="#D8BC00" font-family="Open Sans,Avenir,Nunito,Arial,Helvetica,SansSerif" font-size="11.4583" lengthAdjust="spacing" textLength="81.25" x="1375.5208" y="518.5649">(constructors)</text><line style="stroke:#5E5E5E;stroke-width:1.0416666666666667;" x1="1459.8958" x2="1538.5417" y1="514.7552" y2="514.7552"/><path codeLine="9" d="M1099.4792,209.7653 C1099.4792,282.9424 1099.4792,402.734 1099.4792,465.1299 " fill="none" id="Router-backto-BaseRouter" style="stroke:#545454;stroke-width:1.5625;"/><polygon fill="none" points="1092.1875,209.5049,1099.4792,188.6715,1106.7708,209.5049,1092.1875,209.5049" style="stroke:#545454;stroke-width:1.5625;"/><path codeLine="101" d="M1416.1458,245.7861 C1416.1458,317.682 1416.1458,411.7236 1416.1458,464.7549 " fill="none" id="RoutingInstruction-backto-StopRoutingInstruction" style="stroke:#545454;stroke-width:1.5625;"/><polygon fill="none" points="1408.8542,245.5674,1416.1458,224.734,1423.4375,245.5674,1408.8542,245.5674" style="stroke:#545454;stroke-width:1.5625;"/></g></svg>
