<?xml version="1.0" encoding="UTF-8" standalone="no"?><svg xmlns="http://www.w3.org/2000/svg" xmlns:xlink="http://www.w3.org/1999/xlink" contentScriptType="application/ecmascript" contentStyleType="text/css" height="587.5px" preserveAspectRatio="none" style="width:1493px;height:587px;background:#333333;" version="1.1" viewBox="0 0 1493 587" width="1493.75px" zoomAndPan="magnify"><defs/><g><rect fill="#48494B" height="41.2028" rx="8.3333" ry="8.3333" style="stroke:#545454;stroke-width:1.0416666666666667;" width="788.5417" x="345.3125" y="2.0833"/><text fill="#C0C0C0" font-family="Open Sans,Avenir,Nunito,Arial,Helvetica,SansSerif" font-size="20.8333" lengthAdjust="spacing" textLength="765.625" x="356.7708" y="30.5583">com.telenav.mesakit.tools.applications.pbf.graph.world.extractor.conversion</text><polygon fill="#333333" points="1210.4167,52.6611,1334.375,52.6611,1341.6667,79.8828,1476.0417,79.8828,1476.0417,431.8278,1210.4167,431.8278,1210.4167,52.6611" style="stroke:#333333;stroke-width:2.0833333333333335;"/><line style="stroke:#333333;stroke-width:2.0833333333333335;" x1="1210.4167" x2="1341.6667" y1="79.8828" y2="79.8828"/><text fill="#C8AC00" font-family="Open Sans,Avenir,Nunito,Arial,Helvetica,SansSerif" font-size="12.5" font-weight="bold" lengthAdjust="spacing" textLength="111.4583" x="1217.7083" y="69.9544">WorldConversion</text><rect codeLine="19" fill="#282828" height="304.7384" id="WorldConversion.Statistics" rx="8.3333" ry="8.3333" style="stroke:#5E5E5E;stroke-width:1.0416666666666667;" width="194.7917" x="1255.7292" y="101.6195"/><rect fill="#1B1B1A" height="31.3883" rx="8.3333" ry="8.3333" style="stroke:#1B1B1A;stroke-width:1.0416666666666667;" width="194.7917" x="1255.7292" y="101.6195"/><rect fill="#1B1B1A" height="8.3333" style="stroke:#1B1B1A;stroke-width:1.0416666666666667;" width="194.7917" x="1255.7292" y="124.6745"/><rect codeLine="19" fill="none" height="304.7384" id="WorldConversion.Statistics" rx="8.3333" ry="8.3333" style="stroke:#5E5E5E;stroke-width:1.0416666666666667;" width="194.7917" x="1255.7292" y="101.6195"/><ellipse cx="1316.1458" cy="117.3136" fill="#0066CF" rx="10.4167" ry="10.4167" style="stroke:#0086EF;stroke-width:1.0416666666666667;"/><path d="M1318.0562,121.7387 Q1317.629,121.9584 1317.159,122.0683 Q1316.689,122.1781 1316.1702,122.1781 Q1314.327,122.1781 1313.3565,120.9635 Q1312.3861,119.7489 1312.3861,117.454 Q1312.3861,115.153 1313.3565,113.9384 Q1314.327,112.7238 1316.1702,112.7238 Q1316.689,112.7238 1317.1651,112.8337 Q1317.6412,112.9435 1318.0562,113.1632 L1318.0562,115.1652 Q1317.5924,114.738 1317.156,114.5396 Q1316.7196,114.3412 1316.2557,114.3412 Q1315.2669,114.3412 1314.7634,115.1255 Q1314.2598,115.9098 1314.2598,117.454 Q1314.2598,118.9921 1314.7634,119.7764 Q1315.2669,120.5607 1316.2557,120.5607 Q1316.7196,120.5607 1317.156,120.3623 Q1317.5924,120.164 1318.0562,119.7367 Z " fill="#000000"/><text fill="#D8BC00" font-family="Open Sans,Avenir,Nunito,Arial,Helvetica,SansSerif" font-size="12.5" font-weight="bold" lengthAdjust="spacing" textLength="59.375" x="1339.0625" y="122.0378">Statistics</text><line style="stroke:#5E5E5E;stroke-width:1.5625;" x1="1256.7708" x2="1449.4792" y1="133.0078" y2="133.0078"/><ellipse cx="1267.1875" cy="168.3777" fill="#84BE84" rx="3.125" ry="3.125" style="stroke:#038048;stroke-width:1.0416666666666667;"/><text fill="#D8BC00" font-family="Open Sans,Avenir,Nunito,Arial,Helvetica,SansSerif" font-size="11.4583" lengthAdjust="spacing" textLength="102.0833" x="1278.6458" y="175.2889">Count attempted()</text><ellipse cx="1267.1875" cy="188.1226" fill="#84BE84" rx="3.125" ry="3.125" style="stroke:#038048;stroke-width:1.0416666666666667;"/><text fill="#D8BC00" font-family="Open Sans,Avenir,Nunito,Arial,Helvetica,SansSerif" font-size="11.4583" lengthAdjust="spacing" textLength="104.1667" x="1278.6458" y="195.0338">Count completed()</text><ellipse cx="1267.1875" cy="207.8674" fill="#84BE84" rx="3.125" ry="3.125" style="stroke:#038048;stroke-width:1.0416666666666667;"/><text fill="#D8BC00" font-family="Open Sans,Avenir,Nunito,Arial,Helvetica,SansSerif" font-size="11.4583" lengthAdjust="spacing" textLength="123.9583" x="1278.6458" y="214.7786">Count edgeRelations()</text><ellipse cx="1267.1875" cy="227.6123" fill="#84BE84" rx="3.125" ry="3.125" style="stroke:#038048;stroke-width:1.0416666666666667;"/><text fill="#D8BC00" font-family="Open Sans,Avenir,Nunito,Arial,Helvetica,SansSerif" font-size="11.4583" lengthAdjust="spacing" textLength="79.1667" x="1278.6458" y="234.5235">Count edges()</text><ellipse cx="1267.1875" cy="247.3572" fill="#84BE84" rx="3.125" ry="3.125" style="stroke:#038048;stroke-width:1.0416666666666667;"/><text fill="#D8BC00" font-family="Open Sans,Avenir,Nunito,Arial,Helvetica,SansSerif" font-size="11.4583" lengthAdjust="spacing" textLength="76.0417" x="1278.6458" y="254.2684">Count failed()</text><ellipse cx="1267.1875" cy="267.1021" fill="#84BE84" rx="3.125" ry="3.125" style="stroke:#038048;stroke-width:1.0416666666666667;"/><text fill="#D8BC00" font-family="Open Sans,Avenir,Nunito,Arial,Helvetica,SansSerif" font-size="11.4583" lengthAdjust="spacing" textLength="122.9167" x="1278.6458" y="274.0133">Count forwardEdges()</text><ellipse cx="1267.1875" cy="286.8469" fill="#84BE84" rx="3.125" ry="3.125" style="stroke:#038048;stroke-width:1.0416666666666667;"/><text fill="#D8BC00" font-family="Open Sans,Avenir,Nunito,Arial,Helvetica,SansSerif" font-size="11.4583" lengthAdjust="spacing" textLength="81.25" x="1278.6458" y="293.7581">Count places()</text><ellipse cx="1267.1875" cy="306.5918" fill="#84BE84" rx="3.125" ry="3.125" style="stroke:#038048;stroke-width:1.0416666666666667;"/><text fill="#D8BC00" font-family="Open Sans,Avenir,Nunito,Arial,Helvetica,SansSerif" font-size="11.4583" lengthAdjust="spacing" textLength="105.2083" x="1278.6458" y="313.503">Count succeeded()</text><ellipse cx="1267.1875" cy="326.3367" fill="#84BE84" rx="3.125" ry="3.125" style="stroke:#038048;stroke-width:1.0416666666666667;"/><text fill="#D8BC00" font-family="Open Sans,Avenir,Nunito,Arial,Helvetica,SansSerif" font-size="11.4583" lengthAdjust="spacing" textLength="87.5" x="1278.6458" y="333.2479">Bytes totalSize()</text><ellipse cx="1267.1875" cy="346.0815" fill="#84BE84" rx="3.125" ry="3.125" style="stroke:#038048;stroke-width:1.0416666666666667;"/><text fill="#D8BC00" font-family="Open Sans,Avenir,Nunito,Arial,Helvetica,SansSerif" font-size="11.4583" lengthAdjust="spacing" textLength="93.75" x="1278.6458" y="352.9928">Count vertexes()</text><line style="stroke:#5E5E5E;stroke-width:1.0416666666666667;" x1="1256.7708" x2="1318.75" y1="151.2136" y2="151.2136"/><text fill="#D8BC00" font-family="Open Sans,Avenir,Nunito,Arial,Helvetica,SansSerif" font-size="11.4583" lengthAdjust="spacing" textLength="62.5" x="1321.875" y="155.0232">(collection)</text><line style="stroke:#5E5E5E;stroke-width:1.0416666666666667;" x1="1387.5" x2="1449.4792" y1="151.2136" y2="151.2136"/><ellipse cx="1267.1875" cy="389.738" fill="#84BE84" rx="3.125" ry="3.125" style="stroke:#038048;stroke-width:1.0416666666666667;"/><text fill="#D8BC00" font-family="Open Sans,Avenir,Nunito,Arial,Helvetica,SansSerif" font-size="11.4583" lengthAdjust="spacing" textLength="162.5" x="1278.6458" y="396.6492">Metadata metadata(Metadata)</text><line style="stroke:#5E5E5E;stroke-width:1.0416666666666667;" x1="1256.7708" x2="1320.3125" y1="372.5739" y2="372.5739"/><text fill="#D8BC00" font-family="Open Sans,Avenir,Nunito,Arial,Helvetica,SansSerif" font-size="11.4583" lengthAdjust="spacing" textLength="59.375" x="1323.4375" y="376.3835">(metadata)</text><line style="stroke:#5E5E5E;stroke-width:1.0416666666666667;" x1="1385.9375" x2="1449.4792" y1="372.5739" y2="372.5739"/><rect codeLine="7" fill="#282828" height="48.055" id="BaseComponent" rx="8.3333" ry="8.3333" style="stroke:#5E5E5E;stroke-width:1.0416666666666667;" width="143.75" x="371.875" y="230.2653"/><rect fill="#1B1B1A" height="31.3883" rx="8.3333" ry="8.3333" style="stroke:#1B1B1A;stroke-width:1.0416666666666667;" width="143.75" x="371.875" y="230.2653"/><rect fill="#1B1B1A" height="8.3333" style="stroke:#1B1B1A;stroke-width:1.0416666666666667;" width="143.75" x="371.875" y="253.3203"/><rect codeLine="7" fill="none" height="48.055" id="BaseComponent" rx="8.3333" ry="8.3333" style="stroke:#5E5E5E;stroke-width:1.0416666666666667;" width="143.75" x="371.875" y="230.2653"/><ellipse cx="386.4583" cy="245.9595" fill="#C8AC00" rx="10.4167" ry="10.4167" style="stroke:#D8BC00;stroke-width:1.0416666666666667;"/><path d="M386.0514,242.6615 L385.203,246.3908 L386.9059,246.3908 Z M384.9528,241.0136 L387.1562,241.0136 L389.6159,250.1261 L387.8153,250.1261 L387.2538,247.8739 L384.8429,247.8739 L384.2936,250.1261 L382.4931,250.1261 Z " fill="#000000"/><text fill="#D8BC00" font-family="Open Sans,Avenir,Nunito,Arial,Helvetica,SansSerif" font-size="12.5" font-style="italic" font-weight="bold" lengthAdjust="spacing" textLength="106.25" x="403.125" y="250.6836">BaseComponent</text><line style="stroke:#5E5E5E;stroke-width:1.0416666666666667;" x1="372.9167" x2="514.5833" y1="261.6536" y2="261.6536"/><line style="stroke:#5E5E5E;stroke-width:1.0416666666666667;" x1="372.9167" x2="514.5833" y1="269.987" y2="269.987"/><rect codeLine="8" fill="#282828" height="48.055" id="BaseRepeater" rx="8.3333" ry="8.3333" style="stroke:#5E5E5E;stroke-width:1.0416666666666667;" width="123.9583" x="1057.8125" y="230.2653"/><rect fill="#1B1B1A" height="31.3883" rx="8.3333" ry="8.3333" style="stroke:#1B1B1A;stroke-width:1.0416666666666667;" width="123.9583" x="1057.8125" y="230.2653"/><rect fill="#1B1B1A" height="8.3333" style="stroke:#1B1B1A;stroke-width:1.0416666666666667;" width="123.9583" x="1057.8125" y="253.3203"/><rect codeLine="8" fill="none" height="48.055" id="BaseRepeater" rx="8.3333" ry="8.3333" style="stroke:#5E5E5E;stroke-width:1.0416666666666667;" width="123.9583" x="1057.8125" y="230.2653"/><ellipse cx="1072.3958" cy="245.9595" fill="#C8AC00" rx="10.4167" ry="10.4167" style="stroke:#D8BC00;stroke-width:1.0416666666666667;"/><path d="M1071.9889,242.6615 L1071.1405,246.3908 L1072.8434,246.3908 Z M1070.8903,241.0136 L1073.0937,241.0136 L1075.5534,250.1261 L1073.7528,250.1261 L1073.1913,247.8739 L1070.7804,247.8739 L1070.2311,250.1261 L1068.4306,250.1261 Z " fill="#000000"/><text fill="#D8BC00" font-family="Open Sans,Avenir,Nunito,Arial,Helvetica,SansSerif" font-size="12.5" font-style="italic" font-weight="bold" lengthAdjust="spacing" textLength="86.4583" x="1089.0625" y="250.6836">BaseRepeater</text><line style="stroke:#5E5E5E;stroke-width:1.0416666666666667;" x1="1058.8542" x2="1180.7292" y1="261.6536" y2="261.6536"/><line style="stroke:#5E5E5E;stroke-width:1.0416666666666667;" x1="1058.8542" x2="1180.7292" y1="269.987" y2="269.987"/><rect codeLine="11" fill="#282828" height="111.4563" id="Conversion" rx="8.3333" ry="8.3333" style="stroke:#5E5E5E;stroke-width:1.0416666666666667;" width="406.25" x="916.6667" y="469.3278"/><rect fill="#1B1B1A" height="31.3883" rx="8.3333" ry="8.3333" style="stroke:#1B1B1A;stroke-width:1.0416666666666667;" width="406.25" x="916.6667" y="469.3278"/><rect fill="#1B1B1A" height="8.3333" style="stroke:#1B1B1A;stroke-width:1.0416666666666667;" width="406.25" x="916.6667" y="492.3828"/><rect codeLine="11" fill="none" height="111.4563" id="Conversion" rx="8.3333" ry="8.3333" style="stroke:#5E5E5E;stroke-width:1.0416666666666667;" width="406.25" x="916.6667" y="469.3278"/><ellipse cx="1075.5208" cy="485.022" fill="#0066CF" rx="10.4167" ry="10.4167" style="stroke:#0086EF;stroke-width:1.0416666666666667;"/><path d="M1077.4312,489.447 Q1077.004,489.6667 1076.534,489.7766 Q1076.064,489.8865 1075.5452,489.8865 Q1073.702,489.8865 1072.7315,488.6719 Q1071.7611,487.4573 1071.7611,485.1624 Q1071.7611,482.8613 1072.7315,481.6467 Q1073.702,480.4321 1075.5452,480.4321 Q1076.064,480.4321 1076.5401,480.542 Q1077.0162,480.6519 1077.4312,480.8716 L1077.4312,482.8735 Q1076.9674,482.4463 1076.531,482.2479 Q1076.0946,482.0496 1075.6307,482.0496 Q1074.6419,482.0496 1074.1384,482.8339 Q1073.6348,483.6182 1073.6348,485.1624 Q1073.6348,486.7004 1074.1384,487.4847 Q1074.6419,488.269 1075.6307,488.269 Q1076.0946,488.269 1076.531,488.0707 Q1076.9674,487.8723 1077.4312,487.4451 Z " fill="#000000"/><text fill="#D8BC00" font-family="Open Sans,Avenir,Nunito,Arial,Helvetica,SansSerif" font-size="12.5" font-weight="bold" lengthAdjust="spacing" textLength="73.9583" x="1098.4375" y="489.7461">Conversion</text><line style="stroke:#5E5E5E;stroke-width:1.5625;" x1="917.7083" x2="1321.875" y1="500.7161" y2="500.7161"/><ellipse cx="928.125" cy="536.086" fill="#84BE84" rx="3.125" ry="3.125" style="stroke:#038048;stroke-width:1.0416666666666667;"/><text fill="#D8BC00" font-family="Open Sans,Avenir,Nunito,Arial,Helvetica,SansSerif" font-size="11.4583" lengthAdjust="spacing" textLength="373.9583" x="939.5833" y="542.9972">Conversion(PbfWorldGraphExtractorApplication, Folder, WorldCell)</text><line style="stroke:#5E5E5E;stroke-width:1.0416666666666667;" x1="917.7083" x2="1076.0417" y1="518.9219" y2="518.9219"/><text fill="#D8BC00" font-family="Open Sans,Avenir,Nunito,Arial,Helvetica,SansSerif" font-size="11.4583" lengthAdjust="spacing" textLength="81.25" x="1079.1667" y="522.7315">(constructors)</text><line style="stroke:#5E5E5E;stroke-width:1.0416666666666667;" x1="1163.5417" x2="1321.875" y1="518.9219" y2="518.9219"/><line style="stroke:#5E5E5E;stroke-width:1.0416666666666667;" x1="917.7083" x2="1321.875" y1="552.7059" y2="552.7059"/><ellipse cx="928.125" cy="564.1642" fill="#84BE84" rx="3.125" ry="3.125" style="stroke:#038048;stroke-width:1.0416666666666667;"/><text fill="#D8BC00" font-family="Open Sans,Avenir,Nunito,Arial,Helvetica,SansSerif" font-size="11.4583" lengthAdjust="spacing" textLength="195.8333" x="939.5833" y="571.0754">Graph convert(File input, Metadata)</text><rect codeLine="37" fill="#282828" height="83.3781" id="WorldConversion" rx="8.3333" ry="8.3333" style="stroke:#5E5E5E;stroke-width:1.0416666666666667;" width="872.9167" x="7.2917" y="483.3903"/><rect fill="#1B1B1A" height="31.3883" rx="8.3333" ry="8.3333" style="stroke:#1B1B1A;stroke-width:1.0416666666666667;" width="872.9167" x="7.2917" y="483.3903"/><rect fill="#1B1B1A" height="8.3333" style="stroke:#1B1B1A;stroke-width:1.0416666666666667;" width="872.9167" x="7.2917" y="506.4453"/><rect codeLine="37" fill="none" height="83.3781" id="WorldConversion" rx="8.3333" ry="8.3333" style="stroke:#5E5E5E;stroke-width:1.0416666666666667;" width="872.9167" x="7.2917" y="483.3903"/><ellipse cx="380.7292" cy="499.0845" fill="#0066CF" rx="10.4167" ry="10.4167" style="stroke:#0086EF;stroke-width:1.0416666666666667;"/><path d="M382.6396,503.5095 Q382.2123,503.7292 381.7424,503.8391 Q381.2724,503.949 380.7536,503.949 Q378.9103,503.949 377.9399,502.7344 Q376.9694,501.5198 376.9694,499.2249 Q376.9694,496.9238 377.9399,495.7092 Q378.9103,494.4946 380.7536,494.4946 Q381.2724,494.4946 381.7485,494.6045 Q382.2245,494.7144 382.6396,494.9341 L382.6396,496.936 Q382.1757,496.5088 381.7393,496.3104 Q381.3029,496.1121 380.839,496.1121 Q379.8503,496.1121 379.3467,496.8964 Q378.8432,497.6807 378.8432,499.2249 Q378.8432,500.7629 379.3467,501.5472 Q379.8503,502.3315 380.839,502.3315 Q381.3029,502.3315 381.7393,502.1332 Q382.1757,501.9348 382.6396,501.5076 Z " fill="#000000"/><text fill="#D8BC00" font-family="Open Sans,Avenir,Nunito,Arial,Helvetica,SansSerif" font-size="12.5" font-weight="bold" lengthAdjust="spacing" textLength="111.4583" x="403.6458" y="503.8086">WorldConversion</text><line style="stroke:#5E5E5E;stroke-width:1.5625;" x1="8.3333" x2="879.1667" y1="514.7786" y2="514.7786"/><ellipse cx="18.75" cy="550.1485" fill="#84BE84" rx="3.125" ry="3.125" style="stroke:#038048;stroke-width:1.0416666666666667;"/><text fill="#D8BC00" font-family="Open Sans,Avenir,Nunito,Arial,Helvetica,SansSerif" font-size="11.4583" lengthAdjust="spacing" textLength="840.625" x="30.2083" y="557.0597">Statistics convert(PbfWorldGraphExtractorApplication, WorldGrid, CommandLine, Metadata, WorldGraphRepositoryFolder outputFolder, Count threads)</text><line style="stroke:#5E5E5E;stroke-width:1.0416666666666667;" x1="8.3333" x2="374.4792" y1="532.9844" y2="532.9844"/><text fill="#D8BC00" font-family="Open Sans,Avenir,Nunito,Arial,Helvetica,SansSerif" font-size="11.4583" lengthAdjust="spacing" textLength="132.2917" x="377.6042" y="536.794">(command line parsing)</text><line style="stroke:#5E5E5E;stroke-width:1.0416666666666667;" x1="513.0208" x2="879.1667" y1="532.9844" y2="532.9844"/><path codeLine="10" d="M1119.7917,299.7028 C1119.7917,346.1924 1119.7917,419.2653 1119.7917,469.2861 " fill="none" id="BaseRepeater-backto-Conversion" style="stroke:#545454;stroke-width:1.5625;"/><polygon fill="none" points="1112.5,299.4736,1119.7917,278.6403,1127.0833,299.4736,1112.5,299.4736" style="stroke:#545454;stroke-width:1.5625;"/><path codeLine="36" d="M443.75,299.5882 C443.75,350.5986 443.75,433.6924 443.75,483.182 " fill="none" id="BaseComponent-backto-WorldConversion" style="stroke:#545454;stroke-width:1.5625;"/><polygon fill="none" points="436.4583,299.4736,443.75,278.6403,451.0417,299.4736,436.4583,299.4736" style="stroke:#545454;stroke-width:1.5625;"/></g></svg>
