<?xml version="1.0" encoding="UTF-8" standalone="no"?><svg xmlns="http://www.w3.org/2000/svg" xmlns:xlink="http://www.w3.org/1999/xlink" contentScriptType="application/ecmascript" contentStyleType="text/css" height="480.2083px" preserveAspectRatio="none" style="width:1690px;height:480px;background:#333333;" version="1.1" viewBox="0 0 1690 480" width="1690.625px" zoomAndPan="magnify"><defs/><g><rect fill="#48494B" height="41.2028" rx="8.3333" ry="8.3333" style="stroke:#545454;stroke-width:1.0416666666666667;" width="570.8333" x="552.8646" y="2.0833"/><text fill="#C0C0C0" font-family="Open Sans,Avenir,Nunito,Arial,Helvetica,SansSerif" font-size="20.8333" lengthAdjust="spacing" textLength="547.9167" x="564.3229" y="30.5583">com.telenav.mesakit.map.geography.indexing.polygon</text><rect codeLine="7" fill="#282828" height="48.055" id="Bounded" rx="8.3333" ry="8.3333" style="stroke:#5E5E5E;stroke-width:1.0416666666666667;" width="94.7917" x="709.8958" y="105.2653"/><rect fill="#1B1B1A" height="31.3883" rx="8.3333" ry="8.3333" style="stroke:#1B1B1A;stroke-width:1.0416666666666667;" width="94.7917" x="709.8958" y="105.2653"/><rect fill="#1B1B1A" height="8.3333" style="stroke:#1B1B1A;stroke-width:1.0416666666666667;" width="94.7917" x="709.8958" y="128.3203"/><rect codeLine="7" fill="none" height="48.055" id="Bounded" rx="8.3333" ry="8.3333" style="stroke:#5E5E5E;stroke-width:1.0416666666666667;" width="94.7917" x="709.8958" y="105.2653"/><ellipse cx="724.4792" cy="120.9595" fill="#008400" rx="10.4167" ry="10.4167" style="stroke:#239C23;stroke-width:1.0416666666666667;"/><path d="M721.8831,118.1213 L721.8831,116.5344 L727.3092,116.5344 L727.3092,118.1213 L725.4964,118.1213 L725.4964,124.0601 L727.3092,124.0601 L727.3092,125.647 L721.8831,125.647 L721.8831,124.0601 L723.6959,124.0601 L723.6959,118.1213 Z " fill="#000000"/><text fill="#D8BC00" font-family="Open Sans,Avenir,Nunito,Arial,Helvetica,SansSerif" font-size="12.5" font-style="italic" font-weight="bold" lengthAdjust="spacing" textLength="57.2917" x="741.1458" y="125.6836">Bounded</text><line style="stroke:#5E5E5E;stroke-width:1.0416666666666667;" x1="710.9375" x2="803.6458" y1="136.6536" y2="136.6536"/><line style="stroke:#5E5E5E;stroke-width:1.0416666666666667;" x1="710.9375" x2="803.6458" y1="144.987" y2="144.987"/><rect codeLine="8" fill="#282828" height="48.055" id="Outline" rx="8.3333" ry="8.3333" style="stroke:#5E5E5E;stroke-width:1.0416666666666667;" width="85.4167" x="841.6667" y="105.2653"/><rect fill="#1B1B1A" height="31.3883" rx="8.3333" ry="8.3333" style="stroke:#1B1B1A;stroke-width:1.0416666666666667;" width="85.4167" x="841.6667" y="105.2653"/><rect fill="#1B1B1A" height="8.3333" style="stroke:#1B1B1A;stroke-width:1.0416666666666667;" width="85.4167" x="841.6667" y="128.3203"/><rect codeLine="8" fill="none" height="48.055" id="Outline" rx="8.3333" ry="8.3333" style="stroke:#5E5E5E;stroke-width:1.0416666666666667;" width="85.4167" x="841.6667" y="105.2653"/><ellipse cx="856.25" cy="120.9595" fill="#008400" rx="10.4167" ry="10.4167" style="stroke:#239C23;stroke-width:1.0416666666666667;"/><path d="M853.654,118.1213 L853.654,116.5344 L859.08,116.5344 L859.08,118.1213 L857.2673,118.1213 L857.2673,124.0601 L859.08,124.0601 L859.08,125.647 L853.654,125.647 L853.654,124.0601 L855.4667,124.0601 L855.4667,118.1213 Z " fill="#000000"/><text fill="#D8BC00" font-family="Open Sans,Avenir,Nunito,Arial,Helvetica,SansSerif" font-size="12.5" font-style="italic" font-weight="bold" lengthAdjust="spacing" textLength="47.9167" x="872.9167" y="125.6836">Outline</text><line style="stroke:#5E5E5E;stroke-width:1.0416666666666667;" x1="842.7083" x2="926.0417" y1="136.6536" y2="136.6536"/><line style="stroke:#5E5E5E;stroke-width:1.0416666666666667;" x1="842.7083" x2="926.0417" y1="144.987" y2="144.987"/><rect codeLine="9" fill="#282828" height="48.055" id="Intersectable" rx="8.3333" ry="8.3333" style="stroke:#5E5E5E;stroke-width:1.0416666666666667;" width="120.8333" x="963.5417" y="105.2653"/><rect fill="#1B1B1A" height="31.3883" rx="8.3333" ry="8.3333" style="stroke:#1B1B1A;stroke-width:1.0416666666666667;" width="120.8333" x="963.5417" y="105.2653"/><rect fill="#1B1B1A" height="8.3333" style="stroke:#1B1B1A;stroke-width:1.0416666666666667;" width="120.8333" x="963.5417" y="128.3203"/><rect codeLine="9" fill="none" height="48.055" id="Intersectable" rx="8.3333" ry="8.3333" style="stroke:#5E5E5E;stroke-width:1.0416666666666667;" width="120.8333" x="963.5417" y="105.2653"/><ellipse cx="978.125" cy="120.9595" fill="#008400" rx="10.4167" ry="10.4167" style="stroke:#239C23;stroke-width:1.0416666666666667;"/><path d="M975.529,118.1213 L975.529,116.5344 L980.955,116.5344 L980.955,118.1213 L979.1423,118.1213 L979.1423,124.0601 L980.955,124.0601 L980.955,125.647 L975.529,125.647 L975.529,124.0601 L977.3417,124.0601 L977.3417,118.1213 Z " fill="#000000"/><text fill="#D8BC00" font-family="Open Sans,Avenir,Nunito,Arial,Helvetica,SansSerif" font-size="12.5" font-style="italic" font-weight="bold" lengthAdjust="spacing" textLength="83.3333" x="994.7917" y="125.6836">Intersectable</text><line style="stroke:#5E5E5E;stroke-width:1.0416666666666667;" x1="964.5833" x2="1083.3333" y1="136.6536" y2="136.6536"/><line style="stroke:#5E5E5E;stroke-width:1.0416666666666667;" x1="964.5833" x2="1083.3333" y1="144.987" y2="144.987"/><rect codeLine="65" fill="#282828" height="131.2012" id="Quadrant" rx="8.3333" ry="8.3333" style="stroke:#5E5E5E;stroke-width:1.0416666666666667;" width="377.0833" x="1188.5417" y="63.5986"/><rect fill="#1B1B1A" height="31.3883" rx="8.3333" ry="8.3333" style="stroke:#1B1B1A;stroke-width:1.0416666666666667;" width="377.0833" x="1188.5417" y="63.5986"/><rect fill="#1B1B1A" height="8.3333" style="stroke:#1B1B1A;stroke-width:1.0416666666666667;" width="377.0833" x="1188.5417" y="86.6536"/><rect codeLine="65" fill="none" height="131.2012" id="Quadrant" rx="8.3333" ry="8.3333" style="stroke:#5E5E5E;stroke-width:1.0416666666666667;" width="377.0833" x="1188.5417" y="63.5986"/><ellipse cx="1339.5833" cy="79.2928" fill="#C8AC00" rx="10.4167" ry="10.4167" style="stroke:#D8BC00;stroke-width:1.0416666666666667;"/><path d="M1339.1764,75.9949 L1338.328,79.7241 L1340.0309,79.7241 Z M1338.0778,74.3469 L1340.2812,74.3469 L1342.7409,83.4595 L1340.9403,83.4595 L1340.3788,81.2073 L1337.9679,81.2073 L1337.4186,83.4595 L1335.6181,83.4595 Z " fill="#000000"/><text fill="#D8BC00" font-family="Open Sans,Avenir,Nunito,Arial,Helvetica,SansSerif" font-size="12.5" font-style="italic" font-weight="bold" lengthAdjust="spacing" textLength="60.4167" x="1362.5" y="84.0169">Quadrant</text><line style="stroke:#5E5E5E;stroke-width:1.5625;" x1="1189.5833" x2="1564.5833" y1="94.987" y2="94.987"/><line style="stroke:#5E5E5E;stroke-width:1.0416666666666667;" x1="1189.5833" x2="1564.5833" y1="103.3203" y2="103.3203"/><ellipse cx="1200" cy="114.7786" fill="#84BE84" rx="3.125" ry="3.125" style="stroke:#038048;stroke-width:1.0416666666666667;"/><text fill="#D8BC00" font-family="Open Sans,Avenir,Nunito,Arial,Helvetica,SansSerif" font-size="11.4583" lengthAdjust="spacing" textLength="344.7917" x="1211.4583" y="121.6899">void debug(PolygonSpatialIndexDebugger, Rectangle bounds)</text><polygon fill="#FFFF44" points="1200,129.3152,1204.1667,133.4819,1200,137.6485,1195.8333,133.4819" style="stroke:#B38D22;stroke-width:1.0416666666666667;"/><text fill="#D8BC00" font-family="Open Sans,Avenir,Nunito,Arial,Helvetica,SansSerif" font-size="11.4583" lengthAdjust="spacing" textLength="201.0417" x="1211.4583" y="141.4347">void visit(Visitor, Rectangle bounds)</text><ellipse cx="1200" cy="178.1799" fill="#84BE84" rx="3.125" ry="3.125" style="stroke:#038048;stroke-width:1.0416666666666667;"/><text fill="#D8BC00" font-family="Open Sans,Avenir,Nunito,Arial,Helvetica,SansSerif" font-size="11.4583" lengthAdjust="spacing" textLength="285.4167" x="1211.4583" y="185.0911">Containment contains(Location, Rectangle bounds)</text><line style="stroke:#5E5E5E;stroke-width:1.0416666666666667;" x1="1189.5833" x2="1342.7083" y1="161.0158" y2="161.0158"/><text fill="#D8BC00" font-family="Open Sans,Avenir,Nunito,Arial,Helvetica,SansSerif" font-size="11.4583" lengthAdjust="spacing" textLength="62.5" x="1345.8333" y="164.8254">(collection)</text><line style="stroke:#5E5E5E;stroke-width:1.0416666666666667;" x1="1411.4583" x2="1564.5833" y1="161.0158" y2="161.0158"/><rect codeLine="12" fill="#282828" height="150.946" id="Leaf" rx="8.3333" ry="8.3333" style="stroke:#5E5E5E;stroke-width:1.0416666666666667;" width="219.7917" x="1161.9792" y="294.8486"/><rect fill="#1B1B1A" height="31.3883" rx="8.3333" ry="8.3333" style="stroke:#1B1B1A;stroke-width:1.0416666666666667;" width="219.7917" x="1161.9792" y="294.8486"/><rect fill="#1B1B1A" height="8.3333" style="stroke:#1B1B1A;stroke-width:1.0416666666666667;" width="219.7917" x="1161.9792" y="317.9036"/><rect codeLine="12" fill="none" height="150.946" id="Leaf" rx="8.3333" ry="8.3333" style="stroke:#5E5E5E;stroke-width:1.0416666666666667;" width="219.7917" x="1161.9792" y="294.8486"/><ellipse cx="1251.0417" cy="310.5428" fill="#0066CF" rx="10.4167" ry="10.4167" style="stroke:#0086EF;stroke-width:1.0416666666666667;"/><path d="M1252.9521,314.9679 Q1252.5248,315.1876 1252.0549,315.2974 Q1251.5849,315.4073 1251.0661,315.4073 Q1249.2228,315.4073 1248.2524,314.1927 Q1247.2819,312.9781 1247.2819,310.6832 Q1247.2819,308.3822 1248.2524,307.1676 Q1249.2228,305.953 1251.0661,305.953 Q1251.5849,305.953 1252.061,306.0628 Q1252.537,306.1727 1252.9521,306.3924 L1252.9521,308.3944 Q1252.4882,307.9671 1252.0518,307.7688 Q1251.6154,307.5704 1251.1515,307.5704 Q1250.1628,307.5704 1249.6592,308.3547 Q1249.1557,309.139 1249.1557,310.6832 Q1249.1557,312.2213 1249.6592,313.0056 Q1250.1628,313.7899 1251.1515,313.7899 Q1251.6154,313.7899 1252.0518,313.5915 Q1252.4882,313.3931 1252.9521,312.9659 Z " fill="#000000"/><text fill="#D8BC00" font-family="Open Sans,Avenir,Nunito,Arial,Helvetica,SansSerif" font-size="12.5" font-weight="bold" lengthAdjust="spacing" textLength="27.0833" x="1273.9583" y="315.2669">Leaf</text><line style="stroke:#5E5E5E;stroke-width:1.5625;" x1="1163.0208" x2="1380.7292" y1="326.237" y2="326.237"/><ellipse cx="1173.4375" cy="361.6069" fill="#84BE84" rx="3.125" ry="3.125" style="stroke:#038048;stroke-width:1.0416666666666667;"/><text fill="#D8BC00" font-family="Open Sans,Avenir,Nunito,Arial,Helvetica,SansSerif" font-size="11.4583" lengthAdjust="spacing" textLength="187.5" x="1184.8958" y="368.5181">Leaf(Segment, Segment, Location)</text><line style="stroke:#5E5E5E;stroke-width:1.0416666666666667;" x1="1163.0208" x2="1228.125" y1="344.4427" y2="344.4427"/><text fill="#D8BC00" font-family="Open Sans,Avenir,Nunito,Arial,Helvetica,SansSerif" font-size="11.4583" lengthAdjust="spacing" textLength="81.25" x="1231.25" y="348.2524">(constructors)</text><line style="stroke:#5E5E5E;stroke-width:1.0416666666666667;" x1="1315.625" x2="1380.7292" y1="344.4427" y2="344.4427"/><line style="stroke:#5E5E5E;stroke-width:1.0416666666666667;" x1="1163.0208" x2="1380.7292" y1="378.2267" y2="378.2267"/><ellipse cx="1173.4375" cy="389.6851" fill="#84BE84" rx="3.125" ry="3.125" style="stroke:#038048;stroke-width:1.0416666666666667;"/><text fill="#D8BC00" font-family="Open Sans,Avenir,Nunito,Arial,Helvetica,SansSerif" font-size="11.4583" lengthAdjust="spacing" textLength="65.625" x="1184.8958" y="396.5963">Segment a()</text><ellipse cx="1173.4375" cy="409.4299" fill="#84BE84" rx="3.125" ry="3.125" style="stroke:#038048;stroke-width:1.0416666666666667;"/><text fill="#D8BC00" font-family="Open Sans,Avenir,Nunito,Arial,Helvetica,SansSerif" font-size="11.4583" lengthAdjust="spacing" textLength="66.6667" x="1184.8958" y="416.3411">Segment b()</text><ellipse cx="1173.4375" cy="429.1748" fill="#84BE84" rx="3.125" ry="3.125" style="stroke:#038048;stroke-width:1.0416666666666667;"/><text fill="#D8BC00" font-family="Open Sans,Avenir,Nunito,Arial,Helvetica,SansSerif" font-size="11.4583" lengthAdjust="spacing" textLength="92.7083" x="1184.8958" y="436.086">Location inside()</text><rect codeLine="22" fill="#282828" height="150.946" id="LocationArray" rx="8.3333" ry="8.3333" style="stroke:#5E5E5E;stroke-width:1.0416666666666667;" width="206.25" x="23.9583" y="53.7028"/><rect fill="#1B1B1A" height="31.3883" rx="8.3333" ry="8.3333" style="stroke:#1B1B1A;stroke-width:1.0416666666666667;" width="206.25" x="23.9583" y="53.7028"/><rect fill="#1B1B1A" height="8.3333" style="stroke:#1B1B1A;stroke-width:1.0416666666666667;" width="206.25" x="23.9583" y="76.7578"/><rect codeLine="22" fill="none" height="150.946" id="LocationArray" rx="8.3333" ry="8.3333" style="stroke:#5E5E5E;stroke-width:1.0416666666666667;" width="206.25" x="23.9583" y="53.7028"/><ellipse cx="75" cy="69.397" fill="#0066CF" rx="10.4167" ry="10.4167" style="stroke:#0086EF;stroke-width:1.0416666666666667;"/><path d="M76.9104,73.822 Q76.4832,74.0417 76.0132,74.1516 Q75.5432,74.2615 75.0244,74.2615 Q73.1812,74.2615 72.2107,73.0469 Q71.2402,71.8323 71.2402,69.5374 Q71.2402,67.2363 72.2107,66.0217 Q73.1812,64.8071 75.0244,64.8071 Q75.5432,64.8071 76.0193,64.917 Q76.4954,65.0269 76.9104,65.2466 L76.9104,67.2485 Q76.4465,66.8213 76.0101,66.6229 Q75.5737,66.4246 75.1099,66.4246 Q74.1211,66.4246 73.6176,67.2089 Q73.114,67.9932 73.114,69.5374 Q73.114,71.0754 73.6176,71.8597 Q74.1211,72.644 75.1099,72.644 Q75.5737,72.644 76.0101,72.4457 Q76.4465,72.2473 76.9104,71.8201 Z " fill="#000000"/><text fill="#D8BC00" font-family="Open Sans,Avenir,Nunito,Arial,Helvetica,SansSerif" font-size="12.5" font-weight="bold" lengthAdjust="spacing" textLength="89.5833" x="97.9167" y="74.1211">LocationArray</text><line style="stroke:#5E5E5E;stroke-width:1.5625;" x1="25" x2="229.1667" y1="85.0911" y2="85.0911"/><polygon fill="#FFFF44" points="35.4167,115.2527,39.5833,119.4194,35.4167,123.586,31.25,119.4194" style="stroke:#B38D22;stroke-width:1.0416666666666667;"/><text fill="#D8BC00" font-family="Open Sans,Avenir,Nunito,Arial,Helvetica,SansSerif" font-size="11.4583" lengthAdjust="spacing" textLength="87.5" x="46.875" y="127.3722">LocationArray()</text><ellipse cx="35.4167" cy="140.2059" fill="#84BE84" rx="3.125" ry="3.125" style="stroke:#038048;stroke-width:1.0416666666666667;"/><text fill="#D8BC00" font-family="Open Sans,Avenir,Nunito,Arial,Helvetica,SansSerif" font-size="11.4583" lengthAdjust="spacing" textLength="173.9583" x="46.875" y="147.1171">LocationArray(String, Estimate)</text><line style="stroke:#5E5E5E;stroke-width:1.0416666666666667;" x1="25" x2="83.3333" y1="103.2969" y2="103.2969"/><text fill="#D8BC00" font-family="Open Sans,Avenir,Nunito,Arial,Helvetica,SansSerif" font-size="11.4583" lengthAdjust="spacing" textLength="81.25" x="86.4583" y="107.1065">(constructors)</text><line style="stroke:#5E5E5E;stroke-width:1.0416666666666667;" x1="170.8333" x2="229.1667" y1="103.2969" y2="103.2969"/><line style="stroke:#5E5E5E;stroke-width:1.0416666666666667;" x1="25" x2="229.1667" y1="156.8258" y2="156.8258"/><ellipse cx="35.4167" cy="168.2841" fill="#84BE84" rx="3.125" ry="3.125" style="stroke:#038048;stroke-width:1.0416666666666667;"/><text fill="#D8BC00" font-family="Open Sans,Avenir,Nunito,Arial,Helvetica,SansSerif" font-size="11.4583" lengthAdjust="spacing" textLength="126.0417" x="46.875" y="175.1953">Location get(int index)</text><ellipse cx="35.4167" cy="188.029" fill="#84BE84" rx="3.125" ry="3.125" style="stroke:#038048;stroke-width:1.0416666666666667;"/><text fill="#D8BC00" font-family="Open Sans,Avenir,Nunito,Arial,Helvetica,SansSerif" font-size="11.4583" lengthAdjust="spacing" textLength="155.2083" x="46.875" y="194.9402">void set(int index, Location)</text><rect codeLine="33" fill="#282828" height="206.014" id="Node" rx="8.3333" ry="8.3333" style="stroke:#5E5E5E;stroke-width:1.0416666666666667;" width="265.625" x="1418.2292" y="267.2445"/><rect fill="#1B1B1A" height="31.3883" rx="8.3333" ry="8.3333" style="stroke:#1B1B1A;stroke-width:1.0416666666666667;" width="265.625" x="1418.2292" y="267.2445"/><rect fill="#1B1B1A" height="8.3333" style="stroke:#1B1B1A;stroke-width:1.0416666666666667;" width="265.625" x="1418.2292" y="290.2995"/><rect codeLine="33" fill="none" height="206.014" id="Node" rx="8.3333" ry="8.3333" style="stroke:#5E5E5E;stroke-width:1.0416666666666667;" width="265.625" x="1418.2292" y="267.2445"/><ellipse cx="1527.0833" cy="282.9386" fill="#0066CF" rx="10.4167" ry="10.4167" style="stroke:#0086EF;stroke-width:1.0416666666666667;"/><path d="M1528.9937,287.3637 Q1528.5665,287.5834 1528.0965,287.6933 Q1527.6265,287.8031 1527.1077,287.8031 Q1525.2645,287.8031 1524.294,286.5885 Q1523.3236,285.3739 1523.3236,283.079 Q1523.3236,280.778 1524.294,279.5634 Q1525.2645,278.3488 1527.1077,278.3488 Q1527.6265,278.3488 1528.1026,278.4587 Q1528.5787,278.5685 1528.9937,278.7882 L1528.9937,280.7902 Q1528.5299,280.363 1528.0935,280.1646 Q1527.6571,279.9662 1527.1932,279.9662 Q1526.2044,279.9662 1525.7009,280.7505 Q1525.1973,281.5348 1525.1973,283.079 Q1525.1973,284.6171 1525.7009,285.4014 Q1526.2044,286.1857 1527.1932,286.1857 Q1527.6571,286.1857 1528.0935,285.9873 Q1528.5299,285.789 1528.9937,285.3617 Z " fill="#000000"/><text fill="#D8BC00" font-family="Open Sans,Avenir,Nunito,Arial,Helvetica,SansSerif" font-size="12.5" font-weight="bold" lengthAdjust="spacing" textLength="33.3333" x="1550" y="287.6628">Node</text><line style="stroke:#5E5E5E;stroke-width:1.5625;" x1="1419.2708" x2="1682.8125" y1="298.6328" y2="298.6328"/><ellipse cx="1429.6875" cy="334.0027" fill="#84BE84" rx="3.125" ry="3.125" style="stroke:#038048;stroke-width:1.0416666666666667;"/><text fill="#D8BC00" font-family="Open Sans,Avenir,Nunito,Arial,Helvetica,SansSerif" font-size="11.4583" lengthAdjust="spacing" textLength="233.3333" x="1441.1458" y="340.9139">Node(PolygonSpatialIndex, int, int, int, int)</text><ellipse cx="1429.6875" cy="353.7476" fill="#84BE84" rx="3.125" ry="3.125" style="stroke:#038048;stroke-width:1.0416666666666667;"/><text fill="#D8BC00" font-family="Open Sans,Avenir,Nunito,Arial,Helvetica,SansSerif" font-size="11.4583" lengthAdjust="spacing" textLength="210.4167" x="1441.1458" y="360.6588">Node(PolygonSpatialIndex, Rectangle)</text><line style="stroke:#5E5E5E;stroke-width:1.0416666666666667;" x1="1419.2708" x2="1507.2917" y1="316.8386" y2="316.8386"/><text fill="#D8BC00" font-family="Open Sans,Avenir,Nunito,Arial,Helvetica,SansSerif" font-size="11.4583" lengthAdjust="spacing" textLength="81.25" x="1510.4167" y="320.6482">(constructors)</text><line style="stroke:#5E5E5E;stroke-width:1.0416666666666667;" x1="1594.7917" x2="1682.8125" y1="316.8386" y2="316.8386"/><ellipse cx="1429.6875" cy="397.404" fill="#84BE84" rx="3.125" ry="3.125" style="stroke:#038048;stroke-width:1.0416666666666667;"/><text fill="#D8BC00" font-family="Open Sans,Avenir,Nunito,Arial,Helvetica,SansSerif" font-size="11.4583" lengthAdjust="spacing" textLength="111.4583" x="1441.1458" y="404.3152">int northEastIndex()</text><ellipse cx="1429.6875" cy="417.1488" fill="#84BE84" rx="3.125" ry="3.125" style="stroke:#038048;stroke-width:1.0416666666666667;"/><text fill="#D8BC00" font-family="Open Sans,Avenir,Nunito,Arial,Helvetica,SansSerif" font-size="11.4583" lengthAdjust="spacing" textLength="114.5833" x="1441.1458" y="424.0601">int northWestIndex()</text><ellipse cx="1429.6875" cy="436.8937" fill="#84BE84" rx="3.125" ry="3.125" style="stroke:#038048;stroke-width:1.0416666666666667;"/><text fill="#D8BC00" font-family="Open Sans,Avenir,Nunito,Arial,Helvetica,SansSerif" font-size="11.4583" lengthAdjust="spacing" textLength="112.5" x="1441.1458" y="443.8049">int southEastIndex()</text><ellipse cx="1429.6875" cy="456.6386" fill="#84BE84" rx="3.125" ry="3.125" style="stroke:#038048;stroke-width:1.0416666666666667;"/><text fill="#D8BC00" font-family="Open Sans,Avenir,Nunito,Arial,Helvetica,SansSerif" font-size="11.4583" lengthAdjust="spacing" textLength="115.625" x="1441.1458" y="463.5498">int southWestIndex()</text><line style="stroke:#5E5E5E;stroke-width:1.0416666666666667;" x1="1419.2708" x2="1516.6667" y1="380.2399" y2="380.2399"/><text fill="#D8BC00" font-family="Open Sans,Avenir,Nunito,Arial,Helvetica,SansSerif" font-size="11.4583" lengthAdjust="spacing" textLength="62.5" x="1519.7917" y="384.0495">(collection)</text><line style="stroke:#5E5E5E;stroke-width:1.0416666666666667;" x1="1585.4167" x2="1682.8125" y1="380.2399" y2="380.2399"/><rect codeLine="48" fill="#282828" height="150.946" id="PolygonSpatialIndex" rx="8.3333" ry="8.3333" style="stroke:#5E5E5E;stroke-width:1.0416666666666667;" width="270.8333" x="748.9583" y="294.8486"/><rect fill="#1B1B1A" height="31.3883" rx="8.3333" ry="8.3333" style="stroke:#1B1B1A;stroke-width:1.0416666666666667;" width="270.8333" x="748.9583" y="294.8486"/><rect fill="#1B1B1A" height="8.3333" style="stroke:#1B1B1A;stroke-width:1.0416666666666667;" width="270.8333" x="748.9583" y="317.9036"/><rect codeLine="48" fill="none" height="150.946" id="PolygonSpatialIndex" rx="8.3333" ry="8.3333" style="stroke:#5E5E5E;stroke-width:1.0416666666666667;" width="270.8333" x="748.9583" y="294.8486"/><ellipse cx="811.4583" cy="310.5428" fill="#0066CF" rx="10.4167" ry="10.4167" style="stroke:#0086EF;stroke-width:1.0416666666666667;"/><path d="M813.3687,314.9679 Q812.9415,315.1876 812.4715,315.2974 Q812.0015,315.4073 811.4827,315.4073 Q809.6395,315.4073 808.669,314.1927 Q807.6986,312.9781 807.6986,310.6832 Q807.6986,308.3822 808.669,307.1676 Q809.6395,305.953 811.4827,305.953 Q812.0015,305.953 812.4776,306.0628 Q812.9537,306.1727 813.3687,306.3924 L813.3687,308.3944 Q812.9049,307.9671 812.4685,307.7688 Q812.0321,307.5704 811.5682,307.5704 Q810.5794,307.5704 810.0759,308.3547 Q809.5723,309.139 809.5723,310.6832 Q809.5723,312.2213 810.0759,313.0056 Q810.5794,313.7899 811.5682,313.7899 Q812.0321,313.7899 812.4685,313.5915 Q812.9049,313.3931 813.3687,312.9659 Z " fill="#000000"/><text fill="#D8BC00" font-family="Open Sans,Avenir,Nunito,Arial,Helvetica,SansSerif" font-size="12.5" font-weight="bold" lengthAdjust="spacing" textLength="131.25" x="834.375" y="315.2669">PolygonSpatialIndex</text><line style="stroke:#5E5E5E;stroke-width:1.5625;" x1="750" x2="1018.75" y1="326.237" y2="326.237"/><polygon fill="#FFFF44" points="760.4167,356.3985,764.5833,360.5652,760.4167,364.7319,756.25,360.5652" style="stroke:#B38D22;stroke-width:1.0416666666666667;"/><text fill="#D8BC00" font-family="Open Sans,Avenir,Nunito,Arial,Helvetica,SansSerif" font-size="11.4583" lengthAdjust="spacing" textLength="120.8333" x="771.875" y="368.5181">PolygonSpatialIndex()</text><ellipse cx="760.4167" cy="381.3517" fill="#84BE84" rx="3.125" ry="3.125" style="stroke:#038048;stroke-width:1.0416666666666667;"/><text fill="#D8BC00" font-family="Open Sans,Avenir,Nunito,Arial,Helvetica,SansSerif" font-size="11.4583" lengthAdjust="spacing" textLength="165.625" x="771.875" y="388.2629">PolygonSpatialIndex(Polygon)</text><line style="stroke:#5E5E5E;stroke-width:1.0416666666666667;" x1="750" x2="840.625" y1="344.4427" y2="344.4427"/><text fill="#D8BC00" font-family="Open Sans,Avenir,Nunito,Arial,Helvetica,SansSerif" font-size="11.4583" lengthAdjust="spacing" textLength="81.25" x="843.75" y="348.2524">(constructors)</text><line style="stroke:#5E5E5E;stroke-width:1.0416666666666667;" x1="928.125" x2="1018.75" y1="344.4427" y2="344.4427"/><line style="stroke:#5E5E5E;stroke-width:1.0416666666666667;" x1="750" x2="1018.75" y1="397.9716" y2="397.9716"/><ellipse cx="760.4167" cy="409.4299" fill="#84BE84" rx="3.125" ry="3.125" style="stroke:#038048;stroke-width:1.0416666666666667;"/><text fill="#D8BC00" font-family="Open Sans,Avenir,Nunito,Arial,Helvetica,SansSerif" font-size="11.4583" lengthAdjust="spacing" textLength="238.5417" x="771.875" y="416.3411">void debug(PolygonSpatialIndexDebugger)</text><ellipse cx="760.4167" cy="429.1748" fill="#84BE84" rx="3.125" ry="3.125" style="stroke:#038048;stroke-width:1.0416666666666667;"/><text fill="#D8BC00" font-family="Open Sans,Avenir,Nunito,Arial,Helvetica,SansSerif" font-size="11.4583" lengthAdjust="spacing" textLength="94.7917" x="771.875" y="436.086">void visit(Visitor)</text><rect codeLine="58" fill="#282828" height="87.5448" id="PolygonSpatialIndexDebugger" rx="8.3333" ry="8.3333" style="stroke:#5E5E5E;stroke-width:1.0416666666666667;" width="406.25" x="266.6667" y="85.4736"/><rect fill="#1B1B1A" height="31.3883" rx="8.3333" ry="8.3333" style="stroke:#1B1B1A;stroke-width:1.0416666666666667;" width="406.25" x="266.6667" y="85.4736"/><rect fill="#1B1B1A" height="8.3333" style="stroke:#1B1B1A;stroke-width:1.0416666666666667;" width="406.25" x="266.6667" y="108.5286"/><rect codeLine="58" fill="none" height="87.5448" id="PolygonSpatialIndexDebugger" rx="8.3333" ry="8.3333" style="stroke:#5E5E5E;stroke-width:1.0416666666666667;" width="406.25" x="266.6667" y="85.4736"/><ellipse cx="365.1042" cy="101.1678" fill="#008400" rx="10.4167" ry="10.4167" style="stroke:#239C23;stroke-width:1.0416666666666667;"/><path d="M362.5081,98.3297 L362.5081,96.7428 L367.9342,96.7428 L367.9342,98.3297 L366.1214,98.3297 L366.1214,104.2684 L367.9342,104.2684 L367.9342,105.8553 L362.5081,105.8553 L362.5081,104.2684 L364.3209,104.2684 L364.3209,98.3297 Z " fill="#000000"/><text fill="#D8BC00" font-family="Open Sans,Avenir,Nunito,Arial,Helvetica,SansSerif" font-size="12.5" font-style="italic" font-weight="bold" lengthAdjust="spacing" textLength="194.7917" x="388.0208" y="105.8919">PolygonSpatialIndexDebugger</text><line style="stroke:#5E5E5E;stroke-width:1.5625;" x1="267.7083" x2="671.875" y1="116.862" y2="116.862"/><line style="stroke:#5E5E5E;stroke-width:1.0416666666666667;" x1="267.7083" x2="671.875" y1="125.1953" y2="125.1953"/><ellipse cx="278.125" cy="136.6536" fill="#84BE84" rx="3.125" ry="3.125" style="stroke:#038048;stroke-width:1.0416666666666667;"/><text fill="#D8BC00" font-family="Open Sans,Avenir,Nunito,Arial,Helvetica,SansSerif" font-size="11.4583" lengthAdjust="spacing" textLength="373.9583" x="289.5833" y="143.5649">void leaf(Rectangle bounds, Segment a, Segment b, Location inside)</text><ellipse cx="278.125" cy="156.3985" fill="#84BE84" rx="3.125" ry="3.125" style="stroke:#038048;stroke-width:1.0416666666666667;"/><text fill="#D8BC00" font-family="Open Sans,Avenir,Nunito,Arial,Helvetica,SansSerif" font-size="11.4583" lengthAdjust="spacing" textLength="140.625" x="289.5833" y="163.3097">void quadrant(Rectangle)</text><rect codeLine="74" fill="#282828" height="146.7794" id="QuadrantStore" rx="8.3333" ry="8.3333" style="stroke:#5E5E5E;stroke-width:1.0416666666666667;" width="235.4167" x="9.375" y="296.932"/><rect fill="#1B1B1A" height="31.3883" rx="8.3333" ry="8.3333" style="stroke:#1B1B1A;stroke-width:1.0416666666666667;" width="235.4167" x="9.375" y="296.932"/><rect fill="#1B1B1A" height="8.3333" style="stroke:#1B1B1A;stroke-width:1.0416666666666667;" width="235.4167" x="9.375" y="319.987"/><rect codeLine="74" fill="none" height="146.7794" id="QuadrantStore" rx="8.3333" ry="8.3333" style="stroke:#5E5E5E;stroke-width:1.0416666666666667;" width="235.4167" x="9.375" y="296.932"/><ellipse cx="72.9167" cy="312.6261" fill="#0066CF" rx="10.4167" ry="10.4167" style="stroke:#0086EF;stroke-width:1.0416666666666667;"/><path d="M74.8271,317.0512 Q74.3998,317.2709 73.9299,317.3808 Q73.4599,317.4906 72.9411,317.4906 Q71.0978,317.4906 70.1274,316.276 Q69.1569,315.0614 69.1569,312.7665 Q69.1569,310.4655 70.1274,309.2509 Q71.0978,308.0363 72.9411,308.0363 Q73.4599,308.0363 73.936,308.1462 Q74.412,308.256 74.8271,308.4757 L74.8271,310.4777 Q74.3632,310.0505 73.9268,309.8521 Q73.4904,309.6537 73.0265,309.6537 Q72.0378,309.6537 71.5342,310.438 Q71.0307,311.2223 71.0307,312.7665 Q71.0307,314.3046 71.5342,315.0889 Q72.0378,315.8732 73.0265,315.8732 Q73.4904,315.8732 73.9268,315.6748 Q74.3632,315.4765 74.8271,315.0492 Z " fill="#000000"/><text fill="#D8BC00" font-family="Open Sans,Avenir,Nunito,Arial,Helvetica,SansSerif" font-size="12.5" font-weight="bold" lengthAdjust="spacing" textLength="93.75" x="95.8333" y="317.3503">QuadrantStore</text><line style="stroke:#5E5E5E;stroke-width:1.5625;" x1="10.4167" x2="243.75" y1="328.3203" y2="328.3203"/><polygon fill="#FFFF44" points="20.8333,358.4819,25,362.6485,20.8333,366.8152,16.6667,362.6485" style="stroke:#B38D22;stroke-width:1.0416666666666667;"/><text fill="#D8BC00" font-family="Open Sans,Avenir,Nunito,Arial,Helvetica,SansSerif" font-size="11.4583" lengthAdjust="spacing" textLength="90.625" x="32.2917" y="370.6014">QuadrantStore()</text><ellipse cx="20.8333" cy="383.4351" fill="#84BE84" rx="3.125" ry="3.125" style="stroke:#038048;stroke-width:1.0416666666666667;"/><text fill="#D8BC00" font-family="Open Sans,Avenir,Nunito,Arial,Helvetica,SansSerif" font-size="11.4583" lengthAdjust="spacing" textLength="203.125" x="32.2917" y="390.3463">QuadrantStore(PolygonSpatialIndex)</text><line style="stroke:#5E5E5E;stroke-width:1.0416666666666667;" x1="10.4167" x2="83.3333" y1="346.5261" y2="346.5261"/><text fill="#D8BC00" font-family="Open Sans,Avenir,Nunito,Arial,Helvetica,SansSerif" font-size="11.4583" lengthAdjust="spacing" textLength="81.25" x="86.4583" y="350.3357">(constructors)</text><line style="stroke:#5E5E5E;stroke-width:1.0416666666666667;" x1="170.8333" x2="243.75" y1="346.5261" y2="346.5261"/><ellipse cx="20.8333" cy="427.0915" fill="#84BE84" rx="3.125" ry="3.125" style="stroke:#038048;stroke-width:1.0416666666666667;"/><text fill="#D8BC00" font-family="Open Sans,Avenir,Nunito,Arial,Helvetica,SansSerif" font-size="11.4583" lengthAdjust="spacing" textLength="76.0417" x="32.2917" y="434.0027">int add(Node)</text><line style="stroke:#5E5E5E;stroke-width:1.0416666666666667;" x1="10.4167" x2="92.7083" y1="409.9274" y2="409.9274"/><text fill="#D8BC00" font-family="Open Sans,Avenir,Nunito,Arial,Helvetica,SansSerif" font-size="11.4583" lengthAdjust="spacing" textLength="62.5" x="95.8333" y="413.737">(collection)</text><line style="stroke:#5E5E5E;stroke-width:1.0416666666666667;" x1="161.4583" x2="243.75" y1="409.9274" y2="409.9274"/><rect codeLine="83" fill="#282828" height="67.7999" id="PolygonSpatialIndex.Visitor" rx="8.3333" ry="8.3333" style="stroke:#5E5E5E;stroke-width:1.0416666666666667;" width="423.9583" x="281.7708" y="336.5153"/><rect fill="#1B1B1A" height="31.3883" rx="8.3333" ry="8.3333" style="stroke:#1B1B1A;stroke-width:1.0416666666666667;" width="423.9583" x="281.7708" y="336.5153"/><rect fill="#1B1B1A" height="8.3333" style="stroke:#1B1B1A;stroke-width:1.0416666666666667;" width="423.9583" x="281.7708" y="359.5703"/><rect codeLine="83" fill="none" height="67.7999" id="PolygonSpatialIndex.Visitor" rx="8.3333" ry="8.3333" style="stroke:#5E5E5E;stroke-width:1.0416666666666667;" width="423.9583" x="281.7708" y="336.5153"/><ellipse cx="397.9167" cy="352.2095" fill="#008400" rx="10.4167" ry="10.4167" style="stroke:#239C23;stroke-width:1.0416666666666667;"/><path d="M395.3206,349.3713 L395.3206,347.7844 L400.7467,347.7844 L400.7467,349.3713 L398.9339,349.3713 L398.9339,355.3101 L400.7467,355.3101 L400.7467,356.897 L395.3206,356.897 L395.3206,355.3101 L397.1334,355.3101 L397.1334,349.3713 Z " fill="#000000"/><text fill="#D8BC00" font-family="Open Sans,Avenir,Nunito,Arial,Helvetica,SansSerif" font-size="12.5" font-style="italic" font-weight="bold" lengthAdjust="spacing" textLength="177.0833" x="420.8333" y="356.9336">PolygonSpatialIndex.Visitor</text><line style="stroke:#5E5E5E;stroke-width:1.5625;" x1="282.8125" x2="704.6875" y1="367.9036" y2="367.9036"/><line style="stroke:#5E5E5E;stroke-width:1.0416666666666667;" x1="282.8125" x2="704.6875" y1="376.237" y2="376.237"/><ellipse cx="293.2292" cy="387.6953" fill="#84BE84" rx="3.125" ry="3.125" style="stroke:#038048;stroke-width:1.0416666666666667;"/><text fill="#D8BC00" font-family="Open Sans,Avenir,Nunito,Arial,Helvetica,SansSerif" font-size="11.4583" lengthAdjust="spacing" textLength="391.6667" x="304.6875" y="394.6065">void onLeaf(Rectangle bounds, Segment a, Segment b, Location inside)</text><path codeLine="11" d="M1340.0833,214.3382 C1328.6042,240.432 1316.0313,268.9945 1304.8438,294.4215 " fill="none" id="Quadrant-backto-Leaf" style="stroke:#545454;stroke-width:1.5625;"/><polygon fill="none" points="1333.5417,211.0882,1348.6146,194.9632,1346.8958,216.9632,1333.5417,211.0882" style="stroke:#545454;stroke-width:1.5625;"/><path codeLine="32" d="M1436.5,211.9215 C1449.4479,229.7132 1463.3021,248.7549 1476.75,267.234 " fill="none" id="Quadrant-backto-Node" style="stroke:#545454;stroke-width:1.5625;"/><polygon fill="none" points="1430.5208,216.0986,1424.1563,194.9632,1442.3125,207.5153,1430.5208,216.0986" style="stroke:#545454;stroke-width:1.5625;"/><path codeLine="45" d="M1000.0625,171.1924 C980.3125,205.0257 951.7396,253.9528 927.9375,294.7236 " fill="none" id="Intersectable-backto-PolygonSpatialIndex" style="stroke:#545454;stroke-width:1.5625;"/><polygon fill="none" points="993.7708,167.5049,1010.5729,153.1924,1006.3646,174.859,993.7708,167.5049" style="stroke:#545454;stroke-width:1.5625;"/><path codeLine="46" d="M779.3021,171.6611 C797.2708,205.4736 823.1458,254.1403 844.7188,294.7236 " fill="none" id="Bounded-backto-PolygonSpatialIndex" style="stroke:#545454;stroke-width:1.5625;"/><polygon fill="none" points="772.8125,175.0049,769.4792,153.1924,785.6979,168.1611,772.8125,175.0049" style="stroke:#545454;stroke-width:1.5625;"/><path codeLine="47" d="M884.375,174.0674 C884.375,207.7549 884.375,255.0986 884.375,294.7236 " fill="none" id="Outline-backto-PolygonSpatialIndex" style="stroke:#545454;stroke-width:1.5625;"/><polygon fill="none" points="877.0833,174.0257,884.375,153.1924,891.6667,174.0257,877.0833,174.0257" style="stroke:#545454;stroke-width:1.5625;"/></g></svg>
