<?xml version="1.0" encoding="UTF-8" standalone="no"?><svg xmlns="http://www.w3.org/2000/svg" xmlns:xlink="http://www.w3.org/1999/xlink" contentScriptType="application/ecmascript" contentStyleType="text/css" height="562.5px" preserveAspectRatio="none" style="width:952px;height:562px;background:#333333;" version="1.1" viewBox="0 0 952 562" width="952.0833px" zoomAndPan="magnify"><defs/><g><rect fill="#48494B" height="41.2028" rx="8.3333" ry="8.3333" style="stroke:#545454;stroke-width:1.0416666666666667;" width="580.2083" x="178.9063" y="2.0833"/><text fill="#C0C0C0" font-family="Open Sans,Avenir,Nunito,Arial,Helvetica,SansSerif" font-size="20.8333" lengthAdjust="spacing" textLength="557.2917" x="190.3646" y="30.5583">com.telenav.mesakit.map.geography.indexing.quadtree</text><polygon fill="#333333" points="171.875,450.5778,389.5833,450.5778,396.875,477.7995,400,477.7995,400,555.7861,171.875,555.7861,171.875,450.5778" style="stroke:#333333;stroke-width:2.0833333333333335;"/><line style="stroke:#333333;stroke-width:2.0833333333333335;" x1="171.875" x2="396.875" y1="477.7995" y2="477.7995"/><text fill="#C8AC00" font-family="Open Sans,Avenir,Nunito,Arial,Helvetica,SansSerif" font-size="12.5" font-weight="bold" lengthAdjust="spacing" textLength="205.2083" x="179.1667" y="467.8711">QuadTreeSpatialIndex.Quadrant</text><rect codeLine="10" fill="#282828" height="48.055" id="QuadTreeSpatialIndex.Quadrant.BoundedLeafIterator" rx="8.3333" ry="8.3333" style="stroke:#5E5E5E;stroke-width:1.0416666666666667;" width="169.7917" x="190.1042" y="491.2028"/><rect fill="#1B1B1A" height="31.3883" rx="8.3333" ry="8.3333" style="stroke:#1B1B1A;stroke-width:1.0416666666666667;" width="169.7917" x="190.1042" y="491.2028"/><rect fill="#1B1B1A" height="8.3333" style="stroke:#1B1B1A;stroke-width:1.0416666666666667;" width="169.7917" x="190.1042" y="514.2578"/><rect codeLine="10" fill="none" height="48.055" id="QuadTreeSpatialIndex.Quadrant.BoundedLeafIterator" rx="8.3333" ry="8.3333" style="stroke:#5E5E5E;stroke-width:1.0416666666666667;" width="169.7917" x="190.1042" y="491.2028"/><ellipse cx="204.6875" cy="506.897" fill="#0066CF" rx="10.4167" ry="10.4167" style="stroke:#0086EF;stroke-width:1.0416666666666667;"/><path d="M206.5979,511.322 Q206.1707,511.5417 205.7007,511.6516 Q205.2307,511.7615 204.7119,511.7615 Q202.8687,511.7615 201.8982,510.5469 Q200.9277,509.3323 200.9277,507.0374 Q200.9277,504.7363 201.8982,503.5217 Q202.8687,502.3071 204.7119,502.3071 Q205.2307,502.3071 205.7068,502.417 Q206.1829,502.5269 206.5979,502.7466 L206.5979,504.7485 Q206.134,504.3213 205.6976,504.1229 Q205.2612,503.9246 204.7974,503.9246 Q203.8086,503.9246 203.3051,504.7089 Q202.8015,505.4932 202.8015,507.0374 Q202.8015,508.5754 203.3051,509.3597 Q203.8086,510.144 204.7974,510.144 Q205.2612,510.144 205.6976,509.9457 Q206.134,509.7473 206.5979,509.3201 Z " fill="#000000"/><text fill="#D8BC00" font-family="Open Sans,Avenir,Nunito,Arial,Helvetica,SansSerif" font-size="12.5" font-weight="bold" lengthAdjust="spacing" textLength="132.2917" x="221.3542" y="511.6211">BoundedLeafIterator</text><line style="stroke:#5E5E5E;stroke-width:1.0416666666666667;" x1="191.1458" x2="358.8542" y1="522.5911" y2="522.5911"/><line style="stroke:#5E5E5E;stroke-width:1.0416666666666667;" x1="191.1458" x2="358.8542" y1="530.9245" y2="530.9245"/><rect codeLine="7" fill="#282828" height="48.055" id="BaseIterator" rx="8.3333" ry="8.3333" style="stroke:#5E5E5E;stroke-width:1.0416666666666667;" width="115.625" x="119.2708" y="218.807"/><rect fill="#1B1B1A" height="31.3883" rx="8.3333" ry="8.3333" style="stroke:#1B1B1A;stroke-width:1.0416666666666667;" width="115.625" x="119.2708" y="218.807"/><rect fill="#1B1B1A" height="8.3333" style="stroke:#1B1B1A;stroke-width:1.0416666666666667;" width="115.625" x="119.2708" y="241.862"/><rect codeLine="7" fill="none" height="48.055" id="BaseIterator" rx="8.3333" ry="8.3333" style="stroke:#5E5E5E;stroke-width:1.0416666666666667;" width="115.625" x="119.2708" y="218.807"/><ellipse cx="133.8542" cy="234.5011" fill="#C8AC00" rx="10.4167" ry="10.4167" style="stroke:#D8BC00;stroke-width:1.0416666666666667;"/><path d="M133.4473,231.2032 L132.5989,234.9325 L134.3018,234.9325 Z M132.3486,229.5553 L134.552,229.5553 L137.0117,238.6678 L135.2112,238.6678 L134.6497,236.4156 L132.2388,236.4156 L131.6895,238.6678 L129.8889,238.6678 Z " fill="#000000"/><text fill="#D8BC00" font-family="Open Sans,Avenir,Nunito,Arial,Helvetica,SansSerif" font-size="12.5" font-style="italic" font-weight="bold" lengthAdjust="spacing" textLength="78.125" x="150.5208" y="239.2253">BaseIterator</text><line style="stroke:#5E5E5E;stroke-width:1.0416666666666667;" x1="120.3125" x2="233.8542" y1="250.1953" y2="250.1953"/><line style="stroke:#5E5E5E;stroke-width:1.0416666666666667;" x1="120.3125" x2="233.8542" y1="258.5286" y2="258.5286"/><rect codeLine="14" fill="#282828" height="372.3063" id="QuadTreeSpatialIndex" rx="8.3333" ry="8.3333" style="stroke:#5E5E5E;stroke-width:1.0416666666666667;" width="394.7917" x="271.3542" y="56.8278"/><rect fill="#1B1B1A" height="31.3883" rx="8.3333" ry="8.3333" style="stroke:#1B1B1A;stroke-width:1.0416666666666667;" width="394.7917" x="271.3542" y="56.8278"/><rect fill="#1B1B1A" height="8.3333" style="stroke:#1B1B1A;stroke-width:1.0416666666666667;" width="394.7917" x="271.3542" y="79.8828"/><rect codeLine="14" fill="none" height="372.3063" id="QuadTreeSpatialIndex" rx="8.3333" ry="8.3333" style="stroke:#5E5E5E;stroke-width:1.0416666666666667;" width="394.7917" x="271.3542" y="56.8278"/><ellipse cx="359.375" cy="72.522" fill="#0066CF" rx="10.4167" ry="10.4167" style="stroke:#0086EF;stroke-width:1.0416666666666667;"/><path d="M361.2854,76.947 Q360.8582,77.1667 360.3882,77.2766 Q359.9182,77.3865 359.3994,77.3865 Q357.5562,77.3865 356.5857,76.1719 Q355.6152,74.9573 355.6152,72.6624 Q355.6152,70.3613 356.5857,69.1467 Q357.5562,67.9321 359.3994,67.9321 Q359.9182,67.9321 360.3943,68.042 Q360.8704,68.1519 361.2854,68.3716 L361.2854,70.3735 Q360.8215,69.9463 360.3851,69.7479 Q359.9487,69.5496 359.4849,69.5496 Q358.4961,69.5496 357.9926,70.3339 Q357.489,71.1182 357.489,72.6624 Q357.489,74.2004 357.9926,74.9847 Q358.4961,75.769 359.4849,75.769 Q359.9487,75.769 360.3851,75.5707 Q360.8215,75.3723 361.2854,74.9451 Z " fill="#000000"/><text fill="#D8BC00" font-family="Open Sans,Avenir,Nunito,Arial,Helvetica,SansSerif" font-size="12.5" font-weight="bold" lengthAdjust="spacing" textLength="141.6667" x="382.2917" y="77.2461">QuadTreeSpatialIndex</text><rect fill="#333333" height="23.055" style="stroke:#A0A0A0;stroke-width:1.0416666666666667;stroke-dasharray:2.0,2.0;" width="60.4167" x="608.8542" y="53.7028"/><text fill="#A0A0A0" font-family="Open Sans,Avenir,Nunito,Arial,Helvetica,SansSerif" font-size="12.5" font-weight="bold" lengthAdjust="spacing" textLength="52.0833" x="613.0208" y="69.9544">Element</text><line style="stroke:#5E5E5E;stroke-width:1.5625;" x1="272.3958" x2="665.1042" y1="88.2161" y2="88.2161"/><ellipse cx="282.8125" cy="123.586" fill="#84BE84" rx="3.125" ry="3.125" style="stroke:#038048;stroke-width:1.0416666666666667;"/><text fill="#D8BC00" font-family="Open Sans,Avenir,Nunito,Arial,Helvetica,SansSerif" font-size="11.4583" lengthAdjust="spacing" textLength="131.25" x="294.2708" y="130.4972">QuadTreeSpatialIndex()</text><ellipse cx="282.8125" cy="143.3309" fill="#84BE84" rx="3.125" ry="3.125" style="stroke:#038048;stroke-width:1.0416666666666667;"/><text fill="#D8BC00" font-family="Open Sans,Avenir,Nunito,Arial,Helvetica,SansSerif" font-size="11.4583" lengthAdjust="spacing" textLength="200" x="294.2708" y="150.2421">QuadTreeSpatialIndex(int, Distance)</text><line style="stroke:#5E5E5E;stroke-width:1.0416666666666667;" x1="272.3958" x2="425" y1="106.4219" y2="106.4219"/><text fill="#D8BC00" font-family="Open Sans,Avenir,Nunito,Arial,Helvetica,SansSerif" font-size="11.4583" lengthAdjust="spacing" textLength="81.25" x="428.125" y="110.2315">(constructors)</text><line style="stroke:#5E5E5E;stroke-width:1.0416666666666667;" x1="512.5" x2="665.1042" y1="106.4219" y2="106.4219"/><line style="stroke:#5E5E5E;stroke-width:1.0416666666666667;" x1="272.3958" x2="665.1042" y1="159.9508" y2="159.9508"/><ellipse cx="282.8125" cy="171.4091" fill="#84BE84" rx="3.125" ry="3.125" style="stroke:#038048;stroke-width:1.0416666666666667;"/><text fill="#D8BC00" font-family="Open Sans,Avenir,Nunito,Arial,Helvetica,SansSerif" font-size="11.4583" lengthAdjust="spacing" textLength="108.3333" x="294.2708" y="178.3203">Rectangle bounds()</text><ellipse cx="282.8125" cy="191.154" fill="#84BE84" rx="3.125" ry="3.125" style="stroke:#038048;stroke-width:1.0416666666666667;"/><text fill="#D8BC00" font-family="Open Sans,Avenir,Nunito,Arial,Helvetica,SansSerif" font-size="11.4583" lengthAdjust="spacing" textLength="154.1667" x="294.2708" y="198.0652">void dump(PrintStream out)</text><ellipse cx="282.8125" cy="210.8988" fill="#84BE84" rx="3.125" ry="3.125" style="stroke:#038048;stroke-width:1.0416666666666667;"/><text fill="#D8BC00" font-family="Open Sans,Avenir,Nunito,Arial,Helvetica,SansSerif" font-size="11.4583" lengthAdjust="spacing" textLength="296.875" x="294.2708" y="217.8101">boolean replace(Element oldValue, Element newValue)</text><ellipse cx="282.8125" cy="254.5553" fill="#84BE84" rx="3.125" ry="3.125" style="stroke:#038048;stroke-width:1.0416666666666667;"/><text fill="#D8BC00" font-family="Open Sans,Avenir,Nunito,Arial,Helvetica,SansSerif" font-size="11.4583" lengthAdjust="spacing" textLength="137.5" x="294.2708" y="261.4665">void add(Element object)</text><ellipse cx="282.8125" cy="274.3001" fill="#84BE84" rx="3.125" ry="3.125" style="stroke:#038048;stroke-width:1.0416666666666667;"/><text fill="#D8BC00" font-family="Open Sans,Avenir,Nunito,Arial,Helvetica,SansSerif" font-size="11.4583" lengthAdjust="spacing" textLength="218.75" x="294.2708" y="281.2113">void addAll(Iterable&lt;Element&gt; objects)</text><ellipse cx="282.8125" cy="294.045" fill="#84BE84" rx="3.125" ry="3.125" style="stroke:#038048;stroke-width:1.0416666666666667;"/><text fill="#D8BC00" font-family="Open Sans,Avenir,Nunito,Arial,Helvetica,SansSerif" font-size="11.4583" lengthAdjust="spacing" textLength="62.5" x="294.2708" y="300.9562">void clear()</text><ellipse cx="282.8125" cy="313.7899" fill="#84BE84" rx="3.125" ry="3.125" style="stroke:#038048;stroke-width:1.0416666666666667;"/><text fill="#D8BC00" font-family="Open Sans,Avenir,Nunito,Arial,Helvetica,SansSerif" font-size="11.4583" lengthAdjust="spacing" textLength="78.125" x="294.2708" y="320.7011">Count count()</text><ellipse cx="282.8125" cy="333.5347" fill="#84BE84" rx="3.125" ry="3.125" style="stroke:#038048;stroke-width:1.0416666666666667;"/><text fill="#D8BC00" font-family="Open Sans,Avenir,Nunito,Arial,Helvetica,SansSerif" font-size="11.4583" lengthAdjust="spacing" textLength="362.5" x="294.2708" y="340.446">Iterator&lt;Element&gt; inside(Rectangle bounds, Matcher&lt;Element&gt;)</text><ellipse cx="282.8125" cy="353.2796" fill="#84BE84" rx="3.125" ry="3.125" style="stroke:#038048;stroke-width:1.0416666666666667;"/><text fill="#D8BC00" font-family="Open Sans,Avenir,Nunito,Arial,Helvetica,SansSerif" font-size="11.4583" lengthAdjust="spacing" textLength="248.9583" x="294.2708" y="360.1908">Iterator&lt;Element&gt; inside(Rectangle bounds)</text><ellipse cx="282.8125" cy="373.0245" fill="#84BE84" rx="3.125" ry="3.125" style="stroke:#038048;stroke-width:1.0416666666666667;"/><text fill="#D8BC00" font-family="Open Sans,Avenir,Nunito,Arial,Helvetica,SansSerif" font-size="11.4583" lengthAdjust="spacing" textLength="158.3333" x="294.2708" y="379.9357">void remove(Element object)</text><ellipse cx="282.8125" cy="392.7694" fill="#84BE84" rx="3.125" ry="3.125" style="stroke:#038048;stroke-width:1.0416666666666667;"/><text fill="#D8BC00" font-family="Open Sans,Avenir,Nunito,Arial,Helvetica,SansSerif" font-size="11.4583" lengthAdjust="spacing" textLength="305.2083" x="294.2708" y="399.6806">void removeAll(Rectangle bounds, Matcher&lt;Element&gt;)</text><ellipse cx="282.8125" cy="412.5142" fill="#84BE84" rx="3.125" ry="3.125" style="stroke:#038048;stroke-width:1.0416666666666667;"/><text fill="#D8BC00" font-family="Open Sans,Avenir,Nunito,Arial,Helvetica,SansSerif" font-size="11.4583" lengthAdjust="spacing" textLength="47.9167" x="294.2708" y="419.4255">int size()</text><line style="stroke:#5E5E5E;stroke-width:1.0416666666666667;" x1="272.3958" x2="434.375" y1="237.3912" y2="237.3912"/><text fill="#D8BC00" font-family="Open Sans,Avenir,Nunito,Arial,Helvetica,SansSerif" font-size="11.4583" lengthAdjust="spacing" textLength="62.5" x="437.5" y="241.2008">(collection)</text><line style="stroke:#5E5E5E;stroke-width:1.0416666666666667;" x1="503.125" x2="665.1042" y1="237.3912" y2="237.3912"/><rect codeLine="35" fill="#282828" height="48.055" id="QuadTreeSpatialIndex.Quadrant" rx="8.3333" ry="8.3333" style="stroke:#5E5E5E;stroke-width:1.0416666666666667;" width="242.7083" x="702.6042" y="218.807"/><rect fill="#1B1B1A" height="31.3883" rx="8.3333" ry="8.3333" style="stroke:#1B1B1A;stroke-width:1.0416666666666667;" width="242.7083" x="702.6042" y="218.807"/><rect fill="#1B1B1A" height="8.3333" style="stroke:#1B1B1A;stroke-width:1.0416666666666667;" width="242.7083" x="702.6042" y="241.862"/><rect codeLine="35" fill="none" height="48.055" id="QuadTreeSpatialIndex.Quadrant" rx="8.3333" ry="8.3333" style="stroke:#5E5E5E;stroke-width:1.0416666666666667;" width="242.7083" x="702.6042" y="218.807"/><ellipse cx="717.1875" cy="234.5011" fill="#0066CF" rx="10.4167" ry="10.4167" style="stroke:#0086EF;stroke-width:1.0416666666666667;"/><path d="M719.0979,238.9262 Q718.6707,239.1459 718.2007,239.2558 Q717.7307,239.3656 717.2119,239.3656 Q715.3687,239.3656 714.3982,238.151 Q713.4277,236.9364 713.4277,234.6415 Q713.4277,232.3405 714.3982,231.1259 Q715.3687,229.9113 717.2119,229.9113 Q717.7307,229.9113 718.2068,230.0212 Q718.6829,230.131 719.0979,230.3507 L719.0979,232.3527 Q718.634,231.9255 718.1976,231.7271 Q717.7612,231.5287 717.2974,231.5287 Q716.3086,231.5287 715.8051,232.313 Q715.3015,233.0973 715.3015,234.6415 Q715.3015,236.1796 715.8051,236.9639 Q716.3086,237.7482 717.2974,237.7482 Q717.7612,237.7482 718.1976,237.5498 Q718.634,237.3515 719.0979,236.9242 Z " fill="#000000"/><text fill="#D8BC00" font-family="Open Sans,Avenir,Nunito,Arial,Helvetica,SansSerif" font-size="12.5" font-weight="bold" lengthAdjust="spacing" textLength="205.2083" x="733.8542" y="239.2253">QuadTreeSpatialIndex.Quadrant</text><line style="stroke:#5E5E5E;stroke-width:1.0416666666666667;" x1="703.6458" x2="944.2708" y1="250.1953" y2="250.1953"/><line style="stroke:#5E5E5E;stroke-width:1.0416666666666667;" x1="703.6458" x2="944.2708" y1="258.5286" y2="258.5286"/><rect codeLine="40" fill="#282828" height="48.055" id="QuadTreeSpatialIndex.Quadrant.QuadrantIterator" rx="8.3333" ry="8.3333" style="stroke:#5E5E5E;stroke-width:1.0416666666666667;" width="145.8333" x="7.2917" y="491.2028"/><rect fill="#1B1B1A" height="31.3883" rx="8.3333" ry="8.3333" style="stroke:#1B1B1A;stroke-width:1.0416666666666667;" width="145.8333" x="7.2917" y="491.2028"/><rect fill="#1B1B1A" height="8.3333" style="stroke:#1B1B1A;stroke-width:1.0416666666666667;" width="145.8333" x="7.2917" y="514.2578"/><rect codeLine="40" fill="none" height="48.055" id="QuadTreeSpatialIndex.Quadrant.QuadrantIterator" rx="8.3333" ry="8.3333" style="stroke:#5E5E5E;stroke-width:1.0416666666666667;" width="145.8333" x="7.2917" y="491.2028"/><ellipse cx="21.875" cy="506.897" fill="#0066CF" rx="10.4167" ry="10.4167" style="stroke:#0086EF;stroke-width:1.0416666666666667;"/><path d="M23.7854,511.322 Q23.3582,511.5417 22.8882,511.6516 Q22.4182,511.7615 21.8994,511.7615 Q20.0562,511.7615 19.0857,510.5469 Q18.1152,509.3323 18.1152,507.0374 Q18.1152,504.7363 19.0857,503.5217 Q20.0562,502.3071 21.8994,502.3071 Q22.4182,502.3071 22.8943,502.417 Q23.3704,502.5269 23.7854,502.7466 L23.7854,504.7485 Q23.3215,504.3213 22.8851,504.1229 Q22.4487,503.9246 21.9849,503.9246 Q20.9961,503.9246 20.4926,504.7089 Q19.989,505.4932 19.989,507.0374 Q19.989,508.5754 20.4926,509.3597 Q20.9961,510.144 21.9849,510.144 Q22.4487,510.144 22.8851,509.9457 Q23.3215,509.7473 23.7854,509.3201 Z " fill="#000000"/><text fill="#D8BC00" font-family="Open Sans,Avenir,Nunito,Arial,Helvetica,SansSerif" font-size="12.5" font-weight="bold" lengthAdjust="spacing" textLength="108.3333" x="38.5417" y="511.6211">QuadrantIterator</text><line style="stroke:#5E5E5E;stroke-width:1.0416666666666667;" x1="8.3333" x2="152.0833" y1="522.5911" y2="522.5911"/><line style="stroke:#5E5E5E;stroke-width:1.0416666666666667;" x1="8.3333" x2="152.0833" y1="530.9245" y2="530.9245"/><path codeLine="9" d="M192.6354,286.7445 C213.625,344.6924 250.2917,445.8903 266.6771,491.1299 " fill="none" id="BaseIterator-backto-QuadTreeSpatialIndex.Quadrant.BoundedLeafIterator" style="stroke:#545454;stroke-width:1.5625;"/><polygon fill="none" points="185.6667,288.9215,185.4271,266.8486,199.3854,283.9632,185.6667,288.9215" style="stroke:#545454;stroke-width:1.5625;"/><path codeLine="39" d="M161.6979,286.7445 C140.9271,344.6924 104.6563,445.8903 88.4479,491.1299 " fill="none" id="BaseIterator-backto-QuadTreeSpatialIndex.Quadrant.QuadrantIterator" style="stroke:#545454;stroke-width:1.5625;"/><polygon fill="none" points="154.9271,284.0049,168.8229,266.8486,168.6563,288.9215,154.9271,284.0049" style="stroke:#545454;stroke-width:1.5625;"/></g></svg>
