<?xml version="1.0" encoding="UTF-8" standalone="no"?><svg xmlns="http://www.w3.org/2000/svg" xmlns:xlink="http://www.w3.org/1999/xlink" contentScriptType="application/ecmascript" contentStyleType="text/css" height="1146.875px" preserveAspectRatio="none" style="width:1163px;height:1146px;background:#333333;" version="1.1" viewBox="0 0 1163 1146" width="1163.5417px" zoomAndPan="magnify"><defs/><g><rect fill="#48494B" height="41.2028" rx="8.3333" ry="8.3333" style="stroke:#545454;stroke-width:1.0416666666666667;" width="175" x="487.2396" y="2.0833"/><text fill="#C0C0C0" font-family="Open Sans,Avenir,Nunito,Arial,Helvetica,SansSerif" font-size="20.8333" lengthAdjust="spacing" textLength="152.0833" x="498.6979" y="30.5583">Spatial Indexes</text><rect codeLine="7" fill="#282828" height="48.055" id="Bounded" rx="8.3333" ry="8.3333" style="stroke:#5E5E5E;stroke-width:1.0416666666666667;" width="94.7917" x="291.1458" y="218.807"/><rect fill="#1B1B1A" height="31.3883" rx="8.3333" ry="8.3333" style="stroke:#1B1B1A;stroke-width:1.0416666666666667;" width="94.7917" x="291.1458" y="218.807"/><rect fill="#1B1B1A" height="8.3333" style="stroke:#1B1B1A;stroke-width:1.0416666666666667;" width="94.7917" x="291.1458" y="241.862"/><rect codeLine="7" fill="none" height="48.055" id="Bounded" rx="8.3333" ry="8.3333" style="stroke:#5E5E5E;stroke-width:1.0416666666666667;" width="94.7917" x="291.1458" y="218.807"/><ellipse cx="305.7292" cy="234.5011" fill="#008400" rx="10.4167" ry="10.4167" style="stroke:#239C23;stroke-width:1.0416666666666667;"/><path d="M303.1331,231.663 L303.1331,230.0761 L308.5592,230.0761 L308.5592,231.663 L306.7464,231.663 L306.7464,237.6017 L308.5592,237.6017 L308.5592,239.1886 L303.1331,239.1886 L303.1331,237.6017 L304.9459,237.6017 L304.9459,231.663 Z " fill="#000000"/><text fill="#D8BC00" font-family="Open Sans,Avenir,Nunito,Arial,Helvetica,SansSerif" font-size="12.5" font-style="italic" font-weight="bold" lengthAdjust="spacing" textLength="57.2917" x="322.3958" y="239.2253">Bounded</text><line style="stroke:#5E5E5E;stroke-width:1.0416666666666667;" x1="292.1875" x2="384.8958" y1="250.1953" y2="250.1953"/><line style="stroke:#5E5E5E;stroke-width:1.0416666666666667;" x1="292.1875" x2="384.8958" y1="258.5286" y2="258.5286"/><rect codeLine="8" fill="#282828" height="48.055" id="Outline" rx="8.3333" ry="8.3333" style="stroke:#5E5E5E;stroke-width:1.0416666666666667;" width="85.4167" x="7.2917" y="218.807"/><rect fill="#1B1B1A" height="31.3883" rx="8.3333" ry="8.3333" style="stroke:#1B1B1A;stroke-width:1.0416666666666667;" width="85.4167" x="7.2917" y="218.807"/><rect fill="#1B1B1A" height="8.3333" style="stroke:#1B1B1A;stroke-width:1.0416666666666667;" width="85.4167" x="7.2917" y="241.862"/><rect codeLine="8" fill="none" height="48.055" id="Outline" rx="8.3333" ry="8.3333" style="stroke:#5E5E5E;stroke-width:1.0416666666666667;" width="85.4167" x="7.2917" y="218.807"/><ellipse cx="21.875" cy="234.5011" fill="#008400" rx="10.4167" ry="10.4167" style="stroke:#239C23;stroke-width:1.0416666666666667;"/><path d="M19.279,231.663 L19.279,230.0761 L24.705,230.0761 L24.705,231.663 L22.8923,231.663 L22.8923,237.6017 L24.705,237.6017 L24.705,239.1886 L19.279,239.1886 L19.279,237.6017 L21.0917,237.6017 L21.0917,231.663 Z " fill="#000000"/><text fill="#D8BC00" font-family="Open Sans,Avenir,Nunito,Arial,Helvetica,SansSerif" font-size="12.5" font-style="italic" font-weight="bold" lengthAdjust="spacing" textLength="47.9167" x="38.5417" y="239.2253">Outline</text><line style="stroke:#5E5E5E;stroke-width:1.0416666666666667;" x1="8.3333" x2="91.6667" y1="250.1953" y2="250.1953"/><line style="stroke:#5E5E5E;stroke-width:1.0416666666666667;" x1="8.3333" x2="91.6667" y1="258.5286" y2="258.5286"/><rect codeLine="9" fill="#282828" height="48.055" id="Intersectable" rx="8.3333" ry="8.3333" style="stroke:#5E5E5E;stroke-width:1.0416666666666667;" width="120.8333" x="129.1667" y="218.807"/><rect fill="#1B1B1A" height="31.3883" rx="8.3333" ry="8.3333" style="stroke:#1B1B1A;stroke-width:1.0416666666666667;" width="120.8333" x="129.1667" y="218.807"/><rect fill="#1B1B1A" height="8.3333" style="stroke:#1B1B1A;stroke-width:1.0416666666666667;" width="120.8333" x="129.1667" y="241.862"/><rect codeLine="9" fill="none" height="48.055" id="Intersectable" rx="8.3333" ry="8.3333" style="stroke:#5E5E5E;stroke-width:1.0416666666666667;" width="120.8333" x="129.1667" y="218.807"/><ellipse cx="143.75" cy="234.5011" fill="#008400" rx="10.4167" ry="10.4167" style="stroke:#239C23;stroke-width:1.0416666666666667;"/><path d="M141.154,231.663 L141.154,230.0761 L146.58,230.0761 L146.58,231.663 L144.7673,231.663 L144.7673,237.6017 L146.58,237.6017 L146.58,239.1886 L141.154,239.1886 L141.154,237.6017 L142.9667,237.6017 L142.9667,231.663 Z " fill="#000000"/><text fill="#D8BC00" font-family="Open Sans,Avenir,Nunito,Arial,Helvetica,SansSerif" font-size="12.5" font-style="italic" font-weight="bold" lengthAdjust="spacing" textLength="83.3333" x="160.4167" y="239.2253">Intersectable</text><line style="stroke:#5E5E5E;stroke-width:1.0416666666666667;" x1="130.2083" x2="248.9583" y1="250.1953" y2="250.1953"/><line style="stroke:#5E5E5E;stroke-width:1.0416666666666667;" x1="130.2083" x2="248.9583" y1="258.5286" y2="258.5286"/><rect codeLine="14" fill="#282828" height="150.946" id="PolygonSpatialIndex" rx="8.3333" ry="8.3333" style="stroke:#5E5E5E;stroke-width:1.0416666666666667;" width="270.8333" x="51.0417" y="678.182"/><rect fill="#1B1B1A" height="31.3883" rx="8.3333" ry="8.3333" style="stroke:#1B1B1A;stroke-width:1.0416666666666667;" width="270.8333" x="51.0417" y="678.182"/><rect fill="#1B1B1A" height="8.3333" style="stroke:#1B1B1A;stroke-width:1.0416666666666667;" width="270.8333" x="51.0417" y="701.237"/><rect codeLine="14" fill="none" height="150.946" id="PolygonSpatialIndex" rx="8.3333" ry="8.3333" style="stroke:#5E5E5E;stroke-width:1.0416666666666667;" width="270.8333" x="51.0417" y="678.182"/><ellipse cx="113.5417" cy="693.8761" fill="#0066CF" rx="10.4167" ry="10.4167" style="stroke:#0086EF;stroke-width:1.0416666666666667;"/><path d="M115.4521,698.3012 Q115.0248,698.5209 114.5549,698.6308 Q114.0849,698.7406 113.5661,698.7406 Q111.7228,698.7406 110.7524,697.526 Q109.7819,696.3114 109.7819,694.0165 Q109.7819,691.7155 110.7524,690.5009 Q111.7228,689.2863 113.5661,689.2863 Q114.0849,689.2863 114.561,689.3962 Q115.037,689.506 115.4521,689.7257 L115.4521,691.7277 Q114.9882,691.3005 114.5518,691.1021 Q114.1154,690.9037 113.6515,690.9037 Q112.6628,690.9037 112.1592,691.688 Q111.6557,692.4723 111.6557,694.0165 Q111.6557,695.5546 112.1592,696.3389 Q112.6628,697.1232 113.6515,697.1232 Q114.1154,697.1232 114.5518,696.9248 Q114.9882,696.7265 115.4521,696.2992 Z " fill="#000000"/><text fill="#D8BC00" font-family="Open Sans,Avenir,Nunito,Arial,Helvetica,SansSerif" font-size="12.5" font-weight="bold" lengthAdjust="spacing" textLength="131.25" x="136.4583" y="698.6003">PolygonSpatialIndex</text><line style="stroke:#5E5E5E;stroke-width:1.5625;" x1="52.0833" x2="320.8333" y1="709.5703" y2="709.5703"/><polygon fill="#FFFF44" points="62.5,739.7319,66.6667,743.8985,62.5,748.0652,58.3333,743.8985" style="stroke:#B38D22;stroke-width:1.0416666666666667;"/><text fill="#D8BC00" font-family="Open Sans,Avenir,Nunito,Arial,Helvetica,SansSerif" font-size="11.4583" lengthAdjust="spacing" textLength="120.8333" x="73.9583" y="751.8514">PolygonSpatialIndex()</text><ellipse cx="62.5" cy="764.6851" fill="#84BE84" rx="3.125" ry="3.125" style="stroke:#038048;stroke-width:1.0416666666666667;"/><text fill="#D8BC00" font-family="Open Sans,Avenir,Nunito,Arial,Helvetica,SansSerif" font-size="11.4583" lengthAdjust="spacing" textLength="165.625" x="73.9583" y="771.5963">PolygonSpatialIndex(Polygon)</text><line style="stroke:#5E5E5E;stroke-width:1.0416666666666667;" x1="52.0833" x2="142.7083" y1="727.7761" y2="727.7761"/><text fill="#D8BC00" font-family="Open Sans,Avenir,Nunito,Arial,Helvetica,SansSerif" font-size="11.4583" lengthAdjust="spacing" textLength="81.25" x="145.8333" y="731.5857">(constructors)</text><line style="stroke:#5E5E5E;stroke-width:1.0416666666666667;" x1="230.2083" x2="320.8333" y1="727.7761" y2="727.7761"/><line style="stroke:#5E5E5E;stroke-width:1.0416666666666667;" x1="52.0833" x2="320.8333" y1="781.3049" y2="781.3049"/><ellipse cx="62.5" cy="792.7633" fill="#84BE84" rx="3.125" ry="3.125" style="stroke:#038048;stroke-width:1.0416666666666667;"/><text fill="#D8BC00" font-family="Open Sans,Avenir,Nunito,Arial,Helvetica,SansSerif" font-size="11.4583" lengthAdjust="spacing" textLength="238.5417" x="73.9583" y="799.6745">void debug(PolygonSpatialIndexDebugger)</text><ellipse cx="62.5" cy="812.5081" fill="#84BE84" rx="3.125" ry="3.125" style="stroke:#038048;stroke-width:1.0416666666666667;"/><text fill="#D8BC00" font-family="Open Sans,Avenir,Nunito,Arial,Helvetica,SansSerif" font-size="11.4583" lengthAdjust="spacing" textLength="94.7917" x="73.9583" y="819.4194">void visit(Visitor)</text><rect codeLine="24" fill="#282828" height="372.3063" id="QuadTreeSpatialIndex" rx="8.3333" ry="8.3333" style="stroke:#5E5E5E;stroke-width:1.0416666666666667;" width="394.7917" x="757.8125" y="56.8278"/><rect fill="#1B1B1A" height="31.3883" rx="8.3333" ry="8.3333" style="stroke:#1B1B1A;stroke-width:1.0416666666666667;" width="394.7917" x="757.8125" y="56.8278"/><rect fill="#1B1B1A" height="8.3333" style="stroke:#1B1B1A;stroke-width:1.0416666666666667;" width="394.7917" x="757.8125" y="79.8828"/><rect codeLine="24" fill="none" height="372.3063" id="QuadTreeSpatialIndex" rx="8.3333" ry="8.3333" style="stroke:#5E5E5E;stroke-width:1.0416666666666667;" width="394.7917" x="757.8125" y="56.8278"/><ellipse cx="845.8333" cy="72.522" fill="#0066CF" rx="10.4167" ry="10.4167" style="stroke:#0086EF;stroke-width:1.0416666666666667;"/><path d="M847.7437,76.947 Q847.3165,77.1667 846.8465,77.2766 Q846.3765,77.3865 845.8577,77.3865 Q844.0145,77.3865 843.044,76.1719 Q842.0736,74.9573 842.0736,72.6624 Q842.0736,70.3613 843.044,69.1467 Q844.0145,67.9321 845.8577,67.9321 Q846.3765,67.9321 846.8526,68.042 Q847.3287,68.1519 847.7437,68.3716 L847.7437,70.3735 Q847.2799,69.9463 846.8435,69.7479 Q846.4071,69.5496 845.9432,69.5496 Q844.9544,69.5496 844.4509,70.3339 Q843.9473,71.1182 843.9473,72.6624 Q843.9473,74.2004 844.4509,74.9847 Q844.9544,75.769 845.9432,75.769 Q846.4071,75.769 846.8435,75.5707 Q847.2799,75.3723 847.7437,74.9451 Z " fill="#000000"/><text fill="#D8BC00" font-family="Open Sans,Avenir,Nunito,Arial,Helvetica,SansSerif" font-size="12.5" font-weight="bold" lengthAdjust="spacing" textLength="141.6667" x="868.75" y="77.2461">QuadTreeSpatialIndex</text><rect fill="#333333" height="23.055" style="stroke:#A0A0A0;stroke-width:1.0416666666666667;stroke-dasharray:2.0,2.0;" width="60.4167" x="1095.3125" y="53.7028"/><text fill="#A0A0A0" font-family="Open Sans,Avenir,Nunito,Arial,Helvetica,SansSerif" font-size="12.5" font-weight="bold" lengthAdjust="spacing" textLength="52.0833" x="1099.4792" y="69.9544">Element</text><line style="stroke:#5E5E5E;stroke-width:1.5625;" x1="758.8542" x2="1151.5625" y1="88.2161" y2="88.2161"/><ellipse cx="769.2708" cy="123.586" fill="#84BE84" rx="3.125" ry="3.125" style="stroke:#038048;stroke-width:1.0416666666666667;"/><text fill="#D8BC00" font-family="Open Sans,Avenir,Nunito,Arial,Helvetica,SansSerif" font-size="11.4583" lengthAdjust="spacing" textLength="131.25" x="780.7292" y="130.4972">QuadTreeSpatialIndex()</text><ellipse cx="769.2708" cy="143.3309" fill="#84BE84" rx="3.125" ry="3.125" style="stroke:#038048;stroke-width:1.0416666666666667;"/><text fill="#D8BC00" font-family="Open Sans,Avenir,Nunito,Arial,Helvetica,SansSerif" font-size="11.4583" lengthAdjust="spacing" textLength="200" x="780.7292" y="150.2421">QuadTreeSpatialIndex(int, Distance)</text><line style="stroke:#5E5E5E;stroke-width:1.0416666666666667;" x1="758.8542" x2="911.4583" y1="106.4219" y2="106.4219"/><text fill="#D8BC00" font-family="Open Sans,Avenir,Nunito,Arial,Helvetica,SansSerif" font-size="11.4583" lengthAdjust="spacing" textLength="81.25" x="914.5833" y="110.2315">(constructors)</text><line style="stroke:#5E5E5E;stroke-width:1.0416666666666667;" x1="998.9583" x2="1151.5625" y1="106.4219" y2="106.4219"/><line style="stroke:#5E5E5E;stroke-width:1.0416666666666667;" x1="758.8542" x2="1151.5625" y1="159.9508" y2="159.9508"/><ellipse cx="769.2708" cy="171.4091" fill="#84BE84" rx="3.125" ry="3.125" style="stroke:#038048;stroke-width:1.0416666666666667;"/><text fill="#D8BC00" font-family="Open Sans,Avenir,Nunito,Arial,Helvetica,SansSerif" font-size="11.4583" lengthAdjust="spacing" textLength="108.3333" x="780.7292" y="178.3203">Rectangle bounds()</text><ellipse cx="769.2708" cy="191.154" fill="#84BE84" rx="3.125" ry="3.125" style="stroke:#038048;stroke-width:1.0416666666666667;"/><text fill="#D8BC00" font-family="Open Sans,Avenir,Nunito,Arial,Helvetica,SansSerif" font-size="11.4583" lengthAdjust="spacing" textLength="154.1667" x="780.7292" y="198.0652">void dump(PrintStream out)</text><ellipse cx="769.2708" cy="210.8988" fill="#84BE84" rx="3.125" ry="3.125" style="stroke:#038048;stroke-width:1.0416666666666667;"/><text fill="#D8BC00" font-family="Open Sans,Avenir,Nunito,Arial,Helvetica,SansSerif" font-size="11.4583" lengthAdjust="spacing" textLength="296.875" x="780.7292" y="217.8101">boolean replace(Element oldValue, Element newValue)</text><ellipse cx="769.2708" cy="254.5553" fill="#84BE84" rx="3.125" ry="3.125" style="stroke:#038048;stroke-width:1.0416666666666667;"/><text fill="#D8BC00" font-family="Open Sans,Avenir,Nunito,Arial,Helvetica,SansSerif" font-size="11.4583" lengthAdjust="spacing" textLength="137.5" x="780.7292" y="261.4665">void add(Element object)</text><ellipse cx="769.2708" cy="274.3001" fill="#84BE84" rx="3.125" ry="3.125" style="stroke:#038048;stroke-width:1.0416666666666667;"/><text fill="#D8BC00" font-family="Open Sans,Avenir,Nunito,Arial,Helvetica,SansSerif" font-size="11.4583" lengthAdjust="spacing" textLength="218.75" x="780.7292" y="281.2113">void addAll(Iterable&lt;Element&gt; objects)</text><ellipse cx="769.2708" cy="294.045" fill="#84BE84" rx="3.125" ry="3.125" style="stroke:#038048;stroke-width:1.0416666666666667;"/><text fill="#D8BC00" font-family="Open Sans,Avenir,Nunito,Arial,Helvetica,SansSerif" font-size="11.4583" lengthAdjust="spacing" textLength="62.5" x="780.7292" y="300.9562">void clear()</text><ellipse cx="769.2708" cy="313.7899" fill="#84BE84" rx="3.125" ry="3.125" style="stroke:#038048;stroke-width:1.0416666666666667;"/><text fill="#D8BC00" font-family="Open Sans,Avenir,Nunito,Arial,Helvetica,SansSerif" font-size="11.4583" lengthAdjust="spacing" textLength="78.125" x="780.7292" y="320.7011">Count count()</text><ellipse cx="769.2708" cy="333.5347" fill="#84BE84" rx="3.125" ry="3.125" style="stroke:#038048;stroke-width:1.0416666666666667;"/><text fill="#D8BC00" font-family="Open Sans,Avenir,Nunito,Arial,Helvetica,SansSerif" font-size="11.4583" lengthAdjust="spacing" textLength="362.5" x="780.7292" y="340.446">Iterator&lt;Element&gt; inside(Rectangle bounds, Matcher&lt;Element&gt;)</text><ellipse cx="769.2708" cy="353.2796" fill="#84BE84" rx="3.125" ry="3.125" style="stroke:#038048;stroke-width:1.0416666666666667;"/><text fill="#D8BC00" font-family="Open Sans,Avenir,Nunito,Arial,Helvetica,SansSerif" font-size="11.4583" lengthAdjust="spacing" textLength="248.9583" x="780.7292" y="360.1908">Iterator&lt;Element&gt; inside(Rectangle bounds)</text><ellipse cx="769.2708" cy="373.0245" fill="#84BE84" rx="3.125" ry="3.125" style="stroke:#038048;stroke-width:1.0416666666666667;"/><text fill="#D8BC00" font-family="Open Sans,Avenir,Nunito,Arial,Helvetica,SansSerif" font-size="11.4583" lengthAdjust="spacing" textLength="158.3333" x="780.7292" y="379.9357">void remove(Element object)</text><ellipse cx="769.2708" cy="392.7694" fill="#84BE84" rx="3.125" ry="3.125" style="stroke:#038048;stroke-width:1.0416666666666667;"/><text fill="#D8BC00" font-family="Open Sans,Avenir,Nunito,Arial,Helvetica,SansSerif" font-size="11.4583" lengthAdjust="spacing" textLength="305.2083" x="780.7292" y="399.6806">void removeAll(Rectangle bounds, Matcher&lt;Element&gt;)</text><ellipse cx="769.2708" cy="412.5142" fill="#84BE84" rx="3.125" ry="3.125" style="stroke:#038048;stroke-width:1.0416666666666667;"/><text fill="#D8BC00" font-family="Open Sans,Avenir,Nunito,Arial,Helvetica,SansSerif" font-size="11.4583" lengthAdjust="spacing" textLength="47.9167" x="780.7292" y="419.4255">int size()</text><line style="stroke:#5E5E5E;stroke-width:1.0416666666666667;" x1="758.8542" x2="920.8333" y1="237.3912" y2="237.3912"/><text fill="#D8BC00" font-family="Open Sans,Avenir,Nunito,Arial,Helvetica,SansSerif" font-size="11.4583" lengthAdjust="spacing" textLength="62.5" x="923.9583" y="241.2008">(collection)</text><line style="stroke:#5E5E5E;stroke-width:1.0416666666666667;" x1="989.5833" x2="1151.5625" y1="237.3912" y2="237.3912"/><rect codeLine="46" fill="#282828" height="194.6025" id="RTreeBulkLoader" rx="8.3333" ry="8.3333" style="stroke:#5E5E5E;stroke-width:1.0416666666666667;" width="296.875" x="424.4792" y="145.3695"/><rect fill="#1B1B1A" height="31.3883" rx="8.3333" ry="8.3333" style="stroke:#1B1B1A;stroke-width:1.0416666666666667;" width="296.875" x="424.4792" y="145.3695"/><rect fill="#1B1B1A" height="8.3333" style="stroke:#1B1B1A;stroke-width:1.0416666666666667;" width="296.875" x="424.4792" y="168.4245"/><rect codeLine="46" fill="none" height="194.6025" id="RTreeBulkLoader" rx="8.3333" ry="8.3333" style="stroke:#5E5E5E;stroke-width:1.0416666666666667;" width="296.875" x="424.4792" y="145.3695"/><ellipse cx="479.6875" cy="161.0636" fill="#0066CF" rx="10.4167" ry="10.4167" style="stroke:#0086EF;stroke-width:1.0416666666666667;"/><path d="M481.5979,165.4887 Q481.1707,165.7084 480.7007,165.8183 Q480.2307,165.9281 479.7119,165.9281 Q477.8687,165.9281 476.8982,164.7135 Q475.9277,163.4989 475.9277,161.204 Q475.9277,158.903 476.8982,157.6884 Q477.8687,156.4738 479.7119,156.4738 Q480.2307,156.4738 480.7068,156.5837 Q481.1829,156.6935 481.5979,156.9132 L481.5979,158.9152 Q481.134,158.488 480.6976,158.2896 Q480.2612,158.0912 479.7974,158.0912 Q478.8086,158.0912 478.3051,158.8755 Q477.8015,159.6598 477.8015,161.204 Q477.8015,162.7421 478.3051,163.5264 Q478.8086,164.3107 479.7974,164.3107 Q480.2612,164.3107 480.6976,164.1123 Q481.134,163.914 481.5979,163.4867 Z " fill="#000000"/><text fill="#D8BC00" font-family="Open Sans,Avenir,Nunito,Arial,Helvetica,SansSerif" font-size="12.5" font-weight="bold" lengthAdjust="spacing" textLength="109.375" x="502.6042" y="165.7878">RTreeBulkLoader</text><rect fill="#333333" height="23.055" style="stroke:#A0A0A0;stroke-width:1.0416666666666667;stroke-dasharray:2.0,2.0;" width="60.4167" x="664.0625" y="142.2445"/><text fill="#A0A0A0" font-family="Open Sans,Avenir,Nunito,Arial,Helvetica,SansSerif" font-size="12.5" font-weight="bold" lengthAdjust="spacing" textLength="52.0833" x="668.2292" y="158.4961">Element</text><line style="stroke:#5E5E5E;stroke-width:1.5625;" x1="425.5208" x2="720.3125" y1="176.7578" y2="176.7578"/><ellipse cx="435.9375" cy="212.1277" fill="#84BE84" rx="3.125" ry="3.125" style="stroke:#038048;stroke-width:1.0416666666666667;"/><text fill="#D8BC00" font-family="Open Sans,Avenir,Nunito,Arial,Helvetica,SansSerif" font-size="11.4583" lengthAdjust="spacing" textLength="264.5833" x="447.3958" y="219.0389">RTreeBulkLoader(RTreeSpatialIndex&lt;Element&gt;)</text><line style="stroke:#5E5E5E;stroke-width:1.0416666666666667;" x1="425.5208" x2="529.1667" y1="194.9636" y2="194.9636"/><text fill="#D8BC00" font-family="Open Sans,Avenir,Nunito,Arial,Helvetica,SansSerif" font-size="11.4583" lengthAdjust="spacing" textLength="81.25" x="532.2917" y="198.7732">(constructors)</text><line style="stroke:#5E5E5E;stroke-width:1.0416666666666667;" x1="616.6667" x2="720.3125" y1="194.9636" y2="194.9636"/><line style="stroke:#5E5E5E;stroke-width:1.0416666666666667;" x1="425.5208" x2="720.3125" y1="228.7476" y2="228.7476"/><ellipse cx="435.9375" cy="240.2059" fill="#84BE84" rx="3.125" ry="3.125" style="stroke:#038048;stroke-width:1.0416666666666667;"/><text fill="#D8BC00" font-family="Open Sans,Avenir,Nunito,Arial,Helvetica,SansSerif" font-size="11.4583" lengthAdjust="spacing" textLength="160.4167" x="447.3958" y="247.1171">double log(int base, int num)</text><polygon fill="#FFFF44" points="435.9375,254.7424,440.1042,258.9091,435.9375,263.0758,431.7708,258.9091" style="stroke:#B38D22;stroke-width:1.0416666666666667;"/><text fill="#D8BC00" font-family="Open Sans,Avenir,Nunito,Arial,Helvetica,SansSerif" font-size="11.4583" lengthAdjust="spacing" textLength="246.875" x="447.3958" y="266.862">int compareHorizontal(Element a, Element b)</text><polygon fill="#FFFF44" points="435.9375,274.4873,440.1042,278.654,435.9375,282.8206,431.7708,278.654" style="stroke:#B38D22;stroke-width:1.0416666666666667;"/><text fill="#D8BC00" font-family="Open Sans,Avenir,Nunito,Arial,Helvetica,SansSerif" font-size="11.4583" lengthAdjust="spacing" textLength="230.2083" x="447.3958" y="286.6069">int compareVertical(Element a, Element b)</text><ellipse cx="435.9375" cy="323.3521" fill="#84BE84" rx="3.125" ry="3.125" style="stroke:#038048;stroke-width:1.0416666666666667;"/><text fill="#D8BC00" font-family="Open Sans,Avenir,Nunito,Arial,Helvetica,SansSerif" font-size="11.4583" lengthAdjust="spacing" textLength="194.7917" x="447.3958" y="330.2633">void load(List&lt;Element&gt; elements)</text><line style="stroke:#5E5E5E;stroke-width:1.0416666666666667;" x1="425.5208" x2="553.125" y1="306.1879" y2="306.1879"/><text fill="#D8BC00" font-family="Open Sans,Avenir,Nunito,Arial,Helvetica,SansSerif" font-size="11.4583" lengthAdjust="spacing" textLength="33.3333" x="556.25" y="309.9976">(read)</text><line style="stroke:#5E5E5E;stroke-width:1.0416666666666667;" x1="592.7083" x2="720.3125" y1="306.1879" y2="306.1879"/><rect codeLine="59" fill="#282828" height="479.364" id="RTreeSpatialIndex" rx="8.3333" ry="8.3333" style="stroke:#5E5E5E;stroke-width:1.0416666666666667;" width="428.125" x="358.8542" y="514.1195"/><rect fill="#1B1B1A" height="31.3883" rx="8.3333" ry="8.3333" style="stroke:#1B1B1A;stroke-width:1.0416666666666667;" width="428.125" x="358.8542" y="514.1195"/><rect fill="#1B1B1A" height="8.3333" style="stroke:#1B1B1A;stroke-width:1.0416666666666667;" width="428.125" x="358.8542" y="537.1745"/><rect codeLine="59" fill="none" height="479.364" id="RTreeSpatialIndex" rx="8.3333" ry="8.3333" style="stroke:#5E5E5E;stroke-width:1.0416666666666667;" width="428.125" x="358.8542" y="514.1195"/><ellipse cx="476.5625" cy="529.8136" fill="#0066CF" rx="10.4167" ry="10.4167" style="stroke:#0086EF;stroke-width:1.0416666666666667;"/><path d="M478.4729,534.2387 Q478.0457,534.4584 477.5757,534.5683 Q477.1057,534.6781 476.5869,534.6781 Q474.7437,534.6781 473.7732,533.4635 Q472.8027,532.2489 472.8027,529.954 Q472.8027,527.653 473.7732,526.4384 Q474.7437,525.2238 476.5869,525.2238 Q477.1057,525.2238 477.5818,525.3337 Q478.0579,525.4435 478.4729,525.6632 L478.4729,527.6652 Q478.009,527.238 477.5726,527.0396 Q477.1362,526.8412 476.6724,526.8412 Q475.6836,526.8412 475.1801,527.6255 Q474.6765,528.4098 474.6765,529.954 Q474.6765,531.4921 475.1801,532.2764 Q475.6836,533.0607 476.6724,533.0607 Q477.1362,533.0607 477.5726,532.8623 Q478.009,532.664 478.4729,532.2367 Z " fill="#000000"/><text fill="#D8BC00" font-family="Open Sans,Avenir,Nunito,Arial,Helvetica,SansSerif" font-size="12.5" font-weight="bold" lengthAdjust="spacing" textLength="115.625" x="499.4792" y="534.5378">RTreeSpatialIndex</text><rect fill="#333333" height="23.055" style="stroke:#A0A0A0;stroke-width:1.0416666666666667;stroke-dasharray:2.0,2.0;" width="60.4167" x="729.6875" y="510.9945"/><text fill="#A0A0A0" font-family="Open Sans,Avenir,Nunito,Arial,Helvetica,SansSerif" font-size="12.5" font-weight="bold" lengthAdjust="spacing" textLength="52.0833" x="733.8542" y="527.2461">Element</text><line style="stroke:#5E5E5E;stroke-width:1.5625;" x1="359.8958" x2="785.9375" y1="545.5078" y2="545.5078"/><polygon fill="#FFFF44" points="370.3125,575.6694,374.4792,579.836,370.3125,584.0027,366.1458,579.836" style="stroke:#B38D22;stroke-width:1.0416666666666667;"/><text fill="#D8BC00" font-family="Open Sans,Avenir,Nunito,Arial,Helvetica,SansSerif" font-size="11.4583" lengthAdjust="spacing" textLength="108.3333" x="381.7708" y="587.7889">RTreeSpatialIndex()</text><ellipse cx="370.3125" cy="600.6226" fill="#84BE84" rx="3.125" ry="3.125" style="stroke:#038048;stroke-width:1.0416666666666667;"/><text fill="#D8BC00" font-family="Open Sans,Avenir,Nunito,Arial,Helvetica,SansSerif" font-size="11.4583" lengthAdjust="spacing" textLength="225" x="381.7708" y="607.5338">RTreeSpatialIndex(String, RTreeSettings)</text><line style="stroke:#5E5E5E;stroke-width:1.0416666666666667;" x1="359.8958" x2="529.1667" y1="563.7136" y2="563.7136"/><text fill="#D8BC00" font-family="Open Sans,Avenir,Nunito,Arial,Helvetica,SansSerif" font-size="11.4583" lengthAdjust="spacing" textLength="81.25" x="532.2917" y="567.5232">(constructors)</text><line style="stroke:#5E5E5E;stroke-width:1.0416666666666667;" x1="616.6667" x2="785.9375" y1="563.7136" y2="563.7136"/><line style="stroke:#5E5E5E;stroke-width:1.0416666666666667;" x1="359.8958" x2="785.9375" y1="617.2424" y2="617.2424"/><ellipse cx="370.3125" cy="628.7008" fill="#84BE84" rx="3.125" ry="3.125" style="stroke:#038048;stroke-width:1.0416666666666667;"/><text fill="#D8BC00" font-family="Open Sans,Avenir,Nunito,Arial,Helvetica,SansSerif" font-size="11.4583" lengthAdjust="spacing" textLength="307.2917" x="381.7708" y="635.612">void debugger(RTreeSpatialIndexDebugger&lt;Element&gt;)</text><ellipse cx="370.3125" cy="648.4456" fill="#84BE84" rx="3.125" ry="3.125" style="stroke:#038048;stroke-width:1.0416666666666667;"/><text fill="#D8BC00" font-family="Open Sans,Avenir,Nunito,Arial,Helvetica,SansSerif" font-size="11.4583" lengthAdjust="spacing" textLength="154.1667" x="381.7708" y="655.3569">void dump(PrintStream out)</text><ellipse cx="370.3125" cy="668.1905" fill="#84BE84" rx="3.125" ry="3.125" style="stroke:#038048;stroke-width:1.0416666666666667;"/><text fill="#D8BC00" font-family="Open Sans,Avenir,Nunito,Arial,Helvetica,SansSerif" font-size="11.4583" lengthAdjust="spacing" textLength="253.125" x="381.7708" y="675.1017">void dump(PrintStream out, DumpDetailLevel)</text><ellipse cx="370.3125" cy="687.9354" fill="#84BE84" rx="3.125" ry="3.125" style="stroke:#038048;stroke-width:1.0416666666666667;"/><text fill="#D8BC00" font-family="Open Sans,Avenir,Nunito,Arial,Helvetica,SansSerif" font-size="11.4583" lengthAdjust="spacing" textLength="178.125" x="381.7708" y="694.8466">void root(Node&lt;Element&gt; root)</text><ellipse cx="370.3125" cy="707.6803" fill="#84BE84" rx="3.125" ry="3.125" style="stroke:#038048;stroke-width:1.0416666666666667;"/><text fill="#D8BC00" font-family="Open Sans,Avenir,Nunito,Arial,Helvetica,SansSerif" font-size="11.4583" lengthAdjust="spacing" textLength="133.3333" x="381.7708" y="714.5915">RTreeSettings settings()</text><ellipse cx="370.3125" cy="727.4251" fill="#84BE84" rx="3.125" ry="3.125" style="stroke:#038048;stroke-width:1.0416666666666667;"/><text fill="#D8BC00" font-family="Open Sans,Avenir,Nunito,Arial,Helvetica,SansSerif" font-size="11.4583" lengthAdjust="spacing" textLength="111.4583" x="381.7708" y="734.3363">Statistics statistics()</text><ellipse cx="370.3125" cy="747.17" fill="#84BE84" rx="3.125" ry="3.125" style="stroke:#038048;stroke-width:1.0416666666666667;"/><text fill="#D8BC00" font-family="Open Sans,Avenir,Nunito,Arial,Helvetica,SansSerif" font-size="11.4583" lengthAdjust="spacing" textLength="125" x="381.7708" y="754.0812">boolean visualDebug()</text><ellipse cx="370.3125" cy="790.8264" fill="#84BE84" rx="3.125" ry="3.125" style="stroke:#038048;stroke-width:1.0416666666666667;"/><text fill="#D8BC00" font-family="Open Sans,Avenir,Nunito,Arial,Helvetica,SansSerif" font-size="11.4583" lengthAdjust="spacing" textLength="100" x="381.7708" y="797.7376">void add(Element)</text><ellipse cx="370.3125" cy="810.5713" fill="#84BE84" rx="3.125" ry="3.125" style="stroke:#038048;stroke-width:1.0416666666666667;"/><text fill="#D8BC00" font-family="Open Sans,Avenir,Nunito,Arial,Helvetica,SansSerif" font-size="11.4583" lengthAdjust="spacing" textLength="128.125" x="381.7708" y="817.4825">Iterable&lt;Element&gt; all()</text><ellipse cx="370.3125" cy="830.3162" fill="#84BE84" rx="3.125" ry="3.125" style="stroke:#038048;stroke-width:1.0416666666666667;"/><text fill="#D8BC00" font-family="Open Sans,Avenir,Nunito,Arial,Helvetica,SansSerif" font-size="11.4583" lengthAdjust="spacing" textLength="78.125" x="381.7708" y="837.2274">Count count()</text><ellipse cx="370.3125" cy="850.061" fill="#84BE84" rx="3.125" ry="3.125" style="stroke:#038048;stroke-width:1.0416666666666667;"/><text fill="#D8BC00" font-family="Open Sans,Avenir,Nunito,Arial,Helvetica,SansSerif" font-size="11.4583" lengthAdjust="spacing" textLength="283.3333" x="381.7708" y="856.9722">RTreeSpatialIndexDebugger&lt;Element&gt; debugger()</text><ellipse cx="370.3125" cy="869.8059" fill="#84BE84" rx="3.125" ry="3.125" style="stroke:#038048;stroke-width:1.0416666666666667;"/><text fill="#D8BC00" font-family="Open Sans,Avenir,Nunito,Arial,Helvetica,SansSerif" font-size="11.4583" lengthAdjust="spacing" textLength="282.2917" x="381.7708" y="876.7171">Iterable&lt;Element&gt; intersecting(Rectangle bounds)</text><ellipse cx="370.3125" cy="889.5508" fill="#84BE84" rx="3.125" ry="3.125" style="stroke:#038048;stroke-width:1.0416666666666667;"/><text fill="#D8BC00" font-family="Open Sans,Avenir,Nunito,Arial,Helvetica,SansSerif" font-size="11.4583" lengthAdjust="spacing" textLength="395.8333" x="381.7708" y="896.462">Iterable&lt;Element&gt; intersecting(Rectangle bounds, Matcher&lt;Element&gt;)</text><line style="stroke:#5E5E5E;stroke-width:1.0416666666666667;" x1="359.8958" x2="538.5417" y1="773.6623" y2="773.6623"/><text fill="#D8BC00" font-family="Open Sans,Avenir,Nunito,Arial,Helvetica,SansSerif" font-size="11.4583" lengthAdjust="spacing" textLength="62.5" x="541.6667" y="777.4719">(collection)</text><line style="stroke:#5E5E5E;stroke-width:1.0416666666666667;" x1="607.2917" x2="785.9375" y1="773.6623" y2="773.6623"/><ellipse cx="370.3125" cy="933.2072" fill="#84BE84" rx="3.125" ry="3.125" style="stroke:#038048;stroke-width:1.0416666666666667;"/><text fill="#D8BC00" font-family="Open Sans,Avenir,Nunito,Arial,Helvetica,SansSerif" font-size="11.4583" lengthAdjust="spacing" textLength="314.5833" x="381.7708" y="940.1184">Leaf&lt;Element&gt; newLeaf(InteriorNode&lt;Element&gt; parent)</text><line style="stroke:#5E5E5E;stroke-width:1.0416666666666667;" x1="359.8958" x2="545.8333" y1="916.0431" y2="916.0431"/><text fill="#D8BC00" font-family="Open Sans,Avenir,Nunito,Arial,Helvetica,SansSerif" font-size="11.4583" lengthAdjust="spacing" textLength="47.9167" x="548.9583" y="919.8527">(factory)</text><line style="stroke:#5E5E5E;stroke-width:1.0416666666666667;" x1="600" x2="785.9375" y1="916.0431" y2="916.0431"/><ellipse cx="370.3125" cy="976.8636" fill="#84BE84" rx="3.125" ry="3.125" style="stroke:#038048;stroke-width:1.0416666666666667;"/><text fill="#D8BC00" font-family="Open Sans,Avenir,Nunito,Arial,Helvetica,SansSerif" font-size="11.4583" lengthAdjust="spacing" textLength="221.875" x="381.7708" y="983.7748">void bulkLoad(List&lt;Element&gt; elements)</text><line style="stroke:#5E5E5E;stroke-width:1.0416666666666667;" x1="359.8958" x2="553.125" y1="959.6995" y2="959.6995"/><text fill="#D8BC00" font-family="Open Sans,Avenir,Nunito,Arial,Helvetica,SansSerif" font-size="11.4583" lengthAdjust="spacing" textLength="33.3333" x="556.25" y="963.5091">(read)</text><line style="stroke:#5E5E5E;stroke-width:1.0416666666666667;" x1="592.7083" x2="785.9375" y1="959.6995" y2="959.6995"/><rect codeLine="86" fill="#282828" height="83.3781" id="SegmentRTreeSpatialIndex" rx="8.3333" ry="8.3333" style="stroke:#5E5E5E;stroke-width:1.0416666666666667;" width="396.875" x="374.4792" y="1056.8278"/><rect fill="#1B1B1A" height="31.3883" rx="8.3333" ry="8.3333" style="stroke:#1B1B1A;stroke-width:1.0416666666666667;" width="396.875" x="374.4792" y="1056.8278"/><rect fill="#1B1B1A" height="8.3333" style="stroke:#1B1B1A;stroke-width:1.0416666666666667;" width="396.875" x="374.4792" y="1079.8828"/><rect codeLine="86" fill="none" height="83.3781" id="SegmentRTreeSpatialIndex" rx="8.3333" ry="8.3333" style="stroke:#5E5E5E;stroke-width:1.0416666666666667;" width="396.875" x="374.4792" y="1056.8278"/><ellipse cx="479.6875" cy="1072.522" fill="#0066CF" rx="10.4167" ry="10.4167" style="stroke:#0086EF;stroke-width:1.0416666666666667;"/><path d="M481.5979,1076.947 Q481.1707,1077.1667 480.7007,1077.2766 Q480.2307,1077.3865 479.7119,1077.3865 Q477.8687,1077.3865 476.8982,1076.1719 Q475.9277,1074.9573 475.9277,1072.6624 Q475.9277,1070.3613 476.8982,1069.1467 Q477.8687,1067.9321 479.7119,1067.9321 Q480.2307,1067.9321 480.7068,1068.042 Q481.1829,1068.1519 481.5979,1068.3716 L481.5979,1070.3735 Q481.134,1069.9463 480.6976,1069.7479 Q480.2612,1069.5496 479.7974,1069.5496 Q478.8086,1069.5496 478.3051,1070.3339 Q477.8015,1071.1182 477.8015,1072.6624 Q477.8015,1074.2004 478.3051,1074.9847 Q478.8086,1075.769 479.7974,1075.769 Q480.2612,1075.769 480.6976,1075.5707 Q481.134,1075.3723 481.5979,1074.9451 Z " fill="#000000"/><text fill="#D8BC00" font-family="Open Sans,Avenir,Nunito,Arial,Helvetica,SansSerif" font-size="12.5" font-weight="bold" lengthAdjust="spacing" textLength="171.875" x="502.6042" y="1077.2461">SegmentRTreeSpatialIndex</text><line style="stroke:#5E5E5E;stroke-width:1.5625;" x1="375.5208" x2="770.3125" y1="1088.2161" y2="1088.2161"/><ellipse cx="385.9375" cy="1123.586" fill="#84BE84" rx="3.125" ry="3.125" style="stroke:#038048;stroke-width:1.0416666666666667;"/><text fill="#D8BC00" font-family="Open Sans,Avenir,Nunito,Arial,Helvetica,SansSerif" font-size="11.4583" lengthAdjust="spacing" textLength="364.5833" x="397.3958" y="1130.4972">SegmentRTreeSpatialIndex(String, Maximum, Iterable&lt;Segment&gt;)</text><line style="stroke:#5E5E5E;stroke-width:1.0416666666666667;" x1="375.5208" x2="529.1667" y1="1106.4219" y2="1106.4219"/><text fill="#D8BC00" font-family="Open Sans,Avenir,Nunito,Arial,Helvetica,SansSerif" font-size="11.4583" lengthAdjust="spacing" textLength="81.25" x="532.2917" y="1110.2315">(constructors)</text><line style="stroke:#5E5E5E;stroke-width:1.0416666666666667;" x1="616.6667" x2="770.3125" y1="1106.4219" y2="1106.4219"/><path codeLine="11" d="M189.3125,287.859 C188.7813,375.0049 187.5833,570.2757 186.9167,677.9111 " fill="none" id="Intersectable-backto-PolygonSpatialIndex" style="stroke:#545454;stroke-width:1.5625;"/><polygon fill="none" points="182.0208,287.7861,189.4375,266.9945,196.6042,287.8695,182.0208,287.7861" style="stroke:#545454;stroke-width:1.5625;"/><path codeLine="12" d="M325.625,287.0257 C299.7083,373.7549 241.0729,569.932 208.8021,677.9111 " fill="none" id="Bounded-backto-PolygonSpatialIndex" style="stroke:#545454;stroke-width:1.5625;"/><polygon fill="none" points="318.6563,284.8695,331.6146,266.9945,332.6354,289.0465,318.6563,284.8695" style="stroke:#545454;stroke-width:1.5625;"/><path codeLine="13" d="M61.6667,287.2965 C84.9583,374.1715 137.4896,570.0465 166.4167,677.9111 " fill="none" id="Outline-backto-PolygonSpatialIndex" style="stroke:#545454;stroke-width:1.5625;"/><polygon fill="none" points="54.5729,289.0049,56.2188,266.9945,68.6563,285.2236,54.5729,289.0049" style="stroke:#545454;stroke-width:1.5625;"/><path codeLine="45" d="M572.9167,340.4215 C572.9167,388.4736 572.9167,448.9424 572.9167,508.6507 " fill="none" id="RTreeBulkLoader-to-RTreeSpatialIndex" style="stroke:#545454;stroke-width:1.5625;"/><polygon fill="#545454" points="572.9167,514.0465,577.0833,504.6715,572.9167,508.8382,568.75,504.6715,572.9167,514.0465" style="stroke:#545454;stroke-width:1.5625;"/><text fill="#A0A0A0" font-family="Open Sans,Avenir,Nunito,Arial,Helvetica,SansSerif" font-size="12.5" font-weight="bold" lengthAdjust="spacing" textLength="35.4167" x="577.0833" y="476.2044">loads</text><path codeLine="58" d="M352.625,286.8903 C365.3958,324.7445 385.375,381.0674 406.25,428.7028 C418.5,456.6507 432.0521,485.5778 445.9896,514.109 " fill="none" id="Bounded-backto-RTreeSpatialIndex" style="stroke:#545454;stroke-width:1.5625;"/><polygon fill="none" points="345.6458,289.0049,345.9792,266.9424,359.4792,284.4007,345.6458,289.0049" style="stroke:#545454;stroke-width:1.5625;"/><path codeLine="85" d="M572.9167,1014.557 C572.9167,1030.182 572.9167,1044.4528 572.9167,1056.5882 " fill="none" id="RTreeSpatialIndex-backto-SegmentRTreeSpatialIndex" style="stroke:#545454;stroke-width:1.5625;"/><polygon fill="none" points="565.625,1014.5361,572.9167,993.7028,580.2083,1014.5361,565.625,1014.5361" style="stroke:#545454;stroke-width:1.5625;"/></g></svg>
