<?xml version="1.0" encoding="UTF-8" standalone="no"?><svg xmlns="http://www.w3.org/2000/svg" xmlns:xlink="http://www.w3.org/1999/xlink" contentScriptType="application/ecmascript" contentStyleType="text/css" height="218.75px" preserveAspectRatio="none" style="width:656px;height:218px;background:#333333;" version="1.1" viewBox="0 0 656 218" width="656.25px" zoomAndPan="magnify"><defs/><g><rect fill="#48494B" height="41.2028" rx="8.3333" ry="8.3333" style="stroke:#545454;stroke-width:1.0416666666666667;" width="643.75" x="2.0833" y="2.0833"/><text fill="#C0C0C0" font-family="Open Sans,Avenir,Nunito,Arial,Helvetica,SansSerif" font-size="20.8333" lengthAdjust="spacing" textLength="620.8333" x="13.5417" y="30.5583">com.telenav.mesakit.map.data.formats.library.internal.lexakai</text><rect codeLine="13" fill="#282828" height="48.055" id="UmlDiagramIdentifier" rx="8.3333" ry="8.3333" style="stroke:#5E5E5E;stroke-width:1.0416666666666667;" width="178.125" x="231.5104" y="53.7028"/><rect fill="#1B1B1A" height="31.3883" rx="8.3333" ry="8.3333" style="stroke:#1B1B1A;stroke-width:1.0416666666666667;" width="178.125" x="231.5104" y="53.7028"/><rect fill="#1B1B1A" height="8.3333" style="stroke:#1B1B1A;stroke-width:1.0416666666666667;" width="178.125" x="231.5104" y="76.7578"/><rect codeLine="13" fill="none" height="48.055" id="UmlDiagramIdentifier" rx="8.3333" ry="8.3333" style="stroke:#5E5E5E;stroke-width:1.0416666666666667;" width="178.125" x="231.5104" y="53.7028"/><ellipse cx="246.0938" cy="69.397" fill="#008400" rx="10.4167" ry="10.4167" style="stroke:#239C23;stroke-width:1.0416666666666667;"/><path d="M243.4977,66.5588 L243.4977,64.9719 L248.9237,64.9719 L248.9237,66.5588 L247.111,66.5588 L247.111,72.4976 L248.9237,72.4976 L248.9237,74.0845 L243.4977,74.0845 L243.4977,72.4976 L245.3105,72.4976 L245.3105,66.5588 Z " fill="#000000"/><text fill="#D8BC00" font-family="Open Sans,Avenir,Nunito,Arial,Helvetica,SansSerif" font-size="12.5" font-style="italic" font-weight="bold" lengthAdjust="spacing" textLength="140.625" x="262.7604" y="74.1211">UmlDiagramIdentifier</text><line style="stroke:#5E5E5E;stroke-width:1.0416666666666667;" x1="232.5521" x2="408.5938" y1="85.0911" y2="85.0911"/><line style="stroke:#5E5E5E;stroke-width:1.0416666666666667;" x1="232.5521" x2="408.5938" y1="93.4245" y2="93.4245"/><rect codeLine="9" fill="#282828" height="48.055" id="DiagramDataFormat" rx="8.3333" ry="8.3333" style="stroke:#5E5E5E;stroke-width:1.0416666666666667;" width="168.75" x="123.6979" y="164.1195"/><rect fill="#1B1B1A" height="31.3883" rx="8.3333" ry="8.3333" style="stroke:#1B1B1A;stroke-width:1.0416666666666667;" width="168.75" x="123.6979" y="164.1195"/><rect fill="#1B1B1A" height="8.3333" style="stroke:#1B1B1A;stroke-width:1.0416666666666667;" width="168.75" x="123.6979" y="187.1745"/><rect codeLine="9" fill="none" height="48.055" id="DiagramDataFormat" rx="8.3333" ry="8.3333" style="stroke:#5E5E5E;stroke-width:1.0416666666666667;" width="168.75" x="123.6979" y="164.1195"/><ellipse cx="138.2813" cy="179.8136" fill="#008400" rx="10.4167" ry="10.4167" style="stroke:#239C23;stroke-width:1.0416666666666667;"/><path d="M135.6852,176.9755 L135.6852,175.3886 L141.1112,175.3886 L141.1112,176.9755 L139.2985,176.9755 L139.2985,182.9142 L141.1112,182.9142 L141.1112,184.5011 L135.6852,184.5011 L135.6852,182.9142 L137.498,182.9142 L137.498,176.9755 Z " fill="#000000"/><text fill="#D8BC00" font-family="Open Sans,Avenir,Nunito,Arial,Helvetica,SansSerif" font-size="12.5" font-style="italic" font-weight="bold" lengthAdjust="spacing" textLength="131.25" x="154.9479" y="184.5378">DiagramDataFormat</text><line style="stroke:#5E5E5E;stroke-width:1.0416666666666667;" x1="124.7396" x2="291.4063" y1="195.5078" y2="195.5078"/><line style="stroke:#5E5E5E;stroke-width:1.0416666666666667;" x1="124.7396" x2="291.4063" y1="203.8411" y2="203.8411"/><rect codeLine="15" fill="#282828" height="48.055" id="DiagramDataMapIdentifier" rx="8.3333" ry="8.3333" style="stroke:#5E5E5E;stroke-width:1.0416666666666667;" width="209.375" x="329.4271" y="164.1195"/><rect fill="#1B1B1A" height="31.3883" rx="8.3333" ry="8.3333" style="stroke:#1B1B1A;stroke-width:1.0416666666666667;" width="209.375" x="329.4271" y="164.1195"/><rect fill="#1B1B1A" height="8.3333" style="stroke:#1B1B1A;stroke-width:1.0416666666666667;" width="209.375" x="329.4271" y="187.1745"/><rect codeLine="15" fill="none" height="48.055" id="DiagramDataMapIdentifier" rx="8.3333" ry="8.3333" style="stroke:#5E5E5E;stroke-width:1.0416666666666667;" width="209.375" x="329.4271" y="164.1195"/><ellipse cx="344.0104" cy="179.8136" fill="#008400" rx="10.4167" ry="10.4167" style="stroke:#239C23;stroke-width:1.0416666666666667;"/><path d="M341.4144,176.9755 L341.4144,175.3886 L346.8404,175.3886 L346.8404,176.9755 L345.0277,176.9755 L345.0277,182.9142 L346.8404,182.9142 L346.8404,184.5011 L341.4144,184.5011 L341.4144,182.9142 L343.2271,182.9142 L343.2271,176.9755 Z " fill="#000000"/><text fill="#D8BC00" font-family="Open Sans,Avenir,Nunito,Arial,Helvetica,SansSerif" font-size="12.5" font-style="italic" font-weight="bold" lengthAdjust="spacing" textLength="171.875" x="360.6771" y="184.5378">DiagramDataMapIdentifier</text><line style="stroke:#5E5E5E;stroke-width:1.0416666666666667;" x1="330.4688" x2="537.7604" y1="195.5078" y2="195.5078"/><line style="stroke:#5E5E5E;stroke-width:1.0416666666666667;" x1="330.4688" x2="537.7604" y1="203.8411" y2="203.8411"/><path codeLine="8" d="M281.2188,116.5986 C264.7708,132.432 246.2083,150.3174 231.8958,164.0986 " fill="none" id="UmlDiagramIdentifier-backto-DiagramDataFormat" style="stroke:#545454;stroke-width:1.5625;"/><polygon fill="none" points="276.6458,110.8799,296.7188,101.682,286.7708,121.3799,276.6458,110.8799" style="stroke:#545454;stroke-width:1.5625;"/><path codeLine="14" d="M359.7813,116.109 C376.5,132.0674 395.4792,150.1715 410.0729,164.0986 " fill="none" id="UmlDiagramIdentifier-backto-DiagramDataMapIdentifier" style="stroke:#545454;stroke-width:1.5625;"/><polygon fill="none" points="354.6875,121.3382,344.6563,101.682,364.7604,110.7861,354.6875,121.3382" style="stroke:#545454;stroke-width:1.5625;"/></g></svg>
