<?xml version="1.0" encoding="UTF-8" standalone="no"?><svg xmlns="http://www.w3.org/2000/svg" xmlns:xlink="http://www.w3.org/1999/xlink" contentScriptType="application/ecmascript" contentStyleType="text/css" height="207.2917px" preserveAspectRatio="none" style="width:217px;height:207px;background:#333333;" version="1.1" viewBox="0 0 217 207" width="217.7083px" zoomAndPan="magnify"><defs/><g><rect fill="#48494B" height="41.2028" rx="8.3333" ry="8.3333" style="stroke:#545454;stroke-width:1.0416666666666667;" width="205.2083" x="2.0833" y="2.0833"/><text fill="#C0C0C0" font-family="Open Sans,Avenir,Nunito,Arial,Helvetica,SansSerif" font-size="20.8333" lengthAdjust="spacing" textLength="182.2917" x="13.5417" y="30.5583">Map Data Formats</text><rect codeLine="7" fill="#282828" height="146.7794" id="DataFormat" rx="8.3333" ry="8.3333" style="stroke:#5E5E5E;stroke-width:1.0416666666666667;" width="113.5417" x="48.4375" y="53.7028"/><rect fill="#1B1B1A" height="31.3883" rx="8.3333" ry="8.3333" style="stroke:#1B1B1A;stroke-width:1.0416666666666667;" width="113.5417" x="48.4375" y="53.7028"/><rect fill="#1B1B1A" height="8.3333" style="stroke:#1B1B1A;stroke-width:1.0416666666666667;" width="113.5417" x="48.4375" y="76.7578"/><rect codeLine="7" fill="none" height="146.7794" id="DataFormat" rx="8.3333" ry="8.3333" style="stroke:#5E5E5E;stroke-width:1.0416666666666667;" width="113.5417" x="48.4375" y="53.7028"/><ellipse cx="63.0208" cy="69.397" fill="#CF6300" rx="10.4167" ry="10.4167" style="stroke:#EF8300;stroke-width:1.0416666666666667;"/><path d="M66.0767,74.0845 L60.4004,74.0845 L60.4004,64.9719 L66.0767,64.9719 L66.0767,66.5588 L62.2009,66.5588 L62.2009,68.5242 L65.7104,68.5242 L65.7104,70.1111 L62.2009,70.1111 L62.2009,72.4976 L66.0767,72.4976 Z " fill="#000000"/><text fill="#D8BC00" font-family="Open Sans,Avenir,Nunito,Arial,Helvetica,SansSerif" font-size="12.5" font-weight="bold" lengthAdjust="spacing" textLength="76.0417" x="79.6875" y="74.1211">DataFormat</text><line style="stroke:#5E5E5E;stroke-width:1.0416666666666667;" x1="49.4792" x2="160.9375" y1="85.0911" y2="85.0911"/><text fill="#D8BC00" font-family="Open Sans,Avenir,Nunito,Arial,Helvetica,SansSerif" font-size="11.4583" lengthAdjust="spacing" textLength="21.875" x="57.8125" y="103.4607">CSV</text><text fill="#D8BC00" font-family="Open Sans,Avenir,Nunito,Arial,Helvetica,SansSerif" font-size="11.4583" lengthAdjust="spacing" textLength="51.0417" x="57.8125" y="123.2056">Database</text><text fill="#D8BC00" font-family="Open Sans,Avenir,Nunito,Arial,Helvetica,SansSerif" font-size="11.4583" lengthAdjust="spacing" textLength="34.375" x="57.8125" y="142.9504">Graph</text><text fill="#D8BC00" font-family="Open Sans,Avenir,Nunito,Arial,Helvetica,SansSerif" font-size="11.4583" lengthAdjust="spacing" textLength="18.75" x="57.8125" y="162.6953">PBF</text><text fill="#D8BC00" font-family="Open Sans,Avenir,Nunito,Arial,Helvetica,SansSerif" font-size="11.4583" lengthAdjust="spacing" textLength="22.9167" x="57.8125" y="182.4402">XML</text><line style="stroke:#5E5E5E;stroke-width:1.0416666666666667;" x1="49.4792" x2="160.9375" y1="192.1488" y2="192.1488"/></g></svg>
