<?xml version="1.0" encoding="UTF-8" standalone="no"?><svg xmlns="http://www.w3.org/2000/svg" xmlns:xlink="http://www.w3.org/1999/xlink" contentScriptType="application/ecmascript" contentStyleType="text/css" height="218.75px" preserveAspectRatio="none" style="width:546px;height:218px;background:#333333;" version="1.1" viewBox="0 0 546 218" width="546.875px" zoomAndPan="magnify"><defs/><g><rect fill="#48494B" height="41.2028" rx="8.3333" ry="8.3333" style="stroke:#545454;stroke-width:1.0416666666666667;" width="534.375" x="2.0833" y="2.0833"/><text fill="#C0C0C0" font-family="Open Sans,Avenir,Nunito,Arial,Helvetica,SansSerif" font-size="20.8333" lengthAdjust="spacing" textLength="511.4583" x="13.5417" y="30.5583">com.telenav.mesakit.map.overpass.internal.lexakai</text><rect codeLine="7" fill="#282828" height="48.055" id="UmlDiagramIdentifier" rx="8.3333" ry="8.3333" style="stroke:#5E5E5E;stroke-width:1.0416666666666667;" width="178.125" x="187.5" y="53.7028"/><rect fill="#1B1B1A" height="31.3883" rx="8.3333" ry="8.3333" style="stroke:#1B1B1A;stroke-width:1.0416666666666667;" width="178.125" x="187.5" y="53.7028"/><rect fill="#1B1B1A" height="8.3333" style="stroke:#1B1B1A;stroke-width:1.0416666666666667;" width="178.125" x="187.5" y="76.7578"/><rect codeLine="7" fill="none" height="48.055" id="UmlDiagramIdentifier" rx="8.3333" ry="8.3333" style="stroke:#5E5E5E;stroke-width:1.0416666666666667;" width="178.125" x="187.5" y="53.7028"/><ellipse cx="202.0833" cy="69.397" fill="#008400" rx="10.4167" ry="10.4167" style="stroke:#239C23;stroke-width:1.0416666666666667;"/><path d="M199.4873,66.5588 L199.4873,64.9719 L204.9133,64.9719 L204.9133,66.5588 L203.1006,66.5588 L203.1006,72.4976 L204.9133,72.4976 L204.9133,74.0845 L199.4873,74.0845 L199.4873,72.4976 L201.3,72.4976 L201.3,66.5588 Z " fill="#000000"/><text fill="#D8BC00" font-family="Open Sans,Avenir,Nunito,Arial,Helvetica,SansSerif" font-size="12.5" font-style="italic" font-weight="bold" lengthAdjust="spacing" textLength="140.625" x="218.75" y="74.1211">UmlDiagramIdentifier</text><line style="stroke:#5E5E5E;stroke-width:1.0416666666666667;" x1="188.5417" x2="364.5833" y1="85.0911" y2="85.0911"/><line style="stroke:#5E5E5E;stroke-width:1.0416666666666667;" x1="188.5417" x2="364.5833" y1="93.4245" y2="93.4245"/><rect codeLine="9" fill="#282828" height="48.055" id="DiagramOverpass" rx="8.3333" ry="8.3333" style="stroke:#5E5E5E;stroke-width:1.0416666666666667;" width="153.125" x="200" y="164.1195"/><rect fill="#1B1B1A" height="31.3883" rx="8.3333" ry="8.3333" style="stroke:#1B1B1A;stroke-width:1.0416666666666667;" width="153.125" x="200" y="164.1195"/><rect fill="#1B1B1A" height="8.3333" style="stroke:#1B1B1A;stroke-width:1.0416666666666667;" width="153.125" x="200" y="187.1745"/><rect codeLine="9" fill="none" height="48.055" id="DiagramOverpass" rx="8.3333" ry="8.3333" style="stroke:#5E5E5E;stroke-width:1.0416666666666667;" width="153.125" x="200" y="164.1195"/><ellipse cx="214.5833" cy="179.8136" fill="#008400" rx="10.4167" ry="10.4167" style="stroke:#239C23;stroke-width:1.0416666666666667;"/><path d="M211.9873,176.9755 L211.9873,175.3886 L217.4133,175.3886 L217.4133,176.9755 L215.6006,176.9755 L215.6006,182.9142 L217.4133,182.9142 L217.4133,184.5011 L211.9873,184.5011 L211.9873,182.9142 L213.8,182.9142 L213.8,176.9755 Z " fill="#000000"/><text fill="#D8BC00" font-family="Open Sans,Avenir,Nunito,Arial,Helvetica,SansSerif" font-size="12.5" font-style="italic" font-weight="bold" lengthAdjust="spacing" textLength="115.625" x="231.25" y="184.5378">DiagramOverpass</text><line style="stroke:#5E5E5E;stroke-width:1.0416666666666667;" x1="201.0417" x2="352.0833" y1="195.5078" y2="195.5078"/><line style="stroke:#5E5E5E;stroke-width:1.0416666666666667;" x1="201.0417" x2="352.0833" y1="203.8411" y2="203.8411"/><path codeLine="8" d="M276.5625,122.6195 C276.5625,136.8382 276.5625,152.0361 276.5625,164.0986 " fill="none" id="UmlDiagramIdentifier-backto-DiagramOverpass" style="stroke:#545454;stroke-width:1.5625;"/><polygon fill="none" points="269.2708,122.5153,276.5625,101.682,283.8542,122.5153,269.2708,122.5153" style="stroke:#545454;stroke-width:1.5625;"/></g></svg>
