<?xml version="1.0" encoding="UTF-8" standalone="no"?><svg xmlns="http://www.w3.org/2000/svg" xmlns:xlink="http://www.w3.org/1999/xlink" contentScriptType="application/ecmascript" contentStyleType="text/css" height="282.2917px" preserveAspectRatio="none" style="width:427px;height:282px;background:#333333;" version="1.1" viewBox="0 0 427 282" width="427.0833px" zoomAndPan="magnify"><defs/><g><rect fill="#48494B" height="41.2028" rx="8.3333" ry="8.3333" style="stroke:#545454;stroke-width:1.0416666666666667;" width="414.5833" x="2.0833" y="2.0833"/><text fill="#C0C0C0" font-family="Open Sans,Avenir,Nunito,Arial,Helvetica,SansSerif" font-size="20.8333" lengthAdjust="spacing" textLength="391.6667" x="13.5417" y="30.5583">com.telenav.mesakit.map.overpass.pbf</text><rect codeLine="7" fill="#282828" height="48.055" id="BaseRepeater" rx="8.3333" ry="8.3333" style="stroke:#5E5E5E;stroke-width:1.0416666666666667;" width="123.9583" x="154.6875" y="53.7028"/><rect fill="#1B1B1A" height="31.3883" rx="8.3333" ry="8.3333" style="stroke:#1B1B1A;stroke-width:1.0416666666666667;" width="123.9583" x="154.6875" y="53.7028"/><rect fill="#1B1B1A" height="8.3333" style="stroke:#1B1B1A;stroke-width:1.0416666666666667;" width="123.9583" x="154.6875" y="76.7578"/><rect codeLine="7" fill="none" height="48.055" id="BaseRepeater" rx="8.3333" ry="8.3333" style="stroke:#5E5E5E;stroke-width:1.0416666666666667;" width="123.9583" x="154.6875" y="53.7028"/><ellipse cx="169.2708" cy="69.397" fill="#C8AC00" rx="10.4167" ry="10.4167" style="stroke:#D8BC00;stroke-width:1.0416666666666667;"/><path d="M168.8639,66.099 L168.0155,69.8283 L169.7184,69.8283 Z M167.7653,64.4511 L169.9687,64.4511 L172.4284,73.5636 L170.6278,73.5636 L170.0663,71.3114 L167.6554,71.3114 L167.1061,73.5636 L165.3056,73.5636 Z " fill="#000000"/><text fill="#D8BC00" font-family="Open Sans,Avenir,Nunito,Arial,Helvetica,SansSerif" font-size="12.5" font-style="italic" font-weight="bold" lengthAdjust="spacing" textLength="86.4583" x="185.9375" y="74.1211">BaseRepeater</text><line style="stroke:#5E5E5E;stroke-width:1.0416666666666667;" x1="155.7292" x2="277.6042" y1="85.0911" y2="85.0911"/><line style="stroke:#5E5E5E;stroke-width:1.0416666666666667;" x1="155.7292" x2="277.6042" y1="93.4245" y2="93.4245"/><rect codeLine="10" fill="#282828" height="111.4563" id="OsmToPbfConverter" rx="8.3333" ry="8.3333" style="stroke:#5E5E5E;stroke-width:1.0416666666666667;" width="200" x="116.6667" y="164.1195"/><rect fill="#1B1B1A" height="31.3883" rx="8.3333" ry="8.3333" style="stroke:#1B1B1A;stroke-width:1.0416666666666667;" width="200" x="116.6667" y="164.1195"/><rect fill="#1B1B1A" height="8.3333" style="stroke:#1B1B1A;stroke-width:1.0416666666666667;" width="200" x="116.6667" y="187.1745"/><rect codeLine="10" fill="none" height="111.4563" id="OsmToPbfConverter" rx="8.3333" ry="8.3333" style="stroke:#5E5E5E;stroke-width:1.0416666666666667;" width="200" x="116.6667" y="164.1195"/><ellipse cx="145.3125" cy="179.8136" fill="#0066CF" rx="10.4167" ry="10.4167" style="stroke:#0086EF;stroke-width:1.0416666666666667;"/><path d="M147.2229,184.2387 Q146.7957,184.4584 146.3257,184.5683 Q145.8557,184.6781 145.3369,184.6781 Q143.4937,184.6781 142.5232,183.4635 Q141.5527,182.2489 141.5527,179.954 Q141.5527,177.653 142.5232,176.4384 Q143.4937,175.2238 145.3369,175.2238 Q145.8557,175.2238 146.3318,175.3337 Q146.8079,175.4435 147.2229,175.6632 L147.2229,177.6652 Q146.759,177.238 146.3226,177.0396 Q145.8862,176.8412 145.4224,176.8412 Q144.4336,176.8412 143.9301,177.6255 Q143.4265,178.4098 143.4265,179.954 Q143.4265,181.4921 143.9301,182.2764 Q144.4336,183.0607 145.4224,183.0607 Q145.8862,183.0607 146.3226,182.8623 Q146.759,182.664 147.2229,182.2367 Z " fill="#000000"/><text fill="#D8BC00" font-family="Open Sans,Avenir,Nunito,Arial,Helvetica,SansSerif" font-size="12.5" font-weight="bold" lengthAdjust="spacing" textLength="131.25" x="165.1042" y="184.5378">OsmToPbfConverter</text><line style="stroke:#5E5E5E;stroke-width:1.5625;" x1="117.7083" x2="315.625" y1="195.5078" y2="195.5078"/><ellipse cx="128.125" cy="230.8777" fill="#84BE84" rx="3.125" ry="3.125" style="stroke:#038048;stroke-width:1.0416666666666667;"/><text fill="#D8BC00" font-family="Open Sans,Avenir,Nunito,Arial,Helvetica,SansSerif" font-size="11.4583" lengthAdjust="spacing" textLength="167.7083" x="139.5833" y="237.7889">OsmToPbfConverter(Listener)</text><line style="stroke:#5E5E5E;stroke-width:1.0416666666666667;" x1="117.7083" x2="172.9167" y1="213.7136" y2="213.7136"/><text fill="#D8BC00" font-family="Open Sans,Avenir,Nunito,Arial,Helvetica,SansSerif" font-size="11.4583" lengthAdjust="spacing" textLength="81.25" x="176.0417" y="217.5232">(constructors)</text><line style="stroke:#5E5E5E;stroke-width:1.0416666666666667;" x1="260.4167" x2="315.625" y1="213.7136" y2="213.7136"/><line style="stroke:#5E5E5E;stroke-width:1.0416666666666667;" x1="117.7083" x2="315.625" y1="247.4976" y2="247.4976"/><ellipse cx="128.125" cy="258.9559" fill="#84BE84" rx="3.125" ry="3.125" style="stroke:#038048;stroke-width:1.0416666666666667;"/><text fill="#D8BC00" font-family="Open Sans,Avenir,Nunito,Arial,Helvetica,SansSerif" font-size="11.4583" lengthAdjust="spacing" textLength="157.2917" x="139.5833" y="265.8671">void convert(File in, File out)</text><path codeLine="9" d="M216.6667,122.7028 C216.6667,135.7549 216.6667,150.2028 216.6667,163.859 " fill="none" id="BaseRepeater-backto-OsmToPbfConverter" style="stroke:#545454;stroke-width:1.5625;"/><polygon fill="none" points="209.375,122.6715,216.6667,101.8382,223.9583,122.6715,209.375,122.6715" style="stroke:#545454;stroke-width:1.5625;"/></g></svg>
