<?xml version="1.0" encoding="UTF-8" standalone="no"?><svg xmlns="http://www.w3.org/2000/svg" xmlns:xlink="http://www.w3.org/1999/xlink" contentScriptType="application/ecmascript" contentStyleType="text/css" height="238.5417px" preserveAspectRatio="none" style="width:547px;height:238px;background:#333333;" version="1.1" viewBox="0 0 547 238" width="547.9167px" zoomAndPan="magnify"><defs/><g><rect fill="#48494B" height="41.2028" rx="8.3333" ry="8.3333" style="stroke:#545454;stroke-width:1.0416666666666667;" width="535.4167" x="2.0833" y="2.0833"/><text fill="#C0C0C0" font-family="Open Sans,Avenir,Nunito,Arial,Helvetica,SansSerif" font-size="20.8333" lengthAdjust="spacing" textLength="512.5" x="13.5417" y="30.5583">com.telenav.mesakit.examples.map.measurements</text><rect fill="#282828" height="48.055" id="Application" rx="8.3333" ry="8.3333" style="stroke:#5E5E5E;stroke-width:1.0416666666666667;" width="111.4583" x="221.3542" y="53.7028"/><rect fill="#1B1B1A" height="31.3883" rx="8.3333" ry="8.3333" style="stroke:#1B1B1A;stroke-width:1.0416666666666667;" width="111.4583" x="221.3542" y="53.7028"/><rect fill="#1B1B1A" height="8.3333" style="stroke:#1B1B1A;stroke-width:1.0416666666666667;" width="111.4583" x="221.3542" y="76.7578"/><rect fill="none" height="48.055" id="Application" rx="8.3333" ry="8.3333" style="stroke:#5E5E5E;stroke-width:1.0416666666666667;" width="111.4583" x="221.3542" y="53.7028"/><ellipse cx="235.9375" cy="69.397" fill="#0066CF" rx="10.4167" ry="10.4167" style="stroke:#0086EF;stroke-width:1.0416666666666667;"/><path d="M237.8479,73.822 Q237.4207,74.0417 236.9507,74.1516 Q236.4807,74.2615 235.9619,74.2615 Q234.1187,74.2615 233.1482,73.0469 Q232.1777,71.8323 232.1777,69.5374 Q232.1777,67.2363 233.1482,66.0217 Q234.1187,64.8071 235.9619,64.8071 Q236.4807,64.8071 236.9568,64.917 Q237.4329,65.0269 237.8479,65.2466 L237.8479,67.2485 Q237.384,66.8213 236.9476,66.6229 Q236.5112,66.4246 236.0474,66.4246 Q235.0586,66.4246 234.5551,67.2089 Q234.0515,67.9932 234.0515,69.5374 Q234.0515,71.0754 234.5551,71.8597 Q235.0586,72.644 236.0474,72.644 Q236.5112,72.644 236.9476,72.4457 Q237.384,72.2473 237.8479,71.8201 Z " fill="#000000"/><text fill="#D8BC00" font-family="Open Sans,Avenir,Nunito,Arial,Helvetica,SansSerif" font-size="12.5" font-weight="bold" lengthAdjust="spacing" textLength="73.9583" x="252.6042" y="74.1211">Application</text><line style="stroke:#5E5E5E;stroke-width:1.0416666666666667;" x1="222.3958" x2="331.7708" y1="85.0911" y2="85.0911"/><line style="stroke:#5E5E5E;stroke-width:1.0416666666666667;" x1="222.3958" x2="331.7708" y1="93.4245" y2="93.4245"/><rect codeLine="8" fill="#282828" height="67.7999" id="LocationExample" rx="8.3333" ry="8.3333" style="stroke:#5E5E5E;stroke-width:1.0416666666666667;" width="200" x="177.0833" y="164.1195"/><rect fill="#1B1B1A" height="31.3883" rx="8.3333" ry="8.3333" style="stroke:#1B1B1A;stroke-width:1.0416666666666667;" width="200" x="177.0833" y="164.1195"/><rect fill="#1B1B1A" height="8.3333" style="stroke:#1B1B1A;stroke-width:1.0416666666666667;" width="200" x="177.0833" y="187.1745"/><rect codeLine="8" fill="none" height="67.7999" id="LocationExample" rx="8.3333" ry="8.3333" style="stroke:#5E5E5E;stroke-width:1.0416666666666667;" width="200" x="177.0833" y="164.1195"/><ellipse cx="215.5729" cy="179.8136" fill="#0066CF" rx="10.4167" ry="10.4167" style="stroke:#0086EF;stroke-width:1.0416666666666667;"/><path d="M217.4833,184.2387 Q217.0561,184.4584 216.5861,184.5683 Q216.1161,184.6781 215.5973,184.6781 Q213.7541,184.6781 212.7836,183.4635 Q211.8132,182.2489 211.8132,179.954 Q211.8132,177.653 212.7836,176.4384 Q213.7541,175.2238 215.5973,175.2238 Q216.1161,175.2238 216.5922,175.3337 Q217.0683,175.4435 217.4833,175.6632 L217.4833,177.6652 Q217.0194,177.238 216.583,177.0396 Q216.1466,176.8412 215.6828,176.8412 Q214.694,176.8412 214.1905,177.6255 Q213.6869,178.4098 213.6869,179.954 Q213.6869,181.4921 214.1905,182.2764 Q214.694,183.0607 215.6828,183.0607 Q216.1466,183.0607 216.583,182.8623 Q217.0194,182.664 217.4833,182.2367 Z " fill="#000000"/><text fill="#D8BC00" font-family="Open Sans,Avenir,Nunito,Arial,Helvetica,SansSerif" font-size="12.5" font-weight="bold" lengthAdjust="spacing" textLength="109.375" x="237.5521" y="184.5378">LocationExample</text><line style="stroke:#5E5E5E;stroke-width:1.5625;" x1="178.125" x2="376.0417" y1="195.5078" y2="195.5078"/><line style="stroke:#5E5E5E;stroke-width:1.0416666666666667;" x1="178.125" x2="376.0417" y1="203.8411" y2="203.8411"/><ellipse cx="188.5417" cy="215.2995" fill="#84BE84" rx="3.125" ry="3.125" style="stroke:#038048;stroke-width:1.0416666666666667;"/><text fill="#D8BC00" font-family="Open Sans,Avenir,Nunito,Arial,Helvetica,SansSerif" font-size="11.4583" lengthAdjust="spacing" textLength="167.7083" x="200" y="222.2107">void main(String[] arguments)</text><path codeLine="7" d="M277.0833,123.0674 C277.0833,136.6715 277.0833,151.3799 277.0833,164.0674 " fill="none" id="Application-backto-LocationExample" style="stroke:#545454;stroke-width:1.5625;"/><polygon fill="none" points="269.7917,122.609,277.0833,101.7757,284.375,122.609,269.7917,122.609" style="stroke:#545454;stroke-width:1.5625;"/></g></svg>
