<?xml version="1.0" encoding="UTF-8" standalone="no"?><svg xmlns="http://www.w3.org/2000/svg" xmlns:xlink="http://www.w3.org/1999/xlink" contentScriptType="application/ecmascript" contentStyleType="text/css" height="523.9583px" preserveAspectRatio="none" style="width:598px;height:523px;background:#333333;" version="1.1" viewBox="0 0 598 523" width="598.9583px" zoomAndPan="magnify"><defs/><g><rect fill="#48494B" height="41.2028" rx="8.3333" ry="8.3333" style="stroke:#545454;stroke-width:1.0416666666666667;" width="586.4583" x="2.0833" y="2.0833"/><text fill="#C0C0C0" font-family="Open Sans,Avenir,Nunito,Arial,Helvetica,SansSerif" font-size="20.8333" lengthAdjust="spacing" textLength="563.5417" x="13.5417" y="30.5583">com.telenav.mesakit.map.measurements.motion.speeds</text><!--MD5=[cc8bdd4a75b8c12356a13db8d1cdad21]
class Average--><rect fill="#282828" height="48.055" id="Average" rx="8.3333" ry="8.3333" style="stroke:#5E5E5E;stroke-width:1.0416666666666667;" width="89.5833" x="110.1563" y="107.3486"/><rect fill="#1B1B1A" height="31.3883" rx="8.3333" ry="8.3333" style="stroke:#1B1B1A;stroke-width:1.0416666666666667;" width="89.5833" x="110.1563" y="107.3486"/><rect fill="#1B1B1A" height="8.3333" style="stroke:#1B1B1A;stroke-width:1.0416666666666667;" width="89.5833" x="110.1563" y="130.4036"/><rect fill="none" height="48.055" id="Average" rx="8.3333" ry="8.3333" style="stroke:#5E5E5E;stroke-width:1.0416666666666667;" width="89.5833" x="110.1563" y="107.3486"/><ellipse cx="124.7396" cy="123.0428" fill="#0066CF" rx="10.4167" ry="10.4167" style="stroke:#0086EF;stroke-width:1.0416666666666667;"/><path d="M126.65,127.4679 Q126.2227,127.6876 125.7528,127.7974 Q125.2828,127.9073 124.764,127.9073 Q122.9207,127.9073 121.9503,126.6927 Q120.9798,125.4781 120.9798,123.1832 Q120.9798,120.8822 121.9503,119.6676 Q122.9207,118.453 124.764,118.453 Q125.2828,118.453 125.7589,118.5628 Q126.2349,118.6727 126.65,118.8924 L126.65,120.8944 Q126.1861,120.4671 125.7497,120.2688 Q125.3133,120.0704 124.8494,120.0704 Q123.8607,120.0704 123.3571,120.8547 Q122.8536,121.639 122.8536,123.1832 Q122.8536,124.7213 123.3571,125.5056 Q123.8607,126.2899 124.8494,126.2899 Q125.3133,126.2899 125.7497,126.0915 Q126.1861,125.8931 126.65,125.4659 Z " fill="#000000"/><text fill="#D8BC00" font-family="Open Sans,Avenir,Nunito,Arial,Helvetica,SansSerif" font-size="12.5" font-weight="bold" lengthAdjust="spacing" textLength="52.0833" x="141.4063" y="127.7669">Average</text><line style="stroke:#5E5E5E;stroke-width:1.0416666666666667;" x1="111.1979" x2="198.6979" y1="138.737" y2="138.737"/><line style="stroke:#5E5E5E;stroke-width:1.0416666666666667;" x1="111.1979" x2="198.6979" y1="147.0703" y2="147.0703"/><!--MD5=[1aac0109e0afd688be33496e21b961e4]
class AverageSpeed--><rect codeLine="8" fill="#282828" height="111.4563" id="AverageSpeed" rx="8.3333" ry="8.3333" style="stroke:#5E5E5E;stroke-width:1.0416666666666667;" width="154.1667" x="77.8646" y="272.4528"/><rect fill="#1B1B1A" height="31.3883" rx="8.3333" ry="8.3333" style="stroke:#1B1B1A;stroke-width:1.0416666666666667;" width="154.1667" x="77.8646" y="272.4528"/><rect fill="#1B1B1A" height="8.3333" style="stroke:#1B1B1A;stroke-width:1.0416666666666667;" width="154.1667" x="77.8646" y="295.5078"/><rect codeLine="8" fill="none" height="111.4563" id="AverageSpeed" rx="8.3333" ry="8.3333" style="stroke:#5E5E5E;stroke-width:1.0416666666666667;" width="154.1667" x="77.8646" y="272.4528"/><ellipse cx="104.1667" cy="288.147" fill="#0066CF" rx="10.4167" ry="10.4167" style="stroke:#0086EF;stroke-width:1.0416666666666667;"/><path d="M106.0771,292.572 Q105.6498,292.7917 105.1799,292.9016 Q104.7099,293.0115 104.1911,293.0115 Q102.3478,293.0115 101.3774,291.7969 Q100.4069,290.5823 100.4069,288.2874 Q100.4069,285.9863 101.3774,284.7717 Q102.3478,283.5571 104.1911,283.5571 Q104.7099,283.5571 105.186,283.667 Q105.662,283.7769 106.0771,283.9966 L106.0771,285.9985 Q105.6132,285.5713 105.1768,285.3729 Q104.7404,285.1746 104.2765,285.1746 Q103.2878,285.1746 102.7842,285.9589 Q102.2807,286.7432 102.2807,288.2874 Q102.2807,289.8254 102.7842,290.6097 Q103.2878,291.394 104.2765,291.394 Q104.7404,291.394 105.1768,291.1957 Q105.6132,290.9973 106.0771,290.5701 Z " fill="#000000"/><text fill="#D8BC00" font-family="Open Sans,Avenir,Nunito,Arial,Helvetica,SansSerif" font-size="12.5" font-weight="bold" lengthAdjust="spacing" textLength="90.625" x="123.4375" y="292.8711">AverageSpeed</text><line style="stroke:#5E5E5E;stroke-width:1.5625;" x1="78.9063" x2="230.9896" y1="303.8411" y2="303.8411"/><line style="stroke:#5E5E5E;stroke-width:1.0416666666666667;" x1="78.9063" x2="230.9896" y1="312.1745" y2="312.1745"/><ellipse cx="89.3229" cy="323.6328" fill="#84BE84" rx="3.125" ry="3.125" style="stroke:#038048;stroke-width:1.0416666666666667;"/><text fill="#D8BC00" font-family="Open Sans,Avenir,Nunito,Arial,Helvetica,SansSerif" font-size="11.4583" lengthAdjust="spacing" textLength="121.875" x="100.7813" y="330.544">Speed averageSpeed()</text><ellipse cx="89.3229" cy="367.2892" fill="#84BE84" rx="3.125" ry="3.125" style="stroke:#038048;stroke-width:1.0416666666666667;"/><text fill="#D8BC00" font-family="Open Sans,Avenir,Nunito,Arial,Helvetica,SansSerif" font-size="11.4583" lengthAdjust="spacing" textLength="89.5833" x="100.7813" y="374.2004">void add(Speed)</text><line style="stroke:#5E5E5E;stroke-width:1.0416666666666667;" x1="78.9063" x2="120.5729" y1="350.1251" y2="350.1251"/><text fill="#D8BC00" font-family="Open Sans,Avenir,Nunito,Arial,Helvetica,SansSerif" font-size="11.4583" lengthAdjust="spacing" textLength="62.5" x="123.6979" y="353.9347">(collection)</text><line style="stroke:#5E5E5E;stroke-width:1.0416666666666667;" x1="189.3229" x2="230.9896" y1="350.1251" y2="350.1251"/><!--MD5=[aaa2e902e619045a6f24d394d34237d2]
class Speed--><rect fill="#282828" height="48.055" id="Speed" rx="8.3333" ry="8.3333" style="stroke:#5E5E5E;stroke-width:1.0416666666666667;" width="76.0417" x="225.2604" y="469.3278"/><rect fill="#1B1B1A" height="31.3883" rx="8.3333" ry="8.3333" style="stroke:#1B1B1A;stroke-width:1.0416666666666667;" width="76.0417" x="225.2604" y="469.3278"/><rect fill="#1B1B1A" height="8.3333" style="stroke:#1B1B1A;stroke-width:1.0416666666666667;" width="76.0417" x="225.2604" y="492.3828"/><rect fill="none" height="48.055" id="Speed" rx="8.3333" ry="8.3333" style="stroke:#5E5E5E;stroke-width:1.0416666666666667;" width="76.0417" x="225.2604" y="469.3278"/><ellipse cx="239.8438" cy="485.022" fill="#0066CF" rx="10.4167" ry="10.4167" style="stroke:#0086EF;stroke-width:1.0416666666666667;"/><path d="M241.7542,489.447 Q241.3269,489.6667 240.8569,489.7766 Q240.387,489.8865 239.8682,489.8865 Q238.0249,489.8865 237.0544,488.6719 Q236.084,487.4573 236.084,485.1624 Q236.084,482.8613 237.0544,481.6467 Q238.0249,480.4321 239.8682,480.4321 Q240.387,480.4321 240.863,480.542 Q241.3391,480.6519 241.7542,480.8716 L241.7542,482.8735 Q241.2903,482.4463 240.8539,482.2479 Q240.4175,482.0496 239.9536,482.0496 Q238.9648,482.0496 238.4613,482.8339 Q237.9578,483.6182 237.9578,485.1624 Q237.9578,486.7004 238.4613,487.4847 Q238.9648,488.269 239.9536,488.269 Q240.4175,488.269 240.8539,488.0707 Q241.2903,487.8723 241.7542,487.4451 Z " fill="#000000"/><text fill="#D8BC00" font-family="Open Sans,Avenir,Nunito,Arial,Helvetica,SansSerif" font-size="12.5" font-weight="bold" lengthAdjust="spacing" textLength="38.5417" x="256.5104" y="489.7461">Speed</text><line style="stroke:#5E5E5E;stroke-width:1.0416666666666667;" x1="226.3021" x2="300.2604" y1="500.7161" y2="500.7161"/><line style="stroke:#5E5E5E;stroke-width:1.0416666666666667;" x1="226.3021" x2="300.2604" y1="509.0495" y2="509.0495"/><!--MD5=[94b127aae3f95e7c313ce4454ddf5cc4]
class WeightedAverageSpeed--><rect codeLine="17" fill="#282828" height="111.4563" id="WeightedAverageSpeed" rx="8.3333" ry="8.3333" style="stroke:#5E5E5E;stroke-width:1.0416666666666667;" width="206.25" x="268.4896" y="272.4528"/><rect fill="#1B1B1A" height="31.3883" rx="8.3333" ry="8.3333" style="stroke:#1B1B1A;stroke-width:1.0416666666666667;" width="206.25" x="268.4896" y="272.4528"/><rect fill="#1B1B1A" height="8.3333" style="stroke:#1B1B1A;stroke-width:1.0416666666666667;" width="206.25" x="268.4896" y="295.5078"/><rect codeLine="17" fill="none" height="111.4563" id="WeightedAverageSpeed" rx="8.3333" ry="8.3333" style="stroke:#5E5E5E;stroke-width:1.0416666666666667;" width="206.25" x="268.4896" y="272.4528"/><ellipse cx="291.0417" cy="288.147" fill="#0066CF" rx="10.4167" ry="10.4167" style="stroke:#0086EF;stroke-width:1.0416666666666667;"/><path d="M292.9521,292.572 Q292.5248,292.7917 292.0549,292.9016 Q291.5849,293.0115 291.0661,293.0115 Q289.2228,293.0115 288.2524,291.7969 Q287.2819,290.5823 287.2819,288.2874 Q287.2819,285.9863 288.2524,284.7717 Q289.2228,283.5571 291.0661,283.5571 Q291.5849,283.5571 292.061,283.667 Q292.537,283.7769 292.9521,283.9966 L292.9521,285.9985 Q292.4882,285.5713 292.0518,285.3729 Q291.6154,285.1746 291.1515,285.1746 Q290.1628,285.1746 289.6592,285.9589 Q289.1557,286.7432 289.1557,288.2874 Q289.1557,289.8254 289.6592,290.6097 Q290.1628,291.394 291.1515,291.394 Q291.6154,291.394 292.0518,291.1957 Q292.4882,290.9973 292.9521,290.5701 Z " fill="#000000"/><text fill="#D8BC00" font-family="Open Sans,Avenir,Nunito,Arial,Helvetica,SansSerif" font-size="12.5" font-weight="bold" lengthAdjust="spacing" textLength="151.0417" x="309.4792" y="292.8711">WeightedAverageSpeed</text><line style="stroke:#5E5E5E;stroke-width:1.5625;" x1="269.5313" x2="473.6979" y1="303.8411" y2="303.8411"/><line style="stroke:#5E5E5E;stroke-width:1.0416666666666667;" x1="269.5313" x2="473.6979" y1="312.1745" y2="312.1745"/><ellipse cx="279.9479" cy="323.6328" fill="#84BE84" rx="3.125" ry="3.125" style="stroke:#038048;stroke-width:1.0416666666666667;"/><text fill="#D8BC00" font-family="Open Sans,Avenir,Nunito,Arial,Helvetica,SansSerif" font-size="11.4583" lengthAdjust="spacing" textLength="88.5417" x="291.4063" y="330.544">Speed average()</text><ellipse cx="279.9479" cy="367.2892" fill="#84BE84" rx="3.125" ry="3.125" style="stroke:#038048;stroke-width:1.0416666666666667;"/><text fill="#D8BC00" font-family="Open Sans,Avenir,Nunito,Arial,Helvetica,SansSerif" font-size="11.4583" lengthAdjust="spacing" textLength="173.9583" x="291.4063" y="374.2004">void add(Speed, double weight)</text><line style="stroke:#5E5E5E;stroke-width:1.0416666666666667;" x1="269.5313" x2="337.2396" y1="350.1251" y2="350.1251"/><text fill="#D8BC00" font-family="Open Sans,Avenir,Nunito,Arial,Helvetica,SansSerif" font-size="11.4583" lengthAdjust="spacing" textLength="62.5" x="340.3646" y="353.9347">(collection)</text><line style="stroke:#5E5E5E;stroke-width:1.0416666666666667;" x1="405.9896" x2="473.6979" y1="350.1251" y2="350.1251"/><!--MD5=[8bcb1da606c944ac066bb81ace41ecdb]
class WeightedAverageSpeed.WeightedSpeed--><rect codeLine="25" fill="#282828" height="155.1127" id="WeightedAverageSpeed.WeightedSpeed" rx="8.3333" ry="8.3333" style="stroke:#5E5E5E;stroke-width:1.0416666666666667;" width="290.625" x="236.7188" y="53.7028"/><rect fill="#1B1B1A" height="31.3883" rx="8.3333" ry="8.3333" style="stroke:#1B1B1A;stroke-width:1.0416666666666667;" width="290.625" x="236.7188" y="53.7028"/><rect fill="#1B1B1A" height="8.3333" style="stroke:#1B1B1A;stroke-width:1.0416666666666667;" width="290.625" x="236.7188" y="76.7578"/><rect codeLine="25" fill="none" height="155.1127" id="WeightedAverageSpeed.WeightedSpeed" rx="8.3333" ry="8.3333" style="stroke:#5E5E5E;stroke-width:1.0416666666666667;" width="290.625" x="236.7188" y="53.7028"/><ellipse cx="251.3021" cy="69.397" fill="#0066CF" rx="10.4167" ry="10.4167" style="stroke:#0086EF;stroke-width:1.0416666666666667;"/><path d="M253.2125,73.822 Q252.7852,74.0417 252.3153,74.1516 Q251.8453,74.2615 251.3265,74.2615 Q249.4832,74.2615 248.5128,73.0469 Q247.5423,71.8323 247.5423,69.5374 Q247.5423,67.2363 248.5128,66.0217 Q249.4832,64.8071 251.3265,64.8071 Q251.8453,64.8071 252.3214,64.917 Q252.7974,65.0269 253.2125,65.2466 L253.2125,67.2485 Q252.7486,66.8213 252.3122,66.6229 Q251.8758,66.4246 251.4119,66.4246 Q250.4232,66.4246 249.9196,67.2089 Q249.4161,67.9932 249.4161,69.5374 Q249.4161,71.0754 249.9196,71.8597 Q250.4232,72.644 251.4119,72.644 Q251.8758,72.644 252.3122,72.4457 Q252.7486,72.2473 253.2125,71.8201 Z " fill="#000000"/><text fill="#D8BC00" font-family="Open Sans,Avenir,Nunito,Arial,Helvetica,SansSerif" font-size="12.5" font-weight="bold" lengthAdjust="spacing" textLength="253.125" x="267.9688" y="74.1211">WeightedAverageSpeed.WeightedSpeed</text><line style="stroke:#5E5E5E;stroke-width:1.5625;" x1="237.7604" x2="526.3021" y1="85.0911" y2="85.0911"/><ellipse cx="248.1771" cy="120.461" fill="#84BE84" rx="3.125" ry="3.125" style="stroke:#038048;stroke-width:1.0416666666666667;"/><text fill="#D8BC00" font-family="Open Sans,Avenir,Nunito,Arial,Helvetica,SansSerif" font-size="11.4583" lengthAdjust="spacing" textLength="170.8333" x="259.6354" y="127.3722">WeightedSpeed(Speed, double)</text><line style="stroke:#5E5E5E;stroke-width:1.0416666666666667;" x1="237.7604" x2="338.2813" y1="103.2969" y2="103.2969"/><text fill="#D8BC00" font-family="Open Sans,Avenir,Nunito,Arial,Helvetica,SansSerif" font-size="11.4583" lengthAdjust="spacing" textLength="81.25" x="341.4063" y="107.1065">(constructors)</text><line style="stroke:#5E5E5E;stroke-width:1.0416666666666667;" x1="425.7813" x2="526.3021" y1="103.2969" y2="103.2969"/><line style="stroke:#5E5E5E;stroke-width:1.0416666666666667;" x1="237.7604" x2="526.3021" y1="137.0809" y2="137.0809"/><ellipse cx="248.1771" cy="148.5392" fill="#84BE84" rx="3.125" ry="3.125" style="stroke:#038048;stroke-width:1.0416666666666667;"/><text fill="#D8BC00" font-family="Open Sans,Avenir,Nunito,Arial,Helvetica,SansSerif" font-size="11.4583" lengthAdjust="spacing" textLength="86.4583" x="259.6354" y="155.4504">double weight()</text><ellipse cx="248.1771" cy="192.1956" fill="#84BE84" rx="3.125" ry="3.125" style="stroke:#038048;stroke-width:1.0416666666666667;"/><text fill="#D8BC00" font-family="Open Sans,Avenir,Nunito,Arial,Helvetica,SansSerif" font-size="11.4583" lengthAdjust="spacing" textLength="177.0833" x="259.6354" y="199.1069">double speedInMetersPerHour()</text><line style="stroke:#5E5E5E;stroke-width:1.0416666666666667;" x1="237.7604" x2="362.7604" y1="175.0315" y2="175.0315"/><text fill="#D8BC00" font-family="Open Sans,Avenir,Nunito,Arial,Helvetica,SansSerif" font-size="11.4583" lengthAdjust="spacing" textLength="32.2917" x="365.8854" y="178.8411">(time)</text><line style="stroke:#5E5E5E;stroke-width:1.0416666666666667;" x1="401.3021" x2="526.3021" y1="175.0315" y2="175.0315"/><!--MD5=[0fe3e5a1f5ed395d20d56f2ba3c4274e]
reverse link Average to AverageSpeed--><path codeLine="6" d="M154.9479,176.5049 C154.9479,204.9215 154.9479,242.057 154.9479,272.3486 " fill="none" id="Average-backto-AverageSpeed" style="stroke:#545454;stroke-width:1.5625;"/><polygon fill="none" points="147.6563,176.2965,154.9479,155.4632,162.2396,176.2965,147.6563,176.2965" style="stroke:#545454;stroke-width:1.5625;"/><!--MD5=[ca11b72ed3b5914dff352d41c78b5b81]
link AverageSpeed to Speed--><path codeLine="7" d="M191.3229,383.9632 C209.3438,411.0778 230.3125,442.6403 244.9583,464.6715 " fill="none" id="AverageSpeed-to-Speed" style="stroke:#545454;stroke-width:1.5625;"/><polygon fill="#545454" points="247.9792,469.2236,246.2457,459.1119,245.0901,464.89,239.312,463.7344,247.9792,469.2236" style="stroke:#545454;stroke-width:1.5625;"/><text fill="#A0A0A0" font-family="Open Sans,Avenir,Nunito,Arial,Helvetica,SansSerif" font-size="12.5" font-weight="bold" lengthAdjust="spacing" textLength="63.5417" x="229.9479" y="431.4128">computes</text><!--MD5=[ed4b317a2410fce9cfc0f494d849f2d4]
link WeightedAverageSpeed to Speed--><path codeLine="16" d="M340.375,384.057 C329.8958,401.609 317.8542,420.932 305.9896,438.0778 C299.7292,447.1299 292.4479,456.6715 285.6979,465.182 " fill="none" id="WeightedAverageSpeed-to-Speed" style="stroke:#545454;stroke-width:1.5625;"/><polygon fill="#545454" points="282.4375,469.2653,291.5455,464.5435,285.6893,465.1968,285.036,459.3406,282.4375,469.2653" style="stroke:#545454;stroke-width:1.5625;"/><text fill="#A0A0A0" font-family="Open Sans,Avenir,Nunito,Arial,Helvetica,SansSerif" font-size="12.5" font-weight="bold" lengthAdjust="spacing" textLength="63.5417" x="322.6563" y="431.4128">computes</text><!--MD5=[e6f0b307091a7078b8c104a2409d77c8]
@startuml

    !include lexakai.theme
    
    title "com.telenav.mesakit.map.measurements.motion.speeds"
    
    Average <|- - AverageSpeed
    AverageSpeed - -> Speed : "computes"
    class AverageSpeed
    {
        - -
        +Speed averageSpeed()
        - -(collection)- -
        +void add(Speed)
    }
    
    WeightedAverageSpeed - -> Speed : "computes"
    class WeightedAverageSpeed
    {
        - -
        +Speed average()
        - -(collection)- -
        +void add(Speed, double weight)
    }
    
    class WeightedAverageSpeed.WeightedSpeed
    {
        - -(constructors)- -
        +WeightedSpeed(Speed, double)
        - -
        +double weight()
        - -(time)- -
        +double speedInMetersPerHour()
    }
    
@enduml

@startuml









skinparam backgroundColor #333333






skinparam  {
    defaultFontName   "Open Sans,Avenir,Nunito,Arial,Helvetica,SansSerif"
    defaultFontSize   12
    defaultTextAlignment left
    shadowing false
    RoundCorner 10
    TitleFontSize 18
}

skinparam defaultFontName       "Open Sans,Avenir,Nunito,Arial,Helvetica,SansSerif"
skinparam defaultFontSize       12
skinparam dpi                   100
skinparam shadowing             false
skinparam roundcorner           16
skinparam ParticipantPadding    40
skinparam BoxPadding            40
skinparam Padding               3
skinparam ArrowColor            #545454
skinparam stereotype {
    CBackgroundColor #0066cf
    CBorderColor #0086ef
    ABackgroundColor #C8Ac00
    ABorderColor #D8Bc00
    IBackgroundColor #008400
    IBorderColor #239c23
    EBackgroundColor #cf6300
    EBorderColor #ef8300
    NBackgroundColor #3380b9
    NBorderColor #004d86
}
skinparam title {
	FontColor	                 #c0c0c0
 	BorderColor                  #545454
	FontSize	    	         20
	BorderRoundCorner            16
	BorderThickness 	         1
	BackgroundColor              #48494b
}


skinparam legend {
	BackgroundColor #303030
	BorderColor #404040
	FontColor #a0a0a0
}

	skinparam swimlane {
	BorderColor #5e5e5e
	BorderThickness 2
	TitleBackgroundColor  #6d6d6d-#484848
	TitleFontColor #303030
}

skinparam activity {
		FontColor #C8Ac00
	BorderColor #333333
	BackgroundColor #333333-#333333
	BarColor #00FF00
	StartColor #0060a8
	EndColor #0060a8
	DiamondBackgroundColor #6d6d6d-#3a3a3a
  	DiamondBorderColor #3a3a3a
  	DiamondFontColor #fefefe
}


skinparam participant {
		FontColor #C8Ac00
	BorderColor #333333
	BackgroundColor #333333-#333333
	ParticipantBorderThickness 2
}


skinparam actor {
		FontColor #C8Ac00
	BorderColor #333333
	BackgroundColor #333333-#333333
}


skinparam arrow {
	Thickness 1.5
	Color #545454
	FontColor #a0a0a0
    FontStyle bold
    MessageAlignment center
}



skinparam sequence {
	BorderColor #303030
	TitleFontColor #303030
	BackgroundColor #333333
	StartColor #303030
	EndColor #303030
	BoxBackgroundColor #333333
	BoxBorderColor #484848
	BoxFontColor #484848
	LifeLineBorderColor #484848
	LifeLineBorderThickness 2
	LifeLineBackgroundColor #3a3a3a
	GroupBorderColor #484848
	GroupFontColor #484848
	GroupHeaderFontColor #0060a8
	GroupBackgroundColor #484848
	GroupHeaderBackgroundColor #333333
	DividerBackgroundColor #484848
    DividerBorderColor #484848
    DividerBorderThickness 2
    DividerFontColor #D8Bc00
	ReferenceBackgroundColor #333333
	ReferenceBorderColor #484848
	ReferenceFontColor #fefefe
	ReferenceHeaderBackgroundColor #484848
}


skinparam partition {
	BorderColor #303030
	FontColor #333333
	BackgroundColor #333333
}


skinparam collections {
		FontColor #C8Ac00
	BorderColor #333333
	BackgroundColor #333333-#333333
}


skinparam control {
		FontColor #C8Ac00
	BorderColor #333333
	BackgroundColor #333333-#333333
}


skinparam entity {
		FontColor #C8Ac00
	BorderColor #333333
	BackgroundColor #333333-#333333
}


skinparam boundary {
		FontColor #C8Ac00
	BorderColor #333333
	BackgroundColor #333333-#333333
}


skinparam agent {
	BackgroundColor #ff8000
	BorderColor #ff9933
	FontColor #484848
}


skinparam note {
	BorderThickness 1
	BackgroundColor #1b1b1a
	BorderColor #5e5e5e
	FontSize 11
	FontColor #a0a0a0
}


skinparam artifact {
	BorderThickness 10
	BorderColor #5e5e5e
	BackgroundColor #1b1b1a
	FontColor #D8Bc00
}


skinparam component {
		FontColor #C8Ac00
	BorderColor #333333
	BackgroundColor #333333-#333333
}


skinparam interface {
	BackgroundColor  #008400
	BorderColor  #007F00
	FontColor #484848
}


skinparam storage {
	BackgroundColor #ff8000
  	BorderColor #cc6600
	FontColor #222222
}


skinparam node {
	BackgroundColor #333333
	BorderColor #333333
	FontColor #C8Ac00
}


skinparam cloud {
	BackgroundColor #484848-black
	BorderColor #484848
	FontColor #D8Bc00
}


skinparam database {
		FontColor #C8Ac00
	BorderColor #333333
	BackgroundColor #333333-#333333
	BackgroundColor  #333333
}


skinparam class {
		FontColor #C8Ac00
	BorderColor #333333
	BackgroundColor #333333-#333333
	HeaderBackgroundColor #1b1b1a
    BackgroundColor #282828
    BorderColor #5e5e5e
 	StereotypeFontColor #a0a0a0
    StereotypeFontStyle bold
	BorderThickness 1
	AttributeFontColor #D8Bc00
	AttributeFontSize 11
    FontColor #D8Bc00
    FontStyle bold
}


skinparam object {
		FontColor #C8Ac00
	BorderColor #333333
	BackgroundColor #333333-#333333
	StereotypeFontColor #484848
	BorderThickness 1
	AttributeFontColor #fefefe
	AttributeFontSize 11
}


skinparam usecase {
		FontColor #C8Ac00
	BorderColor #333333
	BackgroundColor #333333-#333333
	BorderThickness 2
	StereotypeFontColor #303030
}


skinparam rectangle {
		FontColor #C8Ac00
	BorderColor #333333
	BackgroundColor #333333-#333333
	BackgroundColor #333333
	BorderThickness 2
	StereotypeFontColor #303030
}


skinparam package {
		FontColor #C8Ac00
	BorderColor #333333
	BackgroundColor #333333-#333333
	BackgroundColor #333333
	BorderThickness 2
}


skinparam folder {
	BackgroundColor #6d6d6d
  	BorderColor #ff8000
	FontColor #ff8000
	BorderThickness 2
}


skinparam frame {
	BackgroundColor #6d6d6d
  	BorderColor #0060a8
	FontColor #0060a8
	BorderThickness 2
}


skinparam state {
		FontColor #C8Ac00
	BorderColor #333333
	BackgroundColor #333333-#333333
	StartColor #0060a8
	EndColor #0060a8
	AttributeFontColor #fefefe
	AttributeFontSize 11
}


skinparam queue {
		FontColor #C8Ac00
	BorderColor #333333
	BackgroundColor #333333-#333333
}


skinparam card {
	BackgroundColor #0060a8
	BorderColor #004d86
	FontColor $INFO_TEXT
}


skinparam file {
	BackgroundColor #6d6d6d-#484848
	BorderColor #0060a8
	FontColor #fefefe
}


skinparam stack {
		FontColor #C8Ac00
	BorderColor #333333
	BackgroundColor #333333-#333333
}

    
    title "com.telenav.mesakit.map.measurements.motion.speeds"
    
    Average <|- - AverageSpeed
    AverageSpeed - -> Speed : "computes"
    class AverageSpeed
    {
        - -
        +Speed averageSpeed()
        - -(collection)- -
        +void add(Speed)
    }
    
    WeightedAverageSpeed - -> Speed : "computes"
    class WeightedAverageSpeed
    {
        - -
        +Speed average()
        - -(collection)- -
        +void add(Speed, double weight)
    }
    
    class WeightedAverageSpeed.WeightedSpeed
    {
        - -(constructors)- -
        +WeightedSpeed(Speed, double)
        - -
        +double weight()
        - -(time)- -
        +double speedInMetersPerHour()
    }
    
@enduml

PlantUML version 1.2021.01(Tue Feb 02 00:55:08 MST 2021)
(GPL source distribution)
Java Runtime: OpenJDK Runtime Environment
JVM: OpenJDK 64-Bit Server VM
Default Encoding: UTF-8
Language: en
Country: US
--></g></svg>