<?xml version="1.0" encoding="UTF-8" standalone="no"?><svg xmlns="http://www.w3.org/2000/svg" xmlns:xlink="http://www.w3.org/1999/xlink" contentScriptType="application/ecmascript" contentStyleType="text/css" height="436.4583px" preserveAspectRatio="none" style="width:953px;height:436px;background:#333333;" version="1.1" viewBox="0 0 953 436" width="953.125px" zoomAndPan="magnify"><defs/><g><rect fill="#48494B" height="41.2028" rx="8.3333" ry="8.3333" style="stroke:#545454;stroke-width:1.0416666666666667;" width="432.2917" x="253.125" y="2.0833"/><text fill="#C0C0C0" font-family="Open Sans,Avenir,Nunito,Arial,Helvetica,SansSerif" font-size="20.8333" lengthAdjust="spacing" textLength="409.375" x="264.5833" y="30.5583">com.telenav.mesakit.map.measurements</text><!--MD5=[d776228a55af1f9e7dd99d395538019c]
class KryoTypes--><rect fill="#282828" height="48.055" id="KryoTypes" rx="8.3333" ry="8.3333" style="stroke:#5E5E5E;stroke-width:1.0416666666666667;" width="106.25" x="54.6875" y="53.7028"/><rect fill="#1B1B1A" height="31.3883" rx="8.3333" ry="8.3333" style="stroke:#1B1B1A;stroke-width:1.0416666666666667;" width="106.25" x="54.6875" y="53.7028"/><rect fill="#1B1B1A" height="8.3333" style="stroke:#1B1B1A;stroke-width:1.0416666666666667;" width="106.25" x="54.6875" y="76.7578"/><rect fill="none" height="48.055" id="KryoTypes" rx="8.3333" ry="8.3333" style="stroke:#5E5E5E;stroke-width:1.0416666666666667;" width="106.25" x="54.6875" y="53.7028"/><ellipse cx="69.2708" cy="69.397" fill="#0066CF" rx="10.4167" ry="10.4167" style="stroke:#0086EF;stroke-width:1.0416666666666667;"/><path d="M71.1812,73.822 Q70.754,74.0417 70.284,74.1516 Q69.814,74.2615 69.2952,74.2615 Q67.452,74.2615 66.4815,73.0469 Q65.5111,71.8323 65.5111,69.5374 Q65.5111,67.2363 66.4815,66.0217 Q67.452,64.8071 69.2952,64.8071 Q69.814,64.8071 70.2901,64.917 Q70.7662,65.0269 71.1812,65.2466 L71.1812,67.2485 Q70.7174,66.8213 70.281,66.6229 Q69.8446,66.4246 69.3807,66.4246 Q68.3919,66.4246 67.8884,67.2089 Q67.3848,67.9932 67.3848,69.5374 Q67.3848,71.0754 67.8884,71.8597 Q68.3919,72.644 69.3807,72.644 Q69.8446,72.644 70.281,72.4457 Q70.7174,72.2473 71.1812,71.8201 Z " fill="#000000"/><text fill="#D8BC00" font-family="Open Sans,Avenir,Nunito,Arial,Helvetica,SansSerif" font-size="12.5" font-weight="bold" lengthAdjust="spacing" textLength="68.75" x="85.9375" y="74.1211">KryoTypes</text><line style="stroke:#5E5E5E;stroke-width:1.0416666666666667;" x1="55.7292" x2="159.8958" y1="85.0911" y2="85.0911"/><line style="stroke:#5E5E5E;stroke-width:1.0416666666666667;" x1="55.7292" x2="159.8958" y1="93.4245" y2="93.4245"/><!--MD5=[0b1bee791fd037f3797a950ea6010ed1]
class MeasurementsKryoTypes--><rect codeLine="7" fill="#282828" height="83.3781" id="MeasurementsKryoTypes" rx="8.3333" ry="8.3333" style="stroke:#5E5E5E;stroke-width:1.0416666666666667;" width="201.0417" x="7.2917" y="255.2653"/><rect fill="#1B1B1A" height="31.3883" rx="8.3333" ry="8.3333" style="stroke:#1B1B1A;stroke-width:1.0416666666666667;" width="201.0417" x="7.2917" y="255.2653"/><rect fill="#1B1B1A" height="8.3333" style="stroke:#1B1B1A;stroke-width:1.0416666666666667;" width="201.0417" x="7.2917" y="278.3203"/><rect codeLine="7" fill="none" height="83.3781" id="MeasurementsKryoTypes" rx="8.3333" ry="8.3333" style="stroke:#5E5E5E;stroke-width:1.0416666666666667;" width="201.0417" x="7.2917" y="255.2653"/><ellipse cx="21.875" cy="270.9595" fill="#0066CF" rx="10.4167" ry="10.4167" style="stroke:#0086EF;stroke-width:1.0416666666666667;"/><path d="M23.7854,275.3845 Q23.3582,275.6042 22.8882,275.7141 Q22.4182,275.824 21.8994,275.824 Q20.0562,275.824 19.0857,274.6094 Q18.1152,273.3948 18.1152,271.0999 Q18.1152,268.7988 19.0857,267.5842 Q20.0562,266.3696 21.8994,266.3696 Q22.4182,266.3696 22.8943,266.4795 Q23.3704,266.5894 23.7854,266.8091 L23.7854,268.811 Q23.3215,268.3838 22.8851,268.1854 Q22.4487,267.9871 21.9849,267.9871 Q20.9961,267.9871 20.4926,268.7714 Q19.989,269.5557 19.989,271.0999 Q19.989,272.6379 20.4926,273.4222 Q20.9961,274.2065 21.9849,274.2065 Q22.4487,274.2065 22.8851,274.0082 Q23.3215,273.8098 23.7854,273.3826 Z " fill="#000000"/><text fill="#D8BC00" font-family="Open Sans,Avenir,Nunito,Arial,Helvetica,SansSerif" font-size="12.5" font-weight="bold" lengthAdjust="spacing" textLength="163.5417" x="38.5417" y="275.6836">MeasurementsKryoTypes</text><line style="stroke:#5E5E5E;stroke-width:1.5625;" x1="8.3333" x2="207.2917" y1="286.6536" y2="286.6536"/><ellipse cx="18.75" cy="322.0235" fill="#84BE84" rx="3.125" ry="3.125" style="stroke:#038048;stroke-width:1.0416666666666667;"/><text fill="#D8BC00" font-family="Open Sans,Avenir,Nunito,Arial,Helvetica,SansSerif" font-size="11.4583" lengthAdjust="spacing" textLength="148.9583" x="30.2083" y="328.9347">MeasurementsKryoTypes()</text><line style="stroke:#5E5E5E;stroke-width:1.0416666666666667;" x1="8.3333" x2="64.0625" y1="304.8594" y2="304.8594"/><text fill="#D8BC00" font-family="Open Sans,Avenir,Nunito,Arial,Helvetica,SansSerif" font-size="11.4583" lengthAdjust="spacing" textLength="81.25" x="67.1875" y="308.669">(constructors)</text><line style="stroke:#5E5E5E;stroke-width:1.0416666666666667;" x1="151.5625" x2="207.2917" y1="304.8594" y2="304.8594"/><!--MD5=[48199313adf418ae9233b27dfacc45fd]
class RandomValueFactory--><rect fill="#282828" height="48.055" id="RandomValueFactory" rx="8.3333" ry="8.3333" style="stroke:#5E5E5E;stroke-width:1.0416666666666667;" width="172.9167" x="347.3958" y="53.7028"/><rect fill="#1B1B1A" height="31.3883" rx="8.3333" ry="8.3333" style="stroke:#1B1B1A;stroke-width:1.0416666666666667;" width="172.9167" x="347.3958" y="53.7028"/><rect fill="#1B1B1A" height="8.3333" style="stroke:#1B1B1A;stroke-width:1.0416666666666667;" width="172.9167" x="347.3958" y="76.7578"/><rect fill="none" height="48.055" id="RandomValueFactory" rx="8.3333" ry="8.3333" style="stroke:#5E5E5E;stroke-width:1.0416666666666667;" width="172.9167" x="347.3958" y="53.7028"/><ellipse cx="361.9792" cy="69.397" fill="#0066CF" rx="10.4167" ry="10.4167" style="stroke:#0086EF;stroke-width:1.0416666666666667;"/><path d="M363.8896,73.822 Q363.4623,74.0417 362.9924,74.1516 Q362.5224,74.2615 362.0036,74.2615 Q360.1603,74.2615 359.1899,73.0469 Q358.2194,71.8323 358.2194,69.5374 Q358.2194,67.2363 359.1899,66.0217 Q360.1603,64.8071 362.0036,64.8071 Q362.5224,64.8071 362.9985,64.917 Q363.4745,65.0269 363.8896,65.2466 L363.8896,67.2485 Q363.4257,66.8213 362.9893,66.6229 Q362.5529,66.4246 362.089,66.4246 Q361.1003,66.4246 360.5967,67.2089 Q360.0932,67.9932 360.0932,69.5374 Q360.0932,71.0754 360.5967,71.8597 Q361.1003,72.644 362.089,72.644 Q362.5529,72.644 362.9893,72.4457 Q363.4257,72.2473 363.8896,71.8201 Z " fill="#000000"/><text fill="#D8BC00" font-family="Open Sans,Avenir,Nunito,Arial,Helvetica,SansSerif" font-size="12.5" font-weight="bold" lengthAdjust="spacing" textLength="135.4167" x="378.6458" y="74.1211">RandomValueFactory</text><line style="stroke:#5E5E5E;stroke-width:1.0416666666666667;" x1="348.4375" x2="519.2708" y1="85.0911" y2="85.0911"/><line style="stroke:#5E5E5E;stroke-width:1.0416666666666667;" x1="348.4375" x2="519.2708" y1="93.4245" y2="93.4245"/><!--MD5=[d6a877a57ef06436205cb35cbfbd58a5]
class MeasurementsRandomValueFactory--><rect codeLine="14" fill="#282828" height="265.2486" id="MeasurementsRandomValueFactory" rx="8.3333" ry="8.3333" style="stroke:#5E5E5E;stroke-width:1.0416666666666667;" width="377.0833" x="245.3125" y="164.1195"/><rect fill="#1B1B1A" height="31.3883" rx="8.3333" ry="8.3333" style="stroke:#1B1B1A;stroke-width:1.0416666666666667;" width="377.0833" x="245.3125" y="164.1195"/><rect fill="#1B1B1A" height="8.3333" style="stroke:#1B1B1A;stroke-width:1.0416666666666667;" width="377.0833" x="245.3125" y="187.1745"/><rect codeLine="14" fill="none" height="265.2486" id="MeasurementsRandomValueFactory" rx="8.3333" ry="8.3333" style="stroke:#5E5E5E;stroke-width:1.0416666666666667;" width="377.0833" x="245.3125" y="164.1195"/><ellipse cx="311.4583" cy="179.8136" fill="#0066CF" rx="10.4167" ry="10.4167" style="stroke:#0086EF;stroke-width:1.0416666666666667;"/><path d="M313.3687,184.2387 Q312.9415,184.4584 312.4715,184.5683 Q312.0015,184.6781 311.4827,184.6781 Q309.6395,184.6781 308.669,183.4635 Q307.6986,182.2489 307.6986,179.954 Q307.6986,177.653 308.669,176.4384 Q309.6395,175.2238 311.4827,175.2238 Q312.0015,175.2238 312.4776,175.3337 Q312.9537,175.4435 313.3687,175.6632 L313.3687,177.6652 Q312.9049,177.238 312.4685,177.0396 Q312.0321,176.8412 311.5682,176.8412 Q310.5794,176.8412 310.0759,177.6255 Q309.5723,178.4098 309.5723,179.954 Q309.5723,181.4921 310.0759,182.2764 Q310.5794,183.0607 311.5682,183.0607 Q312.0321,183.0607 312.4685,182.8623 Q312.9049,182.664 313.3687,182.2367 Z " fill="#000000"/><text fill="#D8BC00" font-family="Open Sans,Avenir,Nunito,Arial,Helvetica,SansSerif" font-size="12.5" font-weight="bold" lengthAdjust="spacing" textLength="230.2083" x="334.375" y="184.5378">MeasurementsRandomValueFactory</text><line style="stroke:#5E5E5E;stroke-width:1.5625;" x1="246.3542" x2="621.3542" y1="195.5078" y2="195.5078"/><ellipse cx="256.7708" cy="230.8777" fill="#84BE84" rx="3.125" ry="3.125" style="stroke:#038048;stroke-width:1.0416666666666667;"/><text fill="#D8BC00" font-family="Open Sans,Avenir,Nunito,Arial,Helvetica,SansSerif" font-size="11.4583" lengthAdjust="spacing" textLength="207.2917" x="268.2292" y="237.7889">MeasurementsRandomValueFactory()</text><ellipse cx="256.7708" cy="250.6226" fill="#84BE84" rx="3.125" ry="3.125" style="stroke:#038048;stroke-width:1.0416666666666667;"/><text fill="#D8BC00" font-family="Open Sans,Avenir,Nunito,Arial,Helvetica,SansSerif" font-size="11.4583" lengthAdjust="spacing" textLength="232.2917" x="268.2292" y="257.5338">MeasurementsRandomValueFactory(long)</text><line style="stroke:#5E5E5E;stroke-width:1.0416666666666667;" x1="246.3542" x2="390.1042" y1="213.7136" y2="213.7136"/><text fill="#D8BC00" font-family="Open Sans,Avenir,Nunito,Arial,Helvetica,SansSerif" font-size="11.4583" lengthAdjust="spacing" textLength="81.25" x="393.2292" y="217.5232">(constructors)</text><line style="stroke:#5E5E5E;stroke-width:1.0416666666666667;" x1="477.6042" x2="621.3542" y1="213.7136" y2="213.7136"/><ellipse cx="256.7708" cy="294.279" fill="#84BE84" rx="3.125" ry="3.125" style="stroke:#038048;stroke-width:1.0416666666666667;"/><text fill="#D8BC00" font-family="Open Sans,Avenir,Nunito,Arial,Helvetica,SansSerif" font-size="11.4583" lengthAdjust="spacing" textLength="97.9167" x="268.2292" y="301.1902">Angle newAngle()</text><ellipse cx="256.7708" cy="314.0238" fill="#84BE84" rx="3.125" ry="3.125" style="stroke:#038048;stroke-width:1.0416666666666667;"/><text fill="#D8BC00" font-family="Open Sans,Avenir,Nunito,Arial,Helvetica,SansSerif" font-size="11.4583" lengthAdjust="spacing" textLength="282.2917" x="268.2292" y="320.9351">Angle newAngle(Angle minimum, Angle maximum)</text><ellipse cx="256.7708" cy="333.7687" fill="#84BE84" rx="3.125" ry="3.125" style="stroke:#038048;stroke-width:1.0416666666666667;"/><text fill="#D8BC00" font-family="Open Sans,Avenir,Nunito,Arial,Helvetica,SansSerif" font-size="11.4583" lengthAdjust="spacing" textLength="85.4167" x="268.2292" y="340.6799">Area newArea()</text><ellipse cx="256.7708" cy="353.5136" fill="#84BE84" rx="3.125" ry="3.125" style="stroke:#038048;stroke-width:1.0416666666666667;"/><text fill="#D8BC00" font-family="Open Sans,Avenir,Nunito,Arial,Helvetica,SansSerif" font-size="11.4583" lengthAdjust="spacing" textLength="257.2917" x="268.2292" y="360.4248">Area newArea(Area minimum, Area maximum)</text><ellipse cx="256.7708" cy="373.2585" fill="#84BE84" rx="3.125" ry="3.125" style="stroke:#038048;stroke-width:1.0416666666666667;"/><text fill="#D8BC00" font-family="Open Sans,Avenir,Nunito,Arial,Helvetica,SansSerif" font-size="11.4583" lengthAdjust="spacing" textLength="129.1667" x="268.2292" y="380.1697">Distance newDistance()</text><ellipse cx="256.7708" cy="393.0033" fill="#84BE84" rx="3.125" ry="3.125" style="stroke:#038048;stroke-width:1.0416666666666667;"/><text fill="#D8BC00" font-family="Open Sans,Avenir,Nunito,Arial,Helvetica,SansSerif" font-size="11.4583" lengthAdjust="spacing" textLength="344.7917" x="268.2292" y="399.9146">Distance newDistance(Distance minimum, Distance maximum)</text><ellipse cx="256.7708" cy="412.7482" fill="#84BE84" rx="3.125" ry="3.125" style="stroke:#038048;stroke-width:1.0416666666666667;"/><text fill="#D8BC00" font-family="Open Sans,Avenir,Nunito,Arial,Helvetica,SansSerif" font-size="11.4583" lengthAdjust="spacing" textLength="100" x="268.2292" y="419.6594">Speed newSpeed()</text><line style="stroke:#5E5E5E;stroke-width:1.0416666666666667;" x1="246.3542" x2="406.7708" y1="277.1149" y2="277.1149"/><text fill="#D8BC00" font-family="Open Sans,Avenir,Nunito,Arial,Helvetica,SansSerif" font-size="11.4583" lengthAdjust="spacing" textLength="47.9167" x="409.8958" y="280.9245">(factory)</text><line style="stroke:#5E5E5E;stroke-width:1.0416666666666667;" x1="460.9375" x2="621.3542" y1="277.1149" y2="277.1149"/><!--MD5=[04aa7edd5c4e84eb6b64397942174aef]
class KryoUnitTest--><rect fill="#282828" height="48.055" id="KryoUnitTest" rx="8.3333" ry="8.3333" style="stroke:#5E5E5E;stroke-width:1.0416666666666667;" width="122.9167" x="741.1458" y="53.7028"/><rect fill="#1B1B1A" height="31.3883" rx="8.3333" ry="8.3333" style="stroke:#1B1B1A;stroke-width:1.0416666666666667;" width="122.9167" x="741.1458" y="53.7028"/><rect fill="#1B1B1A" height="8.3333" style="stroke:#1B1B1A;stroke-width:1.0416666666666667;" width="122.9167" x="741.1458" y="76.7578"/><rect fill="none" height="48.055" id="KryoUnitTest" rx="8.3333" ry="8.3333" style="stroke:#5E5E5E;stroke-width:1.0416666666666667;" width="122.9167" x="741.1458" y="53.7028"/><ellipse cx="755.7292" cy="69.397" fill="#0066CF" rx="10.4167" ry="10.4167" style="stroke:#0086EF;stroke-width:1.0416666666666667;"/><path d="M757.6396,73.822 Q757.2123,74.0417 756.7424,74.1516 Q756.2724,74.2615 755.7536,74.2615 Q753.9103,74.2615 752.9399,73.0469 Q751.9694,71.8323 751.9694,69.5374 Q751.9694,67.2363 752.9399,66.0217 Q753.9103,64.8071 755.7536,64.8071 Q756.2724,64.8071 756.7485,64.917 Q757.2245,65.0269 757.6396,65.2466 L757.6396,67.2485 Q757.1757,66.8213 756.7393,66.6229 Q756.3029,66.4246 755.839,66.4246 Q754.8503,66.4246 754.3467,67.2089 Q753.8432,67.9932 753.8432,69.5374 Q753.8432,71.0754 754.3467,71.8597 Q754.8503,72.644 755.839,72.644 Q756.3029,72.644 756.7393,72.4457 Q757.1757,72.2473 757.6396,71.8201 Z " fill="#000000"/><text fill="#D8BC00" font-family="Open Sans,Avenir,Nunito,Arial,Helvetica,SansSerif" font-size="12.5" font-weight="bold" lengthAdjust="spacing" textLength="85.4167" x="772.3958" y="74.1211">KryoUnitTest</text><line style="stroke:#5E5E5E;stroke-width:1.0416666666666667;" x1="742.1875" x2="863.0208" y1="85.0911" y2="85.0911"/><line style="stroke:#5E5E5E;stroke-width:1.0416666666666667;" x1="742.1875" x2="863.0208" y1="93.4245" y2="93.4245"/><!--MD5=[3b613e7ef45d150b83c759c519d8000f]
class MeasurementsUnitTest--><rect codeLine="30" fill="#282828" height="83.3781" id="MeasurementsUnitTest" rx="8.3333" ry="8.3333" style="stroke:#5E5E5E;stroke-width:1.0416666666666667;" width="286.4583" x="659.375" y="255.2653"/><rect fill="#1B1B1A" height="31.3883" rx="8.3333" ry="8.3333" style="stroke:#1B1B1A;stroke-width:1.0416666666666667;" width="286.4583" x="659.375" y="255.2653"/><rect fill="#1B1B1A" height="8.3333" style="stroke:#1B1B1A;stroke-width:1.0416666666666667;" width="286.4583" x="659.375" y="278.3203"/><rect codeLine="30" fill="none" height="83.3781" id="MeasurementsUnitTest" rx="8.3333" ry="8.3333" style="stroke:#5E5E5E;stroke-width:1.0416666666666667;" width="286.4583" x="659.375" y="255.2653"/><ellipse cx="720.3125" cy="270.9595" fill="#0066CF" rx="10.4167" ry="10.4167" style="stroke:#0086EF;stroke-width:1.0416666666666667;"/><path d="M722.2229,275.3845 Q721.7957,275.6042 721.3257,275.7141 Q720.8557,275.824 720.3369,275.824 Q718.4937,275.824 717.5232,274.6094 Q716.5527,273.3948 716.5527,271.0999 Q716.5527,268.7988 717.5232,267.5842 Q718.4937,266.3696 720.3369,266.3696 Q720.8557,266.3696 721.3318,266.4795 Q721.8079,266.5894 722.2229,266.8091 L722.2229,268.811 Q721.759,268.3838 721.3226,268.1854 Q720.8862,267.9871 720.4224,267.9871 Q719.4336,267.9871 718.9301,268.7714 Q718.4265,269.5557 718.4265,271.0999 Q718.4265,272.6379 718.9301,273.4222 Q719.4336,274.2065 720.4224,274.2065 Q720.8862,274.2065 721.3226,274.0082 Q721.759,273.8098 722.2229,273.3826 Z " fill="#000000"/><text fill="#D8BC00" font-family="Open Sans,Avenir,Nunito,Arial,Helvetica,SansSerif" font-size="12.5" font-weight="bold" lengthAdjust="spacing" textLength="150" x="743.2292" y="275.6836">MeasurementsUnitTest</text><line style="stroke:#5E5E5E;stroke-width:1.5625;" x1="660.4167" x2="944.7917" y1="286.6536" y2="286.6536"/><polygon fill="#FFFF44" points="670.8333,316.8152,675,320.9819,670.8333,325.1485,666.6667,320.9819" style="stroke:#B38D22;stroke-width:1.0416666666666667;"/><text fill="#D8BC00" font-family="Open Sans,Avenir,Nunito,Arial,Helvetica,SansSerif" font-size="11.4583" lengthAdjust="spacing" textLength="254.1667" x="682.2917" y="328.9347">MeasurementsRandomValueFactory random()</text><line style="stroke:#5E5E5E;stroke-width:1.0416666666666667;" x1="660.4167" x2="775.5208" y1="304.8594" y2="304.8594"/><text fill="#D8BC00" font-family="Open Sans,Avenir,Nunito,Arial,Helvetica,SansSerif" font-size="11.4583" lengthAdjust="spacing" textLength="47.9167" x="778.6458" y="308.669">(factory)</text><line style="stroke:#5E5E5E;stroke-width:1.0416666666666667;" x1="829.6875" x2="944.7917" y1="304.8594" y2="304.8594"/><!--MD5=[be037b282bdd72ef0b34fe6ee18229cf]
reverse link KryoTypes to MeasurementsKryoTypes--><path codeLine="6" d="M107.8125,123.0257 C107.8125,161.7445 107.8125,217.4945 107.8125,255.1195 " fill="none" id="KryoTypes-backto-MeasurementsKryoTypes" style="stroke:#545454;stroke-width:1.5625;"/><polygon fill="none" points="100.5208,122.7757,107.8125,101.9424,115.1042,122.7757,100.5208,122.7757" style="stroke:#545454;stroke-width:1.5625;"/><!--MD5=[7f6ab4793366091c9d1ec99e27bc50b7]
reverse link RandomValueFactory to MeasurementsRandomValueFactory--><path codeLine="13" d="M433.8542,123.0882 C433.8542,135.3174 433.8542,149.2445 433.8542,163.7653 " fill="none" id="RandomValueFactory-backto-MeasurementsRandomValueFactory" style="stroke:#545454;stroke-width:1.5625;"/><polygon fill="none" points="426.5625,122.7757,433.8542,101.9424,441.1458,122.7757,426.5625,122.7757" style="stroke:#545454;stroke-width:1.5625;"/><!--MD5=[cbb109fe1df4c0d4941b24aef7c95d21]
reverse link KryoUnitTest to MeasurementsUnitTest--><path codeLine="29" d="M802.6042,123.0257 C802.6042,161.7445 802.6042,217.4945 802.6042,255.1195 " fill="none" id="KryoUnitTest-backto-MeasurementsUnitTest" style="stroke:#545454;stroke-width:1.5625;"/><polygon fill="none" points="795.3125,122.7757,802.6042,101.9424,809.8958,122.7757,795.3125,122.7757" style="stroke:#545454;stroke-width:1.5625;"/><!--MD5=[303ea5f69ee168f763b3d851f14520b8]
@startuml

    !include lexakai.theme
    
    title "com.telenav.mesakit.map.measurements"
    
    KryoTypes <|- - MeasurementsKryoTypes
    class MeasurementsKryoTypes
    {
        - -(constructors)- -
        +MeasurementsKryoTypes()
    }
    
    RandomValueFactory <|- - MeasurementsRandomValueFactory
    class MeasurementsRandomValueFactory
    {
        - -(constructors)- -
        +MeasurementsRandomValueFactory()
        +MeasurementsRandomValueFactory(long)
        - -(factory)- -
        +Angle newAngle()
        +Angle newAngle(Angle minimum, Angle maximum)
        +Area newArea()
        +Area newArea(Area minimum, Area maximum)
        +Distance newDistance()
        +Distance newDistance(Distance minimum, Distance maximum)
        +Speed newSpeed()
    }
    
    KryoUnitTest <|- - MeasurementsUnitTest
    class MeasurementsUnitTest
    {
        - -(factory)- -
        #MeasurementsRandomValueFactory random()
    }
    
@enduml

@startuml









skinparam backgroundColor #333333






skinparam  {
    defaultFontName   "Open Sans,Avenir,Nunito,Arial,Helvetica,SansSerif"
    defaultFontSize   12
    defaultTextAlignment left
    shadowing false
    RoundCorner 10
    TitleFontSize 18
}

skinparam defaultFontName       "Open Sans,Avenir,Nunito,Arial,Helvetica,SansSerif"
skinparam defaultFontSize       12
skinparam dpi                   100
skinparam shadowing             false
skinparam roundcorner           16
skinparam ParticipantPadding    40
skinparam BoxPadding            40
skinparam Padding               3
skinparam ArrowColor            #545454
skinparam stereotype {
    CBackgroundColor #0066cf
    CBorderColor #0086ef
    ABackgroundColor #C8Ac00
    ABorderColor #D8Bc00
    IBackgroundColor #008400
    IBorderColor #239c23
    EBackgroundColor #cf6300
    EBorderColor #ef8300
    NBackgroundColor #3380b9
    NBorderColor #004d86
}
skinparam title {
	FontColor	                 #c0c0c0
 	BorderColor                  #545454
	FontSize	    	         20
	BorderRoundCorner            16
	BorderThickness 	         1
	BackgroundColor              #48494b
}


skinparam legend {
	BackgroundColor #303030
	BorderColor #404040
	FontColor #a0a0a0
}

	skinparam swimlane {
	BorderColor #5e5e5e
	BorderThickness 2
	TitleBackgroundColor  #6d6d6d-#484848
	TitleFontColor #303030
}

skinparam activity {
		FontColor #C8Ac00
	BorderColor #333333
	BackgroundColor #333333-#333333
	BarColor #00FF00
	StartColor #0060a8
	EndColor #0060a8
	DiamondBackgroundColor #6d6d6d-#3a3a3a
  	DiamondBorderColor #3a3a3a
  	DiamondFontColor #fefefe
}


skinparam participant {
		FontColor #C8Ac00
	BorderColor #333333
	BackgroundColor #333333-#333333
	ParticipantBorderThickness 2
}


skinparam actor {
		FontColor #C8Ac00
	BorderColor #333333
	BackgroundColor #333333-#333333
}


skinparam arrow {
	Thickness 1.5
	Color #545454
	FontColor #a0a0a0
    FontStyle bold
    MessageAlignment center
}



skinparam sequence {
	BorderColor #303030
	TitleFontColor #303030
	BackgroundColor #333333
	StartColor #303030
	EndColor #303030
	BoxBackgroundColor #333333
	BoxBorderColor #484848
	BoxFontColor #484848
	LifeLineBorderColor #484848
	LifeLineBorderThickness 2
	LifeLineBackgroundColor #3a3a3a
	GroupBorderColor #484848
	GroupFontColor #484848
	GroupHeaderFontColor #0060a8
	GroupBackgroundColor #484848
	GroupHeaderBackgroundColor #333333
	DividerBackgroundColor #484848
    DividerBorderColor #484848
    DividerBorderThickness 2
    DividerFontColor #D8Bc00
	ReferenceBackgroundColor #333333
	ReferenceBorderColor #484848
	ReferenceFontColor #fefefe
	ReferenceHeaderBackgroundColor #484848
}


skinparam partition {
	BorderColor #303030
	FontColor #333333
	BackgroundColor #333333
}


skinparam collections {
		FontColor #C8Ac00
	BorderColor #333333
	BackgroundColor #333333-#333333
}


skinparam control {
		FontColor #C8Ac00
	BorderColor #333333
	BackgroundColor #333333-#333333
}


skinparam entity {
		FontColor #C8Ac00
	BorderColor #333333
	BackgroundColor #333333-#333333
}


skinparam boundary {
		FontColor #C8Ac00
	BorderColor #333333
	BackgroundColor #333333-#333333
}


skinparam agent {
	BackgroundColor #ff8000
	BorderColor #ff9933
	FontColor #484848
}


skinparam note {
	BorderThickness 1
	BackgroundColor #1b1b1a
	BorderColor #5e5e5e
	FontSize 11
	FontColor #a0a0a0
}


skinparam artifact {
	BorderThickness 10
	BorderColor #5e5e5e
	BackgroundColor #1b1b1a
	FontColor #D8Bc00
}


skinparam component {
		FontColor #C8Ac00
	BorderColor #333333
	BackgroundColor #333333-#333333
}


skinparam interface {
	BackgroundColor  #008400
	BorderColor  #007F00
	FontColor #484848
}


skinparam storage {
	BackgroundColor #ff8000
  	BorderColor #cc6600
	FontColor #222222
}


skinparam node {
	BackgroundColor #333333
	BorderColor #333333
	FontColor #C8Ac00
}


skinparam cloud {
	BackgroundColor #484848-black
	BorderColor #484848
	FontColor #D8Bc00
}


skinparam database {
		FontColor #C8Ac00
	BorderColor #333333
	BackgroundColor #333333-#333333
	BackgroundColor  #333333
}


skinparam class {
		FontColor #C8Ac00
	BorderColor #333333
	BackgroundColor #333333-#333333
	HeaderBackgroundColor #1b1b1a
    BackgroundColor #282828
    BorderColor #5e5e5e
 	StereotypeFontColor #a0a0a0
    StereotypeFontStyle bold
	BorderThickness 1
	AttributeFontColor #D8Bc00
	AttributeFontSize 11
    FontColor #D8Bc00
    FontStyle bold
}


skinparam object {
		FontColor #C8Ac00
	BorderColor #333333
	BackgroundColor #333333-#333333
	StereotypeFontColor #484848
	BorderThickness 1
	AttributeFontColor #fefefe
	AttributeFontSize 11
}


skinparam usecase {
		FontColor #C8Ac00
	BorderColor #333333
	BackgroundColor #333333-#333333
	BorderThickness 2
	StereotypeFontColor #303030
}


skinparam rectangle {
		FontColor #C8Ac00
	BorderColor #333333
	BackgroundColor #333333-#333333
	BackgroundColor #333333
	BorderThickness 2
	StereotypeFontColor #303030
}


skinparam package {
		FontColor #C8Ac00
	BorderColor #333333
	BackgroundColor #333333-#333333
	BackgroundColor #333333
	BorderThickness 2
}


skinparam folder {
	BackgroundColor #6d6d6d
  	BorderColor #ff8000
	FontColor #ff8000
	BorderThickness 2
}


skinparam frame {
	BackgroundColor #6d6d6d
  	BorderColor #0060a8
	FontColor #0060a8
	BorderThickness 2
}


skinparam state {
		FontColor #C8Ac00
	BorderColor #333333
	BackgroundColor #333333-#333333
	StartColor #0060a8
	EndColor #0060a8
	AttributeFontColor #fefefe
	AttributeFontSize 11
}


skinparam queue {
		FontColor #C8Ac00
	BorderColor #333333
	BackgroundColor #333333-#333333
}


skinparam card {
	BackgroundColor #0060a8
	BorderColor #004d86
	FontColor $INFO_TEXT
}


skinparam file {
	BackgroundColor #6d6d6d-#484848
	BorderColor #0060a8
	FontColor #fefefe
}


skinparam stack {
		FontColor #C8Ac00
	BorderColor #333333
	BackgroundColor #333333-#333333
}

    
    title "com.telenav.mesakit.map.measurements"
    
    KryoTypes <|- - MeasurementsKryoTypes
    class MeasurementsKryoTypes
    {
        - -(constructors)- -
        +MeasurementsKryoTypes()
    }
    
    RandomValueFactory <|- - MeasurementsRandomValueFactory
    class MeasurementsRandomValueFactory
    {
        - -(constructors)- -
        +MeasurementsRandomValueFactory()
        +MeasurementsRandomValueFactory(long)
        - -(factory)- -
        +Angle newAngle()
        +Angle newAngle(Angle minimum, Angle maximum)
        +Area newArea()
        +Area newArea(Area minimum, Area maximum)
        +Distance newDistance()
        +Distance newDistance(Distance minimum, Distance maximum)
        +Speed newSpeed()
    }
    
    KryoUnitTest <|- - MeasurementsUnitTest
    class MeasurementsUnitTest
    {
        - -(factory)- -
        #MeasurementsRandomValueFactory random()
    }
    
@enduml

PlantUML version 1.2021.01(Tue Feb 02 00:55:08 MST 2021)
(GPL source distribution)
Java Runtime: OpenJDK Runtime Environment
JVM: OpenJDK 64-Bit Server VM
Default Encoding: UTF-8
Language: en
Country: US
--></g></svg>