<?xml version="1.0" encoding="UTF-8" standalone="no"?><svg xmlns="http://www.w3.org/2000/svg" xmlns:xlink="http://www.w3.org/1999/xlink" contentScriptType="application/ecmascript" contentStyleType="text/css" height="533.3333px" preserveAspectRatio="none" style="width:1756px;height:533px;background:#333333;" version="1.1" viewBox="0 0 1756 533" width="1756.25px" zoomAndPan="magnify"><defs/><g><rect fill="#48494B" height="41.2028" rx="8.3333" ry="8.3333" style="stroke:#545454;stroke-width:1.0416666666666667;" width="318.75" x="711.4583" y="2.0833"/><text fill="#C0C0C0" font-family="Open Sans,Avenir,Nunito,Arial,Helvetica,SansSerif" font-size="20.8333" lengthAdjust="spacing" textLength="295.8333" x="722.9167" y="30.5583">mesakit-map-measurements</text><!--MD5=[4f079977920bf52107586fb847a1e92c]
entity kryo--><rect fill="#1B1B1A" height="44.93" rx="8.3333" ry="8.3333" style="stroke:#5E5E5E;stroke-width:1.5625;" width="63.5417" x="858.8542" y="268.2861"/><polygon fill="#1B1B1A" points="904.6875,273.4945,904.6875,288.0778,917.1875,288.0778,917.1875,279.7445,910.9375,273.4945,904.6875,273.4945" style="stroke:#5E5E5E;stroke-width:1.5625;"/><line style="stroke:#5E5E5E;stroke-width:1.5625;" x1="910.9375" x2="910.9375" y1="273.4945" y2="279.7445"/><line style="stroke:#5E5E5E;stroke-width:1.5625;" x1="917.1875" x2="910.9375" y1="279.7445" y2="279.7445"/><text fill="#D8BC00" font-family="Open Sans,Avenir,Nunito,Arial,Helvetica,SansSerif" font-size="12.5" lengthAdjust="spacing" textLength="26.0417" x="872.3958" y="297.0378">kryo</text><!--MD5=[745ab22dbfa32e29a2660b9e5bc2262a]
entity minlog--><rect fill="#1B1B1A" height="44.93" rx="8.3333" ry="8.3333" style="stroke:#5E5E5E;stroke-width:1.5625;" width="77.0833" x="727.0833" y="375.5778"/><polygon fill="#1B1B1A" points="786.4583,380.7861,786.4583,395.3695,798.9583,395.3695,798.9583,387.0361,792.7083,380.7861,786.4583,380.7861" style="stroke:#5E5E5E;stroke-width:1.5625;"/><line style="stroke:#5E5E5E;stroke-width:1.5625;" x1="792.7083" x2="792.7083" y1="380.7861" y2="387.0361"/><line style="stroke:#5E5E5E;stroke-width:1.5625;" x1="798.9583" x2="792.7083" y1="387.0361" y2="387.0361"/><text fill="#D8BC00" font-family="Open Sans,Avenir,Nunito,Arial,Helvetica,SansSerif" font-size="12.5" lengthAdjust="spacing" textLength="39.5833" x="740.625" y="404.3294">minlog</text><!--MD5=[5d0bc62e6e2e5a8467f655d5e580826c]
entity reflectasm--><rect fill="#1B1B1A" height="44.93" rx="8.3333" ry="8.3333" style="stroke:#5E5E5E;stroke-width:1.5625;" width="100" x="840.625" y="375.5778"/><polygon fill="#1B1B1A" points="922.9167,380.7861,922.9167,395.3695,935.4167,395.3695,935.4167,387.0361,929.1667,380.7861,922.9167,380.7861" style="stroke:#5E5E5E;stroke-width:1.5625;"/><line style="stroke:#5E5E5E;stroke-width:1.5625;" x1="929.1667" x2="929.1667" y1="380.7861" y2="387.0361"/><line style="stroke:#5E5E5E;stroke-width:1.5625;" x1="935.4167" x2="929.1667" y1="387.0361" y2="387.0361"/><text fill="#D8BC00" font-family="Open Sans,Avenir,Nunito,Arial,Helvetica,SansSerif" font-size="12.5" lengthAdjust="spacing" textLength="62.5" x="854.1667" y="404.3294">reflectasm</text><!--MD5=[4aa4ddcf3dc6d6219283db0a9fd05165]
entity cactus_build_metadata--><rect fill="#1B1B1A" height="44.93" rx="8.3333" ry="8.3333" style="stroke:#5E5E5E;stroke-width:1.5625;" width="175" x="26.0417" y="375.5778"/><polygon fill="#1B1B1A" points="183.3333,380.7861,183.3333,395.3695,195.8333,395.3695,195.8333,387.0361,189.5833,380.7861,183.3333,380.7861" style="stroke:#5E5E5E;stroke-width:1.5625;"/><line style="stroke:#5E5E5E;stroke-width:1.5625;" x1="189.5833" x2="189.5833" y1="380.7861" y2="387.0361"/><line style="stroke:#5E5E5E;stroke-width:1.5625;" x1="195.8333" x2="189.5833" y1="387.0361" y2="387.0361"/><text fill="#D8BC00" font-family="Open Sans,Avenir,Nunito,Arial,Helvetica,SansSerif" font-size="12.5" lengthAdjust="spacing" textLength="137.5" x="39.5833" y="404.3294">cactus_build_metadata</text><!--MD5=[4facc4376e4b6bfc182ce14f42a813f9]
entity kivakit_collections--><rect fill="#1B1B1A" height="44.93" rx="8.3333" ry="8.3333" style="stroke:#5E5E5E;stroke-width:1.5625;" width="143.75" x="7.2917" y="268.2861"/><polygon fill="#1B1B1A" points="133.3333,273.4945,133.3333,288.0778,145.8333,288.0778,145.8333,279.7445,139.5833,273.4945,133.3333,273.4945" style="stroke:#5E5E5E;stroke-width:1.5625;"/><line style="stroke:#5E5E5E;stroke-width:1.5625;" x1="139.5833" x2="139.5833" y1="273.4945" y2="279.7445"/><line style="stroke:#5E5E5E;stroke-width:1.5625;" x1="145.8333" x2="139.5833" y1="279.7445" y2="279.7445"/><text fill="#D8BC00" font-family="Open Sans,Avenir,Nunito,Arial,Helvetica,SansSerif" font-size="12.5" lengthAdjust="spacing" textLength="106.25" x="20.8333" y="297.0378">kivakit_collections</text><!--MD5=[b7af8d5b7902cf06664f76dfe0f9e426]
entity kivakit_commandline--><rect fill="#1B1B1A" height="44.93" rx="8.3333" ry="8.3333" style="stroke:#5E5E5E;stroke-width:1.5625;" width="162.5" x="342.7083" y="160.9945"/><polygon fill="#1B1B1A" points="487.5,166.2028,487.5,180.7861,500,180.7861,500,172.4528,493.75,166.2028,487.5,166.2028" style="stroke:#5E5E5E;stroke-width:1.5625;"/><line style="stroke:#5E5E5E;stroke-width:1.5625;" x1="493.75" x2="493.75" y1="166.2028" y2="172.4528"/><line style="stroke:#5E5E5E;stroke-width:1.5625;" x1="500" x2="493.75" y1="172.4528" y2="172.4528"/><text fill="#D8BC00" font-family="Open Sans,Avenir,Nunito,Arial,Helvetica,SansSerif" font-size="12.5" lengthAdjust="spacing" textLength="125" x="356.25" y="189.7461">kivakit_commandline</text><!--MD5=[dafc80021cd29aae9231cf20b1d6436c]
entity kivakit_conversion--><rect fill="#1B1B1A" height="44.93" rx="8.3333" ry="8.3333" style="stroke:#5E5E5E;stroke-width:1.5625;" width="145.8333" x="187.5" y="268.2861"/><polygon fill="#1B1B1A" points="315.625,273.4945,315.625,288.0778,328.125,288.0778,328.125,279.7445,321.875,273.4945,315.625,273.4945" style="stroke:#5E5E5E;stroke-width:1.5625;"/><line style="stroke:#5E5E5E;stroke-width:1.5625;" x1="321.875" x2="321.875" y1="273.4945" y2="279.7445"/><line style="stroke:#5E5E5E;stroke-width:1.5625;" x1="328.125" x2="321.875" y1="279.7445" y2="279.7445"/><text fill="#D8BC00" font-family="Open Sans,Avenir,Nunito,Arial,Helvetica,SansSerif" font-size="12.5" lengthAdjust="spacing" textLength="108.3333" x="201.0417" y="297.0378">kivakit_conversion</text><!--MD5=[ae4286fb09ce878b5ed12f89a26eee54]
entity kivakit_core--><rect fill="#1B1B1A" height="44.93" rx="8.3333" ry="8.3333" style="stroke:#5E5E5E;stroke-width:1.5625;" width="108.3333" x="369.7917" y="268.2861"/><polygon fill="#1B1B1A" points="460.4167,273.4945,460.4167,288.0778,472.9167,288.0778,472.9167,279.7445,466.6667,273.4945,460.4167,273.4945" style="stroke:#5E5E5E;stroke-width:1.5625;"/><line style="stroke:#5E5E5E;stroke-width:1.5625;" x1="466.6667" x2="466.6667" y1="273.4945" y2="279.7445"/><line style="stroke:#5E5E5E;stroke-width:1.5625;" x1="472.9167" x2="466.6667" y1="279.7445" y2="279.7445"/><text fill="#D8BC00" font-family="Open Sans,Avenir,Nunito,Arial,Helvetica,SansSerif" font-size="12.5" lengthAdjust="spacing" textLength="70.8333" x="383.3333" y="297.0378">kivakit_core</text><!--MD5=[b582392a7118229602de187c1b0722c2]
entity kivakit_interfaces--><rect fill="#1B1B1A" height="44.93" rx="8.3333" ry="8.3333" style="stroke:#5E5E5E;stroke-width:1.5625;" width="140.625" x="238.0208" y="375.5778"/><polygon fill="#1B1B1A" points="360.9375,380.7861,360.9375,395.3695,373.4375,395.3695,373.4375,387.0361,367.1875,380.7861,360.9375,380.7861" style="stroke:#5E5E5E;stroke-width:1.5625;"/><line style="stroke:#5E5E5E;stroke-width:1.5625;" x1="367.1875" x2="367.1875" y1="380.7861" y2="387.0361"/><line style="stroke:#5E5E5E;stroke-width:1.5625;" x1="373.4375" x2="367.1875" y1="387.0361" y2="387.0361"/><text fill="#D8BC00" font-family="Open Sans,Avenir,Nunito,Arial,Helvetica,SansSerif" font-size="12.5" lengthAdjust="spacing" textLength="103.125" x="251.5625" y="404.3294">kivakit_interfaces</text><!--MD5=[777f537393e16daa648c56fbfeea7987]
entity kivakit_math--><rect fill="#1B1B1A" height="44.93" rx="8.3333" ry="8.3333" style="stroke:#5E5E5E;stroke-width:1.5625;" width="112.5" x="700" y="160.9945"/><polygon fill="#1B1B1A" points="794.7917,166.2028,794.7917,180.7861,807.2917,180.7861,807.2917,172.4528,801.0417,166.2028,794.7917,166.2028" style="stroke:#5E5E5E;stroke-width:1.5625;"/><line style="stroke:#5E5E5E;stroke-width:1.5625;" x1="801.0417" x2="801.0417" y1="166.2028" y2="172.4528"/><line style="stroke:#5E5E5E;stroke-width:1.5625;" x1="807.2917" x2="801.0417" y1="172.4528" y2="172.4528"/><text fill="#D8BC00" font-family="Open Sans,Avenir,Nunito,Arial,Helvetica,SansSerif" font-size="12.5" lengthAdjust="spacing" textLength="75" x="713.5417" y="189.7461">kivakit_math</text><!--MD5=[f41257055ff6c31a77f8312d5e694f18]
entity kivakit_mixins--><rect fill="#1B1B1A" height="44.93" rx="8.3333" ry="8.3333" style="stroke:#5E5E5E;stroke-width:1.5625;" width="120.8333" x="415.625" y="375.5778"/><polygon fill="#1B1B1A" points="518.75,380.7861,518.75,395.3695,531.25,395.3695,531.25,387.0361,525,380.7861,518.75,380.7861" style="stroke:#5E5E5E;stroke-width:1.5625;"/><line style="stroke:#5E5E5E;stroke-width:1.5625;" x1="525" x2="525" y1="380.7861" y2="387.0361"/><line style="stroke:#5E5E5E;stroke-width:1.5625;" x1="531.25" x2="525" y1="387.0361" y2="387.0361"/><text fill="#D8BC00" font-family="Open Sans,Avenir,Nunito,Arial,Helvetica,SansSerif" font-size="12.5" lengthAdjust="spacing" textLength="83.3333" x="429.1667" y="404.3294">kivakit_mixins</text><!--MD5=[789122fdd47ca161e4432768ac68a470]
entity kivakit_resource--><rect fill="#1B1B1A" height="44.93" rx="8.3333" ry="8.3333" style="stroke:#5E5E5E;stroke-width:1.5625;" width="134.375" x="958.8542" y="268.2861"/><polygon fill="#1B1B1A" points="1075.5208,273.4945,1075.5208,288.0778,1088.0208,288.0778,1088.0208,279.7445,1081.7708,273.4945,1075.5208,273.4945" style="stroke:#5E5E5E;stroke-width:1.5625;"/><line style="stroke:#5E5E5E;stroke-width:1.5625;" x1="1081.7708" x2="1081.7708" y1="273.4945" y2="279.7445"/><line style="stroke:#5E5E5E;stroke-width:1.5625;" x1="1088.0208" x2="1081.7708" y1="279.7445" y2="279.7445"/><text fill="#D8BC00" font-family="Open Sans,Avenir,Nunito,Arial,Helvetica,SansSerif" font-size="12.5" lengthAdjust="spacing" textLength="96.875" x="972.3958" y="297.0378">kivakit_resource</text><!--MD5=[90c7e8c0eae90f7cdcf1e82754bc9c37]
entity kivakit_serialization_core--><rect fill="#1B1B1A" height="44.93" rx="8.3333" ry="8.3333" style="stroke:#5E5E5E;stroke-width:1.5625;" width="186.4583" x="1129.6875" y="268.2861"/><polygon fill="#1B1B1A" points="1298.4375,273.4945,1298.4375,288.0778,1310.9375,288.0778,1310.9375,279.7445,1304.6875,273.4945,1298.4375,273.4945" style="stroke:#5E5E5E;stroke-width:1.5625;"/><line style="stroke:#5E5E5E;stroke-width:1.5625;" x1="1304.6875" x2="1304.6875" y1="273.4945" y2="279.7445"/><line style="stroke:#5E5E5E;stroke-width:1.5625;" x1="1310.9375" x2="1304.6875" y1="279.7445" y2="279.7445"/><text fill="#D8BC00" font-family="Open Sans,Avenir,Nunito,Arial,Helvetica,SansSerif" font-size="12.5" lengthAdjust="spacing" textLength="148.9583" x="1143.2292" y="297.0378">kivakit_serialization_core</text><!--MD5=[7bf535908c90dd3c1fbc894d9b1c5a2e]
entity kivakit_serialization_kryo--><rect fill="#1B1B1A" height="44.93" rx="8.3333" ry="8.3333" style="stroke:#5E5E5E;stroke-width:1.5625;" width="186.4583" x="1030.7292" y="160.9945"/><polygon fill="#1B1B1A" points="1199.4792,166.2028,1199.4792,180.7861,1211.9792,180.7861,1211.9792,172.4528,1205.7292,166.2028,1199.4792,166.2028" style="stroke:#5E5E5E;stroke-width:1.5625;"/><line style="stroke:#5E5E5E;stroke-width:1.5625;" x1="1205.7292" x2="1205.7292" y1="166.2028" y2="172.4528"/><line style="stroke:#5E5E5E;stroke-width:1.5625;" x1="1211.9792" x2="1205.7292" y1="172.4528" y2="172.4528"/><text fill="#D8BC00" font-family="Open Sans,Avenir,Nunito,Arial,Helvetica,SansSerif" font-size="12.5" lengthAdjust="spacing" textLength="148.9583" x="1044.2708" y="189.7461">kivakit_serialization_kryo</text><!--MD5=[89af034859c241291c45f10ab75c9d6f]
entity kivakit_serialization_properties--><rect fill="#1B1B1A" height="44.93" rx="8.3333" ry="8.3333" style="stroke:#5E5E5E;stroke-width:1.5625;" width="222.9167" x="1353.125" y="268.2861"/><polygon fill="#1B1B1A" points="1558.3333,273.4945,1558.3333,288.0778,1570.8333,288.0778,1570.8333,279.7445,1564.5833,273.4945,1558.3333,273.4945" style="stroke:#5E5E5E;stroke-width:1.5625;"/><line style="stroke:#5E5E5E;stroke-width:1.5625;" x1="1564.5833" x2="1564.5833" y1="273.4945" y2="279.7445"/><line style="stroke:#5E5E5E;stroke-width:1.5625;" x1="1570.8333" x2="1564.5833" y1="279.7445" y2="279.7445"/><text fill="#D8BC00" font-family="Open Sans,Avenir,Nunito,Arial,Helvetica,SansSerif" font-size="12.5" lengthAdjust="spacing" textLength="185.4167" x="1366.6667" y="297.0378">kivakit_serialization_properties</text><!--MD5=[80d2a7f8a38f99556dcaa88e0cbe286e]
entity kivakit_validation--><rect fill="#1B1B1A" height="44.93" rx="8.3333" ry="8.3333" style="stroke:#5E5E5E;stroke-width:1.5625;" width="139.5833" x="514.5833" y="268.2861"/><polygon fill="#1B1B1A" points="636.4583,273.4945,636.4583,288.0778,648.9583,288.0778,648.9583,279.7445,642.7083,273.4945,636.4583,273.4945" style="stroke:#5E5E5E;stroke-width:1.5625;"/><line style="stroke:#5E5E5E;stroke-width:1.5625;" x1="642.7083" x2="642.7083" y1="273.4945" y2="279.7445"/><line style="stroke:#5E5E5E;stroke-width:1.5625;" x1="648.9583" x2="642.7083" y1="279.7445" y2="279.7445"/><text fill="#D8BC00" font-family="Open Sans,Avenir,Nunito,Arial,Helvetica,SansSerif" font-size="12.5" lengthAdjust="spacing" textLength="102.0833" x="528.125" y="297.0378">kivakit_validation</text><!--MD5=[7b0fec798d1f32628676dfdf75f1f662]
entity lexakai_annotations--><rect fill="#1B1B1A" height="44.93" rx="8.3333" ry="8.3333" style="stroke:#5E5E5E;stroke-width:1.5625;" width="155.2083" x="135.9375" y="482.8695"/><polygon fill="#1B1B1A" points="273.4375,488.0778,273.4375,502.6611,285.9375,502.6611,285.9375,494.3278,279.6875,488.0778,273.4375,488.0778" style="stroke:#5E5E5E;stroke-width:1.5625;"/><line style="stroke:#5E5E5E;stroke-width:1.5625;" x1="279.6875" x2="279.6875" y1="488.0778" y2="494.3278"/><line style="stroke:#5E5E5E;stroke-width:1.5625;" x1="285.9375" x2="279.6875" y1="494.3278" y2="494.3278"/><text fill="#D8BC00" font-family="Open Sans,Avenir,Nunito,Arial,Helvetica,SansSerif" font-size="12.5" lengthAdjust="spacing" textLength="117.7083" x="149.4792" y="511.6211">lexakai_annotations</text><!--MD5=[c13f614f4eab1fb0a15a900fd22c77de]
entity mesakit_map_measurements--><rect fill="#1B1B1A" height="44.93" rx="8.3333" ry="8.3333" style="stroke:#5E5E5E;stroke-width:1.5625;" width="212.5" x="650" y="53.7028"/><polygon fill="#1B1B1A" points="844.7917,58.9111,844.7917,73.4945,857.2917,73.4945,857.2917,65.1611,851.0417,58.9111,844.7917,58.9111" style="stroke:#5E5E5E;stroke-width:1.5625;"/><line style="stroke:#5E5E5E;stroke-width:1.5625;" x1="851.0417" x2="851.0417" y1="58.9111" y2="65.1611"/><line style="stroke:#5E5E5E;stroke-width:1.5625;" x1="857.2917" x2="851.0417" y1="65.1611" y2="65.1611"/><text fill="#D8BC00" font-family="Open Sans,Avenir,Nunito,Arial,Helvetica,SansSerif" font-size="12.5" lengthAdjust="spacing" textLength="175" x="663.5417" y="82.4544">mesakit_map_measurements</text><!--MD5=[b9ccc173c089e3d2abf77c8581e74aca]
entity kryo_serializers--><rect fill="#1B1B1A" height="44.93" rx="8.3333" ry="8.3333" style="stroke:#5E5E5E;stroke-width:1.5625;" width="131.25" x="1612.5" y="268.2861"/><polygon fill="#1B1B1A" points="1726.0417,273.4945,1726.0417,288.0778,1738.5417,288.0778,1738.5417,279.7445,1732.2917,273.4945,1726.0417,273.4945" style="stroke:#5E5E5E;stroke-width:1.5625;"/><line style="stroke:#5E5E5E;stroke-width:1.5625;" x1="1732.2917" x2="1732.2917" y1="273.4945" y2="279.7445"/><line style="stroke:#5E5E5E;stroke-width:1.5625;" x1="1738.5417" x2="1732.2917" y1="279.7445" y2="279.7445"/><text fill="#D8BC00" font-family="Open Sans,Avenir,Nunito,Arial,Helvetica,SansSerif" font-size="12.5" lengthAdjust="spacing" textLength="93.75" x="1626.0417" y="297.0378">kryo_serializers</text><!--MD5=[ce55b294004802c137560c2930be5b75]
entity junit--><rect fill="#1B1B1A" height="44.93" rx="8.3333" ry="8.3333" style="stroke:#5E5E5E;stroke-width:1.5625;" width="63.5417" x="573.4375" y="375.5778"/><polygon fill="#1B1B1A" points="619.2708,380.7861,619.2708,395.3695,631.7708,395.3695,631.7708,387.0361,625.5208,380.7861,619.2708,380.7861" style="stroke:#5E5E5E;stroke-width:1.5625;"/><line style="stroke:#5E5E5E;stroke-width:1.5625;" x1="625.5208" x2="625.5208" y1="380.7861" y2="387.0361"/><line style="stroke:#5E5E5E;stroke-width:1.5625;" x1="631.7708" x2="625.5208" y1="387.0361" y2="387.0361"/><text fill="#D8BC00" font-family="Open Sans,Avenir,Nunito,Arial,Helvetica,SansSerif" font-size="12.5" lengthAdjust="spacing" textLength="26.0417" x="586.9792" y="404.3294">junit</text><!--MD5=[374397457fd87171900b6bd6464bbf1c]
entity commons_math--><rect fill="#1B1B1A" height="44.93" rx="8.3333" ry="8.3333" style="stroke:#5E5E5E;stroke-width:1.5625;" width="131.25" x="690.625" y="268.2861"/><polygon fill="#1B1B1A" points="804.1667,273.4945,804.1667,288.0778,816.6667,288.0778,816.6667,279.7445,810.4167,273.4945,804.1667,273.4945" style="stroke:#5E5E5E;stroke-width:1.5625;"/><line style="stroke:#5E5E5E;stroke-width:1.5625;" x1="810.4167" x2="810.4167" y1="273.4945" y2="279.7445"/><line style="stroke:#5E5E5E;stroke-width:1.5625;" x1="816.6667" x2="810.4167" y1="279.7445" y2="279.7445"/><text fill="#D8BC00" font-family="Open Sans,Avenir,Nunito,Arial,Helvetica,SansSerif" font-size="12.5" lengthAdjust="spacing" textLength="93.75" x="704.1667" y="297.0378">commons_math</text><!--MD5=[7f157d37bc1fd6ac970bb67ffdbc66a3]
entity hamcrest_core--><rect fill="#1B1B1A" height="44.93" rx="8.3333" ry="8.3333" style="stroke:#5E5E5E;stroke-width:1.5625;" width="125" x="542.7083" y="482.8695"/><polygon fill="#1B1B1A" points="650,488.0778,650,502.6611,662.5,502.6611,662.5,494.3278,656.25,488.0778,650,488.0778" style="stroke:#5E5E5E;stroke-width:1.5625;"/><line style="stroke:#5E5E5E;stroke-width:1.5625;" x1="656.25" x2="656.25" y1="488.0778" y2="494.3278"/><line style="stroke:#5E5E5E;stroke-width:1.5625;" x1="662.5" x2="656.25" y1="494.3278" y2="494.3278"/><text fill="#D8BC00" font-family="Open Sans,Avenir,Nunito,Arial,Helvetica,SansSerif" font-size="12.5" lengthAdjust="spacing" textLength="87.5" x="556.25" y="511.6211">hamcrest_core</text><!--MD5=[b728e17b4e4da6aa8cb97e9b2766c5e6]
entity annotations--><rect fill="#1B1B1A" height="44.93" rx="8.3333" ry="8.3333" style="stroke:#5E5E5E;stroke-width:1.5625;" width="106.25" x="328.125" y="482.8695"/><polygon fill="#1B1B1A" points="416.6667,488.0778,416.6667,502.6611,429.1667,502.6611,429.1667,494.3278,422.9167,488.0778,416.6667,488.0778" style="stroke:#5E5E5E;stroke-width:1.5625;"/><line style="stroke:#5E5E5E;stroke-width:1.5625;" x1="422.9167" x2="422.9167" y1="488.0778" y2="494.3278"/><line style="stroke:#5E5E5E;stroke-width:1.5625;" x1="429.1667" x2="422.9167" y1="494.3278" y2="494.3278"/><text fill="#D8BC00" font-family="Open Sans,Avenir,Nunito,Arial,Helvetica,SansSerif" font-size="12.5" lengthAdjust="spacing" textLength="68.75" x="341.6667" y="511.6211">annotations</text><!--MD5=[b3c862d1486667ad9c7edef6529b2202]
entity objenesis--><rect fill="#1B1B1A" height="44.93" rx="8.3333" ry="8.3333" style="stroke:#5E5E5E;stroke-width:1.5625;" width="94.7917" x="977.6042" y="375.5778"/><polygon fill="#1B1B1A" points="1054.6875,380.7861,1054.6875,395.3695,1067.1875,395.3695,1067.1875,387.0361,1060.9375,380.7861,1054.6875,380.7861" style="stroke:#5E5E5E;stroke-width:1.5625;"/><line style="stroke:#5E5E5E;stroke-width:1.5625;" x1="1060.9375" x2="1060.9375" y1="380.7861" y2="387.0361"/><line style="stroke:#5E5E5E;stroke-width:1.5625;" x1="1067.1875" x2="1060.9375" y1="387.0361" y2="387.0361"/><text fill="#D8BC00" font-family="Open Sans,Avenir,Nunito,Arial,Helvetica,SansSerif" font-size="12.5" lengthAdjust="spacing" textLength="57.2917" x="991.1458" y="404.3294">objenesis</text><!--MD5=[92e2ad58d19962135e7ff93f22958550]
entity asm--><rect fill="#1B1B1A" height="44.93" rx="8.3333" ry="8.3333" style="stroke:#5E5E5E;stroke-width:1.5625;" width="62.5" x="859.375" y="482.8695"/><polygon fill="#1B1B1A" points="904.1667,488.0778,904.1667,502.6611,916.6667,502.6611,916.6667,494.3278,910.4167,488.0778,904.1667,488.0778" style="stroke:#5E5E5E;stroke-width:1.5625;"/><line style="stroke:#5E5E5E;stroke-width:1.5625;" x1="910.4167" x2="910.4167" y1="488.0778" y2="494.3278"/><line style="stroke:#5E5E5E;stroke-width:1.5625;" x1="916.6667" x2="910.4167" y1="494.3278" y2="494.3278"/><text fill="#D8BC00" font-family="Open Sans,Avenir,Nunito,Arial,Helvetica,SansSerif" font-size="12.5" lengthAdjust="spacing" textLength="25" x="872.9167" y="511.6211">asm</text><!--MD5=[d68e7c4b3ca5f037bcb6997a0b4ed16b]
link junit to hamcrest_core--><path d="M605.2083,420.8174 C605.2083,437.2861 605.2083,459.984 605.2083,477.5361 " fill="none" id="junit-to-hamcrest_core" style="stroke:#545454;stroke-width:1.5625;"/><polygon fill="#545454" points="605.2083,482.8174,609.375,473.4424,605.2083,477.609,601.0417,473.4424,605.2083,482.8174" style="stroke:#545454;stroke-width:1.5625;"/><!--MD5=[9286c1a5f216d35026583190a4d72b78]
link kivakit_commandline to kivakit_collections--><path d="M353.7708,205.8486 C295.8542,223.5153 213.8646,248.5361 154.5625,266.6299 " fill="none" id="kivakit_commandline-to-kivakit_collections" style="stroke:#545454;stroke-width:1.5625;"/><polygon fill="#545454" points="149.2604,268.2549,159.4436,269.5017,154.2416,266.7337,157.0097,261.5317,149.2604,268.2549" style="stroke:#545454;stroke-width:1.5625;"/><!--MD5=[0ec4f870a8b9f530040c9be27d791a01]
link kivakit_commandline to kivakit_conversion--><path d="M390.4688,205.9736 C363.6771,223.2132 326.125,247.3695 298.25,265.307 " fill="none" id="kivakit_commandline-to-kivakit_conversion" style="stroke:#545454;stroke-width:1.5625;"/><polygon fill="#545454" points="293.8646,268.1299,304.0038,266.5652,298.2457,265.3134,299.4975,259.5554,293.8646,268.1299" style="stroke:#545454;stroke-width:1.5625;"/><!--MD5=[943c04cd0fe752834cf06c59f408a839]
link kivakit_commandline to kivakit_core--><path d="M423.9583,206.234 C423.9583,222.7028 423.9583,245.4007 423.9583,262.9528 " fill="none" id="kivakit_commandline-to-kivakit_core" style="stroke:#545454;stroke-width:1.5625;"/><polygon fill="#545454" points="423.9583,268.234,428.125,258.859,423.9583,263.0257,419.7917,258.859,423.9583,268.234" style="stroke:#545454;stroke-width:1.5625;"/><!--MD5=[233173b8414f4008c96b85f34b766932]
link kivakit_commandline to kivakit_validation--><path d="M456.8125,205.9736 C482.9792,223.1403 519.625,247.1715 546.9271,265.0778 " fill="none" id="kivakit_commandline-to-kivakit_validation" style="stroke:#545454;stroke-width:1.5625;"/><polygon fill="#545454" points="551.5729,268.1299,546.0152,259.5064,547.2166,265.2752,541.4478,266.4766,551.5729,268.1299" style="stroke:#545454;stroke-width:1.5625;"/><!--MD5=[a27c71d033f650a74e689916edfa2bee]
link kivakit_core to cactus_build_metadata--><path d="M369.5313,310.1715 C317.2917,327.8799 238.2188,354.6715 181.7917,373.7965 " fill="none" id="kivakit_core-to-cactus_build_metadata" style="stroke:#545454;stroke-width:1.5625;"/><polygon fill="#545454" points="176.7396,375.5153,186.9546,376.4666,181.6747,373.8505,184.2909,368.5705,176.7396,375.5153" style="stroke:#545454;stroke-width:1.5625;"/><!--MD5=[3eda3c974646e0509602a12450d4fa2b]
link kivakit_core to junit--><path d="M461.0729,313.2653 C492.5625,331.5465 537.4792,357.6195 568.7708,375.7861 " fill="none" id="kivakit_core-to-junit" style="stroke:#545454;stroke-width:1.5625;"/><polygon fill="#545454" points="573.2917,378.4007,567.2573,370.1038,568.7815,375.7958,563.0895,377.3201,573.2917,378.4007" style="stroke:#545454;stroke-width:1.5625;"/><!--MD5=[50e8d2e340cfb1a2dae3d5796adb8458]
link kivakit_core to kivakit_interfaces--><path d="M400.2813,313.2653 C381.7292,330.1507 355.875,353.6715 336.3021,371.484 " fill="none" id="kivakit_core-to-kivakit_interfaces" style="stroke:#545454;stroke-width:1.5625;"/><polygon fill="#545454" points="331.9792,375.4215,341.7089,372.1684,335.8222,371.9062,336.0844,366.0195,331.9792,375.4215" style="stroke:#545454;stroke-width:1.5625;"/><!--MD5=[cc9720141deba8e1bd3912e4e0759165]
link kivakit_core to kivakit_mixins--><path d="M434.75,313.5257 C442.9792,330.1403 454.3333,353.0778 463.0521,370.7028 " fill="none" id="kivakit_core-to-kivakit_mixins" style="stroke:#545454;stroke-width:1.5625;"/><polygon fill="#545454" points="465.4375,375.5257,465.011,365.2754,463.1262,370.8583,457.5432,368.9735,465.4375,375.5257" style="stroke:#545454;stroke-width:1.5625;"/><!--MD5=[ae0cbb2eeca1523bc78b042db62e2be7]
link kivakit_interfaces to annotations--><path d="M323.4375,420.8174 C335.0521,437.5674 351.1354,460.7653 363.3854,478.4424 " fill="none" id="kivakit_interfaces-to-annotations" style="stroke:#545454;stroke-width:1.5625;"/><polygon fill="#545454" points="366.4063,482.8174,364.4884,472.739,363.4385,478.5373,357.6402,477.4874,366.4063,482.8174" style="stroke:#545454;stroke-width:1.5625;"/><!--MD5=[9b9898faa91efac5ccf8efb529e9a4f7]
link kivakit_interfaces to lexakai_annotations--><path d="M288.6875,420.8174 C273.4688,437.7132 252.3438,461.1611 236.3646,478.8903 " fill="none" id="kivakit_interfaces-to-lexakai_annotations" style="stroke:#545454;stroke-width:1.5625;"/><polygon fill="#545454" points="232.8333,482.8174,242.2019,478.6364,236.3175,478.9461,236.0078,473.0616,232.8333,482.8174" style="stroke:#545454;stroke-width:1.5625;"/><!--MD5=[3a8da46707b3267a7def2c5b13e3afea]
link kivakit_math to commons_math--><path d="M756.25,206.234 C756.25,222.7028 756.25,245.4007 756.25,262.9528 " fill="none" id="kivakit_math-to-commons_math" style="stroke:#545454;stroke-width:1.5625;"/><polygon fill="#545454" points="756.25,268.234,760.4167,258.859,756.25,263.0257,752.0833,258.859,756.25,268.234" style="stroke:#545454;stroke-width:1.5625;"/><!--MD5=[ae0d7908e369146a7fac8f92a656c43f]
link kivakit_serialization_kryo to kivakit_resource--><path d="M1103.6667,206.234 C1087.9375,223.1299 1066.125,246.5778 1049.6146,264.307 " fill="none" id="kivakit_serialization_kryo-to-kivakit_resource" style="stroke:#545454;stroke-width:1.5625;"/><polygon fill="#545454" points="1045.9688,268.234,1055.4121,264.2247,1049.523,264.427,1049.3208,258.5379,1045.9688,268.234" style="stroke:#545454;stroke-width:1.5625;"/><!--MD5=[bd8ffdf9ed53e7a9e4d2b803aca0e58d]
link kivakit_serialization_kryo to kivakit_serialization_core--><path d="M1144.4583,206.234 C1160.3542,223.1299 1182.4167,246.5778 1199.0938,264.307 " fill="none" id="kivakit_serialization_kryo-to-kivakit_serialization_core" style="stroke:#545454;stroke-width:1.5625;"/><polygon fill="#545454" points="1202.7813,268.234,1199.3901,258.5515,1199.2116,264.4413,1193.3218,264.2629,1202.7813,268.234" style="stroke:#545454;stroke-width:1.5625;"/><!--MD5=[1fd0e173316f765bede25fa1a86051ca]
link kivakit_serialization_kryo to kivakit_serialization_properties--><path d="M1193.3021,205.8486 C1250.5104,223.5153 1331.5208,248.5361 1390.0938,266.6299 " fill="none" id="kivakit_serialization_kryo-to-kivakit_serialization_properties" style="stroke:#545454;stroke-width:1.5625;"/><polygon fill="#545454" points="1395.3438,268.2549,1387.6129,261.5105,1390.3667,266.72,1385.1572,269.4738,1395.3438,268.2549" style="stroke:#545454;stroke-width:1.5625;"/><!--MD5=[40faeed4b9f18330bf0f83fa88774571]
link kivakit_serialization_kryo to kryo--><path d="M1076.4583,205.8486 C1032.4167,225.7132 967.7813,254.8486 927.5,273.0153 " fill="none" id="kivakit_serialization_kryo-to-kryo" style="stroke:#545454;stroke-width:1.5625;"/><polygon fill="#545454" points="922.7083,275.1715,932.9674,275.112,927.4554,273.0287,929.5388,267.5167,922.7083,275.1715" style="stroke:#545454;stroke-width:1.5625;"/><!--MD5=[03df8de183ef6689edc51eb2e13fe23e]
link kivakit_serialization_kryo to kryo_serializers--><path d="M1217.2708,198.9424 C1312.5521,214.2549 1464.5625,240.0465 1594.7917,268.2861 C1598.7917,269.1507 1602.8958,270.0778 1607.0313,271.0465 " fill="none" id="kivakit_serialization_kryo-to-kryo_serializers" style="stroke:#545454;stroke-width:1.5625;"/><polygon fill="#545454" points="1612.2708,272.2861,1604.0994,266.083,1607.201,271.0932,1602.1907,274.1948,1612.2708,272.2861" style="stroke:#545454;stroke-width:1.5625;"/><!--MD5=[8c32f0e7b0abeba01afd276f5a66ee84]
link kryo to minlog--><path d="M865.0313,313.2653 C844.8021,330.2861 816.5521,354.0674 795.3333,371.932 " fill="none" id="kryo-to-minlog" style="stroke:#545454;stroke-width:1.5625;"/><polygon fill="#545454" points="791.1875,375.4215,801.0415,372.5665,795.1703,372.0653,795.6715,366.1941,791.1875,375.4215" style="stroke:#545454;stroke-width:1.5625;"/><!--MD5=[e75c16e47fcf6c43b15d3c25536a9ed0]
link kryo to objenesis--><path d="M918.1458,313.2653 C939.9688,330.359 970.5104,354.2653 993.3438,372.1507 " fill="none" id="kryo-to-objenesis" style="stroke:#545454;stroke-width:1.5625;"/><polygon fill="#545454" points="997.5208,375.4215,992.7059,366.3624,993.4192,372.2116,987.57,372.9249,997.5208,375.4215" style="stroke:#545454;stroke-width:1.5625;"/><!--MD5=[e061beb27669383d030ce0c5c656b006]
link kryo to reflectasm--><path d="M890.625,313.5257 C890.625,329.9945 890.625,352.6924 890.625,370.2445 " fill="none" id="kryo-to-reflectasm" style="stroke:#545454;stroke-width:1.5625;"/><polygon fill="#545454" points="890.625,375.5257,894.7917,366.1507,890.625,370.3174,886.4583,366.1507,890.625,375.5257" style="stroke:#545454;stroke-width:1.5625;"/><!--MD5=[06be619025488a8fc6e367cd26977cb4]
link mesakit_map_measurements to kivakit_commandline--><path d="M688.6042,98.557 C632.7917,116.2236 553.7708,141.2445 496.625,159.3382 " fill="none" id="mesakit_map_measurements-to-kivakit_commandline" style="stroke:#545454;stroke-width:1.5625;"/><polygon fill="#545454" points="491.5104,160.9632,501.7035,162.1265,496.479,159.4012,499.2043,154.1768,491.5104,160.9632" style="stroke:#545454;stroke-width:1.5625;"/><!--MD5=[611a2331137209e1b5ed7f383d0b5efc]
link mesakit_map_measurements to kivakit_math--><path d="M756.25,98.9424 C756.25,115.4111 756.25,138.109 756.25,155.6611 " fill="none" id="mesakit_map_measurements-to-kivakit_math" style="stroke:#545454;stroke-width:1.5625;"/><polygon fill="#545454" points="756.25,160.9424,760.4167,151.5674,756.25,155.734,752.0833,151.5674,756.25,160.9424" style="stroke:#545454;stroke-width:1.5625;"/><!--MD5=[f8c69e1966a81e8cbfa34bc1609a1575]
link mesakit_map_measurements to kivakit_serialization_kryo--><path d="M831.1042,98.557 C892.9896,116.2653 980.6667,141.3486 1043.9271,159.4528 " fill="none" id="mesakit_map_measurements-to-kivakit_serialization_kryo" style="stroke:#545454;stroke-width:1.5625;"/><polygon fill="#545454" points="1049.2083,160.9632,1041.3336,154.3875,1044.1993,159.5363,1039.0505,162.402,1049.2083,160.9632" style="stroke:#545454;stroke-width:1.5625;"/><!--MD5=[338783537f3f9263e4097f5ff0c514d3]
link reflectasm to asm--><path d="M890.625,420.8174 C890.625,437.2861 890.625,459.984 890.625,477.5361 " fill="none" id="reflectasm-to-asm" style="stroke:#545454;stroke-width:1.5625;"/><polygon fill="#545454" points="890.625,482.8174,894.7917,473.4424,890.625,477.609,886.4583,473.4424,890.625,482.8174" style="stroke:#545454;stroke-width:1.5625;"/><!--MD5=[a03cc19701d6966a74eb5b4f45ee377e]
@startuml

    !include lexakai.theme
    
    title "mesakit-map-measurements"
    
    artifact kryo
    artifact minlog
    artifact reflectasm
    artifact cactus_build_metadata
    artifact kivakit_collections
    artifact kivakit_commandline
    artifact kivakit_conversion
    artifact kivakit_core
    artifact kivakit_interfaces
    artifact kivakit_math
    artifact kivakit_mixins
    artifact kivakit_resource
    artifact kivakit_serialization_core
    artifact kivakit_serialization_kryo
    artifact kivakit_serialization_properties
    artifact kivakit_validation
    artifact lexakai_annotations
    artifact mesakit_map_measurements
    artifact kryo_serializers
    artifact junit
    artifact commons_math
    artifact hamcrest_core
    artifact annotations
    artifact objenesis
    artifact asm
    junit - -> hamcrest_core
    kivakit_commandline - -> kivakit_collections
    kivakit_commandline - -> kivakit_conversion
    kivakit_commandline - -> kivakit_core
    kivakit_commandline - -> kivakit_validation
    kivakit_core - -> cactus_build_metadata
    kivakit_core - -> junit
    kivakit_core - -> kivakit_interfaces
    kivakit_core - -> kivakit_mixins
    kivakit_interfaces - -> annotations
    kivakit_interfaces - -> lexakai_annotations
    kivakit_math - -> commons_math
    kivakit_serialization_kryo - -> kivakit_resource
    kivakit_serialization_kryo - -> kivakit_serialization_core
    kivakit_serialization_kryo - -> kivakit_serialization_properties
    kivakit_serialization_kryo - -> kryo
    kivakit_serialization_kryo - -> kryo_serializers
    kryo - -> minlog
    kryo - -> objenesis
    kryo - -> reflectasm
    mesakit_map_measurements - -> kivakit_commandline
    mesakit_map_measurements - -> kivakit_math
    mesakit_map_measurements - -> kivakit_serialization_kryo
    reflectasm - -> asm
    
@enduml

@startuml









skinparam backgroundColor #333333






skinparam  {
    defaultFontName   "Open Sans,Avenir,Nunito,Arial,Helvetica,SansSerif"
    defaultFontSize   12
    defaultTextAlignment left
    shadowing false
    RoundCorner 10
    TitleFontSize 18
}

skinparam defaultFontName       "Open Sans,Avenir,Nunito,Arial,Helvetica,SansSerif"
skinparam defaultFontSize       12
skinparam dpi                   100
skinparam shadowing             false
skinparam roundcorner           16
skinparam ParticipantPadding    40
skinparam BoxPadding            40
skinparam Padding               3
skinparam ArrowColor            #545454
skinparam stereotype {
    CBackgroundColor #0066cf
    CBorderColor #0086ef
    ABackgroundColor #C8Ac00
    ABorderColor #D8Bc00
    IBackgroundColor #008400
    IBorderColor #239c23
    EBackgroundColor #cf6300
    EBorderColor #ef8300
    NBackgroundColor #3380b9
    NBorderColor #004d86
}
skinparam title {
	FontColor	                 #c0c0c0
 	BorderColor                  #545454
	FontSize	    	         20
	BorderRoundCorner            16
	BorderThickness 	         1
	BackgroundColor              #48494b
}


skinparam legend {
	BackgroundColor #303030
	BorderColor #404040
	FontColor #a0a0a0
}

	skinparam swimlane {
	BorderColor #5e5e5e
	BorderThickness 2
	TitleBackgroundColor  #6d6d6d-#484848
	TitleFontColor #303030
}

skinparam activity {
		FontColor #C8Ac00
	BorderColor #333333
	BackgroundColor #333333-#333333
	BarColor #00FF00
	StartColor #0060a8
	EndColor #0060a8
	DiamondBackgroundColor #6d6d6d-#3a3a3a
  	DiamondBorderColor #3a3a3a
  	DiamondFontColor #fefefe
}


skinparam participant {
		FontColor #C8Ac00
	BorderColor #333333
	BackgroundColor #333333-#333333
	ParticipantBorderThickness 2
}


skinparam actor {
		FontColor #C8Ac00
	BorderColor #333333
	BackgroundColor #333333-#333333
}


skinparam arrow {
	Thickness 1.5
	Color #545454
	FontColor #a0a0a0
    FontStyle bold
    MessageAlignment center
}



skinparam sequence {
	BorderColor #303030
	TitleFontColor #303030
	BackgroundColor #333333
	StartColor #303030
	EndColor #303030
	BoxBackgroundColor #333333
	BoxBorderColor #484848
	BoxFontColor #484848
	LifeLineBorderColor #484848
	LifeLineBorderThickness 2
	LifeLineBackgroundColor #3a3a3a
	GroupBorderColor #484848
	GroupFontColor #484848
	GroupHeaderFontColor #0060a8
	GroupBackgroundColor #484848
	GroupHeaderBackgroundColor #333333
	DividerBackgroundColor #484848
    DividerBorderColor #484848
    DividerBorderThickness 2
    DividerFontColor #D8Bc00
	ReferenceBackgroundColor #333333
	ReferenceBorderColor #484848
	ReferenceFontColor #fefefe
	ReferenceHeaderBackgroundColor #484848
}


skinparam partition {
	BorderColor #303030
	FontColor #333333
	BackgroundColor #333333
}


skinparam collections {
		FontColor #C8Ac00
	BorderColor #333333
	BackgroundColor #333333-#333333
}


skinparam control {
		FontColor #C8Ac00
	BorderColor #333333
	BackgroundColor #333333-#333333
}


skinparam entity {
		FontColor #C8Ac00
	BorderColor #333333
	BackgroundColor #333333-#333333
}


skinparam boundary {
		FontColor #C8Ac00
	BorderColor #333333
	BackgroundColor #333333-#333333
}


skinparam agent {
	BackgroundColor #ff8000
	BorderColor #ff9933
	FontColor #484848
}


skinparam note {
	BorderThickness 1
	BackgroundColor #1b1b1a
	BorderColor #5e5e5e
	FontSize 11
	FontColor #a0a0a0
}


skinparam artifact {
	BorderThickness 10
	BorderColor #5e5e5e
	BackgroundColor #1b1b1a
	FontColor #D8Bc00
}


skinparam component {
		FontColor #C8Ac00
	BorderColor #333333
	BackgroundColor #333333-#333333
}


skinparam interface {
	BackgroundColor  #008400
	BorderColor  #007F00
	FontColor #484848
}


skinparam storage {
	BackgroundColor #ff8000
  	BorderColor #cc6600
	FontColor #222222
}


skinparam node {
	BackgroundColor #333333
	BorderColor #333333
	FontColor #C8Ac00
}


skinparam cloud {
	BackgroundColor #484848-black
	BorderColor #484848
	FontColor #D8Bc00
}


skinparam database {
		FontColor #C8Ac00
	BorderColor #333333
	BackgroundColor #333333-#333333
	BackgroundColor  #333333
}


skinparam class {
		FontColor #C8Ac00
	BorderColor #333333
	BackgroundColor #333333-#333333
	HeaderBackgroundColor #1b1b1a
    BackgroundColor #282828
    BorderColor #5e5e5e
 	StereotypeFontColor #a0a0a0
    StereotypeFontStyle bold
	BorderThickness 1
	AttributeFontColor #D8Bc00
	AttributeFontSize 11
    FontColor #D8Bc00
    FontStyle bold
}


skinparam object {
		FontColor #C8Ac00
	BorderColor #333333
	BackgroundColor #333333-#333333
	StereotypeFontColor #484848
	BorderThickness 1
	AttributeFontColor #fefefe
	AttributeFontSize 11
}


skinparam usecase {
		FontColor #C8Ac00
	BorderColor #333333
	BackgroundColor #333333-#333333
	BorderThickness 2
	StereotypeFontColor #303030
}


skinparam rectangle {
		FontColor #C8Ac00
	BorderColor #333333
	BackgroundColor #333333-#333333
	BackgroundColor #333333
	BorderThickness 2
	StereotypeFontColor #303030
}


skinparam package {
		FontColor #C8Ac00
	BorderColor #333333
	BackgroundColor #333333-#333333
	BackgroundColor #333333
	BorderThickness 2
}


skinparam folder {
	BackgroundColor #6d6d6d
  	BorderColor #ff8000
	FontColor #ff8000
	BorderThickness 2
}


skinparam frame {
	BackgroundColor #6d6d6d
  	BorderColor #0060a8
	FontColor #0060a8
	BorderThickness 2
}


skinparam state {
		FontColor #C8Ac00
	BorderColor #333333
	BackgroundColor #333333-#333333
	StartColor #0060a8
	EndColor #0060a8
	AttributeFontColor #fefefe
	AttributeFontSize 11
}


skinparam queue {
		FontColor #C8Ac00
	BorderColor #333333
	BackgroundColor #333333-#333333
}


skinparam card {
	BackgroundColor #0060a8
	BorderColor #004d86
	FontColor $INFO_TEXT
}


skinparam file {
	BackgroundColor #6d6d6d-#484848
	BorderColor #0060a8
	FontColor #fefefe
}


skinparam stack {
		FontColor #C8Ac00
	BorderColor #333333
	BackgroundColor #333333-#333333
}

    
    title "mesakit-map-measurements"
    
    artifact kryo
    artifact minlog
    artifact reflectasm
    artifact cactus_build_metadata
    artifact kivakit_collections
    artifact kivakit_commandline
    artifact kivakit_conversion
    artifact kivakit_core
    artifact kivakit_interfaces
    artifact kivakit_math
    artifact kivakit_mixins
    artifact kivakit_resource
    artifact kivakit_serialization_core
    artifact kivakit_serialization_kryo
    artifact kivakit_serialization_properties
    artifact kivakit_validation
    artifact lexakai_annotations
    artifact mesakit_map_measurements
    artifact kryo_serializers
    artifact junit
    artifact commons_math
    artifact hamcrest_core
    artifact annotations
    artifact objenesis
    artifact asm
    junit - -> hamcrest_core
    kivakit_commandline - -> kivakit_collections
    kivakit_commandline - -> kivakit_conversion
    kivakit_commandline - -> kivakit_core
    kivakit_commandline - -> kivakit_validation
    kivakit_core - -> cactus_build_metadata
    kivakit_core - -> junit
    kivakit_core - -> kivakit_interfaces
    kivakit_core - -> kivakit_mixins
    kivakit_interfaces - -> annotations
    kivakit_interfaces - -> lexakai_annotations
    kivakit_math - -> commons_math
    kivakit_serialization_kryo - -> kivakit_resource
    kivakit_serialization_kryo - -> kivakit_serialization_core
    kivakit_serialization_kryo - -> kivakit_serialization_properties
    kivakit_serialization_kryo - -> kryo
    kivakit_serialization_kryo - -> kryo_serializers
    kryo - -> minlog
    kryo - -> objenesis
    kryo - -> reflectasm
    mesakit_map_measurements - -> kivakit_commandline
    mesakit_map_measurements - -> kivakit_math
    mesakit_map_measurements - -> kivakit_serialization_kryo
    reflectasm - -> asm
    
@enduml

PlantUML version 1.2021.01(Tue Feb 02 00:55:08 MST 2021)
(GPL source distribution)
Java Runtime: OpenJDK Runtime Environment
JVM: OpenJDK 64-Bit Server VM
Default Encoding: UTF-8
Language: en
Country: US
--></g></svg>