<?xml version="1.0" encoding="UTF-8" standalone="no"?><svg xmlns="http://www.w3.org/2000/svg" xmlns:xlink="http://www.w3.org/1999/xlink" contentScriptType="application/ecmascript" contentStyleType="text/css" height="598.9583px" preserveAspectRatio="none" style="width:1076px;height:598px;background:#333333;" version="1.1" viewBox="0 0 1076 598" width="1076.0417px" zoomAndPan="magnify"><defs/><g><rect fill="#48494B" height="41.2028" rx="8.3333" ry="8.3333" style="stroke:#545454;stroke-width:1.0416666666666667;" width="394.7917" x="333.5938" y="2.0833"/><text fill="#C0C0C0" font-family="Open Sans,Avenir,Nunito,Arial,Helvetica,SansSerif" font-size="20.8333" lengthAdjust="spacing" textLength="371.875" x="345.0521" y="30.5583">com.telenav.mesakit.graph.io.archive</text><!--MD5=[8fec4343168a34ba948160599fefec9c]
cluster GraphArchive--><polygon fill="#333333" points="197.3958,287.557,296.3542,287.557,303.6458,314.7786,515.1042,314.7786,515.1042,444.8486,197.3958,444.8486,197.3958,287.557" style="stroke:#333333;stroke-width:2.0833333333333335;"/><line style="stroke:#333333;stroke-width:2.0833333333333335;" x1="197.3958" x2="303.6458" y1="314.7786" y2="314.7786"/><text fill="#C8AC00" font-family="Open Sans,Avenir,Nunito,Arial,Helvetica,SansSerif" font-size="12.5" font-weight="bold" lengthAdjust="spacing" textLength="86.4583" x="204.6875" y="304.8503">GraphArchive</text><!--MD5=[aa57f63e739306d40b3d1dd7c1d8ac9f]
class GraphArchive.Converter--><rect codeLine="11" fill="#282828" height="83.3781" id="GraphArchive.Converter" rx="8.3333" ry="8.3333" style="stroke:#5E5E5E;stroke-width:1.0416666666666667;" width="246.875" x="242.7083" y="336.5153"/><rect fill="#1B1B1A" height="31.3883" rx="8.3333" ry="8.3333" style="stroke:#1B1B1A;stroke-width:1.0416666666666667;" width="246.875" x="242.7083" y="336.5153"/><rect fill="#1B1B1A" height="8.3333" style="stroke:#1B1B1A;stroke-width:1.0416666666666667;" width="246.875" x="242.7083" y="359.5703"/><rect codeLine="11" fill="none" height="83.3781" id="GraphArchive.Converter" rx="8.3333" ry="8.3333" style="stroke:#5E5E5E;stroke-width:1.0416666666666667;" width="246.875" x="242.7083" y="336.5153"/><ellipse cx="327.0833" cy="352.2095" fill="#0066CF" rx="10.4167" ry="10.4167" style="stroke:#0086EF;stroke-width:1.0416666666666667;"/><path d="M328.9937,356.6345 Q328.5665,356.8542 328.0965,356.9641 Q327.6265,357.074 327.1077,357.074 Q325.2645,357.074 324.294,355.8594 Q323.3236,354.6448 323.3236,352.3499 Q323.3236,350.0488 324.294,348.8342 Q325.2645,347.6196 327.1077,347.6196 Q327.6265,347.6196 328.1026,347.7295 Q328.5787,347.8394 328.9937,348.0591 L328.9937,350.061 Q328.5299,349.6338 328.0935,349.4354 Q327.6571,349.2371 327.1932,349.2371 Q326.2044,349.2371 325.7009,350.0214 Q325.1973,350.8057 325.1973,352.3499 Q325.1973,353.8879 325.7009,354.6722 Q326.2044,355.4565 327.1932,355.4565 Q327.6571,355.4565 328.0935,355.2582 Q328.5299,355.0598 328.9937,354.6326 Z " fill="#000000"/><text fill="#D8BC00" font-family="Open Sans,Avenir,Nunito,Arial,Helvetica,SansSerif" font-size="12.5" font-weight="bold" lengthAdjust="spacing" textLength="63.5417" x="350" y="356.9336">Converter</text><line style="stroke:#5E5E5E;stroke-width:1.5625;" x1="243.75" x2="488.5417" y1="367.9036" y2="367.9036"/><ellipse cx="254.1667" cy="403.2735" fill="#84BE84" rx="3.125" ry="3.125" style="stroke:#038048;stroke-width:1.0416666666666667;"/><text fill="#D8BC00" font-family="Open Sans,Avenir,Nunito,Arial,Helvetica,SansSerif" font-size="11.4583" lengthAdjust="spacing" textLength="214.5833" x="265.625" y="410.1847">Converter(Listener, ProgressReporter)</text><line style="stroke:#5E5E5E;stroke-width:1.0416666666666667;" x1="243.75" x2="322.3958" y1="386.1094" y2="386.1094"/><text fill="#D8BC00" font-family="Open Sans,Avenir,Nunito,Arial,Helvetica,SansSerif" font-size="11.4583" lengthAdjust="spacing" textLength="81.25" x="325.5208" y="389.919">(constructors)</text><line style="stroke:#5E5E5E;stroke-width:1.0416666666666667;" x1="409.8958" x2="488.5417" y1="386.1094" y2="386.1094"/><!--MD5=[9aa687ed59f428548907e723dba1087a]
class BaseStringConverter--><rect codeLine="6" fill="#282828" height="48.055" id="BaseStringConverter" rx="8.3333" ry="8.3333" style="stroke:#5E5E5E;stroke-width:1.0416666666666667;" width="169.7917" x="142.7083" y="53.7028"/><rect fill="#1B1B1A" height="31.3883" rx="8.3333" ry="8.3333" style="stroke:#1B1B1A;stroke-width:1.0416666666666667;" width="169.7917" x="142.7083" y="53.7028"/><rect fill="#1B1B1A" height="8.3333" style="stroke:#1B1B1A;stroke-width:1.0416666666666667;" width="169.7917" x="142.7083" y="76.7578"/><rect codeLine="6" fill="none" height="48.055" id="BaseStringConverter" rx="8.3333" ry="8.3333" style="stroke:#5E5E5E;stroke-width:1.0416666666666667;" width="169.7917" x="142.7083" y="53.7028"/><ellipse cx="157.2917" cy="69.397" fill="#C8AC00" rx="10.4167" ry="10.4167" style="stroke:#D8BC00;stroke-width:1.0416666666666667;"/><path d="M156.8848,66.099 L156.0364,69.8283 L157.7393,69.8283 Z M155.7861,64.4511 L157.9895,64.4511 L160.4492,73.5636 L158.6487,73.5636 L158.0872,71.3114 L155.6763,71.3114 L155.127,73.5636 L153.3264,73.5636 Z " fill="#000000"/><text fill="#D8BC00" font-family="Open Sans,Avenir,Nunito,Arial,Helvetica,SansSerif" font-size="12.5" font-style="italic" font-weight="bold" lengthAdjust="spacing" textLength="132.2917" x="173.9583" y="74.1211">BaseStringConverter</text><line style="stroke:#5E5E5E;stroke-width:1.0416666666666667;" x1="143.75" x2="311.4583" y1="85.0911" y2="85.0911"/><line style="stroke:#5E5E5E;stroke-width:1.0416666666666667;" x1="143.75" x2="311.4583" y1="93.4245" y2="93.4245"/><!--MD5=[7c5c88a606935469d5f89b0b5794816c]
class Named--><rect codeLine="8" fill="#282828" height="48.055" id="Named" rx="8.3333" ry="8.3333" style="stroke:#5E5E5E;stroke-width:1.0416666666666667;" width="82.2917" x="694.7917" y="53.7028"/><rect fill="#1B1B1A" height="31.3883" rx="8.3333" ry="8.3333" style="stroke:#1B1B1A;stroke-width:1.0416666666666667;" width="82.2917" x="694.7917" y="53.7028"/><rect fill="#1B1B1A" height="8.3333" style="stroke:#1B1B1A;stroke-width:1.0416666666666667;" width="82.2917" x="694.7917" y="76.7578"/><rect codeLine="8" fill="none" height="48.055" id="Named" rx="8.3333" ry="8.3333" style="stroke:#5E5E5E;stroke-width:1.0416666666666667;" width="82.2917" x="694.7917" y="53.7028"/><ellipse cx="709.375" cy="69.397" fill="#008400" rx="10.4167" ry="10.4167" style="stroke:#239C23;stroke-width:1.0416666666666667;"/><path d="M706.779,66.5588 L706.779,64.9719 L712.205,64.9719 L712.205,66.5588 L710.3923,66.5588 L710.3923,72.4976 L712.205,72.4976 L712.205,74.0845 L706.779,74.0845 L706.779,72.4976 L708.5917,72.4976 L708.5917,66.5588 Z " fill="#000000"/><text fill="#D8BC00" font-family="Open Sans,Avenir,Nunito,Arial,Helvetica,SansSerif" font-size="12.5" font-style="italic" font-weight="bold" lengthAdjust="spacing" textLength="44.7917" x="726.0417" y="74.1211">Named</text><line style="stroke:#5E5E5E;stroke-width:1.0416666666666667;" x1="695.8333" x2="776.0417" y1="85.0911" y2="85.0911"/><line style="stroke:#5E5E5E;stroke-width:1.0416666666666667;" x1="695.8333" x2="776.0417" y1="93.4245" y2="93.4245"/><!--MD5=[301757bf963cbdfcac24cbf9fd45e92d]
class FieldArchive--><rect fill="#282828" height="48.055" id="FieldArchive" rx="8.3333" ry="8.3333" style="stroke:#5E5E5E;stroke-width:1.0416666666666667;" width="116.6667" x="814.0625" y="53.7028"/><rect fill="#1B1B1A" height="31.3883" rx="8.3333" ry="8.3333" style="stroke:#1B1B1A;stroke-width:1.0416666666666667;" width="116.6667" x="814.0625" y="53.7028"/><rect fill="#1B1B1A" height="8.3333" style="stroke:#1B1B1A;stroke-width:1.0416666666666667;" width="116.6667" x="814.0625" y="76.7578"/><rect fill="none" height="48.055" id="FieldArchive" rx="8.3333" ry="8.3333" style="stroke:#5E5E5E;stroke-width:1.0416666666666667;" width="116.6667" x="814.0625" y="53.7028"/><ellipse cx="828.6458" cy="69.397" fill="#0066CF" rx="10.4167" ry="10.4167" style="stroke:#0086EF;stroke-width:1.0416666666666667;"/><path d="M830.5562,73.822 Q830.129,74.0417 829.659,74.1516 Q829.189,74.2615 828.6702,74.2615 Q826.827,74.2615 825.8565,73.0469 Q824.8861,71.8323 824.8861,69.5374 Q824.8861,67.2363 825.8565,66.0217 Q826.827,64.8071 828.6702,64.8071 Q829.189,64.8071 829.6651,64.917 Q830.1412,65.0269 830.5562,65.2466 L830.5562,67.2485 Q830.0924,66.8213 829.656,66.6229 Q829.2196,66.4246 828.7557,66.4246 Q827.7669,66.4246 827.2634,67.2089 Q826.7598,67.9932 826.7598,69.5374 Q826.7598,71.0754 827.2634,71.8597 Q827.7669,72.644 828.7557,72.644 Q829.2196,72.644 829.656,72.4457 Q830.0924,72.2473 830.5562,71.8201 Z " fill="#000000"/><text fill="#D8BC00" font-family="Open Sans,Avenir,Nunito,Arial,Helvetica,SansSerif" font-size="12.5" font-weight="bold" lengthAdjust="spacing" textLength="79.1667" x="845.3125" y="74.1211">FieldArchive</text><line style="stroke:#5E5E5E;stroke-width:1.0416666666666667;" x1="815.1042" x2="929.6875" y1="85.0911" y2="85.0911"/><line style="stroke:#5E5E5E;stroke-width:1.0416666666666667;" x1="815.1042" x2="929.6875" y1="93.4245" y2="93.4245"/><!--MD5=[d9dbe218e92f196f33db54cbc17bb39a]
class GraphArchive--><rect codeLine="19" fill="#282828" height="428.4627" id="GraphArchive" rx="8.3333" ry="8.3333" style="stroke:#5E5E5E;stroke-width:1.0416666666666667;" width="529.1667" x="540.1042" y="164.1195"/><rect fill="#1B1B1A" height="31.3883" rx="8.3333" ry="8.3333" style="stroke:#1B1B1A;stroke-width:1.0416666666666667;" width="529.1667" x="540.1042" y="164.1195"/><rect fill="#1B1B1A" height="8.3333" style="stroke:#1B1B1A;stroke-width:1.0416666666666667;" width="529.1667" x="540.1042" y="187.1745"/><rect codeLine="19" fill="none" height="428.4627" id="GraphArchive" rx="8.3333" ry="8.3333" style="stroke:#5E5E5E;stroke-width:1.0416666666666667;" width="529.1667" x="540.1042" y="164.1195"/><ellipse cx="754.1667" cy="179.8136" fill="#0066CF" rx="10.4167" ry="10.4167" style="stroke:#0086EF;stroke-width:1.0416666666666667;"/><path d="M756.0771,184.2387 Q755.6498,184.4584 755.1799,184.5683 Q754.7099,184.6781 754.1911,184.6781 Q752.3478,184.6781 751.3774,183.4635 Q750.4069,182.2489 750.4069,179.954 Q750.4069,177.653 751.3774,176.4384 Q752.3478,175.2238 754.1911,175.2238 Q754.7099,175.2238 755.186,175.3337 Q755.662,175.4435 756.0771,175.6632 L756.0771,177.6652 Q755.6132,177.238 755.1768,177.0396 Q754.7404,176.8412 754.2765,176.8412 Q753.2878,176.8412 752.7842,177.6255 Q752.2807,178.4098 752.2807,179.954 Q752.2807,181.4921 752.7842,182.2764 Q753.2878,183.0607 754.2765,183.0607 Q754.7404,183.0607 755.1768,182.8623 Q755.6132,182.664 756.0771,182.2367 Z " fill="#000000"/><text fill="#D8BC00" font-family="Open Sans,Avenir,Nunito,Arial,Helvetica,SansSerif" font-size="12.5" font-weight="bold" lengthAdjust="spacing" textLength="86.4583" x="777.0833" y="184.5378">GraphArchive</text><line style="stroke:#5E5E5E;stroke-width:1.5625;" x1="541.1458" x2="1068.2292" y1="195.5078" y2="195.5078"/><ellipse cx="551.5625" cy="230.8777" fill="#84BE84" rx="3.125" ry="3.125" style="stroke:#038048;stroke-width:1.0416666666666667;"/><text fill="#D8BC00" font-family="Open Sans,Avenir,Nunito,Arial,Helvetica,SansSerif" font-size="11.4583" lengthAdjust="spacing" textLength="360.4167" x="563.0208" y="237.7889">GraphArchive(Listener, File, ZipArchive.Mode, ProgressReporter)</text><line style="stroke:#5E5E5E;stroke-width:1.0416666666666667;" x1="541.1458" x2="760.9375" y1="213.7136" y2="213.7136"/><text fill="#D8BC00" font-family="Open Sans,Avenir,Nunito,Arial,Helvetica,SansSerif" font-size="11.4583" lengthAdjust="spacing" textLength="81.25" x="764.0625" y="217.5232">(constructors)</text><line style="stroke:#5E5E5E;stroke-width:1.0416666666666667;" x1="848.4375" x2="1068.2292" y1="213.7136" y2="213.7136"/><line style="stroke:#5E5E5E;stroke-width:1.0416666666666667;" x1="541.1458" x2="1068.2292" y1="247.4976" y2="247.4976"/><ellipse cx="551.5625" cy="258.9559" fill="#84BE84" rx="3.125" ry="3.125" style="stroke:#038048;stroke-width:1.0416666666666667;"/><text fill="#D8BC00" font-family="Open Sans,Avenir,Nunito,Arial,Helvetica,SansSerif" font-size="11.4583" lengthAdjust="spacing" textLength="263.5417" x="563.0208" y="265.8671">Resource forSpecifier(Listener, String specifier)</text><ellipse cx="551.5625" cy="278.7008" fill="#84BE84" rx="3.125" ry="3.125" style="stroke:#038048;stroke-width:1.0416666666666667;"/><text fill="#D8BC00" font-family="Open Sans,Avenir,Nunito,Arial,Helvetica,SansSerif" font-size="11.4583" lengthAdjust="spacing" textLength="113.5417" x="563.0208" y="285.612">Resource resource()</text><ellipse cx="551.5625" cy="322.3572" fill="#84BE84" rx="3.125" ry="3.125" style="stroke:#038048;stroke-width:1.0416666666666667;"/><text fill="#D8BC00" font-family="Open Sans,Avenir,Nunito,Arial,Helvetica,SansSerif" font-size="11.4583" lengthAdjust="spacing" textLength="387.5" x="563.0208" y="329.2684">ArgumentParser.Builder&lt;Graph&gt; argumentParser(String description)</text><ellipse cx="551.5625" cy="342.1021" fill="#84BE84" rx="3.125" ry="3.125" style="stroke:#038048;stroke-width:1.0416666666666667;"/><text fill="#D8BC00" font-family="Open Sans,Avenir,Nunito,Arial,Helvetica,SansSerif" font-size="11.4583" lengthAdjust="spacing" textLength="496.875" x="563.0208" y="349.0133">SwitchParser.Builder&lt;Graph&gt; graphArchiveSwitchParser(String name, String description)</text><ellipse cx="551.5625" cy="361.8469" fill="#84BE84" rx="3.125" ry="3.125" style="stroke:#038048;stroke-width:1.0416666666666667;"/><text fill="#D8BC00" font-family="Open Sans,Avenir,Nunito,Arial,Helvetica,SansSerif" font-size="11.4583" lengthAdjust="spacing" textLength="493.75" x="563.0208" y="368.7581">SwitchParser.Builder&lt;GraphList&gt; graphListSwitchParser(String name, String description)</text><line style="stroke:#5E5E5E;stroke-width:1.0416666666666667;" x1="541.1458" x2="735.4167" y1="305.1931" y2="305.1931"/><text fill="#D8BC00" font-family="Open Sans,Avenir,Nunito,Arial,Helvetica,SansSerif" font-size="11.4583" lengthAdjust="spacing" textLength="132.2917" x="738.5417" y="309.0027">(command line parsing)</text><line style="stroke:#5E5E5E;stroke-width:1.0416666666666667;" x1="873.9583" x2="1068.2292" y1="305.1931" y2="305.1931"/><ellipse cx="551.5625" cy="405.5033" fill="#84BE84" rx="3.125" ry="3.125" style="stroke:#038048;stroke-width:1.0416666666666667;"/><text fill="#D8BC00" font-family="Open Sans,Avenir,Nunito,Arial,Helvetica,SansSerif" font-size="11.4583" lengthAdjust="spacing" textLength="148.9583" x="563.0208" y="412.4146">boolean accepts(FileName)</text><line style="stroke:#5E5E5E;stroke-width:1.0416666666666667;" x1="541.1458" x2="775.5208" y1="388.3392" y2="388.3392"/><text fill="#D8BC00" font-family="Open Sans,Avenir,Nunito,Arial,Helvetica,SansSerif" font-size="11.4583" lengthAdjust="spacing" textLength="52.0833" x="778.6458" y="392.1488">(filtering)</text><line style="stroke:#5E5E5E;stroke-width:1.0416666666666667;" x1="833.8542" x2="1068.2292" y1="388.3392" y2="388.3392"/><ellipse cx="551.5625" cy="449.1597" fill="#84BE84" rx="3.125" ry="3.125" style="stroke:#038048;stroke-width:1.0416666666666667;"/><text fill="#D8BC00" font-family="Open Sans,Avenir,Nunito,Arial,Helvetica,SansSerif" font-size="11.4583" lengthAdjust="spacing" textLength="112.5" x="563.0208" y="456.071">Metadata metadata()</text><ellipse cx="551.5625" cy="468.9046" fill="#84BE84" rx="3.125" ry="3.125" style="stroke:#038048;stroke-width:1.0416666666666667;"/><text fill="#D8BC00" font-family="Open Sans,Avenir,Nunito,Arial,Helvetica,SansSerif" font-size="11.4583" lengthAdjust="spacing" textLength="160.4167" x="563.0208" y="475.8158">void saveMetadata(Metadata)</text><line style="stroke:#5E5E5E;stroke-width:1.0416666666666667;" x1="541.1458" x2="771.875" y1="431.9956" y2="431.9956"/><text fill="#D8BC00" font-family="Open Sans,Avenir,Nunito,Arial,Helvetica,SansSerif" font-size="11.4583" lengthAdjust="spacing" textLength="59.375" x="775" y="435.8053">(metadata)</text><line style="stroke:#5E5E5E;stroke-width:1.0416666666666667;" x1="837.5" x2="1068.2292" y1="431.9956" y2="431.9956"/><ellipse cx="551.5625" cy="512.561" fill="#84BE84" rx="3.125" ry="3.125" style="stroke:#038048;stroke-width:1.0416666666666667;"/><text fill="#D8BC00" font-family="Open Sans,Avenir,Nunito,Arial,Helvetica,SansSerif" font-size="11.4583" lengthAdjust="spacing" textLength="114.5833" x="563.0208" y="519.4722">Graph load(Listener)</text><ellipse cx="551.5625" cy="532.3059" fill="#84BE84" rx="3.125" ry="3.125" style="stroke:#038048;stroke-width:1.0416666666666667;"/><text fill="#D8BC00" font-family="Open Sans,Avenir,Nunito,Arial,Helvetica,SansSerif" font-size="11.4583" lengthAdjust="spacing" textLength="129.1667" x="563.0208" y="539.2171">Graph loadAll(Listener)</text><line style="stroke:#5E5E5E;stroke-width:1.0416666666666667;" x1="541.1458" x2="784.8958" y1="495.3969" y2="495.3969"/><text fill="#D8BC00" font-family="Open Sans,Avenir,Nunito,Arial,Helvetica,SansSerif" font-size="11.4583" lengthAdjust="spacing" textLength="33.3333" x="788.0208" y="499.2065">(read)</text><line style="stroke:#5E5E5E;stroke-width:1.0416666666666667;" x1="824.4792" x2="1068.2292" y1="495.3969" y2="495.3969"/><ellipse cx="551.5625" cy="575.9623" fill="#84BE84" rx="3.125" ry="3.125" style="stroke:#038048;stroke-width:1.0416666666666667;"/><text fill="#D8BC00" font-family="Open Sans,Avenir,Nunito,Arial,Helvetica,SansSerif" font-size="11.4583" lengthAdjust="spacing" textLength="106.25" x="563.0208" y="582.8735">Time lastModified()</text><line style="stroke:#5E5E5E;stroke-width:1.0416666666666667;" x1="541.1458" x2="785.4167" y1="558.7982" y2="558.7982"/><text fill="#D8BC00" font-family="Open Sans,Avenir,Nunito,Arial,Helvetica,SansSerif" font-size="11.4583" lengthAdjust="spacing" textLength="32.2917" x="788.5417" y="562.6078">(time)</text><line style="stroke:#5E5E5E;stroke-width:1.0416666666666667;" x1="823.9583" x2="1068.2292" y1="558.7982" y2="558.7982"/><!--MD5=[51380afd9125c0f6241ba6fda2bb4aa6]
class GraphArchive.ListConverter--><rect codeLine="43" fill="#282828" height="83.3781" id="GraphArchive.ListConverter" rx="8.3333" ry="8.3333" style="stroke:#5E5E5E;stroke-width:1.0416666666666667;" width="161.4583" x="7.2917" y="336.5153"/><rect fill="#1B1B1A" height="31.3883" rx="8.3333" ry="8.3333" style="stroke:#1B1B1A;stroke-width:1.0416666666666667;" width="161.4583" x="7.2917" y="336.5153"/><rect fill="#1B1B1A" height="8.3333" style="stroke:#1B1B1A;stroke-width:1.0416666666666667;" width="161.4583" x="7.2917" y="359.5703"/><rect codeLine="43" fill="none" height="83.3781" id="GraphArchive.ListConverter" rx="8.3333" ry="8.3333" style="stroke:#5E5E5E;stroke-width:1.0416666666666667;" width="161.4583" x="7.2917" y="336.5153"/><ellipse cx="38.2813" cy="352.2095" fill="#0066CF" rx="10.4167" ry="10.4167" style="stroke:#0086EF;stroke-width:1.0416666666666667;"/><path d="M40.1917,356.6345 Q39.7644,356.8542 39.2944,356.9641 Q38.8245,357.074 38.3057,357.074 Q36.4624,357.074 35.4919,355.8594 Q34.5215,354.6448 34.5215,352.3499 Q34.5215,350.0488 35.4919,348.8342 Q36.4624,347.6196 38.3057,347.6196 Q38.8245,347.6196 39.3005,347.7295 Q39.7766,347.8394 40.1917,348.0591 L40.1917,350.061 Q39.7278,349.6338 39.2914,349.4354 Q38.855,349.2371 38.3911,349.2371 Q37.4023,349.2371 36.8988,350.0214 Q36.3953,350.8057 36.3953,352.3499 Q36.3953,353.8879 36.8988,354.6722 Q37.4023,355.4565 38.3911,355.4565 Q38.855,355.4565 39.2914,355.2582 Q39.7278,355.0598 40.1917,354.6326 Z " fill="#000000"/><text fill="#D8BC00" font-family="Open Sans,Avenir,Nunito,Arial,Helvetica,SansSerif" font-size="12.5" font-weight="bold" lengthAdjust="spacing" textLength="87.5" x="58.5938" y="356.9336">ListConverter</text><line style="stroke:#5E5E5E;stroke-width:1.5625;" x1="8.3333" x2="167.7083" y1="367.9036" y2="367.9036"/><ellipse cx="18.75" cy="403.2735" fill="#84BE84" rx="3.125" ry="3.125" style="stroke:#038048;stroke-width:1.0416666666666667;"/><text fill="#D8BC00" font-family="Open Sans,Avenir,Nunito,Arial,Helvetica,SansSerif" font-size="11.4583" lengthAdjust="spacing" textLength="129.1667" x="30.2083" y="410.1847">ListConverter(Listener)</text><line style="stroke:#5E5E5E;stroke-width:1.0416666666666667;" x1="8.3333" x2="44.2708" y1="386.1094" y2="386.1094"/><text fill="#D8BC00" font-family="Open Sans,Avenir,Nunito,Arial,Helvetica,SansSerif" font-size="11.4583" lengthAdjust="spacing" textLength="81.25" x="47.3958" y="389.919">(constructors)</text><line style="stroke:#5E5E5E;stroke-width:1.0416666666666667;" x1="131.7708" x2="167.7083" y1="386.1094" y2="386.1094"/><!--MD5=[c3368dfe92c799134d9716ff19c4b119]
reverse link BaseStringConverter to GraphArchive.Converter--><path codeLine="10" d="M247.1875,120.8903 C273.7917,178.1924 321.0208,279.9424 347.2604,336.4528 " fill="none" id="BaseStringConverter-backto-GraphArchive.Converter" style="stroke:#545454;stroke-width:1.5625;"/><polygon fill="none" points="240.4063,123.5882,238.25,101.6299,253.6354,117.4528,240.4063,123.5882" style="stroke:#545454;stroke-width:1.5625;"/><!--MD5=[5fe9d928103dc7bbb744872ec76469ca]
reverse link FieldArchive to GraphArchive--><path codeLine="17" d="M862.5625,122.0361 C859.7708,134.3486 856.5313,148.6507 853.0313,164.0674 " fill="none" id="FieldArchive-backto-GraphArchive" style="stroke:#545454;stroke-width:1.5625;"/><polygon fill="none" points="855.4792,120.3278,867.1979,101.6299,869.6979,123.557,855.4792,120.3278" style="stroke:#545454;stroke-width:1.5625;"/><!--MD5=[4ab4a9f98fb1c5bb978bd16b3fa901fa]
reverse link Named to GraphArchive--><path codeLine="18" d="M745.9167,122.0361 C748.7604,134.3486 752.0521,148.6507 755.6042,164.0674 " fill="none" id="Named-backto-GraphArchive" style="stroke:#545454;stroke-width:1.5625;"/><polygon fill="none" points="738.7917,123.5674,741.2188,101.6299,753,120.2861,738.7917,123.5674" style="stroke:#545454;stroke-width:1.5625;"/><!--MD5=[e737b0f887fd9be229009e8973517116]
reverse link BaseStringConverter to GraphArchive.ListConverter--><path codeLine="42" d="M208.0521,120.5153 C181.2813,177.7445 133.5417,279.8174 107.0521,336.4528 " fill="none" id="BaseStringConverter-backto-GraphArchive.ListConverter" style="stroke:#545454;stroke-width:1.5625;"/><polygon fill="none" points="201.4479,117.4111,216.8854,101.6299,214.6667,123.5882,201.4479,117.4111" style="stroke:#545454;stroke-width:1.5625;"/><!--MD5=[28e60621aa77e89bf0e699d527f1cee6]
@startuml

    !include lexakai.theme
    
    title "com.telenav.mesakit.graph.io.archive"
    
    abstract BaseStringConverter
    
    interface Named
    
    BaseStringConverter <|- - GraphArchive.Converter
    class GraphArchive.Converter
    {
        - -(constructors)- -
        +Converter(Listener, ProgressReporter)
    }
    
    FieldArchive <|- - GraphArchive
    Named <|- - GraphArchive
    class GraphArchive
    {
        - -(constructors)- -
        +GraphArchive(Listener, File, ZipArchive.Mode, ProgressReporter)
        - -
        +Resource forSpecifier(Listener, String specifier)
        +Resource resource()
        - -(command line parsing)- -
        +ArgumentParser.Builder<Graph> argumentParser(String description)
        +SwitchParser.Builder<Graph> graphArchiveSwitchParser(String name, String description)
        +SwitchParser.Builder<GraphList> graphListSwitchParser(String name, String description)
        - -(filtering)- -
        +boolean accepts(FileName)
        - -(metadata)- -
        +Metadata metadata()
        +void saveMetadata(Metadata)
        - -(read)- -
        +Graph load(Listener)
        +Graph loadAll(Listener)
        - -(time)- -
        +Time lastModified()
    }
    
    BaseStringConverter <|- - GraphArchive.ListConverter
    class GraphArchive.ListConverter
    {
        - -(constructors)- -
        +ListConverter(Listener)
    }
    
@enduml

@startuml









skinparam backgroundColor #333333






skinparam  {
    defaultFontName   "Open Sans,Avenir,Nunito,Arial,Helvetica,SansSerif"
    defaultFontSize   12
    defaultTextAlignment left
    shadowing false
    RoundCorner 10
    TitleFontSize 18
}

skinparam defaultFontName       "Open Sans,Avenir,Nunito,Arial,Helvetica,SansSerif"
skinparam defaultFontSize       12
skinparam dpi                   100
skinparam shadowing             false
skinparam roundcorner           16
skinparam ParticipantPadding    40
skinparam BoxPadding            40
skinparam Padding               3
skinparam ArrowColor            #545454
skinparam stereotype {
    CBackgroundColor #0066cf
    CBorderColor #0086ef
    ABackgroundColor #C8Ac00
    ABorderColor #D8Bc00
    IBackgroundColor #008400
    IBorderColor #239c23
    EBackgroundColor #cf6300
    EBorderColor #ef8300
    NBackgroundColor #3380b9
    NBorderColor #004d86
}
skinparam title {
	FontColor	                 #c0c0c0
 	BorderColor                  #545454
	FontSize	    	         20
	BorderRoundCorner            16
	BorderThickness 	         1
	BackgroundColor              #48494b
}


skinparam legend {
	BackgroundColor #303030
	BorderColor #404040
	FontColor #a0a0a0
}

	skinparam swimlane {
	BorderColor #5e5e5e
	BorderThickness 2
	TitleBackgroundColor  #6d6d6d-#484848
	TitleFontColor #303030
}

skinparam activity {
		FontColor #C8Ac00
	BorderColor #333333
	BackgroundColor #333333-#333333
	BarColor #00FF00
	StartColor #0060a8
	EndColor #0060a8
	DiamondBackgroundColor #6d6d6d-#3a3a3a
  	DiamondBorderColor #3a3a3a
  	DiamondFontColor #fefefe
}


skinparam participant {
		FontColor #C8Ac00
	BorderColor #333333
	BackgroundColor #333333-#333333
	ParticipantBorderThickness 2
}


skinparam actor {
		FontColor #C8Ac00
	BorderColor #333333
	BackgroundColor #333333-#333333
}


skinparam arrow {
	Thickness 1.5
	Color #545454
	FontColor #a0a0a0
    FontStyle bold
    MessageAlignment center
}



skinparam sequence {
	BorderColor #303030
	TitleFontColor #303030
	BackgroundColor #333333
	StartColor #303030
	EndColor #303030
	BoxBackgroundColor #333333
	BoxBorderColor #484848
	BoxFontColor #484848
	LifeLineBorderColor #484848
	LifeLineBorderThickness 2
	LifeLineBackgroundColor #3a3a3a
	GroupBorderColor #484848
	GroupFontColor #484848
	GroupHeaderFontColor #0060a8
	GroupBackgroundColor #484848
	GroupHeaderBackgroundColor #333333
	DividerBackgroundColor #484848
    DividerBorderColor #484848
    DividerBorderThickness 2
    DividerFontColor #D8Bc00
	ReferenceBackgroundColor #333333
	ReferenceBorderColor #484848
	ReferenceFontColor #fefefe
	ReferenceHeaderBackgroundColor #484848
}


skinparam partition {
	BorderColor #303030
	FontColor #333333
	BackgroundColor #333333
}


skinparam collections {
		FontColor #C8Ac00
	BorderColor #333333
	BackgroundColor #333333-#333333
}


skinparam control {
		FontColor #C8Ac00
	BorderColor #333333
	BackgroundColor #333333-#333333
}


skinparam entity {
		FontColor #C8Ac00
	BorderColor #333333
	BackgroundColor #333333-#333333
}


skinparam boundary {
		FontColor #C8Ac00
	BorderColor #333333
	BackgroundColor #333333-#333333
}


skinparam agent {
	BackgroundColor #ff8000
	BorderColor #ff9933
	FontColor #484848
}


skinparam note {
	BorderThickness 1
	BackgroundColor #1b1b1a
	BorderColor #5e5e5e
	FontSize 11
	FontColor #a0a0a0
}


skinparam artifact {
	BorderThickness 10
	BorderColor #5e5e5e
	BackgroundColor #1b1b1a
	FontColor #D8Bc00
}


skinparam component {
		FontColor #C8Ac00
	BorderColor #333333
	BackgroundColor #333333-#333333
}


skinparam interface {
	BackgroundColor  #008400
	BorderColor  #007F00
	FontColor #484848
}


skinparam storage {
	BackgroundColor #ff8000
  	BorderColor #cc6600
	FontColor #222222
}


skinparam node {
	BackgroundColor #333333
	BorderColor #333333
	FontColor #C8Ac00
}


skinparam cloud {
	BackgroundColor #484848-black
	BorderColor #484848
	FontColor #D8Bc00
}


skinparam database {
		FontColor #C8Ac00
	BorderColor #333333
	BackgroundColor #333333-#333333
	BackgroundColor  #333333
}


skinparam class {
		FontColor #C8Ac00
	BorderColor #333333
	BackgroundColor #333333-#333333
	HeaderBackgroundColor #1b1b1a
    BackgroundColor #282828
    BorderColor #5e5e5e
 	StereotypeFontColor #a0a0a0
    StereotypeFontStyle bold
	BorderThickness 1
	AttributeFontColor #D8Bc00
	AttributeFontSize 11
    FontColor #D8Bc00
    FontStyle bold
}


skinparam object {
		FontColor #C8Ac00
	BorderColor #333333
	BackgroundColor #333333-#333333
	StereotypeFontColor #484848
	BorderThickness 1
	AttributeFontColor #fefefe
	AttributeFontSize 11
}


skinparam usecase {
		FontColor #C8Ac00
	BorderColor #333333
	BackgroundColor #333333-#333333
	BorderThickness 2
	StereotypeFontColor #303030
}


skinparam rectangle {
		FontColor #C8Ac00
	BorderColor #333333
	BackgroundColor #333333-#333333
	BackgroundColor #333333
	BorderThickness 2
	StereotypeFontColor #303030
}


skinparam package {
		FontColor #C8Ac00
	BorderColor #333333
	BackgroundColor #333333-#333333
	BackgroundColor #333333
	BorderThickness 2
}


skinparam folder {
	BackgroundColor #6d6d6d
  	BorderColor #ff8000
	FontColor #ff8000
	BorderThickness 2
}


skinparam frame {
	BackgroundColor #6d6d6d
  	BorderColor #0060a8
	FontColor #0060a8
	BorderThickness 2
}


skinparam state {
		FontColor #C8Ac00
	BorderColor #333333
	BackgroundColor #333333-#333333
	StartColor #0060a8
	EndColor #0060a8
	AttributeFontColor #fefefe
	AttributeFontSize 11
}


skinparam queue {
		FontColor #C8Ac00
	BorderColor #333333
	BackgroundColor #333333-#333333
}


skinparam card {
	BackgroundColor #0060a8
	BorderColor #004d86
	FontColor $INFO_TEXT
}


skinparam file {
	BackgroundColor #6d6d6d-#484848
	BorderColor #0060a8
	FontColor #fefefe
}


skinparam stack {
		FontColor #C8Ac00
	BorderColor #333333
	BackgroundColor #333333-#333333
}

    
    title "com.telenav.mesakit.graph.io.archive"
    
    abstract BaseStringConverter
    
    interface Named
    
    BaseStringConverter <|- - GraphArchive.Converter
    class GraphArchive.Converter
    {
        - -(constructors)- -
        +Converter(Listener, ProgressReporter)
    }
    
    FieldArchive <|- - GraphArchive
    Named <|- - GraphArchive
    class GraphArchive
    {
        - -(constructors)- -
        +GraphArchive(Listener, File, ZipArchive.Mode, ProgressReporter)
        - -
        +Resource forSpecifier(Listener, String specifier)
        +Resource resource()
        - -(command line parsing)- -
        +ArgumentParser.Builder<Graph> argumentParser(String description)
        +SwitchParser.Builder<Graph> graphArchiveSwitchParser(String name, String description)
        +SwitchParser.Builder<GraphList> graphListSwitchParser(String name, String description)
        - -(filtering)- -
        +boolean accepts(FileName)
        - -(metadata)- -
        +Metadata metadata()
        +void saveMetadata(Metadata)
        - -(read)- -
        +Graph load(Listener)
        +Graph loadAll(Listener)
        - -(time)- -
        +Time lastModified()
    }
    
    BaseStringConverter <|- - GraphArchive.ListConverter
    class GraphArchive.ListConverter
    {
        - -(constructors)- -
        +ListConverter(Listener)
    }
    
@enduml

PlantUML version 1.2021.01(Tue Feb 02 00:55:08 MST 2021)
(GPL source distribution)
Java Runtime: OpenJDK Runtime Environment
JVM: OpenJDK 64-Bit Server VM
Default Encoding: UTF-8
Language: en
Country: US
--></g></svg>