<?xml version="1.0" encoding="UTF-8" standalone="no"?><svg xmlns="http://www.w3.org/2000/svg" xmlns:xlink="http://www.w3.org/1999/xlink" contentScriptType="application/ecmascript" contentStyleType="text/css" height="546.875px" preserveAspectRatio="none" style="width:2012px;height:546px;background:#333333;" version="1.1" viewBox="0 0 2012 546" width="2012.5px" zoomAndPan="magnify"><defs/><g><rect fill="#48494B" height="41.2028" rx="8.3333" ry="8.3333" style="stroke:#545454;stroke-width:1.0416666666666667;" width="512.5" x="742.9688" y="2.0833"/><text fill="#C0C0C0" font-family="Open Sans,Avenir,Nunito,Arial,Helvetica,SansSerif" font-size="20.8333" lengthAdjust="spacing" textLength="489.5833" x="754.4271" y="30.5583">com.telenav.mesakit.graph.identifiers.collections</text><!--MD5=[ac8a036614aa35f2196a8d0df1ea52ae]
cluster NodeIdentifierList--><polygon fill="#333333" points="757.8125,146.932,886.9792,146.932,894.2708,174.1536,1035.9375,174.1536,1035.9375,304.2236,757.8125,304.2236,757.8125,146.932" style="stroke:#333333;stroke-width:2.0833333333333335;"/><line style="stroke:#333333;stroke-width:2.0833333333333335;" x1="757.8125" x2="894.2708" y1="174.1536" y2="174.1536"/><text fill="#C8AC00" font-family="Open Sans,Avenir,Nunito,Arial,Helvetica,SansSerif" font-size="12.5" font-weight="bold" lengthAdjust="spacing" textLength="116.6667" x="765.1042" y="164.2253">NodeIdentifierList</text><!--MD5=[521eef318f07511e06e15d6610609a01]
cluster EdgeIdentifierList--><polygon fill="#333333" points="1077.6042,146.932,1204.6875,146.932,1211.9792,174.1536,1355.7292,174.1536,1355.7292,304.2236,1077.6042,304.2236,1077.6042,146.932" style="stroke:#333333;stroke-width:2.0833333333333335;"/><line style="stroke:#333333;stroke-width:2.0833333333333335;" x1="1077.6042" x2="1211.9792" y1="174.1536" y2="174.1536"/><text fill="#C8AC00" font-family="Open Sans,Avenir,Nunito,Arial,Helvetica,SansSerif" font-size="12.5" font-weight="bold" lengthAdjust="spacing" textLength="114.5833" x="1084.8958" y="164.2253">EdgeIdentifierList</text><!--MD5=[3e4ea93e95af7969a81f1b974a0c1487]
cluster WayIdentifierList--><polygon fill="#333333" points="1397.3958,146.932,1519.2708,146.932,1526.5625,174.1536,1675.5208,174.1536,1675.5208,304.2236,1397.3958,304.2236,1397.3958,146.932" style="stroke:#333333;stroke-width:2.0833333333333335;"/><line style="stroke:#333333;stroke-width:2.0833333333333335;" x1="1397.3958" x2="1526.5625" y1="174.1536" y2="174.1536"/><text fill="#C8AC00" font-family="Open Sans,Avenir,Nunito,Arial,Helvetica,SansSerif" font-size="12.5" font-weight="bold" lengthAdjust="spacing" textLength="109.375" x="1404.6875" y="164.2253">WayIdentifierList</text><!--MD5=[1b43346dc513f9362a57540d236cc0b7]
cluster RelationIdentifierList--><polygon fill="#333333" points="1717.1875,146.932,1866.1458,146.932,1873.4375,174.1536,1995.3125,174.1536,1995.3125,304.2236,1717.1875,304.2236,1717.1875,146.932" style="stroke:#333333;stroke-width:2.0833333333333335;"/><line style="stroke:#333333;stroke-width:2.0833333333333335;" x1="1717.1875" x2="1873.4375" y1="174.1536" y2="174.1536"/><text fill="#C8AC00" font-family="Open Sans,Avenir,Nunito,Arial,Helvetica,SansSerif" font-size="12.5" font-weight="bold" lengthAdjust="spacing" textLength="136.4583" x="1724.4792" y="164.2253">RelationIdentifierList</text><!--MD5=[7fbfc2a9a061e0f2ce0cd5b1a6e7eebf]
class NodeIdentifierList.Converter--><rect codeLine="9" fill="#282828" height="83.3781" id="NodeIdentifierList.Converter" rx="8.3333" ry="8.3333" style="stroke:#5E5E5E;stroke-width:1.0416666666666667;" width="208.3333" x="802.6042" y="195.8903"/><rect fill="#1B1B1A" height="31.3883" rx="8.3333" ry="8.3333" style="stroke:#1B1B1A;stroke-width:1.0416666666666667;" width="208.3333" x="802.6042" y="195.8903"/><rect fill="#1B1B1A" height="8.3333" style="stroke:#1B1B1A;stroke-width:1.0416666666666667;" width="208.3333" x="802.6042" y="218.9453"/><rect codeLine="9" fill="none" height="83.3781" id="NodeIdentifierList.Converter" rx="8.3333" ry="8.3333" style="stroke:#5E5E5E;stroke-width:1.0416666666666667;" width="208.3333" x="802.6042" y="195.8903"/><ellipse cx="867.7083" cy="211.5845" fill="#0066CF" rx="10.4167" ry="10.4167" style="stroke:#0086EF;stroke-width:1.0416666666666667;"/><path d="M869.6187,216.0095 Q869.1915,216.2292 868.7215,216.3391 Q868.2515,216.449 867.7327,216.449 Q865.8895,216.449 864.919,215.2344 Q863.9486,214.0198 863.9486,211.7249 Q863.9486,209.4238 864.919,208.2092 Q865.8895,206.9946 867.7327,206.9946 Q868.2515,206.9946 868.7276,207.1045 Q869.2037,207.2144 869.6187,207.4341 L869.6187,209.436 Q869.1549,209.0088 868.7185,208.8104 Q868.2821,208.6121 867.8182,208.6121 Q866.8294,208.6121 866.3259,209.3964 Q865.8223,210.1807 865.8223,211.7249 Q865.8223,213.2629 866.3259,214.0472 Q866.8294,214.8315 867.8182,214.8315 Q868.2821,214.8315 868.7185,214.6332 Q869.1549,214.4348 869.6187,214.0076 Z " fill="#000000"/><text fill="#D8BC00" font-family="Open Sans,Avenir,Nunito,Arial,Helvetica,SansSerif" font-size="12.5" font-weight="bold" lengthAdjust="spacing" textLength="63.5417" x="890.625" y="216.3086">Converter</text><line style="stroke:#5E5E5E;stroke-width:1.5625;" x1="803.6458" x2="1009.8958" y1="227.2786" y2="227.2786"/><ellipse cx="814.0625" cy="262.6485" fill="#84BE84" rx="3.125" ry="3.125" style="stroke:#038048;stroke-width:1.0416666666666667;"/><text fill="#D8BC00" font-family="Open Sans,Avenir,Nunito,Arial,Helvetica,SansSerif" font-size="11.4583" lengthAdjust="spacing" textLength="176.0417" x="825.5208" y="269.5597">Converter(Listener, Separators)</text><line style="stroke:#5E5E5E;stroke-width:1.0416666666666667;" x1="803.6458" x2="863.0208" y1="245.4844" y2="245.4844"/><text fill="#D8BC00" font-family="Open Sans,Avenir,Nunito,Arial,Helvetica,SansSerif" font-size="11.4583" lengthAdjust="spacing" textLength="81.25" x="866.1458" y="249.294">(constructors)</text><line style="stroke:#5E5E5E;stroke-width:1.0416666666666667;" x1="950.5208" x2="1009.8958" y1="245.4844" y2="245.4844"/><!--MD5=[f242e725829ad5affbcdcafdc5da1e3f]
class EdgeIdentifierList.Converter--><rect codeLine="16" fill="#282828" height="83.3781" id="EdgeIdentifierList.Converter" rx="8.3333" ry="8.3333" style="stroke:#5E5E5E;stroke-width:1.0416666666666667;" width="208.3333" x="1122.3958" y="195.8903"/><rect fill="#1B1B1A" height="31.3883" rx="8.3333" ry="8.3333" style="stroke:#1B1B1A;stroke-width:1.0416666666666667;" width="208.3333" x="1122.3958" y="195.8903"/><rect fill="#1B1B1A" height="8.3333" style="stroke:#1B1B1A;stroke-width:1.0416666666666667;" width="208.3333" x="1122.3958" y="218.9453"/><rect codeLine="16" fill="none" height="83.3781" id="EdgeIdentifierList.Converter" rx="8.3333" ry="8.3333" style="stroke:#5E5E5E;stroke-width:1.0416666666666667;" width="208.3333" x="1122.3958" y="195.8903"/><ellipse cx="1187.5" cy="211.5845" fill="#0066CF" rx="10.4167" ry="10.4167" style="stroke:#0086EF;stroke-width:1.0416666666666667;"/><path d="M1189.4104,216.0095 Q1188.9832,216.2292 1188.5132,216.3391 Q1188.0432,216.449 1187.5244,216.449 Q1185.6812,216.449 1184.7107,215.2344 Q1183.7402,214.0198 1183.7402,211.7249 Q1183.7402,209.4238 1184.7107,208.2092 Q1185.6812,206.9946 1187.5244,206.9946 Q1188.0432,206.9946 1188.5193,207.1045 Q1188.9954,207.2144 1189.4104,207.4341 L1189.4104,209.436 Q1188.9465,209.0088 1188.5101,208.8104 Q1188.0737,208.6121 1187.6099,208.6121 Q1186.6211,208.6121 1186.1176,209.3964 Q1185.614,210.1807 1185.614,211.7249 Q1185.614,213.2629 1186.1176,214.0472 Q1186.6211,214.8315 1187.6099,214.8315 Q1188.0737,214.8315 1188.5101,214.6332 Q1188.9465,214.4348 1189.4104,214.0076 Z " fill="#000000"/><text fill="#D8BC00" font-family="Open Sans,Avenir,Nunito,Arial,Helvetica,SansSerif" font-size="12.5" font-weight="bold" lengthAdjust="spacing" textLength="63.5417" x="1210.4167" y="216.3086">Converter</text><line style="stroke:#5E5E5E;stroke-width:1.5625;" x1="1123.4375" x2="1329.6875" y1="227.2786" y2="227.2786"/><ellipse cx="1133.8542" cy="262.6485" fill="#84BE84" rx="3.125" ry="3.125" style="stroke:#038048;stroke-width:1.0416666666666667;"/><text fill="#D8BC00" font-family="Open Sans,Avenir,Nunito,Arial,Helvetica,SansSerif" font-size="11.4583" lengthAdjust="spacing" textLength="176.0417" x="1145.3125" y="269.5597">Converter(Listener, Separators)</text><line style="stroke:#5E5E5E;stroke-width:1.0416666666666667;" x1="1123.4375" x2="1182.8125" y1="245.4844" y2="245.4844"/><text fill="#D8BC00" font-family="Open Sans,Avenir,Nunito,Arial,Helvetica,SansSerif" font-size="11.4583" lengthAdjust="spacing" textLength="81.25" x="1185.9375" y="249.294">(constructors)</text><line style="stroke:#5E5E5E;stroke-width:1.0416666666666667;" x1="1270.3125" x2="1329.6875" y1="245.4844" y2="245.4844"/><!--MD5=[865ec5109df4912bbc02b5cc60a972d6]
class WayIdentifierList.Converter--><rect codeLine="23" fill="#282828" height="83.3781" id="WayIdentifierList.Converter" rx="8.3333" ry="8.3333" style="stroke:#5E5E5E;stroke-width:1.0416666666666667;" width="208.3333" x="1442.1875" y="195.8903"/><rect fill="#1B1B1A" height="31.3883" rx="8.3333" ry="8.3333" style="stroke:#1B1B1A;stroke-width:1.0416666666666667;" width="208.3333" x="1442.1875" y="195.8903"/><rect fill="#1B1B1A" height="8.3333" style="stroke:#1B1B1A;stroke-width:1.0416666666666667;" width="208.3333" x="1442.1875" y="218.9453"/><rect codeLine="23" fill="none" height="83.3781" id="WayIdentifierList.Converter" rx="8.3333" ry="8.3333" style="stroke:#5E5E5E;stroke-width:1.0416666666666667;" width="208.3333" x="1442.1875" y="195.8903"/><ellipse cx="1507.2917" cy="211.5845" fill="#0066CF" rx="10.4167" ry="10.4167" style="stroke:#0086EF;stroke-width:1.0416666666666667;"/><path d="M1509.2021,216.0095 Q1508.7748,216.2292 1508.3049,216.3391 Q1507.8349,216.449 1507.3161,216.449 Q1505.4728,216.449 1504.5024,215.2344 Q1503.5319,214.0198 1503.5319,211.7249 Q1503.5319,209.4238 1504.5024,208.2092 Q1505.4728,206.9946 1507.3161,206.9946 Q1507.8349,206.9946 1508.311,207.1045 Q1508.787,207.2144 1509.2021,207.4341 L1509.2021,209.436 Q1508.7382,209.0088 1508.3018,208.8104 Q1507.8654,208.6121 1507.4015,208.6121 Q1506.4128,208.6121 1505.9092,209.3964 Q1505.4057,210.1807 1505.4057,211.7249 Q1505.4057,213.2629 1505.9092,214.0472 Q1506.4128,214.8315 1507.4015,214.8315 Q1507.8654,214.8315 1508.3018,214.6332 Q1508.7382,214.4348 1509.2021,214.0076 Z " fill="#000000"/><text fill="#D8BC00" font-family="Open Sans,Avenir,Nunito,Arial,Helvetica,SansSerif" font-size="12.5" font-weight="bold" lengthAdjust="spacing" textLength="63.5417" x="1530.2083" y="216.3086">Converter</text><line style="stroke:#5E5E5E;stroke-width:1.5625;" x1="1443.2292" x2="1649.4792" y1="227.2786" y2="227.2786"/><ellipse cx="1453.6458" cy="262.6485" fill="#84BE84" rx="3.125" ry="3.125" style="stroke:#038048;stroke-width:1.0416666666666667;"/><text fill="#D8BC00" font-family="Open Sans,Avenir,Nunito,Arial,Helvetica,SansSerif" font-size="11.4583" lengthAdjust="spacing" textLength="176.0417" x="1465.1042" y="269.5597">Converter(Listener, Separators)</text><line style="stroke:#5E5E5E;stroke-width:1.0416666666666667;" x1="1443.2292" x2="1502.6042" y1="245.4844" y2="245.4844"/><text fill="#D8BC00" font-family="Open Sans,Avenir,Nunito,Arial,Helvetica,SansSerif" font-size="11.4583" lengthAdjust="spacing" textLength="81.25" x="1505.7292" y="249.294">(constructors)</text><line style="stroke:#5E5E5E;stroke-width:1.0416666666666667;" x1="1590.1042" x2="1649.4792" y1="245.4844" y2="245.4844"/><!--MD5=[d1bc5203c9f4ed3b643ce0da4320511a]
class RelationIdentifierList.Converter--><rect codeLine="30" fill="#282828" height="83.3781" id="RelationIdentifierList.Converter" rx="8.3333" ry="8.3333" style="stroke:#5E5E5E;stroke-width:1.0416666666666667;" width="208.3333" x="1761.9792" y="195.8903"/><rect fill="#1B1B1A" height="31.3883" rx="8.3333" ry="8.3333" style="stroke:#1B1B1A;stroke-width:1.0416666666666667;" width="208.3333" x="1761.9792" y="195.8903"/><rect fill="#1B1B1A" height="8.3333" style="stroke:#1B1B1A;stroke-width:1.0416666666666667;" width="208.3333" x="1761.9792" y="218.9453"/><rect codeLine="30" fill="none" height="83.3781" id="RelationIdentifierList.Converter" rx="8.3333" ry="8.3333" style="stroke:#5E5E5E;stroke-width:1.0416666666666667;" width="208.3333" x="1761.9792" y="195.8903"/><ellipse cx="1827.0833" cy="211.5845" fill="#0066CF" rx="10.4167" ry="10.4167" style="stroke:#0086EF;stroke-width:1.0416666666666667;"/><path d="M1828.9937,216.0095 Q1828.5665,216.2292 1828.0965,216.3391 Q1827.6265,216.449 1827.1077,216.449 Q1825.2645,216.449 1824.294,215.2344 Q1823.3236,214.0198 1823.3236,211.7249 Q1823.3236,209.4238 1824.294,208.2092 Q1825.2645,206.9946 1827.1077,206.9946 Q1827.6265,206.9946 1828.1026,207.1045 Q1828.5787,207.2144 1828.9937,207.4341 L1828.9937,209.436 Q1828.5299,209.0088 1828.0935,208.8104 Q1827.6571,208.6121 1827.1932,208.6121 Q1826.2044,208.6121 1825.7009,209.3964 Q1825.1973,210.1807 1825.1973,211.7249 Q1825.1973,213.2629 1825.7009,214.0472 Q1826.2044,214.8315 1827.1932,214.8315 Q1827.6571,214.8315 1828.0935,214.6332 Q1828.5299,214.4348 1828.9937,214.0076 Z " fill="#000000"/><text fill="#D8BC00" font-family="Open Sans,Avenir,Nunito,Arial,Helvetica,SansSerif" font-size="12.5" font-weight="bold" lengthAdjust="spacing" textLength="63.5417" x="1850" y="216.3086">Converter</text><line style="stroke:#5E5E5E;stroke-width:1.5625;" x1="1763.0208" x2="1969.2708" y1="227.2786" y2="227.2786"/><ellipse cx="1773.4375" cy="262.6485" fill="#84BE84" rx="3.125" ry="3.125" style="stroke:#038048;stroke-width:1.0416666666666667;"/><text fill="#D8BC00" font-family="Open Sans,Avenir,Nunito,Arial,Helvetica,SansSerif" font-size="11.4583" lengthAdjust="spacing" textLength="176.0417" x="1784.8958" y="269.5597">Converter(Listener, Separators)</text><line style="stroke:#5E5E5E;stroke-width:1.0416666666666667;" x1="1763.0208" x2="1822.3958" y1="245.4844" y2="245.4844"/><text fill="#D8BC00" font-family="Open Sans,Avenir,Nunito,Arial,Helvetica,SansSerif" font-size="11.4583" lengthAdjust="spacing" textLength="81.25" x="1825.5208" y="249.294">(constructors)</text><line style="stroke:#5E5E5E;stroke-width:1.0416666666666667;" x1="1909.8958" x2="1969.2708" y1="245.4844" y2="245.4844"/><!--MD5=[9aa687ed59f428548907e723dba1087a]
class BaseStringConverter--><rect codeLine="6" fill="#282828" height="48.055" id="BaseStringConverter" rx="8.3333" ry="8.3333" style="stroke:#5E5E5E;stroke-width:1.0416666666666667;" width="169.7917" x="1301.0417" y="53.7028"/><rect fill="#1B1B1A" height="31.3883" rx="8.3333" ry="8.3333" style="stroke:#1B1B1A;stroke-width:1.0416666666666667;" width="169.7917" x="1301.0417" y="53.7028"/><rect fill="#1B1B1A" height="8.3333" style="stroke:#1B1B1A;stroke-width:1.0416666666666667;" width="169.7917" x="1301.0417" y="76.7578"/><rect codeLine="6" fill="none" height="48.055" id="BaseStringConverter" rx="8.3333" ry="8.3333" style="stroke:#5E5E5E;stroke-width:1.0416666666666667;" width="169.7917" x="1301.0417" y="53.7028"/><ellipse cx="1315.625" cy="69.397" fill="#C8AC00" rx="10.4167" ry="10.4167" style="stroke:#D8BC00;stroke-width:1.0416666666666667;"/><path d="M1315.2181,66.099 L1314.3697,69.8283 L1316.0726,69.8283 Z M1314.1195,64.4511 L1316.3228,64.4511 L1318.7826,73.5636 L1316.982,73.5636 L1316.4205,71.3114 L1314.0096,71.3114 L1313.4603,73.5636 L1311.6597,73.5636 Z " fill="#000000"/><text fill="#D8BC00" font-family="Open Sans,Avenir,Nunito,Arial,Helvetica,SansSerif" font-size="12.5" font-style="italic" font-weight="bold" lengthAdjust="spacing" textLength="132.2917" x="1332.2917" y="74.1211">BaseStringConverter</text><line style="stroke:#5E5E5E;stroke-width:1.0416666666666667;" x1="1302.0833" x2="1469.7917" y1="85.0911" y2="85.0911"/><line style="stroke:#5E5E5E;stroke-width:1.0416666666666667;" x1="1302.0833" x2="1469.7917" y1="93.4245" y2="93.4245"/><!--MD5=[efa4f010a0e7c7395f45ac8dfaa8f5b8]
class ObjectList--><rect fill="#282828" height="48.055" id="ObjectList" rx="8.3333" ry="8.3333" style="stroke:#5E5E5E;stroke-width:1.0416666666666667;" width="103.125" x="487.5" y="53.7028"/><rect fill="#1B1B1A" height="31.3883" rx="8.3333" ry="8.3333" style="stroke:#1B1B1A;stroke-width:1.0416666666666667;" width="103.125" x="487.5" y="53.7028"/><rect fill="#1B1B1A" height="8.3333" style="stroke:#1B1B1A;stroke-width:1.0416666666666667;" width="103.125" x="487.5" y="76.7578"/><rect fill="none" height="48.055" id="ObjectList" rx="8.3333" ry="8.3333" style="stroke:#5E5E5E;stroke-width:1.0416666666666667;" width="103.125" x="487.5" y="53.7028"/><ellipse cx="502.0833" cy="69.397" fill="#0066CF" rx="10.4167" ry="10.4167" style="stroke:#0086EF;stroke-width:1.0416666666666667;"/><path d="M503.9937,73.822 Q503.5665,74.0417 503.0965,74.1516 Q502.6265,74.2615 502.1077,74.2615 Q500.2645,74.2615 499.294,73.0469 Q498.3236,71.8323 498.3236,69.5374 Q498.3236,67.2363 499.294,66.0217 Q500.2645,64.8071 502.1077,64.8071 Q502.6265,64.8071 503.1026,64.917 Q503.5787,65.0269 503.9937,65.2466 L503.9937,67.2485 Q503.5299,66.8213 503.0935,66.6229 Q502.6571,66.4246 502.1932,66.4246 Q501.2044,66.4246 500.7009,67.2089 Q500.1973,67.9932 500.1973,69.5374 Q500.1973,71.0754 500.7009,71.8597 Q501.2044,72.644 502.1932,72.644 Q502.6571,72.644 503.0935,72.4457 Q503.5299,72.2473 503.9937,71.8201 Z " fill="#000000"/><text fill="#D8BC00" font-family="Open Sans,Avenir,Nunito,Arial,Helvetica,SansSerif" font-size="12.5" font-weight="bold" lengthAdjust="spacing" textLength="65.625" x="518.75" y="74.1211">ObjectList</text><line style="stroke:#5E5E5E;stroke-width:1.0416666666666667;" x1="488.5417" x2="589.5833" y1="85.0911" y2="85.0911"/><line style="stroke:#5E5E5E;stroke-width:1.0416666666666667;" x1="488.5417" x2="589.5833" y1="93.4245" y2="93.4245"/><!--MD5=[04349e91b42e043d130b162a4c7de65c]
class EdgeIdentifierList--><rect codeLine="37" fill="#282828" height="146.7794" id="EdgeIdentifierList" rx="8.3333" ry="8.3333" style="stroke:#5E5E5E;stroke-width:1.0416666666666667;" width="257.2917" x="7.2917" y="164.1195"/><rect fill="#1B1B1A" height="31.3883" rx="8.3333" ry="8.3333" style="stroke:#1B1B1A;stroke-width:1.0416666666666667;" width="257.2917" x="7.2917" y="164.1195"/><rect fill="#1B1B1A" height="8.3333" style="stroke:#1B1B1A;stroke-width:1.0416666666666667;" width="257.2917" x="7.2917" y="187.1745"/><rect codeLine="37" fill="none" height="146.7794" id="EdgeIdentifierList" rx="8.3333" ry="8.3333" style="stroke:#5E5E5E;stroke-width:1.0416666666666667;" width="257.2917" x="7.2917" y="164.1195"/><ellipse cx="71.3542" cy="179.8136" fill="#0066CF" rx="10.4167" ry="10.4167" style="stroke:#0086EF;stroke-width:1.0416666666666667;"/><path d="M73.2646,184.2387 Q72.8373,184.4584 72.3674,184.5683 Q71.8974,184.6781 71.3786,184.6781 Q69.5353,184.6781 68.5649,183.4635 Q67.5944,182.2489 67.5944,179.954 Q67.5944,177.653 68.5649,176.4384 Q69.5353,175.2238 71.3786,175.2238 Q71.8974,175.2238 72.3735,175.3337 Q72.8495,175.4435 73.2646,175.6632 L73.2646,177.6652 Q72.8007,177.238 72.3643,177.0396 Q71.9279,176.8412 71.464,176.8412 Q70.4753,176.8412 69.9717,177.6255 Q69.4682,178.4098 69.4682,179.954 Q69.4682,181.4921 69.9717,182.2764 Q70.4753,183.0607 71.464,183.0607 Q71.9279,183.0607 72.3643,182.8623 Q72.8007,182.664 73.2646,182.2367 Z " fill="#000000"/><text fill="#D8BC00" font-family="Open Sans,Avenir,Nunito,Arial,Helvetica,SansSerif" font-size="12.5" font-weight="bold" lengthAdjust="spacing" textLength="114.5833" x="94.2708" y="184.5378">EdgeIdentifierList</text><line style="stroke:#5E5E5E;stroke-width:1.5625;" x1="8.3333" x2="263.5417" y1="195.5078" y2="195.5078"/><ellipse cx="18.75" cy="230.8777" fill="#84BE84" rx="3.125" ry="3.125" style="stroke:#038048;stroke-width:1.0416666666666667;"/><text fill="#D8BC00" font-family="Open Sans,Avenir,Nunito,Arial,Helvetica,SansSerif" font-size="11.4583" lengthAdjust="spacing" textLength="220.8333" x="30.2083" y="237.7889">EdgeIdentifierList(List&lt;EdgeIdentifier&gt;)</text><ellipse cx="18.75" cy="250.6226" fill="#84BE84" rx="3.125" ry="3.125" style="stroke:#038048;stroke-width:1.0416666666666667;"/><text fill="#D8BC00" font-family="Open Sans,Avenir,Nunito,Arial,Helvetica,SansSerif" font-size="11.4583" lengthAdjust="spacing" textLength="159.375" x="30.2083" y="257.5338">EdgeIdentifierList(Maximum)</text><line style="stroke:#5E5E5E;stroke-width:1.0416666666666667;" x1="8.3333" x2="92.1875" y1="213.7136" y2="213.7136"/><text fill="#D8BC00" font-family="Open Sans,Avenir,Nunito,Arial,Helvetica,SansSerif" font-size="11.4583" lengthAdjust="spacing" textLength="81.25" x="95.3125" y="217.5232">(constructors)</text><line style="stroke:#5E5E5E;stroke-width:1.0416666666666667;" x1="179.6875" x2="263.5417" y1="213.7136" y2="213.7136"/><ellipse cx="18.75" cy="294.279" fill="#84BE84" rx="3.125" ry="3.125" style="stroke:#038048;stroke-width:1.0416666666666667;"/><text fill="#D8BC00" font-family="Open Sans,Avenir,Nunito,Arial,Helvetica,SansSerif" font-size="11.4583" lengthAdjust="spacing" textLength="225" x="30.2083" y="301.1902">WayIdentifierList asPbfWayIdentifierList()</text><line style="stroke:#5E5E5E;stroke-width:1.0416666666666667;" x1="8.3333" x2="101.5625" y1="277.1149" y2="277.1149"/><text fill="#D8BC00" font-family="Open Sans,Avenir,Nunito,Arial,Helvetica,SansSerif" font-size="11.4583" lengthAdjust="spacing" textLength="62.5" x="104.6875" y="280.9245">(collection)</text><line style="stroke:#5E5E5E;stroke-width:1.0416666666666667;" x1="170.3125" x2="263.5417" y1="277.1149" y2="277.1149"/><!--MD5=[54001a4f56b42aa3c71f19f375d04eab]
class NodeIdentifierList--><rect codeLine="47" fill="#282828" height="103.123" id="NodeIdentifierList" rx="8.3333" ry="8.3333" style="stroke:#5E5E5E;stroke-width:1.0416666666666667;" width="280.2083" x="301.0417" y="185.9945"/><rect fill="#1B1B1A" height="31.3883" rx="8.3333" ry="8.3333" style="stroke:#1B1B1A;stroke-width:1.0416666666666667;" width="280.2083" x="301.0417" y="185.9945"/><rect fill="#1B1B1A" height="8.3333" style="stroke:#1B1B1A;stroke-width:1.0416666666666667;" width="280.2083" x="301.0417" y="209.0495"/><rect codeLine="47" fill="none" height="103.123" id="NodeIdentifierList" rx="8.3333" ry="8.3333" style="stroke:#5E5E5E;stroke-width:1.0416666666666667;" width="280.2083" x="301.0417" y="185.9945"/><ellipse cx="375.5208" cy="201.6886" fill="#0066CF" rx="10.4167" ry="10.4167" style="stroke:#0086EF;stroke-width:1.0416666666666667;"/><path d="M377.4312,206.1137 Q377.004,206.3334 376.534,206.4433 Q376.064,206.5531 375.5452,206.5531 Q373.702,206.5531 372.7315,205.3385 Q371.7611,204.1239 371.7611,201.829 Q371.7611,199.528 372.7315,198.3134 Q373.702,197.0988 375.5452,197.0988 Q376.064,197.0988 376.5401,197.2087 Q377.0162,197.3185 377.4312,197.5382 L377.4312,199.5402 Q376.9674,199.113 376.531,198.9146 Q376.0946,198.7162 375.6307,198.7162 Q374.6419,198.7162 374.1384,199.5005 Q373.6348,200.2848 373.6348,201.829 Q373.6348,203.3671 374.1384,204.1514 Q374.6419,204.9357 375.6307,204.9357 Q376.0946,204.9357 376.531,204.7373 Q376.9674,204.539 377.4312,204.1117 Z " fill="#000000"/><text fill="#D8BC00" font-family="Open Sans,Avenir,Nunito,Arial,Helvetica,SansSerif" font-size="12.5" font-weight="bold" lengthAdjust="spacing" textLength="116.6667" x="398.4375" y="206.4128">NodeIdentifierList</text><line style="stroke:#5E5E5E;stroke-width:1.5625;" x1="302.0833" x2="580.2083" y1="217.3828" y2="217.3828"/><ellipse cx="312.5" cy="252.7527" fill="#84BE84" rx="3.125" ry="3.125" style="stroke:#038048;stroke-width:1.0416666666666667;"/><text fill="#D8BC00" font-family="Open Sans,Avenir,Nunito,Arial,Helvetica,SansSerif" font-size="11.4583" lengthAdjust="spacing" textLength="247.9167" x="323.9583" y="259.6639">NodeIdentifierList(List&lt;MapNodeIdentifier&gt;)</text><ellipse cx="312.5" cy="272.4976" fill="#84BE84" rx="3.125" ry="3.125" style="stroke:#038048;stroke-width:1.0416666666666667;"/><text fill="#D8BC00" font-family="Open Sans,Avenir,Nunito,Arial,Helvetica,SansSerif" font-size="11.4583" lengthAdjust="spacing" textLength="161.4583" x="323.9583" y="279.4088">NodeIdentifierList(Maximum)</text><line style="stroke:#5E5E5E;stroke-width:1.0416666666666667;" x1="302.0833" x2="397.3958" y1="235.5886" y2="235.5886"/><text fill="#D8BC00" font-family="Open Sans,Avenir,Nunito,Arial,Helvetica,SansSerif" font-size="11.4583" lengthAdjust="spacing" textLength="81.25" x="400.5208" y="239.3982">(constructors)</text><line style="stroke:#5E5E5E;stroke-width:1.0416666666666667;" x1="484.8958" x2="580.2083" y1="235.5886" y2="235.5886"/><!--MD5=[223496d6b19d089d6e5e54a3dc73f6c3]
class RelationIdentifierList--><rect codeLine="55" fill="#282828" height="103.123" id="RelationIdentifierList" rx="8.3333" ry="8.3333" style="stroke:#5E5E5E;stroke-width:1.0416666666666667;" width="311.4583" x="155.2083" y="405.2653"/><rect fill="#1B1B1A" height="31.3883" rx="8.3333" ry="8.3333" style="stroke:#1B1B1A;stroke-width:1.0416666666666667;" width="311.4583" x="155.2083" y="405.2653"/><rect fill="#1B1B1A" height="8.3333" style="stroke:#1B1B1A;stroke-width:1.0416666666666667;" width="311.4583" x="155.2083" y="428.3203"/><rect codeLine="55" fill="none" height="103.123" id="RelationIdentifierList" rx="8.3333" ry="8.3333" style="stroke:#5E5E5E;stroke-width:1.0416666666666667;" width="311.4583" x="155.2083" y="405.2653"/><ellipse cx="235.4167" cy="420.9595" fill="#0066CF" rx="10.4167" ry="10.4167" style="stroke:#0086EF;stroke-width:1.0416666666666667;"/><path d="M237.3271,425.3845 Q236.8998,425.6042 236.4299,425.7141 Q235.9599,425.824 235.4411,425.824 Q233.5978,425.824 232.6274,424.6094 Q231.6569,423.3948 231.6569,421.0999 Q231.6569,418.7988 232.6274,417.5842 Q233.5978,416.3696 235.4411,416.3696 Q235.9599,416.3696 236.436,416.4795 Q236.912,416.5894 237.3271,416.8091 L237.3271,418.811 Q236.8632,418.3838 236.4268,418.1854 Q235.9904,417.9871 235.5265,417.9871 Q234.5378,417.9871 234.0342,418.7714 Q233.5307,419.5557 233.5307,421.0999 Q233.5307,422.6379 234.0342,423.4222 Q234.5378,424.2065 235.5265,424.2065 Q235.9904,424.2065 236.4268,424.0082 Q236.8632,423.8098 237.3271,423.3826 Z " fill="#000000"/><text fill="#D8BC00" font-family="Open Sans,Avenir,Nunito,Arial,Helvetica,SansSerif" font-size="12.5" font-weight="bold" lengthAdjust="spacing" textLength="136.4583" x="258.3333" y="425.6836">RelationIdentifierList</text><line style="stroke:#5E5E5E;stroke-width:1.5625;" x1="156.25" x2="465.625" y1="436.6536" y2="436.6536"/><ellipse cx="166.6667" cy="472.0235" fill="#84BE84" rx="3.125" ry="3.125" style="stroke:#038048;stroke-width:1.0416666666666667;"/><text fill="#D8BC00" font-family="Open Sans,Avenir,Nunito,Arial,Helvetica,SansSerif" font-size="11.4583" lengthAdjust="spacing" textLength="279.1667" x="178.125" y="478.9347">RelationIdentifierList(List&lt;MapRelationIdentifier&gt;)</text><ellipse cx="166.6667" cy="491.7684" fill="#84BE84" rx="3.125" ry="3.125" style="stroke:#038048;stroke-width:1.0416666666666667;"/><text fill="#D8BC00" font-family="Open Sans,Avenir,Nunito,Arial,Helvetica,SansSerif" font-size="11.4583" lengthAdjust="spacing" textLength="177.0833" x="178.125" y="498.6796">RelationIdentifierList(Maximum)</text><line style="stroke:#5E5E5E;stroke-width:1.0416666666666667;" x1="156.25" x2="267.1875" y1="454.8594" y2="454.8594"/><text fill="#D8BC00" font-family="Open Sans,Avenir,Nunito,Arial,Helvetica,SansSerif" font-size="11.4583" lengthAdjust="spacing" textLength="81.25" x="270.3125" y="458.669">(constructors)</text><line style="stroke:#5E5E5E;stroke-width:1.0416666666666667;" x1="354.6875" x2="465.625" y1="454.8594" y2="454.8594"/><!--MD5=[dda7d55e9d7cbf070ad3a795bf3379c9]
class WayIdentifierList--><rect codeLine="63" fill="#282828" height="166.5243" id="WayIdentifierList" rx="8.3333" ry="8.3333" style="stroke:#5E5E5E;stroke-width:1.0416666666666667;" width="415.625" x="503.125" y="373.4945"/><rect fill="#1B1B1A" height="31.3883" rx="8.3333" ry="8.3333" style="stroke:#1B1B1A;stroke-width:1.0416666666666667;" width="415.625" x="503.125" y="373.4945"/><rect fill="#1B1B1A" height="8.3333" style="stroke:#1B1B1A;stroke-width:1.0416666666666667;" width="415.625" x="503.125" y="396.5495"/><rect codeLine="63" fill="none" height="166.5243" id="WayIdentifierList" rx="8.3333" ry="8.3333" style="stroke:#5E5E5E;stroke-width:1.0416666666666667;" width="415.625" x="503.125" y="373.4945"/><ellipse cx="648.9583" cy="389.1886" fill="#0066CF" rx="10.4167" ry="10.4167" style="stroke:#0086EF;stroke-width:1.0416666666666667;"/><path d="M650.8687,393.6137 Q650.4415,393.8334 649.9715,393.9433 Q649.5015,394.0531 648.9827,394.0531 Q647.1395,394.0531 646.169,392.8385 Q645.1986,391.6239 645.1986,389.329 Q645.1986,387.028 646.169,385.8134 Q647.1395,384.5988 648.9827,384.5988 Q649.5015,384.5988 649.9776,384.7087 Q650.4537,384.8185 650.8687,385.0382 L650.8687,387.0402 Q650.4049,386.613 649.9685,386.4146 Q649.5321,386.2162 649.0682,386.2162 Q648.0794,386.2162 647.5759,387.0005 Q647.0723,387.7848 647.0723,389.329 Q647.0723,390.8671 647.5759,391.6514 Q648.0794,392.4357 649.0682,392.4357 Q649.5321,392.4357 649.9685,392.2373 Q650.4049,392.039 650.8687,391.6117 Z " fill="#000000"/><text fill="#D8BC00" font-family="Open Sans,Avenir,Nunito,Arial,Helvetica,SansSerif" font-size="12.5" font-weight="bold" lengthAdjust="spacing" textLength="109.375" x="671.875" y="393.9128">WayIdentifierList</text><line style="stroke:#5E5E5E;stroke-width:1.5625;" x1="504.1667" x2="917.7083" y1="404.8828" y2="404.8828"/><ellipse cx="514.5833" cy="440.2527" fill="#84BE84" rx="3.125" ry="3.125" style="stroke:#038048;stroke-width:1.0416666666666667;"/><text fill="#D8BC00" font-family="Open Sans,Avenir,Nunito,Arial,Helvetica,SansSerif" font-size="11.4583" lengthAdjust="spacing" textLength="228.125" x="526.0417" y="447.1639">WayIdentifierList(List&lt;PbfWayIdentifier&gt;)</text><ellipse cx="514.5833" cy="459.9976" fill="#84BE84" rx="3.125" ry="3.125" style="stroke:#038048;stroke-width:1.0416666666666667;"/><text fill="#D8BC00" font-family="Open Sans,Avenir,Nunito,Arial,Helvetica,SansSerif" font-size="11.4583" lengthAdjust="spacing" textLength="154.1667" x="526.0417" y="466.9088">WayIdentifierList(Maximum)</text><line style="stroke:#5E5E5E;stroke-width:1.0416666666666667;" x1="504.1667" x2="667.1875" y1="423.0886" y2="423.0886"/><text fill="#D8BC00" font-family="Open Sans,Avenir,Nunito,Arial,Helvetica,SansSerif" font-size="11.4583" lengthAdjust="spacing" textLength="81.25" x="670.3125" y="426.8982">(constructors)</text><line style="stroke:#5E5E5E;stroke-width:1.0416666666666667;" x1="754.6875" x2="917.7083" y1="423.0886" y2="423.0886"/><ellipse cx="514.5833" cy="503.654" fill="#84BE84" rx="3.125" ry="3.125" style="stroke:#038048;stroke-width:1.0416666666666667;"/><text fill="#D8BC00" font-family="Open Sans,Avenir,Nunito,Arial,Helvetica,SansSerif" font-size="11.4583" lengthAdjust="spacing" textLength="383.3333" x="526.0417" y="510.5652">WayIdentifierList fromEdges(Maximum count, Iterable&lt;Edge&gt; edges)</text><ellipse cx="514.5833" cy="523.3988" fill="#84BE84" rx="3.125" ry="3.125" style="stroke:#038048;stroke-width:1.0416666666666667;"/><text fill="#D8BC00" font-family="Open Sans,Avenir,Nunito,Arial,Helvetica,SansSerif" font-size="11.4583" lengthAdjust="spacing" textLength="167.7083" x="526.0417" y="530.3101">WayIdentifierList parse(String)</text><line style="stroke:#5E5E5E;stroke-width:1.0416666666666667;" x1="504.1667" x2="676.5625" y1="486.4899" y2="486.4899"/><text fill="#D8BC00" font-family="Open Sans,Avenir,Nunito,Arial,Helvetica,SansSerif" font-size="11.4583" lengthAdjust="spacing" textLength="62.5" x="679.6875" y="490.2995">(collection)</text><line style="stroke:#5E5E5E;stroke-width:1.0416666666666667;" x1="745.3125" x2="917.7083" y1="486.4899" y2="486.4899"/><!--MD5=[2ce7c10f709c820fdf107a4b38d416c2]
reverse link BaseStringConverter to NodeIdentifierList.Converter--><path codeLine="8" d="M1279.7083,84.9007 C1216.8125,91.2653 1136.5417,104.1611 1069.2708,130.2653 C1028.7396,145.9945 987.7917,172.859 957.1354,195.6299 " fill="none" id="BaseStringConverter-backto-NodeIdentifierList.Converter" style="stroke:#545454;stroke-width:1.5625;"/><polygon fill="none" points="1279.3333,77.6195,1300.75,82.9528,1280.6771,92.1403,1279.3333,77.6195" style="stroke:#545454;stroke-width:1.5625;"/><!--MD5=[714a6bc75860b56db0927adc68125eab]
reverse link BaseStringConverter to EdgeIdentifierList.Converter--><path codeLine="15" d="M1347.6979,116.5674 C1323.5417,140.484 1292.3646,171.359 1267.6875,195.7965 " fill="none" id="BaseStringConverter-backto-EdgeIdentifierList.Converter" style="stroke:#545454;stroke-width:1.5625;"/><polygon fill="none" points="1342.8333,111.1299,1362.7604,101.6507,1353.0938,121.4945,1342.8333,111.1299" style="stroke:#545454;stroke-width:1.5625;"/><!--MD5=[55f11c30810f7a799f01a067f73a95b2]
reverse link BaseStringConverter to WayIdentifierList.Converter--><path codeLine="22" d="M1424.4271,116.5674 C1448.7396,140.484 1480.125,171.359 1504.9688,195.7965 " fill="none" id="BaseStringConverter-backto-WayIdentifierList.Converter" style="stroke:#545454;stroke-width:1.5625;"/><polygon fill="none" points="1419,121.4632,1409.2604,101.6507,1429.2292,111.0674,1419,121.4632" style="stroke:#545454;stroke-width:1.5625;"/><!--MD5=[d24a6aab07ef3ddbe283dcb029cb90d7]
reverse link BaseStringConverter to RelationIdentifierList.Converter--><path codeLine="29" d="M1491.7396,85.9632 C1584.8021,93.682 1712.3125,107.9111 1757.8125,130.2653 C1788.6667,145.432 1816.2188,172.7445 1835.8125,195.8799 " fill="none" id="BaseStringConverter-backto-RelationIdentifierList.Converter" style="stroke:#545454;stroke-width:1.5625;"/><polygon fill="none" points="1491.1563,93.234,1470.9688,84.2965,1492.3229,78.6924,1491.1563,93.234" style="stroke:#545454;stroke-width:1.5625;"/><!--MD5=[87c003065527f29dbe95278361c740d2]
reverse link ObjectList to EdgeIdentifierList--><path codeLine="36" d="M466.0938,85.0153 C413.4063,91.5465 341.5104,104.5882 282.8125,130.2653 C262.4896,139.1611 242.2188,151.2132 223.5104,164.0049 " fill="none" id="ObjectList-backto-EdgeIdentifierList" style="stroke:#545454;stroke-width:1.5625;"/><polygon fill="none" points="465.5208,77.7445,487.0417,82.6403,467.1667,92.234,465.5208,77.7445" style="stroke:#545454;stroke-width:1.5625;"/><!--MD5=[3eea9e9fc4a90d3137702d3ae8cdbb3a]
reverse link ObjectList to NodeIdentifierList--><path codeLine="46" d="M513.7708,119.4632 C501.2083,139.7132 485.9063,164.3695 472.5938,185.8278 " fill="none" id="ObjectList-backto-NodeIdentifierList" style="stroke:#545454;stroke-width:1.5625;"/><polygon fill="none" points="507.6458,115.5049,524.8229,101.6507,520.0417,123.1924,507.6458,115.5049" style="stroke:#545454;stroke-width:1.5625;"/><!--MD5=[42a17aa792a52f7a437e20c7062bd33f]
reverse link ObjectList to RelationIdentifierList--><path codeLine="54" d="M590.8646,116.5361 C594.2708,120.807 597.2292,125.3903 599.4792,130.2653 C634.9583,207.2028 645.2083,249.5674 599.4792,320.8903 C569.2292,368.057 535.6875,349.8278 484.8958,373.4945 C463.0938,383.6611 439.7917,394.609 417.5625,405.109 " fill="none" id="ObjectList-backto-RelationIdentifierList" style="stroke:#545454;stroke-width:1.5625;"/><polygon fill="none" points="585.6042,121.5882,576.0833,101.6715,595.9479,111.307,585.6042,121.5882" style="stroke:#545454;stroke-width:1.5625;"/><!--MD5=[e1791a1444436e8493dfc8974dbba5f2]
reverse link ObjectList to WayIdentifierList--><path codeLine="62" d="M610.7396,94.0257 C630.8125,101.7028 650.7604,113.1715 664.0625,130.2653 C717.625,199.0986 723.9583,301.682 720.3542,373.234 " fill="none" id="ObjectList-backto-WayIdentifierList" style="stroke:#545454;stroke-width:1.5625;"/><polygon fill="none" points="608.4063,100.932,590.8646,87.5465,612.9271,87.0674,608.4063,100.932" style="stroke:#545454;stroke-width:1.5625;"/><!--MD5=[a1eb016d158959ebc8c6e29b17ccc70b]
link EdgeIdentifierList to NodeIdentifierList--><!--MD5=[e6f8977f99daa7462e0271faa6ac0fd9]
link EdgeIdentifierList to RelationIdentifierList--><!--MD5=[01d97ab5722003180a2ee5bff1beef99]
link RelationIdentifierList to WayIdentifierList--><!--MD5=[dc55055eebaf4a5d85d7e93fc00133f1]
@startuml

    !include lexakai.theme
    
    title "com.telenav.mesakit.graph.identifiers.collections"
    
    abstract BaseStringConverter
    
    BaseStringConverter <|- - NodeIdentifierList.Converter
    class NodeIdentifierList.Converter
    {
        - -(constructors)- -
        +Converter(Listener, Separators)
    }
    
    BaseStringConverter <|- - EdgeIdentifierList.Converter
    class EdgeIdentifierList.Converter
    {
        - -(constructors)- -
        +Converter(Listener, Separators)
    }
    
    BaseStringConverter <|- - WayIdentifierList.Converter
    class WayIdentifierList.Converter
    {
        - -(constructors)- -
        +Converter(Listener, Separators)
    }
    
    BaseStringConverter <|- - RelationIdentifierList.Converter
    class RelationIdentifierList.Converter
    {
        - -(constructors)- -
        +Converter(Listener, Separators)
    }
    
    ObjectList <|- - EdgeIdentifierList
    class EdgeIdentifierList
    {
        - -(constructors)- -
        +EdgeIdentifierList(List<EdgeIdentifier>)
        +EdgeIdentifierList(Maximum)
        - -(collection)- -
        +WayIdentifierList asPbfWayIdentifierList()
    }
    
    ObjectList <|- - NodeIdentifierList
    class NodeIdentifierList
    {
        - -(constructors)- -
        +NodeIdentifierList(List<MapNodeIdentifier>)
        +NodeIdentifierList(Maximum)
    }
    
    ObjectList <|- - RelationIdentifierList
    class RelationIdentifierList
    {
        - -(constructors)- -
        +RelationIdentifierList(List<MapRelationIdentifier>)
        +RelationIdentifierList(Maximum)
    }
    
    ObjectList <|- - WayIdentifierList
    class WayIdentifierList
    {
        - -(constructors)- -
        +WayIdentifierList(List<PbfWayIdentifier>)
        +WayIdentifierList(Maximum)
        - -(collection)- -
        +WayIdentifierList fromEdges(Maximum count, Iterable<Edge> edges)
        +WayIdentifierList parse(String)
    }
    
@enduml

@startuml









skinparam backgroundColor #333333






skinparam  {
    defaultFontName   "Open Sans,Avenir,Nunito,Arial,Helvetica,SansSerif"
    defaultFontSize   12
    defaultTextAlignment left
    shadowing false
    RoundCorner 10
    TitleFontSize 18
}

skinparam defaultFontName       "Open Sans,Avenir,Nunito,Arial,Helvetica,SansSerif"
skinparam defaultFontSize       12
skinparam dpi                   100
skinparam shadowing             false
skinparam roundcorner           16
skinparam ParticipantPadding    40
skinparam BoxPadding            40
skinparam Padding               3
skinparam ArrowColor            #545454
skinparam stereotype {
    CBackgroundColor #0066cf
    CBorderColor #0086ef
    ABackgroundColor #C8Ac00
    ABorderColor #D8Bc00
    IBackgroundColor #008400
    IBorderColor #239c23
    EBackgroundColor #cf6300
    EBorderColor #ef8300
    NBackgroundColor #3380b9
    NBorderColor #004d86
}
skinparam title {
	FontColor	                 #c0c0c0
 	BorderColor                  #545454
	FontSize	    	         20
	BorderRoundCorner            16
	BorderThickness 	         1
	BackgroundColor              #48494b
}


skinparam legend {
	BackgroundColor #303030
	BorderColor #404040
	FontColor #a0a0a0
}

	skinparam swimlane {
	BorderColor #5e5e5e
	BorderThickness 2
	TitleBackgroundColor  #6d6d6d-#484848
	TitleFontColor #303030
}

skinparam activity {
		FontColor #C8Ac00
	BorderColor #333333
	BackgroundColor #333333-#333333
	BarColor #00FF00
	StartColor #0060a8
	EndColor #0060a8
	DiamondBackgroundColor #6d6d6d-#3a3a3a
  	DiamondBorderColor #3a3a3a
  	DiamondFontColor #fefefe
}


skinparam participant {
		FontColor #C8Ac00
	BorderColor #333333
	BackgroundColor #333333-#333333
	ParticipantBorderThickness 2
}


skinparam actor {
		FontColor #C8Ac00
	BorderColor #333333
	BackgroundColor #333333-#333333
}


skinparam arrow {
	Thickness 1.5
	Color #545454
	FontColor #a0a0a0
    FontStyle bold
    MessageAlignment center
}



skinparam sequence {
	BorderColor #303030
	TitleFontColor #303030
	BackgroundColor #333333
	StartColor #303030
	EndColor #303030
	BoxBackgroundColor #333333
	BoxBorderColor #484848
	BoxFontColor #484848
	LifeLineBorderColor #484848
	LifeLineBorderThickness 2
	LifeLineBackgroundColor #3a3a3a
	GroupBorderColor #484848
	GroupFontColor #484848
	GroupHeaderFontColor #0060a8
	GroupBackgroundColor #484848
	GroupHeaderBackgroundColor #333333
	DividerBackgroundColor #484848
    DividerBorderColor #484848
    DividerBorderThickness 2
    DividerFontColor #D8Bc00
	ReferenceBackgroundColor #333333
	ReferenceBorderColor #484848
	ReferenceFontColor #fefefe
	ReferenceHeaderBackgroundColor #484848
}


skinparam partition {
	BorderColor #303030
	FontColor #333333
	BackgroundColor #333333
}


skinparam collections {
		FontColor #C8Ac00
	BorderColor #333333
	BackgroundColor #333333-#333333
}


skinparam control {
		FontColor #C8Ac00
	BorderColor #333333
	BackgroundColor #333333-#333333
}


skinparam entity {
		FontColor #C8Ac00
	BorderColor #333333
	BackgroundColor #333333-#333333
}


skinparam boundary {
		FontColor #C8Ac00
	BorderColor #333333
	BackgroundColor #333333-#333333
}


skinparam agent {
	BackgroundColor #ff8000
	BorderColor #ff9933
	FontColor #484848
}


skinparam note {
	BorderThickness 1
	BackgroundColor #1b1b1a
	BorderColor #5e5e5e
	FontSize 11
	FontColor #a0a0a0
}


skinparam artifact {
	BorderThickness 10
	BorderColor #5e5e5e
	BackgroundColor #1b1b1a
	FontColor #D8Bc00
}


skinparam component {
		FontColor #C8Ac00
	BorderColor #333333
	BackgroundColor #333333-#333333
}


skinparam interface {
	BackgroundColor  #008400
	BorderColor  #007F00
	FontColor #484848
}


skinparam storage {
	BackgroundColor #ff8000
  	BorderColor #cc6600
	FontColor #222222
}


skinparam node {
	BackgroundColor #333333
	BorderColor #333333
	FontColor #C8Ac00
}


skinparam cloud {
	BackgroundColor #484848-black
	BorderColor #484848
	FontColor #D8Bc00
}


skinparam database {
		FontColor #C8Ac00
	BorderColor #333333
	BackgroundColor #333333-#333333
	BackgroundColor  #333333
}


skinparam class {
		FontColor #C8Ac00
	BorderColor #333333
	BackgroundColor #333333-#333333
	HeaderBackgroundColor #1b1b1a
    BackgroundColor #282828
    BorderColor #5e5e5e
 	StereotypeFontColor #a0a0a0
    StereotypeFontStyle bold
	BorderThickness 1
	AttributeFontColor #D8Bc00
	AttributeFontSize 11
    FontColor #D8Bc00
    FontStyle bold
}


skinparam object {
		FontColor #C8Ac00
	BorderColor #333333
	BackgroundColor #333333-#333333
	StereotypeFontColor #484848
	BorderThickness 1
	AttributeFontColor #fefefe
	AttributeFontSize 11
}


skinparam usecase {
		FontColor #C8Ac00
	BorderColor #333333
	BackgroundColor #333333-#333333
	BorderThickness 2
	StereotypeFontColor #303030
}


skinparam rectangle {
		FontColor #C8Ac00
	BorderColor #333333
	BackgroundColor #333333-#333333
	BackgroundColor #333333
	BorderThickness 2
	StereotypeFontColor #303030
}


skinparam package {
		FontColor #C8Ac00
	BorderColor #333333
	BackgroundColor #333333-#333333
	BackgroundColor #333333
	BorderThickness 2
}


skinparam folder {
	BackgroundColor #6d6d6d
  	BorderColor #ff8000
	FontColor #ff8000
	BorderThickness 2
}


skinparam frame {
	BackgroundColor #6d6d6d
  	BorderColor #0060a8
	FontColor #0060a8
	BorderThickness 2
}


skinparam state {
		FontColor #C8Ac00
	BorderColor #333333
	BackgroundColor #333333-#333333
	StartColor #0060a8
	EndColor #0060a8
	AttributeFontColor #fefefe
	AttributeFontSize 11
}


skinparam queue {
		FontColor #C8Ac00
	BorderColor #333333
	BackgroundColor #333333-#333333
}


skinparam card {
	BackgroundColor #0060a8
	BorderColor #004d86
	FontColor $INFO_TEXT
}


skinparam file {
	BackgroundColor #6d6d6d-#484848
	BorderColor #0060a8
	FontColor #fefefe
}


skinparam stack {
		FontColor #C8Ac00
	BorderColor #333333
	BackgroundColor #333333-#333333
}

    
    title "com.telenav.mesakit.graph.identifiers.collections"
    
    abstract BaseStringConverter
    
    BaseStringConverter <|- - NodeIdentifierList.Converter
    class NodeIdentifierList.Converter
    {
        - -(constructors)- -
        +Converter(Listener, Separators)
    }
    
    BaseStringConverter <|- - EdgeIdentifierList.Converter
    class EdgeIdentifierList.Converter
    {
        - -(constructors)- -
        +Converter(Listener, Separators)
    }
    
    BaseStringConverter <|- - WayIdentifierList.Converter
    class WayIdentifierList.Converter
    {
        - -(constructors)- -
        +Converter(Listener, Separators)
    }
    
    BaseStringConverter <|- - RelationIdentifierList.Converter
    class RelationIdentifierList.Converter
    {
        - -(constructors)- -
        +Converter(Listener, Separators)
    }
    
    ObjectList <|- - EdgeIdentifierList
    class EdgeIdentifierList
    {
        - -(constructors)- -
        +EdgeIdentifierList(List<EdgeIdentifier>)
        +EdgeIdentifierList(Maximum)
        - -(collection)- -
        +WayIdentifierList asPbfWayIdentifierList()
    }
    
    ObjectList <|- - NodeIdentifierList
    class NodeIdentifierList
    {
        - -(constructors)- -
        +NodeIdentifierList(List<MapNodeIdentifier>)
        +NodeIdentifierList(Maximum)
    }
    
    ObjectList <|- - RelationIdentifierList
    class RelationIdentifierList
    {
        - -(constructors)- -
        +RelationIdentifierList(List<MapRelationIdentifier>)
        +RelationIdentifierList(Maximum)
    }
    
    ObjectList <|- - WayIdentifierList
    class WayIdentifierList
    {
        - -(constructors)- -
        +WayIdentifierList(List<PbfWayIdentifier>)
        +WayIdentifierList(Maximum)
        - -(collection)- -
        +WayIdentifierList fromEdges(Maximum count, Iterable<Edge> edges)
        +WayIdentifierList parse(String)
    }
    
@enduml

PlantUML version 1.2021.01(Tue Feb 02 00:55:08 MST 2021)
(GPL source distribution)
Java Runtime: OpenJDK Runtime Environment
JVM: OpenJDK 64-Bit Server VM
Default Encoding: UTF-8
Language: en
Country: US
--></g></svg>