<?xml version="1.0" encoding="UTF-8" standalone="no"?><svg xmlns="http://www.w3.org/2000/svg" xmlns:xlink="http://www.w3.org/1999/xlink" contentScriptType="application/ecmascript" contentStyleType="text/css" height="254.1667px" preserveAspectRatio="none" style="width:617px;height:254px;background:#333333;" version="1.1" viewBox="0 0 617 254" width="617.7083px" zoomAndPan="magnify"><defs/><g><rect fill="#48494B" height="41.2028" rx="8.3333" ry="8.3333" style="stroke:#545454;stroke-width:1.0416666666666667;" width="605.2083" x="2.0833" y="2.0833"/><text fill="#C0C0C0" font-family="Open Sans,Avenir,Nunito,Arial,Helvetica,SansSerif" font-size="20.8333" lengthAdjust="spacing" textLength="582.2917" x="13.5417" y="30.5583">com.telenav.mesakit.plugins.josm.graph.view.tabs.routing</text><rect fill="#282828" height="48.055" id="JPanel" rx="8.3333" ry="8.3333" style="stroke:#5E5E5E;stroke-width:1.0416666666666667;" width="77.0833" x="273.4375" y="53.7028"/><rect fill="#1B1B1A" height="31.3883" rx="8.3333" ry="8.3333" style="stroke:#1B1B1A;stroke-width:1.0416666666666667;" width="77.0833" x="273.4375" y="53.7028"/><rect fill="#1B1B1A" height="8.3333" style="stroke:#1B1B1A;stroke-width:1.0416666666666667;" width="77.0833" x="273.4375" y="76.7578"/><rect fill="none" height="48.055" id="JPanel" rx="8.3333" ry="8.3333" style="stroke:#5E5E5E;stroke-width:1.0416666666666667;" width="77.0833" x="273.4375" y="53.7028"/><ellipse cx="288.0208" cy="69.397" fill="#0066CF" rx="10.4167" ry="10.4167" style="stroke:#0086EF;stroke-width:1.0416666666666667;"/><path d="M289.9312,73.822 Q289.504,74.0417 289.034,74.1516 Q288.564,74.2615 288.0452,74.2615 Q286.202,74.2615 285.2315,73.0469 Q284.2611,71.8323 284.2611,69.5374 Q284.2611,67.2363 285.2315,66.0217 Q286.202,64.8071 288.0452,64.8071 Q288.564,64.8071 289.0401,64.917 Q289.5162,65.0269 289.9312,65.2466 L289.9312,67.2485 Q289.4674,66.8213 289.031,66.6229 Q288.5946,66.4246 288.1307,66.4246 Q287.1419,66.4246 286.6384,67.2089 Q286.1348,67.9932 286.1348,69.5374 Q286.1348,71.0754 286.6384,71.8597 Q287.1419,72.644 288.1307,72.644 Q288.5946,72.644 289.031,72.4457 Q289.4674,72.2473 289.9312,71.8201 Z " fill="#000000"/><text fill="#D8BC00" font-family="Open Sans,Avenir,Nunito,Arial,Helvetica,SansSerif" font-size="12.5" font-weight="bold" lengthAdjust="spacing" textLength="39.5833" x="304.6875" y="74.1211">JPanel</text><line style="stroke:#5E5E5E;stroke-width:1.0416666666666667;" x1="274.4792" x2="349.4792" y1="85.0911" y2="85.0911"/><line style="stroke:#5E5E5E;stroke-width:1.0416666666666667;" x1="274.4792" x2="349.4792" y1="93.4245" y2="93.4245"/><rect codeLine="8" fill="#282828" height="83.3781" id="RoutingPanel" rx="8.3333" ry="8.3333" style="stroke:#5E5E5E;stroke-width:1.0416666666666667;" width="177.0833" x="223.4375" y="164.1195"/><rect fill="#1B1B1A" height="31.3883" rx="8.3333" ry="8.3333" style="stroke:#1B1B1A;stroke-width:1.0416666666666667;" width="177.0833" x="223.4375" y="164.1195"/><rect fill="#1B1B1A" height="8.3333" style="stroke:#1B1B1A;stroke-width:1.0416666666666667;" width="177.0833" x="223.4375" y="187.1745"/><rect codeLine="8" fill="none" height="83.3781" id="RoutingPanel" rx="8.3333" ry="8.3333" style="stroke:#5E5E5E;stroke-width:1.0416666666666667;" width="177.0833" x="223.4375" y="164.1195"/><ellipse cx="262.3958" cy="179.8136" fill="#0066CF" rx="10.4167" ry="10.4167" style="stroke:#0086EF;stroke-width:1.0416666666666667;"/><path d="M264.3062,184.2387 Q263.879,184.4584 263.409,184.5683 Q262.939,184.6781 262.4202,184.6781 Q260.577,184.6781 259.6065,183.4635 Q258.6361,182.2489 258.6361,179.954 Q258.6361,177.653 259.6065,176.4384 Q260.577,175.2238 262.4202,175.2238 Q262.939,175.2238 263.4151,175.3337 Q263.8912,175.4435 264.3062,175.6632 L264.3062,177.6652 Q263.8424,177.238 263.406,177.0396 Q262.9696,176.8412 262.5057,176.8412 Q261.5169,176.8412 261.0134,177.6255 Q260.5098,178.4098 260.5098,179.954 Q260.5098,181.4921 261.0134,182.2764 Q261.5169,183.0607 262.5057,183.0607 Q262.9696,183.0607 263.406,182.8623 Q263.8424,182.664 264.3062,182.2367 Z " fill="#000000"/><text fill="#D8BC00" font-family="Open Sans,Avenir,Nunito,Arial,Helvetica,SansSerif" font-size="12.5" font-weight="bold" lengthAdjust="spacing" textLength="85.4167" x="284.4792" y="184.5378">RoutingPanel</text><line style="stroke:#5E5E5E;stroke-width:1.5625;" x1="224.4792" x2="399.4792" y1="195.5078" y2="195.5078"/><ellipse cx="234.8958" cy="230.8777" fill="#84BE84" rx="3.125" ry="3.125" style="stroke:#038048;stroke-width:1.0416666666666667;"/><text fill="#D8BC00" font-family="Open Sans,Avenir,Nunito,Arial,Helvetica,SansSerif" font-size="11.4583" lengthAdjust="spacing" textLength="144.7917" x="246.3542" y="237.7889">RoutingPanel(GraphPanel)</text><line style="stroke:#5E5E5E;stroke-width:1.0416666666666667;" x1="224.4792" x2="268.2292" y1="213.7136" y2="213.7136"/><text fill="#D8BC00" font-family="Open Sans,Avenir,Nunito,Arial,Helvetica,SansSerif" font-size="11.4583" lengthAdjust="spacing" textLength="81.25" x="271.3542" y="217.5232">(constructors)</text><line style="stroke:#5E5E5E;stroke-width:1.0416666666666667;" x1="355.7292" x2="399.4792" y1="213.7136" y2="213.7136"/><path codeLine="7" d="M311.9792,122.682 C311.9792,136.0778 311.9792,150.7445 311.9792,163.9215 " fill="none" id="JPanel-backto-RoutingPanel" style="stroke:#545454;stroke-width:1.5625;"/><polygon fill="none" points="304.6875,122.6507,311.9792,101.8174,319.2708,122.6507,304.6875,122.6507" style="stroke:#545454;stroke-width:1.5625;"/></g></svg>
