<?xml version="1.0" encoding="UTF-8" standalone="no"?><svg xmlns="http://www.w3.org/2000/svg" xmlns:xlink="http://www.w3.org/1999/xlink" contentScriptType="application/ecmascript" contentStyleType="text/css" height="254.1667px" preserveAspectRatio="none" style="width:705px;height:254px;background:#333333;" version="1.1" viewBox="0 0 705 254" width="705.2083px" zoomAndPan="magnify"><defs/><g><rect fill="#48494B" height="41.2028" rx="8.3333" ry="8.3333" style="stroke:#545454;stroke-width:1.0416666666666667;" width="692.7083" x="2.0833" y="2.0833"/><text fill="#C0C0C0" font-family="Open Sans,Avenir,Nunito,Arial,Helvetica,SansSerif" font-size="20.8333" lengthAdjust="spacing" textLength="669.7917" x="13.5417" y="30.5583">com.telenav.mesakit.plugins.josm.graph.view.graphics.coordinates</text><rect codeLine="7" fill="#282828" height="48.055" id="MapProjection" rx="8.3333" ry="8.3333" style="stroke:#5E5E5E;stroke-width:1.0416666666666667;" width="129.1667" x="291.1458" y="53.7028"/><rect fill="#1B1B1A" height="31.3883" rx="8.3333" ry="8.3333" style="stroke:#1B1B1A;stroke-width:1.0416666666666667;" width="129.1667" x="291.1458" y="53.7028"/><rect fill="#1B1B1A" height="8.3333" style="stroke:#1B1B1A;stroke-width:1.0416666666666667;" width="129.1667" x="291.1458" y="76.7578"/><rect codeLine="7" fill="none" height="48.055" id="MapProjection" rx="8.3333" ry="8.3333" style="stroke:#5E5E5E;stroke-width:1.0416666666666667;" width="129.1667" x="291.1458" y="53.7028"/><ellipse cx="305.7292" cy="69.397" fill="#008400" rx="10.4167" ry="10.4167" style="stroke:#239C23;stroke-width:1.0416666666666667;"/><path d="M303.1331,66.5588 L303.1331,64.9719 L308.5592,64.9719 L308.5592,66.5588 L306.7464,66.5588 L306.7464,72.4976 L308.5592,72.4976 L308.5592,74.0845 L303.1331,74.0845 L303.1331,72.4976 L304.9459,72.4976 L304.9459,66.5588 Z " fill="#000000"/><text fill="#D8BC00" font-family="Open Sans,Avenir,Nunito,Arial,Helvetica,SansSerif" font-size="12.5" font-style="italic" font-weight="bold" lengthAdjust="spacing" textLength="91.6667" x="322.3958" y="74.1211">MapProjection</text><line style="stroke:#5E5E5E;stroke-width:1.0416666666666667;" x1="292.1875" x2="419.2708" y1="85.0911" y2="85.0911"/><line style="stroke:#5E5E5E;stroke-width:1.0416666666666667;" x1="292.1875" x2="419.2708" y1="93.4245" y2="93.4245"/><rect codeLine="10" fill="#282828" height="83.3781" id="JosmCoordinateMapper" rx="8.3333" ry="8.3333" style="stroke:#5E5E5E;stroke-width:1.0416666666666667;" width="219.7917" x="245.8333" y="164.1195"/><rect fill="#1B1B1A" height="31.3883" rx="8.3333" ry="8.3333" style="stroke:#1B1B1A;stroke-width:1.0416666666666667;" width="219.7917" x="245.8333" y="164.1195"/><rect fill="#1B1B1A" height="8.3333" style="stroke:#1B1B1A;stroke-width:1.0416666666666667;" width="219.7917" x="245.8333" y="187.1745"/><rect codeLine="10" fill="none" height="83.3781" id="JosmCoordinateMapper" rx="8.3333" ry="8.3333" style="stroke:#5E5E5E;stroke-width:1.0416666666666667;" width="219.7917" x="245.8333" y="164.1195"/><ellipse cx="273.5417" cy="179.8136" fill="#0066CF" rx="10.4167" ry="10.4167" style="stroke:#0086EF;stroke-width:1.0416666666666667;"/><path d="M275.4521,184.2387 Q275.0248,184.4584 274.5549,184.5683 Q274.0849,184.6781 273.5661,184.6781 Q271.7228,184.6781 270.7524,183.4635 Q269.7819,182.2489 269.7819,179.954 Q269.7819,177.653 270.7524,176.4384 Q271.7228,175.2238 273.5661,175.2238 Q274.0849,175.2238 274.561,175.3337 Q275.037,175.4435 275.4521,175.6632 L275.4521,177.6652 Q274.9882,177.238 274.5518,177.0396 Q274.1154,176.8412 273.6515,176.8412 Q272.6628,176.8412 272.1592,177.6255 Q271.6557,178.4098 271.6557,179.954 Q271.6557,181.4921 272.1592,182.2764 Q272.6628,183.0607 273.6515,183.0607 Q274.1154,183.0607 274.5518,182.8623 Q274.9882,182.664 275.4521,182.2367 Z " fill="#000000"/><text fill="#D8BC00" font-family="Open Sans,Avenir,Nunito,Arial,Helvetica,SansSerif" font-size="12.5" font-weight="bold" lengthAdjust="spacing" textLength="153.125" x="293.125" y="184.5378">JosmCoordinateMapper</text><line style="stroke:#5E5E5E;stroke-width:1.5625;" x1="246.875" x2="464.5833" y1="195.5078" y2="195.5078"/><ellipse cx="257.2917" cy="230.8777" fill="#84BE84" rx="3.125" ry="3.125" style="stroke:#038048;stroke-width:1.0416666666666667;"/><text fill="#D8BC00" font-family="Open Sans,Avenir,Nunito,Arial,Helvetica,SansSerif" font-size="11.4583" lengthAdjust="spacing" textLength="187.5" x="268.75" y="237.7889">JosmCoordinateMapper(MapView)</text><line style="stroke:#5E5E5E;stroke-width:1.0416666666666667;" x1="246.875" x2="311.9792" y1="213.7136" y2="213.7136"/><text fill="#D8BC00" font-family="Open Sans,Avenir,Nunito,Arial,Helvetica,SansSerif" font-size="11.4583" lengthAdjust="spacing" textLength="81.25" x="315.1042" y="217.5232">(constructors)</text><line style="stroke:#5E5E5E;stroke-width:1.0416666666666667;" x1="399.4792" x2="464.5833" y1="213.7136" y2="213.7136"/><path codeLine="9" d="M355.7292,122.682 C355.7292,136.0778 355.7292,150.7445 355.7292,163.9215 " fill="none" id="MapProjection-backto-JosmCoordinateMapper" style="stroke:#545454;stroke-width:1.5625;"/><polygon fill="none" points="348.4375,122.6507,355.7292,101.8174,363.0208,122.6507,348.4375,122.6507" style="stroke:#545454;stroke-width:1.5625;"/></g></svg>
