<?xml version="1.0" encoding="UTF-8" standalone="no"?><svg xmlns="http://www.w3.org/2000/svg" xmlns:xlink="http://www.w3.org/1999/xlink" contentScriptType="application/ecmascript" contentStyleType="text/css" height="515.625px" preserveAspectRatio="none" style="width:1080px;height:515px;background:#333333;" version="1.1" viewBox="0 0 1080 515" width="1080.2083px" zoomAndPan="magnify"><defs/><g><rect fill="#48494B" height="41.2028" rx="8.3333" ry="8.3333" style="stroke:#545454;stroke-width:1.0416666666666667;" width="466.6667" x="299.7396" y="2.0833"/><text fill="#C0C0C0" font-family="Open Sans,Avenir,Nunito,Arial,Helvetica,SansSerif" font-size="20.8333" lengthAdjust="spacing" textLength="443.75" x="311.1979" y="30.5583">com.telenav.mesakit.map.geography.project</text><!--MD5=[d776228a55af1f9e7dd99d395538019c]
class KryoTypes--><rect fill="#282828" height="48.055" id="KryoTypes" rx="8.3333" ry="8.3333" style="stroke:#5E5E5E;stroke-width:1.0416666666666667;" width="106.25" x="42.1875" y="53.7028"/><rect fill="#1B1B1A" height="31.3883" rx="8.3333" ry="8.3333" style="stroke:#1B1B1A;stroke-width:1.0416666666666667;" width="106.25" x="42.1875" y="53.7028"/><rect fill="#1B1B1A" height="8.3333" style="stroke:#1B1B1A;stroke-width:1.0416666666666667;" width="106.25" x="42.1875" y="76.7578"/><rect fill="none" height="48.055" id="KryoTypes" rx="8.3333" ry="8.3333" style="stroke:#5E5E5E;stroke-width:1.0416666666666667;" width="106.25" x="42.1875" y="53.7028"/><ellipse cx="56.7708" cy="69.397" fill="#0066CF" rx="10.4167" ry="10.4167" style="stroke:#0086EF;stroke-width:1.0416666666666667;"/><path d="M58.6812,73.822 Q58.254,74.0417 57.784,74.1516 Q57.314,74.2615 56.7952,74.2615 Q54.952,74.2615 53.9815,73.0469 Q53.0111,71.8323 53.0111,69.5374 Q53.0111,67.2363 53.9815,66.0217 Q54.952,64.8071 56.7952,64.8071 Q57.314,64.8071 57.7901,64.917 Q58.2662,65.0269 58.6812,65.2466 L58.6812,67.2485 Q58.2174,66.8213 57.781,66.6229 Q57.3446,66.4246 56.8807,66.4246 Q55.8919,66.4246 55.3884,67.2089 Q54.8848,67.9932 54.8848,69.5374 Q54.8848,71.0754 55.3884,71.8597 Q55.8919,72.644 56.8807,72.644 Q57.3446,72.644 57.781,72.4457 Q58.2174,72.2473 58.6812,71.8201 Z " fill="#000000"/><text fill="#D8BC00" font-family="Open Sans,Avenir,Nunito,Arial,Helvetica,SansSerif" font-size="12.5" font-weight="bold" lengthAdjust="spacing" textLength="68.75" x="73.4375" y="74.1211">KryoTypes</text><line style="stroke:#5E5E5E;stroke-width:1.0416666666666667;" x1="43.2292" x2="147.3958" y1="85.0911" y2="85.0911"/><line style="stroke:#5E5E5E;stroke-width:1.0416666666666667;" x1="43.2292" x2="147.3958" y1="93.4245" y2="93.4245"/><!--MD5=[8633b79d5b429a7c770a4426fc58f582]
class GeographyKryoTypes--><rect codeLine="7" fill="#282828" height="83.3781" id="GeographyKryoTypes" rx="8.3333" ry="8.3333" style="stroke:#5E5E5E;stroke-width:1.0416666666666667;" width="176.0417" x="7.2917" y="294.3278"/><rect fill="#1B1B1A" height="31.3883" rx="8.3333" ry="8.3333" style="stroke:#1B1B1A;stroke-width:1.0416666666666667;" width="176.0417" x="7.2917" y="294.3278"/><rect fill="#1B1B1A" height="8.3333" style="stroke:#1B1B1A;stroke-width:1.0416666666666667;" width="176.0417" x="7.2917" y="317.3828"/><rect codeLine="7" fill="none" height="83.3781" id="GeographyKryoTypes" rx="8.3333" ry="8.3333" style="stroke:#5E5E5E;stroke-width:1.0416666666666667;" width="176.0417" x="7.2917" y="294.3278"/><ellipse cx="21.875" cy="310.022" fill="#0066CF" rx="10.4167" ry="10.4167" style="stroke:#0086EF;stroke-width:1.0416666666666667;"/><path d="M23.7854,314.447 Q23.3582,314.6667 22.8882,314.7766 Q22.4182,314.8865 21.8994,314.8865 Q20.0562,314.8865 19.0857,313.6719 Q18.1152,312.4573 18.1152,310.1624 Q18.1152,307.8613 19.0857,306.6467 Q20.0562,305.4321 21.8994,305.4321 Q22.4182,305.4321 22.8943,305.542 Q23.3704,305.6519 23.7854,305.8716 L23.7854,307.8735 Q23.3215,307.4463 22.8851,307.2479 Q22.4487,307.0496 21.9849,307.0496 Q20.9961,307.0496 20.4926,307.8339 Q19.989,308.6182 19.989,310.1624 Q19.989,311.7004 20.4926,312.4847 Q20.9961,313.269 21.9849,313.269 Q22.4487,313.269 22.8851,313.0707 Q23.3215,312.8723 23.7854,312.4451 Z " fill="#000000"/><text fill="#D8BC00" font-family="Open Sans,Avenir,Nunito,Arial,Helvetica,SansSerif" font-size="12.5" font-weight="bold" lengthAdjust="spacing" textLength="138.5417" x="38.5417" y="314.7461">GeographyKryoTypes</text><line style="stroke:#5E5E5E;stroke-width:1.5625;" x1="8.3333" x2="182.2917" y1="325.7161" y2="325.7161"/><ellipse cx="18.75" cy="361.086" fill="#84BE84" rx="3.125" ry="3.125" style="stroke:#038048;stroke-width:1.0416666666666667;"/><text fill="#D8BC00" font-family="Open Sans,Avenir,Nunito,Arial,Helvetica,SansSerif" font-size="11.4583" lengthAdjust="spacing" textLength="129.1667" x="30.2083" y="367.9972">GeographyKryoTypes()</text><line style="stroke:#5E5E5E;stroke-width:1.0416666666666667;" x1="8.3333" x2="51.5625" y1="343.9219" y2="343.9219"/><text fill="#D8BC00" font-family="Open Sans,Avenir,Nunito,Arial,Helvetica,SansSerif" font-size="11.4583" lengthAdjust="spacing" textLength="81.25" x="54.6875" y="347.7315">(constructors)</text><line style="stroke:#5E5E5E;stroke-width:1.0416666666666667;" x1="139.0625" x2="182.2917" y1="343.9219" y2="343.9219"/><!--MD5=[991fbeaa3270490b3b45808c5dda79fe]
class GeographyLimits--><rect codeLine="13" fill="#282828" height="48.055" id="GeographyLimits" rx="8.3333" ry="8.3333" style="stroke:#5E5E5E;stroke-width:1.0416666666666667;" width="147.9167" x="184.8958" y="53.7028"/><rect fill="#1B1B1A" height="31.3883" rx="8.3333" ry="8.3333" style="stroke:#1B1B1A;stroke-width:1.0416666666666667;" width="147.9167" x="184.8958" y="53.7028"/><rect fill="#1B1B1A" height="8.3333" style="stroke:#1B1B1A;stroke-width:1.0416666666666667;" width="147.9167" x="184.8958" y="76.7578"/><rect codeLine="13" fill="none" height="48.055" id="GeographyLimits" rx="8.3333" ry="8.3333" style="stroke:#5E5E5E;stroke-width:1.0416666666666667;" width="147.9167" x="184.8958" y="53.7028"/><ellipse cx="199.4792" cy="69.397" fill="#0066CF" rx="10.4167" ry="10.4167" style="stroke:#0086EF;stroke-width:1.0416666666666667;"/><path d="M201.3896,73.822 Q200.9623,74.0417 200.4924,74.1516 Q200.0224,74.2615 199.5036,74.2615 Q197.6603,74.2615 196.6899,73.0469 Q195.7194,71.8323 195.7194,69.5374 Q195.7194,67.2363 196.6899,66.0217 Q197.6603,64.8071 199.5036,64.8071 Q200.0224,64.8071 200.4985,64.917 Q200.9745,65.0269 201.3896,65.2466 L201.3896,67.2485 Q200.9257,66.8213 200.4893,66.6229 Q200.0529,66.4246 199.589,66.4246 Q198.6003,66.4246 198.0967,67.2089 Q197.5932,67.9932 197.5932,69.5374 Q197.5932,71.0754 198.0967,71.8597 Q198.6003,72.644 199.589,72.644 Q200.0529,72.644 200.4893,72.4457 Q200.9257,72.2473 201.3896,71.8201 Z " fill="#000000"/><text fill="#D8BC00" font-family="Open Sans,Avenir,Nunito,Arial,Helvetica,SansSerif" font-size="12.5" font-weight="bold" lengthAdjust="spacing" textLength="110.4167" x="216.1458" y="74.1211">GeographyLimits</text><line style="stroke:#5E5E5E;stroke-width:1.0416666666666667;" x1="185.9375" x2="331.7708" y1="85.0911" y2="85.0911"/><line style="stroke:#5E5E5E;stroke-width:1.0416666666666667;" x1="185.9375" x2="331.7708" y1="93.4245" y2="93.4245"/><!--MD5=[d6a877a57ef06436205cb35cbfbd58a5]
class MeasurementsRandomValueFactory--><rect fill="#282828" height="48.055" id="MeasurementsRandomValueFactory" rx="8.3333" ry="8.3333" style="stroke:#5E5E5E;stroke-width:1.0416666666666667;" width="267.7083" x="369.7917" y="53.7028"/><rect fill="#1B1B1A" height="31.3883" rx="8.3333" ry="8.3333" style="stroke:#1B1B1A;stroke-width:1.0416666666666667;" width="267.7083" x="369.7917" y="53.7028"/><rect fill="#1B1B1A" height="8.3333" style="stroke:#1B1B1A;stroke-width:1.0416666666666667;" width="267.7083" x="369.7917" y="76.7578"/><rect fill="none" height="48.055" id="MeasurementsRandomValueFactory" rx="8.3333" ry="8.3333" style="stroke:#5E5E5E;stroke-width:1.0416666666666667;" width="267.7083" x="369.7917" y="53.7028"/><ellipse cx="384.375" cy="69.397" fill="#0066CF" rx="10.4167" ry="10.4167" style="stroke:#0086EF;stroke-width:1.0416666666666667;"/><path d="M386.2854,73.822 Q385.8582,74.0417 385.3882,74.1516 Q384.9182,74.2615 384.3994,74.2615 Q382.5562,74.2615 381.5857,73.0469 Q380.6152,71.8323 380.6152,69.5374 Q380.6152,67.2363 381.5857,66.0217 Q382.5562,64.8071 384.3994,64.8071 Q384.9182,64.8071 385.3943,64.917 Q385.8704,65.0269 386.2854,65.2466 L386.2854,67.2485 Q385.8215,66.8213 385.3851,66.6229 Q384.9487,66.4246 384.4849,66.4246 Q383.4961,66.4246 382.9926,67.2089 Q382.489,67.9932 382.489,69.5374 Q382.489,71.0754 382.9926,71.8597 Q383.4961,72.644 384.4849,72.644 Q384.9487,72.644 385.3851,72.4457 Q385.8215,72.2473 386.2854,71.8201 Z " fill="#000000"/><text fill="#D8BC00" font-family="Open Sans,Avenir,Nunito,Arial,Helvetica,SansSerif" font-size="12.5" font-weight="bold" lengthAdjust="spacing" textLength="230.2083" x="401.0417" y="74.1211">MeasurementsRandomValueFactory</text><line style="stroke:#5E5E5E;stroke-width:1.0416666666666667;" x1="370.8333" x2="636.4583" y1="85.0911" y2="85.0911"/><line style="stroke:#5E5E5E;stroke-width:1.0416666666666667;" x1="370.8333" x2="636.4583" y1="93.4245" y2="93.4245"/><!--MD5=[106957bf0892193b3cb2357c28c3892d]
class GeographyRandomValueFactory--><rect codeLine="18" fill="#282828" height="344.2281" id="GeographyRandomValueFactory" rx="8.3333" ry="8.3333" style="stroke:#5E5E5E;stroke-width:1.0416666666666667;" width="423.9583" x="291.6667" y="164.1195"/><rect fill="#1B1B1A" height="31.3883" rx="8.3333" ry="8.3333" style="stroke:#1B1B1A;stroke-width:1.0416666666666667;" width="423.9583" x="291.6667" y="164.1195"/><rect fill="#1B1B1A" height="8.3333" style="stroke:#1B1B1A;stroke-width:1.0416666666666667;" width="423.9583" x="291.6667" y="187.1745"/><rect codeLine="18" fill="none" height="344.2281" id="GeographyRandomValueFactory" rx="8.3333" ry="8.3333" style="stroke:#5E5E5E;stroke-width:1.0416666666666667;" width="423.9583" x="291.6667" y="164.1195"/><ellipse cx="393.75" cy="179.8136" fill="#0066CF" rx="10.4167" ry="10.4167" style="stroke:#0086EF;stroke-width:1.0416666666666667;"/><path d="M395.6604,184.2387 Q395.2332,184.4584 394.7632,184.5683 Q394.2932,184.6781 393.7744,184.6781 Q391.9312,184.6781 390.9607,183.4635 Q389.9902,182.2489 389.9902,179.954 Q389.9902,177.653 390.9607,176.4384 Q391.9312,175.2238 393.7744,175.2238 Q394.2932,175.2238 394.7693,175.3337 Q395.2454,175.4435 395.6604,175.6632 L395.6604,177.6652 Q395.1965,177.238 394.7601,177.0396 Q394.3237,176.8412 393.8599,176.8412 Q392.8711,176.8412 392.3676,177.6255 Q391.864,178.4098 391.864,179.954 Q391.864,181.4921 392.3676,182.2764 Q392.8711,183.0607 393.8599,183.0607 Q394.3237,183.0607 394.7601,182.8623 Q395.1965,182.664 395.6604,182.2367 Z " fill="#000000"/><text fill="#D8BC00" font-family="Open Sans,Avenir,Nunito,Arial,Helvetica,SansSerif" font-size="12.5" font-weight="bold" lengthAdjust="spacing" textLength="205.2083" x="416.6667" y="184.5378">GeographyRandomValueFactory</text><line style="stroke:#5E5E5E;stroke-width:1.5625;" x1="292.7083" x2="714.5833" y1="195.5078" y2="195.5078"/><ellipse cx="303.125" cy="230.8777" fill="#84BE84" rx="3.125" ry="3.125" style="stroke:#038048;stroke-width:1.0416666666666667;"/><text fill="#D8BC00" font-family="Open Sans,Avenir,Nunito,Arial,Helvetica,SansSerif" font-size="11.4583" lengthAdjust="spacing" textLength="187.5" x="314.5833" y="237.7889">GeographyRandomValueFactory()</text><ellipse cx="303.125" cy="250.6226" fill="#84BE84" rx="3.125" ry="3.125" style="stroke:#038048;stroke-width:1.0416666666666667;"/><text fill="#D8BC00" font-family="Open Sans,Avenir,Nunito,Arial,Helvetica,SansSerif" font-size="11.4583" lengthAdjust="spacing" textLength="212.5" x="314.5833" y="257.5338">GeographyRandomValueFactory(long)</text><line style="stroke:#5E5E5E;stroke-width:1.0416666666666667;" x1="292.7083" x2="459.8958" y1="213.7136" y2="213.7136"/><text fill="#D8BC00" font-family="Open Sans,Avenir,Nunito,Arial,Helvetica,SansSerif" font-size="11.4583" lengthAdjust="spacing" textLength="81.25" x="463.0208" y="217.5232">(constructors)</text><line style="stroke:#5E5E5E;stroke-width:1.0416666666666667;" x1="547.3958" x2="714.5833" y1="213.7136" y2="213.7136"/><ellipse cx="303.125" cy="294.279" fill="#84BE84" rx="3.125" ry="3.125" style="stroke:#038048;stroke-width:1.0416666666666667;"/><text fill="#D8BC00" font-family="Open Sans,Avenir,Nunito,Arial,Helvetica,SansSerif" font-size="11.4583" lengthAdjust="spacing" textLength="269.7917" x="314.5833" y="301.1902">Latitude newLatitude(Latitude min, Latitude max)</text><ellipse cx="303.125" cy="314.0238" fill="#84BE84" rx="3.125" ry="3.125" style="stroke:#038048;stroke-width:1.0416666666666667;"/><text fill="#D8BC00" font-family="Open Sans,Avenir,Nunito,Arial,Helvetica,SansSerif" font-size="11.4583" lengthAdjust="spacing" textLength="122.9167" x="314.5833" y="320.9351">Latitude newLatitude()</text><ellipse cx="303.125" cy="333.7687" fill="#84BE84" rx="3.125" ry="3.125" style="stroke:#038048;stroke-width:1.0416666666666667;"/><text fill="#D8BC00" font-family="Open Sans,Avenir,Nunito,Arial,Helvetica,SansSerif" font-size="11.4583" lengthAdjust="spacing" textLength="129.1667" x="314.5833" y="340.6799">Location newLocation()</text><ellipse cx="303.125" cy="353.5136" fill="#84BE84" rx="3.125" ry="3.125" style="stroke:#038048;stroke-width:1.0416666666666667;"/><text fill="#D8BC00" font-family="Open Sans,Avenir,Nunito,Arial,Helvetica,SansSerif" font-size="11.4583" lengthAdjust="spacing" textLength="229.1667" x="314.5833" y="360.4248">Location newLocation(Rectangle bounds)</text><ellipse cx="303.125" cy="373.2585" fill="#84BE84" rx="3.125" ry="3.125" style="stroke:#038048;stroke-width:1.0416666666666667;"/><text fill="#D8BC00" font-family="Open Sans,Avenir,Nunito,Arial,Helvetica,SansSerif" font-size="11.4583" lengthAdjust="spacing" textLength="145.8333" x="314.5833" y="380.1697">Longitude newLongitude()</text><ellipse cx="303.125" cy="393.0033" fill="#84BE84" rx="3.125" ry="3.125" style="stroke:#038048;stroke-width:1.0416666666666667;"/><text fill="#D8BC00" font-family="Open Sans,Avenir,Nunito,Arial,Helvetica,SansSerif" font-size="11.4583" lengthAdjust="spacing" textLength="315.625" x="314.5833" y="399.9146">Longitude newLongitude(Longitude min, Longitude max)</text><ellipse cx="303.125" cy="412.7482" fill="#84BE84" rx="3.125" ry="3.125" style="stroke:#038048;stroke-width:1.0416666666666667;"/><text fill="#D8BC00" font-family="Open Sans,Avenir,Nunito,Arial,Helvetica,SansSerif" font-size="11.4583" lengthAdjust="spacing" textLength="241.6667" x="314.5833" y="419.6594">Rectangle newRectangle(Rectangle bounds)</text><ellipse cx="303.125" cy="432.4931" fill="#84BE84" rx="3.125" ry="3.125" style="stroke:#038048;stroke-width:1.0416666666666667;"/><text fill="#D8BC00" font-family="Open Sans,Avenir,Nunito,Arial,Helvetica,SansSerif" font-size="11.4583" lengthAdjust="spacing" textLength="141.6667" x="314.5833" y="439.4043">Rectangle newRectangle()</text><ellipse cx="303.125" cy="452.238" fill="#84BE84" rx="3.125" ry="3.125" style="stroke:#038048;stroke-width:1.0416666666666667;"/><text fill="#D8BC00" font-family="Open Sans,Avenir,Nunito,Arial,Helvetica,SansSerif" font-size="11.4583" lengthAdjust="spacing" textLength="391.6667" x="314.5833" y="459.1492">Rectangle newRectangle(Rectangle bounds, Distance maximumRadius)</text><ellipse cx="303.125" cy="471.9828" fill="#84BE84" rx="3.125" ry="3.125" style="stroke:#038048;stroke-width:1.0416666666666667;"/><text fill="#D8BC00" font-family="Open Sans,Avenir,Nunito,Arial,Helvetica,SansSerif" font-size="11.4583" lengthAdjust="spacing" textLength="157.2917" x="314.5833" y="478.894">Size newSize(Size maximum)</text><ellipse cx="303.125" cy="491.7277" fill="#84BE84" rx="3.125" ry="3.125" style="stroke:#038048;stroke-width:1.0416666666666667;"/><text fill="#D8BC00" font-family="Open Sans,Avenir,Nunito,Arial,Helvetica,SansSerif" font-size="11.4583" lengthAdjust="spacing" textLength="178.125" x="314.5833" y="498.6389">Size newSize(Size min, Size max)</text><line style="stroke:#5E5E5E;stroke-width:1.0416666666666667;" x1="292.7083" x2="476.5625" y1="277.1149" y2="277.1149"/><text fill="#D8BC00" font-family="Open Sans,Avenir,Nunito,Arial,Helvetica,SansSerif" font-size="11.4583" lengthAdjust="spacing" textLength="47.9167" x="479.6875" y="280.9245">(factory)</text><line style="stroke:#5E5E5E;stroke-width:1.0416666666666667;" x1="530.7292" x2="714.5833" y1="277.1149" y2="277.1149"/><!--MD5=[3b613e7ef45d150b83c759c519d8000f]
class MeasurementsUnitTest--><rect fill="#282828" height="48.055" id="MeasurementsUnitTest" rx="8.3333" ry="8.3333" style="stroke:#5E5E5E;stroke-width:1.0416666666666667;" width="187.5" x="819.2708" y="53.7028"/><rect fill="#1B1B1A" height="31.3883" rx="8.3333" ry="8.3333" style="stroke:#1B1B1A;stroke-width:1.0416666666666667;" width="187.5" x="819.2708" y="53.7028"/><rect fill="#1B1B1A" height="8.3333" style="stroke:#1B1B1A;stroke-width:1.0416666666666667;" width="187.5" x="819.2708" y="76.7578"/><rect fill="none" height="48.055" id="MeasurementsUnitTest" rx="8.3333" ry="8.3333" style="stroke:#5E5E5E;stroke-width:1.0416666666666667;" width="187.5" x="819.2708" y="53.7028"/><ellipse cx="833.8542" cy="69.397" fill="#0066CF" rx="10.4167" ry="10.4167" style="stroke:#0086EF;stroke-width:1.0416666666666667;"/><path d="M835.7646,73.822 Q835.3373,74.0417 834.8674,74.1516 Q834.3974,74.2615 833.8786,74.2615 Q832.0353,74.2615 831.0649,73.0469 Q830.0944,71.8323 830.0944,69.5374 Q830.0944,67.2363 831.0649,66.0217 Q832.0353,64.8071 833.8786,64.8071 Q834.3974,64.8071 834.8735,64.917 Q835.3495,65.0269 835.7646,65.2466 L835.7646,67.2485 Q835.3007,66.8213 834.8643,66.6229 Q834.4279,66.4246 833.964,66.4246 Q832.9753,66.4246 832.4717,67.2089 Q831.9682,67.9932 831.9682,69.5374 Q831.9682,71.0754 832.4717,71.8597 Q832.9753,72.644 833.964,72.644 Q834.4279,72.644 834.8643,72.4457 Q835.3007,72.2473 835.7646,71.8201 Z " fill="#000000"/><text fill="#D8BC00" font-family="Open Sans,Avenir,Nunito,Arial,Helvetica,SansSerif" font-size="12.5" font-weight="bold" lengthAdjust="spacing" textLength="150" x="850.5208" y="74.1211">MeasurementsUnitTest</text><line style="stroke:#5E5E5E;stroke-width:1.0416666666666667;" x1="820.3125" x2="1005.7292" y1="85.0911" y2="85.0911"/><line style="stroke:#5E5E5E;stroke-width:1.0416666666666667;" x1="820.3125" x2="1005.7292" y1="93.4245" y2="93.4245"/><!--MD5=[a31209886c13a28d4a79698c5bb6c309]
class GeographyUnitTest--><rect codeLine="38" fill="#282828" height="87.5448" id="GeographyUnitTest" rx="8.3333" ry="8.3333" style="stroke:#5E5E5E;stroke-width:1.0416666666666667;" width="320.8333" x="752.6042" y="292.2445"/><rect fill="#1B1B1A" height="31.3883" rx="8.3333" ry="8.3333" style="stroke:#1B1B1A;stroke-width:1.0416666666666667;" width="320.8333" x="752.6042" y="292.2445"/><rect fill="#1B1B1A" height="8.3333" style="stroke:#1B1B1A;stroke-width:1.0416666666666667;" width="320.8333" x="752.6042" y="315.2995"/><rect codeLine="38" fill="none" height="87.5448" id="GeographyUnitTest" rx="8.3333" ry="8.3333" style="stroke:#5E5E5E;stroke-width:1.0416666666666667;" width="320.8333" x="752.6042" y="292.2445"/><ellipse cx="843.2292" cy="307.9386" fill="#0066CF" rx="10.4167" ry="10.4167" style="stroke:#0086EF;stroke-width:1.0416666666666667;"/><path d="M845.1396,312.3637 Q844.7123,312.5834 844.2424,312.6933 Q843.7724,312.8031 843.2536,312.8031 Q841.4103,312.8031 840.4399,311.5885 Q839.4694,310.3739 839.4694,308.079 Q839.4694,305.778 840.4399,304.5634 Q841.4103,303.3488 843.2536,303.3488 Q843.7724,303.3488 844.2485,303.4587 Q844.7245,303.5685 845.1396,303.7882 L845.1396,305.7902 Q844.6757,305.363 844.2393,305.1646 Q843.8029,304.9662 843.339,304.9662 Q842.3503,304.9662 841.8467,305.7505 Q841.3432,306.5348 841.3432,308.079 Q841.3432,309.6171 841.8467,310.4014 Q842.3503,311.1857 843.339,311.1857 Q843.8029,311.1857 844.2393,310.9873 Q844.6757,310.789 845.1396,310.3617 Z " fill="#000000"/><text fill="#D8BC00" font-family="Open Sans,Avenir,Nunito,Arial,Helvetica,SansSerif" font-size="12.5" font-weight="bold" lengthAdjust="spacing" textLength="125" x="866.1458" y="312.6628">GeographyUnitTest</text><line style="stroke:#5E5E5E;stroke-width:1.5625;" x1="753.6458" x2="1072.3958" y1="323.6328" y2="323.6328"/><line style="stroke:#5E5E5E;stroke-width:1.0416666666666667;" x1="753.6458" x2="1072.3958" y1="331.9661" y2="331.9661"/><polygon fill="#FFFF44" points="764.0625,338.2161,768.2292,342.3828,764.0625,346.5495,759.8958,342.3828" style="stroke:#B38D22;stroke-width:1.0416666666666667;"/><text fill="#D8BC00" font-family="Open Sans,Avenir,Nunito,Arial,Helvetica,SansSerif" font-size="11.4583" lengthAdjust="spacing" textLength="288.5417" x="775.5208" y="350.3357">Location location(double latitude, double longitude)</text><polygon fill="#FFFF44" points="764.0625,357.961,768.2292,362.1277,764.0625,366.2944,759.8958,362.1277" style="stroke:#B38D22;stroke-width:1.0416666666666667;"/><text fill="#D8BC00" font-family="Open Sans,Avenir,Nunito,Arial,Helvetica,SansSerif" font-size="11.4583" lengthAdjust="spacing" textLength="206.25" x="775.5208" y="370.0806">Rectangle rectangle(String rectangle)</text><!--MD5=[8dfff6126c0e9e52507a9a70ebb31277]
reverse link KryoTypes to GeographyKryoTypes--><path codeLine="6" d="M95.3125,123.0049 C95.3125,171.1195 95.3125,247.3382 95.3125,294.0674 " fill="none" id="KryoTypes-backto-GeographyKryoTypes" style="stroke:#545454;stroke-width:1.5625;"/><polygon fill="none" points="88.0208,122.7236,95.3125,101.8903,102.6042,122.7236,88.0208,122.7236" style="stroke:#545454;stroke-width:1.5625;"/><!--MD5=[7ea936ae97d1f305edd02033ac410366]
reverse link MeasurementsRandomValueFactory to GeographyRandomValueFactory--><path codeLine="17" d="M503.6458,122.9007 C503.6458,135.109 503.6458,149.1403 503.6458,164.0465 " fill="none" id="MeasurementsRandomValueFactory-backto-GeographyRandomValueFactory" style="stroke:#545454;stroke-width:1.5625;"/><polygon fill="none" points="496.3542,122.7236,503.6458,101.8903,510.9375,122.7236,496.3542,122.7236" style="stroke:#545454;stroke-width:1.5625;"/><!--MD5=[ea1a513256664456a3578785bd911989]
reverse link MeasurementsUnitTest to GeographyUnitTest--><path codeLine="37" d="M913.0208,122.734 C913.0208,170.2028 913.0208,245.2445 913.0208,292.2028 " fill="none" id="MeasurementsUnitTest-backto-GeographyUnitTest" style="stroke:#545454;stroke-width:1.5625;"/><polygon fill="none" points="905.7292,122.7236,913.0208,101.8903,920.3125,122.7236,905.7292,122.7236" style="stroke:#545454;stroke-width:1.5625;"/><!--MD5=[c201d42bad5028b6a59503b0717b4d1b]
@startuml

    !include lexakai.theme
    
    title "com.telenav.mesakit.map.geography.project"
    
    KryoTypes <|- - GeographyKryoTypes
    class GeographyKryoTypes
    {
        - -(constructors)- -
        +GeographyKryoTypes()
    }
    
    class GeographyLimits
    {
    }
    
    MeasurementsRandomValueFactory <|- - GeographyRandomValueFactory
    class GeographyRandomValueFactory
    {
        - -(constructors)- -
        +GeographyRandomValueFactory()
        +GeographyRandomValueFactory(long)
        - -(factory)- -
        +Latitude newLatitude(Latitude min, Latitude max)
        +Latitude newLatitude()
        +Location newLocation()
        +Location newLocation(Rectangle bounds)
        +Longitude newLongitude()
        +Longitude newLongitude(Longitude min, Longitude max)
        +Rectangle newRectangle(Rectangle bounds)
        +Rectangle newRectangle()
        +Rectangle newRectangle(Rectangle bounds, Distance maximumRadius)
        +Size newSize(Size maximum)
        +Size newSize(Size min, Size max)
    }
    
    MeasurementsUnitTest <|- - GeographyUnitTest
    class GeographyUnitTest
    {
        - -
        #Location location(double latitude, double longitude)
        #Rectangle rectangle(String rectangle)
    }
    
@enduml

@startuml









skinparam backgroundColor #333333






skinparam  {
    defaultFontName   "Open Sans,Avenir,Nunito,Arial,Helvetica,SansSerif"
    defaultFontSize   12
    defaultTextAlignment left
    shadowing false
    RoundCorner 10
    TitleFontSize 18
}

skinparam defaultFontName       "Open Sans,Avenir,Nunito,Arial,Helvetica,SansSerif"
skinparam defaultFontSize       12
skinparam dpi                   100
skinparam shadowing             false
skinparam roundcorner           16
skinparam ParticipantPadding    40
skinparam BoxPadding            40
skinparam Padding               3
skinparam ArrowColor            #545454
skinparam stereotype {
    CBackgroundColor #0066cf
    CBorderColor #0086ef
    ABackgroundColor #C8Ac00
    ABorderColor #D8Bc00
    IBackgroundColor #008400
    IBorderColor #239c23
    EBackgroundColor #cf6300
    EBorderColor #ef8300
    NBackgroundColor #3380b9
    NBorderColor #004d86
}
skinparam title {
	FontColor	                 #c0c0c0
 	BorderColor                  #545454
	FontSize	    	         20
	BorderRoundCorner            16
	BorderThickness 	         1
	BackgroundColor              #48494b
}


skinparam legend {
	BackgroundColor #303030
	BorderColor #404040
	FontColor #a0a0a0
}

	skinparam swimlane {
	BorderColor #5e5e5e
	BorderThickness 2
	TitleBackgroundColor  #6d6d6d-#484848
	TitleFontColor #303030
}

skinparam activity {
		FontColor #C8Ac00
	BorderColor #333333
	BackgroundColor #333333-#333333
	BarColor #00FF00
	StartColor #0060a8
	EndColor #0060a8
	DiamondBackgroundColor #6d6d6d-#3a3a3a
  	DiamondBorderColor #3a3a3a
  	DiamondFontColor #fefefe
}


skinparam participant {
		FontColor #C8Ac00
	BorderColor #333333
	BackgroundColor #333333-#333333
	ParticipantBorderThickness 2
}


skinparam actor {
		FontColor #C8Ac00
	BorderColor #333333
	BackgroundColor #333333-#333333
}


skinparam arrow {
	Thickness 1.5
	Color #545454
	FontColor #a0a0a0
    FontStyle bold
    MessageAlignment center
}



skinparam sequence {
	BorderColor #303030
	TitleFontColor #303030
	BackgroundColor #333333
	StartColor #303030
	EndColor #303030
	BoxBackgroundColor #333333
	BoxBorderColor #484848
	BoxFontColor #484848
	LifeLineBorderColor #484848
	LifeLineBorderThickness 2
	LifeLineBackgroundColor #3a3a3a
	GroupBorderColor #484848
	GroupFontColor #484848
	GroupHeaderFontColor #0060a8
	GroupBackgroundColor #484848
	GroupHeaderBackgroundColor #333333
	DividerBackgroundColor #484848
    DividerBorderColor #484848
    DividerBorderThickness 2
    DividerFontColor #D8Bc00
	ReferenceBackgroundColor #333333
	ReferenceBorderColor #484848
	ReferenceFontColor #fefefe
	ReferenceHeaderBackgroundColor #484848
}


skinparam partition {
	BorderColor #303030
	FontColor #333333
	BackgroundColor #333333
}


skinparam collections {
		FontColor #C8Ac00
	BorderColor #333333
	BackgroundColor #333333-#333333
}


skinparam control {
		FontColor #C8Ac00
	BorderColor #333333
	BackgroundColor #333333-#333333
}


skinparam entity {
		FontColor #C8Ac00
	BorderColor #333333
	BackgroundColor #333333-#333333
}


skinparam boundary {
		FontColor #C8Ac00
	BorderColor #333333
	BackgroundColor #333333-#333333
}


skinparam agent {
	BackgroundColor #ff8000
	BorderColor #ff9933
	FontColor #484848
}


skinparam note {
	BorderThickness 1
	BackgroundColor #1b1b1a
	BorderColor #5e5e5e
	FontSize 11
	FontColor #a0a0a0
}


skinparam artifact {
	BorderThickness 10
	BorderColor #5e5e5e
	BackgroundColor #1b1b1a
	FontColor #D8Bc00
}


skinparam component {
		FontColor #C8Ac00
	BorderColor #333333
	BackgroundColor #333333-#333333
}


skinparam interface {
	BackgroundColor  #008400
	BorderColor  #007F00
	FontColor #484848
}


skinparam storage {
	BackgroundColor #ff8000
  	BorderColor #cc6600
	FontColor #222222
}


skinparam node {
	BackgroundColor #333333
	BorderColor #333333
	FontColor #C8Ac00
}


skinparam cloud {
	BackgroundColor #484848-black
	BorderColor #484848
	FontColor #D8Bc00
}


skinparam database {
		FontColor #C8Ac00
	BorderColor #333333
	BackgroundColor #333333-#333333
	BackgroundColor  #333333
}


skinparam class {
		FontColor #C8Ac00
	BorderColor #333333
	BackgroundColor #333333-#333333
	HeaderBackgroundColor #1b1b1a
    BackgroundColor #282828
    BorderColor #5e5e5e
 	StereotypeFontColor #a0a0a0
    StereotypeFontStyle bold
	BorderThickness 1
	AttributeFontColor #D8Bc00
	AttributeFontSize 11
    FontColor #D8Bc00
    FontStyle bold
}


skinparam object {
		FontColor #C8Ac00
	BorderColor #333333
	BackgroundColor #333333-#333333
	StereotypeFontColor #484848
	BorderThickness 1
	AttributeFontColor #fefefe
	AttributeFontSize 11
}


skinparam usecase {
		FontColor #C8Ac00
	BorderColor #333333
	BackgroundColor #333333-#333333
	BorderThickness 2
	StereotypeFontColor #303030
}


skinparam rectangle {
		FontColor #C8Ac00
	BorderColor #333333
	BackgroundColor #333333-#333333
	BackgroundColor #333333
	BorderThickness 2
	StereotypeFontColor #303030
}


skinparam package {
		FontColor #C8Ac00
	BorderColor #333333
	BackgroundColor #333333-#333333
	BackgroundColor #333333
	BorderThickness 2
}


skinparam folder {
	BackgroundColor #6d6d6d
  	BorderColor #ff8000
	FontColor #ff8000
	BorderThickness 2
}


skinparam frame {
	BackgroundColor #6d6d6d
  	BorderColor #0060a8
	FontColor #0060a8
	BorderThickness 2
}


skinparam state {
		FontColor #C8Ac00
	BorderColor #333333
	BackgroundColor #333333-#333333
	StartColor #0060a8
	EndColor #0060a8
	AttributeFontColor #fefefe
	AttributeFontSize 11
}


skinparam queue {
		FontColor #C8Ac00
	BorderColor #333333
	BackgroundColor #333333-#333333
}


skinparam card {
	BackgroundColor #0060a8
	BorderColor #004d86
	FontColor $INFO_TEXT
}


skinparam file {
	BackgroundColor #6d6d6d-#484848
	BorderColor #0060a8
	FontColor #fefefe
}


skinparam stack {
		FontColor #C8Ac00
	BorderColor #333333
	BackgroundColor #333333-#333333
}

    
    title "com.telenav.mesakit.map.geography.project"
    
    KryoTypes <|- - GeographyKryoTypes
    class GeographyKryoTypes
    {
        - -(constructors)- -
        +GeographyKryoTypes()
    }
    
    class GeographyLimits
    {
    }
    
    MeasurementsRandomValueFactory <|- - GeographyRandomValueFactory
    class GeographyRandomValueFactory
    {
        - -(constructors)- -
        +GeographyRandomValueFactory()
        +GeographyRandomValueFactory(long)
        - -(factory)- -
        +Latitude newLatitude(Latitude min, Latitude max)
        +Latitude newLatitude()
        +Location newLocation()
        +Location newLocation(Rectangle bounds)
        +Longitude newLongitude()
        +Longitude newLongitude(Longitude min, Longitude max)
        +Rectangle newRectangle(Rectangle bounds)
        +Rectangle newRectangle()
        +Rectangle newRectangle(Rectangle bounds, Distance maximumRadius)
        +Size newSize(Size maximum)
        +Size newSize(Size min, Size max)
    }
    
    MeasurementsUnitTest <|- - GeographyUnitTest
    class GeographyUnitTest
    {
        - -
        #Location location(double latitude, double longitude)
        #Rectangle rectangle(String rectangle)
    }
    
@enduml

PlantUML version 1.2021.01(Tue Feb 02 00:55:08 MST 2021)
(GPL source distribution)
Java Runtime: OpenJDK Runtime Environment
JVM: OpenJDK 64-Bit Server VM
Default Encoding: UTF-8
Language: en
Country: US
--></g></svg>