<?xml version="1.0" encoding="UTF-8" standalone="no"?><svg xmlns="http://www.w3.org/2000/svg" xmlns:xlink="http://www.w3.org/1999/xlink" contentScriptType="application/ecmascript" contentStyleType="text/css" height="365.625px" preserveAspectRatio="none" style="width:795px;height:365px;background:#333333;" version="1.1" viewBox="0 0 795 365" width="795.8333px" zoomAndPan="magnify"><defs/><g><rect fill="#48494B" height="41.2028" rx="8.3333" ry="8.3333" style="stroke:#545454;stroke-width:1.0416666666666667;" width="765.625" x="7.8125" y="2.0833"/><text fill="#C0C0C0" font-family="Open Sans,Avenir,Nunito,Arial,Helvetica,SansSerif" font-size="20.8333" lengthAdjust="spacing" textLength="742.7083" x="19.2708" y="30.5583">com.telenav.mesakit.map.geography.shape.polyline.compression.huffman</text><!--MD5=[784d533083758286c885e86b9fe3090e]
class BaseComponent--><rect codeLine="6" fill="#282828" height="48.055" id="BaseComponent" rx="8.3333" ry="8.3333" style="stroke:#5E5E5E;stroke-width:1.0416666666666667;" width="143.75" x="61.4583" y="53.7028"/><rect fill="#1B1B1A" height="31.3883" rx="8.3333" ry="8.3333" style="stroke:#1B1B1A;stroke-width:1.0416666666666667;" width="143.75" x="61.4583" y="53.7028"/><rect fill="#1B1B1A" height="8.3333" style="stroke:#1B1B1A;stroke-width:1.0416666666666667;" width="143.75" x="61.4583" y="76.7578"/><rect codeLine="6" fill="none" height="48.055" id="BaseComponent" rx="8.3333" ry="8.3333" style="stroke:#5E5E5E;stroke-width:1.0416666666666667;" width="143.75" x="61.4583" y="53.7028"/><ellipse cx="76.0417" cy="69.397" fill="#C8AC00" rx="10.4167" ry="10.4167" style="stroke:#D8BC00;stroke-width:1.0416666666666667;"/><path d="M75.6348,66.099 L74.7864,69.8283 L76.4893,69.8283 Z M74.5361,64.4511 L76.7395,64.4511 L79.1992,73.5636 L77.3987,73.5636 L76.8372,71.3114 L74.4263,71.3114 L73.877,73.5636 L72.0764,73.5636 Z " fill="#000000"/><text fill="#D8BC00" font-family="Open Sans,Avenir,Nunito,Arial,Helvetica,SansSerif" font-size="12.5" font-style="italic" font-weight="bold" lengthAdjust="spacing" textLength="106.25" x="92.7083" y="74.1211">BaseComponent</text><line style="stroke:#5E5E5E;stroke-width:1.0416666666666667;" x1="62.5" x2="204.1667" y1="85.0911" y2="85.0911"/><line style="stroke:#5E5E5E;stroke-width:1.0416666666666667;" x1="62.5" x2="204.1667" y1="93.4245" y2="93.4245"/><!--MD5=[093b953be813e764de2c1810942591fd]
class CompressibleCollection--><rect codeLine="8" fill="#282828" height="48.055" id="CompressibleCollection" rx="8.3333" ry="8.3333" style="stroke:#5E5E5E;stroke-width:1.0416666666666667;" width="192.7083" x="242.1875" y="53.7028"/><rect fill="#1B1B1A" height="31.3883" rx="8.3333" ry="8.3333" style="stroke:#1B1B1A;stroke-width:1.0416666666666667;" width="192.7083" x="242.1875" y="53.7028"/><rect fill="#1B1B1A" height="8.3333" style="stroke:#1B1B1A;stroke-width:1.0416666666666667;" width="192.7083" x="242.1875" y="76.7578"/><rect codeLine="8" fill="none" height="48.055" id="CompressibleCollection" rx="8.3333" ry="8.3333" style="stroke:#5E5E5E;stroke-width:1.0416666666666667;" width="192.7083" x="242.1875" y="53.7028"/><ellipse cx="256.7708" cy="69.397" fill="#008400" rx="10.4167" ry="10.4167" style="stroke:#239C23;stroke-width:1.0416666666666667;"/><path d="M254.1748,66.5588 L254.1748,64.9719 L259.6008,64.9719 L259.6008,66.5588 L257.7881,66.5588 L257.7881,72.4976 L259.6008,72.4976 L259.6008,74.0845 L254.1748,74.0845 L254.1748,72.4976 L255.9875,72.4976 L255.9875,66.5588 Z " fill="#000000"/><text fill="#D8BC00" font-family="Open Sans,Avenir,Nunito,Arial,Helvetica,SansSerif" font-size="12.5" font-style="italic" font-weight="bold" lengthAdjust="spacing" textLength="155.2083" x="273.4375" y="74.1211">CompressibleCollection</text><line style="stroke:#5E5E5E;stroke-width:1.0416666666666667;" x1="243.2292" x2="433.8542" y1="85.0911" y2="85.0911"/><line style="stroke:#5E5E5E;stroke-width:1.0416666666666667;" x1="243.2292" x2="433.8542" y1="93.4245" y2="93.4245"/><!--MD5=[eedda9a4bab0df7696b8829056aea585]
class Polyline--><rect fill="#282828" height="48.055" id="Polyline" rx="8.3333" ry="8.3333" style="stroke:#5E5E5E;stroke-width:1.0416666666666667;" width="88.5417" x="471.3542" y="53.7028"/><rect fill="#1B1B1A" height="31.3883" rx="8.3333" ry="8.3333" style="stroke:#1B1B1A;stroke-width:1.0416666666666667;" width="88.5417" x="471.3542" y="53.7028"/><rect fill="#1B1B1A" height="8.3333" style="stroke:#1B1B1A;stroke-width:1.0416666666666667;" width="88.5417" x="471.3542" y="76.7578"/><rect fill="none" height="48.055" id="Polyline" rx="8.3333" ry="8.3333" style="stroke:#5E5E5E;stroke-width:1.0416666666666667;" width="88.5417" x="471.3542" y="53.7028"/><ellipse cx="485.9375" cy="69.397" fill="#0066CF" rx="10.4167" ry="10.4167" style="stroke:#0086EF;stroke-width:1.0416666666666667;"/><path d="M487.8479,73.822 Q487.4207,74.0417 486.9507,74.1516 Q486.4807,74.2615 485.9619,74.2615 Q484.1187,74.2615 483.1482,73.0469 Q482.1777,71.8323 482.1777,69.5374 Q482.1777,67.2363 483.1482,66.0217 Q484.1187,64.8071 485.9619,64.8071 Q486.4807,64.8071 486.9568,64.917 Q487.4329,65.0269 487.8479,65.2466 L487.8479,67.2485 Q487.384,66.8213 486.9476,66.6229 Q486.5112,66.4246 486.0474,66.4246 Q485.0586,66.4246 484.5551,67.2089 Q484.0515,67.9932 484.0515,69.5374 Q484.0515,71.0754 484.5551,71.8597 Q485.0586,72.644 486.0474,72.644 Q486.5112,72.644 486.9476,72.4457 Q487.384,72.2473 487.8479,71.8201 Z " fill="#000000"/><text fill="#D8BC00" font-family="Open Sans,Avenir,Nunito,Arial,Helvetica,SansSerif" font-size="12.5" font-weight="bold" lengthAdjust="spacing" textLength="51.0417" x="502.6042" y="74.1211">Polyline</text><line style="stroke:#5E5E5E;stroke-width:1.0416666666666667;" x1="472.3958" x2="558.8542" y1="85.0911" y2="85.0911"/><line style="stroke:#5E5E5E;stroke-width:1.0416666666666667;" x1="472.3958" x2="558.8542" y1="93.4245" y2="93.4245"/><!--MD5=[1bcc14a42e6903962cb31adc91162a84]
class HuffmanPolyline--><rect codeLine="12" fill="#282828" height="194.6025" id="HuffmanPolyline" rx="8.3333" ry="8.3333" style="stroke:#5E5E5E;stroke-width:1.0416666666666667;" width="173.9583" x="350.5208" y="164.1195"/><rect fill="#1B1B1A" height="31.3883" rx="8.3333" ry="8.3333" style="stroke:#1B1B1A;stroke-width:1.0416666666666667;" width="173.9583" x="350.5208" y="164.1195"/><rect fill="#1B1B1A" height="8.3333" style="stroke:#1B1B1A;stroke-width:1.0416666666666667;" width="173.9583" x="350.5208" y="187.1745"/><rect codeLine="12" fill="none" height="194.6025" id="HuffmanPolyline" rx="8.3333" ry="8.3333" style="stroke:#5E5E5E;stroke-width:1.0416666666666667;" width="173.9583" x="350.5208" y="164.1195"/><ellipse cx="378.2292" cy="179.8136" fill="#0066CF" rx="10.4167" ry="10.4167" style="stroke:#0086EF;stroke-width:1.0416666666666667;"/><path d="M380.1396,184.2387 Q379.7123,184.4584 379.2424,184.5683 Q378.7724,184.6781 378.2536,184.6781 Q376.4103,184.6781 375.4399,183.4635 Q374.4694,182.2489 374.4694,179.954 Q374.4694,177.653 375.4399,176.4384 Q376.4103,175.2238 378.2536,175.2238 Q378.7724,175.2238 379.2485,175.3337 Q379.7245,175.4435 380.1396,175.6632 L380.1396,177.6652 Q379.6757,177.238 379.2393,177.0396 Q378.8029,176.8412 378.339,176.8412 Q377.3503,176.8412 376.8467,177.6255 Q376.3432,178.4098 376.3432,179.954 Q376.3432,181.4921 376.8467,182.2764 Q377.3503,183.0607 378.339,183.0607 Q378.8029,183.0607 379.2393,182.8623 Q379.6757,182.664 380.1396,182.2367 Z " fill="#000000"/><text fill="#D8BC00" font-family="Open Sans,Avenir,Nunito,Arial,Helvetica,SansSerif" font-size="12.5" font-weight="bold" lengthAdjust="spacing" textLength="107.2917" x="397.8125" y="184.5378">HuffmanPolyline</text><line style="stroke:#5E5E5E;stroke-width:1.5625;" x1="351.5625" x2="523.4375" y1="195.5078" y2="195.5078"/><polygon fill="#FFFF44" points="361.9792,225.6694,366.1458,229.836,361.9792,234.0027,357.8125,229.836" style="stroke:#B38D22;stroke-width:1.0416666666666667;"/><text fill="#D8BC00" font-family="Open Sans,Avenir,Nunito,Arial,Helvetica,SansSerif" font-size="11.4583" lengthAdjust="spacing" textLength="98.9583" x="373.4375" y="237.7889">HuffmanPolyline()</text><ellipse cx="361.9792" cy="250.6226" fill="#84BE84" rx="3.125" ry="3.125" style="stroke:#038048;stroke-width:1.0416666666666667;"/><text fill="#D8BC00" font-family="Open Sans,Avenir,Nunito,Arial,Helvetica,SansSerif" font-size="11.4583" lengthAdjust="spacing" textLength="141.6667" x="373.4375" y="257.5338">HuffmanPolyline(ByteList)</text><ellipse cx="361.9792" cy="270.3674" fill="#84BE84" rx="3.125" ry="3.125" style="stroke:#038048;stroke-width:1.0416666666666667;"/><text fill="#D8BC00" font-family="Open Sans,Avenir,Nunito,Arial,Helvetica,SansSerif" font-size="11.4583" lengthAdjust="spacing" textLength="141.6667" x="373.4375" y="277.2786">HuffmanPolyline(Polyline)</text><line style="stroke:#5E5E5E;stroke-width:1.0416666666666667;" x1="351.5625" x2="393.75" y1="213.7136" y2="213.7136"/><text fill="#D8BC00" font-family="Open Sans,Avenir,Nunito,Arial,Helvetica,SansSerif" font-size="11.4583" lengthAdjust="spacing" textLength="81.25" x="396.875" y="217.5232">(constructors)</text><line style="stroke:#5E5E5E;stroke-width:1.0416666666666667;" x1="481.25" x2="523.4375" y1="213.7136" y2="213.7136"/><line style="stroke:#5E5E5E;stroke-width:1.0416666666666667;" x1="351.5625" x2="523.4375" y1="286.9873" y2="286.9873"/><ellipse cx="361.9792" cy="298.4456" fill="#84BE84" rx="3.125" ry="3.125" style="stroke:#038048;stroke-width:1.0416666666666667;"/><text fill="#D8BC00" font-family="Open Sans,Avenir,Nunito,Arial,Helvetica,SansSerif" font-size="11.4583" lengthAdjust="spacing" textLength="122.9167" x="373.4375" y="305.3569">Polyline decompress()</text><ellipse cx="361.9792" cy="342.1021" fill="#84BE84" rx="3.125" ry="3.125" style="stroke:#038048;stroke-width:1.0416666666666667;"/><text fill="#D8BC00" font-family="Open Sans,Avenir,Nunito,Arial,Helvetica,SansSerif" font-size="11.4583" lengthAdjust="spacing" textLength="95.8333" x="373.4375" y="349.0133">ByteList asBytes()</text><line style="stroke:#5E5E5E;stroke-width:1.0416666666666667;" x1="351.5625" x2="405.7292" y1="324.9379" y2="324.9379"/><text fill="#D8BC00" font-family="Open Sans,Avenir,Nunito,Arial,Helvetica,SansSerif" font-size="11.4583" lengthAdjust="spacing" textLength="57.2917" x="408.8542" y="328.7476">(primitive)</text><line style="stroke:#5E5E5E;stroke-width:1.0416666666666667;" x1="469.2708" x2="523.4375" y1="324.9379" y2="324.9379"/><!--MD5=[7ebb04c0e1e664292e48a4e4609e8bd7]
class HuffmanPolylineCodec--><rect codeLine="25" fill="#282828" height="131.2012" id="HuffmanPolylineCodec" rx="8.3333" ry="8.3333" style="stroke:#5E5E5E;stroke-width:1.0416666666666667;" width="252.0833" x="7.2917" y="195.8903"/><rect fill="#1B1B1A" height="31.3883" rx="8.3333" ry="8.3333" style="stroke:#1B1B1A;stroke-width:1.0416666666666667;" width="252.0833" x="7.2917" y="195.8903"/><rect fill="#1B1B1A" height="8.3333" style="stroke:#1B1B1A;stroke-width:1.0416666666666667;" width="252.0833" x="7.2917" y="218.9453"/><rect codeLine="25" fill="none" height="131.2012" id="HuffmanPolylineCodec" rx="8.3333" ry="8.3333" style="stroke:#5E5E5E;stroke-width:1.0416666666666667;" width="252.0833" x="7.2917" y="195.8903"/><ellipse cx="52.6042" cy="211.5845" fill="#0066CF" rx="10.4167" ry="10.4167" style="stroke:#0086EF;stroke-width:1.0416666666666667;"/><path d="M54.5146,216.0095 Q54.0873,216.2292 53.6174,216.3391 Q53.1474,216.449 52.6286,216.449 Q50.7853,216.449 49.8149,215.2344 Q48.8444,214.0198 48.8444,211.7249 Q48.8444,209.4238 49.8149,208.2092 Q50.7853,206.9946 52.6286,206.9946 Q53.1474,206.9946 53.6235,207.1045 Q54.0995,207.2144 54.5146,207.4341 L54.5146,209.436 Q54.0507,209.0088 53.6143,208.8104 Q53.1779,208.6121 52.714,208.6121 Q51.7253,208.6121 51.2217,209.3964 Q50.7182,210.1807 50.7182,211.7249 Q50.7182,213.2629 51.2217,214.0472 Q51.7253,214.8315 52.714,214.8315 Q53.1779,214.8315 53.6143,214.6332 Q54.0507,214.4348 54.5146,214.0076 Z " fill="#000000"/><text fill="#D8BC00" font-family="Open Sans,Avenir,Nunito,Arial,Helvetica,SansSerif" font-size="12.5" font-weight="bold" lengthAdjust="spacing" textLength="146.875" x="75.5208" y="216.3086">HuffmanPolylineCodec</text><line style="stroke:#5E5E5E;stroke-width:1.5625;" x1="8.3333" x2="258.3333" y1="227.2786" y2="227.2786"/><ellipse cx="18.75" cy="262.6485" fill="#84BE84" rx="3.125" ry="3.125" style="stroke:#038048;stroke-width:1.0416666666666667;"/><text fill="#D8BC00" font-family="Open Sans,Avenir,Nunito,Arial,Helvetica,SansSerif" font-size="11.4583" lengthAdjust="spacing" textLength="134.375" x="30.2083" y="269.5597">HuffmanPolylineCodec()</text><line style="stroke:#5E5E5E;stroke-width:1.0416666666666667;" x1="8.3333" x2="89.5833" y1="245.4844" y2="245.4844"/><text fill="#D8BC00" font-family="Open Sans,Avenir,Nunito,Arial,Helvetica,SansSerif" font-size="11.4583" lengthAdjust="spacing" textLength="81.25" x="92.7083" y="249.294">(constructors)</text><line style="stroke:#5E5E5E;stroke-width:1.0416666666666667;" x1="177.0833" x2="258.3333" y1="245.4844" y2="245.4844"/><line style="stroke:#5E5E5E;stroke-width:1.0416666666666667;" x1="8.3333" x2="258.3333" y1="279.2684" y2="279.2684"/><ellipse cx="18.75" cy="290.7267" fill="#84BE84" rx="3.125" ry="3.125" style="stroke:#038048;stroke-width:1.0416666666666667;"/><text fill="#D8BC00" font-family="Open Sans,Avenir,Nunito,Arial,Helvetica,SansSerif" font-size="11.4583" lengthAdjust="spacing" textLength="160.4167" x="30.2083" y="297.6379">long[] decode(ByteList input)</text><ellipse cx="18.75" cy="310.4716" fill="#84BE84" rx="3.125" ry="3.125" style="stroke:#038048;stroke-width:1.0416666666666667;"/><text fill="#D8BC00" font-family="Open Sans,Avenir,Nunito,Arial,Helvetica,SansSerif" font-size="11.4583" lengthAdjust="spacing" textLength="219.7917" x="30.2083" y="317.3828">void encode(ByteArray output, Polyline)</text><!--MD5=[a31209886c13a28d4a79698c5bb6c309]
class GeographyUnitTest--><rect fill="#282828" height="48.055" id="GeographyUnitTest" rx="8.3333" ry="8.3333" style="stroke:#5E5E5E;stroke-width:1.0416666666666667;" width="162.5" x="620.8333" y="53.7028"/><rect fill="#1B1B1A" height="31.3883" rx="8.3333" ry="8.3333" style="stroke:#1B1B1A;stroke-width:1.0416666666666667;" width="162.5" x="620.8333" y="53.7028"/><rect fill="#1B1B1A" height="8.3333" style="stroke:#1B1B1A;stroke-width:1.0416666666666667;" width="162.5" x="620.8333" y="76.7578"/><rect fill="none" height="48.055" id="GeographyUnitTest" rx="8.3333" ry="8.3333" style="stroke:#5E5E5E;stroke-width:1.0416666666666667;" width="162.5" x="620.8333" y="53.7028"/><ellipse cx="635.4167" cy="69.397" fill="#0066CF" rx="10.4167" ry="10.4167" style="stroke:#0086EF;stroke-width:1.0416666666666667;"/><path d="M637.3271,73.822 Q636.8998,74.0417 636.4299,74.1516 Q635.9599,74.2615 635.4411,74.2615 Q633.5978,74.2615 632.6274,73.0469 Q631.6569,71.8323 631.6569,69.5374 Q631.6569,67.2363 632.6274,66.0217 Q633.5978,64.8071 635.4411,64.8071 Q635.9599,64.8071 636.436,64.917 Q636.912,65.0269 637.3271,65.2466 L637.3271,67.2485 Q636.8632,66.8213 636.4268,66.6229 Q635.9904,66.4246 635.5265,66.4246 Q634.5378,66.4246 634.0342,67.2089 Q633.5307,67.9932 633.5307,69.5374 Q633.5307,71.0754 634.0342,71.8597 Q634.5378,72.644 635.5265,72.644 Q635.9904,72.644 636.4268,72.4457 Q636.8632,72.2473 637.3271,71.8201 Z " fill="#000000"/><text fill="#D8BC00" font-family="Open Sans,Avenir,Nunito,Arial,Helvetica,SansSerif" font-size="12.5" font-weight="bold" lengthAdjust="spacing" textLength="125" x="652.0833" y="74.1211">GeographyUnitTest</text><line style="stroke:#5E5E5E;stroke-width:1.0416666666666667;" x1="621.875" x2="782.2917" y1="85.0911" y2="85.0911"/><line style="stroke:#5E5E5E;stroke-width:1.0416666666666667;" x1="621.875" x2="782.2917" y1="93.4245" y2="93.4245"/><!--MD5=[5645a8992c378eaf89115a789243e311]
class HuffmanPolylineTest--><rect codeLine="35" fill="#282828" height="107.2896" id="HuffmanPolylineTest" rx="8.3333" ry="8.3333" style="stroke:#5E5E5E;stroke-width:1.0416666666666667;" width="172.9167" x="615.625" y="207.8695"/><rect fill="#1B1B1A" height="31.3883" rx="8.3333" ry="8.3333" style="stroke:#1B1B1A;stroke-width:1.0416666666666667;" width="172.9167" x="615.625" y="207.8695"/><rect fill="#1B1B1A" height="8.3333" style="stroke:#1B1B1A;stroke-width:1.0416666666666667;" width="172.9167" x="615.625" y="230.9245"/><rect codeLine="35" fill="none" height="107.2896" id="HuffmanPolylineTest" rx="8.3333" ry="8.3333" style="stroke:#5E5E5E;stroke-width:1.0416666666666667;" width="172.9167" x="615.625" y="207.8695"/><ellipse cx="630.2083" cy="223.5636" fill="#0066CF" rx="10.4167" ry="10.4167" style="stroke:#0086EF;stroke-width:1.0416666666666667;"/><path d="M632.1187,227.9887 Q631.6915,228.2084 631.2215,228.3183 Q630.7515,228.4281 630.2327,228.4281 Q628.3895,228.4281 627.419,227.2135 Q626.4486,225.9989 626.4486,223.704 Q626.4486,221.403 627.419,220.1884 Q628.3895,218.9738 630.2327,218.9738 Q630.7515,218.9738 631.2276,219.0837 Q631.7037,219.1935 632.1187,219.4132 L632.1187,221.4152 Q631.6549,220.988 631.2185,220.7896 Q630.7821,220.5912 630.3182,220.5912 Q629.3294,220.5912 628.8259,221.3755 Q628.3223,222.1598 628.3223,223.704 Q628.3223,225.2421 628.8259,226.0264 Q629.3294,226.8107 630.3182,226.8107 Q630.7821,226.8107 631.2185,226.6123 Q631.6549,226.414 632.1187,225.9867 Z " fill="#000000"/><text fill="#D8BC00" font-family="Open Sans,Avenir,Nunito,Arial,Helvetica,SansSerif" font-size="12.5" font-weight="bold" lengthAdjust="spacing" textLength="135.4167" x="646.875" y="228.2878">HuffmanPolylineTest</text><line style="stroke:#5E5E5E;stroke-width:1.5625;" x1="616.6667" x2="787.5" y1="239.2578" y2="239.2578"/><line style="stroke:#5E5E5E;stroke-width:1.0416666666666667;" x1="616.6667" x2="787.5" y1="247.5911" y2="247.5911"/><ellipse cx="627.0833" cy="259.0495" fill="#84BE84" rx="3.125" ry="3.125" style="stroke:#038048;stroke-width:1.0416666666666667;"/><text fill="#D8BC00" font-family="Open Sans,Avenir,Nunito,Arial,Helvetica,SansSerif" font-size="11.4583" lengthAdjust="spacing" textLength="131.25" x="638.5417" y="265.9607">void testCompression()</text><ellipse cx="627.0833" cy="278.7944" fill="#84BE84" rx="3.125" ry="3.125" style="stroke:#038048;stroke-width:1.0416666666666667;"/><text fill="#D8BC00" font-family="Open Sans,Avenir,Nunito,Arial,Helvetica,SansSerif" font-size="11.4583" lengthAdjust="spacing" textLength="126.0417" x="638.5417" y="285.7056">void testDecompress()</text><ellipse cx="627.0833" cy="298.5392" fill="#84BE84" rx="3.125" ry="3.125" style="stroke:#038048;stroke-width:1.0416666666666667;"/><text fill="#D8BC00" font-family="Open Sans,Avenir,Nunito,Arial,Helvetica,SansSerif" font-size="11.4583" lengthAdjust="spacing" textLength="104.1667" x="638.5417" y="305.4504">void testSegment()</text><!--MD5=[26ae97c6c31d3d3ed5393d039f859fed]
reverse link Polyline to HuffmanPolyline--><path codeLine="10" d="M497.4688,120.9424 C491.875,133.9528 485.4792,148.8382 478.9896,163.932 " fill="none" id="Polyline-backto-HuffmanPolyline" style="stroke:#545454;stroke-width:1.5625;"/><polygon fill="none" points="490.8021,117.984,505.7292,101.7236,504.1979,123.7445,490.8021,117.984" style="stroke:#545454;stroke-width:1.5625;"/><!--MD5=[e5c6dbff31181e883d3c9887597251fe]
reverse link CompressibleCollection to HuffmanPolyline--><path codeLine="11" d="M361.2813,120.4736 C368.4271,133.5882 376.625,148.6507 384.9375,163.932 " fill="none" id="CompressibleCollection-backto-HuffmanPolyline" style="stroke:#545454;stroke-width:1.5625;"/><polygon fill="none" points="354.6354,123.5049,351.0729,101.7236,367.4375,116.5361,354.6354,123.5049" style="stroke:#545454;stroke-width:1.5625;"/><!--MD5=[116905694c99d4863b200c9857aa27a1]
reverse link BaseComponent to HuffmanPolylineCodec--><path codeLine="24" d="M133.3333,122.8174 C133.3333,144.7549 133.3333,171.6715 133.3333,195.8799 " fill="none" id="BaseComponent-backto-HuffmanPolylineCodec" style="stroke:#545454;stroke-width:1.5625;"/><polygon fill="none" points="126.0417,122.557,133.3333,101.7236,140.625,122.557,126.0417,122.557" style="stroke:#545454;stroke-width:1.5625;"/><!--MD5=[d08b427b90d9c4be671617a107a41a42]
reverse link GeographyUnitTest to HuffmanPolylineTest--><path codeLine="34" d="M702.0833,122.9215 C702.0833,148.4424 702.0833,180.7028 702.0833,207.5674 " fill="none" id="GeographyUnitTest-backto-HuffmanPolylineTest" style="stroke:#545454;stroke-width:1.5625;"/><polygon fill="none" points="694.7917,122.557,702.0833,101.7236,709.375,122.557,694.7917,122.557" style="stroke:#545454;stroke-width:1.5625;"/><!--MD5=[00088844d79ce7a33c16155a50aea2d5]
@startuml

    !include lexakai.theme
    
    title "com.telenav.mesakit.map.geography.shape.polyline.compression.huffman"
    
    abstract BaseComponent
    
    interface CompressibleCollection
    
    Polyline <|- - HuffmanPolyline
    CompressibleCollection <|- - HuffmanPolyline
    class HuffmanPolyline
    {
        - -(constructors)- -
        #HuffmanPolyline()
        +HuffmanPolyline(ByteList)
        +HuffmanPolyline(Polyline)
        - -
        +Polyline decompress()
        - -(primitive)- -
        +ByteList asBytes()
    }
    
    BaseComponent <|- - HuffmanPolylineCodec
    class HuffmanPolylineCodec
    {
        - -(constructors)- -
        +HuffmanPolylineCodec()
        - -
        +long[] decode(ByteList input)
        +void encode(ByteArray output, Polyline)
    }
    
    GeographyUnitTest <|- - HuffmanPolylineTest
    class HuffmanPolylineTest
    {
        - -
        +void testCompression()
        +void testDecompress()
        +void testSegment()
    }
    
@enduml

@startuml









skinparam backgroundColor #333333






skinparam  {
    defaultFontName   "Open Sans,Avenir,Nunito,Arial,Helvetica,SansSerif"
    defaultFontSize   12
    defaultTextAlignment left
    shadowing false
    RoundCorner 10
    TitleFontSize 18
}

skinparam defaultFontName       "Open Sans,Avenir,Nunito,Arial,Helvetica,SansSerif"
skinparam defaultFontSize       12
skinparam dpi                   100
skinparam shadowing             false
skinparam roundcorner           16
skinparam ParticipantPadding    40
skinparam BoxPadding            40
skinparam Padding               3
skinparam ArrowColor            #545454
skinparam stereotype {
    CBackgroundColor #0066cf
    CBorderColor #0086ef
    ABackgroundColor #C8Ac00
    ABorderColor #D8Bc00
    IBackgroundColor #008400
    IBorderColor #239c23
    EBackgroundColor #cf6300
    EBorderColor #ef8300
    NBackgroundColor #3380b9
    NBorderColor #004d86
}
skinparam title {
	FontColor	                 #c0c0c0
 	BorderColor                  #545454
	FontSize	    	         20
	BorderRoundCorner            16
	BorderThickness 	         1
	BackgroundColor              #48494b
}


skinparam legend {
	BackgroundColor #303030
	BorderColor #404040
	FontColor #a0a0a0
}

	skinparam swimlane {
	BorderColor #5e5e5e
	BorderThickness 2
	TitleBackgroundColor  #6d6d6d-#484848
	TitleFontColor #303030
}

skinparam activity {
		FontColor #C8Ac00
	BorderColor #333333
	BackgroundColor #333333-#333333
	BarColor #00FF00
	StartColor #0060a8
	EndColor #0060a8
	DiamondBackgroundColor #6d6d6d-#3a3a3a
  	DiamondBorderColor #3a3a3a
  	DiamondFontColor #fefefe
}


skinparam participant {
		FontColor #C8Ac00
	BorderColor #333333
	BackgroundColor #333333-#333333
	ParticipantBorderThickness 2
}


skinparam actor {
		FontColor #C8Ac00
	BorderColor #333333
	BackgroundColor #333333-#333333
}


skinparam arrow {
	Thickness 1.5
	Color #545454
	FontColor #a0a0a0
    FontStyle bold
    MessageAlignment center
}



skinparam sequence {
	BorderColor #303030
	TitleFontColor #303030
	BackgroundColor #333333
	StartColor #303030
	EndColor #303030
	BoxBackgroundColor #333333
	BoxBorderColor #484848
	BoxFontColor #484848
	LifeLineBorderColor #484848
	LifeLineBorderThickness 2
	LifeLineBackgroundColor #3a3a3a
	GroupBorderColor #484848
	GroupFontColor #484848
	GroupHeaderFontColor #0060a8
	GroupBackgroundColor #484848
	GroupHeaderBackgroundColor #333333
	DividerBackgroundColor #484848
    DividerBorderColor #484848
    DividerBorderThickness 2
    DividerFontColor #D8Bc00
	ReferenceBackgroundColor #333333
	ReferenceBorderColor #484848
	ReferenceFontColor #fefefe
	ReferenceHeaderBackgroundColor #484848
}


skinparam partition {
	BorderColor #303030
	FontColor #333333
	BackgroundColor #333333
}


skinparam collections {
		FontColor #C8Ac00
	BorderColor #333333
	BackgroundColor #333333-#333333
}


skinparam control {
		FontColor #C8Ac00
	BorderColor #333333
	BackgroundColor #333333-#333333
}


skinparam entity {
		FontColor #C8Ac00
	BorderColor #333333
	BackgroundColor #333333-#333333
}


skinparam boundary {
		FontColor #C8Ac00
	BorderColor #333333
	BackgroundColor #333333-#333333
}


skinparam agent {
	BackgroundColor #ff8000
	BorderColor #ff9933
	FontColor #484848
}


skinparam note {
	BorderThickness 1
	BackgroundColor #1b1b1a
	BorderColor #5e5e5e
	FontSize 11
	FontColor #a0a0a0
}


skinparam artifact {
	BorderThickness 10
	BorderColor #5e5e5e
	BackgroundColor #1b1b1a
	FontColor #D8Bc00
}


skinparam component {
		FontColor #C8Ac00
	BorderColor #333333
	BackgroundColor #333333-#333333
}


skinparam interface {
	BackgroundColor  #008400
	BorderColor  #007F00
	FontColor #484848
}


skinparam storage {
	BackgroundColor #ff8000
  	BorderColor #cc6600
	FontColor #222222
}


skinparam node {
	BackgroundColor #333333
	BorderColor #333333
	FontColor #C8Ac00
}


skinparam cloud {
	BackgroundColor #484848-black
	BorderColor #484848
	FontColor #D8Bc00
}


skinparam database {
		FontColor #C8Ac00
	BorderColor #333333
	BackgroundColor #333333-#333333
	BackgroundColor  #333333
}


skinparam class {
		FontColor #C8Ac00
	BorderColor #333333
	BackgroundColor #333333-#333333
	HeaderBackgroundColor #1b1b1a
    BackgroundColor #282828
    BorderColor #5e5e5e
 	StereotypeFontColor #a0a0a0
    StereotypeFontStyle bold
	BorderThickness 1
	AttributeFontColor #D8Bc00
	AttributeFontSize 11
    FontColor #D8Bc00
    FontStyle bold
}


skinparam object {
		FontColor #C8Ac00
	BorderColor #333333
	BackgroundColor #333333-#333333
	StereotypeFontColor #484848
	BorderThickness 1
	AttributeFontColor #fefefe
	AttributeFontSize 11
}


skinparam usecase {
		FontColor #C8Ac00
	BorderColor #333333
	BackgroundColor #333333-#333333
	BorderThickness 2
	StereotypeFontColor #303030
}


skinparam rectangle {
		FontColor #C8Ac00
	BorderColor #333333
	BackgroundColor #333333-#333333
	BackgroundColor #333333
	BorderThickness 2
	StereotypeFontColor #303030
}


skinparam package {
		FontColor #C8Ac00
	BorderColor #333333
	BackgroundColor #333333-#333333
	BackgroundColor #333333
	BorderThickness 2
}


skinparam folder {
	BackgroundColor #6d6d6d
  	BorderColor #ff8000
	FontColor #ff8000
	BorderThickness 2
}


skinparam frame {
	BackgroundColor #6d6d6d
  	BorderColor #0060a8
	FontColor #0060a8
	BorderThickness 2
}


skinparam state {
		FontColor #C8Ac00
	BorderColor #333333
	BackgroundColor #333333-#333333
	StartColor #0060a8
	EndColor #0060a8
	AttributeFontColor #fefefe
	AttributeFontSize 11
}


skinparam queue {
		FontColor #C8Ac00
	BorderColor #333333
	BackgroundColor #333333-#333333
}


skinparam card {
	BackgroundColor #0060a8
	BorderColor #004d86
	FontColor $INFO_TEXT
}


skinparam file {
	BackgroundColor #6d6d6d-#484848
	BorderColor #0060a8
	FontColor #fefefe
}


skinparam stack {
		FontColor #C8Ac00
	BorderColor #333333
	BackgroundColor #333333-#333333
}

    
    title "com.telenav.mesakit.map.geography.shape.polyline.compression.huffman"
    
    abstract BaseComponent
    
    interface CompressibleCollection
    
    Polyline <|- - HuffmanPolyline
    CompressibleCollection <|- - HuffmanPolyline
    class HuffmanPolyline
    {
        - -(constructors)- -
        #HuffmanPolyline()
        +HuffmanPolyline(ByteList)
        +HuffmanPolyline(Polyline)
        - -
        +Polyline decompress()
        - -(primitive)- -
        +ByteList asBytes()
    }
    
    BaseComponent <|- - HuffmanPolylineCodec
    class HuffmanPolylineCodec
    {
        - -(constructors)- -
        +HuffmanPolylineCodec()
        - -
        +long[] decode(ByteList input)
        +void encode(ByteArray output, Polyline)
    }
    
    GeographyUnitTest <|- - HuffmanPolylineTest
    class HuffmanPolylineTest
    {
        - -
        +void testCompression()
        +void testDecompress()
        +void testSegment()
    }
    
@enduml

PlantUML version 1.2021.01(Tue Feb 02 00:55:08 MST 2021)
(GPL source distribution)
Java Runtime: OpenJDK Runtime Environment
JVM: OpenJDK 64-Bit Server VM
Default Encoding: UTF-8
Language: en
Country: US
--></g></svg>