<?xml version="1.0" encoding="UTF-8" standalone="no"?><svg xmlns="http://www.w3.org/2000/svg" xmlns:xlink="http://www.w3.org/1999/xlink" contentScriptType="application/ecmascript" contentStyleType="text/css" height="254.1667px" preserveAspectRatio="none" style="width:526px;height:254px;background:#333333;" version="1.1" viewBox="0 0 526 254" width="526.0417px" zoomAndPan="magnify"><defs/><g><rect fill="#48494B" height="41.2028" rx="8.3333" ry="8.3333" style="stroke:#545454;stroke-width:1.0416666666666667;" width="513.5417" x="2.0833" y="2.0833"/><text fill="#C0C0C0" font-family="Open Sans,Avenir,Nunito,Arial,Helvetica,SansSerif" font-size="20.8333" lengthAdjust="spacing" textLength="490.625" x="13.5417" y="30.5583">com.telenav.mesakit.tools.applications.codec.tag</text><rect codeLine="7" fill="#282828" height="48.055" id="BaseComponent" rx="8.3333" ry="8.3333" style="stroke:#5E5E5E;stroke-width:1.0416666666666667;" width="143.75" x="194.2708" y="53.7028"/><rect fill="#1B1B1A" height="31.3883" rx="8.3333" ry="8.3333" style="stroke:#1B1B1A;stroke-width:1.0416666666666667;" width="143.75" x="194.2708" y="53.7028"/><rect fill="#1B1B1A" height="8.3333" style="stroke:#1B1B1A;stroke-width:1.0416666666666667;" width="143.75" x="194.2708" y="76.7578"/><rect codeLine="7" fill="none" height="48.055" id="BaseComponent" rx="8.3333" ry="8.3333" style="stroke:#5E5E5E;stroke-width:1.0416666666666667;" width="143.75" x="194.2708" y="53.7028"/><ellipse cx="208.8542" cy="69.397" fill="#C8AC00" rx="10.4167" ry="10.4167" style="stroke:#D8BC00;stroke-width:1.0416666666666667;"/><path d="M208.4473,66.099 L207.5989,69.8283 L209.3018,69.8283 Z M207.3486,64.4511 L209.552,64.4511 L212.0117,73.5636 L210.2112,73.5636 L209.6497,71.3114 L207.2388,71.3114 L206.6895,73.5636 L204.8889,73.5636 Z " fill="#000000"/><text fill="#D8BC00" font-family="Open Sans,Avenir,Nunito,Arial,Helvetica,SansSerif" font-size="12.5" font-style="italic" font-weight="bold" lengthAdjust="spacing" textLength="106.25" x="225.5208" y="74.1211">BaseComponent</text><line style="stroke:#5E5E5E;stroke-width:1.0416666666666667;" x1="195.3125" x2="336.9792" y1="85.0911" y2="85.0911"/><line style="stroke:#5E5E5E;stroke-width:1.0416666666666667;" x1="195.3125" x2="336.9792" y1="93.4245" y2="93.4245"/><rect codeLine="10" fill="#282828" height="83.3781" id="TagCodecGenerator" rx="8.3333" ry="8.3333" style="stroke:#5E5E5E;stroke-width:1.0416666666666667;" width="167.7083" x="182.2917" y="164.1195"/><rect fill="#1B1B1A" height="31.3883" rx="8.3333" ry="8.3333" style="stroke:#1B1B1A;stroke-width:1.0416666666666667;" width="167.7083" x="182.2917" y="164.1195"/><rect fill="#1B1B1A" height="8.3333" style="stroke:#1B1B1A;stroke-width:1.0416666666666667;" width="167.7083" x="182.2917" y="187.1745"/><rect codeLine="10" fill="none" height="83.3781" id="TagCodecGenerator" rx="8.3333" ry="8.3333" style="stroke:#5E5E5E;stroke-width:1.0416666666666667;" width="167.7083" x="182.2917" y="164.1195"/><ellipse cx="198.2813" cy="179.8136" fill="#0066CF" rx="10.4167" ry="10.4167" style="stroke:#0086EF;stroke-width:1.0416666666666667;"/><path d="M200.1917,184.2387 Q199.7644,184.4584 199.2944,184.5683 Q198.8245,184.6781 198.3057,184.6781 Q196.4624,184.6781 195.4919,183.4635 Q194.5215,182.2489 194.5215,179.954 Q194.5215,177.653 195.4919,176.4384 Q196.4624,175.2238 198.3057,175.2238 Q198.8245,175.2238 199.3005,175.3337 Q199.7766,175.4435 200.1917,175.6632 L200.1917,177.6652 Q199.7278,177.238 199.2914,177.0396 Q198.855,176.8412 198.3911,176.8412 Q197.4023,176.8412 196.8988,177.6255 Q196.3953,178.4098 196.3953,179.954 Q196.3953,181.4921 196.8988,182.2764 Q197.4023,183.0607 198.3911,183.0607 Q198.855,183.0607 199.2914,182.8623 Q199.7278,182.664 200.1917,182.2367 Z " fill="#000000"/><text fill="#D8BC00" font-family="Open Sans,Avenir,Nunito,Arial,Helvetica,SansSerif" font-size="12.5" font-weight="bold" lengthAdjust="spacing" textLength="127.0833" x="215.2604" y="184.5378">TagCodecGenerator</text><line style="stroke:#5E5E5E;stroke-width:1.5625;" x1="183.3333" x2="348.9583" y1="195.5078" y2="195.5078"/><ellipse cx="193.75" cy="230.8777" fill="#84BE84" rx="3.125" ry="3.125" style="stroke:#038048;stroke-width:1.0416666666666667;"/><text fill="#D8BC00" font-family="Open Sans,Avenir,Nunito,Arial,Helvetica,SansSerif" font-size="11.4583" lengthAdjust="spacing" textLength="135.4167" x="205.2083" y="237.7889">void run(CommandLine)</text><line style="stroke:#5E5E5E;stroke-width:1.0416666666666667;" x1="183.3333" x2="196.875" y1="213.7136" y2="213.7136"/><text fill="#D8BC00" font-family="Open Sans,Avenir,Nunito,Arial,Helvetica,SansSerif" font-size="11.4583" lengthAdjust="spacing" textLength="132.2917" x="200" y="217.5232">(command line parsing)</text><line style="stroke:#5E5E5E;stroke-width:1.0416666666666667;" x1="335.4167" x2="348.9583" y1="213.7136" y2="213.7136"/><path codeLine="9" d="M266.1458,122.682 C266.1458,136.0778 266.1458,150.7445 266.1458,163.9215 " fill="none" id="BaseComponent-backto-TagCodecGenerator" style="stroke:#545454;stroke-width:1.5625;"/><polygon fill="none" points="258.8542,122.6507,266.1458,101.8174,273.4375,122.6507,258.8542,122.6507" style="stroke:#545454;stroke-width:1.5625;"/></g></svg>
