<?xml version="1.0" encoding="UTF-8" standalone="no"?><svg xmlns="http://www.w3.org/2000/svg" xmlns:xlink="http://www.w3.org/1999/xlink" contentScriptType="application/ecmascript" contentStyleType="text/css" height="218.75px" preserveAspectRatio="none" style="width:515px;height:218px;background:#333333;" version="1.1" viewBox="0 0 515 218" width="515.625px" zoomAndPan="magnify"><defs/><g><rect fill="#48494B" height="41.2028" rx="8.3333" ry="8.3333" style="stroke:#545454;stroke-width:1.0416666666666667;" width="503.125" x="2.0833" y="2.0833"/><text fill="#C0C0C0" font-family="Open Sans,Avenir,Nunito,Arial,Helvetica,SansSerif" font-size="20.8333" lengthAdjust="spacing" textLength="480.2083" x="13.5417" y="30.5583">com.telenav.mesakit.map.cutter.internal.lexakai</text><rect codeLine="7" fill="#282828" height="48.055" id="UmlDiagramIdentifier" rx="8.3333" ry="8.3333" style="stroke:#5E5E5E;stroke-width:1.0416666666666667;" width="178.125" x="171.875" y="53.7028"/><rect fill="#1B1B1A" height="31.3883" rx="8.3333" ry="8.3333" style="stroke:#1B1B1A;stroke-width:1.0416666666666667;" width="178.125" x="171.875" y="53.7028"/><rect fill="#1B1B1A" height="8.3333" style="stroke:#1B1B1A;stroke-width:1.0416666666666667;" width="178.125" x="171.875" y="76.7578"/><rect codeLine="7" fill="none" height="48.055" id="UmlDiagramIdentifier" rx="8.3333" ry="8.3333" style="stroke:#5E5E5E;stroke-width:1.0416666666666667;" width="178.125" x="171.875" y="53.7028"/><ellipse cx="186.4583" cy="69.397" fill="#008400" rx="10.4167" ry="10.4167" style="stroke:#239C23;stroke-width:1.0416666666666667;"/><path d="M183.8623,66.5588 L183.8623,64.9719 L189.2883,64.9719 L189.2883,66.5588 L187.4756,66.5588 L187.4756,72.4976 L189.2883,72.4976 L189.2883,74.0845 L183.8623,74.0845 L183.8623,72.4976 L185.675,72.4976 L185.675,66.5588 Z " fill="#000000"/><text fill="#D8BC00" font-family="Open Sans,Avenir,Nunito,Arial,Helvetica,SansSerif" font-size="12.5" font-style="italic" font-weight="bold" lengthAdjust="spacing" textLength="140.625" x="203.125" y="74.1211">UmlDiagramIdentifier</text><line style="stroke:#5E5E5E;stroke-width:1.0416666666666667;" x1="172.9167" x2="348.9583" y1="85.0911" y2="85.0911"/><line style="stroke:#5E5E5E;stroke-width:1.0416666666666667;" x1="172.9167" x2="348.9583" y1="93.4245" y2="93.4245"/><rect codeLine="10" fill="#282828" height="48.055" id="DiagramMapCutter" rx="8.3333" ry="8.3333" style="stroke:#5E5E5E;stroke-width:1.0416666666666667;" width="160.4167" x="180.7292" y="164.1195"/><rect fill="#1B1B1A" height="31.3883" rx="8.3333" ry="8.3333" style="stroke:#1B1B1A;stroke-width:1.0416666666666667;" width="160.4167" x="180.7292" y="164.1195"/><rect fill="#1B1B1A" height="8.3333" style="stroke:#1B1B1A;stroke-width:1.0416666666666667;" width="160.4167" x="180.7292" y="187.1745"/><rect codeLine="10" fill="none" height="48.055" id="DiagramMapCutter" rx="8.3333" ry="8.3333" style="stroke:#5E5E5E;stroke-width:1.0416666666666667;" width="160.4167" x="180.7292" y="164.1195"/><ellipse cx="195.3125" cy="179.8136" fill="#0066CF" rx="10.4167" ry="10.4167" style="stroke:#0086EF;stroke-width:1.0416666666666667;"/><path d="M197.2229,184.2387 Q196.7957,184.4584 196.3257,184.5683 Q195.8557,184.6781 195.3369,184.6781 Q193.4937,184.6781 192.5232,183.4635 Q191.5527,182.2489 191.5527,179.954 Q191.5527,177.653 192.5232,176.4384 Q193.4937,175.2238 195.3369,175.2238 Q195.8557,175.2238 196.3318,175.3337 Q196.8079,175.4435 197.2229,175.6632 L197.2229,177.6652 Q196.759,177.238 196.3226,177.0396 Q195.8862,176.8412 195.4224,176.8412 Q194.4336,176.8412 193.9301,177.6255 Q193.4265,178.4098 193.4265,179.954 Q193.4265,181.4921 193.9301,182.2764 Q194.4336,183.0607 195.4224,183.0607 Q195.8862,183.0607 196.3226,182.8623 Q196.759,182.664 197.2229,182.2367 Z " fill="#000000"/><text fill="#D8BC00" font-family="Open Sans,Avenir,Nunito,Arial,Helvetica,SansSerif" font-size="12.5" font-weight="bold" lengthAdjust="spacing" textLength="122.9167" x="211.9792" y="184.5378">DiagramMapCutter</text><line style="stroke:#5E5E5E;stroke-width:1.0416666666666667;" x1="181.7708" x2="340.1042" y1="195.5078" y2="195.5078"/><line style="stroke:#5E5E5E;stroke-width:1.0416666666666667;" x1="181.7708" x2="340.1042" y1="203.8411" y2="203.8411"/><path codeLine="9" d="M260.9375,122.6195 C260.9375,136.8382 260.9375,152.0361 260.9375,164.0986 " fill="none" id="UmlDiagramIdentifier-backto-DiagramMapCutter" style="stroke:#545454;stroke-width:1.5625;"/><polygon fill="none" points="253.6458,122.5153,260.9375,101.682,268.2292,122.5153,253.6458,122.5153" style="stroke:#545454;stroke-width:1.5625;"/></g></svg>
