<?xml version="1.0" encoding="UTF-8" standalone="no"?><svg xmlns="http://www.w3.org/2000/svg" xmlns:xlink="http://www.w3.org/1999/xlink" contentScriptType="application/ecmascript" contentStyleType="text/css" height="643.75px" preserveAspectRatio="none" style="width:896px;height:643px;background:#333333;" version="1.1" viewBox="0 0 896 643" width="896.875px" zoomAndPan="magnify"><defs/><g><rect fill="#48494B" height="41.2028" rx="8.3333" ry="8.3333" style="stroke:#545454;stroke-width:1.0416666666666667;" width="481.25" x="200.7813" y="2.0833"/><text fill="#C0C0C0" font-family="Open Sans,Avenir,Nunito,Arial,Helvetica,SansSerif" font-size="20.8333" lengthAdjust="spacing" textLength="458.3333" x="212.2396" y="30.5583">com.telenav.mesakit.graph.geocoding.reverse</text><polygon fill="#333333" points="16.6667,52.6611,139.5833,52.6611,146.875,79.8828,613.5417,79.8828,613.5417,637.0361,16.6667,637.0361,16.6667,52.6611" style="stroke:#333333;stroke-width:2.0833333333333335;"/><line style="stroke:#333333;stroke-width:2.0833333333333335;" x1="16.6667" x2="146.875" y1="79.8828" y2="79.8828"/><text fill="#C8AC00" font-family="Open Sans,Avenir,Nunito,Arial,Helvetica,SansSerif" font-size="12.5" font-weight="bold" lengthAdjust="spacing" textLength="110.4167" x="23.9583" y="69.9544">ReverseGeocoder</text><rect codeLine="7" fill="#282828" height="332.8166" id="ReverseGeocoder.Configuration" rx="8.3333" ry="8.3333" style="stroke:#5E5E5E;stroke-width:1.0416666666666667;" width="341.6667" x="33.3333" y="93.2861"/><rect fill="#1B1B1A" height="31.3883" rx="8.3333" ry="8.3333" style="stroke:#1B1B1A;stroke-width:1.0416666666666667;" width="341.6667" x="33.3333" y="93.2861"/><rect fill="#1B1B1A" height="8.3333" style="stroke:#1B1B1A;stroke-width:1.0416666666666667;" width="341.6667" x="33.3333" y="116.3411"/><rect codeLine="7" fill="none" height="332.8166" id="ReverseGeocoder.Configuration" rx="8.3333" ry="8.3333" style="stroke:#5E5E5E;stroke-width:1.0416666666666667;" width="341.6667" x="33.3333" y="93.2861"/><ellipse cx="151.5625" cy="108.9803" fill="#0066CF" rx="10.4167" ry="10.4167" style="stroke:#0086EF;stroke-width:1.0416666666666667;"/><path d="M153.4729,113.4054 Q153.0457,113.6251 152.5757,113.7349 Q152.1057,113.8448 151.5869,113.8448 Q149.7437,113.8448 148.7732,112.6302 Q147.8027,111.4156 147.8027,109.1207 Q147.8027,106.8197 148.7732,105.6051 Q149.7437,104.3905 151.5869,104.3905 Q152.1057,104.3905 152.5818,104.5003 Q153.0579,104.6102 153.4729,104.8299 L153.4729,106.8319 Q153.009,106.4046 152.5726,106.2063 Q152.1362,106.0079 151.6724,106.0079 Q150.6836,106.0079 150.1801,106.7922 Q149.6765,107.5765 149.6765,109.1207 Q149.6765,110.6588 150.1801,111.4431 Q150.6836,112.2274 151.6724,112.2274 Q152.1362,112.2274 152.5726,112.029 Q153.009,111.8306 153.4729,111.4034 Z " fill="#000000"/><text fill="#D8BC00" font-family="Open Sans,Avenir,Nunito,Arial,Helvetica,SansSerif" font-size="12.5" font-weight="bold" lengthAdjust="spacing" textLength="90.625" x="174.4792" y="113.7044">Configuration</text><line style="stroke:#5E5E5E;stroke-width:1.5625;" x1="34.375" x2="373.9583" y1="124.6745" y2="124.6745"/><line style="stroke:#5E5E5E;stroke-width:1.0416666666666667;" x1="34.375" x2="373.9583" y1="133.0078" y2="133.0078"/><ellipse cx="44.7917" cy="144.4661" fill="#84BE84" rx="3.125" ry="3.125" style="stroke:#038048;stroke-width:1.0416666666666667;"/><text fill="#D8BC00" font-family="Open Sans,Avenir,Nunito,Arial,Helvetica,SansSerif" font-size="11.4583" lengthAdjust="spacing" textLength="92.7083" x="56.25" y="151.3774">Distance within()</text><ellipse cx="44.7917" cy="164.211" fill="#84BE84" rx="3.125" ry="3.125" style="stroke:#038048;stroke-width:1.0416666666666667;"/><text fill="#D8BC00" font-family="Open Sans,Avenir,Nunito,Arial,Helvetica,SansSerif" font-size="11.4583" lengthAdjust="spacing" textLength="153.125" x="56.25" y="171.1222">void within(Distance within)</text><ellipse cx="44.7917" cy="207.8674" fill="#84BE84" rx="3.125" ry="3.125" style="stroke:#038048;stroke-width:1.0416666666666667;"/><text fill="#D8BC00" font-family="Open Sans,Avenir,Nunito,Arial,Helvetica,SansSerif" font-size="11.4583" lengthAdjust="spacing" textLength="232.2917" x="56.25" y="214.7786">void compareDirection(boolean compare)</text><ellipse cx="44.7917" cy="227.6123" fill="#84BE84" rx="3.125" ry="3.125" style="stroke:#038048;stroke-width:1.0416666666666667;"/><text fill="#D8BC00" font-family="Open Sans,Avenir,Nunito,Arial,Helvetica,SansSerif" font-size="11.4583" lengthAdjust="spacing" textLength="156.25" x="56.25" y="234.5235">boolean compareDirection()</text><ellipse cx="44.7917" cy="247.3572" fill="#84BE84" rx="3.125" ry="3.125" style="stroke:#038048;stroke-width:1.0416666666666667;"/><text fill="#D8BC00" font-family="Open Sans,Avenir,Nunito,Arial,Helvetica,SansSerif" font-size="11.4583" lengthAdjust="spacing" textLength="270.8333" x="56.25" y="254.2684">void headingTolerance(Angle headingTolerance)</text><ellipse cx="44.7917" cy="267.1021" fill="#84BE84" rx="3.125" ry="3.125" style="stroke:#038048;stroke-width:1.0416666666666667;"/><text fill="#D8BC00" font-family="Open Sans,Avenir,Nunito,Arial,Helvetica,SansSerif" font-size="11.4583" lengthAdjust="spacing" textLength="143.75" x="56.25" y="274.0133">Angle headingTolerance()</text><line style="stroke:#5E5E5E;stroke-width:1.0416666666666667;" x1="34.375" x2="181.7708" y1="190.7033" y2="190.7033"/><text fill="#D8BC00" font-family="Open Sans,Avenir,Nunito,Arial,Helvetica,SansSerif" font-size="11.4583" lengthAdjust="spacing" textLength="38.5417" x="184.8958" y="194.5129">(angle)</text><line style="stroke:#5E5E5E;stroke-width:1.0416666666666667;" x1="226.5625" x2="373.9583" y1="190.7033" y2="190.7033"/><ellipse cx="44.7917" cy="310.7585" fill="#84BE84" rx="3.125" ry="3.125" style="stroke:#038048;stroke-width:1.0416666666666667;"/><text fill="#D8BC00" font-family="Open Sans,Avenir,Nunito,Arial,Helvetica,SansSerif" font-size="11.4583" lengthAdjust="spacing" textLength="309.375" x="56.25" y="317.6697">void roadNameCloseness(Percent roadNameCloseness)</text><ellipse cx="44.7917" cy="330.5033" fill="#84BE84" rx="3.125" ry="3.125" style="stroke:#038048;stroke-width:1.0416666666666667;"/><text fill="#D8BC00" font-family="Open Sans,Avenir,Nunito,Arial,Helvetica,SansSerif" font-size="11.4583" lengthAdjust="spacing" textLength="167.7083" x="56.25" y="337.4146">Percent roadNameCloseness()</text><ellipse cx="44.7917" cy="350.2482" fill="#84BE84" rx="3.125" ry="3.125" style="stroke:#038048;stroke-width:1.0416666666666667;"/><text fill="#D8BC00" font-family="Open Sans,Avenir,Nunito,Arial,Helvetica,SansSerif" font-size="11.4583" lengthAdjust="spacing" textLength="241.6667" x="56.25" y="357.1594">void roadNameMatcher(RoadNameMatcher)</text><ellipse cx="44.7917" cy="369.9931" fill="#84BE84" rx="3.125" ry="3.125" style="stroke:#038048;stroke-width:1.0416666666666667;"/><text fill="#D8BC00" font-family="Open Sans,Avenir,Nunito,Arial,Helvetica,SansSerif" font-size="11.4583" lengthAdjust="spacing" textLength="217.7083" x="56.25" y="376.9043">RoadNameMatcher roadNameMatcher()</text><ellipse cx="44.7917" cy="389.738" fill="#84BE84" rx="3.125" ry="3.125" style="stroke:#038048;stroke-width:1.0416666666666667;"/><text fill="#D8BC00" font-family="Open Sans,Avenir,Nunito,Arial,Helvetica,SansSerif" font-size="11.4583" lengthAdjust="spacing" textLength="269.7917" x="56.25" y="396.6492">RoadNameStandardizer roadNameStandardizer()</text><ellipse cx="44.7917" cy="409.4828" fill="#84BE84" rx="3.125" ry="3.125" style="stroke:#038048;stroke-width:1.0416666666666667;"/><text fill="#D8BC00" font-family="Open Sans,Avenir,Nunito,Arial,Helvetica,SansSerif" font-size="11.4583" lengthAdjust="spacing" textLength="293.75" x="56.25" y="416.394">void roadNameStandardizer(RoadNameStandardizer)</text><line style="stroke:#5E5E5E;stroke-width:1.0416666666666667;" x1="34.375" x2="176.0417" y1="293.5944" y2="293.5944"/><text fill="#D8BC00" font-family="Open Sans,Avenir,Nunito,Arial,Helvetica,SansSerif" font-size="11.4583" lengthAdjust="spacing" textLength="50" x="179.1667" y="297.404">(naming)</text><line style="stroke:#5E5E5E;stroke-width:1.0416666666666667;" x1="232.2917" x2="373.9583" y1="293.5944" y2="293.5944"/><rect codeLine="26" fill="#282828" height="214.3473" id="ReverseGeocoder.Request" rx="8.3333" ry="8.3333" style="stroke:#5E5E5E;stroke-width:1.0416666666666667;" width="184.375" x="411.9792" y="152.6611"/><rect fill="#1B1B1A" height="31.3883" rx="8.3333" ry="8.3333" style="stroke:#1B1B1A;stroke-width:1.0416666666666667;" width="184.375" x="411.9792" y="152.6611"/><rect fill="#1B1B1A" height="8.3333" style="stroke:#1B1B1A;stroke-width:1.0416666666666667;" width="184.375" x="411.9792" y="175.7161"/><rect codeLine="26" fill="none" height="214.3473" id="ReverseGeocoder.Request" rx="8.3333" ry="8.3333" style="stroke:#5E5E5E;stroke-width:1.0416666666666667;" width="184.375" x="411.9792" y="152.6611"/><ellipse cx="470.8333" cy="168.3553" fill="#0066CF" rx="10.4167" ry="10.4167" style="stroke:#0086EF;stroke-width:1.0416666666666667;"/><path d="M472.7437,172.7804 Q472.3165,173.0001 471.8465,173.1099 Q471.3765,173.2198 470.8577,173.2198 Q469.0145,173.2198 468.044,172.0052 Q467.0736,170.7906 467.0736,168.4957 Q467.0736,166.1947 468.044,164.9801 Q469.0145,163.7655 470.8577,163.7655 Q471.3765,163.7655 471.8526,163.8753 Q472.3287,163.9852 472.7437,164.2049 L472.7437,166.2069 Q472.2799,165.7796 471.8435,165.5813 Q471.4071,165.3829 470.9432,165.3829 Q469.9544,165.3829 469.4509,166.1672 Q468.9473,166.9515 468.9473,168.4957 Q468.9473,170.0338 469.4509,170.8181 Q469.9544,171.6024 470.9432,171.6024 Q471.4071,171.6024 471.8435,171.404 Q472.2799,171.2056 472.7437,170.7784 Z " fill="#000000"/><text fill="#D8BC00" font-family="Open Sans,Avenir,Nunito,Arial,Helvetica,SansSerif" font-size="12.5" font-weight="bold" lengthAdjust="spacing" textLength="52.0833" x="493.75" y="173.0794">Request</text><line style="stroke:#5E5E5E;stroke-width:1.5625;" x1="413.0208" x2="595.3125" y1="184.0495" y2="184.0495"/><line style="stroke:#5E5E5E;stroke-width:1.0416666666666667;" x1="413.0208" x2="595.3125" y1="192.3828" y2="192.3828"/><ellipse cx="423.4375" cy="203.8411" fill="#84BE84" rx="3.125" ry="3.125" style="stroke:#038048;stroke-width:1.0416666666666667;"/><text fill="#D8BC00" font-family="Open Sans,Avenir,Nunito,Arial,Helvetica,SansSerif" font-size="11.4583" lengthAdjust="spacing" textLength="128.125" x="434.8958" y="210.7524">void location(Location)</text><ellipse cx="423.4375" cy="223.586" fill="#84BE84" rx="3.125" ry="3.125" style="stroke:#038048;stroke-width:1.0416666666666667;"/><text fill="#D8BC00" font-family="Open Sans,Avenir,Nunito,Arial,Helvetica,SansSerif" font-size="11.4583" lengthAdjust="spacing" textLength="104.1667" x="434.8958" y="230.4972">Location location()</text><ellipse cx="423.4375" cy="267.2424" fill="#84BE84" rx="3.125" ry="3.125" style="stroke:#038048;stroke-width:1.0416666666666667;"/><text fill="#D8BC00" font-family="Open Sans,Avenir,Nunito,Arial,Helvetica,SansSerif" font-size="11.4583" lengthAdjust="spacing" textLength="102.0833" x="434.8958" y="274.1536">Heading heading()</text><ellipse cx="423.4375" cy="286.9873" fill="#84BE84" rx="3.125" ry="3.125" style="stroke:#038048;stroke-width:1.0416666666666667;"/><text fill="#D8BC00" font-family="Open Sans,Avenir,Nunito,Arial,Helvetica,SansSerif" font-size="11.4583" lengthAdjust="spacing" textLength="126.0417" x="434.8958" y="293.8985">void heading(Heading)</text><line style="stroke:#5E5E5E;stroke-width:1.0416666666666667;" x1="413.0208" x2="481.7708" y1="250.0783" y2="250.0783"/><text fill="#D8BC00" font-family="Open Sans,Avenir,Nunito,Arial,Helvetica,SansSerif" font-size="11.4583" lengthAdjust="spacing" textLength="38.5417" x="484.8958" y="253.8879">(angle)</text><line style="stroke:#5E5E5E;stroke-width:1.0416666666666667;" x1="526.5625" x2="595.3125" y1="250.0783" y2="250.0783"/><ellipse cx="423.4375" cy="330.6437" fill="#84BE84" rx="3.125" ry="3.125" style="stroke:#038048;stroke-width:1.0416666666666667;"/><text fill="#D8BC00" font-family="Open Sans,Avenir,Nunito,Arial,Helvetica,SansSerif" font-size="11.4583" lengthAdjust="spacing" textLength="152.0833" x="434.8958" y="337.5549">void roadName(RoadName)</text><ellipse cx="423.4375" cy="350.3886" fill="#84BE84" rx="3.125" ry="3.125" style="stroke:#038048;stroke-width:1.0416666666666667;"/><text fill="#D8BC00" font-family="Open Sans,Avenir,Nunito,Arial,Helvetica,SansSerif" font-size="11.4583" lengthAdjust="spacing" textLength="128.125" x="434.8958" y="357.2998">RoadName roadName()</text><line style="stroke:#5E5E5E;stroke-width:1.0416666666666667;" x1="413.0208" x2="476.0417" y1="313.4796" y2="313.4796"/><text fill="#D8BC00" font-family="Open Sans,Avenir,Nunito,Arial,Helvetica,SansSerif" font-size="11.4583" lengthAdjust="spacing" textLength="50" x="479.1667" y="317.2892">(naming)</text><line style="stroke:#5E5E5E;stroke-width:1.0416666666666667;" x1="532.2917" x2="595.3125" y1="313.4796" y2="313.4796"/><rect codeLine="39" fill="#282828" height="131.2012" id="ReverseGeocoder.Response" rx="8.3333" ry="8.3333" style="stroke:#5E5E5E;stroke-width:1.0416666666666667;" width="147.9167" x="130.2083" y="489.1195"/><rect fill="#1B1B1A" height="31.3883" rx="8.3333" ry="8.3333" style="stroke:#1B1B1A;stroke-width:1.0416666666666667;" width="147.9167" x="130.2083" y="489.1195"/><rect fill="#1B1B1A" height="8.3333" style="stroke:#1B1B1A;stroke-width:1.0416666666666667;" width="147.9167" x="130.2083" y="512.1745"/><rect codeLine="39" fill="none" height="131.2012" id="ReverseGeocoder.Response" rx="8.3333" ry="8.3333" style="stroke:#5E5E5E;stroke-width:1.0416666666666667;" width="147.9167" x="130.2083" y="489.1195"/><ellipse cx="166.3542" cy="504.8136" fill="#0066CF" rx="10.4167" ry="10.4167" style="stroke:#0086EF;stroke-width:1.0416666666666667;"/><path d="M168.2646,509.2387 Q167.8373,509.4584 167.3674,509.5683 Q166.8974,509.6781 166.3786,509.6781 Q164.5353,509.6781 163.5649,508.4635 Q162.5944,507.2489 162.5944,504.954 Q162.5944,502.653 163.5649,501.4384 Q164.5353,500.2238 166.3786,500.2238 Q166.8974,500.2238 167.3735,500.3337 Q167.8495,500.4435 168.2646,500.6632 L168.2646,502.6652 Q167.8007,502.238 167.3643,502.0396 Q166.9279,501.8412 166.464,501.8412 Q165.4753,501.8412 164.9717,502.6255 Q164.4682,503.4098 164.4682,504.954 Q164.4682,506.4921 164.9717,507.2764 Q165.4753,508.0607 166.464,508.0607 Q166.9279,508.0607 167.3643,507.8623 Q167.8007,507.664 168.2646,507.2367 Z " fill="#000000"/><text fill="#D8BC00" font-family="Open Sans,Avenir,Nunito,Arial,Helvetica,SansSerif" font-size="12.5" font-weight="bold" lengthAdjust="spacing" textLength="62.5" x="187.8125" y="509.5378">Response</text><line style="stroke:#5E5E5E;stroke-width:1.5625;" x1="131.25" x2="277.0833" y1="520.5078" y2="520.5078"/><line style="stroke:#5E5E5E;stroke-width:1.0416666666666667;" x1="131.25" x2="277.0833" y1="528.8411" y2="528.8411"/><ellipse cx="141.6667" cy="540.2995" fill="#84BE84" rx="3.125" ry="3.125" style="stroke:#038048;stroke-width:1.0416666666666667;"/><text fill="#D8BC00" font-family="Open Sans,Avenir,Nunito,Arial,Helvetica,SansSerif" font-size="11.4583" lengthAdjust="spacing" textLength="65.625" x="153.125" y="547.2107">Edge edge()</text><ellipse cx="141.6667" cy="560.0444" fill="#84BE84" rx="3.125" ry="3.125" style="stroke:#038048;stroke-width:1.0416666666666667;"/><text fill="#D8BC00" font-family="Open Sans,Avenir,Nunito,Arial,Helvetica,SansSerif" font-size="11.4583" lengthAdjust="spacing" textLength="108.3333" x="153.125" y="566.9556">PolylineSnap snap()</text><ellipse cx="141.6667" cy="603.7008" fill="#84BE84" rx="3.125" ry="3.125" style="stroke:#038048;stroke-width:1.0416666666666667;"/><text fill="#D8BC00" font-family="Open Sans,Avenir,Nunito,Arial,Helvetica,SansSerif" font-size="11.4583" lengthAdjust="spacing" textLength="115.625" x="153.125" y="610.612">Percent percentage()</text><line style="stroke:#5E5E5E;stroke-width:1.0416666666666667;" x1="131.25" x2="182.8125" y1="586.5367" y2="586.5367"/><text fill="#D8BC00" font-family="Open Sans,Avenir,Nunito,Arial,Helvetica,SansSerif" font-size="11.4583" lengthAdjust="spacing" textLength="36.4583" x="185.9375" y="590.3463">(math)</text><line style="stroke:#5E5E5E;stroke-width:1.0416666666666667;" x1="225.5208" x2="277.0833" y1="586.5367" y2="586.5367"/><rect codeLine="48" fill="#282828" height="127.0345" id="ReverseGeocoder" rx="8.3333" ry="8.3333" style="stroke:#5E5E5E;stroke-width:1.0416666666666667;" width="257.2917" x="632.8125" y="196.4111"/><rect fill="#1B1B1A" height="31.3883" rx="8.3333" ry="8.3333" style="stroke:#1B1B1A;stroke-width:1.0416666666666667;" width="257.2917" x="632.8125" y="196.4111"/><rect fill="#1B1B1A" height="8.3333" style="stroke:#1B1B1A;stroke-width:1.0416666666666667;" width="257.2917" x="632.8125" y="219.4661"/><rect codeLine="48" fill="none" height="127.0345" id="ReverseGeocoder" rx="8.3333" ry="8.3333" style="stroke:#5E5E5E;stroke-width:1.0416666666666667;" width="257.2917" x="632.8125" y="196.4111"/><ellipse cx="698.9583" cy="212.1053" fill="#0066CF" rx="10.4167" ry="10.4167" style="stroke:#0086EF;stroke-width:1.0416666666666667;"/><path d="M700.8687,216.5304 Q700.4415,216.7501 699.9715,216.8599 Q699.5015,216.9698 698.9827,216.9698 Q697.1395,216.9698 696.169,215.7552 Q695.1986,214.5406 695.1986,212.2457 Q695.1986,209.9447 696.169,208.7301 Q697.1395,207.5155 698.9827,207.5155 Q699.5015,207.5155 699.9776,207.6253 Q700.4537,207.7352 700.8687,207.9549 L700.8687,209.9569 Q700.4049,209.5296 699.9685,209.3313 Q699.5321,209.1329 699.0682,209.1329 Q698.0794,209.1329 697.5759,209.9172 Q697.0723,210.7015 697.0723,212.2457 Q697.0723,213.7838 697.5759,214.5681 Q698.0794,215.3524 699.0682,215.3524 Q699.5321,215.3524 699.9685,215.154 Q700.4049,214.9556 700.8687,214.5284 Z " fill="#000000"/><text fill="#D8BC00" font-family="Open Sans,Avenir,Nunito,Arial,Helvetica,SansSerif" font-size="12.5" font-weight="bold" lengthAdjust="spacing" textLength="110.4167" x="721.875" y="216.8294">ReverseGeocoder</text><line style="stroke:#5E5E5E;stroke-width:1.5625;" x1="633.8542" x2="889.0625" y1="227.7995" y2="227.7995"/><ellipse cx="644.2708" cy="263.1694" fill="#84BE84" rx="3.125" ry="3.125" style="stroke:#038048;stroke-width:1.0416666666666667;"/><text fill="#D8BC00" font-family="Open Sans,Avenir,Nunito,Arial,Helvetica,SansSerif" font-size="11.4583" lengthAdjust="spacing" textLength="225" x="655.7292" y="270.0806">ReverseGeocoder(Graph, Configuration)</text><line style="stroke:#5E5E5E;stroke-width:1.0416666666666667;" x1="633.8542" x2="717.7083" y1="246.0052" y2="246.0052"/><text fill="#D8BC00" font-family="Open Sans,Avenir,Nunito,Arial,Helvetica,SansSerif" font-size="11.4583" lengthAdjust="spacing" textLength="81.25" x="720.8333" y="249.8149">(constructors)</text><line style="stroke:#5E5E5E;stroke-width:1.0416666666666667;" x1="805.2083" x2="889.0625" y1="246.0052" y2="246.0052"/><ellipse cx="644.2708" cy="306.8258" fill="#84BE84" rx="3.125" ry="3.125" style="stroke:#038048;stroke-width:1.0416666666666667;"/><text fill="#D8BC00" font-family="Open Sans,Avenir,Nunito,Arial,Helvetica,SansSerif" font-size="11.4583" lengthAdjust="spacing" textLength="143.75" x="655.7292" y="313.737">Response locate(Request)</text><line style="stroke:#5E5E5E;stroke-width:1.0416666666666667;" x1="633.8542" x2="735.4167" y1="289.6617" y2="289.6617"/><text fill="#D8BC00" font-family="Open Sans,Avenir,Nunito,Arial,Helvetica,SansSerif" font-size="11.4583" lengthAdjust="spacing" textLength="45.8333" x="738.5417" y="293.4713">(search)</text><line style="stroke:#5E5E5E;stroke-width:1.0416666666666667;" x1="787.5" x2="889.0625" y1="289.6617" y2="289.6617"/></g></svg>
