<?xml version="1.0" encoding="UTF-8" standalone="no"?><svg xmlns="http://www.w3.org/2000/svg" xmlns:xlink="http://www.w3.org/1999/xlink" contentScriptType="application/ecmascript" contentStyleType="text/css" height="218.75px" preserveAspectRatio="none" style="width:521px;height:218px;background:#333333;" version="1.1" viewBox="0 0 521 218" width="521.875px" zoomAndPan="magnify"><defs/><g><rect fill="#48494B" height="41.2028" rx="8.3333" ry="8.3333" style="stroke:#545454;stroke-width:1.0416666666666667;" width="509.375" x="2.0833" y="2.0833"/><text fill="#C0C0C0" font-family="Open Sans,Avenir,Nunito,Arial,Helvetica,SansSerif" font-size="20.8333" lengthAdjust="spacing" textLength="486.4583" x="13.5417" y="30.5583">com.telenav.mesakit.map.region.internal.lexakai</text><rect codeLine="19" fill="#282828" height="48.055" id="UmlDiagramIdentifier" rx="8.3333" ry="8.3333" style="stroke:#5E5E5E;stroke-width:1.0416666666666667;" width="178.125" x="170.0521" y="53.7028"/><rect fill="#1B1B1A" height="31.3883" rx="8.3333" ry="8.3333" style="stroke:#1B1B1A;stroke-width:1.0416666666666667;" width="178.125" x="170.0521" y="53.7028"/><rect fill="#1B1B1A" height="8.3333" style="stroke:#1B1B1A;stroke-width:1.0416666666666667;" width="178.125" x="170.0521" y="76.7578"/><rect codeLine="19" fill="none" height="48.055" id="UmlDiagramIdentifier" rx="8.3333" ry="8.3333" style="stroke:#5E5E5E;stroke-width:1.0416666666666667;" width="178.125" x="170.0521" y="53.7028"/><ellipse cx="184.6354" cy="69.397" fill="#008400" rx="10.4167" ry="10.4167" style="stroke:#239C23;stroke-width:1.0416666666666667;"/><path d="M182.0394,66.5588 L182.0394,64.9719 L187.4654,64.9719 L187.4654,66.5588 L185.6527,66.5588 L185.6527,72.4976 L187.4654,72.4976 L187.4654,74.0845 L182.0394,74.0845 L182.0394,72.4976 L183.8521,72.4976 L183.8521,66.5588 Z " fill="#000000"/><text fill="#D8BC00" font-family="Open Sans,Avenir,Nunito,Arial,Helvetica,SansSerif" font-size="12.5" font-style="italic" font-weight="bold" lengthAdjust="spacing" textLength="140.625" x="201.3021" y="74.1211">UmlDiagramIdentifier</text><line style="stroke:#5E5E5E;stroke-width:1.0416666666666667;" x1="171.0938" x2="347.1354" y1="85.0911" y2="85.0911"/><line style="stroke:#5E5E5E;stroke-width:1.0416666666666667;" x1="171.0938" x2="347.1354" y1="93.4245" y2="93.4245"/><rect codeLine="9" fill="#282828" height="48.055" id="DiagramBorder" rx="8.3333" ry="8.3333" style="stroke:#5E5E5E;stroke-width:1.0416666666666667;" width="135.4167" x="18.4896" y="164.1195"/><rect fill="#1B1B1A" height="31.3883" rx="8.3333" ry="8.3333" style="stroke:#1B1B1A;stroke-width:1.0416666666666667;" width="135.4167" x="18.4896" y="164.1195"/><rect fill="#1B1B1A" height="8.3333" style="stroke:#1B1B1A;stroke-width:1.0416666666666667;" width="135.4167" x="18.4896" y="187.1745"/><rect codeLine="9" fill="none" height="48.055" id="DiagramBorder" rx="8.3333" ry="8.3333" style="stroke:#5E5E5E;stroke-width:1.0416666666666667;" width="135.4167" x="18.4896" y="164.1195"/><ellipse cx="33.0729" cy="179.8136" fill="#008400" rx="10.4167" ry="10.4167" style="stroke:#239C23;stroke-width:1.0416666666666667;"/><path d="M30.4769,176.9755 L30.4769,175.3886 L35.9029,175.3886 L35.9029,176.9755 L34.0902,176.9755 L34.0902,182.9142 L35.9029,182.9142 L35.9029,184.5011 L30.4769,184.5011 L30.4769,182.9142 L32.2896,182.9142 L32.2896,176.9755 Z " fill="#000000"/><text fill="#D8BC00" font-family="Open Sans,Avenir,Nunito,Arial,Helvetica,SansSerif" font-size="12.5" font-style="italic" font-weight="bold" lengthAdjust="spacing" textLength="97.9167" x="49.7396" y="184.5378">DiagramBorder</text><line style="stroke:#5E5E5E;stroke-width:1.0416666666666667;" x1="19.5313" x2="152.8646" y1="195.5078" y2="195.5078"/><line style="stroke:#5E5E5E;stroke-width:1.0416666666666667;" x1="19.5313" x2="152.8646" y1="203.8411" y2="203.8411"/><rect codeLine="15" fill="#282828" height="48.055" id="DiagramRegion" rx="8.3333" ry="8.3333" style="stroke:#5E5E5E;stroke-width:1.0416666666666667;" width="137.5" x="190.3646" y="164.1195"/><rect fill="#1B1B1A" height="31.3883" rx="8.3333" ry="8.3333" style="stroke:#1B1B1A;stroke-width:1.0416666666666667;" width="137.5" x="190.3646" y="164.1195"/><rect fill="#1B1B1A" height="8.3333" style="stroke:#1B1B1A;stroke-width:1.0416666666666667;" width="137.5" x="190.3646" y="187.1745"/><rect codeLine="15" fill="none" height="48.055" id="DiagramRegion" rx="8.3333" ry="8.3333" style="stroke:#5E5E5E;stroke-width:1.0416666666666667;" width="137.5" x="190.3646" y="164.1195"/><ellipse cx="204.9479" cy="179.8136" fill="#008400" rx="10.4167" ry="10.4167" style="stroke:#239C23;stroke-width:1.0416666666666667;"/><path d="M202.3519,176.9755 L202.3519,175.3886 L207.7779,175.3886 L207.7779,176.9755 L205.9652,176.9755 L205.9652,182.9142 L207.7779,182.9142 L207.7779,184.5011 L202.3519,184.5011 L202.3519,182.9142 L204.1646,182.9142 L204.1646,176.9755 Z " fill="#000000"/><text fill="#D8BC00" font-family="Open Sans,Avenir,Nunito,Arial,Helvetica,SansSerif" font-size="12.5" font-style="italic" font-weight="bold" lengthAdjust="spacing" textLength="100" x="221.6146" y="184.5378">DiagramRegion</text><line style="stroke:#5E5E5E;stroke-width:1.0416666666666667;" x1="191.4063" x2="326.8229" y1="195.5078" y2="195.5078"/><line style="stroke:#5E5E5E;stroke-width:1.0416666666666667;" x1="191.4063" x2="326.8229" y1="203.8411" y2="203.8411"/><rect codeLine="21" fill="#282828" height="48.055" id="DiagramRegions" rx="8.3333" ry="8.3333" style="stroke:#5E5E5E;stroke-width:1.0416666666666667;" width="144.7917" x="364.8438" y="164.1195"/><rect fill="#1B1B1A" height="31.3883" rx="8.3333" ry="8.3333" style="stroke:#1B1B1A;stroke-width:1.0416666666666667;" width="144.7917" x="364.8438" y="164.1195"/><rect fill="#1B1B1A" height="8.3333" style="stroke:#1B1B1A;stroke-width:1.0416666666666667;" width="144.7917" x="364.8438" y="187.1745"/><rect codeLine="21" fill="none" height="48.055" id="DiagramRegions" rx="8.3333" ry="8.3333" style="stroke:#5E5E5E;stroke-width:1.0416666666666667;" width="144.7917" x="364.8438" y="164.1195"/><ellipse cx="379.4271" cy="179.8136" fill="#008400" rx="10.4167" ry="10.4167" style="stroke:#239C23;stroke-width:1.0416666666666667;"/><path d="M376.8311,176.9755 L376.8311,175.3886 L382.2571,175.3886 L382.2571,176.9755 L380.4443,176.9755 L380.4443,182.9142 L382.2571,182.9142 L382.2571,184.5011 L376.8311,184.5011 L376.8311,182.9142 L378.6438,182.9142 L378.6438,176.9755 Z " fill="#000000"/><text fill="#D8BC00" font-family="Open Sans,Avenir,Nunito,Arial,Helvetica,SansSerif" font-size="12.5" font-style="italic" font-weight="bold" lengthAdjust="spacing" textLength="107.2917" x="396.0938" y="184.5378">DiagramRegions</text><line style="stroke:#5E5E5E;stroke-width:1.0416666666666667;" x1="365.8854" x2="508.5938" y1="195.5078" y2="195.5078"/><line style="stroke:#5E5E5E;stroke-width:1.0416666666666667;" x1="365.8854" x2="508.5938" y1="203.8411" y2="203.8411"/><path codeLine="8" d="M204.4792,112.932 C177.8438,129.6195 146.5313,149.234 122.8125,164.0986 " fill="none" id="UmlDiagramIdentifier-backto-DiagramBorder" style="stroke:#545454;stroke-width:1.5625;"/><polygon fill="none" points="200.9167,106.557,222.4479,101.682,208.6563,118.9215,200.9167,106.557" style="stroke:#545454;stroke-width:1.5625;"/><path codeLine="14" d="M259.1146,122.6195 C259.1146,136.8382 259.1146,152.0361 259.1146,164.0986 " fill="none" id="UmlDiagramIdentifier-backto-DiagramRegion" style="stroke:#545454;stroke-width:1.5625;"/><polygon fill="none" points="251.8229,122.5153,259.1146,101.682,266.4063,122.5153,251.8229,122.5153" style="stroke:#545454;stroke-width:1.5625;"/><path codeLine="20" d="M315,112.6924 C342.5208,129.432 374.9688,149.1611 399.5208,164.0986 " fill="none" id="UmlDiagramIdentifier-backto-DiagramRegions" style="stroke:#545454;stroke-width:1.5625;"/><polygon fill="none" points="310.9063,118.734,296.8854,101.682,318.4792,106.2757,310.9063,118.734" style="stroke:#545454;stroke-width:1.5625;"/></g></svg>
