<?xml version="1.0" encoding="UTF-8" standalone="no"?><svg xmlns="http://www.w3.org/2000/svg" xmlns:xlink="http://www.w3.org/1999/xlink" contentScriptType="application/ecmascript" contentStyleType="text/css" height="813.5417px" preserveAspectRatio="none" style="width:1390px;height:813px;background:#333333;" version="1.1" viewBox="0 0 1390 813" width="1390.625px" zoomAndPan="magnify"><defs/><g><rect fill="#48494B" height="41.2028" rx="8.3333" ry="8.3333" style="stroke:#545454;stroke-width:1.0416666666666667;" width="422.9167" x="476.5625" y="2.0833"/><text fill="#C0C0C0" font-family="Open Sans,Avenir,Nunito,Arial,Helvetica,SansSerif" font-size="20.8333" lengthAdjust="spacing" textLength="400" x="488.0208" y="30.5583">com.telenav.mesakit.map.region.border</text><rect codeLine="7" fill="#282828" height="48.055" id="Bounded" rx="8.3333" ry="8.3333" style="stroke:#5E5E5E;stroke-width:1.0416666666666667;" width="94.7917" x="7.2917" y="182.8695"/><rect fill="#1B1B1A" height="31.3883" rx="8.3333" ry="8.3333" style="stroke:#1B1B1A;stroke-width:1.0416666666666667;" width="94.7917" x="7.2917" y="182.8695"/><rect fill="#1B1B1A" height="8.3333" style="stroke:#1B1B1A;stroke-width:1.0416666666666667;" width="94.7917" x="7.2917" y="205.9245"/><rect codeLine="7" fill="none" height="48.055" id="Bounded" rx="8.3333" ry="8.3333" style="stroke:#5E5E5E;stroke-width:1.0416666666666667;" width="94.7917" x="7.2917" y="182.8695"/><ellipse cx="21.875" cy="198.5636" fill="#008400" rx="10.4167" ry="10.4167" style="stroke:#239C23;stroke-width:1.0416666666666667;"/><path d="M19.279,195.7255 L19.279,194.1386 L24.705,194.1386 L24.705,195.7255 L22.8923,195.7255 L22.8923,201.6642 L24.705,201.6642 L24.705,203.2511 L19.279,203.2511 L19.279,201.6642 L21.0917,201.6642 L21.0917,195.7255 Z " fill="#000000"/><text fill="#D8BC00" font-family="Open Sans,Avenir,Nunito,Arial,Helvetica,SansSerif" font-size="12.5" font-style="italic" font-weight="bold" lengthAdjust="spacing" textLength="57.2917" x="38.5417" y="203.2878">Bounded</text><line style="stroke:#5E5E5E;stroke-width:1.0416666666666667;" x1="8.3333" x2="101.0417" y1="214.2578" y2="214.2578"/><line style="stroke:#5E5E5E;stroke-width:1.0416666666666667;" x1="8.3333" x2="101.0417" y1="222.5911" y2="222.5911"/><rect codeLine="8" fill="#282828" height="48.055" id="Intersectable" rx="8.3333" ry="8.3333" style="stroke:#5E5E5E;stroke-width:1.0416666666666667;" width="120.8333" x="139.0625" y="182.8695"/><rect fill="#1B1B1A" height="31.3883" rx="8.3333" ry="8.3333" style="stroke:#1B1B1A;stroke-width:1.0416666666666667;" width="120.8333" x="139.0625" y="182.8695"/><rect fill="#1B1B1A" height="8.3333" style="stroke:#1B1B1A;stroke-width:1.0416666666666667;" width="120.8333" x="139.0625" y="205.9245"/><rect codeLine="8" fill="none" height="48.055" id="Intersectable" rx="8.3333" ry="8.3333" style="stroke:#5E5E5E;stroke-width:1.0416666666666667;" width="120.8333" x="139.0625" y="182.8695"/><ellipse cx="153.6458" cy="198.5636" fill="#008400" rx="10.4167" ry="10.4167" style="stroke:#239C23;stroke-width:1.0416666666666667;"/><path d="M151.0498,195.7255 L151.0498,194.1386 L156.4758,194.1386 L156.4758,195.7255 L154.6631,195.7255 L154.6631,201.6642 L156.4758,201.6642 L156.4758,203.2511 L151.0498,203.2511 L151.0498,201.6642 L152.8625,201.6642 L152.8625,195.7255 Z " fill="#000000"/><text fill="#D8BC00" font-family="Open Sans,Avenir,Nunito,Arial,Helvetica,SansSerif" font-size="12.5" font-style="italic" font-weight="bold" lengthAdjust="spacing" textLength="83.3333" x="170.3125" y="203.2878">Intersectable</text><line style="stroke:#5E5E5E;stroke-width:1.0416666666666667;" x1="140.1042" x2="258.8542" y1="214.2578" y2="214.2578"/><line style="stroke:#5E5E5E;stroke-width:1.0416666666666667;" x1="140.1042" x2="258.8542" y1="222.5911" y2="222.5911"/><rect codeLine="9" fill="#282828" height="48.055" id="Configurable" rx="8.3333" ry="8.3333" style="stroke:#5E5E5E;stroke-width:1.0416666666666667;" width="121.875" x="632.2917" y="53.7028"/><rect fill="#1B1B1A" height="31.3883" rx="8.3333" ry="8.3333" style="stroke:#1B1B1A;stroke-width:1.0416666666666667;" width="121.875" x="632.2917" y="53.7028"/><rect fill="#1B1B1A" height="8.3333" style="stroke:#1B1B1A;stroke-width:1.0416666666666667;" width="121.875" x="632.2917" y="76.7578"/><rect codeLine="9" fill="none" height="48.055" id="Configurable" rx="8.3333" ry="8.3333" style="stroke:#5E5E5E;stroke-width:1.0416666666666667;" width="121.875" x="632.2917" y="53.7028"/><ellipse cx="646.875" cy="69.397" fill="#008400" rx="10.4167" ry="10.4167" style="stroke:#239C23;stroke-width:1.0416666666666667;"/><path d="M644.279,66.5588 L644.279,64.9719 L649.705,64.9719 L649.705,66.5588 L647.8923,66.5588 L647.8923,72.4976 L649.705,72.4976 L649.705,74.0845 L644.279,74.0845 L644.279,72.4976 L646.0917,72.4976 L646.0917,66.5588 Z " fill="#000000"/><text fill="#D8BC00" font-family="Open Sans,Avenir,Nunito,Arial,Helvetica,SansSerif" font-size="12.5" font-style="italic" font-weight="bold" lengthAdjust="spacing" textLength="84.375" x="663.5417" y="74.1211">Configurable</text><line style="stroke:#5E5E5E;stroke-width:1.0416666666666667;" x1="633.3333" x2="753.125" y1="85.0911" y2="85.0911"/><line style="stroke:#5E5E5E;stroke-width:1.0416666666666667;" x1="633.3333" x2="753.125" y1="93.4245" y2="93.4245"/><rect codeLine="15" fill="#282828" height="277.7486" id="Border" rx="8.3333" ry="8.3333" style="stroke:#5E5E5E;stroke-width:1.0416666666666667;" width="189.5833" x="104.6875" y="354.7445"/><rect fill="#1B1B1A" height="31.3883" rx="8.3333" ry="8.3333" style="stroke:#1B1B1A;stroke-width:1.0416666666666667;" width="189.5833" x="104.6875" y="354.7445"/><rect fill="#1B1B1A" height="8.3333" style="stroke:#1B1B1A;stroke-width:1.0416666666666667;" width="189.5833" x="104.6875" y="377.7995"/><rect codeLine="15" fill="none" height="277.7486" id="Border" rx="8.3333" ry="8.3333" style="stroke:#5E5E5E;stroke-width:1.0416666666666667;" width="189.5833" x="104.6875" y="354.7445"/><ellipse cx="161.4583" cy="370.4386" fill="#0066CF" rx="10.4167" ry="10.4167" style="stroke:#0086EF;stroke-width:1.0416666666666667;"/><path d="M163.3687,374.8637 Q162.9415,375.0834 162.4715,375.1933 Q162.0015,375.3031 161.4827,375.3031 Q159.6395,375.3031 158.669,374.0885 Q157.6986,372.8739 157.6986,370.579 Q157.6986,368.278 158.669,367.0634 Q159.6395,365.8488 161.4827,365.8488 Q162.0015,365.8488 162.4776,365.9587 Q162.9537,366.0685 163.3687,366.2882 L163.3687,368.2902 Q162.9049,367.863 162.4685,367.6646 Q162.0321,367.4662 161.5682,367.4662 Q160.5794,367.4662 160.0759,368.2505 Q159.5723,369.0348 159.5723,370.579 Q159.5723,372.1171 160.0759,372.9014 Q160.5794,373.6857 161.5682,373.6857 Q162.0321,373.6857 162.4685,373.4873 Q162.9049,373.289 163.3687,372.8617 Z " fill="#000000"/><text fill="#D8BC00" font-family="Open Sans,Avenir,Nunito,Arial,Helvetica,SansSerif" font-size="12.5" font-weight="bold" lengthAdjust="spacing" textLength="42.7083" x="184.375" y="375.1628">Border</text><rect fill="#333333" height="23.055" style="stroke:#A0A0A0;stroke-width:1.0416666666666667;stroke-dasharray:2.0,2.0;" width="16.6667" x="280.7292" y="351.6195"/><text fill="#A0A0A0" font-family="Open Sans,Avenir,Nunito,Arial,Helvetica,SansSerif" font-size="12.5" font-weight="bold" lengthAdjust="spacing" textLength="8.3333" x="284.8958" y="367.8711">T</text><line style="stroke:#5E5E5E;stroke-width:1.5625;" x1="105.7292" x2="293.2292" y1="386.1328" y2="386.1328"/><ellipse cx="116.1458" cy="421.5027" fill="#84BE84" rx="3.125" ry="3.125" style="stroke:#038048;stroke-width:1.0416666666666667;"/><text fill="#D8BC00" font-family="Open Sans,Avenir,Nunito,Arial,Helvetica,SansSerif" font-size="11.4583" lengthAdjust="spacing" textLength="104.1667" x="127.6042" y="428.4139">Border(T, Polygon)</text><line style="stroke:#5E5E5E;stroke-width:1.0416666666666667;" x1="105.7292" x2="155.7292" y1="404.3386" y2="404.3386"/><text fill="#D8BC00" font-family="Open Sans,Avenir,Nunito,Arial,Helvetica,SansSerif" font-size="11.4583" lengthAdjust="spacing" textLength="81.25" x="158.8542" y="408.1482">(constructors)</text><line style="stroke:#5E5E5E;stroke-width:1.0416666666666667;" x1="243.2292" x2="293.2292" y1="404.3386" y2="404.3386"/><line style="stroke:#5E5E5E;stroke-width:1.0416666666666667;" x1="105.7292" x2="293.2292" y1="438.1226" y2="438.1226"/><ellipse cx="116.1458" cy="449.5809" fill="#84BE84" rx="3.125" ry="3.125" style="stroke:#038048;stroke-width:1.0416666666666667;"/><text fill="#D8BC00" font-family="Open Sans,Avenir,Nunito,Arial,Helvetica,SansSerif" font-size="11.4583" lengthAdjust="spacing" textLength="133.3333" x="127.6042" y="456.4921">RegionIdentity identity()</text><ellipse cx="116.1458" cy="469.3258" fill="#84BE84" rx="3.125" ry="3.125" style="stroke:#038048;stroke-width:1.0416666666666667;"/><text fill="#D8BC00" font-family="Open Sans,Avenir,Nunito,Arial,Helvetica,SansSerif" font-size="11.4583" lengthAdjust="spacing" textLength="157.2917" x="127.6042" y="476.237">void identity(RegionIdentity)</text><ellipse cx="116.1458" cy="489.0706" fill="#84BE84" rx="3.125" ry="3.125" style="stroke:#038048;stroke-width:1.0416666666666667;"/><text fill="#D8BC00" font-family="Open Sans,Avenir,Nunito,Arial,Helvetica,SansSerif" font-size="11.4583" lengthAdjust="spacing" textLength="102.0833" x="127.6042" y="495.9819">Polygon polygon()</text><ellipse cx="116.1458" cy="508.8155" fill="#84BE84" rx="3.125" ry="3.125" style="stroke:#038048;stroke-width:1.0416666666666667;"/><text fill="#D8BC00" font-family="Open Sans,Avenir,Nunito,Arial,Helvetica,SansSerif" font-size="11.4583" lengthAdjust="spacing" textLength="55.2083" x="127.6042" y="515.7267">T region()</text><ellipse cx="116.1458" cy="528.5604" fill="#84BE84" rx="3.125" ry="3.125" style="stroke:#038048;stroke-width:1.0416666666666667;"/><text fill="#D8BC00" font-family="Open Sans,Avenir,Nunito,Arial,Helvetica,SansSerif" font-size="11.4583" lengthAdjust="spacing" textLength="118.75" x="127.6042" y="535.4716">void region(T region)</text><ellipse cx="116.1458" cy="572.2168" fill="#84BE84" rx="3.125" ry="3.125" style="stroke:#038048;stroke-width:1.0416666666666667;"/><text fill="#D8BC00" font-family="Open Sans,Avenir,Nunito,Arial,Helvetica,SansSerif" font-size="11.4583" lengthAdjust="spacing" textLength="92.7083" x="127.6042" y="579.128">boolean isValid()</text><line style="stroke:#5E5E5E;stroke-width:1.0416666666666667;" x1="105.7292" x2="172.9167" y1="555.0527" y2="555.0527"/><text fill="#D8BC00" font-family="Open Sans,Avenir,Nunito,Arial,Helvetica,SansSerif" font-size="11.4583" lengthAdjust="spacing" textLength="46.875" x="176.0417" y="558.8623">(checks)</text><line style="stroke:#5E5E5E;stroke-width:1.0416666666666667;" x1="226.0417" x2="293.2292" y1="555.0527" y2="555.0527"/><ellipse cx="116.1458" cy="615.8732" fill="#84BE84" rx="3.125" ry="3.125" style="stroke:#038048;stroke-width:1.0416666666666667;"/><text fill="#D8BC00" font-family="Open Sans,Avenir,Nunito,Arial,Helvetica,SansSerif" font-size="11.4583" lengthAdjust="spacing" textLength="152.0833" x="127.6042" y="622.7844">boolean contains(Location)</text><line style="stroke:#5E5E5E;stroke-width:1.0416666666666667;" x1="105.7292" x2="165.1042" y1="598.7091" y2="598.7091"/><text fill="#D8BC00" font-family="Open Sans,Avenir,Nunito,Arial,Helvetica,SansSerif" font-size="11.4583" lengthAdjust="spacing" textLength="62.5" x="168.2292" y="602.5187">(collection)</text><line style="stroke:#5E5E5E;stroke-width:1.0416666666666667;" x1="233.8542" x2="293.2292" y1="598.7091" y2="598.7091"/><rect fill="#282828" height="48.055" id="Polygon" rx="8.3333" ry="8.3333" style="stroke:#5E5E5E;stroke-width:1.0416666666666667;" width="89.5833" x="384.8958" y="758.9111"/><rect fill="#1B1B1A" height="31.3883" rx="8.3333" ry="8.3333" style="stroke:#1B1B1A;stroke-width:1.0416666666666667;" width="89.5833" x="384.8958" y="758.9111"/><rect fill="#1B1B1A" height="8.3333" style="stroke:#1B1B1A;stroke-width:1.0416666666666667;" width="89.5833" x="384.8958" y="781.9661"/><rect fill="none" height="48.055" id="Polygon" rx="8.3333" ry="8.3333" style="stroke:#5E5E5E;stroke-width:1.0416666666666667;" width="89.5833" x="384.8958" y="758.9111"/><ellipse cx="399.4792" cy="774.6053" fill="#0066CF" rx="10.4167" ry="10.4167" style="stroke:#0086EF;stroke-width:1.0416666666666667;"/><path d="M401.3896,779.0304 Q400.9623,779.2501 400.4924,779.3599 Q400.0224,779.4698 399.5036,779.4698 Q397.6603,779.4698 396.6899,778.2552 Q395.7194,777.0406 395.7194,774.7457 Q395.7194,772.4447 396.6899,771.2301 Q397.6603,770.0155 399.5036,770.0155 Q400.0224,770.0155 400.4985,770.1253 Q400.9745,770.2352 401.3896,770.4549 L401.3896,772.4569 Q400.9257,772.0296 400.4893,771.8313 Q400.0529,771.6329 399.589,771.6329 Q398.6003,771.6329 398.0967,772.4172 Q397.5932,773.2015 397.5932,774.7457 Q397.5932,776.2838 398.0967,777.0681 Q398.6003,777.8524 399.589,777.8524 Q400.0529,777.8524 400.4893,777.654 Q400.9257,777.4556 401.3896,777.0284 Z " fill="#000000"/><text fill="#D8BC00" font-family="Open Sans,Avenir,Nunito,Arial,Helvetica,SansSerif" font-size="12.5" font-weight="bold" lengthAdjust="spacing" textLength="52.0833" x="416.1458" y="779.3294">Polygon</text><line style="stroke:#5E5E5E;stroke-width:1.0416666666666667;" x1="385.9375" x2="473.4375" y1="790.2995" y2="790.2995"/><line style="stroke:#5E5E5E;stroke-width:1.0416666666666667;" x1="385.9375" x2="473.4375" y1="798.6328" y2="798.6328"/><rect fill="#282828" height="48.055" id="Rectangle" rx="8.3333" ry="8.3333" style="stroke:#5E5E5E;stroke-width:1.0416666666666667;" width="100" x="140.1042" y="758.9111"/><rect fill="#1B1B1A" height="31.3883" rx="8.3333" ry="8.3333" style="stroke:#1B1B1A;stroke-width:1.0416666666666667;" width="100" x="140.1042" y="758.9111"/><rect fill="#1B1B1A" height="8.3333" style="stroke:#1B1B1A;stroke-width:1.0416666666666667;" width="100" x="140.1042" y="781.9661"/><rect fill="none" height="48.055" id="Rectangle" rx="8.3333" ry="8.3333" style="stroke:#5E5E5E;stroke-width:1.0416666666666667;" width="100" x="140.1042" y="758.9111"/><ellipse cx="154.6875" cy="774.6053" fill="#0066CF" rx="10.4167" ry="10.4167" style="stroke:#0086EF;stroke-width:1.0416666666666667;"/><path d="M156.5979,779.0304 Q156.1707,779.2501 155.7007,779.3599 Q155.2307,779.4698 154.7119,779.4698 Q152.8687,779.4698 151.8982,778.2552 Q150.9277,777.0406 150.9277,774.7457 Q150.9277,772.4447 151.8982,771.2301 Q152.8687,770.0155 154.7119,770.0155 Q155.2307,770.0155 155.7068,770.1253 Q156.1829,770.2352 156.5979,770.4549 L156.5979,772.4569 Q156.134,772.0296 155.6976,771.8313 Q155.2612,771.6329 154.7974,771.6329 Q153.8086,771.6329 153.3051,772.4172 Q152.8015,773.2015 152.8015,774.7457 Q152.8015,776.2838 153.3051,777.0681 Q153.8086,777.8524 154.7974,777.8524 Q155.2612,777.8524 155.6976,777.654 Q156.134,777.4556 156.5979,777.0284 Z " fill="#000000"/><text fill="#D8BC00" font-family="Open Sans,Avenir,Nunito,Arial,Helvetica,SansSerif" font-size="12.5" font-weight="bold" lengthAdjust="spacing" textLength="62.5" x="171.3542" y="779.3294">Rectangle</text><line style="stroke:#5E5E5E;stroke-width:1.0416666666666667;" x1="141.1458" x2="239.0625" y1="790.2995" y2="790.2995"/><line style="stroke:#5E5E5E;stroke-width:1.0416666666666667;" x1="141.1458" x2="239.0625" y1="798.6328" y2="798.6328"/><rect fill="#282828" height="48.055" id="Leaf" rx="8.3333" ry="8.3333" style="stroke:#5E5E5E;stroke-width:1.0416666666666667;" width="64.5833" x="1125.5208" y="53.7028"/><rect fill="#1B1B1A" height="31.3883" rx="8.3333" ry="8.3333" style="stroke:#1B1B1A;stroke-width:1.0416666666666667;" width="64.5833" x="1125.5208" y="53.7028"/><rect fill="#1B1B1A" height="8.3333" style="stroke:#1B1B1A;stroke-width:1.0416666666666667;" width="64.5833" x="1125.5208" y="76.7578"/><rect fill="none" height="48.055" id="Leaf" rx="8.3333" ry="8.3333" style="stroke:#5E5E5E;stroke-width:1.0416666666666667;" width="64.5833" x="1125.5208" y="53.7028"/><ellipse cx="1140.1042" cy="69.397" fill="#0066CF" rx="10.4167" ry="10.4167" style="stroke:#0086EF;stroke-width:1.0416666666666667;"/><path d="M1142.0146,73.822 Q1141.5873,74.0417 1141.1174,74.1516 Q1140.6474,74.2615 1140.1286,74.2615 Q1138.2853,74.2615 1137.3149,73.0469 Q1136.3444,71.8323 1136.3444,69.5374 Q1136.3444,67.2363 1137.3149,66.0217 Q1138.2853,64.8071 1140.1286,64.8071 Q1140.6474,64.8071 1141.1235,64.917 Q1141.5995,65.0269 1142.0146,65.2466 L1142.0146,67.2485 Q1141.5507,66.8213 1141.1143,66.6229 Q1140.6779,66.4246 1140.214,66.4246 Q1139.2253,66.4246 1138.7217,67.2089 Q1138.2182,67.9932 1138.2182,69.5374 Q1138.2182,71.0754 1138.7217,71.8597 Q1139.2253,72.644 1140.214,72.644 Q1140.6779,72.644 1141.1143,72.4457 Q1141.5507,72.2473 1142.0146,71.8201 Z " fill="#000000"/><text fill="#D8BC00" font-family="Open Sans,Avenir,Nunito,Arial,Helvetica,SansSerif" font-size="12.5" font-weight="bold" lengthAdjust="spacing" textLength="27.0833" x="1156.7708" y="74.1211">Leaf</text><line style="stroke:#5E5E5E;stroke-width:1.0416666666666667;" x1="1126.5625" x2="1189.0625" y1="85.0911" y2="85.0911"/><line style="stroke:#5E5E5E;stroke-width:1.0416666666666667;" x1="1126.5625" x2="1189.0625" y1="93.4245" y2="93.4245"/><rect codeLine="32" fill="#282828" height="83.3781" id="BorderLeaf" rx="8.3333" ry="8.3333" style="stroke:#5E5E5E;stroke-width:1.0416666666666667;" width="442.7083" x="936.4583" y="165.1611"/><rect fill="#1B1B1A" height="31.3883" rx="8.3333" ry="8.3333" style="stroke:#1B1B1A;stroke-width:1.0416666666666667;" width="442.7083" x="936.4583" y="165.1611"/><rect fill="#1B1B1A" height="8.3333" style="stroke:#1B1B1A;stroke-width:1.0416666666666667;" width="442.7083" x="936.4583" y="188.2161"/><rect codeLine="32" fill="none" height="83.3781" id="BorderLeaf" rx="8.3333" ry="8.3333" style="stroke:#5E5E5E;stroke-width:1.0416666666666667;" width="442.7083" x="936.4583" y="165.1611"/><ellipse cx="1106.25" cy="180.8553" fill="#0066CF" rx="10.4167" ry="10.4167" style="stroke:#0086EF;stroke-width:1.0416666666666667;"/><path d="M1108.1604,185.2804 Q1107.7332,185.5001 1107.2632,185.6099 Q1106.7932,185.7198 1106.2744,185.7198 Q1104.4312,185.7198 1103.4607,184.5052 Q1102.4902,183.2906 1102.4902,180.9957 Q1102.4902,178.6947 1103.4607,177.4801 Q1104.4312,176.2655 1106.2744,176.2655 Q1106.7932,176.2655 1107.2693,176.3753 Q1107.7454,176.4852 1108.1604,176.7049 L1108.1604,178.7069 Q1107.6965,178.2796 1107.2601,178.0813 Q1106.8237,177.8829 1106.3599,177.8829 Q1105.3711,177.8829 1104.8676,178.6672 Q1104.364,179.4515 1104.364,180.9957 Q1104.364,182.5338 1104.8676,183.3181 Q1105.3711,184.1024 1106.3599,184.1024 Q1106.8237,184.1024 1107.2601,183.904 Q1107.6965,183.7056 1108.1604,183.2784 Z " fill="#000000"/><text fill="#D8BC00" font-family="Open Sans,Avenir,Nunito,Arial,Helvetica,SansSerif" font-size="12.5" font-weight="bold" lengthAdjust="spacing" textLength="69.7917" x="1129.1667" y="185.5794">BorderLeaf</text><rect fill="#333333" height="23.055" style="stroke:#A0A0A0;stroke-width:1.0416666666666667;stroke-dasharray:2.0,2.0;" width="16.6667" x="1365.625" y="162.0361"/><text fill="#A0A0A0" font-family="Open Sans,Avenir,Nunito,Arial,Helvetica,SansSerif" font-size="12.5" font-weight="bold" lengthAdjust="spacing" textLength="8.3333" x="1369.7917" y="178.2878">T</text><line style="stroke:#5E5E5E;stroke-width:1.5625;" x1="937.5" x2="1378.125" y1="196.5495" y2="196.5495"/><ellipse cx="947.9167" cy="231.9194" fill="#84BE84" rx="3.125" ry="3.125" style="stroke:#038048;stroke-width:1.0416666666666667;"/><text fill="#D8BC00" font-family="Open Sans,Avenir,Nunito,Arial,Helvetica,SansSerif" font-size="11.4583" lengthAdjust="spacing" textLength="410.4167" x="959.375" y="238.8306">BorderLeaf(RTreeSpatialIndex&lt;Border&lt;T&gt;&gt;, InteriorNode&lt;Border&lt;T&gt;&gt;)</text><line style="stroke:#5E5E5E;stroke-width:1.0416666666666667;" x1="937.5" x2="1114.0625" y1="214.7552" y2="214.7552"/><text fill="#D8BC00" font-family="Open Sans,Avenir,Nunito,Arial,Helvetica,SansSerif" font-size="11.4583" lengthAdjust="spacing" textLength="81.25" x="1117.1875" y="218.5649">(constructors)</text><line style="stroke:#5E5E5E;stroke-width:1.0416666666666667;" x1="1201.5625" x2="1378.125" y1="214.7552" y2="214.7552"/><rect fill="#282828" height="48.055" id="RTreeSpatialIndex" rx="8.3333" ry="8.3333" style="stroke:#5E5E5E;stroke-width:1.0416666666666667;" width="153.125" x="351.0417" y="53.7028"/><rect fill="#1B1B1A" height="31.3883" rx="8.3333" ry="8.3333" style="stroke:#1B1B1A;stroke-width:1.0416666666666667;" width="153.125" x="351.0417" y="53.7028"/><rect fill="#1B1B1A" height="8.3333" style="stroke:#1B1B1A;stroke-width:1.0416666666666667;" width="153.125" x="351.0417" y="76.7578"/><rect fill="none" height="48.055" id="RTreeSpatialIndex" rx="8.3333" ry="8.3333" style="stroke:#5E5E5E;stroke-width:1.0416666666666667;" width="153.125" x="351.0417" y="53.7028"/><ellipse cx="365.625" cy="69.397" fill="#0066CF" rx="10.4167" ry="10.4167" style="stroke:#0086EF;stroke-width:1.0416666666666667;"/><path d="M367.5354,73.822 Q367.1082,74.0417 366.6382,74.1516 Q366.1682,74.2615 365.6494,74.2615 Q363.8062,74.2615 362.8357,73.0469 Q361.8652,71.8323 361.8652,69.5374 Q361.8652,67.2363 362.8357,66.0217 Q363.8062,64.8071 365.6494,64.8071 Q366.1682,64.8071 366.6443,64.917 Q367.1204,65.0269 367.5354,65.2466 L367.5354,67.2485 Q367.0715,66.8213 366.6351,66.6229 Q366.1987,66.4246 365.7349,66.4246 Q364.7461,66.4246 364.2426,67.2089 Q363.739,67.9932 363.739,69.5374 Q363.739,71.0754 364.2426,71.8597 Q364.7461,72.644 365.7349,72.644 Q366.1987,72.644 366.6351,72.4457 Q367.0715,72.2473 367.5354,71.8201 Z " fill="#000000"/><text fill="#D8BC00" font-family="Open Sans,Avenir,Nunito,Arial,Helvetica,SansSerif" font-size="12.5" font-weight="bold" lengthAdjust="spacing" textLength="115.625" x="382.2917" y="74.1211">RTreeSpatialIndex</text><line style="stroke:#5E5E5E;stroke-width:1.0416666666666667;" x1="352.0833" x2="503.125" y1="85.0911" y2="85.0911"/><line style="stroke:#5E5E5E;stroke-width:1.0416666666666667;" x1="352.0833" x2="503.125" y1="93.4245" y2="93.4245"/><rect codeLine="40" fill="#282828" height="83.3781" id="BorderSpatialIndex" rx="8.3333" ry="8.3333" style="stroke:#5E5E5E;stroke-width:1.0416666666666667;" width="262.5" x="296.3542" y="165.1611"/><rect fill="#1B1B1A" height="31.3883" rx="8.3333" ry="8.3333" style="stroke:#1B1B1A;stroke-width:1.0416666666666667;" width="262.5" x="296.3542" y="165.1611"/><rect fill="#1B1B1A" height="8.3333" style="stroke:#1B1B1A;stroke-width:1.0416666666666667;" width="262.5" x="296.3542" y="188.2161"/><rect codeLine="40" fill="none" height="83.3781" id="BorderSpatialIndex" rx="8.3333" ry="8.3333" style="stroke:#5E5E5E;stroke-width:1.0416666666666667;" width="262.5" x="296.3542" y="165.1611"/><ellipse cx="350" cy="180.8553" fill="#0066CF" rx="10.4167" ry="10.4167" style="stroke:#0086EF;stroke-width:1.0416666666666667;"/><path d="M351.9104,185.2804 Q351.4832,185.5001 351.0132,185.6099 Q350.5432,185.7198 350.0244,185.7198 Q348.1812,185.7198 347.2107,184.5052 Q346.2402,183.2906 346.2402,180.9957 Q346.2402,178.6947 347.2107,177.4801 Q348.1812,176.2655 350.0244,176.2655 Q350.5432,176.2655 351.0193,176.3753 Q351.4954,176.4852 351.9104,176.7049 L351.9104,178.7069 Q351.4465,178.2796 351.0101,178.0813 Q350.5737,177.8829 350.1099,177.8829 Q349.1211,177.8829 348.6176,178.6672 Q348.114,179.4515 348.114,180.9957 Q348.114,182.5338 348.6176,183.3181 Q349.1211,184.1024 350.1099,184.1024 Q350.5737,184.1024 351.0101,183.904 Q351.4465,183.7056 351.9104,183.2784 Z " fill="#000000"/><text fill="#D8BC00" font-family="Open Sans,Avenir,Nunito,Arial,Helvetica,SansSerif" font-size="12.5" font-weight="bold" lengthAdjust="spacing" textLength="121.875" x="372.9167" y="185.5794">BorderSpatialIndex</text><rect fill="#333333" height="23.055" style="stroke:#A0A0A0;stroke-width:1.0416666666666667;stroke-dasharray:2.0,2.0;" width="16.6667" x="545.3125" y="162.0361"/><text fill="#A0A0A0" font-family="Open Sans,Avenir,Nunito,Arial,Helvetica,SansSerif" font-size="12.5" font-weight="bold" lengthAdjust="spacing" textLength="8.3333" x="549.4792" y="178.2878">T</text><line style="stroke:#5E5E5E;stroke-width:1.5625;" x1="297.3958" x2="557.8125" y1="196.5495" y2="196.5495"/><ellipse cx="307.8125" cy="231.9194" fill="#84BE84" rx="3.125" ry="3.125" style="stroke:#038048;stroke-width:1.0416666666666667;"/><text fill="#D8BC00" font-family="Open Sans,Avenir,Nunito,Arial,Helvetica,SansSerif" font-size="11.4583" lengthAdjust="spacing" textLength="230.2083" x="319.2708" y="238.8306">BorderSpatialIndex(String, RTreeSettings)</text><line style="stroke:#5E5E5E;stroke-width:1.0416666666666667;" x1="297.3958" x2="383.8542" y1="214.7552" y2="214.7552"/><text fill="#D8BC00" font-family="Open Sans,Avenir,Nunito,Arial,Helvetica,SansSerif" font-size="11.4583" lengthAdjust="spacing" textLength="81.25" x="386.9792" y="218.5649">(constructors)</text><line style="stroke:#5E5E5E;stroke-width:1.0416666666666667;" x1="471.3542" x2="557.8125" y1="214.7552" y2="214.7552"/><rect fill="#282828" height="48.055" id="RTreeSpatialIndexKryoSerializer" rx="8.3333" ry="8.3333" style="stroke:#5E5E5E;stroke-width:1.0416666666666667;" width="242.7083" x="790.625" y="53.7028"/><rect fill="#1B1B1A" height="31.3883" rx="8.3333" ry="8.3333" style="stroke:#1B1B1A;stroke-width:1.0416666666666667;" width="242.7083" x="790.625" y="53.7028"/><rect fill="#1B1B1A" height="8.3333" style="stroke:#1B1B1A;stroke-width:1.0416666666666667;" width="242.7083" x="790.625" y="76.7578"/><rect fill="none" height="48.055" id="RTreeSpatialIndexKryoSerializer" rx="8.3333" ry="8.3333" style="stroke:#5E5E5E;stroke-width:1.0416666666666667;" width="242.7083" x="790.625" y="53.7028"/><ellipse cx="805.2083" cy="69.397" fill="#0066CF" rx="10.4167" ry="10.4167" style="stroke:#0086EF;stroke-width:1.0416666666666667;"/><path d="M807.1187,73.822 Q806.6915,74.0417 806.2215,74.1516 Q805.7515,74.2615 805.2327,74.2615 Q803.3895,74.2615 802.419,73.0469 Q801.4486,71.8323 801.4486,69.5374 Q801.4486,67.2363 802.419,66.0217 Q803.3895,64.8071 805.2327,64.8071 Q805.7515,64.8071 806.2276,64.917 Q806.7037,65.0269 807.1187,65.2466 L807.1187,67.2485 Q806.6549,66.8213 806.2185,66.6229 Q805.7821,66.4246 805.3182,66.4246 Q804.3294,66.4246 803.8259,67.2089 Q803.3223,67.9932 803.3223,69.5374 Q803.3223,71.0754 803.8259,71.8597 Q804.3294,72.644 805.3182,72.644 Q805.7821,72.644 806.2185,72.4457 Q806.6549,72.2473 807.1187,71.8201 Z " fill="#000000"/><text fill="#D8BC00" font-family="Open Sans,Avenir,Nunito,Arial,Helvetica,SansSerif" font-size="12.5" font-weight="bold" lengthAdjust="spacing" textLength="205.2083" x="821.875" y="74.1211">RTreeSpatialIndexKryoSerializer</text><line style="stroke:#5E5E5E;stroke-width:1.0416666666666667;" x1="791.6667" x2="1032.2917" y1="85.0911" y2="85.0911"/><line style="stroke:#5E5E5E;stroke-width:1.0416666666666667;" x1="791.6667" x2="1032.2917" y1="93.4245" y2="93.4245"/><rect codeLine="48" fill="#282828" height="48.055" id="BorderSpatialIndexKryoSerializer" rx="8.3333" ry="8.3333" style="stroke:#5E5E5E;stroke-width:1.0416666666666667;" width="267.7083" x="595.8333" y="182.8695"/><rect fill="#1B1B1A" height="31.3883" rx="8.3333" ry="8.3333" style="stroke:#1B1B1A;stroke-width:1.0416666666666667;" width="267.7083" x="595.8333" y="182.8695"/><rect fill="#1B1B1A" height="8.3333" style="stroke:#1B1B1A;stroke-width:1.0416666666666667;" width="267.7083" x="595.8333" y="205.9245"/><rect codeLine="48" fill="none" height="48.055" id="BorderSpatialIndexKryoSerializer" rx="8.3333" ry="8.3333" style="stroke:#5E5E5E;stroke-width:1.0416666666666667;" width="267.7083" x="595.8333" y="182.8695"/><ellipse cx="610.4167" cy="198.5636" fill="#0066CF" rx="10.4167" ry="10.4167" style="stroke:#0086EF;stroke-width:1.0416666666666667;"/><path d="M612.3271,202.9887 Q611.8998,203.2084 611.4299,203.3183 Q610.9599,203.4281 610.4411,203.4281 Q608.5978,203.4281 607.6274,202.2135 Q606.6569,200.9989 606.6569,198.704 Q606.6569,196.403 607.6274,195.1884 Q608.5978,193.9738 610.4411,193.9738 Q610.9599,193.9738 611.436,194.0837 Q611.912,194.1935 612.3271,194.4132 L612.3271,196.4152 Q611.8632,195.988 611.4268,195.7896 Q610.9904,195.5912 610.5265,195.5912 Q609.5378,195.5912 609.0342,196.3755 Q608.5307,197.1598 608.5307,198.704 Q608.5307,200.2421 609.0342,201.0264 Q609.5378,201.8107 610.5265,201.8107 Q610.9904,201.8107 611.4268,201.6123 Q611.8632,201.414 612.3271,200.9867 Z " fill="#000000"/><text fill="#D8BC00" font-family="Open Sans,Avenir,Nunito,Arial,Helvetica,SansSerif" font-size="12.5" font-weight="bold" lengthAdjust="spacing" textLength="211.4583" x="627.0833" y="203.2878">BorderSpatialIndexKryoSerializer</text><rect fill="#333333" height="23.055" style="stroke:#A0A0A0;stroke-width:1.0416666666666667;stroke-dasharray:2.0,2.0;" width="16.6667" x="850" y="179.7445"/><text fill="#A0A0A0" font-family="Open Sans,Avenir,Nunito,Arial,Helvetica,SansSerif" font-size="12.5" font-weight="bold" lengthAdjust="spacing" textLength="8.3333" x="854.1667" y="195.9961">T</text><line style="stroke:#5E5E5E;stroke-width:1.0416666666666667;" x1="596.875" x2="862.5" y1="214.2578" y2="214.2578"/><line style="stroke:#5E5E5E;stroke-width:1.0416666666666667;" x1="596.875" x2="862.5" y1="222.5911" y2="222.5911"/><rect codeLine="53" fill="#282828" height="87.5448" id="Bordered" rx="8.3333" ry="8.3333" style="stroke:#5E5E5E;stroke-width:1.0416666666666667;" width="208.3333" x="389.0625" y="449.5361"/><rect fill="#1B1B1A" height="31.3883" rx="8.3333" ry="8.3333" style="stroke:#1B1B1A;stroke-width:1.0416666666666667;" width="208.3333" x="389.0625" y="449.5361"/><rect fill="#1B1B1A" height="8.3333" style="stroke:#1B1B1A;stroke-width:1.0416666666666667;" width="208.3333" x="389.0625" y="472.5911"/><rect codeLine="53" fill="none" height="87.5448" id="Bordered" rx="8.3333" ry="8.3333" style="stroke:#5E5E5E;stroke-width:1.0416666666666667;" width="208.3333" x="389.0625" y="449.5361"/><ellipse cx="456.7708" cy="465.2303" fill="#008400" rx="10.4167" ry="10.4167" style="stroke:#239C23;stroke-width:1.0416666666666667;"/><path d="M454.1748,462.3922 L454.1748,460.8053 L459.6008,460.8053 L459.6008,462.3922 L457.7881,462.3922 L457.7881,468.3309 L459.6008,468.3309 L459.6008,469.9178 L454.1748,469.9178 L454.1748,468.3309 L455.9875,468.3309 L455.9875,462.3922 Z " fill="#000000"/><text fill="#D8BC00" font-family="Open Sans,Avenir,Nunito,Arial,Helvetica,SansSerif" font-size="12.5" font-style="italic" font-weight="bold" lengthAdjust="spacing" textLength="58.3333" x="479.6875" y="469.9544">Bordered</text><line style="stroke:#5E5E5E;stroke-width:1.5625;" x1="390.1042" x2="596.3542" y1="480.9245" y2="480.9245"/><line style="stroke:#5E5E5E;stroke-width:1.0416666666666667;" x1="390.1042" x2="596.3542" y1="489.2578" y2="489.2578"/><ellipse cx="400.5208" cy="500.7161" fill="#84BE84" rx="3.125" ry="3.125" style="stroke:#038048;stroke-width:1.0416666666666667;"/><text fill="#D8BC00" font-family="Open Sans,Avenir,Nunito,Arial,Helvetica,SansSerif" font-size="11.4583" lengthAdjust="spacing" textLength="176.0417" x="411.9792" y="507.6274">Collection&lt;Polygon&gt; borders()</text><ellipse cx="400.5208" cy="520.461" fill="#84BE84" rx="3.125" ry="3.125" style="stroke:#038048;stroke-width:1.0416666666666667;"/><text fill="#D8BC00" font-family="Open Sans,Avenir,Nunito,Arial,Helvetica,SansSerif" font-size="11.4583" lengthAdjust="spacing" textLength="133.3333" x="411.9792" y="527.3722">RegionIdentity identity()</text><path codeLine="11" d="M76.1042,249.9215 C90.3646,277.932 109.9896,316.4736 129.3854,354.5882 " fill="none" id="Bounded-backto-Border" style="stroke:#545454;stroke-width:1.5625;"/><polygon fill="none" points="69.4896,253.0153,66.5313,231.1403,82.4896,246.4007,69.4896,253.0153" style="stroke:#545454;stroke-width:1.5625;"/><path codeLine="12" d="M199.4792,251.9945 C199.4792,279.8174 199.4792,317.4111 199.4792,354.5882 " fill="none" id="Intersectable-backto-Border" style="stroke:#545454;stroke-width:1.5625;"/><polygon fill="none" points="192.1875,251.9736,199.4792,231.1403,206.7708,251.9736,192.1875,251.9736" style="stroke:#545454;stroke-width:1.5625;"/><path codeLine="13" d="M302.6563,636.5674 C320.9271,660.3903 340.1042,684.5778 358.8542,706.8278 C374.0833,724.9111 392.4479,744.2861 406.6563,758.807 " fill="none" id="Border-backto-Polygon" style="stroke:#545454;stroke-width:1.5625;"/><polygon fill="#333333" points="294.3229,625.6611,294.7989,633.1576,301.9018,635.6015,301.4258,628.105,294.3229,625.6611" style="stroke:#545454;stroke-width:1.5625;"/><text fill="#A0A0A0" font-family="Open Sans,Avenir,Nunito,Arial,Helvetica,SansSerif" font-size="12.5" font-weight="bold" lengthAdjust="spacing" textLength="77.0833" x="363.0208" y="700.1628">bounded by</text><path codeLine="14" d="M187.6146,645.7861 C186.875,666.2965 186.5729,687.0674 186.9792,706.8278 C187.3438,724.2861 188.1771,744.0153 188.8958,758.859 " fill="none" id="Border-backto-Rectangle" style="stroke:#545454;stroke-width:1.5625;"/><polygon fill="#333333" points="188.1771,632.0049,183.7599,638.0804,187.6693,644.4946,192.0864,638.419,188.1771,632.0049" style="stroke:#545454;stroke-width:1.5625;"/><text fill="#A0A0A0" font-family="Open Sans,Avenir,Nunito,Arial,Helvetica,SansSerif" font-size="12.5" font-weight="bold" lengthAdjust="spacing" textLength="126.0417" x="191.1458" y="700.1628">bounding rectangle</text><path codeLine="31" d="M1157.8125,122.9424 C1157.8125,136.5882 1157.8125,151.5465 1157.8125,164.9528 " fill="none" id="Leaf-backto-BorderLeaf" style="stroke:#545454;stroke-width:1.5625;"/><polygon fill="none" points="1150.5208,122.5465,1157.8125,101.7132,1165.1042,122.5465,1150.5208,122.5465" style="stroke:#545454;stroke-width:1.5625;"/><path codeLine="38" d="M427.6042,122.9424 C427.6042,136.5882 427.6042,151.5465 427.6042,164.9528 " fill="none" id="RTreeSpatialIndex-backto-BorderSpatialIndex" style="stroke:#545454;stroke-width:1.5625;"/><polygon fill="none" points="420.3125,122.5465,427.6042,101.7132,434.8958,122.5465,420.3125,122.5465" style="stroke:#545454;stroke-width:1.5625;"/><path codeLine="39" d="M394.9167,248.609 C369.4375,280.3799 332.6458,326.234 297.8542,369.6195 " fill="none" id="BorderSpatialIndex-to-Border" style="stroke:#545454;stroke-width:1.5625;"/><polygon fill="#545454" points="294.4896,373.807,303.606,369.1014,297.7486,369.7443,297.1058,363.8869,294.4896,373.807" style="stroke:#545454;stroke-width:1.5625;"/><text fill="#A0A0A0" font-family="Open Sans,Avenir,Nunito,Arial,Helvetica,SansSerif" font-size="12.5" font-weight="bold" lengthAdjust="spacing" textLength="50" x="371.3542" y="295.9961">indexes</text><text fill="#A0A0A0" font-family="Open Sans,Avenir,Nunito,Arial,Helvetica,SansSerif" font-size="12.5" font-weight="bold" lengthAdjust="spacing" textLength="18.75" x="305.8458" y="358.2183">1+</text><path codeLine="46" d="M861.5104,113.8903 C829.9896,135.859 790.3125,163.5257 762.7604,182.734 " fill="none" id="RTreeSpatialIndexKryoSerializer-backto-BorderSpatialIndexKryoSerializer" style="stroke:#545454;stroke-width:1.5625;"/><polygon fill="none" points="857.7083,107.6507,878.9688,101.7132,866.0521,119.609,857.7083,107.6507" style="stroke:#545454;stroke-width:1.5625;"/><path codeLine="47" d="M705.6667,122.057 C711.4792,142.3174 718.1667,165.6403 723.0104,182.5153 " fill="none" id="Configurable-backto-BorderSpatialIndexKryoSerializer" style="stroke:#545454;stroke-width:1.5625;"/><polygon fill="none" points="698.5625,123.7549,699.8333,101.7132,712.5833,119.734,698.5625,123.7549" style="stroke:#545454;stroke-width:1.5625;"/><path codeLine="52" d="M486.4063,537.359 C479.2292,580.4945 467,648.6715 452.6042,706.8278 C448.7292,722.484 443.5313,739.7028 439.0729,753.7028 " fill="none" id="Bordered-to-Polygon" style="stroke:#545454;stroke-width:1.5625;"/><polygon fill="#545454" points="437.4583,758.6924,444.2932,751.0415,439.0516,753.7337,436.3594,748.4922,437.4583,758.6924" style="stroke:#545454;stroke-width:1.5625;"/><text fill="#A0A0A0" font-family="Open Sans,Avenir,Nunito,Arial,Helvetica,SansSerif" font-size="12.5" font-weight="bold" lengthAdjust="spacing" textLength="77.0833" x="463.0208" y="700.1628">bounded by</text><text fill="#A0A0A0" font-family="Open Sans,Avenir,Nunito,Arial,Helvetica,SansSerif" font-size="12.5" font-weight="bold" lengthAdjust="spacing" textLength="8.3333" x="472.8748" y="560.579">1</text><text fill="#A0A0A0" font-family="Open Sans,Avenir,Nunito,Arial,Helvetica,SansSerif" font-size="12.5" font-weight="bold" lengthAdjust="spacing" textLength="18.75" x="414.4306" y="744.6368">1+</text></g></svg>
