<?xml version="1.0" encoding="UTF-8" standalone="no"?><svg xmlns="http://www.w3.org/2000/svg" xmlns:xlink="http://www.w3.org/1999/xlink" contentScriptType="application/ecmascript" contentStyleType="text/css" height="468.75px" preserveAspectRatio="none" style="width:490px;height:468px;background:#333333;" version="1.1" viewBox="0 0 490 468" width="490.625px" zoomAndPan="magnify"><defs/><g><rect fill="#48494B" height="41.2028" rx="8.3333" ry="8.3333" style="stroke:#545454;stroke-width:1.0416666666666667;" width="413.5417" x="31.5104" y="2.0833"/><text fill="#C0C0C0" font-family="Open Sans,Avenir,Nunito,Arial,Helvetica,SansSerif" font-size="20.8333" lengthAdjust="spacing" textLength="390.625" x="42.9688" y="30.5583">com.telenav.mesakit.map.region.locale</text><rect codeLine="7" fill="#282828" height="150.946" id="HascCode" rx="8.3333" ry="8.3333" style="stroke:#5E5E5E;stroke-width:1.0416666666666667;" width="194.7917" x="7.2917" y="53.7028"/><rect fill="#1B1B1A" height="31.3883" rx="8.3333" ry="8.3333" style="stroke:#1B1B1A;stroke-width:1.0416666666666667;" width="194.7917" x="7.2917" y="53.7028"/><rect fill="#1B1B1A" height="8.3333" style="stroke:#1B1B1A;stroke-width:1.0416666666666667;" width="194.7917" x="7.2917" y="76.7578"/><rect codeLine="7" fill="none" height="150.946" id="HascCode" rx="8.3333" ry="8.3333" style="stroke:#5E5E5E;stroke-width:1.0416666666666667;" width="194.7917" x="7.2917" y="53.7028"/><ellipse cx="65.625" cy="69.397" fill="#0066CF" rx="10.4167" ry="10.4167" style="stroke:#0086EF;stroke-width:1.0416666666666667;"/><path d="M67.5354,73.822 Q67.1082,74.0417 66.6382,74.1516 Q66.1682,74.2615 65.6494,74.2615 Q63.8062,74.2615 62.8357,73.0469 Q61.8652,71.8323 61.8652,69.5374 Q61.8652,67.2363 62.8357,66.0217 Q63.8062,64.8071 65.6494,64.8071 Q66.1682,64.8071 66.6443,64.917 Q67.1204,65.0269 67.5354,65.2466 L67.5354,67.2485 Q67.0715,66.8213 66.6351,66.6229 Q66.1987,66.4246 65.7349,66.4246 Q64.7461,66.4246 64.2426,67.2089 Q63.739,67.9932 63.739,69.5374 Q63.739,71.0754 64.2426,71.8597 Q64.7461,72.644 65.7349,72.644 Q66.1987,72.644 66.6351,72.4457 Q67.0715,72.2473 67.5354,71.8201 Z " fill="#000000"/><text fill="#D8BC00" font-family="Open Sans,Avenir,Nunito,Arial,Helvetica,SansSerif" font-size="12.5" font-weight="bold" lengthAdjust="spacing" textLength="63.5417" x="88.5417" y="74.1211">HascCode</text><line style="stroke:#5E5E5E;stroke-width:1.5625;" x1="8.3333" x2="201.0417" y1="85.0911" y2="85.0911"/><line style="stroke:#5E5E5E;stroke-width:1.0416666666666667;" x1="8.3333" x2="201.0417" y1="93.4245" y2="93.4245"/><ellipse cx="18.75" cy="104.8828" fill="#84BE84" rx="3.125" ry="3.125" style="stroke:#038048;stroke-width:1.0416666666666667;"/><text fill="#D8BC00" font-family="Open Sans,Avenir,Nunito,Arial,Helvetica,SansSerif" font-size="11.4583" lengthAdjust="spacing" textLength="71.875" x="30.2083" y="111.794">String code()</text><ellipse cx="18.75" cy="124.6277" fill="#84BE84" rx="3.125" ry="3.125" style="stroke:#038048;stroke-width:1.0416666666666667;"/><text fill="#D8BC00" font-family="Open Sans,Avenir,Nunito,Arial,Helvetica,SansSerif" font-size="11.4583" lengthAdjust="spacing" textLength="101.0417" x="30.2083" y="131.5389">Country country()</text><ellipse cx="18.75" cy="144.3726" fill="#84BE84" rx="3.125" ry="3.125" style="stroke:#038048;stroke-width:1.0416666666666667;"/><text fill="#D8BC00" font-family="Open Sans,Avenir,Nunito,Arial,Helvetica,SansSerif" font-size="11.4583" lengthAdjust="spacing" textLength="65.625" x="30.2083" y="151.2838">State state()</text><ellipse cx="18.75" cy="188.029" fill="#84BE84" rx="3.125" ry="3.125" style="stroke:#038048;stroke-width:1.0416666666666667;"/><text fill="#D8BC00" font-family="Open Sans,Avenir,Nunito,Arial,Helvetica,SansSerif" font-size="11.4583" lengthAdjust="spacing" textLength="162.5" x="30.2083" y="194.9402">HascCode parse(String code)</text><line style="stroke:#5E5E5E;stroke-width:1.0416666666666667;" x1="8.3333" x2="76.0417" y1="170.8649" y2="170.8649"/><text fill="#D8BC00" font-family="Open Sans,Avenir,Nunito,Arial,Helvetica,SansSerif" font-size="11.4583" lengthAdjust="spacing" textLength="51.0417" x="79.1667" y="174.6745">(parsing)</text><line style="stroke:#5E5E5E;stroke-width:1.0416666666666667;" x1="133.3333" x2="201.0417" y1="170.8649" y2="170.8649"/><rect fill="#282828" height="48.055" id="Locale" rx="8.3333" ry="8.3333" style="stroke:#5E5E5E;stroke-width:1.0416666666666667;" width="78.125" x="238.5417" y="105.2653"/><rect fill="#1B1B1A" height="31.3883" rx="8.3333" ry="8.3333" style="stroke:#1B1B1A;stroke-width:1.0416666666666667;" width="78.125" x="238.5417" y="105.2653"/><rect fill="#1B1B1A" height="8.3333" style="stroke:#1B1B1A;stroke-width:1.0416666666666667;" width="78.125" x="238.5417" y="128.3203"/><rect fill="none" height="48.055" id="Locale" rx="8.3333" ry="8.3333" style="stroke:#5E5E5E;stroke-width:1.0416666666666667;" width="78.125" x="238.5417" y="105.2653"/><ellipse cx="253.125" cy="120.9595" fill="#0066CF" rx="10.4167" ry="10.4167" style="stroke:#0086EF;stroke-width:1.0416666666666667;"/><path d="M255.0354,125.3845 Q254.6082,125.6042 254.1382,125.7141 Q253.6682,125.824 253.1494,125.824 Q251.3062,125.824 250.3357,124.6094 Q249.3652,123.3948 249.3652,121.0999 Q249.3652,118.7988 250.3357,117.5842 Q251.3062,116.3696 253.1494,116.3696 Q253.6682,116.3696 254.1443,116.4795 Q254.6204,116.5894 255.0354,116.8091 L255.0354,118.811 Q254.5715,118.3838 254.1351,118.1854 Q253.6987,117.9871 253.2349,117.9871 Q252.2461,117.9871 251.7426,118.7714 Q251.239,119.5557 251.239,121.0999 Q251.239,122.6379 251.7426,123.4222 Q252.2461,124.2065 253.2349,124.2065 Q253.6987,124.2065 254.1351,124.0082 Q254.5715,123.8098 255.0354,123.3826 Z " fill="#000000"/><text fill="#D8BC00" font-family="Open Sans,Avenir,Nunito,Arial,Helvetica,SansSerif" font-size="12.5" font-weight="bold" lengthAdjust="spacing" textLength="40.625" x="269.7917" y="125.6836">Locale</text><line style="stroke:#5E5E5E;stroke-width:1.0416666666666667;" x1="239.5833" x2="315.625" y1="136.6536" y2="136.6536"/><line style="stroke:#5E5E5E;stroke-width:1.0416666666666667;" x1="239.5833" x2="315.625" y1="144.987" y2="144.987"/><rect codeLine="18" fill="#282828" height="194.6025" id="MapLocale" rx="8.3333" ry="8.3333" style="stroke:#5E5E5E;stroke-width:1.0416666666666667;" width="412.5" x="71.3542" y="267.2445"/><rect fill="#1B1B1A" height="31.3883" rx="8.3333" ry="8.3333" style="stroke:#1B1B1A;stroke-width:1.0416666666666667;" width="412.5" x="71.3542" y="267.2445"/><rect fill="#1B1B1A" height="8.3333" style="stroke:#1B1B1A;stroke-width:1.0416666666666667;" width="412.5" x="71.3542" y="290.2995"/><rect codeLine="18" fill="none" height="194.6025" id="MapLocale" rx="8.3333" ry="8.3333" style="stroke:#5E5E5E;stroke-width:1.0416666666666667;" width="412.5" x="71.3542" y="267.2445"/><ellipse cx="236.4583" cy="282.9386" fill="#0066CF" rx="10.4167" ry="10.4167" style="stroke:#0086EF;stroke-width:1.0416666666666667;"/><path d="M238.3687,287.3637 Q237.9415,287.5834 237.4715,287.6933 Q237.0015,287.8031 236.4827,287.8031 Q234.6395,287.8031 233.669,286.5885 Q232.6986,285.3739 232.6986,283.079 Q232.6986,280.778 233.669,279.5634 Q234.6395,278.3488 236.4827,278.3488 Q237.0015,278.3488 237.4776,278.4587 Q237.9537,278.5685 238.3687,278.7882 L238.3687,280.7902 Q237.9049,280.363 237.4685,280.1646 Q237.0321,279.9662 236.5682,279.9662 Q235.5794,279.9662 235.0759,280.7505 Q234.5723,281.5348 234.5723,283.079 Q234.5723,284.6171 235.0759,285.4014 Q235.5794,286.1857 236.5682,286.1857 Q237.0321,286.1857 237.4685,285.9873 Q237.9049,285.789 238.3687,285.3617 Z " fill="#000000"/><text fill="#D8BC00" font-family="Open Sans,Avenir,Nunito,Arial,Helvetica,SansSerif" font-size="12.5" font-weight="bold" lengthAdjust="spacing" textLength="67.7083" x="259.375" y="287.6628">MapLocale</text><line style="stroke:#5E5E5E;stroke-width:1.5625;" x1="72.3958" x2="482.8125" y1="298.6328" y2="298.6328"/><ellipse cx="82.8125" cy="334.0027" fill="#84BE84" rx="3.125" ry="3.125" style="stroke:#038048;stroke-width:1.0416666666666667;"/><text fill="#D8BC00" font-family="Open Sans,Avenir,Nunito,Arial,Helvetica,SansSerif" font-size="11.4583" lengthAdjust="spacing" textLength="192.7083" x="94.2708" y="340.9139">MapLocale(LocaleRegion, Country)</text><ellipse cx="82.8125" cy="353.7476" fill="#84BE84" rx="3.125" ry="3.125" style="stroke:#038048;stroke-width:1.0416666666666667;"/><text fill="#D8BC00" font-family="Open Sans,Avenir,Nunito,Arial,Helvetica,SansSerif" font-size="11.4583" lengthAdjust="spacing" textLength="380.2083" x="94.2708" y="360.6588">MapLocale(LocaleRegion, Region&lt;?&gt;, Collection&lt;LocaleLanguage&gt;)</text><ellipse cx="82.8125" cy="373.4924" fill="#84BE84" rx="3.125" ry="3.125" style="stroke:#038048;stroke-width:1.0416666666666667;"/><text fill="#D8BC00" font-family="Open Sans,Avenir,Nunito,Arial,Helvetica,SansSerif" font-size="11.4583" lengthAdjust="spacing" textLength="305.2083" x="94.2708" y="380.4036">MapLocale(LocaleRegion, Region&lt;?&gt;, LocaleLanguage)</text><line style="stroke:#5E5E5E;stroke-width:1.0416666666666667;" x1="72.3958" x2="233.8542" y1="316.8386" y2="316.8386"/><text fill="#D8BC00" font-family="Open Sans,Avenir,Nunito,Arial,Helvetica,SansSerif" font-size="11.4583" lengthAdjust="spacing" textLength="81.25" x="236.9792" y="320.6482">(constructors)</text><line style="stroke:#5E5E5E;stroke-width:1.0416666666666667;" x1="321.3542" x2="482.8125" y1="316.8386" y2="316.8386"/><line style="stroke:#5E5E5E;stroke-width:1.0416666666666667;" x1="72.3958" x2="482.8125" y1="390.1123" y2="390.1123"/><ellipse cx="82.8125" cy="401.5706" fill="#84BE84" rx="3.125" ry="3.125" style="stroke:#038048;stroke-width:1.0416666666666667;"/><text fill="#D8BC00" font-family="Open Sans,Avenir,Nunito,Arial,Helvetica,SansSerif" font-size="11.4583" lengthAdjust="spacing" textLength="228.125" x="94.2708" y="408.4819">T create(PackageReference, String suffix)</text><ellipse cx="82.8125" cy="445.2271" fill="#84BE84" rx="3.125" ry="3.125" style="stroke:#038048;stroke-width:1.0416666666666667;"/><text fill="#D8BC00" font-family="Open Sans,Avenir,Nunito,Arial,Helvetica,SansSerif" font-size="11.4583" lengthAdjust="spacing" textLength="136.4583" x="94.2708" y="452.1383">Region&lt;?&gt; mapRegion()</text><line style="stroke:#5E5E5E;stroke-width:1.0416666666666667;" x1="72.3958" x2="243.2292" y1="428.0629" y2="428.0629"/><text fill="#D8BC00" font-family="Open Sans,Avenir,Nunito,Arial,Helvetica,SansSerif" font-size="11.4583" lengthAdjust="spacing" textLength="62.5" x="246.3542" y="431.8726">(collection)</text><line style="stroke:#5E5E5E;stroke-width:1.0416666666666667;" x1="311.9792" x2="482.8125" y1="428.0629" y2="428.0629"/><path codeLine="17" d="M277.6042,174.5674 C277.6042,200.7236 277.6042,234.9007 277.6042,266.9945 " fill="none" id="Locale-backto-MapLocale" style="stroke:#545454;stroke-width:1.5625;"/><polygon fill="none" points="270.3125,174.3278,277.6042,153.4945,284.8958,174.3278,270.3125,174.3278" style="stroke:#545454;stroke-width:1.5625;"/></g></svg>
