<?xml version="1.0" encoding="UTF-8" standalone="no"?><svg xmlns="http://www.w3.org/2000/svg" xmlns:xlink="http://www.w3.org/1999/xlink" contentScriptType="application/ecmascript" contentStyleType="text/css" height="1259.375px" preserveAspectRatio="none" style="width:1172px;height:1259px;background:#333333;" version="1.1" viewBox="0 0 1172 1259" width="1172.9167px" zoomAndPan="magnify"><defs/><g><rect fill="#48494B" height="41.2028" rx="8.3333" ry="8.3333" style="stroke:#545454;stroke-width:1.0416666666666667;" width="220.8333" x="469.0104" y="2.0833"/><text fill="#C0C0C0" font-family="Open Sans,Avenir,Nunito,Arial,Helvetica,SansSerif" font-size="20.8333" lengthAdjust="spacing" textLength="197.9167" x="480.4688" y="30.5583">Geographic borders</text><rect codeLine="7" fill="#282828" height="48.055" id="BaseComponent" rx="8.3333" ry="8.3333" style="stroke:#5E5E5E;stroke-width:1.0416666666666667;" width="143.75" x="125.5208" y="53.7028"/><rect fill="#1B1B1A" height="31.3883" rx="8.3333" ry="8.3333" style="stroke:#1B1B1A;stroke-width:1.0416666666666667;" width="143.75" x="125.5208" y="53.7028"/><rect fill="#1B1B1A" height="8.3333" style="stroke:#1B1B1A;stroke-width:1.0416666666666667;" width="143.75" x="125.5208" y="76.7578"/><rect codeLine="7" fill="none" height="48.055" id="BaseComponent" rx="8.3333" ry="8.3333" style="stroke:#5E5E5E;stroke-width:1.0416666666666667;" width="143.75" x="125.5208" y="53.7028"/><ellipse cx="140.1042" cy="69.397" fill="#C8AC00" rx="10.4167" ry="10.4167" style="stroke:#D8BC00;stroke-width:1.0416666666666667;"/><path d="M139.6973,66.099 L138.8489,69.8283 L140.5518,69.8283 Z M138.5986,64.4511 L140.802,64.4511 L143.2617,73.5636 L141.4612,73.5636 L140.8997,71.3114 L138.4888,71.3114 L137.9395,73.5636 L136.1389,73.5636 Z " fill="#000000"/><text fill="#D8BC00" font-family="Open Sans,Avenir,Nunito,Arial,Helvetica,SansSerif" font-size="12.5" font-style="italic" font-weight="bold" lengthAdjust="spacing" textLength="106.25" x="156.7708" y="74.1211">BaseComponent</text><line style="stroke:#5E5E5E;stroke-width:1.0416666666666667;" x1="126.5625" x2="268.2292" y1="85.0911" y2="85.0911"/><line style="stroke:#5E5E5E;stroke-width:1.0416666666666667;" x1="126.5625" x2="268.2292" y1="93.4245" y2="93.4245"/><rect codeLine="9" fill="#282828" height="48.055" id="Bounded" rx="8.3333" ry="8.3333" style="stroke:#5E5E5E;stroke-width:1.0416666666666667;" width="94.7917" x="720.8333" y="628.7028"/><rect fill="#1B1B1A" height="31.3883" rx="8.3333" ry="8.3333" style="stroke:#1B1B1A;stroke-width:1.0416666666666667;" width="94.7917" x="720.8333" y="628.7028"/><rect fill="#1B1B1A" height="8.3333" style="stroke:#1B1B1A;stroke-width:1.0416666666666667;" width="94.7917" x="720.8333" y="651.7578"/><rect codeLine="9" fill="none" height="48.055" id="Bounded" rx="8.3333" ry="8.3333" style="stroke:#5E5E5E;stroke-width:1.0416666666666667;" width="94.7917" x="720.8333" y="628.7028"/><ellipse cx="735.4167" cy="644.397" fill="#008400" rx="10.4167" ry="10.4167" style="stroke:#239C23;stroke-width:1.0416666666666667;"/><path d="M732.8206,641.5588 L732.8206,639.9719 L738.2467,639.9719 L738.2467,641.5588 L736.4339,641.5588 L736.4339,647.4976 L738.2467,647.4976 L738.2467,649.0845 L732.8206,649.0845 L732.8206,647.4976 L734.6334,647.4976 L734.6334,641.5588 Z " fill="#000000"/><text fill="#D8BC00" font-family="Open Sans,Avenir,Nunito,Arial,Helvetica,SansSerif" font-size="12.5" font-style="italic" font-weight="bold" lengthAdjust="spacing" textLength="57.2917" x="752.0833" y="649.1211">Bounded</text><line style="stroke:#5E5E5E;stroke-width:1.0416666666666667;" x1="721.875" x2="814.5833" y1="660.0911" y2="660.0911"/><line style="stroke:#5E5E5E;stroke-width:1.0416666666666667;" x1="721.875" x2="814.5833" y1="668.4245" y2="668.4245"/><rect codeLine="10" fill="#282828" height="48.055" id="ProjectTrait" rx="8.3333" ry="8.3333" style="stroke:#5E5E5E;stroke-width:1.0416666666666667;" width="111.4583" x="306.25" y="53.7028"/><rect fill="#1B1B1A" height="31.3883" rx="8.3333" ry="8.3333" style="stroke:#1B1B1A;stroke-width:1.0416666666666667;" width="111.4583" x="306.25" y="53.7028"/><rect fill="#1B1B1A" height="8.3333" style="stroke:#1B1B1A;stroke-width:1.0416666666666667;" width="111.4583" x="306.25" y="76.7578"/><rect codeLine="10" fill="none" height="48.055" id="ProjectTrait" rx="8.3333" ry="8.3333" style="stroke:#5E5E5E;stroke-width:1.0416666666666667;" width="111.4583" x="306.25" y="53.7028"/><ellipse cx="320.8333" cy="69.397" fill="#008400" rx="10.4167" ry="10.4167" style="stroke:#239C23;stroke-width:1.0416666666666667;"/><path d="M318.2373,66.5588 L318.2373,64.9719 L323.6633,64.9719 L323.6633,66.5588 L321.8506,66.5588 L321.8506,72.4976 L323.6633,72.4976 L323.6633,74.0845 L318.2373,74.0845 L318.2373,72.4976 L320.05,72.4976 L320.05,66.5588 Z " fill="#000000"/><text fill="#D8BC00" font-family="Open Sans,Avenir,Nunito,Arial,Helvetica,SansSerif" font-size="12.5" font-style="italic" font-weight="bold" lengthAdjust="spacing" textLength="73.9583" x="337.5" y="74.1211">ProjectTrait</text><line style="stroke:#5E5E5E;stroke-width:1.0416666666666667;" x1="307.2917" x2="416.6667" y1="85.0911" y2="85.0911"/><line style="stroke:#5E5E5E;stroke-width:1.0416666666666667;" x1="307.2917" x2="416.6667" y1="93.4245" y2="93.4245"/><rect codeLine="11" fill="#282828" height="48.055" id="Intersectable" rx="8.3333" ry="8.3333" style="stroke:#5E5E5E;stroke-width:1.0416666666666667;" width="120.8333" x="852.6042" y="628.7028"/><rect fill="#1B1B1A" height="31.3883" rx="8.3333" ry="8.3333" style="stroke:#1B1B1A;stroke-width:1.0416666666666667;" width="120.8333" x="852.6042" y="628.7028"/><rect fill="#1B1B1A" height="8.3333" style="stroke:#1B1B1A;stroke-width:1.0416666666666667;" width="120.8333" x="852.6042" y="651.7578"/><rect codeLine="11" fill="none" height="48.055" id="Intersectable" rx="8.3333" ry="8.3333" style="stroke:#5E5E5E;stroke-width:1.0416666666666667;" width="120.8333" x="852.6042" y="628.7028"/><ellipse cx="867.1875" cy="644.397" fill="#008400" rx="10.4167" ry="10.4167" style="stroke:#239C23;stroke-width:1.0416666666666667;"/><path d="M864.5915,641.5588 L864.5915,639.9719 L870.0175,639.9719 L870.0175,641.5588 L868.2048,641.5588 L868.2048,647.4976 L870.0175,647.4976 L870.0175,649.0845 L864.5915,649.0845 L864.5915,647.4976 L866.4042,647.4976 L866.4042,641.5588 Z " fill="#000000"/><text fill="#D8BC00" font-family="Open Sans,Avenir,Nunito,Arial,Helvetica,SansSerif" font-size="12.5" font-style="italic" font-weight="bold" lengthAdjust="spacing" textLength="83.3333" x="883.8542" y="649.1211">Intersectable</text><line style="stroke:#5E5E5E;stroke-width:1.0416666666666667;" x1="853.6458" x2="972.3958" y1="660.0911" y2="660.0911"/><line style="stroke:#5E5E5E;stroke-width:1.0416666666666667;" x1="853.6458" x2="972.3958" y1="668.4245" y2="668.4245"/><rect codeLine="17" fill="#282828" height="277.7486" id="Border" rx="8.3333" ry="8.3333" style="stroke:#5E5E5E;stroke-width:1.0416666666666667;" width="189.5833" x="673.4375" y="800.5778"/><rect fill="#1B1B1A" height="31.3883" rx="8.3333" ry="8.3333" style="stroke:#1B1B1A;stroke-width:1.0416666666666667;" width="189.5833" x="673.4375" y="800.5778"/><rect fill="#1B1B1A" height="8.3333" style="stroke:#1B1B1A;stroke-width:1.0416666666666667;" width="189.5833" x="673.4375" y="823.6328"/><rect codeLine="17" fill="none" height="277.7486" id="Border" rx="8.3333" ry="8.3333" style="stroke:#5E5E5E;stroke-width:1.0416666666666667;" width="189.5833" x="673.4375" y="800.5778"/><ellipse cx="730.2083" cy="816.272" fill="#0066CF" rx="10.4167" ry="10.4167" style="stroke:#0086EF;stroke-width:1.0416666666666667;"/><path d="M732.1187,820.697 Q731.6915,820.9167 731.2215,821.0266 Q730.7515,821.1365 730.2327,821.1365 Q728.3895,821.1365 727.419,819.9219 Q726.4486,818.7073 726.4486,816.4124 Q726.4486,814.1113 727.419,812.8967 Q728.3895,811.6821 730.2327,811.6821 Q730.7515,811.6821 731.2276,811.792 Q731.7037,811.9019 732.1187,812.1216 L732.1187,814.1235 Q731.6549,813.6963 731.2185,813.4979 Q730.7821,813.2996 730.3182,813.2996 Q729.3294,813.2996 728.8259,814.0839 Q728.3223,814.8682 728.3223,816.4124 Q728.3223,817.9504 728.8259,818.7347 Q729.3294,819.519 730.3182,819.519 Q730.7821,819.519 731.2185,819.3207 Q731.6549,819.1223 732.1187,818.6951 Z " fill="#000000"/><text fill="#D8BC00" font-family="Open Sans,Avenir,Nunito,Arial,Helvetica,SansSerif" font-size="12.5" font-weight="bold" lengthAdjust="spacing" textLength="42.7083" x="753.125" y="820.9961">Border</text><rect fill="#333333" height="23.055" style="stroke:#A0A0A0;stroke-width:1.0416666666666667;stroke-dasharray:2.0,2.0;" width="16.6667" x="849.4792" y="797.4528"/><text fill="#A0A0A0" font-family="Open Sans,Avenir,Nunito,Arial,Helvetica,SansSerif" font-size="12.5" font-weight="bold" lengthAdjust="spacing" textLength="8.3333" x="853.6458" y="813.7044">T</text><line style="stroke:#5E5E5E;stroke-width:1.5625;" x1="674.4792" x2="861.9792" y1="831.9661" y2="831.9661"/><ellipse cx="684.8958" cy="867.336" fill="#84BE84" rx="3.125" ry="3.125" style="stroke:#038048;stroke-width:1.0416666666666667;"/><text fill="#D8BC00" font-family="Open Sans,Avenir,Nunito,Arial,Helvetica,SansSerif" font-size="11.4583" lengthAdjust="spacing" textLength="104.1667" x="696.3542" y="874.2472">Border(T, Polygon)</text><line style="stroke:#5E5E5E;stroke-width:1.0416666666666667;" x1="674.4792" x2="724.4792" y1="850.1719" y2="850.1719"/><text fill="#D8BC00" font-family="Open Sans,Avenir,Nunito,Arial,Helvetica,SansSerif" font-size="11.4583" lengthAdjust="spacing" textLength="81.25" x="727.6042" y="853.9815">(constructors)</text><line style="stroke:#5E5E5E;stroke-width:1.0416666666666667;" x1="811.9792" x2="861.9792" y1="850.1719" y2="850.1719"/><line style="stroke:#5E5E5E;stroke-width:1.0416666666666667;" x1="674.4792" x2="861.9792" y1="883.9559" y2="883.9559"/><ellipse cx="684.8958" cy="895.4142" fill="#84BE84" rx="3.125" ry="3.125" style="stroke:#038048;stroke-width:1.0416666666666667;"/><text fill="#D8BC00" font-family="Open Sans,Avenir,Nunito,Arial,Helvetica,SansSerif" font-size="11.4583" lengthAdjust="spacing" textLength="133.3333" x="696.3542" y="902.3254">RegionIdentity identity()</text><ellipse cx="684.8958" cy="915.1591" fill="#84BE84" rx="3.125" ry="3.125" style="stroke:#038048;stroke-width:1.0416666666666667;"/><text fill="#D8BC00" font-family="Open Sans,Avenir,Nunito,Arial,Helvetica,SansSerif" font-size="11.4583" lengthAdjust="spacing" textLength="157.2917" x="696.3542" y="922.0703">void identity(RegionIdentity)</text><ellipse cx="684.8958" cy="934.904" fill="#84BE84" rx="3.125" ry="3.125" style="stroke:#038048;stroke-width:1.0416666666666667;"/><text fill="#D8BC00" font-family="Open Sans,Avenir,Nunito,Arial,Helvetica,SansSerif" font-size="11.4583" lengthAdjust="spacing" textLength="102.0833" x="696.3542" y="941.8152">Polygon polygon()</text><ellipse cx="684.8958" cy="954.6488" fill="#84BE84" rx="3.125" ry="3.125" style="stroke:#038048;stroke-width:1.0416666666666667;"/><text fill="#D8BC00" font-family="Open Sans,Avenir,Nunito,Arial,Helvetica,SansSerif" font-size="11.4583" lengthAdjust="spacing" textLength="55.2083" x="696.3542" y="961.5601">T region()</text><ellipse cx="684.8958" cy="974.3937" fill="#84BE84" rx="3.125" ry="3.125" style="stroke:#038048;stroke-width:1.0416666666666667;"/><text fill="#D8BC00" font-family="Open Sans,Avenir,Nunito,Arial,Helvetica,SansSerif" font-size="11.4583" lengthAdjust="spacing" textLength="118.75" x="696.3542" y="981.3049">void region(T region)</text><ellipse cx="684.8958" cy="1018.0501" fill="#84BE84" rx="3.125" ry="3.125" style="stroke:#038048;stroke-width:1.0416666666666667;"/><text fill="#D8BC00" font-family="Open Sans,Avenir,Nunito,Arial,Helvetica,SansSerif" font-size="11.4583" lengthAdjust="spacing" textLength="92.7083" x="696.3542" y="1024.9613">boolean isValid()</text><line style="stroke:#5E5E5E;stroke-width:1.0416666666666667;" x1="674.4792" x2="741.6667" y1="1000.886" y2="1000.886"/><text fill="#D8BC00" font-family="Open Sans,Avenir,Nunito,Arial,Helvetica,SansSerif" font-size="11.4583" lengthAdjust="spacing" textLength="46.875" x="744.7917" y="1004.6956">(checks)</text><line style="stroke:#5E5E5E;stroke-width:1.0416666666666667;" x1="794.7917" x2="861.9792" y1="1000.886" y2="1000.886"/><ellipse cx="684.8958" cy="1061.7065" fill="#84BE84" rx="3.125" ry="3.125" style="stroke:#038048;stroke-width:1.0416666666666667;"/><text fill="#D8BC00" font-family="Open Sans,Avenir,Nunito,Arial,Helvetica,SansSerif" font-size="11.4583" lengthAdjust="spacing" textLength="152.0833" x="696.3542" y="1068.6178">boolean contains(Location)</text><line style="stroke:#5E5E5E;stroke-width:1.0416666666666667;" x1="674.4792" x2="733.8542" y1="1044.5424" y2="1044.5424"/><text fill="#D8BC00" font-family="Open Sans,Avenir,Nunito,Arial,Helvetica,SansSerif" font-size="11.4583" lengthAdjust="spacing" textLength="62.5" x="736.9792" y="1048.3521">(collection)</text><line style="stroke:#5E5E5E;stroke-width:1.0416666666666667;" x1="802.6042" x2="861.9792" y1="1044.5424" y2="1044.5424"/><rect fill="#282828" height="48.055" id="Polygon" rx="8.3333" ry="8.3333" style="stroke:#5E5E5E;stroke-width:1.0416666666666667;" width="89.5833" x="953.6458" y="1204.7445"/><rect fill="#1B1B1A" height="31.3883" rx="8.3333" ry="8.3333" style="stroke:#1B1B1A;stroke-width:1.0416666666666667;" width="89.5833" x="953.6458" y="1204.7445"/><rect fill="#1B1B1A" height="8.3333" style="stroke:#1B1B1A;stroke-width:1.0416666666666667;" width="89.5833" x="953.6458" y="1227.7995"/><rect fill="none" height="48.055" id="Polygon" rx="8.3333" ry="8.3333" style="stroke:#5E5E5E;stroke-width:1.0416666666666667;" width="89.5833" x="953.6458" y="1204.7445"/><ellipse cx="968.2292" cy="1220.4386" fill="#0066CF" rx="10.4167" ry="10.4167" style="stroke:#0086EF;stroke-width:1.0416666666666667;"/><path d="M970.1396,1224.8637 Q969.7123,1225.0834 969.2424,1225.1933 Q968.7724,1225.3031 968.2536,1225.3031 Q966.4103,1225.3031 965.4399,1224.0885 Q964.4694,1222.8739 964.4694,1220.579 Q964.4694,1218.278 965.4399,1217.0634 Q966.4103,1215.8488 968.2536,1215.8488 Q968.7724,1215.8488 969.2485,1215.9587 Q969.7245,1216.0685 970.1396,1216.2882 L970.1396,1218.2902 Q969.6757,1217.863 969.2393,1217.6646 Q968.8029,1217.4662 968.339,1217.4662 Q967.3503,1217.4662 966.8467,1218.2505 Q966.3432,1219.0348 966.3432,1220.579 Q966.3432,1222.1171 966.8467,1222.9014 Q967.3503,1223.6857 968.339,1223.6857 Q968.8029,1223.6857 969.2393,1223.4873 Q969.6757,1223.289 970.1396,1222.8617 Z " fill="#000000"/><text fill="#D8BC00" font-family="Open Sans,Avenir,Nunito,Arial,Helvetica,SansSerif" font-size="12.5" font-weight="bold" lengthAdjust="spacing" textLength="52.0833" x="984.8958" y="1225.1628">Polygon</text><line style="stroke:#5E5E5E;stroke-width:1.0416666666666667;" x1="954.6875" x2="1042.1875" y1="1236.1328" y2="1236.1328"/><line style="stroke:#5E5E5E;stroke-width:1.0416666666666667;" x1="954.6875" x2="1042.1875" y1="1244.4661" y2="1244.4661"/><rect fill="#282828" height="48.055" id="Rectangle" rx="8.3333" ry="8.3333" style="stroke:#5E5E5E;stroke-width:1.0416666666666667;" width="100" x="708.8542" y="1204.7445"/><rect fill="#1B1B1A" height="31.3883" rx="8.3333" ry="8.3333" style="stroke:#1B1B1A;stroke-width:1.0416666666666667;" width="100" x="708.8542" y="1204.7445"/><rect fill="#1B1B1A" height="8.3333" style="stroke:#1B1B1A;stroke-width:1.0416666666666667;" width="100" x="708.8542" y="1227.7995"/><rect fill="none" height="48.055" id="Rectangle" rx="8.3333" ry="8.3333" style="stroke:#5E5E5E;stroke-width:1.0416666666666667;" width="100" x="708.8542" y="1204.7445"/><ellipse cx="723.4375" cy="1220.4386" fill="#0066CF" rx="10.4167" ry="10.4167" style="stroke:#0086EF;stroke-width:1.0416666666666667;"/><path d="M725.3479,1224.8637 Q724.9207,1225.0834 724.4507,1225.1933 Q723.9807,1225.3031 723.4619,1225.3031 Q721.6187,1225.3031 720.6482,1224.0885 Q719.6777,1222.8739 719.6777,1220.579 Q719.6777,1218.278 720.6482,1217.0634 Q721.6187,1215.8488 723.4619,1215.8488 Q723.9807,1215.8488 724.4568,1215.9587 Q724.9329,1216.0685 725.3479,1216.2882 L725.3479,1218.2902 Q724.884,1217.863 724.4476,1217.6646 Q724.0112,1217.4662 723.5474,1217.4662 Q722.5586,1217.4662 722.0551,1218.2505 Q721.5515,1219.0348 721.5515,1220.579 Q721.5515,1222.1171 722.0551,1222.9014 Q722.5586,1223.6857 723.5474,1223.6857 Q724.0112,1223.6857 724.4476,1223.4873 Q724.884,1223.289 725.3479,1222.8617 Z " fill="#000000"/><text fill="#D8BC00" font-family="Open Sans,Avenir,Nunito,Arial,Helvetica,SansSerif" font-size="12.5" font-weight="bold" lengthAdjust="spacing" textLength="62.5" x="740.1042" y="1225.1628">Rectangle</text><line style="stroke:#5E5E5E;stroke-width:1.0416666666666667;" x1="709.8958" x2="807.8125" y1="1236.1328" y2="1236.1328"/><line style="stroke:#5E5E5E;stroke-width:1.0416666666666667;" x1="709.8958" x2="807.8125" y1="1244.4661" y2="1244.4661"/><rect codeLine="37" fill="#282828" height="360.8948" id="BorderCache" rx="8.3333" ry="8.3333" style="stroke:#5E5E5E;stroke-width:1.0416666666666667;" width="540.625" x="9.375" y="165.1611"/><rect fill="#1B1B1A" height="31.3883" rx="8.3333" ry="8.3333" style="stroke:#1B1B1A;stroke-width:1.0416666666666667;" width="540.625" x="9.375" y="165.1611"/><rect fill="#1B1B1A" height="8.3333" style="stroke:#1B1B1A;stroke-width:1.0416666666666667;" width="540.625" x="9.375" y="188.2161"/><rect codeLine="37" fill="none" height="360.8948" id="BorderCache" rx="8.3333" ry="8.3333" style="stroke:#5E5E5E;stroke-width:1.0416666666666667;" width="540.625" x="9.375" y="165.1611"/><ellipse cx="222.3958" cy="180.8553" fill="#C8AC00" rx="10.4167" ry="10.4167" style="stroke:#D8BC00;stroke-width:1.0416666666666667;"/><path d="M221.9889,177.5574 L221.1405,181.2866 L222.8434,181.2866 Z M220.8903,175.9094 L223.0937,175.9094 L225.5534,185.022 L223.7528,185.022 L223.1913,182.7698 L220.7804,182.7698 L220.2311,185.022 L218.4306,185.022 Z " fill="#000000"/><text fill="#D8BC00" font-family="Open Sans,Avenir,Nunito,Arial,Helvetica,SansSerif" font-size="12.5" font-style="italic" font-weight="bold" lengthAdjust="spacing" textLength="81.25" x="245.3125" y="185.5794">BorderCache</text><rect fill="#333333" height="23.055" style="stroke:#A0A0A0;stroke-width:1.0416666666666667;stroke-dasharray:2.0,2.0;" width="16.6667" x="536.4583" y="162.0361"/><text fill="#A0A0A0" font-family="Open Sans,Avenir,Nunito,Arial,Helvetica,SansSerif" font-size="12.5" font-weight="bold" lengthAdjust="spacing" textLength="8.3333" x="540.625" y="178.2878">T</text><line style="stroke:#5E5E5E;stroke-width:1.5625;" x1="10.4167" x2="548.9583" y1="196.5495" y2="196.5495"/><polygon fill="#FFFF44" points="20.8333,226.711,25,230.8777,20.8333,235.0444,16.6667,230.8777" style="stroke:#B38D22;stroke-width:1.0416666666666667;"/><text fill="#D8BC00" font-family="Open Sans,Avenir,Nunito,Arial,Helvetica,SansSerif" font-size="11.4583" lengthAdjust="spacing" textLength="151.0417" x="32.2917" y="238.8306">BorderCache(Settings&lt;T&gt;)</text><line style="stroke:#5E5E5E;stroke-width:1.0416666666666667;" x1="10.4167" x2="235.9375" y1="214.7552" y2="214.7552"/><text fill="#D8BC00" font-family="Open Sans,Avenir,Nunito,Arial,Helvetica,SansSerif" font-size="11.4583" lengthAdjust="spacing" textLength="81.25" x="239.0625" y="218.5649">(constructors)</text><line style="stroke:#5E5E5E;stroke-width:1.0416666666666667;" x1="323.4375" x2="548.9583" y1="214.7552" y2="214.7552"/><line style="stroke:#5E5E5E;stroke-width:1.0416666666666667;" x1="10.4167" x2="548.9583" y1="248.5392" y2="248.5392"/><ellipse cx="20.8333" cy="259.9976" fill="#84BE84" rx="3.125" ry="3.125" style="stroke:#038048;stroke-width:1.0416666666666667;"/><text fill="#D8BC00" font-family="Open Sans,Avenir,Nunito,Arial,Helvetica,SansSerif" font-size="11.4583" lengthAdjust="spacing" textLength="220.8333" x="32.2917" y="266.9088">Collection&lt;Polygon&gt; borders(T object)</text><ellipse cx="20.8333" cy="279.7424" fill="#84BE84" rx="3.125" ry="3.125" style="stroke:#038048;stroke-width:1.0416666666666667;"/><text fill="#D8BC00" font-family="Open Sans,Avenir,Nunito,Arial,Helvetica,SansSerif" font-size="11.4583" lengthAdjust="spacing" textLength="101.0417" x="32.2917" y="286.6536">T object(Location)</text><polygon fill="#FFFF44" points="20.8333,294.279,25,298.4456,20.8333,302.6123,16.6667,298.4456" style="stroke:#B38D22;stroke-width:1.0416666666666667;"/><text fill="#D8BC00" font-family="Open Sans,Avenir,Nunito,Arial,Helvetica,SansSerif" font-size="11.4583" lengthAdjust="spacing" textLength="508.3333" x="32.2917" y="306.3985">void assignMultiPolygonIdentity(PbfTagMap relationTags, Collection&lt;Border&lt;T&gt;&gt; objects)</text><polygon fill="#FFFF44" points="20.8333,314.0238,25,318.1905,20.8333,322.3572,16.6667,318.1905" style="stroke:#B38D22;stroke-width:1.0416666666666667;"/><text fill="#D8BC00" font-family="Open Sans,Avenir,Nunito,Arial,Helvetica,SansSerif" font-size="11.4583" lengthAdjust="spacing" textLength="237.5" x="32.2917" y="326.1434">RegionIdentity identityForRegion(T region)</text><polygon fill="#FFFF44" points="20.8333,333.7687,25,337.9354,20.8333,342.1021,16.6667,337.9354" style="stroke:#B38D22;stroke-width:1.0416666666666667;"/><text fill="#D8BC00" font-family="Open Sans,Avenir,Nunito,Arial,Helvetica,SansSerif" font-size="11.4583" lengthAdjust="spacing" textLength="195.8333" x="32.2917" y="345.8883">T regionForIdentity(RegionIdentity)</text><polygon fill="#FFFF44" points="20.8333,353.5136,25,357.6803,20.8333,361.8469,16.6667,357.6803" style="stroke:#B38D22;stroke-width:1.0416666666666667;"/><text fill="#D8BC00" font-family="Open Sans,Avenir,Nunito,Arial,Helvetica,SansSerif" font-size="11.4583" lengthAdjust="spacing" textLength="127.0833" x="32.2917" y="365.6331">Settings&lt;T&gt; settings()</text><polygon fill="#FFFF44" points="20.8333,397.17,25,401.3367,20.8333,405.5033,16.6667,401.3367" style="stroke:#B38D22;stroke-width:1.0416666666666667;"/><text fill="#D8BC00" font-family="Open Sans,Avenir,Nunito,Arial,Helvetica,SansSerif" font-size="11.4583" lengthAdjust="spacing" textLength="173.9583" x="32.2917" y="409.2896">BorderSpatialIndex&lt;T&gt; index()</text><line style="stroke:#5E5E5E;stroke-width:1.0416666666666667;" x1="10.4167" x2="245.3125" y1="385.2142" y2="385.2142"/><text fill="#D8BC00" font-family="Open Sans,Avenir,Nunito,Arial,Helvetica,SansSerif" font-size="11.4583" lengthAdjust="spacing" textLength="62.5" x="248.4375" y="389.0238">(collection)</text><line style="stroke:#5E5E5E;stroke-width:1.0416666666666667;" x1="314.0625" x2="548.9583" y1="385.2142" y2="385.2142"/><ellipse cx="20.8333" cy="446.0347" fill="#84BE84" rx="3.125" ry="3.125" style="stroke:#038048;stroke-width:1.0416666666666667;"/><text fill="#D8BC00" font-family="Open Sans,Avenir,Nunito,Arial,Helvetica,SansSerif" font-size="11.4583" lengthAdjust="spacing" textLength="75" x="32.2917" y="452.946">String name()</text><line style="stroke:#5E5E5E;stroke-width:1.0416666666666667;" x1="10.4167" x2="251.5625" y1="428.8706" y2="428.8706"/><text fill="#D8BC00" font-family="Open Sans,Avenir,Nunito,Arial,Helvetica,SansSerif" font-size="11.4583" lengthAdjust="spacing" textLength="50" x="254.6875" y="432.6803">(naming)</text><line style="stroke:#5E5E5E;stroke-width:1.0416666666666667;" x1="307.8125" x2="548.9583" y1="428.8706" y2="428.8706"/><ellipse cx="20.8333" cy="489.6912" fill="#84BE84" rx="3.125" ry="3.125" style="stroke:#038048;stroke-width:1.0416666666666667;"/><text fill="#D8BC00" font-family="Open Sans,Avenir,Nunito,Arial,Helvetica,SansSerif" font-size="11.4583" lengthAdjust="spacing" textLength="123.9583" x="32.2917" y="496.6024">boolean loadBorders()</text><ellipse cx="20.8333" cy="509.436" fill="#84BE84" rx="3.125" ry="3.125" style="stroke:#038048;stroke-width:1.0416666666666667;"/><text fill="#D8BC00" font-family="Open Sans,Avenir,Nunito,Arial,Helvetica,SansSerif" font-size="11.4583" lengthAdjust="spacing" textLength="184.375" x="32.2917" y="516.3472">BorderCache&lt;T&gt; loadIdentities()</text><line style="stroke:#5E5E5E;stroke-width:1.0416666666666667;" x1="10.4167" x2="259.8958" y1="472.5271" y2="472.5271"/><text fill="#D8BC00" font-family="Open Sans,Avenir,Nunito,Arial,Helvetica,SansSerif" font-size="11.4583" lengthAdjust="spacing" textLength="33.3333" x="263.0208" y="476.3367">(read)</text><line style="stroke:#5E5E5E;stroke-width:1.0416666666666667;" x1="299.4792" x2="548.9583" y1="472.5271" y2="472.5271"/><rect fill="#282828" height="48.055" id="Region" rx="8.3333" ry="8.3333" style="stroke:#5E5E5E;stroke-width:1.0416666666666667;" width="82.2917" x="238.5417" y="628.7028"/><rect fill="#1B1B1A" height="31.3883" rx="8.3333" ry="8.3333" style="stroke:#1B1B1A;stroke-width:1.0416666666666667;" width="82.2917" x="238.5417" y="628.7028"/><rect fill="#1B1B1A" height="8.3333" style="stroke:#1B1B1A;stroke-width:1.0416666666666667;" width="82.2917" x="238.5417" y="651.7578"/><rect fill="none" height="48.055" id="Region" rx="8.3333" ry="8.3333" style="stroke:#5E5E5E;stroke-width:1.0416666666666667;" width="82.2917" x="238.5417" y="628.7028"/><ellipse cx="253.125" cy="644.397" fill="#0066CF" rx="10.4167" ry="10.4167" style="stroke:#0086EF;stroke-width:1.0416666666666667;"/><path d="M255.0354,648.822 Q254.6082,649.0417 254.1382,649.1516 Q253.6682,649.2615 253.1494,649.2615 Q251.3062,649.2615 250.3357,648.0469 Q249.3652,646.8323 249.3652,644.5374 Q249.3652,642.2363 250.3357,641.0217 Q251.3062,639.8071 253.1494,639.8071 Q253.6682,639.8071 254.1443,639.917 Q254.6204,640.0269 255.0354,640.2466 L255.0354,642.2485 Q254.5715,641.8213 254.1351,641.6229 Q253.6987,641.4246 253.2349,641.4246 Q252.2461,641.4246 251.7426,642.2089 Q251.239,642.9932 251.239,644.5374 Q251.239,646.0754 251.7426,646.8597 Q252.2461,647.644 253.2349,647.644 Q253.6987,647.644 254.1351,647.4457 Q254.5715,647.2473 255.0354,646.8201 Z " fill="#000000"/><text fill="#D8BC00" font-family="Open Sans,Avenir,Nunito,Arial,Helvetica,SansSerif" font-size="12.5" font-weight="bold" lengthAdjust="spacing" textLength="44.7917" x="269.7917" y="649.1211">Region</text><line style="stroke:#5E5E5E;stroke-width:1.0416666666666667;" x1="239.5833" x2="319.7917" y1="660.0911" y2="660.0911"/><line style="stroke:#5E5E5E;stroke-width:1.0416666666666667;" x1="239.5833" x2="319.7917" y1="668.4245" y2="668.4245"/><rect codeLine="59" fill="#282828" height="83.3781" id="BorderSpatialIndex" rx="8.3333" ry="8.3333" style="stroke:#5E5E5E;stroke-width:1.0416666666666667;" width="262.5" x="421.3542" y="610.9945"/><rect fill="#1B1B1A" height="31.3883" rx="8.3333" ry="8.3333" style="stroke:#1B1B1A;stroke-width:1.0416666666666667;" width="262.5" x="421.3542" y="610.9945"/><rect fill="#1B1B1A" height="8.3333" style="stroke:#1B1B1A;stroke-width:1.0416666666666667;" width="262.5" x="421.3542" y="634.0495"/><rect codeLine="59" fill="none" height="83.3781" id="BorderSpatialIndex" rx="8.3333" ry="8.3333" style="stroke:#5E5E5E;stroke-width:1.0416666666666667;" width="262.5" x="421.3542" y="610.9945"/><ellipse cx="475" cy="626.6886" fill="#0066CF" rx="10.4167" ry="10.4167" style="stroke:#0086EF;stroke-width:1.0416666666666667;"/><path d="M476.9104,631.1137 Q476.4832,631.3334 476.0132,631.4433 Q475.5432,631.5531 475.0244,631.5531 Q473.1812,631.5531 472.2107,630.3385 Q471.2402,629.1239 471.2402,626.829 Q471.2402,624.528 472.2107,623.3134 Q473.1812,622.0988 475.0244,622.0988 Q475.5432,622.0988 476.0193,622.2087 Q476.4954,622.3185 476.9104,622.5382 L476.9104,624.5402 Q476.4465,624.113 476.0101,623.9146 Q475.5737,623.7162 475.1099,623.7162 Q474.1211,623.7162 473.6176,624.5005 Q473.114,625.2848 473.114,626.829 Q473.114,628.3671 473.6176,629.1514 Q474.1211,629.9357 475.1099,629.9357 Q475.5737,629.9357 476.0101,629.7373 Q476.4465,629.539 476.9104,629.1117 Z " fill="#000000"/><text fill="#D8BC00" font-family="Open Sans,Avenir,Nunito,Arial,Helvetica,SansSerif" font-size="12.5" font-weight="bold" lengthAdjust="spacing" textLength="121.875" x="497.9167" y="631.4128">BorderSpatialIndex</text><rect fill="#333333" height="23.055" style="stroke:#A0A0A0;stroke-width:1.0416666666666667;stroke-dasharray:2.0,2.0;" width="16.6667" x="670.3125" y="607.8695"/><text fill="#A0A0A0" font-family="Open Sans,Avenir,Nunito,Arial,Helvetica,SansSerif" font-size="12.5" font-weight="bold" lengthAdjust="spacing" textLength="8.3333" x="674.4792" y="624.1211">T</text><line style="stroke:#5E5E5E;stroke-width:1.5625;" x1="422.3958" x2="682.8125" y1="642.3828" y2="642.3828"/><ellipse cx="432.8125" cy="677.7527" fill="#84BE84" rx="3.125" ry="3.125" style="stroke:#038048;stroke-width:1.0416666666666667;"/><text fill="#D8BC00" font-family="Open Sans,Avenir,Nunito,Arial,Helvetica,SansSerif" font-size="11.4583" lengthAdjust="spacing" textLength="230.2083" x="444.2708" y="684.6639">BorderSpatialIndex(String, RTreeSettings)</text><line style="stroke:#5E5E5E;stroke-width:1.0416666666666667;" x1="422.3958" x2="508.8542" y1="660.5886" y2="660.5886"/><text fill="#D8BC00" font-family="Open Sans,Avenir,Nunito,Arial,Helvetica,SansSerif" font-size="11.4583" lengthAdjust="spacing" textLength="81.25" x="511.9792" y="664.3982">(constructors)</text><line style="stroke:#5E5E5E;stroke-width:1.0416666666666667;" x1="596.3542" x2="682.8125" y1="660.5886" y2="660.5886"/><rect fill="#282828" height="48.055" id="RTreeSpatialIndex" rx="8.3333" ry="8.3333" style="stroke:#5E5E5E;stroke-width:1.0416666666666667;" width="153.125" x="586.4583" y="321.4111"/><rect fill="#1B1B1A" height="31.3883" rx="8.3333" ry="8.3333" style="stroke:#1B1B1A;stroke-width:1.0416666666666667;" width="153.125" x="586.4583" y="321.4111"/><rect fill="#1B1B1A" height="8.3333" style="stroke:#1B1B1A;stroke-width:1.0416666666666667;" width="153.125" x="586.4583" y="344.4661"/><rect fill="none" height="48.055" id="RTreeSpatialIndex" rx="8.3333" ry="8.3333" style="stroke:#5E5E5E;stroke-width:1.0416666666666667;" width="153.125" x="586.4583" y="321.4111"/><ellipse cx="601.0417" cy="337.1053" fill="#0066CF" rx="10.4167" ry="10.4167" style="stroke:#0086EF;stroke-width:1.0416666666666667;"/><path d="M602.9521,341.5304 Q602.5248,341.7501 602.0549,341.8599 Q601.5849,341.9698 601.0661,341.9698 Q599.2228,341.9698 598.2524,340.7552 Q597.2819,339.5406 597.2819,337.2457 Q597.2819,334.9447 598.2524,333.7301 Q599.2228,332.5155 601.0661,332.5155 Q601.5849,332.5155 602.061,332.6253 Q602.537,332.7352 602.9521,332.9549 L602.9521,334.9569 Q602.4882,334.5296 602.0518,334.3313 Q601.6154,334.1329 601.1515,334.1329 Q600.1628,334.1329 599.6592,334.9172 Q599.1557,335.7015 599.1557,337.2457 Q599.1557,338.7838 599.6592,339.5681 Q600.1628,340.3524 601.1515,340.3524 Q601.6154,340.3524 602.0518,340.154 Q602.4882,339.9556 602.9521,339.5284 Z " fill="#000000"/><text fill="#D8BC00" font-family="Open Sans,Avenir,Nunito,Arial,Helvetica,SansSerif" font-size="12.5" font-weight="bold" lengthAdjust="spacing" textLength="115.625" x="617.7083" y="341.8294">RTreeSpatialIndex</text><line style="stroke:#5E5E5E;stroke-width:1.0416666666666667;" x1="587.5" x2="738.5417" y1="352.7995" y2="352.7995"/><line style="stroke:#5E5E5E;stroke-width:1.0416666666666667;" x1="587.5" x2="738.5417" y1="361.1328" y2="361.1328"/><rect codeLine="66" fill="#282828" height="87.5448" id="Bordered" rx="8.3333" ry="8.3333" style="stroke:#5E5E5E;stroke-width:1.0416666666666667;" width="208.3333" x="957.8125" y="895.3695"/><rect fill="#1B1B1A" height="31.3883" rx="8.3333" ry="8.3333" style="stroke:#1B1B1A;stroke-width:1.0416666666666667;" width="208.3333" x="957.8125" y="895.3695"/><rect fill="#1B1B1A" height="8.3333" style="stroke:#1B1B1A;stroke-width:1.0416666666666667;" width="208.3333" x="957.8125" y="918.4245"/><rect codeLine="66" fill="none" height="87.5448" id="Bordered" rx="8.3333" ry="8.3333" style="stroke:#5E5E5E;stroke-width:1.0416666666666667;" width="208.3333" x="957.8125" y="895.3695"/><ellipse cx="1025.5208" cy="911.0636" fill="#008400" rx="10.4167" ry="10.4167" style="stroke:#239C23;stroke-width:1.0416666666666667;"/><path d="M1022.9248,908.2255 L1022.9248,906.6386 L1028.3508,906.6386 L1028.3508,908.2255 L1026.5381,908.2255 L1026.5381,914.1642 L1028.3508,914.1642 L1028.3508,915.7511 L1022.9248,915.7511 L1022.9248,914.1642 L1024.7375,914.1642 L1024.7375,908.2255 Z " fill="#000000"/><text fill="#D8BC00" font-family="Open Sans,Avenir,Nunito,Arial,Helvetica,SansSerif" font-size="12.5" font-style="italic" font-weight="bold" lengthAdjust="spacing" textLength="58.3333" x="1048.4375" y="915.7878">Bordered</text><line style="stroke:#5E5E5E;stroke-width:1.5625;" x1="958.8542" x2="1165.1042" y1="926.7578" y2="926.7578"/><line style="stroke:#5E5E5E;stroke-width:1.0416666666666667;" x1="958.8542" x2="1165.1042" y1="935.0911" y2="935.0911"/><ellipse cx="969.2708" cy="946.5495" fill="#84BE84" rx="3.125" ry="3.125" style="stroke:#038048;stroke-width:1.0416666666666667;"/><text fill="#D8BC00" font-family="Open Sans,Avenir,Nunito,Arial,Helvetica,SansSerif" font-size="11.4583" lengthAdjust="spacing" textLength="176.0417" x="980.7292" y="953.4607">Collection&lt;Polygon&gt; borders()</text><ellipse cx="969.2708" cy="966.2944" fill="#84BE84" rx="3.125" ry="3.125" style="stroke:#038048;stroke-width:1.0416666666666667;"/><text fill="#D8BC00" font-family="Open Sans,Avenir,Nunito,Arial,Helvetica,SansSerif" font-size="11.4583" lengthAdjust="spacing" textLength="133.3333" x="980.7292" y="973.2056">RegionIdentity identity()</text><path codeLine="13" d="M768.2292,697.8278 C768.2292,725.6507 768.2292,763.2445 768.2292,800.4215 " fill="none" id="Bounded-backto-Border" style="stroke:#545454;stroke-width:1.5625;"/><polygon fill="none" points="760.9375,697.807,768.2292,676.9736,775.5208,697.807,760.9375,697.807" style="stroke:#545454;stroke-width:1.5625;"/><path codeLine="14" d="M891.6042,695.7549 C877.3438,723.7653 857.7188,762.307 838.3229,800.4215 " fill="none" id="Intersectable-backto-Border" style="stroke:#545454;stroke-width:1.5625;"/><polygon fill="none" points="885.2188,692.234,901.1771,676.9736,898.2188,698.8486,885.2188,692.234" style="stroke:#545454;stroke-width:1.5625;"/><path codeLine="15" d="M871.4063,1082.4007 C889.6771,1106.2236 908.8542,1130.4111 927.6042,1152.6611 C942.8333,1170.7445 961.1979,1190.1195 975.4063,1204.6403 " fill="none" id="Border-backto-Polygon" style="stroke:#545454;stroke-width:1.5625;"/><polygon fill="#333333" points="863.0729,1071.4945,863.5489,1078.9909,870.6518,1081.4348,870.1758,1073.9384,863.0729,1071.4945" style="stroke:#545454;stroke-width:1.5625;"/><text fill="#A0A0A0" font-family="Open Sans,Avenir,Nunito,Arial,Helvetica,SansSerif" font-size="12.5" font-weight="bold" lengthAdjust="spacing" textLength="77.0833" x="931.7708" y="1145.9961">bounded by</text><path codeLine="16" d="M756.3646,1091.6195 C755.625,1112.1299 755.3229,1132.9007 755.7292,1152.6611 C756.0938,1170.1195 756.9271,1189.8486 757.6458,1204.6924 " fill="none" id="Border-backto-Rectangle" style="stroke:#545454;stroke-width:1.5625;"/><polygon fill="#333333" points="756.9271,1077.8382,752.5099,1083.9138,756.4193,1090.3279,760.8364,1084.2523,756.9271,1077.8382" style="stroke:#545454;stroke-width:1.5625;"/><text fill="#A0A0A0" font-family="Open Sans,Avenir,Nunito,Arial,Helvetica,SansSerif" font-size="12.5" font-weight="bold" lengthAdjust="spacing" textLength="126.0417" x="759.8958" y="1145.9961">bounding rectangle</text><path codeLine="33" d="M210.7188,121.7132 C214.6771,134.4736 219.2708,149.3174 224.1771,165.1611 " fill="none" id="BaseComponent-backto-BorderCache" style="stroke:#545454;stroke-width:1.5625;"/><polygon fill="none" points="203.75,123.8695,204.5521,101.807,217.6875,119.557,203.75,123.8695" style="stroke:#545454;stroke-width:1.5625;"/><path codeLine="34" d="M348.6563,121.7132 C344.6979,134.4736 340.1042,149.3174 335.1979,165.1611 " fill="none" id="ProjectTrait-backto-BorderCache" style="stroke:#545454;stroke-width:1.5625;"/><polygon fill="none" points="341.6875,119.557,354.8229,101.807,355.625,123.8695,341.6875,119.557" style="stroke:#545454;stroke-width:1.5625;"/><path codeLine="35" d="M279.6875,525.7132 C279.6875,563.682 279.6875,599.359 279.6875,622.9736 " fill="none" id="BorderCache-to-Region" style="stroke:#545454;stroke-width:1.5625;"/><polygon fill="#545454" points="279.6875,628.4215,283.8542,619.0465,279.6875,623.2132,275.5208,619.0465,279.6875,628.4215" style="stroke:#545454;stroke-width:1.5625;"/><text fill="#A0A0A0" font-family="Open Sans,Avenir,Nunito,Arial,Helvetica,SansSerif" font-size="12.5" font-weight="bold" lengthAdjust="spacing" textLength="112.5" x="283.8542" y="573.0794">loads borders for</text><path codeLine="36" d="M449.3333,536.1299 C474.4167,564.182 497.9063,590.4528 516.125,610.8278 " fill="none" id="BorderCache-backto-BorderSpatialIndex" style="stroke:#545454;stroke-width:1.5625;"/><polygon fill="#333333" points="440.0208,525.7132,441.0854,533.149,448.3586,535.0262,447.294,527.5905,440.0208,525.7132" style="stroke:#545454;stroke-width:1.5625;"/><text fill="#A0A0A0" font-family="Open Sans,Avenir,Nunito,Arial,Helvetica,SansSerif" font-size="12.5" font-weight="bold" lengthAdjust="spacing" textLength="70.8333" x="490.1042" y="573.0794">indexed by</text><path codeLine="57" d="M651.5729,389.7132 C638.5208,437.1299 615.5208,515.0361 589.0625,579.7445 C584.875,589.9736 579.8021,600.734 574.7917,610.7236 " fill="none" id="RTreeSpatialIndex-backto-BorderSpatialIndex" style="stroke:#545454;stroke-width:1.5625;"/><polygon fill="none" points="644.6042,387.5778,657.0833,369.3695,658.6771,391.3799,644.6042,387.5778" style="stroke:#545454;stroke-width:1.5625;"/><path codeLine="58" d="M583.5,694.4424 C606.3021,724.5257 638.6979,767.2445 670,808.5361 " fill="none" id="BorderSpatialIndex-to-Border" style="stroke:#545454;stroke-width:1.5625;"/><polygon fill="#545454" points="673.4167,813.0361,671.0623,803.0507,670.2656,808.8892,664.4271,808.0925,673.4167,813.0361" style="stroke:#545454;stroke-width:1.5625;"/><text fill="#A0A0A0" font-family="Open Sans,Avenir,Nunito,Arial,Helvetica,SansSerif" font-size="12.5" font-weight="bold" lengthAdjust="spacing" textLength="50" x="625.5208" y="741.8294">indexes</text><text fill="#A0A0A0" font-family="Open Sans,Avenir,Nunito,Arial,Helvetica,SansSerif" font-size="12.5" font-weight="bold" lengthAdjust="spacing" textLength="18.75" x="643.3256" y="796.9418">1+</text><path codeLine="65" d="M1055.1563,983.1924 C1047.9792,1026.3278 1035.75,1094.5049 1021.3542,1152.6611 C1017.4792,1168.3174 1012.2813,1185.5361 1007.8229,1199.5361 " fill="none" id="Bordered-to-Polygon" style="stroke:#545454;stroke-width:1.5625;"/><polygon fill="#545454" points="1006.2083,1204.5257,1013.0432,1196.8748,1007.8016,1199.5671,1005.1094,1194.3255,1006.2083,1204.5257" style="stroke:#545454;stroke-width:1.5625;"/><text fill="#A0A0A0" font-family="Open Sans,Avenir,Nunito,Arial,Helvetica,SansSerif" font-size="12.5" font-weight="bold" lengthAdjust="spacing" textLength="77.0833" x="1030.7292" y="1145.9961">bounded by</text><text fill="#A0A0A0" font-family="Open Sans,Avenir,Nunito,Arial,Helvetica,SansSerif" font-size="12.5" font-weight="bold" lengthAdjust="spacing" textLength="8.3333" x="1041.6248" y="1006.4124">1</text><text fill="#A0A0A0" font-family="Open Sans,Avenir,Nunito,Arial,Helvetica,SansSerif" font-size="12.5" font-weight="bold" lengthAdjust="spacing" textLength="18.75" x="983.1806" y="1190.4701">1+</text></g></svg>
