<?xml version="1.0" encoding="UTF-8" standalone="no"?><svg xmlns="http://www.w3.org/2000/svg" xmlns:xlink="http://www.w3.org/1999/xlink" contentScriptType="application/ecmascript" contentStyleType="text/css" height="254.1667px" preserveAspectRatio="none" style="width:701px;height:254px;background:#333333;" version="1.1" viewBox="0 0 701 254" width="701.0417px" zoomAndPan="magnify"><defs/><g><rect fill="#48494B" height="41.2028" rx="8.3333" ry="8.3333" style="stroke:#545454;stroke-width:1.0416666666666667;" width="673.9583" x="6.25" y="2.0833"/><text fill="#C0C0C0" font-family="Open Sans,Avenir,Nunito,Arial,Helvetica,SansSerif" font-size="20.8333" lengthAdjust="spacing" textLength="651.0417" x="17.7083" y="30.5583">com.telenav.mesakit.map.ui.desktop.graphics.canvas.projections</text><rect codeLine="7" fill="#282828" height="48.055" id="MapProjection" rx="8.3333" ry="8.3333" style="stroke:#5E5E5E;stroke-width:1.0416666666666667;" width="129.1667" x="273.4375" y="53.7028"/><rect fill="#1B1B1A" height="31.3883" rx="8.3333" ry="8.3333" style="stroke:#1B1B1A;stroke-width:1.0416666666666667;" width="129.1667" x="273.4375" y="53.7028"/><rect fill="#1B1B1A" height="8.3333" style="stroke:#1B1B1A;stroke-width:1.0416666666666667;" width="129.1667" x="273.4375" y="76.7578"/><rect codeLine="7" fill="none" height="48.055" id="MapProjection" rx="8.3333" ry="8.3333" style="stroke:#5E5E5E;stroke-width:1.0416666666666667;" width="129.1667" x="273.4375" y="53.7028"/><ellipse cx="288.0208" cy="69.397" fill="#008400" rx="10.4167" ry="10.4167" style="stroke:#239C23;stroke-width:1.0416666666666667;"/><path d="M285.4248,66.5588 L285.4248,64.9719 L290.8508,64.9719 L290.8508,66.5588 L289.0381,66.5588 L289.0381,72.4976 L290.8508,72.4976 L290.8508,74.0845 L285.4248,74.0845 L285.4248,72.4976 L287.2375,72.4976 L287.2375,66.5588 Z " fill="#000000"/><text fill="#D8BC00" font-family="Open Sans,Avenir,Nunito,Arial,Helvetica,SansSerif" font-size="12.5" font-style="italic" font-weight="bold" lengthAdjust="spacing" textLength="91.6667" x="304.6875" y="74.1211">MapProjection</text><line style="stroke:#5E5E5E;stroke-width:1.0416666666666667;" x1="274.4792" x2="401.5625" y1="85.0911" y2="85.0911"/><line style="stroke:#5E5E5E;stroke-width:1.0416666666666667;" x1="274.4792" x2="401.5625" y1="93.4245" y2="93.4245"/><rect codeLine="10" fill="#282828" height="83.3781" id="CartesianMapProjection" rx="8.3333" ry="8.3333" style="stroke:#5E5E5E;stroke-width:1.0416666666666667;" width="301.0417" x="7.2917" y="164.1195"/><rect fill="#1B1B1A" height="31.3883" rx="8.3333" ry="8.3333" style="stroke:#1B1B1A;stroke-width:1.0416666666666667;" width="301.0417" x="7.2917" y="164.1195"/><rect fill="#1B1B1A" height="8.3333" style="stroke:#1B1B1A;stroke-width:1.0416666666666667;" width="301.0417" x="7.2917" y="187.1745"/><rect codeLine="10" fill="none" height="83.3781" id="CartesianMapProjection" rx="8.3333" ry="8.3333" style="stroke:#5E5E5E;stroke-width:1.0416666666666667;" width="301.0417" x="7.2917" y="164.1195"/><ellipse cx="73.9583" cy="179.8136" fill="#0066CF" rx="10.4167" ry="10.4167" style="stroke:#0086EF;stroke-width:1.0416666666666667;"/><path d="M75.8687,184.2387 Q75.4415,184.4584 74.9715,184.5683 Q74.5015,184.6781 73.9827,184.6781 Q72.1395,184.6781 71.169,183.4635 Q70.1986,182.2489 70.1986,179.954 Q70.1986,177.653 71.169,176.4384 Q72.1395,175.2238 73.9827,175.2238 Q74.5015,175.2238 74.9776,175.3337 Q75.4537,175.4435 75.8687,175.6632 L75.8687,177.6652 Q75.4049,177.238 74.9685,177.0396 Q74.5321,176.8412 74.0682,176.8412 Q73.0794,176.8412 72.5759,177.6255 Q72.0723,178.4098 72.0723,179.954 Q72.0723,181.4921 72.5759,182.2764 Q73.0794,183.0607 74.0682,183.0607 Q74.5321,183.0607 74.9685,182.8623 Q75.4049,182.664 75.8687,182.2367 Z " fill="#000000"/><text fill="#D8BC00" font-family="Open Sans,Avenir,Nunito,Arial,Helvetica,SansSerif" font-size="12.5" font-weight="bold" lengthAdjust="spacing" textLength="153.125" x="96.875" y="184.5378">CartesianMapProjection</text><line style="stroke:#5E5E5E;stroke-width:1.5625;" x1="8.3333" x2="307.2917" y1="195.5078" y2="195.5078"/><ellipse cx="18.75" cy="230.8777" fill="#84BE84" rx="3.125" ry="3.125" style="stroke:#038048;stroke-width:1.0416666666666667;"/><text fill="#D8BC00" font-family="Open Sans,Avenir,Nunito,Arial,Helvetica,SansSerif" font-size="11.4583" lengthAdjust="spacing" textLength="268.75" x="30.2083" y="237.7889">CartesianMapProjection(Rectangle, DrawingSize)</text><line style="stroke:#5E5E5E;stroke-width:1.0416666666666667;" x1="8.3333" x2="114.0625" y1="213.7136" y2="213.7136"/><text fill="#D8BC00" font-family="Open Sans,Avenir,Nunito,Arial,Helvetica,SansSerif" font-size="11.4583" lengthAdjust="spacing" textLength="81.25" x="117.1875" y="217.5232">(constructors)</text><line style="stroke:#5E5E5E;stroke-width:1.0416666666666667;" x1="201.5625" x2="307.2917" y1="213.7136" y2="213.7136"/><rect codeLine="17" fill="#282828" height="83.3781" id="SphericalMercatorMapProjection" rx="8.3333" ry="8.3333" style="stroke:#5E5E5E;stroke-width:1.0416666666666667;" width="348.9583" x="344.7917" y="164.1195"/><rect fill="#1B1B1A" height="31.3883" rx="8.3333" ry="8.3333" style="stroke:#1B1B1A;stroke-width:1.0416666666666667;" width="348.9583" x="344.7917" y="164.1195"/><rect fill="#1B1B1A" height="8.3333" style="stroke:#1B1B1A;stroke-width:1.0416666666666667;" width="348.9583" x="344.7917" y="187.1745"/><rect codeLine="17" fill="none" height="83.3781" id="SphericalMercatorMapProjection" rx="8.3333" ry="8.3333" style="stroke:#5E5E5E;stroke-width:1.0416666666666667;" width="348.9583" x="344.7917" y="164.1195"/><ellipse cx="408.8542" cy="179.8136" fill="#0066CF" rx="10.4167" ry="10.4167" style="stroke:#0086EF;stroke-width:1.0416666666666667;"/><path d="M410.7646,184.2387 Q410.3373,184.4584 409.8674,184.5683 Q409.3974,184.6781 408.8786,184.6781 Q407.0353,184.6781 406.0649,183.4635 Q405.0944,182.2489 405.0944,179.954 Q405.0944,177.653 406.0649,176.4384 Q407.0353,175.2238 408.8786,175.2238 Q409.3974,175.2238 409.8735,175.3337 Q410.3495,175.4435 410.7646,175.6632 L410.7646,177.6652 Q410.3007,177.238 409.8643,177.0396 Q409.4279,176.8412 408.964,176.8412 Q407.9753,176.8412 407.4717,177.6255 Q406.9682,178.4098 406.9682,179.954 Q406.9682,181.4921 407.4717,182.2764 Q407.9753,183.0607 408.964,183.0607 Q409.4279,183.0607 409.8643,182.8623 Q410.3007,182.664 410.7646,182.2367 Z " fill="#000000"/><text fill="#D8BC00" font-family="Open Sans,Avenir,Nunito,Arial,Helvetica,SansSerif" font-size="12.5" font-weight="bold" lengthAdjust="spacing" textLength="206.25" x="431.7708" y="184.5378">SphericalMercatorMapProjection</text><line style="stroke:#5E5E5E;stroke-width:1.5625;" x1="345.8333" x2="692.7083" y1="195.5078" y2="195.5078"/><ellipse cx="356.25" cy="230.8777" fill="#84BE84" rx="3.125" ry="3.125" style="stroke:#038048;stroke-width:1.0416666666666667;"/><text fill="#D8BC00" font-family="Open Sans,Avenir,Nunito,Arial,Helvetica,SansSerif" font-size="11.4583" lengthAdjust="spacing" textLength="316.6667" x="367.7083" y="237.7889">SphericalMercatorMapProjection(Rectangle, DrawingSize)</text><line style="stroke:#5E5E5E;stroke-width:1.0416666666666667;" x1="345.8333" x2="475.5208" y1="213.7136" y2="213.7136"/><text fill="#D8BC00" font-family="Open Sans,Avenir,Nunito,Arial,Helvetica,SansSerif" font-size="11.4583" lengthAdjust="spacing" textLength="81.25" x="478.6458" y="217.5232">(constructors)</text><line style="stroke:#5E5E5E;stroke-width:1.0416666666666667;" x1="563.0208" x2="692.7083" y1="213.7136" y2="213.7136"/><path codeLine="9" d="M287.7813,113.8382 C265.5521,129.3903 239.2708,147.7653 216.1771,163.9215 " fill="none" id="MapProjection-backto-CartesianMapProjection" style="stroke:#545454;stroke-width:1.5625;"/><polygon fill="none" points="283.7188,107.7861,304.9688,101.8174,292.0729,119.734,283.7188,107.7861" style="stroke:#545454;stroke-width:1.5625;"/><path codeLine="16" d="M388.5521,113.8382 C410.9063,129.3903 437.3438,147.7653 460.5625,163.9215 " fill="none" id="MapProjection-backto-SphericalMercatorMapProjection" style="stroke:#545454;stroke-width:1.5625;"/><polygon fill="none" points="384.2083,119.7028,371.2604,101.8174,392.5313,107.7236,384.2083,119.7028" style="stroke:#545454;stroke-width:1.5625;"/></g></svg>
