<?xml version="1.0" encoding="UTF-8" standalone="no"?><svg xmlns="http://www.w3.org/2000/svg" xmlns:xlink="http://www.w3.org/1999/xlink" contentScriptType="application/ecmascript" contentStyleType="text/css" height="798.9583px" preserveAspectRatio="none" style="width:690px;height:798px;background:#333333;" version="1.1" viewBox="0 0 690 798" width="690.625px" zoomAndPan="magnify"><defs/><g><rect fill="#48494B" height="41.2028" rx="8.3333" ry="8.3333" style="stroke:#545454;stroke-width:1.0416666666666667;" width="423.9583" x="126.0417" y="2.0833"/><text fill="#C0C0C0" font-family="Open Sans,Avenir,Nunito,Arial,Helvetica,SansSerif" font-size="20.8333" lengthAdjust="spacing" textLength="401.0417" x="137.5" y="30.5583">com.telenav.mesakit.graph.world.virtual</text><rect codeLine="7" fill="#282828" height="48.055" id="BaseRepeater" rx="8.3333" ry="8.3333" style="stroke:#5E5E5E;stroke-width:1.0416666666666667;" width="123.9583" x="438.5417" y="53.7028"/><rect fill="#1B1B1A" height="31.3883" rx="8.3333" ry="8.3333" style="stroke:#1B1B1A;stroke-width:1.0416666666666667;" width="123.9583" x="438.5417" y="53.7028"/><rect fill="#1B1B1A" height="8.3333" style="stroke:#1B1B1A;stroke-width:1.0416666666666667;" width="123.9583" x="438.5417" y="76.7578"/><rect codeLine="7" fill="none" height="48.055" id="BaseRepeater" rx="8.3333" ry="8.3333" style="stroke:#5E5E5E;stroke-width:1.0416666666666667;" width="123.9583" x="438.5417" y="53.7028"/><ellipse cx="453.125" cy="69.397" fill="#C8AC00" rx="10.4167" ry="10.4167" style="stroke:#D8BC00;stroke-width:1.0416666666666667;"/><path d="M452.7181,66.099 L451.8697,69.8283 L453.5726,69.8283 Z M451.6195,64.4511 L453.8228,64.4511 L456.2826,73.5636 L454.482,73.5636 L453.9205,71.3114 L451.5096,71.3114 L450.9603,73.5636 L449.1597,73.5636 Z " fill="#000000"/><text fill="#D8BC00" font-family="Open Sans,Avenir,Nunito,Arial,Helvetica,SansSerif" font-size="12.5" font-style="italic" font-weight="bold" lengthAdjust="spacing" textLength="86.4583" x="469.7917" y="74.1211">BaseRepeater</text><line style="stroke:#5E5E5E;stroke-width:1.0416666666666667;" x1="439.5833" x2="561.4583" y1="85.0911" y2="85.0911"/><line style="stroke:#5E5E5E;stroke-width:1.0416666666666667;" x1="439.5833" x2="561.4583" y1="93.4245" y2="93.4245"/><rect codeLine="12" fill="#282828" height="242.4255" id="VirtualReference" rx="8.3333" ry="8.3333" style="stroke:#5E5E5E;stroke-width:1.0416666666666667;" width="292.7083" x="155.7292" y="396.4111"/><rect fill="#1B1B1A" height="31.3883" rx="8.3333" ry="8.3333" style="stroke:#1B1B1A;stroke-width:1.0416666666666667;" width="292.7083" x="155.7292" y="396.4111"/><rect fill="#1B1B1A" height="8.3333" style="stroke:#1B1B1A;stroke-width:1.0416666666666667;" width="292.7083" x="155.7292" y="419.4661"/><rect codeLine="12" fill="none" height="242.4255" id="VirtualReference" rx="8.3333" ry="8.3333" style="stroke:#5E5E5E;stroke-width:1.0416666666666667;" width="292.7083" x="155.7292" y="396.4111"/><ellipse cx="232.8125" cy="412.1053" fill="#C8AC00" rx="10.4167" ry="10.4167" style="stroke:#D8BC00;stroke-width:1.0416666666666667;"/><path d="M232.4056,408.8074 L231.5572,412.5366 L233.2601,412.5366 Z M231.307,407.1594 L233.5103,407.1594 L235.9701,416.272 L234.1695,416.272 L233.608,414.0198 L231.1971,414.0198 L230.6478,416.272 L228.8472,416.272 Z " fill="#000000"/><text fill="#D8BC00" font-family="Open Sans,Avenir,Nunito,Arial,Helvetica,SansSerif" font-size="12.5" font-style="italic" font-weight="bold" lengthAdjust="spacing" textLength="105.2083" x="255.7292" y="416.8294">VirtualReference</text><rect fill="#333333" height="23.055" style="stroke:#A0A0A0;stroke-width:1.0416666666666667;stroke-dasharray:2.0,2.0;" width="16.6667" x="434.8958" y="393.2861"/><text fill="#A0A0A0" font-family="Open Sans,Avenir,Nunito,Arial,Helvetica,SansSerif" font-size="12.5" font-weight="bold" lengthAdjust="spacing" textLength="8.3333" x="439.0625" y="409.5378">T</text><line style="stroke:#5E5E5E;stroke-width:1.5625;" x1="156.7708" x2="447.3958" y1="427.7995" y2="427.7995"/><polygon fill="#FFFF44" points="167.1875,457.961,171.3542,462.1277,167.1875,466.2944,163.0208,462.1277" style="stroke:#B38D22;stroke-width:1.0416666666666667;"/><text fill="#D8BC00" font-family="Open Sans,Avenir,Nunito,Arial,Helvetica,SansSerif" font-size="11.4583" lengthAdjust="spacing" textLength="260.4167" x="178.6458" y="470.0806">VirtualReference(VirtualReferenceTracker&lt;T&gt;)</text><line style="stroke:#5E5E5E;stroke-width:1.0416666666666667;" x1="156.7708" x2="258.3333" y1="446.0052" y2="446.0052"/><text fill="#D8BC00" font-family="Open Sans,Avenir,Nunito,Arial,Helvetica,SansSerif" font-size="11.4583" lengthAdjust="spacing" textLength="81.25" x="261.4583" y="449.8149">(constructors)</text><line style="stroke:#5E5E5E;stroke-width:1.0416666666666667;" x1="345.8333" x2="447.3958" y1="446.0052" y2="446.0052"/><line style="stroke:#5E5E5E;stroke-width:1.0416666666666667;" x1="156.7708" x2="447.3958" y1="479.7892" y2="479.7892"/><ellipse cx="167.1875" cy="491.2476" fill="#84BE84" rx="3.125" ry="3.125" style="stroke:#038048;stroke-width:1.0416666666666667;"/><text fill="#D8BC00" font-family="Open Sans,Avenir,Nunito,Arial,Helvetica,SansSerif" font-size="11.4583" lengthAdjust="spacing" textLength="36.4583" x="178.6458" y="498.1588">T get()</text><polygon fill="#FFFF44" points="167.1875,529.6956,171.3542,533.8623,167.1875,538.029,163.0208,533.8623" style="stroke:#B38D22;stroke-width:1.0416666666666667;"/><text fill="#D8BC00" font-family="Open Sans,Avenir,Nunito,Arial,Helvetica,SansSerif" font-size="11.4583" lengthAdjust="spacing" textLength="60.4167" x="178.6458" y="541.8152">T onLoad()</text><line style="stroke:#5E5E5E;stroke-width:1.0416666666666667;" x1="156.7708" x2="247.9167" y1="517.7399" y2="517.7399"/><text fill="#D8BC00" font-family="Open Sans,Avenir,Nunito,Arial,Helvetica,SansSerif" font-size="11.4583" lengthAdjust="spacing" textLength="102.0833" x="251.0417" y="521.5495">(extension points)</text><line style="stroke:#5E5E5E;stroke-width:1.0416666666666667;" x1="356.25" x2="447.3958" y1="517.7399" y2="517.7399"/><polygon fill="#FFFF44" points="167.1875,573.3521,171.3542,577.5187,167.1875,581.6854,163.0208,577.5187" style="stroke:#B38D22;stroke-width:1.0416666666666667;"/><text fill="#D8BC00" font-family="Open Sans,Avenir,Nunito,Arial,Helvetica,SansSerif" font-size="11.4583" lengthAdjust="spacing" textLength="75" x="178.6458" y="585.4716">String name()</text><line style="stroke:#5E5E5E;stroke-width:1.0416666666666667;" x1="156.7708" x2="273.9583" y1="561.3963" y2="561.3963"/><text fill="#D8BC00" font-family="Open Sans,Avenir,Nunito,Arial,Helvetica,SansSerif" font-size="11.4583" lengthAdjust="spacing" textLength="50" x="277.0833" y="565.2059">(naming)</text><line style="stroke:#5E5E5E;stroke-width:1.0416666666666667;" x1="330.2083" x2="447.3958" y1="561.3963" y2="561.3963"/><polygon fill="#FFFF44" points="167.1875,617.0085,171.3542,621.1751,167.1875,625.3418,163.0208,621.1751" style="stroke:#B38D22;stroke-width:1.0416666666666667;"/><text fill="#D8BC00" font-family="Open Sans,Avenir,Nunito,Arial,Helvetica,SansSerif" font-size="11.4583" lengthAdjust="spacing" textLength="108.3333" x="178.6458" y="629.128">Bytes memorySize()</text><line style="stroke:#5E5E5E;stroke-width:1.0416666666666667;" x1="156.7708" x2="270.3125" y1="605.0527" y2="605.0527"/><text fill="#D8BC00" font-family="Open Sans,Avenir,Nunito,Arial,Helvetica,SansSerif" font-size="11.4583" lengthAdjust="spacing" textLength="57.2917" x="273.4375" y="608.8623">(primitive)</text><line style="stroke:#5E5E5E;stroke-width:1.0416666666666667;" x1="333.8542" x2="447.3958" y1="605.0527" y2="605.0527"/><rect fill="#282828" height="48.055" id="HardReferencedValue" rx="8.3333" ry="8.3333" style="stroke:#5E5E5E;stroke-width:1.0416666666666667;" width="173.9583" x="7.2917" y="744.3278"/><rect fill="#1B1B1A" height="31.3883" rx="8.3333" ry="8.3333" style="stroke:#1B1B1A;stroke-width:1.0416666666666667;" width="173.9583" x="7.2917" y="744.3278"/><rect fill="#1B1B1A" height="8.3333" style="stroke:#1B1B1A;stroke-width:1.0416666666666667;" width="173.9583" x="7.2917" y="767.3828"/><rect fill="none" height="48.055" id="HardReferencedValue" rx="8.3333" ry="8.3333" style="stroke:#5E5E5E;stroke-width:1.0416666666666667;" width="173.9583" x="7.2917" y="744.3278"/><ellipse cx="21.875" cy="760.022" fill="#0066CF" rx="10.4167" ry="10.4167" style="stroke:#0086EF;stroke-width:1.0416666666666667;"/><path d="M23.7854,764.447 Q23.3582,764.6667 22.8882,764.7766 Q22.4182,764.8865 21.8994,764.8865 Q20.0562,764.8865 19.0857,763.6719 Q18.1152,762.4573 18.1152,760.1624 Q18.1152,757.8613 19.0857,756.6467 Q20.0562,755.4321 21.8994,755.4321 Q22.4182,755.4321 22.8943,755.542 Q23.3704,755.6519 23.7854,755.8716 L23.7854,757.8735 Q23.3215,757.4463 22.8851,757.2479 Q22.4487,757.0496 21.9849,757.0496 Q20.9961,757.0496 20.4926,757.8339 Q19.989,758.6182 19.989,760.1624 Q19.989,761.7004 20.4926,762.4847 Q20.9961,763.269 21.9849,763.269 Q22.4487,763.269 22.8851,763.0707 Q23.3215,762.8723 23.7854,762.4451 Z " fill="#000000"/><text fill="#D8BC00" font-family="Open Sans,Avenir,Nunito,Arial,Helvetica,SansSerif" font-size="12.5" font-weight="bold" lengthAdjust="spacing" textLength="136.4583" x="38.5417" y="764.7461">HardReferencedValue</text><line style="stroke:#5E5E5E;stroke-width:1.0416666666666667;" x1="8.3333" x2="180.2083" y1="775.7161" y2="775.7161"/><line style="stroke:#5E5E5E;stroke-width:1.0416666666666667;" x1="8.3333" x2="180.2083" y1="784.0495" y2="784.0495"/><rect fill="#282828" height="48.055" id="SoftReferencedValue" rx="8.3333" ry="8.3333" style="stroke:#5E5E5E;stroke-width:1.0416666666666667;" width="169.7917" x="217.7083" y="744.3278"/><rect fill="#1B1B1A" height="31.3883" rx="8.3333" ry="8.3333" style="stroke:#1B1B1A;stroke-width:1.0416666666666667;" width="169.7917" x="217.7083" y="744.3278"/><rect fill="#1B1B1A" height="8.3333" style="stroke:#1B1B1A;stroke-width:1.0416666666666667;" width="169.7917" x="217.7083" y="767.3828"/><rect fill="none" height="48.055" id="SoftReferencedValue" rx="8.3333" ry="8.3333" style="stroke:#5E5E5E;stroke-width:1.0416666666666667;" width="169.7917" x="217.7083" y="744.3278"/><ellipse cx="232.2917" cy="760.022" fill="#0066CF" rx="10.4167" ry="10.4167" style="stroke:#0086EF;stroke-width:1.0416666666666667;"/><path d="M234.2021,764.447 Q233.7748,764.6667 233.3049,764.7766 Q232.8349,764.8865 232.3161,764.8865 Q230.4728,764.8865 229.5024,763.6719 Q228.5319,762.4573 228.5319,760.1624 Q228.5319,757.8613 229.5024,756.6467 Q230.4728,755.4321 232.3161,755.4321 Q232.8349,755.4321 233.311,755.542 Q233.787,755.6519 234.2021,755.8716 L234.2021,757.8735 Q233.7382,757.4463 233.3018,757.2479 Q232.8654,757.0496 232.4015,757.0496 Q231.4128,757.0496 230.9092,757.8339 Q230.4057,758.6182 230.4057,760.1624 Q230.4057,761.7004 230.9092,762.4847 Q231.4128,763.269 232.4015,763.269 Q232.8654,763.269 233.3018,763.0707 Q233.7382,762.8723 234.2021,762.4451 Z " fill="#000000"/><text fill="#D8BC00" font-family="Open Sans,Avenir,Nunito,Arial,Helvetica,SansSerif" font-size="12.5" font-weight="bold" lengthAdjust="spacing" textLength="132.2917" x="248.9583" y="764.7461">SoftReferencedValue</text><line style="stroke:#5E5E5E;stroke-width:1.0416666666666667;" x1="218.75" x2="386.4583" y1="775.7161" y2="775.7161"/><line style="stroke:#5E5E5E;stroke-width:1.0416666666666667;" x1="218.75" x2="386.4583" y1="784.0495" y2="784.0495"/><rect fill="#282828" height="48.055" id="WeakReferencedValue" rx="8.3333" ry="8.3333" style="stroke:#5E5E5E;stroke-width:1.0416666666666667;" width="178.125" x="423.9583" y="744.3278"/><rect fill="#1B1B1A" height="31.3883" rx="8.3333" ry="8.3333" style="stroke:#1B1B1A;stroke-width:1.0416666666666667;" width="178.125" x="423.9583" y="744.3278"/><rect fill="#1B1B1A" height="8.3333" style="stroke:#1B1B1A;stroke-width:1.0416666666666667;" width="178.125" x="423.9583" y="767.3828"/><rect fill="none" height="48.055" id="WeakReferencedValue" rx="8.3333" ry="8.3333" style="stroke:#5E5E5E;stroke-width:1.0416666666666667;" width="178.125" x="423.9583" y="744.3278"/><ellipse cx="438.5417" cy="760.022" fill="#0066CF" rx="10.4167" ry="10.4167" style="stroke:#0086EF;stroke-width:1.0416666666666667;"/><path d="M440.4521,764.447 Q440.0248,764.6667 439.5549,764.7766 Q439.0849,764.8865 438.5661,764.8865 Q436.7228,764.8865 435.7524,763.6719 Q434.7819,762.4573 434.7819,760.1624 Q434.7819,757.8613 435.7524,756.6467 Q436.7228,755.4321 438.5661,755.4321 Q439.0849,755.4321 439.561,755.542 Q440.037,755.6519 440.4521,755.8716 L440.4521,757.8735 Q439.9882,757.4463 439.5518,757.2479 Q439.1154,757.0496 438.6515,757.0496 Q437.6628,757.0496 437.1592,757.8339 Q436.6557,758.6182 436.6557,760.1624 Q436.6557,761.7004 437.1592,762.4847 Q437.6628,763.269 438.6515,763.269 Q439.1154,763.269 439.5518,763.0707 Q439.9882,762.8723 440.4521,762.4451 Z " fill="#000000"/><text fill="#D8BC00" font-family="Open Sans,Avenir,Nunito,Arial,Helvetica,SansSerif" font-size="12.5" font-weight="bold" lengthAdjust="spacing" textLength="140.625" x="455.2083" y="764.7461">WeakReferencedValue</text><line style="stroke:#5E5E5E;stroke-width:1.0416666666666667;" x1="425" x2="601.0417" y1="775.7161" y2="775.7161"/><line style="stroke:#5E5E5E;stroke-width:1.0416666666666667;" x1="425" x2="601.0417" y1="784.0495" y2="784.0495"/><rect codeLine="29" fill="#282828" height="83.3781" id="VirtualReferenceTracker" rx="8.3333" ry="8.3333" style="stroke:#5E5E5E;stroke-width:1.0416666666666667;" width="329.1667" x="335.9375" y="185.9945"/><rect fill="#1B1B1A" height="31.3883" rx="8.3333" ry="8.3333" style="stroke:#1B1B1A;stroke-width:1.0416666666666667;" width="329.1667" x="335.9375" y="185.9945"/><rect fill="#1B1B1A" height="8.3333" style="stroke:#1B1B1A;stroke-width:1.0416666666666667;" width="329.1667" x="335.9375" y="209.0495"/><rect codeLine="29" fill="none" height="83.3781" id="VirtualReferenceTracker" rx="8.3333" ry="8.3333" style="stroke:#5E5E5E;stroke-width:1.0416666666666667;" width="329.1667" x="335.9375" y="185.9945"/><ellipse cx="407.2917" cy="201.6886" fill="#0066CF" rx="10.4167" ry="10.4167" style="stroke:#0086EF;stroke-width:1.0416666666666667;"/><path d="M409.2021,206.1137 Q408.7748,206.3334 408.3049,206.4433 Q407.8349,206.5531 407.3161,206.5531 Q405.4728,206.5531 404.5024,205.3385 Q403.5319,204.1239 403.5319,201.829 Q403.5319,199.528 404.5024,198.3134 Q405.4728,197.0988 407.3161,197.0988 Q407.8349,197.0988 408.311,197.2087 Q408.787,197.3185 409.2021,197.5382 L409.2021,199.5402 Q408.7382,199.113 408.3018,198.9146 Q407.8654,198.7162 407.4015,198.7162 Q406.4128,198.7162 405.9092,199.5005 Q405.4057,200.2848 405.4057,201.829 Q405.4057,203.3671 405.9092,204.1514 Q406.4128,204.9357 407.4015,204.9357 Q407.8654,204.9357 408.3018,204.7373 Q408.7382,204.539 409.2021,204.1117 Z " fill="#000000"/><text fill="#D8BC00" font-family="Open Sans,Avenir,Nunito,Arial,Helvetica,SansSerif" font-size="12.5" font-weight="bold" lengthAdjust="spacing" textLength="153.125" x="430.2083" y="206.4128">VirtualReferenceTracker</text><rect fill="#333333" height="23.055" style="stroke:#A0A0A0;stroke-width:1.0416666666666667;stroke-dasharray:2.0,2.0;" width="16.6667" x="651.5625" y="182.8695"/><text fill="#A0A0A0" font-family="Open Sans,Avenir,Nunito,Arial,Helvetica,SansSerif" font-size="12.5" font-weight="bold" lengthAdjust="spacing" textLength="8.3333" x="655.7292" y="199.1211">T</text><line style="stroke:#5E5E5E;stroke-width:1.5625;" x1="336.9792" x2="664.0625" y1="217.3828" y2="217.3828"/><ellipse cx="347.3958" cy="252.7527" fill="#84BE84" rx="3.125" ry="3.125" style="stroke:#038048;stroke-width:1.0416666666666667;"/><text fill="#D8BC00" font-family="Open Sans,Avenir,Nunito,Arial,Helvetica,SansSerif" font-size="11.4583" lengthAdjust="spacing" textLength="296.875" x="358.8542" y="259.6639">VirtualReferenceTracker(Bytes, VirtualReferenceType)</text><line style="stroke:#5E5E5E;stroke-width:1.0416666666666667;" x1="336.9792" x2="456.7708" y1="235.5886" y2="235.5886"/><text fill="#D8BC00" font-family="Open Sans,Avenir,Nunito,Arial,Helvetica,SansSerif" font-size="11.4583" lengthAdjust="spacing" textLength="81.25" x="459.8958" y="239.3982">(constructors)</text><line style="stroke:#5E5E5E;stroke-width:1.0416666666666667;" x1="544.2708" x2="664.0625" y1="235.5886" y2="235.5886"/><rect codeLine="35" fill="#282828" height="107.2896" id="VirtualReferenceType" rx="8.3333" ry="8.3333" style="stroke:#5E5E5E;stroke-width:1.0416666666666667;" width="173.9583" x="509.375" y="463.5986"/><rect fill="#1B1B1A" height="31.3883" rx="8.3333" ry="8.3333" style="stroke:#1B1B1A;stroke-width:1.0416666666666667;" width="173.9583" x="509.375" y="463.5986"/><rect fill="#1B1B1A" height="8.3333" style="stroke:#1B1B1A;stroke-width:1.0416666666666667;" width="173.9583" x="509.375" y="486.6536"/><rect codeLine="35" fill="none" height="107.2896" id="VirtualReferenceType" rx="8.3333" ry="8.3333" style="stroke:#5E5E5E;stroke-width:1.0416666666666667;" width="173.9583" x="509.375" y="463.5986"/><ellipse cx="523.9583" cy="479.2928" fill="#CF6300" rx="10.4167" ry="10.4167" style="stroke:#EF8300;stroke-width:1.0416666666666667;"/><path d="M527.0142,483.9803 L521.3379,483.9803 L521.3379,474.8678 L527.0142,474.8678 L527.0142,476.4547 L523.1384,476.4547 L523.1384,478.42 L526.6479,478.42 L526.6479,480.0069 L523.1384,480.0069 L523.1384,482.3934 L527.0142,482.3934 Z " fill="#000000"/><text fill="#D8BC00" font-family="Open Sans,Avenir,Nunito,Arial,Helvetica,SansSerif" font-size="12.5" font-weight="bold" lengthAdjust="spacing" textLength="136.4583" x="540.625" y="484.0169">VirtualReferenceType</text><line style="stroke:#5E5E5E;stroke-width:1.0416666666666667;" x1="510.4167" x2="682.2917" y1="494.987" y2="494.987"/><text fill="#D8BC00" font-family="Open Sans,Avenir,Nunito,Arial,Helvetica,SansSerif" font-size="11.4583" lengthAdjust="spacing" textLength="32.2917" x="518.75" y="513.3565">NONE</text><text fill="#D8BC00" font-family="Open Sans,Avenir,Nunito,Arial,Helvetica,SansSerif" font-size="11.4583" lengthAdjust="spacing" textLength="29.1667" x="518.75" y="533.1014">SOFT</text><text fill="#D8BC00" font-family="Open Sans,Avenir,Nunito,Arial,Helvetica,SansSerif" font-size="11.4583" lengthAdjust="spacing" textLength="31.25" x="518.75" y="552.8463">WEAK</text><line style="stroke:#5E5E5E;stroke-width:1.0416666666666667;" x1="510.4167" x2="682.2917" y1="562.5549" y2="562.5549"/><path codeLine="9" d="M202.0938,638.3903 C170.2292,676.4736 137.9063,715.109 117.0729,739.9945 " fill="none" id="VirtualReference-to-HardReferencedValue" style="stroke:#545454;stroke-width:1.5625;"/><polygon fill="#545454" points="113.5729,744.182,122.7921,739.681,116.9218,740.193,116.4098,734.3228,113.5729,744.182" style="stroke:#545454;stroke-width:1.5625;"/><text fill="#A0A0A0" font-family="Open Sans,Avenir,Nunito,Arial,Helvetica,SansSerif" font-size="12.5" font-weight="bold" lengthAdjust="spacing" textLength="107.2917" x="160.9375" y="706.4128">can take form of</text><path codeLine="10" d="M302.6042,638.3903 C302.6042,675.8486 302.6042,713.8278 302.6042,738.7549 " fill="none" id="VirtualReference-to-SoftReferencedValue" style="stroke:#545454;stroke-width:1.5625;"/><polygon fill="#545454" points="302.6042,744.182,306.7708,734.807,302.6042,738.9736,298.4375,734.807,302.6042,744.182" style="stroke:#545454;stroke-width:1.5625;"/><text fill="#A0A0A0" font-family="Open Sans,Avenir,Nunito,Arial,Helvetica,SansSerif" font-size="12.5" font-weight="bold" lengthAdjust="spacing" textLength="107.2917" x="306.7708" y="706.4128">can take form of</text><path codeLine="11" d="M404.1146,638.3903 C436.3021,676.4736 468.9479,715.109 489.9896,739.9945 " fill="none" id="VirtualReference-to-WeakReferencedValue" style="stroke:#545454;stroke-width:1.5625;"/><polygon fill="#545454" points="493.5313,744.182,490.6547,734.3343,490.1663,740.2066,484.294,739.7182,493.5313,744.182" style="stroke:#545454;stroke-width:1.5625;"/><text fill="#A0A0A0" font-family="Open Sans,Avenir,Nunito,Arial,Helvetica,SansSerif" font-size="12.5" font-weight="bold" lengthAdjust="spacing" textLength="107.2917" x="466.1458" y="706.4128">can take form of</text><path codeLine="26" d="M500.5208,122.8486 C500.5208,142.807 500.5208,166.2549 500.5208,185.807 " fill="none" id="BaseRepeater-backto-VirtualReferenceTracker" style="stroke:#545454;stroke-width:1.5625;"/><polygon fill="none" points="493.2292,122.6507,500.5208,101.8174,507.8125,122.6507,493.2292,122.6507" style="stroke:#545454;stroke-width:1.5625;"/><path codeLine="27" d="M402.5938,277.2445 C384.9896,289.6195 368.2708,304.3486 355.7292,321.4111 C339.6458,343.2965 328.4271,369.7861 320.6042,396.0882 " fill="none" id="VirtualReferenceTracker-backto-VirtualReference" style="stroke:#545454;stroke-width:1.5625;"/><polygon fill="#333333" points="414.2604,269.4528,406.7489,269.462,403.8682,276.3992,411.3798,276.3901,414.2604,269.4528" style="stroke:#545454;stroke-width:1.5625;"/><text fill="#A0A0A0" font-family="Open Sans,Avenir,Nunito,Arial,Helvetica,SansSerif" font-size="12.5" font-weight="bold" lengthAdjust="spacing" textLength="158.3333" x="359.8958" y="337.6628">loads, weakens, hardens</text><text fill="#A0A0A0" font-family="Open Sans,Avenir,Nunito,Arial,Helvetica,SansSerif" font-size="12.5" font-weight="bold" lengthAdjust="spacing" textLength="8.3333" x="387.8922" y="292.9909">1</text><text fill="#A0A0A0" font-family="Open Sans,Avenir,Nunito,Arial,Helvetica,SansSerif" font-size="12.5" font-weight="bold" lengthAdjust="spacing" textLength="6.25" x="311.9769" y="382.4282">*</text><path codeLine="28" d="M518.4375,282.4632 C535.6771,334.1611 561.5625,411.8278 578.6979,463.2445 " fill="none" id="VirtualReferenceTracker-backto-VirtualReferenceType" style="stroke:#545454;stroke-width:1.5625;"/><polygon fill="#333333" points="514.1458,269.5882,512.1719,276.8358,518.1028,281.4454,520.0767,274.1978,514.1458,269.5882" style="stroke:#545454;stroke-width:1.5625;"/></g></svg>
