<?xml version="1.0" encoding="UTF-8" standalone="no"?><svg xmlns="http://www.w3.org/2000/svg" xmlns:xlink="http://www.w3.org/1999/xlink" contentScriptType="application/ecmascript" contentStyleType="text/css" height="586.4583px" preserveAspectRatio="none" style="width:2093px;height:586px;background:#333333;" version="1.1" viewBox="0 0 2093 586" width="2093.75px" zoomAndPan="magnify"><defs/><g><rect fill="#48494B" height="41.2028" rx="8.3333" ry="8.3333" style="stroke:#545454;stroke-width:1.0416666666666667;" width="548.9583" x="765.3646" y="2.0833"/><text fill="#C0C0C0" font-family="Open Sans,Avenir,Nunito,Arial,Helvetica,SansSerif" font-size="20.8333" lengthAdjust="spacing" textLength="526.0417" x="776.8229" y="30.5583">com.telenav.mesakit.map.ui.desktop.viewer.desktop</text><!--MD5=[b9a5b6b9fda57d3aae64bbc686b32a73]
cluster ViewModel--><polygon fill="#333333" points="1791.1458,82.3486,1873.4375,82.3486,1880.7292,109.5703,2076.5625,109.5703,2076.5625,270.8903,1791.1458,270.8903,1791.1458,82.3486" style="stroke:#333333;stroke-width:2.0833333333333335;"/><line style="stroke:#333333;stroke-width:2.0833333333333335;" x1="1791.1458" x2="1880.7292" y1="109.5703" y2="109.5703"/><text fill="#C8AC00" font-family="Open Sans,Avenir,Nunito,Arial,Helvetica,SansSerif" font-size="12.5" font-weight="bold" lengthAdjust="spacing" textLength="69.7917" x="1798.4375" y="99.6419">ViewModel</text><!--MD5=[4b2e68441297fcec0d6fbb622aabcbcc]
class ViewModel.Entry--><rect codeLine="40" fill="#282828" height="131.2012" id="ViewModel.Entry" rx="8.3333" ry="8.3333" style="stroke:#5E5E5E;stroke-width:1.0416666666666667;" width="251.0417" x="1808.3333" y="122.9736"/><rect fill="#1B1B1A" height="31.3883" rx="8.3333" ry="8.3333" style="stroke:#1B1B1A;stroke-width:1.0416666666666667;" width="251.0417" x="1808.3333" y="122.9736"/><rect fill="#1B1B1A" height="8.3333" style="stroke:#1B1B1A;stroke-width:1.0416666666666667;" width="251.0417" x="1808.3333" y="146.0286"/><rect codeLine="40" fill="none" height="131.2012" id="ViewModel.Entry" rx="8.3333" ry="8.3333" style="stroke:#5E5E5E;stroke-width:1.0416666666666667;" width="251.0417" x="1808.3333" y="122.9736"/><ellipse cx="1909.8958" cy="138.6678" fill="#0066CF" rx="10.4167" ry="10.4167" style="stroke:#0086EF;stroke-width:1.0416666666666667;"/><path d="M1911.8062,143.0929 Q1911.379,143.3126 1910.909,143.4224 Q1910.439,143.5323 1909.9202,143.5323 Q1908.077,143.5323 1907.1065,142.3177 Q1906.1361,141.1031 1906.1361,138.8082 Q1906.1361,136.5072 1907.1065,135.2926 Q1908.077,134.078 1909.9202,134.078 Q1910.439,134.078 1910.9151,134.1878 Q1911.3912,134.2977 1911.8062,134.5174 L1911.8062,136.5194 Q1911.3424,136.0921 1910.906,135.8938 Q1910.4696,135.6954 1910.0057,135.6954 Q1909.0169,135.6954 1908.5134,136.4797 Q1908.0098,137.264 1908.0098,138.8082 Q1908.0098,140.3463 1908.5134,141.1306 Q1909.0169,141.9149 1910.0057,141.9149 Q1910.4696,141.9149 1910.906,141.7165 Q1911.3424,141.5181 1911.8062,141.0909 Z " fill="#000000"/><text fill="#D8BC00" font-family="Open Sans,Avenir,Nunito,Arial,Helvetica,SansSerif" font-size="12.5" font-weight="bold" lengthAdjust="spacing" textLength="33.3333" x="1932.8125" y="143.3919">Entry</text><line style="stroke:#5E5E5E;stroke-width:1.5625;" x1="1809.375" x2="2058.3333" y1="154.362" y2="154.362"/><ellipse cx="1819.7917" cy="189.7319" fill="#84BE84" rx="3.125" ry="3.125" style="stroke:#038048;stroke-width:1.0416666666666667;"/><text fill="#D8BC00" font-family="Open Sans,Avenir,Nunito,Arial,Helvetica,SansSerif" font-size="11.4583" lengthAdjust="spacing" textLength="218.75" x="1831.25" y="196.6431">Entry(DrawableIdentifier, MapDrawable)</text><line style="stroke:#5E5E5E;stroke-width:1.0416666666666667;" x1="1809.375" x2="1890.1042" y1="172.5677" y2="172.5677"/><text fill="#D8BC00" font-family="Open Sans,Avenir,Nunito,Arial,Helvetica,SansSerif" font-size="11.4583" lengthAdjust="spacing" textLength="81.25" x="1893.2292" y="176.3774">(constructors)</text><line style="stroke:#5E5E5E;stroke-width:1.0416666666666667;" x1="1977.6042" x2="2058.3333" y1="172.5677" y2="172.5677"/><line style="stroke:#5E5E5E;stroke-width:1.0416666666666667;" x1="1809.375" x2="2058.3333" y1="206.3517" y2="206.3517"/><ellipse cx="1819.7917" cy="217.8101" fill="#84BE84" rx="3.125" ry="3.125" style="stroke:#038048;stroke-width:1.0416666666666667;"/><text fill="#D8BC00" font-family="Open Sans,Avenir,Nunito,Arial,Helvetica,SansSerif" font-size="11.4583" lengthAdjust="spacing" textLength="102.0833" x="1831.25" y="224.7213">void shape(Shape)</text><ellipse cx="1819.7917" cy="237.5549" fill="#84BE84" rx="3.125" ry="3.125" style="stroke:#038048;stroke-width:1.0416666666666667;"/><text fill="#D8BC00" font-family="Open Sans,Avenir,Nunito,Arial,Helvetica,SansSerif" font-size="11.4583" lengthAdjust="spacing" textLength="206.25" x="1831.25" y="244.4661">void viewable(MapDrawable viewable)</text><!--MD5=[1c4f61964b481a2bf1d4c5a4c401d89c]
class BaseViewer--><rect codeLine="18" fill="#282828" height="83.3781" id="BaseViewer" rx="8.3333" ry="8.3333" style="stroke:#5E5E5E;stroke-width:1.0416666666666667;" width="172.9167" x="52.6042" y="385.9945"/><rect fill="#1B1B1A" height="31.3883" rx="8.3333" ry="8.3333" style="stroke:#1B1B1A;stroke-width:1.0416666666666667;" width="172.9167" x="52.6042" y="385.9945"/><rect fill="#1B1B1A" height="8.3333" style="stroke:#1B1B1A;stroke-width:1.0416666666666667;" width="172.9167" x="52.6042" y="409.0495"/><rect codeLine="18" fill="none" height="83.3781" id="BaseViewer" rx="8.3333" ry="8.3333" style="stroke:#5E5E5E;stroke-width:1.0416666666666667;" width="172.9167" x="52.6042" y="385.9945"/><ellipse cx="95.3125" cy="401.6886" fill="#C8AC00" rx="10.4167" ry="10.4167" style="stroke:#D8BC00;stroke-width:1.0416666666666667;"/><path d="M94.9056,398.3907 L94.0572,402.12 L95.7601,402.12 Z M93.807,396.7428 L96.0103,396.7428 L98.4701,405.8553 L96.6695,405.8553 L96.108,403.6031 L93.6971,403.6031 L93.1478,405.8553 L91.3472,405.8553 Z " fill="#000000"/><text fill="#D8BC00" font-family="Open Sans,Avenir,Nunito,Arial,Helvetica,SansSerif" font-size="12.5" font-style="italic" font-weight="bold" lengthAdjust="spacing" textLength="72.9167" x="118.2292" y="406.4128">BaseViewer</text><line style="stroke:#5E5E5E;stroke-width:1.5625;" x1="53.6458" x2="224.4792" y1="417.3828" y2="417.3828"/><polygon fill="#FFFF44" points="64.0625,447.5444,68.2292,451.711,64.0625,455.8777,59.8958,451.711" style="stroke:#B38D22;stroke-width:1.0416666666666667;"/><text fill="#D8BC00" font-family="Open Sans,Avenir,Nunito,Arial,Helvetica,SansSerif" font-size="11.4583" lengthAdjust="spacing" textLength="140.625" x="75.5208" y="459.6639">View newView(String title)</text><line style="stroke:#5E5E5E;stroke-width:1.0416666666666667;" x1="53.6458" x2="111.9792" y1="435.5886" y2="435.5886"/><text fill="#D8BC00" font-family="Open Sans,Avenir,Nunito,Arial,Helvetica,SansSerif" font-size="11.4583" lengthAdjust="spacing" textLength="47.9167" x="115.1042" y="439.3982">(factory)</text><line style="stroke:#5E5E5E;stroke-width:1.0416666666666667;" x1="166.1458" x2="224.4792" y1="435.5886" y2="435.5886"/><!--MD5=[762aa3d0df6a9d47bd8e105afbd066b5]
class BaseRepeater--><rect codeLine="8" fill="#282828" height="48.055" id="BaseRepeater" rx="8.3333" ry="8.3333" style="stroke:#5E5E5E;stroke-width:1.0416666666666667;" width="123.9583" x="7.2917" y="164.6403"/><rect fill="#1B1B1A" height="31.3883" rx="8.3333" ry="8.3333" style="stroke:#1B1B1A;stroke-width:1.0416666666666667;" width="123.9583" x="7.2917" y="164.6403"/><rect fill="#1B1B1A" height="8.3333" style="stroke:#1B1B1A;stroke-width:1.0416666666666667;" width="123.9583" x="7.2917" y="187.6953"/><rect codeLine="8" fill="none" height="48.055" id="BaseRepeater" rx="8.3333" ry="8.3333" style="stroke:#5E5E5E;stroke-width:1.0416666666666667;" width="123.9583" x="7.2917" y="164.6403"/><ellipse cx="21.875" cy="180.3345" fill="#C8AC00" rx="10.4167" ry="10.4167" style="stroke:#D8BC00;stroke-width:1.0416666666666667;"/><path d="M21.4681,177.0365 L20.6197,180.7658 L22.3226,180.7658 Z M20.3695,175.3886 L22.5728,175.3886 L25.0326,184.5011 L23.232,184.5011 L22.6705,182.2489 L20.2596,182.2489 L19.7103,184.5011 L17.9097,184.5011 Z " fill="#000000"/><text fill="#D8BC00" font-family="Open Sans,Avenir,Nunito,Arial,Helvetica,SansSerif" font-size="12.5" font-style="italic" font-weight="bold" lengthAdjust="spacing" textLength="86.4583" x="38.5417" y="185.0586">BaseRepeater</text><line style="stroke:#5E5E5E;stroke-width:1.0416666666666667;" x1="8.3333" x2="130.2083" y1="196.0286" y2="196.0286"/><line style="stroke:#5E5E5E;stroke-width:1.0416666666666667;" x1="8.3333" x2="130.2083" y1="204.362" y2="204.362"/><!--MD5=[737880177de1ac01acd3fce58d07e50e]
class MouseListener--><rect codeLine="10" fill="#282828" height="48.055" id="MouseListener" rx="8.3333" ry="8.3333" style="stroke:#5E5E5E;stroke-width:1.0416666666666667;" width="132.2917" x="284.375" y="164.6403"/><rect fill="#1B1B1A" height="31.3883" rx="8.3333" ry="8.3333" style="stroke:#1B1B1A;stroke-width:1.0416666666666667;" width="132.2917" x="284.375" y="164.6403"/><rect fill="#1B1B1A" height="8.3333" style="stroke:#1B1B1A;stroke-width:1.0416666666666667;" width="132.2917" x="284.375" y="187.6953"/><rect codeLine="10" fill="none" height="48.055" id="MouseListener" rx="8.3333" ry="8.3333" style="stroke:#5E5E5E;stroke-width:1.0416666666666667;" width="132.2917" x="284.375" y="164.6403"/><ellipse cx="298.9583" cy="180.3345" fill="#008400" rx="10.4167" ry="10.4167" style="stroke:#239C23;stroke-width:1.0416666666666667;"/><path d="M296.3623,177.4963 L296.3623,175.9094 L301.7883,175.9094 L301.7883,177.4963 L299.9756,177.4963 L299.9756,183.4351 L301.7883,183.4351 L301.7883,185.022 L296.3623,185.022 L296.3623,183.4351 L298.175,183.4351 L298.175,177.4963 Z " fill="#000000"/><text fill="#D8BC00" font-family="Open Sans,Avenir,Nunito,Arial,Helvetica,SansSerif" font-size="12.5" font-style="italic" font-weight="bold" lengthAdjust="spacing" textLength="94.7917" x="315.625" y="185.0586">MouseListener</text><line style="stroke:#5E5E5E;stroke-width:1.0416666666666667;" x1="285.4167" x2="415.625" y1="196.0286" y2="196.0286"/><line style="stroke:#5E5E5E;stroke-width:1.0416666666666667;" x1="285.4167" x2="415.625" y1="204.362" y2="204.362"/><!--MD5=[5380544c80c75f795b7e65d9600632ba]
class InteractiveView--><rect codeLine="11" fill="#282828" height="48.055" id="InteractiveView" rx="8.3333" ry="8.3333" style="stroke:#5E5E5E;stroke-width:1.0416666666666667;" width="135.4167" x="453.6458" y="164.6403"/><rect fill="#1B1B1A" height="31.3883" rx="8.3333" ry="8.3333" style="stroke:#1B1B1A;stroke-width:1.0416666666666667;" width="135.4167" x="453.6458" y="164.6403"/><rect fill="#1B1B1A" height="8.3333" style="stroke:#1B1B1A;stroke-width:1.0416666666666667;" width="135.4167" x="453.6458" y="187.6953"/><rect codeLine="11" fill="none" height="48.055" id="InteractiveView" rx="8.3333" ry="8.3333" style="stroke:#5E5E5E;stroke-width:1.0416666666666667;" width="135.4167" x="453.6458" y="164.6403"/><ellipse cx="468.2292" cy="180.3345" fill="#008400" rx="10.4167" ry="10.4167" style="stroke:#239C23;stroke-width:1.0416666666666667;"/><path d="M465.6331,177.4963 L465.6331,175.9094 L471.0592,175.9094 L471.0592,177.4963 L469.2464,177.4963 L469.2464,183.4351 L471.0592,183.4351 L471.0592,185.022 L465.6331,185.022 L465.6331,183.4351 L467.4459,183.4351 L467.4459,177.4963 Z " fill="#000000"/><text fill="#D8BC00" font-family="Open Sans,Avenir,Nunito,Arial,Helvetica,SansSerif" font-size="12.5" font-style="italic" font-weight="bold" lengthAdjust="spacing" textLength="97.9167" x="484.8958" y="185.0586">InteractiveView</text><line style="stroke:#5E5E5E;stroke-width:1.0416666666666667;" x1="454.6875" x2="588.0208" y1="196.0286" y2="196.0286"/><line style="stroke:#5E5E5E;stroke-width:1.0416666666666667;" x1="454.6875" x2="588.0208" y1="204.362" y2="204.362"/><!--MD5=[e6942bb3dc3af6df69a4b204b94b9e0a]
class Viewer--><rect codeLine="12" fill="#282828" height="48.055" id="Viewer" rx="8.3333" ry="8.3333" style="stroke:#5E5E5E;stroke-width:1.0416666666666667;" width="80.2083" x="167.7083" y="164.6403"/><rect fill="#1B1B1A" height="31.3883" rx="8.3333" ry="8.3333" style="stroke:#1B1B1A;stroke-width:1.0416666666666667;" width="80.2083" x="167.7083" y="164.6403"/><rect fill="#1B1B1A" height="8.3333" style="stroke:#1B1B1A;stroke-width:1.0416666666666667;" width="80.2083" x="167.7083" y="187.6953"/><rect codeLine="12" fill="none" height="48.055" id="Viewer" rx="8.3333" ry="8.3333" style="stroke:#5E5E5E;stroke-width:1.0416666666666667;" width="80.2083" x="167.7083" y="164.6403"/><ellipse cx="182.2917" cy="180.3345" fill="#008400" rx="10.4167" ry="10.4167" style="stroke:#239C23;stroke-width:1.0416666666666667;"/><path d="M179.6956,177.4963 L179.6956,175.9094 L185.1217,175.9094 L185.1217,177.4963 L183.3089,177.4963 L183.3089,183.4351 L185.1217,183.4351 L185.1217,185.022 L179.6956,185.022 L179.6956,183.4351 L181.5084,183.4351 L181.5084,177.4963 Z " fill="#000000"/><text fill="#D8BC00" font-family="Open Sans,Avenir,Nunito,Arial,Helvetica,SansSerif" font-size="12.5" font-style="italic" font-weight="bold" lengthAdjust="spacing" textLength="42.7083" x="198.9583" y="185.0586">Viewer</text><line style="stroke:#5E5E5E;stroke-width:1.0416666666666667;" x1="168.75" x2="246.875" y1="196.0286" y2="196.0286"/><line style="stroke:#5E5E5E;stroke-width:1.0416666666666667;" x1="168.75" x2="246.875" y1="204.362" y2="204.362"/><!--MD5=[ca727575a11b91d060112bc1b021e986]
class MouseWheelListener--><rect codeLine="13" fill="#282828" height="48.055" id="MouseWheelListener" rx="8.3333" ry="8.3333" style="stroke:#5E5E5E;stroke-width:1.0416666666666667;" width="170.8333" x="625.5208" y="164.6403"/><rect fill="#1B1B1A" height="31.3883" rx="8.3333" ry="8.3333" style="stroke:#1B1B1A;stroke-width:1.0416666666666667;" width="170.8333" x="625.5208" y="164.6403"/><rect fill="#1B1B1A" height="8.3333" style="stroke:#1B1B1A;stroke-width:1.0416666666666667;" width="170.8333" x="625.5208" y="187.6953"/><rect codeLine="13" fill="none" height="48.055" id="MouseWheelListener" rx="8.3333" ry="8.3333" style="stroke:#5E5E5E;stroke-width:1.0416666666666667;" width="170.8333" x="625.5208" y="164.6403"/><ellipse cx="640.1042" cy="180.3345" fill="#008400" rx="10.4167" ry="10.4167" style="stroke:#239C23;stroke-width:1.0416666666666667;"/><path d="M637.5081,177.4963 L637.5081,175.9094 L642.9342,175.9094 L642.9342,177.4963 L641.1214,177.4963 L641.1214,183.4351 L642.9342,183.4351 L642.9342,185.022 L637.5081,185.022 L637.5081,183.4351 L639.3209,183.4351 L639.3209,177.4963 Z " fill="#000000"/><text fill="#D8BC00" font-family="Open Sans,Avenir,Nunito,Arial,Helvetica,SansSerif" font-size="12.5" font-style="italic" font-weight="bold" lengthAdjust="spacing" textLength="133.3333" x="656.7708" y="185.0586">MouseWheelListener</text><line style="stroke:#5E5E5E;stroke-width:1.0416666666666667;" x1="626.5625" x2="795.3125" y1="196.0286" y2="196.0286"/><line style="stroke:#5E5E5E;stroke-width:1.0416666666666667;" x1="626.5625" x2="795.3125" y1="204.362" y2="204.362"/><!--MD5=[f2883cdefd3b962ee9d27e22f43a0ecf]
class MouseMotionListener--><rect codeLine="14" fill="#282828" height="48.055" id="MouseMotionListener" rx="8.3333" ry="8.3333" style="stroke:#5E5E5E;stroke-width:1.0416666666666667;" width="178.125" x="833.3333" y="164.6403"/><rect fill="#1B1B1A" height="31.3883" rx="8.3333" ry="8.3333" style="stroke:#1B1B1A;stroke-width:1.0416666666666667;" width="178.125" x="833.3333" y="164.6403"/><rect fill="#1B1B1A" height="8.3333" style="stroke:#1B1B1A;stroke-width:1.0416666666666667;" width="178.125" x="833.3333" y="187.6953"/><rect codeLine="14" fill="none" height="48.055" id="MouseMotionListener" rx="8.3333" ry="8.3333" style="stroke:#5E5E5E;stroke-width:1.0416666666666667;" width="178.125" x="833.3333" y="164.6403"/><ellipse cx="847.9167" cy="180.3345" fill="#008400" rx="10.4167" ry="10.4167" style="stroke:#239C23;stroke-width:1.0416666666666667;"/><path d="M845.3206,177.4963 L845.3206,175.9094 L850.7467,175.9094 L850.7467,177.4963 L848.9339,177.4963 L848.9339,183.4351 L850.7467,183.4351 L850.7467,185.022 L845.3206,185.022 L845.3206,183.4351 L847.1334,183.4351 L847.1334,177.4963 Z " fill="#000000"/><text fill="#D8BC00" font-family="Open Sans,Avenir,Nunito,Arial,Helvetica,SansSerif" font-size="12.5" font-style="italic" font-weight="bold" lengthAdjust="spacing" textLength="140.625" x="864.5833" y="185.0586">MouseMotionListener</text><line style="stroke:#5E5E5E;stroke-width:1.0416666666666667;" x1="834.375" x2="1010.4167" y1="196.0286" y2="196.0286"/><line style="stroke:#5E5E5E;stroke-width:1.0416666666666667;" x1="834.375" x2="1010.4167" y1="204.362" y2="204.362"/><!--MD5=[af350730d7ca78e611dba100a1200108]
class KivaKitPanel--><rect fill="#282828" height="48.055" id="KivaKitPanel" rx="8.3333" ry="8.3333" style="stroke:#5E5E5E;stroke-width:1.0416666666666667;" width="118.75" x="1048.4375" y="164.6403"/><rect fill="#1B1B1A" height="31.3883" rx="8.3333" ry="8.3333" style="stroke:#1B1B1A;stroke-width:1.0416666666666667;" width="118.75" x="1048.4375" y="164.6403"/><rect fill="#1B1B1A" height="8.3333" style="stroke:#1B1B1A;stroke-width:1.0416666666666667;" width="118.75" x="1048.4375" y="187.6953"/><rect fill="none" height="48.055" id="KivaKitPanel" rx="8.3333" ry="8.3333" style="stroke:#5E5E5E;stroke-width:1.0416666666666667;" width="118.75" x="1048.4375" y="164.6403"/><ellipse cx="1063.0208" cy="180.3345" fill="#0066CF" rx="10.4167" ry="10.4167" style="stroke:#0086EF;stroke-width:1.0416666666666667;"/><path d="M1064.9312,184.7595 Q1064.504,184.9792 1064.034,185.0891 Q1063.564,185.199 1063.0452,185.199 Q1061.202,185.199 1060.2315,183.9844 Q1059.2611,182.7698 1059.2611,180.4749 Q1059.2611,178.1738 1060.2315,176.9592 Q1061.202,175.7446 1063.0452,175.7446 Q1063.564,175.7446 1064.0401,175.8545 Q1064.5162,175.9644 1064.9312,176.1841 L1064.9312,178.186 Q1064.4674,177.7588 1064.031,177.5604 Q1063.5946,177.3621 1063.1307,177.3621 Q1062.1419,177.3621 1061.6384,178.1464 Q1061.1348,178.9307 1061.1348,180.4749 Q1061.1348,182.0129 1061.6384,182.7972 Q1062.1419,183.5815 1063.1307,183.5815 Q1063.5946,183.5815 1064.031,183.3832 Q1064.4674,183.1848 1064.9312,182.7576 Z " fill="#000000"/><text fill="#D8BC00" font-family="Open Sans,Avenir,Nunito,Arial,Helvetica,SansSerif" font-size="12.5" font-weight="bold" lengthAdjust="spacing" textLength="81.25" x="1079.6875" y="185.0586">KivaKitPanel</text><line style="stroke:#5E5E5E;stroke-width:1.0416666666666667;" x1="1049.4792" x2="1166.1458" y1="196.0286" y2="196.0286"/><line style="stroke:#5E5E5E;stroke-width:1.0416666666666667;" x1="1049.4792" x2="1166.1458" y1="204.362" y2="204.362"/><!--MD5=[f1781b1974930db5262b0c73a89c48e5]
class DesktopViewPanel--><rect codeLine="29" fill="#282828" height="83.3781" id="DesktopViewPanel" rx="8.3333" ry="8.3333" style="stroke:#5E5E5E;stroke-width:1.0416666666666667;" width="185.4167" x="618.2292" y="385.9945"/><rect fill="#1B1B1A" height="31.3883" rx="8.3333" ry="8.3333" style="stroke:#1B1B1A;stroke-width:1.0416666666666667;" width="185.4167" x="618.2292" y="385.9945"/><rect fill="#1B1B1A" height="8.3333" style="stroke:#1B1B1A;stroke-width:1.0416666666666667;" width="185.4167" x="618.2292" y="409.0495"/><rect codeLine="29" fill="none" height="83.3781" id="DesktopViewPanel" rx="8.3333" ry="8.3333" style="stroke:#5E5E5E;stroke-width:1.0416666666666667;" width="185.4167" x="618.2292" y="385.9945"/><ellipse cx="645.4688" cy="401.6886" fill="#0066CF" rx="10.4167" ry="10.4167" style="stroke:#0086EF;stroke-width:1.0416666666666667;"/><path d="M647.3792,406.1137 Q646.9519,406.3334 646.4819,406.4433 Q646.012,406.5531 645.4932,406.5531 Q643.6499,406.5531 642.6794,405.3385 Q641.709,404.1239 641.709,401.829 Q641.709,399.528 642.6794,398.3134 Q643.6499,397.0988 645.4932,397.0988 Q646.012,397.0988 646.488,397.2087 Q646.9641,397.3185 647.3792,397.5382 L647.3792,399.5402 Q646.9153,399.113 646.4789,398.9146 Q646.0425,398.7162 645.5786,398.7162 Q644.5898,398.7162 644.0863,399.5005 Q643.5828,400.2848 643.5828,401.829 Q643.5828,403.3671 644.0863,404.1514 Q644.5898,404.9357 645.5786,404.9357 Q646.0425,404.9357 646.4789,404.7373 Q646.9153,404.539 647.3792,404.1117 Z " fill="#000000"/><text fill="#D8BC00" font-family="Open Sans,Avenir,Nunito,Arial,Helvetica,SansSerif" font-size="12.5" font-weight="bold" lengthAdjust="spacing" textLength="119.7917" x="664.9479" y="406.4128">DesktopViewPanel</text><line style="stroke:#5E5E5E;stroke-width:1.5625;" x1="619.2708" x2="802.6042" y1="417.3828" y2="417.3828"/><ellipse cx="629.6875" cy="452.7527" fill="#84BE84" rx="3.125" ry="3.125" style="stroke:#038048;stroke-width:1.0416666666666667;"/><text fill="#D8BC00" font-family="Open Sans,Avenir,Nunito,Arial,Helvetica,SansSerif" font-size="11.4583" lengthAdjust="spacing" textLength="153.125" x="641.1458" y="459.6639">DesktopViewPanel(Listener)</text><line style="stroke:#5E5E5E;stroke-width:1.0416666666666667;" x1="619.2708" x2="667.1875" y1="435.5886" y2="435.5886"/><text fill="#D8BC00" font-family="Open Sans,Avenir,Nunito,Arial,Helvetica,SansSerif" font-size="11.4583" lengthAdjust="spacing" textLength="81.25" x="670.3125" y="439.3982">(constructors)</text><line style="stroke:#5E5E5E;stroke-width:1.0416666666666667;" x1="754.6875" x2="802.6042" y1="435.5886" y2="435.5886"/><!--MD5=[43d90b8e96df1d117d2e88832fd0db5c]
class DesktopViewer--><rect codeLine="36" fill="#282828" height="48.055" id="DesktopViewer" rx="8.3333" ry="8.3333" style="stroke:#5E5E5E;stroke-width:1.0416666666666667;" width="135.4167" x="71.3542" y="531.8278"/><rect fill="#1B1B1A" height="31.3883" rx="8.3333" ry="8.3333" style="stroke:#1B1B1A;stroke-width:1.0416666666666667;" width="135.4167" x="71.3542" y="531.8278"/><rect fill="#1B1B1A" height="8.3333" style="stroke:#1B1B1A;stroke-width:1.0416666666666667;" width="135.4167" x="71.3542" y="554.8828"/><rect codeLine="36" fill="none" height="48.055" id="DesktopViewer" rx="8.3333" ry="8.3333" style="stroke:#5E5E5E;stroke-width:1.0416666666666667;" width="135.4167" x="71.3542" y="531.8278"/><ellipse cx="85.9375" cy="547.522" fill="#0066CF" rx="10.4167" ry="10.4167" style="stroke:#0086EF;stroke-width:1.0416666666666667;"/><path d="M87.8479,551.947 Q87.4207,552.1667 86.9507,552.2766 Q86.4807,552.3865 85.9619,552.3865 Q84.1187,552.3865 83.1482,551.1719 Q82.1777,549.9573 82.1777,547.6624 Q82.1777,545.3613 83.1482,544.1467 Q84.1187,542.9321 85.9619,542.9321 Q86.4807,542.9321 86.9568,543.042 Q87.4329,543.1519 87.8479,543.3716 L87.8479,545.3735 Q87.384,544.9463 86.9476,544.7479 Q86.5112,544.5496 86.0474,544.5496 Q85.0586,544.5496 84.5551,545.3339 Q84.0515,546.1182 84.0515,547.6624 Q84.0515,549.2004 84.5551,549.9847 Q85.0586,550.769 86.0474,550.769 Q86.5112,550.769 86.9476,550.5707 Q87.384,550.3723 87.8479,549.9451 Z " fill="#000000"/><text fill="#D8BC00" font-family="Open Sans,Avenir,Nunito,Arial,Helvetica,SansSerif" font-size="12.5" font-weight="bold" lengthAdjust="spacing" textLength="97.9167" x="102.6042" y="552.2461">DesktopViewer</text><line style="stroke:#5E5E5E;stroke-width:1.0416666666666667;" x1="72.3958" x2="205.7292" y1="563.2161" y2="563.2161"/><line style="stroke:#5E5E5E;stroke-width:1.0416666666666667;" x1="72.3958" x2="205.7292" y1="571.5495" y2="571.5495"/><!--MD5=[e3569472c98bb8737e19e572efe27117]
class DesktopViewPanel.State--><rect codeLine="49" fill="#282828" height="107.2896" id="DesktopViewPanel.State" rx="8.3333" ry="8.3333" style="stroke:#5E5E5E;stroke-width:1.0416666666666667;" width="192.7083" x="1204.1667" y="134.9528"/><rect fill="#1B1B1A" height="31.3883" rx="8.3333" ry="8.3333" style="stroke:#1B1B1A;stroke-width:1.0416666666666667;" width="192.7083" x="1204.1667" y="134.9528"/><rect fill="#1B1B1A" height="8.3333" style="stroke:#1B1B1A;stroke-width:1.0416666666666667;" width="192.7083" x="1204.1667" y="158.0078"/><rect codeLine="49" fill="none" height="107.2896" id="DesktopViewPanel.State" rx="8.3333" ry="8.3333" style="stroke:#5E5E5E;stroke-width:1.0416666666666667;" width="192.7083" x="1204.1667" y="134.9528"/><ellipse cx="1218.75" cy="150.647" fill="#CF6300" rx="10.4167" ry="10.4167" style="stroke:#EF8300;stroke-width:1.0416666666666667;"/><path d="M1221.8058,155.3345 L1216.1296,155.3345 L1216.1296,146.2219 L1221.8058,146.2219 L1221.8058,147.8088 L1217.9301,147.8088 L1217.9301,149.7742 L1221.4396,149.7742 L1221.4396,151.3611 L1217.9301,151.3611 L1217.9301,153.7476 L1221.8058,153.7476 Z " fill="#000000"/><text fill="#D8BC00" font-family="Open Sans,Avenir,Nunito,Arial,Helvetica,SansSerif" font-size="12.5" font-weight="bold" lengthAdjust="spacing" textLength="155.2083" x="1235.4167" y="155.3711">DesktopViewPanel.State</text><line style="stroke:#5E5E5E;stroke-width:1.0416666666666667;" x1="1205.2083" x2="1395.8333" y1="166.3411" y2="166.3411"/><text fill="#D8BC00" font-family="Open Sans,Avenir,Nunito,Arial,Helvetica,SansSerif" font-size="11.4583" lengthAdjust="spacing" textLength="43.75" x="1213.5417" y="184.7107">PAUSED</text><text fill="#D8BC00" font-family="Open Sans,Avenir,Nunito,Arial,Helvetica,SansSerif" font-size="11.4583" lengthAdjust="spacing" textLength="52.0833" x="1213.5417" y="204.4556">RUNNING</text><text fill="#D8BC00" font-family="Open Sans,Avenir,Nunito,Arial,Helvetica,SansSerif" font-size="11.4583" lengthAdjust="spacing" textLength="52.0833" x="1213.5417" y="224.2004">STEPPING</text><line style="stroke:#5E5E5E;stroke-width:1.0416666666666667;" x1="1205.2083" x2="1395.8333" y1="233.9091" y2="233.9091"/><!--MD5=[b1d46488418bc0cd55cf54b5fc017696]
class ViewModel--><rect codeLine="56" fill="#282828" height="269.4153" id="ViewModel" rx="8.3333" ry="8.3333" style="stroke:#5E5E5E;stroke-width:1.0416666666666667;" width="337.5" x="1433.8542" y="53.7028"/><rect fill="#1B1B1A" height="31.3883" rx="8.3333" ry="8.3333" style="stroke:#1B1B1A;stroke-width:1.0416666666666667;" width="337.5" x="1433.8542" y="53.7028"/><rect fill="#1B1B1A" height="8.3333" style="stroke:#1B1B1A;stroke-width:1.0416666666666667;" width="337.5" x="1433.8542" y="76.7578"/><rect codeLine="56" fill="none" height="269.4153" id="ViewModel" rx="8.3333" ry="8.3333" style="stroke:#5E5E5E;stroke-width:1.0416666666666667;" width="337.5" x="1433.8542" y="53.7028"/><ellipse cx="1560.4167" cy="69.397" fill="#0066CF" rx="10.4167" ry="10.4167" style="stroke:#0086EF;stroke-width:1.0416666666666667;"/><path d="M1562.3271,73.822 Q1561.8998,74.0417 1561.4299,74.1516 Q1560.9599,74.2615 1560.4411,74.2615 Q1558.5978,74.2615 1557.6274,73.0469 Q1556.6569,71.8323 1556.6569,69.5374 Q1556.6569,67.2363 1557.6274,66.0217 Q1558.5978,64.8071 1560.4411,64.8071 Q1560.9599,64.8071 1561.436,64.917 Q1561.912,65.0269 1562.3271,65.2466 L1562.3271,67.2485 Q1561.8632,66.8213 1561.4268,66.6229 Q1560.9904,66.4246 1560.5265,66.4246 Q1559.5378,66.4246 1559.0342,67.2089 Q1558.5307,67.9932 1558.5307,69.5374 Q1558.5307,71.0754 1559.0342,71.8597 Q1559.5378,72.644 1560.5265,72.644 Q1560.9904,72.644 1561.4268,72.4457 Q1561.8632,72.2473 1562.3271,71.8201 Z " fill="#000000"/><text fill="#D8BC00" font-family="Open Sans,Avenir,Nunito,Arial,Helvetica,SansSerif" font-size="12.5" font-weight="bold" lengthAdjust="spacing" textLength="69.7917" x="1583.3333" y="74.1211">ViewModel</text><line style="stroke:#5E5E5E;stroke-width:1.5625;" x1="1434.8958" x2="1770.3125" y1="85.0911" y2="85.0911"/><line style="stroke:#5E5E5E;stroke-width:1.0416666666666667;" x1="1434.8958" x2="1770.3125" y1="93.4245" y2="93.4245"/><ellipse cx="1445.3125" cy="104.8828" fill="#84BE84" rx="3.125" ry="3.125" style="stroke:#038048;stroke-width:1.0416666666666667;"/><text fill="#D8BC00" font-family="Open Sans,Avenir,Nunito,Arial,Helvetica,SansSerif" font-size="11.4583" lengthAdjust="spacing" textLength="108.3333" x="1456.7708" y="111.794">Rectangle bounds()</text><ellipse cx="1445.3125" cy="124.6277" fill="#84BE84" rx="3.125" ry="3.125" style="stroke:#038048;stroke-width:1.0416666666666667;"/><text fill="#D8BC00" font-family="Open Sans,Avenir,Nunito,Arial,Helvetica,SansSerif" font-size="11.4583" lengthAdjust="spacing" textLength="150" x="1456.7708" y="131.5389">void draw(DrawingSurface)</text><ellipse cx="1445.3125" cy="144.3726" fill="#84BE84" rx="3.125" ry="3.125" style="stroke:#038048;stroke-width:1.0416666666666667;"/><text fill="#D8BC00" font-family="Open Sans,Avenir,Nunito,Arial,Helvetica,SansSerif" font-size="11.4583" lengthAdjust="spacing" textLength="202.0833" x="1456.7708" y="151.2838">void pullToFront(DrawableIdentifier)</text><ellipse cx="1445.3125" cy="164.1174" fill="#84BE84" rx="3.125" ry="3.125" style="stroke:#038048;stroke-width:1.0416666666666667;"/><text fill="#D8BC00" font-family="Open Sans,Avenir,Nunito,Arial,Helvetica,SansSerif" font-size="11.4583" lengthAdjust="spacing" textLength="95.8333" x="1456.7708" y="171.0286">void select(Point)</text><ellipse cx="1445.3125" cy="183.8623" fill="#84BE84" rx="3.125" ry="3.125" style="stroke:#038048;stroke-width:1.0416666666666667;"/><text fill="#D8BC00" font-family="Open Sans,Avenir,Nunito,Arial,Helvetica,SansSerif" font-size="11.4583" lengthAdjust="spacing" textLength="305.2083" x="1456.7708" y="190.7735">void update(DrawableIdentifier, MapDrawable viewable)</text><ellipse cx="1445.3125" cy="227.5187" fill="#84BE84" rx="3.125" ry="3.125" style="stroke:#038048;stroke-width:1.0416666666666667;"/><text fill="#D8BC00" font-family="Open Sans,Avenir,Nunito,Arial,Helvetica,SansSerif" font-size="11.4583" lengthAdjust="spacing" textLength="180.2083" x="1456.7708" y="234.4299">void add(MapDrawable viewable)</text><ellipse cx="1445.3125" cy="247.2636" fill="#84BE84" rx="3.125" ry="3.125" style="stroke:#038048;stroke-width:1.0416666666666667;"/><text fill="#D8BC00" font-family="Open Sans,Avenir,Nunito,Arial,Helvetica,SansSerif" font-size="11.4583" lengthAdjust="spacing" textLength="62.5" x="1456.7708" y="254.1748">void clear()</text><ellipse cx="1445.3125" cy="267.0085" fill="#84BE84" rx="3.125" ry="3.125" style="stroke:#038048;stroke-width:1.0416666666666667;"/><text fill="#D8BC00" font-family="Open Sans,Avenir,Nunito,Arial,Helvetica,SansSerif" font-size="11.4583" lengthAdjust="spacing" textLength="278.125" x="1456.7708" y="273.9197">void map(Function&lt;MapDrawable,MapDrawable&gt;)</text><ellipse cx="1445.3125" cy="286.7533" fill="#84BE84" rx="3.125" ry="3.125" style="stroke:#038048;stroke-width:1.0416666666666667;"/><text fill="#D8BC00" font-family="Open Sans,Avenir,Nunito,Arial,Helvetica,SansSerif" font-size="11.4583" lengthAdjust="spacing" textLength="204.1667" x="1456.7708" y="293.6646">void pushToBack(DrawableIdentifier)</text><ellipse cx="1445.3125" cy="306.4982" fill="#84BE84" rx="3.125" ry="3.125" style="stroke:#038048;stroke-width:1.0416666666666667;"/><text fill="#D8BC00" font-family="Open Sans,Avenir,Nunito,Arial,Helvetica,SansSerif" font-size="11.4583" lengthAdjust="spacing" textLength="178.125" x="1456.7708" y="313.4094">void remove(DrawableIdentifier)</text><line style="stroke:#5E5E5E;stroke-width:1.0416666666666667;" x1="1434.8958" x2="1568.2292" y1="210.3546" y2="210.3546"/><text fill="#D8BC00" font-family="Open Sans,Avenir,Nunito,Arial,Helvetica,SansSerif" font-size="11.4583" lengthAdjust="spacing" textLength="62.5" x="1571.3542" y="214.1642">(collection)</text><line style="stroke:#5E5E5E;stroke-width:1.0416666666666667;" x1="1636.9792" x2="1770.3125" y1="210.3546" y2="210.3546"/><!--MD5=[726db11f7351f2bcc84bcf4cfd62e565]
reverse link BaseRepeater to BaseViewer--><path codeLine="16" d="M82.0104,232.9111 C94.8229,276.4007 114.4167,342.932 126.9792,385.5986 " fill="none" id="BaseRepeater-backto-BaseViewer" style="stroke:#545454;stroke-width:1.5625;"/><polygon fill="none" points="74.9792,234.8382,76.0938,212.7965,88.9688,230.7236,74.9792,234.8382" style="stroke:#545454;stroke-width:1.5625;"/><!--MD5=[cf7ee954779d1d441c64dc9179c505cb]
reverse link Viewer to BaseViewer--><path codeLine="17" d="M195.2604,232.9111 C182.6458,276.4007 163.3438,342.932 150.9583,385.5986 " fill="none" id="Viewer-backto-BaseViewer" style="stroke:#545454;stroke-width:1.5625;"/><polygon fill="none" points="188.2917,230.7757,201.0938,212.7965,202.2917,234.8382,188.2917,230.7757" style="stroke:#545454;stroke-width:1.5625;"/><!--MD5=[a44c69c741889c0239ce6c1aef170668]
reverse link KivaKitPanel to DesktopViewPanel--><path codeLine="24" d="M1092.3125,232.6299 C1079.6563,262.0465 1059.0417,299.8695 1029.6875,323.4945 C964.6667,375.8278 872.3854,401.8903 803.8333,414.6924 " fill="none" id="KivaKitPanel-backto-DesktopViewPanel" style="stroke:#545454;stroke-width:1.5625;"/><polygon fill="none" points="1085.6354,229.6611,1100.125,213.0049,1099.1875,235.057,1085.6354,229.6611" style="stroke:#545454;stroke-width:1.5625;"/><!--MD5=[a0c384db8ec9e367e3f1122aeb1fc67c]
reverse link InteractiveView to DesktopViewPanel--><path codeLine="25" d="M544.5417,231.0778 C560.5833,258.3695 583.2188,294.3278 606.7708,323.4945 C624.3542,345.2757 646.0625,367.3799 665.0938,385.5049 " fill="none" id="InteractiveView-backto-DesktopViewPanel" style="stroke:#545454;stroke-width:1.5625;"/><polygon fill="none" points="538.1771,234.6403,534.1042,212.9528,550.8229,227.3695,538.1771,234.6403" style="stroke:#545454;stroke-width:1.5625;"/><!--MD5=[6d5a614ddd4081710f1a3603c7095892]
reverse link MouseMotionListener to DesktopViewPanel--><path codeLine="26" d="M891.7708,229.6924 C870.625,256.7757 841.5,293.0153 814.0625,323.4945 C794.9167,344.7549 772.5833,367.3486 753.6042,385.9424 " fill="none" id="MouseMotionListener-backto-DesktopViewPanel" style="stroke:#545454;stroke-width:1.5625;"/><polygon fill="none" points="886.1875,224.9945,904.7083,212.984,897.7188,233.9215,886.1875,224.9945" style="stroke:#545454;stroke-width:1.5625;"/><!--MD5=[16272953be76de48e4f5beb02e447456]
reverse link MouseListener to DesktopViewPanel--><path codeLine="27" d="M368.2083,231.7965 C382.4063,261.0882 404.9167,299.0986 434.8958,323.4945 C487.875,366.5986 560.6667,392.7861 618.1979,407.984 " fill="none" id="MouseListener-backto-DesktopViewPanel" style="stroke:#545454;stroke-width:1.5625;"/><polygon fill="none" points="361.5313,234.7445,359.5313,212.7549,374.8021,228.6924,361.5313,234.7445" style="stroke:#545454;stroke-width:1.5625;"/><!--MD5=[50f598b2466737c5979a6150fca1c93c]
reverse link MouseWheelListener to DesktopViewPanel--><path codeLine="28" d="M710.9375,233.807 C710.9375,277.307 710.9375,343.2236 710.9375,385.5986 " fill="none" id="MouseWheelListener-backto-DesktopViewPanel" style="stroke:#545454;stroke-width:1.5625;"/><polygon fill="none" points="703.6458,233.6299,710.9375,212.7965,718.2292,233.6299,703.6458,233.6299" style="stroke:#545454;stroke-width:1.5625;"/><!--MD5=[ca22eb4f1c89bd5ab34ba52c2de3ca79]
reverse link BaseViewer to DesktopViewer--><path codeLine="35" d="M139.0625,490.6507 C139.0625,505.2965 139.0625,520.0153 139.0625,531.6507 " fill="none" id="BaseViewer-backto-DesktopViewer" style="stroke:#545454;stroke-width:1.5625;"/><polygon fill="none" points="131.7708,490.4632,139.0625,469.6299,146.3542,490.4632,131.7708,490.4632" style="stroke:#545454;stroke-width:1.5625;"/><!--MD5=[f1165399165b071b0b0ecfc2964ef282]
@startuml

    !include lexakai.theme
    
    title "com.telenav.mesakit.map.ui.desktop.viewer.desktop"
    
    abstract BaseViewer
    abstract BaseRepeater
    
    interface MouseListener
    interface InteractiveView
    interface Viewer
    interface MouseWheelListener
    interface MouseMotionListener
    
    BaseRepeater <|- - BaseViewer
    Viewer <|- - BaseViewer
    abstract class BaseViewer
    {
        - -(factory)- -
        #View newView(String title)
    }
    
    KivaKitPanel <|- - DesktopViewPanel
    InteractiveView <|- - DesktopViewPanel
    MouseMotionListener <|- - DesktopViewPanel
    MouseListener <|- - DesktopViewPanel
    MouseWheelListener <|- - DesktopViewPanel
    class DesktopViewPanel
    {
        - -(constructors)- -
        +DesktopViewPanel(Listener)
    }
    
    BaseViewer <|- - DesktopViewer
    class DesktopViewer
    {
    }
    
    class ViewModel.Entry
    {
        - -(constructors)- -
        +Entry(DrawableIdentifier, MapDrawable)
        - -
        +void shape(Shape)
        +void viewable(MapDrawable viewable)
    }
    
    enum DesktopViewPanel.State
    {
        PAUSED
        RUNNING
        STEPPING
    }
    
    class ViewModel
    {
        - -
        +Rectangle bounds()
        +void draw(DrawingSurface)
        +void pullToFront(DrawableIdentifier)
        +void select(Point)
        +void update(DrawableIdentifier, MapDrawable viewable)
        - -(collection)- -
        +void add(MapDrawable viewable)
        +void clear()
        +void map(Function<MapDrawable,MapDrawable>)
        +void pushToBack(DrawableIdentifier)
        +void remove(DrawableIdentifier)
    }
    
@enduml

@startuml









skinparam backgroundColor #333333






skinparam  {
    defaultFontName   "Open Sans,Avenir,Nunito,Arial,Helvetica,SansSerif"
    defaultFontSize   12
    defaultTextAlignment left
    shadowing false
    RoundCorner 10
    TitleFontSize 18
}

skinparam defaultFontName       "Open Sans,Avenir,Nunito,Arial,Helvetica,SansSerif"
skinparam defaultFontSize       12
skinparam dpi                   100
skinparam shadowing             false
skinparam roundcorner           16
skinparam ParticipantPadding    40
skinparam BoxPadding            40
skinparam Padding               3
skinparam ArrowColor            #545454
skinparam stereotype {
    CBackgroundColor #0066cf
    CBorderColor #0086ef
    ABackgroundColor #C8Ac00
    ABorderColor #D8Bc00
    IBackgroundColor #008400
    IBorderColor #239c23
    EBackgroundColor #cf6300
    EBorderColor #ef8300
    NBackgroundColor #3380b9
    NBorderColor #004d86
}
skinparam title {
	FontColor	                 #c0c0c0
 	BorderColor                  #545454
	FontSize	    	         20
	BorderRoundCorner            16
	BorderThickness 	         1
	BackgroundColor              #48494b
}


skinparam legend {
	BackgroundColor #303030
	BorderColor #404040
	FontColor #a0a0a0
}

	skinparam swimlane {
	BorderColor #5e5e5e
	BorderThickness 2
	TitleBackgroundColor  #6d6d6d-#484848
	TitleFontColor #303030
}

skinparam activity {
		FontColor #C8Ac00
	BorderColor #333333
	BackgroundColor #333333-#333333
	BarColor #00FF00
	StartColor #0060a8
	EndColor #0060a8
	DiamondBackgroundColor #6d6d6d-#3a3a3a
  	DiamondBorderColor #3a3a3a
  	DiamondFontColor #fefefe
}


skinparam participant {
		FontColor #C8Ac00
	BorderColor #333333
	BackgroundColor #333333-#333333
	ParticipantBorderThickness 2
}


skinparam actor {
		FontColor #C8Ac00
	BorderColor #333333
	BackgroundColor #333333-#333333
}


skinparam arrow {
	Thickness 1.5
	Color #545454
	FontColor #a0a0a0
    FontStyle bold
    MessageAlignment center
}



skinparam sequence {
	BorderColor #303030
	TitleFontColor #303030
	BackgroundColor #333333
	StartColor #303030
	EndColor #303030
	BoxBackgroundColor #333333
	BoxBorderColor #484848
	BoxFontColor #484848
	LifeLineBorderColor #484848
	LifeLineBorderThickness 2
	LifeLineBackgroundColor #3a3a3a
	GroupBorderColor #484848
	GroupFontColor #484848
	GroupHeaderFontColor #0060a8
	GroupBackgroundColor #484848
	GroupHeaderBackgroundColor #333333
	DividerBackgroundColor #484848
    DividerBorderColor #484848
    DividerBorderThickness 2
    DividerFontColor #D8Bc00
	ReferenceBackgroundColor #333333
	ReferenceBorderColor #484848
	ReferenceFontColor #fefefe
	ReferenceHeaderBackgroundColor #484848
}


skinparam partition {
	BorderColor #303030
	FontColor #333333
	BackgroundColor #333333
}


skinparam collections {
		FontColor #C8Ac00
	BorderColor #333333
	BackgroundColor #333333-#333333
}


skinparam control {
		FontColor #C8Ac00
	BorderColor #333333
	BackgroundColor #333333-#333333
}


skinparam entity {
		FontColor #C8Ac00
	BorderColor #333333
	BackgroundColor #333333-#333333
}


skinparam boundary {
		FontColor #C8Ac00
	BorderColor #333333
	BackgroundColor #333333-#333333
}


skinparam agent {
	BackgroundColor #ff8000
	BorderColor #ff9933
	FontColor #484848
}


skinparam note {
	BorderThickness 1
	BackgroundColor #1b1b1a
	BorderColor #5e5e5e
	FontSize 11
	FontColor #a0a0a0
}


skinparam artifact {
	BorderThickness 10
	BorderColor #5e5e5e
	BackgroundColor #1b1b1a
	FontColor #D8Bc00
}


skinparam component {
		FontColor #C8Ac00
	BorderColor #333333
	BackgroundColor #333333-#333333
}


skinparam interface {
	BackgroundColor  #008400
	BorderColor  #007F00
	FontColor #484848
}


skinparam storage {
	BackgroundColor #ff8000
  	BorderColor #cc6600
	FontColor #222222
}


skinparam node {
	BackgroundColor #333333
	BorderColor #333333
	FontColor #C8Ac00
}


skinparam cloud {
	BackgroundColor #484848-black
	BorderColor #484848
	FontColor #D8Bc00
}


skinparam database {
		FontColor #C8Ac00
	BorderColor #333333
	BackgroundColor #333333-#333333
	BackgroundColor  #333333
}


skinparam class {
		FontColor #C8Ac00
	BorderColor #333333
	BackgroundColor #333333-#333333
	HeaderBackgroundColor #1b1b1a
    BackgroundColor #282828
    BorderColor #5e5e5e
 	StereotypeFontColor #a0a0a0
    StereotypeFontStyle bold
	BorderThickness 1
	AttributeFontColor #D8Bc00
	AttributeFontSize 11
    FontColor #D8Bc00
    FontStyle bold
}


skinparam object {
		FontColor #C8Ac00
	BorderColor #333333
	BackgroundColor #333333-#333333
	StereotypeFontColor #484848
	BorderThickness 1
	AttributeFontColor #fefefe
	AttributeFontSize 11
}


skinparam usecase {
		FontColor #C8Ac00
	BorderColor #333333
	BackgroundColor #333333-#333333
	BorderThickness 2
	StereotypeFontColor #303030
}


skinparam rectangle {
		FontColor #C8Ac00
	BorderColor #333333
	BackgroundColor #333333-#333333
	BackgroundColor #333333
	BorderThickness 2
	StereotypeFontColor #303030
}


skinparam package {
		FontColor #C8Ac00
	BorderColor #333333
	BackgroundColor #333333-#333333
	BackgroundColor #333333
	BorderThickness 2
}


skinparam folder {
	BackgroundColor #6d6d6d
  	BorderColor #ff8000
	FontColor #ff8000
	BorderThickness 2
}


skinparam frame {
	BackgroundColor #6d6d6d
  	BorderColor #0060a8
	FontColor #0060a8
	BorderThickness 2
}


skinparam state {
		FontColor #C8Ac00
	BorderColor #333333
	BackgroundColor #333333-#333333
	StartColor #0060a8
	EndColor #0060a8
	AttributeFontColor #fefefe
	AttributeFontSize 11
}


skinparam queue {
		FontColor #C8Ac00
	BorderColor #333333
	BackgroundColor #333333-#333333
}


skinparam card {
	BackgroundColor #0060a8
	BorderColor #004d86
	FontColor $INFO_TEXT
}


skinparam file {
	BackgroundColor #6d6d6d-#484848
	BorderColor #0060a8
	FontColor #fefefe
}


skinparam stack {
		FontColor #C8Ac00
	BorderColor #333333
	BackgroundColor #333333-#333333
}

    
    title "com.telenav.mesakit.map.ui.desktop.viewer.desktop"
    
    abstract BaseViewer
    abstract BaseRepeater
    
    interface MouseListener
    interface InteractiveView
    interface Viewer
    interface MouseWheelListener
    interface MouseMotionListener
    
    BaseRepeater <|- - BaseViewer
    Viewer <|- - BaseViewer
    abstract class BaseViewer
    {
        - -(factory)- -
        #View newView(String title)
    }
    
    KivaKitPanel <|- - DesktopViewPanel
    InteractiveView <|- - DesktopViewPanel
    MouseMotionListener <|- - DesktopViewPanel
    MouseListener <|- - DesktopViewPanel
    MouseWheelListener <|- - DesktopViewPanel
    class DesktopViewPanel
    {
        - -(constructors)- -
        +DesktopViewPanel(Listener)
    }
    
    BaseViewer <|- - DesktopViewer
    class DesktopViewer
    {
    }
    
    class ViewModel.Entry
    {
        - -(constructors)- -
        +Entry(DrawableIdentifier, MapDrawable)
        - -
        +void shape(Shape)
        +void viewable(MapDrawable viewable)
    }
    
    enum DesktopViewPanel.State
    {
        PAUSED
        RUNNING
        STEPPING
    }
    
    class ViewModel
    {
        - -
        +Rectangle bounds()
        +void draw(DrawingSurface)
        +void pullToFront(DrawableIdentifier)
        +void select(Point)
        +void update(DrawableIdentifier, MapDrawable viewable)
        - -(collection)- -
        +void add(MapDrawable viewable)
        +void clear()
        +void map(Function<MapDrawable,MapDrawable>)
        +void pushToBack(DrawableIdentifier)
        +void remove(DrawableIdentifier)
    }
    
@enduml

PlantUML version 1.2021.01(Tue Feb 02 02:55:08 EST 2021)
(GPL source distribution)
Java Runtime: OpenJDK Runtime Environment
JVM: OpenJDK 64-Bit Server VM
Default Encoding: UTF-8
Language: en
Country: US
--></g></svg>