<?xml version="1.0" encoding="UTF-8" standalone="no"?><svg xmlns="http://www.w3.org/2000/svg" xmlns:xlink="http://www.w3.org/1999/xlink" contentScriptType="application/ecmascript" contentStyleType="text/css" height="329.1667px" preserveAspectRatio="none" style="width:548px;height:329px;background:#333333;" version="1.1" viewBox="0 0 548 329" width="548.9583px" zoomAndPan="magnify"><defs/><g><rect fill="#48494B" height="41.2028" rx="8.3333" ry="8.3333" style="stroke:#545454;stroke-width:1.0416666666666667;" width="536.4583" x="2.0833" y="2.0833"/><text fill="#C0C0C0" font-family="Open Sans,Avenir,Nunito,Arial,Helvetica,SansSerif" font-size="20.8333" lengthAdjust="spacing" textLength="513.5417" x="13.5417" y="30.5583">com.telenav.mesakit.map.ui.desktop.theme.shapes</text><!--MD5=[3a54a298e208bee3d523683681a9ff42]
class Bounds--><rect codeLine="7" fill="#282828" height="48.055" id="Bounds" rx="8.3333" ry="8.3333" style="stroke:#5E5E5E;stroke-width:1.0416666666666667;" width="86.4583" x="44.2708" y="53.7028"/><rect fill="#1B1B1A" height="31.3883" rx="8.3333" ry="8.3333" style="stroke:#1B1B1A;stroke-width:1.0416666666666667;" width="86.4583" x="44.2708" y="53.7028"/><rect fill="#1B1B1A" height="8.3333" style="stroke:#1B1B1A;stroke-width:1.0416666666666667;" width="86.4583" x="44.2708" y="76.7578"/><rect codeLine="7" fill="none" height="48.055" id="Bounds" rx="8.3333" ry="8.3333" style="stroke:#5E5E5E;stroke-width:1.0416666666666667;" width="86.4583" x="44.2708" y="53.7028"/><ellipse cx="58.8542" cy="69.397" fill="#0066CF" rx="10.4167" ry="10.4167" style="stroke:#0086EF;stroke-width:1.0416666666666667;"/><path d="M60.7646,73.822 Q60.3373,74.0417 59.8674,74.1516 Q59.3974,74.2615 58.8786,74.2615 Q57.0353,74.2615 56.0649,73.0469 Q55.0944,71.8323 55.0944,69.5374 Q55.0944,67.2363 56.0649,66.0217 Q57.0353,64.8071 58.8786,64.8071 Q59.3974,64.8071 59.8735,64.917 Q60.3495,65.0269 60.7646,65.2466 L60.7646,67.2485 Q60.3007,66.8213 59.8643,66.6229 Q59.4279,66.4246 58.964,66.4246 Q57.9753,66.4246 57.4717,67.2089 Q56.9682,67.9932 56.9682,69.5374 Q56.9682,71.0754 57.4717,71.8597 Q57.9753,72.644 58.964,72.644 Q59.4279,72.644 59.8643,72.4457 Q60.3007,72.2473 60.7646,71.8201 Z " fill="#000000"/><text fill="#D8BC00" font-family="Open Sans,Avenir,Nunito,Arial,Helvetica,SansSerif" font-size="12.5" font-weight="bold" lengthAdjust="spacing" textLength="48.9583" x="75.5208" y="74.1211">Bounds</text><line style="stroke:#5E5E5E;stroke-width:1.0416666666666667;" x1="45.3125" x2="129.6875" y1="85.0911" y2="85.0911"/><line style="stroke:#5E5E5E;stroke-width:1.0416666666666667;" x1="45.3125" x2="129.6875" y1="93.4245" y2="93.4245"/><!--MD5=[4e82bcac20aa80ec2d611265730c86c7]
class Edges--><rect codeLine="11" fill="#282828" height="48.055" id="Edges" rx="8.3333" ry="8.3333" style="stroke:#5E5E5E;stroke-width:1.0416666666666667;" width="76.0417" x="167.1875" y="53.7028"/><rect fill="#1B1B1A" height="31.3883" rx="8.3333" ry="8.3333" style="stroke:#1B1B1A;stroke-width:1.0416666666666667;" width="76.0417" x="167.1875" y="53.7028"/><rect fill="#1B1B1A" height="8.3333" style="stroke:#1B1B1A;stroke-width:1.0416666666666667;" width="76.0417" x="167.1875" y="76.7578"/><rect codeLine="11" fill="none" height="48.055" id="Edges" rx="8.3333" ry="8.3333" style="stroke:#5E5E5E;stroke-width:1.0416666666666667;" width="76.0417" x="167.1875" y="53.7028"/><ellipse cx="181.7708" cy="69.397" fill="#0066CF" rx="10.4167" ry="10.4167" style="stroke:#0086EF;stroke-width:1.0416666666666667;"/><path d="M183.6812,73.822 Q183.254,74.0417 182.784,74.1516 Q182.314,74.2615 181.7952,74.2615 Q179.952,74.2615 178.9815,73.0469 Q178.0111,71.8323 178.0111,69.5374 Q178.0111,67.2363 178.9815,66.0217 Q179.952,64.8071 181.7952,64.8071 Q182.314,64.8071 182.7901,64.917 Q183.2662,65.0269 183.6812,65.2466 L183.6812,67.2485 Q183.2174,66.8213 182.781,66.6229 Q182.3446,66.4246 181.8807,66.4246 Q180.8919,66.4246 180.3884,67.2089 Q179.8848,67.9932 179.8848,69.5374 Q179.8848,71.0754 180.3884,71.8597 Q180.8919,72.644 181.8807,72.644 Q182.3446,72.644 182.781,72.4457 Q183.2174,72.2473 183.6812,71.8201 Z " fill="#000000"/><text fill="#D8BC00" font-family="Open Sans,Avenir,Nunito,Arial,Helvetica,SansSerif" font-size="12.5" font-weight="bold" lengthAdjust="spacing" textLength="38.5417" x="198.4375" y="74.1211">Edges</text><line style="stroke:#5E5E5E;stroke-width:1.0416666666666667;" x1="168.2292" x2="242.1875" y1="85.0911" y2="85.0911"/><line style="stroke:#5E5E5E;stroke-width:1.0416666666666667;" x1="168.2292" x2="242.1875" y1="93.4245" y2="93.4245"/><!--MD5=[ae1ad4dc490036541371d3e5d4218f34]
class Labels--><rect codeLine="15" fill="#282828" height="48.055" id="Labels" rx="8.3333" ry="8.3333" style="stroke:#5E5E5E;stroke-width:1.0416666666666667;" width="79.1667" x="280.2083" y="53.7028"/><rect fill="#1B1B1A" height="31.3883" rx="8.3333" ry="8.3333" style="stroke:#1B1B1A;stroke-width:1.0416666666666667;" width="79.1667" x="280.2083" y="53.7028"/><rect fill="#1B1B1A" height="8.3333" style="stroke:#1B1B1A;stroke-width:1.0416666666666667;" width="79.1667" x="280.2083" y="76.7578"/><rect codeLine="15" fill="none" height="48.055" id="Labels" rx="8.3333" ry="8.3333" style="stroke:#5E5E5E;stroke-width:1.0416666666666667;" width="79.1667" x="280.2083" y="53.7028"/><ellipse cx="294.7917" cy="69.397" fill="#0066CF" rx="10.4167" ry="10.4167" style="stroke:#0086EF;stroke-width:1.0416666666666667;"/><path d="M296.7021,73.822 Q296.2748,74.0417 295.8049,74.1516 Q295.3349,74.2615 294.8161,74.2615 Q292.9728,74.2615 292.0024,73.0469 Q291.0319,71.8323 291.0319,69.5374 Q291.0319,67.2363 292.0024,66.0217 Q292.9728,64.8071 294.8161,64.8071 Q295.3349,64.8071 295.811,64.917 Q296.287,65.0269 296.7021,65.2466 L296.7021,67.2485 Q296.2382,66.8213 295.8018,66.6229 Q295.3654,66.4246 294.9015,66.4246 Q293.9128,66.4246 293.4092,67.2089 Q292.9057,67.9932 292.9057,69.5374 Q292.9057,71.0754 293.4092,71.8597 Q293.9128,72.644 294.9015,72.644 Q295.3654,72.644 295.8018,72.4457 Q296.2382,72.2473 296.7021,71.8201 Z " fill="#000000"/><text fill="#D8BC00" font-family="Open Sans,Avenir,Nunito,Arial,Helvetica,SansSerif" font-size="12.5" font-weight="bold" lengthAdjust="spacing" textLength="41.6667" x="311.4583" y="74.1211">Labels</text><line style="stroke:#5E5E5E;stroke-width:1.0416666666666667;" x1="281.25" x2="358.3333" y1="85.0911" y2="85.0911"/><line style="stroke:#5E5E5E;stroke-width:1.0416666666666667;" x1="281.25" x2="358.3333" y1="93.4245" y2="93.4245"/><!--MD5=[7c37a91e969cd730cf6521ed75133ace]
class Lines--><rect codeLine="19" fill="#282828" height="48.055" id="Lines" rx="8.3333" ry="8.3333" style="stroke:#5E5E5E;stroke-width:1.0416666666666667;" width="71.875" x="396.3542" y="53.7028"/><rect fill="#1B1B1A" height="31.3883" rx="8.3333" ry="8.3333" style="stroke:#1B1B1A;stroke-width:1.0416666666666667;" width="71.875" x="396.3542" y="53.7028"/><rect fill="#1B1B1A" height="8.3333" style="stroke:#1B1B1A;stroke-width:1.0416666666666667;" width="71.875" x="396.3542" y="76.7578"/><rect codeLine="19" fill="none" height="48.055" id="Lines" rx="8.3333" ry="8.3333" style="stroke:#5E5E5E;stroke-width:1.0416666666666667;" width="71.875" x="396.3542" y="53.7028"/><ellipse cx="410.9375" cy="69.397" fill="#0066CF" rx="10.4167" ry="10.4167" style="stroke:#0086EF;stroke-width:1.0416666666666667;"/><path d="M412.8479,73.822 Q412.4207,74.0417 411.9507,74.1516 Q411.4807,74.2615 410.9619,74.2615 Q409.1187,74.2615 408.1482,73.0469 Q407.1777,71.8323 407.1777,69.5374 Q407.1777,67.2363 408.1482,66.0217 Q409.1187,64.8071 410.9619,64.8071 Q411.4807,64.8071 411.9568,64.917 Q412.4329,65.0269 412.8479,65.2466 L412.8479,67.2485 Q412.384,66.8213 411.9476,66.6229 Q411.5112,66.4246 411.0474,66.4246 Q410.0586,66.4246 409.5551,67.2089 Q409.0515,67.9932 409.0515,69.5374 Q409.0515,71.0754 409.5551,71.8597 Q410.0586,72.644 411.0474,72.644 Q411.5112,72.644 411.9476,72.4457 Q412.384,72.2473 412.8479,71.8201 Z " fill="#000000"/><text fill="#D8BC00" font-family="Open Sans,Avenir,Nunito,Arial,Helvetica,SansSerif" font-size="12.5" font-weight="bold" lengthAdjust="spacing" textLength="34.375" x="427.6042" y="74.1211">Lines</text><line style="stroke:#5E5E5E;stroke-width:1.0416666666666667;" x1="397.3958" x2="467.1875" y1="85.0911" y2="85.0911"/><line style="stroke:#5E5E5E;stroke-width:1.0416666666666667;" x1="397.3958" x2="467.1875" y1="93.4245" y2="93.4245"/><!--MD5=[e319370dad6ef7da0b7f42fed8221c68]
class Locations--><rect codeLine="23" fill="#282828" height="48.055" id="Locations" rx="8.3333" ry="8.3333" style="stroke:#5E5E5E;stroke-width:1.0416666666666667;" width="100" x="37.5" y="164.1195"/><rect fill="#1B1B1A" height="31.3883" rx="8.3333" ry="8.3333" style="stroke:#1B1B1A;stroke-width:1.0416666666666667;" width="100" x="37.5" y="164.1195"/><rect fill="#1B1B1A" height="8.3333" style="stroke:#1B1B1A;stroke-width:1.0416666666666667;" width="100" x="37.5" y="187.1745"/><rect codeLine="23" fill="none" height="48.055" id="Locations" rx="8.3333" ry="8.3333" style="stroke:#5E5E5E;stroke-width:1.0416666666666667;" width="100" x="37.5" y="164.1195"/><ellipse cx="52.0833" cy="179.8136" fill="#0066CF" rx="10.4167" ry="10.4167" style="stroke:#0086EF;stroke-width:1.0416666666666667;"/><path d="M53.9937,184.2387 Q53.5665,184.4584 53.0965,184.5683 Q52.6265,184.6781 52.1077,184.6781 Q50.2645,184.6781 49.294,183.4635 Q48.3236,182.2489 48.3236,179.954 Q48.3236,177.653 49.294,176.4384 Q50.2645,175.2238 52.1077,175.2238 Q52.6265,175.2238 53.1026,175.3337 Q53.5787,175.4435 53.9937,175.6632 L53.9937,177.6652 Q53.5299,177.238 53.0935,177.0396 Q52.6571,176.8412 52.1932,176.8412 Q51.2044,176.8412 50.7009,177.6255 Q50.1973,178.4098 50.1973,179.954 Q50.1973,181.4921 50.7009,182.2764 Q51.2044,183.0607 52.1932,183.0607 Q52.6571,183.0607 53.0935,182.8623 Q53.5299,182.664 53.9937,182.2367 Z " fill="#000000"/><text fill="#D8BC00" font-family="Open Sans,Avenir,Nunito,Arial,Helvetica,SansSerif" font-size="12.5" font-weight="bold" lengthAdjust="spacing" textLength="62.5" x="68.75" y="184.5378">Locations</text><line style="stroke:#5E5E5E;stroke-width:1.0416666666666667;" x1="38.5417" x2="136.4583" y1="195.5078" y2="195.5078"/><line style="stroke:#5E5E5E;stroke-width:1.0416666666666667;" x1="38.5417" x2="136.4583" y1="203.8411" y2="203.8411"/><!--MD5=[b9e665f4ec32b879a18eb67e425f94a3]
class Places--><rect codeLine="27" fill="#282828" height="48.055" id="Places" rx="8.3333" ry="8.3333" style="stroke:#5E5E5E;stroke-width:1.0416666666666667;" width="77.0833" x="173.9583" y="164.1195"/><rect fill="#1B1B1A" height="31.3883" rx="8.3333" ry="8.3333" style="stroke:#1B1B1A;stroke-width:1.0416666666666667;" width="77.0833" x="173.9583" y="164.1195"/><rect fill="#1B1B1A" height="8.3333" style="stroke:#1B1B1A;stroke-width:1.0416666666666667;" width="77.0833" x="173.9583" y="187.1745"/><rect codeLine="27" fill="none" height="48.055" id="Places" rx="8.3333" ry="8.3333" style="stroke:#5E5E5E;stroke-width:1.0416666666666667;" width="77.0833" x="173.9583" y="164.1195"/><ellipse cx="188.5417" cy="179.8136" fill="#0066CF" rx="10.4167" ry="10.4167" style="stroke:#0086EF;stroke-width:1.0416666666666667;"/><path d="M190.4521,184.2387 Q190.0248,184.4584 189.5549,184.5683 Q189.0849,184.6781 188.5661,184.6781 Q186.7228,184.6781 185.7524,183.4635 Q184.7819,182.2489 184.7819,179.954 Q184.7819,177.653 185.7524,176.4384 Q186.7228,175.2238 188.5661,175.2238 Q189.0849,175.2238 189.561,175.3337 Q190.037,175.4435 190.4521,175.6632 L190.4521,177.6652 Q189.9882,177.238 189.5518,177.0396 Q189.1154,176.8412 188.6515,176.8412 Q187.6628,176.8412 187.1592,177.6255 Q186.6557,178.4098 186.6557,179.954 Q186.6557,181.4921 187.1592,182.2764 Q187.6628,183.0607 188.6515,183.0607 Q189.1154,183.0607 189.5518,182.8623 Q189.9882,182.664 190.4521,182.2367 Z " fill="#000000"/><text fill="#D8BC00" font-family="Open Sans,Avenir,Nunito,Arial,Helvetica,SansSerif" font-size="12.5" font-weight="bold" lengthAdjust="spacing" textLength="39.5833" x="205.2083" y="184.5378">Places</text><line style="stroke:#5E5E5E;stroke-width:1.0416666666666667;" x1="175" x2="250" y1="195.5078" y2="195.5078"/><line style="stroke:#5E5E5E;stroke-width:1.0416666666666667;" x1="175" x2="250" y1="203.8411" y2="203.8411"/><!--MD5=[c72fc45ebfef3686771524e4ef62ddfa]
class Polylines--><rect codeLine="31" fill="#282828" height="48.055" id="Polylines" rx="8.3333" ry="8.3333" style="stroke:#5E5E5E;stroke-width:1.0416666666666667;" width="95.8333" x="287.5" y="164.1195"/><rect fill="#1B1B1A" height="31.3883" rx="8.3333" ry="8.3333" style="stroke:#1B1B1A;stroke-width:1.0416666666666667;" width="95.8333" x="287.5" y="164.1195"/><rect fill="#1B1B1A" height="8.3333" style="stroke:#1B1B1A;stroke-width:1.0416666666666667;" width="95.8333" x="287.5" y="187.1745"/><rect codeLine="31" fill="none" height="48.055" id="Polylines" rx="8.3333" ry="8.3333" style="stroke:#5E5E5E;stroke-width:1.0416666666666667;" width="95.8333" x="287.5" y="164.1195"/><ellipse cx="302.0833" cy="179.8136" fill="#0066CF" rx="10.4167" ry="10.4167" style="stroke:#0086EF;stroke-width:1.0416666666666667;"/><path d="M303.9937,184.2387 Q303.5665,184.4584 303.0965,184.5683 Q302.6265,184.6781 302.1077,184.6781 Q300.2645,184.6781 299.294,183.4635 Q298.3236,182.2489 298.3236,179.954 Q298.3236,177.653 299.294,176.4384 Q300.2645,175.2238 302.1077,175.2238 Q302.6265,175.2238 303.1026,175.3337 Q303.5787,175.4435 303.9937,175.6632 L303.9937,177.6652 Q303.5299,177.238 303.0935,177.0396 Q302.6571,176.8412 302.1932,176.8412 Q301.2044,176.8412 300.7009,177.6255 Q300.1973,178.4098 300.1973,179.954 Q300.1973,181.4921 300.7009,182.2764 Q301.2044,183.0607 302.1932,183.0607 Q302.6571,183.0607 303.0935,182.8623 Q303.5299,182.664 303.9937,182.2367 Z " fill="#000000"/><text fill="#D8BC00" font-family="Open Sans,Avenir,Nunito,Arial,Helvetica,SansSerif" font-size="12.5" font-weight="bold" lengthAdjust="spacing" textLength="58.3333" x="318.75" y="184.5378">Polylines</text><line style="stroke:#5E5E5E;stroke-width:1.0416666666666667;" x1="288.5417" x2="382.2917" y1="195.5078" y2="195.5078"/><line style="stroke:#5E5E5E;stroke-width:1.0416666666666667;" x1="288.5417" x2="382.2917" y1="203.8411" y2="203.8411"/><!--MD5=[f05c601a618822d32d65b1b8eca4a021]
class Relations--><rect codeLine="35" fill="#282828" height="48.055" id="Relations" rx="8.3333" ry="8.3333" style="stroke:#5E5E5E;stroke-width:1.0416666666666667;" width="97.9167" x="419.7917" y="164.1195"/><rect fill="#1B1B1A" height="31.3883" rx="8.3333" ry="8.3333" style="stroke:#1B1B1A;stroke-width:1.0416666666666667;" width="97.9167" x="419.7917" y="164.1195"/><rect fill="#1B1B1A" height="8.3333" style="stroke:#1B1B1A;stroke-width:1.0416666666666667;" width="97.9167" x="419.7917" y="187.1745"/><rect codeLine="35" fill="none" height="48.055" id="Relations" rx="8.3333" ry="8.3333" style="stroke:#5E5E5E;stroke-width:1.0416666666666667;" width="97.9167" x="419.7917" y="164.1195"/><ellipse cx="434.375" cy="179.8136" fill="#0066CF" rx="10.4167" ry="10.4167" style="stroke:#0086EF;stroke-width:1.0416666666666667;"/><path d="M436.2854,184.2387 Q435.8582,184.4584 435.3882,184.5683 Q434.9182,184.6781 434.3994,184.6781 Q432.5562,184.6781 431.5857,183.4635 Q430.6152,182.2489 430.6152,179.954 Q430.6152,177.653 431.5857,176.4384 Q432.5562,175.2238 434.3994,175.2238 Q434.9182,175.2238 435.3943,175.3337 Q435.8704,175.4435 436.2854,175.6632 L436.2854,177.6652 Q435.8215,177.238 435.3851,177.0396 Q434.9487,176.8412 434.4849,176.8412 Q433.4961,176.8412 432.9926,177.6255 Q432.489,178.4098 432.489,179.954 Q432.489,181.4921 432.9926,182.2764 Q433.4961,183.0607 434.4849,183.0607 Q434.9487,183.0607 435.3851,182.8623 Q435.8215,182.664 436.2854,182.2367 Z " fill="#000000"/><text fill="#D8BC00" font-family="Open Sans,Avenir,Nunito,Arial,Helvetica,SansSerif" font-size="12.5" font-weight="bold" lengthAdjust="spacing" textLength="60.4167" x="451.0417" y="184.5378">Relations</text><line style="stroke:#5E5E5E;stroke-width:1.0416666666666667;" x1="420.8333" x2="516.6667" y1="195.5078" y2="195.5078"/><line style="stroke:#5E5E5E;stroke-width:1.0416666666666667;" x1="420.8333" x2="516.6667" y1="203.8411" y2="203.8411"/><!--MD5=[1336df17f5117738b94db25a8407e2ee]
class Roads--><rect codeLine="39" fill="#282828" height="48.055" id="Roads" rx="8.3333" ry="8.3333" style="stroke:#5E5E5E;stroke-width:1.0416666666666667;" width="77.0833" x="48.9583" y="274.5361"/><rect fill="#1B1B1A" height="31.3883" rx="8.3333" ry="8.3333" style="stroke:#1B1B1A;stroke-width:1.0416666666666667;" width="77.0833" x="48.9583" y="274.5361"/><rect fill="#1B1B1A" height="8.3333" style="stroke:#1B1B1A;stroke-width:1.0416666666666667;" width="77.0833" x="48.9583" y="297.5911"/><rect codeLine="39" fill="none" height="48.055" id="Roads" rx="8.3333" ry="8.3333" style="stroke:#5E5E5E;stroke-width:1.0416666666666667;" width="77.0833" x="48.9583" y="274.5361"/><ellipse cx="63.5417" cy="290.2303" fill="#0066CF" rx="10.4167" ry="10.4167" style="stroke:#0086EF;stroke-width:1.0416666666666667;"/><path d="M65.4521,294.6554 Q65.0248,294.8751 64.5549,294.9849 Q64.0849,295.0948 63.5661,295.0948 Q61.7228,295.0948 60.7524,293.8802 Q59.7819,292.6656 59.7819,290.3707 Q59.7819,288.0697 60.7524,286.8551 Q61.7228,285.6405 63.5661,285.6405 Q64.0849,285.6405 64.561,285.7503 Q65.037,285.8602 65.4521,286.0799 L65.4521,288.0819 Q64.9882,287.6546 64.5518,287.4563 Q64.1154,287.2579 63.6515,287.2579 Q62.6628,287.2579 62.1592,288.0422 Q61.6557,288.8265 61.6557,290.3707 Q61.6557,291.9088 62.1592,292.6931 Q62.6628,293.4774 63.6515,293.4774 Q64.1154,293.4774 64.5518,293.279 Q64.9882,293.0806 65.4521,292.6534 Z " fill="#000000"/><text fill="#D8BC00" font-family="Open Sans,Avenir,Nunito,Arial,Helvetica,SansSerif" font-size="12.5" font-weight="bold" lengthAdjust="spacing" textLength="39.5833" x="80.2083" y="294.9544">Roads</text><line style="stroke:#5E5E5E;stroke-width:1.0416666666666667;" x1="50" x2="125" y1="305.9245" y2="305.9245"/><line style="stroke:#5E5E5E;stroke-width:1.0416666666666667;" x1="50" x2="125" y1="314.2578" y2="314.2578"/><!--MD5=[c7a73b3150b7c3d4f9aed266342fba25]
class ShapePoints--><rect codeLine="43" fill="#282828" height="48.055" id="ShapePoints" rx="8.3333" ry="8.3333" style="stroke:#5E5E5E;stroke-width:1.0416666666666667;" width="116.6667" x="162.5" y="274.5361"/><rect fill="#1B1B1A" height="31.3883" rx="8.3333" ry="8.3333" style="stroke:#1B1B1A;stroke-width:1.0416666666666667;" width="116.6667" x="162.5" y="274.5361"/><rect fill="#1B1B1A" height="8.3333" style="stroke:#1B1B1A;stroke-width:1.0416666666666667;" width="116.6667" x="162.5" y="297.5911"/><rect codeLine="43" fill="none" height="48.055" id="ShapePoints" rx="8.3333" ry="8.3333" style="stroke:#5E5E5E;stroke-width:1.0416666666666667;" width="116.6667" x="162.5" y="274.5361"/><ellipse cx="177.0833" cy="290.2303" fill="#0066CF" rx="10.4167" ry="10.4167" style="stroke:#0086EF;stroke-width:1.0416666666666667;"/><path d="M178.9937,294.6554 Q178.5665,294.8751 178.0965,294.9849 Q177.6265,295.0948 177.1077,295.0948 Q175.2645,295.0948 174.294,293.8802 Q173.3236,292.6656 173.3236,290.3707 Q173.3236,288.0697 174.294,286.8551 Q175.2645,285.6405 177.1077,285.6405 Q177.6265,285.6405 178.1026,285.7503 Q178.5787,285.8602 178.9937,286.0799 L178.9937,288.0819 Q178.5299,287.6546 178.0935,287.4563 Q177.6571,287.2579 177.1932,287.2579 Q176.2044,287.2579 175.7009,288.0422 Q175.1973,288.8265 175.1973,290.3707 Q175.1973,291.9088 175.7009,292.6931 Q176.2044,293.4774 177.1932,293.4774 Q177.6571,293.4774 178.0935,293.279 Q178.5299,293.0806 178.9937,292.6534 Z " fill="#000000"/><text fill="#D8BC00" font-family="Open Sans,Avenir,Nunito,Arial,Helvetica,SansSerif" font-size="12.5" font-weight="bold" lengthAdjust="spacing" textLength="79.1667" x="193.75" y="294.9544">ShapePoints</text><line style="stroke:#5E5E5E;stroke-width:1.0416666666666667;" x1="163.5417" x2="278.125" y1="305.9245" y2="305.9245"/><line style="stroke:#5E5E5E;stroke-width:1.0416666666666667;" x1="163.5417" x2="278.125" y1="314.2578" y2="314.2578"/><!--MD5=[1808e6f1f19407c39c496695caf349de]
class Vertexes--><rect codeLine="47" fill="#282828" height="48.055" id="Vertexes" rx="8.3333" ry="8.3333" style="stroke:#5E5E5E;stroke-width:1.0416666666666667;" width="92.7083" x="316.1458" y="274.5361"/><rect fill="#1B1B1A" height="31.3883" rx="8.3333" ry="8.3333" style="stroke:#1B1B1A;stroke-width:1.0416666666666667;" width="92.7083" x="316.1458" y="274.5361"/><rect fill="#1B1B1A" height="8.3333" style="stroke:#1B1B1A;stroke-width:1.0416666666666667;" width="92.7083" x="316.1458" y="297.5911"/><rect codeLine="47" fill="none" height="48.055" id="Vertexes" rx="8.3333" ry="8.3333" style="stroke:#5E5E5E;stroke-width:1.0416666666666667;" width="92.7083" x="316.1458" y="274.5361"/><ellipse cx="330.7292" cy="290.2303" fill="#0066CF" rx="10.4167" ry="10.4167" style="stroke:#0086EF;stroke-width:1.0416666666666667;"/><path d="M332.6396,294.6554 Q332.2123,294.8751 331.7424,294.9849 Q331.2724,295.0948 330.7536,295.0948 Q328.9103,295.0948 327.9399,293.8802 Q326.9694,292.6656 326.9694,290.3707 Q326.9694,288.0697 327.9399,286.8551 Q328.9103,285.6405 330.7536,285.6405 Q331.2724,285.6405 331.7485,285.7503 Q332.2245,285.8602 332.6396,286.0799 L332.6396,288.0819 Q332.1757,287.6546 331.7393,287.4563 Q331.3029,287.2579 330.839,287.2579 Q329.8503,287.2579 329.3467,288.0422 Q328.8432,288.8265 328.8432,290.3707 Q328.8432,291.9088 329.3467,292.6931 Q329.8503,293.4774 330.839,293.4774 Q331.3029,293.4774 331.7393,293.279 Q332.1757,293.0806 332.6396,292.6534 Z " fill="#000000"/><text fill="#D8BC00" font-family="Open Sans,Avenir,Nunito,Arial,Helvetica,SansSerif" font-size="12.5" font-weight="bold" lengthAdjust="spacing" textLength="55.2083" x="347.3958" y="294.9544">Vertexes</text><line style="stroke:#5E5E5E;stroke-width:1.0416666666666667;" x1="317.1875" x2="407.8125" y1="305.9245" y2="305.9245"/><line style="stroke:#5E5E5E;stroke-width:1.0416666666666667;" x1="317.1875" x2="407.8125" y1="314.2578" y2="314.2578"/><!--MD5=[2f76036613ef3c3d4a750eba3bfb222c]
link Bounds to Edges--><!--MD5=[f5c14313c267be409e774730687ceed0]
link Edges to Labels--><!--MD5=[9486617eb8ab9a2d9aac9b552eada517]
link Labels to Lines--><!--MD5=[720dd05ce7a401c126457f5eb8aa88d8]
link Bounds to Locations--><!--MD5=[f1b45f8ed16e8c6b487f5093e285e543]
link Locations to Places--><!--MD5=[13801d4cfbf357fe7494cf39505d29c3]
link Places to Polylines--><!--MD5=[cb62cf619387bbe51fdebe099bbe25e0]
link Polylines to Relations--><!--MD5=[9a07470256d6691d6c00f5e2a50b0cd0]
link Locations to Roads--><!--MD5=[e95f9fd23397894e5971b6e99d50fd27]
link Roads to ShapePoints--><!--MD5=[8860100b954d92449903585bf2556fc6]
link ShapePoints to Vertexes--><!--MD5=[f611770f3058320cec1d2b9040926933]
@startuml

    !include lexakai.theme
    
    title "com.telenav.mesakit.map.ui.desktop.theme.shapes"
    
    class Bounds
    {
    }
    
    class Edges
    {
    }
    
    class Labels
    {
    }
    
    class Lines
    {
    }
    
    class Locations
    {
    }
    
    class Places
    {
    }
    
    class Polylines
    {
    }
    
    class Relations
    {
    }
    
    class Roads
    {
    }
    
    class ShapePoints
    {
    }
    
    class Vertexes
    {
    }
    
@enduml

@startuml









skinparam backgroundColor #333333






skinparam  {
    defaultFontName   "Open Sans,Avenir,Nunito,Arial,Helvetica,SansSerif"
    defaultFontSize   12
    defaultTextAlignment left
    shadowing false
    RoundCorner 10
    TitleFontSize 18
}

skinparam defaultFontName       "Open Sans,Avenir,Nunito,Arial,Helvetica,SansSerif"
skinparam defaultFontSize       12
skinparam dpi                   100
skinparam shadowing             false
skinparam roundcorner           16
skinparam ParticipantPadding    40
skinparam BoxPadding            40
skinparam Padding               3
skinparam ArrowColor            #545454
skinparam stereotype {
    CBackgroundColor #0066cf
    CBorderColor #0086ef
    ABackgroundColor #C8Ac00
    ABorderColor #D8Bc00
    IBackgroundColor #008400
    IBorderColor #239c23
    EBackgroundColor #cf6300
    EBorderColor #ef8300
    NBackgroundColor #3380b9
    NBorderColor #004d86
}
skinparam title {
	FontColor	                 #c0c0c0
 	BorderColor                  #545454
	FontSize	    	         20
	BorderRoundCorner            16
	BorderThickness 	         1
	BackgroundColor              #48494b
}


skinparam legend {
	BackgroundColor #303030
	BorderColor #404040
	FontColor #a0a0a0
}

	skinparam swimlane {
	BorderColor #5e5e5e
	BorderThickness 2
	TitleBackgroundColor  #6d6d6d-#484848
	TitleFontColor #303030
}

skinparam activity {
		FontColor #C8Ac00
	BorderColor #333333
	BackgroundColor #333333-#333333
	BarColor #00FF00
	StartColor #0060a8
	EndColor #0060a8
	DiamondBackgroundColor #6d6d6d-#3a3a3a
  	DiamondBorderColor #3a3a3a
  	DiamondFontColor #fefefe
}


skinparam participant {
		FontColor #C8Ac00
	BorderColor #333333
	BackgroundColor #333333-#333333
	ParticipantBorderThickness 2
}


skinparam actor {
		FontColor #C8Ac00
	BorderColor #333333
	BackgroundColor #333333-#333333
}


skinparam arrow {
	Thickness 1.5
	Color #545454
	FontColor #a0a0a0
    FontStyle bold
    MessageAlignment center
}



skinparam sequence {
	BorderColor #303030
	TitleFontColor #303030
	BackgroundColor #333333
	StartColor #303030
	EndColor #303030
	BoxBackgroundColor #333333
	BoxBorderColor #484848
	BoxFontColor #484848
	LifeLineBorderColor #484848
	LifeLineBorderThickness 2
	LifeLineBackgroundColor #3a3a3a
	GroupBorderColor #484848
	GroupFontColor #484848
	GroupHeaderFontColor #0060a8
	GroupBackgroundColor #484848
	GroupHeaderBackgroundColor #333333
	DividerBackgroundColor #484848
    DividerBorderColor #484848
    DividerBorderThickness 2
    DividerFontColor #D8Bc00
	ReferenceBackgroundColor #333333
	ReferenceBorderColor #484848
	ReferenceFontColor #fefefe
	ReferenceHeaderBackgroundColor #484848
}


skinparam partition {
	BorderColor #303030
	FontColor #333333
	BackgroundColor #333333
}


skinparam collections {
		FontColor #C8Ac00
	BorderColor #333333
	BackgroundColor #333333-#333333
}


skinparam control {
		FontColor #C8Ac00
	BorderColor #333333
	BackgroundColor #333333-#333333
}


skinparam entity {
		FontColor #C8Ac00
	BorderColor #333333
	BackgroundColor #333333-#333333
}


skinparam boundary {
		FontColor #C8Ac00
	BorderColor #333333
	BackgroundColor #333333-#333333
}


skinparam agent {
	BackgroundColor #ff8000
	BorderColor #ff9933
	FontColor #484848
}


skinparam note {
	BorderThickness 1
	BackgroundColor #1b1b1a
	BorderColor #5e5e5e
	FontSize 11
	FontColor #a0a0a0
}


skinparam artifact {
	BorderThickness 10
	BorderColor #5e5e5e
	BackgroundColor #1b1b1a
	FontColor #D8Bc00
}


skinparam component {
		FontColor #C8Ac00
	BorderColor #333333
	BackgroundColor #333333-#333333
}


skinparam interface {
	BackgroundColor  #008400
	BorderColor  #007F00
	FontColor #484848
}


skinparam storage {
	BackgroundColor #ff8000
  	BorderColor #cc6600
	FontColor #222222
}


skinparam node {
	BackgroundColor #333333
	BorderColor #333333
	FontColor #C8Ac00
}


skinparam cloud {
	BackgroundColor #484848-black
	BorderColor #484848
	FontColor #D8Bc00
}


skinparam database {
		FontColor #C8Ac00
	BorderColor #333333
	BackgroundColor #333333-#333333
	BackgroundColor  #333333
}


skinparam class {
		FontColor #C8Ac00
	BorderColor #333333
	BackgroundColor #333333-#333333
	HeaderBackgroundColor #1b1b1a
    BackgroundColor #282828
    BorderColor #5e5e5e
 	StereotypeFontColor #a0a0a0
    StereotypeFontStyle bold
	BorderThickness 1
	AttributeFontColor #D8Bc00
	AttributeFontSize 11
    FontColor #D8Bc00
    FontStyle bold
}


skinparam object {
		FontColor #C8Ac00
	BorderColor #333333
	BackgroundColor #333333-#333333
	StereotypeFontColor #484848
	BorderThickness 1
	AttributeFontColor #fefefe
	AttributeFontSize 11
}


skinparam usecase {
		FontColor #C8Ac00
	BorderColor #333333
	BackgroundColor #333333-#333333
	BorderThickness 2
	StereotypeFontColor #303030
}


skinparam rectangle {
		FontColor #C8Ac00
	BorderColor #333333
	BackgroundColor #333333-#333333
	BackgroundColor #333333
	BorderThickness 2
	StereotypeFontColor #303030
}


skinparam package {
		FontColor #C8Ac00
	BorderColor #333333
	BackgroundColor #333333-#333333
	BackgroundColor #333333
	BorderThickness 2
}


skinparam folder {
	BackgroundColor #6d6d6d
  	BorderColor #ff8000
	FontColor #ff8000
	BorderThickness 2
}


skinparam frame {
	BackgroundColor #6d6d6d
  	BorderColor #0060a8
	FontColor #0060a8
	BorderThickness 2
}


skinparam state {
		FontColor #C8Ac00
	BorderColor #333333
	BackgroundColor #333333-#333333
	StartColor #0060a8
	EndColor #0060a8
	AttributeFontColor #fefefe
	AttributeFontSize 11
}


skinparam queue {
		FontColor #C8Ac00
	BorderColor #333333
	BackgroundColor #333333-#333333
}


skinparam card {
	BackgroundColor #0060a8
	BorderColor #004d86
	FontColor $INFO_TEXT
}


skinparam file {
	BackgroundColor #6d6d6d-#484848
	BorderColor #0060a8
	FontColor #fefefe
}


skinparam stack {
		FontColor #C8Ac00
	BorderColor #333333
	BackgroundColor #333333-#333333
}

    
    title "com.telenav.mesakit.map.ui.desktop.theme.shapes"
    
    class Bounds
    {
    }
    
    class Edges
    {
    }
    
    class Labels
    {
    }
    
    class Lines
    {
    }
    
    class Locations
    {
    }
    
    class Places
    {
    }
    
    class Polylines
    {
    }
    
    class Relations
    {
    }
    
    class Roads
    {
    }
    
    class ShapePoints
    {
    }
    
    class Vertexes
    {
    }
    
@enduml

PlantUML version 1.2021.01(Tue Feb 02 02:55:08 EST 2021)
(GPL source distribution)
Java Runtime: OpenJDK Runtime Environment
JVM: OpenJDK 64-Bit Server VM
Default Encoding: UTF-8
Language: en
Country: US
--></g></svg>